<?xml version="1.0" encoding="UTF-8" standalone="no"?>
<svg
   version="1.1"
   width="297.0022mm"
   height="210.0072mm"
   viewBox="0.0000 0.0000 297.0022 210.0072"
   id="svg158"
   sodipodi:docname="nightliner-User_Drawings Outset.svg"
   inkscape:version="1.3 (0e150ed, 2023-07-21)"
   xmlns:inkscape="http://www.inkscape.org/namespaces/inkscape"
   xmlns:sodipodi="http://sodipodi.sourceforge.net/DTD/sodipodi-0.dtd"
   xmlns="http://www.w3.org/2000/svg"
   xmlns:svg="http://www.w3.org/2000/svg"
   xmlns:rdf="http://www.w3.org/1999/02/22-rdf-syntax-ns#"
   xmlns:cc="http://creativecommons.org/ns#"
   xmlns:dc="http://purl.org/dc/elements/1.1/">
  <sodipodi:namedview
     id="namedview158"
     pagecolor="#505050"
     bordercolor="#eeeeee"
     borderopacity="1"
     inkscape:showpageshadow="0"
     inkscape:pageopacity="0"
     inkscape:pagecheckerboard="0"
     inkscape:deskcolor="#505050"
     inkscape:document-units="mm"
     showgrid="false"
     inkscape:zoom="1.8276834"
     inkscape:cx="448.10824"
     inkscape:cy="421.02478"
     inkscape:window-width="2920"
     inkscape:window-height="1478"
     inkscape:window-x="652"
     inkscape:window-y="35"
     inkscape:window-maximized="0"
     inkscape:current-layer="svg158" />
  <defs
     id="defs158" />
  <title
     id="title1">SVG Image created as nightliner-User_Drawings.svg date 2023/11/02 11:13:24 </title>
  <desc
     id="desc1">Image generated by PCBNEW </desc>
  <g
     style="fill:#000000; fill-opacity:1.0000;stroke:#000000; stroke-opacity:1.0000; stroke-linecap:round; stroke-linejoin:round;"
     transform="translate(0 0) scale(1 1)"
     id="g1" />
  <g
     style="fill:#000000; fill-opacity:0.0;  stroke:#000000; stroke-width:0.0000; stroke-opacity:1;  stroke-linecap:round; stroke-linejoin:round;"
     id="g2" />
  <path
     d="M 155.956 35.052 C 156.158 35.052 156.352 35.1323 156.495 35.2752 C 156.638 35.4181 156.718 35.6119 156.718 35.814 L 156.718 36.83 C 156.718 37.0321 156.798 37.2259 156.941 37.3688 C 157.084 37.5117 157.278 37.592 157.48 37.592 C 158.019 37.592 158.536 37.8061 158.917 38.1872 C 159.298 38.5682 159.512 39.0851 159.512 39.624 L 159.512 46.736 C 159.512 46.8707 159.566 46.9999 159.661 47.0952 C 159.756 47.1905 159.885 47.244 160.02 47.244 L 170.18 47.244 C 170.315 47.244 170.444 47.1905 170.539 47.0952 C 170.634 46.9999 170.688 46.8707 170.688 46.736 L 170.688 39.624 C 170.688 39.0851 170.902 38.5682 171.283 38.1872 C 171.664 37.8061 172.181 37.592 172.72 37.592 L 175.26 37.592 C 175.462 37.592 175.656 37.6723 175.799 37.8152 C 175.942 37.9581 176.022 38.1519 176.022 38.354 L 176.022 80.518 C 176.022 80.7201 175.942 80.9139 175.799 81.0568 C 175.656 81.1997 175.462 81.28 175.26 81.28 L 168.656 81.28 C 168.521 81.28 168.392 81.3335 168.297 81.4288 C 168.202 81.5241 168.148 81.6533 168.148 81.788 L 168.148 91.948 C 168.148 92.0827 168.202 92.2119 168.297 92.3072 C 168.392 92.4025 168.521 92.456 168.656 92.456 L 175.26 92.456 C 175.462 92.456 175.656 92.5363 175.799 92.6792 C 175.942 92.8221 176.022 93.0159 176.022 93.218 L 176.022 108.966 C 176.022 109.168 175.942 109.362 175.799 109.505 C 175.656 109.648 175.462 109.728 175.26 109.728 L 167.132 109.728 C 166.93 109.728 166.736 109.808 166.593 109.951 C 166.45 110.094 166.37 110.288 166.37 110.49 L 166.37 117.094 C 166.37 117.815 165.935 118.464 165.268 118.738 C 164.602 119.013 163.835 118.857 163.328 118.345 L 149.86 107.188 C 149.581 106.909 149.24 106.7 148.865 106.577 L 139.196 103.861 C 138.603 103.742 138.176 103.221 138.176 102.616 L 138.129 35.052 L 139.754 35.052 Z"
     id="path2_joined"
     style="fill:#000000;fill-opacity:0;stroke:#000000;stroke-width:0.2;stroke-linecap:round;stroke-linejoin:round;stroke-opacity:1" />
  <path
     d="M 73.6454 22.6238 L 100.819 20.5768 C 101.293 20.5038 101.777 20.6236 102.162 20.9093 C 102.547 21.1951 102.802 21.6231 102.87 22.098 L 103.378 28.448 C 103.499 29.0534 104.031 29.4892 104.648 29.4892 L 122.174 28.956 C 122.578 28.956 122.966 29.1166 123.252 29.4024 C 123.537 29.6882 123.698 30.0758 123.698 30.48 L 123.952 34.29 C 123.952 34.4921 124.032 34.6859 124.175 34.8288 C 124.318 34.9717 124.512 35.052 124.714 35.052 L 139.7 35.052 L 139.7 101.6 C 139.7 102.045 139.989 102.438 140.414 102.57 L 149.627 105.053 C 150.002 105.176 150.343 105.385 150.622 105.664 L 171.45 122.936 C 171.816 123.156 172.07 123.523 172.146 123.944 C 172.221 124.365 172.111 124.797 171.845 125.131 L 159.132 140.311 C 158.545 141.045 157.68 141.505 156.743 141.582 C 155.805 141.659 154.877 141.345 154.178 140.716 L 139.192 128.27 L 122.936 123.952 L 101.854 127.762 C 100.148 128.024 98.5234 126.945 98.1049 125.27 L 97.7653 123.449 C 97.6466 122.855 97.1254 122.428 96.52 122.428 L 28.702 122.428 C 26.7154 122.428 25.0199 120.992 24.6933 119.032 L 16.002 70.104 C 15.8673 69.5651 15.9521 68.9947 16.2379 68.5184 C 16.5237 68.042 16.9871 67.6987 17.526 67.564 L 34.2824 64.4857 C 34.7347 64.3726 35.052 63.9662 35.052 63.5 L 34.29 56.896 C 34.1636 55.8848 34.8 54.9344 35.7832 54.6663 L 52.8502 52.1245 C 53.262 51.9872 53.5071 51.5648 53.4219 51.1392 L 52.07 38.608 C 51.7925 37.3592 52.5685 36.1189 53.8128 35.8221 L 71.628 34.036 C 72.1891 33.8957 72.5303 33.3271 72.39 32.766 L 71.882 24.638 C 71.882 23.6196 72.6359 22.7584 73.6454 22.6238"
     id="path3_joined"
     style="fill:#000000;fill-opacity:0;stroke:#000000;stroke-width:0.2;stroke-linecap:round;stroke-linejoin:round;stroke-opacity:1" />
  <g
     id="g72"
     style="fill:#000000;fill-opacity:0;stroke:#000000;stroke-width:0.2;stroke-linecap:round;stroke-linejoin:round;stroke-opacity:1" />
  <g
     id="g73"
     style="fill:#000000;fill-opacity:0;stroke:#000000;stroke-width:0.2;stroke-linecap:round;stroke-linejoin:round;stroke-opacity:1" />
  <g
     id="g74"
     style="fill:#000000;fill-opacity:0;stroke:#000000;stroke-width:0.2;stroke-linecap:round;stroke-linejoin:round;stroke-opacity:1" />
  <g
     id="g75"
     style="fill:#000000;fill-opacity:0;stroke:#000000;stroke-width:0.2;stroke-linecap:round;stroke-linejoin:round;stroke-opacity:1" />
  <g
     id="g76"
     style="fill:#000000;fill-opacity:0;stroke:#000000;stroke-width:0.2;stroke-linecap:round;stroke-linejoin:round;stroke-opacity:1" />
  <g
     id="g77"
     style="fill:#000000;fill-opacity:0;stroke:#000000;stroke-width:0.2;stroke-linecap:round;stroke-linejoin:round;stroke-opacity:1" />
  <g
     id="g78"
     style="fill:#000000;fill-opacity:0;stroke:#000000;stroke-width:0.2;stroke-linecap:round;stroke-linejoin:round;stroke-opacity:1" />
  <g
     id="g79"
     style="fill:#000000;fill-opacity:0;stroke:#000000;stroke-width:0.2;stroke-linecap:round;stroke-linejoin:round;stroke-opacity:1" />
  <g
     id="g80"
     style="fill:#000000;fill-opacity:0;stroke:#000000;stroke-width:0.2;stroke-linecap:round;stroke-linejoin:round;stroke-opacity:1" />
  <g
     id="g81"
     style="fill:#000000;fill-opacity:0;stroke:#000000;stroke-width:0.2;stroke-linecap:round;stroke-linejoin:round;stroke-opacity:1" />
  <g
     id="g82"
     style="fill:#000000;fill-opacity:0;stroke:#000000;stroke-width:0.2;stroke-linecap:round;stroke-linejoin:round;stroke-opacity:1" />
  <g
     id="g83"
     style="fill:#000000;fill-opacity:0;stroke:#000000;stroke-width:0.2;stroke-linecap:round;stroke-linejoin:round;stroke-opacity:1" />
  <g
     id="g84"
     style="fill:#000000;fill-opacity:0;stroke:#000000;stroke-width:0.2;stroke-linecap:round;stroke-linejoin:round;stroke-opacity:1" />
  <g
     id="g85"
     style="fill:#000000;fill-opacity:0;stroke:#000000;stroke-width:0.2;stroke-linecap:round;stroke-linejoin:round;stroke-opacity:1" />
  <g
     id="g86"
     style="fill:#000000;fill-opacity:0;stroke:#000000;stroke-width:0.2;stroke-linecap:round;stroke-linejoin:round;stroke-opacity:1" />
  <g
     id="g87"
     style="fill:#000000;fill-opacity:0;stroke:#000000;stroke-width:0.2;stroke-linecap:round;stroke-linejoin:round;stroke-opacity:1" />
  <g
     id="g88"
     style="fill:#000000;fill-opacity:0;stroke:#000000;stroke-width:0.2;stroke-linecap:round;stroke-linejoin:round;stroke-opacity:1" />
  <g
     id="g89"
     style="fill:#000000;fill-opacity:0;stroke:#000000;stroke-width:0.2;stroke-linecap:round;stroke-linejoin:round;stroke-opacity:1" />
  <g
     id="g90"
     style="fill:#000000;fill-opacity:0;stroke:#000000;stroke-width:0.2;stroke-linecap:round;stroke-linejoin:round;stroke-opacity:1" />
  <g
     id="g91"
     style="fill:#000000;fill-opacity:0;stroke:#000000;stroke-width:0.2;stroke-linecap:round;stroke-linejoin:round;stroke-opacity:1" />
  <g
     id="g92"
     style="fill:#000000;fill-opacity:0;stroke:#000000;stroke-width:0.2;stroke-linecap:round;stroke-linejoin:round;stroke-opacity:1" />
  <g
     id="g93"
     style="fill:#000000;fill-opacity:0;stroke:#000000;stroke-width:0.2;stroke-linecap:round;stroke-linejoin:round;stroke-opacity:1" />
  <g
     id="g94"
     style="fill:#000000;fill-opacity:0;stroke:#000000;stroke-width:0.2;stroke-linecap:round;stroke-linejoin:round;stroke-opacity:1" />
  <g
     id="g95"
     style="fill:#000000;fill-opacity:0;stroke:#000000;stroke-width:0.2;stroke-linecap:round;stroke-linejoin:round;stroke-opacity:1" />
  <g
     id="g96"
     style="fill:#000000;fill-opacity:0;stroke:#000000;stroke-width:0.2;stroke-linecap:round;stroke-linejoin:round;stroke-opacity:1" />
  <g
     id="g97"
     style="fill:#000000;fill-opacity:0;stroke:#000000;stroke-width:0.2;stroke-linecap:round;stroke-linejoin:round;stroke-opacity:1" />
  <g
     id="g98"
     style="fill:#000000;fill-opacity:0;stroke:#000000;stroke-width:0.2;stroke-linecap:round;stroke-linejoin:round;stroke-opacity:1" />
  <g
     id="g99"
     style="fill:#000000;fill-opacity:0;stroke:#000000;stroke-width:0.2;stroke-linecap:round;stroke-linejoin:round;stroke-opacity:1" />
  <g
     id="g100"
     style="fill:#000000;fill-opacity:0;stroke:#000000;stroke-width:0.2;stroke-linecap:round;stroke-linejoin:round;stroke-opacity:1" />
  <g
     id="g101"
     style="fill:#000000;fill-opacity:0;stroke:#000000;stroke-width:0.2;stroke-linecap:round;stroke-linejoin:round;stroke-opacity:1" />
  <g
     id="g102"
     style="fill:#000000;fill-opacity:0;stroke:#000000;stroke-width:0.2;stroke-linecap:round;stroke-linejoin:round;stroke-opacity:1" />
  <g
     id="g103"
     style="fill:#000000;fill-opacity:0;stroke:#000000;stroke-width:0.2;stroke-linecap:round;stroke-linejoin:round;stroke-opacity:1" />
  <g
     id="g104"
     style="fill:#000000;fill-opacity:0;stroke:#000000;stroke-width:0.2;stroke-linecap:round;stroke-linejoin:round;stroke-opacity:1" />
  <g
     id="g105"
     style="fill:#000000;fill-opacity:0;stroke:#000000;stroke-width:0.2;stroke-linecap:round;stroke-linejoin:round;stroke-opacity:1" />
  <g
     id="g106"
     style="fill:#000000;fill-opacity:0;stroke:#000000;stroke-width:0.2;stroke-linecap:round;stroke-linejoin:round;stroke-opacity:1" />
  <g
     id="g107"
     style="fill:#000000;fill-opacity:0;stroke:#000000;stroke-width:0.2;stroke-linecap:round;stroke-linejoin:round;stroke-opacity:1" />
  <g
     id="g108"
     style="fill:#000000;fill-opacity:0;stroke:#000000;stroke-width:0.2;stroke-linecap:round;stroke-linejoin:round;stroke-opacity:1" />
  <g
     id="g109"
     style="fill:#000000;fill-opacity:0;stroke:#000000;stroke-width:0.2;stroke-linecap:round;stroke-linejoin:round;stroke-opacity:1" />
  <g
     id="g110"
     style="fill:#000000;fill-opacity:0;stroke:#000000;stroke-width:0.2;stroke-linecap:round;stroke-linejoin:round;stroke-opacity:1" />
  <g
     id="g111"
     style="fill:#000000;fill-opacity:0;stroke:#000000;stroke-width:0.2;stroke-linecap:round;stroke-linejoin:round;stroke-opacity:1" />
  <g
     id="g112"
     style="fill:#000000;fill-opacity:0;stroke:#000000;stroke-width:0.2;stroke-linecap:round;stroke-linejoin:round;stroke-opacity:1" />
  <g
     id="g113"
     style="fill:#000000;fill-opacity:0;stroke:#000000;stroke-width:0.2;stroke-linecap:round;stroke-linejoin:round;stroke-opacity:1" />
  <g
     id="g114"
     style="fill:#000000;fill-opacity:0;stroke:#000000;stroke-width:0.2;stroke-linecap:round;stroke-linejoin:round;stroke-opacity:1" />
  <g
     id="g115"
     style="fill:#000000;fill-opacity:0;stroke:#000000;stroke-width:0.2;stroke-linecap:round;stroke-linejoin:round;stroke-opacity:1" />
  <g
     id="g116"
     style="fill:#000000;fill-opacity:0;stroke:#000000;stroke-width:0.2;stroke-linecap:round;stroke-linejoin:round;stroke-opacity:1" />
  <g
     id="g117"
     style="fill:#000000;fill-opacity:0;stroke:#000000;stroke-width:0.2;stroke-linecap:round;stroke-linejoin:round;stroke-opacity:1" />
  <g
     id="g118"
     style="fill:#000000;fill-opacity:0;stroke:#000000;stroke-width:0.2;stroke-linecap:round;stroke-linejoin:round;stroke-opacity:1" />
  <g
     id="g119"
     style="fill:#000000;fill-opacity:0;stroke:#000000;stroke-width:0.2;stroke-linecap:round;stroke-linejoin:round;stroke-opacity:1" />
  <g
     id="g120"
     style="fill:#000000;fill-opacity:0;stroke:#000000;stroke-width:0.2;stroke-linecap:round;stroke-linejoin:round;stroke-opacity:1" />
  <g
     id="g121"
     style="fill:#000000;fill-opacity:0;stroke:#000000;stroke-width:0.2;stroke-linecap:round;stroke-linejoin:round;stroke-opacity:1" />
  <g
     id="g122"
     style="fill:#000000;fill-opacity:0;stroke:#000000;stroke-width:0.2;stroke-linecap:round;stroke-linejoin:round;stroke-opacity:1" />
  <g
     id="g123"
     style="fill:#000000;fill-opacity:0;stroke:#000000;stroke-width:0.2;stroke-linecap:round;stroke-linejoin:round;stroke-opacity:1" />
  <g
     id="g124"
     style="fill:#000000;fill-opacity:0;stroke:#000000;stroke-width:0.2;stroke-linecap:round;stroke-linejoin:round;stroke-opacity:1" />
  <g
     id="g125"
     style="fill:#000000;fill-opacity:0;stroke:#000000;stroke-width:0.2;stroke-linecap:round;stroke-linejoin:round;stroke-opacity:1" />
  <g
     id="g126"
     style="fill:#000000;fill-opacity:0;stroke:#000000;stroke-width:0.2;stroke-linecap:round;stroke-linejoin:round;stroke-opacity:1" />
  <g
     id="g127"
     style="fill:#000000;fill-opacity:0;stroke:#000000;stroke-width:0.2;stroke-linecap:round;stroke-linejoin:round;stroke-opacity:1" />
  <g
     id="g128"
     style="fill:#000000;fill-opacity:0;stroke:#000000;stroke-width:0.2;stroke-linecap:round;stroke-linejoin:round;stroke-opacity:1" />
  <g
     id="g129"
     style="fill:#000000;fill-opacity:0;stroke:#000000;stroke-width:0.2;stroke-linecap:round;stroke-linejoin:round;stroke-opacity:1" />
  <g
     id="g130"
     style="fill:#000000;fill-opacity:0;stroke:#000000;stroke-width:0.2;stroke-linecap:round;stroke-linejoin:round;stroke-opacity:1" />
  <g
     id="g131"
     style="fill:#000000;fill-opacity:0;stroke:#000000;stroke-width:0.2;stroke-linecap:round;stroke-linejoin:round;stroke-opacity:1" />
  <g
     id="g132"
     style="fill:#000000;fill-opacity:0;stroke:#000000;stroke-width:0.2;stroke-linecap:round;stroke-linejoin:round;stroke-opacity:1" />
  <g
     id="g133"
     style="fill:#000000;fill-opacity:0;stroke:#000000;stroke-width:0.2;stroke-linecap:round;stroke-linejoin:round;stroke-opacity:1" />
  <g
     id="g134"
     style="fill:#000000;fill-opacity:0;stroke:#000000;stroke-width:0.2;stroke-linecap:round;stroke-linejoin:round;stroke-opacity:1" />
  <g
     id="g135"
     style="fill:#000000;fill-opacity:0;stroke:#000000;stroke-width:0.2;stroke-linecap:round;stroke-linejoin:round;stroke-opacity:1" />
  <g
     id="g136"
     style="fill:#000000;fill-opacity:0;stroke:#000000;stroke-width:0.2;stroke-linecap:round;stroke-linejoin:round;stroke-opacity:1" />
  <g
     id="g137"
     style="fill:#000000;fill-opacity:0;stroke:#000000;stroke-width:0.2;stroke-linecap:round;stroke-linejoin:round;stroke-opacity:1" />
  <g
     id="g138"
     style="fill:#000000;fill-opacity:0;stroke:#000000;stroke-width:0.2;stroke-linecap:round;stroke-linejoin:round;stroke-opacity:1" />
  <g
     id="g139"
     style="fill:#000000;fill-opacity:0;stroke:#000000;stroke-width:0.2;stroke-linecap:round;stroke-linejoin:round;stroke-opacity:1" />
  <g
     id="g140"
     style="fill:#000000;fill-opacity:0;stroke:#000000;stroke-width:0.2;stroke-linecap:round;stroke-linejoin:round;stroke-opacity:1" />
  <g
     id="g141"
     style="fill:#000000;fill-opacity:0;stroke:#000000;stroke-width:0.2;stroke-linecap:round;stroke-linejoin:round;stroke-opacity:1" />
  <g
     id="g142"
     style="fill:#000000;fill-opacity:0;stroke:#000000;stroke-width:0.2;stroke-linecap:round;stroke-linejoin:round;stroke-opacity:1" />
  <g
     id="g143"
     style="fill:#000000;fill-opacity:0;stroke:#000000;stroke-width:0.2;stroke-linecap:round;stroke-linejoin:round;stroke-opacity:1" />
  <g
     id="g144"
     style="fill:#000000;fill-opacity:0;stroke:#000000;stroke-width:0.2;stroke-linecap:round;stroke-linejoin:round;stroke-opacity:1" />
  <g
     id="g145"
     style="fill:#000000;fill-opacity:0;stroke:#000000;stroke-width:0.2;stroke-linecap:round;stroke-linejoin:round;stroke-opacity:1" />
  <g
     id="g146"
     style="fill:#000000;fill-opacity:0;stroke:#000000;stroke-width:0.2;stroke-linecap:round;stroke-linejoin:round;stroke-opacity:1" />
  <g
     id="g147"
     style="fill:#000000;fill-opacity:0;stroke:#000000;stroke-width:0.2;stroke-linecap:round;stroke-linejoin:round;stroke-opacity:1" />
  <g
     id="g148"
     style="fill:#000000;fill-opacity:0;stroke:#000000;stroke-width:0.2;stroke-linecap:round;stroke-linejoin:round;stroke-opacity:1" />
  <g
     id="g149"
     style="fill:#000000;fill-opacity:0;stroke:#000000;stroke-width:0.2;stroke-linecap:round;stroke-linejoin:round;stroke-opacity:1" />
  <g
     id="g150"
     style="fill:#000000;fill-opacity:0;stroke:#000000;stroke-width:0.2;stroke-linecap:round;stroke-linejoin:round;stroke-opacity:1" />
  <g
     id="g151"
     style="fill:#000000;fill-opacity:0;stroke:#000000;stroke-width:0.2;stroke-linecap:round;stroke-linejoin:round;stroke-opacity:1" />
  <g
     id="g152"
     style="fill:#000000;fill-opacity:0;stroke:#000000;stroke-width:0.2;stroke-linecap:round;stroke-linejoin:round;stroke-opacity:1" />
  <g
     id="g153"
     style="fill:#000000;fill-opacity:0;stroke:#000000;stroke-width:0.2;stroke-linecap:round;stroke-linejoin:round;stroke-opacity:1" />
  <g
     id="g154"
     style="fill:#000000;fill-opacity:0;stroke:#000000;stroke-width:0.2;stroke-linecap:round;stroke-linejoin:round;stroke-opacity:1" />
  <g
     id="g155"
     style="fill:#000000;fill-opacity:0;stroke:#000000;stroke-width:0.2;stroke-linecap:round;stroke-linejoin:round;stroke-opacity:1" />
  <g
     id="g156"
     style="fill:#000000;fill-opacity:0;stroke:#000000;stroke-width:0.2;stroke-linecap:round;stroke-linejoin:round;stroke-opacity:1" />
  <g
     id="g157"
     style="fill:#000000;fill-opacity:0;stroke:#000000;stroke-width:0.2;stroke-linecap:round;stroke-linejoin:round;stroke-opacity:1" />
  <path
     id="path158"
     style="fill:#000000;fill-opacity:0;stroke:#000000;stroke-width:0.2;stroke-linecap:round;stroke-linejoin:round;stroke-opacity:1"
     d="m 100.97266,20.357422 c -9.216466,0.723833 -18.44582,1.347178 -27.655359,2.130711 -1.311431,0.313307 -1.890199,1.845831 -1.57817,3.063034 0.143211,2.564018 0.361989,5.136293 0.443117,7.696104 -0.31708,0.890778 -1.455337,0.577284 -2.178235,0.749019 -5.478496,0.568786 -10.971587,1.052766 -16.439169,1.692171 -1.426432,0.408104 -2.051216,2.109393 -1.638966,3.449824 0.438937,4.093968 0.906026,8.185013 1.300684,12.28359 -0.264208,0.844642 -1.35937,0.507556 -2.00907,0.74321 -5.228267,0.79612 -10.474167,1.512172 -15.688776,2.375918 -1.236349,0.414549 -1.700179,1.91345 -1.357781,3.083509 0.191645,2.050755 0.572882,4.108807 0.627893,6.156738 -0.410219,0.816557 -1.510589,0.559994 -2.243601,0.821195 -5.130778,0.958555 -10.280887,1.83892 -15.394521,2.873253 -1.23435,0.460258 -1.696982,1.993343 -1.264409,3.166534 2.899517,16.302091 5.778161,32.609578 8.710184,48.904838 0.537614,2.04557 2.742603,3.35198 4.80055,3.07987 22.43295,0.004 44.867958,-0.017 67.299619,0.0222 0.993882,0.1903 0.978476,1.43783 1.094442,2.22856 0.248273,1.83402 2.027554,3.3727 3.910928,3.08326 1.74264,-0.22585 3.457,-0.64248 5.19553,-0.91049 5.34006,-0.96538 10.68012,-1.93077 16.02018,-2.89615 5.38868,1.43164 10.77735,2.86328 16.16602,4.29492 5.16976,4.26934 10.28808,8.6063 15.50012,12.81931 1.64161,1.06004 3.99908,0.40971 5.01699,-1.21676 4.18168,-5.01324 8.41176,-9.99086 12.55127,-15.03634 0.54163,-0.91189 -0.0484,-2.04966 -0.9137,-2.50251 -6.9997,-5.79834 -13.97889,-11.62341 -21.00234,-17.39183 -1.89893,-0.76453 -3.92791,-1.08242 -5.87323,-1.69494 -1.40081,-0.4046 -2.88061,-0.66115 -4.21075,-1.2406 -0.5675,-0.70604 -0.11237,-1.68361 -0.26367,-2.501175 0,-21.54388 0,-43.08776 0,-64.631641 -0.65226,-0.435351 -1.54639,-0.08776 -2.29961,-0.199159 -4.33047,-7.93e-4 -8.66098,0.01047 -12.99141,-0.01373 -0.78329,-0.310107 -0.37151,-1.336124 -0.55379,-1.970506 -0.19307,-1.18402 0.15054,-2.579374 -0.635,-3.589534 -0.99782,-0.905121 -2.45335,-0.370184 -3.65517,-0.449965 -5.13379,0.139038 -10.27301,0.35965 -15.40417,0.420512 -0.94826,-0.257566 -0.83742,-1.453243 -0.89556,-2.221229 -0.19684,-1.831351 -0.1711,-3.704863 -0.55357,-5.505684 -0.33483,-0.734563 -1.13171,-1.213261 -1.9375,-1.166016 z" />
  <path
     id="path159"
     style="fill:#000000;fill-opacity:0;stroke:#000000;stroke-width:0.2;stroke-linecap:round;stroke-linejoin:round;stroke-opacity:1"
     d="m 152.66211,34.861328 c -4.84435,-0.01773 -9.68881,-0.003 -14.5332,-0.0078 -0.43607,0.384176 -0.0867,1.15976 -0.19827,1.699218 0.0183,22.092896 0.0169,44.18714 0.0638,66.279176 0.14428,1.15523 1.4919,1.33257 2.40283,1.5752 2.91111,0.8468 5.8702,1.574 8.74405,2.52016 1.81325,1.31495 3.45244,2.85222 5.21409,4.24113 3.13314,2.57208 6.21102,5.22389 9.40245,7.71721 1.33213,0.70578 3.07955,-0.6178 2.8112,-2.09342 0.0224,-2.16633 -0.0511,-4.33391 0.0423,-6.49922 0.43393,-0.7041 1.38192,-0.21949 2.03945,-0.36518 2.30281,-0.0259 4.61884,0.0619 6.9134,-0.0534 0.97237,-0.36937 0.58571,-1.61273 0.6566,-2.40682 -0.004,-4.81985 0.0181,-9.64039 -0.0216,-14.459768 -0.2568,-0.994874 -1.46966,-0.729841 -2.23867,-0.752234 -1.82065,-0.04631 -3.69013,0.09766 -5.48008,-0.0798 -0.34899,-0.579371 -0.002,-1.310526 -0.13212,-1.95078 0.013,-2.852363 -0.0343,-5.70507 0.0325,-8.557032 0.51793,-0.45153 1.27955,-0.0446 1.89765,-0.190726 1.79268,-0.05227 3.61703,0.118437 5.38973,-0.09871 0.89612,-0.486285 0.44458,-1.648312 0.55248,-2.46134 -0.004,-13.59015 0.0187,-27.181009 -0.0215,-40.770704 -0.25299,-0.997925 -1.46953,-0.729527 -2.23865,-0.756033 -1.15416,-0.08618 -2.67208,-0.02618 -3.21163,1.2091 -0.53961,1.203316 -0.12663,2.555653 -0.26223,3.824275 -0.0353,1.489048 0.087,3.021384 -0.0746,4.482424 -0.57846,0.359367 -1.31285,0.0069 -1.95469,0.137974 -2.85236,-0.01298 -5.70507,0.03425 -8.55703,-0.03251 -0.4521,-0.516932 -0.0445,-1.279658 -0.19059,-1.897654 -0.0423,-2.046635 0.0999,-4.109009 -0.0907,-6.145315 -0.29001,-1.063734 -1.41714,-1.593153 -2.4211,-1.67155 -0.69061,-0.594843 0.1663,-1.872371 -0.78338,-2.32668 -1.21736,-0.221862 -2.51204,-0.09085 -3.75255,-0.109192 z" />
  <metadata
     id="metadata159">
    <rdf:RDF>
      <cc:Work
         rdf:about="">
        <dc:title>SVG Image created as nightliner-User_Drawings.svg date 2023/11/02 11:13:24 </dc:title>
      </cc:Work>
    </rdf:RDF>
  </metadata>
</svg>
