<?xml version="1.0" standalone="no"?>
 <!DOCTYPE svg PUBLIC "-//W3C//DTD SVG 1.1//EN" 
 "http://www.w3.org/Graphics/SVG/1.1/DTD/svg11.dtd"> 
<svg
  xmlns:svg="http://www.w3.org/2000/svg"
  xmlns="http://www.w3.org/2000/svg"
  xmlns:xlink="http://www.w3.org/1999/xlink"
  version="1.1"
  width="297.0022mm" height="210.0072mm" viewBox="0.0000 0.0000 297.0022 210.0072">
<title>SVG Image created as nightliner-User_5.svg date 2023/10/31 23:39:44 </title>
  <desc>Image generated by PCBNEW </desc>
<g style="fill:#000000; fill-opacity:1.0000;stroke:#000000; stroke-opacity:1.0000;
stroke-linecap:round; stroke-linejoin:round;"
 transform="translate(0 0) scale(1 1)">
</g>
<g style="fill:#000000; fill-opacity:0.0; 
stroke:#000000; stroke-width:0.0000; stroke-opacity:1; 
stroke-linecap:round; stroke-linejoin:round;">
</g>
<g style="fill:#000000; fill-opacity:0.0; 
stroke:#000000; stroke-width:0.1500; stroke-opacity:1; 
stroke-linecap:round; stroke-linejoin:round;">
<path d="M178.0540 120.9040
L160.7820 141.7320
" />
<path d="M95.9729 125.4890 A0.7620 0.7620 0.0 0 0 95.2500 124.9680" />
<path d="M22.2533 120.4640 A5.8420 5.8420 0.0 0 0 27.9400 124.9680" />
<path d="M68.2557 31.6956 A1.4811 1.4811 0.0 0 0 69.5416 30.0423" />
<path d="M72.2018 20.3385
L100.8380 18.0340
" />
<path d="M152.7805 142.3857
L138.1760 130.0480
" />
<path d="M95.2500 124.9680
L27.9400 124.9680
" />
<path d="M152.7805 142.3857 A5.5938 5.5938 0.0 0 0 160.7820 141.7320" />
<path d="M52.5780 33.4101
L68.2557 31.6956
" />
<path d="M178.5620 35.0520
L178.5620 119.3800
" />
<path d="M52.5780 33.4101 A4.3036 4.3036 0.0 0 0 49.3167 38.0673" />
<path d="M69.5416 30.0423
L69.0880 24.1300
" />
<path d="M72.2018 20.3385 A3.5651 3.5651 0.0 0 0 69.0880 24.1300" />
<path d="M105.4232 21.7097 A4.0956 4.0956 0.0 0 0 100.8380 18.0340" />
<path d="M138.1760 130.0480
L122.9360 126.2380
" />
<path d="M178.5620 35.0520 A2.5400 2.5400 0.0 0 0 176.0220 32.5120" />
<path d="M31.2420 62.7380 A1.2951 1.2951 0.0 0 0 32.2580 61.2140" />
<path d="M34.4920 52.5569
L49.2760 50.2920
" />
<path d="M50.5460 48.5140
L49.3167 38.0673
" />
<path d="M127.7620 32.5120
L176.0220 32.5120
" />
<path d="M22.2533 120.4640
L13.7160 70.4528
" />
<path d="M96.5200 127.0000
L95.9729 125.4890
" />
<path d="M178.0540 120.9040 A2.5400 2.5400 0.0 0 0 178.5620 119.3800" />
<path d="M122.9360 126.2380
L102.1080 130.0480
" />
<path d="M107.4420 26.9240
L123.8022 26.5251
" />
<path d="M34.4920 52.5569 A3.6367 3.6367 0.0 0 0 31.7438 56.0835" />
<path d="M96.4956 127.0095 A4.9318 4.9318 0.0 0 0 102.1080 130.0480" />
<path d="M105.6819 25.3974 A1.7780 1.7780 0.0 0 0 107.4420 26.9240" />
<path d="M126.2575 31.2374 A1.5253 1.5253 0.0 0 0 127.7620 32.5120" />
<path d="M17.0790 65.2986
L31.2420 62.7380
" />
<path d="M126.0733 28.4285
L126.2575 31.2374
" />
<path d="M126.0733 28.4285 A2.4331 2.4331 0.0 0 0 123.8022 26.5251" />
<path d="M17.0790 65.2986 A4.4022 4.4022 0.0 0 0 13.7160 70.4528" />
<path d="M105.4232 21.7097
L105.6819 25.3974
" />
<path d="M49.2760 50.2920 A1.5450 1.5450 0.0 0 0 50.5460 48.5140" />
<path d="M32.2580 61.2140
L31.7438 56.0835
" />
<g >
</g>
<g >
</g>
<g >
</g>
<g >
</g>
<g >
</g>
<g >
</g>
<g >
</g>
<g >
</g>
<g >
</g>
<g >
</g>
<g >
</g>
<g >
</g>
<g >
</g>
<g >
</g>
<g >
</g>
<g >
</g>
<g >
</g>
<g >
</g>
<g >
</g>
<g >
</g>
<g >
</g>
<g >
</g>
<g >
</g>
<g >
</g>
<g >
</g>
<g >
</g>
<g >
</g>
<g >
</g>
<g >
</g>
<g >
</g>
<g >
</g>
<g >
</g>
<g >
</g>
<g >
</g>
<g >
</g>
<g >
</g>
<g >
</g>
<g >
</g>
<g >
</g>
<g >
</g>
<g >
</g>
<g >
</g>
<g >
</g>
<g >
</g>
<g >
</g>
<g >
</g>
<g >
</g>
<g >
</g>
<g >
</g>
<g >
</g>
<g >
</g>
<g >
</g>
<g >
</g>
<g >
</g>
<g >
</g>
<g >
</g>
<g >
</g>
<g >
</g>
<g >
</g>
<g >
</g>
<g >
</g>
<g >
</g>
<g >
</g>
<g >
</g>
<g >
</g>
<g >
</g>
<g >
</g>
<g >
</g>
<g >
</g>
<g >
</g>
<g >
</g>
<g >
</g>
<g >
</g>
<g >
</g>
<g >
</g>
<g >
</g>
<g >
</g>
<g >
</g>
<g >
</g>
<g >
</g>
<g >
</g>
<g >
</g>
<g >
</g>
<g >
</g>
</g> 
</svg>
