<?xml version="1.0" standalone="no"?>
 <!DOCTYPE svg PUBLIC "-//W3C//DTD SVG 1.1//EN" 
 "http://www.w3.org/Graphics/SVG/1.1/DTD/svg11.dtd"> 
<svg
  xmlns:svg="http://www.w3.org/2000/svg"
  xmlns="http://www.w3.org/2000/svg"
  xmlns:xlink="http://www.w3.org/1999/xlink"
  version="1.1"
  width="297.0022mm" height="210.0072mm" viewBox="0.0000 0.0000 297.0022 210.0072">
<title>SVG Image created as nightliner-User_Drawings.svg date 2023/10/30 19:09:34 </title>
  <desc>Image generated by PCBNEW </desc>
<g style="fill:#000000; fill-opacity:1.0000;stroke:#000000; stroke-opacity:1.0000;
stroke-linecap:round; stroke-linejoin:round;"
 transform="translate(0 0) scale(1 1)">
</g>
<g style="fill:#000000; fill-opacity:0.0; 
stroke:#000000; stroke-width:0.0000; stroke-opacity:1; 
stroke-linecap:round; stroke-linejoin:round;">
</g>
<g style="fill:#000000; fill-opacity:0.0; 
stroke:#000000; stroke-width:0.2000; stroke-opacity:1; 
stroke-linecap:round; stroke-linejoin:round;">
<path d="M73.6454 22.6238
L100.8189 20.5768
" />
<path d="M103.3780 28.4480 A1.2952 1.2952 0.0 0 0 104.6480 29.4892" />
<path d="M168.6560 82.0420
L175.2600 82.0420
" />
<path d="M139.7000 35.0520
L124.7140 35.0520
" />
<path d="M17.5260 67.5640
L34.2900 64.5160
" />
</g>
<g style="fill:#000000; fill-opacity:0.0; 
stroke:#000000; stroke-width:0.1500; stroke-opacity:1; 
stroke-linecap:round; stroke-linejoin:round;">
<path d="M24.6933 119.0321 A4.0640 4.0640 0.0 0 0 28.7020 122.4280" />
</g>
<g style="fill:#000000; fill-opacity:0.0; 
stroke:#000000; stroke-width:0.2000; stroke-opacity:1; 
stroke-linecap:round; stroke-linejoin:round;">
<path d="M176.0220 82.8040
L176.0220 108.2040
" />
</g>
<g style="fill:#000000; fill-opacity:0.0; 
stroke:#000000; stroke-width:0.1500; stroke-opacity:1; 
stroke-linecap:round; stroke-linejoin:round;">
<path d="M98.1049 125.2703 A3.3408 3.3408 0.0 0 0 101.8540 127.7620" />
<path d="M122.9360 123.9520
L101.8540 127.7620
" />
<path d="M139.1920 128.2700
L122.9360 123.9520
" />
</g>
<g style="fill:#000000; fill-opacity:0.0; 
stroke:#000000; stroke-width:0.2000; stroke-opacity:1; 
stroke-linecap:round; stroke-linejoin:round;">
<path d="M160.0200 47.2440
L170.1800 47.2440
" />
<path d="M102.8700 22.0980 A1.7960 1.7960 0.0 0 0 100.8189 20.5768" />
<path d="M164.6356 117.3044 A1.0160 1.0160 0.0 0 0 166.3700 116.5860" />
<path d="M168.1480 71.3740
L168.1480 81.5340
" />
<path d="M123.6980 30.4800 A1.5240 1.5240 0.0 0 0 122.1740 28.9560" />
<path d="M167.1320 108.9660 A0.7620 0.7620 0.0 0 0 166.3700 109.7280" />
<path d="M53.8128 35.8221
L71.6280 34.0360
" />
<path d="M170.1800 47.2440 A0.5080 0.5080 0.0 0 0 170.6880 46.7360" />
<path d="M176.0220 35.8140 A0.7620 0.7620 0.0 0 0 175.2600 35.0520" />
<path d="M103.3780 28.4480
L102.8700 22.0980
" />
<path d="M139.7000 101.6000 A1.0160 1.0160 0.0 0 0 140.4136 102.5700" />
<path d="M140.4136 102.5700
L149.6274 105.0527
" />
<path d="M166.3700 109.7280
L166.3700 116.5860
" />
<path d="M176.0220 70.1040
L176.0220 35.8140
" />
<path d="M159.1324 140.3107
L171.8445 125.1312
" />
<path d="M34.2900 56.8960
L35.0295 63.1688
" />
<path d="M175.2600 70.8660 A0.7620 0.7620 0.0 0 0 176.0220 70.1040" />
</g>
<g style="fill:#000000; fill-opacity:0.0; 
stroke:#000000; stroke-width:0.1500; stroke-opacity:1; 
stroke-linecap:round; stroke-linejoin:round;">
<path d="M96.5200 122.4280
L28.7020 122.4280
" />
</g>
<g style="fill:#000000; fill-opacity:0.0; 
stroke:#000000; stroke-width:0.2000; stroke-opacity:1; 
stroke-linecap:round; stroke-linejoin:round;">
<path d="M52.8502 52.1245 A0.8606 0.8606 0.0 0 0 53.4219 51.1392" />
</g>
<g style="fill:#000000; fill-opacity:0.0; 
stroke:#000000; stroke-width:0.1500; stroke-opacity:1; 
stroke-linecap:round; stroke-linejoin:round;">
<path d="M97.7653 123.4489
L98.1049 125.2703
" />
</g>
<g style="fill:#000000; fill-opacity:0.0; 
stroke:#000000; stroke-width:0.2000; stroke-opacity:1; 
stroke-linecap:round; stroke-linejoin:round;">
<path d="M35.7832 54.6663
L52.8502 52.1245
" />
</g>
<g style="fill:#000000; fill-opacity:0.0; 
stroke:#000000; stroke-width:0.1500; stroke-opacity:1; 
stroke-linecap:round; stroke-linejoin:round;">
<path d="M154.1780 140.7160
L139.1920 128.2700
" />
</g>
<g style="fill:#000000; fill-opacity:0.0; 
stroke:#000000; stroke-width:0.2000; stroke-opacity:1; 
stroke-linecap:round; stroke-linejoin:round;">
<path d="M17.5260 67.5640 A2.0945 2.0945 0.0 0 0 16.0020 70.1040" />
<path d="M73.6454 22.6238 A2.0320 2.0320 0.0 0 0 71.8820 24.6380" />
<path d="M175.2600 108.9660 A0.7620 0.7620 0.0 0 0 176.0220 108.2040" />
<path d="M154.1780 140.7160 A3.4172 3.4172 0.0 0 0 159.1324 140.3107" />
<path d="M168.1480 81.5340 A0.5080 0.5080 0.0 0 0 168.6560 82.0420" />
<path d="M123.6980 30.4800
L123.9520 34.2900
" />
</g>
<g style="fill:#000000; fill-opacity:0.0; 
stroke:#000000; stroke-width:0.1500; stroke-opacity:1; 
stroke-linecap:round; stroke-linejoin:round;">
<path d="M97.7653 123.4489 A1.2700 1.2700 0.0 0 0 96.5200 122.4280" />
</g>
<g style="fill:#000000; fill-opacity:0.0; 
stroke:#000000; stroke-width:0.2000; stroke-opacity:1; 
stroke-linecap:round; stroke-linejoin:round;">
<path d="M175.2600 70.8660
L168.6560 70.8660
" />
<path d="M35.7832 54.6663 A2.0478 2.0478 0.0 0 0 34.2900 56.8960" />
<path d="M171.4500 35.0520 A0.7620 0.7620 0.0 0 0 170.6880 35.8140" />
<path d="M171.4500 35.0520
L175.2600 35.0520
" />
<path d="M150.6220 105.6640 A2.5145 2.5145 0.0 0 0 149.6274 105.0527" />
<path d="M150.6220 105.6640
L171.4500 122.9360
" />
<path d="M71.8820 24.6380
L72.3900 32.7660
" />
<path d="M123.9520 34.2900 A0.7620 0.7620 0.0 0 0 124.7140 35.0520" />
<path d="M24.6933 119.0321
L16.0020 70.1040
" />
<path d="M52.0700 38.6080
L53.4219 51.1392
" />
<path d="M159.5120 46.7360 A0.5080 0.5080 0.0 0 0 160.0200 47.2440" />
<path d="M159.5120 35.8140
L159.5120 46.7360
" />
<path d="M159.5120 35.8140 A0.7620 0.7620 0.0 0 0 158.7500 35.0520" />
<path d="M168.6560 70.8660 A0.5080 0.5080 0.0 0 0 168.1480 71.3740" />
<path d="M175.2600 108.9660
L167.1320 108.9660
" />
<path d="M34.2900 64.5160 A1.0473 1.0473 0.0 0 0 35.0295 63.1688" />
<path d="M176.0220 82.8040 A0.7620 0.7620 0.0 0 0 175.2600 82.0420" />
<path d="M170.6880 35.8140
L170.6880 46.7360
" />
<path d="M71.6280 34.0360 A1.0473 1.0473 0.0 0 0 72.3900 32.7660" />
<path d="M139.7000 101.6000
L139.7000 35.0520
" />
<path d="M158.7500 35.0520
L139.7537 35.0520
" />
<path d="M171.8445 125.1312 A1.4811 1.4811 0.0 0 0 171.4500 122.9360" />
<path d="M53.8128 35.8221 A2.3418 2.3418 0.0 0 0 52.0700 38.6080" />
<path d="M122.6820 28.9560
L104.6480 29.4892
" />
<g >
</g>
<g >
</g>
<g >
</g>
<g >
</g>
<g >
</g>
<g >
</g>
<g >
</g>
<g >
</g>
<g >
</g>
<g >
</g>
<g >
</g>
<g >
</g>
<g >
</g>
<g >
</g>
<g >
</g>
<g >
</g>
<g >
</g>
<g >
</g>
<g >
</g>
<g >
</g>
<g >
</g>
<g >
</g>
<g >
</g>
<g >
</g>
<g >
</g>
<g >
</g>
<g >
</g>
<g >
</g>
<g >
</g>
<g >
</g>
<g >
</g>
<g >
</g>
<g >
</g>
<g >
</g>
<g >
</g>
<g >
</g>
<g >
</g>
<g >
</g>
<g >
</g>
<g >
</g>
<g >
</g>
<g >
</g>
<g >
</g>
<g >
</g>
<g >
</g>
<g >
</g>
<g >
</g>
<g >
</g>
<g >
</g>
<g >
</g>
<g >
</g>
<g >
</g>
<g >
</g>
<g >
</g>
<g >
</g>
<g >
</g>
<g >
</g>
<g >
</g>
<g >
</g>
<g >
</g>
<g >
</g>
<g >
</g>
<g >
</g>
<g >
</g>
<g >
</g>
<g >
</g>
<g >
</g>
<g >
</g>
<g >
</g>
<g >
</g>
<g >
</g>
<g >
</g>
<g >
</g>
<g >
</g>
<g >
</g>
<g >
</g>
<g >
</g>
<g >
</g>
<g >
</g>
<g >
</g>
<g >
</g>
<g >
</g>
<g >
</g>
<g >
</g>
</g> 
</svg>
