<?xml version="1.0" standalone="no"?>
 <!DOCTYPE svg PUBLIC "-//W3C//DTD SVG 1.1//EN" 
 "http://www.w3.org/Graphics/SVG/1.1/DTD/svg11.dtd"> 
<svg
  xmlns:svg="http://www.w3.org/2000/svg"
  xmlns="http://www.w3.org/2000/svg"
  xmlns:xlink="http://www.w3.org/1999/xlink"
  version="1.1"
  width="297.0022mm" height="210.0072mm" viewBox="0.0000 0.0000 297.0022 210.0072">
<title>SVG Image created as nightliner-B_Silkscreen.svg date 2023/11/02 11:13:24 </title>
  <desc>Image generated by PCBNEW </desc>
<g style="fill:#000000; fill-opacity:1.0000;stroke:#000000; stroke-opacity:1.0000;
stroke-linecap:round; stroke-linejoin:round;"
 transform="translate(0 0) scale(1 1)">
</g>
<g style="fill:#000000; fill-opacity:0.0; 
stroke:#000000; stroke-width:0.0000; stroke-opacity:1; 
stroke-linecap:round; stroke-linejoin:round;">
</g>
<g style="fill:#000000; fill-opacity:0.0; 
stroke:#000000; stroke-width:0.1500; stroke-opacity:1; 
stroke-linecap:round; stroke-linejoin:round;">
<g transform="rotate(83.000000 88.9000 83.5660)">
<text x="88.9000" y="83.5660"
transform="scale(-1 1) translate(-177.800000 0)"
textLength="3.2976" font-size="1.3333" lengthAdjust="spacingAndGlyphs"
text-anchor="start" opacity="0">GND</text>
</g>
<g class="stroked-text"><desc>GND</desc>
<path d="M89.8696 82.5799
L89.9285 82.6686
" />
<path d="M89.9285 82.6686
L89.9459 82.8104
" />
<path d="M89.9459 82.8104
L89.9160 82.9580
" />
<path d="M89.9160 82.9580
L89.8331 83.0641
" />
<path d="M89.8331 83.0641
L89.7444 83.1230
" />
<path d="M89.7444 83.1230
L89.5611 83.1935
" />
<path d="M89.5611 83.1935
L89.4193 83.2109
" />
<path d="M89.4193 83.2109
L89.2245 83.1868
" />
<path d="M89.2245 83.1868
L89.1242 83.1512
" />
<path d="M89.1242 83.1512
L89.0180 83.0683
" />
<path d="M89.0180 83.0683
L88.9533 82.9323
" />
<path d="M88.9533 82.9323
L88.9417 82.8378
" />
<path d="M88.9417 82.8378
L88.9716 82.6902
" />
<path d="M88.9716 82.6902
L89.0131 82.6371
" />
<path d="M89.0131 82.6371
L89.3439 82.5965
" />
<path d="M89.3439 82.5965
L89.3671 82.7855
" />
<path d="M88.8663 82.2233
L89.8588 82.1014
" />
<path d="M89.8588 82.1014
L88.7967 81.6561
" />
<path d="M88.7967 81.6561
L89.7892 81.5343
" />
<path d="M88.7386 81.1835
L89.7312 81.0616
" />
<path d="M89.7312 81.0616
L89.7022 80.8253
" />
<path d="M89.7022 80.8253
L89.6375 80.6893
" />
<path d="M89.6375 80.6893
L89.5313 80.6064
" />
<path d="M89.5313 80.6064
L89.4310 80.5708
" />
<path d="M89.4310 80.5708
L89.2362 80.5467
" />
<path d="M89.2362 80.5467
L89.0944 80.5641
" />
<path d="M89.0944 80.5641
L88.9111 80.6346
" />
<path d="M88.9111 80.6346
L88.8224 80.6935
" />
<path d="M88.8224 80.6935
L88.7395 80.7996
" />
<path d="M88.7395 80.7996
L88.7096 80.9472
" />
<path d="M88.7096 80.9472
L88.7386 81.1835
" />
</g><g transform="rotate(83.000000 93.7260 82.0420)">
<text x="93.7260" y="82.0420"
transform="scale(-1 1) translate(-187.452000 0)"
textLength="3.7262" font-size="1.3333" lengthAdjust="spacingAndGlyphs"
text-anchor="start" opacity="0">VBAT</text>
</g>
<g class="stroked-text"><desc>VBAT</desc>
<path d="M94.8241 81.7118
L93.7910 81.5028
" />
<path d="M93.7910 81.5028
L94.7429 81.0501
" />
<path d="M94.1890 80.4464
L94.1243 80.3104
" />
<path d="M94.1243 80.3104
L94.0712 80.2690
" />
<path d="M94.0712 80.2690
L93.9709 80.2333
" />
<path d="M93.9709 80.2333
L93.8291 80.2507
" />
<path d="M93.8291 80.2507
L93.7404 80.3096
" />
<path d="M93.7404 80.3096
L93.6989 80.3627
" />
<path d="M93.6989 80.3627
L93.6633 80.4630
" />
<path d="M93.6633 80.4630
L93.7097 80.8411
" />
<path d="M93.7097 80.8411
L94.7023 80.7192
" />
<path d="M94.7023 80.7192
L94.6616 80.3884
" />
<path d="M94.6616 80.3884
L94.6028 80.2997
" />
<path d="M94.6028 80.2997
L94.5497 80.2582
" />
<path d="M94.5497 80.2582
L94.4494 80.2225
" />
<path d="M94.4494 80.2225
L94.3548 80.2342
" />
<path d="M94.3548 80.2342
L94.2661 80.2930
" />
<path d="M94.2661 80.2930
L94.2246 80.3461
" />
<path d="M94.2246 80.3461
L94.1890 80.4464
" />
<path d="M94.1890 80.4464
L94.2296 80.7773
" />
<path d="M93.8772 79.8610
L93.8192 79.3884
" />
<path d="M93.6052 79.9904
L94.5572 79.5376
" />
<path d="M94.5572 79.5376
L93.5240 79.3287
" />
<path d="M94.4933 79.0177
L94.4237 78.4506
" />
<path d="M93.4660 78.8560
L94.4585 78.7341
" />
</g><g transform="rotate(-90.000000 146.8120 42.9260)">
<text x="146.8120" y="43.4260"
transform="scale(-1 1) translate(-293.624000 0)"
textLength="1.9643" font-size="1.3333" lengthAdjust="spacingAndGlyphs"
text-anchor="middle" opacity="0">J2</text>
</g>
<g class="stroked-text"><desc>J2</desc>
<path d="M146.2668 42.5927
L146.9811 42.5927
" />
<path d="M146.9811 42.5927
L147.1240 42.5450
" />
<path d="M147.1240 42.5450
L147.2192 42.4498
" />
<path d="M147.2192 42.4498
L147.2668 42.3070
" />
<path d="M147.2668 42.3070
L147.2668 42.2117
" />
<path d="M146.3621 43.0212
L146.3144 43.0689
" />
<path d="M146.3144 43.0689
L146.2668 43.1641
" />
<path d="M146.2668 43.1641
L146.2668 43.4022
" />
<path d="M146.2668 43.4022
L146.3144 43.4974
" />
<path d="M146.3144 43.4974
L146.3621 43.5450
" />
<path d="M146.3621 43.5450
L146.4573 43.5927
" />
<path d="M146.4573 43.5927
L146.5525 43.5927
" />
<path d="M146.5525 43.5927
L146.6954 43.5450
" />
<path d="M146.6954 43.5450
L147.2668 42.9736
" />
<path d="M147.2668 42.9736
L147.2668 43.5927
" />
</g><g transform="rotate(40.000000 157.9194 133.7257)">
<text x="157.9194" y="134.2257"
transform="scale(-1 1) translate(-315.838890 0)"
textLength="2.2024" font-size="1.3333" lengthAdjust="spacingAndGlyphs"
text-anchor="middle" opacity="0">P1</text>
</g>
<g class="stroked-text"><desc>P1</desc>
<path d="M158.1925 134.5485
L158.8353 133.7825
" />
<path d="M158.8353 133.7825
L158.5435 133.5376
" />
<path d="M158.5435 133.5376
L158.4399 133.5128
" />
<path d="M158.4399 133.5128
L158.3728 133.5187
" />
<path d="M158.3728 133.5187
L158.2751 133.5611
" />
<path d="M158.2751 133.5611
L158.1833 133.6705
" />
<path d="M158.1833 133.6705
L158.1586 133.7741
" />
<path d="M158.1586 133.7741
L158.1644 133.8411
" />
<path d="M158.1644 133.8411
L158.2068 133.9388
" />
<path d="M158.2068 133.9388
L158.4986 134.1837
" />
<path d="M157.0252 133.5690
L157.4629 133.9363
" />
<path d="M157.2441 133.7527
L157.8869 132.9866
" />
<path d="M157.8869 132.9866
L157.8680 133.1573
" />
<path d="M157.8680 133.1573
L157.8797 133.2914
" />
<path d="M157.8797 133.2914
L157.9221 133.3891
" />
</g><g transform="rotate(40.000000 147.3013 130.5375)">
<text x="147.3013" y="131.0375"
transform="scale(-1 1) translate(-294.602556 0)"
textLength="6.8690" font-size="1.3333" lengthAdjust="spacingAndGlyphs"
text-anchor="middle" opacity="0">ISP_Prog</text>
</g>
<g class="stroked-text"><desc>ISP_Prog</desc>
<path d="M149.3618 132.8602
L150.0046 132.0941
" />
<path d="M149.0641 132.5482
L148.9240 132.4929
" />
<path d="M148.9240 132.4929
L148.7416 132.3398
" />
<path d="M148.7416 132.3398
L148.6993 132.2421
" />
<path d="M148.6993 132.2421
L148.6934 132.1750
" />
<path d="M148.6934 132.1750
L148.7182 132.0715
" />
<path d="M148.7182 132.0715
L148.7794 131.9985
" />
<path d="M148.7794 131.9985
L148.8771 131.9562
" />
<path d="M148.8771 131.9562
L148.9442 131.9503
" />
<path d="M148.9442 131.9503
L149.0477 131.9750
" />
<path d="M149.0477 131.9750
L149.2243 132.0610
" />
<path d="M149.2243 132.0610
L149.3278 132.0857
" />
<path d="M149.3278 132.0857
L149.3949 132.0799
" />
<path d="M149.3949 132.0799
L149.4926 132.0375
" />
<path d="M149.4926 132.0375
L149.5538 131.9646
" />
<path d="M149.5538 131.9646
L149.5786 131.8610
" />
<path d="M149.5786 131.8610
L149.5727 131.7939
" />
<path d="M149.5727 131.7939
L149.5303 131.6962
" />
<path d="M149.5303 131.6962
L149.3480 131.5432
" />
<path d="M149.3480 131.5432
L149.2079 131.4878
" />
<path d="M148.2674 131.9419
L148.9102 131.1759
" />
<path d="M148.9102 131.1759
L148.6184 130.9310
" />
<path d="M148.6184 130.9310
L148.5148 130.9063
" />
<path d="M148.5148 130.9063
L148.4477 130.9121
" />
<path d="M148.4477 130.9121
L148.3500 130.9545
" />
<path d="M148.3500 130.9545
L148.2582 131.0639
" />
<path d="M148.2582 131.0639
L148.2335 131.1675
" />
<path d="M148.2335 131.1675
L148.2393 131.2346
" />
<path d="M148.2393 131.2346
L148.2817 131.3323
" />
<path d="M148.2817 131.3323
L148.5735 131.5771
" />
<path d="M147.6226 131.5251
L147.0389 131.0354
" />
<path d="M146.9177 130.8094
L147.5605 130.0433
" />
<path d="M147.5605 130.0433
L147.2687 129.7985
" />
<path d="M147.2687 129.7985
L147.1651 129.7737
" />
<path d="M147.1651 129.7737
L147.0980 129.7796
" />
<path d="M147.0980 129.7796
L147.0003 129.8219
" />
<path d="M147.0003 129.8219
L146.9085 129.9314
" />
<path d="M146.9085 129.9314
L146.8838 130.0349
" />
<path d="M146.8838 130.0349
L146.8896 130.1020
" />
<path d="M146.8896 130.1020
L146.9320 130.1997
" />
<path d="M146.9320 130.1997
L147.2238 130.4446
" />
<path d="M146.1517 130.1666
L146.5802 129.6559
" />
<path d="M146.4578 129.8018
L146.4825 129.6982
" />
<path d="M146.4825 129.6982
L146.4766 129.6312
" />
<path d="M146.4766 129.6312
L146.4343 129.5335
" />
<path d="M146.4343 129.5335
L146.3613 129.4722
" />
<path d="M145.5680 129.6769
L145.6716 129.7016
" />
<path d="M145.6716 129.7016
L145.7387 129.6957
" />
<path d="M145.7387 129.6957
L145.8364 129.6534
" />
<path d="M145.8364 129.6534
L146.0200 129.4345
" />
<path d="M146.0200 129.4345
L146.0448 129.3309
" />
<path d="M146.0448 129.3309
L146.0389 129.2638
" />
<path d="M146.0389 129.2638
L145.9966 129.1662
" />
<path d="M145.9966 129.1662
L145.8871 129.0743
" />
<path d="M145.8871 129.0743
L145.7836 129.0496
" />
<path d="M145.7836 129.0496
L145.7165 129.0555
" />
<path d="M145.7165 129.0555
L145.6188 129.0978
" />
<path d="M145.6188 129.0978
L145.4351 129.3167
" />
<path d="M145.4351 129.3167
L145.4104 129.4202
" />
<path d="M145.4104 129.4202
L145.4162 129.4873
" />
<path d="M145.4162 129.4873
L145.4586 129.5850
" />
<path d="M145.4586 129.5850
L145.5680 129.6769
" />
<path d="M145.0846 128.4009
L144.5642 129.0211
" />
<path d="M144.5642 129.0211
L144.5395 129.1246
" />
<path d="M144.5395 129.1246
L144.5454 129.1917
" />
<path d="M144.5454 129.1917
L144.5877 129.2894
" />
<path d="M144.5877 129.2894
L144.6972 129.3812
" />
<path d="M144.6972 129.3812
L144.8007 129.4060
" />
<path d="M144.6867 128.8751
L144.7290 128.9728
" />
<path d="M144.7290 128.9728
L144.8749 129.0953
" />
<path d="M144.8749 129.0953
L144.9785 129.1200
" />
<path d="M144.9785 129.1200
L145.0456 129.1142
" />
<path d="M145.0456 129.1142
L145.1433 129.0718
" />
<path d="M145.1433 129.0718
L145.3269 128.8529
" />
<path d="M145.3269 128.8529
L145.3517 128.7494
" />
<path d="M145.3517 128.7494
L145.3458 128.6823
" />
<path d="M145.3458 128.6823
L145.3035 128.5846
" />
<path d="M145.3035 128.5846
L145.1576 128.4621
" />
<path d="M145.1576 128.4621
L145.0540 128.4374
" />
</g></g>
<g style="fill:#000000; fill-opacity:0.0; 
stroke:#000000; stroke-width:0.1200; stroke-opacity:1; 
stroke-linecap:round; stroke-linejoin:round;">
<path d="M159.6020 37.8260
L147.8820 37.8260
" />
<path d="M147.8820 37.8260
L147.8820 39.2460
" />
<path d="M147.8820 39.2460
L152.3820 39.2460
" />
<path d="M149.7920 40.0860
L149.7920 40.6860
" />
<path d="M158.9920 40.1360
L158.9920 40.6360
" />
<path d="M153.4920 40.1360
L158.9920 40.1360
" />
<path d="M150.3920 40.3860
L149.7920 40.0860
" />
<path d="M158.9920 40.6360
L153.4920 40.6360
" />
<path d="M153.4920 40.6360
L153.4920 40.1360
" />
<path d="M149.7920 40.6860
L150.3920 40.3860
" />
<path d="M158.9920 42.6360
L158.9920 43.1360
" />
<path d="M153.4920 42.6360
L158.9920 42.6360
" />
<path d="M159.6020 42.8860
L159.6020 37.8260
" />
<path d="M159.6020 42.8860
L159.6020 47.9460
" />
<path d="M158.9920 43.1360
L153.4920 43.1360
" />
<path d="M153.4920 43.1360
L153.4920 42.6360
" />
<path d="M158.9920 45.1360
L158.9920 45.6360
" />
<path d="M153.4920 45.1360
L158.9920 45.1360
" />
<path d="M158.9920 45.6360
L153.4920 45.6360
" />
<path d="M153.4920 45.6360
L153.4920 45.1360
" />
<path d="M147.8820 46.5260
L152.3820 46.5260
" />
<path d="M159.6020 47.9460
L147.8820 47.9460
" />
<path d="M147.8820 47.9460
L147.8820 46.5260
" />
<circle cx="152.3953" cy="132.4060" r="0.9500" /> 
<circle cx="150.4495" cy="130.7734" r="0.9500" /> 
<circle cx="148.5038" cy="129.1407" r="0.9500" /> 
<circle cx="146.5580" cy="127.5080" r="0.9500" /> 
<circle cx="144.6122" cy="125.8753" r="0.9500" /> 
</g>
<g style="fill:#000000; fill-opacity:1.0000; 
stroke:#000000; stroke-width:0.0000; stroke-opacity:1; 
stroke-linecap:round; stroke-linejoin:round;">
<path style="fill:#000000; fill-opacity:1.0000; 
stroke:#000000; stroke-width:0.0000; stroke-opacity:1; 
stroke-linecap:round; stroke-linejoin:round;fill-rule:evenodd;"
d="M 154.2983,129.7171
154.4060,129.7822
154.5343,129.8815
154.6426,129.9808
154.7175,130.0693
154.7593,130.1469
154.7671,130.2524
154.7153,130.3524
154.6584,130.3980
153.9786,129.8276
154.0136,129.7637
154.1043,129.6950
154.2113,129.6861
Z" /> 
<path style="fill:#000000; fill-opacity:1.0000; 
stroke:#000000; stroke-width:0.0000; stroke-opacity:1; 
stroke-linecap:round; stroke-linejoin:round;fill-rule:evenodd;"
d="M 154.8086,129.1090
154.9162,129.1742
155.0445,129.2734
155.1528,129.3728
155.2277,129.4612
155.2695,129.5388
155.2773,129.6444
155.2255,129.7444
155.1686,129.7899
154.4888,129.2195
154.5238,129.1556
154.6146,129.0870
154.7215,129.0780
Z" /> 
<path style="fill:#000000; fill-opacity:1.0000; 
stroke:#000000; stroke-width:0.0000; stroke-opacity:1; 
stroke-linecap:round; stroke-linejoin:round;fill-rule:evenodd;"
d="M 150.8768,125.8916
150.9845,125.9567
151.1128,126.0560
151.2211,126.1553
151.2960,126.2438
151.3378,126.3214
151.3456,126.4269
151.2938,126.5269
151.2369,126.5725
150.5571,126.0021
150.5921,125.9382
150.6828,125.8695
150.7898,125.8606
Z" /> 
<path style="fill:#000000; fill-opacity:1.0000; 
stroke:#000000; stroke-width:0.0000; stroke-opacity:1; 
stroke-linecap:round; stroke-linejoin:round;fill-rule:evenodd;"
d="M 147.0139,122.5990
147.1216,122.6641
147.2499,122.7634
147.3581,122.8627
147.4331,122.9512
147.4748,123.0288
147.4826,123.1343
147.4308,123.2343
147.3740,123.2799
146.6942,122.7095
146.7291,122.6456
146.8199,122.5769
146.9269,122.5680
Z" /> 
<path style="fill:#000000; fill-opacity:1.0000; 
stroke:#000000; stroke-width:0.0000; stroke-opacity:1; 
stroke-linecap:round; stroke-linejoin:round;fill-rule:evenodd;"
d="M 151.8191,124.6302
151.8983,124.6655
151.9993,124.7316
152.1221,124.8285
152.2389,124.9326
152.3215,125.0206
152.3700,125.0924
152.3901,125.1824
152.3560,125.2610
152.2845,125.3082
152.1925,125.3040
152.1133,125.2687
152.0123,125.2026
151.8895,125.1057
151.7727,125.0016
151.6901,124.9136
151.6416,124.8418
151.6215,124.7518
151.6556,124.6732
151.7271,124.6260
Z" /> 
<path style="fill:#000000; fill-opacity:1.0000; 
stroke:#000000; stroke-width:0.0000; stroke-opacity:1; 
stroke-linecap:round; stroke-linejoin:round;fill-rule:evenodd;"
d="M 148.8513,124.2155
148.9305,124.2509
149.0315,124.3170
149.1543,124.4138
149.2710,124.5180
149.3537,124.6060
149.4022,124.6778
149.4223,124.7677
149.3882,124.8464
149.3167,124.8936
149.2247,124.8894
149.1455,124.8541
149.0445,124.7880
148.9217,124.6911
148.8049,124.5869
148.7223,124.4990
148.6738,124.4271
148.6536,124.3372
148.6877,124.2586
148.7593,124.2113
Z" /> 
<path style="fill:#000000; fill-opacity:1.0000; 
stroke:#000000; stroke-width:0.0000; stroke-opacity:1; 
stroke-linecap:round; stroke-linejoin:round;fill-rule:evenodd;"
d="M 156.4227,129.0469
156.0656,129.4726
155.8530,129.7259
154.3734,131.4893
154.1608,131.7426
152.3849,130.9778
152.7420,130.5521
152.9330,130.3246
153.3854,130.3246
154.1079,131.2665
154.2252,131.1266
153.5754,130.3451
153.5764,130.3439
154.4589,130.8481
154.5722,130.7131
153.5181,130.1665
153.3854,130.3246
152.9330,130.3246
152.9546,130.2988
153.2526,129.9437
153.2999,129.8872
153.7731,129.8872
154.6365,130.6117
154.7346,130.5319
154.8211,130.4412
154.8964,130.3291
154.9319,130.2197
154.9276,130.1130
154.8963,130.0310
154.8389,129.9430
154.7553,129.8490
154.6456,129.7489
154.5321,129.6605
154.4284,129.5939
154.3345,129.5491
154.2097,129.5192
154.1020,129.5311
154.0042,129.5838
153.9090,129.6759
153.8317,129.7804
153.7731,129.8872
153.2999,129.8872
153.6556,129.4633
153.8101,129.2792
154.2833,129.2792
155.1468,130.0037
155.2448,129.9238
155.3313,129.8332
155.4066,129.7210
155.4421,129.6116
155.4378,129.5050
155.4065,129.4230
155.3491,129.3350
155.2655,129.2409
155.1558,129.1409
155.0423,129.0525
154.9386,128.9858
154.8448,128.9410
154.7199,128.9111
154.6122,128.9231
154.5144,128.9757
154.4192,129.0678
154.3419,129.1724
154.2833,129.2792
153.8101,129.2792
154.1659,128.8553
154.4342,128.5354
154.6468,128.2821
Z" /> 
<path style="fill:#000000; fill-opacity:1.0000; 
stroke:#000000; stroke-width:0.0000; stroke-opacity:1; 
stroke-linecap:round; stroke-linejoin:round;fill-rule:evenodd;"
d="M 148.6275,122.5364
148.2703,122.9620
148.0577,123.2154
146.5914,124.9629
146.3788,125.2163
144.6029,124.4514
144.9600,124.0258
145.0481,123.9208
145.5906,123.9208
145.6053,124.0059
145.6424,124.0937
145.7019,124.1841
145.7838,124.2771
145.8881,124.3728
146.0013,124.4590
146.1075,124.5219
146.2066,124.5613
146.2987,124.5774
146.4124,124.5640
146.5173,124.5122
146.6136,124.4220
146.6719,124.3388
146.7144,124.2475
146.6049,124.1557
146.5617,124.2516
146.5065,124.3322
146.4145,124.4026
146.3058,124.4145
146.2199,124.3873
146.1181,124.3288
146.0003,124.2390
145.8886,124.1367
145.8096,124.0448
145.7633,123.9634
145.7471,123.8566
145.7887,123.7651
145.8645,123.7044
146.1832,123.9717
146.0546,124.1249
146.1580,124.2117
146.3957,123.9283
145.8971,123.5099
145.8188,123.5552
145.7468,123.6122
145.6811,123.6810
145.6285,123.7583
145.5983,123.8382
145.5906,123.9208
145.0481,123.9208
145.1726,123.7724
145.4277,123.4684
145.5214,123.3567
145.9739,123.3567
146.8616,124.1017
146.9800,123.9606
146.4946,123.2301
146.4977,123.2264
147.1422,123.7672
147.2494,123.6395
146.3616,122.8946
146.2473,123.0308
146.7327,123.7614
146.7306,123.7638
146.0861,123.2230
145.9739,123.3567
145.5214,123.3567
145.7083,123.1340
146.0149,122.7686
146.4881,122.7686
147.3515,123.4931
147.4496,123.4133
147.5360,123.3226
147.6113,123.2105
147.6468,123.1011
147.6425,122.9944
147.6113,122.9124
147.5538,122.8244
147.4703,122.7304
147.3605,122.6303
147.2470,122.5419
147.1434,122.4753
147.0495,122.4305
146.9246,122.4006
146.8169,122.4125
146.7191,122.4652
146.6239,122.5573
146.5466,122.6618
146.4881,122.7686
146.0149,122.7686
146.3706,122.3447
146.6390,122.0249
146.8516,121.7715
Z" /> 
<path style="fill:#000000; fill-opacity:1.0000; 
stroke:#000000; stroke-width:0.0000; stroke-opacity:1; 
stroke-linecap:round; stroke-linejoin:round;fill-rule:evenodd;"
d="M 150.5416,124.2012
150.1845,124.6268
149.9719,124.8802
148.5331,126.5949
148.3205,126.8482
146.5445,126.0834
146.8999,125.6599
147.4311,125.6599
147.5576,125.7660
147.5675,125.6650
147.5980,125.5752
147.6490,125.4966
147.7027,125.4495
147.7620,125.4298
147.8246,125.4388
147.8885,125.4779
147.9371,125.5298
147.9638,125.5857
147.9702,125.6503
147.9577,125.7287
147.9341,125.8359
147.9258,125.9281
147.9329,126.0053
147.9729,126.1033
148.0487,126.1884
148.1593,126.2541
148.2725,126.2674
148.3470,126.2472
148.4181,126.2036
148.4858,126.1366
148.5412,126.0624
148.5862,125.9841
148.6208,125.9017
148.4992,125.7997
148.4596,125.9265
148.3933,126.0320
148.3408,126.0786
148.2831,126.0992
148.2240,126.0931
148.1670,126.0597
148.1143,125.9971
148.0925,125.9235
148.1015,125.8390
148.1292,125.7211
148.1401,125.6218
148.1340,125.5409
148.0918,125.4387
148.0088,125.3468
147.9125,125.2838
147.8181,125.2580
147.7255,125.2695
147.6349,125.3182
147.5462,125.4041
147.4894,125.4850
147.4511,125.5702
147.4311,125.6599
146.8999,125.6599
146.9017,125.6577
147.1143,125.4044
147.2929,125.1916
147.4529,125.0009
147.9053,125.0009
148.7267,125.8248
148.8359,125.6947
148.1967,125.0858
148.1988,125.0834
148.7839,125.4604
148.8747,125.3522
148.3146,124.7724
148.3167,124.7700
149.1145,125.3627
149.2165,125.2411
148.2625,124.5752
148.1298,124.7333
148.6747,125.2942
148.6716,125.2978
148.0155,124.8695
147.9053,125.0009
147.4529,125.0009
147.9946,124.3553
148.4968,124.3553
148.5108,124.4528
148.5661,124.5616
148.6273,124.6412
148.7098,124.7274
148.8135,124.8200
148.9227,124.9060
149.0219,124.9723
149.1109,125.0188
149.2277,125.0544
149.3261,125.0512
149.4128,125.0110
149.4940,124.9351
149.5546,124.8419
149.5792,124.7496
149.5652,124.6521
149.5099,124.5433
149.4486,124.4637
149.3662,124.3776
149.2625,124.2849
149.1532,124.1989
149.0541,124.1326
148.9651,124.0861
148.8483,124.0506
148.7498,124.0537
148.6632,124.0940
148.5819,124.1698
148.5214,124.2630
148.4968,124.3553
147.9946,124.3553
147.9970,124.3525
148.3286,123.9572
148.5531,123.6897
148.7657,123.4363
Z" /> 
<path style="fill:#000000; fill-opacity:1.0000; 
stroke:#000000; stroke-width:0.0000; stroke-opacity:1; 
stroke-linecap:round; stroke-linejoin:round;fill-rule:evenodd;"
d="M 155.4560,126.2476
155.0988,126.6732
154.8862,126.9265
152.4250,129.8598
152.2124,130.1131
150.4364,129.3483
150.7918,128.9248
151.3230,128.9248
151.4495,129.0309
151.4594,128.9299
151.4899,128.8401
151.5408,128.7615
151.5946,128.7144
151.6539,128.6947
151.7165,128.7037
151.7804,128.7428
151.8290,128.7947
151.8557,128.8506
151.8621,128.9152
151.8496,128.9936
151.8260,129.1008
151.8177,129.1930
151.8248,129.2702
151.8648,129.3682
151.9405,129.4533
152.0512,129.5190
152.1644,129.5323
152.2389,129.5121
152.3100,129.4685
152.3777,129.4015
152.4331,129.3273
152.4781,129.2490
152.5127,129.1666
152.3911,129.0646
152.3515,129.1914
152.2852,129.2969
152.2326,129.3435
152.1750,129.3641
152.1159,129.3580
152.0589,129.3246
152.0062,129.2620
151.9844,129.1884
151.9934,129.1039
152.0211,128.9860
152.0319,128.8867
152.0259,128.8058
151.9837,128.7036
151.9007,128.6117
151.8044,128.5487
151.7100,128.5229
151.6174,128.5344
151.5268,128.5831
151.4381,128.6690
151.3813,128.7499
151.3430,128.8351
151.3230,128.9248
150.7918,128.9248
150.7936,128.9226
151.0062,128.6693
151.1848,128.4565
151.3448,128.2658
151.7972,128.2658
152.6186,129.0897
152.7278,128.9596
152.0886,128.3507
152.0906,128.3483
152.6758,128.7253
152.7666,128.6171
152.2065,128.0373
152.2086,128.0349
153.0064,128.6276
153.1084,128.5060
152.1544,127.8401
152.0217,127.9982
152.5666,128.5591
152.5635,128.5627
151.9074,128.1344
151.7972,128.2658
151.3448,128.2658
151.8874,127.6191
152.4313,127.6191
152.4462,127.7053
152.4838,127.7942
152.5441,127.8858
152.6272,127.9800
152.7328,128.0769
152.8409,128.1594
152.9430,128.2208
153.0392,128.2611
153.1295,128.2802
153.2140,128.2782
153.2925,128.2550
153.3651,128.2107
153.4318,128.1453
153.4978,128.0530
153.5428,127.9587
153.2680,127.7281
153.1588,127.8582
153.3485,128.0174
153.3299,128.0494
153.2754,128.0955
153.2103,128.1160
153.1347,128.1110
153.0487,128.0805
152.9521,128.0246
152.8451,127.9431
152.7385,127.8445
152.6612,127.7520
152.6132,127.6656
152.5944,127.5854
152.6050,127.5114
152.6448,127.4434
152.7083,127.3869
152.7947,127.3413
152.6828,127.2474
152.5985,127.3015
152.5228,127.3763
152.4696,127.4546
152.4391,127.5355
152.4313,127.6191
151.8874,127.6191
151.8888,127.6174
152.2695,127.1637
152.3856,127.0254
152.8380,127.0254
153.7258,127.7703
153.8401,127.6341
153.0581,126.9779
153.2959,126.6946
153.1901,126.6058
152.8380,127.0254
152.3856,127.0254
152.8621,126.4574
153.3146,126.4574
154.2023,127.2024
154.3166,127.0662
153.9275,126.7396
153.9295,126.7372
154.4932,126.8558
154.6156,126.7098
153.9975,126.5870
153.7330,125.9588
153.6095,126.1060
153.8565,126.6760
153.8545,126.6784
153.4289,126.3212
153.3146,126.4574
152.8621,126.4574
152.9246,126.3830
153.1634,126.0984
153.4674,125.7361
153.6800,125.4827
Z" /> 
<path style="fill:#000000; fill-opacity:1.0000; 
stroke:#000000; stroke-width:0.0000; stroke-opacity:1; 
stroke-linecap:round; stroke-linejoin:round;fill-rule:evenodd;"
d="M 153.5094,124.6158
153.1523,125.0415
152.9397,125.2948
150.4805,128.2256
150.2679,128.4790
148.4919,127.7141
148.8473,127.2906
149.3785,127.2906
149.5050,127.3967
149.5149,127.2957
149.5454,127.2059
149.5963,127.1273
149.6501,127.0802
149.7094,127.0605
149.7720,127.0695
149.8358,127.1086
149.8845,127.1605
149.9112,127.2164
149.9176,127.2810
149.9051,127.3595
149.8815,127.4666
149.8732,127.5588
149.8803,127.6360
149.9203,127.7341
149.9960,127.8191
150.1067,127.8848
150.2199,127.8981
150.2944,127.8779
150.3655,127.8343
150.4332,127.7674
150.4886,127.6932
150.5336,127.6149
150.5682,127.5324
150.4466,127.4304
150.4070,127.5573
150.3407,127.6628
150.2881,127.7093
150.2305,127.7299
150.1714,127.7238
150.1144,127.6905
150.0617,127.6278
150.0399,127.5543
150.0489,127.4697
150.0766,127.3518
150.0874,127.2525
150.0814,127.1716
150.0392,127.0694
149.9562,126.9775
149.8599,126.9145
149.7655,126.8887
149.6729,126.9002
149.5823,126.9489
149.4936,127.0349
149.4368,127.1157
149.3985,127.2010
149.3785,127.2906
148.8473,127.2906
148.8491,127.2885
149.0617,127.0351
149.2403,126.8223
149.4003,126.6316
149.8527,126.6316
150.6741,127.4556
150.7833,127.3254
150.1441,126.7165
150.1461,126.7141
150.7313,127.0911
150.8221,126.9829
150.2620,126.4031
150.2641,126.4007
151.0619,126.9934
151.1639,126.8718
150.2099,126.2060
150.0772,126.3641
150.6221,126.9249
150.6190,126.9285
149.9629,126.5003
149.8527,126.6316
149.4003,126.6316
149.8784,126.0617
150.3516,126.0617
151.2150,126.7862
151.3131,126.7064
151.3996,126.6157
151.4749,126.5036
151.5104,126.3942
151.5061,126.2875
151.4748,126.2055
151.4174,126.1175
151.3338,126.0235
151.2241,125.9234
151.1106,125.8350
151.0069,125.7684
150.9130,125.7236
150.7882,125.6937
150.6805,125.7056
150.5827,125.7583
150.4875,125.8504
150.4102,125.9549
150.3516,126.0617
149.8784,126.0617
149.9443,125.9832
150.2341,125.6378
150.4258,125.4094
150.8782,125.4094
150.9840,125.4982
151.0983,125.3620
151.7745,125.9294
151.6602,126.0656
151.7660,126.1543
152.1129,125.7409
152.0071,125.6521
151.8928,125.7883
151.2167,125.2209
151.3310,125.0847
151.2252,124.9960
150.8782,125.4094
150.4258,125.4094
150.9597,124.7732
150.9624,124.7699
151.4646,124.7699
151.4786,124.8674
151.5339,124.9763
151.5951,125.0559
151.6776,125.1420
151.7813,125.2346
151.8906,125.3207
151.9897,125.3869
152.0787,125.4334
152.1955,125.4690
152.2940,125.4659
152.3806,125.4256
152.4618,125.3498
152.5224,125.2566
152.5470,125.1643
152.5330,125.0668
152.4777,124.9579
152.4165,124.8783
152.3340,124.7922
152.2303,124.6996
152.1210,124.6135
152.0219,124.5473
151.9329,124.5008
151.8161,124.4652
151.7176,124.4683
151.6310,124.5086
151.5498,124.5844
151.4892,124.6776
151.4646,124.7699
150.9624,124.7699
151.2964,124.3719
151.5209,124.1043
151.7335,123.8510
Z" /> 
<g >
</g>
<g >
</g>
<g >
</g>
<g >
</g>
<g >
</g>
<g >
</g>
<g >
</g>
<g >
</g>
<g >
</g>
<g >
</g>
<g >
</g>
<g >
</g>
<g >
</g>
<g >
</g>
<g >
</g>
<g >
</g>
<g >
</g>
<g >
</g>
<g >
</g>
<g >
</g>
<g >
</g>
<g >
</g>
<g >
</g>
<g >
</g>
<g >
</g>
<g >
</g>
<g >
</g>
<g >
</g>
<g >
</g>
<g >
</g>
<g >
</g>
<g >
</g>
<g >
</g>
<g >
</g>
<g >
</g>
<g >
</g>
<g >
</g>
<g >
</g>
<g >
</g>
<g >
</g>
<g >
</g>
<g >
</g>
<g >
</g>
<g >
</g>
<g >
</g>
<g >
</g>
<g >
</g>
<g >
</g>
<g >
</g>
<g >
</g>
<g >
</g>
<g >
</g>
<g >
</g>
<g >
</g>
<g >
</g>
<g >
</g>
<g >
</g>
<g >
</g>
<g >
</g>
<g >
</g>
<g >
</g>
<g >
</g>
<g >
</g>
<g >
</g>
<g >
</g>
<g >
</g>
<g >
</g>
<g >
</g>
<g >
</g>
<g >
</g>
<g >
</g>
<g >
</g>
<g >
</g>
<g >
</g>
<g >
</g>
<g >
</g>
<g >
</g>
<g >
</g>
<g >
</g>
<g >
</g>
<g >
</g>
<g >
</g>
<g >
</g>
<g >
</g>
<g >
</g>
<g >
</g>
</g> 
</svg>
