<?xml version="1.0" standalone="no"?>
 <!DOCTYPE svg PUBLIC "-//W3C//DTD SVG 1.1//EN" 
 "http://www.w3.org/Graphics/SVG/1.1/DTD/svg11.dtd"> 
<svg
  xmlns:svg="http://www.w3.org/2000/svg"
  xmlns="http://www.w3.org/2000/svg"
  xmlns:xlink="http://www.w3.org/1999/xlink"
  version="1.1"
  width="297.0022mm" height="210.0072mm" viewBox="0.0000 0.0000 297.0022 210.0072">
<title>SVG Image created as nightliner-User_2.svg date 2023/10/30 19:09:34 </title>
  <desc>Image generated by PCBNEW </desc>
<g style="fill:#000000; fill-opacity:1.0000;stroke:#000000; stroke-opacity:1.0000;
stroke-linecap:round; stroke-linejoin:round;"
 transform="translate(0 0) scale(1 1)">
</g>
<g style="fill:#000000; fill-opacity:0.0; 
stroke:#000000; stroke-width:0.0000; stroke-opacity:1; 
stroke-linecap:round; stroke-linejoin:round;">
</g>
<g style="fill:#000000; fill-opacity:0.0; 
stroke:#000000; stroke-width:0.1500; stroke-opacity:1; 
stroke-linecap:round; stroke-linejoin:round;">
<path d="M48.2685 93.4674
L46.6262 81.7822
" />
<path d="M47.4773 80.6528
L59.1625 79.0106
" />
<path d="M61.0831 92.6762
L49.3979 94.3185
" />
<path d="M60.2919 79.8616
L61.9342 91.5468
" />
<path d="M47.4773 80.6528 A1.0000 1.0000 0.0 0 0 46.6262 81.7822" />
<path d="M48.2685 93.4674 A1.0000 1.0000 0.0 0 0 49.3979 94.3185" />
<path d="M60.2919 79.8616 A1.0000 1.0000 0.0 0 0 59.1625 79.0106" />
<path d="M61.0831 92.6762 A1.0000 1.0000 0.0 0 0 61.9342 91.5468" />
<path d="M63.2764 57.1329
L62.0430 45.3975
" />
<path d="M62.9330 44.2985
L74.6683 43.0650
" />
<path d="M76.1108 56.7894
L64.3754 58.0229
" />
<path d="M75.7674 43.9550
L77.0008 55.6904
" />
<path d="M62.9330 44.2985 A1.0000 1.0000 0.0 0 0 62.0430 45.3975" />
<path d="M63.2764 57.1329 A1.0000 1.0000 0.0 0 0 64.3754 58.0229" />
<path d="M75.7674 43.9550 A1.0000 1.0000 0.0 0 0 74.6683 43.0650" />
<path d="M76.1108 56.7894 A1.0000 1.0000 0.0 0 0 77.0008 55.6904" />
<path d="M81.9212 43.9696
L81.0981 32.1984
" />
<path d="M82.0259 31.1310
L93.7972 30.3079
" />
<path d="M94.7598 44.0743
L82.9886 44.8974
" />
<path d="M94.8645 31.2357
L95.6876 43.0070
" />
<path d="M82.0259 31.1310 A1.0000 1.0000 0.0 0 0 81.0981 32.1984" />
<path d="M81.9212 43.9696 A1.0000 1.0000 0.0 0 0 82.9886 44.8974" />
<path d="M94.8645 31.2357 A1.0000 1.0000 0.0 0 0 93.7972 30.3079" />
<path d="M94.7598 44.0743 A1.0000 1.0000 0.0 0 0 95.6876 43.0070" />
<path d="M27.9353 88.0492
L25.8862 76.4285
" />
<path d="M26.6974 75.2700
L38.3181 73.2210
" />
<path d="M40.7144 86.8113
L29.0937 88.8604
" />
<path d="M39.4766 74.0322
L41.5256 85.6529
" />
<path d="M26.6974 75.2700 A1.0000 1.0000 0.0 0 0 25.8862 76.4285" />
<path d="M27.9353 88.0492 A1.0000 1.0000 0.0 0 0 29.0937 88.8604" />
<path d="M39.4766 74.0322 A1.0000 1.0000 0.0 0 0 38.3181 73.2210" />
<path d="M40.7144 86.8113 A1.0000 1.0000 0.0 0 0 41.5256 85.6529" />
<path d="M146.1947 121.9026
L153.7796 112.8633
" />
<path d="M155.1884 112.7400
L164.2277 120.3249
" />
<path d="M155.3573 130.8963
L146.3180 123.3114
" />
<path d="M164.3510 121.7338
L156.7661 130.7731
" />
<path d="M155.1884 112.7400 A1.0000 1.0000 0.0 0 0 153.7796 112.8633" />
<path d="M146.1947 121.9026 A1.0000 1.0000 0.0 0 0 146.3180 123.3114" />
<path d="M164.3510 121.7338 A1.0000 1.0000 0.0 0 0 164.2277 120.3249" />
<path d="M155.3573 130.8963 A1.0000 1.0000 0.0 0 0 156.7661 130.7731" />
<path d="M122.1323 56.9061
L122.1323 45.1061
" />
<path d="M123.1323 44.1061
L134.9323 44.1061
" />
<path d="M134.9323 57.9061
L123.1323 57.9061
" />
<path d="M135.9323 45.1061
L135.9323 56.9061
" />
<path d="M123.1323 44.1061 A1.0000 1.0000 0.0 0 0 122.1323 45.1061" />
<path d="M122.1323 56.9061 A1.0000 1.0000 0.0 0 0 123.1323 57.9061" />
<path d="M135.9323 45.1061 A1.0000 1.0000 0.0 0 0 134.9323 44.1061" />
<path d="M134.9323 57.9061 A1.0000 1.0000 0.0 0 0 135.9323 56.9061" />
<path d="M126.2604 115.3320
L129.3145 103.9341
" />
<path d="M130.5392 103.2270
L141.9371 106.2811
" />
<path d="M138.3654 119.6109
L126.9675 116.5568
" />
<path d="M142.6443 107.5058
L139.5902 118.9037
" />
<path d="M130.5392 103.2270 A1.0000 1.0000 0.0 0 0 129.3145 103.9341" />
<path d="M126.2604 115.3320 A1.0000 1.0000 0.0 0 0 126.9675 116.5568" />
<path d="M142.6443 107.5058 A1.0000 1.0000 0.0 0 0 141.9371 106.2811" />
<path d="M138.3654 119.6109 A1.0000 1.0000 0.0 0 0 139.5902 118.9037" />
<path d="M122.1323 75.1061
L122.1323 63.3061
" />
<path d="M123.1323 62.3061
L134.9323 62.3061
" />
<path d="M134.9323 76.1061
L123.1323 76.1061
" />
<path d="M135.9323 63.3061
L135.9323 75.1061
" />
<path d="M123.1323 62.3061 A1.0000 1.0000 0.0 0 0 122.1323 63.3061" />
<path d="M122.1323 75.1061 A1.0000 1.0000 0.0 0 0 123.1323 76.1061" />
<path d="M135.9323 63.3061 A1.0000 1.0000 0.0 0 0 134.9323 62.3061" />
<path d="M134.9323 76.1061 A1.0000 1.0000 0.0 0 0 135.9323 75.1061" />
<path d="M67.0812 93.3335
L65.8478 81.5981
" />
<path d="M66.7378 80.4991
L78.4731 79.2656
" />
<path d="M79.9156 92.9900
L68.1803 94.2235
" />
<path d="M79.5722 80.1556
L80.8056 91.8910
" />
<path d="M66.7378 80.4991 A1.0000 1.0000 0.0 0 0 65.8478 81.5981" />
<path d="M67.0812 93.3335 A1.0000 1.0000 0.0 0 0 68.1803 94.2235" />
<path d="M79.5722 80.1556 A1.0000 1.0000 0.0 0 0 78.4731 79.2656" />
<path d="M79.9156 92.9900 A1.0000 1.0000 0.0 0 0 80.8056 91.8910" />
<path d="M102.8463 69.6392
L102.4345 57.8464
" />
<path d="M103.3990 56.8121
L115.1918 56.4003
" />
<path d="M115.6734 70.1919
L103.8806 70.6037
" />
<path d="M116.2261 57.3648
L116.6379 69.1576
" />
<path d="M103.3990 56.8121 A1.0000 1.0000 0.0 0 0 102.4345 57.8464" />
<path d="M102.8463 69.6392 A1.0000 1.0000 0.0 0 0 103.8806 70.6037" />
<path d="M116.2261 57.3648 A1.0000 1.0000 0.0 0 0 115.1918 56.4003" />
<path d="M115.6734 70.1919 A1.0000 1.0000 0.0 0 0 116.6379 69.1576" />
<path d="M45.7355 75.4445
L44.0933 63.7594
" />
<path d="M44.9444 62.6299
L56.6296 60.9877
" />
<path d="M58.5501 74.6534
L46.8650 76.2956
" />
<path d="M57.7590 61.8388
L59.4012 73.5239
" />
<path d="M44.9444 62.6299 A1.0000 1.0000 0.0 0 0 44.0933 63.7594" />
<path d="M45.7355 75.4445 A1.0000 1.0000 0.0 0 0 46.8650 76.2956" />
<path d="M57.7590 61.8388 A1.0000 1.0000 0.0 0 0 56.6296 60.9877" />
<path d="M58.5501 74.6534 A1.0000 1.0000 0.0 0 0 59.4012 73.5239" />
<path d="M122.1323 93.3061
L122.1323 81.5061
" />
<path d="M123.1323 80.5061
L134.9323 80.5061
" />
<path d="M134.9323 94.3061
L123.1323 94.3061
" />
<path d="M135.9323 81.5061
L135.9323 93.3061
" />
<path d="M123.1323 80.5061 A1.0000 1.0000 0.0 0 0 122.1323 81.5061" />
<path d="M122.1323 93.3061 A1.0000 1.0000 0.0 0 0 123.1323 94.3061" />
<path d="M135.9323 81.5061 A1.0000 1.0000 0.0 0 0 134.9323 80.5061" />
<path d="M134.9323 94.3061 A1.0000 1.0000 0.0 0 0 135.9323 93.3061" />
<path d="M83.1908 62.1253
L82.3677 50.3540
" />
<path d="M83.2955 49.2867
L95.0667 48.4636
" />
<path d="M96.0294 62.2300
L84.2581 63.0531
" />
<path d="M96.1341 49.3914
L96.9572 61.1626
" />
<path d="M83.2955 49.2867 A1.0000 1.0000 0.0 0 0 82.3677 50.3540" />
<path d="M83.1908 62.1253 A1.0000 1.0000 0.0 0 0 84.2581 63.0531" />
<path d="M96.1341 49.3914 A1.0000 1.0000 0.0 0 0 95.0667 48.4636" />
<path d="M96.0294 62.2300 A1.0000 1.0000 0.0 0 0 96.9572 61.1626" />
<path d="M50.8014 111.4903
L49.1592 99.8051
" />
<path d="M50.0103 98.6757
L61.6955 97.0334
" />
<path d="M63.6160 110.6991
L51.9309 112.3414
" />
<path d="M62.8249 97.8845
L64.4671 109.5697
" />
<path d="M50.0103 98.6757 A1.0000 1.0000 0.0 0 0 49.1592 99.8051" />
<path d="M50.8014 111.4903 A1.0000 1.0000 0.0 0 0 51.9309 112.3414" />
<path d="M62.8249 97.8845 A1.0000 1.0000 0.0 0 0 61.6955 97.0334" />
<path d="M63.6160 110.6991 A1.0000 1.0000 0.0 0 0 64.4671 109.5697" />
<path d="M102.2111 51.4503
L101.7993 39.6574
" />
<path d="M102.7638 38.6232
L114.5566 38.2113
" />
<path d="M115.0382 52.0029
L103.2454 52.4148
" />
<path d="M115.5909 39.1758
L116.0027 50.9686
" />
<path d="M102.7638 38.6232 A1.0000 1.0000 0.0 0 0 101.7993 39.6574" />
<path d="M102.2111 51.4503 A1.0000 1.0000 0.0 0 0 103.2454 52.4148" />
<path d="M115.5909 39.1758 A1.0000 1.0000 0.0 0 0 114.5566 38.2113" />
<path d="M115.0382 52.0029 A1.0000 1.0000 0.0 0 0 116.0027 50.9686" />
<path d="M84.4604 80.2809
L83.6372 68.5097
" />
<path d="M84.5651 67.4424
L96.3363 66.6192
" />
<path d="M97.2989 80.3856
L85.5277 81.2088
" />
<path d="M97.4036 67.5471
L98.2268 79.3183
" />
<path d="M84.5651 67.4424 A1.0000 1.0000 0.0 0 0 83.6372 68.5097" />
<path d="M84.4604 80.2809 A1.0000 1.0000 0.0 0 0 85.5277 81.2088" />
<path d="M97.4036 67.5471 A1.0000 1.0000 0.0 0 0 96.3363 66.6192" />
<path d="M97.2989 80.3856 A1.0000 1.0000 0.0 0 0 98.2268 79.3183" />
<path d="M31.0957 105.9727
L29.0466 94.3520
" />
<path d="M29.8578 93.1935
L41.4785 91.1445
" />
<path d="M43.8748 104.7348
L32.2541 106.7839
" />
<path d="M42.6370 91.9557
L44.6860 103.5764
" />
<path d="M29.8578 93.1935 A1.0000 1.0000 0.0 0 0 29.0466 94.3520" />
<path d="M31.0957 105.9727 A1.0000 1.0000 0.0 0 0 32.2541 106.7839" />
<path d="M42.6370 91.9557 A1.0000 1.0000 0.0 0 0 41.4785 91.1445" />
<path d="M43.8748 104.7348 A1.0000 1.0000 0.0 0 0 44.6860 103.5764" />
<path d="M65.1788 75.2332
L63.9454 63.4978
" />
<path d="M64.8354 62.3988
L76.5707 61.1653
" />
<path d="M78.0132 74.8897
L66.2779 76.1232
" />
<path d="M77.6698 62.0553
L78.9032 73.7907
" />
<path d="M64.8354 62.3988 A1.0000 1.0000 0.0 0 0 63.9454 63.4978" />
<path d="M65.1788 75.2332 A1.0000 1.0000 0.0 0 0 66.2779 76.1232" />
<path d="M77.6698 62.0553 A1.0000 1.0000 0.0 0 0 76.5707 61.1653" />
<path d="M78.0132 74.8897 A1.0000 1.0000 0.0 0 0 78.9032 73.7907" />
<path d="M103.4815 87.8281
L103.0696 76.0353
" />
<path d="M104.0341 75.0010
L115.8270 74.5892
" />
<path d="M116.3086 88.3808
L104.5158 88.7926
" />
<path d="M116.8612 75.5537
L117.2731 87.3465
" />
<path d="M104.0341 75.0010 A1.0000 1.0000 0.0 0 0 103.0697 76.0353" />
<path d="M103.4815 87.8281 A1.0000 1.0000 0.0 0 0 104.5158 88.7926" />
<path d="M116.8612 75.5537 A1.0000 1.0000 0.0 0 0 115.8270 74.5892" />
<path d="M116.3086 88.3808 A1.0000 1.0000 0.0 0 0 117.2731 87.3465" />
<path d="M105.4170 117.8017
L103.3679 106.1809
" />
<path d="M104.1791 105.0225
L115.7998 102.9734
" />
<path d="M118.1962 116.5638
L106.5754 118.6128
" />
<path d="M116.9583 103.7846
L119.0073 115.4053
" />
<path d="M104.1791 105.0225 A1.0000 1.0000 0.0 0 0 103.3679 106.1809" />
<path d="M105.4170 117.8017 A1.0000 1.0000 0.0 0 0 106.5754 118.6128" />
<path d="M116.9583 103.7846 A1.0000 1.0000 0.0 0 0 115.7998 102.9734" />
<path d="M118.1962 116.5638 A1.0000 1.0000 0.0 0 0 119.0073 115.4053" />
<g >
</g>
<g >
</g>
<g >
</g>
<g >
</g>
<g >
</g>
<g >
</g>
<g >
</g>
<g >
</g>
<g >
</g>
<g >
</g>
<g >
</g>
<g >
</g>
<g >
</g>
<g >
</g>
<g >
</g>
<g >
</g>
<g >
</g>
<g >
</g>
<g >
</g>
<g >
</g>
<g >
</g>
<g >
</g>
<g >
</g>
<g >
</g>
<g >
</g>
<g >
</g>
<g >
</g>
<g >
</g>
<g >
</g>
<g >
</g>
<g >
</g>
<g >
</g>
<g >
</g>
<g >
</g>
<g >
</g>
<g >
</g>
<g >
</g>
<g >
</g>
<g >
</g>
<g >
</g>
<g >
</g>
<g >
</g>
<g >
</g>
<g >
</g>
<g >
</g>
<g >
</g>
<g >
</g>
<g >
</g>
<g >
</g>
<g >
</g>
<g >
</g>
<g >
</g>
<g >
</g>
<g >
</g>
<g >
</g>
<g >
</g>
<g >
</g>
<g >
</g>
<g >
</g>
<g >
</g>
<g >
</g>
<g >
</g>
<g >
</g>
<g >
</g>
<g >
</g>
<g >
</g>
<g >
</g>
<g >
</g>
<g >
</g>
<g >
</g>
<g >
</g>
<g >
</g>
<g >
</g>
<g >
</g>
<g >
</g>
<g >
</g>
<g >
</g>
<g >
</g>
<g >
</g>
<g >
</g>
<g >
</g>
<g >
</g>
<g >
</g>
<g >
</g>
</g> 
</svg>
