  0
SECTION
  2
HEADER
  9
$ANGBASE
  50
0.0
  9
$ANGDIR
  70
1
  9
$MEASUREMENT
  70
1
  0
ENDSEC
  0
SECTION
  2
TABLES
  0
TABLE
  2
LTYPE
  70
4
  0
LTYPE
  5
40F
  2
CONTINUOUS
  70
0
  3
Solid line
  72
65
  73
0
  40
0.0
  0
LTYPE
  5
410
  2
DASHDOT
 70
0
  3
Dash Dot ____ _ ____ _
 72
65
 73
4
 40
2.0
 49
1.25
 49
-0.25
 49
0.25
 49
-0.25
  0
LTYPE
  5
411
  2
DASHED
 70
0
  3
Dashed __ __ __ __ __
 72
65
 73
2
 40
0.75
 49
0.5
 49
-0.25
  0
LTYPE
  5
43B
  2
DOTTED
 70
0
  3
Dotted .  .  .  .
 72
65
 73
2
 40
0.2
 49
0.0
 49
-0.2
  0
ENDTAB
  0
TABLE
  2
STYLE
  70
4
  0
STYLE
  2
KICAD
  70
0
  40
0
  41
1
  42
1
  50
0
  71
0
  3
isocp.shx
  0
STYLE
  2
KICADB
  70
0
  40
0
  41
1
  42
1
  50
0
  71
0
  3
isocp.shx
  0
STYLE
  2
KICADI
  70
0
  40
0
  41
1
  42
1
  50
15
  71
0
  3
isocp.shx
  0
STYLE
  2
KICADBI
  70
0
  40
0
  41
1
  42
1
  50
15
  71
0
  3
isocp.shx
  0
ENDTAB
  0
TABLE
  2
LAYER
  70
1
  0
LAYER
  2
BLACK
  70
0
  62
7
  6
CONTINUOUS
  0
ENDTAB
  0
ENDSEC
  0
SECTION
  2
ENTITIES
0
LINE
8
BLACK
6
CONTINUOUS
10
169.778
20
-93.739
11
169.966
21
-93.7893
0
LINE
8
BLACK
6
CONTINUOUS
10
169.966
20
-93.7893
11
170.142
21
-93.8715
0
LINE
8
BLACK
6
CONTINUOUS
10
170.142
20
-93.8715
11
170.301
21
-93.9831
0
LINE
8
BLACK
6
CONTINUOUS
10
170.301
20
-93.9831
11
170.439
21
-94.1207
0
LINE
8
BLACK
6
CONTINUOUS
10
170.439
20
-94.1207
11
170.55
21
-94.28
0
LINE
8
BLACK
6
CONTINUOUS
10
170.55
20
-94.28
11
170.633
21
-94.4563
0
LINE
8
BLACK
6
CONTINUOUS
10
170.633
20
-94.4563
11
170.683
21
-94.6442
0
LINE
8
BLACK
6
CONTINUOUS
10
170.683
20
-94.6442
11
170.7
21
-94.838
0
LINE
8
BLACK
6
CONTINUOUS
10
170.7
20
-94.838
11
170.7
21
-94.8381
0
LINE
8
BLACK
6
CONTINUOUS
10
170.7
20
-94.8381
11
170.7
21
-94.8381
0
LINE
8
BLACK
6
CONTINUOUS
10
170.7
20
-94.8381
11
170.684
21
-106.838
0
LINE
8
BLACK
6
CONTINUOUS
10
170.684
20
-106.838
11
170.684
21
-106.838
0
LINE
8
BLACK
6
CONTINUOUS
10
170.684
20
-106.838
11
170.667
21
-107.029
0
LINE
8
BLACK
6
CONTINUOUS
10
170.667
20
-107.029
11
170.618
21
-107.214
0
LINE
8
BLACK
6
CONTINUOUS
10
170.618
20
-107.214
11
170.537
21
-107.388
0
LINE
8
BLACK
6
CONTINUOUS
10
170.537
20
-107.388
11
170.427
21
-107.545
0
LINE
8
BLACK
6
CONTINUOUS
10
170.427
20
-107.545
11
170.291
21
-107.681
0
LINE
8
BLACK
6
CONTINUOUS
10
170.291
20
-107.681
11
170.134
21
-107.791
0
LINE
8
BLACK
6
CONTINUOUS
10
170.134
20
-107.791
11
169.96
21
-107.872
0
LINE
8
BLACK
6
CONTINUOUS
10
169.96
20
-107.872
11
169.775
21
-107.921
0
LINE
8
BLACK
6
CONTINUOUS
10
169.775
20
-107.921
11
169.584
21
-107.938
0
LINE
8
BLACK
6
CONTINUOUS
10
169.584
20
-107.938
11
156.084
21
-107.938
0
LINE
8
BLACK
6
CONTINUOUS
10
156.084
20
-107.938
11
155.893
21
-107.921
0
LINE
8
BLACK
6
CONTINUOUS
10
155.893
20
-107.921
11
155.708
21
-107.872
0
LINE
8
BLACK
6
CONTINUOUS
10
155.708
20
-107.872
11
155.534
21
-107.791
0
LINE
8
BLACK
6
CONTINUOUS
10
155.534
20
-107.791
11
155.377
21
-107.681
0
LINE
8
BLACK
6
CONTINUOUS
10
155.377
20
-107.681
11
155.241
21
-107.545
0
LINE
8
BLACK
6
CONTINUOUS
10
155.241
20
-107.545
11
155.131
21
-107.388
0
LINE
8
BLACK
6
CONTINUOUS
10
155.131
20
-107.388
11
155.05
21
-107.214
0
LINE
8
BLACK
6
CONTINUOUS
10
155.05
20
-107.214
11
155.001
21
-107.029
0
LINE
8
BLACK
6
CONTINUOUS
10
155.001
20
-107.029
11
154.984
21
-106.838
0
LINE
8
BLACK
6
CONTINUOUS
10
154.984
20
-106.838
11
154.984
21
-106.838
0
LINE
8
BLACK
6
CONTINUOUS
10
154.984
20
-106.838
11
154.984
21
-94.838
0
LINE
8
BLACK
6
CONTINUOUS
10
154.984
20
-94.838
11
155.001
21
-94.647
0
LINE
8
BLACK
6
CONTINUOUS
10
155.001
20
-94.647
11
155.05
21
-94.4618
0
LINE
8
BLACK
6
CONTINUOUS
10
155.05
20
-94.4618
11
155.131
21
-94.288
0
LINE
8
BLACK
6
CONTINUOUS
10
155.131
20
-94.288
11
155.241
21
-94.1309
0
LINE
8
BLACK
6
CONTINUOUS
10
155.241
20
-94.1309
11
155.377
21
-93.9954
0
LINE
8
BLACK
6
CONTINUOUS
10
155.377
20
-93.9954
11
155.534
21
-93.8854
0
LINE
8
BLACK
6
CONTINUOUS
10
155.534
20
-93.8854
11
155.708
21
-93.8043
0
LINE
8
BLACK
6
CONTINUOUS
10
155.708
20
-93.8043
11
155.893
21
-93.7547
0
LINE
8
BLACK
6
CONTINUOUS
10
155.893
20
-93.7547
11
156.084
21
-93.738
0
LINE
8
BLACK
6
CONTINUOUS
10
156.084
20
-93.738
11
156.084
21
-93.738
0
LINE
8
BLACK
6
CONTINUOUS
10
156.084
20
-93.738
11
169.584
21
-93.722
0
LINE
8
BLACK
6
CONTINUOUS
10
169.584
20
-93.722
11
169.584
21
-93.722
0
LINE
8
BLACK
6
CONTINUOUS
10
169.584
20
-93.722
11
169.584
21
-93.722
0
LINE
8
BLACK
6
CONTINUOUS
10
169.584
20
-93.722
11
169.778
21
-93.739
0
LINE
8
BLACK
6
CONTINUOUS
10
156.084
20
-93.938
11
156.084
21
-93.938
0
LINE
8
BLACK
6
CONTINUOUS
10
156.084
20
-93.938
11
156.084
21
-93.938
0
LINE
8
BLACK
6
CONTINUOUS
10
156.084
20
-93.938
11
155.995
21
-93.938
0
LINE
8
BLACK
6
CONTINUOUS
10
155.995
20
-93.938
11
155.821
21
-93.9726
0
LINE
8
BLACK
6
CONTINUOUS
10
155.821
20
-93.9726
11
155.658
21
-94.0404
0
LINE
8
BLACK
6
CONTINUOUS
10
155.658
20
-94.0404
11
155.51
21
-94.1389
0
LINE
8
BLACK
6
CONTINUOUS
10
155.51
20
-94.1389
11
155.385
21
-94.2643
0
LINE
8
BLACK
6
CONTINUOUS
10
155.385
20
-94.2643
11
155.286
21
-94.4117
0
LINE
8
BLACK
6
CONTINUOUS
10
155.286
20
-94.4117
11
155.219
21
-94.5755
0
LINE
8
BLACK
6
CONTINUOUS
10
155.219
20
-94.5755
11
155.184
21
-94.7494
0
LINE
8
BLACK
6
CONTINUOUS
10
155.184
20
-94.7494
11
155.184
21
-94.838
0
LINE
8
BLACK
6
CONTINUOUS
10
155.184
20
-94.838
11
155.184
21
-106.838
0
LINE
8
BLACK
6
CONTINUOUS
10
155.184
20
-106.838
11
155.184
21
-106.838
0
LINE
8
BLACK
6
CONTINUOUS
10
155.184
20
-106.838
11
155.184
21
-106.927
0
LINE
8
BLACK
6
CONTINUOUS
10
155.184
20
-106.927
11
155.219
21
-107.101
0
LINE
8
BLACK
6
CONTINUOUS
10
155.219
20
-107.101
11
155.286
21
-107.264
0
LINE
8
BLACK
6
CONTINUOUS
10
155.286
20
-107.264
11
155.385
21
-107.412
0
LINE
8
BLACK
6
CONTINUOUS
10
155.385
20
-107.412
11
155.51
21
-107.537
0
LINE
8
BLACK
6
CONTINUOUS
10
155.51
20
-107.537
11
155.658
21
-107.636
0
LINE
8
BLACK
6
CONTINUOUS
10
155.658
20
-107.636
11
155.821
21
-107.703
0
LINE
8
BLACK
6
CONTINUOUS
10
155.821
20
-107.703
11
155.995
21
-107.738
0
LINE
8
BLACK
6
CONTINUOUS
10
155.995
20
-107.738
11
156.084
21
-107.738
0
LINE
8
BLACK
6
CONTINUOUS
10
156.084
20
-107.738
11
169.584
21
-107.738
0
LINE
8
BLACK
6
CONTINUOUS
10
169.584
20
-107.738
11
169.673
21
-107.738
0
LINE
8
BLACK
6
CONTINUOUS
10
169.673
20
-107.738
11
169.847
21
-107.703
0
LINE
8
BLACK
6
CONTINUOUS
10
169.847
20
-107.703
11
170.01
21
-107.636
0
LINE
8
BLACK
6
CONTINUOUS
10
170.01
20
-107.636
11
170.158
21
-107.537
0
LINE
8
BLACK
6
CONTINUOUS
10
170.158
20
-107.537
11
170.283
21
-107.412
0
LINE
8
BLACK
6
CONTINUOUS
10
170.283
20
-107.412
11
170.382
21
-107.264
0
LINE
8
BLACK
6
CONTINUOUS
10
170.382
20
-107.264
11
170.449
21
-107.101
0
LINE
8
BLACK
6
CONTINUOUS
10
170.449
20
-107.101
11
170.484
21
-106.927
0
LINE
8
BLACK
6
CONTINUOUS
10
170.484
20
-106.927
11
170.484
21
-106.838
0
LINE
8
BLACK
6
CONTINUOUS
10
170.484
20
-106.838
11
170.484
21
-106.838
0
LINE
8
BLACK
6
CONTINUOUS
10
170.484
20
-106.838
11
170.484
21
-106.838
0
LINE
8
BLACK
6
CONTINUOUS
10
170.484
20
-106.838
11
170.5
21
-94.8379
0
LINE
8
BLACK
6
CONTINUOUS
10
170.5
20
-94.8379
11
170.5
21
-94.7579
0
LINE
8
BLACK
6
CONTINUOUS
10
170.5
20
-94.7579
11
170.472
21
-94.6
0
LINE
8
BLACK
6
CONTINUOUS
10
170.472
20
-94.6
11
170.417
21
-94.4494
0
LINE
8
BLACK
6
CONTINUOUS
10
170.417
20
-94.4494
11
170.337
21
-94.3106
0
LINE
8
BLACK
6
CONTINUOUS
10
170.337
20
-94.3106
11
170.234
21
-94.1878
0
LINE
8
BLACK
6
CONTINUOUS
10
170.234
20
-94.1878
11
170.111
21
-94.0848
0
LINE
8
BLACK
6
CONTINUOUS
10
170.111
20
-94.0848
11
169.973
21
-94.0047
0
LINE
8
BLACK
6
CONTINUOUS
10
169.973
20
-94.0047
11
169.822
21
-93.9498
0
LINE
8
BLACK
6
CONTINUOUS
10
169.822
20
-93.9498
11
169.664
21
-93.922
0
LINE
8
BLACK
6
CONTINUOUS
10
169.664
20
-93.922
11
169.584
21
-93.922
0
LINE
8
BLACK
6
CONTINUOUS
10
169.584
20
-93.922
11
156.084
21
-93.938
  0
ENDSEC
  0
EOF
