  0
SECTION
  2
HEADER
  9
$ANGBASE
  50
0.0
  9
$ANGDIR
  70
1
  9
$MEASUREMENT
  70
1
  0
ENDSEC
  0
SECTION
  2
TABLES
  0
TABLE
  2
LTYPE
  70
4
  0
LTYPE
  5
40F
  2
CONTINUOUS
  70
0
  3
Solid line
  72
65
  73
0
  40
0.0
  0
LTYPE
  5
410
  2
DASHDOT
 70
0
  3
Dash Dot ____ _ ____ _
 72
65
 73
4
 40
2.0
 49
1.25
 49
-0.25
 49
0.25
 49
-0.25
  0
LTYPE
  5
411
  2
DASHED
 70
0
  3
Dashed __ __ __ __ __
 72
65
 73
2
 40
0.75
 49
0.5
 49
-0.25
  0
LTYPE
  5
43B
  2
DOTTED
 70
0
  3
Dotted .  .  .  .
 72
65
 73
2
 40
0.2
 49
0.0
 49
-0.2
  0
ENDTAB
  0
TABLE
  2
STYLE
  70
4
  0
STYLE
  2
KICAD
  70
0
  40
0
  41
1
  42
1
  50
0
  71
0
  3
isocp.shx
  0
STYLE
  2
KICADB
  70
0
  40
0
  41
1
  42
1
  50
0
  71
0
  3
isocp.shx
  0
STYLE
  2
KICADI
  70
0
  40
0
  41
1
  42
1
  50
15
  71
0
  3
isocp.shx
  0
STYLE
  2
KICADBI
  70
0
  40
0
  41
1
  42
1
  50
15
  71
0
  3
isocp.shx
  0
ENDTAB
  0
TABLE
  2
LAYER
  70
1
  0
LAYER
  2
BLACK
  70
0
  62
7
  6
CONTINUOUS
  0
ENDTAB
  0
ENDSEC
  0
SECTION
  2
ENTITIES
0
LINE
8
BLACK
6
CONTINUOUS
10
99.2925
20
-23.2018
11
99.4842
21
-23.2051
0
LINE
8
BLACK
6
CONTINUOUS
10
99.4842
20
-23.2051
11
99.6725
21
-23.2417
0
LINE
8
BLACK
6
CONTINUOUS
10
99.6725
20
-23.2417
11
99.8515
21
-23.3104
0
LINE
8
BLACK
6
CONTINUOUS
10
99.8515
20
-23.3104
11
100.016
21
-23.4092
0
LINE
8
BLACK
6
CONTINUOUS
10
100.016
20
-23.4092
11
100.161
21
-23.535
0
LINE
8
BLACK
6
CONTINUOUS
10
100.161
20
-23.535
11
100.281
21
-23.684
0
LINE
8
BLACK
6
CONTINUOUS
10
100.281
20
-23.684
11
100.374
21
-23.8517
0
LINE
8
BLACK
6
CONTINUOUS
10
100.374
20
-23.8517
11
100.437
21
-24.033
0
LINE
8
BLACK
6
CONTINUOUS
10
100.437
20
-24.033
11
100.467
21
-24.2224
0
LINE
8
BLACK
6
CONTINUOUS
10
100.467
20
-24.2224
11
100.467
21
-24.2224
0
LINE
8
BLACK
6
CONTINUOUS
10
100.467
20
-24.2224
11
100.467
21
-24.2224
0
LINE
8
BLACK
6
CONTINUOUS
10
100.467
20
-24.2224
11
100.948
21
-31.1124
0
LINE
8
BLACK
6
CONTINUOUS
10
100.948
20
-31.1124
11
100.948
21
-31.1124
0
LINE
8
BLACK
6
CONTINUOUS
10
100.948
20
-31.1124
11
100.955
21
-31.1988
0
LINE
8
BLACK
6
CONTINUOUS
10
100.955
20
-31.1988
11
100.999
21
-31.3662
0
LINE
8
BLACK
6
CONTINUOUS
10
100.999
20
-31.3662
11
101.075
21
-31.522
0
LINE
8
BLACK
6
CONTINUOUS
10
101.075
20
-31.522
11
101.18
21
-31.6604
0
LINE
8
BLACK
6
CONTINUOUS
10
101.18
20
-31.6604
11
101.308
21
-31.7763
0
LINE
8
BLACK
6
CONTINUOUS
10
101.308
20
-31.7763
11
101.457
21
-31.8656
0
LINE
8
BLACK
6
CONTINUOUS
10
101.457
20
-31.8656
11
101.62
21
-31.9249
0
LINE
8
BLACK
6
CONTINUOUS
10
101.62
20
-31.9249
11
101.791
21
-31.952
0
LINE
8
BLACK
6
CONTINUOUS
10
101.791
20
-31.952
11
101.878
21
-31.9491
0
LINE
8
BLACK
6
CONTINUOUS
10
101.878
20
-31.9491
11
120.283
21
-31.3064
0
LINE
8
BLACK
6
CONTINUOUS
10
120.283
20
-31.3064
11
120.474
21
-31.3164
0
LINE
8
BLACK
6
CONTINUOUS
10
120.474
20
-31.3164
11
120.661
21
-31.3595
0
LINE
8
BLACK
6
CONTINUOUS
10
120.661
20
-31.3595
11
120.838
21
-31.4344
0
LINE
8
BLACK
6
CONTINUOUS
10
120.838
20
-31.4344
11
120.998
21
-31.5389
0
LINE
8
BLACK
6
CONTINUOUS
10
120.998
20
-31.5389
11
121.139
21
-31.6696
0
LINE
8
BLACK
6
CONTINUOUS
10
121.139
20
-31.6696
11
121.254
21
-31.8228
0
LINE
8
BLACK
6
CONTINUOUS
10
121.254
20
-31.8228
11
121.341
21
-31.9936
0
LINE
8
BLACK
6
CONTINUOUS
10
121.341
20
-31.9936
11
121.397
21
-32.177
0
LINE
8
BLACK
6
CONTINUOUS
10
121.397
20
-32.177
11
121.42
21
-32.3673
0
LINE
8
BLACK
6
CONTINUOUS
10
121.42
20
-32.3673
11
121.42
21
-32.3673
0
LINE
8
BLACK
6
CONTINUOUS
10
121.42
20
-32.3673
11
121.42
21
-32.368
0
LINE
8
BLACK
6
CONTINUOUS
10
121.42
20
-32.368
11
121.42
21
-32.3686
0
LINE
8
BLACK
6
CONTINUOUS
10
121.42
20
-32.3686
11
121.513
21
-36.5738
0
LINE
8
BLACK
6
CONTINUOUS
10
121.513
20
-36.5738
11
121.512
21
-36.5748
0
LINE
8
BLACK
6
CONTINUOUS
10
121.512
20
-36.5748
11
121.513
21
-36.576
0
LINE
8
BLACK
6
CONTINUOUS
10
121.513
20
-36.576
11
121.513
21
-36.576
0
LINE
8
BLACK
6
CONTINUOUS
10
121.513
20
-36.576
11
121.513
21
-36.6561
0
LINE
8
BLACK
6
CONTINUOUS
10
121.513
20
-36.6561
11
121.54
21
-36.8138
0
LINE
8
BLACK
6
CONTINUOUS
10
121.54
20
-36.8138
11
121.595
21
-36.9643
0
LINE
8
BLACK
6
CONTINUOUS
10
121.595
20
-36.9643
11
121.675
21
-37.103
0
LINE
8
BLACK
6
CONTINUOUS
10
121.675
20
-37.103
11
121.778
21
-37.2257
0
LINE
8
BLACK
6
CONTINUOUS
10
121.778
20
-37.2257
11
121.901
21
-37.3287
0
LINE
8
BLACK
6
CONTINUOUS
10
121.901
20
-37.3287
11
122.04
21
-37.4088
0
LINE
8
BLACK
6
CONTINUOUS
10
122.04
20
-37.4088
11
122.19
21
-37.4636
0
LINE
8
BLACK
6
CONTINUOUS
10
122.19
20
-37.4636
11
122.348
21
-37.4914
0
LINE
8
BLACK
6
CONTINUOUS
10
122.348
20
-37.4914
11
122.428
21
-37.4914
0
LINE
8
BLACK
6
CONTINUOUS
10
122.428
20
-37.4914
11
122.43
21
-37.492
0
LINE
8
BLACK
6
CONTINUOUS
10
122.43
20
-37.492
11
172.72
21
-37.492
0
LINE
8
BLACK
6
CONTINUOUS
10
172.72
20
-37.492
11
172.888
21
-37.5086
0
LINE
8
BLACK
6
CONTINUOUS
10
172.888
20
-37.5086
11
173.05
21
-37.5576
0
LINE
8
BLACK
6
CONTINUOUS
10
173.05
20
-37.5576
11
173.199
21
-37.6373
0
LINE
8
BLACK
6
CONTINUOUS
10
173.199
20
-37.6373
11
173.33
21
-37.7445
0
LINE
8
BLACK
6
CONTINUOUS
10
173.33
20
-37.7445
11
173.437
21
-37.8751
0
LINE
8
BLACK
6
CONTINUOUS
10
173.437
20
-37.8751
11
173.516
21
-38.0241
0
LINE
8
BLACK
6
CONTINUOUS
10
173.516
20
-38.0241
11
173.565
21
-38.1858
0
LINE
8
BLACK
6
CONTINUOUS
10
173.565
20
-38.1858
11
173.582
21
-38.354
0
LINE
8
BLACK
6
CONTINUOUS
10
173.582
20
-38.354
11
173.582
21
-38.354
0
LINE
8
BLACK
6
CONTINUOUS
10
173.582
20
-38.354
11
173.582
21
-91.694
0
LINE
8
BLACK
6
CONTINUOUS
10
173.582
20
-91.694
11
173.565
21
-91.8878
0
LINE
8
BLACK
6
CONTINUOUS
10
173.565
20
-91.8878
11
173.515
21
-92.0757
0
LINE
8
BLACK
6
CONTINUOUS
10
173.515
20
-92.0757
11
173.432
21
-92.252
0
LINE
8
BLACK
6
CONTINUOUS
10
173.432
20
-92.252
11
173.321
21
-92.4114
0
LINE
8
BLACK
6
CONTINUOUS
10
173.321
20
-92.4114
11
173.183
21
-92.5489
0
LINE
8
BLACK
6
CONTINUOUS
10
173.183
20
-92.5489
11
173.024
21
-92.6605
0
LINE
8
BLACK
6
CONTINUOUS
10
173.024
20
-92.6605
11
172.848
21
-92.7427
0
LINE
8
BLACK
6
CONTINUOUS
10
172.848
20
-92.7427
11
172.66
21
-92.793
0
LINE
8
BLACK
6
CONTINUOUS
10
172.66
20
-92.793
11
172.466
21
-92.81
0
LINE
8
BLACK
6
CONTINUOUS
10
172.466
20
-92.81
11
172.466
21
-92.81
0
LINE
8
BLACK
6
CONTINUOUS
10
172.466
20
-92.81
11
171.45
21
-92.81
0
LINE
8
BLACK
6
CONTINUOUS
10
171.45
20
-92.81
11
171.45
21
-92.81
0
LINE
8
BLACK
6
CONTINUOUS
10
171.45
20
-92.81
11
171.375
21
-92.81
0
LINE
8
BLACK
6
CONTINUOUS
10
171.375
20
-92.81
11
171.23
21
-92.8432
0
LINE
8
BLACK
6
CONTINUOUS
10
171.23
20
-92.8432
11
171.096
21
-92.9079
0
LINE
8
BLACK
6
CONTINUOUS
10
171.096
20
-92.9079
11
170.979
21
-93.0009
0
LINE
8
BLACK
6
CONTINUOUS
10
170.979
20
-93.0009
11
170.886
21
-93.1176
0
LINE
8
BLACK
6
CONTINUOUS
10
170.886
20
-93.1176
11
170.821
21
-93.252
0
LINE
8
BLACK
6
CONTINUOUS
10
170.821
20
-93.252
11
170.788
21
-93.3974
0
LINE
8
BLACK
6
CONTINUOUS
10
170.788
20
-93.3974
11
170.788
21
-93.472
0
LINE
8
BLACK
6
CONTINUOUS
10
170.788
20
-93.472
11
170.788
21
-93.472
0
LINE
8
BLACK
6
CONTINUOUS
10
170.788
20
-93.472
11
170.788
21
-108.204
0
LINE
8
BLACK
6
CONTINUOUS
10
170.788
20
-108.204
11
170.788
21
-108.204
0
LINE
8
BLACK
6
CONTINUOUS
10
170.788
20
-108.204
11
170.788
21
-108.204
0
LINE
8
BLACK
6
CONTINUOUS
10
170.788
20
-108.204
11
170.788
21
-108.204
0
LINE
8
BLACK
6
CONTINUOUS
10
170.788
20
-108.204
11
170.788
21
-108.279
0
LINE
8
BLACK
6
CONTINUOUS
10
170.788
20
-108.279
11
170.821
21
-108.424
0
LINE
8
BLACK
6
CONTINUOUS
10
170.821
20
-108.424
11
170.886
21
-108.558
0
LINE
8
BLACK
6
CONTINUOUS
10
170.886
20
-108.558
11
170.979
21
-108.675
0
LINE
8
BLACK
6
CONTINUOUS
10
170.979
20
-108.675
11
171.096
21
-108.768
0
LINE
8
BLACK
6
CONTINUOUS
10
171.096
20
-108.768
11
171.23
21
-108.833
0
LINE
8
BLACK
6
CONTINUOUS
10
171.23
20
-108.833
11
171.375
21
-108.866
0
LINE
8
BLACK
6
CONTINUOUS
10
171.375
20
-108.866
11
171.45
21
-108.866
0
LINE
8
BLACK
6
CONTINUOUS
10
171.45
20
-108.866
11
172.466
21
-108.866
0
LINE
8
BLACK
6
CONTINUOUS
10
172.466
20
-108.866
11
172.66
21
-108.883
0
LINE
8
BLACK
6
CONTINUOUS
10
172.66
20
-108.883
11
172.848
21
-108.933
0
LINE
8
BLACK
6
CONTINUOUS
10
172.848
20
-108.933
11
173.024
21
-109.016
0
LINE
8
BLACK
6
CONTINUOUS
10
173.024
20
-109.016
11
173.183
21
-109.127
0
LINE
8
BLACK
6
CONTINUOUS
10
173.183
20
-109.127
11
173.321
21
-109.265
0
LINE
8
BLACK
6
CONTINUOUS
10
173.321
20
-109.265
11
173.432
21
-109.424
0
LINE
8
BLACK
6
CONTINUOUS
10
173.432
20
-109.424
11
173.515
21
-109.6
0
LINE
8
BLACK
6
CONTINUOUS
10
173.515
20
-109.6
11
173.565
21
-109.788
0
LINE
8
BLACK
6
CONTINUOUS
10
173.565
20
-109.788
11
173.582
21
-109.982
0
LINE
8
BLACK
6
CONTINUOUS
10
173.582
20
-109.982
11
173.582
21
-109.982
0
LINE
8
BLACK
6
CONTINUOUS
10
173.582
20
-109.982
11
173.582
21
-109.982
0
LINE
8
BLACK
6
CONTINUOUS
10
173.582
20
-109.982
11
173.582
21
-109.982
0
LINE
8
BLACK
6
CONTINUOUS
10
173.582
20
-109.982
11
173.582
21
-119.38
0
LINE
8
BLACK
6
CONTINUOUS
10
173.582
20
-119.38
11
173.571
21
-119.556
0
LINE
8
BLACK
6
CONTINUOUS
10
173.571
20
-119.556
11
173.537
21
-119.729
0
LINE
8
BLACK
6
CONTINUOUS
10
173.537
20
-119.729
11
173.481
21
-119.896
0
LINE
8
BLACK
6
CONTINUOUS
10
173.481
20
-119.896
11
173.404
21
-120.055
0
LINE
8
BLACK
6
CONTINUOUS
10
173.404
20
-120.055
11
173.308
21
-120.202
0
LINE
8
BLACK
6
CONTINUOUS
10
173.308
20
-120.202
11
173.308
21
-120.202
0
LINE
8
BLACK
6
CONTINUOUS
10
173.308
20
-120.202
11
173.305
21
-120.204
0
LINE
8
BLACK
6
CONTINUOUS
10
173.305
20
-120.204
11
173.304
21
-120.206
0
LINE
8
BLACK
6
CONTINUOUS
10
173.304
20
-120.206
11
157.38
21
-139.112
0
LINE
8
BLACK
6
CONTINUOUS
10
157.38
20
-139.112
11
157.38
21
-139.112
0
LINE
8
BLACK
6
CONTINUOUS
10
157.38
20
-139.112
11
157.244
21
-139.247
0
LINE
8
BLACK
6
CONTINUOUS
10
157.244
20
-139.247
11
157.087
21
-139.357
0
LINE
8
BLACK
6
CONTINUOUS
10
157.087
20
-139.357
11
156.914
21
-139.439
0
LINE
8
BLACK
6
CONTINUOUS
10
156.914
20
-139.439
11
156.728
21
-139.488
0
LINE
8
BLACK
6
CONTINUOUS
10
156.728
20
-139.488
11
156.537
21
-139.505
0
LINE
8
BLACK
6
CONTINUOUS
10
156.537
20
-139.505
11
156.346
21
-139.488
0
LINE
8
BLACK
6
CONTINUOUS
10
156.346
20
-139.488
11
156.161
21
-139.438
0
LINE
8
BLACK
6
CONTINUOUS
10
156.161
20
-139.438
11
155.987
21
-139.357
0
LINE
8
BLACK
6
CONTINUOUS
10
155.987
20
-139.357
11
155.831
21
-139.248
0
LINE
8
BLACK
6
CONTINUOUS
10
155.831
20
-139.248
11
155.831
21
-139.248
0
LINE
8
BLACK
6
CONTINUOUS
10
155.831
20
-139.248
11
140.201
21
-126.237
0
LINE
8
BLACK
6
CONTINUOUS
10
140.201
20
-126.237
11
122.905
21
-121.635
0
LINE
8
BLACK
6
CONTINUOUS
10
122.905
20
-121.635
11
101.512
21
-125.48
0
LINE
8
BLACK
6
CONTINUOUS
10
101.512
20
-125.48
11
101.512
21
-125.48
0
LINE
8
BLACK
6
CONTINUOUS
10
101.512
20
-125.48
11
101.512
21
-125.48
0
LINE
8
BLACK
6
CONTINUOUS
10
101.512
20
-125.48
11
101.512
21
-125.48
0
LINE
8
BLACK
6
CONTINUOUS
10
101.512
20
-125.48
11
101.321
21
-125.497
0
LINE
8
BLACK
6
CONTINUOUS
10
101.321
20
-125.497
11
101.13
21
-125.48
0
LINE
8
BLACK
6
CONTINUOUS
10
101.13
20
-125.48
11
100.945
21
-125.431
0
LINE
8
BLACK
6
CONTINUOUS
10
100.945
20
-125.431
11
100.771
21
-125.35
0
LINE
8
BLACK
6
CONTINUOUS
10
100.771
20
-125.35
11
100.614
21
-125.24
0
LINE
8
BLACK
6
CONTINUOUS
10
100.614
20
-125.24
11
100.478
21
-125.104
0
LINE
8
BLACK
6
CONTINUOUS
10
100.478
20
-125.104
11
100.368
21
-124.947
0
LINE
8
BLACK
6
CONTINUOUS
10
100.368
20
-124.947
11
100.287
21
-124.773
0
LINE
8
BLACK
6
CONTINUOUS
10
100.287
20
-124.773
11
100.238
21
-124.589
0
LINE
8
BLACK
6
CONTINUOUS
10
100.238
20
-124.589
11
100.238
21
-124.588
0
LINE
8
BLACK
6
CONTINUOUS
10
100.238
20
-124.588
11
99.5295
21
-120.643
0
LINE
8
BLACK
6
CONTINUOUS
10
99.5295
20
-120.643
11
99.5295
21
-120.643
0
LINE
8
BLACK
6
CONTINUOUS
10
99.5295
20
-120.643
11
99.5294
21
-120.643
0
LINE
8
BLACK
6
CONTINUOUS
10
99.5294
20
-120.643
11
99.5294
21
-120.643
0
LINE
8
BLACK
6
CONTINUOUS
10
99.5294
20
-120.643
11
99.5143
21
-120.557
0
LINE
8
BLACK
6
CONTINUOUS
10
99.5143
20
-120.557
11
99.4515
21
-120.395
0
LINE
8
BLACK
6
CONTINUOUS
10
99.4515
20
-120.395
11
99.3585
21
-120.248
0
LINE
8
BLACK
6
CONTINUOUS
10
99.3585
20
-120.248
11
99.2387
21
-120.122
0
LINE
8
BLACK
6
CONTINUOUS
10
99.2387
20
-120.122
11
99.0967
21
-120.022
0
LINE
8
BLACK
6
CONTINUOUS
10
99.0967
20
-120.022
11
98.938
21
-119.951
0
LINE
8
BLACK
6
CONTINUOUS
10
98.938
20
-119.951
11
98.7686
21
-119.912
0
LINE
8
BLACK
6
CONTINUOUS
10
98.7686
20
-119.912
11
98.6831
21
-119.91
0
LINE
8
BLACK
6
CONTINUOUS
10
98.6831
20
-119.91
11
28.1026
21
-119.922
0
LINE
8
BLACK
6
CONTINUOUS
10
28.1026
20
-119.922
11
28.1026
21
-119.922
0
LINE
8
BLACK
6
CONTINUOUS
10
28.1026
20
-119.922
11
28.1026
21
-119.922
0
LINE
8
BLACK
6
CONTINUOUS
10
28.1026
20
-119.922
11
28.1026
21
-119.922
0
LINE
8
BLACK
6
CONTINUOUS
10
28.1026
20
-119.922
11
28.1026
21
-119.922
0
LINE
8
BLACK
6
CONTINUOUS
10
28.1026
20
-119.922
11
27.9115
21
-119.906
0
LINE
8
BLACK
6
CONTINUOUS
10
27.9115
20
-119.906
11
27.7263
21
-119.856
0
LINE
8
BLACK
6
CONTINUOUS
10
27.7263
20
-119.856
11
27.5524
21
-119.775
0
LINE
8
BLACK
6
CONTINUOUS
10
27.5524
20
-119.775
11
27.3953
21
-119.665
0
LINE
8
BLACK
6
CONTINUOUS
10
27.3953
20
-119.665
11
27.2596
21
-119.53
0
LINE
8
BLACK
6
CONTINUOUS
10
27.2596
20
-119.53
11
27.1496
21
-119.372
0
LINE
8
BLACK
6
CONTINUOUS
10
27.1496
20
-119.372
11
27.0685
21
-119.199
0
LINE
8
BLACK
6
CONTINUOUS
10
27.0685
20
-119.199
11
27.0188
21
-119.013
0
LINE
8
BLACK
6
CONTINUOUS
10
27.0188
20
-119.013
11
27.0189
21
-119.013
0
LINE
8
BLACK
6
CONTINUOUS
10
27.0189
20
-119.013
11
27.0189
21
-119.013
0
LINE
8
BLACK
6
CONTINUOUS
10
27.0189
20
-119.013
11
18.5535
21
-71.0034
0
LINE
8
BLACK
6
CONTINUOUS
10
18.5535
20
-71.0034
11
18.5535
21
-71.0034
0
LINE
8
BLACK
6
CONTINUOUS
10
18.5535
20
-71.0034
11
18.5368
21
-70.8124
0
LINE
8
BLACK
6
CONTINUOUS
10
18.5368
20
-70.8124
11
18.5535
21
-70.6213
0
LINE
8
BLACK
6
CONTINUOUS
10
18.5535
20
-70.6213
11
18.6031
21
-70.4361
0
LINE
8
BLACK
6
CONTINUOUS
10
18.6031
20
-70.4361
11
18.6841
21
-70.2624
0
LINE
8
BLACK
6
CONTINUOUS
10
18.6841
20
-70.2624
11
18.7941
21
-70.1053
0
LINE
8
BLACK
6
CONTINUOUS
10
18.7941
20
-70.1053
11
18.9297
21
-69.9697
0
LINE
8
BLACK
6
CONTINUOUS
10
18.9297
20
-69.9697
11
19.0868
21
-69.8597
0
LINE
8
BLACK
6
CONTINUOUS
10
19.0868
20
-69.8597
11
19.2605
21
-69.7787
0
LINE
8
BLACK
6
CONTINUOUS
10
19.2605
20
-69.7787
11
19.4457
21
-69.7291
0
LINE
8
BLACK
6
CONTINUOUS
10
19.4457
20
-69.7291
11
19.4457
21
-69.7291
0
LINE
8
BLACK
6
CONTINUOUS
10
19.4457
20
-69.7291
11
37.2581
21
-66.5883
0
LINE
8
BLACK
6
CONTINUOUS
10
37.2581
20
-66.5883
11
37.2582
21
-66.5883
0
LINE
8
BLACK
6
CONTINUOUS
10
37.2582
20
-66.5883
11
37.3435
21
-66.5732
0
LINE
8
BLACK
6
CONTINUOUS
10
37.3435
20
-66.5732
11
37.5053
21
-66.511
0
LINE
8
BLACK
6
CONTINUOUS
10
37.5053
20
-66.511
11
37.6522
21
-66.4192
0
LINE
8
BLACK
6
CONTINUOUS
10
37.6522
20
-66.4192
11
37.779
21
-66.301
0
LINE
8
BLACK
6
CONTINUOUS
10
37.779
20
-66.301
11
37.8808
21
-66.1608
0
LINE
8
BLACK
6
CONTINUOUS
10
37.8808
20
-66.1608
11
37.9541
21
-66.0037
0
LINE
8
BLACK
6
CONTINUOUS
10
37.9541
20
-66.0037
11
37.996
21
-65.8356
0
LINE
8
BLACK
6
CONTINUOUS
10
37.996
20
-65.8356
11
38.0051
21
-65.6625
0
LINE
8
BLACK
6
CONTINUOUS
10
38.0051
20
-65.6625
11
37.9931
21
-65.5767
0
LINE
8
BLACK
6
CONTINUOUS
10
37.9931
20
-65.5767
11
36.9404
21
-58.0866
0
LINE
8
BLACK
6
CONTINUOUS
10
36.9404
20
-58.0866
11
36.9404
21
-58.0866
0
LINE
8
BLACK
6
CONTINUOUS
10
36.9404
20
-58.0866
11
36.9404
21
-58.0866
0
LINE
8
BLACK
6
CONTINUOUS
10
36.9404
20
-58.0866
11
36.9404
21
-58.0866
0
LINE
8
BLACK
6
CONTINUOUS
10
36.9404
20
-58.0866
11
36.9304
21
-57.8951
0
LINE
8
BLACK
6
CONTINUOUS
10
36.9304
20
-57.8951
11
36.9538
21
-57.7048
0
LINE
8
BLACK
6
CONTINUOUS
10
36.9538
20
-57.7048
11
37.0099
21
-57.5215
0
LINE
8
BLACK
6
CONTINUOUS
10
37.0099
20
-57.5215
11
37.0969
21
-57.3506
0
LINE
8
BLACK
6
CONTINUOUS
10
37.0969
20
-57.3506
11
37.2123
21
-57.1975
0
LINE
8
BLACK
6
CONTINUOUS
10
37.2123
20
-57.1975
11
37.3525
21
-57.0668
0
LINE
8
BLACK
6
CONTINUOUS
10
37.3525
20
-57.0668
11
37.5133
21
-56.9623
0
LINE
8
BLACK
6
CONTINUOUS
10
37.5133
20
-56.9623
11
37.6898
21
-56.8874
0
LINE
8
BLACK
6
CONTINUOUS
10
37.6898
20
-56.8874
11
37.8766
21
-56.8443
0
LINE
8
BLACK
6
CONTINUOUS
10
37.8766
20
-56.8443
11
37.8766
21
-56.8442
0
LINE
8
BLACK
6
CONTINUOUS
10
37.8766
20
-56.8442
11
37.8766
21
-56.8442
0
LINE
8
BLACK
6
CONTINUOUS
10
37.8766
20
-56.8442
11
37.8766
21
-56.8442
0
LINE
8
BLACK
6
CONTINUOUS
10
37.8766
20
-56.8442
11
37.8767
21
-56.8442
0
LINE
8
BLACK
6
CONTINUOUS
10
37.8767
20
-56.8442
11
55.7656
21
-54.3301
0
LINE
8
BLACK
6
CONTINUOUS
10
55.7656
20
-54.3301
11
55.7658
21
-54.3301
0
LINE
8
BLACK
6
CONTINUOUS
10
55.7658
20
-54.3301
11
55.8514
21
-54.318
0
LINE
8
BLACK
6
CONTINUOUS
10
55.8514
20
-54.318
11
56.0153
21
-54.2616
0
LINE
8
BLACK
6
CONTINUOUS
10
56.0153
20
-54.2616
11
56.1654
21
-54.1749
0
LINE
8
BLACK
6
CONTINUOUS
10
56.1654
20
-54.1749
11
56.2962
21
-54.0612
0
LINE
8
BLACK
6
CONTINUOUS
10
56.2962
20
-54.0612
11
56.4028
21
-53.9247
0
LINE
8
BLACK
6
CONTINUOUS
10
56.4028
20
-53.9247
11
56.4815
21
-53.7702
0
LINE
8
BLACK
6
CONTINUOUS
10
56.4815
20
-53.7702
11
56.5293
21
-53.6036
0
LINE
8
BLACK
6
CONTINUOUS
10
56.5293
20
-53.6036
11
56.5444
21
-53.431
0
LINE
8
BLACK
6
CONTINUOUS
10
56.5444
20
-53.431
11
56.5354
21
-53.3448
0
LINE
8
BLACK
6
CONTINUOUS
10
56.5354
20
-53.3448
11
56.5354
21
-53.3448
0
LINE
8
BLACK
6
CONTINUOUS
10
56.5354
20
-53.3448
11
56.5354
21
-53.3448
0
LINE
8
BLACK
6
CONTINUOUS
10
56.5354
20
-53.3448
11
55.0785
21
-39.4836
0
LINE
8
BLACK
6
CONTINUOUS
10
55.0785
20
-39.4836
11
55.0785
21
-39.4836
0
LINE
8
BLACK
6
CONTINUOUS
10
55.0785
20
-39.4836
11
55.0785
21
-39.4836
0
LINE
8
BLACK
6
CONTINUOUS
10
55.0785
20
-39.4836
11
55.0752
21
-39.2919
0
LINE
8
BLACK
6
CONTINUOUS
10
55.0752
20
-39.2919
11
55.1052
21
-39.1025
0
LINE
8
BLACK
6
CONTINUOUS
10
55.1052
20
-39.1025
11
55.1676
21
-38.9212
0
LINE
8
BLACK
6
CONTINUOUS
10
55.1676
20
-38.9212
11
55.2606
21
-38.7535
0
LINE
8
BLACK
6
CONTINUOUS
10
55.2606
20
-38.7535
11
55.3813
21
-38.6045
0
LINE
8
BLACK
6
CONTINUOUS
10
55.3813
20
-38.6045
11
55.526
21
-38.4787
0
LINE
8
BLACK
6
CONTINUOUS
10
55.526
20
-38.4787
11
55.6903
21
-38.38
0
LINE
8
BLACK
6
CONTINUOUS
10
55.6903
20
-38.38
11
55.8693
21
-38.3113
0
LINE
8
BLACK
6
CONTINUOUS
10
55.8693
20
-38.3113
11
56.0575
21
-38.2747
0
LINE
8
BLACK
6
CONTINUOUS
10
56.0575
20
-38.2747
11
56.0575
21
-38.2747
0
LINE
8
BLACK
6
CONTINUOUS
10
56.0575
20
-38.2747
11
56.0575
21
-38.2747
0
LINE
8
BLACK
6
CONTINUOUS
10
56.0575
20
-38.2747
11
56.0575
21
-38.2747
0
LINE
8
BLACK
6
CONTINUOUS
10
56.0575
20
-38.2747
11
74.1813
21
-36.3698
0
LINE
8
BLACK
6
CONTINUOUS
10
74.1813
20
-36.3698
11
74.1813
21
-36.3698
0
LINE
8
BLACK
6
CONTINUOUS
10
74.1813
20
-36.3698
11
74.1813
21
-36.3698
0
LINE
8
BLACK
6
CONTINUOUS
10
74.1813
20
-36.3698
11
74.1814
21
-36.3698
0
LINE
8
BLACK
6
CONTINUOUS
10
74.1814
20
-36.3698
11
74.2675
21
-36.3607
0
LINE
8
BLACK
6
CONTINUOUS
10
74.2675
20
-36.3607
11
74.4332
21
-36.31
0
LINE
8
BLACK
6
CONTINUOUS
10
74.4332
20
-36.31
11
74.5862
21
-36.2286
0
LINE
8
BLACK
6
CONTINUOUS
10
74.5862
20
-36.2286
11
74.7209
21
-36.1195
0
LINE
8
BLACK
6
CONTINUOUS
10
74.7209
20
-36.1195
11
74.8323
21
-35.9868
0
LINE
8
BLACK
6
CONTINUOUS
10
74.8323
20
-35.9868
11
74.9163
21
-35.8352
0
LINE
8
BLACK
6
CONTINUOUS
10
74.9163
20
-35.8352
11
74.9699
21
-35.6704
0
LINE
8
BLACK
6
CONTINUOUS
10
74.9699
20
-35.6704
11
74.991
21
-35.4984
0
LINE
8
BLACK
6
CONTINUOUS
10
74.991
20
-35.4984
11
74.9851
21
-35.4119
0
LINE
8
BLACK
6
CONTINUOUS
10
74.9851
20
-35.4119
11
74.9851
21
-35.4119
0
LINE
8
BLACK
6
CONTINUOUS
10
74.9851
20
-35.4119
11
74.3304
21
-26.05
0
LINE
8
BLACK
6
CONTINUOUS
10
74.3304
20
-26.05
11
74.3304
21
-26.05
0
LINE
8
BLACK
6
CONTINUOUS
10
74.3304
20
-26.05
11
74.3304
21
-26.05
0
LINE
8
BLACK
6
CONTINUOUS
10
74.3304
20
-26.05
11
74.3304
21
-26.05
0
LINE
8
BLACK
6
CONTINUOUS
10
74.3304
20
-26.05
11
74.3338
21
-25.8583
0
LINE
8
BLACK
6
CONTINUOUS
10
74.3338
20
-25.8583
11
74.3703
21
-25.6701
0
LINE
8
BLACK
6
CONTINUOUS
10
74.3703
20
-25.6701
11
74.4391
21
-25.4911
0
LINE
8
BLACK
6
CONTINUOUS
10
74.4391
20
-25.4911
11
74.5378
21
-25.3267
0
LINE
8
BLACK
6
CONTINUOUS
10
74.5378
20
-25.3267
11
74.6636
21
-25.182
0
LINE
8
BLACK
6
CONTINUOUS
10
74.6636
20
-25.182
11
74.8126
21
-25.0614
0
LINE
8
BLACK
6
CONTINUOUS
10
74.8126
20
-25.0614
11
74.9803
21
-24.9684
0
LINE
8
BLACK
6
CONTINUOUS
10
74.9803
20
-24.9684
11
75.1616
21
-24.906
0
LINE
8
BLACK
6
CONTINUOUS
10
75.1616
20
-24.906
11
75.3508
21
-24.876
0
LINE
8
BLACK
6
CONTINUOUS
10
75.3508
20
-24.876
11
75.351
21
-24.876
0
LINE
8
BLACK
6
CONTINUOUS
10
75.351
20
-24.876
11
75.351
21
-24.876
0
LINE
8
BLACK
6
CONTINUOUS
10
75.351
20
-24.876
11
75.351
21
-24.876
0
LINE
8
BLACK
6
CONTINUOUS
10
75.351
20
-24.876
11
99.2925
21
-23.2018
0
LINE
8
BLACK
6
CONTINUOUS
10
99.2925
20
-23.2018
11
99.2925
21
-23.2018
0
LINE
8
BLACK
6
CONTINUOUS
10
99.2925
20
-23.2018
11
99.2925
21
-23.2018
0
LINE
8
BLACK
6
CONTINUOUS
10
99.2925
20
-23.2018
11
99.2925
21
-23.2018
0
LINE
8
BLACK
6
CONTINUOUS
10
99.3065
20
-23.4013
11
99.3065
21
-23.4013
0
LINE
8
BLACK
6
CONTINUOUS
10
99.3065
20
-23.4013
11
99.3065
21
-23.4013
0
LINE
8
BLACK
6
CONTINUOUS
10
99.3065
20
-23.4013
11
99.3065
21
-23.4013
0
LINE
8
BLACK
6
CONTINUOUS
10
99.3065
20
-23.4013
11
75.3649
21
-25.0755
0
LINE
8
BLACK
6
CONTINUOUS
10
75.3649
20
-25.0755
11
75.3649
21
-25.0755
0
LINE
8
BLACK
6
CONTINUOUS
10
75.3649
20
-25.0755
11
75.3649
21
-25.0755
0
LINE
8
BLACK
6
CONTINUOUS
10
75.3649
20
-25.0755
11
75.2765
21
-25.0817
0
LINE
8
BLACK
6
CONTINUOUS
10
75.2765
20
-25.0817
11
75.1055
21
-25.1283
0
LINE
8
BLACK
6
CONTINUOUS
10
75.1055
20
-25.1283
11
74.9468
21
-25.2074
0
LINE
8
BLACK
6
CONTINUOUS
10
74.9468
20
-25.2074
11
74.8067
21
-25.316
0
LINE
8
BLACK
6
CONTINUOUS
10
74.8067
20
-25.316
11
74.6903
21
-25.4497
0
LINE
8
BLACK
6
CONTINUOUS
10
74.6903
20
-25.4497
11
74.6024
21
-25.6037
0
LINE
8
BLACK
6
CONTINUOUS
10
74.6024
20
-25.6037
11
74.5461
21
-25.7718
0
LINE
8
BLACK
6
CONTINUOUS
10
74.5461
20
-25.7718
11
74.5237
21
-25.9476
0
LINE
8
BLACK
6
CONTINUOUS
10
74.5237
20
-25.9476
11
74.5299
21
-26.0361
0
LINE
8
BLACK
6
CONTINUOUS
10
74.5299
20
-26.0361
11
74.5299
21
-26.0361
0
LINE
8
BLACK
6
CONTINUOUS
10
74.5299
20
-26.0361
11
75.1846
21
-35.398
0
LINE
8
BLACK
6
CONTINUOUS
10
75.1846
20
-35.398
11
75.1846
21
-35.398
0
LINE
8
BLACK
6
CONTINUOUS
10
75.1846
20
-35.398
11
75.1846
21
-35.398
0
LINE
8
BLACK
6
CONTINUOUS
10
75.1846
20
-35.398
11
75.1846
21
-35.398
0
LINE
8
BLACK
6
CONTINUOUS
10
75.1846
20
-35.398
11
75.1816
21
-35.5854
0
LINE
8
BLACK
6
CONTINUOUS
10
75.1816
20
-35.5854
11
75.1469
21
-35.7697
0
LINE
8
BLACK
6
CONTINUOUS
10
75.1469
20
-35.7697
11
75.0814
21
-35.9454
0
LINE
8
BLACK
6
CONTINUOUS
10
75.0814
20
-35.9454
11
74.9871
21
-36.1074
0
LINE
8
BLACK
6
CONTINUOUS
10
74.9871
20
-36.1074
11
74.8665
21
-36.251
0
LINE
8
BLACK
6
CONTINUOUS
10
74.8665
20
-36.251
11
74.7234
21
-36.3721
0
LINE
8
BLACK
6
CONTINUOUS
10
74.7234
20
-36.3721
11
74.5618
21
-36.4671
0
LINE
8
BLACK
6
CONTINUOUS
10
74.5618
20
-36.4671
11
74.3864
21
-36.5333
0
LINE
8
BLACK
6
CONTINUOUS
10
74.3864
20
-36.5333
11
74.2022
21
-36.5687
0
LINE
8
BLACK
6
CONTINUOUS
10
74.2022
20
-36.5687
11
74.2022
21
-36.5687
0
LINE
8
BLACK
6
CONTINUOUS
10
74.2022
20
-36.5687
11
74.2022
21
-36.5687
0
LINE
8
BLACK
6
CONTINUOUS
10
74.2022
20
-36.5687
11
74.2022
21
-36.5687
0
LINE
8
BLACK
6
CONTINUOUS
10
74.2022
20
-36.5687
11
56.0784
21
-38.4736
0
LINE
8
BLACK
6
CONTINUOUS
10
56.0784
20
-38.4736
11
56.0784
21
-38.4736
0
LINE
8
BLACK
6
CONTINUOUS
10
56.0784
20
-38.4736
11
55.9903
21
-38.4828
0
LINE
8
BLACK
6
CONTINUOUS
10
55.9903
20
-38.4828
11
55.821
21
-38.5354
0
LINE
8
BLACK
6
CONTINUOUS
10
55.821
20
-38.5354
11
55.6652
21
-38.62
0
LINE
8
BLACK
6
CONTINUOUS
10
55.6652
20
-38.62
11
55.5289
21
-38.7334
0
LINE
8
BLACK
6
CONTINUOUS
10
55.5289
20
-38.7334
11
55.4173
21
-38.8711
0
LINE
8
BLACK
6
CONTINUOUS
10
55.4173
20
-38.8711
11
55.3348
21
-39.028
0
LINE
8
BLACK
6
CONTINUOUS
10
55.3348
20
-39.028
11
55.2844
21
-39.198
0
LINE
8
BLACK
6
CONTINUOUS
10
55.2844
20
-39.198
11
55.2682
21
-39.3746
0
LINE
8
BLACK
6
CONTINUOUS
10
55.2682
20
-39.3746
11
55.2774
21
-39.4627
0
LINE
8
BLACK
6
CONTINUOUS
10
55.2774
20
-39.4627
11
56.7343
21
-53.3239
0
LINE
8
BLACK
6
CONTINUOUS
10
56.7343
20
-53.3239
11
56.7343
21
-53.3239
0
LINE
8
BLACK
6
CONTINUOUS
10
56.7343
20
-53.3239
11
56.7379
21
-53.5114
0
LINE
8
BLACK
6
CONTINUOUS
10
56.7379
20
-53.5114
11
56.7097
21
-53.6967
0
LINE
8
BLACK
6
CONTINUOUS
10
56.7097
20
-53.6967
11
56.6504
21
-53.8746
0
LINE
8
BLACK
6
CONTINUOUS
10
56.6504
20
-53.8746
11
56.5617
21
-54.0398
0
LINE
8
BLACK
6
CONTINUOUS
10
56.5617
20
-54.0398
11
56.4463
21
-54.1875
0
LINE
8
BLACK
6
CONTINUOUS
10
56.4463
20
-54.1875
11
56.3074
21
-54.3135
0
LINE
8
BLACK
6
CONTINUOUS
10
56.3074
20
-54.3135
11
56.1492
21
-54.4141
0
LINE
8
BLACK
6
CONTINUOUS
10
56.1492
20
-54.4141
11
55.9762
21
-54.4864
0
LINE
8
BLACK
6
CONTINUOUS
10
55.9762
20
-54.4864
11
55.7934
21
-54.5282
0
LINE
8
BLACK
6
CONTINUOUS
10
55.7934
20
-54.5282
11
55.7934
21
-54.5282
0
LINE
8
BLACK
6
CONTINUOUS
10
55.7934
20
-54.5282
11
55.7934
21
-54.5282
0
LINE
8
BLACK
6
CONTINUOUS
10
55.7934
20
-54.5282
11
55.7934
21
-54.5282
0
LINE
8
BLACK
6
CONTINUOUS
10
55.7934
20
-54.5282
11
37.9045
21
-57.0423
0
LINE
8
BLACK
6
CONTINUOUS
10
37.9045
20
-57.0423
11
37.9045
21
-57.0423
0
LINE
8
BLACK
6
CONTINUOUS
10
37.9045
20
-57.0423
11
37.8167
21
-57.0547
0
LINE
8
BLACK
6
CONTINUOUS
10
37.8167
20
-57.0547
11
37.6494
21
-57.1131
0
LINE
8
BLACK
6
CONTINUOUS
10
37.6494
20
-57.1131
11
37.4966
21
-57.2031
0
LINE
8
BLACK
6
CONTINUOUS
10
37.4966
20
-57.2031
11
37.3643
21
-57.3211
0
LINE
8
BLACK
6
CONTINUOUS
10
37.3643
20
-57.3211
11
37.2576
21
-57.4627
0
LINE
8
BLACK
6
CONTINUOUS
10
37.2576
20
-57.4627
11
37.1806
21
-57.6224
0
LINE
8
BLACK
6
CONTINUOUS
10
37.1806
20
-57.6224
11
37.1362
21
-57.794
0
LINE
8
BLACK
6
CONTINUOUS
10
37.1362
20
-57.794
11
37.1262
21
-57.971
0
LINE
8
BLACK
6
CONTINUOUS
10
37.1262
20
-57.971
11
37.1385
21
-58.0588
0
LINE
8
BLACK
6
CONTINUOUS
10
37.1385
20
-58.0588
11
38.1912
21
-65.5488
0
LINE
8
BLACK
6
CONTINUOUS
10
38.1912
20
-65.5488
11
38.1912
21
-65.5488
0
LINE
8
BLACK
6
CONTINUOUS
10
38.1912
20
-65.5488
11
38.1912
21
-65.5488
0
LINE
8
BLACK
6
CONTINUOUS
10
38.1912
20
-65.5488
11
38.2013
21
-65.7361
0
LINE
8
BLACK
6
CONTINUOUS
10
38.2013
20
-65.7361
11
38.1796
21
-65.9223
0
LINE
8
BLACK
6
CONTINUOUS
10
38.1796
20
-65.9223
11
38.1265
21
-66.1021
0
LINE
8
BLACK
6
CONTINUOUS
10
38.1265
20
-66.1021
11
38.0436
21
-66.2703
0
LINE
8
BLACK
6
CONTINUOUS
10
38.0436
20
-66.2703
11
37.9334
21
-66.422
0
LINE
8
BLACK
6
CONTINUOUS
10
37.9334
20
-66.422
11
37.7991
21
-66.5527
0
LINE
8
BLACK
6
CONTINUOUS
10
37.7991
20
-66.5527
11
37.6445
21
-66.6588
0
LINE
8
BLACK
6
CONTINUOUS
10
37.6445
20
-66.6588
11
37.4741
21
-66.7371
0
LINE
8
BLACK
6
CONTINUOUS
10
37.4741
20
-66.7371
11
37.2929
21
-66.7852
0
LINE
8
BLACK
6
CONTINUOUS
10
37.2929
20
-66.7852
11
37.2929
21
-66.7852
0
LINE
8
BLACK
6
CONTINUOUS
10
37.2929
20
-66.7852
11
37.2929
21
-66.7852
0
LINE
8
BLACK
6
CONTINUOUS
10
37.2929
20
-66.7852
11
37.2929
21
-66.7852
0
LINE
8
BLACK
6
CONTINUOUS
10
37.2929
20
-66.7852
11
19.4805
21
-69.926
0
LINE
8
BLACK
6
CONTINUOUS
10
19.4805
20
-69.926
11
19.4805
21
-69.926
0
LINE
8
BLACK
6
CONTINUOUS
10
19.4805
20
-69.926
11
19.3932
21
-69.9414
0
LINE
8
BLACK
6
CONTINUOUS
10
19.3932
20
-69.9414
11
19.2279
21
-70.0057
0
LINE
8
BLACK
6
CONTINUOUS
10
19.2279
20
-70.0057
11
19.0784
21
-70.1009
0
LINE
8
BLACK
6
CONTINUOUS
10
19.0784
20
-70.1009
11
18.9504
21
-70.2235
0
LINE
8
BLACK
6
CONTINUOUS
10
18.9504
20
-70.2235
11
18.8487
21
-70.3687
0
LINE
8
BLACK
6
CONTINUOUS
10
18.8487
20
-70.3687
11
18.7773
21
-70.531
0
LINE
8
BLACK
6
CONTINUOUS
10
18.7773
20
-70.531
11
18.7389
21
-70.7041
0
LINE
8
BLACK
6
CONTINUOUS
10
18.7389
20
-70.7041
11
18.735
21
-70.8813
0
LINE
8
BLACK
6
CONTINUOUS
10
18.735
20
-70.8813
11
18.7504
21
-70.9686
0
LINE
8
BLACK
6
CONTINUOUS
10
18.7504
20
-70.9686
11
27.2159
21
-118.979
0
LINE
8
BLACK
6
CONTINUOUS
10
27.2159
20
-118.979
11
27.2158
21
-118.979
0
LINE
8
BLACK
6
CONTINUOUS
10
27.2158
20
-118.979
11
27.2295
21
-119.056
0
LINE
8
BLACK
6
CONTINUOUS
10
27.2295
20
-119.056
11
27.2834
21
-119.204
0
LINE
8
BLACK
6
CONTINUOUS
10
27.2834
20
-119.204
11
27.3622
21
-119.341
0
LINE
8
BLACK
6
CONTINUOUS
10
27.3622
20
-119.341
11
27.4634
21
-119.461
0
LINE
8
BLACK
6
CONTINUOUS
10
27.4634
20
-119.461
11
27.5841
21
-119.562
0
LINE
8
BLACK
6
CONTINUOUS
10
27.5841
20
-119.562
11
27.7206
21
-119.641
0
LINE
8
BLACK
6
CONTINUOUS
10
27.7206
20
-119.641
11
27.8686
21
-119.695
0
LINE
8
BLACK
6
CONTINUOUS
10
27.8686
20
-119.695
11
28.0238
21
-119.722
0
LINE
8
BLACK
6
CONTINUOUS
10
28.0238
20
-119.722
11
28.1025
21
-119.722
0
LINE
8
BLACK
6
CONTINUOUS
10
28.1025
20
-119.722
11
28.1025
21
-119.722
0
LINE
8
BLACK
6
CONTINUOUS
10
28.1025
20
-119.722
11
28.1026
21
-119.722
0
LINE
8
BLACK
6
CONTINUOUS
10
28.1026
20
-119.722
11
98.6846
21
-119.71
0
LINE
8
BLACK
6
CONTINUOUS
10
98.6846
20
-119.71
11
98.686
21
-119.71
0
LINE
8
BLACK
6
CONTINUOUS
10
98.686
20
-119.71
11
98.6877
21
-119.71
0
LINE
8
BLACK
6
CONTINUOUS
10
98.6877
20
-119.71
11
98.872
21
-119.731
0
LINE
8
BLACK
6
CONTINUOUS
10
98.872
20
-119.731
11
99.05
21
-119.783
0
LINE
8
BLACK
6
CONTINUOUS
10
99.05
20
-119.783
11
99.2165
21
-119.865
0
LINE
8
BLACK
6
CONTINUOUS
10
99.2165
20
-119.865
11
99.3667
21
-119.974
0
LINE
8
BLACK
6
CONTINUOUS
10
99.3667
20
-119.974
11
99.4962
21
-120.107
0
LINE
8
BLACK
6
CONTINUOUS
10
99.4962
20
-120.107
11
99.6012
21
-120.26
0
LINE
8
BLACK
6
CONTINUOUS
10
99.6012
20
-120.26
11
99.6787
21
-120.429
0
LINE
8
BLACK
6
CONTINUOUS
10
99.6787
20
-120.429
11
99.7262
21
-120.608
0
LINE
8
BLACK
6
CONTINUOUS
10
99.7262
20
-120.608
11
99.7264
21
-120.608
0
LINE
8
BLACK
6
CONTINUOUS
10
99.7264
20
-120.608
11
100.434
21
-124.553
0
LINE
8
BLACK
6
CONTINUOUS
10
100.434
20
-124.553
11
100.434
21
-124.553
0
LINE
8
BLACK
6
CONTINUOUS
10
100.434
20
-124.553
11
100.434
21
-124.553
0
LINE
8
BLACK
6
CONTINUOUS
10
100.434
20
-124.553
11
100.434
21
-124.553
0
LINE
8
BLACK
6
CONTINUOUS
10
100.434
20
-124.553
11
100.45
21
-124.641
0
LINE
8
BLACK
6
CONTINUOUS
10
100.45
20
-124.641
11
100.514
21
-124.806
0
LINE
8
BLACK
6
CONTINUOUS
10
100.514
20
-124.806
11
100.609
21
-124.955
0
LINE
8
BLACK
6
CONTINUOUS
10
100.609
20
-124.955
11
100.732
21
-125.084
0
LINE
8
BLACK
6
CONTINUOUS
10
100.732
20
-125.084
11
100.877
21
-125.185
0
LINE
8
BLACK
6
CONTINUOUS
10
100.877
20
-125.185
11
101.039
21
-125.257
0
LINE
8
BLACK
6
CONTINUOUS
10
101.039
20
-125.257
11
101.213
21
-125.295
0
LINE
8
BLACK
6
CONTINUOUS
10
101.213
20
-125.295
11
101.39
21
-125.299
0
LINE
8
BLACK
6
CONTINUOUS
10
101.39
20
-125.299
11
101.477
21
-125.283
0
LINE
8
BLACK
6
CONTINUOUS
10
101.477
20
-125.283
11
101.477
21
-125.283
0
LINE
8
BLACK
6
CONTINUOUS
10
101.477
20
-125.283
11
122.891
21
-121.434
0
LINE
8
BLACK
6
CONTINUOUS
10
122.891
20
-121.434
11
122.913
21
-121.437
0
LINE
8
BLACK
6
CONTINUOUS
10
122.913
20
-121.437
11
122.935
21
-121.436
0
LINE
8
BLACK
6
CONTINUOUS
10
122.935
20
-121.436
11
140.274
21
-126.05
0
LINE
8
BLACK
6
CONTINUOUS
10
140.274
20
-126.05
11
140.292
21
-126.061
0
LINE
8
BLACK
6
CONTINUOUS
10
140.292
20
-126.061
11
140.312
21
-126.069
0
LINE
8
BLACK
6
CONTINUOUS
10
140.312
20
-126.069
11
155.959
21
-139.094
0
LINE
8
BLACK
6
CONTINUOUS
10
155.959
20
-139.094
11
155.959
21
-139.094
0
LINE
8
BLACK
6
CONTINUOUS
10
155.959
20
-139.094
11
155.959
21
-139.094
0
LINE
8
BLACK
6
CONTINUOUS
10
155.959
20
-139.094
11
155.959
21
-139.094
0
LINE
8
BLACK
6
CONTINUOUS
10
155.959
20
-139.094
11
156.027
21
-139.151
0
LINE
8
BLACK
6
CONTINUOUS
10
156.027
20
-139.151
11
156.182
21
-139.237
0
LINE
8
BLACK
6
CONTINUOUS
10
156.182
20
-139.237
11
156.351
21
-139.29
0
LINE
8
BLACK
6
CONTINUOUS
10
156.351
20
-139.29
11
156.527
21
-139.309
0
LINE
8
BLACK
6
CONTINUOUS
10
156.527
20
-139.309
11
156.704
21
-139.294
0
LINE
8
BLACK
6
CONTINUOUS
10
156.704
20
-139.294
11
156.874
21
-139.244
0
LINE
8
BLACK
6
CONTINUOUS
10
156.874
20
-139.244
11
157.032
21
-139.162
0
LINE
8
BLACK
6
CONTINUOUS
10
157.032
20
-139.162
11
157.17
21
-139.051
0
LINE
8
BLACK
6
CONTINUOUS
10
157.17
20
-139.051
11
157.227
21
-138.983
0
LINE
8
BLACK
6
CONTINUOUS
10
157.227
20
-138.983
11
157.227
21
-138.983
0
LINE
8
BLACK
6
CONTINUOUS
10
157.227
20
-138.983
11
157.227
21
-138.983
0
LINE
8
BLACK
6
CONTINUOUS
10
157.227
20
-138.983
11
157.227
21
-138.983
0
LINE
8
BLACK
6
CONTINUOUS
10
157.227
20
-138.983
11
173.15
21
-120.08
0
LINE
8
BLACK
6
CONTINUOUS
10
173.15
20
-120.08
11
173.205
21
-120.007
0
LINE
8
BLACK
6
CONTINUOUS
10
173.205
20
-120.007
11
173.292
21
-119.839
0
LINE
8
BLACK
6
CONTINUOUS
10
173.292
20
-119.839
11
173.352
21
-119.661
0
LINE
8
BLACK
6
CONTINUOUS
10
173.352
20
-119.661
11
173.382
21
-119.474
0
LINE
8
BLACK
6
CONTINUOUS
10
173.382
20
-119.474
11
173.382
21
-119.38
0
LINE
8
BLACK
6
CONTINUOUS
10
173.382
20
-119.38
11
173.382
21
-109.982
0
LINE
8
BLACK
6
CONTINUOUS
10
173.382
20
-109.982
11
173.382
21
-109.982
0
LINE
8
BLACK
6
CONTINUOUS
10
173.382
20
-109.982
11
173.382
21
-109.902
0
LINE
8
BLACK
6
CONTINUOUS
10
173.382
20
-109.902
11
173.354
21
-109.744
0
LINE
8
BLACK
6
CONTINUOUS
10
173.354
20
-109.744
11
173.299
21
-109.593
0
LINE
8
BLACK
6
CONTINUOUS
10
173.299
20
-109.593
11
173.219
21
-109.455
0
LINE
8
BLACK
6
CONTINUOUS
10
173.219
20
-109.455
11
173.116
21
-109.332
0
LINE
8
BLACK
6
CONTINUOUS
10
173.116
20
-109.332
11
172.993
21
-109.229
0
LINE
8
BLACK
6
CONTINUOUS
10
172.993
20
-109.229
11
172.855
21
-109.149
0
LINE
8
BLACK
6
CONTINUOUS
10
172.855
20
-109.149
11
172.704
21
-109.094
0
LINE
8
BLACK
6
CONTINUOUS
10
172.704
20
-109.094
11
172.546
21
-109.066
0
LINE
8
BLACK
6
CONTINUOUS
10
172.546
20
-109.066
11
172.466
21
-109.066
0
LINE
8
BLACK
6
CONTINUOUS
10
172.466
20
-109.066
11
171.45
21
-109.066
0
LINE
8
BLACK
6
CONTINUOUS
10
171.45
20
-109.066
11
171.45
21
-109.066
0
LINE
8
BLACK
6
CONTINUOUS
10
171.45
20
-109.066
11
171.45
21
-109.066
0
LINE
8
BLACK
6
CONTINUOUS
10
171.45
20
-109.066
11
171.282
21
-109.049
0
LINE
8
BLACK
6
CONTINUOUS
10
171.282
20
-109.049
11
171.12
21
-109
0
LINE
8
BLACK
6
CONTINUOUS
10
171.12
20
-109
11
170.971
21
-108.921
0
LINE
8
BLACK
6
CONTINUOUS
10
170.971
20
-108.921
11
170.84
21
-108.814
0
LINE
8
BLACK
6
CONTINUOUS
10
170.84
20
-108.814
11
170.733
21
-108.683
0
LINE
8
BLACK
6
CONTINUOUS
10
170.733
20
-108.683
11
170.654
21
-108.534
0
LINE
8
BLACK
6
CONTINUOUS
10
170.654
20
-108.534
11
170.605
21
-108.372
0
LINE
8
BLACK
6
CONTINUOUS
10
170.605
20
-108.372
11
170.588
21
-108.204
0
LINE
8
BLACK
6
CONTINUOUS
10
170.588
20
-108.204
11
170.588
21
-108.204
0
LINE
8
BLACK
6
CONTINUOUS
10
170.588
20
-108.204
11
170.588
21
-93.472
0
LINE
8
BLACK
6
CONTINUOUS
10
170.588
20
-93.472
11
170.605
21
-93.3038
0
LINE
8
BLACK
6
CONTINUOUS
10
170.605
20
-93.3038
11
170.654
21
-93.1421
0
LINE
8
BLACK
6
CONTINUOUS
10
170.654
20
-93.1421
11
170.733
21
-92.9931
0
LINE
8
BLACK
6
CONTINUOUS
10
170.733
20
-92.9931
11
170.84
21
-92.8625
0
LINE
8
BLACK
6
CONTINUOUS
10
170.84
20
-92.8625
11
170.971
21
-92.7553
0
LINE
8
BLACK
6
CONTINUOUS
10
170.971
20
-92.7553
11
171.12
21
-92.6756
0
LINE
8
BLACK
6
CONTINUOUS
10
171.12
20
-92.6756
11
171.282
21
-92.6266
0
LINE
8
BLACK
6
CONTINUOUS
10
171.282
20
-92.6266
11
171.45
21
-92.61
0
LINE
8
BLACK
6
CONTINUOUS
10
171.45
20
-92.61
11
171.45
21
-92.61
0
LINE
8
BLACK
6
CONTINUOUS
10
171.45
20
-92.61
11
172.466
21
-92.61
0
LINE
8
BLACK
6
CONTINUOUS
10
172.466
20
-92.61
11
172.466
21
-92.61
0
LINE
8
BLACK
6
CONTINUOUS
10
172.466
20
-92.61
11
172.466
21
-92.61
0
LINE
8
BLACK
6
CONTINUOUS
10
172.466
20
-92.61
11
172.546
21
-92.61
0
LINE
8
BLACK
6
CONTINUOUS
10
172.546
20
-92.61
11
172.704
21
-92.5822
0
LINE
8
BLACK
6
CONTINUOUS
10
172.704
20
-92.5822
11
172.855
21
-92.5274
0
LINE
8
BLACK
6
CONTINUOUS
10
172.855
20
-92.5274
11
172.993
21
-92.4472
0
LINE
8
BLACK
6
CONTINUOUS
10
172.993
20
-92.4472
11
173.116
21
-92.3442
0
LINE
8
BLACK
6
CONTINUOUS
10
173.116
20
-92.3442
11
173.219
21
-92.2214
0
LINE
8
BLACK
6
CONTINUOUS
10
173.219
20
-92.2214
11
173.299
21
-92.0826
0
LINE
8
BLACK
6
CONTINUOUS
10
173.299
20
-92.0826
11
173.354
21
-91.932
0
LINE
8
BLACK
6
CONTINUOUS
10
173.354
20
-91.932
11
173.382
21
-91.7741
0
LINE
8
BLACK
6
CONTINUOUS
10
173.382
20
-91.7741
11
173.382
21
-91.694
0
LINE
8
BLACK
6
CONTINUOUS
10
173.382
20
-91.694
11
173.382
21
-38.354
0
LINE
8
BLACK
6
CONTINUOUS
10
173.382
20
-38.354
11
173.382
21
-38.354
0
LINE
8
BLACK
6
CONTINUOUS
10
173.382
20
-38.354
11
173.382
21
-38.2794
0
LINE
8
BLACK
6
CONTINUOUS
10
173.382
20
-38.2794
11
173.349
21
-38.134
0
LINE
8
BLACK
6
CONTINUOUS
10
173.349
20
-38.134
11
173.284
21
-37.9996
0
LINE
8
BLACK
6
CONTINUOUS
10
173.284
20
-37.9996
11
173.191
21
-37.8829
0
LINE
8
BLACK
6
CONTINUOUS
10
173.191
20
-37.8829
11
173.074
21
-37.7899
0
LINE
8
BLACK
6
CONTINUOUS
10
173.074
20
-37.7899
11
172.94
21
-37.7252
0
LINE
8
BLACK
6
CONTINUOUS
10
172.94
20
-37.7252
11
172.795
21
-37.692
0
LINE
8
BLACK
6
CONTINUOUS
10
172.795
20
-37.692
11
172.72
21
-37.692
0
LINE
8
BLACK
6
CONTINUOUS
10
172.72
20
-37.692
11
172.72
21
-37.692
0
LINE
8
BLACK
6
CONTINUOUS
10
172.72
20
-37.692
11
172.72
21
-37.692
0
LINE
8
BLACK
6
CONTINUOUS
10
172.72
20
-37.692
11
122.428
21
-37.692
0
LINE
8
BLACK
6
CONTINUOUS
10
122.428
20
-37.692
11
122.425
21
-37.6911
0
LINE
8
BLACK
6
CONTINUOUS
10
122.425
20
-37.6911
11
122.234
21
-37.6744
0
LINE
8
BLACK
6
CONTINUOUS
10
122.234
20
-37.6744
11
122.047
21
-37.6241
0
LINE
8
BLACK
6
CONTINUOUS
10
122.047
20
-37.6241
11
121.87
21
-37.5419
0
LINE
8
BLACK
6
CONTINUOUS
10
121.87
20
-37.5419
11
121.711
21
-37.4304
0
LINE
8
BLACK
6
CONTINUOUS
10
121.711
20
-37.4304
11
121.574
21
-37.2929
0
LINE
8
BLACK
6
CONTINUOUS
10
121.574
20
-37.2929
11
121.462
21
-37.1337
0
LINE
8
BLACK
6
CONTINUOUS
10
121.462
20
-37.1337
11
121.38
21
-36.9575
0
LINE
8
BLACK
6
CONTINUOUS
10
121.38
20
-36.9575
11
121.33
21
-36.7697
0
LINE
8
BLACK
6
CONTINUOUS
10
121.33
20
-36.7697
11
121.313
21
-36.5788
0
LINE
8
BLACK
6
CONTINUOUS
10
121.313
20
-36.5788
11
121.313
21
-36.5782
0
LINE
8
BLACK
6
CONTINUOUS
10
121.313
20
-36.5782
11
121.221
21
-32.373
0
LINE
8
BLACK
6
CONTINUOUS
10
121.221
20
-32.373
11
121.217
21
-32.2857
0
LINE
8
BLACK
6
CONTINUOUS
10
121.217
20
-32.2857
11
121.177
21
-32.1131
0
LINE
8
BLACK
6
CONTINUOUS
10
121.177
20
-32.1131
11
121.103
21
-31.9518
0
LINE
8
BLACK
6
CONTINUOUS
10
121.103
20
-31.9518
11
121
21
-31.8079
0
LINE
8
BLACK
6
CONTINUOUS
10
121
20
-31.8079
11
120.87
21
-31.687
0
LINE
8
BLACK
6
CONTINUOUS
10
120.87
20
-31.687
11
120.719
21
-31.5937
0
LINE
8
BLACK
6
CONTINUOUS
10
120.719
20
-31.5937
11
120.553
21
-31.5316
0
LINE
8
BLACK
6
CONTINUOUS
10
120.553
20
-31.5316
11
120.378
21
-31.5031
0
LINE
8
BLACK
6
CONTINUOUS
10
120.378
20
-31.5031
11
120.29
21
-31.5062
0
LINE
8
BLACK
6
CONTINUOUS
10
120.29
20
-31.5062
11
120.29
21
-31.5062
0
LINE
8
BLACK
6
CONTINUOUS
10
120.29
20
-31.5062
11
101.885
21
-32.149
0
LINE
8
BLACK
6
CONTINUOUS
10
101.885
20
-32.149
11
101.885
21
-32.149
0
LINE
8
BLACK
6
CONTINUOUS
10
101.885
20
-32.149
11
101.885
21
-32.149
0
LINE
8
BLACK
6
CONTINUOUS
10
101.885
20
-32.149
11
101.697
21
-32.1395
0
LINE
8
BLACK
6
CONTINUOUS
10
101.697
20
-32.1395
11
101.514
21
-32.0984
0
LINE
8
BLACK
6
CONTINUOUS
10
101.514
20
-32.0984
11
101.341
21
-32.0268
0
LINE
8
BLACK
6
CONTINUOUS
10
101.341
20
-32.0268
11
101.183
21
-31.9268
0
LINE
8
BLACK
6
CONTINUOUS
10
101.183
20
-31.9268
11
101.043
21
-31.8013
0
LINE
8
BLACK
6
CONTINUOUS
10
101.043
20
-31.8013
11
100.927
21
-31.654
0
LINE
8
BLACK
6
CONTINUOUS
10
100.927
20
-31.654
11
100.838
21
-31.4892
0
LINE
8
BLACK
6
CONTINUOUS
10
100.838
20
-31.4892
11
100.778
21
-31.3116
0
LINE
8
BLACK
6
CONTINUOUS
10
100.778
20
-31.3116
11
100.749
21
-31.1267
0
LINE
8
BLACK
6
CONTINUOUS
10
100.749
20
-31.1267
11
100.749
21
-31.1264
0
LINE
8
BLACK
6
CONTINUOUS
10
100.749
20
-31.1264
11
100.267
21
-24.2363
0
LINE
8
BLACK
6
CONTINUOUS
10
100.267
20
-24.2363
11
100.267
21
-24.2363
0
LINE
8
BLACK
6
CONTINUOUS
10
100.267
20
-24.2363
11
100.267
21
-24.2363
0
LINE
8
BLACK
6
CONTINUOUS
10
100.267
20
-24.2363
11
100.267
21
-24.2363
0
LINE
8
BLACK
6
CONTINUOUS
10
100.267
20
-24.2363
11
100.267
21
-24.2363
0
LINE
8
BLACK
6
CONTINUOUS
10
100.267
20
-24.2363
11
100.261
21
-24.1479
0
LINE
8
BLACK
6
CONTINUOUS
10
100.261
20
-24.1479
11
100.214
21
-23.9769
0
LINE
8
BLACK
6
CONTINUOUS
10
100.214
20
-23.9769
11
100.135
21
-23.8182
0
LINE
8
BLACK
6
CONTINUOUS
10
100.135
20
-23.8182
11
100.027
21
-23.678
0
LINE
8
BLACK
6
CONTINUOUS
10
100.027
20
-23.678
11
99.8928
21
-23.5617
0
LINE
8
BLACK
6
CONTINUOUS
10
99.8928
20
-23.5617
11
99.7389
21
-23.4738
0
LINE
8
BLACK
6
CONTINUOUS
10
99.7389
20
-23.4738
11
99.5708
21
-23.4175
0
LINE
8
BLACK
6
CONTINUOUS
10
99.5708
20
-23.4175
11
99.3949
21
-23.3951
0
LINE
8
BLACK
6
CONTINUOUS
10
99.3949
20
-23.3951
11
99.3065
21
-23.4013
  0
ENDSEC
  0
EOF
