  0
SECTION
  2
HEADER
  9
$ANGBASE
  50
0.0
  9
$ANGDIR
  70
1
  9
$MEASUREMENT
  70
1
  0
ENDSEC
  0
SECTION
  2
TABLES
  0
TABLE
  2
LTYPE
  70
4
  0
LTYPE
  5
40F
  2
CONTINUOUS
  70
0
  3
Solid line
  72
65
  73
0
  40
0.0
  0
LTYPE
  5
410
  2
DASHDOT
 70
0
  3
Dash Dot ____ _ ____ _
 72
65
 73
4
 40
2.0
 49
1.25
 49
-0.25
 49
0.25
 49
-0.25
  0
LTYPE
  5
411
  2
DASHED
 70
0
  3
Dashed __ __ __ __ __
 72
65
 73
2
 40
0.75
 49
0.5
 49
-0.25
  0
LTYPE
  5
43B
  2
DOTTED
 70
0
  3
Dotted .  .  .  .
 72
65
 73
2
 40
0.2
 49
0.0
 49
-0.2
  0
ENDTAB
  0
TABLE
  2
STYLE
  70
4
  0
STYLE
  2
KICAD
  70
0
  40
0
  41
1
  42
1
  50
0
  71
0
  3
isocp.shx
  0
STYLE
  2
KICADB
  70
0
  40
0
  41
1
  42
1
  50
0
  71
0
  3
isocp.shx
  0
STYLE
  2
KICADI
  70
0
  40
0
  41
1
  42
1
  50
15
  71
0
  3
isocp.shx
  0
STYLE
  2
KICADBI
  70
0
  40
0
  41
1
  42
1
  50
15
  71
0
  3
isocp.shx
  0
ENDTAB
  0
TABLE
  2
LAYER
  70
1
  0
LAYER
  2
BLACK
  70
0
  62
7
  6
CONTINUOUS
  0
ENDTAB
  0
ENDSEC
  0
SECTION
  2
ENTITIES
0
LINE
8
BLACK
6
CONTINUOUS
10
101.302
20
-20.4676
11
101.548
21
-20.5116
0
LINE
8
BLACK
6
CONTINUOUS
10
101.548
20
-20.5116
11
101.786
21
-20.5874
0
LINE
8
BLACK
6
CONTINUOUS
10
101.786
20
-20.5874
11
102.011
21
-20.6939
0
LINE
8
BLACK
6
CONTINUOUS
10
102.011
20
-20.6939
11
102.221
21
-20.8291
0
LINE
8
BLACK
6
CONTINUOUS
10
102.221
20
-20.8291
11
102.412
21
-20.9907
0
LINE
8
BLACK
6
CONTINUOUS
10
102.412
20
-20.9907
11
102.579
21
-21.176
0
LINE
8
BLACK
6
CONTINUOUS
10
102.579
20
-21.176
11
102.721
21
-21.3816
0
LINE
8
BLACK
6
CONTINUOUS
10
102.721
20
-21.3816
11
102.834
21
-21.6041
0
LINE
8
BLACK
6
CONTINUOUS
10
102.834
20
-21.6041
11
102.917
21
-21.8395
0
LINE
8
BLACK
6
CONTINUOUS
10
102.917
20
-21.8395
11
102.969
21
-22.0839
0
LINE
8
BLACK
6
CONTINUOUS
10
102.969
20
-22.0839
11
102.969
21
-22.0839
0
LINE
8
BLACK
6
CONTINUOUS
10
102.969
20
-22.0839
11
102.969
21
-22.0874
0
LINE
8
BLACK
6
CONTINUOUS
10
102.969
20
-22.0874
11
102.97
21
-22.09
0
LINE
8
BLACK
6
CONTINUOUS
10
102.97
20
-22.09
11
103.478
21
-28.44
0
LINE
8
BLACK
6
CONTINUOUS
10
103.478
20
-28.44
11
103.477
21
-28.4436
0
LINE
8
BLACK
6
CONTINUOUS
10
103.477
20
-28.4436
11
103.478
21
-28.448
0
LINE
8
BLACK
6
CONTINUOUS
10
103.478
20
-28.448
11
103.478
21
-28.448
0
LINE
8
BLACK
6
CONTINUOUS
10
103.478
20
-28.448
11
103.478
21
-28.5281
0
LINE
8
BLACK
6
CONTINUOUS
10
103.478
20
-28.5281
11
103.506
21
-28.686
0
LINE
8
BLACK
6
CONTINUOUS
10
103.506
20
-28.686
11
103.561
21
-28.8366
0
LINE
8
BLACK
6
CONTINUOUS
10
103.561
20
-28.8366
11
103.641
21
-28.9754
0
LINE
8
BLACK
6
CONTINUOUS
10
103.641
20
-28.9754
11
103.744
21
-29.0982
0
LINE
8
BLACK
6
CONTINUOUS
10
103.744
20
-29.0982
11
103.867
21
-29.2012
0
LINE
8
BLACK
6
CONTINUOUS
10
103.867
20
-29.2012
11
104.005
21
-29.2813
0
LINE
8
BLACK
6
CONTINUOUS
10
104.005
20
-29.2813
11
104.156
21
-29.3361
0
LINE
8
BLACK
6
CONTINUOUS
10
104.156
20
-29.3361
11
104.314
21
-29.3639
0
LINE
8
BLACK
6
CONTINUOUS
10
104.314
20
-29.3639
11
104.393
21
-29.3639
0
LINE
8
BLACK
6
CONTINUOUS
10
104.393
20
-29.3639
11
122.171
21
-28.856
0
LINE
8
BLACK
6
CONTINUOUS
10
122.171
20
-28.856
11
122.172
21
-28.8564
0
LINE
8
BLACK
6
CONTINUOUS
10
122.172
20
-28.8564
11
122.174
21
-28.856
0
LINE
8
BLACK
6
CONTINUOUS
10
122.174
20
-28.856
11
122.405
21
-28.8726
0
LINE
8
BLACK
6
CONTINUOUS
10
122.405
20
-28.8726
11
122.632
21
-28.9218
0
LINE
8
BLACK
6
CONTINUOUS
10
122.632
20
-28.9218
11
122.849
21
-29.0028
0
LINE
8
BLACK
6
CONTINUOUS
10
122.849
20
-29.0028
11
123.052
21
-29.1139
0
LINE
8
BLACK
6
CONTINUOUS
10
123.052
20
-29.1139
11
123.237
21
-29.2527
0
LINE
8
BLACK
6
CONTINUOUS
10
123.237
20
-29.2527
11
123.401
21
-29.4166
0
LINE
8
BLACK
6
CONTINUOUS
10
123.401
20
-29.4166
11
123.54
21
-29.602
0
LINE
8
BLACK
6
CONTINUOUS
10
123.54
20
-29.602
11
123.651
21
-29.8054
0
LINE
8
BLACK
6
CONTINUOUS
10
123.651
20
-29.8054
11
123.732
21
-30.0225
0
LINE
8
BLACK
6
CONTINUOUS
10
123.732
20
-30.0225
11
123.781
21
-30.2489
0
LINE
8
BLACK
6
CONTINUOUS
10
123.781
20
-30.2489
11
123.797
21
-30.4721
0
LINE
8
BLACK
6
CONTINUOUS
10
123.797
20
-30.4721
11
123.798
21
-30.4729
0
LINE
8
BLACK
6
CONTINUOUS
10
123.798
20
-30.4729
11
124.052
21
-34.0288
0
LINE
8
BLACK
6
CONTINUOUS
10
124.052
20
-34.0288
11
124.051
21
-34.032
0
LINE
8
BLACK
6
CONTINUOUS
10
124.051
20
-34.032
11
124.052
21
-34.0359
0
LINE
8
BLACK
6
CONTINUOUS
10
124.052
20
-34.0359
11
124.052
21
-34.0359
0
LINE
8
BLACK
6
CONTINUOUS
10
124.052
20
-34.0359
11
124.052
21
-34.1161
0
LINE
8
BLACK
6
CONTINUOUS
10
124.052
20
-34.1161
11
124.08
21
-34.2739
0
LINE
8
BLACK
6
CONTINUOUS
10
124.08
20
-34.2739
11
124.135
21
-34.4245
0
LINE
8
BLACK
6
CONTINUOUS
10
124.135
20
-34.4245
11
124.215
21
-34.5633
0
LINE
8
BLACK
6
CONTINUOUS
10
124.215
20
-34.5633
11
124.318
21
-34.6861
0
LINE
8
BLACK
6
CONTINUOUS
10
124.318
20
-34.6861
11
124.441
21
-34.7892
0
LINE
8
BLACK
6
CONTINUOUS
10
124.441
20
-34.7892
11
124.58
21
-34.8693
0
LINE
8
BLACK
6
CONTINUOUS
10
124.58
20
-34.8693
11
124.73
21
-34.9241
0
LINE
8
BLACK
6
CONTINUOUS
10
124.73
20
-34.9241
11
124.888
21
-34.9519
0
LINE
8
BLACK
6
CONTINUOUS
10
124.888
20
-34.9519
11
124.968
21
-34.9519
0
LINE
8
BLACK
6
CONTINUOUS
10
124.968
20
-34.9519
11
124.968
21
-34.9519
0
LINE
8
BLACK
6
CONTINUOUS
10
124.968
20
-34.9519
11
124.968
21
-34.9519
0
LINE
8
BLACK
6
CONTINUOUS
10
124.968
20
-34.9519
11
139.7
21
-34.952
0
LINE
8
BLACK
6
CONTINUOUS
10
139.7
20
-34.952
11
139.715
21
-34.9569
0
LINE
8
BLACK
6
CONTINUOUS
10
139.715
20
-34.9569
11
139.731
21
-34.9569
0
LINE
8
BLACK
6
CONTINUOUS
10
139.731
20
-34.9569
11
139.733
21
-34.9586
0
LINE
8
BLACK
6
CONTINUOUS
10
139.733
20
-34.9586
11
139.754
21
-34.952
0
LINE
8
BLACK
6
CONTINUOUS
10
139.754
20
-34.952
11
155.956
21
-34.952
0
LINE
8
BLACK
6
CONTINUOUS
10
155.956
20
-34.952
11
155.956
21
-34.952
0
LINE
8
BLACK
6
CONTINUOUS
10
155.956
20
-34.952
11
155.956
21
-34.952
0
LINE
8
BLACK
6
CONTINUOUS
10
155.956
20
-34.952
11
156.124
21
-34.9686
0
LINE
8
BLACK
6
CONTINUOUS
10
156.124
20
-34.9686
11
156.286
21
-35.0177
0
LINE
8
BLACK
6
CONTINUOUS
10
156.286
20
-35.0177
11
156.435
21
-35.0973
0
LINE
8
BLACK
6
CONTINUOUS
10
156.435
20
-35.0973
11
156.565
21
-35.2045
0
LINE
8
BLACK
6
CONTINUOUS
10
156.565
20
-35.2045
11
156.673
21
-35.3351
0
LINE
8
BLACK
6
CONTINUOUS
10
156.673
20
-35.3351
11
156.752
21
-35.4841
0
LINE
8
BLACK
6
CONTINUOUS
10
156.752
20
-35.4841
11
156.801
21
-35.6458
0
LINE
8
BLACK
6
CONTINUOUS
10
156.801
20
-35.6458
11
156.818
21
-35.814
0
LINE
8
BLACK
6
CONTINUOUS
10
156.818
20
-35.814
11
156.818
21
-35.814
0
LINE
8
BLACK
6
CONTINUOUS
10
156.818
20
-35.814
11
156.818
21
-35.814
0
LINE
8
BLACK
6
CONTINUOUS
10
156.818
20
-35.814
11
156.818
21
-36.83
0
LINE
8
BLACK
6
CONTINUOUS
10
156.818
20
-36.83
11
156.818
21
-36.83
0
LINE
8
BLACK
6
CONTINUOUS
10
156.818
20
-36.83
11
156.818
21
-36.83
0
LINE
8
BLACK
6
CONTINUOUS
10
156.818
20
-36.83
11
156.818
21
-36.9046
0
LINE
8
BLACK
6
CONTINUOUS
10
156.818
20
-36.9046
11
156.851
21
-37.0501
0
LINE
8
BLACK
6
CONTINUOUS
10
156.851
20
-37.0501
11
156.916
21
-37.1845
0
LINE
8
BLACK
6
CONTINUOUS
10
156.916
20
-37.1845
11
157.009
21
-37.3011
0
LINE
8
BLACK
6
CONTINUOUS
10
157.009
20
-37.3011
11
157.126
21
-37.3941
0
LINE
8
BLACK
6
CONTINUOUS
10
157.126
20
-37.3941
11
157.26
21
-37.4588
0
LINE
8
BLACK
6
CONTINUOUS
10
157.26
20
-37.4588
11
157.405
21
-37.492
0
LINE
8
BLACK
6
CONTINUOUS
10
157.405
20
-37.492
11
157.48
21
-37.492
0
LINE
8
BLACK
6
CONTINUOUS
10
157.48
20
-37.492
11
157.48
21
-37.492
0
LINE
8
BLACK
6
CONTINUOUS
10
157.48
20
-37.492
11
157.48
21
-37.492
0
LINE
8
BLACK
6
CONTINUOUS
10
157.48
20
-37.492
11
157.758
21
-37.5103
0
LINE
8
BLACK
6
CONTINUOUS
10
157.758
20
-37.5103
11
158.032
21
-37.5647
0
LINE
8
BLACK
6
CONTINUOUS
10
158.032
20
-37.5647
11
158.296
21
-37.6543
0
LINE
8
BLACK
6
CONTINUOUS
10
158.296
20
-37.6543
11
158.546
21
-37.7777
0
LINE
8
BLACK
6
CONTINUOUS
10
158.546
20
-37.7777
11
158.778
21
-37.9326
0
LINE
8
BLACK
6
CONTINUOUS
10
158.778
20
-37.9326
11
158.988
21
-38.1165
0
LINE
8
BLACK
6
CONTINUOUS
10
158.988
20
-38.1165
11
159.171
21
-38.3261
0
LINE
8
BLACK
6
CONTINUOUS
10
159.171
20
-38.3261
11
159.326
21
-38.558
0
LINE
8
BLACK
6
CONTINUOUS
10
159.326
20
-38.558
11
159.45
21
-38.8081
0
LINE
8
BLACK
6
CONTINUOUS
10
159.45
20
-38.8081
11
159.539
21
-39.0722
0
LINE
8
BLACK
6
CONTINUOUS
10
159.539
20
-39.0722
11
159.594
21
-39.3457
0
LINE
8
BLACK
6
CONTINUOUS
10
159.594
20
-39.3457
11
159.612
21
-39.624
0
LINE
8
BLACK
6
CONTINUOUS
10
159.612
20
-39.624
11
159.612
21
-39.624
0
LINE
8
BLACK
6
CONTINUOUS
10
159.612
20
-39.624
11
159.612
21
-39.624
0
LINE
8
BLACK
6
CONTINUOUS
10
159.612
20
-39.624
11
159.612
21
-46.736
0
LINE
8
BLACK
6
CONTINUOUS
10
159.612
20
-46.736
11
159.612
21
-46.736
0
LINE
8
BLACK
6
CONTINUOUS
10
159.612
20
-46.736
11
159.612
21
-46.736
0
LINE
8
BLACK
6
CONTINUOUS
10
159.612
20
-46.736
11
159.612
21
-46.7898
0
LINE
8
BLACK
6
CONTINUOUS
10
159.612
20
-46.7898
11
159.64
21
-46.8935
0
LINE
8
BLACK
6
CONTINUOUS
10
159.64
20
-46.8935
11
159.693
21
-46.9866
0
LINE
8
BLACK
6
CONTINUOUS
10
159.693
20
-46.9866
11
159.769
21
-47.0625
0
LINE
8
BLACK
6
CONTINUOUS
10
159.769
20
-47.0625
11
159.862
21
-47.1162
0
LINE
8
BLACK
6
CONTINUOUS
10
159.862
20
-47.1162
11
159.966
21
-47.144
0
LINE
8
BLACK
6
CONTINUOUS
10
159.966
20
-47.144
11
160.02
21
-47.144
0
LINE
8
BLACK
6
CONTINUOUS
10
160.02
20
-47.144
11
160.02
21
-47.144
0
LINE
8
BLACK
6
CONTINUOUS
10
160.02
20
-47.144
11
160.02
21
-47.144
0
LINE
8
BLACK
6
CONTINUOUS
10
160.02
20
-47.144
11
170.18
21
-47.144
0
LINE
8
BLACK
6
CONTINUOUS
10
170.18
20
-47.144
11
170.18
21
-47.144
0
LINE
8
BLACK
6
CONTINUOUS
10
170.18
20
-47.144
11
170.18
21
-47.144
0
LINE
8
BLACK
6
CONTINUOUS
10
170.18
20
-47.144
11
170.234
21
-47.144
0
LINE
8
BLACK
6
CONTINUOUS
10
170.234
20
-47.144
11
170.338
21
-47.1162
0
LINE
8
BLACK
6
CONTINUOUS
10
170.338
20
-47.1162
11
170.431
21
-47.0625
0
LINE
8
BLACK
6
CONTINUOUS
10
170.431
20
-47.0625
11
170.507
21
-46.9865
0
LINE
8
BLACK
6
CONTINUOUS
10
170.507
20
-46.9865
11
170.56
21
-46.8935
0
LINE
8
BLACK
6
CONTINUOUS
10
170.56
20
-46.8935
11
170.588
21
-46.7897
0
LINE
8
BLACK
6
CONTINUOUS
10
170.588
20
-46.7897
11
170.588
21
-46.736
0
LINE
8
BLACK
6
CONTINUOUS
10
170.588
20
-46.736
11
170.588
21
-46.736
0
LINE
8
BLACK
6
CONTINUOUS
10
170.588
20
-46.736
11
170.588
21
-46.736
0
LINE
8
BLACK
6
CONTINUOUS
10
170.588
20
-46.736
11
170.588
21
-39.624
0
LINE
8
BLACK
6
CONTINUOUS
10
170.588
20
-39.624
11
170.588
21
-39.624
0
LINE
8
BLACK
6
CONTINUOUS
10
170.588
20
-39.624
11
170.588
21
-39.624
0
LINE
8
BLACK
6
CONTINUOUS
10
170.588
20
-39.624
11
170.606
21
-39.3457
0
LINE
8
BLACK
6
CONTINUOUS
10
170.606
20
-39.3457
11
170.661
21
-39.0722
0
LINE
8
BLACK
6
CONTINUOUS
10
170.661
20
-39.0722
11
170.75
21
-38.8081
0
LINE
8
BLACK
6
CONTINUOUS
10
170.75
20
-38.8081
11
170.874
21
-38.558
0
LINE
8
BLACK
6
CONTINUOUS
10
170.874
20
-38.558
11
171.029
21
-38.3261
0
LINE
8
BLACK
6
CONTINUOUS
10
171.029
20
-38.3261
11
171.212
21
-38.1165
0
LINE
8
BLACK
6
CONTINUOUS
10
171.212
20
-38.1165
11
171.422
21
-37.9326
0
LINE
8
BLACK
6
CONTINUOUS
10
171.422
20
-37.9326
11
171.654
21
-37.7777
0
LINE
8
BLACK
6
CONTINUOUS
10
171.654
20
-37.7777
11
171.904
21
-37.6543
0
LINE
8
BLACK
6
CONTINUOUS
10
171.904
20
-37.6543
11
172.168
21
-37.5647
0
LINE
8
BLACK
6
CONTINUOUS
10
172.168
20
-37.5647
11
172.442
21
-37.5103
0
LINE
8
BLACK
6
CONTINUOUS
10
172.442
20
-37.5103
11
172.72
21
-37.492
0
LINE
8
BLACK
6
CONTINUOUS
10
172.72
20
-37.492
11
172.72
21
-37.492
0
LINE
8
BLACK
6
CONTINUOUS
10
172.72
20
-37.492
11
172.72
21
-37.492
0
LINE
8
BLACK
6
CONTINUOUS
10
172.72
20
-37.492
11
175.26
21
-37.492
0
LINE
8
BLACK
6
CONTINUOUS
10
175.26
20
-37.492
11
175.26
21
-37.492
0
LINE
8
BLACK
6
CONTINUOUS
10
175.26
20
-37.492
11
175.26
21
-37.492
0
LINE
8
BLACK
6
CONTINUOUS
10
175.26
20
-37.492
11
175.428
21
-37.5086
0
LINE
8
BLACK
6
CONTINUOUS
10
175.428
20
-37.5086
11
175.59
21
-37.5577
0
LINE
8
BLACK
6
CONTINUOUS
10
175.59
20
-37.5577
11
175.739
21
-37.6373
0
LINE
8
BLACK
6
CONTINUOUS
10
175.739
20
-37.6373
11
175.869
21
-37.7445
0
LINE
8
BLACK
6
CONTINUOUS
10
175.869
20
-37.7445
11
175.977
21
-37.8751
0
LINE
8
BLACK
6
CONTINUOUS
10
175.977
20
-37.8751
11
176.056
21
-38.0241
0
LINE
8
BLACK
6
CONTINUOUS
10
176.056
20
-38.0241
11
176.105
21
-38.1858
0
LINE
8
BLACK
6
CONTINUOUS
10
176.105
20
-38.1858
11
176.122
21
-38.354
0
LINE
8
BLACK
6
CONTINUOUS
10
176.122
20
-38.354
11
176.122
21
-38.354
0
LINE
8
BLACK
6
CONTINUOUS
10
176.122
20
-38.354
11
176.122
21
-38.354
0
LINE
8
BLACK
6
CONTINUOUS
10
176.122
20
-38.354
11
176.122
21
-108.966
0
LINE
8
BLACK
6
CONTINUOUS
10
176.122
20
-108.966
11
176.122
21
-108.966
0
LINE
8
BLACK
6
CONTINUOUS
10
176.122
20
-108.966
11
176.105
21
-109.134
0
LINE
8
BLACK
6
CONTINUOUS
10
176.105
20
-109.134
11
176.056
21
-109.296
0
LINE
8
BLACK
6
CONTINUOUS
10
176.056
20
-109.296
11
175.977
21
-109.445
0
LINE
8
BLACK
6
CONTINUOUS
10
175.977
20
-109.445
11
175.87
21
-109.576
0
LINE
8
BLACK
6
CONTINUOUS
10
175.87
20
-109.576
11
175.739
21
-109.683
0
LINE
8
BLACK
6
CONTINUOUS
10
175.739
20
-109.683
11
175.59
21
-109.762
0
LINE
8
BLACK
6
CONTINUOUS
10
175.59
20
-109.762
11
175.428
21
-109.811
0
LINE
8
BLACK
6
CONTINUOUS
10
175.428
20
-109.811
11
175.26
21
-109.828
0
LINE
8
BLACK
6
CONTINUOUS
10
175.26
20
-109.828
11
175.26
21
-109.828
0
LINE
8
BLACK
6
CONTINUOUS
10
175.26
20
-109.828
11
175.26
21
-109.828
0
LINE
8
BLACK
6
CONTINUOUS
10
175.26
20
-109.828
11
167.132
21
-109.828
0
LINE
8
BLACK
6
CONTINUOUS
10
167.132
20
-109.828
11
167.057
21
-109.828
0
LINE
8
BLACK
6
CONTINUOUS
10
167.057
20
-109.828
11
166.912
21
-109.861
0
LINE
8
BLACK
6
CONTINUOUS
10
166.912
20
-109.861
11
166.778
21
-109.926
0
LINE
8
BLACK
6
CONTINUOUS
10
166.778
20
-109.926
11
166.661
21
-110.019
0
LINE
8
BLACK
6
CONTINUOUS
10
166.661
20
-110.019
11
166.568
21
-110.136
0
LINE
8
BLACK
6
CONTINUOUS
10
166.568
20
-110.136
11
166.503
21
-110.27
0
LINE
8
BLACK
6
CONTINUOUS
10
166.503
20
-110.27
11
166.47
21
-110.415
0
LINE
8
BLACK
6
CONTINUOUS
10
166.47
20
-110.415
11
166.47
21
-110.49
0
LINE
8
BLACK
6
CONTINUOUS
10
166.47
20
-110.49
11
166.47
21
-117.094
0
LINE
8
BLACK
6
CONTINUOUS
10
166.47
20
-117.094
11
166.47
21
-117.094
0
LINE
8
BLACK
6
CONTINUOUS
10
166.47
20
-117.094
11
166.452
21
-117.354
0
LINE
8
BLACK
6
CONTINUOUS
10
166.452
20
-117.354
11
166.398
21
-117.609
0
LINE
8
BLACK
6
CONTINUOUS
10
166.398
20
-117.609
11
166.309
21
-117.854
0
LINE
8
BLACK
6
CONTINUOUS
10
166.309
20
-117.854
11
166.188
21
-118.085
0
LINE
8
BLACK
6
CONTINUOUS
10
166.188
20
-118.085
11
166.035
21
-118.296
0
LINE
8
BLACK
6
CONTINUOUS
10
166.035
20
-118.296
11
166.024
21
-118.307
0
LINE
8
BLACK
6
CONTINUOUS
10
166.024
20
-118.307
11
171.513
21
-122.858
0
LINE
8
BLACK
6
CONTINUOUS
10
171.513
20
-122.858
11
171.685
21
-122.979
0
LINE
8
BLACK
6
CONTINUOUS
10
171.685
20
-122.979
11
171.849
21
-123.133
0
LINE
8
BLACK
6
CONTINUOUS
10
171.849
20
-123.133
11
171.989
21
-123.308
0
LINE
8
BLACK
6
CONTINUOUS
10
171.989
20
-123.308
11
172.103
21
-123.501
0
LINE
8
BLACK
6
CONTINUOUS
10
172.103
20
-123.501
11
172.189
21
-123.709
0
LINE
8
BLACK
6
CONTINUOUS
10
172.189
20
-123.709
11
172.244
21
-123.926
0
LINE
8
BLACK
6
CONTINUOUS
10
172.244
20
-123.926
11
172.268
21
-124.15
0
LINE
8
BLACK
6
CONTINUOUS
10
172.268
20
-124.15
11
172.26
21
-124.374
0
LINE
8
BLACK
6
CONTINUOUS
10
172.26
20
-124.374
11
172.22
21
-124.595
0
LINE
8
BLACK
6
CONTINUOUS
10
172.22
20
-124.595
11
172.15
21
-124.808
0
LINE
8
BLACK
6
CONTINUOUS
10
172.15
20
-124.808
11
172.05
21
-125.009
0
LINE
8
BLACK
6
CONTINUOUS
10
172.05
20
-125.009
11
171.923
21
-125.194
0
LINE
8
BLACK
6
CONTINUOUS
10
171.923
20
-125.194
11
171.923
21
-125.194
0
LINE
8
BLACK
6
CONTINUOUS
10
171.923
20
-125.194
11
171.921
21
-125.195
0
LINE
8
BLACK
6
CONTINUOUS
10
171.921
20
-125.195
11
171.921
21
-125.196
0
LINE
8
BLACK
6
CONTINUOUS
10
171.921
20
-125.196
11
159.08
21
-140.273
0
LINE
8
BLACK
6
CONTINUOUS
10
159.08
20
-140.273
11
159.08
21
-140.273
0
LINE
8
BLACK
6
CONTINUOUS
10
159.08
20
-140.273
11
158.849
21
-140.533
0
LINE
8
BLACK
6
CONTINUOUS
10
158.849
20
-140.533
11
158.589
21
-140.769
0
LINE
8
BLACK
6
CONTINUOUS
10
158.589
20
-140.769
11
158.307
21
-140.977
0
LINE
8
BLACK
6
CONTINUOUS
10
158.307
20
-140.977
11
158.004
21
-141.154
0
LINE
8
BLACK
6
CONTINUOUS
10
158.004
20
-141.154
11
157.684
21
-141.299
0
LINE
8
BLACK
6
CONTINUOUS
10
157.684
20
-141.299
11
157.351
21
-141.409
0
LINE
8
BLACK
6
CONTINUOUS
10
157.351
20
-141.409
11
157.008
21
-141.484
0
LINE
8
BLACK
6
CONTINUOUS
10
157.008
20
-141.484
11
156.659
21
-141.523
0
LINE
8
BLACK
6
CONTINUOUS
10
156.659
20
-141.523
11
156.308
21
-141.525
0
LINE
8
BLACK
6
CONTINUOUS
10
156.308
20
-141.525
11
155.959
21
-141.491
0
LINE
8
BLACK
6
CONTINUOUS
10
155.959
20
-141.491
11
155.615
21
-141.42
0
LINE
8
BLACK
6
CONTINUOUS
10
155.615
20
-141.42
11
155.281
21
-141.313
0
LINE
8
BLACK
6
CONTINUOUS
10
155.281
20
-141.313
11
154.96
21
-141.172
0
LINE
8
BLACK
6
CONTINUOUS
10
154.96
20
-141.172
11
154.655
21
-140.999
0
LINE
8
BLACK
6
CONTINUOUS
10
154.655
20
-140.999
11
154.37
21
-140.794
0
LINE
8
BLACK
6
CONTINUOUS
10
154.37
20
-140.794
11
154.37
21
-140.794
0
LINE
8
BLACK
6
CONTINUOUS
10
154.37
20
-140.794
11
154.368
21
-140.792
0
LINE
8
BLACK
6
CONTINUOUS
10
154.368
20
-140.792
11
154.367
21
-140.792
0
LINE
8
BLACK
6
CONTINUOUS
10
154.367
20
-140.792
11
146.581
21
-134.083
0
LINE
8
BLACK
6
CONTINUOUS
10
146.581
20
-134.083
11
146.109
21
-133.689
0
LINE
8
BLACK
6
CONTINUOUS
10
146.109
20
-133.689
11
145.139
21
-132.929
0
LINE
8
BLACK
6
CONTINUOUS
10
145.139
20
-132.929
11
144.147
21
-132.199
0
LINE
8
BLACK
6
CONTINUOUS
10
144.147
20
-132.199
11
143.132
21
-131.5
0
LINE
8
BLACK
6
CONTINUOUS
10
143.132
20
-131.5
11
142.097
21
-130.833
0
LINE
8
BLACK
6
CONTINUOUS
10
142.097
20
-130.833
11
141.042
21
-130.198
0
LINE
8
BLACK
6
CONTINUOUS
10
141.042
20
-130.198
11
139.967
21
-129.595
0
LINE
8
BLACK
6
CONTINUOUS
10
139.967
20
-129.595
11
138.875
21
-129.026
0
LINE
8
BLACK
6
CONTINUOUS
10
138.875
20
-129.026
11
137.766
21
-128.491
0
LINE
8
BLACK
6
CONTINUOUS
10
137.766
20
-128.491
11
136.64
21
-127.989
0
LINE
8
BLACK
6
CONTINUOUS
10
136.64
20
-127.989
11
135.5
21
-127.523
0
LINE
8
BLACK
6
CONTINUOUS
10
135.5
20
-127.523
11
134.346
21
-127.092
0
LINE
8
BLACK
6
CONTINUOUS
10
134.346
20
-127.092
11
133.179
21
-126.697
0
LINE
8
BLACK
6
CONTINUOUS
10
133.179
20
-126.697
11
132.001
21
-126.338
0
LINE
8
BLACK
6
CONTINUOUS
10
132.001
20
-126.338
11
130.812
21
-126.015
0
LINE
8
BLACK
6
CONTINUOUS
10
130.812
20
-126.015
11
129.614
21
-125.729
0
LINE
8
BLACK
6
CONTINUOUS
10
129.614
20
-125.729
11
128.408
21
-125.479
0
LINE
8
BLACK
6
CONTINUOUS
10
128.408
20
-125.479
11
127.194
21
-125.267
0
LINE
8
BLACK
6
CONTINUOUS
10
127.194
20
-125.267
11
125.975
21
-125.093
0
LINE
8
BLACK
6
CONTINUOUS
10
125.975
20
-125.093
11
124.751
21
-124.956
0
LINE
8
BLACK
6
CONTINUOUS
10
124.751
20
-124.956
11
123.523
21
-124.856
0
LINE
8
BLACK
6
CONTINUOUS
10
123.523
20
-124.856
11
122.293
21
-124.795
0
LINE
8
BLACK
6
CONTINUOUS
10
122.293
20
-124.795
11
121.061
21
-124.771
0
LINE
8
BLACK
6
CONTINUOUS
10
121.061
20
-124.771
11
119.829
21
-124.785
0
LINE
8
BLACK
6
CONTINUOUS
10
119.829
20
-124.785
11
118.598
21
-124.837
0
LINE
8
BLACK
6
CONTINUOUS
10
118.598
20
-124.837
11
117.37
21
-124.927
0
LINE
8
BLACK
6
CONTINUOUS
10
117.37
20
-124.927
11
116.145
21
-125.054
0
LINE
8
BLACK
6
CONTINUOUS
10
116.145
20
-125.054
11
114.924
21
-125.219
0
LINE
8
BLACK
6
CONTINUOUS
10
114.924
20
-125.219
11
114.317
21
-125.32
0
LINE
8
BLACK
6
CONTINUOUS
10
114.317
20
-125.32
11
102.126
21
-127.606
0
LINE
8
BLACK
6
CONTINUOUS
10
102.126
20
-127.606
11
102.123
21
-127.606
0
LINE
8
BLACK
6
CONTINUOUS
10
102.123
20
-127.606
11
102.119
21
-127.607
0
LINE
8
BLACK
6
CONTINUOUS
10
102.119
20
-127.607
11
101.392
21
-127.674
0
LINE
8
BLACK
6
CONTINUOUS
10
101.392
20
-127.674
11
100.663
21
-127.711
0
LINE
8
BLACK
6
CONTINUOUS
10
100.663
20
-127.711
11
99.9333
21
-127.72
0
LINE
8
BLACK
6
CONTINUOUS
10
99.9333
20
-127.72
11
99.2036
21
-127.7
0
LINE
8
BLACK
6
CONTINUOUS
10
99.2036
20
-127.7
11
98.4753
21
-127.651
0
LINE
8
BLACK
6
CONTINUOUS
10
98.4753
20
-127.651
11
97.7495
21
-127.574
0
LINE
8
BLACK
6
CONTINUOUS
10
97.7495
20
-127.574
11
97.7495
21
-127.574
0
LINE
8
BLACK
6
CONTINUOUS
10
97.7495
20
-127.574
11
97.7477
21
-127.573
0
LINE
8
BLACK
6
CONTINUOUS
10
97.7477
20
-127.573
11
97.7462
21
-127.573
0
LINE
8
BLACK
6
CONTINUOUS
10
97.7462
20
-127.573
11
26.7033
21
-116.183
0
LINE
8
BLACK
6
CONTINUOUS
10
26.7033
20
-116.183
11
26.703
21
-116.183
0
LINE
8
BLACK
6
CONTINUOUS
10
26.703
20
-116.183
11
26.3722
21
-116.12
0
LINE
8
BLACK
6
CONTINUOUS
10
26.3722
20
-116.12
11
26.0469
21
-116.025
0
LINE
8
BLACK
6
CONTINUOUS
10
26.0469
20
-116.025
11
25.7325
21
-115.898
0
LINE
8
BLACK
6
CONTINUOUS
10
25.7325
20
-115.898
11
25.4322
21
-115.74
0
LINE
8
BLACK
6
CONTINUOUS
10
25.4322
20
-115.74
11
25.1489
21
-115.554
0
LINE
8
BLACK
6
CONTINUOUS
10
25.1489
20
-115.554
11
24.8853
21
-115.341
0
LINE
8
BLACK
6
CONTINUOUS
10
24.8853
20
-115.341
11
24.6439
21
-115.103
0
LINE
8
BLACK
6
CONTINUOUS
10
24.6439
20
-115.103
11
24.4272
21
-114.842
0
LINE
8
BLACK
6
CONTINUOUS
10
24.4272
20
-114.842
11
24.2372
21
-114.561
0
LINE
8
BLACK
6
CONTINUOUS
10
24.2372
20
-114.561
11
24.0758
21
-114.263
0
LINE
8
BLACK
6
CONTINUOUS
10
24.0758
20
-114.263
11
23.9445
21
-113.95
0
LINE
8
BLACK
6
CONTINUOUS
10
23.9445
20
-113.95
11
23.8446
21
-113.626
0
LINE
8
BLACK
6
CONTINUOUS
10
23.8446
20
-113.626
11
23.7778
21
-113.297
0
LINE
8
BLACK
6
CONTINUOUS
10
23.7778
20
-113.297
11
23.7776
21
-113.297
0
LINE
8
BLACK
6
CONTINUOUS
10
23.7776
20
-113.297
11
15.9036
21
-70.1219
0
LINE
8
BLACK
6
CONTINUOUS
10
15.9036
20
-70.1219
11
15.9037
21
-70.1214
0
LINE
8
BLACK
6
CONTINUOUS
10
15.9037
20
-70.1214
11
15.8564
21
-69.8677
0
LINE
8
BLACK
6
CONTINUOUS
10
15.8564
20
-69.8677
11
15.8395
21
-69.6033
0
LINE
8
BLACK
6
CONTINUOUS
10
15.8395
20
-69.6033
11
15.8546
21
-69.3387
0
LINE
8
BLACK
6
CONTINUOUS
10
15.8546
20
-69.3387
11
15.9015
21
-69.0779
0
LINE
8
BLACK
6
CONTINUOUS
10
15.9015
20
-69.0779
11
15.9795
21
-68.8246
0
LINE
8
BLACK
6
CONTINUOUS
10
15.9795
20
-68.8246
11
16.0875
21
-68.5826
0
LINE
8
BLACK
6
CONTINUOUS
10
16.0875
20
-68.5826
11
16.2238
21
-68.3554
0
LINE
8
BLACK
6
CONTINUOUS
10
16.2238
20
-68.3554
11
16.3866
21
-68.1462
0
LINE
8
BLACK
6
CONTINUOUS
10
16.3866
20
-68.1462
11
16.5733
21
-67.9582
0
LINE
8
BLACK
6
CONTINUOUS
10
16.5733
20
-67.9582
11
16.7814
21
-67.7941
0
LINE
8
BLACK
6
CONTINUOUS
10
16.7814
20
-67.7941
11
17.0077
21
-67.6562
0
LINE
8
BLACK
6
CONTINUOUS
10
17.0077
20
-67.6562
11
17.249
21
-67.5467
0
LINE
8
BLACK
6
CONTINUOUS
10
17.249
20
-67.5467
11
17.5017
21
-67.467
0
LINE
8
BLACK
6
CONTINUOUS
10
17.5017
20
-67.467
11
17.5017
21
-67.467
0
LINE
8
BLACK
6
CONTINUOUS
10
17.5017
20
-67.467
11
17.5053
21
-67.467
0
LINE
8
BLACK
6
CONTINUOUS
10
17.5053
20
-67.467
11
17.5079
21
-67.4656
0
LINE
8
BLACK
6
CONTINUOUS
10
17.5079
20
-67.4656
11
34.2613
21
-64.3879
0
LINE
8
BLACK
6
CONTINUOUS
10
34.2613
20
-64.3879
11
34.3426
21
-64.3676
0
LINE
8
BLACK
6
CONTINUOUS
10
34.3426
20
-64.3676
11
34.5004
21
-64.2944
0
LINE
8
BLACK
6
CONTINUOUS
10
34.5004
20
-64.2944
11
34.6417
21
-64.1927
0
LINE
8
BLACK
6
CONTINUOUS
10
34.6417
20
-64.1927
11
34.7613
21
-64.0663
0
LINE
8
BLACK
6
CONTINUOUS
10
34.7613
20
-64.0663
11
34.8549
21
-63.9196
0
LINE
8
BLACK
6
CONTINUOUS
10
34.8549
20
-63.9196
11
34.9193
21
-63.7579
0
LINE
8
BLACK
6
CONTINUOUS
10
34.9193
20
-63.7579
11
34.952
21
-63.587
0
LINE
8
BLACK
6
CONTINUOUS
10
34.952
20
-63.587
11
34.952
21
-63.5058
0
LINE
8
BLACK
6
CONTINUOUS
10
34.952
20
-63.5058
11
34.1907
21
-56.9075
0
LINE
8
BLACK
6
CONTINUOUS
10
34.1907
20
-56.9075
11
34.1907
21
-56.9072
0
LINE
8
BLACK
6
CONTINUOUS
10
34.1907
20
-56.9072
11
34.1742
21
-56.6301
0
LINE
8
BLACK
6
CONTINUOUS
10
34.1742
20
-56.6301
11
34.1939
21
-56.352
0
LINE
8
BLACK
6
CONTINUOUS
10
34.1939
20
-56.352
11
34.2494
21
-56.0788
0
LINE
8
BLACK
6
CONTINUOUS
10
34.2494
20
-56.0788
11
34.3398
21
-55.815
0
LINE
8
BLACK
6
CONTINUOUS
10
34.3398
20
-55.815
11
34.4636
21
-55.5652
0
LINE
8
BLACK
6
CONTINUOUS
10
34.4636
20
-55.5652
11
34.6187
21
-55.3336
0
LINE
8
BLACK
6
CONTINUOUS
10
34.6187
20
-55.3336
11
34.8026
21
-55.124
0
LINE
8
BLACK
6
CONTINUOUS
10
34.8026
20
-55.124
11
35.012
21
-54.9399
0
LINE
8
BLACK
6
CONTINUOUS
10
35.012
20
-54.9399
11
35.2435
21
-54.7846
0
LINE
8
BLACK
6
CONTINUOUS
10
35.2435
20
-54.7846
11
35.4932
21
-54.6605
0
LINE
8
BLACK
6
CONTINUOUS
10
35.4932
20
-54.6605
11
35.7569
21
-54.5699
0
LINE
8
BLACK
6
CONTINUOUS
10
35.7569
20
-54.5699
11
35.7569
21
-54.5699
0
LINE
8
BLACK
6
CONTINUOUS
10
35.7569
20
-54.5699
11
35.7635
21
-54.5698
0
LINE
8
BLACK
6
CONTINUOUS
10
35.7635
20
-54.5698
11
35.7683
21
-54.5675
0
LINE
8
BLACK
6
CONTINUOUS
10
35.7683
20
-54.5675
11
52.5242
21
-52.0425
0
LINE
8
BLACK
6
CONTINUOUS
10
52.5242
20
-52.0425
11
52.6069
21
-52.0258
0
LINE
8
BLACK
6
CONTINUOUS
10
52.6069
20
-52.0258
11
52.7688
21
-51.9632
0
LINE
8
BLACK
6
CONTINUOUS
10
52.7688
20
-51.9632
11
52.9176
21
-51.8739
0
LINE
8
BLACK
6
CONTINUOUS
10
52.9176
20
-51.8739
11
53.0489
21
-51.7604
0
LINE
8
BLACK
6
CONTINUOUS
10
53.0489
20
-51.7604
11
53.159
21
-51.6262
0
LINE
8
BLACK
6
CONTINUOUS
10
53.159
20
-51.6262
11
53.2445
21
-51.4751
0
LINE
8
BLACK
6
CONTINUOUS
10
53.2445
20
-51.4751
11
53.3029
21
-51.3117
0
LINE
8
BLACK
6
CONTINUOUS
10
53.3029
20
-51.3117
11
53.3325
21
-51.1407
0
LINE
8
BLACK
6
CONTINUOUS
10
53.3325
20
-51.1407
11
53.3326
21
-51.0592
0
LINE
8
BLACK
6
CONTINUOUS
10
53.3326
20
-51.0592
11
51.9706
21
-38.3646
0
LINE
8
BLACK
6
CONTINUOUS
10
51.9706
20
-38.3646
11
51.9706
21
-38.3645
0
LINE
8
BLACK
6
CONTINUOUS
10
51.9706
20
-38.3645
11
51.9561
21
-38.076
0
LINE
8
BLACK
6
CONTINUOUS
10
51.9561
20
-38.076
11
51.9764
21
-37.7875
0
LINE
8
BLACK
6
CONTINUOUS
10
51.9764
20
-37.7875
11
52.0313
21
-37.5034
0
LINE
8
BLACK
6
CONTINUOUS
10
52.0313
20
-37.5034
11
52.1199
21
-37.2281
0
LINE
8
BLACK
6
CONTINUOUS
10
52.1199
20
-37.2281
11
52.2411
21
-36.9653
0
LINE
8
BLACK
6
CONTINUOUS
10
52.2411
20
-36.9653
11
52.393
21
-36.7191
0
LINE
8
BLACK
6
CONTINUOUS
10
52.393
20
-36.7191
11
52.5734
21
-36.493
0
LINE
8
BLACK
6
CONTINUOUS
10
52.5734
20
-36.493
11
52.7797
21
-36.2902
0
LINE
8
BLACK
6
CONTINUOUS
10
52.7797
20
-36.2902
11
53.0089
21
-36.1137
0
LINE
8
BLACK
6
CONTINUOUS
10
53.0089
20
-36.1137
11
53.2577
21
-35.966
0
LINE
8
BLACK
6
CONTINUOUS
10
53.2577
20
-35.966
11
53.5224
21
-35.8494
0
LINE
8
BLACK
6
CONTINUOUS
10
53.5224
20
-35.8494
11
53.7993
21
-35.7654
0
LINE
8
BLACK
6
CONTINUOUS
10
53.7993
20
-35.7654
11
53.7993
21
-35.7654
0
LINE
8
BLACK
6
CONTINUOUS
10
53.7993
20
-35.7654
11
53.8068
21
-35.7656
0
LINE
8
BLACK
6
CONTINUOUS
10
53.8068
20
-35.7656
11
53.8123
21
-35.7632
0
LINE
8
BLACK
6
CONTINUOUS
10
53.8123
20
-35.7632
11
71.6107
21
-33.9372
0
LINE
8
BLACK
6
CONTINUOUS
10
71.6107
20
-33.9372
11
71.6911
21
-33.9172
0
LINE
8
BLACK
6
CONTINUOUS
10
71.6911
20
-33.9172
11
71.8543
21
-33.8415
0
LINE
8
BLACK
6
CONTINUOUS
10
71.8543
20
-33.8415
11
72.0004
21
-33.7363
0
LINE
8
BLACK
6
CONTINUOUS
10
72.0004
20
-33.7363
11
72.1241
21
-33.6056
0
LINE
8
BLACK
6
CONTINUOUS
10
72.1241
20
-33.6056
11
72.2209
21
-33.4539
0
LINE
8
BLACK
6
CONTINUOUS
10
72.2209
20
-33.4539
11
72.2874
21
-33.2867
0
LINE
8
BLACK
6
CONTINUOUS
10
72.2874
20
-33.2867
11
72.3213
21
-33.1099
0
LINE
8
BLACK
6
CONTINUOUS
10
72.3213
20
-33.1099
11
72.3213
21
-33.0232
0
LINE
8
BLACK
6
CONTINUOUS
10
72.3213
20
-33.0232
11
71.7822
21
-24.6444
0
LINE
8
BLACK
6
CONTINUOUS
10
71.7822
20
-24.6444
11
71.7829
21
-24.6415
0
LINE
8
BLACK
6
CONTINUOUS
10
71.7829
20
-24.6415
11
71.782
21
-24.638
0
LINE
8
BLACK
6
CONTINUOUS
10
71.782
20
-24.638
11
71.8002
21
-24.36
0
LINE
8
BLACK
6
CONTINUOUS
10
71.8002
20
-24.36
11
71.8545
21
-24.0868
0
LINE
8
BLACK
6
CONTINUOUS
10
71.8545
20
-24.0868
11
71.9439
21
-23.823
0
LINE
8
BLACK
6
CONTINUOUS
10
71.9439
20
-23.823
11
72.067
21
-23.5731
0
LINE
8
BLACK
6
CONTINUOUS
10
72.067
20
-23.5731
11
72.2216
21
-23.3414
0
LINE
8
BLACK
6
CONTINUOUS
10
72.2216
20
-23.3414
11
72.4051
21
-23.1318
0
LINE
8
BLACK
6
CONTINUOUS
10
72.4051
20
-23.1318
11
72.6143
21
-22.9479
0
LINE
8
BLACK
6
CONTINUOUS
10
72.6143
20
-22.9479
11
72.8458
21
-22.7929
0
LINE
8
BLACK
6
CONTINUOUS
10
72.8458
20
-22.7929
11
73.0955
21
-22.6694
0
LINE
8
BLACK
6
CONTINUOUS
10
73.0955
20
-22.6694
11
73.3591
21
-22.5795
0
LINE
8
BLACK
6
CONTINUOUS
10
73.3591
20
-22.5795
11
73.6322
21
-22.5247
0
LINE
8
BLACK
6
CONTINUOUS
10
73.6322
20
-22.5247
11
73.6355
21
-22.5251
0
LINE
8
BLACK
6
CONTINUOUS
10
73.6355
20
-22.5251
11
73.6379
21
-22.5241
0
LINE
8
BLACK
6
CONTINUOUS
10
73.6379
20
-22.5241
11
100.811
21
-20.4771
0
LINE
8
BLACK
6
CONTINUOUS
10
100.811
20
-20.4771
11
100.812
21
-20.4773
0
LINE
8
BLACK
6
CONTINUOUS
10
100.812
20
-20.4773
11
101.052
21
-20.4564
0
LINE
8
BLACK
6
CONTINUOUS
10
101.052
20
-20.4564
11
101.302
21
-20.4676
0
LINE
8
BLACK
6
CONTINUOUS
10
100.955
20
-20.6572
11
100.834
21
-20.6757
0
LINE
8
BLACK
6
CONTINUOUS
10
100.834
20
-20.6757
11
100.834
21
-20.6757
0
LINE
8
BLACK
6
CONTINUOUS
10
100.834
20
-20.6757
11
100.83
21
-20.6752
0
LINE
8
BLACK
6
CONTINUOUS
10
100.83
20
-20.6752
11
100.826
21
-20.6766
0
LINE
8
BLACK
6
CONTINUOUS
10
100.826
20
-20.6766
11
73.6558
21
-22.7233
0
LINE
8
BLACK
6
CONTINUOUS
10
73.6558
20
-22.7233
11
73.5333
21
-22.7397
0
LINE
8
BLACK
6
CONTINUOUS
10
73.5333
20
-22.7397
11
73.289
21
-22.8055
0
LINE
8
BLACK
6
CONTINUOUS
10
73.289
20
-22.8055
11
73.0555
21
-22.9026
0
LINE
8
BLACK
6
CONTINUOUS
10
73.0555
20
-22.9026
11
72.8365
21
-23.0294
0
LINE
8
BLACK
6
CONTINUOUS
10
72.8365
20
-23.0294
11
72.636
21
-23.1836
0
LINE
8
BLACK
6
CONTINUOUS
10
72.636
20
-23.1836
11
72.4573
21
-23.3626
0
LINE
8
BLACK
6
CONTINUOUS
10
72.4573
20
-23.3626
11
72.3034
21
-23.5634
0
LINE
8
BLACK
6
CONTINUOUS
10
72.3034
20
-23.5634
11
72.1771
21
-23.7826
0
LINE
8
BLACK
6
CONTINUOUS
10
72.1771
20
-23.7826
11
72.0804
21
-24.0163
0
LINE
8
BLACK
6
CONTINUOUS
10
72.0804
20
-24.0163
11
72.015
21
-24.2607
0
LINE
8
BLACK
6
CONTINUOUS
10
72.015
20
-24.2607
11
71.982
21
-24.5115
0
LINE
8
BLACK
6
CONTINUOUS
10
71.982
20
-24.5115
11
71.982
21
-24.6348
0
LINE
8
BLACK
6
CONTINUOUS
10
71.982
20
-24.6348
11
72.5211
21
-33.0135
0
LINE
8
BLACK
6
CONTINUOUS
10
72.5211
20
-33.0135
11
72.5203
21
-33.0164
0
LINE
8
BLACK
6
CONTINUOUS
10
72.5203
20
-33.0164
11
72.5213
21
-33.0199
0
LINE
8
BLACK
6
CONTINUOUS
10
72.5213
20
-33.0199
11
72.5056
21
-33.2092
0
LINE
8
BLACK
6
CONTINUOUS
10
72.5056
20
-33.2092
11
72.4588
21
-33.3933
0
LINE
8
BLACK
6
CONTINUOUS
10
72.4588
20
-33.3933
11
72.3824
21
-33.5671
0
LINE
8
BLACK
6
CONTINUOUS
10
72.3824
20
-33.5671
11
72.2783
21
-33.726
0
LINE
8
BLACK
6
CONTINUOUS
10
72.2783
20
-33.726
11
72.1494
21
-33.8655
0
LINE
8
BLACK
6
CONTINUOUS
10
72.1494
20
-33.8655
11
71.9993
21
-33.9819
0
LINE
8
BLACK
6
CONTINUOUS
10
71.9993
20
-33.9819
11
71.8321
21
-34.0719
0
LINE
8
BLACK
6
CONTINUOUS
10
71.8321
20
-34.0719
11
71.6523
21
-34.133
0
LINE
8
BLACK
6
CONTINUOUS
10
71.6523
20
-34.133
11
71.6523
21
-34.133
0
LINE
8
BLACK
6
CONTINUOUS
10
71.6523
20
-34.133
11
71.6441
21
-34.1329
0
LINE
8
BLACK
6
CONTINUOUS
10
71.6441
20
-34.1329
11
71.6382
21
-34.1355
0
LINE
8
BLACK
6
CONTINUOUS
10
71.6382
20
-34.1355
11
53.8392
21
-35.9615
0
LINE
8
BLACK
6
CONTINUOUS
10
53.8392
20
-35.9615
11
53.7164
21
-35.9908
0
LINE
8
BLACK
6
CONTINUOUS
10
53.7164
20
-35.9908
11
53.4673
21
-36.083
0
LINE
8
BLACK
6
CONTINUOUS
10
53.4673
20
-36.083
11
53.2311
21
-36.2046
0
LINE
8
BLACK
6
CONTINUOUS
10
53.2311
20
-36.2046
11
53.0112
21
-36.3537
0
LINE
8
BLACK
6
CONTINUOUS
10
53.0112
20
-36.3537
11
52.8109
21
-36.5282
0
LINE
8
BLACK
6
CONTINUOUS
10
52.8109
20
-36.5282
11
52.633
21
-36.7255
0
LINE
8
BLACK
6
CONTINUOUS
10
52.633
20
-36.7255
11
52.4801
21
-36.9428
0
LINE
8
BLACK
6
CONTINUOUS
10
52.4801
20
-36.9428
11
52.3545
21
-37.1769
0
LINE
8
BLACK
6
CONTINUOUS
10
52.3545
20
-37.1769
11
52.258
21
-37.4245
0
LINE
8
BLACK
6
CONTINUOUS
10
52.258
20
-37.4245
11
52.192
21
-37.6818
0
LINE
8
BLACK
6
CONTINUOUS
10
52.192
20
-37.6818
11
52.1574
21
-37.9452
0
LINE
8
BLACK
6
CONTINUOUS
10
52.1574
20
-37.9452
11
52.1547
21
-38.2109
0
LINE
8
BLACK
6
CONTINUOUS
10
52.1547
20
-38.2109
11
52.1694
21
-38.3429
0
LINE
8
BLACK
6
CONTINUOUS
10
52.1694
20
-38.3429
11
52.1694
21
-38.3431
0
LINE
8
BLACK
6
CONTINUOUS
10
52.1694
20
-38.3431
11
52.1694
21
-38.3433
0
LINE
8
BLACK
6
CONTINUOUS
10
52.1694
20
-38.3433
11
53.532
21
-51.0433
0
LINE
8
BLACK
6
CONTINUOUS
10
53.532
20
-51.0433
11
53.531
21
-51.0481
0
LINE
8
BLACK
6
CONTINUOUS
10
53.531
20
-51.0481
11
53.5326
21
-51.0539
0
LINE
8
BLACK
6
CONTINUOUS
10
53.5326
20
-51.0539
11
53.5186
21
-51.2377
0
LINE
8
BLACK
6
CONTINUOUS
10
53.5186
20
-51.2377
11
53.4768
21
-51.4171
0
LINE
8
BLACK
6
CONTINUOUS
10
53.4768
20
-51.4171
11
53.4082
21
-51.5881
0
LINE
8
BLACK
6
CONTINUOUS
10
53.4082
20
-51.5881
11
53.3144
21
-51.7467
0
LINE
8
BLACK
6
CONTINUOUS
10
53.3144
20
-51.7467
11
53.1976
21
-51.8892
0
LINE
8
BLACK
6
CONTINUOUS
10
53.1976
20
-51.8892
11
53.0604
21
-52.0122
0
LINE
8
BLACK
6
CONTINUOUS
10
53.0604
20
-52.0122
11
52.9062
21
-52.113
0
LINE
8
BLACK
6
CONTINUOUS
10
52.9062
20
-52.113
11
52.7385
21
-52.1892
0
LINE
8
BLACK
6
CONTINUOUS
10
52.7385
20
-52.1892
11
52.5611
21
-52.239
0
LINE
8
BLACK
6
CONTINUOUS
10
52.5611
20
-52.239
11
52.5611
21
-52.239
0
LINE
8
BLACK
6
CONTINUOUS
10
52.5611
20
-52.239
11
52.5584
21
-52.2389
0
LINE
8
BLACK
6
CONTINUOUS
10
52.5584
20
-52.2389
11
52.5564
21
-52.2399
0
LINE
8
BLACK
6
CONTINUOUS
10
52.5564
20
-52.2399
11
35.8039
21
-54.7644
0
LINE
8
BLACK
6
CONTINUOUS
10
35.8039
20
-54.7644
11
35.6873
21
-54.7961
0
LINE
8
BLACK
6
CONTINUOUS
10
35.6873
20
-54.7961
11
35.4535
21
-54.8939
0
LINE
8
BLACK
6
CONTINUOUS
10
35.4535
20
-54.8939
11
35.2344
21
-55.0211
0
LINE
8
BLACK
6
CONTINUOUS
10
35.2344
20
-55.0211
11
35.0336
21
-55.1757
0
LINE
8
BLACK
6
CONTINUOUS
10
35.0336
20
-55.1757
11
34.8545
21
-55.3549
0
LINE
8
BLACK
6
CONTINUOUS
10
34.8545
20
-55.3549
11
34.7001
21
-55.5558
0
LINE
8
BLACK
6
CONTINUOUS
10
34.7001
20
-55.5558
11
34.5731
21
-55.7751
0
LINE
8
BLACK
6
CONTINUOUS
10
34.5731
20
-55.7751
11
34.4755
21
-56.0089
0
LINE
8
BLACK
6
CONTINUOUS
10
34.4755
20
-56.0089
11
34.4091
21
-56.2534
0
LINE
8
BLACK
6
CONTINUOUS
10
34.4091
20
-56.2534
11
34.3749
21
-56.5045
0
LINE
8
BLACK
6
CONTINUOUS
10
34.3749
20
-56.5045
11
34.3735
21
-56.7579
0
LINE
8
BLACK
6
CONTINUOUS
10
34.3735
20
-56.7579
11
34.3892
21
-56.8836
0
LINE
8
BLACK
6
CONTINUOUS
10
34.3892
20
-56.8836
11
34.3892
21
-56.8841
0
LINE
8
BLACK
6
CONTINUOUS
10
34.3892
20
-56.8841
11
34.3893
21
-56.8845
0
LINE
8
BLACK
6
CONTINUOUS
10
34.3893
20
-56.8845
11
35.1513
21
-63.4885
0
LINE
8
BLACK
6
CONTINUOUS
10
35.1513
20
-63.4885
11
35.1503
21
-63.4937
0
LINE
8
BLACK
6
CONTINUOUS
10
35.1503
20
-63.4937
11
35.152
21
-63.5
0
LINE
8
BLACK
6
CONTINUOUS
10
35.152
20
-63.5
11
35.1367
21
-63.6841
0
LINE
8
BLACK
6
CONTINUOUS
10
35.1367
20
-63.6841
11
35.0913
21
-63.8632
0
LINE
8
BLACK
6
CONTINUOUS
10
35.0913
20
-63.8632
11
35.0169
21
-64.0323
0
LINE
8
BLACK
6
CONTINUOUS
10
35.0169
20
-64.0323
11
34.9156
21
-64.1868
0
LINE
8
BLACK
6
CONTINUOUS
10
34.9156
20
-64.1868
11
34.7903
21
-64.3225
0
LINE
8
BLACK
6
CONTINUOUS
10
34.7903
20
-64.3225
11
34.6443
21
-64.4357
0
LINE
8
BLACK
6
CONTINUOUS
10
34.6443
20
-64.4357
11
34.4816
21
-64.5232
0
LINE
8
BLACK
6
CONTINUOUS
10
34.4816
20
-64.5232
11
34.3067
21
-64.5827
0
LINE
8
BLACK
6
CONTINUOUS
10
34.3067
20
-64.5827
11
34.3031
21
-64.5826
0
LINE
8
BLACK
6
CONTINUOUS
10
34.3031
20
-64.5826
11
34.3005
21
-64.584
0
LINE
8
BLACK
6
CONTINUOUS
10
34.3005
20
-64.584
11
17.5472
21
-67.6618
0
LINE
8
BLACK
6
CONTINUOUS
10
17.5472
20
-67.6618
11
17.4234
21
-67.6927
0
LINE
8
BLACK
6
CONTINUOUS
10
17.4234
20
-67.6927
11
17.1802
21
-67.7887
0
LINE
8
BLACK
6
CONTINUOUS
10
17.1802
20
-67.7887
11
16.9516
21
-67.9156
0
LINE
8
BLACK
6
CONTINUOUS
10
16.9516
20
-67.9156
11
16.7416
21
-68.0713
0
LINE
8
BLACK
6
CONTINUOUS
10
16.7416
20
-68.0713
11
16.5536
21
-68.253
0
LINE
8
BLACK
6
CONTINUOUS
10
16.5536
20
-68.253
11
16.391
21
-68.4577
0
LINE
8
BLACK
6
CONTINUOUS
10
16.391
20
-68.4577
11
16.2565
21
-68.6819
0
LINE
8
BLACK
6
CONTINUOUS
10
16.2565
20
-68.6819
11
16.1523
21
-68.9218
0
LINE
8
BLACK
6
CONTINUOUS
10
16.1523
20
-68.9218
11
16.0804
21
-69.1731
0
LINE
8
BLACK
6
CONTINUOUS
10
16.0804
20
-69.1731
11
16.042
21
-69.4317
0
LINE
8
BLACK
6
CONTINUOUS
10
16.042
20
-69.4317
11
16.0376
21
-69.6932
0
LINE
8
BLACK
6
CONTINUOUS
10
16.0376
20
-69.6932
11
16.0673
21
-69.9529
0
LINE
8
BLACK
6
CONTINUOUS
10
16.0673
20
-69.9529
11
16.099
21
-70.0797
0
LINE
8
BLACK
6
CONTINUOUS
10
16.099
20
-70.0797
11
16.099
21
-70.0797
0
LINE
8
BLACK
6
CONTINUOUS
10
16.099
20
-70.0797
11
16.099
21
-70.0834
0
LINE
8
BLACK
6
CONTINUOUS
10
16.099
20
-70.0834
11
16.1004
21
-70.0861
0
LINE
8
BLACK
6
CONTINUOUS
10
16.1004
20
-70.0861
11
23.9744
21
-113.261
0
LINE
8
BLACK
6
CONTINUOUS
10
23.9744
20
-113.261
11
23.9742
21
-113.262
0
LINE
8
BLACK
6
CONTINUOUS
10
23.9742
20
-113.262
11
23.9749
21
-113.264
0
LINE
8
BLACK
6
CONTINUOUS
10
23.9749
20
-113.264
11
23.9749
21
-113.264
0
LINE
8
BLACK
6
CONTINUOUS
10
23.9749
20
-113.264
11
23.999
21
-113.422
0
LINE
8
BLACK
6
CONTINUOUS
10
23.999
20
-113.422
11
24.078
21
-113.732
0
LINE
8
BLACK
6
CONTINUOUS
10
24.078
20
-113.732
11
24.1871
21
-114.032
0
LINE
8
BLACK
6
CONTINUOUS
10
24.1871
20
-114.032
11
24.3253
21
-114.321
0
LINE
8
BLACK
6
CONTINUOUS
10
24.3253
20
-114.321
11
24.4912
21
-114.594
0
LINE
8
BLACK
6
CONTINUOUS
10
24.4912
20
-114.594
11
24.6832
21
-114.85
0
LINE
8
BLACK
6
CONTINUOUS
10
24.6832
20
-114.85
11
24.8994
21
-115.085
0
LINE
8
BLACK
6
CONTINUOUS
10
24.8994
20
-115.085
11
25.1378
21
-115.298
0
LINE
8
BLACK
6
CONTINUOUS
10
25.1378
20
-115.298
11
25.396
21
-115.487
0
LINE
8
BLACK
6
CONTINUOUS
10
25.396
20
-115.487
11
25.6715
21
-115.649
0
LINE
8
BLACK
6
CONTINUOUS
10
25.6715
20
-115.649
11
25.9617
21
-115.783
0
LINE
8
BLACK
6
CONTINUOUS
10
25.9617
20
-115.783
11
26.2636
21
-115.888
0
LINE
8
BLACK
6
CONTINUOUS
10
26.2636
20
-115.888
11
26.5745
21
-115.963
0
LINE
8
BLACK
6
CONTINUOUS
10
26.5745
20
-115.963
11
26.7328
21
-115.985
0
LINE
8
BLACK
6
CONTINUOUS
10
26.7328
20
-115.985
11
26.7328
21
-115.985
0
LINE
8
BLACK
6
CONTINUOUS
10
26.7328
20
-115.985
11
26.7339
21
-115.986
0
LINE
8
BLACK
6
CONTINUOUS
10
26.7339
20
-115.986
11
26.7349
21
-115.986
0
LINE
8
BLACK
6
CONTINUOUS
10
26.7349
20
-115.986
11
97.7763
21
-127.375
0
LINE
8
BLACK
6
CONTINUOUS
10
97.7763
20
-127.375
11
98.1329
21
-127.421
0
LINE
8
BLACK
6
CONTINUOUS
10
98.1329
20
-127.421
11
98.8523
21
-127.483
0
LINE
8
BLACK
6
CONTINUOUS
10
98.8523
20
-127.483
11
99.5737
21
-127.517
0
LINE
8
BLACK
6
CONTINUOUS
10
99.5737
20
-127.517
11
100.296
21
-127.523
0
LINE
8
BLACK
6
CONTINUOUS
10
100.296
20
-127.523
11
101.018
21
-127.5
0
LINE
8
BLACK
6
CONTINUOUS
10
101.018
20
-127.5
11
101.738
21
-127.448
0
LINE
8
BLACK
6
CONTINUOUS
10
101.738
20
-127.448
11
102.093
21
-127.409
0
LINE
8
BLACK
6
CONTINUOUS
10
102.093
20
-127.409
11
114.282
21
-125.124
0
LINE
8
BLACK
6
CONTINUOUS
10
114.282
20
-125.124
11
114.283
21
-125.124
0
LINE
8
BLACK
6
CONTINUOUS
10
114.283
20
-125.124
11
114.284
21
-125.123
0
LINE
8
BLACK
6
CONTINUOUS
10
114.284
20
-125.123
11
115.508
21
-124.939
0
LINE
8
BLACK
6
CONTINUOUS
10
115.508
20
-124.939
11
116.737
21
-124.792
0
LINE
8
BLACK
6
CONTINUOUS
10
116.737
20
-124.792
11
117.97
21
-124.682
0
LINE
8
BLACK
6
CONTINUOUS
10
117.97
20
-124.682
11
119.205
21
-124.611
0
LINE
8
BLACK
6
CONTINUOUS
10
119.205
20
-124.611
11
120.443
21
-124.578
0
LINE
8
BLACK
6
CONTINUOUS
10
120.443
20
-124.578
11
121.681
21
-124.583
0
LINE
8
BLACK
6
CONTINUOUS
10
121.681
20
-124.583
11
122.918
21
-124.626
0
LINE
8
BLACK
6
CONTINUOUS
10
122.918
20
-124.626
11
124.153
21
-124.707
0
LINE
8
BLACK
6
CONTINUOUS
10
124.153
20
-124.707
11
125.385
21
-124.826
0
LINE
8
BLACK
6
CONTINUOUS
10
125.385
20
-124.826
11
126.613
21
-124.982
0
LINE
8
BLACK
6
CONTINUOUS
10
126.613
20
-124.982
11
127.835
21
-125.176
0
LINE
8
BLACK
6
CONTINUOUS
10
127.835
20
-125.176
11
129.051
21
-125.408
0
LINE
8
BLACK
6
CONTINUOUS
10
129.051
20
-125.408
11
130.26
21
-125.677
0
LINE
8
BLACK
6
CONTINUOUS
10
130.26
20
-125.677
11
131.459
21
-125.983
0
LINE
8
BLACK
6
CONTINUOUS
10
131.459
20
-125.983
11
132.648
21
-126.326
0
LINE
8
BLACK
6
CONTINUOUS
10
132.648
20
-126.326
11
133.827
21
-126.705
0
LINE
8
BLACK
6
CONTINUOUS
10
133.827
20
-126.705
11
134.993
21
-127.12
0
LINE
8
BLACK
6
CONTINUOUS
10
134.993
20
-127.12
11
136.146
21
-127.571
0
LINE
8
BLACK
6
CONTINUOUS
10
136.146
20
-127.571
11
137.284
21
-128.057
0
LINE
8
BLACK
6
CONTINUOUS
10
137.284
20
-128.057
11
138.407
21
-128.578
0
LINE
8
BLACK
6
CONTINUOUS
10
138.407
20
-128.578
11
139.514
21
-129.133
0
LINE
8
BLACK
6
CONTINUOUS
10
139.514
20
-129.133
11
140.602
21
-129.722
0
LINE
8
BLACK
6
CONTINUOUS
10
140.602
20
-129.722
11
141.673
21
-130.344
0
LINE
8
BLACK
6
CONTINUOUS
10
141.673
20
-130.344
11
142.723
21
-130.999
0
LINE
8
BLACK
6
CONTINUOUS
10
142.723
20
-130.999
11
143.753
21
-131.685
0
LINE
8
BLACK
6
CONTINUOUS
10
143.753
20
-131.685
11
144.761
21
-132.403
0
LINE
8
BLACK
6
CONTINUOUS
10
144.761
20
-132.403
11
145.747
21
-133.152
0
LINE
8
BLACK
6
CONTINUOUS
10
145.747
20
-133.152
11
146.71
21
-133.93
0
LINE
8
BLACK
6
CONTINUOUS
10
146.71
20
-133.93
11
146.71
21
-133.93
0
LINE
8
BLACK
6
CONTINUOUS
10
146.71
20
-133.93
11
146.71
21
-133.931
0
LINE
8
BLACK
6
CONTINUOUS
10
146.71
20
-133.931
11
146.711
21
-133.931
0
LINE
8
BLACK
6
CONTINUOUS
10
146.711
20
-133.931
11
154.496
21
-140.639
0
LINE
8
BLACK
6
CONTINUOUS
10
154.496
20
-140.639
11
154.623
21
-140.741
0
LINE
8
BLACK
6
CONTINUOUS
10
154.623
20
-140.741
11
154.902
21
-140.919
0
LINE
8
BLACK
6
CONTINUOUS
10
154.902
20
-140.919
11
155.197
21
-141.068
0
LINE
8
BLACK
6
CONTINUOUS
10
155.197
20
-141.068
11
155.506
21
-141.184
0
LINE
8
BLACK
6
CONTINUOUS
10
155.506
20
-141.184
11
155.826
21
-141.268
0
LINE
8
BLACK
6
CONTINUOUS
10
155.826
20
-141.268
11
156.153
21
-141.318
0
LINE
8
BLACK
6
CONTINUOUS
10
156.153
20
-141.318
11
156.483
21
-141.333
0
LINE
8
BLACK
6
CONTINUOUS
10
156.483
20
-141.333
11
156.813
21
-141.314
0
LINE
8
BLACK
6
CONTINUOUS
10
156.813
20
-141.314
11
157.139
21
-141.26
0
LINE
8
BLACK
6
CONTINUOUS
10
157.139
20
-141.26
11
157.457
21
-141.173
0
LINE
8
BLACK
6
CONTINUOUS
10
157.457
20
-141.173
11
157.765
21
-141.052
0
LINE
8
BLACK
6
CONTINUOUS
10
157.765
20
-141.052
11
158.059
21
-140.901
0
LINE
8
BLACK
6
CONTINUOUS
10
158.059
20
-140.901
11
158.335
21
-140.719
0
LINE
8
BLACK
6
CONTINUOUS
10
158.335
20
-140.719
11
158.59
21
-140.51
0
LINE
8
BLACK
6
CONTINUOUS
10
158.59
20
-140.51
11
158.823
21
-140.275
0
LINE
8
BLACK
6
CONTINUOUS
10
158.823
20
-140.275
11
158.926
21
-140.146
0
LINE
8
BLACK
6
CONTINUOUS
10
158.926
20
-140.146
11
158.927
21
-140.144
0
LINE
8
BLACK
6
CONTINUOUS
10
158.927
20
-140.144
11
158.928
21
-140.143
0
LINE
8
BLACK
6
CONTINUOUS
10
158.928
20
-140.143
11
171.767
21
-125.068
0
LINE
8
BLACK
6
CONTINUOUS
10
171.767
20
-125.068
11
171.833
21
-124.985
0
LINE
8
BLACK
6
CONTINUOUS
10
171.833
20
-124.985
11
171.94
21
-124.799
0
LINE
8
BLACK
6
CONTINUOUS
10
171.94
20
-124.799
11
172.016
21
-124.598
0
LINE
8
BLACK
6
CONTINUOUS
10
172.016
20
-124.598
11
172.061
21
-124.389
0
LINE
8
BLACK
6
CONTINUOUS
10
172.061
20
-124.389
11
172.073
21
-124.174
0
LINE
8
BLACK
6
CONTINUOUS
10
172.073
20
-124.174
11
172.051
21
-123.961
0
LINE
8
BLACK
6
CONTINUOUS
10
172.051
20
-123.961
11
171.997
21
-123.753
0
LINE
8
BLACK
6
CONTINUOUS
10
171.997
20
-123.753
11
171.912
21
-123.557
0
LINE
8
BLACK
6
CONTINUOUS
10
171.912
20
-123.557
11
171.797
21
-123.376
0
LINE
8
BLACK
6
CONTINUOUS
10
171.797
20
-123.376
11
171.655
21
-123.214
0
LINE
8
BLACK
6
CONTINUOUS
10
171.655
20
-123.214
11
171.49
21
-123.077
0
LINE
8
BLACK
6
CONTINUOUS
10
171.49
20
-123.077
11
171.399
21
-123.022
0
LINE
8
BLACK
6
CONTINUOUS
10
171.399
20
-123.022
11
171.399
21
-123.022
0
LINE
8
BLACK
6
CONTINUOUS
10
171.399
20
-123.022
11
171.392
21
-123.015
0
LINE
8
BLACK
6
CONTINUOUS
10
171.392
20
-123.015
11
171.386
21
-123.013
0
LINE
8
BLACK
6
CONTINUOUS
10
171.386
20
-123.013
11
165.886
21
-118.452
0
LINE
8
BLACK
6
CONTINUOUS
10
165.886
20
-118.452
11
165.855
21
-118.484
0
LINE
8
BLACK
6
CONTINUOUS
10
165.855
20
-118.484
11
165.65
21
-118.646
0
LINE
8
BLACK
6
CONTINUOUS
10
165.65
20
-118.646
11
165.425
21
-118.777
0
LINE
8
BLACK
6
CONTINUOUS
10
165.425
20
-118.777
11
165.184
21
-118.876
0
LINE
8
BLACK
6
CONTINUOUS
10
165.184
20
-118.876
11
164.932
21
-118.941
0
LINE
8
BLACK
6
CONTINUOUS
10
164.932
20
-118.941
11
164.673
21
-118.97
0
LINE
8
BLACK
6
CONTINUOUS
10
164.673
20
-118.97
11
164.412
21
-118.963
0
LINE
8
BLACK
6
CONTINUOUS
10
164.412
20
-118.963
11
164.155
21
-118.92
0
LINE
8
BLACK
6
CONTINUOUS
10
164.155
20
-118.92
11
163.906
21
-118.842
0
LINE
8
BLACK
6
CONTINUOUS
10
163.906
20
-118.842
11
163.671
21
-118.731
0
LINE
8
BLACK
6
CONTINUOUS
10
163.671
20
-118.731
11
163.453
21
-118.587
0
LINE
8
BLACK
6
CONTINUOUS
10
163.453
20
-118.587
11
163.265
21
-118.422
0
LINE
8
BLACK
6
CONTINUOUS
10
163.265
20
-118.422
11
163.265
21
-118.422
0
LINE
8
BLACK
6
CONTINUOUS
10
163.265
20
-118.422
11
149.796
21
-107.265
0
LINE
8
BLACK
6
CONTINUOUS
10
149.796
20
-107.265
11
149.794
21
-107.261
0
LINE
8
BLACK
6
CONTINUOUS
10
149.794
20
-107.261
11
149.789
21
-107.259
0
LINE
8
BLACK
6
CONTINUOUS
10
149.789
20
-107.259
11
149.789
21
-107.259
0
LINE
8
BLACK
6
CONTINUOUS
10
149.789
20
-107.259
11
149.709
21
-107.179
0
LINE
8
BLACK
6
CONTINUOUS
10
149.709
20
-107.179
11
149.535
21
-107.034
0
LINE
8
BLACK
6
CONTINUOUS
10
149.535
20
-107.034
11
149.348
21
-106.907
0
LINE
8
BLACK
6
CONTINUOUS
10
149.348
20
-106.907
11
149.149
21
-106.797
0
LINE
8
BLACK
6
CONTINUOUS
10
149.149
20
-106.797
11
148.942
21
-106.707
0
LINE
8
BLACK
6
CONTINUOUS
10
148.942
20
-106.707
11
148.836
21
-106.672
0
LINE
8
BLACK
6
CONTINUOUS
10
148.836
20
-106.672
11
139.169
21
-103.957
0
LINE
8
BLACK
6
CONTINUOUS
10
139.169
20
-103.957
11
139.168
21
-103.957
0
LINE
8
BLACK
6
CONTINUOUS
10
139.168
20
-103.957
11
138.975
21
-103.903
0
LINE
8
BLACK
6
CONTINUOUS
10
138.975
20
-103.903
11
138.785
21
-103.816
0
LINE
8
BLACK
6
CONTINUOUS
10
138.785
20
-103.816
11
138.611
21
-103.702
0
LINE
8
BLACK
6
CONTINUOUS
10
138.611
20
-103.702
11
138.455
21
-103.562
0
LINE
8
BLACK
6
CONTINUOUS
10
138.455
20
-103.562
11
138.323
21
-103.401
0
LINE
8
BLACK
6
CONTINUOUS
10
138.323
20
-103.401
11
138.217
21
-103.221
0
LINE
8
BLACK
6
CONTINUOUS
10
138.217
20
-103.221
11
138.139
21
-103.027
0
LINE
8
BLACK
6
CONTINUOUS
10
138.139
20
-103.027
11
138.092
21
-102.824
0
LINE
8
BLACK
6
CONTINUOUS
10
138.092
20
-102.824
11
138.076
21
-102.616
0
LINE
8
BLACK
6
CONTINUOUS
10
138.076
20
-102.616
11
138.076
21
-102.616
0
LINE
8
BLACK
6
CONTINUOUS
10
138.076
20
-102.616
11
138.029
21
-35.152
0
LINE
8
BLACK
6
CONTINUOUS
10
138.029
20
-35.152
11
124.968
21
-35.1519
0
LINE
8
BLACK
6
CONTINUOUS
10
124.968
20
-35.1519
11
124.968
21
-35.1519
0
LINE
8
BLACK
6
CONTINUOUS
10
124.968
20
-35.1519
11
124.774
21
-35.135
0
LINE
8
BLACK
6
CONTINUOUS
10
124.774
20
-35.135
11
124.586
21
-35.0846
0
LINE
8
BLACK
6
CONTINUOUS
10
124.586
20
-35.0846
11
124.41
21
-35.0024
0
LINE
8
BLACK
6
CONTINUOUS
10
124.41
20
-35.0024
11
124.251
21
-34.8909
0
LINE
8
BLACK
6
CONTINUOUS
10
124.251
20
-34.8909
11
124.113
21
-34.7533
0
LINE
8
BLACK
6
CONTINUOUS
10
124.113
20
-34.7533
11
124.002
21
-34.5939
0
LINE
8
BLACK
6
CONTINUOUS
10
124.002
20
-34.5939
11
123.919
21
-34.4176
0
LINE
8
BLACK
6
CONTINUOUS
10
123.919
20
-34.4176
11
123.869
21
-34.2297
0
LINE
8
BLACK
6
CONTINUOUS
10
123.869
20
-34.2297
11
123.853
21
-34.0443
0
LINE
8
BLACK
6
CONTINUOUS
10
123.853
20
-34.0443
11
123.852
21
-34.0431
0
LINE
8
BLACK
6
CONTINUOUS
10
123.852
20
-34.0431
11
123.598
21
-30.4871
0
LINE
8
BLACK
6
CONTINUOUS
10
123.598
20
-30.4871
11
123.599
21
-30.4839
0
LINE
8
BLACK
6
CONTINUOUS
10
123.599
20
-30.4839
11
123.598
21
-30.48
0
LINE
8
BLACK
6
CONTINUOUS
10
123.598
20
-30.48
11
123.598
21
-30.3679
0
LINE
8
BLACK
6
CONTINUOUS
10
123.598
20
-30.3679
11
123.563
21
-30.1466
0
LINE
8
BLACK
6
CONTINUOUS
10
123.563
20
-30.1466
11
123.494
21
-29.9334
0
LINE
8
BLACK
6
CONTINUOUS
10
123.494
20
-29.9334
11
123.392
21
-29.7337
0
LINE
8
BLACK
6
CONTINUOUS
10
123.392
20
-29.7337
11
123.26
21
-29.5524
0
LINE
8
BLACK
6
CONTINUOUS
10
123.26
20
-29.5524
11
123.102
21
-29.3939
0
LINE
8
BLACK
6
CONTINUOUS
10
123.102
20
-29.3939
11
122.92
21
-29.2621
0
LINE
8
BLACK
6
CONTINUOUS
10
122.92
20
-29.2621
11
122.721
21
-29.1604
0
LINE
8
BLACK
6
CONTINUOUS
10
122.721
20
-29.1604
11
122.507
21
-29.0911
0
LINE
8
BLACK
6
CONTINUOUS
10
122.507
20
-29.0911
11
122.286
21
-29.056
0
LINE
8
BLACK
6
CONTINUOUS
10
122.286
20
-29.056
11
122.175
21
-29.056
0
LINE
8
BLACK
6
CONTINUOUS
10
122.175
20
-29.056
11
104.397
21
-29.5639
0
LINE
8
BLACK
6
CONTINUOUS
10
104.397
20
-29.5639
11
104.396
21
-29.5635
0
LINE
8
BLACK
6
CONTINUOUS
10
104.396
20
-29.5635
11
104.394
21
-29.5639
0
LINE
8
BLACK
6
CONTINUOUS
10
104.394
20
-29.5639
11
104.2
21
-29.547
0
LINE
8
BLACK
6
CONTINUOUS
10
104.2
20
-29.547
11
104.012
21
-29.4967
0
LINE
8
BLACK
6
CONTINUOUS
10
104.012
20
-29.4967
11
103.836
21
-29.4145
0
LINE
8
BLACK
6
CONTINUOUS
10
103.836
20
-29.4145
11
103.677
21
-29.3029
0
LINE
8
BLACK
6
CONTINUOUS
10
103.677
20
-29.3029
11
103.539
21
-29.1653
0
LINE
8
BLACK
6
CONTINUOUS
10
103.539
20
-29.1653
11
103.428
21
-29.006
0
LINE
8
BLACK
6
CONTINUOUS
10
103.428
20
-29.006
11
103.345
21
-28.8297
0
LINE
8
BLACK
6
CONTINUOUS
10
103.345
20
-28.8297
11
103.295
21
-28.6418
0
LINE
8
BLACK
6
CONTINUOUS
10
103.295
20
-28.6418
11
103.279
21
-28.4569
0
LINE
8
BLACK
6
CONTINUOUS
10
103.279
20
-28.4569
11
103.278
21
-28.456
0
LINE
8
BLACK
6
CONTINUOUS
10
103.278
20
-28.456
11
102.771
21
-22.1096
0
LINE
8
BLACK
6
CONTINUOUS
10
102.771
20
-22.1096
11
102.754
21
-21.9913
0
LINE
8
BLACK
6
CONTINUOUS
10
102.754
20
-21.9913
11
102.685
21
-21.7569
0
LINE
8
BLACK
6
CONTINUOUS
10
102.685
20
-21.7569
11
102.583
21
-21.5348
0
LINE
8
BLACK
6
CONTINUOUS
10
102.583
20
-21.5348
11
102.451
21
-21.3296
0
LINE
8
BLACK
6
CONTINUOUS
10
102.451
20
-21.3296
11
102.29
21
-21.1455
0
LINE
8
BLACK
6
CONTINUOUS
10
102.29
20
-21.1455
11
102.105
21
-20.9863
0
LINE
8
BLACK
6
CONTINUOUS
10
102.105
20
-20.9863
11
101.899
21
-20.8552
0
LINE
8
BLACK
6
CONTINUOUS
10
101.899
20
-20.8552
11
101.676
21
-20.7551
0
LINE
8
BLACK
6
CONTINUOUS
10
101.676
20
-20.7551
11
101.441
21
-20.6879
0
LINE
8
BLACK
6
CONTINUOUS
10
101.441
20
-20.6879
11
101.199
21
-20.655
0
LINE
8
BLACK
6
CONTINUOUS
10
101.199
20
-20.655
11
100.955
21
-20.6572
0
LINE
8
BLACK
6
CONTINUOUS
10
138.276
20
-102.616
11
138.276
21
-102.616
0
LINE
8
BLACK
6
CONTINUOUS
10
138.276
20
-102.616
11
138.276
21
-102.616
0
LINE
8
BLACK
6
CONTINUOUS
10
138.276
20
-102.616
11
138.276
21
-102.616
0
LINE
8
BLACK
6
CONTINUOUS
10
138.276
20
-102.616
11
138.276
21
-102.616
0
LINE
8
BLACK
6
CONTINUOUS
10
138.276
20
-102.616
11
138.276
21
-102.717
0
LINE
8
BLACK
6
CONTINUOUS
10
138.276
20
-102.717
11
138.31
21
-102.915
0
LINE
8
BLACK
6
CONTINUOUS
10
138.31
20
-102.915
11
138.378
21
-103.104
0
LINE
8
BLACK
6
CONTINUOUS
10
138.378
20
-103.104
11
138.477
21
-103.28
0
LINE
8
BLACK
6
CONTINUOUS
10
138.477
20
-103.28
11
138.605
21
-103.435
0
LINE
8
BLACK
6
CONTINUOUS
10
138.605
20
-103.435
11
138.757
21
-103.567
0
LINE
8
BLACK
6
CONTINUOUS
10
138.757
20
-103.567
11
138.929
21
-103.671
0
LINE
8
BLACK
6
CONTINUOUS
10
138.929
20
-103.671
11
139.117
21
-103.743
0
LINE
8
BLACK
6
CONTINUOUS
10
139.117
20
-103.743
11
139.216
21
-103.763
0
LINE
8
BLACK
6
CONTINUOUS
10
139.216
20
-103.763
11
139.22
21
-103.765
0
LINE
8
BLACK
6
CONTINUOUS
10
139.22
20
-103.765
11
139.223
21
-103.765
0
LINE
8
BLACK
6
CONTINUOUS
10
139.223
20
-103.765
11
148.892
21
-106.48
0
LINE
8
BLACK
6
CONTINUOUS
10
148.892
20
-106.48
11
148.894
21
-106.482
0
LINE
8
BLACK
6
CONTINUOUS
10
148.894
20
-106.482
11
148.897
21
-106.482
0
LINE
8
BLACK
6
CONTINUOUS
10
148.897
20
-106.482
11
148.897
21
-106.482
0
LINE
8
BLACK
6
CONTINUOUS
10
148.897
20
-106.482
11
149.125
21
-106.569
0
LINE
8
BLACK
6
CONTINUOUS
10
149.125
20
-106.569
11
149.345
21
-106.677
0
LINE
8
BLACK
6
CONTINUOUS
10
149.345
20
-106.677
11
149.554
21
-106.805
0
LINE
8
BLACK
6
CONTINUOUS
10
149.554
20
-106.805
11
149.75
21
-106.952
0
LINE
8
BLACK
6
CONTINUOUS
10
149.75
20
-106.952
11
149.924
21
-107.111
0
LINE
8
BLACK
6
CONTINUOUS
10
149.924
20
-107.111
11
163.392
21
-118.268
0
LINE
8
BLACK
6
CONTINUOUS
10
163.392
20
-118.268
11
163.395
21
-118.272
0
LINE
8
BLACK
6
CONTINUOUS
10
163.395
20
-118.272
11
163.399
21
-118.275
0
LINE
8
BLACK
6
CONTINUOUS
10
163.399
20
-118.275
11
163.487
21
-118.363
0
LINE
8
BLACK
6
CONTINUOUS
10
163.487
20
-118.363
11
163.685
21
-118.511
0
LINE
8
BLACK
6
CONTINUOUS
10
163.685
20
-118.511
11
163.904
21
-118.629
0
LINE
8
BLACK
6
CONTINUOUS
10
163.904
20
-118.629
11
164.137
21
-118.714
0
LINE
8
BLACK
6
CONTINUOUS
10
164.137
20
-118.714
11
164.38
21
-118.763
0
LINE
8
BLACK
6
CONTINUOUS
10
164.38
20
-118.763
11
164.628
21
-118.776
0
LINE
8
BLACK
6
CONTINUOUS
10
164.628
20
-118.776
11
164.875
21
-118.753
0
LINE
8
BLACK
6
CONTINUOUS
10
164.875
20
-118.753
11
165.115
21
-118.693
0
LINE
8
BLACK
6
CONTINUOUS
10
165.115
20
-118.693
11
165.345
21
-118.599
0
LINE
8
BLACK
6
CONTINUOUS
10
165.345
20
-118.599
11
165.558
21
-118.472
0
LINE
8
BLACK
6
CONTINUOUS
10
165.558
20
-118.472
11
165.735
21
-118.327
0
LINE
8
BLACK
6
CONTINUOUS
10
165.735
20
-118.327
11
150.558
21
-105.741
0
LINE
8
BLACK
6
CONTINUOUS
10
150.558
20
-105.741
11
150.556
21
-105.737
0
LINE
8
BLACK
6
CONTINUOUS
10
150.556
20
-105.737
11
150.551
21
-105.735
0
LINE
8
BLACK
6
CONTINUOUS
10
150.551
20
-105.735
11
150.551
21
-105.735
0
LINE
8
BLACK
6
CONTINUOUS
10
150.551
20
-105.735
11
150.471
21
-105.655
0
LINE
8
BLACK
6
CONTINUOUS
10
150.471
20
-105.655
11
150.297
21
-105.51
0
LINE
8
BLACK
6
CONTINUOUS
10
150.297
20
-105.51
11
150.11
21
-105.383
0
LINE
8
BLACK
6
CONTINUOUS
10
150.11
20
-105.383
11
149.911
21
-105.273
0
LINE
8
BLACK
6
CONTINUOUS
10
149.911
20
-105.273
11
149.704
21
-105.183
0
LINE
8
BLACK
6
CONTINUOUS
10
149.704
20
-105.183
11
149.599
21
-105.149
0
LINE
8
BLACK
6
CONTINUOUS
10
149.599
20
-105.149
11
140.388
21
-102.667
0
LINE
8
BLACK
6
CONTINUOUS
10
140.388
20
-102.667
11
140.386
21
-102.666
0
LINE
8
BLACK
6
CONTINUOUS
10
140.386
20
-102.666
11
140.384
21
-102.665
0
LINE
8
BLACK
6
CONTINUOUS
10
140.384
20
-102.665
11
140.384
21
-102.665
0
LINE
8
BLACK
6
CONTINUOUS
10
140.384
20
-102.665
11
140.22
21
-102.6
0
LINE
8
BLACK
6
CONTINUOUS
10
140.22
20
-102.6
11
140.068
21
-102.509
0
LINE
8
BLACK
6
CONTINUOUS
10
140.068
20
-102.509
11
139.933
21
-102.395
0
LINE
8
BLACK
6
CONTINUOUS
10
139.933
20
-102.395
11
139.817
21
-102.261
0
LINE
8
BLACK
6
CONTINUOUS
10
139.817
20
-102.261
11
139.724
21
-102.111
0
LINE
8
BLACK
6
CONTINUOUS
10
139.724
20
-102.111
11
139.656
21
-101.948
0
LINE
8
BLACK
6
CONTINUOUS
10
139.656
20
-101.948
11
139.614
21
-101.776
0
LINE
8
BLACK
6
CONTINUOUS
10
139.614
20
-101.776
11
139.6
21
-101.6
0
LINE
8
BLACK
6
CONTINUOUS
10
139.6
20
-101.6
11
139.6
21
-101.6
0
LINE
8
BLACK
6
CONTINUOUS
10
139.6
20
-101.6
11
139.6
21
-35.152
0
LINE
8
BLACK
6
CONTINUOUS
10
139.6
20
-35.152
11
138.229
21
-35.152
0
LINE
8
BLACK
6
CONTINUOUS
10
138.229
20
-35.152
11
138.276
21
-102.616
0
LINE
8
BLACK
6
CONTINUOUS
10
139.8
20
-35.152
11
139.8
21
-101.6
0
LINE
8
BLACK
6
CONTINUOUS
10
139.8
20
-101.6
11
139.8
21
-101.6
0
LINE
8
BLACK
6
CONTINUOUS
10
139.8
20
-101.6
11
139.8
21
-101.6
0
LINE
8
BLACK
6
CONTINUOUS
10
139.8
20
-101.6
11
139.8
21
-101.6
0
LINE
8
BLACK
6
CONTINUOUS
10
139.8
20
-101.6
11
139.8
21
-101.683
0
LINE
8
BLACK
6
CONTINUOUS
10
139.8
20
-101.683
11
139.83
21
-101.847
0
LINE
8
BLACK
6
CONTINUOUS
10
139.83
20
-101.847
11
139.889
21
-102.003
0
LINE
8
BLACK
6
CONTINUOUS
10
139.889
20
-102.003
11
139.975
21
-102.145
0
LINE
8
BLACK
6
CONTINUOUS
10
139.975
20
-102.145
11
140.086
21
-102.27
0
LINE
8
BLACK
6
CONTINUOUS
10
140.086
20
-102.27
11
140.217
21
-102.372
0
LINE
8
BLACK
6
CONTINUOUS
10
140.217
20
-102.372
11
140.364
21
-102.45
0
LINE
8
BLACK
6
CONTINUOUS
10
140.364
20
-102.45
11
140.442
21
-102.474
0
LINE
8
BLACK
6
CONTINUOUS
10
140.442
20
-102.474
11
149.653
21
-104.956
0
LINE
8
BLACK
6
CONTINUOUS
10
149.653
20
-104.956
11
149.655
21
-104.957
0
LINE
8
BLACK
6
CONTINUOUS
10
149.655
20
-104.957
11
149.659
21
-104.958
0
LINE
8
BLACK
6
CONTINUOUS
10
149.659
20
-104.958
11
149.659
21
-104.958
0
LINE
8
BLACK
6
CONTINUOUS
10
149.659
20
-104.958
11
149.887
21
-105.045
0
LINE
8
BLACK
6
CONTINUOUS
10
149.887
20
-105.045
11
150.107
21
-105.153
0
LINE
8
BLACK
6
CONTINUOUS
10
150.107
20
-105.153
11
150.316
21
-105.281
0
LINE
8
BLACK
6
CONTINUOUS
10
150.316
20
-105.281
11
150.512
21
-105.428
0
LINE
8
BLACK
6
CONTINUOUS
10
150.512
20
-105.428
11
150.686
21
-105.587
0
LINE
8
BLACK
6
CONTINUOUS
10
150.686
20
-105.587
11
165.872
21
-118.18
0
LINE
8
BLACK
6
CONTINUOUS
10
165.872
20
-118.18
11
165.917
21
-118.131
0
LINE
8
BLACK
6
CONTINUOUS
10
165.917
20
-118.131
11
166.055
21
-117.925
0
LINE
8
BLACK
6
CONTINUOUS
10
166.055
20
-117.925
11
166.161
21
-117.701
0
LINE
8
BLACK
6
CONTINUOUS
10
166.161
20
-117.701
11
166.233
21
-117.463
0
LINE
8
BLACK
6
CONTINUOUS
10
166.233
20
-117.463
11
166.27
21
-117.218
0
LINE
8
BLACK
6
CONTINUOUS
10
166.27
20
-117.218
11
166.27
21
-117.094
0
LINE
8
BLACK
6
CONTINUOUS
10
166.27
20
-117.094
11
166.27
21
-117.094
0
LINE
8
BLACK
6
CONTINUOUS
10
166.27
20
-117.094
11
166.27
21
-110.49
0
LINE
8
BLACK
6
CONTINUOUS
10
166.27
20
-110.49
11
166.27
21
-110.49
0
LINE
8
BLACK
6
CONTINUOUS
10
166.27
20
-110.49
11
166.27
21
-110.49
0
LINE
8
BLACK
6
CONTINUOUS
10
166.27
20
-110.49
11
166.287
21
-110.322
0
LINE
8
BLACK
6
CONTINUOUS
10
166.287
20
-110.322
11
166.336
21
-110.16
0
LINE
8
BLACK
6
CONTINUOUS
10
166.336
20
-110.16
11
166.415
21
-110.011
0
LINE
8
BLACK
6
CONTINUOUS
10
166.415
20
-110.011
11
166.523
21
-109.881
0
LINE
8
BLACK
6
CONTINUOUS
10
166.523
20
-109.881
11
166.653
21
-109.773
0
LINE
8
BLACK
6
CONTINUOUS
10
166.653
20
-109.773
11
166.802
21
-109.694
0
LINE
8
BLACK
6
CONTINUOUS
10
166.802
20
-109.694
11
166.964
21
-109.645
0
LINE
8
BLACK
6
CONTINUOUS
10
166.964
20
-109.645
11
167.132
21
-109.628
0
LINE
8
BLACK
6
CONTINUOUS
10
167.132
20
-109.628
11
167.132
21
-109.628
0
LINE
8
BLACK
6
CONTINUOUS
10
167.132
20
-109.628
11
167.132
21
-109.628
0
LINE
8
BLACK
6
CONTINUOUS
10
167.132
20
-109.628
11
175.26
21
-109.628
0
LINE
8
BLACK
6
CONTINUOUS
10
175.26
20
-109.628
11
175.26
21
-109.628
0
LINE
8
BLACK
6
CONTINUOUS
10
175.26
20
-109.628
11
175.26
21
-109.628
0
LINE
8
BLACK
6
CONTINUOUS
10
175.26
20
-109.628
11
175.335
21
-109.628
0
LINE
8
BLACK
6
CONTINUOUS
10
175.335
20
-109.628
11
175.48
21
-109.595
0
LINE
8
BLACK
6
CONTINUOUS
10
175.48
20
-109.595
11
175.614
21
-109.53
0
LINE
8
BLACK
6
CONTINUOUS
10
175.614
20
-109.53
11
175.731
21
-109.437
0
LINE
8
BLACK
6
CONTINUOUS
10
175.731
20
-109.437
11
175.824
21
-109.32
0
LINE
8
BLACK
6
CONTINUOUS
10
175.824
20
-109.32
11
175.889
21
-109.186
0
LINE
8
BLACK
6
CONTINUOUS
10
175.889
20
-109.186
11
175.922
21
-109.041
0
LINE
8
BLACK
6
CONTINUOUS
10
175.922
20
-109.041
11
175.922
21
-108.966
0
LINE
8
BLACK
6
CONTINUOUS
10
175.922
20
-108.966
11
175.922
21
-108.966
0
LINE
8
BLACK
6
CONTINUOUS
10
175.922
20
-108.966
11
175.922
21
-108.966
0
LINE
8
BLACK
6
CONTINUOUS
10
175.922
20
-108.966
11
175.922
21
-38.354
0
LINE
8
BLACK
6
CONTINUOUS
10
175.922
20
-38.354
11
175.922
21
-38.354
0
LINE
8
BLACK
6
CONTINUOUS
10
175.922
20
-38.354
11
175.922
21
-38.2794
0
LINE
8
BLACK
6
CONTINUOUS
10
175.922
20
-38.2794
11
175.889
21
-38.134
0
LINE
8
BLACK
6
CONTINUOUS
10
175.889
20
-38.134
11
175.824
21
-37.9996
0
LINE
8
BLACK
6
CONTINUOUS
10
175.824
20
-37.9996
11
175.731
21
-37.883
0
LINE
8
BLACK
6
CONTINUOUS
10
175.731
20
-37.883
11
175.614
21
-37.79
0
LINE
8
BLACK
6
CONTINUOUS
10
175.614
20
-37.79
11
175.48
21
-37.7252
0
LINE
8
BLACK
6
CONTINUOUS
10
175.48
20
-37.7252
11
175.335
21
-37.692
0
LINE
8
BLACK
6
CONTINUOUS
10
175.335
20
-37.692
11
175.26
21
-37.692
0
LINE
8
BLACK
6
CONTINUOUS
10
175.26
20
-37.692
11
172.72
21
-37.692
0
LINE
8
BLACK
6
CONTINUOUS
10
172.72
20
-37.692
11
172.593
21
-37.692
0
LINE
8
BLACK
6
CONTINUOUS
10
172.593
20
-37.692
11
172.342
21
-37.7251
0
LINE
8
BLACK
6
CONTINUOUS
10
172.342
20
-37.7251
11
172.098
21
-37.7906
0
LINE
8
BLACK
6
CONTINUOUS
10
172.098
20
-37.7906
11
171.864
21
-37.8876
0
LINE
8
BLACK
6
CONTINUOUS
10
171.864
20
-37.8876
11
171.644
21
-38.0142
0
LINE
8
BLACK
6
CONTINUOUS
10
171.644
20
-38.0142
11
171.443
21
-38.1684
0
LINE
8
BLACK
6
CONTINUOUS
10
171.443
20
-38.1684
11
171.264
21
-38.3474
0
LINE
8
BLACK
6
CONTINUOUS
10
171.264
20
-38.3474
11
171.11
21
-38.5484
0
LINE
8
BLACK
6
CONTINUOUS
10
171.11
20
-38.5484
11
170.984
21
-38.7677
0
LINE
8
BLACK
6
CONTINUOUS
10
170.984
20
-38.7677
11
170.887
21
-39.0017
0
LINE
8
BLACK
6
CONTINUOUS
10
170.887
20
-39.0017
11
170.821
21
-39.2463
0
LINE
8
BLACK
6
CONTINUOUS
10
170.821
20
-39.2463
11
170.788
21
-39.4974
0
LINE
8
BLACK
6
CONTINUOUS
10
170.788
20
-39.4974
11
170.788
21
-39.624
0
LINE
8
BLACK
6
CONTINUOUS
10
170.788
20
-39.624
11
170.788
21
-46.736
0
LINE
8
BLACK
6
CONTINUOUS
10
170.788
20
-46.736
11
170.788
21
-46.736
0
LINE
8
BLACK
6
CONTINUOUS
10
170.788
20
-46.736
11
170.773
21
-46.8713
0
LINE
8
BLACK
6
CONTINUOUS
10
170.773
20
-46.8713
11
170.728
21
-46.9998
0
LINE
8
BLACK
6
CONTINUOUS
10
170.728
20
-46.9998
11
170.655
21
-47.1151
0
LINE
8
BLACK
6
CONTINUOUS
10
170.655
20
-47.1151
11
170.559
21
-47.2114
0
LINE
8
BLACK
6
CONTINUOUS
10
170.559
20
-47.2114
11
170.444
21
-47.2838
0
LINE
8
BLACK
6
CONTINUOUS
10
170.444
20
-47.2838
11
170.315
21
-47.3288
0
LINE
8
BLACK
6
CONTINUOUS
10
170.315
20
-47.3288
11
170.18
21
-47.344
0
LINE
8
BLACK
6
CONTINUOUS
10
170.18
20
-47.344
11
170.18
21
-47.344
0
LINE
8
BLACK
6
CONTINUOUS
10
170.18
20
-47.344
11
170.18
21
-47.344
0
LINE
8
BLACK
6
CONTINUOUS
10
170.18
20
-47.344
11
160.02
21
-47.344
0
LINE
8
BLACK
6
CONTINUOUS
10
160.02
20
-47.344
11
160.02
21
-47.344
0
LINE
8
BLACK
6
CONTINUOUS
10
160.02
20
-47.344
11
160.02
21
-47.344
0
LINE
8
BLACK
6
CONTINUOUS
10
160.02
20
-47.344
11
159.885
21
-47.3288
0
LINE
8
BLACK
6
CONTINUOUS
10
159.885
20
-47.3288
11
159.756
21
-47.2839
0
LINE
8
BLACK
6
CONTINUOUS
10
159.756
20
-47.2839
11
159.641
21
-47.2114
0
LINE
8
BLACK
6
CONTINUOUS
10
159.641
20
-47.2114
11
159.545
21
-47.1151
0
LINE
8
BLACK
6
CONTINUOUS
10
159.545
20
-47.1151
11
159.472
21
-46.9998
0
LINE
8
BLACK
6
CONTINUOUS
10
159.472
20
-46.9998
11
159.427
21
-46.8713
0
LINE
8
BLACK
6
CONTINUOUS
10
159.427
20
-46.8713
11
159.412
21
-46.736
0
LINE
8
BLACK
6
CONTINUOUS
10
159.412
20
-46.736
11
159.412
21
-46.736
0
LINE
8
BLACK
6
CONTINUOUS
10
159.412
20
-46.736
11
159.412
21
-39.624
0
LINE
8
BLACK
6
CONTINUOUS
10
159.412
20
-39.624
11
159.412
21
-39.624
0
LINE
8
BLACK
6
CONTINUOUS
10
159.412
20
-39.624
11
159.412
21
-39.4974
0
LINE
8
BLACK
6
CONTINUOUS
10
159.412
20
-39.4974
11
159.379
21
-39.2463
0
LINE
8
BLACK
6
CONTINUOUS
10
159.379
20
-39.2463
11
159.313
21
-39.0017
0
LINE
8
BLACK
6
CONTINUOUS
10
159.313
20
-39.0017
11
159.216
21
-38.7677
0
LINE
8
BLACK
6
CONTINUOUS
10
159.216
20
-38.7677
11
159.09
21
-38.5484
0
LINE
8
BLACK
6
CONTINUOUS
10
159.09
20
-38.5484
11
158.936
21
-38.3474
0
LINE
8
BLACK
6
CONTINUOUS
10
158.936
20
-38.3474
11
158.757
21
-38.1684
0
LINE
8
BLACK
6
CONTINUOUS
10
158.757
20
-38.1684
11
158.556
21
-38.0142
0
LINE
8
BLACK
6
CONTINUOUS
10
158.556
20
-38.0142
11
158.336
21
-37.8876
0
LINE
8
BLACK
6
CONTINUOUS
10
158.336
20
-37.8876
11
158.102
21
-37.7906
0
LINE
8
BLACK
6
CONTINUOUS
10
158.102
20
-37.7906
11
157.858
21
-37.7251
0
LINE
8
BLACK
6
CONTINUOUS
10
157.858
20
-37.7251
11
157.607
21
-37.692
0
LINE
8
BLACK
6
CONTINUOUS
10
157.607
20
-37.692
11
157.48
21
-37.692
0
LINE
8
BLACK
6
CONTINUOUS
10
157.48
20
-37.692
11
157.48
21
-37.692
0
LINE
8
BLACK
6
CONTINUOUS
10
157.48
20
-37.692
11
157.312
21
-37.6755
0
LINE
8
BLACK
6
CONTINUOUS
10
157.312
20
-37.6755
11
157.15
21
-37.6264
0
LINE
8
BLACK
6
CONTINUOUS
10
157.15
20
-37.6264
11
157.001
21
-37.5468
0
LINE
8
BLACK
6
CONTINUOUS
10
157.001
20
-37.5468
11
156.87
21
-37.4396
0
LINE
8
BLACK
6
CONTINUOUS
10
156.87
20
-37.4396
11
156.763
21
-37.3089
0
LINE
8
BLACK
6
CONTINUOUS
10
156.763
20
-37.3089
11
156.684
21
-37.1599
0
LINE
8
BLACK
6
CONTINUOUS
10
156.684
20
-37.1599
11
156.635
21
-36.9982
0
LINE
8
BLACK
6
CONTINUOUS
10
156.635
20
-36.9982
11
156.618
21
-36.83
0
LINE
8
BLACK
6
CONTINUOUS
10
156.618
20
-36.83
11
156.618
21
-36.83
0
LINE
8
BLACK
6
CONTINUOUS
10
156.618
20
-36.83
11
156.618
21
-35.814
0
LINE
8
BLACK
6
CONTINUOUS
10
156.618
20
-35.814
11
156.618
21
-35.814
0
LINE
8
BLACK
6
CONTINUOUS
10
156.618
20
-35.814
11
156.618
21
-35.7394
0
LINE
8
BLACK
6
CONTINUOUS
10
156.618
20
-35.7394
11
156.585
21
-35.594
0
LINE
8
BLACK
6
CONTINUOUS
10
156.585
20
-35.594
11
156.52
21
-35.4596
0
LINE
8
BLACK
6
CONTINUOUS
10
156.52
20
-35.4596
11
156.427
21
-35.343
0
LINE
8
BLACK
6
CONTINUOUS
10
156.427
20
-35.343
11
156.31
21
-35.25
0
LINE
8
BLACK
6
CONTINUOUS
10
156.31
20
-35.25
11
156.176
21
-35.1852
0
LINE
8
BLACK
6
CONTINUOUS
10
156.176
20
-35.1852
11
156.031
21
-35.152
0
LINE
8
BLACK
6
CONTINUOUS
10
156.031
20
-35.152
11
155.956
21
-35.152
0
LINE
8
BLACK
6
CONTINUOUS
10
155.956
20
-35.152
11
139.8
21
-35.152
  0
ENDSEC
  0
EOF
