  0
SECTION
  2
HEADER
  9
$ANGBASE
  50
0.0
  9
$ANGDIR
  70
1
  9
$MEASUREMENT
  70
1
  0
ENDSEC
  0
SECTION
  2
TABLES
  0
TABLE
  2
LTYPE
  70
4
  0
LTYPE
  5
40F
  2
CONTINUOUS
  70
0
  3
Solid line
  72
65
  73
0
  40
0.0
  0
LTYPE
  5
410
  2
DASHDOT
 70
0
  3
Dash Dot ____ _ ____ _
 72
65
 73
4
 40
2.0
 49
1.25
 49
-0.25
 49
0.25
 49
-0.25
  0
LTYPE
  5
411
  2
DASHED
 70
0
  3
Dashed __ __ __ __ __
 72
65
 73
2
 40
0.75
 49
0.5
 49
-0.25
  0
LTYPE
  5
43B
  2
DOTTED
 70
0
  3
Dotted .  .  .  .
 72
65
 73
2
 40
0.2
 49
0.0
 49
-0.2
  0
ENDTAB
  0
TABLE
  2
STYLE
  70
4
  0
STYLE
  2
KICAD
  70
0
  40
0
  41
1
  42
1
  50
0
  71
0
  3
isocp.shx
  0
STYLE
  2
KICADB
  70
0
  40
0
  41
1
  42
1
  50
0
  71
0
  3
isocp.shx
  0
STYLE
  2
KICADI
  70
0
  40
0
  41
1
  42
1
  50
15
  71
0
  3
isocp.shx
  0
STYLE
  2
KICADBI
  70
0
  40
0
  41
1
  42
1
  50
15
  71
0
  3
isocp.shx
  0
ENDTAB
  0
TABLE
  2
LAYER
  70
1
  0
LAYER
  2
BLACK
  70
0
  62
7
  6
CONTINUOUS
  0
ENDTAB
  0
ENDSEC
  0
SECTION
  2
ENTITIES
0
LINE
8
BLACK
6
CONTINUOUS
10
102.661
20
-18.1997
11
102.99
21
-18.2623
0
LINE
8
BLACK
6
CONTINUOUS
10
102.99
20
-18.2623
11
103.31
21
-18.3593
0
LINE
8
BLACK
6
CONTINUOUS
10
103.31
20
-18.3593
11
103.619
21
-18.4897
0
LINE
8
BLACK
6
CONTINUOUS
10
103.619
20
-18.4897
11
103.912
21
-18.6519
0
LINE
8
BLACK
6
CONTINUOUS
10
103.912
20
-18.6519
11
104.186
21
-18.8442
0
LINE
8
BLACK
6
CONTINUOUS
10
104.186
20
-18.8442
11
104.439
21
-19.0644
0
LINE
8
BLACK
6
CONTINUOUS
10
104.439
20
-19.0644
11
104.666
21
-19.3101
0
LINE
8
BLACK
6
CONTINUOUS
10
104.666
20
-19.3101
11
104.867
21
-19.5785
0
LINE
8
BLACK
6
CONTINUOUS
10
104.867
20
-19.5785
11
105.038
21
-19.8665
0
LINE
8
BLACK
6
CONTINUOUS
10
105.038
20
-19.8665
11
105.178
21
-20.171
0
LINE
8
BLACK
6
CONTINUOUS
10
105.178
20
-20.171
11
105.284
21
-20.4886
0
LINE
8
BLACK
6
CONTINUOUS
10
105.284
20
-20.4886
11
105.357
21
-20.8156
0
LINE
8
BLACK
6
CONTINUOUS
10
105.357
20
-20.8156
11
105.357
21
-20.8156
0
LINE
8
BLACK
6
CONTINUOUS
10
105.357
20
-20.8156
11
105.356
21
-20.8188
0
LINE
8
BLACK
6
CONTINUOUS
10
105.356
20
-20.8188
11
105.357
21
-20.8214
0
LINE
8
BLACK
6
CONTINUOUS
10
105.357
20
-20.8214
11
105.756
21
-25.3891
0
LINE
8
BLACK
6
CONTINUOUS
10
105.756
20
-25.3891
11
105.773
21
-25.5075
0
LINE
8
BLACK
6
CONTINUOUS
10
105.773
20
-25.5075
11
105.842
21
-25.7414
0
LINE
8
BLACK
6
CONTINUOUS
10
105.842
20
-25.7414
11
105.943
21
-25.9632
0
LINE
8
BLACK
6
CONTINUOUS
10
105.943
20
-25.9632
11
106.075
21
-26.1684
0
LINE
8
BLACK
6
CONTINUOUS
10
106.075
20
-26.1684
11
106.234
21
-26.3527
0
LINE
8
BLACK
6
CONTINUOUS
10
106.234
20
-26.3527
11
106.418
21
-26.5124
0
LINE
8
BLACK
6
CONTINUOUS
10
106.418
20
-26.5124
11
106.623
21
-26.6443
0
LINE
8
BLACK
6
CONTINUOUS
10
106.623
20
-26.6443
11
106.845
21
-26.7456
0
LINE
8
BLACK
6
CONTINUOUS
10
106.845
20
-26.7456
11
107.079
21
-26.8143
0
LINE
8
BLACK
6
CONTINUOUS
10
107.079
20
-26.8143
11
107.32
21
-26.849
0
LINE
8
BLACK
6
CONTINUOUS
10
107.32
20
-26.849
11
107.441
21
-26.849
0
LINE
8
BLACK
6
CONTINUOUS
10
107.441
20
-26.849
11
123.8
21
-26.4501
0
LINE
8
BLACK
6
CONTINUOUS
10
123.8
20
-26.4501
11
123.804
21
-26.4506
0
LINE
8
BLACK
6
CONTINUOUS
10
123.804
20
-26.4506
11
123.805
21
-26.4502
0
LINE
8
BLACK
6
CONTINUOUS
10
123.805
20
-26.4502
11
124.102
21
-26.4806
0
LINE
8
BLACK
6
CONTINUOUS
10
124.102
20
-26.4806
11
124.393
21
-26.5461
0
LINE
8
BLACK
6
CONTINUOUS
10
124.393
20
-26.5461
11
124.675
21
-26.6458
0
LINE
8
BLACK
6
CONTINUOUS
10
124.675
20
-26.6458
11
124.942
21
-26.7781
0
LINE
8
BLACK
6
CONTINUOUS
10
124.942
20
-26.7781
11
125.192
21
-26.9412
0
LINE
8
BLACK
6
CONTINUOUS
10
125.192
20
-26.9412
11
125.421
21
-27.1329
0
LINE
8
BLACK
6
CONTINUOUS
10
125.421
20
-27.1329
11
125.625
21
-27.3504
0
LINE
8
BLACK
6
CONTINUOUS
10
125.625
20
-27.3504
11
125.802
21
-27.5906
0
LINE
8
BLACK
6
CONTINUOUS
10
125.802
20
-27.5906
11
125.949
21
-27.8501
0
LINE
8
BLACK
6
CONTINUOUS
10
125.949
20
-27.8501
11
126.065
21
-28.1253
0
LINE
8
BLACK
6
CONTINUOUS
10
126.065
20
-28.1253
11
126.146
21
-28.4122
0
LINE
8
BLACK
6
CONTINUOUS
10
126.146
20
-28.4122
11
126.146
21
-28.4122
0
LINE
8
BLACK
6
CONTINUOUS
10
126.146
20
-28.4122
11
126.146
21
-28.4185
0
LINE
8
BLACK
6
CONTINUOUS
10
126.146
20
-28.4185
11
126.148
21
-28.4235
0
LINE
8
BLACK
6
CONTINUOUS
10
126.148
20
-28.4235
11
126.332
21
-31.2289
0
LINE
8
BLACK
6
CONTINUOUS
10
126.332
20
-31.2289
11
126.35
21
-31.3371
0
LINE
8
BLACK
6
CONTINUOUS
10
126.35
20
-31.3371
11
126.422
21
-31.5524
0
LINE
8
BLACK
6
CONTINUOUS
10
126.422
20
-31.5524
11
126.526
21
-31.754
0
LINE
8
BLACK
6
CONTINUOUS
10
126.526
20
-31.754
11
126.66
21
-31.937
0
LINE
8
BLACK
6
CONTINUOUS
10
126.66
20
-31.937
11
126.822
21
-32.0967
0
LINE
8
BLACK
6
CONTINUOUS
10
126.822
20
-32.0967
11
127.006
21
-32.2295
0
LINE
8
BLACK
6
CONTINUOUS
10
127.006
20
-32.2295
11
127.208
21
-32.332
0
LINE
8
BLACK
6
CONTINUOUS
10
127.208
20
-32.332
11
127.424
21
-32.4018
0
LINE
8
BLACK
6
CONTINUOUS
10
127.424
20
-32.4018
11
127.648
21
-32.4371
0
LINE
8
BLACK
6
CONTINUOUS
10
127.648
20
-32.4371
11
127.762
21
-32.437
0
LINE
8
BLACK
6
CONTINUOUS
10
127.762
20
-32.437
11
127.762
21
-32.437
0
LINE
8
BLACK
6
CONTINUOUS
10
127.762
20
-32.437
11
127.762
21
-32.437
0
LINE
8
BLACK
6
CONTINUOUS
10
127.762
20
-32.437
11
176.022
21
-32.437
0
LINE
8
BLACK
6
CONTINUOUS
10
176.022
20
-32.437
11
176.022
21
-32.437
0
LINE
8
BLACK
6
CONTINUOUS
10
176.022
20
-32.437
11
176.022
21
-32.437
0
LINE
8
BLACK
6
CONTINUOUS
10
176.022
20
-32.437
11
176.315
21
-32.4535
0
LINE
8
BLACK
6
CONTINUOUS
10
176.315
20
-32.4535
11
176.604
21
-32.5026
0
LINE
8
BLACK
6
CONTINUOUS
10
176.604
20
-32.5026
11
176.886
21
-32.5838
0
LINE
8
BLACK
6
CONTINUOUS
10
176.886
20
-32.5838
11
177.157
21
-32.696
0
LINE
8
BLACK
6
CONTINUOUS
10
177.157
20
-32.696
11
177.413
21
-32.8378
0
LINE
8
BLACK
6
CONTINUOUS
10
177.413
20
-32.8378
11
177.652
21
-33.0075
0
LINE
8
BLACK
6
CONTINUOUS
10
177.652
20
-33.0075
11
177.871
21
-33.2029
0
LINE
8
BLACK
6
CONTINUOUS
10
177.871
20
-33.2029
11
178.066
21
-33.4216
0
LINE
8
BLACK
6
CONTINUOUS
10
178.066
20
-33.4216
11
178.236
21
-33.6608
0
LINE
8
BLACK
6
CONTINUOUS
10
178.236
20
-33.6608
11
178.378
21
-33.9174
0
LINE
8
BLACK
6
CONTINUOUS
10
178.378
20
-33.9174
11
178.49
21
-34.1883
0
LINE
8
BLACK
6
CONTINUOUS
10
178.49
20
-34.1883
11
178.571
21
-34.4701
0
LINE
8
BLACK
6
CONTINUOUS
10
178.571
20
-34.4701
11
178.621
21
-34.7592
0
LINE
8
BLACK
6
CONTINUOUS
10
178.621
20
-34.7592
11
178.637
21
-35.052
0
LINE
8
BLACK
6
CONTINUOUS
10
178.637
20
-35.052
11
178.637
21
-35.052
0
LINE
8
BLACK
6
CONTINUOUS
10
178.637
20
-35.052
11
178.637
21
-35.052
0
LINE
8
BLACK
6
CONTINUOUS
10
178.637
20
-35.052
11
178.637
21
-35.052
0
LINE
8
BLACK
6
CONTINUOUS
10
178.637
20
-35.052
11
178.637
21
-119.38
0
LINE
8
BLACK
6
CONTINUOUS
10
178.637
20
-119.38
11
178.622
21
-119.66
0
LINE
8
BLACK
6
CONTINUOUS
10
178.622
20
-119.66
11
178.577
21
-119.937
0
LINE
8
BLACK
6
CONTINUOUS
10
178.577
20
-119.937
11
178.503
21
-120.207
0
LINE
8
BLACK
6
CONTINUOUS
10
178.503
20
-120.207
11
178.4
21
-120.468
0
LINE
8
BLACK
6
CONTINUOUS
10
178.4
20
-120.468
11
178.27
21
-120.716
0
LINE
8
BLACK
6
CONTINUOUS
10
178.27
20
-120.716
11
178.114
21
-120.949
0
LINE
8
BLACK
6
CONTINUOUS
10
178.114
20
-120.949
11
178.114
21
-120.949
0
LINE
8
BLACK
6
CONTINUOUS
10
178.114
20
-120.949
11
178.112
21
-120.95
0
LINE
8
BLACK
6
CONTINUOUS
10
178.112
20
-120.95
11
178.112
21
-120.952
0
LINE
8
BLACK
6
CONTINUOUS
10
178.112
20
-120.952
11
160.586
21
-142.034
0
LINE
8
BLACK
6
CONTINUOUS
10
160.586
20
-142.034
11
160.585
21
-142.035
0
LINE
8
BLACK
6
CONTINUOUS
10
160.585
20
-142.035
11
160.584
21
-142.035
0
LINE
8
BLACK
6
CONTINUOUS
10
160.584
20
-142.035
11
160.584
21
-142.035
0
LINE
8
BLACK
6
CONTINUOUS
10
160.584
20
-142.035
11
160.273
21
-142.363
0
LINE
8
BLACK
6
CONTINUOUS
10
160.273
20
-142.363
11
159.935
21
-142.664
0
LINE
8
BLACK
6
CONTINUOUS
10
159.935
20
-142.664
11
159.573
21
-142.937
0
LINE
8
BLACK
6
CONTINUOUS
10
159.573
20
-142.937
11
159.191
21
-143.178
0
LINE
8
BLACK
6
CONTINUOUS
10
159.191
20
-143.178
11
158.789
21
-143.387
0
LINE
8
BLACK
6
CONTINUOUS
10
158.789
20
-143.387
11
158.372
21
-143.562
0
LINE
8
BLACK
6
CONTINUOUS
10
158.372
20
-143.562
11
157.942
21
-143.702
0
LINE
8
BLACK
6
CONTINUOUS
10
157.942
20
-143.702
11
157.501
21
-143.806
0
LINE
8
BLACK
6
CONTINUOUS
10
157.501
20
-143.806
11
157.054
21
-143.873
0
LINE
8
BLACK
6
CONTINUOUS
10
157.054
20
-143.873
11
156.602
21
-143.903
0
LINE
8
BLACK
6
CONTINUOUS
10
156.602
20
-143.903
11
156.15
21
-143.896
0
LINE
8
BLACK
6
CONTINUOUS
10
156.15
20
-143.896
11
155.699
21
-143.851
0
LINE
8
BLACK
6
CONTINUOUS
10
155.699
20
-143.851
11
155.254
21
-143.77
0
LINE
8
BLACK
6
CONTINUOUS
10
155.254
20
-143.77
11
154.817
21
-143.652
0
LINE
8
BLACK
6
CONTINUOUS
10
154.817
20
-143.652
11
154.392
21
-143.498
0
LINE
8
BLACK
6
CONTINUOUS
10
154.392
20
-143.498
11
153.98
21
-143.309
0
LINE
8
BLACK
6
CONTINUOUS
10
153.98
20
-143.309
11
153.586
21
-143.088
0
LINE
8
BLACK
6
CONTINUOUS
10
153.586
20
-143.088
11
153.211
21
-142.834
0
LINE
8
BLACK
6
CONTINUOUS
10
153.211
20
-142.834
11
152.859
21
-142.55
0
LINE
8
BLACK
6
CONTINUOUS
10
152.859
20
-142.55
11
152.859
21
-142.55
0
LINE
8
BLACK
6
CONTINUOUS
10
152.859
20
-142.55
11
152.858
21
-142.549
0
LINE
8
BLACK
6
CONTINUOUS
10
152.858
20
-142.549
11
152.857
21
-142.549
0
LINE
8
BLACK
6
CONTINUOUS
10
152.857
20
-142.549
11
145.353
21
-135.605
0
LINE
8
BLACK
6
CONTINUOUS
10
145.353
20
-135.605
11
144.905
21
-135.23
0
LINE
8
BLACK
6
CONTINUOUS
10
144.905
20
-135.23
11
143.984
21
-134.507
0
LINE
8
BLACK
6
CONTINUOUS
10
143.984
20
-134.507
11
143.041
21
-133.812
0
LINE
8
BLACK
6
CONTINUOUS
10
143.041
20
-133.812
11
142.077
21
-133.146
0
LINE
8
BLACK
6
CONTINUOUS
10
142.077
20
-133.146
11
141.093
21
-132.511
0
LINE
8
BLACK
6
CONTINUOUS
10
141.093
20
-132.511
11
140.09
21
-131.906
0
LINE
8
BLACK
6
CONTINUOUS
10
140.09
20
-131.906
11
139.069
21
-131.332
0
LINE
8
BLACK
6
CONTINUOUS
10
139.069
20
-131.332
11
138.03
21
-130.79
0
LINE
8
BLACK
6
CONTINUOUS
10
138.03
20
-130.79
11
136.976
21
-130.279
0
LINE
8
BLACK
6
CONTINUOUS
10
136.976
20
-130.279
11
135.906
21
-129.802
0
LINE
8
BLACK
6
CONTINUOUS
10
135.906
20
-129.802
11
134.822
21
-129.357
0
LINE
8
BLACK
6
CONTINUOUS
10
134.822
20
-129.357
11
133.725
21
-128.947
0
LINE
8
BLACK
6
CONTINUOUS
10
133.725
20
-128.947
11
132.616
21
-128.57
0
LINE
8
BLACK
6
CONTINUOUS
10
132.616
20
-128.57
11
131.496
21
-128.227
0
LINE
8
BLACK
6
CONTINUOUS
10
131.496
20
-128.227
11
130.366
21
-127.919
0
LINE
8
BLACK
6
CONTINUOUS
10
130.366
20
-127.919
11
129.227
21
-127.645
0
LINE
8
BLACK
6
CONTINUOUS
10
129.227
20
-127.645
11
128.08
21
-127.407
0
LINE
8
BLACK
6
CONTINUOUS
10
128.08
20
-127.407
11
126.926
21
-127.204
0
LINE
8
BLACK
6
CONTINUOUS
10
126.926
20
-127.204
11
125.767
21
-127.037
0
LINE
8
BLACK
6
CONTINUOUS
10
125.767
20
-127.037
11
124.603
21
-126.906
0
LINE
8
BLACK
6
CONTINUOUS
10
124.603
20
-126.906
11
123.435
21
-126.81
0
LINE
8
BLACK
6
CONTINUOUS
10
123.435
20
-126.81
11
122.265
21
-126.75
0
LINE
8
BLACK
6
CONTINUOUS
10
122.265
20
-126.75
11
121.094
21
-126.726
0
LINE
8
BLACK
6
CONTINUOUS
10
121.094
20
-126.726
11
119.923
21
-126.738
0
LINE
8
BLACK
6
CONTINUOUS
10
119.923
20
-126.738
11
118.752
21
-126.786
0
LINE
8
BLACK
6
CONTINUOUS
10
118.752
20
-126.786
11
117.584
21
-126.871
0
LINE
8
BLACK
6
CONTINUOUS
10
117.584
20
-126.871
11
116.419
21
-126.99
0
LINE
8
BLACK
6
CONTINUOUS
10
116.419
20
-126.99
11
115.258
21
-127.146
0
LINE
8
BLACK
6
CONTINUOUS
10
115.258
20
-127.146
11
114.681
21
-127.242
0
LINE
8
BLACK
6
CONTINUOUS
10
114.681
20
-127.242
11
102.245
21
-129.769
0
LINE
8
BLACK
6
CONTINUOUS
10
102.245
20
-129.769
11
102.24
21
-129.769
0
LINE
8
BLACK
6
CONTINUOUS
10
102.24
20
-129.769
11
102.238
21
-129.77
0
LINE
8
BLACK
6
CONTINUOUS
10
102.238
20
-129.77
11
101.444
21
-129.838
0
LINE
8
BLACK
6
CONTINUOUS
10
101.444
20
-129.838
11
100.648
21
-129.875
0
LINE
8
BLACK
6
CONTINUOUS
10
100.648
20
-129.875
11
99.8511
21
-129.882
0
LINE
8
BLACK
6
CONTINUOUS
10
99.8511
20
-129.882
11
99.0547
21
-129.858
0
LINE
8
BLACK
6
CONTINUOUS
10
99.0547
20
-129.858
11
98.2597
21
-129.803
0
LINE
8
BLACK
6
CONTINUOUS
10
98.2597
20
-129.803
11
97.4674
21
-129.718
0
LINE
8
BLACK
6
CONTINUOUS
10
97.4674
20
-129.718
11
96.6797
21
-129.602
0
LINE
8
BLACK
6
CONTINUOUS
10
96.6797
20
-129.602
11
96.6797
21
-129.602
0
LINE
8
BLACK
6
CONTINUOUS
10
96.6797
20
-129.602
11
25.9586
21
-118.469
0
LINE
8
BLACK
6
CONTINUOUS
10
25.9586
20
-118.469
11
25.956
21
-118.468
0
LINE
8
BLACK
6
CONTINUOUS
10
25.956
20
-118.468
11
25.9545
21
-118.468
0
LINE
8
BLACK
6
CONTINUOUS
10
25.9545
20
-118.468
11
25.5059
21
-118.353
0
LINE
8
BLACK
6
CONTINUOUS
10
25.5059
20
-118.353
11
25.0678
21
-118.203
0
LINE
8
BLACK
6
CONTINUOUS
10
25.0678
20
-118.203
11
24.6431
21
-118.018
0
LINE
8
BLACK
6
CONTINUOUS
10
24.6431
20
-118.018
11
24.2344
21
-117.8
0
LINE
8
BLACK
6
CONTINUOUS
10
24.2344
20
-117.8
11
23.8444
21
-117.55
0
LINE
8
BLACK
6
CONTINUOUS
10
23.8444
20
-117.55
11
23.4755
21
-117.27
0
LINE
8
BLACK
6
CONTINUOUS
10
23.4755
20
-117.27
11
23.13
21
-116.961
0
LINE
8
BLACK
6
CONTINUOUS
10
23.13
20
-116.961
11
22.8101
21
-116.626
0
LINE
8
BLACK
6
CONTINUOUS
10
22.8101
20
-116.626
11
22.5179
21
-116.267
0
LINE
8
BLACK
6
CONTINUOUS
10
22.5179
20
-116.267
11
22.2552
21
-115.885
0
LINE
8
BLACK
6
CONTINUOUS
10
22.2552
20
-115.885
11
22.0236
21
-115.484
0
LINE
8
BLACK
6
CONTINUOUS
10
22.0236
20
-115.484
11
21.8247
21
-115.066
0
LINE
8
BLACK
6
CONTINUOUS
10
21.8247
20
-115.066
11
21.6596
21
-114.633
0
LINE
8
BLACK
6
CONTINUOUS
10
21.6596
20
-114.633
11
21.5295
21
-114.188
0
LINE
8
BLACK
6
CONTINUOUS
10
21.5295
20
-114.188
11
21.5295
21
-114.188
0
LINE
8
BLACK
6
CONTINUOUS
10
21.5295
20
-114.188
11
21.5297
21
-114.185
0
LINE
8
BLACK
6
CONTINUOUS
10
21.5297
20
-114.185
11
21.5284
21
-114.183
0
LINE
8
BLACK
6
CONTINUOUS
10
21.5284
20
-114.183
11
13.6422
21
-70.4661
0
LINE
8
BLACK
6
CONTINUOUS
10
13.6422
20
-70.4661
11
13.6422
21
-70.4658
0
LINE
8
BLACK
6
CONTINUOUS
10
13.6422
20
-70.4658
11
13.5814
21
-70.0644
0
LINE
8
BLACK
6
CONTINUOUS
10
13.5814
20
-70.0644
11
13.5572
21
-69.6576
0
LINE
8
BLACK
6
CONTINUOUS
10
13.5572
20
-69.6576
11
13.5702
21
-69.2503
0
LINE
8
BLACK
6
CONTINUOUS
10
13.5702
20
-69.2503
11
13.6201
21
-68.8458
0
LINE
8
BLACK
6
CONTINUOUS
10
13.6201
20
-68.8458
11
13.7066
21
-68.4475
0
LINE
8
BLACK
6
CONTINUOUS
10
13.7066
20
-68.4475
11
13.829
21
-68.0588
0
LINE
8
BLACK
6
CONTINUOUS
10
13.829
20
-68.0588
11
13.9862
21
-67.6828
0
LINE
8
BLACK
6
CONTINUOUS
10
13.9862
20
-67.6828
11
14.1769
21
-67.3226
0
LINE
8
BLACK
6
CONTINUOUS
10
14.1769
20
-67.3226
11
14.3996
21
-66.9813
0
LINE
8
BLACK
6
CONTINUOUS
10
14.3996
20
-66.9813
11
14.6524
21
-66.6616
0
LINE
8
BLACK
6
CONTINUOUS
10
14.6524
20
-66.6616
11
14.9333
21
-66.3663
0
LINE
8
BLACK
6
CONTINUOUS
10
14.9333
20
-66.3663
11
15.2398
21
-66.0977
0
LINE
8
BLACK
6
CONTINUOUS
10
15.2398
20
-66.0977
11
15.5695
21
-65.8581
0
LINE
8
BLACK
6
CONTINUOUS
10
15.5695
20
-65.8581
11
15.9196
21
-65.6495
0
LINE
8
BLACK
6
CONTINUOUS
10
15.9196
20
-65.6495
11
16.2872
21
-65.4736
0
LINE
8
BLACK
6
CONTINUOUS
10
16.2872
20
-65.4736
11
16.6693
21
-65.3318
0
LINE
8
BLACK
6
CONTINUOUS
10
16.6693
20
-65.3318
11
17.0628
21
-65.2254
0
LINE
8
BLACK
6
CONTINUOUS
10
17.0628
20
-65.2254
11
17.0628
21
-65.2254
0
LINE
8
BLACK
6
CONTINUOUS
10
17.0628
20
-65.2254
11
17.0644
21
-65.2256
0
LINE
8
BLACK
6
CONTINUOUS
10
17.0644
20
-65.2256
11
17.0657
21
-65.2248
0
LINE
8
BLACK
6
CONTINUOUS
10
17.0657
20
-65.2248
11
31.2281
21
-62.6643
0
LINE
8
BLACK
6
CONTINUOUS
10
31.2281
20
-62.6643
11
31.3215
21
-62.6456
0
LINE
8
BLACK
6
CONTINUOUS
10
31.3215
20
-62.6456
11
31.5016
21
-62.579
0
LINE
8
BLACK
6
CONTINUOUS
10
31.5016
20
-62.579
11
31.669
21
-62.485
0
LINE
8
BLACK
6
CONTINUOUS
10
31.669
20
-62.485
11
31.8197
21
-62.3659
0
LINE
8
BLACK
6
CONTINUOUS
10
31.8197
20
-62.3659
11
31.95
21
-62.2247
0
LINE
8
BLACK
6
CONTINUOUS
10
31.95
20
-62.2247
11
32.0565
21
-62.0649
0
LINE
8
BLACK
6
CONTINUOUS
10
32.0565
20
-62.0649
11
32.1367
21
-61.8904
0
LINE
8
BLACK
6
CONTINUOUS
10
32.1367
20
-61.8904
11
32.1887
21
-61.7055
0
LINE
8
BLACK
6
CONTINUOUS
10
32.1887
20
-61.7055
11
32.211
21
-61.5148
0
LINE
8
BLACK
6
CONTINUOUS
10
32.211
20
-61.5148
11
32.2033
21
-61.3229
0
LINE
8
BLACK
6
CONTINUOUS
10
32.2033
20
-61.3229
11
32.1845
21
-61.2287
0
LINE
8
BLACK
6
CONTINUOUS
10
32.1845
20
-61.2287
11
32.1845
21
-61.2287
0
LINE
8
BLACK
6
CONTINUOUS
10
32.1845
20
-61.2287
11
32.1849
21
-61.2247
0
LINE
8
BLACK
6
CONTINUOUS
10
32.1849
20
-61.2247
11
32.1834
21
-61.2215
0
LINE
8
BLACK
6
CONTINUOUS
10
32.1834
20
-61.2215
11
31.6692
21
-56.0909
0
LINE
8
BLACK
6
CONTINUOUS
10
31.6692
20
-56.0909
11
31.6696
21
-56.0858
0
LINE
8
BLACK
6
CONTINUOUS
10
31.6696
20
-56.0858
11
31.6688
21
-56.0835
0
LINE
8
BLACK
6
CONTINUOUS
10
31.6688
20
-56.0835
11
31.6854
21
-55.733
0
LINE
8
BLACK
6
CONTINUOUS
10
31.6854
20
-55.733
11
31.735
21
-55.3856
0
LINE
8
BLACK
6
CONTINUOUS
10
31.735
20
-55.3856
11
31.8172
21
-55.0445
0
LINE
8
BLACK
6
CONTINUOUS
10
31.8172
20
-55.0445
11
31.9313
21
-54.7126
0
LINE
8
BLACK
6
CONTINUOUS
10
31.9313
20
-54.7126
11
32.0761
21
-54.3931
0
LINE
8
BLACK
6
CONTINUOUS
10
32.0761
20
-54.3931
11
32.2505
21
-54.0886
0
LINE
8
BLACK
6
CONTINUOUS
10
32.2505
20
-54.0886
11
32.4529
21
-53.8019
0
LINE
8
BLACK
6
CONTINUOUS
10
32.4529
20
-53.8019
11
32.6814
21
-53.5357
0
LINE
8
BLACK
6
CONTINUOUS
10
32.6814
20
-53.5357
11
32.934
21
-53.2922
0
LINE
8
BLACK
6
CONTINUOUS
10
32.934
20
-53.2922
11
33.2086
21
-53.0736
0
LINE
8
BLACK
6
CONTINUOUS
10
33.2086
20
-53.0736
11
33.5025
21
-52.882
0
LINE
8
BLACK
6
CONTINUOUS
10
33.5025
20
-52.882
11
33.8132
21
-52.7189
0
LINE
8
BLACK
6
CONTINUOUS
10
33.8132
20
-52.7189
11
34.1379
21
-52.5859
0
LINE
8
BLACK
6
CONTINUOUS
10
34.1379
20
-52.5859
11
34.4737
21
-52.4842
0
LINE
8
BLACK
6
CONTINUOUS
10
34.4737
20
-52.4842
11
34.4737
21
-52.4842
0
LINE
8
BLACK
6
CONTINUOUS
10
34.4737
20
-52.4842
11
34.4777
21
-52.4845
0
LINE
8
BLACK
6
CONTINUOUS
10
34.4777
20
-52.4845
11
34.4809
21
-52.4828
0
LINE
8
BLACK
6
CONTINUOUS
10
34.4809
20
-52.4828
11
49.5169
21
-50.2181
0
LINE
8
BLACK
6
CONTINUOUS
10
49.5169
20
-50.2181
11
49.6178
21
-50.1978
0
LINE
8
BLACK
6
CONTINUOUS
10
49.6178
20
-50.1978
11
49.8129
21
-50.1225
0
LINE
8
BLACK
6
CONTINUOUS
10
49.8129
20
-50.1225
11
49.9923
21
-50.0152
0
LINE
8
BLACK
6
CONTINUOUS
10
49.9923
20
-50.0152
11
50.1508
21
-49.8788
0
LINE
8
BLACK
6
CONTINUOUS
10
50.1508
20
-49.8788
11
50.2839
21
-49.7175
0
LINE
8
BLACK
6
CONTINUOUS
10
50.2839
20
-49.7175
11
50.3875
21
-49.5359
0
LINE
8
BLACK
6
CONTINUOUS
10
50.3875
20
-49.5359
11
50.4587
21
-49.3394
0
LINE
8
BLACK
6
CONTINUOUS
10
50.4587
20
-49.3394
11
50.4955
21
-49.1335
0
LINE
8
BLACK
6
CONTINUOUS
10
50.4955
20
-49.1335
11
50.4967
21
-48.9245
0
LINE
8
BLACK
6
CONTINUOUS
10
50.4967
20
-48.9245
11
50.4796
21
-48.8213
0
LINE
8
BLACK
6
CONTINUOUS
10
50.4796
20
-48.8213
11
50.4796
21
-48.8213
0
LINE
8
BLACK
6
CONTINUOUS
10
50.4796
20
-48.8213
11
50.4799
21
-48.8192
0
LINE
8
BLACK
6
CONTINUOUS
10
50.4799
20
-48.8192
11
50.4791
21
-48.8176
0
LINE
8
BLACK
6
CONTINUOUS
10
50.4791
20
-48.8176
11
49.2422
21
-38.0758
0
LINE
8
BLACK
6
CONTINUOUS
10
49.2422
20
-38.0758
11
49.2422
21
-38.0756
0
LINE
8
BLACK
6
CONTINUOUS
10
49.2422
20
-38.0756
11
49.2422
21
-38.0755
0
LINE
8
BLACK
6
CONTINUOUS
10
49.2422
20
-38.0755
11
49.2422
21
-38.0755
0
LINE
8
BLACK
6
CONTINUOUS
10
49.2422
20
-38.0755
11
49.2163
21
-37.6816
0
LINE
8
BLACK
6
CONTINUOUS
10
49.2163
20
-37.6816
11
49.226
21
-37.2869
0
LINE
8
BLACK
6
CONTINUOUS
10
49.226
20
-37.2869
11
49.2713
21
-36.8947
0
LINE
8
BLACK
6
CONTINUOUS
10
49.2713
20
-36.8947
11
49.3516
21
-36.5082
0
LINE
8
BLACK
6
CONTINUOUS
10
49.3516
20
-36.5082
11
49.4665
21
-36.1305
0
LINE
8
BLACK
6
CONTINUOUS
10
49.4665
20
-36.1305
11
49.6149
21
-35.7646
0
LINE
8
BLACK
6
CONTINUOUS
10
49.6149
20
-35.7646
11
49.7957
21
-35.4137
0
LINE
8
BLACK
6
CONTINUOUS
10
49.7957
20
-35.4137
11
50.0073
21
-35.0804
0
LINE
8
BLACK
6
CONTINUOUS
10
50.0073
20
-35.0804
11
50.2481
21
-34.7675
0
LINE
8
BLACK
6
CONTINUOUS
10
50.2481
20
-34.7675
11
50.5162
21
-34.4776
0
LINE
8
BLACK
6
CONTINUOUS
10
50.5162
20
-34.4776
11
50.8092
21
-34.2131
0
LINE
8
BLACK
6
CONTINUOUS
10
50.8092
20
-34.2131
11
51.1249
21
-33.976
0
LINE
8
BLACK
6
CONTINUOUS
10
51.1249
20
-33.976
11
51.4606
21
-33.7683
0
LINE
8
BLACK
6
CONTINUOUS
10
51.4606
20
-33.7683
11
51.8137
21
-33.5917
0
LINE
8
BLACK
6
CONTINUOUS
10
51.8137
20
-33.5917
11
52.1812
21
-33.4476
0
LINE
8
BLACK
6
CONTINUOUS
10
52.1812
20
-33.4476
11
52.5603
21
-33.3372
0
LINE
8
BLACK
6
CONTINUOUS
10
52.5603
20
-33.3372
11
52.5603
21
-33.3372
0
LINE
8
BLACK
6
CONTINUOUS
10
52.5603
20
-33.3372
11
52.5656
21
-33.3376
0
LINE
8
BLACK
6
CONTINUOUS
10
52.5656
20
-33.3376
11
52.5698
21
-33.3355
0
LINE
8
BLACK
6
CONTINUOUS
10
52.5698
20
-33.3355
11
68.2475
21
-31.6211
0
LINE
8
BLACK
6
CONTINUOUS
10
68.2475
20
-31.6211
11
68.248
21
-31.6211
0
LINE
8
BLACK
6
CONTINUOUS
10
68.248
20
-31.6211
11
68.3562
21
-31.6076
0
LINE
8
BLACK
6
CONTINUOUS
10
68.3562
20
-31.6076
11
68.5688
21
-31.5461
0
LINE
8
BLACK
6
CONTINUOUS
10
68.5688
20
-31.5461
11
68.7692
21
-31.4521
0
LINE
8
BLACK
6
CONTINUOUS
10
68.7692
20
-31.4521
11
68.9524
21
-31.3279
0
LINE
8
BLACK
6
CONTINUOUS
10
68.9524
20
-31.3279
11
69.1139
21
-31.1766
0
LINE
8
BLACK
6
CONTINUOUS
10
69.1139
20
-31.1766
11
69.2498
21
-31.0019
0
LINE
8
BLACK
6
CONTINUOUS
10
69.2498
20
-31.0019
11
69.3567
21
-30.8081
0
LINE
8
BLACK
6
CONTINUOUS
10
69.3567
20
-30.8081
11
69.4319
21
-30.6
0
LINE
8
BLACK
6
CONTINUOUS
10
69.4319
20
-30.6
11
69.4737
21
-30.3826
0
LINE
8
BLACK
6
CONTINUOUS
10
69.4737
20
-30.3826
11
69.4809
21
-30.1614
0
LINE
8
BLACK
6
CONTINUOUS
10
69.4809
20
-30.1614
11
69.4672
21
-30.0516
0
LINE
8
BLACK
6
CONTINUOUS
10
69.4672
20
-30.0516
11
69.4676
21
-30.0497
0
LINE
8
BLACK
6
CONTINUOUS
10
69.4676
20
-30.0497
11
69.4668
21
-30.048
0
LINE
8
BLACK
6
CONTINUOUS
10
69.4668
20
-30.048
11
69.0132
21
-24.1357
0
LINE
8
BLACK
6
CONTINUOUS
10
69.0132
20
-24.1357
11
69.0132
21
-24.1355
0
LINE
8
BLACK
6
CONTINUOUS
10
69.0132
20
-24.1355
11
69.0132
21
-24.1353
0
LINE
8
BLACK
6
CONTINUOUS
10
69.0132
20
-24.1353
11
69.0132
21
-24.1353
0
LINE
8
BLACK
6
CONTINUOUS
10
69.0132
20
-24.1353
11
69.0056
21
-23.7673
0
LINE
8
BLACK
6
CONTINUOUS
10
69.0056
20
-23.7673
11
69.0351
21
-23.4003
0
LINE
8
BLACK
6
CONTINUOUS
10
69.0351
20
-23.4003
11
69.1017
21
-23.0382
0
LINE
8
BLACK
6
CONTINUOUS
10
69.1017
20
-23.0382
11
69.2044
21
-22.6847
0
LINE
8
BLACK
6
CONTINUOUS
10
69.2044
20
-22.6847
11
69.3423
21
-22.3433
0
LINE
8
BLACK
6
CONTINUOUS
10
69.3423
20
-22.3433
11
69.514
21
-22.0177
0
LINE
8
BLACK
6
CONTINUOUS
10
69.514
20
-22.0177
11
69.7177
21
-21.711
0
LINE
8
BLACK
6
CONTINUOUS
10
69.7177
20
-21.711
11
69.9514
21
-21.4265
0
LINE
8
BLACK
6
CONTINUOUS
10
69.9514
20
-21.4265
11
70.2126
21
-21.167
0
LINE
8
BLACK
6
CONTINUOUS
10
70.2126
20
-21.167
11
70.4987
21
-20.9353
0
LINE
8
BLACK
6
CONTINUOUS
10
70.4987
20
-20.9353
11
70.8067
21
-20.7336
0
LINE
8
BLACK
6
CONTINUOUS
10
70.8067
20
-20.7336
11
71.1335
21
-20.5641
0
LINE
8
BLACK
6
CONTINUOUS
10
71.1335
20
-20.5641
11
71.4758
21
-20.4285
0
LINE
8
BLACK
6
CONTINUOUS
10
71.4758
20
-20.4285
11
71.83
21
-20.3281
0
LINE
8
BLACK
6
CONTINUOUS
10
71.83
20
-20.3281
11
72.1925
21
-20.264
0
LINE
8
BLACK
6
CONTINUOUS
10
72.1925
20
-20.264
11
72.1947
21
-20.2645
0
LINE
8
BLACK
6
CONTINUOUS
10
72.1947
20
-20.2645
11
72.1966
21
-20.2637
0
LINE
8
BLACK
6
CONTINUOUS
10
72.1966
20
-20.2637
11
101.992
21
-18.1802
0
LINE
8
BLACK
6
CONTINUOUS
10
101.992
20
-18.1802
11
101.993
21
-18.1802
0
LINE
8
BLACK
6
CONTINUOUS
10
101.993
20
-18.1802
11
102.327
21
-18.1722
0
LINE
8
BLACK
6
CONTINUOUS
10
102.327
20
-18.1722
11
102.661
21
-18.1997
0
LINE
8
BLACK
6
CONTINUOUS
10
102.003
20
-18.3298
11
102.003
21
-18.3298
0
LINE
8
BLACK
6
CONTINUOUS
10
102.003
20
-18.3298
11
102.003
21
-18.3297
0
LINE
8
BLACK
6
CONTINUOUS
10
102.003
20
-18.3297
11
102.003
21
-18.3298
0
LINE
8
BLACK
6
CONTINUOUS
10
102.003
20
-18.3298
11
72.2091
21
-20.4131
0
LINE
8
BLACK
6
CONTINUOUS
10
72.2091
20
-20.4131
11
72.0358
21
-20.4348
0
LINE
8
BLACK
6
CONTINUOUS
10
72.0358
20
-20.4348
11
71.6913
21
-20.5138
0
LINE
8
BLACK
6
CONTINUOUS
10
71.6913
20
-20.5138
11
71.3565
21
-20.6273
0
LINE
8
BLACK
6
CONTINUOUS
10
71.3565
20
-20.6273
11
71.0349
21
-20.7739
0
LINE
8
BLACK
6
CONTINUOUS
10
71.0349
20
-20.7739
11
70.7298
21
-20.9523
0
LINE
8
BLACK
6
CONTINUOUS
10
70.7298
20
-20.9523
11
70.4443
21
-21.1606
0
LINE
8
BLACK
6
CONTINUOUS
10
70.4443
20
-21.1606
11
70.1813
21
-21.3967
0
LINE
8
BLACK
6
CONTINUOUS
10
70.1813
20
-21.3967
11
69.9434
21
-21.6581
0
LINE
8
BLACK
6
CONTINUOUS
10
69.9434
20
-21.6581
11
69.7332
21
-21.9423
0
LINE
8
BLACK
6
CONTINUOUS
10
69.7332
20
-21.9423
11
69.5528
21
-22.2462
0
LINE
8
BLACK
6
CONTINUOUS
10
69.5528
20
-22.2462
11
69.404
21
-22.5668
0
LINE
8
BLACK
6
CONTINUOUS
10
69.404
20
-22.5668
11
69.2883
21
-22.9007
0
LINE
8
BLACK
6
CONTINUOUS
10
69.2883
20
-22.9007
11
69.2069
21
-23.2447
0
LINE
8
BLACK
6
CONTINUOUS
10
69.2069
20
-23.2447
11
69.1608
21
-23.5951
0
LINE
8
BLACK
6
CONTINUOUS
10
69.1608
20
-23.5951
11
69.1502
21
-23.9484
0
LINE
8
BLACK
6
CONTINUOUS
10
69.1502
20
-23.9484
11
69.1628
21
-24.1246
0
LINE
8
BLACK
6
CONTINUOUS
10
69.1628
20
-24.1246
11
69.6164
21
-30.0366
0
LINE
8
BLACK
6
CONTINUOUS
10
69.6164
20
-30.0366
11
69.6163
21
-30.0377
0
LINE
8
BLACK
6
CONTINUOUS
10
69.6163
20
-30.0377
11
69.6278
21
-30.2547
0
LINE
8
BLACK
6
CONTINUOUS
10
69.6278
20
-30.2547
11
69.6079
21
-30.4758
0
LINE
8
BLACK
6
CONTINUOUS
10
69.6079
20
-30.4758
11
69.5567
21
-30.6919
0
LINE
8
BLACK
6
CONTINUOUS
10
69.5567
20
-30.6919
11
69.4753
21
-30.8984
0
LINE
8
BLACK
6
CONTINUOUS
10
69.4753
20
-30.8984
11
69.3653
21
-31.0913
0
LINE
8
BLACK
6
CONTINUOUS
10
69.3653
20
-31.0913
11
69.229
21
-31.2665
0
LINE
8
BLACK
6
CONTINUOUS
10
69.229
20
-31.2665
11
69.0691
21
-31.4206
0
LINE
8
BLACK
6
CONTINUOUS
10
69.0691
20
-31.4206
11
68.889
21
-31.5504
0
LINE
8
BLACK
6
CONTINUOUS
10
68.889
20
-31.5504
11
68.6922
21
-31.6532
0
LINE
8
BLACK
6
CONTINUOUS
10
68.6922
20
-31.6532
11
68.4828
21
-31.7269
0
LINE
8
BLACK
6
CONTINUOUS
10
68.4828
20
-31.7269
11
68.265
21
-31.7701
0
LINE
8
BLACK
6
CONTINUOUS
10
68.265
20
-31.7701
11
68.265
21
-31.77
0
LINE
8
BLACK
6
CONTINUOUS
10
68.265
20
-31.77
11
68.2644
21
-31.7699
0
LINE
8
BLACK
6
CONTINUOUS
10
68.2644
20
-31.7699
11
68.2639
21
-31.7702
0
LINE
8
BLACK
6
CONTINUOUS
10
68.2639
20
-31.7702
11
52.591
21
-33.4841
0
LINE
8
BLACK
6
CONTINUOUS
10
52.591
20
-33.4841
11
52.4103
21
-33.528
0
LINE
8
BLACK
6
CONTINUOUS
10
52.4103
20
-33.528
11
52.049
21
-33.6512
0
LINE
8
BLACK
6
CONTINUOUS
10
52.049
20
-33.6512
11
51.7003
21
-33.8063
0
LINE
8
BLACK
6
CONTINUOUS
10
51.7003
20
-33.8063
11
51.3671
21
-33.9923
0
LINE
8
BLACK
6
CONTINUOUS
10
51.3671
20
-33.9923
11
51.0519
21
-34.2075
0
LINE
8
BLACK
6
CONTINUOUS
10
51.0519
20
-34.2075
11
50.7574
21
-34.4502
0
LINE
8
BLACK
6
CONTINUOUS
10
50.7574
20
-34.4502
11
50.4859
21
-34.7185
0
LINE
8
BLACK
6
CONTINUOUS
10
50.4859
20
-34.7185
11
50.2397
21
-35.0101
0
LINE
8
BLACK
6
CONTINUOUS
10
50.2397
20
-35.0101
11
50.0208
21
-35.3228
0
LINE
8
BLACK
6
CONTINUOUS
10
50.0208
20
-35.3228
11
49.8309
21
-35.6538
0
LINE
8
BLACK
6
CONTINUOUS
10
49.8309
20
-35.6538
11
49.6716
21
-36.0007
0
LINE
8
BLACK
6
CONTINUOUS
10
49.6716
20
-36.0007
11
49.5442
21
-36.3604
0
LINE
8
BLACK
6
CONTINUOUS
10
49.5442
20
-36.3604
11
49.4498
21
-36.7302
0
LINE
8
BLACK
6
CONTINUOUS
10
49.4498
20
-36.7302
11
49.389
21
-37.107
0
LINE
8
BLACK
6
CONTINUOUS
10
49.389
20
-37.107
11
49.3624
21
-37.4877
0
LINE
8
BLACK
6
CONTINUOUS
10
49.3624
20
-37.4877
11
49.3702
21
-37.8693
0
LINE
8
BLACK
6
CONTINUOUS
10
49.3702
20
-37.8693
11
49.3913
21
-38.059
0
LINE
8
BLACK
6
CONTINUOUS
10
49.3913
20
-38.059
11
50.6281
21
-48.8004
0
LINE
8
BLACK
6
CONTINUOUS
10
50.6281
20
-48.8004
11
50.628
21
-48.8017
0
LINE
8
BLACK
6
CONTINUOUS
10
50.628
20
-48.8017
11
50.6461
21
-49.0064
0
LINE
8
BLACK
6
CONTINUOUS
10
50.6461
20
-49.0064
11
50.6323
21
-49.2166
0
LINE
8
BLACK
6
CONTINUOUS
10
50.6323
20
-49.2166
11
50.5864
21
-49.4221
0
LINE
8
BLACK
6
CONTINUOUS
10
50.5864
20
-49.4221
11
50.5096
21
-49.6182
0
LINE
8
BLACK
6
CONTINUOUS
10
50.5096
20
-49.6182
11
50.4037
21
-49.8002
0
LINE
8
BLACK
6
CONTINUOUS
10
50.4037
20
-49.8002
11
50.2711
21
-49.9638
0
LINE
8
BLACK
6
CONTINUOUS
10
50.2711
20
-49.9638
11
50.115
21
-50.1052
0
LINE
8
BLACK
6
CONTINUOUS
10
50.115
20
-50.1052
11
49.9391
21
-50.221
0
LINE
8
BLACK
6
CONTINUOUS
10
49.9391
20
-50.221
11
49.7475
21
-50.3084
0
LINE
8
BLACK
6
CONTINUOUS
10
49.7475
20
-50.3084
11
49.5448
21
-50.3655
0
LINE
8
BLACK
6
CONTINUOUS
10
49.5448
20
-50.3655
11
49.5448
21
-50.3655
0
LINE
8
BLACK
6
CONTINUOUS
10
49.5448
20
-50.3655
11
49.5428
21
-50.3652
0
LINE
8
BLACK
6
CONTINUOUS
10
49.5428
20
-50.3652
11
49.5412
21
-50.3661
0
LINE
8
BLACK
6
CONTINUOUS
10
49.5412
20
-50.3661
11
34.5068
21
-52.6306
0
LINE
8
BLACK
6
CONTINUOUS
10
34.5068
20
-52.6306
11
34.3344
21
-52.6741
0
LINE
8
BLACK
6
CONTINUOUS
10
34.3344
20
-52.6741
11
33.9931
21
-52.7981
0
LINE
8
BLACK
6
CONTINUOUS
10
33.9931
20
-52.7981
11
33.6663
21
-52.9562
0
LINE
8
BLACK
6
CONTINUOUS
10
33.6663
20
-52.9562
11
33.3573
21
-53.1467
0
LINE
8
BLACK
6
CONTINUOUS
10
33.3573
20
-53.1467
11
33.0692
21
-53.3676
0
LINE
8
BLACK
6
CONTINUOUS
10
33.0692
20
-53.3676
11
32.805
21
-53.6167
0
LINE
8
BLACK
6
CONTINUOUS
10
32.805
20
-53.6167
11
32.5676
21
-53.8913
0
LINE
8
BLACK
6
CONTINUOUS
10
32.5676
20
-53.8913
11
32.3593
21
-54.1887
0
LINE
8
BLACK
6
CONTINUOUS
10
32.3593
20
-54.1887
11
32.1823
21
-54.5056
0
LINE
8
BLACK
6
CONTINUOUS
10
32.1823
20
-54.5056
11
32.0384
21
-54.839
0
LINE
8
BLACK
6
CONTINUOUS
10
32.0384
20
-54.839
11
31.9292
21
-55.1852
0
LINE
8
BLACK
6
CONTINUOUS
10
31.9292
20
-55.1852
11
31.8558
21
-55.5408
0
LINE
8
BLACK
6
CONTINUOUS
10
31.8558
20
-55.5408
11
31.8189
21
-55.9019
0
LINE
8
BLACK
6
CONTINUOUS
10
31.8189
20
-55.9019
11
31.8188
21
-56.0797
0
LINE
8
BLACK
6
CONTINUOUS
10
31.8188
20
-56.0797
11
32.3326
21
-61.2065
0
LINE
8
BLACK
6
CONTINUOUS
10
32.3326
20
-61.2065
11
32.3325
21
-61.2077
0
LINE
8
BLACK
6
CONTINUOUS
10
32.3325
20
-61.2077
11
32.357
21
-61.4128
0
LINE
8
BLACK
6
CONTINUOUS
10
32.357
20
-61.4128
11
32.3488
21
-61.6276
0
LINE
8
BLACK
6
CONTINUOUS
10
32.3488
20
-61.6276
11
32.3071
21
-61.8385
0
LINE
8
BLACK
6
CONTINUOUS
10
32.3071
20
-61.8385
11
32.2329
21
-62.0403
0
LINE
8
BLACK
6
CONTINUOUS
10
32.2329
20
-62.0403
11
32.128
21
-62.228
0
LINE
8
BLACK
6
CONTINUOUS
10
32.128
20
-62.228
11
31.9951
21
-62.397
0
LINE
8
BLACK
6
CONTINUOUS
10
31.9951
20
-62.397
11
31.8374
21
-62.5431
0
LINE
8
BLACK
6
CONTINUOUS
10
31.8374
20
-62.5431
11
31.6587
21
-62.6628
0
LINE
8
BLACK
6
CONTINUOUS
10
31.6587
20
-62.6628
11
31.4636
21
-62.753
0
LINE
8
BLACK
6
CONTINUOUS
10
31.4636
20
-62.753
11
31.2567
21
-62.8115
0
LINE
8
BLACK
6
CONTINUOUS
10
31.2567
20
-62.8115
11
31.2567
21
-62.8115
0
LINE
8
BLACK
6
CONTINUOUS
10
31.2567
20
-62.8115
11
31.2559
21
-62.8115
0
LINE
8
BLACK
6
CONTINUOUS
10
31.2559
20
-62.8115
11
31.2553
21
-62.8118
0
LINE
8
BLACK
6
CONTINUOUS
10
31.2553
20
-62.8118
11
17.0938
21
-65.3722
0
LINE
8
BLACK
6
CONTINUOUS
10
17.0938
20
-65.3722
11
16.9028
21
-65.4146
0
LINE
8
BLACK
6
CONTINUOUS
10
16.9028
20
-65.4146
11
16.5273
21
-65.5348
0
LINE
8
BLACK
6
CONTINUOUS
10
16.5273
20
-65.5348
11
16.1642
21
-65.6886
0
LINE
8
BLACK
6
CONTINUOUS
10
16.1642
20
-65.6886
11
15.8167
21
-65.8748
0
LINE
8
BLACK
6
CONTINUOUS
10
15.8167
20
-65.8748
11
15.4875
21
-66.0919
0
LINE
8
BLACK
6
CONTINUOUS
10
15.4875
20
-66.0919
11
15.1794
21
-66.338
0
LINE
8
BLACK
6
CONTINUOUS
10
15.1794
20
-66.338
11
14.8949
21
-66.611
0
LINE
8
BLACK
6
CONTINUOUS
10
14.8949
20
-66.611
11
14.6365
21
-66.9088
0
LINE
8
BLACK
6
CONTINUOUS
10
14.6365
20
-66.9088
11
14.4062
21
-67.2289
0
LINE
8
BLACK
6
CONTINUOUS
10
14.4062
20
-67.2289
11
14.206
21
-67.5686
0
LINE
8
BLACK
6
CONTINUOUS
10
14.206
20
-67.5686
11
14.0375
21
-67.9251
0
LINE
8
BLACK
6
CONTINUOUS
10
14.0375
20
-67.9251
11
13.9022
21
-68.2954
0
LINE
8
BLACK
6
CONTINUOUS
10
13.9022
20
-68.2954
11
13.801
21
-68.6766
0
LINE
8
BLACK
6
CONTINUOUS
10
13.801
20
-68.6766
11
13.7349
21
-69.0653
0
LINE
8
BLACK
6
CONTINUOUS
10
13.7349
20
-69.0653
11
13.7045
21
-69.4584
0
LINE
8
BLACK
6
CONTINUOUS
10
13.7045
20
-69.4584
11
13.7099
21
-69.8527
0
LINE
8
BLACK
6
CONTINUOUS
10
13.7099
20
-69.8527
11
13.7512
21
-70.2448
0
LINE
8
BLACK
6
CONTINUOUS
10
13.7512
20
-70.2448
11
13.7896
21
-70.4382
0
LINE
8
BLACK
6
CONTINUOUS
10
13.7896
20
-70.4382
11
13.7895
21
-70.4389
0
LINE
8
BLACK
6
CONTINUOUS
10
13.7895
20
-70.4389
11
13.7898
21
-70.4395
0
LINE
8
BLACK
6
CONTINUOUS
10
13.7898
20
-70.4395
11
21.6756
21
-114.154
0
LINE
8
BLACK
6
CONTINUOUS
10
21.6756
20
-114.154
11
21.7298
21
-114.371
0
LINE
8
BLACK
6
CONTINUOUS
10
21.7298
20
-114.371
11
21.8738
21
-114.799
0
LINE
8
BLACK
6
CONTINUOUS
10
21.8738
20
-114.799
11
22.0514
21
-115.214
0
LINE
8
BLACK
6
CONTINUOUS
10
22.0514
20
-115.214
11
22.2614
21
-115.614
0
LINE
8
BLACK
6
CONTINUOUS
10
22.2614
20
-115.614
11
22.5026
21
-115.996
0
LINE
8
BLACK
6
CONTINUOUS
10
22.5026
20
-115.996
11
22.7733
21
-116.357
0
LINE
8
BLACK
6
CONTINUOUS
10
22.7733
20
-116.357
11
23.072
21
-116.696
0
LINE
8
BLACK
6
CONTINUOUS
10
23.072
20
-116.696
11
23.3966
21
-117.01
0
LINE
8
BLACK
6
CONTINUOUS
10
23.3966
20
-117.01
11
23.7451
21
-117.297
0
LINE
8
BLACK
6
CONTINUOUS
10
23.7451
20
-117.297
11
24.1154
21
-117.556
0
LINE
8
BLACK
6
CONTINUOUS
10
24.1154
20
-117.556
11
24.5051
21
-117.784
0
LINE
8
BLACK
6
CONTINUOUS
10
24.5051
20
-117.784
11
24.9117
21
-117.981
0
LINE
8
BLACK
6
CONTINUOUS
10
24.9117
20
-117.981
11
25.3326
21
-118.145
0
LINE
8
BLACK
6
CONTINUOUS
10
25.3326
20
-118.145
11
25.7653
21
-118.274
0
LINE
8
BLACK
6
CONTINUOUS
10
25.7653
20
-118.274
11
25.984
21
-118.321
0
LINE
8
BLACK
6
CONTINUOUS
10
25.984
20
-118.321
11
96.703
21
-129.454
0
LINE
8
BLACK
6
CONTINUOUS
10
96.703
20
-129.454
11
96.7034
21
-129.454
0
LINE
8
BLACK
6
CONTINUOUS
10
96.7034
20
-129.454
11
96.7037
21
-129.454
0
LINE
8
BLACK
6
CONTINUOUS
10
96.7037
20
-129.454
11
96.7037
21
-129.454
0
LINE
8
BLACK
6
CONTINUOUS
10
96.7037
20
-129.454
11
97.0939
21
-129.519
0
LINE
8
BLACK
6
CONTINUOUS
10
97.0939
20
-129.519
11
97.8788
21
-129.619
0
LINE
8
BLACK
6
CONTINUOUS
10
97.8788
20
-129.619
11
98.6669
21
-129.688
0
LINE
8
BLACK
6
CONTINUOUS
10
98.6669
20
-129.688
11
99.4572
21
-129.728
0
LINE
8
BLACK
6
CONTINUOUS
10
99.4572
20
-129.728
11
100.248
21
-129.736
0
LINE
8
BLACK
6
CONTINUOUS
10
100.248
20
-129.736
11
101.039
21
-129.714
0
LINE
8
BLACK
6
CONTINUOUS
10
101.039
20
-129.714
11
101.829
21
-129.662
0
LINE
8
BLACK
6
CONTINUOUS
10
101.829
20
-129.662
11
102.219
21
-129.621
0
LINE
8
BLACK
6
CONTINUOUS
10
102.219
20
-129.621
11
114.653
21
-127.094
0
LINE
8
BLACK
6
CONTINUOUS
10
114.653
20
-127.094
11
114.655
21
-127.094
0
LINE
8
BLACK
6
CONTINUOUS
10
114.655
20
-127.094
11
114.655
21
-127.094
0
LINE
8
BLACK
6
CONTINUOUS
10
114.655
20
-127.094
11
115.818
21
-126.92
0
LINE
8
BLACK
6
CONTINUOUS
10
115.818
20
-126.92
11
116.986
21
-126.781
0
LINE
8
BLACK
6
CONTINUOUS
10
116.986
20
-126.781
11
118.157
21
-126.679
0
LINE
8
BLACK
6
CONTINUOUS
10
118.157
20
-126.679
11
119.331
21
-126.613
0
LINE
8
BLACK
6
CONTINUOUS
10
119.331
20
-126.613
11
120.507
21
-126.582
0
LINE
8
BLACK
6
CONTINUOUS
10
120.507
20
-126.582
11
121.683
21
-126.588
0
LINE
8
BLACK
6
CONTINUOUS
10
121.683
20
-126.588
11
122.858
21
-126.63
0
LINE
8
BLACK
6
CONTINUOUS
10
122.858
20
-126.63
11
124.031
21
-126.708
0
LINE
8
BLACK
6
CONTINUOUS
10
124.031
20
-126.708
11
125.202
21
-126.822
0
LINE
8
BLACK
6
CONTINUOUS
10
125.202
20
-126.822
11
126.368
21
-126.972
0
LINE
8
BLACK
6
CONTINUOUS
10
126.368
20
-126.972
11
127.529
21
-127.158
0
LINE
8
BLACK
6
CONTINUOUS
10
127.529
20
-127.158
11
128.684
21
-127.379
0
LINE
8
BLACK
6
CONTINUOUS
10
128.684
20
-127.379
11
129.831
21
-127.636
0
LINE
8
BLACK
6
CONTINUOUS
10
129.831
20
-127.636
11
130.971
21
-127.928
0
LINE
8
BLACK
6
CONTINUOUS
10
130.971
20
-127.928
11
132.1
21
-128.255
0
LINE
8
BLACK
6
CONTINUOUS
10
132.1
20
-128.255
11
133.219
21
-128.616
0
LINE
8
BLACK
6
CONTINUOUS
10
133.219
20
-128.616
11
134.326
21
-129.012
0
LINE
8
BLACK
6
CONTINUOUS
10
134.326
20
-129.012
11
135.421
21
-129.441
0
LINE
8
BLACK
6
CONTINUOUS
10
135.421
20
-129.441
11
136.502
21
-129.904
0
LINE
8
BLACK
6
CONTINUOUS
10
136.502
20
-129.904
11
137.568
21
-130.399
0
LINE
8
BLACK
6
CONTINUOUS
10
137.568
20
-130.399
11
138.619
21
-130.928
0
LINE
8
BLACK
6
CONTINUOUS
10
138.619
20
-130.928
11
139.653
21
-131.488
0
LINE
8
BLACK
6
CONTINUOUS
10
139.653
20
-131.488
11
140.669
21
-132.08
0
LINE
8
BLACK
6
CONTINUOUS
10
140.669
20
-132.08
11
141.666
21
-132.703
0
LINE
8
BLACK
6
CONTINUOUS
10
141.666
20
-132.703
11
142.644
21
-133.356
0
LINE
8
BLACK
6
CONTINUOUS
10
142.644
20
-133.356
11
143.601
21
-134.039
0
LINE
8
BLACK
6
CONTINUOUS
10
143.601
20
-134.039
11
144.537
21
-134.751
0
LINE
8
BLACK
6
CONTINUOUS
10
144.537
20
-134.751
11
145.451
21
-135.491
0
LINE
8
BLACK
6
CONTINUOUS
10
145.451
20
-135.491
11
145.452
21
-135.493
0
LINE
8
BLACK
6
CONTINUOUS
10
145.452
20
-135.493
11
145.454
21
-135.493
0
LINE
8
BLACK
6
CONTINUOUS
10
145.454
20
-135.493
11
152.958
21
-142.438
0
LINE
8
BLACK
6
CONTINUOUS
10
152.958
20
-142.438
11
153.123
21
-142.583
0
LINE
8
BLACK
6
CONTINUOUS
10
153.123
20
-142.583
11
153.477
21
-142.844
0
LINE
8
BLACK
6
CONTINUOUS
10
153.477
20
-142.844
11
153.852
21
-143.076
0
LINE
8
BLACK
6
CONTINUOUS
10
153.852
20
-143.076
11
154.245
21
-143.276
0
LINE
8
BLACK
6
CONTINUOUS
10
154.245
20
-143.276
11
154.653
21
-143.442
0
LINE
8
BLACK
6
CONTINUOUS
10
154.653
20
-143.442
11
155.073
21
-143.575
0
LINE
8
BLACK
6
CONTINUOUS
10
155.073
20
-143.575
11
155.502
21
-143.672
0
LINE
8
BLACK
6
CONTINUOUS
10
155.502
20
-143.672
11
155.938
21
-143.734
0
LINE
8
BLACK
6
CONTINUOUS
10
155.938
20
-143.734
11
156.378
21
-143.759
0
LINE
8
BLACK
6
CONTINUOUS
10
156.378
20
-143.759
11
156.819
21
-143.748
0
LINE
8
BLACK
6
CONTINUOUS
10
156.819
20
-143.748
11
157.256
21
-143.7
0
LINE
8
BLACK
6
CONTINUOUS
10
157.256
20
-143.7
11
157.689
21
-143.617
0
LINE
8
BLACK
6
CONTINUOUS
10
157.689
20
-143.617
11
158.113
21
-143.498
0
LINE
8
BLACK
6
CONTINUOUS
10
158.113
20
-143.498
11
158.526
21
-143.345
0
LINE
8
BLACK
6
CONTINUOUS
10
158.526
20
-143.345
11
158.925
21
-143.158
0
LINE
8
BLACK
6
CONTINUOUS
10
158.925
20
-143.158
11
159.307
21
-142.938
0
LINE
8
BLACK
6
CONTINUOUS
10
159.307
20
-142.938
11
159.669
21
-142.688
0
LINE
8
BLACK
6
CONTINUOUS
10
159.669
20
-142.688
11
160.01
21
-142.409
0
LINE
8
BLACK
6
CONTINUOUS
10
160.01
20
-142.409
11
160.327
21
-142.102
0
LINE
8
BLACK
6
CONTINUOUS
10
160.327
20
-142.102
11
160.471
21
-141.937
0
LINE
8
BLACK
6
CONTINUOUS
10
160.471
20
-141.937
11
177.995
21
-120.857
0
LINE
8
BLACK
6
CONTINUOUS
10
177.995
20
-120.857
11
178.073
21
-120.753
0
LINE
8
BLACK
6
CONTINUOUS
10
178.073
20
-120.753
11
178.209
21
-120.526
0
LINE
8
BLACK
6
CONTINUOUS
10
178.209
20
-120.526
11
178.319
21
-120.285
0
LINE
8
BLACK
6
CONTINUOUS
10
178.319
20
-120.285
11
178.402
21
-120.034
0
LINE
8
BLACK
6
CONTINUOUS
10
178.402
20
-120.034
11
178.459
21
-119.775
0
LINE
8
BLACK
6
CONTINUOUS
10
178.459
20
-119.775
11
178.487
21
-119.512
0
LINE
8
BLACK
6
CONTINUOUS
10
178.487
20
-119.512
11
178.487
21
-119.38
0
LINE
8
BLACK
6
CONTINUOUS
10
178.487
20
-119.38
11
178.487
21
-119.38
0
LINE
8
BLACK
6
CONTINUOUS
10
178.487
20
-119.38
11
178.487
21
-35.052
0
LINE
8
BLACK
6
CONTINUOUS
10
178.487
20
-35.052
11
178.487
21
-35.052
0
LINE
8
BLACK
6
CONTINUOUS
10
178.487
20
-35.052
11
178.487
21
-34.9029
0
LINE
8
BLACK
6
CONTINUOUS
10
178.487
20
-34.9029
11
178.451
21
-34.6069
0
LINE
8
BLACK
6
CONTINUOUS
10
178.451
20
-34.6069
11
178.38
21
-34.3173
0
LINE
8
BLACK
6
CONTINUOUS
10
178.38
20
-34.3173
11
178.274
21
-34.0385
0
LINE
8
BLACK
6
CONTINUOUS
10
178.274
20
-34.0385
11
178.135
21
-33.7745
0
LINE
8
BLACK
6
CONTINUOUS
10
178.135
20
-33.7745
11
177.966
21
-33.529
0
LINE
8
BLACK
6
CONTINUOUS
10
177.966
20
-33.529
11
177.768
21
-33.3058
0
LINE
8
BLACK
6
CONTINUOUS
10
177.768
20
-33.3058
11
177.545
21
-33.1081
0
LINE
8
BLACK
6
CONTINUOUS
10
177.545
20
-33.1081
11
177.3
21
-32.9387
0
LINE
8
BLACK
6
CONTINUOUS
10
177.3
20
-32.9387
11
177.035
21
-32.8001
0
LINE
8
BLACK
6
CONTINUOUS
10
177.035
20
-32.8001
11
176.757
21
-32.6943
0
LINE
8
BLACK
6
CONTINUOUS
10
176.757
20
-32.6943
11
176.467
21
-32.623
0
LINE
8
BLACK
6
CONTINUOUS
10
176.467
20
-32.623
11
176.171
21
-32.587
0
LINE
8
BLACK
6
CONTINUOUS
10
176.171
20
-32.587
11
176.022
21
-32.587
0
LINE
8
BLACK
6
CONTINUOUS
10
176.022
20
-32.587
11
176.022
21
-32.587
0
LINE
8
BLACK
6
CONTINUOUS
10
176.022
20
-32.587
11
127.762
21
-32.587
0
LINE
8
BLACK
6
CONTINUOUS
10
127.762
20
-32.587
11
127.762
21
-32.587
0
LINE
8
BLACK
6
CONTINUOUS
10
127.762
20
-32.587
11
127.538
21
-32.5712
0
LINE
8
BLACK
6
CONTINUOUS
10
127.538
20
-32.5712
11
127.318
21
-32.5242
0
LINE
8
BLACK
6
CONTINUOUS
10
127.318
20
-32.5242
11
127.107
21
-32.4468
0
LINE
8
BLACK
6
CONTINUOUS
10
127.107
20
-32.4468
11
126.909
21
-32.3407
0
LINE
8
BLACK
6
CONTINUOUS
10
126.909
20
-32.3407
11
126.728
21
-32.2078
0
LINE
8
BLACK
6
CONTINUOUS
10
126.728
20
-32.2078
11
126.567
21
-32.0508
0
LINE
8
BLACK
6
CONTINUOUS
10
126.567
20
-32.0508
11
126.429
21
-31.8728
0
LINE
8
BLACK
6
CONTINUOUS
10
126.429
20
-31.8728
11
126.318
21
-31.6774
0
LINE
8
BLACK
6
CONTINUOUS
10
126.318
20
-31.6774
11
126.236
21
-31.4683
0
LINE
8
BLACK
6
CONTINUOUS
10
126.236
20
-31.4683
11
126.183
21
-31.2498
0
LINE
8
BLACK
6
CONTINUOUS
10
126.183
20
-31.2498
11
126.183
21
-31.2498
0
LINE
8
BLACK
6
CONTINUOUS
10
126.183
20
-31.2498
11
126.184
21
-31.2457
0
LINE
8
BLACK
6
CONTINUOUS
10
126.184
20
-31.2457
11
126.183
21
-31.2423
0
LINE
8
BLACK
6
CONTINUOUS
10
126.183
20
-31.2423
11
125.999
21
-28.439
0
LINE
8
BLACK
6
CONTINUOUS
10
125.999
20
-28.439
11
125.97
21
-28.3075
0
LINE
8
BLACK
6
CONTINUOUS
10
125.97
20
-28.3075
11
125.876
21
-28.0424
0
LINE
8
BLACK
6
CONTINUOUS
10
125.876
20
-28.0424
11
125.753
21
-27.7901
0
LINE
8
BLACK
6
CONTINUOUS
10
125.753
20
-27.7901
11
125.6
21
-27.5544
0
LINE
8
BLACK
6
CONTINUOUS
10
125.6
20
-27.5544
11
125.42
21
-27.3385
0
LINE
8
BLACK
6
CONTINUOUS
10
125.42
20
-27.3385
11
125.215
21
-27.1455
0
LINE
8
BLACK
6
CONTINUOUS
10
125.215
20
-27.1455
11
124.99
21
-26.9781
0
LINE
8
BLACK
6
CONTINUOUS
10
124.99
20
-26.9781
11
124.746
21
-26.8387
0
LINE
8
BLACK
6
CONTINUOUS
10
124.746
20
-26.8387
11
124.487
21
-26.7293
0
LINE
8
BLACK
6
CONTINUOUS
10
124.487
20
-26.7293
11
124.217
21
-26.6513
0
LINE
8
BLACK
6
CONTINUOUS
10
124.217
20
-26.6513
11
123.939
21
-26.6061
0
LINE
8
BLACK
6
CONTINUOUS
10
123.939
20
-26.6061
11
123.801
21
-26.6001
0
LINE
8
BLACK
6
CONTINUOUS
10
123.801
20
-26.6001
11
107.444
21
-26.999
0
LINE
8
BLACK
6
CONTINUOUS
10
107.444
20
-26.999
11
107.443
21
-26.9988
0
LINE
8
BLACK
6
CONTINUOUS
10
107.443
20
-26.9988
11
107.442
21
-26.999
0
LINE
8
BLACK
6
CONTINUOUS
10
107.442
20
-26.999
11
107.202
21
-26.9834
0
LINE
8
BLACK
6
CONTINUOUS
10
107.202
20
-26.9834
11
106.966
21
-26.9368
0
LINE
8
BLACK
6
CONTINUOUS
10
106.966
20
-26.9368
11
106.738
21
-26.8601
0
LINE
8
BLACK
6
CONTINUOUS
10
106.738
20
-26.8601
11
106.522
21
-26.7545
0
LINE
8
BLACK
6
CONTINUOUS
10
106.522
20
-26.7545
11
106.321
21
-26.6217
0
LINE
8
BLACK
6
CONTINUOUS
10
106.321
20
-26.6217
11
106.14
21
-26.4641
0
LINE
8
BLACK
6
CONTINUOUS
10
106.14
20
-26.4641
11
105.98
21
-26.2843
0
LINE
8
BLACK
6
CONTINUOUS
10
105.98
20
-26.2843
11
105.845
21
-26.0853
0
LINE
8
BLACK
6
CONTINUOUS
10
105.845
20
-26.0853
11
105.736
21
-25.8705
0
LINE
8
BLACK
6
CONTINUOUS
10
105.736
20
-25.8705
11
105.657
21
-25.6435
0
LINE
8
BLACK
6
CONTINUOUS
10
105.657
20
-25.6435
11
105.608
21
-25.4081
0
LINE
8
BLACK
6
CONTINUOUS
10
105.608
20
-25.4081
11
105.608
21
-25.408
0
LINE
8
BLACK
6
CONTINUOUS
10
105.608
20
-25.408
11
105.608
21
-25.4058
0
LINE
8
BLACK
6
CONTINUOUS
10
105.608
20
-25.4058
11
105.607
21
-25.404
0
LINE
8
BLACK
6
CONTINUOUS
10
105.607
20
-25.404
11
105.208
21
-20.8375
0
LINE
8
BLACK
6
CONTINUOUS
10
105.208
20
-20.8375
11
105.182
21
-20.6827
0
LINE
8
BLACK
6
CONTINUOUS
10
105.182
20
-20.6827
11
105.097
21
-20.3748
0
LINE
8
BLACK
6
CONTINUOUS
10
105.097
20
-20.3748
11
104.979
21
-20.0776
0
LINE
8
BLACK
6
CONTINUOUS
10
104.979
20
-20.0776
11
104.831
21
-19.7946
0
LINE
8
BLACK
6
CONTINUOUS
10
104.831
20
-19.7946
11
104.654
21
-19.5288
0
LINE
8
BLACK
6
CONTINUOUS
10
104.654
20
-19.5288
11
104.449
21
-19.2833
0
LINE
8
BLACK
6
CONTINUOUS
10
104.449
20
-19.2833
11
104.22
21
-19.0608
0
LINE
8
BLACK
6
CONTINUOUS
10
104.22
20
-19.0608
11
103.968
21
-18.8637
0
LINE
8
BLACK
6
CONTINUOUS
10
103.968
20
-18.8637
11
103.697
21
-18.6944
0
LINE
8
BLACK
6
CONTINUOUS
10
103.697
20
-18.6944
11
103.41
21
-18.5546
0
LINE
8
BLACK
6
CONTINUOUS
10
103.41
20
-18.5546
11
103.109
21
-18.446
0
LINE
8
BLACK
6
CONTINUOUS
10
103.109
20
-18.446
11
102.799
21
-18.3698
0
LINE
8
BLACK
6
CONTINUOUS
10
102.799
20
-18.3698
11
102.482
21
-18.3268
0
LINE
8
BLACK
6
CONTINUOUS
10
102.482
20
-18.3268
11
102.163
21
-18.3175
0
LINE
8
BLACK
6
CONTINUOUS
10
102.163
20
-18.3175
11
102.003
21
-18.3298
  0
ENDSEC
  0
EOF
