  0
SECTION
  2
HEADER
  9
$ANGBASE
  50
0.0
  9
$ANGDIR
  70
1
  9
$MEASUREMENT
  70
1
  0
ENDSEC
  0
SECTION
  2
TABLES
  0
TABLE
  2
LTYPE
  70
4
  0
LTYPE
  5
40F
  2
CONTINUOUS
  70
0
  3
Solid line
  72
65
  73
0
  40
0.0
  0
LTYPE
  5
410
  2
DASHDOT
 70
0
  3
Dash Dot ____ _ ____ _
 72
65
 73
4
 40
2.0
 49
1.25
 49
-0.25
 49
0.25
 49
-0.25
  0
LTYPE
  5
411
  2
DASHED
 70
0
  3
Dashed __ __ __ __ __
 72
65
 73
2
 40
0.75
 49
0.5
 49
-0.25
  0
LTYPE
  5
43B
  2
DOTTED
 70
0
  3
Dotted .  .  .  .
 72
65
 73
2
 40
0.2
 49
0.0
 49
-0.2
  0
ENDTAB
  0
TABLE
  2
STYLE
  70
4
  0
STYLE
  2
KICAD
  70
0
  40
0
  41
1
  42
1
  50
0
  71
0
  3
isocp.shx
  0
STYLE
  2
KICADB
  70
0
  40
0
  41
1
  42
1
  50
0
  71
0
  3
isocp.shx
  0
STYLE
  2
KICADI
  70
0
  40
0
  41
1
  42
1
  50
15
  71
0
  3
isocp.shx
  0
STYLE
  2
KICADBI
  70
0
  40
0
  41
1
  42
1
  50
15
  71
0
  3
isocp.shx
  0
ENDTAB
  0
TABLE
  2
LAYER
  70
1
  0
LAYER
  2
BLACK
  70
0
  62
7
  6
CONTINUOUS
  0
ENDTAB
  0
ENDSEC
  0
SECTION
  2
ENTITIES
0
LINE
8
BLACK
6
CONTINUOUS
10
101.612
20
-17.9359
11
102.002
21
-17.9793
0
LINE
8
BLACK
6
CONTINUOUS
10
102.002
20
-17.9793
11
102.387
21
-18.0593
0
LINE
8
BLACK
6
CONTINUOUS
10
102.387
20
-18.0593
11
102.762
21
-18.175
0
LINE
8
BLACK
6
CONTINUOUS
10
102.762
20
-18.175
11
103.124
21
-18.3254
0
LINE
8
BLACK
6
CONTINUOUS
10
103.124
20
-18.3254
11
103.471
21
-18.5092
0
LINE
8
BLACK
6
CONTINUOUS
10
103.471
20
-18.5092
11
103.799
21
-18.7248
0
LINE
8
BLACK
6
CONTINUOUS
10
103.799
20
-18.7248
11
104.105
21
-18.9702
0
LINE
8
BLACK
6
CONTINUOUS
10
104.105
20
-18.9702
11
104.387
21
-19.2434
0
LINE
8
BLACK
6
CONTINUOUS
10
104.387
20
-19.2434
11
104.641
21
-19.5418
0
LINE
8
BLACK
6
CONTINUOUS
10
104.641
20
-19.5418
11
104.867
21
-19.8629
0
LINE
8
BLACK
6
CONTINUOUS
10
104.867
20
-19.8629
11
105.062
21
-20.2037
0
LINE
8
BLACK
6
CONTINUOUS
10
105.062
20
-20.2037
11
105.223
21
-20.5613
0
LINE
8
BLACK
6
CONTINUOUS
10
105.223
20
-20.5613
11
105.35
21
-20.9326
0
LINE
8
BLACK
6
CONTINUOUS
10
105.35
20
-20.9326
11
105.442
21
-21.3141
0
LINE
8
BLACK
6
CONTINUOUS
10
105.442
20
-21.3141
11
105.498
21
-21.7026
0
LINE
8
BLACK
6
CONTINUOUS
10
105.498
20
-21.7026
11
105.498
21
-21.7026
0
LINE
8
BLACK
6
CONTINUOUS
10
105.498
20
-21.7026
11
105.498
21
-21.7036
0
LINE
8
BLACK
6
CONTINUOUS
10
105.498
20
-21.7036
11
105.498
21
-21.7044
0
LINE
8
BLACK
6
CONTINUOUS
10
105.498
20
-21.7044
11
105.756
21
-25.3895
0
LINE
8
BLACK
6
CONTINUOUS
10
105.756
20
-25.3895
11
105.773
21
-25.5075
0
LINE
8
BLACK
6
CONTINUOUS
10
105.773
20
-25.5075
11
105.842
21
-25.7414
0
LINE
8
BLACK
6
CONTINUOUS
10
105.842
20
-25.7414
11
105.943
21
-25.9632
0
LINE
8
BLACK
6
CONTINUOUS
10
105.943
20
-25.9632
11
106.075
21
-26.1684
0
LINE
8
BLACK
6
CONTINUOUS
10
106.075
20
-26.1684
11
106.234
21
-26.3527
0
LINE
8
BLACK
6
CONTINUOUS
10
106.234
20
-26.3527
11
106.418
21
-26.5124
0
LINE
8
BLACK
6
CONTINUOUS
10
106.418
20
-26.5124
11
106.623
21
-26.6442
0
LINE
8
BLACK
6
CONTINUOUS
10
106.623
20
-26.6442
11
106.845
21
-26.7456
0
LINE
8
BLACK
6
CONTINUOUS
10
106.845
20
-26.7456
11
107.079
21
-26.8143
0
LINE
8
BLACK
6
CONTINUOUS
10
107.079
20
-26.8143
11
107.32
21
-26.849
0
LINE
8
BLACK
6
CONTINUOUS
10
107.32
20
-26.849
11
107.441
21
-26.849
0
LINE
8
BLACK
6
CONTINUOUS
10
107.441
20
-26.849
11
123.8
21
-26.4501
0
LINE
8
BLACK
6
CONTINUOUS
10
123.8
20
-26.4501
11
123.804
21
-26.4506
0
LINE
8
BLACK
6
CONTINUOUS
10
123.804
20
-26.4506
11
123.805
21
-26.4502
0
LINE
8
BLACK
6
CONTINUOUS
10
123.805
20
-26.4502
11
124.102
21
-26.4806
0
LINE
8
BLACK
6
CONTINUOUS
10
124.102
20
-26.4806
11
124.393
21
-26.5462
0
LINE
8
BLACK
6
CONTINUOUS
10
124.393
20
-26.5462
11
124.675
21
-26.6458
0
LINE
8
BLACK
6
CONTINUOUS
10
124.675
20
-26.6458
11
124.942
21
-26.7781
0
LINE
8
BLACK
6
CONTINUOUS
10
124.942
20
-26.7781
11
125.192
21
-26.9413
0
LINE
8
BLACK
6
CONTINUOUS
10
125.192
20
-26.9413
11
125.421
21
-27.1329
0
LINE
8
BLACK
6
CONTINUOUS
10
125.421
20
-27.1329
11
125.625
21
-27.3504
0
LINE
8
BLACK
6
CONTINUOUS
10
125.625
20
-27.3504
11
125.802
21
-27.5906
0
LINE
8
BLACK
6
CONTINUOUS
10
125.802
20
-27.5906
11
125.949
21
-27.8501
0
LINE
8
BLACK
6
CONTINUOUS
10
125.949
20
-27.8501
11
126.065
21
-28.1253
0
LINE
8
BLACK
6
CONTINUOUS
10
126.065
20
-28.1253
11
126.146
21
-28.4122
0
LINE
8
BLACK
6
CONTINUOUS
10
126.146
20
-28.4122
11
126.146
21
-28.4122
0
LINE
8
BLACK
6
CONTINUOUS
10
126.146
20
-28.4122
11
126.146
21
-28.4185
0
LINE
8
BLACK
6
CONTINUOUS
10
126.146
20
-28.4185
11
126.148
21
-28.4235
0
LINE
8
BLACK
6
CONTINUOUS
10
126.148
20
-28.4235
11
126.332
21
-31.2288
0
LINE
8
BLACK
6
CONTINUOUS
10
126.332
20
-31.2288
11
126.35
21
-31.3371
0
LINE
8
BLACK
6
CONTINUOUS
10
126.35
20
-31.3371
11
126.422
21
-31.5524
0
LINE
8
BLACK
6
CONTINUOUS
10
126.422
20
-31.5524
11
126.526
21
-31.754
0
LINE
8
BLACK
6
CONTINUOUS
10
126.526
20
-31.754
11
126.66
21
-31.9369
0
LINE
8
BLACK
6
CONTINUOUS
10
126.66
20
-31.9369
11
126.822
21
-32.0967
0
LINE
8
BLACK
6
CONTINUOUS
10
126.822
20
-32.0967
11
127.006
21
-32.2295
0
LINE
8
BLACK
6
CONTINUOUS
10
127.006
20
-32.2295
11
127.208
21
-32.332
0
LINE
8
BLACK
6
CONTINUOUS
10
127.208
20
-32.332
11
127.424
21
-32.4017
0
LINE
8
BLACK
6
CONTINUOUS
10
127.424
20
-32.4017
11
127.649
21
-32.437
0
LINE
8
BLACK
6
CONTINUOUS
10
127.649
20
-32.437
11
127.762
21
-32.437
0
LINE
8
BLACK
6
CONTINUOUS
10
127.762
20
-32.437
11
176.022
21
-32.437
0
LINE
8
BLACK
6
CONTINUOUS
10
176.022
20
-32.437
11
176.315
21
-32.4534
0
LINE
8
BLACK
6
CONTINUOUS
10
176.315
20
-32.4534
11
176.604
21
-32.5026
0
LINE
8
BLACK
6
CONTINUOUS
10
176.604
20
-32.5026
11
176.886
21
-32.5837
0
LINE
8
BLACK
6
CONTINUOUS
10
176.886
20
-32.5837
11
177.157
21
-32.696
0
LINE
8
BLACK
6
CONTINUOUS
10
177.157
20
-32.696
11
177.413
21
-32.8378
0
LINE
8
BLACK
6
CONTINUOUS
10
177.413
20
-32.8378
11
177.652
21
-33.0075
0
LINE
8
BLACK
6
CONTINUOUS
10
177.652
20
-33.0075
11
177.871
21
-33.2029
0
LINE
8
BLACK
6
CONTINUOUS
10
177.871
20
-33.2029
11
178.066
21
-33.4216
0
LINE
8
BLACK
6
CONTINUOUS
10
178.066
20
-33.4216
11
178.236
21
-33.6607
0
LINE
8
BLACK
6
CONTINUOUS
10
178.236
20
-33.6607
11
178.378
21
-33.9174
0
LINE
8
BLACK
6
CONTINUOUS
10
178.378
20
-33.9174
11
178.49
21
-34.1883
0
LINE
8
BLACK
6
CONTINUOUS
10
178.49
20
-34.1883
11
178.571
21
-34.4701
0
LINE
8
BLACK
6
CONTINUOUS
10
178.571
20
-34.4701
11
178.621
21
-34.7592
0
LINE
8
BLACK
6
CONTINUOUS
10
178.621
20
-34.7592
11
178.637
21
-35.052
0
LINE
8
BLACK
6
CONTINUOUS
10
178.637
20
-35.052
11
178.637
21
-35.052
0
LINE
8
BLACK
6
CONTINUOUS
10
178.637
20
-35.052
11
178.637
21
-119.38
0
LINE
8
BLACK
6
CONTINUOUS
10
178.637
20
-119.38
11
178.622
21
-119.66
0
LINE
8
BLACK
6
CONTINUOUS
10
178.622
20
-119.66
11
178.577
21
-119.937
0
LINE
8
BLACK
6
CONTINUOUS
10
178.577
20
-119.937
11
178.503
21
-120.207
0
LINE
8
BLACK
6
CONTINUOUS
10
178.503
20
-120.207
11
178.4
21
-120.468
0
LINE
8
BLACK
6
CONTINUOUS
10
178.4
20
-120.468
11
178.27
21
-120.716
0
LINE
8
BLACK
6
CONTINUOUS
10
178.27
20
-120.716
11
178.114
21
-120.949
0
LINE
8
BLACK
6
CONTINUOUS
10
178.114
20
-120.949
11
178.112
21
-120.95
0
LINE
8
BLACK
6
CONTINUOUS
10
178.112
20
-120.95
11
178.112
21
-120.952
0
LINE
8
BLACK
6
CONTINUOUS
10
178.112
20
-120.952
11
160.84
21
-141.78
0
LINE
8
BLACK
6
CONTINUOUS
10
160.84
20
-141.78
11
160.84
21
-141.78
0
LINE
8
BLACK
6
CONTINUOUS
10
160.84
20
-141.78
11
160.538
21
-142.118
0
LINE
8
BLACK
6
CONTINUOUS
10
160.538
20
-142.118
11
160.21
21
-142.431
0
LINE
8
BLACK
6
CONTINUOUS
10
160.21
20
-142.431
11
159.857
21
-142.717
0
LINE
8
BLACK
6
CONTINUOUS
10
159.857
20
-142.717
11
159.483
21
-142.974
0
LINE
8
BLACK
6
CONTINUOUS
10
159.483
20
-142.974
11
159.09
21
-143.2
0
LINE
8
BLACK
6
CONTINUOUS
10
159.09
20
-143.2
11
158.68
21
-143.394
0
LINE
8
BLACK
6
CONTINUOUS
10
158.68
20
-143.394
11
158.256
21
-143.554
0
LINE
8
BLACK
6
CONTINUOUS
10
158.256
20
-143.554
11
157.82
21
-143.68
0
LINE
8
BLACK
6
CONTINUOUS
10
157.82
20
-143.68
11
157.376
21
-143.771
0
LINE
8
BLACK
6
CONTINUOUS
10
157.376
20
-143.771
11
156.926
21
-143.826
0
LINE
8
BLACK
6
CONTINUOUS
10
156.926
20
-143.826
11
156.472
21
-143.845
0
LINE
8
BLACK
6
CONTINUOUS
10
156.472
20
-143.845
11
156.019
21
-143.827
0
LINE
8
BLACK
6
CONTINUOUS
10
156.019
20
-143.827
11
155.569
21
-143.774
0
LINE
8
BLACK
6
CONTINUOUS
10
155.569
20
-143.774
11
155.124
21
-143.684
0
LINE
8
BLACK
6
CONTINUOUS
10
155.124
20
-143.684
11
154.688
21
-143.559
0
LINE
8
BLACK
6
CONTINUOUS
10
154.688
20
-143.559
11
154.263
21
-143.4
0
LINE
8
BLACK
6
CONTINUOUS
10
154.263
20
-143.4
11
153.853
21
-143.208
0
LINE
8
BLACK
6
CONTINUOUS
10
153.853
20
-143.208
11
153.459
21
-142.983
0
LINE
8
BLACK
6
CONTINUOUS
10
153.459
20
-142.983
11
153.084
21
-142.727
0
LINE
8
BLACK
6
CONTINUOUS
10
153.084
20
-142.727
11
152.732
21
-142.443
0
LINE
8
BLACK
6
CONTINUOUS
10
152.732
20
-142.443
11
152.732
21
-142.443
0
LINE
8
BLACK
6
CONTINUOUS
10
152.732
20
-142.443
11
138.141
21
-130.117
0
LINE
8
BLACK
6
CONTINUOUS
10
138.141
20
-130.117
11
122.934
21
-126.315
0
LINE
8
BLACK
6
CONTINUOUS
10
122.934
20
-126.315
11
102.121
21
-130.122
0
LINE
8
BLACK
6
CONTINUOUS
10
102.121
20
-130.122
11
102.121
21
-130.122
0
LINE
8
BLACK
6
CONTINUOUS
10
102.121
20
-130.122
11
101.715
21
-130.19
0
LINE
8
BLACK
6
CONTINUOUS
10
101.715
20
-130.19
11
101.302
21
-130.224
0
LINE
8
BLACK
6
CONTINUOUS
10
101.302
20
-130.224
11
100.887
21
-130.225
0
LINE
8
BLACK
6
CONTINUOUS
10
100.887
20
-130.225
11
100.474
21
-130.191
0
LINE
8
BLACK
6
CONTINUOUS
10
100.474
20
-130.191
11
100.066
21
-130.122
0
LINE
8
BLACK
6
CONTINUOUS
10
100.066
20
-130.122
11
99.664
21
-130.021
0
LINE
8
BLACK
6
CONTINUOUS
10
99.664
20
-130.021
11
99.272
21
-129.886
0
LINE
8
BLACK
6
CONTINUOUS
10
99.272
20
-129.886
11
98.8926
21
-129.72
0
LINE
8
BLACK
6
CONTINUOUS
10
98.8926
20
-129.72
11
98.5281
21
-129.523
0
LINE
8
BLACK
6
CONTINUOUS
10
98.5281
20
-129.523
11
98.1813
21
-129.296
0
LINE
8
BLACK
6
CONTINUOUS
10
98.1813
20
-129.296
11
97.8544
21
-129.041
0
LINE
8
BLACK
6
CONTINUOUS
10
97.8544
20
-129.041
11
97.5497
21
-128.76
0
LINE
8
BLACK
6
CONTINUOUS
10
97.5497
20
-128.76
11
97.2692
21
-128.455
0
LINE
8
BLACK
6
CONTINUOUS
10
97.2692
20
-128.455
11
97.0149
21
-128.128
0
LINE
8
BLACK
6
CONTINUOUS
10
97.0149
20
-128.128
11
96.7886
21
-127.781
0
LINE
8
BLACK
6
CONTINUOUS
10
96.7886
20
-127.781
11
96.5917
21
-127.416
0
LINE
8
BLACK
6
CONTINUOUS
10
96.5917
20
-127.416
11
96.4257
21
-127.037
0
LINE
8
BLACK
6
CONTINUOUS
10
96.4257
20
-127.037
11
96.4256
21
-127.037
0
LINE
8
BLACK
6
CONTINUOUS
10
96.4256
20
-127.037
11
96.423
21
-126.99
0
LINE
8
BLACK
6
CONTINUOUS
10
96.423
20
-126.99
11
96.4318
21
-126.977
0
LINE
8
BLACK
6
CONTINUOUS
10
96.4318
20
-126.977
11
95.9024
21
-125.515
0
LINE
8
BLACK
6
CONTINUOUS
10
95.9024
20
-125.515
11
95.9022
21
-125.513
0
LINE
8
BLACK
6
CONTINUOUS
10
95.9022
20
-125.513
11
95.9017
21
-125.513
0
LINE
8
BLACK
6
CONTINUOUS
10
95.9017
20
-125.513
11
95.9017
21
-125.513
0
LINE
8
BLACK
6
CONTINUOUS
10
95.9017
20
-125.513
11
95.8791
21
-125.445
0
LINE
8
BLACK
6
CONTINUOUS
10
95.8791
20
-125.445
11
95.8065
21
-125.321
0
LINE
8
BLACK
6
CONTINUOUS
10
95.8065
20
-125.321
11
95.7099
21
-125.215
0
LINE
8
BLACK
6
CONTINUOUS
10
95.7099
20
-125.215
11
95.5935
21
-125.131
0
LINE
8
BLACK
6
CONTINUOUS
10
95.5935
20
-125.131
11
95.4622
21
-125.073
0
LINE
8
BLACK
6
CONTINUOUS
10
95.4622
20
-125.073
11
95.3218
21
-125.043
0
LINE
8
BLACK
6
CONTINUOUS
10
95.3218
20
-125.043
11
95.25
21
-125.043
0
LINE
8
BLACK
6
CONTINUOUS
10
95.25
20
-125.043
11
27.94
21
-125.043
0
LINE
8
BLACK
6
CONTINUOUS
10
27.94
20
-125.043
11
27.4742
21
-125.025
0
LINE
8
BLACK
6
CONTINUOUS
10
27.4742
20
-125.025
11
27.0113
21
-124.97
0
LINE
8
BLACK
6
CONTINUOUS
10
27.0113
20
-124.97
11
26.5541
21
-124.878
0
LINE
8
BLACK
6
CONTINUOUS
10
26.5541
20
-124.878
11
26.1055
21
-124.751
0
LINE
8
BLACK
6
CONTINUOUS
10
26.1055
20
-124.751
11
25.6684
21
-124.59
0
LINE
8
BLACK
6
CONTINUOUS
10
25.6684
20
-124.59
11
25.2453
21
-124.394
0
LINE
8
BLACK
6
CONTINUOUS
10
25.2453
20
-124.394
11
24.839
21
-124.165
0
LINE
8
BLACK
6
CONTINUOUS
10
24.839
20
-124.165
11
24.4519
21
-123.906
0
LINE
8
BLACK
6
CONTINUOUS
10
24.4519
20
-123.906
11
24.0864
21
-123.616
0
LINE
8
BLACK
6
CONTINUOUS
10
24.0864
20
-123.616
11
23.7449
21
-123.299
0
LINE
8
BLACK
6
CONTINUOUS
10
23.7449
20
-123.299
11
23.4294
21
-122.956
0
LINE
8
BLACK
6
CONTINUOUS
10
23.4294
20
-122.956
11
23.142
21
-122.589
0
LINE
8
BLACK
6
CONTINUOUS
10
23.142
20
-122.589
11
22.8843
21
-122.2
0
LINE
8
BLACK
6
CONTINUOUS
10
22.8843
20
-122.2
11
22.6579
21
-121.793
0
LINE
8
BLACK
6
CONTINUOUS
10
22.6579
20
-121.793
11
22.4644
21
-121.368
0
LINE
8
BLACK
6
CONTINUOUS
10
22.4644
20
-121.368
11
22.3049
21
-120.93
0
LINE
8
BLACK
6
CONTINUOUS
10
22.3049
20
-120.93
11
22.1803
21
-120.481
0
LINE
8
BLACK
6
CONTINUOUS
10
22.1803
20
-120.481
11
22.1803
21
-120.481
0
LINE
8
BLACK
6
CONTINUOUS
10
22.1803
20
-120.481
11
22.1805
21
-120.479
0
LINE
8
BLACK
6
CONTINUOUS
10
22.1805
20
-120.479
11
22.1794
21
-120.477
0
LINE
8
BLACK
6
CONTINUOUS
10
22.1794
20
-120.477
11
13.6421
21
-70.4654
0
LINE
8
BLACK
6
CONTINUOUS
10
13.6421
20
-70.4654
11
13.6421
21
-70.465
0
LINE
8
BLACK
6
CONTINUOUS
10
13.6421
20
-70.465
11
13.5814
21
-70.0644
0
LINE
8
BLACK
6
CONTINUOUS
10
13.5814
20
-70.0644
11
13.5572
21
-69.6576
0
LINE
8
BLACK
6
CONTINUOUS
10
13.5572
20
-69.6576
11
13.5702
21
-69.2503
0
LINE
8
BLACK
6
CONTINUOUS
10
13.5702
20
-69.2503
11
13.6201
21
-68.8458
0
LINE
8
BLACK
6
CONTINUOUS
10
13.6201
20
-68.8458
11
13.7066
21
-68.4475
0
LINE
8
BLACK
6
CONTINUOUS
10
13.7066
20
-68.4475
11
13.829
21
-68.0588
0
LINE
8
BLACK
6
CONTINUOUS
10
13.829
20
-68.0588
11
13.9862
21
-67.6828
0
LINE
8
BLACK
6
CONTINUOUS
10
13.9862
20
-67.6828
11
14.1769
21
-67.3226
0
LINE
8
BLACK
6
CONTINUOUS
10
14.1769
20
-67.3226
11
14.3996
21
-66.9813
0
LINE
8
BLACK
6
CONTINUOUS
10
14.3996
20
-66.9813
11
14.6525
21
-66.6617
0
LINE
8
BLACK
6
CONTINUOUS
10
14.6525
20
-66.6617
11
14.9333
21
-66.3663
0
LINE
8
BLACK
6
CONTINUOUS
10
14.9333
20
-66.3663
11
15.2398
21
-66.0977
0
LINE
8
BLACK
6
CONTINUOUS
10
15.2398
20
-66.0977
11
15.5695
21
-65.8581
0
LINE
8
BLACK
6
CONTINUOUS
10
15.5695
20
-65.8581
11
15.9196
21
-65.6495
0
LINE
8
BLACK
6
CONTINUOUS
10
15.9196
20
-65.6495
11
16.2873
21
-65.4736
0
LINE
8
BLACK
6
CONTINUOUS
10
16.2873
20
-65.4736
11
16.6694
21
-65.3319
0
LINE
8
BLACK
6
CONTINUOUS
10
16.6694
20
-65.3319
11
17.0628
21
-65.2254
0
LINE
8
BLACK
6
CONTINUOUS
10
17.0628
20
-65.2254
11
17.0628
21
-65.2254
0
LINE
8
BLACK
6
CONTINUOUS
10
17.0628
20
-65.2254
11
17.0644
21
-65.2256
0
LINE
8
BLACK
6
CONTINUOUS
10
17.0644
20
-65.2256
11
17.0657
21
-65.2248
0
LINE
8
BLACK
6
CONTINUOUS
10
17.0657
20
-65.2248
11
31.2279
21
-62.6643
0
LINE
8
BLACK
6
CONTINUOUS
10
31.2279
20
-62.6643
11
31.3215
21
-62.6456
0
LINE
8
BLACK
6
CONTINUOUS
10
31.3215
20
-62.6456
11
31.5016
21
-62.579
0
LINE
8
BLACK
6
CONTINUOUS
10
31.5016
20
-62.579
11
31.669
21
-62.4849
0
LINE
8
BLACK
6
CONTINUOUS
10
31.669
20
-62.4849
11
31.8197
21
-62.3659
0
LINE
8
BLACK
6
CONTINUOUS
10
31.8197
20
-62.3659
11
31.95
21
-62.2247
0
LINE
8
BLACK
6
CONTINUOUS
10
31.95
20
-62.2247
11
32.0565
21
-62.0649
0
LINE
8
BLACK
6
CONTINUOUS
10
32.0565
20
-62.0649
11
32.1367
21
-61.8904
0
LINE
8
BLACK
6
CONTINUOUS
10
32.1367
20
-61.8904
11
32.1887
21
-61.7055
0
LINE
8
BLACK
6
CONTINUOUS
10
32.1887
20
-61.7055
11
32.211
21
-61.5148
0
LINE
8
BLACK
6
CONTINUOUS
10
32.211
20
-61.5148
11
32.2033
21
-61.3229
0
LINE
8
BLACK
6
CONTINUOUS
10
32.2033
20
-61.3229
11
32.1845
21
-61.2287
0
LINE
8
BLACK
6
CONTINUOUS
10
32.1845
20
-61.2287
11
32.1849
21
-61.2247
0
LINE
8
BLACK
6
CONTINUOUS
10
32.1849
20
-61.2247
11
32.1834
21
-61.2215
0
LINE
8
BLACK
6
CONTINUOUS
10
32.1834
20
-61.2215
11
31.6692
21
-56.0909
0
LINE
8
BLACK
6
CONTINUOUS
10
31.6692
20
-56.0909
11
31.6696
21
-56.0858
0
LINE
8
BLACK
6
CONTINUOUS
10
31.6696
20
-56.0858
11
31.6688
21
-56.0835
0
LINE
8
BLACK
6
CONTINUOUS
10
31.6688
20
-56.0835
11
31.6854
21
-55.733
0
LINE
8
BLACK
6
CONTINUOUS
10
31.6854
20
-55.733
11
31.735
21
-55.3856
0
LINE
8
BLACK
6
CONTINUOUS
10
31.735
20
-55.3856
11
31.8172
21
-55.0445
0
LINE
8
BLACK
6
CONTINUOUS
10
31.8172
20
-55.0445
11
31.9312
21
-54.7126
0
LINE
8
BLACK
6
CONTINUOUS
10
31.9312
20
-54.7126
11
32.0761
21
-54.393
0
LINE
8
BLACK
6
CONTINUOUS
10
32.0761
20
-54.393
11
32.2505
21
-54.0886
0
LINE
8
BLACK
6
CONTINUOUS
10
32.2505
20
-54.0886
11
32.4528
21
-53.8019
0
LINE
8
BLACK
6
CONTINUOUS
10
32.4528
20
-53.8019
11
32.6814
21
-53.5356
0
LINE
8
BLACK
6
CONTINUOUS
10
32.6814
20
-53.5356
11
32.934
21
-53.2921
0
LINE
8
BLACK
6
CONTINUOUS
10
32.934
20
-53.2921
11
33.2085
21
-53.0736
0
LINE
8
BLACK
6
CONTINUOUS
10
33.2085
20
-53.0736
11
33.5025
21
-52.8819
0
LINE
8
BLACK
6
CONTINUOUS
10
33.5025
20
-52.8819
11
33.8132
21
-52.7189
0
LINE
8
BLACK
6
CONTINUOUS
10
33.8132
20
-52.7189
11
34.1379
21
-52.5859
0
LINE
8
BLACK
6
CONTINUOUS
10
34.1379
20
-52.5859
11
34.4737
21
-52.4842
0
LINE
8
BLACK
6
CONTINUOUS
10
34.4737
20
-52.4842
11
34.4737
21
-52.4842
0
LINE
8
BLACK
6
CONTINUOUS
10
34.4737
20
-52.4842
11
34.4776
21
-52.4845
0
LINE
8
BLACK
6
CONTINUOUS
10
34.4776
20
-52.4845
11
34.4807
21
-52.4828
0
LINE
8
BLACK
6
CONTINUOUS
10
34.4807
20
-52.4828
11
49.264
21
-50.218
0
LINE
8
BLACK
6
CONTINUOUS
10
49.264
20
-50.218
11
49.3674
21
-50.2007
0
LINE
8
BLACK
6
CONTINUOUS
10
49.3674
20
-50.2007
11
49.5678
21
-50.137
0
LINE
8
BLACK
6
CONTINUOUS
10
49.5678
20
-50.137
11
49.757
21
-50.0454
0
LINE
8
BLACK
6
CONTINUOUS
10
49.757
20
-50.0454
11
49.9313
21
-49.9278
0
LINE
8
BLACK
6
CONTINUOUS
10
49.9313
20
-49.9278
11
50.0871
21
-49.7866
0
LINE
8
BLACK
6
CONTINUOUS
10
50.0871
20
-49.7866
11
50.2213
21
-49.6246
0
LINE
8
BLACK
6
CONTINUOUS
10
50.2213
20
-49.6246
11
50.331
21
-49.4452
0
LINE
8
BLACK
6
CONTINUOUS
10
50.331
20
-49.4452
11
50.414
21
-49.252
0
LINE
8
BLACK
6
CONTINUOUS
10
50.414
20
-49.252
11
50.4687
21
-49.049
0
LINE
8
BLACK
6
CONTINUOUS
10
50.4687
20
-49.049
11
50.494
21
-48.8403
0
LINE
8
BLACK
6
CONTINUOUS
10
50.494
20
-48.8403
11
50.4893
21
-48.63
0
LINE
8
BLACK
6
CONTINUOUS
10
50.4893
20
-48.63
11
50.472
21
-48.5263
0
LINE
8
BLACK
6
CONTINUOUS
10
50.472
20
-48.5263
11
50.4723
21
-48.5244
0
LINE
8
BLACK
6
CONTINUOUS
10
50.4723
20
-48.5244
11
50.4715
21
-48.5228
0
LINE
8
BLACK
6
CONTINUOUS
10
50.4715
20
-48.5228
11
49.2422
21
-38.076
0
LINE
8
BLACK
6
CONTINUOUS
10
49.2422
20
-38.076
11
49.2423
21
-38.0757
0
LINE
8
BLACK
6
CONTINUOUS
10
49.2423
20
-38.0757
11
49.2422
21
-38.0755
0
LINE
8
BLACK
6
CONTINUOUS
10
49.2422
20
-38.0755
11
49.2422
21
-38.0755
0
LINE
8
BLACK
6
CONTINUOUS
10
49.2422
20
-38.0755
11
49.2163
21
-37.6816
0
LINE
8
BLACK
6
CONTINUOUS
10
49.2163
20
-37.6816
11
49.226
21
-37.2869
0
LINE
8
BLACK
6
CONTINUOUS
10
49.226
20
-37.2869
11
49.2713
21
-36.8947
0
LINE
8
BLACK
6
CONTINUOUS
10
49.2713
20
-36.8947
11
49.3517
21
-36.5082
0
LINE
8
BLACK
6
CONTINUOUS
10
49.3517
20
-36.5082
11
49.4665
21
-36.1305
0
LINE
8
BLACK
6
CONTINUOUS
10
49.4665
20
-36.1305
11
49.6149
21
-35.7646
0
LINE
8
BLACK
6
CONTINUOUS
10
49.6149
20
-35.7646
11
49.7957
21
-35.4137
0
LINE
8
BLACK
6
CONTINUOUS
10
49.7957
20
-35.4137
11
50.0074
21
-35.0804
0
LINE
8
BLACK
6
CONTINUOUS
10
50.0074
20
-35.0804
11
50.2482
21
-34.7676
0
LINE
8
BLACK
6
CONTINUOUS
10
50.2482
20
-34.7676
11
50.5162
21
-34.4777
0
LINE
8
BLACK
6
CONTINUOUS
10
50.5162
20
-34.4777
11
50.8092
21
-34.2131
0
LINE
8
BLACK
6
CONTINUOUS
10
50.8092
20
-34.2131
11
51.1249
21
-33.976
0
LINE
8
BLACK
6
CONTINUOUS
10
51.1249
20
-33.976
11
51.4606
21
-33.7683
0
LINE
8
BLACK
6
CONTINUOUS
10
51.4606
20
-33.7683
11
51.8137
21
-33.5917
0
LINE
8
BLACK
6
CONTINUOUS
10
51.8137
20
-33.5917
11
52.1812
21
-33.4476
0
LINE
8
BLACK
6
CONTINUOUS
10
52.1812
20
-33.4476
11
52.5603
21
-33.3372
0
LINE
8
BLACK
6
CONTINUOUS
10
52.5603
20
-33.3372
11
52.5603
21
-33.3372
0
LINE
8
BLACK
6
CONTINUOUS
10
52.5603
20
-33.3372
11
52.5656
21
-33.3376
0
LINE
8
BLACK
6
CONTINUOUS
10
52.5656
20
-33.3376
11
52.5698
21
-33.3355
0
LINE
8
BLACK
6
CONTINUOUS
10
52.5698
20
-33.3355
11
68.2469
21
-31.6211
0
LINE
8
BLACK
6
CONTINUOUS
10
68.2469
20
-31.6211
11
68.3562
21
-31.6075
0
LINE
8
BLACK
6
CONTINUOUS
10
68.3562
20
-31.6075
11
68.5688
21
-31.546
0
LINE
8
BLACK
6
CONTINUOUS
10
68.5688
20
-31.546
11
68.7692
21
-31.452
0
LINE
8
BLACK
6
CONTINUOUS
10
68.7692
20
-31.452
11
68.9524
21
-31.3279
0
LINE
8
BLACK
6
CONTINUOUS
10
68.9524
20
-31.3279
11
69.1139
21
-31.1766
0
LINE
8
BLACK
6
CONTINUOUS
10
69.1139
20
-31.1766
11
69.2498
21
-31.0019
0
LINE
8
BLACK
6
CONTINUOUS
10
69.2498
20
-31.0019
11
69.3567
21
-30.8081
0
LINE
8
BLACK
6
CONTINUOUS
10
69.3567
20
-30.8081
11
69.4319
21
-30.5999
0
LINE
8
BLACK
6
CONTINUOUS
10
69.4319
20
-30.5999
11
69.4737
21
-30.3826
0
LINE
8
BLACK
6
CONTINUOUS
10
69.4737
20
-30.3826
11
69.4809
21
-30.1614
0
LINE
8
BLACK
6
CONTINUOUS
10
69.4809
20
-30.1614
11
69.4672
21
-30.0516
0
LINE
8
BLACK
6
CONTINUOUS
10
69.4672
20
-30.0516
11
69.4676
21
-30.0497
0
LINE
8
BLACK
6
CONTINUOUS
10
69.4676
20
-30.0497
11
69.4668
21
-30.048
0
LINE
8
BLACK
6
CONTINUOUS
10
69.4668
20
-30.048
11
69.0132
21
-24.1357
0
LINE
8
BLACK
6
CONTINUOUS
10
69.0132
20
-24.1357
11
69.0132
21
-24.1355
0
LINE
8
BLACK
6
CONTINUOUS
10
69.0132
20
-24.1355
11
69.0132
21
-24.1353
0
LINE
8
BLACK
6
CONTINUOUS
10
69.0132
20
-24.1353
11
69.0132
21
-24.1353
0
LINE
8
BLACK
6
CONTINUOUS
10
69.0132
20
-24.1353
11
69.0056
21
-23.7673
0
LINE
8
BLACK
6
CONTINUOUS
10
69.0056
20
-23.7673
11
69.0352
21
-23.4003
0
LINE
8
BLACK
6
CONTINUOUS
10
69.0352
20
-23.4003
11
69.1017
21
-23.0382
0
LINE
8
BLACK
6
CONTINUOUS
10
69.1017
20
-23.0382
11
69.2044
21
-22.6847
0
LINE
8
BLACK
6
CONTINUOUS
10
69.2044
20
-22.6847
11
69.3423
21
-22.3433
0
LINE
8
BLACK
6
CONTINUOUS
10
69.3423
20
-22.3433
11
69.514
21
-22.0177
0
LINE
8
BLACK
6
CONTINUOUS
10
69.514
20
-22.0177
11
69.7178
21
-21.711
0
LINE
8
BLACK
6
CONTINUOUS
10
69.7178
20
-21.711
11
69.9514
21
-21.4265
0
LINE
8
BLACK
6
CONTINUOUS
10
69.9514
20
-21.4265
11
70.2126
21
-21.1671
0
LINE
8
BLACK
6
CONTINUOUS
10
70.2126
20
-21.1671
11
70.4987
21
-20.9353
0
LINE
8
BLACK
6
CONTINUOUS
10
70.4987
20
-20.9353
11
70.8067
21
-20.7337
0
LINE
8
BLACK
6
CONTINUOUS
10
70.8067
20
-20.7337
11
71.1335
21
-20.5641
0
LINE
8
BLACK
6
CONTINUOUS
10
71.1335
20
-20.5641
11
71.4758
21
-20.4285
0
LINE
8
BLACK
6
CONTINUOUS
10
71.4758
20
-20.4285
11
71.83
21
-20.3281
0
LINE
8
BLACK
6
CONTINUOUS
10
71.83
20
-20.3281
11
72.1925
21
-20.264
0
LINE
8
BLACK
6
CONTINUOUS
10
72.1925
20
-20.264
11
72.1925
21
-20.264
0
LINE
8
BLACK
6
CONTINUOUS
10
72.1925
20
-20.264
11
72.1943
21
-20.2644
0
LINE
8
BLACK
6
CONTINUOUS
10
72.1943
20
-20.2644
11
72.1958
21
-20.2637
0
LINE
8
BLACK
6
CONTINUOUS
10
72.1958
20
-20.2637
11
100.832
21
-17.9592
0
LINE
8
BLACK
6
CONTINUOUS
10
100.832
20
-17.9592
11
100.832
21
-17.9593
0
LINE
8
BLACK
6
CONTINUOUS
10
100.832
20
-17.9593
11
101.22
21
-17.9293
0
LINE
8
BLACK
6
CONTINUOUS
10
101.22
20
-17.9293
11
101.612
21
-17.9359
0
LINE
8
BLACK
6
CONTINUOUS
10
101.035
20
-18.085
11
100.847
21
-18.1084
0
LINE
8
BLACK
6
CONTINUOUS
10
100.847
20
-18.1084
11
100.846
21
-18.1081
0
LINE
8
BLACK
6
CONTINUOUS
10
100.846
20
-18.1081
11
100.844
21
-18.1088
0
LINE
8
BLACK
6
CONTINUOUS
10
100.844
20
-18.1088
11
72.2095
21
-20.4131
0
LINE
8
BLACK
6
CONTINUOUS
10
72.2095
20
-20.4131
11
72.0358
21
-20.4348
0
LINE
8
BLACK
6
CONTINUOUS
10
72.0358
20
-20.4348
11
71.6913
21
-20.5138
0
LINE
8
BLACK
6
CONTINUOUS
10
71.6913
20
-20.5138
11
71.3565
21
-20.6273
0
LINE
8
BLACK
6
CONTINUOUS
10
71.3565
20
-20.6273
11
71.035
21
-20.7739
0
LINE
8
BLACK
6
CONTINUOUS
10
71.035
20
-20.7739
11
70.7298
21
-20.9523
0
LINE
8
BLACK
6
CONTINUOUS
10
70.7298
20
-20.9523
11
70.4443
21
-21.1606
0
LINE
8
BLACK
6
CONTINUOUS
10
70.4443
20
-21.1606
11
70.1813
21
-21.3967
0
LINE
8
BLACK
6
CONTINUOUS
10
70.1813
20
-21.3967
11
69.9434
21
-21.6582
0
LINE
8
BLACK
6
CONTINUOUS
10
69.9434
20
-21.6582
11
69.7332
21
-21.9423
0
LINE
8
BLACK
6
CONTINUOUS
10
69.7332
20
-21.9423
11
69.5528
21
-22.2462
0
LINE
8
BLACK
6
CONTINUOUS
10
69.5528
20
-22.2462
11
69.404
21
-22.5668
0
LINE
8
BLACK
6
CONTINUOUS
10
69.404
20
-22.5668
11
69.2883
21
-22.9007
0
LINE
8
BLACK
6
CONTINUOUS
10
69.2883
20
-22.9007
11
69.207
21
-23.2447
0
LINE
8
BLACK
6
CONTINUOUS
10
69.207
20
-23.2447
11
69.1608
21
-23.5951
0
LINE
8
BLACK
6
CONTINUOUS
10
69.1608
20
-23.5951
11
69.1502
21
-23.9484
0
LINE
8
BLACK
6
CONTINUOUS
10
69.1502
20
-23.9484
11
69.1628
21
-24.1247
0
LINE
8
BLACK
6
CONTINUOUS
10
69.1628
20
-24.1247
11
69.6164
21
-30.0366
0
LINE
8
BLACK
6
CONTINUOUS
10
69.6164
20
-30.0366
11
69.6163
21
-30.0377
0
LINE
8
BLACK
6
CONTINUOUS
10
69.6163
20
-30.0377
11
69.6278
21
-30.2547
0
LINE
8
BLACK
6
CONTINUOUS
10
69.6278
20
-30.2547
11
69.6079
21
-30.4758
0
LINE
8
BLACK
6
CONTINUOUS
10
69.6079
20
-30.4758
11
69.5567
21
-30.6919
0
LINE
8
BLACK
6
CONTINUOUS
10
69.5567
20
-30.6919
11
69.4753
21
-30.8984
0
LINE
8
BLACK
6
CONTINUOUS
10
69.4753
20
-30.8984
11
69.3653
21
-31.0913
0
LINE
8
BLACK
6
CONTINUOUS
10
69.3653
20
-31.0913
11
69.229
21
-31.2665
0
LINE
8
BLACK
6
CONTINUOUS
10
69.229
20
-31.2665
11
69.0691
21
-31.4206
0
LINE
8
BLACK
6
CONTINUOUS
10
69.0691
20
-31.4206
11
68.889
21
-31.5503
0
LINE
8
BLACK
6
CONTINUOUS
10
68.889
20
-31.5503
11
68.6922
21
-31.6531
0
LINE
8
BLACK
6
CONTINUOUS
10
68.6922
20
-31.6531
11
68.4828
21
-31.7269
0
LINE
8
BLACK
6
CONTINUOUS
10
68.4828
20
-31.7269
11
68.265
21
-31.77
0
LINE
8
BLACK
6
CONTINUOUS
10
68.265
20
-31.77
11
68.265
21
-31.77
0
LINE
8
BLACK
6
CONTINUOUS
10
68.265
20
-31.77
11
68.2644
21
-31.7699
0
LINE
8
BLACK
6
CONTINUOUS
10
68.2644
20
-31.7699
11
68.2639
21
-31.7702
0
LINE
8
BLACK
6
CONTINUOUS
10
68.2639
20
-31.7702
11
52.591
21
-33.4841
0
LINE
8
BLACK
6
CONTINUOUS
10
52.591
20
-33.4841
11
52.4103
21
-33.528
0
LINE
8
BLACK
6
CONTINUOUS
10
52.4103
20
-33.528
11
52.049
21
-33.6512
0
LINE
8
BLACK
6
CONTINUOUS
10
52.049
20
-33.6512
11
51.7004
21
-33.8063
0
LINE
8
BLACK
6
CONTINUOUS
10
51.7004
20
-33.8063
11
51.3671
21
-33.9923
0
LINE
8
BLACK
6
CONTINUOUS
10
51.3671
20
-33.9923
11
51.0519
21
-34.2075
0
LINE
8
BLACK
6
CONTINUOUS
10
51.0519
20
-34.2075
11
50.7574
21
-34.4502
0
LINE
8
BLACK
6
CONTINUOUS
10
50.7574
20
-34.4502
11
50.4859
21
-34.7185
0
LINE
8
BLACK
6
CONTINUOUS
10
50.4859
20
-34.7185
11
50.2397
21
-35.0102
0
LINE
8
BLACK
6
CONTINUOUS
10
50.2397
20
-35.0102
11
50.0208
21
-35.3228
0
LINE
8
BLACK
6
CONTINUOUS
10
50.0208
20
-35.3228
11
49.8309
21
-35.6538
0
LINE
8
BLACK
6
CONTINUOUS
10
49.8309
20
-35.6538
11
49.6717
21
-36.0007
0
LINE
8
BLACK
6
CONTINUOUS
10
49.6717
20
-36.0007
11
49.5443
21
-36.3604
0
LINE
8
BLACK
6
CONTINUOUS
10
49.5443
20
-36.3604
11
49.4498
21
-36.7302
0
LINE
8
BLACK
6
CONTINUOUS
10
49.4498
20
-36.7302
11
49.389
21
-37.107
0
LINE
8
BLACK
6
CONTINUOUS
10
49.389
20
-37.107
11
49.3624
21
-37.4877
0
LINE
8
BLACK
6
CONTINUOUS
10
49.3624
20
-37.4877
11
49.3702
21
-37.8693
0
LINE
8
BLACK
6
CONTINUOUS
10
49.3702
20
-37.8693
11
49.3912
21
-38.0588
0
LINE
8
BLACK
6
CONTINUOUS
10
49.3912
20
-38.0588
11
50.6205
21
-48.5052
0
LINE
8
BLACK
6
CONTINUOUS
10
50.6205
20
-48.5052
11
50.6204
21
-48.5064
0
LINE
8
BLACK
6
CONTINUOUS
10
50.6204
20
-48.5064
11
50.6416
21
-48.7318
0
LINE
8
BLACK
6
CONTINUOUS
10
50.6416
20
-48.7318
11
50.6303
21
-48.9627
0
LINE
8
BLACK
6
CONTINUOUS
10
50.6303
20
-48.9627
11
50.5862
21
-49.1896
0
LINE
8
BLACK
6
CONTINUOUS
10
50.5862
20
-49.1896
11
50.5103
21
-49.4079
0
LINE
8
BLACK
6
CONTINUOUS
10
50.5103
20
-49.4079
11
50.4041
21
-49.6132
0
LINE
8
BLACK
6
CONTINUOUS
10
50.4041
20
-49.6132
11
50.2697
21
-49.8013
0
LINE
8
BLACK
6
CONTINUOUS
10
50.2697
20
-49.8013
11
50.11
21
-49.9683
0
LINE
8
BLACK
6
CONTINUOUS
10
50.11
20
-49.9683
11
49.9281
21
-50.1109
0
LINE
8
BLACK
6
CONTINUOUS
10
49.9281
20
-50.1109
11
49.7277
21
-50.2262
0
LINE
8
BLACK
6
CONTINUOUS
10
49.7277
20
-50.2262
11
49.513
21
-50.3118
0
LINE
8
BLACK
6
CONTINUOUS
10
49.513
20
-50.3118
11
49.2883
21
-50.366
0
LINE
8
BLACK
6
CONTINUOUS
10
49.2883
20
-50.366
11
49.2883
21
-50.366
0
LINE
8
BLACK
6
CONTINUOUS
10
49.2883
20
-50.366
11
49.2878
21
-50.3659
0
LINE
8
BLACK
6
CONTINUOUS
10
49.2878
20
-50.3659
11
49.2874
21
-50.3661
0
LINE
8
BLACK
6
CONTINUOUS
10
49.2874
20
-50.3661
11
34.5069
21
-52.6305
0
LINE
8
BLACK
6
CONTINUOUS
10
34.5069
20
-52.6305
11
34.3343
21
-52.6741
0
LINE
8
BLACK
6
CONTINUOUS
10
34.3343
20
-52.6741
11
33.9931
21
-52.7981
0
LINE
8
BLACK
6
CONTINUOUS
10
33.9931
20
-52.7981
11
33.6663
21
-52.9562
0
LINE
8
BLACK
6
CONTINUOUS
10
33.6663
20
-52.9562
11
33.3572
21
-53.1467
0
LINE
8
BLACK
6
CONTINUOUS
10
33.3572
20
-53.1467
11
33.0691
21
-53.3676
0
LINE
8
BLACK
6
CONTINUOUS
10
33.0691
20
-53.3676
11
32.805
21
-53.6167
0
LINE
8
BLACK
6
CONTINUOUS
10
32.805
20
-53.6167
11
32.5675
21
-53.8913
0
LINE
8
BLACK
6
CONTINUOUS
10
32.5675
20
-53.8913
11
32.3592
21
-54.1886
0
LINE
8
BLACK
6
CONTINUOUS
10
32.3592
20
-54.1886
11
32.1823
21
-54.5056
0
LINE
8
BLACK
6
CONTINUOUS
10
32.1823
20
-54.5056
11
32.0384
21
-54.839
0
LINE
8
BLACK
6
CONTINUOUS
10
32.0384
20
-54.839
11
31.9292
21
-55.1852
0
LINE
8
BLACK
6
CONTINUOUS
10
31.9292
20
-55.1852
11
31.8558
21
-55.5408
0
LINE
8
BLACK
6
CONTINUOUS
10
31.8558
20
-55.5408
11
31.8189
21
-55.9019
0
LINE
8
BLACK
6
CONTINUOUS
10
31.8189
20
-55.9019
11
31.8188
21
-56.0797
0
LINE
8
BLACK
6
CONTINUOUS
10
31.8188
20
-56.0797
11
32.3326
21
-61.2065
0
LINE
8
BLACK
6
CONTINUOUS
10
32.3326
20
-61.2065
11
32.3325
21
-61.2076
0
LINE
8
BLACK
6
CONTINUOUS
10
32.3325
20
-61.2076
11
32.357
21
-61.4128
0
LINE
8
BLACK
6
CONTINUOUS
10
32.357
20
-61.4128
11
32.3488
21
-61.6276
0
LINE
8
BLACK
6
CONTINUOUS
10
32.3488
20
-61.6276
11
32.3071
21
-61.8385
0
LINE
8
BLACK
6
CONTINUOUS
10
32.3071
20
-61.8385
11
32.2329
21
-62.0403
0
LINE
8
BLACK
6
CONTINUOUS
10
32.2329
20
-62.0403
11
32.128
21
-62.228
0
LINE
8
BLACK
6
CONTINUOUS
10
32.128
20
-62.228
11
31.9951
21
-62.397
0
LINE
8
BLACK
6
CONTINUOUS
10
31.9951
20
-62.397
11
31.8374
21
-62.5431
0
LINE
8
BLACK
6
CONTINUOUS
10
31.8374
20
-62.5431
11
31.6587
21
-62.6627
0
LINE
8
BLACK
6
CONTINUOUS
10
31.6587
20
-62.6627
11
31.4636
21
-62.753
0
LINE
8
BLACK
6
CONTINUOUS
10
31.4636
20
-62.753
11
31.2567
21
-62.8115
0
LINE
8
BLACK
6
CONTINUOUS
10
31.2567
20
-62.8115
11
31.2567
21
-62.8115
0
LINE
8
BLACK
6
CONTINUOUS
10
31.2567
20
-62.8115
11
31.2559
21
-62.8115
0
LINE
8
BLACK
6
CONTINUOUS
10
31.2559
20
-62.8115
11
31.2553
21
-62.8118
0
LINE
8
BLACK
6
CONTINUOUS
10
31.2553
20
-62.8118
11
17.0938
21
-65.3722
0
LINE
8
BLACK
6
CONTINUOUS
10
17.0938
20
-65.3722
11
16.9028
21
-65.4146
0
LINE
8
BLACK
6
CONTINUOUS
10
16.9028
20
-65.4146
11
16.5273
21
-65.5348
0
LINE
8
BLACK
6
CONTINUOUS
10
16.5273
20
-65.5348
11
16.1642
21
-65.6886
0
LINE
8
BLACK
6
CONTINUOUS
10
16.1642
20
-65.6886
11
15.8167
21
-65.8749
0
LINE
8
BLACK
6
CONTINUOUS
10
15.8167
20
-65.8749
11
15.4875
21
-66.0919
0
LINE
8
BLACK
6
CONTINUOUS
10
15.4875
20
-66.0919
11
15.1794
21
-66.338
0
LINE
8
BLACK
6
CONTINUOUS
10
15.1794
20
-66.338
11
14.895
21
-66.6111
0
LINE
8
BLACK
6
CONTINUOUS
10
14.895
20
-66.6111
11
14.6365
21
-66.9089
0
LINE
8
BLACK
6
CONTINUOUS
10
14.6365
20
-66.9089
11
14.4063
21
-67.2289
0
LINE
8
BLACK
6
CONTINUOUS
10
14.4063
20
-67.2289
11
14.2061
21
-67.5686
0
LINE
8
BLACK
6
CONTINUOUS
10
14.2061
20
-67.5686
11
14.0376
21
-67.9251
0
LINE
8
BLACK
6
CONTINUOUS
10
14.0376
20
-67.9251
11
13.9022
21
-68.2955
0
LINE
8
BLACK
6
CONTINUOUS
10
13.9022
20
-68.2955
11
13.801
21
-68.6766
0
LINE
8
BLACK
6
CONTINUOUS
10
13.801
20
-68.6766
11
13.735
21
-69.0653
0
LINE
8
BLACK
6
CONTINUOUS
10
13.735
20
-69.0653
11
13.7045
21
-69.4584
0
LINE
8
BLACK
6
CONTINUOUS
10
13.7045
20
-69.4584
11
13.7099
21
-69.8527
0
LINE
8
BLACK
6
CONTINUOUS
10
13.7099
20
-69.8527
11
13.7512
21
-70.2448
0
LINE
8
BLACK
6
CONTINUOUS
10
13.7512
20
-70.2448
11
13.7896
21
-70.4382
0
LINE
8
BLACK
6
CONTINUOUS
10
13.7896
20
-70.4382
11
13.7896
21
-70.4382
0
LINE
8
BLACK
6
CONTINUOUS
10
13.7896
20
-70.4382
11
13.7894
21
-70.4393
0
LINE
8
BLACK
6
CONTINUOUS
10
13.7894
20
-70.4393
11
13.7899
21
-70.4402
0
LINE
8
BLACK
6
CONTINUOUS
10
13.7899
20
-70.4402
11
22.3268
21
-120.449
0
LINE
8
BLACK
6
CONTINUOUS
10
22.3268
20
-120.449
11
22.3784
21
-120.668
0
LINE
8
BLACK
6
CONTINUOUS
10
22.3784
20
-120.668
11
22.5171
21
-121.101
0
LINE
8
BLACK
6
CONTINUOUS
10
22.5171
20
-121.101
11
22.6894
21
-121.522
0
LINE
8
BLACK
6
CONTINUOUS
10
22.6894
20
-121.522
11
22.8943
21
-121.928
0
LINE
8
BLACK
6
CONTINUOUS
10
22.8943
20
-121.928
11
23.1306
21
-122.316
0
LINE
8
BLACK
6
CONTINUOUS
10
23.1306
20
-122.316
11
23.3967
21
-122.685
0
LINE
8
BLACK
6
CONTINUOUS
10
23.3967
20
-122.685
11
23.691
21
-123.032
0
LINE
8
BLACK
6
CONTINUOUS
10
23.691
20
-123.032
11
24.0116
21
-123.354
0
LINE
8
BLACK
6
CONTINUOUS
10
24.0116
20
-123.354
11
24.3567
21
-123.65
0
LINE
8
BLACK
6
CONTINUOUS
10
24.3567
20
-123.65
11
24.724
21
-123.918
0
LINE
8
BLACK
6
CONTINUOUS
10
24.724
20
-123.918
11
25.1112
21
-124.157
0
LINE
8
BLACK
6
CONTINUOUS
10
25.1112
20
-124.157
11
25.516
21
-124.364
0
LINE
8
BLACK
6
CONTINUOUS
10
25.516
20
-124.364
11
25.9359
21
-124.538
0
LINE
8
BLACK
6
CONTINUOUS
10
25.9359
20
-124.538
11
26.3682
21
-124.679
0
LINE
8
BLACK
6
CONTINUOUS
10
26.3682
20
-124.679
11
26.8103
21
-124.786
0
LINE
8
BLACK
6
CONTINUOUS
10
26.8103
20
-124.786
11
27.2593
21
-124.857
0
LINE
8
BLACK
6
CONTINUOUS
10
27.2593
20
-124.857
11
27.7126
21
-124.893
0
LINE
8
BLACK
6
CONTINUOUS
10
27.7126
20
-124.893
11
27.94
21
-124.893
0
LINE
8
BLACK
6
CONTINUOUS
10
27.94
20
-124.893
11
95.25
21
-124.893
0
LINE
8
BLACK
6
CONTINUOUS
10
95.25
20
-124.893
11
95.3986
21
-124.906
0
LINE
8
BLACK
6
CONTINUOUS
10
95.3986
20
-124.906
11
95.5424
21
-124.946
0
LINE
8
BLACK
6
CONTINUOUS
10
95.5424
20
-124.946
11
95.677
21
-125.01
0
LINE
8
BLACK
6
CONTINUOUS
10
95.677
20
-125.01
11
95.798
21
-125.097
0
LINE
8
BLACK
6
CONTINUOUS
10
95.798
20
-125.097
11
95.9016
21
-125.205
0
LINE
8
BLACK
6
CONTINUOUS
10
95.9016
20
-125.205
11
95.9845
21
-125.329
0
LINE
8
BLACK
6
CONTINUOUS
10
95.9845
20
-125.329
11
96.0431
21
-125.463
0
LINE
8
BLACK
6
CONTINUOUS
10
96.0431
20
-125.463
11
96.0434
21
-125.463
0
LINE
8
BLACK
6
CONTINUOUS
10
96.0434
20
-125.463
11
96.5905
21
-126.974
0
LINE
8
BLACK
6
CONTINUOUS
10
96.5905
20
-126.974
11
96.595
21
-127
0
LINE
8
BLACK
6
CONTINUOUS
10
96.595
20
-127
11
96.584
21
-127.03
0
LINE
8
BLACK
6
CONTINUOUS
10
96.584
20
-127.03
11
96.6384
21
-127.17
0
LINE
8
BLACK
6
CONTINUOUS
10
96.6384
20
-127.17
11
96.8147
21
-127.531
0
LINE
8
BLACK
6
CONTINUOUS
10
96.8147
20
-127.531
11
97.0203
21
-127.877
0
LINE
8
BLACK
6
CONTINUOUS
10
97.0203
20
-127.877
11
97.2538
21
-128.205
0
LINE
8
BLACK
6
CONTINUOUS
10
97.2538
20
-128.205
11
97.5136
21
-128.512
0
LINE
8
BLACK
6
CONTINUOUS
10
97.5136
20
-128.512
11
97.798
21
-128.797
0
LINE
8
BLACK
6
CONTINUOUS
10
97.798
20
-128.797
11
98.1048
21
-129.057
0
LINE
8
BLACK
6
CONTINUOUS
10
98.1048
20
-129.057
11
98.4322
21
-129.291
0
LINE
8
BLACK
6
CONTINUOUS
10
98.4322
20
-129.291
11
98.7777
21
-129.497
0
LINE
8
BLACK
6
CONTINUOUS
10
98.7777
20
-129.497
11
99.1392
21
-129.673
0
LINE
8
BLACK
6
CONTINUOUS
10
99.1392
20
-129.673
11
99.514
21
-129.82
0
LINE
8
BLACK
6
CONTINUOUS
10
99.514
20
-129.82
11
99.8996
21
-129.934
0
LINE
8
BLACK
6
CONTINUOUS
10
99.8996
20
-129.934
11
100.293
21
-130.017
0
LINE
8
BLACK
6
CONTINUOUS
10
100.293
20
-130.017
11
100.693
21
-130.066
0
LINE
8
BLACK
6
CONTINUOUS
10
100.693
20
-130.066
11
101.095
21
-130.083
0
LINE
8
BLACK
6
CONTINUOUS
10
101.095
20
-130.083
11
101.497
21
-130.066
0
LINE
8
BLACK
6
CONTINUOUS
10
101.497
20
-130.066
11
101.896
21
-130.016
0
LINE
8
BLACK
6
CONTINUOUS
10
101.896
20
-130.016
11
102.093
21
-129.975
0
LINE
8
BLACK
6
CONTINUOUS
10
102.093
20
-129.975
11
102.093
21
-129.975
0
LINE
8
BLACK
6
CONTINUOUS
10
102.093
20
-129.975
11
102.094
21
-129.975
0
LINE
8
BLACK
6
CONTINUOUS
10
102.094
20
-129.975
11
102.095
21
-129.974
0
LINE
8
BLACK
6
CONTINUOUS
10
102.095
20
-129.974
11
122.923
21
-126.164
0
LINE
8
BLACK
6
CONTINUOUS
10
122.923
20
-126.164
11
122.949
21
-126.164
0
LINE
8
BLACK
6
CONTINUOUS
10
122.949
20
-126.164
11
122.951
21
-126.166
0
LINE
8
BLACK
6
CONTINUOUS
10
122.951
20
-126.166
11
122.954
21
-126.165
0
LINE
8
BLACK
6
CONTINUOUS
10
122.954
20
-126.165
11
138.194
21
-129.975
0
LINE
8
BLACK
6
CONTINUOUS
10
138.194
20
-129.975
11
138.218
21
-129.986
0
LINE
8
BLACK
6
CONTINUOUS
10
138.218
20
-129.986
11
138.22
21
-129.989
0
LINE
8
BLACK
6
CONTINUOUS
10
138.22
20
-129.989
11
138.224
21
-129.991
0
LINE
8
BLACK
6
CONTINUOUS
10
138.224
20
-129.991
11
152.829
21
-142.328
0
LINE
8
BLACK
6
CONTINUOUS
10
152.829
20
-142.328
11
152.829
21
-142.329
0
LINE
8
BLACK
6
CONTINUOUS
10
152.829
20
-142.329
11
152.83
21
-142.329
0
LINE
8
BLACK
6
CONTINUOUS
10
152.83
20
-142.329
11
152.83
21
-142.329
0
LINE
8
BLACK
6
CONTINUOUS
10
152.83
20
-142.329
11
152.996
21
-142.475
0
LINE
8
BLACK
6
CONTINUOUS
10
152.996
20
-142.475
11
153.351
21
-142.738
0
LINE
8
BLACK
6
CONTINUOUS
10
153.351
20
-142.738
11
153.726
21
-142.973
0
LINE
8
BLACK
6
CONTINUOUS
10
153.726
20
-142.973
11
154.118
21
-143.176
0
LINE
8
BLACK
6
CONTINUOUS
10
154.118
20
-143.176
11
154.525
21
-143.348
0
LINE
8
BLACK
6
CONTINUOUS
10
154.525
20
-143.348
11
154.945
21
-143.486
0
LINE
8
BLACK
6
CONTINUOUS
10
154.945
20
-143.486
11
155.374
21
-143.591
0
LINE
8
BLACK
6
CONTINUOUS
10
155.374
20
-143.591
11
155.811
21
-143.66
0
LINE
8
BLACK
6
CONTINUOUS
10
155.811
20
-143.66
11
156.251
21
-143.695
0
LINE
8
BLACK
6
CONTINUOUS
10
156.251
20
-143.695
11
156.693
21
-143.694
0
LINE
8
BLACK
6
CONTINUOUS
10
156.693
20
-143.694
11
157.134
21
-143.658
0
LINE
8
BLACK
6
CONTINUOUS
10
157.134
20
-143.658
11
157.57
21
-143.587
0
LINE
8
BLACK
6
CONTINUOUS
10
157.57
20
-143.587
11
157.999
21
-143.482
0
LINE
8
BLACK
6
CONTINUOUS
10
157.999
20
-143.482
11
158.418
21
-143.342
0
LINE
8
BLACK
6
CONTINUOUS
10
158.418
20
-143.342
11
158.825
21
-143.169
0
LINE
8
BLACK
6
CONTINUOUS
10
158.825
20
-143.169
11
159.217
21
-142.964
0
LINE
8
BLACK
6
CONTINUOUS
10
159.217
20
-142.964
11
159.591
21
-142.729
0
LINE
8
BLACK
6
CONTINUOUS
10
159.591
20
-142.729
11
159.945
21
-142.464
0
LINE
8
BLACK
6
CONTINUOUS
10
159.945
20
-142.464
11
160.276
21
-142.172
0
LINE
8
BLACK
6
CONTINUOUS
10
160.276
20
-142.172
11
160.584
21
-141.855
0
LINE
8
BLACK
6
CONTINUOUS
10
160.584
20
-141.855
11
160.724
21
-141.684
0
LINE
8
BLACK
6
CONTINUOUS
10
160.724
20
-141.684
11
160.724
21
-141.684
0
LINE
8
BLACK
6
CONTINUOUS
10
160.724
20
-141.684
11
160.724
21
-141.684
0
LINE
8
BLACK
6
CONTINUOUS
10
160.724
20
-141.684
11
177.995
21
-120.858
0
LINE
8
BLACK
6
CONTINUOUS
10
177.995
20
-120.858
11
178.073
21
-120.753
0
LINE
8
BLACK
6
CONTINUOUS
10
178.073
20
-120.753
11
178.209
21
-120.526
0
LINE
8
BLACK
6
CONTINUOUS
10
178.209
20
-120.526
11
178.319
21
-120.285
0
LINE
8
BLACK
6
CONTINUOUS
10
178.319
20
-120.285
11
178.402
21
-120.034
0
LINE
8
BLACK
6
CONTINUOUS
10
178.402
20
-120.034
11
178.459
21
-119.775
0
LINE
8
BLACK
6
CONTINUOUS
10
178.459
20
-119.775
11
178.487
21
-119.512
0
LINE
8
BLACK
6
CONTINUOUS
10
178.487
20
-119.512
11
178.487
21
-119.38
0
LINE
8
BLACK
6
CONTINUOUS
10
178.487
20
-119.38
11
178.487
21
-119.38
0
LINE
8
BLACK
6
CONTINUOUS
10
178.487
20
-119.38
11
178.487
21
-35.052
0
LINE
8
BLACK
6
CONTINUOUS
10
178.487
20
-35.052
11
178.487
21
-35.052
0
LINE
8
BLACK
6
CONTINUOUS
10
178.487
20
-35.052
11
178.487
21
-34.9029
0
LINE
8
BLACK
6
CONTINUOUS
10
178.487
20
-34.9029
11
178.451
21
-34.6069
0
LINE
8
BLACK
6
CONTINUOUS
10
178.451
20
-34.6069
11
178.38
21
-34.3173
0
LINE
8
BLACK
6
CONTINUOUS
10
178.38
20
-34.3173
11
178.274
21
-34.0385
0
LINE
8
BLACK
6
CONTINUOUS
10
178.274
20
-34.0385
11
178.135
21
-33.7744
0
LINE
8
BLACK
6
CONTINUOUS
10
178.135
20
-33.7744
11
177.966
21
-33.529
0
LINE
8
BLACK
6
CONTINUOUS
10
177.966
20
-33.529
11
177.768
21
-33.3058
0
LINE
8
BLACK
6
CONTINUOUS
10
177.768
20
-33.3058
11
177.545
21
-33.108
0
LINE
8
BLACK
6
CONTINUOUS
10
177.545
20
-33.108
11
177.3
21
-32.9386
0
LINE
8
BLACK
6
CONTINUOUS
10
177.3
20
-32.9386
11
177.036
21
-32.8001
0
LINE
8
BLACK
6
CONTINUOUS
10
177.036
20
-32.8001
11
176.757
21
-32.6943
0
LINE
8
BLACK
6
CONTINUOUS
10
176.757
20
-32.6943
11
176.467
21
-32.6229
0
LINE
8
BLACK
6
CONTINUOUS
10
176.467
20
-32.6229
11
176.171
21
-32.587
0
LINE
8
BLACK
6
CONTINUOUS
10
176.171
20
-32.587
11
176.022
21
-32.587
0
LINE
8
BLACK
6
CONTINUOUS
10
176.022
20
-32.587
11
127.762
21
-32.587
0
LINE
8
BLACK
6
CONTINUOUS
10
127.762
20
-32.587
11
127.538
21
-32.5712
0
LINE
8
BLACK
6
CONTINUOUS
10
127.538
20
-32.5712
11
127.318
21
-32.5242
0
LINE
8
BLACK
6
CONTINUOUS
10
127.318
20
-32.5242
11
127.107
21
-32.4468
0
LINE
8
BLACK
6
CONTINUOUS
10
127.107
20
-32.4468
11
126.909
21
-32.3406
0
LINE
8
BLACK
6
CONTINUOUS
10
126.909
20
-32.3406
11
126.728
21
-32.2077
0
LINE
8
BLACK
6
CONTINUOUS
10
126.728
20
-32.2077
11
126.567
21
-32.0508
0
LINE
8
BLACK
6
CONTINUOUS
10
126.567
20
-32.0508
11
126.429
21
-31.8728
0
LINE
8
BLACK
6
CONTINUOUS
10
126.429
20
-31.8728
11
126.318
21
-31.6774
0
LINE
8
BLACK
6
CONTINUOUS
10
126.318
20
-31.6774
11
126.236
21
-31.4683
0
LINE
8
BLACK
6
CONTINUOUS
10
126.236
20
-31.4683
11
126.183
21
-31.2498
0
LINE
8
BLACK
6
CONTINUOUS
10
126.183
20
-31.2498
11
126.183
21
-31.2498
0
LINE
8
BLACK
6
CONTINUOUS
10
126.183
20
-31.2498
11
126.184
21
-31.2457
0
LINE
8
BLACK
6
CONTINUOUS
10
126.184
20
-31.2457
11
126.183
21
-31.2423
0
LINE
8
BLACK
6
CONTINUOUS
10
126.183
20
-31.2423
11
125.999
21
-28.4391
0
LINE
8
BLACK
6
CONTINUOUS
10
125.999
20
-28.4391
11
125.97
21
-28.3075
0
LINE
8
BLACK
6
CONTINUOUS
10
125.97
20
-28.3075
11
125.876
21
-28.0424
0
LINE
8
BLACK
6
CONTINUOUS
10
125.876
20
-28.0424
11
125.753
21
-27.7901
0
LINE
8
BLACK
6
CONTINUOUS
10
125.753
20
-27.7901
11
125.6
21
-27.5544
0
LINE
8
BLACK
6
CONTINUOUS
10
125.6
20
-27.5544
11
125.42
21
-27.3385
0
LINE
8
BLACK
6
CONTINUOUS
10
125.42
20
-27.3385
11
125.215
21
-27.1455
0
LINE
8
BLACK
6
CONTINUOUS
10
125.215
20
-27.1455
11
124.99
21
-26.9781
0
LINE
8
BLACK
6
CONTINUOUS
10
124.99
20
-26.9781
11
124.746
21
-26.8387
0
LINE
8
BLACK
6
CONTINUOUS
10
124.746
20
-26.8387
11
124.487
21
-26.7293
0
LINE
8
BLACK
6
CONTINUOUS
10
124.487
20
-26.7293
11
124.217
21
-26.6514
0
LINE
8
BLACK
6
CONTINUOUS
10
124.217
20
-26.6514
11
123.939
21
-26.6061
0
LINE
8
BLACK
6
CONTINUOUS
10
123.939
20
-26.6061
11
123.801
21
-26.6001
0
LINE
8
BLACK
6
CONTINUOUS
10
123.801
20
-26.6001
11
107.444
21
-26.999
0
LINE
8
BLACK
6
CONTINUOUS
10
107.444
20
-26.999
11
107.443
21
-26.9988
0
LINE
8
BLACK
6
CONTINUOUS
10
107.443
20
-26.9988
11
107.442
21
-26.999
0
LINE
8
BLACK
6
CONTINUOUS
10
107.442
20
-26.999
11
107.202
21
-26.9834
0
LINE
8
BLACK
6
CONTINUOUS
10
107.202
20
-26.9834
11
106.966
21
-26.9368
0
LINE
8
BLACK
6
CONTINUOUS
10
106.966
20
-26.9368
11
106.738
21
-26.8601
0
LINE
8
BLACK
6
CONTINUOUS
10
106.738
20
-26.8601
11
106.522
21
-26.7544
0
LINE
8
BLACK
6
CONTINUOUS
10
106.522
20
-26.7544
11
106.321
21
-26.6217
0
LINE
8
BLACK
6
CONTINUOUS
10
106.321
20
-26.6217
11
106.14
21
-26.4641
0
LINE
8
BLACK
6
CONTINUOUS
10
106.14
20
-26.4641
11
105.98
21
-26.2843
0
LINE
8
BLACK
6
CONTINUOUS
10
105.98
20
-26.2843
11
105.845
21
-26.0853
0
LINE
8
BLACK
6
CONTINUOUS
10
105.845
20
-26.0853
11
105.737
21
-25.8705
0
LINE
8
BLACK
6
CONTINUOUS
10
105.737
20
-25.8705
11
105.657
21
-25.6435
0
LINE
8
BLACK
6
CONTINUOUS
10
105.657
20
-25.6435
11
105.608
21
-25.4081
0
LINE
8
BLACK
6
CONTINUOUS
10
105.608
20
-25.4081
11
105.608
21
-25.4081
0
LINE
8
BLACK
6
CONTINUOUS
10
105.608
20
-25.4081
11
105.608
21
-25.4051
0
LINE
8
BLACK
6
CONTINUOUS
10
105.608
20
-25.4051
11
105.607
21
-25.4027
0
LINE
8
BLACK
6
CONTINUOUS
10
105.607
20
-25.4027
11
105.348
21
-21.7158
0
LINE
8
BLACK
6
CONTINUOUS
10
105.348
20
-21.7158
11
105.331
21
-21.5283
0
LINE
8
BLACK
6
CONTINUOUS
10
105.331
20
-21.5283
11
105.259
21
-21.1563
0
LINE
8
BLACK
6
CONTINUOUS
10
105.259
20
-21.1563
11
105.154
21
-20.7927
0
LINE
8
BLACK
6
CONTINUOUS
10
105.154
20
-20.7927
11
105.014
21
-20.4406
0
LINE
8
BLACK
6
CONTINUOUS
10
105.014
20
-20.4406
11
104.842
21
-20.1032
0
LINE
8
BLACK
6
CONTINUOUS
10
104.842
20
-20.1032
11
104.639
21
-19.7834
0
LINE
8
BLACK
6
CONTINUOUS
10
104.639
20
-19.7834
11
104.407
21
-19.4841
0
LINE
8
BLACK
6
CONTINUOUS
10
104.407
20
-19.4841
11
104.148
21
-19.208
0
LINE
8
BLACK
6
CONTINUOUS
10
104.148
20
-19.208
11
103.864
21
-18.9575
0
LINE
8
BLACK
6
CONTINUOUS
10
103.864
20
-18.9575
11
103.557
21
-18.7348
0
LINE
8
BLACK
6
CONTINUOUS
10
103.557
20
-18.7348
11
103.231
21
-18.5418
0
LINE
8
BLACK
6
CONTINUOUS
10
103.231
20
-18.5418
11
102.889
21
-18.3804
0
LINE
8
BLACK
6
CONTINUOUS
10
102.889
20
-18.3804
11
102.533
21
-18.2518
0
LINE
8
BLACK
6
CONTINUOUS
10
102.533
20
-18.2518
11
102.166
21
-18.1573
0
LINE
8
BLACK
6
CONTINUOUS
10
102.166
20
-18.1573
11
101.792
21
-18.0977
0
LINE
8
BLACK
6
CONTINUOUS
10
101.792
20
-18.0977
11
101.414
21
-18.0735
0
LINE
8
BLACK
6
CONTINUOUS
10
101.414
20
-18.0735
11
101.035
21
-18.085
  0
ENDSEC
  0
EOF
