  0
SECTION
  2
HEADER
  9
$ANGBASE
  50
0.0
  9
$ANGDIR
  70
1
  9
$MEASUREMENT
  70
1
  0
ENDSEC
  0
SECTION
  2
TABLES
  0
TABLE
  2
LTYPE
  70
4
  0
LTYPE
  5
40F
  2
CONTINUOUS
  70
0
  3
Solid line
  72
65
  73
0
  40
0.0
  0
LTYPE
  5
410
  2
DASHDOT
 70
0
  3
Dash Dot ____ _ ____ _
 72
65
 73
4
 40
2.0
 49
1.25
 49
-0.25
 49
0.25
 49
-0.25
  0
LTYPE
  5
411
  2
DASHED
 70
0
  3
Dashed __ __ __ __ __
 72
65
 73
2
 40
0.75
 49
0.5
 49
-0.25
  0
LTYPE
  5
43B
  2
DOTTED
 70
0
  3
Dotted .  .  .  .
 72
65
 73
2
 40
0.2
 49
0.0
 49
-0.2
  0
ENDTAB
  0
TABLE
  2
STYLE
  70
4
  0
STYLE
  2
KICAD
  70
0
  40
0
  41
1
  42
1
  50
0
  71
0
  3
isocp.shx
  0
STYLE
  2
KICADB
  70
0
  40
0
  41
1
  42
1
  50
0
  71
0
  3
isocp.shx
  0
STYLE
  2
KICADI
  70
0
  40
0
  41
1
  42
1
  50
15
  71
0
  3
isocp.shx
  0
STYLE
  2
KICADBI
  70
0
  40
0
  41
1
  42
1
  50
15
  71
0
  3
isocp.shx
  0
ENDTAB
  0
TABLE
  2
LAYER
  70
1
  0
LAYER
  2
BLACK
  70
0
  62
7
  6
CONTINUOUS
  0
ENDTAB
  0
ENDSEC
  0
SECTION
  2
ENTITIES
0
LINE
8
BLACK
6
CONTINUOUS
10
54.6728
20
-112.11
11
54.8538
21
-112.159
0
LINE
8
BLACK
6
CONTINUOUS
10
54.8538
20
-112.159
11
55.0236
21
-112.238
0
LINE
8
BLACK
6
CONTINUOUS
10
55.0236
20
-112.238
11
55.1771
21
-112.345
0
LINE
8
BLACK
6
CONTINUOUS
10
55.1771
20
-112.345
11
55.3095
21
-112.478
0
LINE
8
BLACK
6
CONTINUOUS
10
55.3095
20
-112.478
11
55.3096
21
-112.478
0
LINE
8
BLACK
6
CONTINUOUS
10
55.3096
20
-112.478
11
55.3096
21
-112.478
0
LINE
8
BLACK
6
CONTINUOUS
10
55.3096
20
-112.478
11
55.3096
21
-112.478
0
LINE
8
BLACK
6
CONTINUOUS
10
55.3096
20
-112.478
11
63.6659
21
-122.436
0
LINE
8
BLACK
6
CONTINUOUS
10
63.6659
20
-122.436
11
63.6659
21
-122.436
0
LINE
8
BLACK
6
CONTINUOUS
10
63.6659
20
-122.436
11
63.7734
21
-122.59
0
LINE
8
BLACK
6
CONTINUOUS
10
63.7734
20
-122.59
11
63.8525
21
-122.76
0
LINE
8
BLACK
6
CONTINUOUS
10
63.8525
20
-122.76
11
63.901
21
-122.941
0
LINE
8
BLACK
6
CONTINUOUS
10
63.901
20
-122.941
11
63.9174
21
-123.127
0
LINE
8
BLACK
6
CONTINUOUS
10
63.9174
20
-123.127
11
63.901
21
-123.314
0
LINE
8
BLACK
6
CONTINUOUS
10
63.901
20
-123.314
11
63.8525
21
-123.495
0
LINE
8
BLACK
6
CONTINUOUS
10
63.8525
20
-123.495
11
63.7734
21
-123.665
0
LINE
8
BLACK
6
CONTINUOUS
10
63.7734
20
-123.665
11
63.6659
21
-123.818
0
LINE
8
BLACK
6
CONTINUOUS
10
63.6659
20
-123.818
11
63.5334
21
-123.951
0
LINE
8
BLACK
6
CONTINUOUS
10
63.5334
20
-123.951
11
63.5334
21
-123.951
0
LINE
8
BLACK
6
CONTINUOUS
10
63.5334
20
-123.951
11
53.5748
21
-132.307
0
LINE
8
BLACK
6
CONTINUOUS
10
53.5748
20
-132.307
11
53.5748
21
-132.307
0
LINE
8
BLACK
6
CONTINUOUS
10
53.5748
20
-132.307
11
53.4213
21
-132.415
0
LINE
8
BLACK
6
CONTINUOUS
10
53.4213
20
-132.415
11
53.2515
21
-132.494
0
LINE
8
BLACK
6
CONTINUOUS
10
53.2515
20
-132.494
11
53.0705
21
-132.542
0
LINE
8
BLACK
6
CONTINUOUS
10
53.0705
20
-132.542
11
52.8838
21
-132.559
0
LINE
8
BLACK
6
CONTINUOUS
10
52.8838
20
-132.559
11
52.6971
21
-132.542
0
LINE
8
BLACK
6
CONTINUOUS
10
52.6971
20
-132.542
11
52.5161
21
-132.494
0
LINE
8
BLACK
6
CONTINUOUS
10
52.5161
20
-132.494
11
52.3463
21
-132.415
0
LINE
8
BLACK
6
CONTINUOUS
10
52.3463
20
-132.415
11
52.1928
21
-132.307
0
LINE
8
BLACK
6
CONTINUOUS
10
52.1928
20
-132.307
11
52.0603
21
-132.175
0
LINE
8
BLACK
6
CONTINUOUS
10
52.0603
20
-132.175
11
52.0603
21
-132.175
0
LINE
8
BLACK
6
CONTINUOUS
10
52.0603
20
-132.175
11
52.0603
21
-132.175
0
LINE
8
BLACK
6
CONTINUOUS
10
52.0603
20
-132.175
11
52.0603
21
-132.175
0
LINE
8
BLACK
6
CONTINUOUS
10
52.0603
20
-132.175
11
52.0603
21
-132.175
0
LINE
8
BLACK
6
CONTINUOUS
10
52.0603
20
-132.175
11
43.7041
21
-122.216
0
LINE
8
BLACK
6
CONTINUOUS
10
43.7041
20
-122.216
11
43.7041
21
-122.216
0
LINE
8
BLACK
6
CONTINUOUS
10
43.7041
20
-122.216
11
43.5966
21
-122.063
0
LINE
8
BLACK
6
CONTINUOUS
10
43.5966
20
-122.063
11
43.5174
21
-121.893
0
LINE
8
BLACK
6
CONTINUOUS
10
43.5174
20
-121.893
11
43.4689
21
-121.712
0
LINE
8
BLACK
6
CONTINUOUS
10
43.4689
20
-121.712
11
43.4526
21
-121.525
0
LINE
8
BLACK
6
CONTINUOUS
10
43.4526
20
-121.525
11
43.4689
21
-121.338
0
LINE
8
BLACK
6
CONTINUOUS
10
43.4689
20
-121.338
11
43.5174
21
-121.157
0
LINE
8
BLACK
6
CONTINUOUS
10
43.5174
20
-121.157
11
43.5966
21
-120.988
0
LINE
8
BLACK
6
CONTINUOUS
10
43.5966
20
-120.988
11
43.704
21
-120.834
0
LINE
8
BLACK
6
CONTINUOUS
10
43.704
20
-120.834
11
43.8365
21
-120.701
0
LINE
8
BLACK
6
CONTINUOUS
10
43.8365
20
-120.701
11
43.8366
21
-120.702
0
LINE
8
BLACK
6
CONTINUOUS
10
43.8366
20
-120.702
11
43.8366
21
-120.702
0
LINE
8
BLACK
6
CONTINUOUS
10
43.8366
20
-120.702
11
43.8366
21
-120.702
0
LINE
8
BLACK
6
CONTINUOUS
10
43.8366
20
-120.702
11
53.7951
21
-112.345
0
LINE
8
BLACK
6
CONTINUOUS
10
53.7951
20
-112.345
11
53.7951
21
-112.345
0
LINE
8
BLACK
6
CONTINUOUS
10
53.7951
20
-112.345
11
53.7951
21
-112.345
0
LINE
8
BLACK
6
CONTINUOUS
10
53.7951
20
-112.345
11
53.7951
21
-112.345
0
LINE
8
BLACK
6
CONTINUOUS
10
53.7951
20
-112.345
11
53.9486
21
-112.238
0
LINE
8
BLACK
6
CONTINUOUS
10
53.9486
20
-112.238
11
54.1185
21
-112.159
0
LINE
8
BLACK
6
CONTINUOUS
10
54.1185
20
-112.159
11
54.2995
21
-112.11
0
LINE
8
BLACK
6
CONTINUOUS
10
54.2995
20
-112.11
11
54.4861
21
-112.094
0
LINE
8
BLACK
6
CONTINUOUS
10
54.4861
20
-112.094
11
54.6728
21
-112.11
0
LINE
8
BLACK
6
CONTINUOUS
10
54.2458
20
-112.272
11
54.0937
21
-112.327
0
LINE
8
BLACK
6
CONTINUOUS
10
54.0937
20
-112.327
11
53.9535
21
-112.408
0
LINE
8
BLACK
6
CONTINUOUS
10
53.9535
20
-112.408
11
53.8916
21
-112.46
0
LINE
8
BLACK
6
CONTINUOUS
10
53.8916
20
-112.46
11
53.8916
21
-112.46
0
LINE
8
BLACK
6
CONTINUOUS
10
53.8916
20
-112.46
11
43.933
21
-120.816
0
LINE
8
BLACK
6
CONTINUOUS
10
43.933
20
-120.816
11
43.933
21
-120.816
0
LINE
8
BLACK
6
CONTINUOUS
10
43.933
20
-120.816
11
43.933
21
-120.816
0
LINE
8
BLACK
6
CONTINUOUS
10
43.933
20
-120.816
11
43.933
21
-120.816
0
LINE
8
BLACK
6
CONTINUOUS
10
43.933
20
-120.816
11
43.9328
21
-120.817
0
LINE
8
BLACK
6
CONTINUOUS
10
43.9328
20
-120.817
11
43.871
21
-120.868
0
LINE
8
BLACK
6
CONTINUOUS
10
43.871
20
-120.868
11
43.7669
21
-120.992
0
LINE
8
BLACK
6
CONTINUOUS
10
43.7669
20
-120.992
11
43.686
21
-121.133
0
LINE
8
BLACK
6
CONTINUOUS
10
43.686
20
-121.133
11
43.6307
21
-121.285
0
LINE
8
BLACK
6
CONTINUOUS
10
43.6307
20
-121.285
11
43.6026
21
-121.444
0
LINE
8
BLACK
6
CONTINUOUS
10
43.6026
20
-121.444
11
43.6026
21
-121.606
0
LINE
8
BLACK
6
CONTINUOUS
10
43.6026
20
-121.606
11
43.6307
21
-121.765
0
LINE
8
BLACK
6
CONTINUOUS
10
43.6307
20
-121.765
11
43.686
21
-121.917
0
LINE
8
BLACK
6
CONTINUOUS
10
43.686
20
-121.917
11
43.7669
21
-122.058
0
LINE
8
BLACK
6
CONTINUOUS
10
43.7669
20
-122.058
11
43.819
21
-122.12
0
LINE
8
BLACK
6
CONTINUOUS
10
43.819
20
-122.12
11
52.1752
21
-132.078
0
LINE
8
BLACK
6
CONTINUOUS
10
52.1752
20
-132.078
11
52.1752
21
-132.078
0
LINE
8
BLACK
6
CONTINUOUS
10
52.1752
20
-132.078
11
52.1752
21
-132.078
0
LINE
8
BLACK
6
CONTINUOUS
10
52.1752
20
-132.078
11
52.2272
21
-132.14
0
LINE
8
BLACK
6
CONTINUOUS
10
52.2272
20
-132.14
11
52.3512
21
-132.244
0
LINE
8
BLACK
6
CONTINUOUS
10
52.3512
20
-132.244
11
52.4914
21
-132.325
0
LINE
8
BLACK
6
CONTINUOUS
10
52.4914
20
-132.325
11
52.6435
21
-132.38
0
LINE
8
BLACK
6
CONTINUOUS
10
52.6435
20
-132.38
11
52.8029
21
-132.409
0
LINE
8
BLACK
6
CONTINUOUS
10
52.8029
20
-132.409
11
52.9647
21
-132.409
0
LINE
8
BLACK
6
CONTINUOUS
10
52.9647
20
-132.409
11
53.1241
21
-132.38
0
LINE
8
BLACK
6
CONTINUOUS
10
53.1241
20
-132.38
11
53.2762
21
-132.325
0
LINE
8
BLACK
6
CONTINUOUS
10
53.2762
20
-132.325
11
53.4164
21
-132.244
0
LINE
8
BLACK
6
CONTINUOUS
10
53.4164
20
-132.244
11
53.4784
21
-132.192
0
LINE
8
BLACK
6
CONTINUOUS
10
53.4784
20
-132.192
11
53.4784
21
-132.192
0
LINE
8
BLACK
6
CONTINUOUS
10
53.4784
20
-132.192
11
63.437
21
-123.836
0
LINE
8
BLACK
6
CONTINUOUS
10
63.437
20
-123.836
11
63.437
21
-123.836
0
LINE
8
BLACK
6
CONTINUOUS
10
63.437
20
-123.836
11
63.4989
21
-123.784
0
LINE
8
BLACK
6
CONTINUOUS
10
63.4989
20
-123.784
11
63.603
21
-123.66
0
LINE
8
BLACK
6
CONTINUOUS
10
63.603
20
-123.66
11
63.6839
21
-123.52
0
LINE
8
BLACK
6
CONTINUOUS
10
63.6839
20
-123.52
11
63.7393
21
-123.368
0
LINE
8
BLACK
6
CONTINUOUS
10
63.7393
20
-123.368
11
63.7674
21
-123.208
0
LINE
8
BLACK
6
CONTINUOUS
10
63.7674
20
-123.208
11
63.7674
21
-123.046
0
LINE
8
BLACK
6
CONTINUOUS
10
63.7674
20
-123.046
11
63.7393
21
-122.887
0
LINE
8
BLACK
6
CONTINUOUS
10
63.7393
20
-122.887
11
63.6839
21
-122.735
0
LINE
8
BLACK
6
CONTINUOUS
10
63.6839
20
-122.735
11
63.603
21
-122.595
0
LINE
8
BLACK
6
CONTINUOUS
10
63.603
20
-122.595
11
63.551
21
-122.533
0
LINE
8
BLACK
6
CONTINUOUS
10
63.551
20
-122.533
11
55.1947
21
-112.574
0
LINE
8
BLACK
6
CONTINUOUS
10
55.1947
20
-112.574
11
55.1947
21
-112.574
0
LINE
8
BLACK
6
CONTINUOUS
10
55.1947
20
-112.574
11
55.1947
21
-112.574
0
LINE
8
BLACK
6
CONTINUOUS
10
55.1947
20
-112.574
11
55.1427
21
-112.512
0
LINE
8
BLACK
6
CONTINUOUS
10
55.1427
20
-112.512
11
55.0187
21
-112.408
0
LINE
8
BLACK
6
CONTINUOUS
10
55.0187
20
-112.408
11
54.8785
21
-112.327
0
LINE
8
BLACK
6
CONTINUOUS
10
54.8785
20
-112.327
11
54.7264
21
-112.272
0
LINE
8
BLACK
6
CONTINUOUS
10
54.7264
20
-112.272
11
54.567
21
-112.244
0
LINE
8
BLACK
6
CONTINUOUS
10
54.567
20
-112.244
11
54.4052
21
-112.244
0
LINE
8
BLACK
6
CONTINUOUS
10
54.4052
20
-112.244
11
54.2458
21
-112.272
0
LINE
8
BLACK
6
CONTINUOUS
10
79.3799
20
-102.928
11
79.556
21
-102.992
0
LINE
8
BLACK
6
CONTINUOUS
10
79.556
20
-102.992
11
79.7183
21
-103.085
0
LINE
8
BLACK
6
CONTINUOUS
10
79.7183
20
-103.085
11
79.8618
21
-103.206
0
LINE
8
BLACK
6
CONTINUOUS
10
79.8618
20
-103.206
11
79.9823
21
-103.349
0
LINE
8
BLACK
6
CONTINUOUS
10
79.9823
20
-103.349
11
80.076
21
-103.512
0
LINE
8
BLACK
6
CONTINUOUS
10
80.076
20
-103.512
11
80.1401
21
-103.688
0
LINE
8
BLACK
6
CONTINUOUS
10
80.1401
20
-103.688
11
80.14
21
-103.688
0
LINE
8
BLACK
6
CONTINUOUS
10
80.14
20
-103.688
11
80.14
21
-103.688
0
LINE
8
BLACK
6
CONTINUOUS
10
80.14
20
-103.688
11
80.14
21
-103.688
0
LINE
8
BLACK
6
CONTINUOUS
10
80.14
20
-103.688
11
83.5047
21
-116.245
0
LINE
8
BLACK
6
CONTINUOUS
10
83.5047
20
-116.245
11
83.5047
21
-116.245
0
LINE
8
BLACK
6
CONTINUOUS
10
83.5047
20
-116.245
11
83.5047
21
-116.245
0
LINE
8
BLACK
6
CONTINUOUS
10
83.5047
20
-116.245
11
83.5047
21
-116.245
0
LINE
8
BLACK
6
CONTINUOUS
10
83.5047
20
-116.245
11
83.5372
21
-116.429
0
LINE
8
BLACK
6
CONTINUOUS
10
83.5372
20
-116.429
11
83.5372
21
-116.617
0
LINE
8
BLACK
6
CONTINUOUS
10
83.5372
20
-116.617
11
83.5047
21
-116.801
0
LINE
8
BLACK
6
CONTINUOUS
10
83.5047
20
-116.801
11
83.4406
21
-116.977
0
LINE
8
BLACK
6
CONTINUOUS
10
83.4406
20
-116.977
11
83.3469
21
-117.14
0
LINE
8
BLACK
6
CONTINUOUS
10
83.3469
20
-117.14
11
83.2264
21
-117.283
0
LINE
8
BLACK
6
CONTINUOUS
10
83.2264
20
-117.283
11
83.0829
21
-117.404
0
LINE
8
BLACK
6
CONTINUOUS
10
83.0829
20
-117.404
11
82.9206
21
-117.497
0
LINE
8
BLACK
6
CONTINUOUS
10
82.9206
20
-117.497
11
82.7446
21
-117.561
0
LINE
8
BLACK
6
CONTINUOUS
10
82.7446
20
-117.561
11
82.7445
21
-117.561
0
LINE
8
BLACK
6
CONTINUOUS
10
82.7445
20
-117.561
11
82.7445
21
-117.561
0
LINE
8
BLACK
6
CONTINUOUS
10
82.7445
20
-117.561
11
70.1875
21
-120.926
0
LINE
8
BLACK
6
CONTINUOUS
10
70.1875
20
-120.926
11
70.1875
21
-120.926
0
LINE
8
BLACK
6
CONTINUOUS
10
70.1875
20
-120.926
11
70.1875
21
-120.926
0
LINE
8
BLACK
6
CONTINUOUS
10
70.1875
20
-120.926
11
70.003
21
-120.959
0
LINE
8
BLACK
6
CONTINUOUS
10
70.003
20
-120.959
11
69.8156
21
-120.959
0
LINE
8
BLACK
6
CONTINUOUS
10
69.8156
20
-120.959
11
69.6311
21
-120.926
0
LINE
8
BLACK
6
CONTINUOUS
10
69.6311
20
-120.926
11
69.455
21
-120.862
0
LINE
8
BLACK
6
CONTINUOUS
10
69.455
20
-120.862
11
69.2927
21
-120.768
0
LINE
8
BLACK
6
CONTINUOUS
10
69.2927
20
-120.768
11
69.1492
21
-120.648
0
LINE
8
BLACK
6
CONTINUOUS
10
69.1492
20
-120.648
11
69.0287
21
-120.504
0
LINE
8
BLACK
6
CONTINUOUS
10
69.0287
20
-120.504
11
68.935
21
-120.342
0
LINE
8
BLACK
6
CONTINUOUS
10
68.935
20
-120.342
11
68.871
21
-120.166
0
LINE
8
BLACK
6
CONTINUOUS
10
68.871
20
-120.166
11
68.8709
21
-120.166
0
LINE
8
BLACK
6
CONTINUOUS
10
68.8709
20
-120.166
11
65.5063
21
-107.609
0
LINE
8
BLACK
6
CONTINUOUS
10
65.5063
20
-107.609
11
65.5063
21
-107.609
0
LINE
8
BLACK
6
CONTINUOUS
10
65.5063
20
-107.609
11
65.5063
21
-107.609
0
LINE
8
BLACK
6
CONTINUOUS
10
65.5063
20
-107.609
11
65.5063
21
-107.609
0
LINE
8
BLACK
6
CONTINUOUS
10
65.5063
20
-107.609
11
65.5063
21
-107.609
0
LINE
8
BLACK
6
CONTINUOUS
10
65.5063
20
-107.609
11
65.4737
21
-107.424
0
LINE
8
BLACK
6
CONTINUOUS
10
65.4737
20
-107.424
11
65.4737
21
-107.237
0
LINE
8
BLACK
6
CONTINUOUS
10
65.4737
20
-107.237
11
65.5062
21
-107.052
0
LINE
8
BLACK
6
CONTINUOUS
10
65.5062
20
-107.052
11
65.5703
21
-106.876
0
LINE
8
BLACK
6
CONTINUOUS
10
65.5703
20
-106.876
11
65.664
21
-106.714
0
LINE
8
BLACK
6
CONTINUOUS
10
65.664
20
-106.714
11
65.7845
21
-106.571
0
LINE
8
BLACK
6
CONTINUOUS
10
65.7845
20
-106.571
11
65.928
21
-106.45
0
LINE
8
BLACK
6
CONTINUOUS
10
65.928
20
-106.45
11
66.0903
21
-106.356
0
LINE
8
BLACK
6
CONTINUOUS
10
66.0903
20
-106.356
11
66.2664
21
-106.292
0
LINE
8
BLACK
6
CONTINUOUS
10
66.2664
20
-106.292
11
66.2664
21
-106.292
0
LINE
8
BLACK
6
CONTINUOUS
10
66.2664
20
-106.292
11
66.2664
21
-106.292
0
LINE
8
BLACK
6
CONTINUOUS
10
66.2664
20
-106.292
11
78.8234
21
-102.928
0
LINE
8
BLACK
6
CONTINUOUS
10
78.8234
20
-102.928
11
78.8234
21
-102.928
0
LINE
8
BLACK
6
CONTINUOUS
10
78.8234
20
-102.928
11
79.008
21
-102.895
0
LINE
8
BLACK
6
CONTINUOUS
10
79.008
20
-102.895
11
79.1954
21
-102.895
0
LINE
8
BLACK
6
CONTINUOUS
10
79.1954
20
-102.895
11
79.3799
21
-102.928
0
LINE
8
BLACK
6
CONTINUOUS
10
78.9404
20
-103.052
11
78.8623
21
-103.073
0
LINE
8
BLACK
6
CONTINUOUS
10
78.8623
20
-103.073
11
78.8623
21
-103.073
0
LINE
8
BLACK
6
CONTINUOUS
10
78.8623
20
-103.073
11
78.8623
21
-103.073
0
LINE
8
BLACK
6
CONTINUOUS
10
78.8623
20
-103.073
11
66.3052
21
-106.437
0
LINE
8
BLACK
6
CONTINUOUS
10
66.3052
20
-106.437
11
66.3052
21
-106.437
0
LINE
8
BLACK
6
CONTINUOUS
10
66.3052
20
-106.437
11
66.3052
21
-106.437
0
LINE
8
BLACK
6
CONTINUOUS
10
66.3052
20
-106.437
11
66.3051
21
-106.437
0
LINE
8
BLACK
6
CONTINUOUS
10
66.3051
20
-106.437
11
66.227
21
-106.458
0
LINE
8
BLACK
6
CONTINUOUS
10
66.227
20
-106.458
11
66.0804
21
-106.527
0
LINE
8
BLACK
6
CONTINUOUS
10
66.0804
20
-106.527
11
65.9478
21
-106.619
0
LINE
8
BLACK
6
CONTINUOUS
10
65.9478
20
-106.619
11
65.8333
21
-106.734
0
LINE
8
BLACK
6
CONTINUOUS
10
65.8333
20
-106.734
11
65.7405
21
-106.866
0
LINE
8
BLACK
6
CONTINUOUS
10
65.7405
20
-106.866
11
65.6721
21
-107.013
0
LINE
8
BLACK
6
CONTINUOUS
10
65.6721
20
-107.013
11
65.6302
21
-107.169
0
LINE
8
BLACK
6
CONTINUOUS
10
65.6302
20
-107.169
11
65.6161
21
-107.331
0
LINE
8
BLACK
6
CONTINUOUS
10
65.6161
20
-107.331
11
65.6302
21
-107.492
0
LINE
8
BLACK
6
CONTINUOUS
10
65.6302
20
-107.492
11
65.6512
21
-107.57
0
LINE
8
BLACK
6
CONTINUOUS
10
65.6512
20
-107.57
11
65.6512
21
-107.57
0
LINE
8
BLACK
6
CONTINUOUS
10
65.6512
20
-107.57
11
65.6512
21
-107.57
0
LINE
8
BLACK
6
CONTINUOUS
10
65.6512
20
-107.57
11
69.0158
21
-120.127
0
LINE
8
BLACK
6
CONTINUOUS
10
69.0158
20
-120.127
11
69.0158
21
-120.127
0
LINE
8
BLACK
6
CONTINUOUS
10
69.0158
20
-120.127
11
69.0158
21
-120.127
0
LINE
8
BLACK
6
CONTINUOUS
10
69.0158
20
-120.127
11
69.0158
21
-120.127
0
LINE
8
BLACK
6
CONTINUOUS
10
69.0158
20
-120.127
11
69.0368
21
-120.205
0
LINE
8
BLACK
6
CONTINUOUS
10
69.0368
20
-120.205
11
69.1052
21
-120.352
0
LINE
8
BLACK
6
CONTINUOUS
10
69.1052
20
-120.352
11
69.198
21
-120.485
0
LINE
8
BLACK
6
CONTINUOUS
10
69.198
20
-120.485
11
69.3125
21
-120.599
0
LINE
8
BLACK
6
CONTINUOUS
10
69.3125
20
-120.599
11
69.445
21
-120.692
0
LINE
8
BLACK
6
CONTINUOUS
10
69.445
20
-120.692
11
69.5917
21
-120.76
0
LINE
8
BLACK
6
CONTINUOUS
10
69.5917
20
-120.76
11
69.7481
21
-120.802
0
LINE
8
BLACK
6
CONTINUOUS
10
69.7481
20
-120.802
11
69.9093
21
-120.816
0
LINE
8
BLACK
6
CONTINUOUS
10
69.9093
20
-120.816
11
70.0705
21
-120.802
0
LINE
8
BLACK
6
CONTINUOUS
10
70.0705
20
-120.802
11
70.1487
21
-120.781
0
LINE
8
BLACK
6
CONTINUOUS
10
70.1487
20
-120.781
11
70.1487
21
-120.781
0
LINE
8
BLACK
6
CONTINUOUS
10
70.1487
20
-120.781
11
82.7057
21
-117.417
0
LINE
8
BLACK
6
CONTINUOUS
10
82.7057
20
-117.417
11
82.7057
21
-117.417
0
LINE
8
BLACK
6
CONTINUOUS
10
82.7057
20
-117.417
11
82.7839
21
-117.396
0
LINE
8
BLACK
6
CONTINUOUS
10
82.7839
20
-117.396
11
82.9306
21
-117.327
0
LINE
8
BLACK
6
CONTINUOUS
10
82.9306
20
-117.327
11
83.0632
21
-117.234
0
LINE
8
BLACK
6
CONTINUOUS
10
83.0632
20
-117.234
11
83.1776
21
-117.12
0
LINE
8
BLACK
6
CONTINUOUS
10
83.1776
20
-117.12
11
83.2704
21
-116.987
0
LINE
8
BLACK
6
CONTINUOUS
10
83.2704
20
-116.987
11
83.3388
21
-116.841
0
LINE
8
BLACK
6
CONTINUOUS
10
83.3388
20
-116.841
11
83.3807
21
-116.684
0
LINE
8
BLACK
6
CONTINUOUS
10
83.3807
20
-116.684
11
83.3948
21
-116.523
0
LINE
8
BLACK
6
CONTINUOUS
10
83.3948
20
-116.523
11
83.3807
21
-116.362
0
LINE
8
BLACK
6
CONTINUOUS
10
83.3807
20
-116.362
11
83.3598
21
-116.284
0
LINE
8
BLACK
6
CONTINUOUS
10
83.3598
20
-116.284
11
83.3598
21
-116.284
0
LINE
8
BLACK
6
CONTINUOUS
10
83.3598
20
-116.284
11
79.9952
21
-103.727
0
LINE
8
BLACK
6
CONTINUOUS
10
79.9952
20
-103.727
11
79.9952
21
-103.727
0
LINE
8
BLACK
6
CONTINUOUS
10
79.9952
20
-103.727
11
79.9952
21
-103.727
0
LINE
8
BLACK
6
CONTINUOUS
10
79.9952
20
-103.727
11
79.9952
21
-103.727
0
LINE
8
BLACK
6
CONTINUOUS
10
79.9952
20
-103.727
11
79.9951
21
-103.726
0
LINE
8
BLACK
6
CONTINUOUS
10
79.9951
20
-103.726
11
79.9742
21
-103.649
0
LINE
8
BLACK
6
CONTINUOUS
10
79.9742
20
-103.649
11
79.9058
21
-103.502
0
LINE
8
BLACK
6
CONTINUOUS
10
79.9058
20
-103.502
11
79.813
21
-103.369
0
LINE
8
BLACK
6
CONTINUOUS
10
79.813
20
-103.369
11
79.6985
21
-103.255
0
LINE
8
BLACK
6
CONTINUOUS
10
79.6985
20
-103.255
11
79.566
21
-103.162
0
LINE
8
BLACK
6
CONTINUOUS
10
79.566
20
-103.162
11
79.4193
21
-103.094
0
LINE
8
BLACK
6
CONTINUOUS
10
79.4193
20
-103.094
11
79.2629
21
-103.052
0
LINE
8
BLACK
6
CONTINUOUS
10
79.2629
20
-103.052
11
79.1017
21
-103.038
0
LINE
8
BLACK
6
CONTINUOUS
10
79.1017
20
-103.038
11
78.9404
21
-103.052
0
LINE
8
BLACK
6
CONTINUOUS
10
92.684
20
-102.713
11
92.6843
21
-102.713
0
LINE
8
BLACK
6
CONTINUOUS
10
92.6843
20
-102.713
11
105.487
21
-104.97
0
LINE
8
BLACK
6
CONTINUOUS
10
105.487
20
-104.97
11
105.487
21
-104.97
0
LINE
8
BLACK
6
CONTINUOUS
10
105.487
20
-104.97
11
105.668
21
-105.018
0
LINE
8
BLACK
6
CONTINUOUS
10
105.668
20
-105.018
11
105.838
21
-105.098
0
LINE
8
BLACK
6
CONTINUOUS
10
105.838
20
-105.098
11
105.991
21
-105.205
0
LINE
8
BLACK
6
CONTINUOUS
10
105.991
20
-105.205
11
106.124
21
-105.338
0
LINE
8
BLACK
6
CONTINUOUS
10
106.124
20
-105.338
11
106.231
21
-105.491
0
LINE
8
BLACK
6
CONTINUOUS
10
106.231
20
-105.491
11
106.31
21
-105.661
0
LINE
8
BLACK
6
CONTINUOUS
10
106.31
20
-105.661
11
106.359
21
-105.842
0
LINE
8
BLACK
6
CONTINUOUS
10
106.359
20
-105.842
11
106.375
21
-106.029
0
LINE
8
BLACK
6
CONTINUOUS
10
106.375
20
-106.029
11
106.359
21
-106.215
0
LINE
8
BLACK
6
CONTINUOUS
10
106.359
20
-106.215
11
106.359
21
-106.215
0
LINE
8
BLACK
6
CONTINUOUS
10
106.359
20
-106.215
11
104.101
21
-119.018
0
LINE
8
BLACK
6
CONTINUOUS
10
104.101
20
-119.018
11
104.101
21
-119.018
0
LINE
8
BLACK
6
CONTINUOUS
10
104.101
20
-119.018
11
104.053
21
-119.199
0
LINE
8
BLACK
6
CONTINUOUS
10
104.053
20
-119.199
11
103.974
21
-119.369
0
LINE
8
BLACK
6
CONTINUOUS
10
103.974
20
-119.369
11
103.866
21
-119.522
0
LINE
8
BLACK
6
CONTINUOUS
10
103.866
20
-119.522
11
103.734
21
-119.655
0
LINE
8
BLACK
6
CONTINUOUS
10
103.734
20
-119.655
11
103.58
21
-119.762
0
LINE
8
BLACK
6
CONTINUOUS
10
103.58
20
-119.762
11
103.41
21
-119.841
0
LINE
8
BLACK
6
CONTINUOUS
10
103.41
20
-119.841
11
103.229
21
-119.89
0
LINE
8
BLACK
6
CONTINUOUS
10
103.229
20
-119.89
11
103.043
21
-119.906
0
LINE
8
BLACK
6
CONTINUOUS
10
103.043
20
-119.906
11
102.856
21
-119.89
0
LINE
8
BLACK
6
CONTINUOUS
10
102.856
20
-119.89
11
102.856
21
-119.89
0
LINE
8
BLACK
6
CONTINUOUS
10
102.856
20
-119.89
11
102.856
21
-119.89
0
LINE
8
BLACK
6
CONTINUOUS
10
102.856
20
-119.89
11
102.856
21
-119.89
0
LINE
8
BLACK
6
CONTINUOUS
10
102.856
20
-119.89
11
90.0535
21
-117.632
0
LINE
8
BLACK
6
CONTINUOUS
10
90.0535
20
-117.632
11
90.0535
21
-117.632
0
LINE
8
BLACK
6
CONTINUOUS
10
90.0535
20
-117.632
11
89.8725
21
-117.584
0
LINE
8
BLACK
6
CONTINUOUS
10
89.8725
20
-117.584
11
89.7027
21
-117.505
0
LINE
8
BLACK
6
CONTINUOUS
10
89.7027
20
-117.505
11
89.5492
21
-117.397
0
LINE
8
BLACK
6
CONTINUOUS
10
89.5492
20
-117.397
11
89.4167
21
-117.265
0
LINE
8
BLACK
6
CONTINUOUS
10
89.4167
20
-117.265
11
89.3092
21
-117.111
0
LINE
8
BLACK
6
CONTINUOUS
10
89.3092
20
-117.111
11
89.2301
21
-116.941
0
LINE
8
BLACK
6
CONTINUOUS
10
89.2301
20
-116.941
11
89.1816
21
-116.76
0
LINE
8
BLACK
6
CONTINUOUS
10
89.1816
20
-116.76
11
89.1652
21
-116.574
0
LINE
8
BLACK
6
CONTINUOUS
10
89.1652
20
-116.574
11
89.1816
21
-116.387
0
LINE
8
BLACK
6
CONTINUOUS
10
89.1816
20
-116.387
11
89.1816
21
-116.387
0
LINE
8
BLACK
6
CONTINUOUS
10
89.1816
20
-116.387
11
91.439
21
-103.585
0
LINE
8
BLACK
6
CONTINUOUS
10
91.439
20
-103.585
11
91.439
21
-103.584
0
LINE
8
BLACK
6
CONTINUOUS
10
91.439
20
-103.584
11
91.4875
21
-103.404
0
LINE
8
BLACK
6
CONTINUOUS
10
91.4875
20
-103.404
11
91.5667
21
-103.234
0
LINE
8
BLACK
6
CONTINUOUS
10
91.5667
20
-103.234
11
91.6742
21
-103.08
0
LINE
8
BLACK
6
CONTINUOUS
10
91.6742
20
-103.08
11
91.8067
21
-102.948
0
LINE
8
BLACK
6
CONTINUOUS
10
91.8067
20
-102.948
11
91.9602
21
-102.84
0
LINE
8
BLACK
6
CONTINUOUS
10
91.9602
20
-102.84
11
92.13
21
-102.761
0
LINE
8
BLACK
6
CONTINUOUS
10
92.13
20
-102.761
11
92.311
21
-102.713
0
LINE
8
BLACK
6
CONTINUOUS
10
92.311
20
-102.713
11
92.4976
21
-102.696
0
LINE
8
BLACK
6
CONTINUOUS
10
92.4976
20
-102.696
11
92.684
21
-102.713
0
LINE
8
BLACK
6
CONTINUOUS
10
92.2573
20
-102.874
11
92.1052
21
-102.93
0
LINE
8
BLACK
6
CONTINUOUS
10
92.1052
20
-102.93
11
91.9651
21
-103.011
0
LINE
8
BLACK
6
CONTINUOUS
10
91.9651
20
-103.011
11
91.8411
21
-103.115
0
LINE
8
BLACK
6
CONTINUOUS
10
91.8411
20
-103.115
11
91.737
21
-103.239
0
LINE
8
BLACK
6
CONTINUOUS
10
91.737
20
-103.239
11
91.6561
21
-103.379
0
LINE
8
BLACK
6
CONTINUOUS
10
91.6561
20
-103.379
11
91.6008
21
-103.531
0
LINE
8
BLACK
6
CONTINUOUS
10
91.6008
20
-103.531
11
91.5867
21
-103.611
0
LINE
8
BLACK
6
CONTINUOUS
10
91.5867
20
-103.611
11
89.3293
21
-116.413
0
LINE
8
BLACK
6
CONTINUOUS
10
89.3293
20
-116.413
11
89.3293
21
-116.413
0
LINE
8
BLACK
6
CONTINUOUS
10
89.3293
20
-116.413
11
89.3293
21
-116.413
0
LINE
8
BLACK
6
CONTINUOUS
10
89.3293
20
-116.413
11
89.3152
21
-116.493
0
LINE
8
BLACK
6
CONTINUOUS
10
89.3152
20
-116.493
11
89.3152
21
-116.655
0
LINE
8
BLACK
6
CONTINUOUS
10
89.3152
20
-116.655
11
89.3433
21
-116.814
0
LINE
8
BLACK
6
CONTINUOUS
10
89.3433
20
-116.814
11
89.3987
21
-116.966
0
LINE
8
BLACK
6
CONTINUOUS
10
89.3987
20
-116.966
11
89.4796
21
-117.106
0
LINE
8
BLACK
6
CONTINUOUS
10
89.4796
20
-117.106
11
89.5836
21
-117.23
0
LINE
8
BLACK
6
CONTINUOUS
10
89.5836
20
-117.23
11
89.7076
21
-117.334
0
LINE
8
BLACK
6
CONTINUOUS
10
89.7076
20
-117.334
11
89.8478
21
-117.415
0
LINE
8
BLACK
6
CONTINUOUS
10
89.8478
20
-117.415
11
89.9999
21
-117.471
0
LINE
8
BLACK
6
CONTINUOUS
10
89.9999
20
-117.471
11
90.0796
21
-117.485
0
LINE
8
BLACK
6
CONTINUOUS
10
90.0796
20
-117.485
11
90.0796
21
-117.485
0
LINE
8
BLACK
6
CONTINUOUS
10
90.0796
20
-117.485
11
90.0796
21
-117.485
0
LINE
8
BLACK
6
CONTINUOUS
10
90.0796
20
-117.485
11
102.882
21
-119.742
0
LINE
8
BLACK
6
CONTINUOUS
10
102.882
20
-119.742
11
102.882
21
-119.742
0
LINE
8
BLACK
6
CONTINUOUS
10
102.882
20
-119.742
11
102.962
21
-119.756
0
LINE
8
BLACK
6
CONTINUOUS
10
102.962
20
-119.756
11
103.124
21
-119.756
0
LINE
8
BLACK
6
CONTINUOUS
10
103.124
20
-119.756
11
103.283
21
-119.728
0
LINE
8
BLACK
6
CONTINUOUS
10
103.283
20
-119.728
11
103.435
21
-119.673
0
LINE
8
BLACK
6
CONTINUOUS
10
103.435
20
-119.673
11
103.575
21
-119.592
0
LINE
8
BLACK
6
CONTINUOUS
10
103.575
20
-119.592
11
103.699
21
-119.488
0
LINE
8
BLACK
6
CONTINUOUS
10
103.699
20
-119.488
11
103.803
21
-119.364
0
LINE
8
BLACK
6
CONTINUOUS
10
103.803
20
-119.364
11
103.884
21
-119.224
0
LINE
8
BLACK
6
CONTINUOUS
10
103.884
20
-119.224
11
103.94
21
-119.071
0
LINE
8
BLACK
6
CONTINUOUS
10
103.94
20
-119.071
11
103.954
21
-118.992
0
LINE
8
BLACK
6
CONTINUOUS
10
103.954
20
-118.992
11
103.954
21
-118.992
0
LINE
8
BLACK
6
CONTINUOUS
10
103.954
20
-118.992
11
106.211
21
-106.189
0
LINE
8
BLACK
6
CONTINUOUS
10
106.211
20
-106.189
11
106.211
21
-106.189
0
LINE
8
BLACK
6
CONTINUOUS
10
106.211
20
-106.189
11
106.225
21
-106.11
0
LINE
8
BLACK
6
CONTINUOUS
10
106.225
20
-106.11
11
106.225
21
-105.948
0
LINE
8
BLACK
6
CONTINUOUS
10
106.225
20
-105.948
11
106.197
21
-105.788
0
LINE
8
BLACK
6
CONTINUOUS
10
106.197
20
-105.788
11
106.142
21
-105.636
0
LINE
8
BLACK
6
CONTINUOUS
10
106.142
20
-105.636
11
106.061
21
-105.496
0
LINE
8
BLACK
6
CONTINUOUS
10
106.061
20
-105.496
11
105.957
21
-105.372
0
LINE
8
BLACK
6
CONTINUOUS
10
105.957
20
-105.372
11
105.833
21
-105.268
0
LINE
8
BLACK
6
CONTINUOUS
10
105.833
20
-105.268
11
105.693
21
-105.187
0
LINE
8
BLACK
6
CONTINUOUS
10
105.693
20
-105.187
11
105.54
21
-105.132
0
LINE
8
BLACK
6
CONTINUOUS
10
105.54
20
-105.132
11
105.461
21
-105.118
0
LINE
8
BLACK
6
CONTINUOUS
10
105.461
20
-105.118
11
105.461
21
-105.118
0
LINE
8
BLACK
6
CONTINUOUS
10
105.461
20
-105.118
11
105.461
21
-105.118
0
LINE
8
BLACK
6
CONTINUOUS
10
105.461
20
-105.118
11
105.461
21
-105.118
0
LINE
8
BLACK
6
CONTINUOUS
10
105.461
20
-105.118
11
92.6583
21
-102.86
0
LINE
8
BLACK
6
CONTINUOUS
10
92.6583
20
-102.86
11
92.6583
21
-102.86
0
LINE
8
BLACK
6
CONTINUOUS
10
92.6583
20
-102.86
11
92.6583
21
-102.86
0
LINE
8
BLACK
6
CONTINUOUS
10
92.6583
20
-102.86
11
92.6583
21
-102.86
0
LINE
8
BLACK
6
CONTINUOUS
10
92.6583
20
-102.86
11
92.5786
21
-102.846
0
LINE
8
BLACK
6
CONTINUOUS
10
92.5786
20
-102.846
11
92.4167
21
-102.846
0
LINE
8
BLACK
6
CONTINUOUS
10
92.4167
20
-102.846
11
92.2573
21
-102.874
0
LINE
8
BLACK
6
CONTINUOUS
10
146.762
20
-96.7895
11
146.762
21
-96.7895
0
LINE
8
BLACK
6
CONTINUOUS
10
146.762
20
-96.7895
11
146.762
21
-96.7895
0
LINE
8
BLACK
6
CONTINUOUS
10
146.762
20
-96.7895
11
159.636
21
-98.5987
0
LINE
8
BLACK
6
CONTINUOUS
10
159.636
20
-98.5987
11
159.636
21
-98.5987
0
LINE
8
BLACK
6
CONTINUOUS
10
159.636
20
-98.5987
11
159.818
21
-98.6409
0
LINE
8
BLACK
6
CONTINUOUS
10
159.818
20
-98.6409
11
159.991
21
-98.7141
0
LINE
8
BLACK
6
CONTINUOUS
10
159.991
20
-98.7141
11
160.148
21
-98.8162
0
LINE
8
BLACK
6
CONTINUOUS
10
160.148
20
-98.8162
11
160.285
21
-98.944
0
LINE
8
BLACK
6
CONTINUOUS
10
160.285
20
-98.944
11
160.398
21
-99.0936
0
LINE
8
BLACK
6
CONTINUOUS
10
160.398
20
-99.0936
11
160.483
21
-99.2606
0
LINE
8
BLACK
6
CONTINUOUS
10
160.483
20
-99.2606
11
160.538
21
-99.4398
0
LINE
8
BLACK
6
CONTINUOUS
10
160.538
20
-99.4398
11
160.56
21
-99.6258
0
LINE
8
BLACK
6
CONTINUOUS
10
160.56
20
-99.6258
11
160.551
21
-99.8129
0
LINE
8
BLACK
6
CONTINUOUS
10
160.551
20
-99.8129
11
160.551
21
-99.8129
0
LINE
8
BLACK
6
CONTINUOUS
10
160.551
20
-99.8129
11
160.551
21
-99.8129
0
LINE
8
BLACK
6
CONTINUOUS
10
160.551
20
-99.8129
11
158.741
21
-112.686
0
LINE
8
BLACK
6
CONTINUOUS
10
158.741
20
-112.686
11
158.741
21
-112.686
0
LINE
8
BLACK
6
CONTINUOUS
10
158.741
20
-112.686
11
158.699
21
-112.869
0
LINE
8
BLACK
6
CONTINUOUS
10
158.699
20
-112.869
11
158.626
21
-113.041
0
LINE
8
BLACK
6
CONTINUOUS
10
158.626
20
-113.041
11
158.524
21
-113.199
0
LINE
8
BLACK
6
CONTINUOUS
10
158.524
20
-113.199
11
158.396
21
-113.336
0
LINE
8
BLACK
6
CONTINUOUS
10
158.396
20
-113.336
11
158.246
21
-113.448
0
LINE
8
BLACK
6
CONTINUOUS
10
158.246
20
-113.448
11
158.079
21
-113.533
0
LINE
8
BLACK
6
CONTINUOUS
10
158.079
20
-113.533
11
157.9
21
-113.588
0
LINE
8
BLACK
6
CONTINUOUS
10
157.9
20
-113.588
11
157.714
21
-113.611
0
LINE
8
BLACK
6
CONTINUOUS
10
157.714
20
-113.611
11
157.527
21
-113.601
0
LINE
8
BLACK
6
CONTINUOUS
10
157.527
20
-113.601
11
157.527
21
-113.601
0
LINE
8
BLACK
6
CONTINUOUS
10
157.527
20
-113.601
11
157.527
21
-113.601
0
LINE
8
BLACK
6
CONTINUOUS
10
157.527
20
-113.601
11
157.527
21
-113.601
0
LINE
8
BLACK
6
CONTINUOUS
10
157.527
20
-113.601
11
157.527
21
-113.601
0
LINE
8
BLACK
6
CONTINUOUS
10
157.527
20
-113.601
11
144.654
21
-111.792
0
LINE
8
BLACK
6
CONTINUOUS
10
144.654
20
-111.792
11
144.654
21
-111.792
0
LINE
8
BLACK
6
CONTINUOUS
10
144.654
20
-111.792
11
144.654
21
-111.792
0
LINE
8
BLACK
6
CONTINUOUS
10
144.654
20
-111.792
11
144.471
21
-111.75
0
LINE
8
BLACK
6
CONTINUOUS
10
144.471
20
-111.75
11
144.299
21
-111.677
0
LINE
8
BLACK
6
CONTINUOUS
10
144.299
20
-111.677
11
144.141
21
-111.575
0
LINE
8
BLACK
6
CONTINUOUS
10
144.141
20
-111.575
11
144.004
21
-111.447
0
LINE
8
BLACK
6
CONTINUOUS
10
144.004
20
-111.447
11
143.892
21
-111.297
0
LINE
8
BLACK
6
CONTINUOUS
10
143.892
20
-111.297
11
143.807
21
-111.13
0
LINE
8
BLACK
6
CONTINUOUS
10
143.807
20
-111.13
11
143.752
21
-110.951
0
LINE
8
BLACK
6
CONTINUOUS
10
143.752
20
-110.951
11
143.729
21
-110.765
0
LINE
8
BLACK
6
CONTINUOUS
10
143.729
20
-110.765
11
143.739
21
-110.578
0
LINE
8
BLACK
6
CONTINUOUS
10
143.739
20
-110.578
11
143.739
21
-110.578
0
LINE
8
BLACK
6
CONTINUOUS
10
143.739
20
-110.578
11
143.739
21
-110.578
0
LINE
8
BLACK
6
CONTINUOUS
10
143.739
20
-110.578
11
145.548
21
-97.7044
0
LINE
8
BLACK
6
CONTINUOUS
10
145.548
20
-97.7044
11
145.548
21
-97.7044
0
LINE
8
BLACK
6
CONTINUOUS
10
145.548
20
-97.7044
11
145.59
21
-97.5218
0
LINE
8
BLACK
6
CONTINUOUS
10
145.59
20
-97.5218
11
145.663
21
-97.3493
0
LINE
8
BLACK
6
CONTINUOUS
10
145.663
20
-97.3493
11
145.765
21
-97.1922
0
LINE
8
BLACK
6
CONTINUOUS
10
145.765
20
-97.1922
11
145.893
21
-97.0551
0
LINE
8
BLACK
6
CONTINUOUS
10
145.893
20
-97.0551
11
146.043
21
-96.9424
0
LINE
8
BLACK
6
CONTINUOUS
10
146.043
20
-96.9424
11
146.21
21
-96.8573
0
LINE
8
BLACK
6
CONTINUOUS
10
146.21
20
-96.8573
11
146.389
21
-96.8025
0
LINE
8
BLACK
6
CONTINUOUS
10
146.389
20
-96.8025
11
146.575
21
-96.7797
0
LINE
8
BLACK
6
CONTINUOUS
10
146.575
20
-96.7797
11
146.762
21
-96.7895
0
LINE
8
BLACK
6
CONTINUOUS
10
146.499
20
-96.9324
11
146.341
21
-96.9661
0
LINE
8
BLACK
6
CONTINUOUS
10
146.341
20
-96.9661
11
146.191
21
-97.0267
0
LINE
8
BLACK
6
CONTINUOUS
10
146.191
20
-97.0267
11
146.054
21
-97.1125
0
LINE
8
BLACK
6
CONTINUOUS
10
146.054
20
-97.1125
11
145.933
21
-97.2208
0
LINE
8
BLACK
6
CONTINUOUS
10
145.933
20
-97.2208
11
145.834
21
-97.3483
0
LINE
8
BLACK
6
CONTINUOUS
10
145.834
20
-97.3483
11
145.758
21
-97.4912
0
LINE
8
BLACK
6
CONTINUOUS
10
145.758
20
-97.4912
11
145.708
21
-97.6452
0
LINE
8
BLACK
6
CONTINUOUS
10
145.708
20
-97.6452
11
145.697
21
-97.7253
0
LINE
8
BLACK
6
CONTINUOUS
10
145.697
20
-97.7253
11
145.697
21
-97.7253
0
LINE
8
BLACK
6
CONTINUOUS
10
145.697
20
-97.7253
11
145.697
21
-97.7253
0
LINE
8
BLACK
6
CONTINUOUS
10
145.697
20
-97.7253
11
143.887
21
-110.599
0
LINE
8
BLACK
6
CONTINUOUS
10
143.887
20
-110.599
11
143.887
21
-110.599
0
LINE
8
BLACK
6
CONTINUOUS
10
143.887
20
-110.599
11
143.876
21
-110.679
0
LINE
8
BLACK
6
CONTINUOUS
10
143.876
20
-110.679
11
143.882
21
-110.841
0
LINE
8
BLACK
6
CONTINUOUS
10
143.882
20
-110.841
11
143.915
21
-110.999
0
LINE
8
BLACK
6
CONTINUOUS
10
143.915
20
-110.999
11
143.976
21
-111.149
0
LINE
8
BLACK
6
CONTINUOUS
10
143.976
20
-111.149
11
144.062
21
-111.286
0
LINE
8
BLACK
6
CONTINUOUS
10
144.062
20
-111.286
11
144.17
21
-111.407
0
LINE
8
BLACK
6
CONTINUOUS
10
144.17
20
-111.407
11
144.298
21
-111.506
0
LINE
8
BLACK
6
CONTINUOUS
10
144.298
20
-111.506
11
144.44
21
-111.582
0
LINE
8
BLACK
6
CONTINUOUS
10
144.44
20
-111.582
11
144.594
21
-111.632
0
LINE
8
BLACK
6
CONTINUOUS
10
144.594
20
-111.632
11
144.675
21
-111.644
0
LINE
8
BLACK
6
CONTINUOUS
10
144.675
20
-111.644
11
157.548
21
-113.453
0
LINE
8
BLACK
6
CONTINUOUS
10
157.548
20
-113.453
11
157.548
21
-113.453
0
LINE
8
BLACK
6
CONTINUOUS
10
157.548
20
-113.453
11
157.548
21
-113.453
0
LINE
8
BLACK
6
CONTINUOUS
10
157.548
20
-113.453
11
157.548
21
-113.453
0
LINE
8
BLACK
6
CONTINUOUS
10
157.548
20
-113.453
11
157.628
21
-113.464
0
LINE
8
BLACK
6
CONTINUOUS
10
157.628
20
-113.464
11
157.79
21
-113.458
0
LINE
8
BLACK
6
CONTINUOUS
10
157.79
20
-113.458
11
157.948
21
-113.425
0
LINE
8
BLACK
6
CONTINUOUS
10
157.948
20
-113.425
11
158.098
21
-113.364
0
LINE
8
BLACK
6
CONTINUOUS
10
158.098
20
-113.364
11
158.236
21
-113.278
0
LINE
8
BLACK
6
CONTINUOUS
10
158.236
20
-113.278
11
158.356
21
-113.17
0
LINE
8
BLACK
6
CONTINUOUS
10
158.356
20
-113.17
11
158.456
21
-113.042
0
LINE
8
BLACK
6
CONTINUOUS
10
158.456
20
-113.042
11
158.531
21
-112.9
0
LINE
8
BLACK
6
CONTINUOUS
10
158.531
20
-112.9
11
158.581
21
-112.746
0
LINE
8
BLACK
6
CONTINUOUS
10
158.581
20
-112.746
11
158.593
21
-112.666
0
LINE
8
BLACK
6
CONTINUOUS
10
158.593
20
-112.666
11
158.593
21
-112.666
0
LINE
8
BLACK
6
CONTINUOUS
10
158.593
20
-112.666
11
158.593
21
-112.666
0
LINE
8
BLACK
6
CONTINUOUS
10
158.593
20
-112.666
11
160.402
21
-99.792
0
LINE
8
BLACK
6
CONTINUOUS
10
160.402
20
-99.792
11
160.402
21
-99.792
0
LINE
8
BLACK
6
CONTINUOUS
10
160.402
20
-99.792
11
160.413
21
-99.7119
0
LINE
8
BLACK
6
CONTINUOUS
10
160.413
20
-99.7119
11
160.408
21
-99.5501
0
LINE
8
BLACK
6
CONTINUOUS
10
160.408
20
-99.5501
11
160.374
21
-99.3918
0
LINE
8
BLACK
6
CONTINUOUS
10
160.374
20
-99.3918
11
160.313
21
-99.2417
0
LINE
8
BLACK
6
CONTINUOUS
10
160.313
20
-99.2417
11
160.228
21
-99.1045
0
LINE
8
BLACK
6
CONTINUOUS
10
160.228
20
-99.1045
11
160.119
21
-98.9842
0
LINE
8
BLACK
6
CONTINUOUS
10
160.119
20
-98.9842
11
159.992
21
-98.8846
0
LINE
8
BLACK
6
CONTINUOUS
10
159.992
20
-98.8846
11
159.849
21
-98.8086
0
LINE
8
BLACK
6
CONTINUOUS
10
159.849
20
-98.8086
11
159.695
21
-98.7585
0
LINE
8
BLACK
6
CONTINUOUS
10
159.695
20
-98.7585
11
159.615
21
-98.7473
0
LINE
8
BLACK
6
CONTINUOUS
10
159.615
20
-98.7473
11
159.615
21
-98.7473
0
LINE
8
BLACK
6
CONTINUOUS
10
159.615
20
-98.7473
11
146.741
21
-96.938
0
LINE
8
BLACK
6
CONTINUOUS
10
146.741
20
-96.938
11
146.741
21
-96.938
0
LINE
8
BLACK
6
CONTINUOUS
10
146.741
20
-96.938
11
146.741
21
-96.938
0
LINE
8
BLACK
6
CONTINUOUS
10
146.741
20
-96.938
11
146.741
21
-96.938
0
LINE
8
BLACK
6
CONTINUOUS
10
146.741
20
-96.938
11
146.661
21
-96.9268
0
LINE
8
BLACK
6
CONTINUOUS
10
146.661
20
-96.9268
11
146.499
21
-96.9324
0
LINE
8
BLACK
6
CONTINUOUS
10
170.166
20
-90.8835
11
170.166
21
-90.8836
0
LINE
8
BLACK
6
CONTINUOUS
10
170.166
20
-90.8836
11
170.166
21
-90.8836
0
LINE
8
BLACK
6
CONTINUOUS
10
170.166
20
-90.8836
11
182.969
21
-93.141
0
LINE
8
BLACK
6
CONTINUOUS
10
182.969
20
-93.141
11
182.969
21
-93.141
0
LINE
8
BLACK
6
CONTINUOUS
10
182.969
20
-93.141
11
183.15
21
-93.1895
0
LINE
8
BLACK
6
CONTINUOUS
10
183.15
20
-93.1895
11
183.319
21
-93.2687
0
LINE
8
BLACK
6
CONTINUOUS
10
183.319
20
-93.2687
11
183.473
21
-93.3761
0
LINE
8
BLACK
6
CONTINUOUS
10
183.473
20
-93.3761
11
183.605
21
-93.5086
0
LINE
8
BLACK
6
CONTINUOUS
10
183.605
20
-93.5086
11
183.713
21
-93.6621
0
LINE
8
BLACK
6
CONTINUOUS
10
183.713
20
-93.6621
11
183.792
21
-93.832
0
LINE
8
BLACK
6
CONTINUOUS
10
183.792
20
-93.832
11
183.841
21
-94.013
0
LINE
8
BLACK
6
CONTINUOUS
10
183.841
20
-94.013
11
183.857
21
-94.1997
0
LINE
8
BLACK
6
CONTINUOUS
10
183.857
20
-94.1997
11
183.841
21
-94.3863
0
LINE
8
BLACK
6
CONTINUOUS
10
183.841
20
-94.3863
11
183.841
21
-94.3863
0
LINE
8
BLACK
6
CONTINUOUS
10
183.841
20
-94.3863
11
183.841
21
-94.3863
0
LINE
8
BLACK
6
CONTINUOUS
10
183.841
20
-94.3863
11
183.841
21
-94.3863
0
LINE
8
BLACK
6
CONTINUOUS
10
183.841
20
-94.3863
11
181.583
21
-107.189
0
LINE
8
BLACK
6
CONTINUOUS
10
181.583
20
-107.189
11
181.583
21
-107.189
0
LINE
8
BLACK
6
CONTINUOUS
10
181.583
20
-107.189
11
181.535
21
-107.37
0
LINE
8
BLACK
6
CONTINUOUS
10
181.535
20
-107.37
11
181.455
21
-107.54
0
LINE
8
BLACK
6
CONTINUOUS
10
181.455
20
-107.54
11
181.348
21
-107.693
0
LINE
8
BLACK
6
CONTINUOUS
10
181.348
20
-107.693
11
181.215
21
-107.826
0
LINE
8
BLACK
6
CONTINUOUS
10
181.215
20
-107.826
11
181.062
21
-107.933
0
LINE
8
BLACK
6
CONTINUOUS
10
181.062
20
-107.933
11
180.892
21
-108.012
0
LINE
8
BLACK
6
CONTINUOUS
10
180.892
20
-108.012
11
180.711
21
-108.061
0
LINE
8
BLACK
6
CONTINUOUS
10
180.711
20
-108.061
11
180.524
21
-108.077
0
LINE
8
BLACK
6
CONTINUOUS
10
180.524
20
-108.077
11
180.338
21
-108.061
0
LINE
8
BLACK
6
CONTINUOUS
10
180.338
20
-108.061
11
180.338
21
-108.061
0
LINE
8
BLACK
6
CONTINUOUS
10
180.338
20
-108.061
11
180.338
21
-108.061
0
LINE
8
BLACK
6
CONTINUOUS
10
180.338
20
-108.061
11
180.338
21
-108.061
0
LINE
8
BLACK
6
CONTINUOUS
10
180.338
20
-108.061
11
167.535
21
-105.803
0
LINE
8
BLACK
6
CONTINUOUS
10
167.535
20
-105.803
11
167.535
21
-105.803
0
LINE
8
BLACK
6
CONTINUOUS
10
167.535
20
-105.803
11
167.354
21
-105.755
0
LINE
8
BLACK
6
CONTINUOUS
10
167.354
20
-105.755
11
167.184
21
-105.676
0
LINE
8
BLACK
6
CONTINUOUS
10
167.184
20
-105.676
11
167.031
21
-105.568
0
LINE
8
BLACK
6
CONTINUOUS
10
167.031
20
-105.568
11
166.898
21
-105.436
0
LINE
8
BLACK
6
CONTINUOUS
10
166.898
20
-105.436
11
166.791
21
-105.282
0
LINE
8
BLACK
6
CONTINUOUS
10
166.791
20
-105.282
11
166.712
21
-105.112
0
LINE
8
BLACK
6
CONTINUOUS
10
166.712
20
-105.112
11
166.663
21
-104.931
0
LINE
8
BLACK
6
CONTINUOUS
10
166.663
20
-104.931
11
166.647
21
-104.745
0
LINE
8
BLACK
6
CONTINUOUS
10
166.647
20
-104.745
11
166.663
21
-104.558
0
LINE
8
BLACK
6
CONTINUOUS
10
166.663
20
-104.558
11
166.663
21
-104.558
0
LINE
8
BLACK
6
CONTINUOUS
10
166.663
20
-104.558
11
166.663
21
-104.558
0
LINE
8
BLACK
6
CONTINUOUS
10
166.663
20
-104.558
11
168.921
21
-91.7556
0
LINE
8
BLACK
6
CONTINUOUS
10
168.921
20
-91.7556
11
168.921
21
-91.7555
0
LINE
8
BLACK
6
CONTINUOUS
10
168.921
20
-91.7555
11
168.969
21
-91.5745
0
LINE
8
BLACK
6
CONTINUOUS
10
168.969
20
-91.5745
11
169.048
21
-91.4047
0
LINE
8
BLACK
6
CONTINUOUS
10
169.048
20
-91.4047
11
169.156
21
-91.2512
0
LINE
8
BLACK
6
CONTINUOUS
10
169.156
20
-91.2512
11
169.288
21
-91.1187
0
LINE
8
BLACK
6
CONTINUOUS
10
169.288
20
-91.1187
11
169.442
21
-91.0112
0
LINE
8
BLACK
6
CONTINUOUS
10
169.442
20
-91.0112
11
169.612
21
-90.932
0
LINE
8
BLACK
6
CONTINUOUS
10
169.612
20
-90.932
11
169.793
21
-90.8835
0
LINE
8
BLACK
6
CONTINUOUS
10
169.793
20
-90.8835
11
169.979
21
-90.8672
0
LINE
8
BLACK
6
CONTINUOUS
10
169.979
20
-90.8672
11
170.166
21
-90.8835
0
LINE
8
BLACK
6
CONTINUOUS
10
169.898
20
-91.0172
11
169.739
21
-91.0453
0
LINE
8
BLACK
6
CONTINUOUS
10
169.739
20
-91.0453
11
169.587
21
-91.1007
0
LINE
8
BLACK
6
CONTINUOUS
10
169.587
20
-91.1007
11
169.447
21
-91.1816
0
LINE
8
BLACK
6
CONTINUOUS
10
169.447
20
-91.1816
11
169.323
21
-91.2856
0
LINE
8
BLACK
6
CONTINUOUS
10
169.323
20
-91.2856
11
169.219
21
-91.4096
0
LINE
8
BLACK
6
CONTINUOUS
10
169.219
20
-91.4096
11
169.138
21
-91.5498
0
LINE
8
BLACK
6
CONTINUOUS
10
169.138
20
-91.5498
11
169.082
21
-91.7019
0
LINE
8
BLACK
6
CONTINUOUS
10
169.082
20
-91.7019
11
169.068
21
-91.7816
0
LINE
8
BLACK
6
CONTINUOUS
10
169.068
20
-91.7816
11
169.068
21
-91.7816
0
LINE
8
BLACK
6
CONTINUOUS
10
169.068
20
-91.7816
11
169.068
21
-91.7816
0
LINE
8
BLACK
6
CONTINUOUS
10
169.068
20
-91.7816
11
166.811
21
-104.584
0
LINE
8
BLACK
6
CONTINUOUS
10
166.811
20
-104.584
11
166.811
21
-104.584
0
LINE
8
BLACK
6
CONTINUOUS
10
166.811
20
-104.584
11
166.797
21
-104.664
0
LINE
8
BLACK
6
CONTINUOUS
10
166.797
20
-104.664
11
166.797
21
-104.826
0
LINE
8
BLACK
6
CONTINUOUS
10
166.797
20
-104.826
11
166.825
21
-104.985
0
LINE
8
BLACK
6
CONTINUOUS
10
166.825
20
-104.985
11
166.88
21
-105.137
0
LINE
8
BLACK
6
CONTINUOUS
10
166.88
20
-105.137
11
166.961
21
-105.277
0
LINE
8
BLACK
6
CONTINUOUS
10
166.961
20
-105.277
11
167.065
21
-105.401
0
LINE
8
BLACK
6
CONTINUOUS
10
167.065
20
-105.401
11
167.189
21
-105.505
0
LINE
8
BLACK
6
CONTINUOUS
10
167.189
20
-105.505
11
167.33
21
-105.586
0
LINE
8
BLACK
6
CONTINUOUS
10
167.33
20
-105.586
11
167.482
21
-105.642
0
LINE
8
BLACK
6
CONTINUOUS
10
167.482
20
-105.642
11
167.561
21
-105.656
0
LINE
8
BLACK
6
CONTINUOUS
10
167.561
20
-105.656
11
167.561
21
-105.656
0
LINE
8
BLACK
6
CONTINUOUS
10
167.561
20
-105.656
11
167.561
21
-105.656
0
LINE
8
BLACK
6
CONTINUOUS
10
167.561
20
-105.656
11
180.364
21
-107.913
0
LINE
8
BLACK
6
CONTINUOUS
10
180.364
20
-107.913
11
180.364
21
-107.913
0
LINE
8
BLACK
6
CONTINUOUS
10
180.364
20
-107.913
11
180.444
21
-107.927
0
LINE
8
BLACK
6
CONTINUOUS
10
180.444
20
-107.927
11
180.605
21
-107.927
0
LINE
8
BLACK
6
CONTINUOUS
10
180.605
20
-107.927
11
180.765
21
-107.899
0
LINE
8
BLACK
6
CONTINUOUS
10
180.765
20
-107.899
11
180.917
21
-107.844
0
LINE
8
BLACK
6
CONTINUOUS
10
180.917
20
-107.844
11
181.057
21
-107.763
0
LINE
8
BLACK
6
CONTINUOUS
10
181.057
20
-107.763
11
181.181
21
-107.659
0
LINE
8
BLACK
6
CONTINUOUS
10
181.181
20
-107.659
11
181.285
21
-107.535
0
LINE
8
BLACK
6
CONTINUOUS
10
181.285
20
-107.535
11
181.366
21
-107.395
0
LINE
8
BLACK
6
CONTINUOUS
10
181.366
20
-107.395
11
181.421
21
-107.242
0
LINE
8
BLACK
6
CONTINUOUS
10
181.421
20
-107.242
11
181.435
21
-107.163
0
LINE
8
BLACK
6
CONTINUOUS
10
181.435
20
-107.163
11
181.435
21
-107.163
0
LINE
8
BLACK
6
CONTINUOUS
10
181.435
20
-107.163
11
181.435
21
-107.163
0
LINE
8
BLACK
6
CONTINUOUS
10
181.435
20
-107.163
11
181.435
21
-107.163
0
LINE
8
BLACK
6
CONTINUOUS
10
181.435
20
-107.163
11
183.693
21
-94.3603
0
LINE
8
BLACK
6
CONTINUOUS
10
183.693
20
-94.3603
11
183.693
21
-94.3598
0
LINE
8
BLACK
6
CONTINUOUS
10
183.693
20
-94.3598
11
183.707
21
-94.2806
0
LINE
8
BLACK
6
CONTINUOUS
10
183.707
20
-94.2806
11
183.707
21
-94.1187
0
LINE
8
BLACK
6
CONTINUOUS
10
183.707
20
-94.1187
11
183.679
21
-93.9593
0
LINE
8
BLACK
6
CONTINUOUS
10
183.679
20
-93.9593
11
183.623
21
-93.8072
0
LINE
8
BLACK
6
CONTINUOUS
10
183.623
20
-93.8072
11
183.543
21
-93.6671
0
LINE
8
BLACK
6
CONTINUOUS
10
183.543
20
-93.6671
11
183.438
21
-93.5431
0
LINE
8
BLACK
6
CONTINUOUS
10
183.438
20
-93.5431
11
183.314
21
-93.439
0
LINE
8
BLACK
6
CONTINUOUS
10
183.314
20
-93.439
11
183.174
21
-93.3581
0
LINE
8
BLACK
6
CONTINUOUS
10
183.174
20
-93.3581
11
183.022
21
-93.3028
0
LINE
8
BLACK
6
CONTINUOUS
10
183.022
20
-93.3028
11
182.942
21
-93.2887
0
LINE
8
BLACK
6
CONTINUOUS
10
182.942
20
-93.2887
11
182.942
21
-93.2887
0
LINE
8
BLACK
6
CONTINUOUS
10
182.942
20
-93.2887
11
182.942
21
-93.2887
0
LINE
8
BLACK
6
CONTINUOUS
10
182.942
20
-93.2887
11
170.14
21
-91.0313
0
LINE
8
BLACK
6
CONTINUOUS
10
170.14
20
-91.0313
11
170.14
21
-91.0312
0
LINE
8
BLACK
6
CONTINUOUS
10
170.14
20
-91.0312
11
170.06
21
-91.0172
0
LINE
8
BLACK
6
CONTINUOUS
10
170.06
20
-91.0172
11
169.898
21
-91.0172
0
LINE
8
BLACK
6
CONTINUOUS
10
149.295
20
-78.7666
11
149.295
21
-78.7666
0
LINE
8
BLACK
6
CONTINUOUS
10
149.295
20
-78.7666
11
149.295
21
-78.7666
0
LINE
8
BLACK
6
CONTINUOUS
10
149.295
20
-78.7666
11
149.295
21
-78.7666
0
LINE
8
BLACK
6
CONTINUOUS
10
149.295
20
-78.7666
11
162.169
21
-80.5759
0
LINE
8
BLACK
6
CONTINUOUS
10
162.169
20
-80.5759
11
162.169
21
-80.5759
0
LINE
8
BLACK
6
CONTINUOUS
10
162.169
20
-80.5759
11
162.351
21
-80.618
0
LINE
8
BLACK
6
CONTINUOUS
10
162.351
20
-80.618
11
162.524
21
-80.6912
0
LINE
8
BLACK
6
CONTINUOUS
10
162.524
20
-80.6912
11
162.681
21
-80.7933
0
LINE
8
BLACK
6
CONTINUOUS
10
162.681
20
-80.7933
11
162.818
21
-80.9211
0
LINE
8
BLACK
6
CONTINUOUS
10
162.818
20
-80.9211
11
162.931
21
-81.0707
0
LINE
8
BLACK
6
CONTINUOUS
10
162.931
20
-81.0707
11
163.016
21
-81.2377
0
LINE
8
BLACK
6
CONTINUOUS
10
163.016
20
-81.2377
11
163.07
21
-81.4169
0
LINE
8
BLACK
6
CONTINUOUS
10
163.07
20
-81.4169
11
163.093
21
-81.6029
0
LINE
8
BLACK
6
CONTINUOUS
10
163.093
20
-81.6029
11
163.084
21
-81.79
0
LINE
8
BLACK
6
CONTINUOUS
10
163.084
20
-81.79
11
163.083
21
-81.79
0
LINE
8
BLACK
6
CONTINUOUS
10
163.083
20
-81.79
11
161.274
21
-94.6635
0
LINE
8
BLACK
6
CONTINUOUS
10
161.274
20
-94.6635
11
161.232
21
-94.8461
0
LINE
8
BLACK
6
CONTINUOUS
10
161.232
20
-94.8461
11
161.159
21
-95.0186
0
LINE
8
BLACK
6
CONTINUOUS
10
161.159
20
-95.0186
11
161.057
21
-95.1757
0
LINE
8
BLACK
6
CONTINUOUS
10
161.057
20
-95.1757
11
160.929
21
-95.3128
0
LINE
8
BLACK
6
CONTINUOUS
10
160.929
20
-95.3128
11
160.779
21
-95.4256
0
LINE
8
BLACK
6
CONTINUOUS
10
160.779
20
-95.4256
11
160.612
21
-95.5106
0
LINE
8
BLACK
6
CONTINUOUS
10
160.612
20
-95.5106
11
160.433
21
-95.5654
0
LINE
8
BLACK
6
CONTINUOUS
10
160.433
20
-95.5654
11
160.247
21
-95.5883
0
LINE
8
BLACK
6
CONTINUOUS
10
160.247
20
-95.5883
11
160.06
21
-95.5784
0
LINE
8
BLACK
6
CONTINUOUS
10
160.06
20
-95.5784
11
160.06
21
-95.5784
0
LINE
8
BLACK
6
CONTINUOUS
10
160.06
20
-95.5784
11
160.06
21
-95.5784
0
LINE
8
BLACK
6
CONTINUOUS
10
160.06
20
-95.5784
11
160.06
21
-95.5784
0
LINE
8
BLACK
6
CONTINUOUS
10
160.06
20
-95.5784
11
147.187
21
-93.7692
0
LINE
8
BLACK
6
CONTINUOUS
10
147.187
20
-93.7692
11
147.187
21
-93.7692
0
LINE
8
BLACK
6
CONTINUOUS
10
147.187
20
-93.7692
11
147.004
21
-93.727
0
LINE
8
BLACK
6
CONTINUOUS
10
147.004
20
-93.727
11
146.832
21
-93.6538
0
LINE
8
BLACK
6
CONTINUOUS
10
146.832
20
-93.6538
11
146.674
21
-93.5518
0
LINE
8
BLACK
6
CONTINUOUS
10
146.674
20
-93.5518
11
146.537
21
-93.424
0
LINE
8
BLACK
6
CONTINUOUS
10
146.537
20
-93.424
11
146.425
21
-93.2743
0
LINE
8
BLACK
6
CONTINUOUS
10
146.425
20
-93.2743
11
146.339
21
-93.1073
0
LINE
8
BLACK
6
CONTINUOUS
10
146.339
20
-93.1073
11
146.285
21
-92.9281
0
LINE
8
BLACK
6
CONTINUOUS
10
146.285
20
-92.9281
11
146.262
21
-92.7422
0
LINE
8
BLACK
6
CONTINUOUS
10
146.262
20
-92.7422
11
146.272
21
-92.555
0
LINE
8
BLACK
6
CONTINUOUS
10
146.272
20
-92.555
11
146.272
21
-92.555
0
LINE
8
BLACK
6
CONTINUOUS
10
146.272
20
-92.555
11
146.272
21
-92.555
0
LINE
8
BLACK
6
CONTINUOUS
10
146.272
20
-92.555
11
146.272
21
-92.555
0
LINE
8
BLACK
6
CONTINUOUS
10
146.272
20
-92.555
11
148.081
21
-79.6815
0
LINE
8
BLACK
6
CONTINUOUS
10
148.081
20
-79.6815
11
148.081
21
-79.6815
0
LINE
8
BLACK
6
CONTINUOUS
10
148.081
20
-79.6815
11
148.081
21
-79.6815
0
LINE
8
BLACK
6
CONTINUOUS
10
148.081
20
-79.6815
11
148.123
21
-79.499
0
LINE
8
BLACK
6
CONTINUOUS
10
148.123
20
-79.499
11
148.196
21
-79.3265
0
LINE
8
BLACK
6
CONTINUOUS
10
148.196
20
-79.3265
11
148.298
21
-79.1693
0
LINE
8
BLACK
6
CONTINUOUS
10
148.298
20
-79.1693
11
148.426
21
-79.0323
0
LINE
8
BLACK
6
CONTINUOUS
10
148.426
20
-79.0323
11
148.576
21
-78.9195
0
LINE
8
BLACK
6
CONTINUOUS
10
148.576
20
-78.9195
11
148.743
21
-78.8345
0
LINE
8
BLACK
6
CONTINUOUS
10
148.743
20
-78.8345
11
148.922
21
-78.7797
0
LINE
8
BLACK
6
CONTINUOUS
10
148.922
20
-78.7797
11
149.108
21
-78.7568
0
LINE
8
BLACK
6
CONTINUOUS
10
149.108
20
-78.7568
11
149.295
21
-78.7666
0
LINE
8
BLACK
6
CONTINUOUS
10
149.032
20
-78.9096
11
148.874
21
-78.9432
0
LINE
8
BLACK
6
CONTINUOUS
10
148.874
20
-78.9432
11
148.724
21
-79.0038
0
LINE
8
BLACK
6
CONTINUOUS
10
148.724
20
-79.0038
11
148.587
21
-79.0896
0
LINE
8
BLACK
6
CONTINUOUS
10
148.587
20
-79.0896
11
148.466
21
-79.1979
0
LINE
8
BLACK
6
CONTINUOUS
10
148.466
20
-79.1979
11
148.367
21
-79.3255
0
LINE
8
BLACK
6
CONTINUOUS
10
148.367
20
-79.3255
11
148.291
21
-79.4684
0
LINE
8
BLACK
6
CONTINUOUS
10
148.291
20
-79.4684
11
148.241
21
-79.6223
0
LINE
8
BLACK
6
CONTINUOUS
10
148.241
20
-79.6223
11
148.229
21
-79.7024
0
LINE
8
BLACK
6
CONTINUOUS
10
148.229
20
-79.7024
11
146.42
21
-92.5759
0
LINE
8
BLACK
6
CONTINUOUS
10
146.42
20
-92.5759
11
146.42
21
-92.5763
0
LINE
8
BLACK
6
CONTINUOUS
10
146.42
20
-92.5763
11
146.409
21
-92.656
0
LINE
8
BLACK
6
CONTINUOUS
10
146.409
20
-92.656
11
146.415
21
-92.8178
0
LINE
8
BLACK
6
CONTINUOUS
10
146.415
20
-92.8178
11
146.448
21
-92.9761
0
LINE
8
BLACK
6
CONTINUOUS
10
146.448
20
-92.9761
11
146.509
21
-93.1262
0
LINE
8
BLACK
6
CONTINUOUS
10
146.509
20
-93.1262
11
146.595
21
-93.2634
0
LINE
8
BLACK
6
CONTINUOUS
10
146.595
20
-93.2634
11
146.703
21
-93.3837
0
LINE
8
BLACK
6
CONTINUOUS
10
146.703
20
-93.3837
11
146.83
21
-93.4834
0
LINE
8
BLACK
6
CONTINUOUS
10
146.83
20
-93.4834
11
146.973
21
-93.5594
0
LINE
8
BLACK
6
CONTINUOUS
10
146.973
20
-93.5594
11
147.127
21
-93.6094
0
LINE
8
BLACK
6
CONTINUOUS
10
147.127
20
-93.6094
11
147.207
21
-93.6206
0
LINE
8
BLACK
6
CONTINUOUS
10
147.207
20
-93.6206
11
147.207
21
-93.6206
0
LINE
8
BLACK
6
CONTINUOUS
10
147.207
20
-93.6206
11
147.207
21
-93.6206
0
LINE
8
BLACK
6
CONTINUOUS
10
147.207
20
-93.6206
11
160.081
21
-95.4299
0
LINE
8
BLACK
6
CONTINUOUS
10
160.081
20
-95.4299
11
160.081
21
-95.4299
0
LINE
8
BLACK
6
CONTINUOUS
10
160.081
20
-95.4299
11
160.161
21
-95.4412
0
LINE
8
BLACK
6
CONTINUOUS
10
160.161
20
-95.4412
11
160.323
21
-95.4355
0
LINE
8
BLACK
6
CONTINUOUS
10
160.323
20
-95.4355
11
160.481
21
-95.4019
0
LINE
8
BLACK
6
CONTINUOUS
10
160.481
20
-95.4019
11
160.631
21
-95.3412
0
LINE
8
BLACK
6
CONTINUOUS
10
160.631
20
-95.3412
11
160.769
21
-95.2555
0
LINE
8
BLACK
6
CONTINUOUS
10
160.769
20
-95.2555
11
160.889
21
-95.1472
0
LINE
8
BLACK
6
CONTINUOUS
10
160.889
20
-95.1472
11
160.988
21
-95.0196
0
LINE
8
BLACK
6
CONTINUOUS
10
160.988
20
-95.0196
11
161.064
21
-94.8767
0
LINE
8
BLACK
6
CONTINUOUS
10
161.064
20
-94.8767
11
161.114
21
-94.7228
0
LINE
8
BLACK
6
CONTINUOUS
10
161.114
20
-94.7228
11
161.126
21
-94.6426
0
LINE
8
BLACK
6
CONTINUOUS
10
161.126
20
-94.6426
11
161.126
21
-94.6426
0
LINE
8
BLACK
6
CONTINUOUS
10
161.126
20
-94.6426
11
161.126
21
-94.6426
0
LINE
8
BLACK
6
CONTINUOUS
10
161.126
20
-94.6426
11
162.935
21
-81.7691
0
LINE
8
BLACK
6
CONTINUOUS
10
162.935
20
-81.7691
11
162.935
21
-81.769
0
LINE
8
BLACK
6
CONTINUOUS
10
162.935
20
-81.769
11
162.946
21
-81.689
0
LINE
8
BLACK
6
CONTINUOUS
10
162.946
20
-81.689
11
162.941
21
-81.5272
0
LINE
8
BLACK
6
CONTINUOUS
10
162.941
20
-81.5272
11
162.907
21
-81.3689
0
LINE
8
BLACK
6
CONTINUOUS
10
162.907
20
-81.3689
11
162.846
21
-81.2189
0
LINE
8
BLACK
6
CONTINUOUS
10
162.846
20
-81.2189
11
162.761
21
-81.0816
0
LINE
8
BLACK
6
CONTINUOUS
10
162.761
20
-81.0816
11
162.652
21
-80.9613
0
LINE
8
BLACK
6
CONTINUOUS
10
162.652
20
-80.9613
11
162.525
21
-80.8617
0
LINE
8
BLACK
6
CONTINUOUS
10
162.525
20
-80.8617
11
162.382
21
-80.7857
0
LINE
8
BLACK
6
CONTINUOUS
10
162.382
20
-80.7857
11
162.228
21
-80.7357
0
LINE
8
BLACK
6
CONTINUOUS
10
162.228
20
-80.7357
11
162.148
21
-80.7244
0
LINE
8
BLACK
6
CONTINUOUS
10
162.148
20
-80.7244
11
162.148
21
-80.7244
0
LINE
8
BLACK
6
CONTINUOUS
10
162.148
20
-80.7244
11
162.148
21
-80.7244
0
LINE
8
BLACK
6
CONTINUOUS
10
162.148
20
-80.7244
11
162.148
21
-80.7244
0
LINE
8
BLACK
6
CONTINUOUS
10
162.148
20
-80.7244
11
149.274
21
-78.9152
0
LINE
8
BLACK
6
CONTINUOUS
10
149.274
20
-78.9152
11
149.274
21
-78.9152
0
LINE
8
BLACK
6
CONTINUOUS
10
149.274
20
-78.9152
11
149.194
21
-78.9039
0
LINE
8
BLACK
6
CONTINUOUS
10
149.194
20
-78.9039
11
149.032
21
-78.9096
0
LINE
8
BLACK
6
CONTINUOUS
10
73.4255
20
-80.3391
11
86.4255
21
-80.3391
0
LINE
8
BLACK
6
CONTINUOUS
10
86.4255
20
-80.3391
11
86.4255
21
-80.3391
0
LINE
8
BLACK
6
CONTINUOUS
10
86.4255
20
-80.3391
11
86.6122
21
-80.3555
0
LINE
8
BLACK
6
CONTINUOUS
10
86.6122
20
-80.3555
11
86.7932
21
-80.404
0
LINE
8
BLACK
6
CONTINUOUS
10
86.7932
20
-80.404
11
86.963
21
-80.4831
0
LINE
8
BLACK
6
CONTINUOUS
10
86.963
20
-80.4831
11
87.1165
21
-80.5906
0
LINE
8
BLACK
6
CONTINUOUS
10
87.1165
20
-80.5906
11
87.249
21
-80.7231
0
LINE
8
BLACK
6
CONTINUOUS
10
87.249
20
-80.7231
11
87.3565
21
-80.8766
0
LINE
8
BLACK
6
CONTINUOUS
10
87.3565
20
-80.8766
11
87.4357
21
-81.0465
0
LINE
8
BLACK
6
CONTINUOUS
10
87.4357
20
-81.0465
11
87.4842
21
-81.2275
0
LINE
8
BLACK
6
CONTINUOUS
10
87.4842
20
-81.2275
11
87.5005
21
-81.414
0
LINE
8
BLACK
6
CONTINUOUS
10
87.5005
20
-81.414
11
87.5005
21
-81.4141
0
LINE
8
BLACK
6
CONTINUOUS
10
87.5005
20
-81.4141
11
87.5005
21
-94.4141
0
LINE
8
BLACK
6
CONTINUOUS
10
87.5005
20
-94.4141
11
87.5005
21
-94.4141
0
LINE
8
BLACK
6
CONTINUOUS
10
87.5005
20
-94.4141
11
87.4842
21
-94.6008
0
LINE
8
BLACK
6
CONTINUOUS
10
87.4842
20
-94.6008
11
87.4357
21
-94.7818
0
LINE
8
BLACK
6
CONTINUOUS
10
87.4357
20
-94.7818
11
87.3565
21
-94.9516
0
LINE
8
BLACK
6
CONTINUOUS
10
87.3565
20
-94.9516
11
87.249
21
-95.1051
0
LINE
8
BLACK
6
CONTINUOUS
10
87.249
20
-95.1051
11
87.1165
21
-95.2376
0
LINE
8
BLACK
6
CONTINUOUS
10
87.1165
20
-95.2376
11
86.963
21
-95.3451
0
LINE
8
BLACK
6
CONTINUOUS
10
86.963
20
-95.3451
11
86.7932
21
-95.4243
0
LINE
8
BLACK
6
CONTINUOUS
10
86.7932
20
-95.4243
11
86.6122
21
-95.4728
0
LINE
8
BLACK
6
CONTINUOUS
10
86.6122
20
-95.4728
11
86.4255
21
-95.4891
0
LINE
8
BLACK
6
CONTINUOUS
10
86.4255
20
-95.4891
11
86.4255
21
-95.4891
0
LINE
8
BLACK
6
CONTINUOUS
10
86.4255
20
-95.4891
11
86.4255
21
-95.4891
0
LINE
8
BLACK
6
CONTINUOUS
10
86.4255
20
-95.4891
11
86.4255
21
-95.4891
0
LINE
8
BLACK
6
CONTINUOUS
10
86.4255
20
-95.4891
11
86.4255
21
-95.4891
0
LINE
8
BLACK
6
CONTINUOUS
10
86.4255
20
-95.4891
11
73.4255
21
-95.4891
0
LINE
8
BLACK
6
CONTINUOUS
10
73.4255
20
-95.4891
11
73.4255
21
-95.4891
0
LINE
8
BLACK
6
CONTINUOUS
10
73.4255
20
-95.4891
11
73.4255
21
-95.4891
0
LINE
8
BLACK
6
CONTINUOUS
10
73.4255
20
-95.4891
11
73.2388
21
-95.4728
0
LINE
8
BLACK
6
CONTINUOUS
10
73.2388
20
-95.4728
11
73.0578
21
-95.4243
0
LINE
8
BLACK
6
CONTINUOUS
10
73.0578
20
-95.4243
11
72.888
21
-95.3451
0
LINE
8
BLACK
6
CONTINUOUS
10
72.888
20
-95.3451
11
72.7345
21
-95.2376
0
LINE
8
BLACK
6
CONTINUOUS
10
72.7345
20
-95.2376
11
72.602
21
-95.1051
0
LINE
8
BLACK
6
CONTINUOUS
10
72.602
20
-95.1051
11
72.4945
21
-94.9516
0
LINE
8
BLACK
6
CONTINUOUS
10
72.4945
20
-94.9516
11
72.4153
21
-94.7818
0
LINE
8
BLACK
6
CONTINUOUS
10
72.4153
20
-94.7818
11
72.3668
21
-94.6008
0
LINE
8
BLACK
6
CONTINUOUS
10
72.3668
20
-94.6008
11
72.3505
21
-94.4141
0
LINE
8
BLACK
6
CONTINUOUS
10
72.3505
20
-94.4141
11
72.3505
21
-94.4141
0
LINE
8
BLACK
6
CONTINUOUS
10
72.3505
20
-94.4141
11
72.3505
21
-94.4141
0
LINE
8
BLACK
6
CONTINUOUS
10
72.3505
20
-94.4141
11
72.3505
21
-81.4141
0
LINE
8
BLACK
6
CONTINUOUS
10
72.3505
20
-81.4141
11
72.3505
21
-81.4141
0
LINE
8
BLACK
6
CONTINUOUS
10
72.3505
20
-81.4141
11
72.3668
21
-81.2274
0
LINE
8
BLACK
6
CONTINUOUS
10
72.3668
20
-81.2274
11
72.4153
21
-81.0464
0
LINE
8
BLACK
6
CONTINUOUS
10
72.4153
20
-81.0464
11
72.4945
21
-80.8766
0
LINE
8
BLACK
6
CONTINUOUS
10
72.4945
20
-80.8766
11
72.602
21
-80.7231
0
LINE
8
BLACK
6
CONTINUOUS
10
72.602
20
-80.7231
11
72.7345
21
-80.5906
0
LINE
8
BLACK
6
CONTINUOUS
10
72.7345
20
-80.5906
11
72.888
21
-80.4831
0
LINE
8
BLACK
6
CONTINUOUS
10
72.888
20
-80.4831
11
73.0578
21
-80.4039
0
LINE
8
BLACK
6
CONTINUOUS
10
73.0578
20
-80.4039
11
73.2388
21
-80.3554
0
LINE
8
BLACK
6
CONTINUOUS
10
73.2388
20
-80.3554
11
73.4255
21
-80.3391
0
LINE
8
BLACK
6
CONTINUOUS
10
73.4255
20
-80.3391
11
73.4255
21
-80.3391
0
LINE
8
BLACK
6
CONTINUOUS
10
73.1852
20
-80.5172
11
73.0331
21
-80.5726
0
LINE
8
BLACK
6
CONTINUOUS
10
73.0331
20
-80.5726
11
72.8929
21
-80.6535
0
LINE
8
BLACK
6
CONTINUOUS
10
72.8929
20
-80.6535
11
72.7689
21
-80.7575
0
LINE
8
BLACK
6
CONTINUOUS
10
72.7689
20
-80.7575
11
72.6649
21
-80.8815
0
LINE
8
BLACK
6
CONTINUOUS
10
72.6649
20
-80.8815
11
72.584
21
-81.0217
0
LINE
8
BLACK
6
CONTINUOUS
10
72.584
20
-81.0217
11
72.5286
21
-81.1738
0
LINE
8
BLACK
6
CONTINUOUS
10
72.5286
20
-81.1738
11
72.5005
21
-81.3332
0
LINE
8
BLACK
6
CONTINUOUS
10
72.5005
20
-81.3332
11
72.5005
21
-81.4141
0
LINE
8
BLACK
6
CONTINUOUS
10
72.5005
20
-81.4141
11
72.5005
21
-81.4141
0
LINE
8
BLACK
6
CONTINUOUS
10
72.5005
20
-81.4141
11
72.5005
21
-94.4141
0
LINE
8
BLACK
6
CONTINUOUS
10
72.5005
20
-94.4141
11
72.5005
21
-94.4143
0
LINE
8
BLACK
6
CONTINUOUS
10
72.5005
20
-94.4143
11
72.5005
21
-94.495
0
LINE
8
BLACK
6
CONTINUOUS
10
72.5005
20
-94.495
11
72.5286
21
-94.6544
0
LINE
8
BLACK
6
CONTINUOUS
10
72.5286
20
-94.6544
11
72.584
21
-94.8065
0
LINE
8
BLACK
6
CONTINUOUS
10
72.584
20
-94.8065
11
72.6649
21
-94.9467
0
LINE
8
BLACK
6
CONTINUOUS
10
72.6649
20
-94.9467
11
72.7689
21
-95.0707
0
LINE
8
BLACK
6
CONTINUOUS
10
72.7689
20
-95.0707
11
72.8929
21
-95.1747
0
LINE
8
BLACK
6
CONTINUOUS
10
72.8929
20
-95.1747
11
73.0331
21
-95.2557
0
LINE
8
BLACK
6
CONTINUOUS
10
73.0331
20
-95.2557
11
73.1852
21
-95.311
0
LINE
8
BLACK
6
CONTINUOUS
10
73.1852
20
-95.311
11
73.3446
21
-95.3391
0
LINE
8
BLACK
6
CONTINUOUS
10
73.3446
20
-95.3391
11
73.4255
21
-95.3391
0
LINE
8
BLACK
6
CONTINUOUS
10
73.4255
20
-95.3391
11
73.4255
21
-95.3391
0
LINE
8
BLACK
6
CONTINUOUS
10
73.4255
20
-95.3391
11
86.4255
21
-95.3391
0
LINE
8
BLACK
6
CONTINUOUS
10
86.4255
20
-95.3391
11
86.4255
21
-95.3391
0
LINE
8
BLACK
6
CONTINUOUS
10
86.4255
20
-95.3391
11
86.5064
21
-95.3391
0
LINE
8
BLACK
6
CONTINUOUS
10
86.5064
20
-95.3391
11
86.6658
21
-95.311
0
LINE
8
BLACK
6
CONTINUOUS
10
86.6658
20
-95.311
11
86.8179
21
-95.2556
0
LINE
8
BLACK
6
CONTINUOUS
10
86.8179
20
-95.2556
11
86.9581
21
-95.1747
0
LINE
8
BLACK
6
CONTINUOUS
10
86.9581
20
-95.1747
11
87.0821
21
-95.0707
0
LINE
8
BLACK
6
CONTINUOUS
10
87.0821
20
-95.0707
11
87.1861
21
-94.9467
0
LINE
8
BLACK
6
CONTINUOUS
10
87.1861
20
-94.9467
11
87.267
21
-94.8065
0
LINE
8
BLACK
6
CONTINUOUS
10
87.267
20
-94.8065
11
87.3224
21
-94.6544
0
LINE
8
BLACK
6
CONTINUOUS
10
87.3224
20
-94.6544
11
87.3505
21
-94.495
0
LINE
8
BLACK
6
CONTINUOUS
10
87.3505
20
-94.495
11
87.3505
21
-94.4141
0
LINE
8
BLACK
6
CONTINUOUS
10
87.3505
20
-94.4141
11
87.3505
21
-81.4141
0
LINE
8
BLACK
6
CONTINUOUS
10
87.3505
20
-81.4141
11
87.3505
21
-81.4141
0
LINE
8
BLACK
6
CONTINUOUS
10
87.3505
20
-81.4141
11
87.3505
21
-81.4141
0
LINE
8
BLACK
6
CONTINUOUS
10
87.3505
20
-81.4141
11
87.3505
21
-81.3332
0
LINE
8
BLACK
6
CONTINUOUS
10
87.3505
20
-81.3332
11
87.3224
21
-81.1738
0
LINE
8
BLACK
6
CONTINUOUS
10
87.3224
20
-81.1738
11
87.267
21
-81.0217
0
LINE
8
BLACK
6
CONTINUOUS
10
87.267
20
-81.0217
11
87.1861
21
-80.8815
0
LINE
8
BLACK
6
CONTINUOUS
10
87.1861
20
-80.8815
11
87.0821
21
-80.7576
0
LINE
8
BLACK
6
CONTINUOUS
10
87.0821
20
-80.7576
11
86.9581
21
-80.6535
0
LINE
8
BLACK
6
CONTINUOUS
10
86.9581
20
-80.6535
11
86.8179
21
-80.5726
0
LINE
8
BLACK
6
CONTINUOUS
10
86.8179
20
-80.5726
11
86.6658
21
-80.5172
0
LINE
8
BLACK
6
CONTINUOUS
10
86.6658
20
-80.5172
11
86.5064
21
-80.4891
0
LINE
8
BLACK
6
CONTINUOUS
10
86.5064
20
-80.4891
11
86.4255
21
-80.4891
0
LINE
8
BLACK
6
CONTINUOUS
10
86.4255
20
-80.4891
11
73.4255
21
-80.4891
0
LINE
8
BLACK
6
CONTINUOUS
10
73.4255
20
-80.4891
11
73.4255
21
-80.4891
0
LINE
8
BLACK
6
CONTINUOUS
10
73.4255
20
-80.4891
11
73.4255
21
-80.4891
0
LINE
8
BLACK
6
CONTINUOUS
10
73.4255
20
-80.4891
11
73.3446
21
-80.4891
0
LINE
8
BLACK
6
CONTINUOUS
10
73.3446
20
-80.4891
11
73.1852
21
-80.5172
0
LINE
8
BLACK
6
CONTINUOUS
10
129.958
20
-79.0396
11
129.959
21
-79.0396
0
LINE
8
BLACK
6
CONTINUOUS
10
129.959
20
-79.0396
11
129.959
21
-79.0396
0
LINE
8
BLACK
6
CONTINUOUS
10
129.959
20
-79.0396
11
129.959
21
-79.0396
0
LINE
8
BLACK
6
CONTINUOUS
10
129.959
20
-79.0396
11
142.887
21
-80.3985
0
LINE
8
BLACK
6
CONTINUOUS
10
142.887
20
-80.3985
11
142.887
21
-80.3985
0
LINE
8
BLACK
6
CONTINUOUS
10
142.887
20
-80.3985
11
142.887
21
-80.3985
0
LINE
8
BLACK
6
CONTINUOUS
10
142.887
20
-80.3985
11
143.071
21
-80.4342
0
LINE
8
BLACK
6
CONTINUOUS
10
143.071
20
-80.4342
11
143.246
21
-80.5014
0
LINE
8
BLACK
6
CONTINUOUS
10
143.246
20
-80.5014
11
143.407
21
-80.5979
0
LINE
8
BLACK
6
CONTINUOUS
10
143.407
20
-80.5979
11
143.548
21
-80.7208
0
LINE
8
BLACK
6
CONTINUOUS
10
143.548
20
-80.7208
11
143.666
21
-80.8665
0
LINE
8
BLACK
6
CONTINUOUS
10
143.666
20
-80.8665
11
143.757
21
-81.0303
0
LINE
8
BLACK
6
CONTINUOUS
10
143.757
20
-81.0303
11
143.818
21
-81.2075
0
LINE
8
BLACK
6
CONTINUOUS
10
143.818
20
-81.2075
11
143.847
21
-81.3926
0
LINE
8
BLACK
6
CONTINUOUS
10
143.847
20
-81.3926
11
143.844
21
-81.5799
0
LINE
8
BLACK
6
CONTINUOUS
10
143.844
20
-81.5799
11
143.844
21
-81.58
0
LINE
8
BLACK
6
CONTINUOUS
10
143.844
20
-81.58
11
142.485
21
-94.5087
0
LINE
8
BLACK
6
CONTINUOUS
10
142.485
20
-94.5087
11
142.449
21
-94.6927
0
LINE
8
BLACK
6
CONTINUOUS
10
142.449
20
-94.6927
11
142.382
21
-94.8676
0
LINE
8
BLACK
6
CONTINUOUS
10
142.382
20
-94.8676
11
142.286
21
-95.0282
0
LINE
8
BLACK
6
CONTINUOUS
10
142.286
20
-95.0282
11
142.163
21
-95.1697
0
LINE
8
BLACK
6
CONTINUOUS
10
142.163
20
-95.1697
11
142.017
21
-95.2876
0
LINE
8
BLACK
6
CONTINUOUS
10
142.017
20
-95.2876
11
141.853
21
-95.3784
0
LINE
8
BLACK
6
CONTINUOUS
10
141.853
20
-95.3784
11
141.676
21
-95.4394
0
LINE
8
BLACK
6
CONTINUOUS
10
141.676
20
-95.4394
11
141.491
21
-95.4687
0
LINE
8
BLACK
6
CONTINUOUS
10
141.491
20
-95.4687
11
141.304
21
-95.4655
0
LINE
8
BLACK
6
CONTINUOUS
10
141.304
20
-95.4655
11
141.304
21
-95.4655
0
LINE
8
BLACK
6
CONTINUOUS
10
141.304
20
-95.4655
11
141.304
21
-95.4655
0
LINE
8
BLACK
6
CONTINUOUS
10
141.304
20
-95.4655
11
141.304
21
-95.4655
0
LINE
8
BLACK
6
CONTINUOUS
10
141.304
20
-95.4655
11
141.304
21
-95.4655
0
LINE
8
BLACK
6
CONTINUOUS
10
141.304
20
-95.4655
11
128.375
21
-94.1066
0
LINE
8
BLACK
6
CONTINUOUS
10
128.375
20
-94.1066
11
128.375
21
-94.1066
0
LINE
8
BLACK
6
CONTINUOUS
10
128.375
20
-94.1066
11
128.375
21
-94.1066
0
LINE
8
BLACK
6
CONTINUOUS
10
128.375
20
-94.1066
11
128.191
21
-94.0708
0
LINE
8
BLACK
6
CONTINUOUS
10
128.191
20
-94.0708
11
128.016
21
-94.0037
0
LINE
8
BLACK
6
CONTINUOUS
10
128.016
20
-94.0037
11
127.855
21
-93.9072
0
LINE
8
BLACK
6
CONTINUOUS
10
127.855
20
-93.9072
11
127.714
21
-93.7842
0
LINE
8
BLACK
6
CONTINUOUS
10
127.714
20
-93.7842
11
127.596
21
-93.6386
0
LINE
8
BLACK
6
CONTINUOUS
10
127.596
20
-93.6386
11
127.505
21
-93.4747
0
LINE
8
BLACK
6
CONTINUOUS
10
127.505
20
-93.4747
11
127.444
21
-93.2976
0
LINE
8
BLACK
6
CONTINUOUS
10
127.444
20
-93.2976
11
127.415
21
-93.1125
0
LINE
8
BLACK
6
CONTINUOUS
10
127.415
20
-93.1125
11
127.418
21
-92.9252
0
LINE
8
BLACK
6
CONTINUOUS
10
127.418
20
-92.9252
11
127.418
21
-92.9251
0
LINE
8
BLACK
6
CONTINUOUS
10
127.418
20
-92.9251
11
128.777
21
-79.9963
0
LINE
8
BLACK
6
CONTINUOUS
10
128.777
20
-79.9963
11
128.777
21
-79.9963
0
LINE
8
BLACK
6
CONTINUOUS
10
128.777
20
-79.9963
11
128.813
21
-79.8124
0
LINE
8
BLACK
6
CONTINUOUS
10
128.813
20
-79.8124
11
128.88
21
-79.6375
0
LINE
8
BLACK
6
CONTINUOUS
10
128.88
20
-79.6375
11
128.976
21
-79.4768
0
LINE
8
BLACK
6
CONTINUOUS
10
128.976
20
-79.4768
11
129.099
21
-79.3354
0
LINE
8
BLACK
6
CONTINUOUS
10
129.099
20
-79.3354
11
129.245
21
-79.2175
0
LINE
8
BLACK
6
CONTINUOUS
10
129.245
20
-79.2175
11
129.409
21
-79.1267
0
LINE
8
BLACK
6
CONTINUOUS
10
129.409
20
-79.1267
11
129.586
21
-79.0657
0
LINE
8
BLACK
6
CONTINUOUS
10
129.586
20
-79.0657
11
129.771
21
-79.0364
0
LINE
8
BLACK
6
CONTINUOUS
10
129.771
20
-79.0364
11
129.958
21
-79.0396
0
LINE
8
BLACK
6
CONTINUOUS
10
129.701
20
-79.1916
11
129.544
21
-79.2308
0
LINE
8
BLACK
6
CONTINUOUS
10
129.544
20
-79.2308
11
129.396
21
-79.2966
0
LINE
8
BLACK
6
CONTINUOUS
10
129.396
20
-79.2966
11
129.262
21
-79.3871
0
LINE
8
BLACK
6
CONTINUOUS
10
129.262
20
-79.3871
11
129.145
21
-79.4995
0
LINE
8
BLACK
6
CONTINUOUS
10
129.145
20
-79.4995
11
129.05
21
-79.6305
0
LINE
8
BLACK
6
CONTINUOUS
10
129.05
20
-79.6305
11
128.979
21
-79.776
0
LINE
8
BLACK
6
CONTINUOUS
10
128.979
20
-79.776
11
128.935
21
-79.9315
0
LINE
8
BLACK
6
CONTINUOUS
10
128.935
20
-79.9315
11
128.926
21
-80.012
0
LINE
8
BLACK
6
CONTINUOUS
10
128.926
20
-80.012
11
128.926
21
-80.012
0
LINE
8
BLACK
6
CONTINUOUS
10
128.926
20
-80.012
11
128.926
21
-80.012
0
LINE
8
BLACK
6
CONTINUOUS
10
128.926
20
-80.012
11
127.567
21
-92.9408
0
LINE
8
BLACK
6
CONTINUOUS
10
127.567
20
-92.9408
11
127.567
21
-92.9408
0
LINE
8
BLACK
6
CONTINUOUS
10
127.567
20
-92.9408
11
127.559
21
-93.0213
0
LINE
8
BLACK
6
CONTINUOUS
10
127.559
20
-93.0213
11
127.57
21
-93.1828
0
LINE
8
BLACK
6
CONTINUOUS
10
127.57
20
-93.1828
11
127.609
21
-93.3398
0
LINE
8
BLACK
6
CONTINUOUS
10
127.609
20
-93.3398
11
127.675
21
-93.4877
0
LINE
8
BLACK
6
CONTINUOUS
10
127.675
20
-93.4877
11
127.766
21
-93.6218
0
LINE
8
BLACK
6
CONTINUOUS
10
127.766
20
-93.6218
11
127.878
21
-93.7383
0
LINE
8
BLACK
6
CONTINUOUS
10
127.878
20
-93.7383
11
128.009
21
-93.8334
0
LINE
8
BLACK
6
CONTINUOUS
10
128.009
20
-93.8334
11
128.155
21
-93.9044
0
LINE
8
BLACK
6
CONTINUOUS
10
128.155
20
-93.9044
11
128.31
21
-93.949
0
LINE
8
BLACK
6
CONTINUOUS
10
128.31
20
-93.949
11
128.391
21
-93.9574
0
LINE
8
BLACK
6
CONTINUOUS
10
128.391
20
-93.9574
11
141.319
21
-95.3163
0
LINE
8
BLACK
6
CONTINUOUS
10
141.319
20
-95.3163
11
141.319
21
-95.3163
0
LINE
8
BLACK
6
CONTINUOUS
10
141.319
20
-95.3163
11
141.319
21
-95.3163
0
LINE
8
BLACK
6
CONTINUOUS
10
141.319
20
-95.3163
11
141.319
21
-95.3163
0
LINE
8
BLACK
6
CONTINUOUS
10
141.319
20
-95.3163
11
141.4
21
-95.3247
0
LINE
8
BLACK
6
CONTINUOUS
10
141.4
20
-95.3247
11
141.561
21
-95.3135
0
LINE
8
BLACK
6
CONTINUOUS
10
141.561
20
-95.3135
11
141.718
21
-95.2743
0
LINE
8
BLACK
6
CONTINUOUS
10
141.718
20
-95.2743
11
141.866
21
-95.2085
0
LINE
8
BLACK
6
CONTINUOUS
10
141.866
20
-95.2085
11
142
21
-95.118
0
LINE
8
BLACK
6
CONTINUOUS
10
142
20
-95.118
11
142.117
21
-95.0055
0
LINE
8
BLACK
6
CONTINUOUS
10
142.117
20
-95.0055
11
142.212
21
-94.8746
0
LINE
8
BLACK
6
CONTINUOUS
10
142.212
20
-94.8746
11
142.283
21
-94.7291
0
LINE
8
BLACK
6
CONTINUOUS
10
142.283
20
-94.7291
11
142.328
21
-94.5735
0
LINE
8
BLACK
6
CONTINUOUS
10
142.328
20
-94.5735
11
142.336
21
-94.4931
0
LINE
8
BLACK
6
CONTINUOUS
10
142.336
20
-94.4931
11
142.336
21
-94.4931
0
LINE
8
BLACK
6
CONTINUOUS
10
142.336
20
-94.4931
11
142.336
21
-94.4931
0
LINE
8
BLACK
6
CONTINUOUS
10
142.336
20
-94.4931
11
143.695
21
-81.5643
0
LINE
8
BLACK
6
CONTINUOUS
10
143.695
20
-81.5643
11
143.695
21
-81.5643
0
LINE
8
BLACK
6
CONTINUOUS
10
143.695
20
-81.5643
11
143.703
21
-81.4838
0
LINE
8
BLACK
6
CONTINUOUS
10
143.703
20
-81.4838
11
143.692
21
-81.3223
0
LINE
8
BLACK
6
CONTINUOUS
10
143.692
20
-81.3223
11
143.653
21
-81.1653
0
LINE
8
BLACK
6
CONTINUOUS
10
143.653
20
-81.1653
11
143.587
21
-81.0174
0
LINE
8
BLACK
6
CONTINUOUS
10
143.587
20
-81.0174
11
143.497
21
-80.8832
0
LINE
8
BLACK
6
CONTINUOUS
10
143.497
20
-80.8832
11
143.384
21
-80.7668
0
LINE
8
BLACK
6
CONTINUOUS
10
143.384
20
-80.7668
11
143.253
21
-80.6717
0
LINE
8
BLACK
6
CONTINUOUS
10
143.253
20
-80.6717
11
143.108
21
-80.6007
0
LINE
8
BLACK
6
CONTINUOUS
10
143.108
20
-80.6007
11
142.952
21
-80.5561
0
LINE
8
BLACK
6
CONTINUOUS
10
142.952
20
-80.5561
11
142.872
21
-80.5477
0
LINE
8
BLACK
6
CONTINUOUS
10
142.872
20
-80.5477
11
142.872
21
-80.5477
0
LINE
8
BLACK
6
CONTINUOUS
10
142.872
20
-80.5477
11
142.872
21
-80.5476
0
LINE
8
BLACK
6
CONTINUOUS
10
142.872
20
-80.5476
11
129.943
21
-79.1888
0
LINE
8
BLACK
6
CONTINUOUS
10
129.943
20
-79.1888
11
129.943
21
-79.1888
0
LINE
8
BLACK
6
CONTINUOUS
10
129.943
20
-79.1888
11
129.943
21
-79.1888
0
LINE
8
BLACK
6
CONTINUOUS
10
129.943
20
-79.1888
11
129.943
21
-79.1888
0
LINE
8
BLACK
6
CONTINUOUS
10
129.943
20
-79.1888
11
129.862
21
-79.1804
0
LINE
8
BLACK
6
CONTINUOUS
10
129.862
20
-79.1804
11
129.701
21
-79.1916
0
LINE
8
BLACK
6
CONTINUOUS
10
167.006
20
-72.96
11
167.006
21
-72.9601
0
LINE
8
BLACK
6
CONTINUOUS
10
167.006
20
-72.9601
11
167.006
21
-72.9601
0
LINE
8
BLACK
6
CONTINUOUS
10
167.006
20
-72.9601
11
179.808
21
-75.2175
0
LINE
8
BLACK
6
CONTINUOUS
10
179.808
20
-75.2175
11
179.808
21
-75.2175
0
LINE
8
BLACK
6
CONTINUOUS
10
179.808
20
-75.2175
11
179.989
21
-75.266
0
LINE
8
BLACK
6
CONTINUOUS
10
179.989
20
-75.266
11
180.159
21
-75.3452
0
LINE
8
BLACK
6
CONTINUOUS
10
180.159
20
-75.3452
11
180.312
21
-75.4526
0
LINE
8
BLACK
6
CONTINUOUS
10
180.312
20
-75.4526
11
180.445
21
-75.5851
0
LINE
8
BLACK
6
CONTINUOUS
10
180.445
20
-75.5851
11
180.552
21
-75.7386
0
LINE
8
BLACK
6
CONTINUOUS
10
180.552
20
-75.7386
11
180.632
21
-75.9085
0
LINE
8
BLACK
6
CONTINUOUS
10
180.632
20
-75.9085
11
180.68
21
-76.0895
0
LINE
8
BLACK
6
CONTINUOUS
10
180.68
20
-76.0895
11
180.696
21
-76.2762
0
LINE
8
BLACK
6
CONTINUOUS
10
180.696
20
-76.2762
11
180.68
21
-76.4627
0
LINE
8
BLACK
6
CONTINUOUS
10
180.68
20
-76.4627
11
180.68
21
-76.4628
0
LINE
8
BLACK
6
CONTINUOUS
10
180.68
20
-76.4628
11
178.423
21
-89.2653
0
LINE
8
BLACK
6
CONTINUOUS
10
178.423
20
-89.2653
11
178.423
21
-89.2653
0
LINE
8
BLACK
6
CONTINUOUS
10
178.423
20
-89.2653
11
178.374
21
-89.4463
0
LINE
8
BLACK
6
CONTINUOUS
10
178.374
20
-89.4463
11
178.295
21
-89.6162
0
LINE
8
BLACK
6
CONTINUOUS
10
178.295
20
-89.6162
11
178.188
21
-89.7697
0
LINE
8
BLACK
6
CONTINUOUS
10
178.188
20
-89.7697
11
178.055
21
-89.9022
0
LINE
8
BLACK
6
CONTINUOUS
10
178.055
20
-89.9022
11
177.902
21
-90.0097
0
LINE
8
BLACK
6
CONTINUOUS
10
177.902
20
-90.0097
11
177.732
21
-90.0889
0
LINE
8
BLACK
6
CONTINUOUS
10
177.732
20
-90.0889
11
177.551
21
-90.1374
0
LINE
8
BLACK
6
CONTINUOUS
10
177.551
20
-90.1374
11
177.364
21
-90.1537
0
LINE
8
BLACK
6
CONTINUOUS
10
177.364
20
-90.1537
11
177.177
21
-90.1374
0
LINE
8
BLACK
6
CONTINUOUS
10
177.177
20
-90.1374
11
177.177
21
-90.1373
0
LINE
8
BLACK
6
CONTINUOUS
10
177.177
20
-90.1373
11
177.177
21
-90.1373
0
LINE
8
BLACK
6
CONTINUOUS
10
177.177
20
-90.1373
11
177.177
21
-90.1373
0
LINE
8
BLACK
6
CONTINUOUS
10
177.177
20
-90.1373
11
164.375
21
-87.8799
0
LINE
8
BLACK
6
CONTINUOUS
10
164.375
20
-87.8799
11
164.375
21
-87.8799
0
LINE
8
BLACK
6
CONTINUOUS
10
164.375
20
-87.8799
11
164.194
21
-87.8314
0
LINE
8
BLACK
6
CONTINUOUS
10
164.194
20
-87.8314
11
164.024
21
-87.7522
0
LINE
8
BLACK
6
CONTINUOUS
10
164.024
20
-87.7522
11
163.871
21
-87.6447
0
LINE
8
BLACK
6
CONTINUOUS
10
163.871
20
-87.6447
11
163.738
21
-87.5122
0
LINE
8
BLACK
6
CONTINUOUS
10
163.738
20
-87.5122
11
163.631
21
-87.3587
0
LINE
8
BLACK
6
CONTINUOUS
10
163.631
20
-87.3587
11
163.551
21
-87.1889
0
LINE
8
BLACK
6
CONTINUOUS
10
163.551
20
-87.1889
11
163.503
21
-87.0079
0
LINE
8
BLACK
6
CONTINUOUS
10
163.503
20
-87.0079
11
163.486
21
-86.8212
0
LINE
8
BLACK
6
CONTINUOUS
10
163.486
20
-86.8212
11
163.503
21
-86.6345
0
LINE
8
BLACK
6
CONTINUOUS
10
163.503
20
-86.6345
11
163.503
21
-86.6346
0
LINE
8
BLACK
6
CONTINUOUS
10
163.503
20
-86.6346
11
163.503
21
-86.6346
0
LINE
8
BLACK
6
CONTINUOUS
10
163.503
20
-86.6346
11
165.76
21
-73.8321
0
LINE
8
BLACK
6
CONTINUOUS
10
165.76
20
-73.8321
11
165.76
21
-73.832
0
LINE
8
BLACK
6
CONTINUOUS
10
165.76
20
-73.832
11
165.809
21
-73.651
0
LINE
8
BLACK
6
CONTINUOUS
10
165.809
20
-73.651
11
165.888
21
-73.4812
0
LINE
8
BLACK
6
CONTINUOUS
10
165.888
20
-73.4812
11
165.995
21
-73.3277
0
LINE
8
BLACK
6
CONTINUOUS
10
165.995
20
-73.3277
11
166.128
21
-73.1952
0
LINE
8
BLACK
6
CONTINUOUS
10
166.128
20
-73.1952
11
166.281
21
-73.0877
0
LINE
8
BLACK
6
CONTINUOUS
10
166.281
20
-73.0877
11
166.451
21
-73.0085
0
LINE
8
BLACK
6
CONTINUOUS
10
166.451
20
-73.0085
11
166.632
21
-72.96
0
LINE
8
BLACK
6
CONTINUOUS
10
166.632
20
-72.96
11
166.819
21
-72.9437
0
LINE
8
BLACK
6
CONTINUOUS
10
166.819
20
-72.9437
11
167.006
21
-72.96
0
LINE
8
BLACK
6
CONTINUOUS
10
166.738
20
-73.0937
11
166.579
21
-73.1218
0
LINE
8
BLACK
6
CONTINUOUS
10
166.579
20
-73.1218
11
166.427
21
-73.1772
0
LINE
8
BLACK
6
CONTINUOUS
10
166.427
20
-73.1772
11
166.286
21
-73.2581
0
LINE
8
BLACK
6
CONTINUOUS
10
166.286
20
-73.2581
11
166.162
21
-73.3621
0
LINE
8
BLACK
6
CONTINUOUS
10
166.162
20
-73.3621
11
166.058
21
-73.4861
0
LINE
8
BLACK
6
CONTINUOUS
10
166.058
20
-73.4861
11
165.977
21
-73.6263
0
LINE
8
BLACK
6
CONTINUOUS
10
165.977
20
-73.6263
11
165.922
21
-73.7784
0
LINE
8
BLACK
6
CONTINUOUS
10
165.922
20
-73.7784
11
165.908
21
-73.8581
0
LINE
8
BLACK
6
CONTINUOUS
10
165.908
20
-73.8581
11
165.908
21
-73.8581
0
LINE
8
BLACK
6
CONTINUOUS
10
165.908
20
-73.8581
11
165.908
21
-73.8581
0
LINE
8
BLACK
6
CONTINUOUS
10
165.908
20
-73.8581
11
165.908
21
-73.8581
0
LINE
8
BLACK
6
CONTINUOUS
10
165.908
20
-73.8581
11
163.651
21
-86.6606
0
LINE
8
BLACK
6
CONTINUOUS
10
163.651
20
-86.6606
11
163.65
21
-86.661
0
LINE
8
BLACK
6
CONTINUOUS
10
163.65
20
-86.661
11
163.636
21
-86.7403
0
LINE
8
BLACK
6
CONTINUOUS
10
163.636
20
-86.7403
11
163.636
21
-86.9021
0
LINE
8
BLACK
6
CONTINUOUS
10
163.636
20
-86.9021
11
163.665
21
-87.0615
0
LINE
8
BLACK
6
CONTINUOUS
10
163.665
20
-87.0615
11
163.72
21
-87.2136
0
LINE
8
BLACK
6
CONTINUOUS
10
163.72
20
-87.2136
11
163.801
21
-87.3538
0
LINE
8
BLACK
6
CONTINUOUS
10
163.801
20
-87.3538
11
163.905
21
-87.4778
0
LINE
8
BLACK
6
CONTINUOUS
10
163.905
20
-87.4778
11
164.029
21
-87.5818
0
LINE
8
BLACK
6
CONTINUOUS
10
164.029
20
-87.5818
11
164.169
21
-87.6628
0
LINE
8
BLACK
6
CONTINUOUS
10
164.169
20
-87.6628
11
164.321
21
-87.7181
0
LINE
8
BLACK
6
CONTINUOUS
10
164.321
20
-87.7181
11
164.401
21
-87.7322
0
LINE
8
BLACK
6
CONTINUOUS
10
164.401
20
-87.7322
11
164.401
21
-87.7322
0
LINE
8
BLACK
6
CONTINUOUS
10
164.401
20
-87.7322
11
177.203
21
-89.9896
0
LINE
8
BLACK
6
CONTINUOUS
10
177.203
20
-89.9896
11
177.204
21
-89.9898
0
LINE
8
BLACK
6
CONTINUOUS
10
177.204
20
-89.9898
11
177.283
21
-90.0037
0
LINE
8
BLACK
6
CONTINUOUS
10
177.283
20
-90.0037
11
177.445
21
-90.0037
0
LINE
8
BLACK
6
CONTINUOUS
10
177.445
20
-90.0037
11
177.604
21
-89.9756
0
LINE
8
BLACK
6
CONTINUOUS
10
177.604
20
-89.9756
11
177.756
21
-89.9203
0
LINE
8
BLACK
6
CONTINUOUS
10
177.756
20
-89.9203
11
177.897
21
-89.8393
0
LINE
8
BLACK
6
CONTINUOUS
10
177.897
20
-89.8393
11
178.021
21
-89.7353
0
LINE
8
BLACK
6
CONTINUOUS
10
178.021
20
-89.7353
11
178.125
21
-89.6113
0
LINE
8
BLACK
6
CONTINUOUS
10
178.125
20
-89.6113
11
178.206
21
-89.4711
0
LINE
8
BLACK
6
CONTINUOUS
10
178.206
20
-89.4711
11
178.261
21
-89.319
0
LINE
8
BLACK
6
CONTINUOUS
10
178.261
20
-89.319
11
178.275
21
-89.2393
0
LINE
8
BLACK
6
CONTINUOUS
10
178.275
20
-89.2393
11
178.275
21
-89.2393
0
LINE
8
BLACK
6
CONTINUOUS
10
178.275
20
-89.2393
11
178.275
21
-89.2393
0
LINE
8
BLACK
6
CONTINUOUS
10
178.275
20
-89.2393
11
180.532
21
-76.4368
0
LINE
8
BLACK
6
CONTINUOUS
10
180.532
20
-76.4368
11
180.532
21
-76.4368
0
LINE
8
BLACK
6
CONTINUOUS
10
180.532
20
-76.4368
11
180.532
21
-76.4368
0
LINE
8
BLACK
6
CONTINUOUS
10
180.532
20
-76.4368
11
180.532
21
-76.4368
0
LINE
8
BLACK
6
CONTINUOUS
10
180.532
20
-76.4368
11
180.546
21
-76.3571
0
LINE
8
BLACK
6
CONTINUOUS
10
180.546
20
-76.3571
11
180.546
21
-76.1952
0
LINE
8
BLACK
6
CONTINUOUS
10
180.546
20
-76.1952
11
180.518
21
-76.0358
0
LINE
8
BLACK
6
CONTINUOUS
10
180.518
20
-76.0358
11
180.463
21
-75.8837
0
LINE
8
BLACK
6
CONTINUOUS
10
180.463
20
-75.8837
11
180.382
21
-75.7436
0
LINE
8
BLACK
6
CONTINUOUS
10
180.382
20
-75.7436
11
180.278
21
-75.6196
0
LINE
8
BLACK
6
CONTINUOUS
10
180.278
20
-75.6196
11
180.154
21
-75.5155
0
LINE
8
BLACK
6
CONTINUOUS
10
180.154
20
-75.5155
11
180.014
21
-75.4346
0
LINE
8
BLACK
6
CONTINUOUS
10
180.014
20
-75.4346
11
179.862
21
-75.3793
0
LINE
8
BLACK
6
CONTINUOUS
10
179.862
20
-75.3793
11
179.782
21
-75.3652
0
LINE
8
BLACK
6
CONTINUOUS
10
179.782
20
-75.3652
11
179.782
21
-75.3652
0
LINE
8
BLACK
6
CONTINUOUS
10
179.782
20
-75.3652
11
179.782
21
-75.3652
0
LINE
8
BLACK
6
CONTINUOUS
10
179.782
20
-75.3652
11
166.98
21
-73.1078
0
LINE
8
BLACK
6
CONTINUOUS
10
166.98
20
-73.1078
11
166.979
21
-73.1077
0
LINE
8
BLACK
6
CONTINUOUS
10
166.979
20
-73.1077
11
166.9
21
-73.0937
0
LINE
8
BLACK
6
CONTINUOUS
10
166.9
20
-73.0937
11
166.738
21
-73.0937
0
LINE
8
BLACK
6
CONTINUOUS
10
92.5548
20
-74.4016
11
92.5548
21
-74.4016
0
LINE
8
BLACK
6
CONTINUOUS
10
92.5548
20
-74.4016
11
105.547
21
-74.8553
0
LINE
8
BLACK
6
CONTINUOUS
10
105.547
20
-74.8553
11
105.547
21
-74.8553
0
LINE
8
BLACK
6
CONTINUOUS
10
105.547
20
-74.8553
11
105.547
21
-74.8553
0
LINE
8
BLACK
6
CONTINUOUS
10
105.547
20
-74.8553
11
105.547
21
-74.8553
0
LINE
8
BLACK
6
CONTINUOUS
10
105.547
20
-74.8553
11
105.733
21
-74.8782
0
LINE
8
BLACK
6
CONTINUOUS
10
105.733
20
-74.8782
11
105.912
21
-74.933
0
LINE
8
BLACK
6
CONTINUOUS
10
105.912
20
-74.933
11
106.079
21
-75.018
0
LINE
8
BLACK
6
CONTINUOUS
10
106.079
20
-75.018
11
106.229
21
-75.1308
0
LINE
8
BLACK
6
CONTINUOUS
10
106.229
20
-75.1308
11
106.356
21
-75.2679
0
LINE
8
BLACK
6
CONTINUOUS
10
106.356
20
-75.2679
11
106.458
21
-75.425
0
LINE
8
BLACK
6
CONTINUOUS
10
106.458
20
-75.425
11
106.532
21
-75.5975
0
LINE
8
BLACK
6
CONTINUOUS
10
106.532
20
-75.5975
11
106.574
21
-75.7801
0
LINE
8
BLACK
6
CONTINUOUS
10
106.574
20
-75.7801
11
106.584
21
-75.9671
0
LINE
8
BLACK
6
CONTINUOUS
10
106.584
20
-75.9671
11
106.584
21
-75.9672
0
LINE
8
BLACK
6
CONTINUOUS
10
106.584
20
-75.9672
11
106.584
21
-75.9672
0
LINE
8
BLACK
6
CONTINUOUS
10
106.584
20
-75.9672
11
106.584
21
-75.9672
0
LINE
8
BLACK
6
CONTINUOUS
10
106.584
20
-75.9672
11
106.584
21
-75.9672
0
LINE
8
BLACK
6
CONTINUOUS
10
106.584
20
-75.9672
11
106.13
21
-88.9593
0
LINE
8
BLACK
6
CONTINUOUS
10
106.13
20
-88.9593
11
106.107
21
-89.1453
0
LINE
8
BLACK
6
CONTINUOUS
10
106.107
20
-89.1453
11
106.052
21
-89.3245
0
LINE
8
BLACK
6
CONTINUOUS
10
106.052
20
-89.3245
11
105.967
21
-89.4915
0
LINE
8
BLACK
6
CONTINUOUS
10
105.967
20
-89.4915
11
105.855
21
-89.6411
0
LINE
8
BLACK
6
CONTINUOUS
10
105.855
20
-89.6411
11
105.718
21
-89.7689
0
LINE
8
BLACK
6
CONTINUOUS
10
105.718
20
-89.7689
11
105.56
21
-89.871
0
LINE
8
BLACK
6
CONTINUOUS
10
105.56
20
-89.871
11
105.388
21
-89.9442
0
LINE
8
BLACK
6
CONTINUOUS
10
105.388
20
-89.9442
11
105.205
21
-89.9864
0
LINE
8
BLACK
6
CONTINUOUS
10
105.205
20
-89.9864
11
105.018
21
-89.9962
0
LINE
8
BLACK
6
CONTINUOUS
10
105.018
20
-89.9962
11
105.018
21
-89.9961
0
LINE
8
BLACK
6
CONTINUOUS
10
105.018
20
-89.9961
11
105.018
21
-89.9961
0
LINE
8
BLACK
6
CONTINUOUS
10
105.018
20
-89.9961
11
105.018
21
-89.9961
0
LINE
8
BLACK
6
CONTINUOUS
10
105.018
20
-89.9961
11
92.0261
21
-89.5424
0
LINE
8
BLACK
6
CONTINUOUS
10
92.0261
20
-89.5424
11
92.0261
21
-89.5424
0
LINE
8
BLACK
6
CONTINUOUS
10
92.0261
20
-89.5424
11
92.0261
21
-89.5424
0
LINE
8
BLACK
6
CONTINUOUS
10
92.0261
20
-89.5424
11
91.8401
21
-89.5196
0
LINE
8
BLACK
6
CONTINUOUS
10
91.8401
20
-89.5196
11
91.6609
21
-89.4648
0
LINE
8
BLACK
6
CONTINUOUS
10
91.6609
20
-89.4648
11
91.4939
21
-89.3797
0
LINE
8
BLACK
6
CONTINUOUS
10
91.4939
20
-89.3797
11
91.3443
21
-89.2669
0
LINE
8
BLACK
6
CONTINUOUS
10
91.3443
20
-89.2669
11
91.2165
21
-89.1299
0
LINE
8
BLACK
6
CONTINUOUS
10
91.2165
20
-89.1299
11
91.1144
21
-88.9727
0
LINE
8
BLACK
6
CONTINUOUS
10
91.1144
20
-88.9727
11
91.0412
21
-88.8003
0
LINE
8
BLACK
6
CONTINUOUS
10
91.0412
20
-88.8003
11
90.9991
21
-88.6177
0
LINE
8
BLACK
6
CONTINUOUS
10
90.9991
20
-88.6177
11
90.9893
21
-88.4308
0
LINE
8
BLACK
6
CONTINUOUS
10
90.9893
20
-88.4308
11
90.9892
21
-88.4306
0
LINE
8
BLACK
6
CONTINUOUS
10
90.9892
20
-88.4306
11
91.4429
21
-75.4385
0
LINE
8
BLACK
6
CONTINUOUS
10
91.4429
20
-75.4385
11
91.4429
21
-75.4385
0
LINE
8
BLACK
6
CONTINUOUS
10
91.4429
20
-75.4385
11
91.4658
21
-75.2525
0
LINE
8
BLACK
6
CONTINUOUS
10
91.4658
20
-75.2525
11
91.5205
21
-75.0733
0
LINE
8
BLACK
6
CONTINUOUS
10
91.5205
20
-75.0733
11
91.6056
21
-74.9063
0
LINE
8
BLACK
6
CONTINUOUS
10
91.6056
20
-74.9063
11
91.7184
21
-74.7567
0
LINE
8
BLACK
6
CONTINUOUS
10
91.7184
20
-74.7567
11
91.8554
21
-74.6289
0
LINE
8
BLACK
6
CONTINUOUS
10
91.8554
20
-74.6289
11
92.0126
21
-74.5268
0
LINE
8
BLACK
6
CONTINUOUS
10
92.0126
20
-74.5268
11
92.1851
21
-74.4536
0
LINE
8
BLACK
6
CONTINUOUS
10
92.1851
20
-74.4536
11
92.3677
21
-74.4114
0
LINE
8
BLACK
6
CONTINUOUS
10
92.3677
20
-74.4114
11
92.5548
21
-74.4016
0
LINE
8
BLACK
6
CONTINUOUS
10
92.5548
20
-74.4016
11
92.5548
21
-74.4016
0
LINE
8
BLACK
6
CONTINUOUS
10
92.3084
20
-74.5712
11
92.1545
21
-74.6213
0
LINE
8
BLACK
6
CONTINUOUS
10
92.1545
20
-74.6213
11
92.0116
21
-74.6972
0
LINE
8
BLACK
6
CONTINUOUS
10
92.0116
20
-74.6972
11
91.884
21
-74.7969
0
LINE
8
BLACK
6
CONTINUOUS
10
91.884
20
-74.7969
11
91.7757
21
-74.9172
0
LINE
8
BLACK
6
CONTINUOUS
10
91.7757
20
-74.9172
11
91.6899
21
-75.0544
0
LINE
8
BLACK
6
CONTINUOUS
10
91.6899
20
-75.0544
11
91.6293
21
-75.2045
0
LINE
8
BLACK
6
CONTINUOUS
10
91.6293
20
-75.2045
11
91.5957
21
-75.3628
0
LINE
8
BLACK
6
CONTINUOUS
10
91.5957
20
-75.3628
11
91.5928
21
-75.4437
0
LINE
8
BLACK
6
CONTINUOUS
10
91.5928
20
-75.4437
11
91.5928
21
-75.4437
0
LINE
8
BLACK
6
CONTINUOUS
10
91.5928
20
-75.4437
11
91.1391
21
-88.4358
0
LINE
8
BLACK
6
CONTINUOUS
10
91.1391
20
-88.4358
11
91.1391
21
-88.4358
0
LINE
8
BLACK
6
CONTINUOUS
10
91.1391
20
-88.4358
11
91.1391
21
-88.4358
0
LINE
8
BLACK
6
CONTINUOUS
10
91.1391
20
-88.4358
11
91.1392
21
-88.4358
0
LINE
8
BLACK
6
CONTINUOUS
10
91.1392
20
-88.4358
11
91.1364
21
-88.5167
0
LINE
8
BLACK
6
CONTINUOUS
10
91.1364
20
-88.5167
11
91.1589
21
-88.6769
0
LINE
8
BLACK
6
CONTINUOUS
10
91.1589
20
-88.6769
11
91.2089
21
-88.8309
0
LINE
8
BLACK
6
CONTINUOUS
10
91.2089
20
-88.8309
11
91.2849
21
-88.9738
0
LINE
8
BLACK
6
CONTINUOUS
10
91.2849
20
-88.9738
11
91.3845
21
-89.1013
0
LINE
8
BLACK
6
CONTINUOUS
10
91.3845
20
-89.1013
11
91.5048
21
-89.2096
0
LINE
8
BLACK
6
CONTINUOUS
10
91.5048
20
-89.2096
11
91.642
21
-89.2954
0
LINE
8
BLACK
6
CONTINUOUS
10
91.642
20
-89.2954
11
91.7921
21
-89.356
0
LINE
8
BLACK
6
CONTINUOUS
10
91.7921
20
-89.356
11
91.9504
21
-89.3897
0
LINE
8
BLACK
6
CONTINUOUS
10
91.9504
20
-89.3897
11
92.0313
21
-89.3925
0
LINE
8
BLACK
6
CONTINUOUS
10
92.0313
20
-89.3925
11
105.023
21
-89.8462
0
LINE
8
BLACK
6
CONTINUOUS
10
105.023
20
-89.8462
11
105.024
21
-89.8463
0
LINE
8
BLACK
6
CONTINUOUS
10
105.024
20
-89.8463
11
105.104
21
-89.8491
0
LINE
8
BLACK
6
CONTINUOUS
10
105.104
20
-89.8491
11
105.265
21
-89.8266
0
LINE
8
BLACK
6
CONTINUOUS
10
105.265
20
-89.8266
11
105.418
21
-89.7765
0
LINE
8
BLACK
6
CONTINUOUS
10
105.418
20
-89.7765
11
105.561
21
-89.7006
0
LINE
8
BLACK
6
CONTINUOUS
10
105.561
20
-89.7006
11
105.689
21
-89.6009
0
LINE
8
BLACK
6
CONTINUOUS
10
105.689
20
-89.6009
11
105.797
21
-89.4806
0
LINE
8
BLACK
6
CONTINUOUS
10
105.797
20
-89.4806
11
105.883
21
-89.3433
0
LINE
8
BLACK
6
CONTINUOUS
10
105.883
20
-89.3433
11
105.944
21
-89.1933
0
LINE
8
BLACK
6
CONTINUOUS
10
105.944
20
-89.1933
11
105.977
21
-89.0349
0
LINE
8
BLACK
6
CONTINUOUS
10
105.977
20
-89.0349
11
105.98
21
-88.954
0
LINE
8
BLACK
6
CONTINUOUS
10
105.98
20
-88.954
11
105.98
21
-88.954
0
LINE
8
BLACK
6
CONTINUOUS
10
105.98
20
-88.954
11
105.98
21
-88.954
0
LINE
8
BLACK
6
CONTINUOUS
10
105.98
20
-88.954
11
105.98
21
-88.954
0
LINE
8
BLACK
6
CONTINUOUS
10
105.98
20
-88.954
11
106.434
21
-75.962
0
LINE
8
BLACK
6
CONTINUOUS
10
106.434
20
-75.962
11
106.434
21
-75.962
0
LINE
8
BLACK
6
CONTINUOUS
10
106.434
20
-75.962
11
106.437
21
-75.8811
0
LINE
8
BLACK
6
CONTINUOUS
10
106.437
20
-75.8811
11
106.414
21
-75.7208
0
LINE
8
BLACK
6
CONTINUOUS
10
106.414
20
-75.7208
11
106.364
21
-75.5669
0
LINE
8
BLACK
6
CONTINUOUS
10
106.364
20
-75.5669
11
106.288
21
-75.424
0
LINE
8
BLACK
6
CONTINUOUS
10
106.288
20
-75.424
11
106.188
21
-75.2964
0
LINE
8
BLACK
6
CONTINUOUS
10
106.188
20
-75.2964
11
106.068
21
-75.1881
0
LINE
8
BLACK
6
CONTINUOUS
10
106.068
20
-75.1881
11
105.931
21
-75.1024
0
LINE
8
BLACK
6
CONTINUOUS
10
105.931
20
-75.1024
11
105.781
21
-75.0417
0
LINE
8
BLACK
6
CONTINUOUS
10
105.781
20
-75.0417
11
105.623
21
-75.0081
0
LINE
8
BLACK
6
CONTINUOUS
10
105.623
20
-75.0081
11
105.542
21
-75.0052
0
LINE
8
BLACK
6
CONTINUOUS
10
105.542
20
-75.0052
11
105.542
21
-75.0052
0
LINE
8
BLACK
6
CONTINUOUS
10
105.542
20
-75.0052
11
105.542
21
-75.0052
0
LINE
8
BLACK
6
CONTINUOUS
10
105.542
20
-75.0052
11
92.5495
21
-74.5516
0
LINE
8
BLACK
6
CONTINUOUS
10
92.5495
20
-74.5516
11
92.5494
21
-74.5515
0
LINE
8
BLACK
6
CONTINUOUS
10
92.5494
20
-74.5515
11
92.4687
21
-74.5487
0
LINE
8
BLACK
6
CONTINUOUS
10
92.4687
20
-74.5487
11
92.3084
21
-74.5712
0
LINE
8
BLACK
6
CONTINUOUS
10
112.07
20
-66.412
11
112.07
21
-66.412
0
LINE
8
BLACK
6
CONTINUOUS
10
112.07
20
-66.412
11
112.07
21
-66.412
0
LINE
8
BLACK
6
CONTINUOUS
10
112.07
20
-66.412
11
125.038
21
-67.3189
0
LINE
8
BLACK
6
CONTINUOUS
10
125.038
20
-67.3189
11
125.223
21
-67.3482
0
LINE
8
BLACK
6
CONTINUOUS
10
125.223
20
-67.3482
11
125.401
21
-67.4092
0
LINE
8
BLACK
6
CONTINUOUS
10
125.401
20
-67.4092
11
125.565
21
-67.5
0
LINE
8
BLACK
6
CONTINUOUS
10
125.565
20
-67.5
11
125.71
21
-67.618
0
LINE
8
BLACK
6
CONTINUOUS
10
125.71
20
-67.618
11
125.833
21
-67.7594
0
LINE
8
BLACK
6
CONTINUOUS
10
125.833
20
-67.7594
11
125.93
21
-67.92
0
LINE
8
BLACK
6
CONTINUOUS
10
125.93
20
-67.92
11
125.997
21
-68.0949
0
LINE
8
BLACK
6
CONTINUOUS
10
125.997
20
-68.0949
11
126.033
21
-68.2789
0
LINE
8
BLACK
6
CONTINUOUS
10
126.033
20
-68.2789
11
126.036
21
-68.4662
0
LINE
8
BLACK
6
CONTINUOUS
10
126.036
20
-68.4662
11
126.036
21
-68.4662
0
LINE
8
BLACK
6
CONTINUOUS
10
126.036
20
-68.4662
11
126.036
21
-68.4662
0
LINE
8
BLACK
6
CONTINUOUS
10
126.036
20
-68.4662
11
126.036
21
-68.4662
0
LINE
8
BLACK
6
CONTINUOUS
10
126.036
20
-68.4662
11
125.129
21
-81.4346
0
LINE
8
BLACK
6
CONTINUOUS
10
125.129
20
-81.4346
11
125.129
21
-81.4346
0
LINE
8
BLACK
6
CONTINUOUS
10
125.129
20
-81.4346
11
125.1
21
-81.6196
0
LINE
8
BLACK
6
CONTINUOUS
10
125.1
20
-81.6196
11
125.039
21
-81.7968
0
LINE
8
BLACK
6
CONTINUOUS
10
125.039
20
-81.7968
11
124.948
21
-81.9607
0
LINE
8
BLACK
6
CONTINUOUS
10
124.948
20
-81.9607
11
124.83
21
-82.1063
0
LINE
8
BLACK
6
CONTINUOUS
10
124.83
20
-82.1063
11
124.688
21
-82.2293
0
LINE
8
BLACK
6
CONTINUOUS
10
124.688
20
-82.2293
11
124.528
21
-82.3258
0
LINE
8
BLACK
6
CONTINUOUS
10
124.528
20
-82.3258
11
124.353
21
-82.3929
0
LINE
8
BLACK
6
CONTINUOUS
10
124.353
20
-82.3929
11
124.169
21
-82.4287
0
LINE
8
BLACK
6
CONTINUOUS
10
124.169
20
-82.4287
11
123.982
21
-82.4319
0
LINE
8
BLACK
6
CONTINUOUS
10
123.982
20
-82.4319
11
123.982
21
-82.432
0
LINE
8
BLACK
6
CONTINUOUS
10
123.982
20
-82.432
11
123.982
21
-82.432
0
LINE
8
BLACK
6
CONTINUOUS
10
123.982
20
-82.432
11
123.982
21
-82.432
0
LINE
8
BLACK
6
CONTINUOUS
10
123.982
20
-82.432
11
123.982
21
-82.432
0
LINE
8
BLACK
6
CONTINUOUS
10
123.982
20
-82.432
11
111.013
21
-81.5251
0
LINE
8
BLACK
6
CONTINUOUS
10
111.013
20
-81.5251
11
111.013
21
-81.5251
0
LINE
8
BLACK
6
CONTINUOUS
10
111.013
20
-81.5251
11
110.828
21
-81.4958
0
LINE
8
BLACK
6
CONTINUOUS
10
110.828
20
-81.4958
11
110.651
21
-81.4348
0
LINE
8
BLACK
6
CONTINUOUS
10
110.651
20
-81.4348
11
110.487
21
-81.344
0
LINE
8
BLACK
6
CONTINUOUS
10
110.487
20
-81.344
11
110.341
21
-81.2261
0
LINE
8
BLACK
6
CONTINUOUS
10
110.341
20
-81.2261
11
110.218
21
-81.0846
0
LINE
8
BLACK
6
CONTINUOUS
10
110.218
20
-81.0846
11
110.122
21
-80.924
0
LINE
8
BLACK
6
CONTINUOUS
10
110.122
20
-80.924
11
110.055
21
-80.7491
0
LINE
8
BLACK
6
CONTINUOUS
10
110.055
20
-80.7491
11
110.019
21
-80.5651
0
LINE
8
BLACK
6
CONTINUOUS
10
110.019
20
-80.5651
11
110.016
21
-80.3778
0
LINE
8
BLACK
6
CONTINUOUS
10
110.016
20
-80.3778
11
110.016
21
-80.3778
0
LINE
8
BLACK
6
CONTINUOUS
10
110.016
20
-80.3778
11
110.016
21
-80.3778
0
LINE
8
BLACK
6
CONTINUOUS
10
110.016
20
-80.3778
11
110.923
21
-67.4094
0
LINE
8
BLACK
6
CONTINUOUS
10
110.923
20
-67.4094
11
110.923
21
-67.4094
0
LINE
8
BLACK
6
CONTINUOUS
10
110.923
20
-67.4094
11
110.952
21
-67.2243
0
LINE
8
BLACK
6
CONTINUOUS
10
110.952
20
-67.2243
11
111.013
21
-67.0472
0
LINE
8
BLACK
6
CONTINUOUS
10
111.013
20
-67.0472
11
111.104
21
-66.8833
0
LINE
8
BLACK
6
CONTINUOUS
10
111.104
20
-66.8833
11
111.222
21
-66.7376
0
LINE
8
BLACK
6
CONTINUOUS
10
111.222
20
-66.7376
11
111.363
21
-66.6147
0
LINE
8
BLACK
6
CONTINUOUS
10
111.363
20
-66.6147
11
111.524
21
-66.5182
0
LINE
8
BLACK
6
CONTINUOUS
10
111.524
20
-66.5182
11
111.699
21
-66.451
0
LINE
8
BLACK
6
CONTINUOUS
10
111.699
20
-66.451
11
111.883
21
-66.4153
0
LINE
8
BLACK
6
CONTINUOUS
10
111.883
20
-66.4153
11
112.07
21
-66.412
0
LINE
8
BLACK
6
CONTINUOUS
10
112.07
20
-66.412
11
112.07
21
-66.412
0
LINE
8
BLACK
6
CONTINUOUS
10
111.818
20
-66.5729
11
111.662
21
-66.6175
0
LINE
8
BLACK
6
CONTINUOUS
10
111.662
20
-66.6175
11
111.517
21
-66.6885
0
LINE
8
BLACK
6
CONTINUOUS
10
111.517
20
-66.6885
11
111.386
21
-66.7836
0
LINE
8
BLACK
6
CONTINUOUS
10
111.386
20
-66.7836
11
111.273
21
-66.9001
0
LINE
8
BLACK
6
CONTINUOUS
10
111.273
20
-66.9001
11
111.183
21
-67.0342
0
LINE
8
BLACK
6
CONTINUOUS
10
111.183
20
-67.0342
11
111.117
21
-67.1821
0
LINE
8
BLACK
6
CONTINUOUS
10
111.117
20
-67.1821
11
111.078
21
-67.3392
0
LINE
8
BLACK
6
CONTINUOUS
10
111.078
20
-67.3392
11
111.072
21
-67.4199
0
LINE
8
BLACK
6
CONTINUOUS
10
111.072
20
-67.4199
11
111.072
21
-67.4199
0
LINE
8
BLACK
6
CONTINUOUS
10
111.072
20
-67.4199
11
111.072
21
-67.4199
0
LINE
8
BLACK
6
CONTINUOUS
10
111.072
20
-67.4199
11
111.072
21
-67.4199
0
LINE
8
BLACK
6
CONTINUOUS
10
111.072
20
-67.4199
11
110.165
21
-80.3882
0
LINE
8
BLACK
6
CONTINUOUS
10
110.165
20
-80.3882
11
110.165
21
-80.3882
0
LINE
8
BLACK
6
CONTINUOUS
10
110.165
20
-80.3882
11
110.165
21
-80.3882
0
LINE
8
BLACK
6
CONTINUOUS
10
110.165
20
-80.3882
11
110.165
21
-80.3882
0
LINE
8
BLACK
6
CONTINUOUS
10
110.165
20
-80.3882
11
110.165
21
-80.3887
0
LINE
8
BLACK
6
CONTINUOUS
10
110.165
20
-80.3887
11
110.16
21
-80.4689
0
LINE
8
BLACK
6
CONTINUOUS
10
110.16
20
-80.4689
11
110.177
21
-80.6299
0
LINE
8
BLACK
6
CONTINUOUS
10
110.177
20
-80.6299
11
110.221
21
-80.7855
0
LINE
8
BLACK
6
CONTINUOUS
10
110.221
20
-80.7855
11
110.292
21
-80.931
0
LINE
8
BLACK
6
CONTINUOUS
10
110.292
20
-80.931
11
110.387
21
-81.0619
0
LINE
8
BLACK
6
CONTINUOUS
10
110.387
20
-81.0619
11
110.504
21
-81.1744
0
LINE
8
BLACK
6
CONTINUOUS
10
110.504
20
-81.1744
11
110.638
21
-81.2649
0
LINE
8
BLACK
6
CONTINUOUS
10
110.638
20
-81.2649
11
110.786
21
-81.3307
0
LINE
8
BLACK
6
CONTINUOUS
10
110.786
20
-81.3307
11
110.943
21
-81.3699
0
LINE
8
BLACK
6
CONTINUOUS
10
110.943
20
-81.3699
11
111.024
21
-81.3755
0
LINE
8
BLACK
6
CONTINUOUS
10
111.024
20
-81.3755
11
111.024
21
-81.3755
0
LINE
8
BLACK
6
CONTINUOUS
10
111.024
20
-81.3755
11
111.024
21
-81.3755
0
LINE
8
BLACK
6
CONTINUOUS
10
111.024
20
-81.3755
11
111.024
21
-81.3755
0
LINE
8
BLACK
6
CONTINUOUS
10
111.024
20
-81.3755
11
123.992
21
-82.2823
0
LINE
8
BLACK
6
CONTINUOUS
10
123.992
20
-82.2823
11
123.992
21
-82.2823
0
LINE
8
BLACK
6
CONTINUOUS
10
123.992
20
-82.2823
11
123.992
21
-82.2823
0
LINE
8
BLACK
6
CONTINUOUS
10
123.992
20
-82.2823
11
123.992
21
-82.2823
0
LINE
8
BLACK
6
CONTINUOUS
10
123.992
20
-82.2823
11
124.073
21
-82.288
0
LINE
8
BLACK
6
CONTINUOUS
10
124.073
20
-82.288
11
124.234
21
-82.271
0
LINE
8
BLACK
6
CONTINUOUS
10
124.234
20
-82.271
11
124.389
21
-82.2264
0
LINE
8
BLACK
6
CONTINUOUS
10
124.389
20
-82.2264
11
124.535
21
-82.1555
0
LINE
8
BLACK
6
CONTINUOUS
10
124.535
20
-82.1555
11
124.666
21
-82.0603
0
LINE
8
BLACK
6
CONTINUOUS
10
124.666
20
-82.0603
11
124.778
21
-81.9439
0
LINE
8
BLACK
6
CONTINUOUS
10
124.778
20
-81.9439
11
124.869
21
-81.8097
0
LINE
8
BLACK
6
CONTINUOUS
10
124.869
20
-81.8097
11
124.935
21
-81.6619
0
LINE
8
BLACK
6
CONTINUOUS
10
124.935
20
-81.6619
11
124.974
21
-81.5048
0
LINE
8
BLACK
6
CONTINUOUS
10
124.974
20
-81.5048
11
124.979
21
-81.4241
0
LINE
8
BLACK
6
CONTINUOUS
10
124.979
20
-81.4241
11
124.979
21
-81.4241
0
LINE
8
BLACK
6
CONTINUOUS
10
124.979
20
-81.4241
11
124.979
21
-81.4241
0
LINE
8
BLACK
6
CONTINUOUS
10
124.979
20
-81.4241
11
125.886
21
-68.4558
0
LINE
8
BLACK
6
CONTINUOUS
10
125.886
20
-68.4558
11
125.886
21
-68.4558
0
LINE
8
BLACK
6
CONTINUOUS
10
125.886
20
-68.4558
11
125.886
21
-68.4558
0
LINE
8
BLACK
6
CONTINUOUS
10
125.886
20
-68.4558
11
125.886
21
-68.4555
0
LINE
8
BLACK
6
CONTINUOUS
10
125.886
20
-68.4555
11
125.892
21
-68.3751
0
LINE
8
BLACK
6
CONTINUOUS
10
125.892
20
-68.3751
11
125.875
21
-68.2141
0
LINE
8
BLACK
6
CONTINUOUS
10
125.875
20
-68.2141
11
125.83
21
-68.0585
0
LINE
8
BLACK
6
CONTINUOUS
10
125.83
20
-68.0585
11
125.759
21
-67.913
0
LINE
8
BLACK
6
CONTINUOUS
10
125.759
20
-67.913
11
125.664
21
-67.7821
0
LINE
8
BLACK
6
CONTINUOUS
10
125.664
20
-67.7821
11
125.548
21
-67.6696
0
LINE
8
BLACK
6
CONTINUOUS
10
125.548
20
-67.6696
11
125.414
21
-67.5791
0
LINE
8
BLACK
6
CONTINUOUS
10
125.414
20
-67.5791
11
125.266
21
-67.5133
0
LINE
8
BLACK
6
CONTINUOUS
10
125.266
20
-67.5133
11
125.109
21
-67.4741
0
LINE
8
BLACK
6
CONTINUOUS
10
125.109
20
-67.4741
11
125.028
21
-67.4685
0
LINE
8
BLACK
6
CONTINUOUS
10
125.028
20
-67.4685
11
125.028
21
-67.4685
0
LINE
8
BLACK
6
CONTINUOUS
10
125.028
20
-67.4685
11
125.028
21
-67.4685
0
LINE
8
BLACK
6
CONTINUOUS
10
125.028
20
-67.4685
11
125.028
21
-67.4685
0
LINE
8
BLACK
6
CONTINUOUS
10
125.028
20
-67.4685
11
112.06
21
-66.5617
0
LINE
8
BLACK
6
CONTINUOUS
10
112.06
20
-66.5617
11
112.059
21
-66.5616
0
LINE
8
BLACK
6
CONTINUOUS
10
112.059
20
-66.5616
11
111.979
21
-66.556
0
LINE
8
BLACK
6
CONTINUOUS
10
111.979
20
-66.556
11
111.818
21
-66.5729
0
LINE
8
BLACK
6
CONTINUOUS
10
151.828
20
-60.7438
11
151.828
21
-60.7437
0
LINE
8
BLACK
6
CONTINUOUS
10
151.828
20
-60.7437
11
151.828
21
-60.7437
0
LINE
8
BLACK
6
CONTINUOUS
10
151.828
20
-60.7437
11
151.828
21
-60.7437
0
LINE
8
BLACK
6
CONTINUOUS
10
151.828
20
-60.7437
11
164.702
21
-62.553
0
LINE
8
BLACK
6
CONTINUOUS
10
164.702
20
-62.553
11
164.702
21
-62.553
0
LINE
8
BLACK
6
CONTINUOUS
10
164.702
20
-62.553
11
164.702
21
-62.553
0
LINE
8
BLACK
6
CONTINUOUS
10
164.702
20
-62.553
11
164.884
21
-62.5951
0
LINE
8
BLACK
6
CONTINUOUS
10
164.884
20
-62.5951
11
165.057
21
-62.6684
0
LINE
8
BLACK
6
CONTINUOUS
10
165.057
20
-62.6684
11
165.214
21
-62.7704
0
LINE
8
BLACK
6
CONTINUOUS
10
165.214
20
-62.7704
11
165.351
21
-62.8982
0
LINE
8
BLACK
6
CONTINUOUS
10
165.351
20
-62.8982
11
165.464
21
-63.0479
0
LINE
8
BLACK
6
CONTINUOUS
10
165.464
20
-63.0479
11
165.549
21
-63.2148
0
LINE
8
BLACK
6
CONTINUOUS
10
165.549
20
-63.2148
11
165.603
21
-63.394
0
LINE
8
BLACK
6
CONTINUOUS
10
165.603
20
-63.394
11
165.626
21
-63.58
0
LINE
8
BLACK
6
CONTINUOUS
10
165.626
20
-63.58
11
165.616
21
-63.767
0
LINE
8
BLACK
6
CONTINUOUS
10
165.616
20
-63.767
11
165.616
21
-63.7671
0
LINE
8
BLACK
6
CONTINUOUS
10
165.616
20
-63.7671
11
163.807
21
-76.6406
0
LINE
8
BLACK
6
CONTINUOUS
10
163.807
20
-76.6406
11
163.807
21
-76.6406
0
LINE
8
BLACK
6
CONTINUOUS
10
163.807
20
-76.6406
11
163.765
21
-76.8232
0
LINE
8
BLACK
6
CONTINUOUS
10
163.765
20
-76.8232
11
163.692
21
-76.9957
0
LINE
8
BLACK
6
CONTINUOUS
10
163.692
20
-76.9957
11
163.59
21
-77.1528
0
LINE
8
BLACK
6
CONTINUOUS
10
163.59
20
-77.1528
11
163.462
21
-77.2899
0
LINE
8
BLACK
6
CONTINUOUS
10
163.462
20
-77.2899
11
163.312
21
-77.4026
0
LINE
8
BLACK
6
CONTINUOUS
10
163.312
20
-77.4026
11
163.145
21
-77.4877
0
LINE
8
BLACK
6
CONTINUOUS
10
163.145
20
-77.4877
11
162.966
21
-77.5425
0
LINE
8
BLACK
6
CONTINUOUS
10
162.966
20
-77.5425
11
162.78
21
-77.5653
0
LINE
8
BLACK
6
CONTINUOUS
10
162.78
20
-77.5653
11
162.593
21
-77.5555
0
LINE
8
BLACK
6
CONTINUOUS
10
162.593
20
-77.5555
11
162.593
21
-77.5555
0
LINE
8
BLACK
6
CONTINUOUS
10
162.593
20
-77.5555
11
162.593
21
-77.5555
0
LINE
8
BLACK
6
CONTINUOUS
10
162.593
20
-77.5555
11
162.593
21
-77.5555
0
LINE
8
BLACK
6
CONTINUOUS
10
162.593
20
-77.5555
11
162.593
21
-77.5555
0
LINE
8
BLACK
6
CONTINUOUS
10
162.593
20
-77.5555
11
149.72
21
-75.7463
0
LINE
8
BLACK
6
CONTINUOUS
10
149.72
20
-75.7463
11
149.72
21
-75.7463
0
LINE
8
BLACK
6
CONTINUOUS
10
149.72
20
-75.7463
11
149.72
21
-75.7463
0
LINE
8
BLACK
6
CONTINUOUS
10
149.72
20
-75.7463
11
149.72
21
-75.7463
0
LINE
8
BLACK
6
CONTINUOUS
10
149.72
20
-75.7463
11
149.72
21
-75.7463
0
LINE
8
BLACK
6
CONTINUOUS
10
149.72
20
-75.7463
11
149.537
21
-75.7041
0
LINE
8
BLACK
6
CONTINUOUS
10
149.537
20
-75.7041
11
149.365
21
-75.6309
0
LINE
8
BLACK
6
CONTINUOUS
10
149.365
20
-75.6309
11
149.207
21
-75.5289
0
LINE
8
BLACK
6
CONTINUOUS
10
149.207
20
-75.5289
11
149.07
21
-75.4011
0
LINE
8
BLACK
6
CONTINUOUS
10
149.07
20
-75.4011
11
148.958
21
-75.2514
0
LINE
8
BLACK
6
CONTINUOUS
10
148.958
20
-75.2514
11
148.872
21
-75.0845
0
LINE
8
BLACK
6
CONTINUOUS
10
148.872
20
-75.0845
11
148.818
21
-74.9053
0
LINE
8
BLACK
6
CONTINUOUS
10
148.818
20
-74.9053
11
148.795
21
-74.7193
0
LINE
8
BLACK
6
CONTINUOUS
10
148.795
20
-74.7193
11
148.805
21
-74.5324
0
LINE
8
BLACK
6
CONTINUOUS
10
148.805
20
-74.5324
11
148.805
21
-74.5321
0
LINE
8
BLACK
6
CONTINUOUS
10
148.805
20
-74.5321
11
150.614
21
-61.6587
0
LINE
8
BLACK
6
CONTINUOUS
10
150.614
20
-61.6587
11
150.614
21
-61.6587
0
LINE
8
BLACK
6
CONTINUOUS
10
150.614
20
-61.6587
11
150.614
21
-61.6587
0
LINE
8
BLACK
6
CONTINUOUS
10
150.614
20
-61.6587
11
150.614
21
-61.6587
0
LINE
8
BLACK
6
CONTINUOUS
10
150.614
20
-61.6587
11
150.656
21
-61.4761
0
LINE
8
BLACK
6
CONTINUOUS
10
150.656
20
-61.4761
11
150.729
21
-61.3036
0
LINE
8
BLACK
6
CONTINUOUS
10
150.729
20
-61.3036
11
150.831
21
-61.1465
0
LINE
8
BLACK
6
CONTINUOUS
10
150.831
20
-61.1465
11
150.959
21
-61.0094
0
LINE
8
BLACK
6
CONTINUOUS
10
150.959
20
-61.0094
11
151.109
21
-60.8967
0
LINE
8
BLACK
6
CONTINUOUS
10
151.109
20
-60.8967
11
151.276
21
-60.8116
0
LINE
8
BLACK
6
CONTINUOUS
10
151.276
20
-60.8116
11
151.455
21
-60.7568
0
LINE
8
BLACK
6
CONTINUOUS
10
151.455
20
-60.7568
11
151.641
21
-60.734
0
LINE
8
BLACK
6
CONTINUOUS
10
151.641
20
-60.734
11
151.828
21
-60.7438
0
LINE
8
BLACK
6
CONTINUOUS
10
151.565
20
-60.8867
11
151.407
21
-60.9204
0
LINE
8
BLACK
6
CONTINUOUS
10
151.407
20
-60.9204
11
151.257
21
-60.981
0
LINE
8
BLACK
6
CONTINUOUS
10
151.257
20
-60.981
11
151.12
21
-61.0667
0
LINE
8
BLACK
6
CONTINUOUS
10
151.12
20
-61.0667
11
150.999
21
-61.175
0
LINE
8
BLACK
6
CONTINUOUS
10
150.999
20
-61.175
11
150.9
21
-61.3026
0
LINE
8
BLACK
6
CONTINUOUS
10
150.9
20
-61.3026
11
150.824
21
-61.4455
0
LINE
8
BLACK
6
CONTINUOUS
10
150.824
20
-61.4455
11
150.774
21
-61.5994
0
LINE
8
BLACK
6
CONTINUOUS
10
150.774
20
-61.5994
11
150.762
21
-61.6795
0
LINE
8
BLACK
6
CONTINUOUS
10
150.762
20
-61.6795
11
148.953
21
-74.553
0
LINE
8
BLACK
6
CONTINUOUS
10
148.953
20
-74.553
11
148.953
21
-74.553
0
LINE
8
BLACK
6
CONTINUOUS
10
148.953
20
-74.553
11
148.953
21
-74.553
0
LINE
8
BLACK
6
CONTINUOUS
10
148.953
20
-74.553
11
148.953
21
-74.553
0
LINE
8
BLACK
6
CONTINUOUS
10
148.953
20
-74.553
11
148.942
21
-74.6332
0
LINE
8
BLACK
6
CONTINUOUS
10
148.942
20
-74.6332
11
148.948
21
-74.7949
0
LINE
8
BLACK
6
CONTINUOUS
10
148.948
20
-74.7949
11
148.981
21
-74.9532
0
LINE
8
BLACK
6
CONTINUOUS
10
148.981
20
-74.9532
11
149.042
21
-75.1033
0
LINE
8
BLACK
6
CONTINUOUS
10
149.042
20
-75.1033
11
149.128
21
-75.2406
0
LINE
8
BLACK
6
CONTINUOUS
10
149.128
20
-75.2406
11
149.236
21
-75.3608
0
LINE
8
BLACK
6
CONTINUOUS
10
149.236
20
-75.3608
11
149.363
21
-75.4605
0
LINE
8
BLACK
6
CONTINUOUS
10
149.363
20
-75.4605
11
149.506
21
-75.5365
0
LINE
8
BLACK
6
CONTINUOUS
10
149.506
20
-75.5365
11
149.66
21
-75.5865
0
LINE
8
BLACK
6
CONTINUOUS
10
149.66
20
-75.5865
11
149.74
21
-75.5978
0
LINE
8
BLACK
6
CONTINUOUS
10
149.74
20
-75.5978
11
162.614
21
-77.407
0
LINE
8
BLACK
6
CONTINUOUS
10
162.614
20
-77.407
11
162.614
21
-77.407
0
LINE
8
BLACK
6
CONTINUOUS
10
162.614
20
-77.407
11
162.614
21
-77.407
0
LINE
8
BLACK
6
CONTINUOUS
10
162.614
20
-77.407
11
162.614
21
-77.407
0
LINE
8
BLACK
6
CONTINUOUS
10
162.614
20
-77.407
11
162.694
21
-77.4182
0
LINE
8
BLACK
6
CONTINUOUS
10
162.694
20
-77.4182
11
162.856
21
-77.4126
0
LINE
8
BLACK
6
CONTINUOUS
10
162.856
20
-77.4126
11
163.014
21
-77.3789
0
LINE
8
BLACK
6
CONTINUOUS
10
163.014
20
-77.3789
11
163.164
21
-77.3183
0
LINE
8
BLACK
6
CONTINUOUS
10
163.164
20
-77.3183
11
163.301
21
-77.2325
0
LINE
8
BLACK
6
CONTINUOUS
10
163.301
20
-77.2325
11
163.422
21
-77.1242
0
LINE
8
BLACK
6
CONTINUOUS
10
163.422
20
-77.1242
11
163.521
21
-76.9967
0
LINE
8
BLACK
6
CONTINUOUS
10
163.521
20
-76.9967
11
163.597
21
-76.8538
0
LINE
8
BLACK
6
CONTINUOUS
10
163.597
20
-76.8538
11
163.647
21
-76.6999
0
LINE
8
BLACK
6
CONTINUOUS
10
163.647
20
-76.6999
11
163.659
21
-76.6197
0
LINE
8
BLACK
6
CONTINUOUS
10
163.659
20
-76.6197
11
163.659
21
-76.6197
0
LINE
8
BLACK
6
CONTINUOUS
10
163.659
20
-76.6197
11
165.468
21
-63.7463
0
LINE
8
BLACK
6
CONTINUOUS
10
165.468
20
-63.7463
11
165.468
21
-63.7463
0
LINE
8
BLACK
6
CONTINUOUS
10
165.468
20
-63.7463
11
165.468
21
-63.7463
0
LINE
8
BLACK
6
CONTINUOUS
10
165.468
20
-63.7463
11
165.468
21
-63.7463
0
LINE
8
BLACK
6
CONTINUOUS
10
165.468
20
-63.7463
11
165.479
21
-63.6661
0
LINE
8
BLACK
6
CONTINUOUS
10
165.479
20
-63.6661
11
165.473
21
-63.5044
0
LINE
8
BLACK
6
CONTINUOUS
10
165.473
20
-63.5044
11
165.44
21
-63.346
0
LINE
8
BLACK
6
CONTINUOUS
10
165.44
20
-63.346
11
165.379
21
-63.196
0
LINE
8
BLACK
6
CONTINUOUS
10
165.379
20
-63.196
11
165.293
21
-63.0587
0
LINE
8
BLACK
6
CONTINUOUS
10
165.293
20
-63.0587
11
165.185
21
-62.9384
0
LINE
8
BLACK
6
CONTINUOUS
10
165.185
20
-62.9384
11
165.058
21
-62.8388
0
LINE
8
BLACK
6
CONTINUOUS
10
165.058
20
-62.8388
11
164.915
21
-62.7628
0
LINE
8
BLACK
6
CONTINUOUS
10
164.915
20
-62.7628
11
164.761
21
-62.7128
0
LINE
8
BLACK
6
CONTINUOUS
10
164.761
20
-62.7128
11
164.681
21
-62.7015
0
LINE
8
BLACK
6
CONTINUOUS
10
164.681
20
-62.7015
11
164.681
21
-62.7015
0
LINE
8
BLACK
6
CONTINUOUS
10
164.681
20
-62.7015
11
164.681
21
-62.7015
0
LINE
8
BLACK
6
CONTINUOUS
10
164.681
20
-62.7015
11
151.807
21
-60.8923
0
LINE
8
BLACK
6
CONTINUOUS
10
151.807
20
-60.8923
11
151.807
21
-60.8923
0
LINE
8
BLACK
6
CONTINUOUS
10
151.807
20
-60.8923
11
151.807
21
-60.8923
0
LINE
8
BLACK
6
CONTINUOUS
10
151.807
20
-60.8923
11
151.807
21
-60.8923
0
LINE
8
BLACK
6
CONTINUOUS
10
151.807
20
-60.8923
11
151.727
21
-60.8811
0
LINE
8
BLACK
6
CONTINUOUS
10
151.727
20
-60.8811
11
151.565
21
-60.8867
0
LINE
8
BLACK
6
CONTINUOUS
10
131.861
20
-60.9392
11
131.861
21
-60.9393
0
LINE
8
BLACK
6
CONTINUOUS
10
131.861
20
-60.9393
11
131.861
21
-60.9393
0
LINE
8
BLACK
6
CONTINUOUS
10
131.861
20
-60.9393
11
131.861
21
-60.9393
0
LINE
8
BLACK
6
CONTINUOUS
10
131.861
20
-60.9393
11
144.79
21
-62.2982
0
LINE
8
BLACK
6
CONTINUOUS
10
144.79
20
-62.2982
11
144.79
21
-62.2982
0
LINE
8
BLACK
6
CONTINUOUS
10
144.79
20
-62.2982
11
144.79
21
-62.2982
0
LINE
8
BLACK
6
CONTINUOUS
10
144.79
20
-62.2982
11
144.79
21
-62.2982
0
LINE
8
BLACK
6
CONTINUOUS
10
144.79
20
-62.2982
11
144.974
21
-62.3339
0
LINE
8
BLACK
6
CONTINUOUS
10
144.974
20
-62.3339
11
145.149
21
-62.4011
0
LINE
8
BLACK
6
CONTINUOUS
10
145.149
20
-62.4011
11
145.309
21
-62.4976
0
LINE
8
BLACK
6
CONTINUOUS
10
145.309
20
-62.4976
11
145.451
21
-62.6205
0
LINE
8
BLACK
6
CONTINUOUS
10
145.451
20
-62.6205
11
145.569
21
-62.7662
0
LINE
8
BLACK
6
CONTINUOUS
10
145.569
20
-62.7662
11
145.659
21
-62.9301
0
LINE
8
BLACK
6
CONTINUOUS
10
145.659
20
-62.9301
11
145.72
21
-63.1072
0
LINE
8
BLACK
6
CONTINUOUS
10
145.72
20
-63.1072
11
145.75
21
-63.2923
0
LINE
8
BLACK
6
CONTINUOUS
10
145.75
20
-63.2923
11
145.746
21
-63.4796
0
LINE
8
BLACK
6
CONTINUOUS
10
145.746
20
-63.4796
11
145.746
21
-63.4797
0
LINE
8
BLACK
6
CONTINUOUS
10
145.746
20
-63.4797
11
144.388
21
-76.4084
0
LINE
8
BLACK
6
CONTINUOUS
10
144.388
20
-76.4084
11
144.352
21
-76.5924
0
LINE
8
BLACK
6
CONTINUOUS
10
144.352
20
-76.5924
11
144.285
21
-76.7673
0
LINE
8
BLACK
6
CONTINUOUS
10
144.285
20
-76.7673
11
144.188
21
-76.9279
0
LINE
8
BLACK
6
CONTINUOUS
10
144.188
20
-76.9279
11
144.065
21
-77.0694
0
LINE
8
BLACK
6
CONTINUOUS
10
144.065
20
-77.0694
11
143.92
21
-77.1873
0
LINE
8
BLACK
6
CONTINUOUS
10
143.92
20
-77.1873
11
143.756
21
-77.2781
0
LINE
8
BLACK
6
CONTINUOUS
10
143.756
20
-77.2781
11
143.579
21
-77.3391
0
LINE
8
BLACK
6
CONTINUOUS
10
143.579
20
-77.3391
11
143.393
21
-77.3685
0
LINE
8
BLACK
6
CONTINUOUS
10
143.393
20
-77.3685
11
143.206
21
-77.3652
0
LINE
8
BLACK
6
CONTINUOUS
10
143.206
20
-77.3652
11
143.206
21
-77.3652
0
LINE
8
BLACK
6
CONTINUOUS
10
143.206
20
-77.3652
11
143.206
21
-77.3652
0
LINE
8
BLACK
6
CONTINUOUS
10
143.206
20
-77.3652
11
143.206
21
-77.3652
0
LINE
8
BLACK
6
CONTINUOUS
10
143.206
20
-77.3652
11
143.206
21
-77.3652
0
LINE
8
BLACK
6
CONTINUOUS
10
143.206
20
-77.3652
11
130.277
21
-76.0063
0
LINE
8
BLACK
6
CONTINUOUS
10
130.277
20
-76.0063
11
130.093
21
-75.9706
0
LINE
8
BLACK
6
CONTINUOUS
10
130.093
20
-75.9706
11
129.918
21
-75.9034
0
LINE
8
BLACK
6
CONTINUOUS
10
129.918
20
-75.9034
11
129.758
21
-75.8069
0
LINE
8
BLACK
6
CONTINUOUS
10
129.758
20
-75.8069
11
129.616
21
-75.684
0
LINE
8
BLACK
6
CONTINUOUS
10
129.616
20
-75.684
11
129.498
21
-75.5383
0
LINE
8
BLACK
6
CONTINUOUS
10
129.498
20
-75.5383
11
129.408
21
-75.3744
0
LINE
8
BLACK
6
CONTINUOUS
10
129.408
20
-75.3744
11
129.347
21
-75.1973
0
LINE
8
BLACK
6
CONTINUOUS
10
129.347
20
-75.1973
11
129.317
21
-75.0122
0
LINE
8
BLACK
6
CONTINUOUS
10
129.317
20
-75.0122
11
129.321
21
-74.8249
0
LINE
8
BLACK
6
CONTINUOUS
10
129.321
20
-74.8249
11
129.321
21
-74.8248
0
LINE
8
BLACK
6
CONTINUOUS
10
129.321
20
-74.8248
11
130.679
21
-61.896
0
LINE
8
BLACK
6
CONTINUOUS
10
130.679
20
-61.896
11
130.679
21
-61.896
0
LINE
8
BLACK
6
CONTINUOUS
10
130.679
20
-61.896
11
130.715
21
-61.7121
0
LINE
8
BLACK
6
CONTINUOUS
10
130.715
20
-61.7121
11
130.782
21
-61.5372
0
LINE
8
BLACK
6
CONTINUOUS
10
130.782
20
-61.5372
11
130.879
21
-61.3765
0
LINE
8
BLACK
6
CONTINUOUS
10
130.879
20
-61.3765
11
131.002
21
-61.2351
0
LINE
8
BLACK
6
CONTINUOUS
10
131.002
20
-61.2351
11
131.147
21
-61.1172
0
LINE
8
BLACK
6
CONTINUOUS
10
131.147
20
-61.1172
11
131.311
21
-61.0263
0
LINE
8
BLACK
6
CONTINUOUS
10
131.311
20
-61.0263
11
131.488
21
-60.9653
0
LINE
8
BLACK
6
CONTINUOUS
10
131.488
20
-60.9653
11
131.674
21
-60.936
0
LINE
8
BLACK
6
CONTINUOUS
10
131.674
20
-60.936
11
131.861
21
-60.9392
0
LINE
8
BLACK
6
CONTINUOUS
10
131.603
20
-61.0913
11
131.446
21
-61.1304
0
LINE
8
BLACK
6
CONTINUOUS
10
131.446
20
-61.1304
11
131.298
21
-61.1963
0
LINE
8
BLACK
6
CONTINUOUS
10
131.298
20
-61.1963
11
131.164
21
-61.2868
0
LINE
8
BLACK
6
CONTINUOUS
10
131.164
20
-61.2868
11
131.048
21
-61.3992
0
LINE
8
BLACK
6
CONTINUOUS
10
131.048
20
-61.3992
11
130.953
21
-61.5302
0
LINE
8
BLACK
6
CONTINUOUS
10
130.953
20
-61.5302
11
130.882
21
-61.6756
0
LINE
8
BLACK
6
CONTINUOUS
10
130.882
20
-61.6756
11
130.837
21
-61.8312
0
LINE
8
BLACK
6
CONTINUOUS
10
130.837
20
-61.8312
11
130.829
21
-61.9117
0
LINE
8
BLACK
6
CONTINUOUS
10
130.829
20
-61.9117
11
130.829
21
-61.9117
0
LINE
8
BLACK
6
CONTINUOUS
10
130.829
20
-61.9117
11
130.829
21
-61.9117
0
LINE
8
BLACK
6
CONTINUOUS
10
130.829
20
-61.9117
11
129.47
21
-74.8405
0
LINE
8
BLACK
6
CONTINUOUS
10
129.47
20
-74.8405
11
129.47
21
-74.8405
0
LINE
8
BLACK
6
CONTINUOUS
10
129.47
20
-74.8405
11
129.461
21
-74.921
0
LINE
8
BLACK
6
CONTINUOUS
10
129.461
20
-74.921
11
129.473
21
-75.0825
0
LINE
8
BLACK
6
CONTINUOUS
10
129.473
20
-75.0825
11
129.512
21
-75.2395
0
LINE
8
BLACK
6
CONTINUOUS
10
129.512
20
-75.2395
11
129.578
21
-75.3874
0
LINE
8
BLACK
6
CONTINUOUS
10
129.578
20
-75.3874
11
129.668
21
-75.5215
0
LINE
8
BLACK
6
CONTINUOUS
10
129.668
20
-75.5215
11
129.781
21
-75.638
0
LINE
8
BLACK
6
CONTINUOUS
10
129.781
20
-75.638
11
129.911
21
-75.7331
0
LINE
8
BLACK
6
CONTINUOUS
10
129.911
20
-75.7331
11
130.057
21
-75.8041
0
LINE
8
BLACK
6
CONTINUOUS
10
130.057
20
-75.8041
11
130.213
21
-75.8487
0
LINE
8
BLACK
6
CONTINUOUS
10
130.213
20
-75.8487
11
130.293
21
-75.8571
0
LINE
8
BLACK
6
CONTINUOUS
10
130.293
20
-75.8571
11
143.222
21
-77.216
0
LINE
8
BLACK
6
CONTINUOUS
10
143.222
20
-77.216
11
143.222
21
-77.216
0
LINE
8
BLACK
6
CONTINUOUS
10
143.222
20
-77.216
11
143.222
21
-77.216
0
LINE
8
BLACK
6
CONTINUOUS
10
143.222
20
-77.216
11
143.222
21
-77.216
0
LINE
8
BLACK
6
CONTINUOUS
10
143.222
20
-77.216
11
143.302
21
-77.2245
0
LINE
8
BLACK
6
CONTINUOUS
10
143.302
20
-77.2245
11
143.464
21
-77.2132
0
LINE
8
BLACK
6
CONTINUOUS
10
143.464
20
-77.2132
11
143.621
21
-77.174
0
LINE
8
BLACK
6
CONTINUOUS
10
143.621
20
-77.174
11
143.769
21
-77.1082
0
LINE
8
BLACK
6
CONTINUOUS
10
143.769
20
-77.1082
11
143.903
21
-77.0177
0
LINE
8
BLACK
6
CONTINUOUS
10
143.903
20
-77.0177
11
144.019
21
-76.9052
0
LINE
8
BLACK
6
CONTINUOUS
10
144.019
20
-76.9052
11
144.114
21
-76.7743
0
LINE
8
BLACK
6
CONTINUOUS
10
144.114
20
-76.7743
11
144.185
21
-76.6288
0
LINE
8
BLACK
6
CONTINUOUS
10
144.185
20
-76.6288
11
144.23
21
-76.4732
0
LINE
8
BLACK
6
CONTINUOUS
10
144.23
20
-76.4732
11
144.238
21
-76.3928
0
LINE
8
BLACK
6
CONTINUOUS
10
144.238
20
-76.3928
11
144.238
21
-76.3928
0
LINE
8
BLACK
6
CONTINUOUS
10
144.238
20
-76.3928
11
144.238
21
-76.3928
0
LINE
8
BLACK
6
CONTINUOUS
10
144.238
20
-76.3928
11
145.597
21
-63.464
0
LINE
8
BLACK
6
CONTINUOUS
10
145.597
20
-63.464
11
145.597
21
-63.464
0
LINE
8
BLACK
6
CONTINUOUS
10
145.597
20
-63.464
11
145.606
21
-63.3835
0
LINE
8
BLACK
6
CONTINUOUS
10
145.606
20
-63.3835
11
145.594
21
-63.222
0
LINE
8
BLACK
6
CONTINUOUS
10
145.594
20
-63.222
11
145.555
21
-63.065
0
LINE
8
BLACK
6
CONTINUOUS
10
145.555
20
-63.065
11
145.489
21
-62.9171
0
LINE
8
BLACK
6
CONTINUOUS
10
145.489
20
-62.9171
11
145.399
21
-62.783
0
LINE
8
BLACK
6
CONTINUOUS
10
145.399
20
-62.783
11
145.286
21
-62.6665
0
LINE
8
BLACK
6
CONTINUOUS
10
145.286
20
-62.6665
11
145.156
21
-62.5714
0
LINE
8
BLACK
6
CONTINUOUS
10
145.156
20
-62.5714
11
145.01
21
-62.5004
0
LINE
8
BLACK
6
CONTINUOUS
10
145.01
20
-62.5004
11
144.855
21
-62.4558
0
LINE
8
BLACK
6
CONTINUOUS
10
144.855
20
-62.4558
11
144.774
21
-62.4474
0
LINE
8
BLACK
6
CONTINUOUS
10
144.774
20
-62.4474
11
144.774
21
-62.4474
0
LINE
8
BLACK
6
CONTINUOUS
10
144.774
20
-62.4474
11
131.845
21
-61.0885
0
LINE
8
BLACK
6
CONTINUOUS
10
131.845
20
-61.0885
11
131.845
21
-61.0884
0
LINE
8
BLACK
6
CONTINUOUS
10
131.845
20
-61.0884
11
131.765
21
-61.08
0
LINE
8
BLACK
6
CONTINUOUS
10
131.765
20
-61.08
11
131.603
21
-61.0913
0
LINE
8
BLACK
6
CONTINUOUS
10
73.4255
20
-62.1391
11
86.4255
21
-62.1391
0
LINE
8
BLACK
6
CONTINUOUS
10
86.4255
20
-62.1391
11
86.4255
21
-62.1391
0
LINE
8
BLACK
6
CONTINUOUS
10
86.4255
20
-62.1391
11
86.6122
21
-62.1555
0
LINE
8
BLACK
6
CONTINUOUS
10
86.6122
20
-62.1555
11
86.7932
21
-62.204
0
LINE
8
BLACK
6
CONTINUOUS
10
86.7932
20
-62.204
11
86.963
21
-62.2831
0
LINE
8
BLACK
6
CONTINUOUS
10
86.963
20
-62.2831
11
87.1165
21
-62.3906
0
LINE
8
BLACK
6
CONTINUOUS
10
87.1165
20
-62.3906
11
87.249
21
-62.5231
0
LINE
8
BLACK
6
CONTINUOUS
10
87.249
20
-62.5231
11
87.3565
21
-62.6766
0
LINE
8
BLACK
6
CONTINUOUS
10
87.3565
20
-62.6766
11
87.4357
21
-62.8465
0
LINE
8
BLACK
6
CONTINUOUS
10
87.4357
20
-62.8465
11
87.4842
21
-63.0275
0
LINE
8
BLACK
6
CONTINUOUS
10
87.4842
20
-63.0275
11
87.5005
21
-63.214
0
LINE
8
BLACK
6
CONTINUOUS
10
87.5005
20
-63.214
11
87.5005
21
-63.2141
0
LINE
8
BLACK
6
CONTINUOUS
10
87.5005
20
-63.2141
11
87.5005
21
-76.2141
0
LINE
8
BLACK
6
CONTINUOUS
10
87.5005
20
-76.2141
11
87.5005
21
-76.2141
0
LINE
8
BLACK
6
CONTINUOUS
10
87.5005
20
-76.2141
11
87.4842
21
-76.4008
0
LINE
8
BLACK
6
CONTINUOUS
10
87.4842
20
-76.4008
11
87.4357
21
-76.5818
0
LINE
8
BLACK
6
CONTINUOUS
10
87.4357
20
-76.5818
11
87.3565
21
-76.7516
0
LINE
8
BLACK
6
CONTINUOUS
10
87.3565
20
-76.7516
11
87.249
21
-76.9051
0
LINE
8
BLACK
6
CONTINUOUS
10
87.249
20
-76.9051
11
87.1165
21
-77.0376
0
LINE
8
BLACK
6
CONTINUOUS
10
87.1165
20
-77.0376
11
86.963
21
-77.1451
0
LINE
8
BLACK
6
CONTINUOUS
10
86.963
20
-77.1451
11
86.7932
21
-77.2243
0
LINE
8
BLACK
6
CONTINUOUS
10
86.7932
20
-77.2243
11
86.6122
21
-77.2728
0
LINE
8
BLACK
6
CONTINUOUS
10
86.6122
20
-77.2728
11
86.4255
21
-77.2891
0
LINE
8
BLACK
6
CONTINUOUS
10
86.4255
20
-77.2891
11
86.4255
21
-77.2891
0
LINE
8
BLACK
6
CONTINUOUS
10
86.4255
20
-77.2891
11
86.4255
21
-77.2891
0
LINE
8
BLACK
6
CONTINUOUS
10
86.4255
20
-77.2891
11
86.4255
21
-77.2891
0
LINE
8
BLACK
6
CONTINUOUS
10
86.4255
20
-77.2891
11
86.4255
21
-77.2891
0
LINE
8
BLACK
6
CONTINUOUS
10
86.4255
20
-77.2891
11
73.4255
21
-77.2891
0
LINE
8
BLACK
6
CONTINUOUS
10
73.4255
20
-77.2891
11
73.4255
21
-77.2891
0
LINE
8
BLACK
6
CONTINUOUS
10
73.4255
20
-77.2891
11
73.4255
21
-77.2891
0
LINE
8
BLACK
6
CONTINUOUS
10
73.4255
20
-77.2891
11
73.2388
21
-77.2728
0
LINE
8
BLACK
6
CONTINUOUS
10
73.2388
20
-77.2728
11
73.0578
21
-77.2243
0
LINE
8
BLACK
6
CONTINUOUS
10
73.0578
20
-77.2243
11
72.888
21
-77.1451
0
LINE
8
BLACK
6
CONTINUOUS
10
72.888
20
-77.1451
11
72.7345
21
-77.0376
0
LINE
8
BLACK
6
CONTINUOUS
10
72.7345
20
-77.0376
11
72.602
21
-76.9051
0
LINE
8
BLACK
6
CONTINUOUS
10
72.602
20
-76.9051
11
72.4945
21
-76.7516
0
LINE
8
BLACK
6
CONTINUOUS
10
72.4945
20
-76.7516
11
72.4153
21
-76.5818
0
LINE
8
BLACK
6
CONTINUOUS
10
72.4153
20
-76.5818
11
72.3668
21
-76.4008
0
LINE
8
BLACK
6
CONTINUOUS
10
72.3668
20
-76.4008
11
72.3505
21
-76.2141
0
LINE
8
BLACK
6
CONTINUOUS
10
72.3505
20
-76.2141
11
72.3505
21
-76.2141
0
LINE
8
BLACK
6
CONTINUOUS
10
72.3505
20
-76.2141
11
72.3505
21
-76.2141
0
LINE
8
BLACK
6
CONTINUOUS
10
72.3505
20
-76.2141
11
72.3505
21
-63.2141
0
LINE
8
BLACK
6
CONTINUOUS
10
72.3505
20
-63.2141
11
72.3505
21
-63.2141
0
LINE
8
BLACK
6
CONTINUOUS
10
72.3505
20
-63.2141
11
72.3668
21
-63.0274
0
LINE
8
BLACK
6
CONTINUOUS
10
72.3668
20
-63.0274
11
72.4153
21
-62.8464
0
LINE
8
BLACK
6
CONTINUOUS
10
72.4153
20
-62.8464
11
72.4945
21
-62.6766
0
LINE
8
BLACK
6
CONTINUOUS
10
72.4945
20
-62.6766
11
72.602
21
-62.5231
0
LINE
8
BLACK
6
CONTINUOUS
10
72.602
20
-62.5231
11
72.7345
21
-62.3906
0
LINE
8
BLACK
6
CONTINUOUS
10
72.7345
20
-62.3906
11
72.888
21
-62.2831
0
LINE
8
BLACK
6
CONTINUOUS
10
72.888
20
-62.2831
11
73.0578
21
-62.2039
0
LINE
8
BLACK
6
CONTINUOUS
10
73.0578
20
-62.2039
11
73.2388
21
-62.1554
0
LINE
8
BLACK
6
CONTINUOUS
10
73.2388
20
-62.1554
11
73.4255
21
-62.1391
0
LINE
8
BLACK
6
CONTINUOUS
10
73.4255
20
-62.1391
11
73.4255
21
-62.1391
0
LINE
8
BLACK
6
CONTINUOUS
10
73.1852
20
-62.3172
11
73.0331
21
-62.3726
0
LINE
8
BLACK
6
CONTINUOUS
10
73.0331
20
-62.3726
11
72.8929
21
-62.4535
0
LINE
8
BLACK
6
CONTINUOUS
10
72.8929
20
-62.4535
11
72.7689
21
-62.5575
0
LINE
8
BLACK
6
CONTINUOUS
10
72.7689
20
-62.5575
11
72.6649
21
-62.6815
0
LINE
8
BLACK
6
CONTINUOUS
10
72.6649
20
-62.6815
11
72.584
21
-62.8217
0
LINE
8
BLACK
6
CONTINUOUS
10
72.584
20
-62.8217
11
72.5286
21
-62.9738
0
LINE
8
BLACK
6
CONTINUOUS
10
72.5286
20
-62.9738
11
72.5005
21
-63.1332
0
LINE
8
BLACK
6
CONTINUOUS
10
72.5005
20
-63.1332
11
72.5005
21
-63.2141
0
LINE
8
BLACK
6
CONTINUOUS
10
72.5005
20
-63.2141
11
72.5005
21
-63.2141
0
LINE
8
BLACK
6
CONTINUOUS
10
72.5005
20
-63.2141
11
72.5005
21
-76.2141
0
LINE
8
BLACK
6
CONTINUOUS
10
72.5005
20
-76.2141
11
72.5005
21
-76.2143
0
LINE
8
BLACK
6
CONTINUOUS
10
72.5005
20
-76.2143
11
72.5005
21
-76.295
0
LINE
8
BLACK
6
CONTINUOUS
10
72.5005
20
-76.295
11
72.5286
21
-76.4544
0
LINE
8
BLACK
6
CONTINUOUS
10
72.5286
20
-76.4544
11
72.584
21
-76.6065
0
LINE
8
BLACK
6
CONTINUOUS
10
72.584
20
-76.6065
11
72.6649
21
-76.7467
0
LINE
8
BLACK
6
CONTINUOUS
10
72.6649
20
-76.7467
11
72.7689
21
-76.8707
0
LINE
8
BLACK
6
CONTINUOUS
10
72.7689
20
-76.8707
11
72.8929
21
-76.9747
0
LINE
8
BLACK
6
CONTINUOUS
10
72.8929
20
-76.9747
11
73.0331
21
-77.0557
0
LINE
8
BLACK
6
CONTINUOUS
10
73.0331
20
-77.0557
11
73.1852
21
-77.111
0
LINE
8
BLACK
6
CONTINUOUS
10
73.1852
20
-77.111
11
73.3446
21
-77.1391
0
LINE
8
BLACK
6
CONTINUOUS
10
73.3446
20
-77.1391
11
73.4255
21
-77.1391
0
LINE
8
BLACK
6
CONTINUOUS
10
73.4255
20
-77.1391
11
73.4255
21
-77.1391
0
LINE
8
BLACK
6
CONTINUOUS
10
73.4255
20
-77.1391
11
86.4255
21
-77.1391
0
LINE
8
BLACK
6
CONTINUOUS
10
86.4255
20
-77.1391
11
86.4255
21
-77.1391
0
LINE
8
BLACK
6
CONTINUOUS
10
86.4255
20
-77.1391
11
86.5064
21
-77.1391
0
LINE
8
BLACK
6
CONTINUOUS
10
86.5064
20
-77.1391
11
86.6658
21
-77.111
0
LINE
8
BLACK
6
CONTINUOUS
10
86.6658
20
-77.111
11
86.8179
21
-77.0556
0
LINE
8
BLACK
6
CONTINUOUS
10
86.8179
20
-77.0556
11
86.9581
21
-76.9747
0
LINE
8
BLACK
6
CONTINUOUS
10
86.9581
20
-76.9747
11
87.0821
21
-76.8707
0
LINE
8
BLACK
6
CONTINUOUS
10
87.0821
20
-76.8707
11
87.1861
21
-76.7467
0
LINE
8
BLACK
6
CONTINUOUS
10
87.1861
20
-76.7467
11
87.267
21
-76.6065
0
LINE
8
BLACK
6
CONTINUOUS
10
87.267
20
-76.6065
11
87.3224
21
-76.4544
0
LINE
8
BLACK
6
CONTINUOUS
10
87.3224
20
-76.4544
11
87.3505
21
-76.295
0
LINE
8
BLACK
6
CONTINUOUS
10
87.3505
20
-76.295
11
87.3505
21
-76.2141
0
LINE
8
BLACK
6
CONTINUOUS
10
87.3505
20
-76.2141
11
87.3505
21
-63.2141
0
LINE
8
BLACK
6
CONTINUOUS
10
87.3505
20
-63.2141
11
87.3505
21
-63.2141
0
LINE
8
BLACK
6
CONTINUOUS
10
87.3505
20
-63.2141
11
87.3505
21
-63.2141
0
LINE
8
BLACK
6
CONTINUOUS
10
87.3505
20
-63.2141
11
87.3505
21
-63.1332
0
LINE
8
BLACK
6
CONTINUOUS
10
87.3505
20
-63.1332
11
87.3224
21
-62.9738
0
LINE
8
BLACK
6
CONTINUOUS
10
87.3224
20
-62.9738
11
87.267
21
-62.8217
0
LINE
8
BLACK
6
CONTINUOUS
10
87.267
20
-62.8217
11
87.1861
21
-62.6815
0
LINE
8
BLACK
6
CONTINUOUS
10
87.1861
20
-62.6815
11
87.0821
21
-62.5576
0
LINE
8
BLACK
6
CONTINUOUS
10
87.0821
20
-62.5576
11
86.9581
21
-62.4535
0
LINE
8
BLACK
6
CONTINUOUS
10
86.9581
20
-62.4535
11
86.8179
21
-62.3726
0
LINE
8
BLACK
6
CONTINUOUS
10
86.8179
20
-62.3726
11
86.6658
21
-62.3172
0
LINE
8
BLACK
6
CONTINUOUS
10
86.6658
20
-62.3172
11
86.5064
21
-62.2891
0
LINE
8
BLACK
6
CONTINUOUS
10
86.5064
20
-62.2891
11
86.4255
21
-62.2891
0
LINE
8
BLACK
6
CONTINUOUS
10
86.4255
20
-62.2891
11
73.4255
21
-62.2891
0
LINE
8
BLACK
6
CONTINUOUS
10
73.4255
20
-62.2891
11
73.4255
21
-62.2891
0
LINE
8
BLACK
6
CONTINUOUS
10
73.4255
20
-62.2891
11
73.4255
21
-62.2891
0
LINE
8
BLACK
6
CONTINUOUS
10
73.4255
20
-62.2891
11
73.3446
21
-62.2891
0
LINE
8
BLACK
6
CONTINUOUS
10
73.3446
20
-62.2891
11
73.1852
21
-62.3172
0
LINE
8
BLACK
6
CONTINUOUS
10
93.19
20
-56.2127
11
106.182
21
-56.6664
0
LINE
8
BLACK
6
CONTINUOUS
10
106.182
20
-56.6664
11
106.182
21
-56.6664
0
LINE
8
BLACK
6
CONTINUOUS
10
106.182
20
-56.6664
11
106.182
21
-56.6664
0
LINE
8
BLACK
6
CONTINUOUS
10
106.182
20
-56.6664
11
106.368
21
-56.6893
0
LINE
8
BLACK
6
CONTINUOUS
10
106.368
20
-56.6893
11
106.547
21
-56.7441
0
LINE
8
BLACK
6
CONTINUOUS
10
106.547
20
-56.7441
11
106.714
21
-56.8291
0
LINE
8
BLACK
6
CONTINUOUS
10
106.714
20
-56.8291
11
106.864
21
-56.9419
0
LINE
8
BLACK
6
CONTINUOUS
10
106.864
20
-56.9419
11
106.992
21
-57.0789
0
LINE
8
BLACK
6
CONTINUOUS
10
106.992
20
-57.0789
11
107.094
21
-57.2361
0
LINE
8
BLACK
6
CONTINUOUS
10
107.094
20
-57.2361
11
107.167
21
-57.4086
0
LINE
8
BLACK
6
CONTINUOUS
10
107.167
20
-57.4086
11
107.209
21
-57.5912
0
LINE
8
BLACK
6
CONTINUOUS
10
107.209
20
-57.5912
11
107.219
21
-57.7783
0
LINE
8
BLACK
6
CONTINUOUS
10
107.219
20
-57.7783
11
107.219
21
-57.7783
0
LINE
8
BLACK
6
CONTINUOUS
10
107.219
20
-57.7783
11
107.219
21
-57.7783
0
LINE
8
BLACK
6
CONTINUOUS
10
107.219
20
-57.7783
11
107.219
21
-57.7783
0
LINE
8
BLACK
6
CONTINUOUS
10
107.219
20
-57.7783
11
106.765
21
-70.7704
0
LINE
8
BLACK
6
CONTINUOUS
10
106.765
20
-70.7704
11
106.765
21
-70.7704
0
LINE
8
BLACK
6
CONTINUOUS
10
106.765
20
-70.7704
11
106.765
21
-70.7704
0
LINE
8
BLACK
6
CONTINUOUS
10
106.765
20
-70.7704
11
106.765
21
-70.7704
0
LINE
8
BLACK
6
CONTINUOUS
10
106.765
20
-70.7704
11
106.742
21
-70.9564
0
LINE
8
BLACK
6
CONTINUOUS
10
106.742
20
-70.9564
11
106.688
21
-71.1355
0
LINE
8
BLACK
6
CONTINUOUS
10
106.688
20
-71.1355
11
106.602
21
-71.3025
0
LINE
8
BLACK
6
CONTINUOUS
10
106.602
20
-71.3025
11
106.49
21
-71.4521
0
LINE
8
BLACK
6
CONTINUOUS
10
106.49
20
-71.4521
11
106.353
21
-71.5799
0
LINE
8
BLACK
6
CONTINUOUS
10
106.353
20
-71.5799
11
106.195
21
-71.682
0
LINE
8
BLACK
6
CONTINUOUS
10
106.195
20
-71.682
11
106.023
21
-71.7552
0
LINE
8
BLACK
6
CONTINUOUS
10
106.023
20
-71.7552
11
105.84
21
-71.7974
0
LINE
8
BLACK
6
CONTINUOUS
10
105.84
20
-71.7974
11
105.653
21
-71.8072
0
LINE
8
BLACK
6
CONTINUOUS
10
105.653
20
-71.8072
11
105.653
21
-71.8072
0
LINE
8
BLACK
6
CONTINUOUS
10
105.653
20
-71.8072
11
105.653
21
-71.8072
0
LINE
8
BLACK
6
CONTINUOUS
10
105.653
20
-71.8072
11
105.653
21
-71.8072
0
LINE
8
BLACK
6
CONTINUOUS
10
105.653
20
-71.8072
11
105.653
21
-71.8072
0
LINE
8
BLACK
6
CONTINUOUS
10
105.653
20
-71.8072
11
92.6612
21
-71.3535
0
LINE
8
BLACK
6
CONTINUOUS
10
92.6612
20
-71.3535
11
92.6612
21
-71.3535
0
LINE
8
BLACK
6
CONTINUOUS
10
92.6612
20
-71.3535
11
92.4752
21
-71.3307
0
LINE
8
BLACK
6
CONTINUOUS
10
92.4752
20
-71.3307
11
92.296
21
-71.2759
0
LINE
8
BLACK
6
CONTINUOUS
10
92.296
20
-71.2759
11
92.1291
21
-71.1908
0
LINE
8
BLACK
6
CONTINUOUS
10
92.1291
20
-71.1908
11
91.9794
21
-71.078
0
LINE
8
BLACK
6
CONTINUOUS
10
91.9794
20
-71.078
11
91.8516
21
-70.941
0
LINE
8
BLACK
6
CONTINUOUS
10
91.8516
20
-70.941
11
91.7496
21
-70.7838
0
LINE
8
BLACK
6
CONTINUOUS
10
91.7496
20
-70.7838
11
91.6763
21
-70.6114
0
LINE
8
BLACK
6
CONTINUOUS
10
91.6763
20
-70.6114
11
91.6342
21
-70.4288
0
LINE
8
BLACK
6
CONTINUOUS
10
91.6342
20
-70.4288
11
91.6244
21
-70.2417
0
LINE
8
BLACK
6
CONTINUOUS
10
91.6244
20
-70.2417
11
91.6244
21
-70.2416
0
LINE
8
BLACK
6
CONTINUOUS
10
91.6244
20
-70.2416
11
92.0781
21
-57.2496
0
LINE
8
BLACK
6
CONTINUOUS
10
92.0781
20
-57.2496
11
92.0781
21
-57.2496
0
LINE
8
BLACK
6
CONTINUOUS
10
92.0781
20
-57.2496
11
92.1009
21
-57.0636
0
LINE
8
BLACK
6
CONTINUOUS
10
92.1009
20
-57.0636
11
92.1557
21
-56.8844
0
LINE
8
BLACK
6
CONTINUOUS
10
92.1557
20
-56.8844
11
92.2408
21
-56.7174
0
LINE
8
BLACK
6
CONTINUOUS
10
92.2408
20
-56.7174
11
92.3536
21
-56.5678
0
LINE
8
BLACK
6
CONTINUOUS
10
92.3536
20
-56.5678
11
92.4906
21
-56.44
0
LINE
8
BLACK
6
CONTINUOUS
10
92.4906
20
-56.44
11
92.6478
21
-56.3379
0
LINE
8
BLACK
6
CONTINUOUS
10
92.6478
20
-56.3379
11
92.8203
21
-56.2647
0
LINE
8
BLACK
6
CONTINUOUS
10
92.8203
20
-56.2647
11
93.0028
21
-56.2226
0
LINE
8
BLACK
6
CONTINUOUS
10
93.0028
20
-56.2226
11
93.1897
21
-56.2128
0
LINE
8
BLACK
6
CONTINUOUS
10
93.1897
20
-56.2128
11
93.19
21
-56.2127
0
LINE
8
BLACK
6
CONTINUOUS
10
93.19
20
-56.2127
11
93.19
21
-56.2127
0
LINE
8
BLACK
6
CONTINUOUS
10
93.19
20
-56.2127
11
93.19
21
-56.2127
0
LINE
8
BLACK
6
CONTINUOUS
10
92.9436
20
-56.3824
11
92.7896
21
-56.4324
0
LINE
8
BLACK
6
CONTINUOUS
10
92.7896
20
-56.4324
11
92.6467
21
-56.5084
0
LINE
8
BLACK
6
CONTINUOUS
10
92.6467
20
-56.5084
11
92.5192
21
-56.608
0
LINE
8
BLACK
6
CONTINUOUS
10
92.5192
20
-56.608
11
92.4109
21
-56.7283
0
LINE
8
BLACK
6
CONTINUOUS
10
92.4109
20
-56.7283
11
92.3251
21
-56.8655
0
LINE
8
BLACK
6
CONTINUOUS
10
92.3251
20
-56.8655
11
92.2645
21
-57.0156
0
LINE
8
BLACK
6
CONTINUOUS
10
92.2645
20
-57.0156
11
92.2308
21
-57.1739
0
LINE
8
BLACK
6
CONTINUOUS
10
92.2308
20
-57.1739
11
92.228
21
-57.2548
0
LINE
8
BLACK
6
CONTINUOUS
10
92.228
20
-57.2548
11
91.7743
21
-70.2469
0
LINE
8
BLACK
6
CONTINUOUS
10
91.7743
20
-70.2469
11
91.7743
21
-70.2469
0
LINE
8
BLACK
6
CONTINUOUS
10
91.7743
20
-70.2469
11
91.7743
21
-70.2469
0
LINE
8
BLACK
6
CONTINUOUS
10
91.7743
20
-70.2469
11
91.7743
21
-70.2469
0
LINE
8
BLACK
6
CONTINUOUS
10
91.7743
20
-70.2469
11
91.7715
21
-70.3278
0
LINE
8
BLACK
6
CONTINUOUS
10
91.7715
20
-70.3278
11
91.794
21
-70.488
0
LINE
8
BLACK
6
CONTINUOUS
10
91.794
20
-70.488
11
91.844
21
-70.642
0
LINE
8
BLACK
6
CONTINUOUS
10
91.844
20
-70.642
11
91.92
21
-70.7849
0
LINE
8
BLACK
6
CONTINUOUS
10
91.92
20
-70.7849
11
92.0196
21
-70.9124
0
LINE
8
BLACK
6
CONTINUOUS
10
92.0196
20
-70.9124
11
92.1399
21
-71.0207
0
LINE
8
BLACK
6
CONTINUOUS
10
92.1399
20
-71.0207
11
92.2772
21
-71.1065
0
LINE
8
BLACK
6
CONTINUOUS
10
92.2772
20
-71.1065
11
92.4273
21
-71.1671
0
LINE
8
BLACK
6
CONTINUOUS
10
92.4273
20
-71.1671
11
92.5856
21
-71.2008
0
LINE
8
BLACK
6
CONTINUOUS
10
92.5856
20
-71.2008
11
92.6665
21
-71.2036
0
LINE
8
BLACK
6
CONTINUOUS
10
92.6665
20
-71.2036
11
92.6665
21
-71.2036
0
LINE
8
BLACK
6
CONTINUOUS
10
92.6665
20
-71.2036
11
92.6665
21
-71.2036
0
LINE
8
BLACK
6
CONTINUOUS
10
92.6665
20
-71.2036
11
92.6665
21
-71.2036
0
LINE
8
BLACK
6
CONTINUOUS
10
92.6665
20
-71.2036
11
105.659
21
-71.6573
0
LINE
8
BLACK
6
CONTINUOUS
10
105.659
20
-71.6573
11
105.659
21
-71.6573
0
LINE
8
BLACK
6
CONTINUOUS
10
105.659
20
-71.6573
11
105.739
21
-71.6601
0
LINE
8
BLACK
6
CONTINUOUS
10
105.739
20
-71.6601
11
105.9
21
-71.6376
0
LINE
8
BLACK
6
CONTINUOUS
10
105.9
20
-71.6376
11
106.054
21
-71.5875
0
LINE
8
BLACK
6
CONTINUOUS
10
106.054
20
-71.5875
11
106.197
21
-71.5116
0
LINE
8
BLACK
6
CONTINUOUS
10
106.197
20
-71.5116
11
106.324
21
-71.4119
0
LINE
8
BLACK
6
CONTINUOUS
10
106.324
20
-71.4119
11
106.432
21
-71.2916
0
LINE
8
BLACK
6
CONTINUOUS
10
106.432
20
-71.2916
11
106.518
21
-71.1544
0
LINE
8
BLACK
6
CONTINUOUS
10
106.518
20
-71.1544
11
106.579
21
-71.0043
0
LINE
8
BLACK
6
CONTINUOUS
10
106.579
20
-71.0043
11
106.612
21
-70.846
0
LINE
8
BLACK
6
CONTINUOUS
10
106.612
20
-70.846
11
106.615
21
-70.7651
0
LINE
8
BLACK
6
CONTINUOUS
10
106.615
20
-70.7651
11
106.615
21
-70.7651
0
LINE
8
BLACK
6
CONTINUOUS
10
106.615
20
-70.7651
11
107.069
21
-57.7731
0
LINE
8
BLACK
6
CONTINUOUS
10
107.069
20
-57.7731
11
107.069
21
-57.773
0
LINE
8
BLACK
6
CONTINUOUS
10
107.069
20
-57.773
11
107.072
21
-57.6922
0
LINE
8
BLACK
6
CONTINUOUS
10
107.072
20
-57.6922
11
107.049
21
-57.5319
0
LINE
8
BLACK
6
CONTINUOUS
10
107.049
20
-57.5319
11
106.999
21
-57.378
0
LINE
8
BLACK
6
CONTINUOUS
10
106.999
20
-57.378
11
106.923
21
-57.2351
0
LINE
8
BLACK
6
CONTINUOUS
10
106.923
20
-57.2351
11
106.824
21
-57.1075
0
LINE
8
BLACK
6
CONTINUOUS
10
106.824
20
-57.1075
11
106.703
21
-56.9992
0
LINE
8
BLACK
6
CONTINUOUS
10
106.703
20
-56.9992
11
106.566
21
-56.9134
0
LINE
8
BLACK
6
CONTINUOUS
10
106.566
20
-56.9134
11
106.416
21
-56.8528
0
LINE
8
BLACK
6
CONTINUOUS
10
106.416
20
-56.8528
11
106.258
21
-56.8192
0
LINE
8
BLACK
6
CONTINUOUS
10
106.258
20
-56.8192
11
106.177
21
-56.8163
0
LINE
8
BLACK
6
CONTINUOUS
10
106.177
20
-56.8163
11
106.177
21
-56.8163
0
LINE
8
BLACK
6
CONTINUOUS
10
106.177
20
-56.8163
11
106.177
21
-56.8163
0
LINE
8
BLACK
6
CONTINUOUS
10
106.177
20
-56.8163
11
93.1847
21
-56.3626
0
LINE
8
BLACK
6
CONTINUOUS
10
93.1847
20
-56.3626
11
93.1847
21
-56.3626
0
LINE
8
BLACK
6
CONTINUOUS
10
93.1847
20
-56.3626
11
93.1847
21
-56.3626
0
LINE
8
BLACK
6
CONTINUOUS
10
93.1847
20
-56.3626
11
93.1847
21
-56.3627
0
LINE
8
BLACK
6
CONTINUOUS
10
93.1847
20
-56.3627
11
93.1038
21
-56.3599
0
LINE
8
BLACK
6
CONTINUOUS
10
93.1038
20
-56.3599
11
92.9436
21
-56.3824
0
LINE
8
BLACK
6
CONTINUOUS
10
113.34
20
-48.2564
11
126.308
21
-49.1632
0
LINE
8
BLACK
6
CONTINUOUS
10
126.308
20
-49.1632
11
126.308
21
-49.1632
0
LINE
8
BLACK
6
CONTINUOUS
10
126.308
20
-49.1632
11
126.493
21
-49.1925
0
LINE
8
BLACK
6
CONTINUOUS
10
126.493
20
-49.1925
11
126.67
21
-49.2535
0
LINE
8
BLACK
6
CONTINUOUS
10
126.67
20
-49.2535
11
126.834
21
-49.3444
0
LINE
8
BLACK
6
CONTINUOUS
10
126.834
20
-49.3444
11
126.98
21
-49.4623
0
LINE
8
BLACK
6
CONTINUOUS
10
126.98
20
-49.4623
11
127.103
21
-49.6037
0
LINE
8
BLACK
6
CONTINUOUS
10
127.103
20
-49.6037
11
127.199
21
-49.7643
0
LINE
8
BLACK
6
CONTINUOUS
10
127.199
20
-49.7643
11
127.266
21
-49.9393
0
LINE
8
BLACK
6
CONTINUOUS
10
127.266
20
-49.9393
11
127.302
21
-50.1232
0
LINE
8
BLACK
6
CONTINUOUS
10
127.302
20
-50.1232
11
127.305
21
-50.3106
0
LINE
8
BLACK
6
CONTINUOUS
10
127.305
20
-50.3106
11
127.305
21
-50.3106
0
LINE
8
BLACK
6
CONTINUOUS
10
127.305
20
-50.3106
11
127.305
21
-50.3106
0
LINE
8
BLACK
6
CONTINUOUS
10
127.305
20
-50.3106
11
126.399
21
-63.2789
0
LINE
8
BLACK
6
CONTINUOUS
10
126.399
20
-63.2789
11
126.399
21
-63.2789
0
LINE
8
BLACK
6
CONTINUOUS
10
126.399
20
-63.2789
11
126.369
21
-63.464
0
LINE
8
BLACK
6
CONTINUOUS
10
126.369
20
-63.464
11
126.308
21
-63.6412
0
LINE
8
BLACK
6
CONTINUOUS
10
126.308
20
-63.6412
11
126.217
21
-63.805
0
LINE
8
BLACK
6
CONTINUOUS
10
126.217
20
-63.805
11
126.099
21
-63.9507
0
LINE
8
BLACK
6
CONTINUOUS
10
126.099
20
-63.9507
11
125.958
21
-64.0736
0
LINE
8
BLACK
6
CONTINUOUS
10
125.958
20
-64.0736
11
125.797
21
-64.1701
0
LINE
8
BLACK
6
CONTINUOUS
10
125.797
20
-64.1701
11
125.622
21
-64.2373
0
LINE
8
BLACK
6
CONTINUOUS
10
125.622
20
-64.2373
11
125.438
21
-64.273
0
LINE
8
BLACK
6
CONTINUOUS
10
125.438
20
-64.273
11
125.251
21
-64.2763
0
LINE
8
BLACK
6
CONTINUOUS
10
125.251
20
-64.2763
11
125.251
21
-64.2763
0
LINE
8
BLACK
6
CONTINUOUS
10
125.251
20
-64.2763
11
125.251
21
-64.2763
0
LINE
8
BLACK
6
CONTINUOUS
10
125.251
20
-64.2763
11
125.251
21
-64.2763
0
LINE
8
BLACK
6
CONTINUOUS
10
125.251
20
-64.2763
11
112.283
21
-63.3695
0
LINE
8
BLACK
6
CONTINUOUS
10
112.283
20
-63.3695
11
112.098
21
-63.3401
0
LINE
8
BLACK
6
CONTINUOUS
10
112.098
20
-63.3401
11
111.921
21
-63.2791
0
LINE
8
BLACK
6
CONTINUOUS
10
111.921
20
-63.2791
11
111.757
21
-63.1883
0
LINE
8
BLACK
6
CONTINUOUS
10
111.757
20
-63.1883
11
111.611
21
-63.0704
0
LINE
8
BLACK
6
CONTINUOUS
10
111.611
20
-63.0704
11
111.488
21
-62.9289
0
LINE
8
BLACK
6
CONTINUOUS
10
111.488
20
-62.9289
11
111.392
21
-62.7683
0
LINE
8
BLACK
6
CONTINUOUS
10
111.392
20
-62.7683
11
111.324
21
-62.5934
0
LINE
8
BLACK
6
CONTINUOUS
10
111.324
20
-62.5934
11
111.289
21
-62.4094
0
LINE
8
BLACK
6
CONTINUOUS
10
111.289
20
-62.4094
11
111.285
21
-62.2222
0
LINE
8
BLACK
6
CONTINUOUS
10
111.285
20
-62.2222
11
111.285
21
-62.2221
0
LINE
8
BLACK
6
CONTINUOUS
10
111.285
20
-62.2221
11
112.192
21
-49.2538
0
LINE
8
BLACK
6
CONTINUOUS
10
112.192
20
-49.2538
11
112.192
21
-49.2538
0
LINE
8
BLACK
6
CONTINUOUS
10
112.192
20
-49.2538
11
112.192
21
-49.2538
0
LINE
8
BLACK
6
CONTINUOUS
10
112.192
20
-49.2538
11
112.222
21
-49.0687
0
LINE
8
BLACK
6
CONTINUOUS
10
112.222
20
-49.0687
11
112.283
21
-48.8915
0
LINE
8
BLACK
6
CONTINUOUS
10
112.283
20
-48.8915
11
112.373
21
-48.7276
0
LINE
8
BLACK
6
CONTINUOUS
10
112.373
20
-48.7276
11
112.491
21
-48.582
0
LINE
8
BLACK
6
CONTINUOUS
10
112.491
20
-48.582
11
112.633
21
-48.4591
0
LINE
8
BLACK
6
CONTINUOUS
10
112.633
20
-48.4591
11
112.793
21
-48.3626
0
LINE
8
BLACK
6
CONTINUOUS
10
112.793
20
-48.3626
11
112.968
21
-48.2955
0
LINE
8
BLACK
6
CONTINUOUS
10
112.968
20
-48.2955
11
113.152
21
-48.2597
0
LINE
8
BLACK
6
CONTINUOUS
10
113.152
20
-48.2597
11
113.339
21
-48.2565
0
LINE
8
BLACK
6
CONTINUOUS
10
113.339
20
-48.2565
11
113.34
21
-48.2564
0
LINE
8
BLACK
6
CONTINUOUS
10
113.34
20
-48.2564
11
113.34
21
-48.2564
0
LINE
8
BLACK
6
CONTINUOUS
10
113.34
20
-48.2564
11
113.34
21
-48.2564
0
LINE
8
BLACK
6
CONTINUOUS
10
113.087
20
-48.4173
11
112.932
21
-48.462
0
LINE
8
BLACK
6
CONTINUOUS
10
112.932
20
-48.462
11
112.786
21
-48.5329
0
LINE
8
BLACK
6
CONTINUOUS
10
112.786
20
-48.5329
11
112.655
21
-48.628
0
LINE
8
BLACK
6
CONTINUOUS
10
112.655
20
-48.628
11
112.543
21
-48.7444
0
LINE
8
BLACK
6
CONTINUOUS
10
112.543
20
-48.7444
11
112.453
21
-48.8786
0
LINE
8
BLACK
6
CONTINUOUS
10
112.453
20
-48.8786
11
112.387
21
-49.0265
0
LINE
8
BLACK
6
CONTINUOUS
10
112.387
20
-49.0265
11
112.348
21
-49.1835
0
LINE
8
BLACK
6
CONTINUOUS
10
112.348
20
-49.1835
11
112.342
21
-49.2642
0
LINE
8
BLACK
6
CONTINUOUS
10
112.342
20
-49.2642
11
112.342
21
-49.2642
0
LINE
8
BLACK
6
CONTINUOUS
10
112.342
20
-49.2642
11
111.435
21
-62.2326
0
LINE
8
BLACK
6
CONTINUOUS
10
111.435
20
-62.2326
11
111.435
21
-62.2326
0
LINE
8
BLACK
6
CONTINUOUS
10
111.435
20
-62.2326
11
111.435
21
-62.2326
0
LINE
8
BLACK
6
CONTINUOUS
10
111.435
20
-62.2326
11
111.429
21
-62.3133
0
LINE
8
BLACK
6
CONTINUOUS
10
111.429
20
-62.3133
11
111.446
21
-62.4743
0
LINE
8
BLACK
6
CONTINUOUS
10
111.446
20
-62.4743
11
111.491
21
-62.6298
0
LINE
8
BLACK
6
CONTINUOUS
10
111.491
20
-62.6298
11
111.562
21
-62.7753
0
LINE
8
BLACK
6
CONTINUOUS
10
111.562
20
-62.7753
11
111.657
21
-62.9063
0
LINE
8
BLACK
6
CONTINUOUS
10
111.657
20
-62.9063
11
111.773
21
-63.0187
0
LINE
8
BLACK
6
CONTINUOUS
10
111.773
20
-63.0187
11
111.908
21
-63.1092
0
LINE
8
BLACK
6
CONTINUOUS
10
111.908
20
-63.1092
11
112.055
21
-63.175
0
LINE
8
BLACK
6
CONTINUOUS
10
112.055
20
-63.175
11
112.213
21
-63.2142
0
LINE
8
BLACK
6
CONTINUOUS
10
112.213
20
-63.2142
11
112.293
21
-63.2198
0
LINE
8
BLACK
6
CONTINUOUS
10
112.293
20
-63.2198
11
112.293
21
-63.2198
0
LINE
8
BLACK
6
CONTINUOUS
10
112.293
20
-63.2198
11
125.262
21
-64.1267
0
LINE
8
BLACK
6
CONTINUOUS
10
125.262
20
-64.1267
11
125.262
21
-64.1267
0
LINE
8
BLACK
6
CONTINUOUS
10
125.262
20
-64.1267
11
125.342
21
-64.1323
0
LINE
8
BLACK
6
CONTINUOUS
10
125.342
20
-64.1323
11
125.503
21
-64.1154
0
LINE
8
BLACK
6
CONTINUOUS
10
125.503
20
-64.1154
11
125.659
21
-64.0708
0
LINE
8
BLACK
6
CONTINUOUS
10
125.659
20
-64.0708
11
125.804
21
-63.9998
0
LINE
8
BLACK
6
CONTINUOUS
10
125.804
20
-63.9998
11
125.935
21
-63.9047
0
LINE
8
BLACK
6
CONTINUOUS
10
125.935
20
-63.9047
11
126.048
21
-63.7883
0
LINE
8
BLACK
6
CONTINUOUS
10
126.048
20
-63.7883
11
126.138
21
-63.6541
0
LINE
8
BLACK
6
CONTINUOUS
10
126.138
20
-63.6541
11
126.204
21
-63.5062
0
LINE
8
BLACK
6
CONTINUOUS
10
126.204
20
-63.5062
11
126.243
21
-63.3492
0
LINE
8
BLACK
6
CONTINUOUS
10
126.243
20
-63.3492
11
126.249
21
-63.2684
0
LINE
8
BLACK
6
CONTINUOUS
10
126.249
20
-63.2684
11
126.249
21
-63.2684
0
LINE
8
BLACK
6
CONTINUOUS
10
126.249
20
-63.2684
11
127.156
21
-50.3001
0
LINE
8
BLACK
6
CONTINUOUS
10
127.156
20
-50.3001
11
127.156
21
-50.2998
0
LINE
8
BLACK
6
CONTINUOUS
10
127.156
20
-50.2998
11
127.161
21
-50.2194
0
LINE
8
BLACK
6
CONTINUOUS
10
127.161
20
-50.2194
11
127.144
21
-50.0584
0
LINE
8
BLACK
6
CONTINUOUS
10
127.144
20
-50.0584
11
127.1
21
-49.9028
0
LINE
8
BLACK
6
CONTINUOUS
10
127.1
20
-49.9028
11
127.029
21
-49.7573
0
LINE
8
BLACK
6
CONTINUOUS
10
127.029
20
-49.7573
11
126.934
21
-49.6264
0
LINE
8
BLACK
6
CONTINUOUS
10
126.934
20
-49.6264
11
126.817
21
-49.514
0
LINE
8
BLACK
6
CONTINUOUS
10
126.817
20
-49.514
11
126.683
21
-49.4235
0
LINE
8
BLACK
6
CONTINUOUS
10
126.683
20
-49.4235
11
126.535
21
-49.3576
0
LINE
8
BLACK
6
CONTINUOUS
10
126.535
20
-49.3576
11
126.378
21
-49.3185
0
LINE
8
BLACK
6
CONTINUOUS
10
126.378
20
-49.3185
11
126.297
21
-49.3128
0
LINE
8
BLACK
6
CONTINUOUS
10
126.297
20
-49.3128
11
126.297
21
-49.3128
0
LINE
8
BLACK
6
CONTINUOUS
10
126.297
20
-49.3128
11
126.297
21
-49.3128
0
LINE
8
BLACK
6
CONTINUOUS
10
126.297
20
-49.3128
11
126.297
21
-49.3128
0
LINE
8
BLACK
6
CONTINUOUS
10
126.297
20
-49.3128
11
113.329
21
-48.406
0
LINE
8
BLACK
6
CONTINUOUS
10
113.329
20
-48.406
11
113.329
21
-48.406
0
LINE
8
BLACK
6
CONTINUOUS
10
113.329
20
-48.406
11
113.329
21
-48.406
0
LINE
8
BLACK
6
CONTINUOUS
10
113.329
20
-48.406
11
113.329
21
-48.4061
0
LINE
8
BLACK
6
CONTINUOUS
10
113.329
20
-48.4061
11
113.248
21
-48.4004
0
LINE
8
BLACK
6
CONTINUOUS
10
113.248
20
-48.4004
11
113.087
21
-48.4173
0
LINE
8
BLACK
6
CONTINUOUS
10
133.763
20
-42.839
11
133.763
21
-42.839
0
LINE
8
BLACK
6
CONTINUOUS
10
133.763
20
-42.839
11
133.763
21
-42.839
0
LINE
8
BLACK
6
CONTINUOUS
10
133.763
20
-42.839
11
146.692
21
-44.1979
0
LINE
8
BLACK
6
CONTINUOUS
10
146.692
20
-44.1979
11
146.692
21
-44.1979
0
LINE
8
BLACK
6
CONTINUOUS
10
146.692
20
-44.1979
11
146.876
21
-44.2336
0
LINE
8
BLACK
6
CONTINUOUS
10
146.876
20
-44.2336
11
147.051
21
-44.3008
0
LINE
8
BLACK
6
CONTINUOUS
10
147.051
20
-44.3008
11
147.212
21
-44.3973
0
LINE
8
BLACK
6
CONTINUOUS
10
147.212
20
-44.3973
11
147.353
21
-44.5202
0
LINE
8
BLACK
6
CONTINUOUS
10
147.353
20
-44.5202
11
147.471
21
-44.6658
0
LINE
8
BLACK
6
CONTINUOUS
10
147.471
20
-44.6658
11
147.562
21
-44.8297
0
LINE
8
BLACK
6
CONTINUOUS
10
147.562
20
-44.8297
11
147.623
21
-45.0069
0
LINE
8
BLACK
6
CONTINUOUS
10
147.623
20
-45.0069
11
147.652
21
-45.192
0
LINE
8
BLACK
6
CONTINUOUS
10
147.652
20
-45.192
11
147.649
21
-45.3794
0
LINE
8
BLACK
6
CONTINUOUS
10
147.649
20
-45.3794
11
147.649
21
-45.3794
0
LINE
8
BLACK
6
CONTINUOUS
10
147.649
20
-45.3794
11
147.649
21
-45.3794
0
LINE
8
BLACK
6
CONTINUOUS
10
147.649
20
-45.3794
11
146.29
21
-58.3081
0
LINE
8
BLACK
6
CONTINUOUS
10
146.29
20
-58.3081
11
146.254
21
-58.4921
0
LINE
8
BLACK
6
CONTINUOUS
10
146.254
20
-58.4921
11
146.187
21
-58.667
0
LINE
8
BLACK
6
CONTINUOUS
10
146.187
20
-58.667
11
146.091
21
-58.8276
0
LINE
8
BLACK
6
CONTINUOUS
10
146.091
20
-58.8276
11
145.968
21
-58.9691
0
LINE
8
BLACK
6
CONTINUOUS
10
145.968
20
-58.9691
11
145.822
21
-59.087
0
LINE
8
BLACK
6
CONTINUOUS
10
145.822
20
-59.087
11
145.658
21
-59.1778
0
LINE
8
BLACK
6
CONTINUOUS
10
145.658
20
-59.1778
11
145.481
21
-59.2389
0
LINE
8
BLACK
6
CONTINUOUS
10
145.481
20
-59.2389
11
145.296
21
-59.2682
0
LINE
8
BLACK
6
CONTINUOUS
10
145.296
20
-59.2682
11
145.109
21
-59.2649
0
LINE
8
BLACK
6
CONTINUOUS
10
145.109
20
-59.2649
11
145.109
21
-59.2649
0
LINE
8
BLACK
6
CONTINUOUS
10
145.109
20
-59.2649
11
132.18
21
-57.906
0
LINE
8
BLACK
6
CONTINUOUS
10
132.18
20
-57.906
11
132.18
21
-57.906
0
LINE
8
BLACK
6
CONTINUOUS
10
132.18
20
-57.906
11
131.996
21
-57.8703
0
LINE
8
BLACK
6
CONTINUOUS
10
131.996
20
-57.8703
11
131.821
21
-57.8031
0
LINE
8
BLACK
6
CONTINUOUS
10
131.821
20
-57.8031
11
131.66
21
-57.7066
0
LINE
8
BLACK
6
CONTINUOUS
10
131.66
20
-57.7066
11
131.519
21
-57.5837
0
LINE
8
BLACK
6
CONTINUOUS
10
131.519
20
-57.5837
11
131.401
21
-57.438
0
LINE
8
BLACK
6
CONTINUOUS
10
131.401
20
-57.438
11
131.31
21
-57.2741
0
LINE
8
BLACK
6
CONTINUOUS
10
131.31
20
-57.2741
11
131.249
21
-57.097
0
LINE
8
BLACK
6
CONTINUOUS
10
131.249
20
-57.097
11
131.22
21
-56.9119
0
LINE
8
BLACK
6
CONTINUOUS
10
131.22
20
-56.9119
11
131.223
21
-56.7245
0
LINE
8
BLACK
6
CONTINUOUS
10
131.223
20
-56.7245
11
131.223
21
-56.7245
0
LINE
8
BLACK
6
CONTINUOUS
10
131.223
20
-56.7245
11
132.582
21
-43.7957
0
LINE
8
BLACK
6
CONTINUOUS
10
132.582
20
-43.7957
11
132.582
21
-43.7957
0
LINE
8
BLACK
6
CONTINUOUS
10
132.582
20
-43.7957
11
132.618
21
-43.6118
0
LINE
8
BLACK
6
CONTINUOUS
10
132.618
20
-43.6118
11
132.685
21
-43.4369
0
LINE
8
BLACK
6
CONTINUOUS
10
132.685
20
-43.4369
11
132.781
21
-43.2762
0
LINE
8
BLACK
6
CONTINUOUS
10
132.781
20
-43.2762
11
132.904
21
-43.1348
0
LINE
8
BLACK
6
CONTINUOUS
10
132.904
20
-43.1348
11
133.05
21
-43.0169
0
LINE
8
BLACK
6
CONTINUOUS
10
133.05
20
-43.0169
11
133.214
21
-42.926
0
LINE
8
BLACK
6
CONTINUOUS
10
133.214
20
-42.926
11
133.391
21
-42.865
0
LINE
8
BLACK
6
CONTINUOUS
10
133.391
20
-42.865
11
133.576
21
-42.8357
0
LINE
8
BLACK
6
CONTINUOUS
10
133.576
20
-42.8357
11
133.763
21
-42.839
0
LINE
8
BLACK
6
CONTINUOUS
10
133.506
20
-42.991
11
133.349
21
-43.0301
0
LINE
8
BLACK
6
CONTINUOUS
10
133.349
20
-43.0301
11
133.201
21
-43.096
0
LINE
8
BLACK
6
CONTINUOUS
10
133.201
20
-43.096
11
133.067
21
-43.1865
0
LINE
8
BLACK
6
CONTINUOUS
10
133.067
20
-43.1865
11
132.95
21
-43.2989
0
LINE
8
BLACK
6
CONTINUOUS
10
132.95
20
-43.2989
11
132.855
21
-43.4299
0
LINE
8
BLACK
6
CONTINUOUS
10
132.855
20
-43.4299
11
132.784
21
-43.5754
0
LINE
8
BLACK
6
CONTINUOUS
10
132.784
20
-43.5754
11
132.74
21
-43.7309
0
LINE
8
BLACK
6
CONTINUOUS
10
132.74
20
-43.7309
11
132.731
21
-43.8114
0
LINE
8
BLACK
6
CONTINUOUS
10
132.731
20
-43.8114
11
132.731
21
-43.8114
0
LINE
8
BLACK
6
CONTINUOUS
10
132.731
20
-43.8114
11
132.731
21
-43.8114
0
LINE
8
BLACK
6
CONTINUOUS
10
132.731
20
-43.8114
11
131.372
21
-56.7402
0
LINE
8
BLACK
6
CONTINUOUS
10
131.372
20
-56.7402
11
131.372
21
-56.7403
0
LINE
8
BLACK
6
CONTINUOUS
10
131.372
20
-56.7403
11
131.364
21
-56.8207
0
LINE
8
BLACK
6
CONTINUOUS
10
131.364
20
-56.8207
11
131.375
21
-56.9822
0
LINE
8
BLACK
6
CONTINUOUS
10
131.375
20
-56.9822
11
131.414
21
-57.1392
0
LINE
8
BLACK
6
CONTINUOUS
10
131.414
20
-57.1392
11
131.48
21
-57.2871
0
LINE
8
BLACK
6
CONTINUOUS
10
131.48
20
-57.2871
11
131.57
21
-57.4212
0
LINE
8
BLACK
6
CONTINUOUS
10
131.57
20
-57.4212
11
131.683
21
-57.5377
0
LINE
8
BLACK
6
CONTINUOUS
10
131.683
20
-57.5377
11
131.814
21
-57.6328
0
LINE
8
BLACK
6
CONTINUOUS
10
131.814
20
-57.6328
11
131.959
21
-57.7038
0
LINE
8
BLACK
6
CONTINUOUS
10
131.959
20
-57.7038
11
132.115
21
-57.7484
0
LINE
8
BLACK
6
CONTINUOUS
10
132.115
20
-57.7484
11
132.195
21
-57.7568
0
LINE
8
BLACK
6
CONTINUOUS
10
132.195
20
-57.7568
11
132.195
21
-57.7568
0
LINE
8
BLACK
6
CONTINUOUS
10
132.195
20
-57.7568
11
132.195
21
-57.7568
0
LINE
8
BLACK
6
CONTINUOUS
10
132.195
20
-57.7568
11
145.124
21
-59.1157
0
LINE
8
BLACK
6
CONTINUOUS
10
145.124
20
-59.1157
11
145.124
21
-59.1157
0
LINE
8
BLACK
6
CONTINUOUS
10
145.124
20
-59.1157
11
145.205
21
-59.1242
0
LINE
8
BLACK
6
CONTINUOUS
10
145.205
20
-59.1242
11
145.366
21
-59.1129
0
LINE
8
BLACK
6
CONTINUOUS
10
145.366
20
-59.1129
11
145.523
21
-59.0737
0
LINE
8
BLACK
6
CONTINUOUS
10
145.523
20
-59.0737
11
145.671
21
-59.0079
0
LINE
8
BLACK
6
CONTINUOUS
10
145.671
20
-59.0079
11
145.805
21
-58.9174
0
LINE
8
BLACK
6
CONTINUOUS
10
145.805
20
-58.9174
11
145.922
21
-58.805
0
LINE
8
BLACK
6
CONTINUOUS
10
145.922
20
-58.805
11
146.017
21
-58.674
0
LINE
8
BLACK
6
CONTINUOUS
10
146.017
20
-58.674
11
146.088
21
-58.5285
0
LINE
8
BLACK
6
CONTINUOUS
10
146.088
20
-58.5285
11
146.132
21
-58.3729
0
LINE
8
BLACK
6
CONTINUOUS
10
146.132
20
-58.3729
11
146.141
21
-58.2925
0
LINE
8
BLACK
6
CONTINUOUS
10
146.141
20
-58.2925
11
146.141
21
-58.2925
0
LINE
8
BLACK
6
CONTINUOUS
10
146.141
20
-58.2925
11
146.141
21
-58.2925
0
LINE
8
BLACK
6
CONTINUOUS
10
146.141
20
-58.2925
11
147.5
21
-45.3637
0
LINE
8
BLACK
6
CONTINUOUS
10
147.5
20
-45.3637
11
147.5
21
-45.3634
0
LINE
8
BLACK
6
CONTINUOUS
10
147.5
20
-45.3634
11
147.508
21
-45.2832
0
LINE
8
BLACK
6
CONTINUOUS
10
147.508
20
-45.2832
11
147.497
21
-45.1217
0
LINE
8
BLACK
6
CONTINUOUS
10
147.497
20
-45.1217
11
147.458
21
-44.9647
0
LINE
8
BLACK
6
CONTINUOUS
10
147.458
20
-44.9647
11
147.392
21
-44.8168
0
LINE
8
BLACK
6
CONTINUOUS
10
147.392
20
-44.8168
11
147.301
21
-44.6826
0
LINE
8
BLACK
6
CONTINUOUS
10
147.301
20
-44.6826
11
147.189
21
-44.5662
0
LINE
8
BLACK
6
CONTINUOUS
10
147.189
20
-44.5662
11
147.058
21
-44.4711
0
LINE
8
BLACK
6
CONTINUOUS
10
147.058
20
-44.4711
11
146.913
21
-44.4001
0
LINE
8
BLACK
6
CONTINUOUS
10
146.913
20
-44.4001
11
146.757
21
-44.3555
0
LINE
8
BLACK
6
CONTINUOUS
10
146.757
20
-44.3555
11
146.676
21
-44.3471
0
LINE
8
BLACK
6
CONTINUOUS
10
146.676
20
-44.3471
11
146.676
21
-44.3471
0
LINE
8
BLACK
6
CONTINUOUS
10
146.676
20
-44.3471
11
146.676
21
-44.3471
0
LINE
8
BLACK
6
CONTINUOUS
10
146.676
20
-44.3471
11
146.676
21
-44.3471
0
LINE
8
BLACK
6
CONTINUOUS
10
146.676
20
-44.3471
11
133.748
21
-42.9882
0
LINE
8
BLACK
6
CONTINUOUS
10
133.748
20
-42.9882
11
133.747
21
-42.9881
0
LINE
8
BLACK
6
CONTINUOUS
10
133.747
20
-42.9881
11
133.667
21
-42.9797
0
LINE
8
BLACK
6
CONTINUOUS
10
133.667
20
-42.9797
11
133.506
21
-42.991
0
LINE
8
BLACK
6
CONTINUOUS
10
73.4255
20
-43.9391
11
86.4255
21
-43.9391
0
LINE
8
BLACK
6
CONTINUOUS
10
86.4255
20
-43.9391
11
86.4255
21
-43.9391
0
LINE
8
BLACK
6
CONTINUOUS
10
86.4255
20
-43.9391
11
86.6122
21
-43.9555
0
LINE
8
BLACK
6
CONTINUOUS
10
86.6122
20
-43.9555
11
86.7932
21
-44.004
0
LINE
8
BLACK
6
CONTINUOUS
10
86.7932
20
-44.004
11
86.963
21
-44.0831
0
LINE
8
BLACK
6
CONTINUOUS
10
86.963
20
-44.0831
11
87.1165
21
-44.1906
0
LINE
8
BLACK
6
CONTINUOUS
10
87.1165
20
-44.1906
11
87.249
21
-44.3231
0
LINE
8
BLACK
6
CONTINUOUS
10
87.249
20
-44.3231
11
87.3565
21
-44.4766
0
LINE
8
BLACK
6
CONTINUOUS
10
87.3565
20
-44.4766
11
87.4357
21
-44.6465
0
LINE
8
BLACK
6
CONTINUOUS
10
87.4357
20
-44.6465
11
87.4842
21
-44.8275
0
LINE
8
BLACK
6
CONTINUOUS
10
87.4842
20
-44.8275
11
87.5005
21
-45.014
0
LINE
8
BLACK
6
CONTINUOUS
10
87.5005
20
-45.014
11
87.5005
21
-45.0141
0
LINE
8
BLACK
6
CONTINUOUS
10
87.5005
20
-45.0141
11
87.5005
21
-58.0141
0
LINE
8
BLACK
6
CONTINUOUS
10
87.5005
20
-58.0141
11
87.5005
21
-58.0141
0
LINE
8
BLACK
6
CONTINUOUS
10
87.5005
20
-58.0141
11
87.4842
21
-58.2008
0
LINE
8
BLACK
6
CONTINUOUS
10
87.4842
20
-58.2008
11
87.4357
21
-58.3818
0
LINE
8
BLACK
6
CONTINUOUS
10
87.4357
20
-58.3818
11
87.3565
21
-58.5516
0
LINE
8
BLACK
6
CONTINUOUS
10
87.3565
20
-58.5516
11
87.249
21
-58.7051
0
LINE
8
BLACK
6
CONTINUOUS
10
87.249
20
-58.7051
11
87.1165
21
-58.8376
0
LINE
8
BLACK
6
CONTINUOUS
10
87.1165
20
-58.8376
11
86.963
21
-58.9451
0
LINE
8
BLACK
6
CONTINUOUS
10
86.963
20
-58.9451
11
86.7932
21
-59.0243
0
LINE
8
BLACK
6
CONTINUOUS
10
86.7932
20
-59.0243
11
86.6122
21
-59.0728
0
LINE
8
BLACK
6
CONTINUOUS
10
86.6122
20
-59.0728
11
86.4255
21
-59.0891
0
LINE
8
BLACK
6
CONTINUOUS
10
86.4255
20
-59.0891
11
86.4255
21
-59.0891
0
LINE
8
BLACK
6
CONTINUOUS
10
86.4255
20
-59.0891
11
86.4255
21
-59.0891
0
LINE
8
BLACK
6
CONTINUOUS
10
86.4255
20
-59.0891
11
86.4255
21
-59.0891
0
LINE
8
BLACK
6
CONTINUOUS
10
86.4255
20
-59.0891
11
86.4255
21
-59.0891
0
LINE
8
BLACK
6
CONTINUOUS
10
86.4255
20
-59.0891
11
73.4255
21
-59.0891
0
LINE
8
BLACK
6
CONTINUOUS
10
73.4255
20
-59.0891
11
73.4255
21
-59.0891
0
LINE
8
BLACK
6
CONTINUOUS
10
73.4255
20
-59.0891
11
73.4255
21
-59.0891
0
LINE
8
BLACK
6
CONTINUOUS
10
73.4255
20
-59.0891
11
73.2388
21
-59.0728
0
LINE
8
BLACK
6
CONTINUOUS
10
73.2388
20
-59.0728
11
73.0578
21
-59.0243
0
LINE
8
BLACK
6
CONTINUOUS
10
73.0578
20
-59.0243
11
72.888
21
-58.9451
0
LINE
8
BLACK
6
CONTINUOUS
10
72.888
20
-58.9451
11
72.7345
21
-58.8376
0
LINE
8
BLACK
6
CONTINUOUS
10
72.7345
20
-58.8376
11
72.602
21
-58.7051
0
LINE
8
BLACK
6
CONTINUOUS
10
72.602
20
-58.7051
11
72.4945
21
-58.5516
0
LINE
8
BLACK
6
CONTINUOUS
10
72.4945
20
-58.5516
11
72.4153
21
-58.3818
0
LINE
8
BLACK
6
CONTINUOUS
10
72.4153
20
-58.3818
11
72.3668
21
-58.2008
0
LINE
8
BLACK
6
CONTINUOUS
10
72.3668
20
-58.2008
11
72.3505
21
-58.0141
0
LINE
8
BLACK
6
CONTINUOUS
10
72.3505
20
-58.0141
11
72.3505
21
-58.0141
0
LINE
8
BLACK
6
CONTINUOUS
10
72.3505
20
-58.0141
11
72.3505
21
-58.0141
0
LINE
8
BLACK
6
CONTINUOUS
10
72.3505
20
-58.0141
11
72.3505
21
-45.0141
0
LINE
8
BLACK
6
CONTINUOUS
10
72.3505
20
-45.0141
11
72.3505
21
-45.0141
0
LINE
8
BLACK
6
CONTINUOUS
10
72.3505
20
-45.0141
11
72.3668
21
-44.8274
0
LINE
8
BLACK
6
CONTINUOUS
10
72.3668
20
-44.8274
11
72.4153
21
-44.6464
0
LINE
8
BLACK
6
CONTINUOUS
10
72.4153
20
-44.6464
11
72.4945
21
-44.4766
0
LINE
8
BLACK
6
CONTINUOUS
10
72.4945
20
-44.4766
11
72.602
21
-44.3231
0
LINE
8
BLACK
6
CONTINUOUS
10
72.602
20
-44.3231
11
72.7345
21
-44.1906
0
LINE
8
BLACK
6
CONTINUOUS
10
72.7345
20
-44.1906
11
72.888
21
-44.0831
0
LINE
8
BLACK
6
CONTINUOUS
10
72.888
20
-44.0831
11
73.0578
21
-44.0039
0
LINE
8
BLACK
6
CONTINUOUS
10
73.0578
20
-44.0039
11
73.2388
21
-43.9554
0
LINE
8
BLACK
6
CONTINUOUS
10
73.2388
20
-43.9554
11
73.4255
21
-43.9391
0
LINE
8
BLACK
6
CONTINUOUS
10
73.4255
20
-43.9391
11
73.4255
21
-43.9391
0
LINE
8
BLACK
6
CONTINUOUS
10
73.1852
20
-44.1172
11
73.0331
21
-44.1726
0
LINE
8
BLACK
6
CONTINUOUS
10
73.0331
20
-44.1726
11
72.8929
21
-44.2535
0
LINE
8
BLACK
6
CONTINUOUS
10
72.8929
20
-44.2535
11
72.7689
21
-44.3575
0
LINE
8
BLACK
6
CONTINUOUS
10
72.7689
20
-44.3575
11
72.6649
21
-44.4815
0
LINE
8
BLACK
6
CONTINUOUS
10
72.6649
20
-44.4815
11
72.584
21
-44.6217
0
LINE
8
BLACK
6
CONTINUOUS
10
72.584
20
-44.6217
11
72.5286
21
-44.7738
0
LINE
8
BLACK
6
CONTINUOUS
10
72.5286
20
-44.7738
11
72.5005
21
-44.9332
0
LINE
8
BLACK
6
CONTINUOUS
10
72.5005
20
-44.9332
11
72.5005
21
-45.0141
0
LINE
8
BLACK
6
CONTINUOUS
10
72.5005
20
-45.0141
11
72.5005
21
-45.0141
0
LINE
8
BLACK
6
CONTINUOUS
10
72.5005
20
-45.0141
11
72.5005
21
-58.0141
0
LINE
8
BLACK
6
CONTINUOUS
10
72.5005
20
-58.0141
11
72.5005
21
-58.0143
0
LINE
8
BLACK
6
CONTINUOUS
10
72.5005
20
-58.0143
11
72.5005
21
-58.095
0
LINE
8
BLACK
6
CONTINUOUS
10
72.5005
20
-58.095
11
72.5286
21
-58.2544
0
LINE
8
BLACK
6
CONTINUOUS
10
72.5286
20
-58.2544
11
72.584
21
-58.4065
0
LINE
8
BLACK
6
CONTINUOUS
10
72.584
20
-58.4065
11
72.6649
21
-58.5467
0
LINE
8
BLACK
6
CONTINUOUS
10
72.6649
20
-58.5467
11
72.7689
21
-58.6707
0
LINE
8
BLACK
6
CONTINUOUS
10
72.7689
20
-58.6707
11
72.8929
21
-58.7747
0
LINE
8
BLACK
6
CONTINUOUS
10
72.8929
20
-58.7747
11
73.0331
21
-58.8557
0
LINE
8
BLACK
6
CONTINUOUS
10
73.0331
20
-58.8557
11
73.1852
21
-58.911
0
LINE
8
BLACK
6
CONTINUOUS
10
73.1852
20
-58.911
11
73.3446
21
-58.9391
0
LINE
8
BLACK
6
CONTINUOUS
10
73.3446
20
-58.9391
11
73.4255
21
-58.9391
0
LINE
8
BLACK
6
CONTINUOUS
10
73.4255
20
-58.9391
11
73.4255
21
-58.9391
0
LINE
8
BLACK
6
CONTINUOUS
10
73.4255
20
-58.9391
11
86.4255
21
-58.9391
0
LINE
8
BLACK
6
CONTINUOUS
10
86.4255
20
-58.9391
11
86.4255
21
-58.9391
0
LINE
8
BLACK
6
CONTINUOUS
10
86.4255
20
-58.9391
11
86.5064
21
-58.9391
0
LINE
8
BLACK
6
CONTINUOUS
10
86.5064
20
-58.9391
11
86.6658
21
-58.911
0
LINE
8
BLACK
6
CONTINUOUS
10
86.6658
20
-58.911
11
86.8179
21
-58.8556
0
LINE
8
BLACK
6
CONTINUOUS
10
86.8179
20
-58.8556
11
86.9581
21
-58.7747
0
LINE
8
BLACK
6
CONTINUOUS
10
86.9581
20
-58.7747
11
87.0821
21
-58.6707
0
LINE
8
BLACK
6
CONTINUOUS
10
87.0821
20
-58.6707
11
87.1861
21
-58.5467
0
LINE
8
BLACK
6
CONTINUOUS
10
87.1861
20
-58.5467
11
87.267
21
-58.4065
0
LINE
8
BLACK
6
CONTINUOUS
10
87.267
20
-58.4065
11
87.3224
21
-58.2544
0
LINE
8
BLACK
6
CONTINUOUS
10
87.3224
20
-58.2544
11
87.3505
21
-58.095
0
LINE
8
BLACK
6
CONTINUOUS
10
87.3505
20
-58.095
11
87.3505
21
-58.0141
0
LINE
8
BLACK
6
CONTINUOUS
10
87.3505
20
-58.0141
11
87.3505
21
-45.0141
0
LINE
8
BLACK
6
CONTINUOUS
10
87.3505
20
-45.0141
11
87.3505
21
-45.0141
0
LINE
8
BLACK
6
CONTINUOUS
10
87.3505
20
-45.0141
11
87.3505
21
-45.0141
0
LINE
8
BLACK
6
CONTINUOUS
10
87.3505
20
-45.0141
11
87.3505
21
-44.9332
0
LINE
8
BLACK
6
CONTINUOUS
10
87.3505
20
-44.9332
11
87.3224
21
-44.7738
0
LINE
8
BLACK
6
CONTINUOUS
10
87.3224
20
-44.7738
11
87.267
21
-44.6217
0
LINE
8
BLACK
6
CONTINUOUS
10
87.267
20
-44.6217
11
87.1861
21
-44.4815
0
LINE
8
BLACK
6
CONTINUOUS
10
87.1861
20
-44.4815
11
87.0821
21
-44.3576
0
LINE
8
BLACK
6
CONTINUOUS
10
87.0821
20
-44.3576
11
86.9581
21
-44.2535
0
LINE
8
BLACK
6
CONTINUOUS
10
86.9581
20
-44.2535
11
86.8179
21
-44.1726
0
LINE
8
BLACK
6
CONTINUOUS
10
86.8179
20
-44.1726
11
86.6658
21
-44.1172
0
LINE
8
BLACK
6
CONTINUOUS
10
86.6658
20
-44.1172
11
86.5064
21
-44.0891
0
LINE
8
BLACK
6
CONTINUOUS
10
86.5064
20
-44.0891
11
86.4255
21
-44.0891
0
LINE
8
BLACK
6
CONTINUOUS
10
86.4255
20
-44.0891
11
73.4255
21
-44.0891
0
LINE
8
BLACK
6
CONTINUOUS
10
73.4255
20
-44.0891
11
73.4255
21
-44.0891
0
LINE
8
BLACK
6
CONTINUOUS
10
73.4255
20
-44.0891
11
73.4255
21
-44.0891
0
LINE
8
BLACK
6
CONTINUOUS
10
73.4255
20
-44.0891
11
73.3446
21
-44.0891
0
LINE
8
BLACK
6
CONTINUOUS
10
73.3446
20
-44.0891
11
73.1852
21
-44.1172
0
LINE
8
BLACK
6
CONTINUOUS
10
93.8251
20
-38.0238
11
106.817
21
-38.4775
0
LINE
8
BLACK
6
CONTINUOUS
10
106.817
20
-38.4775
11
106.817
21
-38.4775
0
LINE
8
BLACK
6
CONTINUOUS
10
106.817
20
-38.4775
11
107.003
21
-38.5003
0
LINE
8
BLACK
6
CONTINUOUS
10
107.003
20
-38.5003
11
107.182
21
-38.5551
0
LINE
8
BLACK
6
CONTINUOUS
10
107.182
20
-38.5551
11
107.349
21
-38.6402
0
LINE
8
BLACK
6
CONTINUOUS
10
107.349
20
-38.6402
11
107.499
21
-38.753
0
LINE
8
BLACK
6
CONTINUOUS
10
107.499
20
-38.753
11
107.627
21
-38.89
0
LINE
8
BLACK
6
CONTINUOUS
10
107.627
20
-38.89
11
107.729
21
-39.0472
0
LINE
8
BLACK
6
CONTINUOUS
10
107.729
20
-39.0472
11
107.802
21
-39.2197
0
LINE
8
BLACK
6
CONTINUOUS
10
107.802
20
-39.2197
11
107.844
21
-39.4022
0
LINE
8
BLACK
6
CONTINUOUS
10
107.844
20
-39.4022
11
107.854
21
-39.5894
0
LINE
8
BLACK
6
CONTINUOUS
10
107.854
20
-39.5894
11
107.854
21
-39.5894
0
LINE
8
BLACK
6
CONTINUOUS
10
107.854
20
-39.5894
11
107.854
21
-39.5894
0
LINE
8
BLACK
6
CONTINUOUS
10
107.854
20
-39.5894
11
107.854
21
-39.5894
0
LINE
8
BLACK
6
CONTINUOUS
10
107.854
20
-39.5894
11
107.4
21
-52.5815
0
LINE
8
BLACK
6
CONTINUOUS
10
107.4
20
-52.5815
11
107.4
21
-52.5815
0
LINE
8
BLACK
6
CONTINUOUS
10
107.4
20
-52.5815
11
107.4
21
-52.5815
0
LINE
8
BLACK
6
CONTINUOUS
10
107.4
20
-52.5815
11
107.377
21
-52.7674
0
LINE
8
BLACK
6
CONTINUOUS
10
107.377
20
-52.7674
11
107.323
21
-52.9466
0
LINE
8
BLACK
6
CONTINUOUS
10
107.323
20
-52.9466
11
107.238
21
-53.1136
0
LINE
8
BLACK
6
CONTINUOUS
10
107.238
20
-53.1136
11
107.125
21
-53.2632
0
LINE
8
BLACK
6
CONTINUOUS
10
107.125
20
-53.2632
11
106.988
21
-53.391
0
LINE
8
BLACK
6
CONTINUOUS
10
106.988
20
-53.391
11
106.831
21
-53.4931
0
LINE
8
BLACK
6
CONTINUOUS
10
106.831
20
-53.4931
11
106.658
21
-53.5663
0
LINE
8
BLACK
6
CONTINUOUS
10
106.658
20
-53.5663
11
106.476
21
-53.6084
0
LINE
8
BLACK
6
CONTINUOUS
10
106.476
20
-53.6084
11
106.289
21
-53.6182
0
LINE
8
BLACK
6
CONTINUOUS
10
106.289
20
-53.6182
11
106.288
21
-53.6183
0
LINE
8
BLACK
6
CONTINUOUS
10
106.288
20
-53.6183
11
93.2964
21
-53.1646
0
LINE
8
BLACK
6
CONTINUOUS
10
93.2964
20
-53.1646
11
93.2964
21
-53.1646
0
LINE
8
BLACK
6
CONTINUOUS
10
93.2964
20
-53.1646
11
93.1104
21
-53.1418
0
LINE
8
BLACK
6
CONTINUOUS
10
93.1104
20
-53.1418
11
92.9312
21
-53.087
0
LINE
8
BLACK
6
CONTINUOUS
10
92.9312
20
-53.087
11
92.7642
21
-53.0019
0
LINE
8
BLACK
6
CONTINUOUS
10
92.7642
20
-53.0019
11
92.6146
21
-52.8891
0
LINE
8
BLACK
6
CONTINUOUS
10
92.6146
20
-52.8891
11
92.4868
21
-52.7521
0
LINE
8
BLACK
6
CONTINUOUS
10
92.4868
20
-52.7521
11
92.3847
21
-52.5949
0
LINE
8
BLACK
6
CONTINUOUS
10
92.3847
20
-52.5949
11
92.3115
21
-52.4224
0
LINE
8
BLACK
6
CONTINUOUS
10
92.3115
20
-52.4224
11
92.2693
21
-52.2399
0
LINE
8
BLACK
6
CONTINUOUS
10
92.2693
20
-52.2399
11
92.2595
21
-52.0527
0
LINE
8
BLACK
6
CONTINUOUS
10
92.2595
20
-52.0527
11
92.2596
21
-52.0527
0
LINE
8
BLACK
6
CONTINUOUS
10
92.2596
20
-52.0527
11
92.2596
21
-52.0527
0
LINE
8
BLACK
6
CONTINUOUS
10
92.2596
20
-52.0527
11
92.2596
21
-52.0527
0
LINE
8
BLACK
6
CONTINUOUS
10
92.2596
20
-52.0527
11
92.7133
21
-39.0606
0
LINE
8
BLACK
6
CONTINUOUS
10
92.7133
20
-39.0606
11
92.7133
21
-39.0606
0
LINE
8
BLACK
6
CONTINUOUS
10
92.7133
20
-39.0606
11
92.7133
21
-39.0606
0
LINE
8
BLACK
6
CONTINUOUS
10
92.7133
20
-39.0606
11
92.7361
21
-38.8747
0
LINE
8
BLACK
6
CONTINUOUS
10
92.7361
20
-38.8747
11
92.7909
21
-38.6955
0
LINE
8
BLACK
6
CONTINUOUS
10
92.7909
20
-38.6955
11
92.876
21
-38.5285
0
LINE
8
BLACK
6
CONTINUOUS
10
92.876
20
-38.5285
11
92.9887
21
-38.3789
0
LINE
8
BLACK
6
CONTINUOUS
10
92.9887
20
-38.3789
11
93.1258
21
-38.2511
0
LINE
8
BLACK
6
CONTINUOUS
10
93.1258
20
-38.2511
11
93.2829
21
-38.149
0
LINE
8
BLACK
6
CONTINUOUS
10
93.2829
20
-38.149
11
93.4554
21
-38.0758
0
LINE
8
BLACK
6
CONTINUOUS
10
93.4554
20
-38.0758
11
93.638
21
-38.0337
0
LINE
8
BLACK
6
CONTINUOUS
10
93.638
20
-38.0337
11
93.825
21
-38.0239
0
LINE
8
BLACK
6
CONTINUOUS
10
93.825
20
-38.0239
11
93.8251
21
-38.0238
0
LINE
8
BLACK
6
CONTINUOUS
10
93.8251
20
-38.0238
11
93.8251
21
-38.0238
0
LINE
8
BLACK
6
CONTINUOUS
10
93.5787
20
-38.1935
11
93.4248
21
-38.2435
0
LINE
8
BLACK
6
CONTINUOUS
10
93.4248
20
-38.2435
11
93.2819
21
-38.3195
0
LINE
8
BLACK
6
CONTINUOUS
10
93.2819
20
-38.3195
11
93.1544
21
-38.4191
0
LINE
8
BLACK
6
CONTINUOUS
10
93.1544
20
-38.4191
11
93.0461
21
-38.5394
0
LINE
8
BLACK
6
CONTINUOUS
10
93.0461
20
-38.5394
11
92.9603
21
-38.6766
0
LINE
8
BLACK
6
CONTINUOUS
10
92.9603
20
-38.6766
11
92.8997
21
-38.8267
0
LINE
8
BLACK
6
CONTINUOUS
10
92.8997
20
-38.8267
11
92.866
21
-38.985
0
LINE
8
BLACK
6
CONTINUOUS
10
92.866
20
-38.985
11
92.8632
21
-39.0659
0
LINE
8
BLACK
6
CONTINUOUS
10
92.8632
20
-39.0659
11
92.8632
21
-39.0659
0
LINE
8
BLACK
6
CONTINUOUS
10
92.8632
20
-39.0659
11
92.4095
21
-52.058
0
LINE
8
BLACK
6
CONTINUOUS
10
92.4095
20
-52.058
11
92.4094
21
-52.0583
0
LINE
8
BLACK
6
CONTINUOUS
10
92.4094
20
-52.0583
11
92.4066
21
-52.1388
0
LINE
8
BLACK
6
CONTINUOUS
10
92.4066
20
-52.1388
11
92.4291
21
-52.2991
0
LINE
8
BLACK
6
CONTINUOUS
10
92.4291
20
-52.2991
11
92.4792
21
-52.4531
0
LINE
8
BLACK
6
CONTINUOUS
10
92.4792
20
-52.4531
11
92.5551
21
-52.596
0
LINE
8
BLACK
6
CONTINUOUS
10
92.5551
20
-52.596
11
92.6548
21
-52.7235
0
LINE
8
BLACK
6
CONTINUOUS
10
92.6548
20
-52.7235
11
92.7751
21
-52.8318
0
LINE
8
BLACK
6
CONTINUOUS
10
92.7751
20
-52.8318
11
92.9124
21
-52.9176
0
LINE
8
BLACK
6
CONTINUOUS
10
92.9124
20
-52.9176
11
93.0624
21
-52.9782
0
LINE
8
BLACK
6
CONTINUOUS
10
93.0624
20
-52.9782
11
93.2207
21
-53.0119
0
LINE
8
BLACK
6
CONTINUOUS
10
93.2207
20
-53.0119
11
93.3016
21
-53.0147
0
LINE
8
BLACK
6
CONTINUOUS
10
93.3016
20
-53.0147
11
93.3016
21
-53.0147
0
LINE
8
BLACK
6
CONTINUOUS
10
93.3016
20
-53.0147
11
93.3016
21
-53.0147
0
LINE
8
BLACK
6
CONTINUOUS
10
93.3016
20
-53.0147
11
106.294
21
-53.4684
0
LINE
8
BLACK
6
CONTINUOUS
10
106.294
20
-53.4684
11
106.294
21
-53.4684
0
LINE
8
BLACK
6
CONTINUOUS
10
106.294
20
-53.4684
11
106.294
21
-53.4683
0
LINE
8
BLACK
6
CONTINUOUS
10
106.294
20
-53.4683
11
106.375
21
-53.4712
0
LINE
8
BLACK
6
CONTINUOUS
10
106.375
20
-53.4712
11
106.535
21
-53.4486
0
LINE
8
BLACK
6
CONTINUOUS
10
106.535
20
-53.4486
11
106.689
21
-53.3986
0
LINE
8
BLACK
6
CONTINUOUS
10
106.689
20
-53.3986
11
106.832
21
-53.3226
0
LINE
8
BLACK
6
CONTINUOUS
10
106.832
20
-53.3226
11
106.959
21
-53.223
0
LINE
8
BLACK
6
CONTINUOUS
10
106.959
20
-53.223
11
107.068
21
-53.1027
0
LINE
8
BLACK
6
CONTINUOUS
10
107.068
20
-53.1027
11
107.153
21
-52.9655
0
LINE
8
BLACK
6
CONTINUOUS
10
107.153
20
-52.9655
11
107.214
21
-52.8154
0
LINE
8
BLACK
6
CONTINUOUS
10
107.214
20
-52.8154
11
107.248
21
-52.6571
0
LINE
8
BLACK
6
CONTINUOUS
10
107.248
20
-52.6571
11
107.25
21
-52.5762
0
LINE
8
BLACK
6
CONTINUOUS
10
107.25
20
-52.5762
11
107.25
21
-52.5762
0
LINE
8
BLACK
6
CONTINUOUS
10
107.25
20
-52.5762
11
107.704
21
-39.5841
0
LINE
8
BLACK
6
CONTINUOUS
10
107.704
20
-39.5841
11
107.704
21
-39.5838
0
LINE
8
BLACK
6
CONTINUOUS
10
107.704
20
-39.5838
11
107.707
21
-39.5033
0
LINE
8
BLACK
6
CONTINUOUS
10
107.707
20
-39.5033
11
107.684
21
-39.343
0
LINE
8
BLACK
6
CONTINUOUS
10
107.684
20
-39.343
11
107.634
21
-39.189
0
LINE
8
BLACK
6
CONTINUOUS
10
107.634
20
-39.189
11
107.558
21
-39.0461
0
LINE
8
BLACK
6
CONTINUOUS
10
107.558
20
-39.0461
11
107.459
21
-38.9186
0
LINE
8
BLACK
6
CONTINUOUS
10
107.459
20
-38.9186
11
107.339
21
-38.8103
0
LINE
8
BLACK
6
CONTINUOUS
10
107.339
20
-38.8103
11
107.201
21
-38.7245
0
LINE
8
BLACK
6
CONTINUOUS
10
107.201
20
-38.7245
11
107.051
21
-38.6639
0
LINE
8
BLACK
6
CONTINUOUS
10
107.051
20
-38.6639
11
106.893
21
-38.6302
0
LINE
8
BLACK
6
CONTINUOUS
10
106.893
20
-38.6302
11
106.812
21
-38.6274
0
LINE
8
BLACK
6
CONTINUOUS
10
106.812
20
-38.6274
11
106.812
21
-38.6274
0
LINE
8
BLACK
6
CONTINUOUS
10
106.812
20
-38.6274
11
106.812
21
-38.6274
0
LINE
8
BLACK
6
CONTINUOUS
10
106.812
20
-38.6274
11
106.812
21
-38.6274
0
LINE
8
BLACK
6
CONTINUOUS
10
106.812
20
-38.6274
11
93.8199
21
-38.1737
0
LINE
8
BLACK
6
CONTINUOUS
10
93.8199
20
-38.1737
11
93.8199
21
-38.1737
0
LINE
8
BLACK
6
CONTINUOUS
10
93.8199
20
-38.1737
11
93.8199
21
-38.1737
0
LINE
8
BLACK
6
CONTINUOUS
10
93.8199
20
-38.1737
11
93.8199
21
-38.1738
0
LINE
8
BLACK
6
CONTINUOUS
10
93.8199
20
-38.1738
11
93.739
21
-38.1709
0
LINE
8
BLACK
6
CONTINUOUS
10
93.739
20
-38.1709
11
93.5787
21
-38.1935
0
LINE
8
BLACK
6
CONTINUOUS
10
127.578
20
-31.0075
11
127.578
21
-31.0075
0
LINE
8
BLACK
6
CONTINUOUS
10
127.578
20
-31.0075
11
127.578
21
-31.0075
0
LINE
8
BLACK
6
CONTINUOUS
10
127.578
20
-31.0075
11
127.763
21
-31.0369
0
LINE
8
BLACK
6
CONTINUOUS
10
127.763
20
-31.0369
11
127.94
21
-31.0979
0
LINE
8
BLACK
6
CONTINUOUS
10
127.94
20
-31.0979
11
128.104
21
-31.1887
0
LINE
8
BLACK
6
CONTINUOUS
10
128.104
20
-31.1887
11
128.249
21
-31.3066
0
LINE
8
BLACK
6
CONTINUOUS
10
128.249
20
-31.3066
11
128.372
21
-31.4481
0
LINE
8
BLACK
6
CONTINUOUS
10
128.372
20
-31.4481
11
128.469
21
-31.6087
0
LINE
8
BLACK
6
CONTINUOUS
10
128.469
20
-31.6087
11
128.536
21
-31.7836
0
LINE
8
BLACK
6
CONTINUOUS
10
128.536
20
-31.7836
11
128.572
21
-31.9676
0
LINE
8
BLACK
6
CONTINUOUS
10
128.572
20
-31.9676
11
128.575
21
-32.1547
0
LINE
8
BLACK
6
CONTINUOUS
10
128.575
20
-32.1547
11
128.575
21
-32.1549
0
LINE
8
BLACK
6
CONTINUOUS
10
128.575
20
-32.1549
11
127.668
21
-45.1232
0
LINE
8
BLACK
6
CONTINUOUS
10
127.668
20
-45.1232
11
127.668
21
-45.1232
0
LINE
8
BLACK
6
CONTINUOUS
10
127.668
20
-45.1232
11
127.668
21
-45.1232
0
LINE
8
BLACK
6
CONTINUOUS
10
127.668
20
-45.1232
11
127.668
21
-45.1232
0
LINE
8
BLACK
6
CONTINUOUS
10
127.668
20
-45.1232
11
127.668
21
-45.1232
0
LINE
8
BLACK
6
CONTINUOUS
10
127.668
20
-45.1232
11
127.639
21
-45.3083
0
LINE
8
BLACK
6
CONTINUOUS
10
127.639
20
-45.3083
11
127.578
21
-45.4855
0
LINE
8
BLACK
6
CONTINUOUS
10
127.578
20
-45.4855
11
127.487
21
-45.6494
0
LINE
8
BLACK
6
CONTINUOUS
10
127.487
20
-45.6494
11
127.369
21
-45.795
0
LINE
8
BLACK
6
CONTINUOUS
10
127.369
20
-45.795
11
127.228
21
-45.918
0
LINE
8
BLACK
6
CONTINUOUS
10
127.228
20
-45.918
11
127.067
21
-46.0145
0
LINE
8
BLACK
6
CONTINUOUS
10
127.067
20
-46.0145
11
126.892
21
-46.0816
0
LINE
8
BLACK
6
CONTINUOUS
10
126.892
20
-46.0816
11
126.708
21
-46.1174
0
LINE
8
BLACK
6
CONTINUOUS
10
126.708
20
-46.1174
11
126.521
21
-46.1207
0
LINE
8
BLACK
6
CONTINUOUS
10
126.521
20
-46.1207
11
126.521
21
-46.1206
0
LINE
8
BLACK
6
CONTINUOUS
10
126.521
20
-46.1206
11
113.552
21
-45.2138
0
LINE
8
BLACK
6
CONTINUOUS
10
113.552
20
-45.2138
11
113.552
21
-45.2138
0
LINE
8
BLACK
6
CONTINUOUS
10
113.552
20
-45.2138
11
113.552
21
-45.2138
0
LINE
8
BLACK
6
CONTINUOUS
10
113.552
20
-45.2138
11
113.367
21
-45.1845
0
LINE
8
BLACK
6
CONTINUOUS
10
113.367
20
-45.1845
11
113.19
21
-45.1235
0
LINE
8
BLACK
6
CONTINUOUS
10
113.19
20
-45.1235
11
113.026
21
-45.0326
0
LINE
8
BLACK
6
CONTINUOUS
10
113.026
20
-45.0326
11
112.881
21
-44.9147
0
LINE
8
BLACK
6
CONTINUOUS
10
112.881
20
-44.9147
11
112.758
21
-44.7733
0
LINE
8
BLACK
6
CONTINUOUS
10
112.758
20
-44.7733
11
112.661
21
-44.6127
0
LINE
8
BLACK
6
CONTINUOUS
10
112.661
20
-44.6127
11
112.594
21
-44.4377
0
LINE
8
BLACK
6
CONTINUOUS
10
112.594
20
-44.4377
11
112.558
21
-44.2538
0
LINE
8
BLACK
6
CONTINUOUS
10
112.558
20
-44.2538
11
112.555
21
-44.0665
0
LINE
8
BLACK
6
CONTINUOUS
10
112.555
20
-44.0665
11
112.555
21
-44.0664
0
LINE
8
BLACK
6
CONTINUOUS
10
112.555
20
-44.0664
11
112.555
21
-44.0664
0
LINE
8
BLACK
6
CONTINUOUS
10
112.555
20
-44.0664
11
112.555
21
-44.0664
0
LINE
8
BLACK
6
CONTINUOUS
10
112.555
20
-44.0664
11
113.462
21
-31.0981
0
LINE
8
BLACK
6
CONTINUOUS
10
113.462
20
-31.0981
11
113.462
21
-31.0981
0
LINE
8
BLACK
6
CONTINUOUS
10
113.462
20
-31.0981
11
113.491
21
-30.913
0
LINE
8
BLACK
6
CONTINUOUS
10
113.491
20
-30.913
11
113.552
21
-30.7358
0
LINE
8
BLACK
6
CONTINUOUS
10
113.552
20
-30.7358
11
113.643
21
-30.572
0
LINE
8
BLACK
6
CONTINUOUS
10
113.643
20
-30.572
11
113.761
21
-30.4263
0
LINE
8
BLACK
6
CONTINUOUS
10
113.761
20
-30.4263
11
113.902
21
-30.3034
0
LINE
8
BLACK
6
CONTINUOUS
10
113.902
20
-30.3034
11
114.063
21
-30.2069
0
LINE
8
BLACK
6
CONTINUOUS
10
114.063
20
-30.2069
11
114.238
21
-30.1397
0
LINE
8
BLACK
6
CONTINUOUS
10
114.238
20
-30.1397
11
114.422
21
-30.104
0
LINE
8
BLACK
6
CONTINUOUS
10
114.422
20
-30.104
11
114.609
21
-30.1007
0
LINE
8
BLACK
6
CONTINUOUS
10
114.609
20
-30.1007
11
114.609
21
-30.1007
0
LINE
8
BLACK
6
CONTINUOUS
10
114.609
20
-30.1007
11
114.609
21
-30.1007
0
LINE
8
BLACK
6
CONTINUOUS
10
114.609
20
-30.1007
11
127.578
21
-31.0075
0
LINE
8
BLACK
6
CONTINUOUS
10
114.357
20
-30.2616
11
114.201
21
-30.3062
0
LINE
8
BLACK
6
CONTINUOUS
10
114.201
20
-30.3062
11
114.056
21
-30.3772
0
LINE
8
BLACK
6
CONTINUOUS
10
114.056
20
-30.3772
11
113.925
21
-30.4723
0
LINE
8
BLACK
6
CONTINUOUS
10
113.925
20
-30.4723
11
113.813
21
-30.5887
0
LINE
8
BLACK
6
CONTINUOUS
10
113.813
20
-30.5887
11
113.722
21
-30.7229
0
LINE
8
BLACK
6
CONTINUOUS
10
113.722
20
-30.7229
11
113.656
21
-30.8708
0
LINE
8
BLACK
6
CONTINUOUS
10
113.656
20
-30.8708
11
113.617
21
-31.0278
0
LINE
8
BLACK
6
CONTINUOUS
10
113.617
20
-31.0278
11
113.611
21
-31.1086
0
LINE
8
BLACK
6
CONTINUOUS
10
113.611
20
-31.1086
11
113.611
21
-31.1086
0
LINE
8
BLACK
6
CONTINUOUS
10
113.611
20
-31.1086
11
112.705
21
-44.0769
0
LINE
8
BLACK
6
CONTINUOUS
10
112.705
20
-44.0769
11
112.705
21
-44.0769
0
LINE
8
BLACK
6
CONTINUOUS
10
112.705
20
-44.0769
11
112.699
21
-44.1576
0
LINE
8
BLACK
6
CONTINUOUS
10
112.699
20
-44.1576
11
112.716
21
-44.3186
0
LINE
8
BLACK
6
CONTINUOUS
10
112.716
20
-44.3186
11
112.761
21
-44.4742
0
LINE
8
BLACK
6
CONTINUOUS
10
112.761
20
-44.4742
11
112.831
21
-44.6196
0
LINE
8
BLACK
6
CONTINUOUS
10
112.831
20
-44.6196
11
112.927
21
-44.7506
0
LINE
8
BLACK
6
CONTINUOUS
10
112.927
20
-44.7506
11
113.043
21
-44.863
0
LINE
8
BLACK
6
CONTINUOUS
10
113.043
20
-44.863
11
113.177
21
-44.9535
0
LINE
8
BLACK
6
CONTINUOUS
10
113.177
20
-44.9535
11
113.325
21
-45.0194
0
LINE
8
BLACK
6
CONTINUOUS
10
113.325
20
-45.0194
11
113.482
21
-45.0585
0
LINE
8
BLACK
6
CONTINUOUS
10
113.482
20
-45.0585
11
113.563
21
-45.0642
0
LINE
8
BLACK
6
CONTINUOUS
10
113.563
20
-45.0642
11
113.563
21
-45.0642
0
LINE
8
BLACK
6
CONTINUOUS
10
113.563
20
-45.0642
11
126.531
21
-45.971
0
LINE
8
BLACK
6
CONTINUOUS
10
126.531
20
-45.971
11
126.531
21
-45.9711
0
LINE
8
BLACK
6
CONTINUOUS
10
126.531
20
-45.9711
11
126.612
21
-45.9767
0
LINE
8
BLACK
6
CONTINUOUS
10
126.612
20
-45.9767
11
126.773
21
-45.9598
0
LINE
8
BLACK
6
CONTINUOUS
10
126.773
20
-45.9598
11
126.928
21
-45.9151
0
LINE
8
BLACK
6
CONTINUOUS
10
126.928
20
-45.9151
11
127.074
21
-45.8442
0
LINE
8
BLACK
6
CONTINUOUS
10
127.074
20
-45.8442
11
127.205
21
-45.7491
0
LINE
8
BLACK
6
CONTINUOUS
10
127.205
20
-45.7491
11
127.317
21
-45.6326
0
LINE
8
BLACK
6
CONTINUOUS
10
127.317
20
-45.6326
11
127.408
21
-45.4984
0
LINE
8
BLACK
6
CONTINUOUS
10
127.408
20
-45.4984
11
127.474
21
-45.3506
0
LINE
8
BLACK
6
CONTINUOUS
10
127.474
20
-45.3506
11
127.513
21
-45.1935
0
LINE
8
BLACK
6
CONTINUOUS
10
127.513
20
-45.1935
11
127.518
21
-45.1128
0
LINE
8
BLACK
6
CONTINUOUS
10
127.518
20
-45.1128
11
127.518
21
-45.1128
0
LINE
8
BLACK
6
CONTINUOUS
10
127.518
20
-45.1128
11
128.425
21
-32.1444
0
LINE
8
BLACK
6
CONTINUOUS
10
128.425
20
-32.1444
11
128.425
21
-32.1444
0
LINE
8
BLACK
6
CONTINUOUS
10
128.425
20
-32.1444
11
128.425
21
-32.1444
0
LINE
8
BLACK
6
CONTINUOUS
10
128.425
20
-32.1444
11
128.431
21
-32.0637
0
LINE
8
BLACK
6
CONTINUOUS
10
128.431
20
-32.0637
11
128.414
21
-31.9027
0
LINE
8
BLACK
6
CONTINUOUS
10
128.414
20
-31.9027
11
128.369
21
-31.7472
0
LINE
8
BLACK
6
CONTINUOUS
10
128.369
20
-31.7472
11
128.298
21
-31.6017
0
LINE
8
BLACK
6
CONTINUOUS
10
128.298
20
-31.6017
11
128.203
21
-31.4708
0
LINE
8
BLACK
6
CONTINUOUS
10
128.203
20
-31.4708
11
128.087
21
-31.3583
0
LINE
8
BLACK
6
CONTINUOUS
10
128.087
20
-31.3583
11
127.953
21
-31.2678
0
LINE
8
BLACK
6
CONTINUOUS
10
127.953
20
-31.2678
11
127.805
21
-31.202
0
LINE
8
BLACK
6
CONTINUOUS
10
127.805
20
-31.202
11
127.648
21
-31.1628
0
LINE
8
BLACK
6
CONTINUOUS
10
127.648
20
-31.1628
11
127.567
21
-31.1572
0
LINE
8
BLACK
6
CONTINUOUS
10
127.567
20
-31.1572
11
127.567
21
-31.1572
0
LINE
8
BLACK
6
CONTINUOUS
10
127.567
20
-31.1572
11
114.599
21
-30.2503
0
LINE
8
BLACK
6
CONTINUOUS
10
114.599
20
-30.2503
11
114.599
21
-30.2504
0
LINE
8
BLACK
6
CONTINUOUS
10
114.599
20
-30.2504
11
114.518
21
-30.2447
0
LINE
8
BLACK
6
CONTINUOUS
10
114.518
20
-30.2447
11
114.357
21
-30.2616
  0
ENDSEC
  0
EOF
