  0
SECTION
  2
HEADER
  9
$ANGBASE
  50
0.0
  9
$ANGDIR
  70
1
  9
$MEASUREMENT
  70
1
  0
ENDSEC
  0
SECTION
  2
TABLES
  0
TABLE
  2
LTYPE
  70
4
  0
LTYPE
  5
40F
  2
CONTINUOUS
  70
0
  3
Solid line
  72
65
  73
0
  40
0.0
  0
LTYPE
  5
410
  2
DASHDOT
 70
0
  3
Dash Dot ____ _ ____ _
 72
65
 73
4
 40
2.0
 49
1.25
 49
-0.25
 49
0.25
 49
-0.25
  0
LTYPE
  5
411
  2
DASHED
 70
0
  3
Dashed __ __ __ __ __
 72
65
 73
2
 40
0.75
 49
0.5
 49
-0.25
  0
LTYPE
  5
43B
  2
DOTTED
 70
0
  3
Dotted .  .  .  .
 72
65
 73
2
 40
0.2
 49
0.0
 49
-0.2
  0
ENDTAB
  0
TABLE
  2
STYLE
  70
4
  0
STYLE
  2
KICAD
  70
0
  40
0
  41
1
  42
1
  50
0
  71
0
  3
isocp.shx
  0
STYLE
  2
KICADB
  70
0
  40
0
  41
1
  42
1
  50
0
  71
0
  3
isocp.shx
  0
STYLE
  2
KICADI
  70
0
  40
0
  41
1
  42
1
  50
15
  71
0
  3
isocp.shx
  0
STYLE
  2
KICADBI
  70
0
  40
0
  41
1
  42
1
  50
15
  71
0
  3
isocp.shx
  0
ENDTAB
  0
TABLE
  2
LAYER
  70
1
  0
LAYER
  2
BLACK
  70
0
  62
7
  6
CONTINUOUS
  0
ENDTAB
  0
ENDSEC
  0
SECTION
  2
ENTITIES
0
LINE
8
BLACK
6
CONTINUOUS
10
109.75
20
-23.7099
11
133.691
21
-25.384
0
LINE
8
BLACK
6
CONTINUOUS
10
133.691
20
-25.384
11
133.691
21
-25.384
0
LINE
8
BLACK
6
CONTINUOUS
10
133.691
20
-25.384
11
133.88
21
-25.414
0
LINE
8
BLACK
6
CONTINUOUS
10
133.88
20
-25.414
11
134.062
21
-25.4764
0
LINE
8
BLACK
6
CONTINUOUS
10
134.062
20
-25.4764
11
134.229
21
-25.5694
0
LINE
8
BLACK
6
CONTINUOUS
10
134.229
20
-25.5694
11
134.378
21
-25.6901
0
LINE
8
BLACK
6
CONTINUOUS
10
134.378
20
-25.6901
11
134.504
21
-25.8348
0
LINE
8
BLACK
6
CONTINUOUS
10
134.504
20
-25.8348
11
134.603
21
-25.9991
0
LINE
8
BLACK
6
CONTINUOUS
10
134.603
20
-25.9991
11
134.672
21
-26.1781
0
LINE
8
BLACK
6
CONTINUOUS
10
134.672
20
-26.1781
11
134.708
21
-26.3664
0
LINE
8
BLACK
6
CONTINUOUS
10
134.708
20
-26.3664
11
134.712
21
-26.5581
0
LINE
8
BLACK
6
CONTINUOUS
10
134.712
20
-26.5581
11
134.712
21
-26.5581
0
LINE
8
BLACK
6
CONTINUOUS
10
134.712
20
-26.5581
11
134.712
21
-26.5581
0
LINE
8
BLACK
6
CONTINUOUS
10
134.712
20
-26.5581
11
134.712
21
-26.5581
0
LINE
8
BLACK
6
CONTINUOUS
10
134.712
20
-26.5581
11
134.057
21
-35.92
0
LINE
8
BLACK
6
CONTINUOUS
10
134.057
20
-35.92
11
134.057
21
-35.92
0
LINE
8
BLACK
6
CONTINUOUS
10
134.057
20
-35.92
11
134.057
21
-35.92
0
LINE
8
BLACK
6
CONTINUOUS
10
134.057
20
-35.92
11
134.051
21
-36.0064
0
LINE
8
BLACK
6
CONTINUOUS
10
134.051
20
-36.0064
11
134.072
21
-36.1784
0
LINE
8
BLACK
6
CONTINUOUS
10
134.072
20
-36.1784
11
134.126
21
-36.3432
0
LINE
8
BLACK
6
CONTINUOUS
10
134.126
20
-36.3432
11
134.21
21
-36.4948
0
LINE
8
BLACK
6
CONTINUOUS
10
134.21
20
-36.4948
11
134.321
21
-36.6276
0
LINE
8
BLACK
6
CONTINUOUS
10
134.321
20
-36.6276
11
134.456
21
-36.7366
0
LINE
8
BLACK
6
CONTINUOUS
10
134.456
20
-36.7366
11
134.609
21
-36.818
0
LINE
8
BLACK
6
CONTINUOUS
10
134.609
20
-36.818
11
134.775
21
-36.8687
0
LINE
8
BLACK
6
CONTINUOUS
10
134.775
20
-36.8687
11
134.861
21
-36.8778
0
LINE
8
BLACK
6
CONTINUOUS
10
134.861
20
-36.8778
11
152.985
21
-38.7827
0
LINE
8
BLACK
6
CONTINUOUS
10
152.985
20
-38.7827
11
152.985
21
-38.7827
0
LINE
8
BLACK
6
CONTINUOUS
10
152.985
20
-38.7827
11
152.985
21
-38.7827
0
LINE
8
BLACK
6
CONTINUOUS
10
152.985
20
-38.7827
11
153.173
21
-38.8193
0
LINE
8
BLACK
6
CONTINUOUS
10
153.173
20
-38.8193
11
153.352
21
-38.888
0
LINE
8
BLACK
6
CONTINUOUS
10
153.352
20
-38.888
11
153.516
21
-38.9868
0
LINE
8
BLACK
6
CONTINUOUS
10
153.516
20
-38.9868
11
153.661
21
-39.1126
0
LINE
8
BLACK
6
CONTINUOUS
10
153.661
20
-39.1126
11
153.782
21
-39.2616
0
LINE
8
BLACK
6
CONTINUOUS
10
153.782
20
-39.2616
11
153.874
21
-39.4293
0
LINE
8
BLACK
6
CONTINUOUS
10
153.874
20
-39.4293
11
153.937
21
-39.6106
0
LINE
8
BLACK
6
CONTINUOUS
10
153.937
20
-39.6106
11
153.967
21
-39.8
0
LINE
8
BLACK
6
CONTINUOUS
10
153.967
20
-39.8
11
153.964
21
-39.9917
0
LINE
8
BLACK
6
CONTINUOUS
10
153.964
20
-39.9917
11
153.964
21
-39.9917
0
LINE
8
BLACK
6
CONTINUOUS
10
153.964
20
-39.9917
11
153.964
21
-39.9917
0
LINE
8
BLACK
6
CONTINUOUS
10
153.964
20
-39.9917
11
153.964
21
-39.9917
0
LINE
8
BLACK
6
CONTINUOUS
10
153.964
20
-39.9917
11
152.507
21
-53.8529
0
LINE
8
BLACK
6
CONTINUOUS
10
152.507
20
-53.8529
11
152.507
21
-53.8529
0
LINE
8
BLACK
6
CONTINUOUS
10
152.507
20
-53.8529
11
152.507
21
-53.8529
0
LINE
8
BLACK
6
CONTINUOUS
10
152.507
20
-53.8529
11
152.507
21
-53.8529
0
LINE
8
BLACK
6
CONTINUOUS
10
152.507
20
-53.8529
11
152.507
21
-53.8529
0
LINE
8
BLACK
6
CONTINUOUS
10
152.507
20
-53.8529
11
152.498
21
-53.9391
0
LINE
8
BLACK
6
CONTINUOUS
10
152.498
20
-53.9391
11
152.513
21
-54.1117
0
LINE
8
BLACK
6
CONTINUOUS
10
152.513
20
-54.1117
11
152.56
21
-54.2783
0
LINE
8
BLACK
6
CONTINUOUS
10
152.56
20
-54.2783
11
152.639
21
-54.4327
0
LINE
8
BLACK
6
CONTINUOUS
10
152.639
20
-54.4327
11
152.746
21
-54.5693
0
LINE
8
BLACK
6
CONTINUOUS
10
152.746
20
-54.5693
11
152.877
21
-54.683
0
LINE
8
BLACK
6
CONTINUOUS
10
152.877
20
-54.683
11
153.027
21
-54.7696
0
LINE
8
BLACK
6
CONTINUOUS
10
153.027
20
-54.7696
11
153.191
21
-54.8261
0
LINE
8
BLACK
6
CONTINUOUS
10
153.191
20
-54.8261
11
153.276
21
-54.8382
0
LINE
8
BLACK
6
CONTINUOUS
10
153.276
20
-54.8382
11
153.276
21
-54.8382
0
LINE
8
BLACK
6
CONTINUOUS
10
153.276
20
-54.8382
11
153.276
21
-54.8382
0
LINE
8
BLACK
6
CONTINUOUS
10
153.276
20
-54.8382
11
153.276
21
-54.8382
0
LINE
8
BLACK
6
CONTINUOUS
10
153.276
20
-54.8382
11
171.165
21
-57.3523
0
LINE
8
BLACK
6
CONTINUOUS
10
171.165
20
-57.3523
11
171.165
21
-57.3523
0
LINE
8
BLACK
6
CONTINUOUS
10
171.165
20
-57.3523
11
171.165
21
-57.3523
0
LINE
8
BLACK
6
CONTINUOUS
10
171.165
20
-57.3523
11
171.165
21
-57.3523
0
LINE
8
BLACK
6
CONTINUOUS
10
171.165
20
-57.3523
11
171.352
21
-57.3955
0
LINE
8
BLACK
6
CONTINUOUS
10
171.352
20
-57.3955
11
171.529
21
-57.4704
0
LINE
8
BLACK
6
CONTINUOUS
10
171.529
20
-57.4704
11
171.69
21
-57.5748
0
LINE
8
BLACK
6
CONTINUOUS
10
171.69
20
-57.5748
11
171.83
21
-57.7056
0
LINE
8
BLACK
6
CONTINUOUS
10
171.83
20
-57.7056
11
171.945
21
-57.8587
0
LINE
8
BLACK
6
CONTINUOUS
10
171.945
20
-57.8587
11
172.032
21
-58.0295
0
LINE
8
BLACK
6
CONTINUOUS
10
172.032
20
-58.0295
11
172.088
21
-58.2129
0
LINE
8
BLACK
6
CONTINUOUS
10
172.088
20
-58.2129
11
172.112
21
-58.4032
0
LINE
8
BLACK
6
CONTINUOUS
10
172.112
20
-58.4032
11
172.102
21
-58.5947
0
LINE
8
BLACK
6
CONTINUOUS
10
172.102
20
-58.5947
11
172.102
21
-58.5947
0
LINE
8
BLACK
6
CONTINUOUS
10
172.102
20
-58.5947
11
172.102
21
-58.5947
0
LINE
8
BLACK
6
CONTINUOUS
10
172.102
20
-58.5947
11
172.102
21
-58.5947
0
LINE
8
BLACK
6
CONTINUOUS
10
172.102
20
-58.5947
11
171.049
21
-66.0847
0
LINE
8
BLACK
6
CONTINUOUS
10
171.049
20
-66.0847
11
171.049
21
-66.0847
0
LINE
8
BLACK
6
CONTINUOUS
10
171.049
20
-66.0847
11
171.049
21
-66.0847
0
LINE
8
BLACK
6
CONTINUOUS
10
171.049
20
-66.0847
11
171.037
21
-66.1706
0
LINE
8
BLACK
6
CONTINUOUS
10
171.037
20
-66.1706
11
171.046
21
-66.3436
0
LINE
8
BLACK
6
CONTINUOUS
10
171.046
20
-66.3436
11
171.088
21
-66.5118
0
LINE
8
BLACK
6
CONTINUOUS
10
171.088
20
-66.5118
11
171.161
21
-66.6688
0
LINE
8
BLACK
6
CONTINUOUS
10
171.161
20
-66.6688
11
171.263
21
-66.8091
0
LINE
8
BLACK
6
CONTINUOUS
10
171.263
20
-66.8091
11
171.39
21
-66.9273
0
LINE
8
BLACK
6
CONTINUOUS
10
171.39
20
-66.9273
11
171.537
21
-67.0191
0
LINE
8
BLACK
6
CONTINUOUS
10
171.537
20
-67.0191
11
171.699
21
-67.0812
0
LINE
8
BLACK
6
CONTINUOUS
10
171.699
20
-67.0812
11
171.784
21
-67.0963
0
LINE
8
BLACK
6
CONTINUOUS
10
171.784
20
-67.0963
11
189.596
21
-70.2371
0
LINE
8
BLACK
6
CONTINUOUS
10
189.596
20
-70.2371
11
189.596
21
-70.2371
0
LINE
8
BLACK
6
CONTINUOUS
10
189.596
20
-70.2371
11
189.782
21
-70.2867
0
LINE
8
BLACK
6
CONTINUOUS
10
189.782
20
-70.2867
11
189.955
21
-70.3678
0
LINE
8
BLACK
6
CONTINUOUS
10
189.955
20
-70.3678
11
190.112
21
-70.4778
0
LINE
8
BLACK
6
CONTINUOUS
10
190.112
20
-70.4778
11
190.248
21
-70.6133
0
LINE
8
BLACK
6
CONTINUOUS
10
190.248
20
-70.6133
11
190.358
21
-70.7704
0
LINE
8
BLACK
6
CONTINUOUS
10
190.358
20
-70.7704
11
190.439
21
-70.9442
0
LINE
8
BLACK
6
CONTINUOUS
10
190.439
20
-70.9442
11
190.489
21
-71.1294
0
LINE
8
BLACK
6
CONTINUOUS
10
190.489
20
-71.1294
11
190.505
21
-71.3204
0
LINE
8
BLACK
6
CONTINUOUS
10
190.505
20
-71.3204
11
190.489
21
-71.5114
0
LINE
8
BLACK
6
CONTINUOUS
10
190.489
20
-71.5114
11
190.489
21
-71.5114
0
LINE
8
BLACK
6
CONTINUOUS
10
190.489
20
-71.5114
11
190.489
21
-71.5116
0
LINE
8
BLACK
6
CONTINUOUS
10
190.489
20
-71.5116
11
190.489
21
-71.5117
0
LINE
8
BLACK
6
CONTINUOUS
10
190.489
20
-71.5117
11
182.96
21
-113.494
0
LINE
8
BLACK
6
CONTINUOUS
10
182.96
20
-113.494
11
182.96
21
-113.494
0
LINE
8
BLACK
6
CONTINUOUS
10
182.96
20
-113.494
11
182.917
21
-113.66
0
LINE
8
BLACK
6
CONTINUOUS
10
182.917
20
-113.66
11
182.85
21
-113.817
0
LINE
8
BLACK
6
CONTINUOUS
10
182.85
20
-113.817
11
182.758
21
-113.963
0
LINE
8
BLACK
6
CONTINUOUS
10
182.758
20
-113.963
11
182.646
21
-114.093
0
LINE
8
BLACK
6
CONTINUOUS
10
182.646
20
-114.093
11
182.514
21
-114.203
0
LINE
8
BLACK
6
CONTINUOUS
10
182.514
20
-114.203
11
182.368
21
-114.293
0
LINE
8
BLACK
6
CONTINUOUS
10
182.368
20
-114.293
11
182.209
21
-114.358
0
LINE
8
BLACK
6
CONTINUOUS
10
182.209
20
-114.358
11
182.042
21
-114.399
0
LINE
8
BLACK
6
CONTINUOUS
10
182.042
20
-114.399
11
182.042
21
-114.399
0
LINE
8
BLACK
6
CONTINUOUS
10
182.042
20
-114.399
11
111.776
21
-125.829
0
LINE
8
BLACK
6
CONTINUOUS
10
111.776
20
-125.829
11
111.776
21
-125.829
0
LINE
8
BLACK
6
CONTINUOUS
10
111.776
20
-125.829
11
111.11
21
-125.931
0
LINE
8
BLACK
6
CONTINUOUS
10
111.11
20
-125.931
11
110.44
21
-126.006
0
LINE
8
BLACK
6
CONTINUOUS
10
110.44
20
-126.006
11
109.767
21
-126.053
0
LINE
8
BLACK
6
CONTINUOUS
10
109.767
20
-126.053
11
109.092
21
-126.072
0
LINE
8
BLACK
6
CONTINUOUS
10
109.092
20
-126.072
11
108.418
21
-126.063
0
LINE
8
BLACK
6
CONTINUOUS
10
108.418
20
-126.063
11
107.744
21
-126.026
0
LINE
8
BLACK
6
CONTINUOUS
10
107.744
20
-126.026
11
107.072
21
-125.962
0
LINE
8
BLACK
6
CONTINUOUS
10
107.072
20
-125.962
11
106.404
21
-125.87
0
LINE
8
BLACK
6
CONTINUOUS
10
106.404
20
-125.87
11
106.404
21
-125.87
0
LINE
8
BLACK
6
CONTINUOUS
10
106.404
20
-125.87
11
106.403
21
-125.87
0
LINE
8
BLACK
6
CONTINUOUS
10
106.403
20
-125.87
11
106.402
21
-125.87
0
LINE
8
BLACK
6
CONTINUOUS
10
106.402
20
-125.87
11
94.831
21
-123.809
0
LINE
8
BLACK
6
CONTINUOUS
10
94.831
20
-123.809
11
94.216
21
-123.71
0
LINE
8
BLACK
6
CONTINUOUS
10
94.216
20
-123.71
11
92.9787
21
-123.548
0
LINE
8
BLACK
6
CONTINUOUS
10
92.9787
20
-123.548
11
91.7372
21
-123.423
0
LINE
8
BLACK
6
CONTINUOUS
10
91.7372
20
-123.423
11
90.4925
21
-123.335
0
LINE
8
BLACK
6
CONTINUOUS
10
90.4925
20
-123.335
11
89.2457
21
-123.283
0
LINE
8
BLACK
6
CONTINUOUS
10
89.2457
20
-123.283
11
87.9979
21
-123.269
0
LINE
8
BLACK
6
CONTINUOUS
10
87.9979
20
-123.269
11
86.7503
21
-123.291
0
LINE
8
BLACK
6
CONTINUOUS
10
86.7503
20
-123.291
11
85.5039
21
-123.351
0
LINE
8
BLACK
6
CONTINUOUS
10
85.5039
20
-123.351
11
84.2598
21
-123.448
0
LINE
8
BLACK
6
CONTINUOUS
10
84.2598
20
-123.448
11
83.0191
21
-123.581
0
LINE
8
BLACK
6
CONTINUOUS
10
83.0191
20
-123.581
11
81.7829
21
-123.751
0
LINE
8
BLACK
6
CONTINUOUS
10
81.7829
20
-123.751
11
80.5523
21
-123.958
0
LINE
8
BLACK
6
CONTINUOUS
10
80.5523
20
-123.958
11
79.3283
21
-124.201
0
LINE
8
BLACK
6
CONTINUOUS
10
79.3283
20
-124.201
11
78.1122
21
-124.48
0
LINE
8
BLACK
6
CONTINUOUS
10
78.1122
20
-124.48
11
76.9048
21
-124.795
0
LINE
8
BLACK
6
CONTINUOUS
10
76.9048
20
-124.795
11
75.7073
21
-125.146
0
LINE
8
BLACK
6
CONTINUOUS
10
75.7073
20
-125.146
11
74.5207
21
-125.533
0
LINE
8
BLACK
6
CONTINUOUS
10
74.5207
20
-125.533
11
73.3461
21
-125.954
0
LINE
8
BLACK
6
CONTINUOUS
10
73.3461
20
-125.954
11
72.1845
21
-126.41
0
LINE
8
BLACK
6
CONTINUOUS
10
72.1845
20
-126.41
11
71.0369
21
-126.9
0
LINE
8
BLACK
6
CONTINUOUS
10
71.0369
20
-126.9
11
69.9044
21
-127.424
0
LINE
8
BLACK
6
CONTINUOUS
10
69.9044
20
-127.424
11
68.7879
21
-127.981
0
LINE
8
BLACK
6
CONTINUOUS
10
68.7879
20
-127.981
11
67.6884
21
-128.571
0
LINE
8
BLACK
6
CONTINUOUS
10
67.6884
20
-128.571
11
66.6069
21
-129.193
0
LINE
8
BLACK
6
CONTINUOUS
10
66.6069
20
-129.193
11
65.5443
21
-129.848
0
LINE
8
BLACK
6
CONTINUOUS
10
65.5443
20
-129.848
11
64.5016
21
-130.533
0
LINE
8
BLACK
6
CONTINUOUS
10
64.5016
20
-130.533
11
63.4796
21
-131.249
0
LINE
8
BLACK
6
CONTINUOUS
10
63.4796
20
-131.249
11
62.4793
21
-131.995
0
LINE
8
BLACK
6
CONTINUOUS
10
62.4793
20
-131.995
11
61.5016
21
-132.771
0
LINE
8
BLACK
6
CONTINUOUS
10
61.5016
20
-132.771
11
61.0245
21
-133.173
0
LINE
8
BLACK
6
CONTINUOUS
10
61.0245
20
-133.173
11
61.0245
21
-133.173
0
LINE
8
BLACK
6
CONTINUOUS
10
61.0245
20
-133.173
11
61.0245
21
-133.173
0
LINE
8
BLACK
6
CONTINUOUS
10
61.0245
20
-133.173
11
53.2119
21
-139.755
0
LINE
8
BLACK
6
CONTINUOUS
10
53.2119
20
-139.755
11
53.2118
21
-139.755
0
LINE
8
BLACK
6
CONTINUOUS
10
53.2118
20
-139.755
11
53.2118
21
-139.756
0
LINE
8
BLACK
6
CONTINUOUS
10
53.2118
20
-139.756
11
53.2118
21
-139.756
0
LINE
8
BLACK
6
CONTINUOUS
10
53.2118
20
-139.756
11
53.0547
21
-139.866
0
LINE
8
BLACK
6
CONTINUOUS
10
53.0547
20
-139.866
11
52.8809
21
-139.947
0
LINE
8
BLACK
6
CONTINUOUS
10
52.8809
20
-139.947
11
52.6957
21
-139.996
0
LINE
8
BLACK
6
CONTINUOUS
10
52.6957
20
-139.996
11
52.5047
21
-140.013
0
LINE
8
BLACK
6
CONTINUOUS
10
52.5047
20
-140.013
11
52.3137
21
-139.996
0
LINE
8
BLACK
6
CONTINUOUS
10
52.3137
20
-139.996
11
52.1285
21
-139.947
0
LINE
8
BLACK
6
CONTINUOUS
10
52.1285
20
-139.947
11
51.9547
21
-139.866
0
LINE
8
BLACK
6
CONTINUOUS
10
51.9547
20
-139.866
11
51.7976
21
-139.756
0
LINE
8
BLACK
6
CONTINUOUS
10
51.7976
20
-139.756
11
51.6622
21
-139.62
0
LINE
8
BLACK
6
CONTINUOUS
10
51.6622
20
-139.62
11
51.6622
21
-139.62
0
LINE
8
BLACK
6
CONTINUOUS
10
51.6622
20
-139.62
11
35.7376
21
-120.714
0
LINE
8
BLACK
6
CONTINUOUS
10
35.7376
20
-120.714
11
35.7366
21
-120.712
0
LINE
8
BLACK
6
CONTINUOUS
10
35.7366
20
-120.712
11
35.734
21
-120.71
0
LINE
8
BLACK
6
CONTINUOUS
10
35.734
20
-120.71
11
35.6376
21
-120.563
0
LINE
8
BLACK
6
CONTINUOUS
10
35.6376
20
-120.563
11
35.5609
21
-120.404
0
LINE
8
BLACK
6
CONTINUOUS
10
35.5609
20
-120.404
11
35.5052
21
-120.237
0
LINE
8
BLACK
6
CONTINUOUS
10
35.5052
20
-120.237
11
35.4714
21
-120.064
0
LINE
8
BLACK
6
CONTINUOUS
10
35.4714
20
-120.064
11
35.46
21
-119.888
0
LINE
8
BLACK
6
CONTINUOUS
10
35.46
20
-119.888
11
35.46
21
-119.888
0
LINE
8
BLACK
6
CONTINUOUS
10
35.46
20
-119.888
11
35.46
21
-119.888
0
LINE
8
BLACK
6
CONTINUOUS
10
35.46
20
-119.888
11
35.46
21
-119.888
0
LINE
8
BLACK
6
CONTINUOUS
10
35.46
20
-119.888
11
35.46
21
-110.49
0
LINE
8
BLACK
6
CONTINUOUS
10
35.46
20
-110.49
11
35.46
21
-110.49
0
LINE
8
BLACK
6
CONTINUOUS
10
35.46
20
-110.49
11
35.46
21
-110.49
0
LINE
8
BLACK
6
CONTINUOUS
10
35.46
20
-110.49
11
35.477
21
-110.296
0
LINE
8
BLACK
6
CONTINUOUS
10
35.477
20
-110.296
11
35.5274
21
-110.108
0
LINE
8
BLACK
6
CONTINUOUS
10
35.5274
20
-110.108
11
35.6096
21
-109.932
0
LINE
8
BLACK
6
CONTINUOUS
10
35.6096
20
-109.932
11
35.7212
21
-109.773
0
LINE
8
BLACK
6
CONTINUOUS
10
35.7212
20
-109.773
11
35.8587
21
-109.635
0
LINE
8
BLACK
6
CONTINUOUS
10
35.8587
20
-109.635
11
36.0181
21
-109.524
0
LINE
8
BLACK
6
CONTINUOUS
10
36.0181
20
-109.524
11
36.1944
21
-109.441
0
LINE
8
BLACK
6
CONTINUOUS
10
36.1944
20
-109.441
11
36.3823
21
-109.391
0
LINE
8
BLACK
6
CONTINUOUS
10
36.3823
20
-109.391
11
36.576
21
-109.374
0
LINE
8
BLACK
6
CONTINUOUS
10
36.576
20
-109.374
11
36.576
21
-109.374
0
LINE
8
BLACK
6
CONTINUOUS
10
36.576
20
-109.374
11
36.576
21
-109.374
0
LINE
8
BLACK
6
CONTINUOUS
10
36.576
20
-109.374
11
36.576
21
-109.374
0
LINE
8
BLACK
6
CONTINUOUS
10
36.576
20
-109.374
11
37.5921
21
-109.374
0
LINE
8
BLACK
6
CONTINUOUS
10
37.5921
20
-109.374
11
37.5921
21
-109.374
0
LINE
8
BLACK
6
CONTINUOUS
10
37.5921
20
-109.374
11
37.5921
21
-109.374
0
LINE
8
BLACK
6
CONTINUOUS
10
37.5921
20
-109.374
11
37.5921
21
-109.374
0
LINE
8
BLACK
6
CONTINUOUS
10
37.5921
20
-109.374
11
37.5923
21
-109.374
0
LINE
8
BLACK
6
CONTINUOUS
10
37.5923
20
-109.374
11
37.6667
21
-109.374
0
LINE
8
BLACK
6
CONTINUOUS
10
37.6667
20
-109.374
11
37.8121
21
-109.341
0
LINE
8
BLACK
6
CONTINUOUS
10
37.8121
20
-109.341
11
37.9465
21
-109.276
0
LINE
8
BLACK
6
CONTINUOUS
10
37.9465
20
-109.276
11
38.0632
21
-109.183
0
LINE
8
BLACK
6
CONTINUOUS
10
38.0632
20
-109.183
11
38.1562
21
-109.067
0
LINE
8
BLACK
6
CONTINUOUS
10
38.1562
20
-109.067
11
38.2209
21
-108.932
0
LINE
8
BLACK
6
CONTINUOUS
10
38.2209
20
-108.932
11
38.2541
21
-108.787
0
LINE
8
BLACK
6
CONTINUOUS
10
38.2541
20
-108.787
11
38.254
21
-108.712
0
LINE
8
BLACK
6
CONTINUOUS
10
38.254
20
-108.712
11
38.2541
21
-108.712
0
LINE
8
BLACK
6
CONTINUOUS
10
38.2541
20
-108.712
11
38.254
21
-108.712
0
LINE
8
BLACK
6
CONTINUOUS
10
38.254
20
-108.712
11
38.254
21
-93.9801
0
LINE
8
BLACK
6
CONTINUOUS
10
38.254
20
-93.9801
11
38.254
21
-93.9801
0
LINE
8
BLACK
6
CONTINUOUS
10
38.254
20
-93.9801
11
38.254
21
-93.9055
0
LINE
8
BLACK
6
CONTINUOUS
10
38.254
20
-93.9055
11
38.2208
21
-93.76
0
LINE
8
BLACK
6
CONTINUOUS
10
38.2208
20
-93.76
11
38.1561
21
-93.6256
0
LINE
8
BLACK
6
CONTINUOUS
10
38.1561
20
-93.6256
11
38.0631
21
-93.509
0
LINE
8
BLACK
6
CONTINUOUS
10
38.0631
20
-93.509
11
37.9465
21
-93.416
0
LINE
8
BLACK
6
CONTINUOUS
10
37.9465
20
-93.416
11
37.8121
21
-93.3513
0
LINE
8
BLACK
6
CONTINUOUS
10
37.8121
20
-93.3513
11
37.6666
21
-93.3181
0
LINE
8
BLACK
6
CONTINUOUS
10
37.6666
20
-93.3181
11
37.592
21
-93.3181
0
LINE
8
BLACK
6
CONTINUOUS
10
37.592
20
-93.3181
11
37.592
21
-93.3181
0
LINE
8
BLACK
6
CONTINUOUS
10
37.592
20
-93.3181
11
36.5761
21
-93.3181
0
LINE
8
BLACK
6
CONTINUOUS
10
36.5761
20
-93.3181
11
36.5761
21
-93.3181
0
LINE
8
BLACK
6
CONTINUOUS
10
36.5761
20
-93.3181
11
36.3823
21
-93.3011
0
LINE
8
BLACK
6
CONTINUOUS
10
36.3823
20
-93.3011
11
36.1944
21
-93.2508
0
LINE
8
BLACK
6
CONTINUOUS
10
36.1944
20
-93.2508
11
36.018
21
-93.1686
0
LINE
8
BLACK
6
CONTINUOUS
10
36.018
20
-93.1686
11
35.8587
21
-93.057
0
LINE
8
BLACK
6
CONTINUOUS
10
35.8587
20
-93.057
11
35.7211
21
-92.9194
0
LINE
8
BLACK
6
CONTINUOUS
10
35.7211
20
-92.9194
11
35.6095
21
-92.7601
0
LINE
8
BLACK
6
CONTINUOUS
10
35.6095
20
-92.7601
11
35.5273
21
-92.5838
0
LINE
8
BLACK
6
CONTINUOUS
10
35.5273
20
-92.5838
11
35.477
21
-92.3959
0
LINE
8
BLACK
6
CONTINUOUS
10
35.477
20
-92.3959
11
35.46
21
-92.2021
0
LINE
8
BLACK
6
CONTINUOUS
10
35.46
20
-92.2021
11
35.46
21
-92.2021
0
LINE
8
BLACK
6
CONTINUOUS
10
35.46
20
-92.2021
11
35.46
21
-38.8621
0
LINE
8
BLACK
6
CONTINUOUS
10
35.46
20
-38.8621
11
35.46
21
-38.8621
0
LINE
8
BLACK
6
CONTINUOUS
10
35.46
20
-38.8621
11
35.46
21
-38.862
0
LINE
8
BLACK
6
CONTINUOUS
10
35.46
20
-38.862
11
35.4766
21
-38.6939
0
LINE
8
BLACK
6
CONTINUOUS
10
35.4766
20
-38.6939
11
35.5257
21
-38.5322
0
LINE
8
BLACK
6
CONTINUOUS
10
35.5257
20
-38.5322
11
35.6054
21
-38.3832
0
LINE
8
BLACK
6
CONTINUOUS
10
35.6054
20
-38.3832
11
35.7126
21
-38.2526
0
LINE
8
BLACK
6
CONTINUOUS
10
35.7126
20
-38.2526
11
35.8432
21
-38.1454
0
LINE
8
BLACK
6
CONTINUOUS
10
35.8432
20
-38.1454
11
35.9922
21
-38.0658
0
LINE
8
BLACK
6
CONTINUOUS
10
35.9922
20
-38.0658
11
36.1539
21
-38.0167
0
LINE
8
BLACK
6
CONTINUOUS
10
36.1539
20
-38.0167
11
36.3217
21
-38.0002
0
LINE
8
BLACK
6
CONTINUOUS
10
36.3217
20
-38.0002
11
36.3221
21
-38.0001
0
LINE
8
BLACK
6
CONTINUOUS
10
36.3221
20
-38.0001
11
36.3221
21
-38.0001
0
LINE
8
BLACK
6
CONTINUOUS
10
36.3221
20
-38.0001
11
36.3221
21
-38.0001
0
LINE
8
BLACK
6
CONTINUOUS
10
36.3221
20
-38.0001
11
36.3221
21
-38.0001
0
LINE
8
BLACK
6
CONTINUOUS
10
36.3221
20
-38.0001
11
86.6117
21
-38.0001
0
LINE
8
BLACK
6
CONTINUOUS
10
86.6117
20
-38.0001
11
86.6141
21
-37.9994
0
LINE
8
BLACK
6
CONTINUOUS
10
86.6141
20
-37.9994
11
86.6141
21
-37.9994
0
LINE
8
BLACK
6
CONTINUOUS
10
86.6141
20
-37.9994
11
86.6941
21
-37.9994
0
LINE
8
BLACK
6
CONTINUOUS
10
86.6941
20
-37.9994
11
86.8519
21
-37.9716
0
LINE
8
BLACK
6
CONTINUOUS
10
86.8519
20
-37.9716
11
87.0024
21
-37.9169
0
LINE
8
BLACK
6
CONTINUOUS
10
87.0024
20
-37.9169
11
87.1411
21
-37.8368
0
LINE
8
BLACK
6
CONTINUOUS
10
87.1411
20
-37.8368
11
87.2638
21
-37.7338
0
LINE
8
BLACK
6
CONTINUOUS
10
87.2638
20
-37.7338
11
87.3668
21
-37.6111
0
LINE
8
BLACK
6
CONTINUOUS
10
87.3668
20
-37.6111
11
87.4469
21
-37.4724
0
LINE
8
BLACK
6
CONTINUOUS
10
87.4469
20
-37.4724
11
87.5016
21
-37.3219
0
LINE
8
BLACK
6
CONTINUOUS
10
87.5016
20
-37.3219
11
87.5294
21
-37.1642
0
LINE
8
BLACK
6
CONTINUOUS
10
87.5294
20
-37.1642
11
87.5294
21
-37.0841
0
LINE
8
BLACK
6
CONTINUOUS
10
87.5294
20
-37.0841
11
87.5297
21
-37.0829
0
LINE
8
BLACK
6
CONTINUOUS
10
87.5297
20
-37.0829
11
87.5294
21
-37.0819
0
LINE
8
BLACK
6
CONTINUOUS
10
87.5294
20
-37.0819
11
87.6216
21
-32.8767
0
LINE
8
BLACK
6
CONTINUOUS
10
87.6216
20
-32.8767
11
87.6218
21
-32.8761
0
LINE
8
BLACK
6
CONTINUOUS
10
87.6218
20
-32.8761
11
87.6216
21
-32.8754
0
LINE
8
BLACK
6
CONTINUOUS
10
87.6216
20
-32.8754
11
87.645
21
-32.685
0
LINE
8
BLACK
6
CONTINUOUS
10
87.645
20
-32.685
11
87.701
21
-32.5017
0
LINE
8
BLACK
6
CONTINUOUS
10
87.701
20
-32.5017
11
87.7881
21
-32.3308
0
LINE
8
BLACK
6
CONTINUOUS
10
87.7881
20
-32.3308
11
87.9035
21
-32.1777
0
LINE
8
BLACK
6
CONTINUOUS
10
87.9035
20
-32.1777
11
88.0437
21
-32.0469
0
LINE
8
BLACK
6
CONTINUOUS
10
88.0437
20
-32.0469
11
88.2045
21
-31.9425
0
LINE
8
BLACK
6
CONTINUOUS
10
88.2045
20
-31.9425
11
88.381
21
-31.8676
0
LINE
8
BLACK
6
CONTINUOUS
10
88.381
20
-31.8676
11
88.5679
21
-31.8244
0
LINE
8
BLACK
6
CONTINUOUS
10
88.5679
20
-31.8244
11
88.7593
21
-31.8144
0
LINE
8
BLACK
6
CONTINUOUS
10
88.7593
20
-31.8144
11
88.7593
21
-31.8144
0
LINE
8
BLACK
6
CONTINUOUS
10
88.7593
20
-31.8144
11
88.7593
21
-31.8144
0
LINE
8
BLACK
6
CONTINUOUS
10
88.7593
20
-31.8144
11
88.7593
21
-31.8144
0
LINE
8
BLACK
6
CONTINUOUS
10
88.7593
20
-31.8144
11
107.164
21
-32.4571
0
LINE
8
BLACK
6
CONTINUOUS
10
107.164
20
-32.4571
11
107.164
21
-32.4571
0
LINE
8
BLACK
6
CONTINUOUS
10
107.164
20
-32.4571
11
107.164
21
-32.4571
0
LINE
8
BLACK
6
CONTINUOUS
10
107.164
20
-32.4571
11
107.251
21
-32.4601
0
LINE
8
BLACK
6
CONTINUOUS
10
107.251
20
-32.4601
11
107.422
21
-32.4329
0
LINE
8
BLACK
6
CONTINUOUS
10
107.422
20
-32.4329
11
107.585
21
-32.3737
0
LINE
8
BLACK
6
CONTINUOUS
10
107.585
20
-32.3737
11
107.734
21
-32.2844
0
LINE
8
BLACK
6
CONTINUOUS
10
107.734
20
-32.2844
11
107.862
21
-32.1684
0
LINE
8
BLACK
6
CONTINUOUS
10
107.862
20
-32.1684
11
107.967
21
-32.03
0
LINE
8
BLACK
6
CONTINUOUS
10
107.967
20
-32.03
11
108.043
21
-31.8743
0
LINE
8
BLACK
6
CONTINUOUS
10
108.043
20
-31.8743
11
108.088
21
-31.7069
0
LINE
8
BLACK
6
CONTINUOUS
10
108.088
20
-31.7069
11
108.094
21
-31.6204
0
LINE
8
BLACK
6
CONTINUOUS
10
108.094
20
-31.6204
11
108.094
21
-31.6204
0
LINE
8
BLACK
6
CONTINUOUS
10
108.094
20
-31.6204
11
108.575
21
-24.7305
0
LINE
8
BLACK
6
CONTINUOUS
10
108.575
20
-24.7305
11
108.575
21
-24.7305
0
LINE
8
BLACK
6
CONTINUOUS
10
108.575
20
-24.7305
11
108.605
21
-24.5411
0
LINE
8
BLACK
6
CONTINUOUS
10
108.605
20
-24.5411
11
108.668
21
-24.3598
0
LINE
8
BLACK
6
CONTINUOUS
10
108.668
20
-24.3598
11
108.761
21
-24.1921
0
LINE
8
BLACK
6
CONTINUOUS
10
108.761
20
-24.1921
11
108.881
21
-24.043
0
LINE
8
BLACK
6
CONTINUOUS
10
108.881
20
-24.043
11
109.026
21
-23.9172
0
LINE
8
BLACK
6
CONTINUOUS
10
109.026
20
-23.9172
11
109.191
21
-23.8185
0
LINE
8
BLACK
6
CONTINUOUS
10
109.191
20
-23.8185
11
109.37
21
-23.7498
0
LINE
8
BLACK
6
CONTINUOUS
10
109.37
20
-23.7498
11
109.558
21
-23.7132
0
LINE
8
BLACK
6
CONTINUOUS
10
109.558
20
-23.7132
11
109.749
21
-23.7099
0
LINE
8
BLACK
6
CONTINUOUS
10
109.749
20
-23.7099
11
109.75
21
-23.7099
0
LINE
8
BLACK
6
CONTINUOUS
10
109.75
20
-23.7099
11
109.75
21
-23.7099
0
LINE
8
BLACK
6
CONTINUOUS
10
109.75
20
-23.7099
11
109.75
21
-23.7099
0
LINE
8
BLACK
6
CONTINUOUS
10
109.471
20
-23.9256
11
109.303
21
-23.9818
0
LINE
8
BLACK
6
CONTINUOUS
10
109.303
20
-23.9818
11
109.149
21
-24.0698
0
LINE
8
BLACK
6
CONTINUOUS
10
109.149
20
-24.0698
11
109.015
21
-24.1861
0
LINE
8
BLACK
6
CONTINUOUS
10
109.015
20
-24.1861
11
108.907
21
-24.3263
0
LINE
8
BLACK
6
CONTINUOUS
10
108.907
20
-24.3263
11
108.828
21
-24.4849
0
LINE
8
BLACK
6
CONTINUOUS
10
108.828
20
-24.4849
11
108.781
21
-24.656
0
LINE
8
BLACK
6
CONTINUOUS
10
108.781
20
-24.656
11
108.775
21
-24.7444
0
LINE
8
BLACK
6
CONTINUOUS
10
108.775
20
-24.7444
11
108.775
21
-24.7444
0
LINE
8
BLACK
6
CONTINUOUS
10
108.775
20
-24.7444
11
108.775
21
-24.7444
0
LINE
8
BLACK
6
CONTINUOUS
10
108.775
20
-24.7444
11
108.293
21
-31.6344
0
LINE
8
BLACK
6
CONTINUOUS
10
108.293
20
-31.6344
11
108.293
21
-31.6344
0
LINE
8
BLACK
6
CONTINUOUS
10
108.293
20
-31.6344
11
108.293
21
-31.6344
0
LINE
8
BLACK
6
CONTINUOUS
10
108.293
20
-31.6344
11
108.264
21
-31.8197
0
LINE
8
BLACK
6
CONTINUOUS
10
108.264
20
-31.8197
11
108.204
21
-31.9973
0
LINE
8
BLACK
6
CONTINUOUS
10
108.204
20
-31.9973
11
108.115
21
-32.1621
0
LINE
8
BLACK
6
CONTINUOUS
10
108.115
20
-32.1621
11
107.999
21
-32.3094
0
LINE
8
BLACK
6
CONTINUOUS
10
107.999
20
-32.3094
11
107.86
21
-32.4348
0
LINE
8
BLACK
6
CONTINUOUS
10
107.86
20
-32.4348
11
107.701
21
-32.5348
0
LINE
8
BLACK
6
CONTINUOUS
10
107.701
20
-32.5348
11
107.528
21
-32.6064
0
LINE
8
BLACK
6
CONTINUOUS
10
107.528
20
-32.6064
11
107.345
21
-32.6475
0
LINE
8
BLACK
6
CONTINUOUS
10
107.345
20
-32.6475
11
107.158
21
-32.657
0
LINE
8
BLACK
6
CONTINUOUS
10
107.158
20
-32.657
11
107.157
21
-32.657
0
LINE
8
BLACK
6
CONTINUOUS
10
107.157
20
-32.657
11
107.157
21
-32.657
0
LINE
8
BLACK
6
CONTINUOUS
10
107.157
20
-32.657
11
107.157
21
-32.657
0
LINE
8
BLACK
6
CONTINUOUS
10
107.157
20
-32.657
11
107.157
21
-32.657
0
LINE
8
BLACK
6
CONTINUOUS
10
107.157
20
-32.657
11
88.7524
21
-32.0143
0
LINE
8
BLACK
6
CONTINUOUS
10
88.7524
20
-32.0143
11
88.7523
21
-32.0143
0
LINE
8
BLACK
6
CONTINUOUS
10
88.7523
20
-32.0143
11
88.7523
21
-32.0143
0
LINE
8
BLACK
6
CONTINUOUS
10
88.7523
20
-32.0143
11
88.6638
21
-32.0112
0
LINE
8
BLACK
6
CONTINUOUS
10
88.6638
20
-32.0112
11
88.4888
21
-32.0397
0
LINE
8
BLACK
6
CONTINUOUS
10
88.4888
20
-32.0397
11
88.3227
21
-32.1018
0
LINE
8
BLACK
6
CONTINUOUS
10
88.3227
20
-32.1018
11
88.172
21
-32.1951
0
LINE
8
BLACK
6
CONTINUOUS
10
88.172
20
-32.1951
11
88.0423
21
-32.316
0
LINE
8
BLACK
6
CONTINUOUS
10
88.0423
20
-32.316
11
87.9387
21
-32.4599
0
LINE
8
BLACK
6
CONTINUOUS
10
87.9387
20
-32.4599
11
87.8652
21
-32.6212
0
LINE
8
BLACK
6
CONTINUOUS
10
87.8652
20
-32.6212
11
87.8246
21
-32.7937
0
LINE
8
BLACK
6
CONTINUOUS
10
87.8246
20
-32.7937
11
87.8215
21
-32.8817
0
LINE
8
BLACK
6
CONTINUOUS
10
87.8215
20
-32.8817
11
87.7294
21
-37.0862
0
LINE
8
BLACK
6
CONTINUOUS
10
87.7294
20
-37.0862
11
87.7292
21
-37.0869
0
LINE
8
BLACK
6
CONTINUOUS
10
87.7292
20
-37.0869
11
87.7125
21
-37.2777
0
LINE
8
BLACK
6
CONTINUOUS
10
87.7125
20
-37.2777
11
87.6622
21
-37.4656
0
LINE
8
BLACK
6
CONTINUOUS
10
87.6622
20
-37.4656
11
87.58
21
-37.6418
0
LINE
8
BLACK
6
CONTINUOUS
10
87.58
20
-37.6418
11
87.4685
21
-37.801
0
LINE
8
BLACK
6
CONTINUOUS
10
87.4685
20
-37.801
11
87.331
21
-37.9385
0
LINE
8
BLACK
6
CONTINUOUS
10
87.331
20
-37.9385
11
87.1718
21
-38.05
0
LINE
8
BLACK
6
CONTINUOUS
10
87.1718
20
-38.05
11
86.9955
21
-38.1322
0
LINE
8
BLACK
6
CONTINUOUS
10
86.9955
20
-38.1322
11
86.8077
21
-38.1825
0
LINE
8
BLACK
6
CONTINUOUS
10
86.8077
20
-38.1825
11
86.6167
21
-38.1992
0
LINE
8
BLACK
6
CONTINUOUS
10
86.6167
20
-38.1992
11
86.614
21
-38.2001
0
LINE
8
BLACK
6
CONTINUOUS
10
86.614
20
-38.2001
11
36.3221
21
-38.2001
0
LINE
8
BLACK
6
CONTINUOUS
10
36.3221
20
-38.2001
11
36.3221
21
-38.2001
0
LINE
8
BLACK
6
CONTINUOUS
10
36.3221
20
-38.2001
11
36.3221
21
-38.2001
0
LINE
8
BLACK
6
CONTINUOUS
10
36.3221
20
-38.2001
11
36.2475
21
-38.2002
0
LINE
8
BLACK
6
CONTINUOUS
10
36.2475
20
-38.2002
11
36.1021
21
-38.2333
0
LINE
8
BLACK
6
CONTINUOUS
10
36.1021
20
-38.2333
11
35.9677
21
-38.2981
0
LINE
8
BLACK
6
CONTINUOUS
10
35.9677
20
-38.2981
11
35.851
21
-38.3911
0
LINE
8
BLACK
6
CONTINUOUS
10
35.851
20
-38.3911
11
35.758
21
-38.5077
0
LINE
8
BLACK
6
CONTINUOUS
10
35.758
20
-38.5077
11
35.6933
21
-38.6421
0
LINE
8
BLACK
6
CONTINUOUS
10
35.6933
20
-38.6421
11
35.6601
21
-38.7875
0
LINE
8
BLACK
6
CONTINUOUS
10
35.6601
20
-38.7875
11
35.66
21
-38.8621
0
LINE
8
BLACK
6
CONTINUOUS
10
35.66
20
-38.8621
11
35.66
21
-92.2021
0
LINE
8
BLACK
6
CONTINUOUS
10
35.66
20
-92.2021
11
35.66
21
-92.2021
0
LINE
8
BLACK
6
CONTINUOUS
10
35.66
20
-92.2021
11
35.66
21
-92.2021
0
LINE
8
BLACK
6
CONTINUOUS
10
35.66
20
-92.2021
11
35.66
21
-92.2021
0
LINE
8
BLACK
6
CONTINUOUS
10
35.66
20
-92.2021
11
35.66
21
-92.2021
0
LINE
8
BLACK
6
CONTINUOUS
10
35.66
20
-92.2021
11
35.66
21
-92.2822
0
LINE
8
BLACK
6
CONTINUOUS
10
35.66
20
-92.2822
11
35.6879
21
-92.4401
0
LINE
8
BLACK
6
CONTINUOUS
10
35.6879
20
-92.4401
11
35.7427
21
-92.5907
0
LINE
8
BLACK
6
CONTINUOUS
10
35.7427
20
-92.5907
11
35.8228
21
-92.7295
0
LINE
8
BLACK
6
CONTINUOUS
10
35.8228
20
-92.7295
11
35.9258
21
-92.8523
0
LINE
8
BLACK
6
CONTINUOUS
10
35.9258
20
-92.8523
11
36.0486
21
-92.9553
0
LINE
8
BLACK
6
CONTINUOUS
10
36.0486
20
-92.9553
11
36.1874
21
-93.0354
0
LINE
8
BLACK
6
CONTINUOUS
10
36.1874
20
-93.0354
11
36.3381
21
-93.0902
0
LINE
8
BLACK
6
CONTINUOUS
10
36.3381
20
-93.0902
11
36.4959
21
-93.1181
0
LINE
8
BLACK
6
CONTINUOUS
10
36.4959
20
-93.1181
11
36.5761
21
-93.1181
0
LINE
8
BLACK
6
CONTINUOUS
10
36.5761
20
-93.1181
11
36.5761
21
-93.1181
0
LINE
8
BLACK
6
CONTINUOUS
10
36.5761
20
-93.1181
11
36.5761
21
-93.1181
0
LINE
8
BLACK
6
CONTINUOUS
10
36.5761
20
-93.1181
11
37.592
21
-93.1181
0
LINE
8
BLACK
6
CONTINUOUS
10
37.592
20
-93.1181
11
37.5921
21
-93.1181
0
LINE
8
BLACK
6
CONTINUOUS
10
37.5921
20
-93.1181
11
37.5921
21
-93.1181
0
LINE
8
BLACK
6
CONTINUOUS
10
37.5921
20
-93.1181
11
37.7602
21
-93.1346
0
LINE
8
BLACK
6
CONTINUOUS
10
37.7602
20
-93.1346
11
37.9219
21
-93.1837
0
LINE
8
BLACK
6
CONTINUOUS
10
37.9219
20
-93.1837
11
38.0709
21
-93.2634
0
LINE
8
BLACK
6
CONTINUOUS
10
38.0709
20
-93.2634
11
38.2016
21
-93.3705
0
LINE
8
BLACK
6
CONTINUOUS
10
38.2016
20
-93.3705
11
38.3088
21
-93.5012
0
LINE
8
BLACK
6
CONTINUOUS
10
38.3088
20
-93.5012
11
38.3884
21
-93.6502
0
LINE
8
BLACK
6
CONTINUOUS
10
38.3884
20
-93.6502
11
38.4375
21
-93.8119
0
LINE
8
BLACK
6
CONTINUOUS
10
38.4375
20
-93.8119
11
38.454
21
-93.98
0
LINE
8
BLACK
6
CONTINUOUS
10
38.454
20
-93.98
11
38.454
21
-93.9801
0
LINE
8
BLACK
6
CONTINUOUS
10
38.454
20
-93.9801
11
38.454
21
-93.9801
0
LINE
8
BLACK
6
CONTINUOUS
10
38.454
20
-93.9801
11
38.454
21
-93.9801
0
LINE
8
BLACK
6
CONTINUOUS
10
38.454
20
-93.9801
11
38.454
21
-93.9801
0
LINE
8
BLACK
6
CONTINUOUS
10
38.454
20
-93.9801
11
38.454
21
-108.712
0
LINE
8
BLACK
6
CONTINUOUS
10
38.454
20
-108.712
11
38.454
21
-108.712
0
LINE
8
BLACK
6
CONTINUOUS
10
38.454
20
-108.712
11
38.4375
21
-108.88
0
LINE
8
BLACK
6
CONTINUOUS
10
38.4375
20
-108.88
11
38.3885
21
-109.042
0
LINE
8
BLACK
6
CONTINUOUS
10
38.3885
20
-109.042
11
38.3088
21
-109.191
0
LINE
8
BLACK
6
CONTINUOUS
10
38.3088
20
-109.191
11
38.2016
21
-109.322
0
LINE
8
BLACK
6
CONTINUOUS
10
38.2016
20
-109.322
11
38.071
21
-109.429
0
LINE
8
BLACK
6
CONTINUOUS
10
38.071
20
-109.429
11
37.922
21
-109.509
0
LINE
8
BLACK
6
CONTINUOUS
10
37.922
20
-109.509
11
37.7602
21
-109.558
0
LINE
8
BLACK
6
CONTINUOUS
10
37.7602
20
-109.558
11
37.5921
21
-109.574
0
LINE
8
BLACK
6
CONTINUOUS
10
37.5921
20
-109.574
11
37.5921
21
-109.574
0
LINE
8
BLACK
6
CONTINUOUS
10
37.5921
20
-109.574
11
36.5761
21
-109.574
0
LINE
8
BLACK
6
CONTINUOUS
10
36.5761
20
-109.574
11
36.576
21
-109.574
0
LINE
8
BLACK
6
CONTINUOUS
10
36.576
20
-109.574
11
36.576
21
-109.574
0
LINE
8
BLACK
6
CONTINUOUS
10
36.576
20
-109.574
11
36.4959
21
-109.574
0
LINE
8
BLACK
6
CONTINUOUS
10
36.4959
20
-109.574
11
36.3381
21
-109.602
0
LINE
8
BLACK
6
CONTINUOUS
10
36.3381
20
-109.602
11
36.1875
21
-109.657
0
LINE
8
BLACK
6
CONTINUOUS
10
36.1875
20
-109.657
11
36.0487
21
-109.737
0
LINE
8
BLACK
6
CONTINUOUS
10
36.0487
20
-109.737
11
35.9259
21
-109.84
0
LINE
8
BLACK
6
CONTINUOUS
10
35.9259
20
-109.84
11
35.8229
21
-109.963
0
LINE
8
BLACK
6
CONTINUOUS
10
35.8229
20
-109.963
11
35.7427
21
-110.101
0
LINE
8
BLACK
6
CONTINUOUS
10
35.7427
20
-110.101
11
35.6879
21
-110.252
0
LINE
8
BLACK
6
CONTINUOUS
10
35.6879
20
-110.252
11
35.6601
21
-110.41
0
LINE
8
BLACK
6
CONTINUOUS
10
35.6601
20
-110.41
11
35.66
21
-110.49
0
LINE
8
BLACK
6
CONTINUOUS
10
35.66
20
-110.49
11
35.66
21
-119.888
0
LINE
8
BLACK
6
CONTINUOUS
10
35.66
20
-119.888
11
35.66
21
-119.888
0
LINE
8
BLACK
6
CONTINUOUS
10
35.66
20
-119.888
11
35.66
21
-119.982
0
LINE
8
BLACK
6
CONTINUOUS
10
35.66
20
-119.982
11
35.6902
21
-120.169
0
LINE
8
BLACK
6
CONTINUOUS
10
35.6902
20
-120.169
11
35.7499
21
-120.348
0
LINE
8
BLACK
6
CONTINUOUS
10
35.7499
20
-120.348
11
35.8374
21
-120.515
0
LINE
8
BLACK
6
CONTINUOUS
10
35.8374
20
-120.515
11
35.8924
21
-120.588
0
LINE
8
BLACK
6
CONTINUOUS
10
35.8924
20
-120.588
11
51.8151
21
-139.491
0
LINE
8
BLACK
6
CONTINUOUS
10
51.8151
20
-139.491
11
51.8152
21
-139.491
0
LINE
8
BLACK
6
CONTINUOUS
10
51.8152
20
-139.491
11
51.8153
21
-139.491
0
LINE
8
BLACK
6
CONTINUOUS
10
51.8153
20
-139.491
11
51.8722
21
-139.559
0
LINE
8
BLACK
6
CONTINUOUS
10
51.8722
20
-139.559
11
52.0105
21
-139.67
0
LINE
8
BLACK
6
CONTINUOUS
10
52.0105
20
-139.67
11
52.1678
21
-139.752
0
LINE
8
BLACK
6
CONTINUOUS
10
52.1678
20
-139.752
11
52.338
21
-139.802
0
LINE
8
BLACK
6
CONTINUOUS
10
52.338
20
-139.802
11
52.5146
21
-139.817
0
LINE
8
BLACK
6
CONTINUOUS
10
52.5146
20
-139.817
11
52.6908
21
-139.798
0
LINE
8
BLACK
6
CONTINUOUS
10
52.6908
20
-139.798
11
52.8599
21
-139.745
0
LINE
8
BLACK
6
CONTINUOUS
10
52.8599
20
-139.745
11
53.0153
21
-139.659
0
LINE
8
BLACK
6
CONTINUOUS
10
53.0153
20
-139.659
11
53.0832
21
-139.602
0
LINE
8
BLACK
6
CONTINUOUS
10
53.0832
20
-139.602
11
53.0832
21
-139.602
0
LINE
8
BLACK
6
CONTINUOUS
10
53.0832
20
-139.602
11
60.8956
21
-133.02
0
LINE
8
BLACK
6
CONTINUOUS
10
60.8956
20
-133.02
11
60.8956
21
-133.02
0
LINE
8
BLACK
6
CONTINUOUS
10
60.8956
20
-133.02
11
61.8662
21
-132.226
0
LINE
8
BLACK
6
CONTINUOUS
10
61.8662
20
-132.226
11
62.8599
21
-131.462
0
LINE
8
BLACK
6
CONTINUOUS
10
62.8599
20
-131.462
11
63.8758
21
-130.727
0
LINE
8
BLACK
6
CONTINUOUS
10
63.8758
20
-130.727
11
64.9131
21
-130.023
0
LINE
8
BLACK
6
CONTINUOUS
10
64.9131
20
-130.023
11
65.9707
21
-129.35
0
LINE
8
BLACK
6
CONTINUOUS
10
65.9707
20
-129.35
11
67.0479
21
-128.709
0
LINE
8
BLACK
6
CONTINUOUS
10
67.0479
20
-128.709
11
68.1436
21
-128.1
0
LINE
8
BLACK
6
CONTINUOUS
10
68.1436
20
-128.1
11
69.2568
21
-127.523
0
LINE
8
BLACK
6
CONTINUOUS
10
69.2568
20
-127.523
11
70.3867
21
-126.98
0
LINE
8
BLACK
6
CONTINUOUS
10
70.3867
20
-126.98
11
71.5322
21
-126.471
0
LINE
8
BLACK
6
CONTINUOUS
10
71.5322
20
-126.471
11
72.6922
21
-125.996
0
LINE
8
BLACK
6
CONTINUOUS
10
72.6922
20
-125.996
11
73.8659
21
-125.555
0
LINE
8
BLACK
6
CONTINUOUS
10
73.8659
20
-125.555
11
75.0521
21
-125.149
0
LINE
8
BLACK
6
CONTINUOUS
10
75.0521
20
-125.149
11
76.2498
21
-124.779
0
LINE
8
BLACK
6
CONTINUOUS
10
76.2498
20
-124.779
11
77.4579
21
-124.444
0
LINE
8
BLACK
6
CONTINUOUS
10
77.4579
20
-124.444
11
78.6755
21
-124.146
0
LINE
8
BLACK
6
CONTINUOUS
10
78.6755
20
-124.146
11
79.9014
21
-123.883
0
LINE
8
BLACK
6
CONTINUOUS
10
79.9014
20
-123.883
11
81.1345
21
-123.657
0
LINE
8
BLACK
6
CONTINUOUS
10
81.1345
20
-123.657
11
82.3737
21
-123.468
0
LINE
8
BLACK
6
CONTINUOUS
10
82.3737
20
-123.468
11
83.618
21
-123.316
0
LINE
8
BLACK
6
CONTINUOUS
10
83.618
20
-123.316
11
84.8663
21
-123.2
0
LINE
8
BLACK
6
CONTINUOUS
10
84.8663
20
-123.2
11
86.1175
21
-123.122
0
LINE
8
BLACK
6
CONTINUOUS
10
86.1175
20
-123.122
11
87.3705
21
-123.08
0
LINE
8
BLACK
6
CONTINUOUS
10
87.3705
20
-123.08
11
88.6241
21
-123.076
0
LINE
8
BLACK
6
CONTINUOUS
10
88.6241
20
-123.076
11
89.8773
21
-123.109
0
LINE
8
BLACK
6
CONTINUOUS
10
89.8773
20
-123.109
11
91.129
21
-123.179
0
LINE
8
BLACK
6
CONTINUOUS
10
91.129
20
-123.179
11
92.378
21
-123.286
0
LINE
8
BLACK
6
CONTINUOUS
10
92.378
20
-123.286
11
93.6233
21
-123.431
0
LINE
8
BLACK
6
CONTINUOUS
10
93.6233
20
-123.431
11
94.8638
21
-123.612
0
LINE
8
BLACK
6
CONTINUOUS
10
94.8638
20
-123.612
11
94.8638
21
-123.612
0
LINE
8
BLACK
6
CONTINUOUS
10
94.8638
20
-123.612
11
94.8647
21
-123.612
0
LINE
8
BLACK
6
CONTINUOUS
10
94.8647
20
-123.612
11
94.8655
21
-123.612
0
LINE
8
BLACK
6
CONTINUOUS
10
94.8655
20
-123.612
11
106.437
21
-125.673
0
LINE
8
BLACK
6
CONTINUOUS
10
106.437
20
-125.673
11
106.764
21
-125.725
0
LINE
8
BLACK
6
CONTINUOUS
10
106.764
20
-125.725
11
107.426
21
-125.802
0
LINE
8
BLACK
6
CONTINUOUS
10
107.426
20
-125.802
11
108.091
21
-125.852
0
LINE
8
BLACK
6
CONTINUOUS
10
108.091
20
-125.852
11
108.757
21
-125.874
0
LINE
8
BLACK
6
CONTINUOUS
10
108.757
20
-125.874
11
109.424
21
-125.869
0
LINE
8
BLACK
6
CONTINUOUS
10
109.424
20
-125.869
11
110.09
21
-125.836
0
LINE
8
BLACK
6
CONTINUOUS
10
110.09
20
-125.836
11
110.754
21
-125.776
0
LINE
8
BLACK
6
CONTINUOUS
10
110.754
20
-125.776
11
111.415
21
-125.689
0
LINE
8
BLACK
6
CONTINUOUS
10
111.415
20
-125.689
11
111.743
21
-125.632
0
LINE
8
BLACK
6
CONTINUOUS
10
111.743
20
-125.632
11
111.744
21
-125.632
0
LINE
8
BLACK
6
CONTINUOUS
10
111.744
20
-125.632
11
111.744
21
-125.631
0
LINE
8
BLACK
6
CONTINUOUS
10
111.744
20
-125.631
11
182.01
21
-114.201
0
LINE
8
BLACK
6
CONTINUOUS
10
182.01
20
-114.201
11
182.01
21
-114.201
0
LINE
8
BLACK
6
CONTINUOUS
10
182.01
20
-114.201
11
182.01
21
-114.201
0
LINE
8
BLACK
6
CONTINUOUS
10
182.01
20
-114.201
11
182.01
21
-114.201
0
LINE
8
BLACK
6
CONTINUOUS
10
182.01
20
-114.201
11
182.09
21
-114.188
0
LINE
8
BLACK
6
CONTINUOUS
10
182.09
20
-114.188
11
182.242
21
-114.135
0
LINE
8
BLACK
6
CONTINUOUS
10
182.242
20
-114.135
11
182.383
21
-114.055
0
LINE
8
BLACK
6
CONTINUOUS
10
182.383
20
-114.055
11
182.508
21
-113.953
0
LINE
8
BLACK
6
CONTINUOUS
10
182.508
20
-113.953
11
182.612
21
-113.829
0
LINE
8
BLACK
6
CONTINUOUS
10
182.612
20
-113.829
11
182.694
21
-113.69
0
LINE
8
BLACK
6
CONTINUOUS
10
182.694
20
-113.69
11
182.749
21
-113.538
0
LINE
8
BLACK
6
CONTINUOUS
10
182.749
20
-113.538
11
182.763
21
-113.459
0
LINE
8
BLACK
6
CONTINUOUS
10
182.763
20
-113.459
11
182.763
21
-113.459
0
LINE
8
BLACK
6
CONTINUOUS
10
182.763
20
-113.459
11
182.763
21
-113.458
0
LINE
8
BLACK
6
CONTINUOUS
10
182.763
20
-113.458
11
182.763
21
-113.458
0
LINE
8
BLACK
6
CONTINUOUS
10
182.763
20
-113.458
11
190.292
21
-71.4767
0
LINE
8
BLACK
6
CONTINUOUS
10
190.292
20
-71.4767
11
190.292
21
-71.4767
0
LINE
8
BLACK
6
CONTINUOUS
10
190.292
20
-71.4767
11
190.307
21
-71.3894
0
LINE
8
BLACK
6
CONTINUOUS
10
190.307
20
-71.3894
11
190.303
21
-71.2122
0
LINE
8
BLACK
6
CONTINUOUS
10
190.303
20
-71.2122
11
190.265
21
-71.0391
0
LINE
8
BLACK
6
CONTINUOUS
10
190.265
20
-71.0391
11
190.193
21
-70.8768
0
LINE
8
BLACK
6
CONTINUOUS
10
190.193
20
-70.8768
11
190.092
21
-70.7316
0
LINE
8
BLACK
6
CONTINUOUS
10
190.092
20
-70.7316
11
189.964
21
-70.609
0
LINE
8
BLACK
6
CONTINUOUS
10
189.964
20
-70.609
11
189.814
21
-70.5137
0
LINE
8
BLACK
6
CONTINUOUS
10
189.814
20
-70.5137
11
189.649
21
-70.4495
0
LINE
8
BLACK
6
CONTINUOUS
10
189.649
20
-70.4495
11
189.562
21
-70.4341
0
LINE
8
BLACK
6
CONTINUOUS
10
189.562
20
-70.4341
11
189.562
21
-70.4341
0
LINE
8
BLACK
6
CONTINUOUS
10
189.562
20
-70.4341
11
189.562
21
-70.4341
0
LINE
8
BLACK
6
CONTINUOUS
10
189.562
20
-70.4341
11
171.749
21
-67.2933
0
LINE
8
BLACK
6
CONTINUOUS
10
171.749
20
-67.2933
11
171.749
21
-67.2933
0
LINE
8
BLACK
6
CONTINUOUS
10
171.749
20
-67.2933
11
171.568
21
-67.2451
0
LINE
8
BLACK
6
CONTINUOUS
10
171.568
20
-67.2451
11
171.398
21
-67.1669
0
LINE
8
BLACK
6
CONTINUOUS
10
171.398
20
-67.1669
11
171.243
21
-67.0608
0
LINE
8
BLACK
6
CONTINUOUS
10
171.243
20
-67.0608
11
171.109
21
-66.93
0
LINE
8
BLACK
6
CONTINUOUS
10
171.109
20
-66.93
11
170.998
21
-66.7784
0
LINE
8
BLACK
6
CONTINUOUS
10
170.998
20
-66.7784
11
170.916
21
-66.6102
0
LINE
8
BLACK
6
CONTINUOUS
10
170.916
20
-66.6102
11
170.863
21
-66.4303
0
LINE
8
BLACK
6
CONTINUOUS
10
170.863
20
-66.4303
11
170.841
21
-66.2441
0
LINE
8
BLACK
6
CONTINUOUS
10
170.841
20
-66.2441
11
170.851
21
-66.057
0
LINE
8
BLACK
6
CONTINUOUS
10
170.851
20
-66.057
11
170.851
21
-66.0569
0
LINE
8
BLACK
6
CONTINUOUS
10
170.851
20
-66.0569
11
171.904
21
-58.5669
0
LINE
8
BLACK
6
CONTINUOUS
10
171.904
20
-58.5669
11
171.904
21
-58.5668
0
LINE
8
BLACK
6
CONTINUOUS
10
171.904
20
-58.5668
11
171.916
21
-58.4791
0
LINE
8
BLACK
6
CONTINUOUS
10
171.916
20
-58.4791
11
171.906
21
-58.3021
0
LINE
8
BLACK
6
CONTINUOUS
10
171.906
20
-58.3021
11
171.861
21
-58.1305
0
LINE
8
BLACK
6
CONTINUOUS
10
171.861
20
-58.1305
11
171.784
21
-57.9708
0
LINE
8
BLACK
6
CONTINUOUS
10
171.784
20
-57.9708
11
171.678
21
-57.8292
0
LINE
8
BLACK
6
CONTINUOUS
10
171.678
20
-57.8292
11
171.545
21
-57.7111
0
LINE
8
BLACK
6
CONTINUOUS
10
171.545
20
-57.7111
11
171.393
21
-57.6212
0
LINE
8
BLACK
6
CONTINUOUS
10
171.393
20
-57.6212
11
171.225
21
-57.5627
0
LINE
8
BLACK
6
CONTINUOUS
10
171.225
20
-57.5627
11
171.138
21
-57.5504
0
LINE
8
BLACK
6
CONTINUOUS
10
171.138
20
-57.5504
11
171.138
21
-57.5504
0
LINE
8
BLACK
6
CONTINUOUS
10
171.138
20
-57.5504
11
153.249
21
-55.0362
0
LINE
8
BLACK
6
CONTINUOUS
10
153.249
20
-55.0362
11
153.249
21
-55.0362
0
LINE
8
BLACK
6
CONTINUOUS
10
153.249
20
-55.0362
11
153.066
21
-54.9944
0
LINE
8
BLACK
6
CONTINUOUS
10
153.066
20
-54.9944
11
152.893
21
-54.9222
0
LINE
8
BLACK
6
CONTINUOUS
10
152.893
20
-54.9222
11
152.735
21
-54.8216
0
LINE
8
BLACK
6
CONTINUOUS
10
152.735
20
-54.8216
11
152.596
21
-54.6956
0
LINE
8
BLACK
6
CONTINUOUS
10
152.596
20
-54.6956
11
152.48
21
-54.5479
0
LINE
8
BLACK
6
CONTINUOUS
10
152.48
20
-54.5479
11
152.392
21
-54.3826
0
LINE
8
BLACK
6
CONTINUOUS
10
152.392
20
-54.3826
11
152.332
21
-54.2048
0
LINE
8
BLACK
6
CONTINUOUS
10
152.332
20
-54.2048
11
152.304
21
-54.0194
0
LINE
8
BLACK
6
CONTINUOUS
10
152.304
20
-54.0194
11
152.308
21
-53.8319
0
LINE
8
BLACK
6
CONTINUOUS
10
152.308
20
-53.8319
11
152.308
21
-53.8319
0
LINE
8
BLACK
6
CONTINUOUS
10
152.308
20
-53.8319
11
153.765
21
-39.9708
0
LINE
8
BLACK
6
CONTINUOUS
10
153.765
20
-39.9708
11
153.765
21
-39.9705
0
LINE
8
BLACK
6
CONTINUOUS
10
153.765
20
-39.9705
11
153.774
21
-39.8826
0
LINE
8
BLACK
6
CONTINUOUS
10
153.774
20
-39.8826
11
153.758
21
-39.7061
0
LINE
8
BLACK
6
CONTINUOUS
10
153.758
20
-39.7061
11
153.707
21
-39.5361
0
LINE
8
BLACK
6
CONTINUOUS
10
153.707
20
-39.5361
11
153.625
21
-39.3792
0
LINE
8
BLACK
6
CONTINUOUS
10
153.625
20
-39.3792
11
153.513
21
-39.2414
0
LINE
8
BLACK
6
CONTINUOUS
10
153.513
20
-39.2414
11
153.377
21
-39.1281
0
LINE
8
BLACK
6
CONTINUOUS
10
153.377
20
-39.1281
11
153.221
21
-39.0435
0
LINE
8
BLACK
6
CONTINUOUS
10
153.221
20
-39.0435
11
153.052
21
-38.9909
0
LINE
8
BLACK
6
CONTINUOUS
10
153.052
20
-38.9909
11
152.964
21
-38.9816
0
LINE
8
BLACK
6
CONTINUOUS
10
152.964
20
-38.9816
11
152.964
21
-38.9816
0
LINE
8
BLACK
6
CONTINUOUS
10
152.964
20
-38.9816
11
152.964
21
-38.9816
0
LINE
8
BLACK
6
CONTINUOUS
10
152.964
20
-38.9816
11
134.84
21
-37.0767
0
LINE
8
BLACK
6
CONTINUOUS
10
134.84
20
-37.0767
11
134.84
21
-37.0767
0
LINE
8
BLACK
6
CONTINUOUS
10
134.84
20
-37.0767
11
134.84
21
-37.0767
0
LINE
8
BLACK
6
CONTINUOUS
10
134.84
20
-37.0767
11
134.656
21
-37.0413
0
LINE
8
BLACK
6
CONTINUOUS
10
134.656
20
-37.0413
11
134.48
21
-36.9751
0
LINE
8
BLACK
6
CONTINUOUS
10
134.48
20
-36.9751
11
134.319
21
-36.8801
0
LINE
8
BLACK
6
CONTINUOUS
10
134.319
20
-36.8801
11
134.176
21
-36.759
0
LINE
8
BLACK
6
CONTINUOUS
10
134.176
20
-36.759
11
134.055
21
-36.6154
0
LINE
8
BLACK
6
CONTINUOUS
10
134.055
20
-36.6154
11
133.961
21
-36.4534
0
LINE
8
BLACK
6
CONTINUOUS
10
133.961
20
-36.4534
11
133.895
21
-36.2777
0
LINE
8
BLACK
6
CONTINUOUS
10
133.895
20
-36.2777
11
133.86
21
-36.0935
0
LINE
8
BLACK
6
CONTINUOUS
10
133.86
20
-36.0935
11
133.858
21
-35.9061
0
LINE
8
BLACK
6
CONTINUOUS
10
133.858
20
-35.9061
11
133.857
21
-35.906
0
LINE
8
BLACK
6
CONTINUOUS
10
133.857
20
-35.906
11
133.857
21
-35.906
0
LINE
8
BLACK
6
CONTINUOUS
10
133.857
20
-35.906
11
133.857
21
-35.906
0
LINE
8
BLACK
6
CONTINUOUS
10
133.857
20
-35.906
11
133.857
21
-35.906
0
LINE
8
BLACK
6
CONTINUOUS
10
133.857
20
-35.906
11
134.512
21
-26.5441
0
LINE
8
BLACK
6
CONTINUOUS
10
134.512
20
-26.5441
11
134.512
21
-26.5441
0
LINE
8
BLACK
6
CONTINUOUS
10
134.512
20
-26.5441
11
134.512
21
-26.5441
0
LINE
8
BLACK
6
CONTINUOUS
10
134.512
20
-26.5441
11
134.512
21
-26.544
0
LINE
8
BLACK
6
CONTINUOUS
10
134.512
20
-26.544
11
134.518
21
-26.4557
0
LINE
8
BLACK
6
CONTINUOUS
10
134.518
20
-26.4557
11
134.496
21
-26.2798
0
LINE
8
BLACK
6
CONTINUOUS
10
134.496
20
-26.2798
11
134.44
21
-26.1117
0
LINE
8
BLACK
6
CONTINUOUS
10
134.44
20
-26.1117
11
134.352
21
-25.9578
0
LINE
8
BLACK
6
CONTINUOUS
10
134.352
20
-25.9578
11
134.235
21
-25.824
0
LINE
8
BLACK
6
CONTINUOUS
10
134.235
20
-25.824
11
134.095
21
-25.7155
0
LINE
8
BLACK
6
CONTINUOUS
10
134.095
20
-25.7155
11
133.937
21
-25.6364
0
LINE
8
BLACK
6
CONTINUOUS
10
133.937
20
-25.6364
11
133.766
21
-25.5897
0
LINE
8
BLACK
6
CONTINUOUS
10
133.766
20
-25.5897
11
133.677
21
-25.5835
0
LINE
8
BLACK
6
CONTINUOUS
10
133.677
20
-25.5835
11
133.677
21
-25.5835
0
LINE
8
BLACK
6
CONTINUOUS
10
133.677
20
-25.5835
11
109.736
21
-23.9094
0
LINE
8
BLACK
6
CONTINUOUS
10
109.736
20
-23.9094
11
109.736
21
-23.9094
0
LINE
8
BLACK
6
CONTINUOUS
10
109.736
20
-23.9094
11
109.736
21
-23.9094
0
LINE
8
BLACK
6
CONTINUOUS
10
109.736
20
-23.9094
11
109.736
21
-23.9094
0
LINE
8
BLACK
6
CONTINUOUS
10
109.736
20
-23.9094
11
109.647
21
-23.9032
0
LINE
8
BLACK
6
CONTINUOUS
10
109.647
20
-23.9032
11
109.471
21
-23.9256
  0
ENDSEC
  0
EOF
