  0
SECTION
  2
HEADER
  9
$ANGBASE
  50
0.0
  9
$ANGDIR
  70
1
  9
$MEASUREMENT
  70
1
  0
ENDSEC
  0
SECTION
  2
TABLES
  0
TABLE
  2
LTYPE
  70
4
  0
LTYPE
  5
40F
  2
CONTINUOUS
  70
0
  3
Solid line
  72
65
  73
0
  40
0.0
  0
LTYPE
  5
410
  2
DASHDOT
 70
0
  3
Dash Dot ____ _ ____ _
 72
65
 73
4
 40
2.0
 49
1.25
 49
-0.25
 49
0.25
 49
-0.25
  0
LTYPE
  5
411
  2
DASHED
 70
0
  3
Dashed __ __ __ __ __
 72
65
 73
2
 40
0.75
 49
0.5
 49
-0.25
  0
LTYPE
  5
43B
  2
DOTTED
 70
0
  3
Dotted .  .  .  .
 72
65
 73
2
 40
0.2
 49
0.0
 49
-0.2
  0
ENDTAB
  0
TABLE
  2
STYLE
  70
4
  0
STYLE
  2
KICAD
  70
0
  40
0
  41
1
  42
1
  50
0
  71
0
  3
isocp.shx
  0
STYLE
  2
KICADB
  70
0
  40
0
  41
1
  42
1
  50
0
  71
0
  3
isocp.shx
  0
STYLE
  2
KICADI
  70
0
  40
0
  41
1
  42
1
  50
15
  71
0
  3
isocp.shx
  0
STYLE
  2
KICADBI
  70
0
  40
0
  41
1
  42
1
  50
15
  71
0
  3
isocp.shx
  0
ENDTAB
  0
TABLE
  2
LAYER
  70
1
  0
LAYER
  2
BLACK
  70
0
  62
7
  6
CONTINUOUS
  0
ENDTAB
  0
ENDSEC
  0
SECTION
  2
ENTITIES
0
LINE
8
BLACK
6
CONTINUOUS
10
108.21
20
-18.4673
11
108.21
21
-18.4672
0
LINE
8
BLACK
6
CONTINUOUS
10
108.21
20
-18.4672
11
136.846
21
-20.7717
0
LINE
8
BLACK
6
CONTINUOUS
10
136.846
20
-20.7717
11
136.848
21
-20.7723
0
LINE
8
BLACK
6
CONTINUOUS
10
136.848
20
-20.7723
11
136.849
21
-20.7721
0
LINE
8
BLACK
6
CONTINUOUS
10
136.849
20
-20.7721
11
136.849
21
-20.7721
0
LINE
8
BLACK
6
CONTINUOUS
10
136.849
20
-20.7721
11
137.212
21
-20.8361
0
LINE
8
BLACK
6
CONTINUOUS
10
137.212
20
-20.8361
11
137.566
21
-20.9365
0
LINE
8
BLACK
6
CONTINUOUS
10
137.566
20
-20.9365
11
137.908
21
-21.0721
0
LINE
8
BLACK
6
CONTINUOUS
10
137.908
20
-21.0721
11
138.235
21
-21.2417
0
LINE
8
BLACK
6
CONTINUOUS
10
138.235
20
-21.2417
11
138.543
21
-21.4433
0
LINE
8
BLACK
6
CONTINUOUS
10
138.543
20
-21.4433
11
138.829
21
-21.6751
0
LINE
8
BLACK
6
CONTINUOUS
10
138.829
20
-21.6751
11
139.091
21
-21.9345
0
LINE
8
BLACK
6
CONTINUOUS
10
139.091
20
-21.9345
11
139.324
21
-22.219
0
LINE
8
BLACK
6
CONTINUOUS
10
139.324
20
-22.219
11
139.528
21
-22.5257
0
LINE
8
BLACK
6
CONTINUOUS
10
139.528
20
-22.5257
11
139.7
21
-22.8513
0
LINE
8
BLACK
6
CONTINUOUS
10
139.7
20
-22.8513
11
139.838
21
-23.1927
0
LINE
8
BLACK
6
CONTINUOUS
10
139.838
20
-23.1927
11
139.94
21
-23.5462
0
LINE
8
BLACK
6
CONTINUOUS
10
139.94
20
-23.5462
11
140.007
21
-23.9083
0
LINE
8
BLACK
6
CONTINUOUS
10
140.007
20
-23.9083
11
140.036
21
-24.2753
0
LINE
8
BLACK
6
CONTINUOUS
10
140.036
20
-24.2753
11
140.029
21
-24.6433
0
LINE
8
BLACK
6
CONTINUOUS
10
140.029
20
-24.6433
11
140.029
21
-24.6433
0
LINE
8
BLACK
6
CONTINUOUS
10
140.029
20
-24.6433
11
140.029
21
-24.6435
0
LINE
8
BLACK
6
CONTINUOUS
10
140.029
20
-24.6435
11
140.029
21
-24.6437
0
LINE
8
BLACK
6
CONTINUOUS
10
140.029
20
-24.6437
11
139.575
21
-30.556
0
LINE
8
BLACK
6
CONTINUOUS
10
139.575
20
-30.556
11
139.575
21
-30.5584
0
LINE
8
BLACK
6
CONTINUOUS
10
139.575
20
-30.5584
11
139.575
21
-30.5596
0
LINE
8
BLACK
6
CONTINUOUS
10
139.575
20
-30.5596
11
139.575
21
-30.5596
0
LINE
8
BLACK
6
CONTINUOUS
10
139.575
20
-30.5596
11
139.561
21
-30.6694
0
LINE
8
BLACK
6
CONTINUOUS
10
139.561
20
-30.6694
11
139.568
21
-30.8906
0
LINE
8
BLACK
6
CONTINUOUS
10
139.568
20
-30.8906
11
139.61
21
-31.1079
0
LINE
8
BLACK
6
CONTINUOUS
10
139.61
20
-31.1079
11
139.685
21
-31.3161
0
LINE
8
BLACK
6
CONTINUOUS
10
139.685
20
-31.3161
11
139.792
21
-31.5099
0
LINE
8
BLACK
6
CONTINUOUS
10
139.792
20
-31.5099
11
139.928
21
-31.6846
0
LINE
8
BLACK
6
CONTINUOUS
10
139.928
20
-31.6846
11
140.09
21
-31.8359
0
LINE
8
BLACK
6
CONTINUOUS
10
140.09
20
-31.8359
11
140.273
21
-31.96
0
LINE
8
BLACK
6
CONTINUOUS
10
140.273
20
-31.96
11
140.473
21
-32.054
0
LINE
8
BLACK
6
CONTINUOUS
10
140.473
20
-32.054
11
140.686
21
-32.1155
0
LINE
8
BLACK
6
CONTINUOUS
10
140.686
20
-32.1155
11
140.795
21
-32.1291
0
LINE
8
BLACK
6
CONTINUOUS
10
140.795
20
-32.1291
11
156.472
21
-33.8435
0
LINE
8
BLACK
6
CONTINUOUS
10
156.472
20
-33.8435
11
156.479
21
-33.8454
0
LINE
8
BLACK
6
CONTINUOUS
10
156.479
20
-33.8454
11
156.482
21
-33.8452
0
LINE
8
BLACK
6
CONTINUOUS
10
156.482
20
-33.8452
11
156.482
21
-33.8452
0
LINE
8
BLACK
6
CONTINUOUS
10
156.482
20
-33.8452
11
156.861
21
-33.9556
0
LINE
8
BLACK
6
CONTINUOUS
10
156.861
20
-33.9556
11
157.228
21
-34.0997
0
LINE
8
BLACK
6
CONTINUOUS
10
157.228
20
-34.0997
11
157.581
21
-34.2763
0
LINE
8
BLACK
6
CONTINUOUS
10
157.581
20
-34.2763
11
157.917
21
-34.484
0
LINE
8
BLACK
6
CONTINUOUS
10
157.917
20
-34.484
11
158.233
21
-34.7211
0
LINE
8
BLACK
6
CONTINUOUS
10
158.233
20
-34.7211
11
158.526
21
-34.9857
0
LINE
8
BLACK
6
CONTINUOUS
10
158.526
20
-34.9857
11
158.794
21
-35.2756
0
LINE
8
BLACK
6
CONTINUOUS
10
158.794
20
-35.2756
11
159.035
21
-35.5884
0
LINE
8
BLACK
6
CONTINUOUS
10
159.035
20
-35.5884
11
159.246
21
-35.9217
0
LINE
8
BLACK
6
CONTINUOUS
10
159.246
20
-35.9217
11
159.427
21
-36.2726
0
LINE
8
BLACK
6
CONTINUOUS
10
159.427
20
-36.2726
11
159.575
21
-36.6385
0
LINE
8
BLACK
6
CONTINUOUS
10
159.575
20
-36.6385
11
159.69
21
-37.0162
0
LINE
8
BLACK
6
CONTINUOUS
10
159.69
20
-37.0162
11
159.771
21
-37.4027
0
LINE
8
BLACK
6
CONTINUOUS
10
159.771
20
-37.4027
11
159.816
21
-37.7949
0
LINE
8
BLACK
6
CONTINUOUS
10
159.816
20
-37.7949
11
159.826
21
-38.1896
0
LINE
8
BLACK
6
CONTINUOUS
10
159.826
20
-38.1896
11
159.8
21
-38.5835
0
LINE
8
BLACK
6
CONTINUOUS
10
159.8
20
-38.5835
11
159.8
21
-38.5835
0
LINE
8
BLACK
6
CONTINUOUS
10
159.8
20
-38.5835
11
159.8
21
-38.5838
0
LINE
8
BLACK
6
CONTINUOUS
10
159.8
20
-38.5838
11
159.8
21
-38.584
0
LINE
8
BLACK
6
CONTINUOUS
10
159.8
20
-38.584
11
158.57
21
-49.0308
0
LINE
8
BLACK
6
CONTINUOUS
10
158.57
20
-49.0308
11
158.57
21
-49.0331
0
LINE
8
BLACK
6
CONTINUOUS
10
158.57
20
-49.0331
11
158.57
21
-49.0343
0
LINE
8
BLACK
6
CONTINUOUS
10
158.57
20
-49.0343
11
158.553
21
-49.138
0
LINE
8
BLACK
6
CONTINUOUS
10
158.553
20
-49.138
11
158.548
21
-49.3483
0
LINE
8
BLACK
6
CONTINUOUS
10
158.548
20
-49.3483
11
158.573
21
-49.557
0
LINE
8
BLACK
6
CONTINUOUS
10
158.573
20
-49.557
11
158.628
21
-49.76
0
LINE
8
BLACK
6
CONTINUOUS
10
158.628
20
-49.76
11
158.711
21
-49.9532
0
LINE
8
BLACK
6
CONTINUOUS
10
158.711
20
-49.9532
11
158.821
21
-50.1326
0
LINE
8
BLACK
6
CONTINUOUS
10
158.821
20
-50.1326
11
158.955
21
-50.2946
0
LINE
8
BLACK
6
CONTINUOUS
10
158.955
20
-50.2946
11
159.111
21
-50.4358
0
LINE
8
BLACK
6
CONTINUOUS
10
159.111
20
-50.4358
11
159.285
21
-50.5534
0
LINE
8
BLACK
6
CONTINUOUS
10
159.285
20
-50.5534
11
159.474
21
-50.645
0
LINE
8
BLACK
6
CONTINUOUS
10
159.474
20
-50.645
11
159.675
21
-50.7087
0
LINE
8
BLACK
6
CONTINUOUS
10
159.675
20
-50.7087
11
159.778
21
-50.7259
0
LINE
8
BLACK
6
CONTINUOUS
10
159.778
20
-50.7259
11
174.561
21
-52.9908
0
LINE
8
BLACK
6
CONTINUOUS
10
174.561
20
-52.9908
11
174.566
21
-52.9924
0
LINE
8
BLACK
6
CONTINUOUS
10
174.566
20
-52.9924
11
174.568
21
-52.9922
0
LINE
8
BLACK
6
CONTINUOUS
10
174.568
20
-52.9922
11
174.904
21
-53.0939
0
LINE
8
BLACK
6
CONTINUOUS
10
174.904
20
-53.0939
11
175.229
21
-53.2269
0
LINE
8
BLACK
6
CONTINUOUS
10
175.229
20
-53.2269
11
175.54
21
-53.3899
0
LINE
8
BLACK
6
CONTINUOUS
10
175.54
20
-53.3899
11
175.833
21
-53.5816
0
LINE
8
BLACK
6
CONTINUOUS
10
175.833
20
-53.5816
11
176.108
21
-53.8001
0
LINE
8
BLACK
6
CONTINUOUS
10
176.108
20
-53.8001
11
176.361
21
-54.0436
0
LINE
8
BLACK
6
CONTINUOUS
10
176.361
20
-54.0436
11
176.589
21
-54.3099
0
LINE
8
BLACK
6
CONTINUOUS
10
176.589
20
-54.3099
11
176.792
21
-54.5965
0
LINE
8
BLACK
6
CONTINUOUS
10
176.792
20
-54.5965
11
176.966
21
-54.901
0
LINE
8
BLACK
6
CONTINUOUS
10
176.966
20
-54.901
11
177.111
21
-55.2206
0
LINE
8
BLACK
6
CONTINUOUS
10
177.111
20
-55.2206
11
177.225
21
-55.5525
0
LINE
8
BLACK
6
CONTINUOUS
10
177.225
20
-55.5525
11
177.307
21
-55.8936
0
LINE
8
BLACK
6
CONTINUOUS
10
177.307
20
-55.8936
11
177.357
21
-56.241
0
LINE
8
BLACK
6
CONTINUOUS
10
177.357
20
-56.241
11
177.373
21
-56.5915
0
LINE
8
BLACK
6
CONTINUOUS
10
177.373
20
-56.5915
11
177.373
21
-56.5915
0
LINE
8
BLACK
6
CONTINUOUS
10
177.373
20
-56.5915
11
177.372
21
-56.5954
0
LINE
8
BLACK
6
CONTINUOUS
10
177.372
20
-56.5954
11
177.373
21
-56.5989
0
LINE
8
BLACK
6
CONTINUOUS
10
177.373
20
-56.5989
11
176.859
21
-61.7295
0
LINE
8
BLACK
6
CONTINUOUS
10
176.859
20
-61.7295
11
176.857
21
-61.7343
0
LINE
8
BLACK
6
CONTINUOUS
10
176.857
20
-61.7343
11
176.858
21
-61.7367
0
LINE
8
BLACK
6
CONTINUOUS
10
176.858
20
-61.7367
11
176.858
21
-61.7367
0
LINE
8
BLACK
6
CONTINUOUS
10
176.858
20
-61.7367
11
176.839
21
-61.8309
0
LINE
8
BLACK
6
CONTINUOUS
10
176.839
20
-61.8309
11
176.831
21
-62.0228
0
LINE
8
BLACK
6
CONTINUOUS
10
176.831
20
-62.0228
11
176.853
21
-62.2135
0
LINE
8
BLACK
6
CONTINUOUS
10
176.853
20
-62.2135
11
176.905
21
-62.3984
0
LINE
8
BLACK
6
CONTINUOUS
10
176.905
20
-62.3984
11
176.986
21
-62.5729
0
LINE
8
BLACK
6
CONTINUOUS
10
176.986
20
-62.5729
11
177.092
21
-62.7327
0
LINE
8
BLACK
6
CONTINUOUS
10
177.092
20
-62.7327
11
177.222
21
-62.8739
0
LINE
8
BLACK
6
CONTINUOUS
10
177.222
20
-62.8739
11
177.373
21
-62.9929
0
LINE
8
BLACK
6
CONTINUOUS
10
177.373
20
-62.9929
11
177.54
21
-63.087
0
LINE
8
BLACK
6
CONTINUOUS
10
177.54
20
-63.087
11
177.721
21
-63.1536
0
LINE
8
BLACK
6
CONTINUOUS
10
177.721
20
-63.1536
11
177.814
21
-63.1723
0
LINE
8
BLACK
6
CONTINUOUS
10
177.814
20
-63.1723
11
191.976
21
-65.7328
0
LINE
8
BLACK
6
CONTINUOUS
10
191.976
20
-65.7328
11
191.978
21
-65.7335
0
LINE
8
BLACK
6
CONTINUOUS
10
191.978
20
-65.7335
11
191.979
21
-65.7334
0
LINE
8
BLACK
6
CONTINUOUS
10
191.979
20
-65.7334
11
192.373
21
-65.8399
0
LINE
8
BLACK
6
CONTINUOUS
10
192.373
20
-65.8399
11
192.755
21
-65.9816
0
LINE
8
BLACK
6
CONTINUOUS
10
192.755
20
-65.9816
11
193.122
21
-66.1575
0
LINE
8
BLACK
6
CONTINUOUS
10
193.122
20
-66.1575
11
193.472
21
-66.3661
0
LINE
8
BLACK
6
CONTINUOUS
10
193.472
20
-66.3661
11
193.802
21
-66.6057
0
LINE
8
BLACK
6
CONTINUOUS
10
193.802
20
-66.6057
11
194.109
21
-66.8743
0
LINE
8
BLACK
6
CONTINUOUS
10
194.109
20
-66.8743
11
194.39
21
-67.1697
0
LINE
8
BLACK
6
CONTINUOUS
10
194.39
20
-67.1697
11
194.642
21
-67.4893
0
LINE
8
BLACK
6
CONTINUOUS
10
194.642
20
-67.4893
11
194.865
21
-67.8306
0
LINE
8
BLACK
6
CONTINUOUS
10
194.865
20
-67.8306
11
195.056
21
-68.1908
0
LINE
8
BLACK
6
CONTINUOUS
10
195.056
20
-68.1908
11
195.213
21
-68.5668
0
LINE
8
BLACK
6
CONTINUOUS
10
195.213
20
-68.5668
11
195.335
21
-68.9555
0
LINE
8
BLACK
6
CONTINUOUS
10
195.335
20
-68.9555
11
195.422
21
-69.3538
0
LINE
8
BLACK
6
CONTINUOUS
10
195.422
20
-69.3538
11
195.472
21
-69.7583
0
LINE
8
BLACK
6
CONTINUOUS
10
195.472
20
-69.7583
11
195.485
21
-70.1656
0
LINE
8
BLACK
6
CONTINUOUS
10
195.485
20
-70.1656
11
195.461
21
-70.5724
0
LINE
8
BLACK
6
CONTINUOUS
10
195.461
20
-70.5724
11
195.4
21
-70.9732
0
LINE
8
BLACK
6
CONTINUOUS
10
195.4
20
-70.9732
11
195.4
21
-70.9734
0
LINE
8
BLACK
6
CONTINUOUS
10
195.4
20
-70.9734
11
186.863
21
-120.985
0
LINE
8
BLACK
6
CONTINUOUS
10
186.863
20
-120.985
11
186.862
21
-120.988
0
LINE
8
BLACK
6
CONTINUOUS
10
186.862
20
-120.988
11
186.862
21
-120.989
0
LINE
8
BLACK
6
CONTINUOUS
10
186.862
20
-120.989
11
186.862
21
-120.989
0
LINE
8
BLACK
6
CONTINUOUS
10
186.862
20
-120.989
11
186.737
21
-121.438
0
LINE
8
BLACK
6
CONTINUOUS
10
186.737
20
-121.438
11
186.578
21
-121.876
0
LINE
8
BLACK
6
CONTINUOUS
10
186.578
20
-121.876
11
186.384
21
-122.301
0
LINE
8
BLACK
6
CONTINUOUS
10
186.384
20
-122.301
11
186.158
21
-122.708
0
LINE
8
BLACK
6
CONTINUOUS
10
186.158
20
-122.708
11
185.9
21
-123.097
0
LINE
8
BLACK
6
CONTINUOUS
10
185.9
20
-123.097
11
185.613
21
-123.464
0
LINE
8
BLACK
6
CONTINUOUS
10
185.613
20
-123.464
11
185.297
21
-123.807
0
LINE
8
BLACK
6
CONTINUOUS
10
185.297
20
-123.807
11
184.956
21
-124.124
0
LINE
8
BLACK
6
CONTINUOUS
10
184.956
20
-124.124
11
184.59
21
-124.414
0
LINE
8
BLACK
6
CONTINUOUS
10
184.59
20
-124.414
11
184.203
21
-124.673
0
LINE
8
BLACK
6
CONTINUOUS
10
184.203
20
-124.673
11
183.797
21
-124.902
0
LINE
8
BLACK
6
CONTINUOUS
10
183.797
20
-124.902
11
183.374
21
-125.098
0
LINE
8
BLACK
6
CONTINUOUS
10
183.374
20
-125.098
11
182.936
21
-125.259
0
LINE
8
BLACK
6
CONTINUOUS
10
182.936
20
-125.259
11
182.488
21
-125.386
0
LINE
8
BLACK
6
CONTINUOUS
10
182.488
20
-125.386
11
182.031
21
-125.478
0
LINE
8
BLACK
6
CONTINUOUS
10
182.031
20
-125.478
11
181.568
21
-125.533
0
LINE
8
BLACK
6
CONTINUOUS
10
181.568
20
-125.533
11
181.102
21
-125.551
0
LINE
8
BLACK
6
CONTINUOUS
10
181.102
20
-125.551
11
181.102
21
-125.551
0
LINE
8
BLACK
6
CONTINUOUS
10
181.102
20
-125.551
11
113.792
21
-125.551
0
LINE
8
BLACK
6
CONTINUOUS
10
113.792
20
-125.551
11
113.72
21
-125.551
0
LINE
8
BLACK
6
CONTINUOUS
10
113.72
20
-125.551
11
113.58
21
-125.581
0
LINE
8
BLACK
6
CONTINUOUS
10
113.58
20
-125.581
11
113.449
21
-125.639
0
LINE
8
BLACK
6
CONTINUOUS
10
113.449
20
-125.639
11
113.332
21
-125.723
0
LINE
8
BLACK
6
CONTINUOUS
10
113.332
20
-125.723
11
113.235
21
-125.829
0
LINE
8
BLACK
6
CONTINUOUS
10
113.235
20
-125.829
11
113.163
21
-125.953
0
LINE
8
BLACK
6
CONTINUOUS
10
113.163
20
-125.953
11
113.14
21
-126.021
0
LINE
8
BLACK
6
CONTINUOUS
10
113.14
20
-126.021
11
113.14
21
-126.021
0
LINE
8
BLACK
6
CONTINUOUS
10
113.14
20
-126.021
11
113.14
21
-126.022
0
LINE
8
BLACK
6
CONTINUOUS
10
113.14
20
-126.022
11
113.14
21
-126.023
0
LINE
8
BLACK
6
CONTINUOUS
10
113.14
20
-126.023
11
112.61
21
-127.485
0
LINE
8
BLACK
6
CONTINUOUS
10
112.61
20
-127.485
11
112.619
21
-127.498
0
LINE
8
BLACK
6
CONTINUOUS
10
112.619
20
-127.498
11
112.616
21
-127.545
0
LINE
8
BLACK
6
CONTINUOUS
10
112.616
20
-127.545
11
112.45
21
-127.924
0
LINE
8
BLACK
6
CONTINUOUS
10
112.45
20
-127.924
11
112.253
21
-128.289
0
LINE
8
BLACK
6
CONTINUOUS
10
112.253
20
-128.289
11
112.027
21
-128.636
0
LINE
8
BLACK
6
CONTINUOUS
10
112.027
20
-128.636
11
111.773
21
-128.963
0
LINE
8
BLACK
6
CONTINUOUS
10
111.773
20
-128.963
11
111.492
21
-129.268
0
LINE
8
BLACK
6
CONTINUOUS
10
111.492
20
-129.268
11
111.188
21
-129.549
0
LINE
8
BLACK
6
CONTINUOUS
10
111.188
20
-129.549
11
110.861
21
-129.804
0
LINE
8
BLACK
6
CONTINUOUS
10
110.861
20
-129.804
11
110.514
21
-130.031
0
LINE
8
BLACK
6
CONTINUOUS
10
110.514
20
-130.031
11
110.149
21
-130.228
0
LINE
8
BLACK
6
CONTINUOUS
10
110.149
20
-130.228
11
109.77
21
-130.394
0
LINE
8
BLACK
6
CONTINUOUS
10
109.77
20
-130.394
11
109.378
21
-130.529
0
LINE
8
BLACK
6
CONTINUOUS
10
109.378
20
-130.529
11
108.976
21
-130.63
0
LINE
8
BLACK
6
CONTINUOUS
10
108.976
20
-130.63
11
108.568
21
-130.699
0
LINE
8
BLACK
6
CONTINUOUS
10
108.568
20
-130.699
11
108.155
21
-130.733
0
LINE
8
BLACK
6
CONTINUOUS
10
108.155
20
-130.733
11
107.74
21
-130.732
0
LINE
8
BLACK
6
CONTINUOUS
10
107.74
20
-130.732
11
107.327
21
-130.698
0
LINE
8
BLACK
6
CONTINUOUS
10
107.327
20
-130.698
11
106.921
21
-130.63
0
LINE
8
BLACK
6
CONTINUOUS
10
106.921
20
-130.63
11
106.921
21
-130.63
0
LINE
8
BLACK
6
CONTINUOUS
10
106.921
20
-130.63
11
86.1085
21
-126.823
0
LINE
8
BLACK
6
CONTINUOUS
10
86.1085
20
-126.823
11
70.9011
21
-130.625
0
LINE
8
BLACK
6
CONTINUOUS
10
70.9011
20
-130.625
11
56.3099
21
-142.951
0
LINE
8
BLACK
6
CONTINUOUS
10
56.3099
20
-142.951
11
56.3097
21
-142.951
0
LINE
8
BLACK
6
CONTINUOUS
10
56.3097
20
-142.951
11
55.9579
21
-143.235
0
LINE
8
BLACK
6
CONTINUOUS
10
55.9579
20
-143.235
11
55.5832
21
-143.491
0
LINE
8
BLACK
6
CONTINUOUS
10
55.5832
20
-143.491
11
55.1893
21
-143.716
0
LINE
8
BLACK
6
CONTINUOUS
10
55.1893
20
-143.716
11
54.7787
21
-143.908
0
LINE
8
BLACK
6
CONTINUOUS
10
54.7787
20
-143.908
11
54.354
21
-144.067
0
LINE
8
BLACK
6
CONTINUOUS
10
54.354
20
-144.067
11
53.9179
21
-144.192
0
LINE
8
BLACK
6
CONTINUOUS
10
53.9179
20
-144.192
11
53.4732
21
-144.282
0
LINE
8
BLACK
6
CONTINUOUS
10
53.4732
20
-144.282
11
53.0228
21
-144.335
0
LINE
8
BLACK
6
CONTINUOUS
10
53.0228
20
-144.335
11
52.5696
21
-144.353
0
LINE
8
BLACK
6
CONTINUOUS
10
52.5696
20
-144.353
11
52.1164
21
-144.334
0
LINE
8
BLACK
6
CONTINUOUS
10
52.1164
20
-144.334
11
51.6662
21
-144.279
0
LINE
8
BLACK
6
CONTINUOUS
10
51.6662
20
-144.279
11
51.2218
21
-144.188
0
LINE
8
BLACK
6
CONTINUOUS
10
51.2218
20
-144.188
11
50.786
21
-144.062
0
LINE
8
BLACK
6
CONTINUOUS
10
50.786
20
-144.062
11
50.3618
21
-143.902
0
LINE
8
BLACK
6
CONTINUOUS
10
50.3618
20
-143.902
11
49.9518
21
-143.708
0
LINE
8
BLACK
6
CONTINUOUS
10
49.9518
20
-143.708
11
49.5585
21
-143.482
0
LINE
8
BLACK
6
CONTINUOUS
10
49.5585
20
-143.482
11
49.1846
21
-143.225
0
LINE
8
BLACK
6
CONTINUOUS
10
49.1846
20
-143.225
11
48.8324
21
-142.939
0
LINE
8
BLACK
6
CONTINUOUS
10
48.8324
20
-142.939
11
48.5042
21
-142.626
0
LINE
8
BLACK
6
CONTINUOUS
10
48.5042
20
-142.626
11
48.2023
21
-142.288
0
LINE
8
BLACK
6
CONTINUOUS
10
48.2023
20
-142.288
11
48.2023
21
-142.288
0
LINE
8
BLACK
6
CONTINUOUS
10
48.2023
20
-142.288
11
30.9303
21
-121.46
0
LINE
8
BLACK
6
CONTINUOUS
10
30.9303
20
-121.46
11
30.9291
21
-121.458
0
LINE
8
BLACK
6
CONTINUOUS
10
30.9291
20
-121.458
11
30.928
21
-121.457
0
LINE
8
BLACK
6
CONTINUOUS
10
30.928
20
-121.457
11
30.7721
21
-121.224
0
LINE
8
BLACK
6
CONTINUOUS
10
30.7721
20
-121.224
11
30.642
21
-120.976
0
LINE
8
BLACK
6
CONTINUOUS
10
30.642
20
-120.976
11
30.5392
21
-120.715
0
LINE
8
BLACK
6
CONTINUOUS
10
30.5392
20
-120.715
11
30.4649
21
-120.445
0
LINE
8
BLACK
6
CONTINUOUS
10
30.4649
20
-120.445
11
30.42
21
-120.168
0
LINE
8
BLACK
6
CONTINUOUS
10
30.42
20
-120.168
11
30.405
21
-119.888
0
LINE
8
BLACK
6
CONTINUOUS
10
30.405
20
-119.888
11
30.405
21
-119.888
0
LINE
8
BLACK
6
CONTINUOUS
10
30.405
20
-119.888
11
30.405
21
-35.56
0
LINE
8
BLACK
6
CONTINUOUS
10
30.405
20
-35.56
11
30.4214
21
-35.2672
0
LINE
8
BLACK
6
CONTINUOUS
10
30.4214
20
-35.2672
11
30.4706
21
-34.9781
0
LINE
8
BLACK
6
CONTINUOUS
10
30.4706
20
-34.9781
11
30.5517
21
-34.6963
0
LINE
8
BLACK
6
CONTINUOUS
10
30.5517
20
-34.6963
11
30.664
21
-34.4254
0
LINE
8
BLACK
6
CONTINUOUS
10
30.664
20
-34.4254
11
30.8058
21
-34.1687
0
LINE
8
BLACK
6
CONTINUOUS
10
30.8058
20
-34.1687
11
30.9755
21
-33.9296
0
LINE
8
BLACK
6
CONTINUOUS
10
30.9755
20
-33.9296
11
31.1709
21
-33.7109
0
LINE
8
BLACK
6
CONTINUOUS
10
31.1709
20
-33.7109
11
31.3896
21
-33.5155
0
LINE
8
BLACK
6
CONTINUOUS
10
31.3896
20
-33.5155
11
31.6287
21
-33.3458
0
LINE
8
BLACK
6
CONTINUOUS
10
31.6287
20
-33.3458
11
31.8854
21
-33.204
0
LINE
8
BLACK
6
CONTINUOUS
10
31.8854
20
-33.204
11
32.1563
21
-33.0917
0
LINE
8
BLACK
6
CONTINUOUS
10
32.1563
20
-33.0917
11
32.4381
21
-33.0106
0
LINE
8
BLACK
6
CONTINUOUS
10
32.4381
20
-33.0106
11
32.7272
21
-32.9614
0
LINE
8
BLACK
6
CONTINUOUS
10
32.7272
20
-32.9614
11
33.02
21
-32.945
0
LINE
8
BLACK
6
CONTINUOUS
10
33.02
20
-32.945
11
81.28
21
-32.945
0
LINE
8
BLACK
6
CONTINUOUS
10
81.28
20
-32.945
11
81.28
21
-32.945
0
LINE
8
BLACK
6
CONTINUOUS
10
81.28
20
-32.945
11
81.3935
21
-32.945
0
LINE
8
BLACK
6
CONTINUOUS
10
81.3935
20
-32.945
11
81.6177
21
-32.9097
0
LINE
8
BLACK
6
CONTINUOUS
10
81.6177
20
-32.9097
11
81.8337
21
-32.84
0
LINE
8
BLACK
6
CONTINUOUS
10
81.8337
20
-32.84
11
82.0362
21
-32.7375
0
LINE
8
BLACK
6
CONTINUOUS
10
82.0362
20
-32.7375
11
82.2203
21
-32.6047
0
LINE
8
BLACK
6
CONTINUOUS
10
82.2203
20
-32.6047
11
82.3816
21
-32.4449
0
LINE
8
BLACK
6
CONTINUOUS
10
82.3816
20
-32.4449
11
82.516
21
-32.262
0
LINE
8
BLACK
6
CONTINUOUS
10
82.516
20
-32.262
11
82.6203
21
-32.0604
0
LINE
8
BLACK
6
CONTINUOUS
10
82.6203
20
-32.0604
11
82.692
21
-31.8451
0
LINE
8
BLACK
6
CONTINUOUS
10
82.692
20
-31.8451
11
82.71
21
-31.7368
0
LINE
8
BLACK
6
CONTINUOUS
10
82.71
20
-31.7368
11
82.8939
21
-28.9315
0
LINE
8
BLACK
6
CONTINUOUS
10
82.8939
20
-28.9315
11
82.8958
21
-28.9236
0
LINE
8
BLACK
6
CONTINUOUS
10
82.8958
20
-28.9236
11
82.8955
21
-28.9202
0
LINE
8
BLACK
6
CONTINUOUS
10
82.8955
20
-28.9202
11
82.8955
21
-28.9202
0
LINE
8
BLACK
6
CONTINUOUS
10
82.8955
20
-28.9202
11
82.9774
21
-28.6333
0
LINE
8
BLACK
6
CONTINUOUS
10
82.9774
20
-28.6333
11
83.0928
21
-28.3581
0
LINE
8
BLACK
6
CONTINUOUS
10
83.0928
20
-28.3581
11
83.2401
21
-28.0986
0
LINE
8
BLACK
6
CONTINUOUS
10
83.2401
20
-28.0986
11
83.4171
21
-27.8584
0
LINE
8
BLACK
6
CONTINUOUS
10
83.4171
20
-27.8584
11
83.6214
21
-27.6409
0
LINE
8
BLACK
6
CONTINUOUS
10
83.6214
20
-27.6409
11
83.8501
21
-27.4493
0
LINE
8
BLACK
6
CONTINUOUS
10
83.8501
20
-27.4493
11
84.1
21
-27.2861
0
LINE
8
BLACK
6
CONTINUOUS
10
84.1
20
-27.2861
11
84.3674
21
-27.1538
0
LINE
8
BLACK
6
CONTINUOUS
10
84.3674
20
-27.1538
11
84.6487
21
-27.0542
0
LINE
8
BLACK
6
CONTINUOUS
10
84.6487
20
-27.0542
11
84.9398
21
-26.9886
0
LINE
8
BLACK
6
CONTINUOUS
10
84.9398
20
-26.9886
11
85.2366
21
-26.9582
0
LINE
8
BLACK
6
CONTINUOUS
10
85.2366
20
-26.9582
11
85.2366
21
-26.9582
0
LINE
8
BLACK
6
CONTINUOUS
10
85.2366
20
-26.9582
11
85.2393
21
-26.9589
0
LINE
8
BLACK
6
CONTINUOUS
10
85.2393
20
-26.9589
11
85.2416
21
-26.9581
0
LINE
8
BLACK
6
CONTINUOUS
10
85.2416
20
-26.9581
11
101.601
21
-27.357
0
LINE
8
BLACK
6
CONTINUOUS
10
101.601
20
-27.357
11
101.722
21
-27.357
0
LINE
8
BLACK
6
CONTINUOUS
10
101.722
20
-27.357
11
101.963
21
-27.3223
0
LINE
8
BLACK
6
CONTINUOUS
10
101.963
20
-27.3223
11
102.197
21
-27.2536
0
LINE
8
BLACK
6
CONTINUOUS
10
102.197
20
-27.2536
11
102.419
21
-27.1522
0
LINE
8
BLACK
6
CONTINUOUS
10
102.419
20
-27.1522
11
102.624
21
-27.0204
0
LINE
8
BLACK
6
CONTINUOUS
10
102.624
20
-27.0204
11
102.808
21
-26.8607
0
LINE
8
BLACK
6
CONTINUOUS
10
102.808
20
-26.8607
11
102.967
21
-26.6764
0
LINE
8
BLACK
6
CONTINUOUS
10
102.967
20
-26.6764
11
103.099
21
-26.4712
0
LINE
8
BLACK
6
CONTINUOUS
10
103.099
20
-26.4712
11
103.2
21
-26.2494
0
LINE
8
BLACK
6
CONTINUOUS
10
103.2
20
-26.2494
11
103.269
21
-26.0155
0
LINE
8
BLACK
6
CONTINUOUS
10
103.269
20
-26.0155
11
103.286
21
-25.8975
0
LINE
8
BLACK
6
CONTINUOUS
10
103.286
20
-25.8975
11
103.544
21
-22.2124
0
LINE
8
BLACK
6
CONTINUOUS
10
103.544
20
-22.2124
11
103.544
21
-22.2112
0
LINE
8
BLACK
6
CONTINUOUS
10
103.544
20
-22.2112
11
103.544
21
-22.2106
0
LINE
8
BLACK
6
CONTINUOUS
10
103.544
20
-22.2106
11
103.544
21
-22.2106
0
LINE
8
BLACK
6
CONTINUOUS
10
103.544
20
-22.2106
11
103.6
21
-21.8221
0
LINE
8
BLACK
6
CONTINUOUS
10
103.6
20
-21.8221
11
103.692
21
-21.4406
0
LINE
8
BLACK
6
CONTINUOUS
10
103.692
20
-21.4406
11
103.819
21
-21.0693
0
LINE
8
BLACK
6
CONTINUOUS
10
103.819
20
-21.0693
11
103.98
21
-20.7117
0
LINE
8
BLACK
6
CONTINUOUS
10
103.98
20
-20.7117
11
104.175
21
-20.3709
0
LINE
8
BLACK
6
CONTINUOUS
10
104.175
20
-20.3709
11
104.401
21
-20.0498
0
LINE
8
BLACK
6
CONTINUOUS
10
104.401
20
-20.0498
11
104.655
21
-19.7514
0
LINE
8
BLACK
6
CONTINUOUS
10
104.655
20
-19.7514
11
104.937
21
-19.4782
0
LINE
8
BLACK
6
CONTINUOUS
10
104.937
20
-19.4782
11
105.243
21
-19.2328
0
LINE
8
BLACK
6
CONTINUOUS
10
105.243
20
-19.2328
11
105.571
21
-19.0172
0
LINE
8
BLACK
6
CONTINUOUS
10
105.571
20
-19.0172
11
105.918
21
-18.8334
0
LINE
8
BLACK
6
CONTINUOUS
10
105.918
20
-18.8334
11
106.28
21
-18.683
0
LINE
8
BLACK
6
CONTINUOUS
10
106.28
20
-18.683
11
106.655
21
-18.5673
0
LINE
8
BLACK
6
CONTINUOUS
10
106.655
20
-18.5673
11
107.04
21
-18.4873
0
LINE
8
BLACK
6
CONTINUOUS
10
107.04
20
-18.4873
11
107.43
21
-18.4439
0
LINE
8
BLACK
6
CONTINUOUS
10
107.43
20
-18.4439
11
107.822
21
-18.4373
0
LINE
8
BLACK
6
CONTINUOUS
10
107.822
20
-18.4373
11
108.21
21
-18.4673
0
LINE
8
BLACK
6
CONTINUOUS
10
107.25
20
-18.6057
11
106.876
21
-18.6653
0
LINE
8
BLACK
6
CONTINUOUS
10
106.876
20
-18.6653
11
106.509
21
-18.7598
0
LINE
8
BLACK
6
CONTINUOUS
10
106.509
20
-18.7598
11
106.153
21
-18.8884
0
LINE
8
BLACK
6
CONTINUOUS
10
106.153
20
-18.8884
11
105.811
21
-19.0498
0
LINE
8
BLACK
6
CONTINUOUS
10
105.811
20
-19.0498
11
105.485
21
-19.2428
0
LINE
8
BLACK
6
CONTINUOUS
10
105.485
20
-19.2428
11
105.178
21
-19.4655
0
LINE
8
BLACK
6
CONTINUOUS
10
105.178
20
-19.4655
11
104.894
21
-19.716
0
LINE
8
BLACK
6
CONTINUOUS
10
104.894
20
-19.716
11
104.635
21
-19.9921
0
LINE
8
BLACK
6
CONTINUOUS
10
104.635
20
-19.9921
11
104.403
21
-20.2914
0
LINE
8
BLACK
6
CONTINUOUS
10
104.403
20
-20.2914
11
104.2
21
-20.6112
0
LINE
8
BLACK
6
CONTINUOUS
10
104.2
20
-20.6112
11
104.028
21
-20.9486
0
LINE
8
BLACK
6
CONTINUOUS
10
104.028
20
-20.9486
11
103.888
21
-21.3007
0
LINE
8
BLACK
6
CONTINUOUS
10
103.888
20
-21.3007
11
103.783
21
-21.6643
0
LINE
8
BLACK
6
CONTINUOUS
10
103.783
20
-21.6643
11
103.711
21
-22.0363
0
LINE
8
BLACK
6
CONTINUOUS
10
103.711
20
-22.0363
11
103.694
21
-22.2239
0
LINE
8
BLACK
6
CONTINUOUS
10
103.694
20
-22.2239
11
103.435
21
-25.9107
0
LINE
8
BLACK
6
CONTINUOUS
10
103.435
20
-25.9107
11
103.434
21
-25.9142
0
LINE
8
BLACK
6
CONTINUOUS
10
103.434
20
-25.9142
11
103.434
21
-25.9161
0
LINE
8
BLACK
6
CONTINUOUS
10
103.434
20
-25.9161
11
103.434
21
-25.9161
0
LINE
8
BLACK
6
CONTINUOUS
10
103.434
20
-25.9161
11
103.385
21
-26.1515
0
LINE
8
BLACK
6
CONTINUOUS
10
103.385
20
-26.1515
11
103.305
21
-26.3785
0
LINE
8
BLACK
6
CONTINUOUS
10
103.305
20
-26.3785
11
103.197
21
-26.5933
0
LINE
8
BLACK
6
CONTINUOUS
10
103.197
20
-26.5933
11
103.062
21
-26.7923
0
LINE
8
BLACK
6
CONTINUOUS
10
103.062
20
-26.7923
11
102.902
21
-26.9721
0
LINE
8
BLACK
6
CONTINUOUS
10
102.902
20
-26.9721
11
102.721
21
-27.1297
0
LINE
8
BLACK
6
CONTINUOUS
10
102.721
20
-27.1297
11
102.52
21
-27.2624
0
LINE
8
BLACK
6
CONTINUOUS
10
102.52
20
-27.2624
11
102.304
21
-27.3681
0
LINE
8
BLACK
6
CONTINUOUS
10
102.304
20
-27.3681
11
102.076
21
-27.4448
0
LINE
8
BLACK
6
CONTINUOUS
10
102.076
20
-27.4448
11
101.84
21
-27.4914
0
LINE
8
BLACK
6
CONTINUOUS
10
101.84
20
-27.4914
11
101.6
21
-27.507
0
LINE
8
BLACK
6
CONTINUOUS
10
101.6
20
-27.507
11
101.6
21
-27.507
0
LINE
8
BLACK
6
CONTINUOUS
10
101.6
20
-27.507
11
101.599
21
-27.5067
0
LINE
8
BLACK
6
CONTINUOUS
10
101.599
20
-27.5067
11
101.598
21
-27.507
0
LINE
8
BLACK
6
CONTINUOUS
10
101.598
20
-27.507
11
85.2405
21
-27.1081
0
LINE
8
BLACK
6
CONTINUOUS
10
85.2405
20
-27.1081
11
85.1026
21
-27.1141
0
LINE
8
BLACK
6
CONTINUOUS
10
85.1026
20
-27.1141
11
84.8253
21
-27.1594
0
LINE
8
BLACK
6
CONTINUOUS
10
84.8253
20
-27.1594
11
84.5553
21
-27.2373
0
LINE
8
BLACK
6
CONTINUOUS
10
84.5553
20
-27.2373
11
84.2964
21
-27.3467
0
LINE
8
BLACK
6
CONTINUOUS
10
84.2964
20
-27.3467
11
84.0524
21
-27.4861
0
LINE
8
BLACK
6
CONTINUOUS
10
84.0524
20
-27.4861
11
83.8266
21
-27.6535
0
LINE
8
BLACK
6
CONTINUOUS
10
83.8266
20
-27.6535
11
83.6224
21
-27.8465
0
LINE
8
BLACK
6
CONTINUOUS
10
83.6224
20
-27.8465
11
83.4424
21
-28.0624
0
LINE
8
BLACK
6
CONTINUOUS
10
83.4424
20
-28.0624
11
83.2895
21
-28.2981
0
LINE
8
BLACK
6
CONTINUOUS
10
83.2895
20
-28.2981
11
83.1655
21
-28.5504
0
LINE
8
BLACK
6
CONTINUOUS
10
83.1655
20
-28.5504
11
83.0725
21
-28.8155
0
LINE
8
BLACK
6
CONTINUOUS
10
83.0725
20
-28.8155
11
83.0432
21
-28.9471
0
LINE
8
BLACK
6
CONTINUOUS
10
83.0432
20
-28.9471
11
82.8594
21
-31.7503
0
LINE
8
BLACK
6
CONTINUOUS
10
82.8594
20
-31.7503
11
82.8582
21
-31.7553
0
LINE
8
BLACK
6
CONTINUOUS
10
82.8582
20
-31.7553
11
82.8585
21
-31.7578
0
LINE
8
BLACK
6
CONTINUOUS
10
82.8585
20
-31.7578
11
82.8585
21
-31.7578
0
LINE
8
BLACK
6
CONTINUOUS
10
82.8585
20
-31.7578
11
82.8061
21
-31.9763
0
LINE
8
BLACK
6
CONTINUOUS
10
82.8061
20
-31.9763
11
82.7236
21
-32.1854
0
LINE
8
BLACK
6
CONTINUOUS
10
82.7236
20
-32.1854
11
82.6126
21
-32.3808
0
LINE
8
BLACK
6
CONTINUOUS
10
82.6126
20
-32.3808
11
82.4753
21
-32.5588
0
LINE
8
BLACK
6
CONTINUOUS
10
82.4753
20
-32.5588
11
82.3144
21
-32.7157
0
LINE
8
BLACK
6
CONTINUOUS
10
82.3144
20
-32.7157
11
82.1331
21
-32.8486
0
LINE
8
BLACK
6
CONTINUOUS
10
82.1331
20
-32.8486
11
81.935
21
-32.9548
0
LINE
8
BLACK
6
CONTINUOUS
10
81.935
20
-32.9548
11
81.724
21
-33.0322
0
LINE
8
BLACK
6
CONTINUOUS
10
81.724
20
-33.0322
11
81.5042
21
-33.0792
0
LINE
8
BLACK
6
CONTINUOUS
10
81.5042
20
-33.0792
11
81.28
21
-33.095
0
LINE
8
BLACK
6
CONTINUOUS
10
81.28
20
-33.095
11
81.28
21
-33.095
0
LINE
8
BLACK
6
CONTINUOUS
10
81.28
20
-33.095
11
33.02
21
-33.095
0
LINE
8
BLACK
6
CONTINUOUS
10
33.02
20
-33.095
11
32.8709
21
-33.095
0
LINE
8
BLACK
6
CONTINUOUS
10
32.8709
20
-33.095
11
32.5749
21
-33.1309
0
LINE
8
BLACK
6
CONTINUOUS
10
32.5749
20
-33.1309
11
32.2853
21
-33.2023
0
LINE
8
BLACK
6
CONTINUOUS
10
32.2853
20
-33.2023
11
32.0065
21
-33.3081
0
LINE
8
BLACK
6
CONTINUOUS
10
32.0065
20
-33.3081
11
31.7424
21
-33.4466
0
LINE
8
BLACK
6
CONTINUOUS
10
31.7424
20
-33.4466
11
31.497
21
-33.616
0
LINE
8
BLACK
6
CONTINUOUS
10
31.497
20
-33.616
11
31.2738
21
-33.8138
0
LINE
8
BLACK
6
CONTINUOUS
10
31.2738
20
-33.8138
11
31.076
21
-34.037
0
LINE
8
BLACK
6
CONTINUOUS
10
31.076
20
-34.037
11
30.9066
21
-34.2824
0
LINE
8
BLACK
6
CONTINUOUS
10
30.9066
20
-34.2824
11
30.7681
21
-34.5465
0
LINE
8
BLACK
6
CONTINUOUS
10
30.7681
20
-34.5465
11
30.6623
21
-34.8253
0
LINE
8
BLACK
6
CONTINUOUS
10
30.6623
20
-34.8253
11
30.5909
21
-35.1149
0
LINE
8
BLACK
6
CONTINUOUS
10
30.5909
20
-35.1149
11
30.555
21
-35.4109
0
LINE
8
BLACK
6
CONTINUOUS
10
30.555
20
-35.4109
11
30.555
21
-35.56
0
LINE
8
BLACK
6
CONTINUOUS
10
30.555
20
-35.56
11
30.555
21
-35.56
0
LINE
8
BLACK
6
CONTINUOUS
10
30.555
20
-35.56
11
30.555
21
-119.888
0
LINE
8
BLACK
6
CONTINUOUS
10
30.555
20
-119.888
11
30.555
21
-120.02
0
LINE
8
BLACK
6
CONTINUOUS
10
30.555
20
-120.02
11
30.5834
21
-120.283
0
LINE
8
BLACK
6
CONTINUOUS
10
30.5834
20
-120.283
11
30.6397
21
-120.542
0
LINE
8
BLACK
6
CONTINUOUS
10
30.6397
20
-120.542
11
30.7234
21
-120.793
0
LINE
8
BLACK
6
CONTINUOUS
10
30.7234
20
-120.793
11
30.8335
21
-121.034
0
LINE
8
BLACK
6
CONTINUOUS
10
30.8335
20
-121.034
11
30.9687
21
-121.261
0
LINE
8
BLACK
6
CONTINUOUS
10
30.9687
20
-121.261
11
31.0469
21
-121.366
0
LINE
8
BLACK
6
CONTINUOUS
10
31.0469
20
-121.366
11
48.3177
21
-142.192
0
LINE
8
BLACK
6
CONTINUOUS
10
48.3177
20
-142.192
11
48.3178
21
-142.192
0
LINE
8
BLACK
6
CONTINUOUS
10
48.3178
20
-142.192
11
48.3179
21
-142.192
0
LINE
8
BLACK
6
CONTINUOUS
10
48.3179
20
-142.192
11
48.4584
21
-142.363
0
LINE
8
BLACK
6
CONTINUOUS
10
48.4584
20
-142.363
11
48.7657
21
-142.68
0
LINE
8
BLACK
6
CONTINUOUS
10
48.7657
20
-142.68
11
49.0974
21
-142.972
0
LINE
8
BLACK
6
CONTINUOUS
10
49.0974
20
-142.972
11
49.4514
21
-143.237
0
LINE
8
BLACK
6
CONTINUOUS
10
49.4514
20
-143.237
11
49.8255
21
-143.472
0
LINE
8
BLACK
6
CONTINUOUS
10
49.8255
20
-143.472
11
50.2171
21
-143.677
0
LINE
8
BLACK
6
CONTINUOUS
10
50.2171
20
-143.677
11
50.6238
21
-143.85
0
LINE
8
BLACK
6
CONTINUOUS
10
50.6238
20
-143.85
11
51.0431
21
-143.99
0
LINE
8
BLACK
6
CONTINUOUS
10
51.0431
20
-143.99
11
51.4722
21
-144.095
0
LINE
8
BLACK
6
CONTINUOUS
10
51.4722
20
-144.095
11
51.9084
21
-144.166
0
LINE
8
BLACK
6
CONTINUOUS
10
51.9084
20
-144.166
11
52.3488
21
-144.202
0
LINE
8
BLACK
6
CONTINUOUS
10
52.3488
20
-144.202
11
52.7908
21
-144.203
0
LINE
8
BLACK
6
CONTINUOUS
10
52.7908
20
-144.203
11
53.2313
21
-144.168
0
LINE
8
BLACK
6
CONTINUOUS
10
53.2313
20
-144.168
11
53.6677
21
-144.099
0
LINE
8
BLACK
6
CONTINUOUS
10
53.6677
20
-144.099
11
54.0971
21
-143.994
0
LINE
8
BLACK
6
CONTINUOUS
10
54.0971
20
-143.994
11
54.5168
21
-143.856
0
LINE
8
BLACK
6
CONTINUOUS
10
54.5168
20
-143.856
11
54.9241
21
-143.684
0
LINE
8
BLACK
6
CONTINUOUS
10
54.9241
20
-143.684
11
55.3163
21
-143.481
0
LINE
8
BLACK
6
CONTINUOUS
10
55.3163
20
-143.481
11
55.691
21
-143.246
0
LINE
8
BLACK
6
CONTINUOUS
10
55.691
20
-143.246
11
56.0458
21
-142.983
0
LINE
8
BLACK
6
CONTINUOUS
10
56.0458
20
-142.983
11
56.2121
21
-142.837
0
LINE
8
BLACK
6
CONTINUOUS
10
56.2121
20
-142.837
11
56.2128
21
-142.837
0
LINE
8
BLACK
6
CONTINUOUS
10
56.2128
20
-142.837
11
56.2131
21
-142.836
0
LINE
8
BLACK
6
CONTINUOUS
10
56.2131
20
-142.836
11
70.8176
21
-130.499
0
LINE
8
BLACK
6
CONTINUOUS
10
70.8176
20
-130.499
11
70.8401
21
-130.486
0
LINE
8
BLACK
6
CONTINUOUS
10
70.8401
20
-130.486
11
70.8443
21
-130.486
0
LINE
8
BLACK
6
CONTINUOUS
10
70.8443
20
-130.486
11
70.8478
21
-130.483
0
LINE
8
BLACK
6
CONTINUOUS
10
70.8478
20
-130.483
11
86.0878
21
-126.673
0
LINE
8
BLACK
6
CONTINUOUS
10
86.0878
20
-126.673
11
86.1138
21
-126.671
0
LINE
8
BLACK
6
CONTINUOUS
10
86.1138
20
-126.671
11
86.1165
21
-126.673
0
LINE
8
BLACK
6
CONTINUOUS
10
86.1165
20
-126.673
11
86.1195
21
-126.672
0
LINE
8
BLACK
6
CONTINUOUS
10
86.1195
20
-126.672
11
106.947
21
-130.482
0
LINE
8
BLACK
6
CONTINUOUS
10
106.947
20
-130.482
11
106.949
21
-130.483
0
LINE
8
BLACK
6
CONTINUOUS
10
106.949
20
-130.483
11
106.949
21
-130.483
0
LINE
8
BLACK
6
CONTINUOUS
10
106.949
20
-130.483
11
106.949
21
-130.483
0
LINE
8
BLACK
6
CONTINUOUS
10
106.949
20
-130.483
11
107.146
21
-130.524
0
LINE
8
BLACK
6
CONTINUOUS
10
107.146
20
-130.524
11
107.545
21
-130.574
0
LINE
8
BLACK
6
CONTINUOUS
10
107.545
20
-130.574
11
107.947
21
-130.591
0
LINE
8
BLACK
6
CONTINUOUS
10
107.947
20
-130.591
11
108.349
21
-130.575
0
LINE
8
BLACK
6
CONTINUOUS
10
108.349
20
-130.575
11
108.749
21
-130.525
0
LINE
8
BLACK
6
CONTINUOUS
10
108.749
20
-130.525
11
109.142
21
-130.442
0
LINE
8
BLACK
6
CONTINUOUS
10
109.142
20
-130.442
11
109.528
21
-130.328
0
LINE
8
BLACK
6
CONTINUOUS
10
109.528
20
-130.328
11
109.903
21
-130.181
0
LINE
8
BLACK
6
CONTINUOUS
10
109.903
20
-130.181
11
110.264
21
-130.005
0
LINE
8
BLACK
6
CONTINUOUS
10
110.264
20
-130.005
11
110.61
21
-129.799
0
LINE
8
BLACK
6
CONTINUOUS
10
110.61
20
-129.799
11
110.937
21
-129.565
0
LINE
8
BLACK
6
CONTINUOUS
10
110.937
20
-129.565
11
111.244
21
-129.305
0
LINE
8
BLACK
6
CONTINUOUS
10
111.244
20
-129.305
11
111.528
21
-129.02
0
LINE
8
BLACK
6
CONTINUOUS
10
111.528
20
-129.02
11
111.788
21
-128.713
0
LINE
8
BLACK
6
CONTINUOUS
10
111.788
20
-128.713
11
112.022
21
-128.385
0
LINE
8
BLACK
6
CONTINUOUS
10
112.022
20
-128.385
11
112.227
21
-128.039
0
LINE
8
BLACK
6
CONTINUOUS
10
112.227
20
-128.039
11
112.404
21
-127.678
0
LINE
8
BLACK
6
CONTINUOUS
10
112.404
20
-127.678
11
112.457
21
-127.54
0
LINE
8
BLACK
6
CONTINUOUS
10
112.457
20
-127.54
11
112.452
21
-127.534
0
LINE
8
BLACK
6
CONTINUOUS
10
112.452
20
-127.534
11
112.451
21
-127.482
0
LINE
8
BLACK
6
CONTINUOUS
10
112.451
20
-127.482
11
112.999
21
-125.971
0
LINE
8
BLACK
6
CONTINUOUS
10
112.999
20
-125.971
11
112.999
21
-125.97
0
LINE
8
BLACK
6
CONTINUOUS
10
112.999
20
-125.97
11
113.058
21
-125.837
0
LINE
8
BLACK
6
CONTINUOUS
10
113.058
20
-125.837
11
113.14
21
-125.713
0
LINE
8
BLACK
6
CONTINUOUS
10
113.14
20
-125.713
11
113.244
21
-125.605
0
LINE
8
BLACK
6
CONTINUOUS
10
113.244
20
-125.605
11
113.365
21
-125.518
0
LINE
8
BLACK
6
CONTINUOUS
10
113.365
20
-125.518
11
113.5
21
-125.454
0
LINE
8
BLACK
6
CONTINUOUS
10
113.5
20
-125.454
11
113.643
21
-125.414
0
LINE
8
BLACK
6
CONTINUOUS
10
113.643
20
-125.414
11
113.792
21
-125.401
0
LINE
8
BLACK
6
CONTINUOUS
10
113.792
20
-125.401
11
181.102
21
-125.401
0
LINE
8
BLACK
6
CONTINUOUS
10
181.102
20
-125.401
11
181.102
21
-125.401
0
LINE
8
BLACK
6
CONTINUOUS
10
181.102
20
-125.401
11
181.329
21
-125.401
0
LINE
8
BLACK
6
CONTINUOUS
10
181.329
20
-125.401
11
181.783
21
-125.365
0
LINE
8
BLACK
6
CONTINUOUS
10
181.783
20
-125.365
11
182.232
21
-125.294
0
LINE
8
BLACK
6
CONTINUOUS
10
182.232
20
-125.294
11
182.674
21
-125.187
0
LINE
8
BLACK
6
CONTINUOUS
10
182.674
20
-125.187
11
183.106
21
-125.046
0
LINE
8
BLACK
6
CONTINUOUS
10
183.106
20
-125.046
11
183.526
21
-124.872
0
LINE
8
BLACK
6
CONTINUOUS
10
183.526
20
-124.872
11
183.931
21
-124.665
0
LINE
8
BLACK
6
CONTINUOUS
10
183.931
20
-124.665
11
184.318
21
-124.426
0
LINE
8
BLACK
6
CONTINUOUS
10
184.318
20
-124.426
11
184.685
21
-124.158
0
LINE
8
BLACK
6
CONTINUOUS
10
184.685
20
-124.158
11
185.03
21
-123.862
0
LINE
8
BLACK
6
CONTINUOUS
10
185.03
20
-123.862
11
185.351
21
-123.54
0
LINE
8
BLACK
6
CONTINUOUS
10
185.351
20
-123.54
11
185.645
21
-123.193
0
LINE
8
BLACK
6
CONTINUOUS
10
185.645
20
-123.193
11
185.911
21
-122.824
0
LINE
8
BLACK
6
CONTINUOUS
10
185.911
20
-122.824
11
186.148
21
-122.436
0
LINE
8
BLACK
6
CONTINUOUS
10
186.148
20
-122.436
11
186.353
21
-122.03
0
LINE
8
BLACK
6
CONTINUOUS
10
186.353
20
-122.03
11
186.525
21
-121.609
0
LINE
8
BLACK
6
CONTINUOUS
10
186.525
20
-121.609
11
186.664
21
-121.176
0
LINE
8
BLACK
6
CONTINUOUS
10
186.664
20
-121.176
11
186.715
21
-120.957
0
LINE
8
BLACK
6
CONTINUOUS
10
186.715
20
-120.957
11
195.252
21
-70.9482
0
LINE
8
BLACK
6
CONTINUOUS
10
195.252
20
-70.9482
11
195.253
21
-70.9469
0
LINE
8
BLACK
6
CONTINUOUS
10
195.253
20
-70.9469
11
195.252
21
-70.9462
0
LINE
8
BLACK
6
CONTINUOUS
10
195.252
20
-70.9462
11
195.291
21
-70.7528
0
LINE
8
BLACK
6
CONTINUOUS
10
195.291
20
-70.7528
11
195.332
21
-70.3607
0
LINE
8
BLACK
6
CONTINUOUS
10
195.332
20
-70.3607
11
195.337
21
-69.9664
0
LINE
8
BLACK
6
CONTINUOUS
10
195.337
20
-69.9664
11
195.307
21
-69.5733
0
LINE
8
BLACK
6
CONTINUOUS
10
195.307
20
-69.5733
11
195.241
21
-69.1846
0
LINE
8
BLACK
6
CONTINUOUS
10
195.241
20
-69.1846
11
195.14
21
-68.8035
0
LINE
8
BLACK
6
CONTINUOUS
10
195.14
20
-68.8035
11
195.004
21
-68.4331
0
LINE
8
BLACK
6
CONTINUOUS
10
195.004
20
-68.4331
11
194.836
21
-68.0766
0
LINE
8
BLACK
6
CONTINUOUS
10
194.836
20
-68.0766
11
194.636
21
-67.7369
0
LINE
8
BLACK
6
CONTINUOUS
10
194.636
20
-67.7369
11
194.405
21
-67.4169
0
LINE
8
BLACK
6
CONTINUOUS
10
194.405
20
-67.4169
11
194.147
21
-67.1191
0
LINE
8
BLACK
6
CONTINUOUS
10
194.147
20
-67.1191
11
193.863
21
-66.846
0
LINE
8
BLACK
6
CONTINUOUS
10
193.863
20
-66.846
11
193.555
21
-66.5999
0
LINE
8
BLACK
6
CONTINUOUS
10
193.555
20
-66.5999
11
193.225
21
-66.3829
0
LINE
8
BLACK
6
CONTINUOUS
10
193.225
20
-66.3829
11
192.878
21
-66.1966
0
LINE
8
BLACK
6
CONTINUOUS
10
192.878
20
-66.1966
11
192.515
21
-66.0428
0
LINE
8
BLACK
6
CONTINUOUS
10
192.515
20
-66.0428
11
192.139
21
-65.9226
0
LINE
8
BLACK
6
CONTINUOUS
10
192.139
20
-65.9226
11
191.948
21
-65.8802
0
LINE
8
BLACK
6
CONTINUOUS
10
191.948
20
-65.8802
11
177.787
21
-63.3198
0
LINE
8
BLACK
6
CONTINUOUS
10
177.787
20
-63.3198
11
177.786
21
-63.3195
0
LINE
8
BLACK
6
CONTINUOUS
10
177.786
20
-63.3195
11
177.785
21
-63.3195
0
LINE
8
BLACK
6
CONTINUOUS
10
177.785
20
-63.3195
11
177.785
21
-63.3195
0
LINE
8
BLACK
6
CONTINUOUS
10
177.785
20
-63.3195
11
177.578
21
-63.261
0
LINE
8
BLACK
6
CONTINUOUS
10
177.578
20
-63.261
11
177.383
21
-63.1707
0
LINE
8
BLACK
6
CONTINUOUS
10
177.383
20
-63.1707
11
177.205
21
-63.0511
0
LINE
8
BLACK
6
CONTINUOUS
10
177.205
20
-63.0511
11
177.047
21
-62.905
0
LINE
8
BLACK
6
CONTINUOUS
10
177.047
20
-62.905
11
176.914
21
-62.736
0
LINE
8
BLACK
6
CONTINUOUS
10
176.914
20
-62.736
11
176.809
21
-62.5483
0
LINE
8
BLACK
6
CONTINUOUS
10
176.809
20
-62.5483
11
176.735
21
-62.3465
0
LINE
8
BLACK
6
CONTINUOUS
10
176.735
20
-62.3465
11
176.693
21
-62.1356
0
LINE
8
BLACK
6
CONTINUOUS
10
176.693
20
-62.1356
11
176.685
21
-61.9208
0
LINE
8
BLACK
6
CONTINUOUS
10
176.685
20
-61.9208
11
176.71
21
-61.7151
0
LINE
8
BLACK
6
CONTINUOUS
10
176.71
20
-61.7151
11
176.709
21
-61.7145
0
LINE
8
BLACK
6
CONTINUOUS
10
176.709
20
-61.7145
11
177.223
21
-56.5873
0
LINE
8
BLACK
6
CONTINUOUS
10
177.223
20
-56.5873
11
177.223
21
-56.4099
0
LINE
8
BLACK
6
CONTINUOUS
10
177.223
20
-56.4099
11
177.186
21
-56.0488
0
LINE
8
BLACK
6
CONTINUOUS
10
177.186
20
-56.0488
11
177.113
21
-55.6932
0
LINE
8
BLACK
6
CONTINUOUS
10
177.113
20
-55.6932
11
177.004
21
-55.347
0
LINE
8
BLACK
6
CONTINUOUS
10
177.004
20
-55.347
11
176.86
21
-55.0136
0
LINE
8
BLACK
6
CONTINUOUS
10
176.86
20
-55.0136
11
176.683
21
-54.6966
0
LINE
8
BLACK
6
CONTINUOUS
10
176.683
20
-54.6966
11
176.474
21
-54.3993
0
LINE
8
BLACK
6
CONTINUOUS
10
176.474
20
-54.3993
11
176.237
21
-54.1246
0
LINE
8
BLACK
6
CONTINUOUS
10
176.237
20
-54.1246
11
175.973
21
-53.8756
0
LINE
8
BLACK
6
CONTINUOUS
10
175.973
20
-53.8756
11
175.685
21
-53.6546
0
LINE
8
BLACK
6
CONTINUOUS
10
175.685
20
-53.6546
11
175.376
21
-53.4642
0
LINE
8
BLACK
6
CONTINUOUS
10
175.376
20
-53.4642
11
175.049
21
-53.3061
0
LINE
8
BLACK
6
CONTINUOUS
10
175.049
20
-53.3061
11
174.708
21
-53.1821
0
LINE
8
BLACK
6
CONTINUOUS
10
174.708
20
-53.1821
11
174.535
21
-53.1385
0
LINE
8
BLACK
6
CONTINUOUS
10
174.535
20
-53.1385
11
159.755
21
-50.8741
0
LINE
8
BLACK
6
CONTINUOUS
10
159.755
20
-50.8741
11
159.754
21
-50.8739
0
LINE
8
BLACK
6
CONTINUOUS
10
159.754
20
-50.8739
11
159.754
21
-50.874
0
LINE
8
BLACK
6
CONTINUOUS
10
159.754
20
-50.874
11
159.754
21
-50.874
0
LINE
8
BLACK
6
CONTINUOUS
10
159.754
20
-50.874
11
159.529
21
-50.8198
0
LINE
8
BLACK
6
CONTINUOUS
10
159.529
20
-50.8198
11
159.314
21
-50.7342
0
LINE
8
BLACK
6
CONTINUOUS
10
159.314
20
-50.7342
11
159.114
21
-50.6189
0
LINE
8
BLACK
6
CONTINUOUS
10
159.114
20
-50.6189
11
158.932
21
-50.4763
0
LINE
8
BLACK
6
CONTINUOUS
10
158.932
20
-50.4763
11
158.772
21
-50.3093
0
LINE
8
BLACK
6
CONTINUOUS
10
158.772
20
-50.3093
11
158.638
21
-50.1212
0
LINE
8
BLACK
6
CONTINUOUS
10
158.638
20
-50.1212
11
158.532
21
-49.9159
0
LINE
8
BLACK
6
CONTINUOUS
10
158.532
20
-49.9159
11
158.456
21
-49.6976
0
LINE
8
BLACK
6
CONTINUOUS
10
158.456
20
-49.6976
11
158.412
21
-49.4707
0
LINE
8
BLACK
6
CONTINUOUS
10
158.412
20
-49.4707
11
158.4
21
-49.2398
0
LINE
8
BLACK
6
CONTINUOUS
10
158.4
20
-49.2398
11
158.422
21
-49.0138
0
LINE
8
BLACK
6
CONTINUOUS
10
158.422
20
-49.0138
11
158.422
21
-49.0132
0
LINE
8
BLACK
6
CONTINUOUS
10
158.422
20
-49.0132
11
159.651
21
-38.5668
0
LINE
8
BLACK
6
CONTINUOUS
10
159.651
20
-38.5668
11
159.672
21
-38.3773
0
LINE
8
BLACK
6
CONTINUOUS
10
159.672
20
-38.3773
11
159.68
21
-37.9957
0
LINE
8
BLACK
6
CONTINUOUS
10
159.68
20
-37.9957
11
159.653
21
-37.615
0
LINE
8
BLACK
6
CONTINUOUS
10
159.653
20
-37.615
11
159.592
21
-37.2382
0
LINE
8
BLACK
6
CONTINUOUS
10
159.592
20
-37.2382
11
159.498
21
-36.8684
0
LINE
8
BLACK
6
CONTINUOUS
10
159.498
20
-36.8684
11
159.37
21
-36.5087
0
LINE
8
BLACK
6
CONTINUOUS
10
159.37
20
-36.5087
11
159.211
21
-36.1619
0
LINE
8
BLACK
6
CONTINUOUS
10
159.211
20
-36.1619
11
159.021
21
-35.8308
0
LINE
8
BLACK
6
CONTINUOUS
10
159.021
20
-35.8308
11
158.802
21
-35.5182
0
LINE
8
BLACK
6
CONTINUOUS
10
158.802
20
-35.5182
11
158.556
21
-35.2265
0
LINE
8
BLACK
6
CONTINUOUS
10
158.556
20
-35.2265
11
158.285
21
-34.9582
0
LINE
8
BLACK
6
CONTINUOUS
10
158.285
20
-34.9582
11
157.99
21
-34.7155
0
LINE
8
BLACK
6
CONTINUOUS
10
157.99
20
-34.7155
11
157.675
21
-34.5003
0
LINE
8
BLACK
6
CONTINUOUS
10
157.675
20
-34.5003
11
157.342
21
-34.3143
0
LINE
8
BLACK
6
CONTINUOUS
10
157.342
20
-34.3143
11
156.993
21
-34.1592
0
LINE
8
BLACK
6
CONTINUOUS
10
156.993
20
-34.1592
11
156.632
21
-34.036
0
LINE
8
BLACK
6
CONTINUOUS
10
156.632
20
-34.036
11
156.451
21
-33.9921
0
LINE
8
BLACK
6
CONTINUOUS
10
156.451
20
-33.9921
11
140.778
21
-32.2782
0
LINE
8
BLACK
6
CONTINUOUS
10
140.778
20
-32.2782
11
140.777
21
-32.278
0
LINE
8
BLACK
6
CONTINUOUS
10
140.777
20
-32.278
11
140.777
21
-32.278
0
LINE
8
BLACK
6
CONTINUOUS
10
140.777
20
-32.278
11
140.777
21
-32.278
0
LINE
8
BLACK
6
CONTINUOUS
10
140.777
20
-32.278
11
140.559
21
-32.2349
0
LINE
8
BLACK
6
CONTINUOUS
10
140.559
20
-32.2349
11
140.35
21
-32.1611
0
LINE
8
BLACK
6
CONTINUOUS
10
140.35
20
-32.1611
11
140.153
21
-32.0583
0
LINE
8
BLACK
6
CONTINUOUS
10
140.153
20
-32.0583
11
139.973
21
-31.9286
0
LINE
8
BLACK
6
CONTINUOUS
10
139.973
20
-31.9286
11
139.813
21
-31.7745
0
LINE
8
BLACK
6
CONTINUOUS
10
139.813
20
-31.7745
11
139.677
21
-31.5993
0
LINE
8
BLACK
6
CONTINUOUS
10
139.677
20
-31.5993
11
139.567
21
-31.4064
0
LINE
8
BLACK
6
CONTINUOUS
10
139.567
20
-31.4064
11
139.485
21
-31.1999
0
LINE
8
BLACK
6
CONTINUOUS
10
139.485
20
-31.1999
11
139.434
21
-30.9838
0
LINE
8
BLACK
6
CONTINUOUS
10
139.434
20
-30.9838
11
139.414
21
-30.7627
0
LINE
8
BLACK
6
CONTINUOUS
10
139.414
20
-30.7627
11
139.426
21
-30.5451
0
LINE
8
BLACK
6
CONTINUOUS
10
139.426
20
-30.5451
11
139.426
21
-30.5446
0
LINE
8
BLACK
6
CONTINUOUS
10
139.426
20
-30.5446
11
139.879
21
-24.6327
0
LINE
8
BLACK
6
CONTINUOUS
10
139.879
20
-24.6327
11
139.892
21
-24.4564
0
LINE
8
BLACK
6
CONTINUOUS
10
139.892
20
-24.4564
11
139.881
21
-24.1031
0
LINE
8
BLACK
6
CONTINUOUS
10
139.881
20
-24.1031
11
139.835
21
-23.7527
0
LINE
8
BLACK
6
CONTINUOUS
10
139.835
20
-23.7527
11
139.754
21
-23.4087
0
LINE
8
BLACK
6
CONTINUOUS
10
139.754
20
-23.4087
11
139.638
21
-23.0748
0
LINE
8
BLACK
6
CONTINUOUS
10
139.638
20
-23.0748
11
139.489
21
-22.7542
0
LINE
8
BLACK
6
CONTINUOUS
10
139.489
20
-22.7542
11
139.309
21
-22.4503
0
LINE
8
BLACK
6
CONTINUOUS
10
139.309
20
-22.4503
11
139.099
21
-22.1662
0
LINE
8
BLACK
6
CONTINUOUS
10
139.099
20
-22.1662
11
138.861
21
-21.9047
0
LINE
8
BLACK
6
CONTINUOUS
10
138.861
20
-21.9047
11
138.598
21
-21.6686
0
LINE
8
BLACK
6
CONTINUOUS
10
138.598
20
-21.6686
11
138.312
21
-21.4603
0
LINE
8
BLACK
6
CONTINUOUS
10
138.312
20
-21.4603
11
138.007
21
-21.2819
0
LINE
8
BLACK
6
CONTINUOUS
10
138.007
20
-21.2819
11
137.685
21
-21.1353
0
LINE
8
BLACK
6
CONTINUOUS
10
137.685
20
-21.1353
11
137.351
21
-21.0218
0
LINE
8
BLACK
6
CONTINUOUS
10
137.351
20
-21.0218
11
137.006
21
-20.9428
0
LINE
8
BLACK
6
CONTINUOUS
10
137.006
20
-20.9428
11
136.832
21
-20.9211
0
LINE
8
BLACK
6
CONTINUOUS
10
136.832
20
-20.9211
11
108.198
21
-18.6168
0
LINE
8
BLACK
6
CONTINUOUS
10
108.198
20
-18.6168
11
108.196
21
-18.6162
0
LINE
8
BLACK
6
CONTINUOUS
10
108.196
20
-18.6162
11
108.195
21
-18.6164
0
LINE
8
BLACK
6
CONTINUOUS
10
108.195
20
-18.6164
11
108.195
21
-18.6164
0
LINE
8
BLACK
6
CONTINUOUS
10
108.195
20
-18.6164
11
108.007
21
-18.593
0
LINE
8
BLACK
6
CONTINUOUS
10
108.007
20
-18.593
11
107.628
21
-18.5815
0
LINE
8
BLACK
6
CONTINUOUS
10
107.628
20
-18.5815
11
107.25
21
-18.6057
  0
ENDSEC
  0
EOF
