  0
SECTION
  2
HEADER
  9
$ANGBASE
  50
0.0
  9
$ANGDIR
  70
1
  9
$MEASUREMENT
  70
1
  0
ENDSEC
  0
SECTION
  2
TABLES
  0
TABLE
  2
LTYPE
  70
4
  0
LTYPE
  5
40F
  2
CONTINUOUS
  70
0
  3
Solid line
  72
65
  73
0
  40
0.0
  0
LTYPE
  5
410
  2
DASHDOT
 70
0
  3
Dash Dot ____ _ ____ _
 72
65
 73
4
 40
2.0
 49
1.25
 49
-0.25
 49
0.25
 49
-0.25
  0
LTYPE
  5
411
  2
DASHED
 70
0
  3
Dashed __ __ __ __ __
 72
65
 73
2
 40
0.75
 49
0.5
 49
-0.25
  0
LTYPE
  5
43B
  2
DOTTED
 70
0
  3
Dotted .  .  .  .
 72
65
 73
2
 40
0.2
 49
0.0
 49
-0.2
  0
ENDTAB
  0
TABLE
  2
STYLE
  70
4
  0
STYLE
  2
KICAD
  70
0
  40
0
  41
1
  42
1
  50
0
  71
0
  3
isocp.shx
  0
STYLE
  2
KICADB
  70
0
  40
0
  41
1
  42
1
  50
0
  71
0
  3
isocp.shx
  0
STYLE
  2
KICADI
  70
0
  40
0
  41
1
  42
1
  50
15
  71
0
  3
isocp.shx
  0
STYLE
  2
KICADBI
  70
0
  40
0
  41
1
  42
1
  50
15
  71
0
  3
isocp.shx
  0
ENDTAB
  0
TABLE
  2
LAYER
  70
1
  0
LAYER
  2
BLACK
  70
0
  62
7
  6
CONTINUOUS
  0
ENDTAB
  0
ENDSEC
  0
SECTION
  2
ENTITIES
0
LINE
8
BLACK
6
CONTINUOUS
10
107.05
20
-18.6883
11
107.05
21
-18.6883
0
LINE
8
BLACK
6
CONTINUOUS
10
107.05
20
-18.6883
11
136.845
21
-20.7717
0
LINE
8
BLACK
6
CONTINUOUS
10
136.845
20
-20.7717
11
136.848
21
-20.7724
0
LINE
8
BLACK
6
CONTINUOUS
10
136.848
20
-20.7724
11
136.85
21
-20.7721
0
LINE
8
BLACK
6
CONTINUOUS
10
136.85
20
-20.7721
11
137.212
21
-20.8362
0
LINE
8
BLACK
6
CONTINUOUS
10
137.212
20
-20.8362
11
137.566
21
-20.9366
0
LINE
8
BLACK
6
CONTINUOUS
10
137.566
20
-20.9366
11
137.909
21
-21.0722
0
LINE
8
BLACK
6
CONTINUOUS
10
137.909
20
-21.0722
11
138.235
21
-21.2417
0
LINE
8
BLACK
6
CONTINUOUS
10
138.235
20
-21.2417
11
138.543
21
-21.4434
0
LINE
8
BLACK
6
CONTINUOUS
10
138.543
20
-21.4434
11
138.829
21
-21.6751
0
LINE
8
BLACK
6
CONTINUOUS
10
138.829
20
-21.6751
11
139.091
21
-21.9346
0
LINE
8
BLACK
6
CONTINUOUS
10
139.091
20
-21.9346
11
139.324
21
-22.2191
0
LINE
8
BLACK
6
CONTINUOUS
10
139.324
20
-22.2191
11
139.528
21
-22.5257
0
LINE
8
BLACK
6
CONTINUOUS
10
139.528
20
-22.5257
11
139.7
21
-22.8514
0
LINE
8
BLACK
6
CONTINUOUS
10
139.7
20
-22.8514
11
139.838
21
-23.1927
0
LINE
8
BLACK
6
CONTINUOUS
10
139.838
20
-23.1927
11
139.94
21
-23.5463
0
LINE
8
BLACK
6
CONTINUOUS
10
139.94
20
-23.5463
11
140.007
21
-23.9084
0
LINE
8
BLACK
6
CONTINUOUS
10
140.007
20
-23.9084
11
140.037
21
-24.2753
0
LINE
8
BLACK
6
CONTINUOUS
10
140.037
20
-24.2753
11
140.029
21
-24.6434
0
LINE
8
BLACK
6
CONTINUOUS
10
140.029
20
-24.6434
11
140.029
21
-24.6434
0
LINE
8
BLACK
6
CONTINUOUS
10
140.029
20
-24.6434
11
140.029
21
-24.6436
0
LINE
8
BLACK
6
CONTINUOUS
10
140.029
20
-24.6436
11
140.029
21
-24.6438
0
LINE
8
BLACK
6
CONTINUOUS
10
140.029
20
-24.6438
11
139.575
21
-30.5561
0
LINE
8
BLACK
6
CONTINUOUS
10
139.575
20
-30.5561
11
139.575
21
-30.5584
0
LINE
8
BLACK
6
CONTINUOUS
10
139.575
20
-30.5584
11
139.575
21
-30.5597
0
LINE
8
BLACK
6
CONTINUOUS
10
139.575
20
-30.5597
11
139.575
21
-30.5597
0
LINE
8
BLACK
6
CONTINUOUS
10
139.575
20
-30.5597
11
139.561
21
-30.6695
0
LINE
8
BLACK
6
CONTINUOUS
10
139.561
20
-30.6695
11
139.568
21
-30.8907
0
LINE
8
BLACK
6
CONTINUOUS
10
139.568
20
-30.8907
11
139.61
21
-31.108
0
LINE
8
BLACK
6
CONTINUOUS
10
139.61
20
-31.108
11
139.685
21
-31.3161
0
LINE
8
BLACK
6
CONTINUOUS
10
139.685
20
-31.3161
11
139.792
21
-31.5099
0
LINE
8
BLACK
6
CONTINUOUS
10
139.792
20
-31.5099
11
139.928
21
-31.6846
0
LINE
8
BLACK
6
CONTINUOUS
10
139.928
20
-31.6846
11
140.09
21
-31.8359
0
LINE
8
BLACK
6
CONTINUOUS
10
140.09
20
-31.8359
11
140.273
21
-31.9601
0
LINE
8
BLACK
6
CONTINUOUS
10
140.273
20
-31.9601
11
140.473
21
-32.0541
0
LINE
8
BLACK
6
CONTINUOUS
10
140.473
20
-32.0541
11
140.686
21
-32.1155
0
LINE
8
BLACK
6
CONTINUOUS
10
140.686
20
-32.1155
11
140.795
21
-32.1292
0
LINE
8
BLACK
6
CONTINUOUS
10
140.795
20
-32.1292
11
156.472
21
-33.8436
0
LINE
8
BLACK
6
CONTINUOUS
10
156.472
20
-33.8436
11
156.479
21
-33.8455
0
LINE
8
BLACK
6
CONTINUOUS
10
156.479
20
-33.8455
11
156.482
21
-33.8452
0
LINE
8
BLACK
6
CONTINUOUS
10
156.482
20
-33.8452
11
156.482
21
-33.8452
0
LINE
8
BLACK
6
CONTINUOUS
10
156.482
20
-33.8452
11
156.861
21
-33.9556
0
LINE
8
BLACK
6
CONTINUOUS
10
156.861
20
-33.9556
11
157.228
21
-34.0997
0
LINE
8
BLACK
6
CONTINUOUS
10
157.228
20
-34.0997
11
157.581
21
-34.2763
0
LINE
8
BLACK
6
CONTINUOUS
10
157.581
20
-34.2763
11
157.917
21
-34.484
0
LINE
8
BLACK
6
CONTINUOUS
10
157.917
20
-34.484
11
158.233
21
-34.7211
0
LINE
8
BLACK
6
CONTINUOUS
10
158.233
20
-34.7211
11
158.526
21
-34.9857
0
LINE
8
BLACK
6
CONTINUOUS
10
158.526
20
-34.9857
11
158.794
21
-35.2756
0
LINE
8
BLACK
6
CONTINUOUS
10
158.794
20
-35.2756
11
159.035
21
-35.5884
0
LINE
8
BLACK
6
CONTINUOUS
10
159.035
20
-35.5884
11
159.246
21
-35.9217
0
LINE
8
BLACK
6
CONTINUOUS
10
159.246
20
-35.9217
11
159.427
21
-36.2727
0
LINE
8
BLACK
6
CONTINUOUS
10
159.427
20
-36.2727
11
159.576
21
-36.6385
0
LINE
8
BLACK
6
CONTINUOUS
10
159.576
20
-36.6385
11
159.69
21
-37.0162
0
LINE
8
BLACK
6
CONTINUOUS
10
159.69
20
-37.0162
11
159.771
21
-37.4028
0
LINE
8
BLACK
6
CONTINUOUS
10
159.771
20
-37.4028
11
159.816
21
-37.795
0
LINE
8
BLACK
6
CONTINUOUS
10
159.816
20
-37.795
11
159.826
21
-38.1897
0
LINE
8
BLACK
6
CONTINUOUS
10
159.826
20
-38.1897
11
159.8
21
-38.5836
0
LINE
8
BLACK
6
CONTINUOUS
10
159.8
20
-38.5836
11
159.8
21
-38.5836
0
LINE
8
BLACK
6
CONTINUOUS
10
159.8
20
-38.5836
11
159.8
21
-38.5837
0
LINE
8
BLACK
6
CONTINUOUS
10
159.8
20
-38.5837
11
159.8
21
-38.5839
0
LINE
8
BLACK
6
CONTINUOUS
10
159.8
20
-38.5839
11
158.563
21
-49.3256
0
LINE
8
BLACK
6
CONTINUOUS
10
158.563
20
-49.3256
11
158.562
21
-49.3281
0
LINE
8
BLACK
6
CONTINUOUS
10
158.562
20
-49.3281
11
158.562
21
-49.3294
0
LINE
8
BLACK
6
CONTINUOUS
10
158.562
20
-49.3294
11
158.562
21
-49.3294
0
LINE
8
BLACK
6
CONTINUOUS
10
158.562
20
-49.3294
11
158.545
21
-49.4325
0
LINE
8
BLACK
6
CONTINUOUS
10
158.545
20
-49.4325
11
158.547
21
-49.6416
0
LINE
8
BLACK
6
CONTINUOUS
10
158.547
20
-49.6416
11
158.583
21
-49.8474
0
LINE
8
BLACK
6
CONTINUOUS
10
158.583
20
-49.8474
11
158.655
21
-50.044
0
LINE
8
BLACK
6
CONTINUOUS
10
158.655
20
-50.044
11
158.758
21
-50.2256
0
LINE
8
BLACK
6
CONTINUOUS
10
158.758
20
-50.2256
11
158.891
21
-50.3869
0
LINE
8
BLACK
6
CONTINUOUS
10
158.891
20
-50.3869
11
159.05
21
-50.5232
0
LINE
8
BLACK
6
CONTINUOUS
10
159.05
20
-50.5232
11
159.229
21
-50.6306
0
LINE
8
BLACK
6
CONTINUOUS
10
159.229
20
-50.6306
11
159.424
21
-50.7059
0
LINE
8
BLACK
6
CONTINUOUS
10
159.424
20
-50.7059
11
159.525
21
-50.7261
0
LINE
8
BLACK
6
CONTINUOUS
10
159.525
20
-50.7261
11
174.561
21
-52.9908
0
LINE
8
BLACK
6
CONTINUOUS
10
174.561
20
-52.9908
11
174.566
21
-52.9924
0
LINE
8
BLACK
6
CONTINUOUS
10
174.566
20
-52.9924
11
174.568
21
-52.9923
0
LINE
8
BLACK
6
CONTINUOUS
10
174.568
20
-52.9923
11
174.904
21
-53.094
0
LINE
8
BLACK
6
CONTINUOUS
10
174.904
20
-53.094
11
175.229
21
-53.227
0
LINE
8
BLACK
6
CONTINUOUS
10
175.229
20
-53.227
11
175.54
21
-53.39
0
LINE
8
BLACK
6
CONTINUOUS
10
175.54
20
-53.39
11
175.834
21
-53.5817
0
LINE
8
BLACK
6
CONTINUOUS
10
175.834
20
-53.5817
11
176.108
21
-53.8002
0
LINE
8
BLACK
6
CONTINUOUS
10
176.108
20
-53.8002
11
176.361
21
-54.0437
0
LINE
8
BLACK
6
CONTINUOUS
10
176.361
20
-54.0437
11
176.589
21
-54.31
0
LINE
8
BLACK
6
CONTINUOUS
10
176.589
20
-54.31
11
176.792
21
-54.5966
0
LINE
8
BLACK
6
CONTINUOUS
10
176.792
20
-54.5966
11
176.966
21
-54.9011
0
LINE
8
BLACK
6
CONTINUOUS
10
176.966
20
-54.9011
11
177.111
21
-55.2207
0
LINE
8
BLACK
6
CONTINUOUS
10
177.111
20
-55.2207
11
177.225
21
-55.5525
0
LINE
8
BLACK
6
CONTINUOUS
10
177.225
20
-55.5525
11
177.307
21
-55.8937
0
LINE
8
BLACK
6
CONTINUOUS
10
177.307
20
-55.8937
11
177.357
21
-56.241
0
LINE
8
BLACK
6
CONTINUOUS
10
177.357
20
-56.241
11
177.373
21
-56.5915
0
LINE
8
BLACK
6
CONTINUOUS
10
177.373
20
-56.5915
11
177.373
21
-56.5915
0
LINE
8
BLACK
6
CONTINUOUS
10
177.373
20
-56.5915
11
177.372
21
-56.5955
0
LINE
8
BLACK
6
CONTINUOUS
10
177.372
20
-56.5955
11
177.373
21
-56.599
0
LINE
8
BLACK
6
CONTINUOUS
10
177.373
20
-56.599
11
176.859
21
-61.7295
0
LINE
8
BLACK
6
CONTINUOUS
10
176.859
20
-61.7295
11
176.857
21
-61.7344
0
LINE
8
BLACK
6
CONTINUOUS
10
176.857
20
-61.7344
11
176.858
21
-61.7368
0
LINE
8
BLACK
6
CONTINUOUS
10
176.858
20
-61.7368
11
176.858
21
-61.7368
0
LINE
8
BLACK
6
CONTINUOUS
10
176.858
20
-61.7368
11
176.839
21
-61.8309
0
LINE
8
BLACK
6
CONTINUOUS
10
176.839
20
-61.8309
11
176.831
21
-62.0228
0
LINE
8
BLACK
6
CONTINUOUS
10
176.831
20
-62.0228
11
176.853
21
-62.2136
0
LINE
8
BLACK
6
CONTINUOUS
10
176.853
20
-62.2136
11
176.905
21
-62.3985
0
LINE
8
BLACK
6
CONTINUOUS
10
176.905
20
-62.3985
11
176.986
21
-62.573
0
LINE
8
BLACK
6
CONTINUOUS
10
176.986
20
-62.573
11
177.092
21
-62.7328
0
LINE
8
BLACK
6
CONTINUOUS
10
177.092
20
-62.7328
11
177.222
21
-62.874
0
LINE
8
BLACK
6
CONTINUOUS
10
177.222
20
-62.874
11
177.373
21
-62.993
0
LINE
8
BLACK
6
CONTINUOUS
10
177.373
20
-62.993
11
177.54
21
-63.087
0
LINE
8
BLACK
6
CONTINUOUS
10
177.54
20
-63.087
11
177.721
21
-63.1537
0
LINE
8
BLACK
6
CONTINUOUS
10
177.721
20
-63.1537
11
177.814
21
-63.1724
0
LINE
8
BLACK
6
CONTINUOUS
10
177.814
20
-63.1724
11
191.976
21
-65.7329
0
LINE
8
BLACK
6
CONTINUOUS
10
191.976
20
-65.7329
11
191.978
21
-65.7336
0
LINE
8
BLACK
6
CONTINUOUS
10
191.978
20
-65.7336
11
191.979
21
-65.7335
0
LINE
8
BLACK
6
CONTINUOUS
10
191.979
20
-65.7335
11
192.373
21
-65.8399
0
LINE
8
BLACK
6
CONTINUOUS
10
192.373
20
-65.8399
11
192.755
21
-65.9817
0
LINE
8
BLACK
6
CONTINUOUS
10
192.755
20
-65.9817
11
193.122
21
-66.1576
0
LINE
8
BLACK
6
CONTINUOUS
10
193.122
20
-66.1576
11
193.473
21
-66.3662
0
LINE
8
BLACK
6
CONTINUOUS
10
193.473
20
-66.3662
11
193.802
21
-66.6058
0
LINE
8
BLACK
6
CONTINUOUS
10
193.802
20
-66.6058
11
194.109
21
-66.8744
0
LINE
8
BLACK
6
CONTINUOUS
10
194.109
20
-66.8744
11
194.39
21
-67.1697
0
LINE
8
BLACK
6
CONTINUOUS
10
194.39
20
-67.1697
11
194.642
21
-67.4894
0
LINE
8
BLACK
6
CONTINUOUS
10
194.642
20
-67.4894
11
194.865
21
-67.8307
0
LINE
8
BLACK
6
CONTINUOUS
10
194.865
20
-67.8307
11
195.056
21
-68.1908
0
LINE
8
BLACK
6
CONTINUOUS
10
195.056
20
-68.1908
11
195.213
21
-68.5668
0
LINE
8
BLACK
6
CONTINUOUS
10
195.213
20
-68.5668
11
195.335
21
-68.9556
0
LINE
8
BLACK
6
CONTINUOUS
10
195.335
20
-68.9556
11
195.422
21
-69.3539
0
LINE
8
BLACK
6
CONTINUOUS
10
195.422
20
-69.3539
11
195.472
21
-69.7583
0
LINE
8
BLACK
6
CONTINUOUS
10
195.472
20
-69.7583
11
195.485
21
-70.1657
0
LINE
8
BLACK
6
CONTINUOUS
10
195.485
20
-70.1657
11
195.461
21
-70.5725
0
LINE
8
BLACK
6
CONTINUOUS
10
195.461
20
-70.5725
11
195.4
21
-70.9755
0
LINE
8
BLACK
6
CONTINUOUS
10
195.4
20
-70.9755
11
195.4
21
-70.9755
0
LINE
8
BLACK
6
CONTINUOUS
10
195.4
20
-70.9755
11
187.514
21
-114.691
0
LINE
8
BLACK
6
CONTINUOUS
10
187.514
20
-114.691
11
187.512
21
-114.694
0
LINE
8
BLACK
6
CONTINUOUS
10
187.512
20
-114.694
11
187.513
21
-114.696
0
LINE
8
BLACK
6
CONTINUOUS
10
187.513
20
-114.696
11
187.382
21
-115.141
0
LINE
8
BLACK
6
CONTINUOUS
10
187.382
20
-115.141
11
187.217
21
-115.574
0
LINE
8
BLACK
6
CONTINUOUS
10
187.217
20
-115.574
11
187.018
21
-115.992
0
LINE
8
BLACK
6
CONTINUOUS
10
187.018
20
-115.992
11
186.787
21
-116.393
0
LINE
8
BLACK
6
CONTINUOUS
10
186.787
20
-116.393
11
186.524
21
-116.775
0
LINE
8
BLACK
6
CONTINUOUS
10
186.524
20
-116.775
11
186.232
21
-117.134
0
LINE
8
BLACK
6
CONTINUOUS
10
186.232
20
-117.134
11
185.912
21
-117.469
0
LINE
8
BLACK
6
CONTINUOUS
10
185.912
20
-117.469
11
185.567
21
-117.778
0
LINE
8
BLACK
6
CONTINUOUS
10
185.567
20
-117.778
11
185.198
21
-118.058
0
LINE
8
BLACK
6
CONTINUOUS
10
185.198
20
-118.058
11
184.808
21
-118.308
0
LINE
8
BLACK
6
CONTINUOUS
10
184.808
20
-118.308
11
184.399
21
-118.526
0
LINE
8
BLACK
6
CONTINUOUS
10
184.399
20
-118.526
11
183.974
21
-118.711
0
LINE
8
BLACK
6
CONTINUOUS
10
183.974
20
-118.711
11
183.536
21
-118.861
0
LINE
8
BLACK
6
CONTINUOUS
10
183.536
20
-118.861
11
183.088
21
-118.976
0
LINE
8
BLACK
6
CONTINUOUS
10
183.088
20
-118.976
11
183.088
21
-118.976
0
LINE
8
BLACK
6
CONTINUOUS
10
183.088
20
-118.976
11
183.085
21
-118.976
0
LINE
8
BLACK
6
CONTINUOUS
10
183.085
20
-118.976
11
183.083
21
-118.977
0
LINE
8
BLACK
6
CONTINUOUS
10
183.083
20
-118.977
11
112.362
21
-130.11
0
LINE
8
BLACK
6
CONTINUOUS
10
112.362
20
-130.11
11
112.362
21
-130.11
0
LINE
8
BLACK
6
CONTINUOUS
10
112.362
20
-130.11
11
111.575
21
-130.226
0
LINE
8
BLACK
6
CONTINUOUS
10
111.575
20
-130.226
11
110.782
21
-130.311
0
LINE
8
BLACK
6
CONTINUOUS
10
110.782
20
-130.311
11
109.987
21
-130.366
0
LINE
8
BLACK
6
CONTINUOUS
10
109.987
20
-130.366
11
109.191
21
-130.39
0
LINE
8
BLACK
6
CONTINUOUS
10
109.191
20
-130.39
11
108.394
21
-130.383
0
LINE
8
BLACK
6
CONTINUOUS
10
108.394
20
-130.383
11
107.598
21
-130.346
0
LINE
8
BLACK
6
CONTINUOUS
10
107.598
20
-130.346
11
106.804
21
-130.278
0
LINE
8
BLACK
6
CONTINUOUS
10
106.804
20
-130.278
11
106.804
21
-130.278
0
LINE
8
BLACK
6
CONTINUOUS
10
106.804
20
-130.278
11
106.801
21
-130.276
0
LINE
8
BLACK
6
CONTINUOUS
10
106.801
20
-130.276
11
106.797
21
-130.277
0
LINE
8
BLACK
6
CONTINUOUS
10
106.797
20
-130.277
11
94.3609
21
-127.75
0
LINE
8
BLACK
6
CONTINUOUS
10
94.3609
20
-127.75
11
93.7843
21
-127.654
0
LINE
8
BLACK
6
CONTINUOUS
10
93.7843
20
-127.654
11
92.6233
21
-127.499
0
LINE
8
BLACK
6
CONTINUOUS
10
92.6233
20
-127.499
11
91.458
21
-127.379
0
LINE
8
BLACK
6
CONTINUOUS
10
91.458
20
-127.379
11
90.2896
21
-127.295
0
LINE
8
BLACK
6
CONTINUOUS
10
90.2896
20
-127.295
11
89.1192
21
-127.246
0
LINE
8
BLACK
6
CONTINUOUS
10
89.1192
20
-127.246
11
87.9479
21
-127.234
0
LINE
8
BLACK
6
CONTINUOUS
10
87.9479
20
-127.234
11
86.7767
21
-127.258
0
LINE
8
BLACK
6
CONTINUOUS
10
86.7767
20
-127.258
11
85.6068
21
-127.318
0
LINE
8
BLACK
6
CONTINUOUS
10
85.6068
20
-127.318
11
84.4393
21
-127.414
0
LINE
8
BLACK
6
CONTINUOUS
10
84.4393
20
-127.414
11
83.2753
21
-127.545
0
LINE
8
BLACK
6
CONTINUOUS
10
83.2753
20
-127.545
11
82.1159
21
-127.712
0
LINE
8
BLACK
6
CONTINUOUS
10
82.1159
20
-127.712
11
80.9621
21
-127.915
0
LINE
8
BLACK
6
CONTINUOUS
10
80.9621
20
-127.915
11
79.8152
21
-128.153
0
LINE
8
BLACK
6
CONTINUOUS
10
79.8152
20
-128.153
11
78.6761
21
-128.427
0
LINE
8
BLACK
6
CONTINUOUS
10
78.6761
20
-128.427
11
77.5459
21
-128.735
0
LINE
8
BLACK
6
CONTINUOUS
10
77.5459
20
-128.735
11
76.4258
21
-129.078
0
LINE
8
BLACK
6
CONTINUOUS
10
76.4258
20
-129.078
11
75.3167
21
-129.455
0
LINE
8
BLACK
6
CONTINUOUS
10
75.3167
20
-129.455
11
74.2197
21
-129.866
0
LINE
8
BLACK
6
CONTINUOUS
10
74.2197
20
-129.866
11
73.1358
21
-130.31
0
LINE
8
BLACK
6
CONTINUOUS
10
73.1358
20
-130.31
11
72.0661
21
-130.787
0
LINE
8
BLACK
6
CONTINUOUS
10
72.0661
20
-130.787
11
71.0116
21
-131.298
0
LINE
8
BLACK
6
CONTINUOUS
10
71.0116
20
-131.298
11
69.9733
21
-131.84
0
LINE
8
BLACK
6
CONTINUOUS
10
69.9733
20
-131.84
11
68.9521
21
-132.414
0
LINE
8
BLACK
6
CONTINUOUS
10
68.9521
20
-132.414
11
67.9491
21
-133.019
0
LINE
8
BLACK
6
CONTINUOUS
10
67.9491
20
-133.019
11
66.9651
21
-133.654
0
LINE
8
BLACK
6
CONTINUOUS
10
66.9651
20
-133.654
11
66.0011
21
-134.32
0
LINE
8
BLACK
6
CONTINUOUS
10
66.0011
20
-134.32
11
65.058
21
-135.015
0
LINE
8
BLACK
6
CONTINUOUS
10
65.058
20
-135.015
11
64.1367
21
-135.738
0
LINE
8
BLACK
6
CONTINUOUS
10
64.1367
20
-135.738
11
63.6888
21
-136.113
0
LINE
8
BLACK
6
CONTINUOUS
10
63.6888
20
-136.113
11
56.185
21
-143.057
0
LINE
8
BLACK
6
CONTINUOUS
10
56.185
20
-143.057
11
56.1838
21
-143.058
0
LINE
8
BLACK
6
CONTINUOUS
10
56.1838
20
-143.058
11
56.1834
21
-143.059
0
LINE
8
BLACK
6
CONTINUOUS
10
56.1834
20
-143.059
11
55.8309
21
-143.342
0
LINE
8
BLACK
6
CONTINUOUS
10
55.8309
20
-143.342
11
55.4561
21
-143.596
0
LINE
8
BLACK
6
CONTINUOUS
10
55.4561
20
-143.596
11
55.0616
21
-143.817
0
LINE
8
BLACK
6
CONTINUOUS
10
55.0616
20
-143.817
11
54.6502
21
-144.006
0
LINE
8
BLACK
6
CONTINUOUS
10
54.6502
20
-144.006
11
54.2246
21
-144.16
0
LINE
8
BLACK
6
CONTINUOUS
10
54.2246
20
-144.16
11
53.7878
21
-144.278
0
LINE
8
BLACK
6
CONTINUOUS
10
53.7878
20
-144.278
11
53.3427
21
-144.36
0
LINE
8
BLACK
6
CONTINUOUS
10
53.3427
20
-144.36
11
52.8924
21
-144.404
0
LINE
8
BLACK
6
CONTINUOUS
10
52.8924
20
-144.404
11
52.4399
21
-144.411
0
LINE
8
BLACK
6
CONTINUOUS
10
52.4399
20
-144.411
11
51.9884
21
-144.381
0
LINE
8
BLACK
6
CONTINUOUS
10
51.9884
20
-144.381
11
51.5409
21
-144.314
0
LINE
8
BLACK
6
CONTINUOUS
10
51.5409
20
-144.314
11
51.1005
21
-144.21
0
LINE
8
BLACK
6
CONTINUOUS
10
51.1005
20
-144.21
11
50.6702
21
-144.07
0
LINE
8
BLACK
6
CONTINUOUS
10
50.6702
20
-144.07
11
50.2529
21
-143.895
0
LINE
8
BLACK
6
CONTINUOUS
10
50.2529
20
-143.895
11
49.8515
21
-143.686
0
LINE
8
BLACK
6
CONTINUOUS
10
49.8515
20
-143.686
11
49.4688
21
-143.445
0
LINE
8
BLACK
6
CONTINUOUS
10
49.4688
20
-143.445
11
49.1072
21
-143.172
0
LINE
8
BLACK
6
CONTINUOUS
10
49.1072
20
-143.172
11
48.7694
21
-142.871
0
LINE
8
BLACK
6
CONTINUOUS
10
48.7694
20
-142.871
11
48.4576
21
-142.543
0
LINE
8
BLACK
6
CONTINUOUS
10
48.4576
20
-142.543
11
48.4576
21
-142.543
0
LINE
8
BLACK
6
CONTINUOUS
10
48.4576
20
-142.543
11
48.4572
21
-142.542
0
LINE
8
BLACK
6
CONTINUOUS
10
48.4572
20
-142.542
11
48.4564
21
-142.542
0
LINE
8
BLACK
6
CONTINUOUS
10
48.4564
20
-142.542
11
30.9304
21
-121.46
0
LINE
8
BLACK
6
CONTINUOUS
10
30.9304
20
-121.46
11
30.9291
21
-121.458
0
LINE
8
BLACK
6
CONTINUOUS
10
30.9291
20
-121.458
11
30.928
21
-121.457
0
LINE
8
BLACK
6
CONTINUOUS
10
30.928
20
-121.457
11
30.7721
21
-121.224
0
LINE
8
BLACK
6
CONTINUOUS
10
30.7721
20
-121.224
11
30.642
21
-120.976
0
LINE
8
BLACK
6
CONTINUOUS
10
30.642
20
-120.976
11
30.5392
21
-120.715
0
LINE
8
BLACK
6
CONTINUOUS
10
30.5392
20
-120.715
11
30.465
21
-120.445
0
LINE
8
BLACK
6
CONTINUOUS
10
30.465
20
-120.445
11
30.4201
21
-120.168
0
LINE
8
BLACK
6
CONTINUOUS
10
30.4201
20
-120.168
11
30.405
21
-119.888
0
LINE
8
BLACK
6
CONTINUOUS
10
30.405
20
-119.888
11
30.405
21
-119.888
0
LINE
8
BLACK
6
CONTINUOUS
10
30.405
20
-119.888
11
30.405
21
-119.888
0
LINE
8
BLACK
6
CONTINUOUS
10
30.405
20
-119.888
11
30.405
21
-119.888
0
LINE
8
BLACK
6
CONTINUOUS
10
30.405
20
-119.888
11
30.405
21
-35.5601
0
LINE
8
BLACK
6
CONTINUOUS
10
30.405
20
-35.5601
11
30.405
21
-35.5601
0
LINE
8
BLACK
6
CONTINUOUS
10
30.405
20
-35.5601
11
30.405
21
-35.5601
0
LINE
8
BLACK
6
CONTINUOUS
10
30.405
20
-35.5601
11
30.4215
21
-35.2673
0
LINE
8
BLACK
6
CONTINUOUS
10
30.4215
20
-35.2673
11
30.4706
21
-34.9782
0
LINE
8
BLACK
6
CONTINUOUS
10
30.4706
20
-34.9782
11
30.5518
21
-34.6964
0
LINE
8
BLACK
6
CONTINUOUS
10
30.5518
20
-34.6964
11
30.664
21
-34.4255
0
LINE
8
BLACK
6
CONTINUOUS
10
30.664
20
-34.4255
11
30.8059
21
-34.1688
0
LINE
8
BLACK
6
CONTINUOUS
10
30.8059
20
-34.1688
11
30.9756
21
-33.9297
0
LINE
8
BLACK
6
CONTINUOUS
10
30.9756
20
-33.9297
11
31.171
21
-33.711
0
LINE
8
BLACK
6
CONTINUOUS
10
31.171
20
-33.711
11
31.3896
21
-33.5156
0
LINE
8
BLACK
6
CONTINUOUS
10
31.3896
20
-33.5156
11
31.6288
21
-33.3459
0
LINE
8
BLACK
6
CONTINUOUS
10
31.6288
20
-33.3459
11
31.8855
21
-33.2041
0
LINE
8
BLACK
6
CONTINUOUS
10
31.8855
20
-33.2041
11
32.1564
21
-33.0918
0
LINE
8
BLACK
6
CONTINUOUS
10
32.1564
20
-33.0918
11
32.4382
21
-33.0106
0
LINE
8
BLACK
6
CONTINUOUS
10
32.4382
20
-33.0106
11
32.7273
21
-32.9615
0
LINE
8
BLACK
6
CONTINUOUS
10
32.7273
20
-32.9615
11
33.02
21
-32.9451
0
LINE
8
BLACK
6
CONTINUOUS
10
33.02
20
-32.9451
11
33.02
21
-32.9451
0
LINE
8
BLACK
6
CONTINUOUS
10
33.02
20
-32.9451
11
33.02
21
-32.9451
0
LINE
8
BLACK
6
CONTINUOUS
10
33.02
20
-32.9451
11
33.02
21
-32.9451
0
LINE
8
BLACK
6
CONTINUOUS
10
33.02
20
-32.9451
11
81.2801
21
-32.9451
0
LINE
8
BLACK
6
CONTINUOUS
10
81.2801
20
-32.9451
11
81.2801
21
-32.9451
0
LINE
8
BLACK
6
CONTINUOUS
10
81.2801
20
-32.9451
11
81.2801
21
-32.9451
0
LINE
8
BLACK
6
CONTINUOUS
10
81.2801
20
-32.9451
11
81.2801
21
-32.945
0
LINE
8
BLACK
6
CONTINUOUS
10
81.2801
20
-32.945
11
81.3935
21
-32.9451
0
LINE
8
BLACK
6
CONTINUOUS
10
81.3935
20
-32.9451
11
81.6178
21
-32.9098
0
LINE
8
BLACK
6
CONTINUOUS
10
81.6178
20
-32.9098
11
81.8338
21
-32.8401
0
LINE
8
BLACK
6
CONTINUOUS
10
81.8338
20
-32.8401
11
82.0363
21
-32.7376
0
LINE
8
BLACK
6
CONTINUOUS
10
82.0363
20
-32.7376
11
82.2204
21
-32.6048
0
LINE
8
BLACK
6
CONTINUOUS
10
82.2204
20
-32.6048
11
82.3816
21
-32.445
0
LINE
8
BLACK
6
CONTINUOUS
10
82.3816
20
-32.445
11
82.516
21
-32.2621
0
LINE
8
BLACK
6
CONTINUOUS
10
82.516
20
-32.2621
11
82.6203
21
-32.0605
0
LINE
8
BLACK
6
CONTINUOUS
10
82.6203
20
-32.0605
11
82.692
21
-31.8451
0
LINE
8
BLACK
6
CONTINUOUS
10
82.692
20
-31.8451
11
82.71
21
-31.7369
0
LINE
8
BLACK
6
CONTINUOUS
10
82.71
20
-31.7369
11
82.8939
21
-28.9316
0
LINE
8
BLACK
6
CONTINUOUS
10
82.8939
20
-28.9316
11
82.8959
21
-28.9236
0
LINE
8
BLACK
6
CONTINUOUS
10
82.8959
20
-28.9236
11
82.8956
21
-28.9203
0
LINE
8
BLACK
6
CONTINUOUS
10
82.8956
20
-28.9203
11
82.9775
21
-28.6333
0
LINE
8
BLACK
6
CONTINUOUS
10
82.9775
20
-28.6333
11
83.0929
21
-28.3582
0
LINE
8
BLACK
6
CONTINUOUS
10
83.0929
20
-28.3582
11
83.2401
21
-28.0986
0
LINE
8
BLACK
6
CONTINUOUS
10
83.2401
20
-28.0986
11
83.4172
21
-27.8584
0
LINE
8
BLACK
6
CONTINUOUS
10
83.4172
20
-27.8584
11
83.6215
21
-27.641
0
LINE
8
BLACK
6
CONTINUOUS
10
83.6215
20
-27.641
11
83.8502
21
-27.4493
0
LINE
8
BLACK
6
CONTINUOUS
10
83.8502
20
-27.4493
11
84.1
21
-27.2862
0
LINE
8
BLACK
6
CONTINUOUS
10
84.1
20
-27.2862
11
84.3675
21
-27.1538
0
LINE
8
BLACK
6
CONTINUOUS
10
84.3675
20
-27.1538
11
84.6487
21
-27.0542
0
LINE
8
BLACK
6
CONTINUOUS
10
84.6487
20
-27.0542
11
84.9398
21
-26.9887
0
LINE
8
BLACK
6
CONTINUOUS
10
84.9398
20
-26.9887
11
85.2367
21
-26.9582
0
LINE
8
BLACK
6
CONTINUOUS
10
85.2367
20
-26.9582
11
85.2393
21
-26.959
0
LINE
8
BLACK
6
CONTINUOUS
10
85.2393
20
-26.959
11
85.2417
21
-26.9582
0
LINE
8
BLACK
6
CONTINUOUS
10
85.2417
20
-26.9582
11
101.602
21
-27.3571
0
LINE
8
BLACK
6
CONTINUOUS
10
101.602
20
-27.3571
11
101.602
21
-27.3571
0
LINE
8
BLACK
6
CONTINUOUS
10
101.602
20
-27.3571
11
101.722
21
-27.3571
0
LINE
8
BLACK
6
CONTINUOUS
10
101.722
20
-27.3571
11
101.963
21
-27.3224
0
LINE
8
BLACK
6
CONTINUOUS
10
101.963
20
-27.3224
11
102.197
21
-27.2537
0
LINE
8
BLACK
6
CONTINUOUS
10
102.197
20
-27.2537
11
102.419
21
-27.1524
0
LINE
8
BLACK
6
CONTINUOUS
10
102.419
20
-27.1524
11
102.624
21
-27.0205
0
LINE
8
BLACK
6
CONTINUOUS
10
102.624
20
-27.0205
11
102.808
21
-26.8608
0
LINE
8
BLACK
6
CONTINUOUS
10
102.808
20
-26.8608
11
102.967
21
-26.6765
0
LINE
8
BLACK
6
CONTINUOUS
10
102.967
20
-26.6765
11
103.099
21
-26.4713
0
LINE
8
BLACK
6
CONTINUOUS
10
103.099
20
-26.4713
11
103.2
21
-26.2495
0
LINE
8
BLACK
6
CONTINUOUS
10
103.2
20
-26.2495
11
103.269
21
-26.0156
0
LINE
8
BLACK
6
CONTINUOUS
10
103.269
20
-26.0156
11
103.286
21
-25.8969
0
LINE
8
BLACK
6
CONTINUOUS
10
103.286
20
-25.8969
11
103.685
21
-21.3295
0
LINE
8
BLACK
6
CONTINUOUS
10
103.685
20
-21.3295
11
103.686
21
-21.3256
0
LINE
8
BLACK
6
CONTINUOUS
10
103.686
20
-21.3256
11
103.685
21
-21.3237
0
LINE
8
BLACK
6
CONTINUOUS
10
103.685
20
-21.3237
11
103.685
21
-21.3237
0
LINE
8
BLACK
6
CONTINUOUS
10
103.685
20
-21.3237
11
103.758
21
-20.9966
0
LINE
8
BLACK
6
CONTINUOUS
10
103.758
20
-20.9966
11
103.865
21
-20.6791
0
LINE
8
BLACK
6
CONTINUOUS
10
103.865
20
-20.6791
11
104.004
21
-20.3746
0
LINE
8
BLACK
6
CONTINUOUS
10
104.004
20
-20.3746
11
104.175
21
-20.0865
0
LINE
8
BLACK
6
CONTINUOUS
10
104.175
20
-20.0865
11
104.376
21
-19.8182
0
LINE
8
BLACK
6
CONTINUOUS
10
104.376
20
-19.8182
11
104.603
21
-19.5725
0
LINE
8
BLACK
6
CONTINUOUS
10
104.603
20
-19.5725
11
104.856
21
-19.3523
0
LINE
8
BLACK
6
CONTINUOUS
10
104.856
20
-19.3523
11
105.13
21
-19.16
0
LINE
8
BLACK
6
CONTINUOUS
10
105.13
20
-19.16
11
105.423
21
-18.9977
0
LINE
8
BLACK
6
CONTINUOUS
10
105.423
20
-18.9977
11
105.732
21
-18.8673
0
LINE
8
BLACK
6
CONTINUOUS
10
105.732
20
-18.8673
11
106.052
21
-18.7703
0
LINE
8
BLACK
6
CONTINUOUS
10
106.052
20
-18.7703
11
106.381
21
-18.7077
0
LINE
8
BLACK
6
CONTINUOUS
10
106.381
20
-18.7077
11
106.715
21
-18.6803
0
LINE
8
BLACK
6
CONTINUOUS
10
106.715
20
-18.6803
11
107.05
21
-18.6883
0
LINE
8
BLACK
6
CONTINUOUS
10
106.56
20
-18.8348
11
106.243
21
-18.8778
0
LINE
8
BLACK
6
CONTINUOUS
10
106.243
20
-18.8778
11
105.933
21
-18.9541
0
LINE
8
BLACK
6
CONTINUOUS
10
105.933
20
-18.9541
11
105.632
21
-19.0627
0
LINE
8
BLACK
6
CONTINUOUS
10
105.632
20
-19.0627
11
105.345
21
-19.2024
0
LINE
8
BLACK
6
CONTINUOUS
10
105.345
20
-19.2024
11
105.074
21
-19.3718
0
LINE
8
BLACK
6
CONTINUOUS
10
105.074
20
-19.3718
11
104.822
21
-19.5688
0
LINE
8
BLACK
6
CONTINUOUS
10
104.822
20
-19.5688
11
104.593
21
-19.7914
0
LINE
8
BLACK
6
CONTINUOUS
10
104.593
20
-19.7914
11
104.389
21
-20.0369
0
LINE
8
BLACK
6
CONTINUOUS
10
104.389
20
-20.0369
11
104.211
21
-20.3027
0
LINE
8
BLACK
6
CONTINUOUS
10
104.211
20
-20.3027
11
104.063
21
-20.5857
0
LINE
8
BLACK
6
CONTINUOUS
10
104.063
20
-20.5857
11
103.945
21
-20.8828
0
LINE
8
BLACK
6
CONTINUOUS
10
103.945
20
-20.8828
11
103.86
21
-21.1907
0
LINE
8
BLACK
6
CONTINUOUS
10
103.86
20
-21.1907
11
103.834
21
-21.3455
0
LINE
8
BLACK
6
CONTINUOUS
10
103.834
20
-21.3455
11
103.435
21
-25.912
0
LINE
8
BLACK
6
CONTINUOUS
10
103.435
20
-25.912
11
103.434
21
-25.9147
0
LINE
8
BLACK
6
CONTINUOUS
10
103.434
20
-25.9147
11
103.434
21
-25.9161
0
LINE
8
BLACK
6
CONTINUOUS
10
103.434
20
-25.9161
11
103.385
21
-26.1515
0
LINE
8
BLACK
6
CONTINUOUS
10
103.385
20
-26.1515
11
103.306
21
-26.3786
0
LINE
8
BLACK
6
CONTINUOUS
10
103.306
20
-26.3786
11
103.197
21
-26.5934
0
LINE
8
BLACK
6
CONTINUOUS
10
103.197
20
-26.5934
11
103.062
21
-26.7924
0
LINE
8
BLACK
6
CONTINUOUS
10
103.062
20
-26.7924
11
102.902
21
-26.9722
0
LINE
8
BLACK
6
CONTINUOUS
10
102.902
20
-26.9722
11
102.721
21
-27.1298
0
LINE
8
BLACK
6
CONTINUOUS
10
102.721
20
-27.1298
11
102.52
21
-27.2625
0
LINE
8
BLACK
6
CONTINUOUS
10
102.52
20
-27.2625
11
102.304
21
-27.3682
0
LINE
8
BLACK
6
CONTINUOUS
10
102.304
20
-27.3682
11
102.076
21
-27.4449
0
LINE
8
BLACK
6
CONTINUOUS
10
102.076
20
-27.4449
11
101.84
21
-27.4915
0
LINE
8
BLACK
6
CONTINUOUS
10
101.84
20
-27.4915
11
101.6
21
-27.5071
0
LINE
8
BLACK
6
CONTINUOUS
10
101.6
20
-27.5071
11
101.6
21
-27.5071
0
LINE
8
BLACK
6
CONTINUOUS
10
101.6
20
-27.5071
11
101.599
21
-27.5067
0
LINE
8
BLACK
6
CONTINUOUS
10
101.599
20
-27.5067
11
101.598
21
-27.507
0
LINE
8
BLACK
6
CONTINUOUS
10
101.598
20
-27.507
11
85.2406
21
-27.1082
0
LINE
8
BLACK
6
CONTINUOUS
10
85.2406
20
-27.1082
11
85.1027
21
-27.1141
0
LINE
8
BLACK
6
CONTINUOUS
10
85.1027
20
-27.1141
11
84.8253
21
-27.1594
0
LINE
8
BLACK
6
CONTINUOUS
10
84.8253
20
-27.1594
11
84.5553
21
-27.2373
0
LINE
8
BLACK
6
CONTINUOUS
10
84.5553
20
-27.2373
11
84.2964
21
-27.3467
0
LINE
8
BLACK
6
CONTINUOUS
10
84.2964
20
-27.3467
11
84.0524
21
-27.4861
0
LINE
8
BLACK
6
CONTINUOUS
10
84.0524
20
-27.4861
11
83.8267
21
-27.6535
0
LINE
8
BLACK
6
CONTINUOUS
10
83.8267
20
-27.6535
11
83.6224
21
-27.8465
0
LINE
8
BLACK
6
CONTINUOUS
10
83.6224
20
-27.8465
11
83.4425
21
-28.0624
0
LINE
8
BLACK
6
CONTINUOUS
10
83.4425
20
-28.0624
11
83.2895
21
-28.2982
0
LINE
8
BLACK
6
CONTINUOUS
10
83.2895
20
-28.2982
11
83.1656
21
-28.5504
0
LINE
8
BLACK
6
CONTINUOUS
10
83.1656
20
-28.5504
11
83.0725
21
-28.8156
0
LINE
8
BLACK
6
CONTINUOUS
10
83.0725
20
-28.8156
11
83.0432
21
-28.9472
0
LINE
8
BLACK
6
CONTINUOUS
10
83.0432
20
-28.9472
11
82.8594
21
-31.7504
0
LINE
8
BLACK
6
CONTINUOUS
10
82.8594
20
-31.7504
11
82.8582
21
-31.7554
0
LINE
8
BLACK
6
CONTINUOUS
10
82.8582
20
-31.7554
11
82.8586
21
-31.7578
0
LINE
8
BLACK
6
CONTINUOUS
10
82.8586
20
-31.7578
11
82.8586
21
-31.7578
0
LINE
8
BLACK
6
CONTINUOUS
10
82.8586
20
-31.7578
11
82.8062
21
-31.9764
0
LINE
8
BLACK
6
CONTINUOUS
10
82.8062
20
-31.9764
11
82.7236
21
-32.1855
0
LINE
8
BLACK
6
CONTINUOUS
10
82.7236
20
-32.1855
11
82.6126
21
-32.3809
0
LINE
8
BLACK
6
CONTINUOUS
10
82.6126
20
-32.3809
11
82.4754
21
-32.5589
0
LINE
8
BLACK
6
CONTINUOUS
10
82.4754
20
-32.5589
11
82.3145
21
-32.7158
0
LINE
8
BLACK
6
CONTINUOUS
10
82.3145
20
-32.7158
11
82.1332
21
-32.8487
0
LINE
8
BLACK
6
CONTINUOUS
10
82.1332
20
-32.8487
11
81.9351
21
-32.9549
0
LINE
8
BLACK
6
CONTINUOUS
10
81.9351
20
-32.9549
11
81.724
21
-33.0322
0
LINE
8
BLACK
6
CONTINUOUS
10
81.724
20
-33.0322
11
81.5043
21
-33.0793
0
LINE
8
BLACK
6
CONTINUOUS
10
81.5043
20
-33.0793
11
81.2802
21
-33.095
0
LINE
8
BLACK
6
CONTINUOUS
10
81.2802
20
-33.095
11
81.2801
21
-33.0951
0
LINE
8
BLACK
6
CONTINUOUS
10
81.2801
20
-33.0951
11
33.0201
21
-33.0951
0
LINE
8
BLACK
6
CONTINUOUS
10
33.0201
20
-33.0951
11
33.02
21
-33.0951
0
LINE
8
BLACK
6
CONTINUOUS
10
33.02
20
-33.0951
11
33.02
21
-33.0951
0
LINE
8
BLACK
6
CONTINUOUS
10
33.02
20
-33.0951
11
32.8709
21
-33.0951
0
LINE
8
BLACK
6
CONTINUOUS
10
32.8709
20
-33.0951
11
32.5749
21
-33.131
0
LINE
8
BLACK
6
CONTINUOUS
10
32.5749
20
-33.131
11
32.2854
21
-33.2024
0
LINE
8
BLACK
6
CONTINUOUS
10
32.2854
20
-33.2024
11
32.0066
21
-33.3081
0
LINE
8
BLACK
6
CONTINUOUS
10
32.0066
20
-33.3081
11
31.7425
21
-33.4467
0
LINE
8
BLACK
6
CONTINUOUS
10
31.7425
20
-33.4467
11
31.4971
21
-33.6161
0
LINE
8
BLACK
6
CONTINUOUS
10
31.4971
20
-33.6161
11
31.2739
21
-33.8139
0
LINE
8
BLACK
6
CONTINUOUS
10
31.2739
20
-33.8139
11
31.0761
21
-34.0371
0
LINE
8
BLACK
6
CONTINUOUS
10
31.0761
20
-34.0371
11
30.9067
21
-34.2825
0
LINE
8
BLACK
6
CONTINUOUS
10
30.9067
20
-34.2825
11
30.7681
21
-34.5466
0
LINE
8
BLACK
6
CONTINUOUS
10
30.7681
20
-34.5466
11
30.6624
21
-34.8254
0
LINE
8
BLACK
6
CONTINUOUS
10
30.6624
20
-34.8254
11
30.591
21
-35.1149
0
LINE
8
BLACK
6
CONTINUOUS
10
30.591
20
-35.1149
11
30.5551
21
-35.411
0
LINE
8
BLACK
6
CONTINUOUS
10
30.5551
20
-35.411
11
30.555
21
-35.5601
0
LINE
8
BLACK
6
CONTINUOUS
10
30.555
20
-35.5601
11
30.555
21
-119.888
0
LINE
8
BLACK
6
CONTINUOUS
10
30.555
20
-119.888
11
30.555
21
-119.888
0
LINE
8
BLACK
6
CONTINUOUS
10
30.555
20
-119.888
11
30.5551
21
-120.02
0
LINE
8
BLACK
6
CONTINUOUS
10
30.5551
20
-120.02
11
30.5834
21
-120.283
0
LINE
8
BLACK
6
CONTINUOUS
10
30.5834
20
-120.283
11
30.6398
21
-120.542
0
LINE
8
BLACK
6
CONTINUOUS
10
30.6398
20
-120.542
11
30.7234
21
-120.793
0
LINE
8
BLACK
6
CONTINUOUS
10
30.7234
20
-120.793
11
30.8335
21
-121.034
0
LINE
8
BLACK
6
CONTINUOUS
10
30.8335
20
-121.034
11
30.9687
21
-121.261
0
LINE
8
BLACK
6
CONTINUOUS
10
30.9687
20
-121.261
11
31.0469
21
-121.366
0
LINE
8
BLACK
6
CONTINUOUS
10
31.0469
20
-121.366
11
48.571
21
-142.445
0
LINE
8
BLACK
6
CONTINUOUS
10
48.571
20
-142.445
11
48.7155
21
-142.61
0
LINE
8
BLACK
6
CONTINUOUS
10
48.7155
20
-142.61
11
49.032
21
-142.917
0
LINE
8
BLACK
6
CONTINUOUS
10
49.032
20
-142.917
11
49.3727
21
-143.196
0
LINE
8
BLACK
6
CONTINUOUS
10
49.3727
20
-143.196
11
49.7352
21
-143.446
0
LINE
8
BLACK
6
CONTINUOUS
10
49.7352
20
-143.446
11
50.1172
21
-143.666
0
LINE
8
BLACK
6
CONTINUOUS
10
50.1172
20
-143.666
11
50.516
21
-143.853
0
LINE
8
BLACK
6
CONTINUOUS
10
50.516
20
-143.853
11
50.9289
21
-144.006
0
LINE
8
BLACK
6
CONTINUOUS
10
50.9289
20
-144.006
11
51.3531
21
-144.125
0
LINE
8
BLACK
6
CONTINUOUS
10
51.3531
20
-144.125
11
51.7856
21
-144.208
0
LINE
8
BLACK
6
CONTINUOUS
10
51.7856
20
-144.208
11
52.2235
21
-144.256
0
LINE
8
BLACK
6
CONTINUOUS
10
52.2235
20
-144.256
11
52.6639
21
-144.267
0
LINE
8
BLACK
6
CONTINUOUS
10
52.6639
20
-144.267
11
53.1037
21
-144.242
0
LINE
8
BLACK
6
CONTINUOUS
10
53.1037
20
-144.242
11
53.5398
21
-144.18
0
LINE
8
BLACK
6
CONTINUOUS
10
53.5398
20
-144.18
11
53.9694
21
-144.083
0
LINE
8
BLACK
6
CONTINUOUS
10
53.9694
20
-144.083
11
54.3895
21
-143.95
0
LINE
8
BLACK
6
CONTINUOUS
10
54.3895
20
-143.95
11
54.7973
21
-143.784
0
LINE
8
BLACK
6
CONTINUOUS
10
54.7973
20
-143.784
11
55.1898
21
-143.584
0
LINE
8
BLACK
6
CONTINUOUS
10
55.1898
20
-143.584
11
55.5646
21
-143.352
0
LINE
8
BLACK
6
CONTINUOUS
10
55.5646
20
-143.352
11
55.9189
21
-143.091
0
LINE
8
BLACK
6
CONTINUOUS
10
55.9189
20
-143.091
11
56.0839
21
-142.946
0
LINE
8
BLACK
6
CONTINUOUS
10
56.0839
20
-142.946
11
63.5883
21
-136.001
0
LINE
8
BLACK
6
CONTINUOUS
10
63.5883
20
-136.001
11
63.5904
21
-136
0
LINE
8
BLACK
6
CONTINUOUS
10
63.5904
20
-136
11
63.5911
21
-135.999
0
LINE
8
BLACK
6
CONTINUOUS
10
63.5911
20
-135.999
11
64.5047
21
-135.259
0
LINE
8
BLACK
6
CONTINUOUS
10
64.5047
20
-135.259
11
65.4406
21
-134.547
0
LINE
8
BLACK
6
CONTINUOUS
10
65.4406
20
-134.547
11
66.3979
21
-133.864
0
LINE
8
BLACK
6
CONTINUOUS
10
66.3979
20
-133.864
11
67.3757
21
-133.211
0
LINE
8
BLACK
6
CONTINUOUS
10
67.3757
20
-133.211
11
68.3731
21
-132.588
0
LINE
8
BLACK
6
CONTINUOUS
10
68.3731
20
-132.588
11
69.3892
21
-131.996
0
LINE
8
BLACK
6
CONTINUOUS
10
69.3892
20
-131.996
11
70.423
21
-131.436
0
LINE
8
BLACK
6
CONTINUOUS
10
70.423
20
-131.436
11
71.4736
21
-130.907
0
LINE
8
BLACK
6
CONTINUOUS
10
71.4736
20
-130.907
11
72.5398
21
-130.412
0
LINE
8
BLACK
6
CONTINUOUS
10
72.5398
20
-130.412
11
73.6208
21
-129.949
0
LINE
8
BLACK
6
CONTINUOUS
10
73.6208
20
-129.949
11
74.7156
21
-129.52
0
LINE
8
BLACK
6
CONTINUOUS
10
74.7156
20
-129.52
11
75.8229
21
-129.124
0
LINE
8
BLACK
6
CONTINUOUS
10
75.8229
20
-129.124
11
76.942
21
-128.763
0
LINE
8
BLACK
6
CONTINUOUS
10
76.942
20
-128.763
11
78.0715
21
-128.436
0
LINE
8
BLACK
6
CONTINUOUS
10
78.0715
20
-128.436
11
79.2106
21
-128.144
0
LINE
8
BLACK
6
CONTINUOUS
10
79.2106
20
-128.144
11
80.3582
21
-127.887
0
LINE
8
BLACK
6
CONTINUOUS
10
80.3582
20
-127.887
11
81.513
21
-127.666
0
LINE
8
BLACK
6
CONTINUOUS
10
81.513
20
-127.666
11
82.6742
21
-127.48
0
LINE
8
BLACK
6
CONTINUOUS
10
82.6742
20
-127.48
11
83.8404
21
-127.33
0
LINE
8
BLACK
6
CONTINUOUS
10
83.8404
20
-127.33
11
85.0108
21
-127.216
0
LINE
8
BLACK
6
CONTINUOUS
10
85.0108
20
-127.216
11
86.1841
21
-127.138
0
LINE
8
BLACK
6
CONTINUOUS
10
86.1841
20
-127.138
11
87.3592
21
-127.096
0
LINE
8
BLACK
6
CONTINUOUS
10
87.3592
20
-127.096
11
88.5351
21
-127.09
0
LINE
8
BLACK
6
CONTINUOUS
10
88.5351
20
-127.09
11
89.7106
21
-127.121
0
LINE
8
BLACK
6
CONTINUOUS
10
89.7106
20
-127.121
11
90.8846
21
-127.187
0
LINE
8
BLACK
6
CONTINUOUS
10
90.8846
20
-127.187
11
92.056
21
-127.289
0
LINE
8
BLACK
6
CONTINUOUS
10
92.056
20
-127.289
11
93.2238
21
-127.428
0
LINE
8
BLACK
6
CONTINUOUS
10
93.2238
20
-127.428
11
94.3867
21
-127.602
0
LINE
8
BLACK
6
CONTINUOUS
10
94.3867
20
-127.602
11
94.3867
21
-127.602
0
LINE
8
BLACK
6
CONTINUOUS
10
94.3867
20
-127.602
11
94.388
21
-127.603
0
LINE
8
BLACK
6
CONTINUOUS
10
94.388
20
-127.603
11
94.3894
21
-127.602
0
LINE
8
BLACK
6
CONTINUOUS
10
94.3894
20
-127.602
11
106.824
21
-130.129
0
LINE
8
BLACK
6
CONTINUOUS
10
106.824
20
-130.129
11
107.213
21
-130.17
0
LINE
8
BLACK
6
CONTINUOUS
10
107.213
20
-130.17
11
108.003
21
-130.222
0
LINE
8
BLACK
6
CONTINUOUS
10
108.003
20
-130.222
11
108.794
21
-130.244
0
LINE
8
BLACK
6
CONTINUOUS
10
108.794
20
-130.244
11
109.585
21
-130.236
0
LINE
8
BLACK
6
CONTINUOUS
10
109.585
20
-130.236
11
110.375
21
-130.197
0
LINE
8
BLACK
6
CONTINUOUS
10
110.375
20
-130.197
11
111.163
21
-130.127
0
LINE
8
BLACK
6
CONTINUOUS
10
111.163
20
-130.127
11
111.948
21
-130.027
0
LINE
8
BLACK
6
CONTINUOUS
10
111.948
20
-130.027
11
112.338
21
-129.962
0
LINE
8
BLACK
6
CONTINUOUS
10
112.338
20
-129.962
11
112.339
21
-129.962
0
LINE
8
BLACK
6
CONTINUOUS
10
112.339
20
-129.962
11
112.339
21
-129.962
0
LINE
8
BLACK
6
CONTINUOUS
10
112.339
20
-129.962
11
183.059
21
-118.829
0
LINE
8
BLACK
6
CONTINUOUS
10
183.059
20
-118.829
11
183.277
21
-118.782
0
LINE
8
BLACK
6
CONTINUOUS
10
183.277
20
-118.782
11
183.709
21
-118.653
0
LINE
8
BLACK
6
CONTINUOUS
10
183.709
20
-118.653
11
184.13
21
-118.489
0
LINE
8
BLACK
6
CONTINUOUS
10
184.13
20
-118.489
11
184.537
21
-118.292
0
LINE
8
BLACK
6
CONTINUOUS
10
184.537
20
-118.292
11
184.927
21
-118.064
0
LINE
8
BLACK
6
CONTINUOUS
10
184.927
20
-118.064
11
185.297
21
-117.805
0
LINE
8
BLACK
6
CONTINUOUS
10
185.297
20
-117.805
11
185.645
21
-117.518
0
LINE
8
BLACK
6
CONTINUOUS
10
185.645
20
-117.518
11
185.97
21
-117.204
0
LINE
8
BLACK
6
CONTINUOUS
10
185.97
20
-117.204
11
186.269
21
-116.865
0
LINE
8
BLACK
6
CONTINUOUS
10
186.269
20
-116.865
11
186.539
21
-116.504
0
LINE
8
BLACK
6
CONTINUOUS
10
186.539
20
-116.504
11
186.781
21
-116.122
0
LINE
8
BLACK
6
CONTINUOUS
10
186.781
20
-116.122
11
186.991
21
-115.722
0
LINE
8
BLACK
6
CONTINUOUS
10
186.991
20
-115.722
11
187.168
21
-115.307
0
LINE
8
BLACK
6
CONTINUOUS
10
187.168
20
-115.307
11
187.312
21
-114.879
0
LINE
8
BLACK
6
CONTINUOUS
10
187.312
20
-114.879
11
187.366
21
-114.662
0
LINE
8
BLACK
6
CONTINUOUS
10
187.366
20
-114.662
11
195.252
21
-70.9475
0
LINE
8
BLACK
6
CONTINUOUS
10
195.252
20
-70.9475
11
195.253
21
-70.9467
0
LINE
8
BLACK
6
CONTINUOUS
10
195.253
20
-70.9467
11
195.252
21
-70.9463
0
LINE
8
BLACK
6
CONTINUOUS
10
195.252
20
-70.9463
11
195.253
21
-70.9463
0
LINE
8
BLACK
6
CONTINUOUS
10
195.253
20
-70.9463
11
195.291
21
-70.7529
0
LINE
8
BLACK
6
CONTINUOUS
10
195.291
20
-70.7529
11
195.332
21
-70.3607
0
LINE
8
BLACK
6
CONTINUOUS
10
195.332
20
-70.3607
11
195.338
21
-69.9665
0
LINE
8
BLACK
6
CONTINUOUS
10
195.338
20
-69.9665
11
195.307
21
-69.5734
0
LINE
8
BLACK
6
CONTINUOUS
10
195.307
20
-69.5734
11
195.241
21
-69.1846
0
LINE
8
BLACK
6
CONTINUOUS
10
195.241
20
-69.1846
11
195.14
21
-68.8035
0
LINE
8
BLACK
6
CONTINUOUS
10
195.14
20
-68.8035
11
195.005
21
-68.4332
0
LINE
8
BLACK
6
CONTINUOUS
10
195.005
20
-68.4332
11
194.836
21
-68.0767
0
LINE
8
BLACK
6
CONTINUOUS
10
194.836
20
-68.0767
11
194.636
21
-67.737
0
LINE
8
BLACK
6
CONTINUOUS
10
194.636
20
-67.737
11
194.406
21
-67.4169
0
LINE
8
BLACK
6
CONTINUOUS
10
194.406
20
-67.4169
11
194.147
21
-67.1191
0
LINE
8
BLACK
6
CONTINUOUS
10
194.147
20
-67.1191
11
193.863
21
-66.846
0
LINE
8
BLACK
6
CONTINUOUS
10
193.863
20
-66.846
11
193.555
21
-66.6
0
LINE
8
BLACK
6
CONTINUOUS
10
193.555
20
-66.6
11
193.225
21
-66.3829
0
LINE
8
BLACK
6
CONTINUOUS
10
193.225
20
-66.3829
11
192.878
21
-66.1967
0
LINE
8
BLACK
6
CONTINUOUS
10
192.878
20
-66.1967
11
192.515
21
-66.0429
0
LINE
8
BLACK
6
CONTINUOUS
10
192.515
20
-66.0429
11
192.139
21
-65.9227
0
LINE
8
BLACK
6
CONTINUOUS
10
192.139
20
-65.9227
11
191.948
21
-65.8802
0
LINE
8
BLACK
6
CONTINUOUS
10
191.948
20
-65.8802
11
177.787
21
-63.3199
0
LINE
8
BLACK
6
CONTINUOUS
10
177.787
20
-63.3199
11
177.786
21
-63.3195
0
LINE
8
BLACK
6
CONTINUOUS
10
177.786
20
-63.3195
11
177.785
21
-63.3196
0
LINE
8
BLACK
6
CONTINUOUS
10
177.785
20
-63.3196
11
177.785
21
-63.3196
0
LINE
8
BLACK
6
CONTINUOUS
10
177.785
20
-63.3196
11
177.578
21
-63.261
0
LINE
8
BLACK
6
CONTINUOUS
10
177.578
20
-63.261
11
177.383
21
-63.1708
0
LINE
8
BLACK
6
CONTINUOUS
10
177.383
20
-63.1708
11
177.205
21
-63.0512
0
LINE
8
BLACK
6
CONTINUOUS
10
177.205
20
-63.0512
11
177.047
21
-62.9051
0
LINE
8
BLACK
6
CONTINUOUS
10
177.047
20
-62.9051
11
176.914
21
-62.7361
0
LINE
8
BLACK
6
CONTINUOUS
10
176.914
20
-62.7361
11
176.809
21
-62.5484
0
LINE
8
BLACK
6
CONTINUOUS
10
176.809
20
-62.5484
11
176.735
21
-62.3466
0
LINE
8
BLACK
6
CONTINUOUS
10
176.735
20
-62.3466
11
176.693
21
-62.1357
0
LINE
8
BLACK
6
CONTINUOUS
10
176.693
20
-62.1357
11
176.685
21
-61.9208
0
LINE
8
BLACK
6
CONTINUOUS
10
176.685
20
-61.9208
11
176.71
21
-61.7152
0
LINE
8
BLACK
6
CONTINUOUS
10
176.71
20
-61.7152
11
176.709
21
-61.7146
0
LINE
8
BLACK
6
CONTINUOUS
10
176.709
20
-61.7146
11
177.223
21
-56.5881
0
LINE
8
BLACK
6
CONTINUOUS
10
177.223
20
-56.5881
11
177.223
21
-56.41
0
LINE
8
BLACK
6
CONTINUOUS
10
177.223
20
-56.41
11
177.186
21
-56.0488
0
LINE
8
BLACK
6
CONTINUOUS
10
177.186
20
-56.0488
11
177.113
21
-55.6933
0
LINE
8
BLACK
6
CONTINUOUS
10
177.113
20
-55.6933
11
177.004
21
-55.347
0
LINE
8
BLACK
6
CONTINUOUS
10
177.004
20
-55.347
11
176.86
21
-55.0137
0
LINE
8
BLACK
6
CONTINUOUS
10
176.86
20
-55.0137
11
176.683
21
-54.6967
0
LINE
8
BLACK
6
CONTINUOUS
10
176.683
20
-54.6967
11
176.474
21
-54.3994
0
LINE
8
BLACK
6
CONTINUOUS
10
176.474
20
-54.3994
11
176.237
21
-54.1247
0
LINE
8
BLACK
6
CONTINUOUS
10
176.237
20
-54.1247
11
175.973
21
-53.8756
0
LINE
8
BLACK
6
CONTINUOUS
10
175.973
20
-53.8756
11
175.685
21
-53.6547
0
LINE
8
BLACK
6
CONTINUOUS
10
175.685
20
-53.6547
11
175.376
21
-53.4642
0
LINE
8
BLACK
6
CONTINUOUS
10
175.376
20
-53.4642
11
175.049
21
-53.3062
0
LINE
8
BLACK
6
CONTINUOUS
10
175.049
20
-53.3062
11
174.708
21
-53.1821
0
LINE
8
BLACK
6
CONTINUOUS
10
174.708
20
-53.1821
11
174.535
21
-53.1386
0
LINE
8
BLACK
6
CONTINUOUS
10
174.535
20
-53.1386
11
159.501
21
-50.8742
0
LINE
8
BLACK
6
CONTINUOUS
10
159.501
20
-50.8742
11
159.499
21
-50.8734
0
LINE
8
BLACK
6
CONTINUOUS
10
159.499
20
-50.8734
11
159.497
21
-50.8735
0
LINE
8
BLACK
6
CONTINUOUS
10
159.497
20
-50.8735
11
159.497
21
-50.8735
0
LINE
8
BLACK
6
CONTINUOUS
10
159.497
20
-50.8735
11
159.295
21
-50.8165
0
LINE
8
BLACK
6
CONTINUOUS
10
159.295
20
-50.8165
11
159.103
21
-50.729
0
LINE
8
BLACK
6
CONTINUOUS
10
159.103
20
-50.729
11
158.927
21
-50.6133
0
LINE
8
BLACK
6
CONTINUOUS
10
158.927
20
-50.6133
11
158.771
21
-50.4719
0
LINE
8
BLACK
6
CONTINUOUS
10
158.771
20
-50.4719
11
158.638
21
-50.3083
0
LINE
8
BLACK
6
CONTINUOUS
10
158.638
20
-50.3083
11
158.532
21
-50.1263
0
LINE
8
BLACK
6
CONTINUOUS
10
158.532
20
-50.1263
11
158.456
21
-49.9302
0
LINE
8
BLACK
6
CONTINUOUS
10
158.456
20
-49.9302
11
158.41
21
-49.7246
0
LINE
8
BLACK
6
CONTINUOUS
10
158.41
20
-49.7246
11
158.396
21
-49.5145
0
LINE
8
BLACK
6
CONTINUOUS
10
158.396
20
-49.5145
11
158.414
21
-49.3091
0
LINE
8
BLACK
6
CONTINUOUS
10
158.414
20
-49.3091
11
158.414
21
-49.3085
0
LINE
8
BLACK
6
CONTINUOUS
10
158.414
20
-49.3085
11
159.651
21
-38.5667
0
LINE
8
BLACK
6
CONTINUOUS
10
159.651
20
-38.5667
11
159.651
21
-38.5663
0
LINE
8
BLACK
6
CONTINUOUS
10
159.651
20
-38.5663
11
159.672
21
-38.3774
0
LINE
8
BLACK
6
CONTINUOUS
10
159.672
20
-38.3774
11
159.68
21
-37.9958
0
LINE
8
BLACK
6
CONTINUOUS
10
159.68
20
-37.9958
11
159.653
21
-37.6151
0
LINE
8
BLACK
6
CONTINUOUS
10
159.653
20
-37.6151
11
159.592
21
-37.2383
0
LINE
8
BLACK
6
CONTINUOUS
10
159.592
20
-37.2383
11
159.498
21
-36.8685
0
LINE
8
BLACK
6
CONTINUOUS
10
159.498
20
-36.8685
11
159.37
21
-36.5087
0
LINE
8
BLACK
6
CONTINUOUS
10
159.37
20
-36.5087
11
159.211
21
-36.1619
0
LINE
8
BLACK
6
CONTINUOUS
10
159.211
20
-36.1619
11
159.021
21
-35.8308
0
LINE
8
BLACK
6
CONTINUOUS
10
159.021
20
-35.8308
11
158.802
21
-35.5182
0
LINE
8
BLACK
6
CONTINUOUS
10
158.802
20
-35.5182
11
158.556
21
-35.2266
0
LINE
8
BLACK
6
CONTINUOUS
10
158.556
20
-35.2266
11
158.285
21
-34.9583
0
LINE
8
BLACK
6
CONTINUOUS
10
158.285
20
-34.9583
11
157.99
21
-34.7156
0
LINE
8
BLACK
6
CONTINUOUS
10
157.99
20
-34.7156
11
157.675
21
-34.5003
0
LINE
8
BLACK
6
CONTINUOUS
10
157.675
20
-34.5003
11
157.342
21
-34.3144
0
LINE
8
BLACK
6
CONTINUOUS
10
157.342
20
-34.3144
11
156.993
21
-34.1592
0
LINE
8
BLACK
6
CONTINUOUS
10
156.993
20
-34.1592
11
156.632
21
-34.0361
0
LINE
8
BLACK
6
CONTINUOUS
10
156.632
20
-34.0361
11
156.451
21
-33.9921
0
LINE
8
BLACK
6
CONTINUOUS
10
156.451
20
-33.9921
11
140.778
21
-32.2782
0
LINE
8
BLACK
6
CONTINUOUS
10
140.778
20
-32.2782
11
140.777
21
-32.278
0
LINE
8
BLACK
6
CONTINUOUS
10
140.777
20
-32.278
11
140.777
21
-32.2781
0
LINE
8
BLACK
6
CONTINUOUS
10
140.777
20
-32.2781
11
140.559
21
-32.2349
0
LINE
8
BLACK
6
CONTINUOUS
10
140.559
20
-32.2349
11
140.35
21
-32.1612
0
LINE
8
BLACK
6
CONTINUOUS
10
140.35
20
-32.1612
11
140.153
21
-32.0584
0
LINE
8
BLACK
6
CONTINUOUS
10
140.153
20
-32.0584
11
139.973
21
-31.9286
0
LINE
8
BLACK
6
CONTINUOUS
10
139.973
20
-31.9286
11
139.813
21
-31.7746
0
LINE
8
BLACK
6
CONTINUOUS
10
139.813
20
-31.7746
11
139.677
21
-31.5993
0
LINE
8
BLACK
6
CONTINUOUS
10
139.677
20
-31.5993
11
139.567
21
-31.4065
0
LINE
8
BLACK
6
CONTINUOUS
10
139.567
20
-31.4065
11
139.485
21
-31.1999
0
LINE
8
BLACK
6
CONTINUOUS
10
139.485
20
-31.1999
11
139.434
21
-30.9839
0
LINE
8
BLACK
6
CONTINUOUS
10
139.434
20
-30.9839
11
139.414
21
-30.7628
0
LINE
8
BLACK
6
CONTINUOUS
10
139.414
20
-30.7628
11
139.426
21
-30.5454
0
LINE
8
BLACK
6
CONTINUOUS
10
139.426
20
-30.5454
11
139.426
21
-30.5446
0
LINE
8
BLACK
6
CONTINUOUS
10
139.426
20
-30.5446
11
139.879
21
-24.6323
0
LINE
8
BLACK
6
CONTINUOUS
10
139.879
20
-24.6323
11
139.879
21
-24.6319
0
LINE
8
BLACK
6
CONTINUOUS
10
139.879
20
-24.6319
11
139.892
21
-24.4565
0
LINE
8
BLACK
6
CONTINUOUS
10
139.892
20
-24.4565
11
139.881
21
-24.1032
0
LINE
8
BLACK
6
CONTINUOUS
10
139.881
20
-24.1032
11
139.835
21
-23.7528
0
LINE
8
BLACK
6
CONTINUOUS
10
139.835
20
-23.7528
11
139.754
21
-23.4088
0
LINE
8
BLACK
6
CONTINUOUS
10
139.754
20
-23.4088
11
139.638
21
-23.0748
0
LINE
8
BLACK
6
CONTINUOUS
10
139.638
20
-23.0748
11
139.489
21
-22.7542
0
LINE
8
BLACK
6
CONTINUOUS
10
139.489
20
-22.7542
11
139.309
21
-22.4503
0
LINE
8
BLACK
6
CONTINUOUS
10
139.309
20
-22.4503
11
139.099
21
-22.1662
0
LINE
8
BLACK
6
CONTINUOUS
10
139.099
20
-22.1662
11
138.861
21
-21.9048
0
LINE
8
BLACK
6
CONTINUOUS
10
138.861
20
-21.9048
11
138.598
21
-21.6687
0
LINE
8
BLACK
6
CONTINUOUS
10
138.598
20
-21.6687
11
138.312
21
-21.4604
0
LINE
8
BLACK
6
CONTINUOUS
10
138.312
20
-21.4604
11
138.007
21
-21.282
0
LINE
8
BLACK
6
CONTINUOUS
10
138.007
20
-21.282
11
137.686
21
-21.1353
0
LINE
8
BLACK
6
CONTINUOUS
10
137.686
20
-21.1353
11
137.351
21
-21.0219
0
LINE
8
BLACK
6
CONTINUOUS
10
137.351
20
-21.0219
11
137.006
21
-20.9429
0
LINE
8
BLACK
6
CONTINUOUS
10
137.006
20
-20.9429
11
136.833
21
-20.9212
0
LINE
8
BLACK
6
CONTINUOUS
10
136.833
20
-20.9212
11
107.039
21
-18.8379
0
LINE
8
BLACK
6
CONTINUOUS
10
107.039
20
-18.8379
11
107.039
21
-18.8378
0
LINE
8
BLACK
6
CONTINUOUS
10
107.039
20
-18.8378
11
107.039
21
-18.8378
0
LINE
8
BLACK
6
CONTINUOUS
10
107.039
20
-18.8378
11
107.039
21
-18.8378
0
LINE
8
BLACK
6
CONTINUOUS
10
107.039
20
-18.8378
11
106.879
21
-18.8255
0
LINE
8
BLACK
6
CONTINUOUS
10
106.879
20
-18.8255
11
106.56
21
-18.8348
  0
ENDSEC
  0
EOF
