  0
SECTION
  2
HEADER
  9
$ANGBASE
  50
0.0
  9
$ANGDIR
  70
1
  9
$MEASUREMENT
  70
1
  0
ENDSEC
  0
SECTION
  2
TABLES
  0
TABLE
  2
LTYPE
  70
4
  0
LTYPE
  5
40F
  2
CONTINUOUS
  70
0
  3
Solid line
  72
65
  73
0
  40
0.0
  0
LTYPE
  5
410
  2
DASHDOT
 70
0
  3
Dash Dot ____ _ ____ _
 72
65
 73
4
 40
2.0
 49
1.25
 49
-0.25
 49
0.25
 49
-0.25
  0
LTYPE
  5
411
  2
DASHED
 70
0
  3
Dashed __ __ __ __ __
 72
65
 73
2
 40
0.75
 49
0.5
 49
-0.25
  0
LTYPE
  5
43B
  2
DOTTED
 70
0
  3
Dotted .  .  .  .
 72
65
 73
2
 40
0.2
 49
0.0
 49
-0.2
  0
ENDTAB
  0
TABLE
  2
STYLE
  70
4
  0
STYLE
  2
KICAD
  70
0
  40
0
  41
1
  42
1
  50
0
  71
0
  3
isocp.shx
  0
STYLE
  2
KICADB
  70
0
  40
0
  41
1
  42
1
  50
0
  71
0
  3
isocp.shx
  0
STYLE
  2
KICADI
  70
0
  40
0
  41
1
  42
1
  50
15
  71
0
  3
isocp.shx
  0
STYLE
  2
KICADBI
  70
0
  40
0
  41
1
  42
1
  50
15
  71
0
  3
isocp.shx
  0
ENDTAB
  0
TABLE
  2
LAYER
  70
1
  0
LAYER
  2
BLACK
  70
0
  62
7
  6
CONTINUOUS
  0
ENDTAB
  0
ENDSEC
  0
SECTION
  2
ENTITIES
0
LINE
8
BLACK
6
CONTINUOUS
10
52.958
20
-94.246
11
53.149
21
-94.2627
0
LINE
8
BLACK
6
CONTINUOUS
10
53.149
20
-94.2627
11
53.3342
21
-94.3123
0
LINE
8
BLACK
6
CONTINUOUS
10
53.3342
20
-94.3123
11
53.508
21
-94.3934
0
LINE
8
BLACK
6
CONTINUOUS
10
53.508
20
-94.3934
11
53.6651
21
-94.5034
0
LINE
8
BLACK
6
CONTINUOUS
10
53.6651
20
-94.5034
11
53.8006
21
-94.6389
0
LINE
8
BLACK
6
CONTINUOUS
10
53.8006
20
-94.6389
11
53.9106
21
-94.796
0
LINE
8
BLACK
6
CONTINUOUS
10
53.9106
20
-94.796
11
53.9917
21
-94.9698
0
LINE
8
BLACK
6
CONTINUOUS
10
53.9917
20
-94.9698
11
54.0413
21
-95.155
0
LINE
8
BLACK
6
CONTINUOUS
10
54.0413
20
-95.155
11
54.058
21
-95.346
0
LINE
8
BLACK
6
CONTINUOUS
10
54.058
20
-95.346
11
54.058
21
-107.346
0
LINE
8
BLACK
6
CONTINUOUS
10
54.058
20
-107.346
11
54.0413
21
-107.537
0
LINE
8
BLACK
6
CONTINUOUS
10
54.0413
20
-107.537
11
53.9917
21
-107.722
0
LINE
8
BLACK
6
CONTINUOUS
10
53.9917
20
-107.722
11
53.9106
21
-107.896
0
LINE
8
BLACK
6
CONTINUOUS
10
53.9106
20
-107.896
11
53.8006
21
-108.053
0
LINE
8
BLACK
6
CONTINUOUS
10
53.8006
20
-108.053
11
53.6651
21
-108.189
0
LINE
8
BLACK
6
CONTINUOUS
10
53.6651
20
-108.189
11
53.508
21
-108.299
0
LINE
8
BLACK
6
CONTINUOUS
10
53.508
20
-108.299
11
53.3342
21
-108.38
0
LINE
8
BLACK
6
CONTINUOUS
10
53.3342
20
-108.38
11
53.149
21
-108.429
0
LINE
8
BLACK
6
CONTINUOUS
10
53.149
20
-108.429
11
52.9582
21
-108.446
0
LINE
8
BLACK
6
CONTINUOUS
10
52.9582
20
-108.446
11
52.9581
21
-108.446
0
LINE
8
BLACK
6
CONTINUOUS
10
52.9581
20
-108.446
11
39.4581
21
-108.462
0
LINE
8
BLACK
6
CONTINUOUS
10
39.4581
20
-108.462
11
39.4581
21
-108.462
0
LINE
8
BLACK
6
CONTINUOUS
10
39.4581
20
-108.462
11
39.458
21
-108.462
0
LINE
8
BLACK
6
CONTINUOUS
10
39.458
20
-108.462
11
39.2642
21
-108.445
0
LINE
8
BLACK
6
CONTINUOUS
10
39.2642
20
-108.445
11
39.0763
21
-108.395
0
LINE
8
BLACK
6
CONTINUOUS
10
39.0763
20
-108.395
11
38.9
21
-108.312
0
LINE
8
BLACK
6
CONTINUOUS
10
38.9
20
-108.312
11
38.7406
21
-108.201
0
LINE
8
BLACK
6
CONTINUOUS
10
38.7406
20
-108.201
11
38.6031
21
-108.063
0
LINE
8
BLACK
6
CONTINUOUS
10
38.6031
20
-108.063
11
38.4915
21
-107.904
0
LINE
8
BLACK
6
CONTINUOUS
10
38.4915
20
-107.904
11
38.4093
21
-107.728
0
LINE
8
BLACK
6
CONTINUOUS
10
38.4093
20
-107.728
11
38.359
21
-107.54
0
LINE
8
BLACK
6
CONTINUOUS
10
38.359
20
-107.54
11
38.342
21
-107.346
0
LINE
8
BLACK
6
CONTINUOUS
10
38.342
20
-107.346
11
38.342
21
-107.346
0
LINE
8
BLACK
6
CONTINUOUS
10
38.342
20
-107.346
11
38.342
21
-107.346
0
LINE
8
BLACK
6
CONTINUOUS
10
38.342
20
-107.346
11
38.358
21
-95.3459
0
LINE
8
BLACK
6
CONTINUOUS
10
38.358
20
-95.3459
11
38.358
21
-95.3458
0
LINE
8
BLACK
6
CONTINUOUS
10
38.358
20
-95.3458
11
38.3747
21
-95.155
0
LINE
8
BLACK
6
CONTINUOUS
10
38.3747
20
-95.155
11
38.4243
21
-94.9698
0
LINE
8
BLACK
6
CONTINUOUS
10
38.4243
20
-94.9698
11
38.5054
21
-94.796
0
LINE
8
BLACK
6
CONTINUOUS
10
38.5054
20
-94.796
11
38.6154
21
-94.6389
0
LINE
8
BLACK
6
CONTINUOUS
10
38.6154
20
-94.6389
11
38.7509
21
-94.5033
0
LINE
8
BLACK
6
CONTINUOUS
10
38.7509
20
-94.5033
11
38.908
21
-94.3934
0
LINE
8
BLACK
6
CONTINUOUS
10
38.908
20
-94.3934
11
39.0818
21
-94.3123
0
LINE
8
BLACK
6
CONTINUOUS
10
39.0818
20
-94.3123
11
39.267
21
-94.2627
0
LINE
8
BLACK
6
CONTINUOUS
10
39.267
20
-94.2627
11
39.458
21
-94.246
0
LINE
8
BLACK
6
CONTINUOUS
10
39.458
20
-94.246
11
52.958
21
-94.246
0
LINE
8
BLACK
6
CONTINUOUS
10
39.458
20
-94.446
11
39.3694
21
-94.446
0
LINE
8
BLACK
6
CONTINUOUS
10
39.3694
20
-94.446
11
39.1955
21
-94.4806
0
LINE
8
BLACK
6
CONTINUOUS
10
39.1955
20
-94.4806
11
39.0317
21
-94.5484
0
LINE
8
BLACK
6
CONTINUOUS
10
39.0317
20
-94.5484
11
38.8843
21
-94.6469
0
LINE
8
BLACK
6
CONTINUOUS
10
38.8843
20
-94.6469
11
38.7589
21
-94.7723
0
LINE
8
BLACK
6
CONTINUOUS
10
38.7589
20
-94.7723
11
38.6604
21
-94.9197
0
LINE
8
BLACK
6
CONTINUOUS
10
38.6604
20
-94.9197
11
38.5926
21
-95.0835
0
LINE
8
BLACK
6
CONTINUOUS
10
38.5926
20
-95.0835
11
38.558
21
-95.2574
0
LINE
8
BLACK
6
CONTINUOUS
10
38.558
20
-95.2574
11
38.558
21
-95.346
0
LINE
8
BLACK
6
CONTINUOUS
10
38.558
20
-95.346
11
38.558
21
-95.3461
0
LINE
8
BLACK
6
CONTINUOUS
10
38.558
20
-95.3461
11
38.558
21
-95.3461
0
LINE
8
BLACK
6
CONTINUOUS
10
38.558
20
-95.3461
11
38.542
21
-107.346
0
LINE
8
BLACK
6
CONTINUOUS
10
38.542
20
-107.346
11
38.542
21
-107.426
0
LINE
8
BLACK
6
CONTINUOUS
10
38.542
20
-107.426
11
38.5698
21
-107.584
0
LINE
8
BLACK
6
CONTINUOUS
10
38.5698
20
-107.584
11
38.6247
21
-107.735
0
LINE
8
BLACK
6
CONTINUOUS
10
38.6247
20
-107.735
11
38.7048
21
-107.873
0
LINE
8
BLACK
6
CONTINUOUS
10
38.7048
20
-107.873
11
38.8078
21
-107.996
0
LINE
8
BLACK
6
CONTINUOUS
10
38.8078
20
-107.996
11
38.9306
21
-108.099
0
LINE
8
BLACK
6
CONTINUOUS
10
38.9306
20
-108.099
11
39.0694
21
-108.179
0
LINE
8
BLACK
6
CONTINUOUS
10
39.0694
20
-108.179
11
39.22
21
-108.234
0
LINE
8
BLACK
6
CONTINUOUS
10
39.22
20
-108.234
11
39.3779
21
-108.262
0
LINE
8
BLACK
6
CONTINUOUS
10
39.3779
20
-108.262
11
39.4579
21
-108.262
0
LINE
8
BLACK
6
CONTINUOUS
10
39.4579
20
-108.262
11
52.9579
21
-108.246
0
LINE
8
BLACK
6
CONTINUOUS
10
52.9579
20
-108.246
11
52.9579
21
-108.246
0
LINE
8
BLACK
6
CONTINUOUS
10
52.9579
20
-108.246
11
52.958
21
-108.246
0
LINE
8
BLACK
6
CONTINUOUS
10
52.958
20
-108.246
11
53.0466
21
-108.246
0
LINE
8
BLACK
6
CONTINUOUS
10
53.0466
20
-108.246
11
53.2205
21
-108.211
0
LINE
8
BLACK
6
CONTINUOUS
10
53.2205
20
-108.211
11
53.3843
21
-108.144
0
LINE
8
BLACK
6
CONTINUOUS
10
53.3843
20
-108.144
11
53.5317
21
-108.045
0
LINE
8
BLACK
6
CONTINUOUS
10
53.5317
20
-108.045
11
53.6571
21
-107.92
0
LINE
8
BLACK
6
CONTINUOUS
10
53.6571
20
-107.92
11
53.7556
21
-107.772
0
LINE
8
BLACK
6
CONTINUOUS
10
53.7556
20
-107.772
11
53.8234
21
-107.609
0
LINE
8
BLACK
6
CONTINUOUS
10
53.8234
20
-107.609
11
53.858
21
-107.435
0
LINE
8
BLACK
6
CONTINUOUS
10
53.858
20
-107.435
11
53.858
21
-107.346
0
LINE
8
BLACK
6
CONTINUOUS
10
53.858
20
-107.346
11
53.858
21
-95.346
0
LINE
8
BLACK
6
CONTINUOUS
10
53.858
20
-95.346
11
53.858
21
-95.346
0
LINE
8
BLACK
6
CONTINUOUS
10
53.858
20
-95.346
11
53.858
21
-95.2574
0
LINE
8
BLACK
6
CONTINUOUS
10
53.858
20
-95.2574
11
53.8234
21
-95.0835
0
LINE
8
BLACK
6
CONTINUOUS
10
53.8234
20
-95.0835
11
53.7556
21
-94.9197
0
LINE
8
BLACK
6
CONTINUOUS
10
53.7556
20
-94.9197
11
53.6571
21
-94.7723
0
LINE
8
BLACK
6
CONTINUOUS
10
53.6571
20
-94.7723
11
53.5317
21
-94.6469
0
LINE
8
BLACK
6
CONTINUOUS
10
53.5317
20
-94.6469
11
53.3843
21
-94.5484
0
LINE
8
BLACK
6
CONTINUOUS
10
53.3843
20
-94.5484
11
53.2205
21
-94.4806
0
LINE
8
BLACK
6
CONTINUOUS
10
53.2205
20
-94.4806
11
53.0466
21
-94.446
0
LINE
8
BLACK
6
CONTINUOUS
10
53.0466
20
-94.446
11
52.958
21
-94.446
0
LINE
8
BLACK
6
CONTINUOUS
10
52.958
20
-94.446
11
39.458
21
-94.446
  0
ENDSEC
  0
EOF
