  0
SECTION
  2
HEADER
  9
$ANGBASE
  50
0.0
  9
$ANGDIR
  70
1
  9
$MEASUREMENT
  70
1
  0
ENDSEC
  0
SECTION
  2
TABLES
  0
TABLE
  2
LTYPE
  70
4
  0
LTYPE
  5
40F
  2
CONTINUOUS
  70
0
  3
Solid line
  72
65
  73
0
  40
0.0
  0
LTYPE
  5
410
  2
DASHDOT
 70
0
  3
Dash Dot ____ _ ____ _
 72
65
 73
4
 40
2.0
 49
1.25
 49
-0.25
 49
0.25
 49
-0.25
  0
LTYPE
  5
411
  2
DASHED
 70
0
  3
Dashed __ __ __ __ __
 72
65
 73
2
 40
0.75
 49
0.5
 49
-0.25
  0
LTYPE
  5
43B
  2
DOTTED
 70
0
  3
Dotted .  .  .  .
 72
65
 73
2
 40
0.2
 49
0.0
 49
-0.2
  0
ENDTAB
  0
TABLE
  2
STYLE
  70
4
  0
STYLE
  2
KICAD
  70
0
  40
0
  41
1
  42
1
  50
0
  71
0
  3
isocp.shx
  0
STYLE
  2
KICADB
  70
0
  40
0
  41
1
  42
1
  50
0
  71
0
  3
isocp.shx
  0
STYLE
  2
KICADI
  70
0
  40
0
  41
1
  42
1
  50
15
  71
0
  3
isocp.shx
  0
STYLE
  2
KICADBI
  70
0
  40
0
  41
1
  42
1
  50
15
  71
0
  3
isocp.shx
  0
ENDTAB
  0
TABLE
  2
LAYER
  70
1
  0
LAYER
  2
BLACK
  70
0
  62
7
  6
CONTINUOUS
  0
ENDTAB
  0
ENDSEC
  0
SECTION
  2
ENTITIES
0
LINE
8
BLACK
6
CONTINUOUS
10
111.034
20
-125.803
11
110.936
21
-126.127
0
LINE
8
BLACK
6
CONTINUOUS
10
110.936
20
-126.127
11
110.806
21
-126.44
0
LINE
8
BLACK
6
CONTINUOUS
10
110.806
20
-126.44
11
110.646
21
-126.739
0
LINE
8
BLACK
6
CONTINUOUS
10
110.646
20
-126.739
11
110.457
21
-127.021
0
LINE
8
BLACK
6
CONTINUOUS
10
110.457
20
-127.021
11
110.242
21
-127.283
0
LINE
8
BLACK
6
CONTINUOUS
10
110.242
20
-127.283
11
110.002
21
-127.522
0
LINE
8
BLACK
6
CONTINUOUS
10
110.002
20
-127.522
11
109.739
21
-127.736
0
LINE
8
BLACK
6
CONTINUOUS
10
109.739
20
-127.736
11
109.457
21
-127.924
0
LINE
8
BLACK
6
CONTINUOUS
10
109.457
20
-127.924
11
109.158
21
-128.083
0
LINE
8
BLACK
6
CONTINUOUS
10
109.158
20
-128.083
11
108.844
21
-128.212
0
LINE
8
BLACK
6
CONTINUOUS
10
108.844
20
-128.212
11
108.519
21
-128.309
0
LINE
8
BLACK
6
CONTINUOUS
10
108.519
20
-128.309
11
108.187
21
-128.374
0
LINE
8
BLACK
6
CONTINUOUS
10
108.187
20
-128.374
11
107.849
21
-128.405
0
LINE
8
BLACK
6
CONTINUOUS
10
107.849
20
-128.405
11
107.51
21
-128.404
0
LINE
8
BLACK
6
CONTINUOUS
10
107.51
20
-128.404
11
107.173
21
-128.369
0
LINE
8
BLACK
6
CONTINUOUS
10
107.173
20
-128.369
11
107.171
21
-128.368
0
LINE
8
BLACK
6
CONTINUOUS
10
107.171
20
-128.368
11
107.17
21
-128.368
0
LINE
8
BLACK
6
CONTINUOUS
10
107.17
20
-128.368
11
86.1101
21
-124.562
0
LINE
8
BLACK
6
CONTINUOUS
10
86.1101
20
-124.562
11
69.897
21
-128.869
0
LINE
8
BLACK
6
CONTINUOUS
10
69.897
20
-128.869
11
54.9279
21
-141.301
0
LINE
8
BLACK
6
CONTINUOUS
10
54.9279
20
-141.301
11
54.9275
21
-141.301
0
LINE
8
BLACK
6
CONTINUOUS
10
54.9275
20
-141.301
11
54.653
21
-141.524
0
LINE
8
BLACK
6
CONTINUOUS
10
54.653
20
-141.524
11
54.3537
21
-141.72
0
LINE
8
BLACK
6
CONTINUOUS
10
54.3537
20
-141.72
11
54.0359
21
-141.885
0
LINE
8
BLACK
6
CONTINUOUS
10
54.0359
20
-141.885
11
53.7031
21
-142.016
0
LINE
8
BLACK
6
CONTINUOUS
10
53.7031
20
-142.016
11
53.3586
21
-142.114
0
LINE
8
BLACK
6
CONTINUOUS
10
53.3586
20
-142.114
11
53.006
21
-142.175
0
LINE
8
BLACK
6
CONTINUOUS
10
53.006
20
-142.175
11
52.649
21
-142.201
0
LINE
8
BLACK
6
CONTINUOUS
10
52.649
20
-142.201
11
52.2912
21
-142.19
0
LINE
8
BLACK
6
CONTINUOUS
10
52.2912
20
-142.19
11
51.9365
21
-142.142
0
LINE
8
BLACK
6
CONTINUOUS
10
51.9365
20
-142.142
11
51.5883
21
-142.059
0
LINE
8
BLACK
6
CONTINUOUS
10
51.5883
20
-142.059
11
51.2505
21
-141.941
0
LINE
8
BLACK
6
CONTINUOUS
10
51.2505
20
-141.941
11
50.9263
21
-141.789
0
LINE
8
BLACK
6
CONTINUOUS
10
50.9263
20
-141.789
11
50.6193
21
-141.605
0
LINE
8
BLACK
6
CONTINUOUS
10
50.6193
20
-141.605
11
50.3325
21
-141.391
0
LINE
8
BLACK
6
CONTINUOUS
10
50.3325
20
-141.391
11
50.069
21
-141.149
0
LINE
8
BLACK
6
CONTINUOUS
10
50.069
20
-141.149
11
49.8332
21
-140.883
0
LINE
8
BLACK
6
CONTINUOUS
10
49.8332
20
-140.883
11
49.8329
21
-140.883
0
LINE
8
BLACK
6
CONTINUOUS
10
49.8329
20
-140.883
11
37.1208
21
-125.703
0
LINE
8
BLACK
6
CONTINUOUS
10
37.1208
20
-125.703
11
37.1204
21
-125.702
0
LINE
8
BLACK
6
CONTINUOUS
10
37.1204
20
-125.702
11
37.1194
21
-125.702
0
LINE
8
BLACK
6
CONTINUOUS
10
37.1194
20
-125.702
11
37.1194
21
-125.702
0
LINE
8
BLACK
6
CONTINUOUS
10
37.1194
20
-125.702
11
36.992
21
-125.517
0
LINE
8
BLACK
6
CONTINUOUS
10
36.992
20
-125.517
11
36.892
21
-125.316
0
LINE
8
BLACK
6
CONTINUOUS
10
36.892
20
-125.316
11
36.8215
21
-125.103
0
LINE
8
BLACK
6
CONTINUOUS
10
36.8215
20
-125.103
11
36.7819
21
-124.882
0
LINE
8
BLACK
6
CONTINUOUS
10
36.7819
20
-124.882
11
36.7739
21
-124.658
0
LINE
8
BLACK
6
CONTINUOUS
10
36.7739
20
-124.658
11
36.7979
21
-124.434
0
LINE
8
BLACK
6
CONTINUOUS
10
36.7979
20
-124.434
11
36.8532
21
-124.217
0
LINE
8
BLACK
6
CONTINUOUS
10
36.8532
20
-124.217
11
36.9387
21
-124.009
0
LINE
8
BLACK
6
CONTINUOUS
10
36.9387
20
-124.009
11
37.0528
21
-123.816
0
LINE
8
BLACK
6
CONTINUOUS
10
37.0528
20
-123.816
11
37.1931
21
-123.641
0
LINE
8
BLACK
6
CONTINUOUS
10
37.1931
20
-123.641
11
37.3568
21
-123.487
0
LINE
8
BLACK
6
CONTINUOUS
10
37.3568
20
-123.487
11
37.5288
21
-123.366
0
LINE
8
BLACK
6
CONTINUOUS
10
37.5288
20
-123.366
11
43.0175
21
-118.815
0
LINE
8
BLACK
6
CONTINUOUS
10
43.0175
20
-118.815
11
43.007
21
-118.804
0
LINE
8
BLACK
6
CONTINUOUS
10
43.007
20
-118.804
11
42.8545
21
-118.593
0
LINE
8
BLACK
6
CONTINUOUS
10
42.8545
20
-118.593
11
42.7327
21
-118.362
0
LINE
8
BLACK
6
CONTINUOUS
10
42.7327
20
-118.362
11
42.644
21
-118.117
0
LINE
8
BLACK
6
CONTINUOUS
10
42.644
20
-118.117
11
42.5901
21
-117.862
0
LINE
8
BLACK
6
CONTINUOUS
10
42.5901
20
-117.862
11
42.572
21
-117.602
0
LINE
8
BLACK
6
CONTINUOUS
10
42.572
20
-117.602
11
42.572
21
-110.998
0
LINE
8
BLACK
6
CONTINUOUS
10
42.572
20
-110.998
11
42.572
21
-110.923
0
LINE
8
BLACK
6
CONTINUOUS
10
42.572
20
-110.923
11
42.5388
21
-110.778
0
LINE
8
BLACK
6
CONTINUOUS
10
42.5388
20
-110.778
11
42.4741
21
-110.644
0
LINE
8
BLACK
6
CONTINUOUS
10
42.4741
20
-110.644
11
42.3811
21
-110.527
0
LINE
8
BLACK
6
CONTINUOUS
10
42.3811
20
-110.527
11
42.2644
21
-110.434
0
LINE
8
BLACK
6
CONTINUOUS
10
42.2644
20
-110.434
11
42.13
21
-110.369
0
LINE
8
BLACK
6
CONTINUOUS
10
42.13
20
-110.369
11
41.9846
21
-110.336
0
LINE
8
BLACK
6
CONTINUOUS
10
41.9846
20
-110.336
11
41.91
21
-110.336
0
LINE
8
BLACK
6
CONTINUOUS
10
41.91
20
-110.336
11
33.782
21
-110.336
0
LINE
8
BLACK
6
CONTINUOUS
10
33.782
20
-110.336
11
33.6138
21
-110.319
0
LINE
8
BLACK
6
CONTINUOUS
10
33.6138
20
-110.319
11
33.4521
21
-110.27
0
LINE
8
BLACK
6
CONTINUOUS
10
33.4521
20
-110.27
11
33.3031
21
-110.191
0
LINE
8
BLACK
6
CONTINUOUS
10
33.3031
20
-110.191
11
33.1725
21
-110.084
0
LINE
8
BLACK
6
CONTINUOUS
10
33.1725
20
-110.084
11
33.0653
21
-109.953
0
LINE
8
BLACK
6
CONTINUOUS
10
33.0653
20
-109.953
11
32.9856
21
-109.804
0
LINE
8
BLACK
6
CONTINUOUS
10
32.9856
20
-109.804
11
32.9366
21
-109.642
0
LINE
8
BLACK
6
CONTINUOUS
10
32.9366
20
-109.642
11
32.92
21
-109.474
0
LINE
8
BLACK
6
CONTINUOUS
10
32.92
20
-109.474
11
32.92
21
-93.726
0
LINE
8
BLACK
6
CONTINUOUS
10
32.92
20
-93.726
11
32.9366
21
-93.5578
0
LINE
8
BLACK
6
CONTINUOUS
10
32.9366
20
-93.5578
11
32.9856
21
-93.3961
0
LINE
8
BLACK
6
CONTINUOUS
10
32.9856
20
-93.3961
11
33.0653
21
-93.2471
0
LINE
8
BLACK
6
CONTINUOUS
10
33.0653
20
-93.2471
11
33.1725
21
-93.1165
0
LINE
8
BLACK
6
CONTINUOUS
10
33.1725
20
-93.1165
11
33.3031
21
-93.0093
0
LINE
8
BLACK
6
CONTINUOUS
10
33.3031
20
-93.0093
11
33.4521
21
-92.9296
0
LINE
8
BLACK
6
CONTINUOUS
10
33.4521
20
-92.9296
11
33.6138
21
-92.8806
0
LINE
8
BLACK
6
CONTINUOUS
10
33.6138
20
-92.8806
11
33.782
21
-92.864
0
LINE
8
BLACK
6
CONTINUOUS
10
33.782
20
-92.864
11
40.386
21
-92.864
0
LINE
8
BLACK
6
CONTINUOUS
10
40.386
20
-92.864
11
40.4397
21
-92.864
0
LINE
8
BLACK
6
CONTINUOUS
10
40.4397
20
-92.864
11
40.5435
21
-92.8362
0
LINE
8
BLACK
6
CONTINUOUS
10
40.5435
20
-92.8362
11
40.6365
21
-92.7825
0
LINE
8
BLACK
6
CONTINUOUS
10
40.6365
20
-92.7825
11
40.7125
21
-92.7065
0
LINE
8
BLACK
6
CONTINUOUS
10
40.7125
20
-92.7065
11
40.7662
21
-92.6135
0
LINE
8
BLACK
6
CONTINUOUS
10
40.7662
20
-92.6135
11
40.794
21
-92.5097
0
LINE
8
BLACK
6
CONTINUOUS
10
40.794
20
-92.5097
11
40.794
21
-92.456
0
LINE
8
BLACK
6
CONTINUOUS
10
40.794
20
-92.456
11
40.794
21
-82.296
0
LINE
8
BLACK
6
CONTINUOUS
10
40.794
20
-82.296
11
40.794
21
-82.2423
0
LINE
8
BLACK
6
CONTINUOUS
10
40.794
20
-82.2423
11
40.7662
21
-82.1385
0
LINE
8
BLACK
6
CONTINUOUS
10
40.7662
20
-82.1385
11
40.7125
21
-82.0455
0
LINE
8
BLACK
6
CONTINUOUS
10
40.7125
20
-82.0455
11
40.6365
21
-81.9695
0
LINE
8
BLACK
6
CONTINUOUS
10
40.6365
20
-81.9695
11
40.5435
21
-81.9158
0
LINE
8
BLACK
6
CONTINUOUS
10
40.5435
20
-81.9158
11
40.4397
21
-81.888
0
LINE
8
BLACK
6
CONTINUOUS
10
40.4397
20
-81.888
11
40.386
21
-81.888
0
LINE
8
BLACK
6
CONTINUOUS
10
40.386
20
-81.888
11
33.782
21
-81.888
0
LINE
8
BLACK
6
CONTINUOUS
10
33.782
20
-81.888
11
33.6138
21
-81.8714
0
LINE
8
BLACK
6
CONTINUOUS
10
33.6138
20
-81.8714
11
33.4521
21
-81.8224
0
LINE
8
BLACK
6
CONTINUOUS
10
33.4521
20
-81.8224
11
33.3031
21
-81.7427
0
LINE
8
BLACK
6
CONTINUOUS
10
33.3031
20
-81.7427
11
33.1725
21
-81.6355
0
LINE
8
BLACK
6
CONTINUOUS
10
33.1725
20
-81.6355
11
33.0653
21
-81.5049
0
LINE
8
BLACK
6
CONTINUOUS
10
33.0653
20
-81.5049
11
32.9856
21
-81.3559
0
LINE
8
BLACK
6
CONTINUOUS
10
32.9856
20
-81.3559
11
32.9366
21
-81.1942
0
LINE
8
BLACK
6
CONTINUOUS
10
32.9366
20
-81.1942
11
32.92
21
-81.026
0
LINE
8
BLACK
6
CONTINUOUS
10
32.92
20
-81.026
11
32.92
21
-38.862
0
LINE
8
BLACK
6
CONTINUOUS
10
32.92
20
-38.862
11
32.92
21
-38.862
0
LINE
8
BLACK
6
CONTINUOUS
10
32.92
20
-38.862
11
32.9366
21
-38.6938
0
LINE
8
BLACK
6
CONTINUOUS
10
32.9366
20
-38.6938
11
32.9856
21
-38.5321
0
LINE
8
BLACK
6
CONTINUOUS
10
32.9856
20
-38.5321
11
33.0653
21
-38.3831
0
LINE
8
BLACK
6
CONTINUOUS
10
33.0653
20
-38.3831
11
33.1725
21
-38.2525
0
LINE
8
BLACK
6
CONTINUOUS
10
33.1725
20
-38.2525
11
33.3031
21
-38.1453
0
LINE
8
BLACK
6
CONTINUOUS
10
33.3031
20
-38.1453
11
33.4521
21
-38.0656
0
LINE
8
BLACK
6
CONTINUOUS
10
33.4521
20
-38.0656
11
33.6138
21
-38.0166
0
LINE
8
BLACK
6
CONTINUOUS
10
33.6138
20
-38.0166
11
33.782
21
-38
0
LINE
8
BLACK
6
CONTINUOUS
10
33.782
20
-38
11
36.322
21
-38
0
LINE
8
BLACK
6
CONTINUOUS
10
36.322
20
-38
11
36.6003
21
-38.0182
0
LINE
8
BLACK
6
CONTINUOUS
10
36.6003
20
-38.0182
11
36.8738
21
-38.0726
0
LINE
8
BLACK
6
CONTINUOUS
10
36.8738
20
-38.0726
11
37.1379
21
-38.1623
0
LINE
8
BLACK
6
CONTINUOUS
10
37.1379
20
-38.1623
11
37.388
21
-38.2856
0
LINE
8
BLACK
6
CONTINUOUS
10
37.388
20
-38.2856
11
37.6199
21
-38.4406
0
LINE
8
BLACK
6
CONTINUOUS
10
37.6199
20
-38.4406
11
37.8296
21
-38.6244
0
LINE
8
BLACK
6
CONTINUOUS
10
37.8296
20
-38.6244
11
38.0134
21
-38.8341
0
LINE
8
BLACK
6
CONTINUOUS
10
38.0134
20
-38.8341
11
38.1684
21
-39.066
0
LINE
8
BLACK
6
CONTINUOUS
10
38.1684
20
-39.066
11
38.2917
21
-39.3161
0
LINE
8
BLACK
6
CONTINUOUS
10
38.2917
20
-39.3161
11
38.3814
21
-39.5802
0
LINE
8
BLACK
6
CONTINUOUS
10
38.3814
20
-39.5802
11
38.4358
21
-39.8537
0
LINE
8
BLACK
6
CONTINUOUS
10
38.4358
20
-39.8537
11
38.454
21
-40.132
0
LINE
8
BLACK
6
CONTINUOUS
10
38.454
20
-40.132
11
38.454
21
-47.244
0
LINE
8
BLACK
6
CONTINUOUS
10
38.454
20
-47.244
11
38.454
21
-47.244
0
LINE
8
BLACK
6
CONTINUOUS
10
38.454
20
-47.244
11
38.454
21
-47.2977
0
LINE
8
BLACK
6
CONTINUOUS
10
38.454
20
-47.2977
11
38.4818
21
-47.4015
0
LINE
8
BLACK
6
CONTINUOUS
10
38.4818
20
-47.4015
11
38.5355
21
-47.4945
0
LINE
8
BLACK
6
CONTINUOUS
10
38.5355
20
-47.4945
11
38.6115
21
-47.5705
0
LINE
8
BLACK
6
CONTINUOUS
10
38.6115
20
-47.5705
11
38.7045
21
-47.6242
0
LINE
8
BLACK
6
CONTINUOUS
10
38.7045
20
-47.6242
11
38.8083
21
-47.652
0
LINE
8
BLACK
6
CONTINUOUS
10
38.8083
20
-47.652
11
38.862
21
-47.652
0
LINE
8
BLACK
6
CONTINUOUS
10
38.862
20
-47.652
11
49.022
21
-47.652
0
LINE
8
BLACK
6
CONTINUOUS
10
49.022
20
-47.652
11
49.0757
21
-47.652
0
LINE
8
BLACK
6
CONTINUOUS
10
49.0757
20
-47.652
11
49.1795
21
-47.6242
0
LINE
8
BLACK
6
CONTINUOUS
10
49.1795
20
-47.6242
11
49.2725
21
-47.5705
0
LINE
8
BLACK
6
CONTINUOUS
10
49.2725
20
-47.5705
11
49.3485
21
-47.4945
0
LINE
8
BLACK
6
CONTINUOUS
10
49.3485
20
-47.4945
11
49.4022
21
-47.4015
0
LINE
8
BLACK
6
CONTINUOUS
10
49.4022
20
-47.4015
11
49.43
21
-47.2977
0
LINE
8
BLACK
6
CONTINUOUS
10
49.43
20
-47.2977
11
49.43
21
-47.244
0
LINE
8
BLACK
6
CONTINUOUS
10
49.43
20
-47.244
11
49.43
21
-47.244
0
LINE
8
BLACK
6
CONTINUOUS
10
49.43
20
-47.244
11
49.43
21
-40.132
0
LINE
8
BLACK
6
CONTINUOUS
10
49.43
20
-40.132
11
49.43
21
-40.132
0
LINE
8
BLACK
6
CONTINUOUS
10
49.43
20
-40.132
11
49.4482
21
-39.8537
0
LINE
8
BLACK
6
CONTINUOUS
10
49.4482
20
-39.8537
11
49.5026
21
-39.5802
0
LINE
8
BLACK
6
CONTINUOUS
10
49.5026
20
-39.5802
11
49.5923
21
-39.3161
0
LINE
8
BLACK
6
CONTINUOUS
10
49.5923
20
-39.3161
11
49.7156
21
-39.066
0
LINE
8
BLACK
6
CONTINUOUS
10
49.7156
20
-39.066
11
49.8706
21
-38.8341
0
LINE
8
BLACK
6
CONTINUOUS
10
49.8706
20
-38.8341
11
50.0544
21
-38.6244
0
LINE
8
BLACK
6
CONTINUOUS
10
50.0544
20
-38.6244
11
50.2641
21
-38.4406
0
LINE
8
BLACK
6
CONTINUOUS
10
50.2641
20
-38.4406
11
50.496
21
-38.2856
0
LINE
8
BLACK
6
CONTINUOUS
10
50.496
20
-38.2856
11
50.7461
21
-38.1623
0
LINE
8
BLACK
6
CONTINUOUS
10
50.7461
20
-38.1623
11
51.0102
21
-38.0726
0
LINE
8
BLACK
6
CONTINUOUS
10
51.0102
20
-38.0726
11
51.2837
21
-38.0182
0
LINE
8
BLACK
6
CONTINUOUS
10
51.2837
20
-38.0182
11
51.562
21
-38
0
LINE
8
BLACK
6
CONTINUOUS
10
51.562
20
-38
11
51.6366
21
-38
0
LINE
8
BLACK
6
CONTINUOUS
10
51.6366
20
-38
11
51.782
21
-37.9668
0
LINE
8
BLACK
6
CONTINUOUS
10
51.782
20
-37.9668
11
51.9164
21
-37.9021
0
LINE
8
BLACK
6
CONTINUOUS
10
51.9164
20
-37.9021
11
52.0331
21
-37.8091
0
LINE
8
BLACK
6
CONTINUOUS
10
52.0331
20
-37.8091
11
52.1261
21
-37.6924
0
LINE
8
BLACK
6
CONTINUOUS
10
52.1261
20
-37.6924
11
52.1908
21
-37.558
0
LINE
8
BLACK
6
CONTINUOUS
10
52.1908
20
-37.558
11
52.224
21
-37.4126
0
LINE
8
BLACK
6
CONTINUOUS
10
52.224
20
-37.4126
11
52.224
21
-37.338
0
LINE
8
BLACK
6
CONTINUOUS
10
52.224
20
-37.338
11
52.224
21
-36.322
0
LINE
8
BLACK
6
CONTINUOUS
10
52.224
20
-36.322
11
52.2406
21
-36.1538
0
LINE
8
BLACK
6
CONTINUOUS
10
52.2406
20
-36.1538
11
52.2896
21
-35.9921
0
LINE
8
BLACK
6
CONTINUOUS
10
52.2896
20
-35.9921
11
52.3693
21
-35.8431
0
LINE
8
BLACK
6
CONTINUOUS
10
52.3693
20
-35.8431
11
52.4765
21
-35.7125
0
LINE
8
BLACK
6
CONTINUOUS
10
52.4765
20
-35.7125
11
52.6071
21
-35.6053
0
LINE
8
BLACK
6
CONTINUOUS
10
52.6071
20
-35.6053
11
52.7561
21
-35.5256
0
LINE
8
BLACK
6
CONTINUOUS
10
52.7561
20
-35.5256
11
52.9178
21
-35.4766
0
LINE
8
BLACK
6
CONTINUOUS
10
52.9178
20
-35.4766
11
53.086
21
-35.46
0
LINE
8
BLACK
6
CONTINUOUS
10
53.086
20
-35.46
11
69.2883
21
-35.46
0
LINE
8
BLACK
6
CONTINUOUS
10
69.2883
20
-35.46
11
69.3087
21
-35.4666
0
LINE
8
BLACK
6
CONTINUOUS
10
69.3087
20
-35.4666
11
69.3111
21
-35.4649
0
LINE
8
BLACK
6
CONTINUOUS
10
69.3111
20
-35.4649
11
69.3269
21
-35.4649
0
LINE
8
BLACK
6
CONTINUOUS
10
69.3269
20
-35.4649
11
69.342
21
-35.46
0
LINE
8
BLACK
6
CONTINUOUS
10
69.342
20
-35.46
11
84.328
21
-35.46
0
LINE
8
BLACK
6
CONTINUOUS
10
84.328
20
-35.46
11
84.4026
21
-35.46
0
LINE
8
BLACK
6
CONTINUOUS
10
84.4026
20
-35.46
11
84.548
21
-35.4268
0
LINE
8
BLACK
6
CONTINUOUS
10
84.548
20
-35.4268
11
84.6824
21
-35.3621
0
LINE
8
BLACK
6
CONTINUOUS
10
84.6824
20
-35.3621
11
84.7991
21
-35.2691
0
LINE
8
BLACK
6
CONTINUOUS
10
84.7991
20
-35.2691
11
84.8921
21
-35.1524
0
LINE
8
BLACK
6
CONTINUOUS
10
84.8921
20
-35.1524
11
84.9568
21
-35.018
0
LINE
8
BLACK
6
CONTINUOUS
10
84.9568
20
-35.018
11
84.99
21
-34.8726
0
LINE
8
BLACK
6
CONTINUOUS
10
84.99
20
-34.8726
11
84.99
21
-34.798
0
LINE
8
BLACK
6
CONTINUOUS
10
84.99
20
-34.798
11
84.991
21
-34.7943
0
LINE
8
BLACK
6
CONTINUOUS
10
84.991
20
-34.7943
11
84.9902
21
-34.7913
0
LINE
8
BLACK
6
CONTINUOUS
10
84.9902
20
-34.7913
11
85.2442
21
-30.9813
0
LINE
8
BLACK
6
CONTINUOUS
10
85.2442
20
-30.9813
11
85.2445
21
-30.9806
0
LINE
8
BLACK
6
CONTINUOUS
10
85.2445
20
-30.9806
11
85.2605
21
-30.7569
0
LINE
8
BLACK
6
CONTINUOUS
10
85.2605
20
-30.7569
11
85.3098
21
-30.5305
0
LINE
8
BLACK
6
CONTINUOUS
10
85.3098
20
-30.5305
11
85.3908
21
-30.3134
0
LINE
8
BLACK
6
CONTINUOUS
10
85.3908
20
-30.3134
11
85.5018
21
-30.11
0
LINE
8
BLACK
6
CONTINUOUS
10
85.5018
20
-30.11
11
85.6407
21
-29.9245
0
LINE
8
BLACK
6
CONTINUOUS
10
85.6407
20
-29.9245
11
85.8045
21
-29.7607
0
LINE
8
BLACK
6
CONTINUOUS
10
85.8045
20
-29.7607
11
85.99
21
-29.6218
0
LINE
8
BLACK
6
CONTINUOUS
10
85.99
20
-29.6218
11
86.1934
21
-29.5108
0
LINE
8
BLACK
6
CONTINUOUS
10
86.1934
20
-29.5108
11
86.4105
21
-29.4298
0
LINE
8
BLACK
6
CONTINUOUS
10
86.4105
20
-29.4298
11
86.6369
21
-29.3805
0
LINE
8
BLACK
6
CONTINUOUS
10
86.6369
20
-29.3805
11
86.868
21
-29.364
0
LINE
8
BLACK
6
CONTINUOUS
10
86.868
20
-29.364
11
86.8697
21
-29.3644
0
LINE
8
BLACK
6
CONTINUOUS
10
86.8697
20
-29.3644
11
86.871
21
-29.364
0
LINE
8
BLACK
6
CONTINUOUS
10
86.871
20
-29.364
11
104.395
21
-29.8971
0
LINE
8
BLACK
6
CONTINUOUS
10
104.395
20
-29.8971
11
104.485
21
-29.8972
0
LINE
8
BLACK
6
CONTINUOUS
10
104.485
20
-29.8972
11
104.666
21
-29.8694
0
LINE
8
BLACK
6
CONTINUOUS
10
104.666
20
-29.8694
11
104.84
21
-29.8145
0
LINE
8
BLACK
6
CONTINUOUS
10
104.84
20
-29.8145
11
105.004
21
-29.7337
0
LINE
8
BLACK
6
CONTINUOUS
10
105.004
20
-29.7337
11
105.154
21
-29.629
0
LINE
8
BLACK
6
CONTINUOUS
10
105.154
20
-29.629
11
105.286
21
-29.5027
0
LINE
8
BLACK
6
CONTINUOUS
10
105.286
20
-29.5027
11
105.397
21
-29.3578
0
LINE
8
BLACK
6
CONTINUOUS
10
105.397
20
-29.3578
11
105.485
21
-29.1976
0
LINE
8
BLACK
6
CONTINUOUS
10
105.485
20
-29.1976
11
105.548
21
-29.026
0
LINE
8
BLACK
6
CONTINUOUS
10
105.548
20
-29.026
11
105.565
21
-28.9422
0
LINE
8
BLACK
6
CONTINUOUS
10
105.565
20
-28.9422
11
106.072
21
-22.598
0
LINE
8
BLACK
6
CONTINUOUS
10
106.072
20
-22.598
11
106.073
21
-22.5954
0
LINE
8
BLACK
6
CONTINUOUS
10
106.073
20
-22.5954
11
106.073
21
-22.5919
0
LINE
8
BLACK
6
CONTINUOUS
10
106.073
20
-22.5919
11
106.125
21
-22.3475
0
LINE
8
BLACK
6
CONTINUOUS
10
106.125
20
-22.3475
11
106.208
21
-22.1121
0
LINE
8
BLACK
6
CONTINUOUS
10
106.208
20
-22.1121
11
106.321
21
-21.8896
0
LINE
8
BLACK
6
CONTINUOUS
10
106.321
20
-21.8896
11
106.463
21
-21.6839
0
LINE
8
BLACK
6
CONTINUOUS
10
106.463
20
-21.6839
11
106.63
21
-21.4987
0
LINE
8
BLACK
6
CONTINUOUS
10
106.63
20
-21.4987
11
106.821
21
-21.3371
0
LINE
8
BLACK
6
CONTINUOUS
10
106.821
20
-21.3371
11
107.03
21
-21.2018
0
LINE
8
BLACK
6
CONTINUOUS
10
107.03
20
-21.2018
11
107.256
21
-21.0954
0
LINE
8
BLACK
6
CONTINUOUS
10
107.256
20
-21.0954
11
107.494
21
-21.0195
0
LINE
8
BLACK
6
CONTINUOUS
10
107.494
20
-21.0195
11
107.74
21
-20.9756
0
LINE
8
BLACK
6
CONTINUOUS
10
107.74
20
-20.9756
11
107.99
21
-20.9644
0
LINE
8
BLACK
6
CONTINUOUS
10
107.99
20
-20.9644
11
108.23
21
-20.9853
0
LINE
8
BLACK
6
CONTINUOUS
10
108.23
20
-20.9853
11
108.231
21
-20.9851
0
LINE
8
BLACK
6
CONTINUOUS
10
108.231
20
-20.9851
11
135.404
21
-23.0321
0
LINE
8
BLACK
6
CONTINUOUS
10
135.404
20
-23.0321
11
135.407
21
-23.0331
0
LINE
8
BLACK
6
CONTINUOUS
10
135.407
20
-23.0331
11
135.41
21
-23.0327
0
LINE
8
BLACK
6
CONTINUOUS
10
135.41
20
-23.0327
11
135.41
21
-23.0327
0
LINE
8
BLACK
6
CONTINUOUS
10
135.41
20
-23.0327
11
135.683
21
-23.0875
0
LINE
8
BLACK
6
CONTINUOUS
10
135.683
20
-23.0875
11
135.947
21
-23.1774
0
LINE
8
BLACK
6
CONTINUOUS
10
135.947
20
-23.1774
11
136.196
21
-23.3009
0
LINE
8
BLACK
6
CONTINUOUS
10
136.196
20
-23.3009
11
136.428
21
-23.4559
0
LINE
8
BLACK
6
CONTINUOUS
10
136.428
20
-23.4559
11
136.637
21
-23.6398
0
LINE
8
BLACK
6
CONTINUOUS
10
136.637
20
-23.6398
11
136.82
21
-23.8494
0
LINE
8
BLACK
6
CONTINUOUS
10
136.82
20
-23.8494
11
136.975
21
-24.0811
0
LINE
8
BLACK
6
CONTINUOUS
10
136.975
20
-24.0811
11
137.098
21
-24.331
0
LINE
8
BLACK
6
CONTINUOUS
10
137.098
20
-24.331
11
137.188
21
-24.5948
0
LINE
8
BLACK
6
CONTINUOUS
10
137.188
20
-24.5948
11
137.242
21
-24.868
0
LINE
8
BLACK
6
CONTINUOUS
10
137.242
20
-24.868
11
137.26
21
-25.146
0
LINE
8
BLACK
6
CONTINUOUS
10
137.26
20
-25.146
11
137.26
21
-25.146
0
LINE
8
BLACK
6
CONTINUOUS
10
137.26
20
-25.146
11
137.259
21
-25.1494
0
LINE
8
BLACK
6
CONTINUOUS
10
137.259
20
-25.1494
11
137.26
21
-25.1522
0
LINE
8
BLACK
6
CONTINUOUS
10
137.26
20
-25.1522
11
136.752
21
-33.2802
0
LINE
8
BLACK
6
CONTINUOUS
10
136.752
20
-33.2802
11
136.749
21
-33.2877
0
LINE
8
BLACK
6
CONTINUOUS
10
136.749
20
-33.2877
11
136.749
21
-33.2983
0
LINE
8
BLACK
6
CONTINUOUS
10
136.749
20
-33.2983
11
136.749
21
-33.2983
0
LINE
8
BLACK
6
CONTINUOUS
10
136.749
20
-33.2983
11
136.729
21
-33.3787
0
LINE
8
BLACK
6
CONTINUOUS
10
136.729
20
-33.3787
11
136.717
21
-33.544
0
LINE
8
BLACK
6
CONTINUOUS
10
136.717
20
-33.544
11
136.734
21
-33.7088
0
LINE
8
BLACK
6
CONTINUOUS
10
136.734
20
-33.7088
11
136.78
21
-33.8682
0
LINE
8
BLACK
6
CONTINUOUS
10
136.78
20
-33.8682
11
136.853
21
-34.0172
0
LINE
8
BLACK
6
CONTINUOUS
10
136.853
20
-34.0172
11
136.95
21
-34.1514
0
LINE
8
BLACK
6
CONTINUOUS
10
136.95
20
-34.1514
11
137.069
21
-34.2666
0
LINE
8
BLACK
6
CONTINUOUS
10
137.069
20
-34.2666
11
137.206
21
-34.3594
0
LINE
8
BLACK
6
CONTINUOUS
10
137.206
20
-34.3594
11
137.358
21
-34.4269
0
LINE
8
BLACK
6
CONTINUOUS
10
137.358
20
-34.4269
11
137.431
21
-34.4452
0
LINE
8
BLACK
6
CONTINUOUS
10
137.431
20
-34.4452
11
155.239
21
-36.2306
0
LINE
8
BLACK
6
CONTINUOUS
10
155.239
20
-36.2306
11
155.245
21
-36.2331
0
LINE
8
BLACK
6
CONTINUOUS
10
155.245
20
-36.2331
11
155.252
21
-36.2328
0
LINE
8
BLACK
6
CONTINUOUS
10
155.252
20
-36.2328
11
155.532
21
-36.3174
0
LINE
8
BLACK
6
CONTINUOUS
10
155.532
20
-36.3174
11
155.799
21
-36.4348
0
LINE
8
BLACK
6
CONTINUOUS
10
155.799
20
-36.4348
11
156.051
21
-36.5832
0
LINE
8
BLACK
6
CONTINUOUS
10
156.051
20
-36.5832
11
156.283
21
-36.7605
0
LINE
8
BLACK
6
CONTINUOUS
10
156.283
20
-36.7605
11
156.492
21
-36.9643
0
LINE
8
BLACK
6
CONTINUOUS
10
156.492
20
-36.9643
11
156.675
21
-37.1916
0
LINE
8
BLACK
6
CONTINUOUS
10
156.675
20
-37.1916
11
156.83
21
-37.4391
0
LINE
8
BLACK
6
CONTINUOUS
10
156.83
20
-37.4391
11
156.954
21
-37.7033
0
LINE
8
BLACK
6
CONTINUOUS
10
156.954
20
-37.7033
11
157.046
21
-37.9805
0
LINE
8
BLACK
6
CONTINUOUS
10
157.046
20
-37.9805
11
157.104
21
-38.2666
0
LINE
8
BLACK
6
CONTINUOUS
10
157.104
20
-38.2666
11
157.127
21
-38.5577
0
LINE
8
BLACK
6
CONTINUOUS
10
157.127
20
-38.5577
11
157.116
21
-38.8494
0
LINE
8
BLACK
6
CONTINUOUS
10
157.116
20
-38.8494
11
157.071
21
-39.1266
0
LINE
8
BLACK
6
CONTINUOUS
10
157.071
20
-39.1266
11
157.071
21
-39.1267
0
LINE
8
BLACK
6
CONTINUOUS
10
157.071
20
-39.1267
11
155.72
21
-51.6579
0
LINE
8
BLACK
6
CONTINUOUS
10
155.72
20
-51.6579
11
155.718
21
-51.6617
0
LINE
8
BLACK
6
CONTINUOUS
10
155.718
20
-51.6617
11
155.718
21
-51.6668
0
LINE
8
BLACK
6
CONTINUOUS
10
155.718
20
-51.6668
11
155.718
21
-51.6668
0
LINE
8
BLACK
6
CONTINUOUS
10
155.718
20
-51.6668
11
155.703
21
-51.7442
0
LINE
8
BLACK
6
CONTINUOUS
10
155.703
20
-51.7442
11
155.704
21
-51.9019
0
LINE
8
BLACK
6
CONTINUOUS
10
155.704
20
-51.9019
11
155.738
21
-52.056
0
LINE
8
BLACK
6
CONTINUOUS
10
155.738
20
-52.056
11
155.802
21
-52.1999
0
LINE
8
BLACK
6
CONTINUOUS
10
155.802
20
-52.1999
11
155.895
21
-52.3274
0
LINE
8
BLACK
6
CONTINUOUS
10
155.895
20
-52.3274
11
156.012
21
-52.4332
0
LINE
8
BLACK
6
CONTINUOUS
10
156.012
20
-52.4332
11
156.149
21
-52.5128
0
LINE
8
BLACK
6
CONTINUOUS
10
156.149
20
-52.5128
11
156.215
21
-52.5348
0
LINE
8
BLACK
6
CONTINUOUS
10
156.215
20
-52.5348
11
173.274
21
-55.0754
0
LINE
8
BLACK
6
CONTINUOUS
10
173.274
20
-55.0754
11
173.278
21
-55.0778
0
LINE
8
BLACK
6
CONTINUOUS
10
173.278
20
-55.0778
11
173.285
21
-55.0779
0
LINE
8
BLACK
6
CONTINUOUS
10
173.285
20
-55.0779
11
173.549
21
-55.1685
0
LINE
8
BLACK
6
CONTINUOUS
10
173.549
20
-55.1685
11
173.798
21
-55.2926
0
LINE
8
BLACK
6
CONTINUOUS
10
173.798
20
-55.2926
11
174.03
21
-55.4479
0
LINE
8
BLACK
6
CONTINUOUS
10
174.03
20
-55.4479
11
174.239
21
-55.632
0
LINE
8
BLACK
6
CONTINUOUS
10
174.239
20
-55.632
11
174.423
21
-55.8416
0
LINE
8
BLACK
6
CONTINUOUS
10
174.423
20
-55.8416
11
174.578
21
-56.0732
0
LINE
8
BLACK
6
CONTINUOUS
10
174.578
20
-56.0732
11
174.702
21
-56.323
0
LINE
8
BLACK
6
CONTINUOUS
10
174.702
20
-56.323
11
174.793
21
-56.5868
0
LINE
8
BLACK
6
CONTINUOUS
10
174.793
20
-56.5868
11
174.848
21
-56.86
0
LINE
8
BLACK
6
CONTINUOUS
10
174.848
20
-56.86
11
174.868
21
-57.1381
0
LINE
8
BLACK
6
CONTINUOUS
10
174.868
20
-57.1381
11
174.851
21
-57.4152
0
LINE
8
BLACK
6
CONTINUOUS
10
174.851
20
-57.4152
11
174.851
21
-57.4155
0
LINE
8
BLACK
6
CONTINUOUS
10
174.851
20
-57.4155
11
174.09
21
-64.0138
0
LINE
8
BLACK
6
CONTINUOUS
10
174.09
20
-64.0138
11
174.09
21
-64.095
0
LINE
8
BLACK
6
CONTINUOUS
10
174.09
20
-64.095
11
174.123
21
-64.2659
0
LINE
8
BLACK
6
CONTINUOUS
10
174.123
20
-64.2659
11
174.187
21
-64.4276
0
LINE
8
BLACK
6
CONTINUOUS
10
174.187
20
-64.4276
11
174.281
21
-64.5743
0
LINE
8
BLACK
6
CONTINUOUS
10
174.281
20
-64.5743
11
174.4
21
-64.7007
0
LINE
8
BLACK
6
CONTINUOUS
10
174.4
20
-64.7007
11
174.542
21
-64.8024
0
LINE
8
BLACK
6
CONTINUOUS
10
174.542
20
-64.8024
11
174.699
21
-64.8756
0
LINE
8
BLACK
6
CONTINUOUS
10
174.699
20
-64.8756
11
174.781
21
-64.8959
0
LINE
8
BLACK
6
CONTINUOUS
10
174.781
20
-64.8959
11
191.534
21
-67.9736
0
LINE
8
BLACK
6
CONTINUOUS
10
191.534
20
-67.9736
11
191.537
21
-67.975
0
LINE
8
BLACK
6
CONTINUOUS
10
191.537
20
-67.975
11
191.54
21
-67.975
0
LINE
8
BLACK
6
CONTINUOUS
10
191.54
20
-67.975
11
191.793
21
-68.0547
0
LINE
8
BLACK
6
CONTINUOUS
10
191.793
20
-68.0547
11
192.034
21
-68.1642
0
LINE
8
BLACK
6
CONTINUOUS
10
192.034
20
-68.1642
11
192.261
21
-68.3021
0
LINE
8
BLACK
6
CONTINUOUS
10
192.261
20
-68.3021
11
192.469
21
-68.4662
0
LINE
8
BLACK
6
CONTINUOUS
10
192.469
20
-68.4662
11
192.655
21
-68.6542
0
LINE
8
BLACK
6
CONTINUOUS
10
192.655
20
-68.6542
11
192.818
21
-68.8634
0
LINE
8
BLACK
6
CONTINUOUS
10
192.818
20
-68.8634
11
192.955
21
-69.0906
0
LINE
8
BLACK
6
CONTINUOUS
10
192.955
20
-69.0906
11
193.062
21
-69.3326
0
LINE
8
BLACK
6
CONTINUOUS
10
193.062
20
-69.3326
11
193.14
21
-69.5859
0
LINE
8
BLACK
6
CONTINUOUS
10
193.14
20
-69.5859
11
193.187
21
-69.8467
0
LINE
8
BLACK
6
CONTINUOUS
10
193.187
20
-69.8467
11
193.203
21
-70.1113
0
LINE
8
BLACK
6
CONTINUOUS
10
193.203
20
-70.1113
11
193.186
21
-70.3757
0
LINE
8
BLACK
6
CONTINUOUS
10
193.186
20
-70.3757
11
193.138
21
-70.6289
0
LINE
8
BLACK
6
CONTINUOUS
10
193.138
20
-70.6289
11
193.138
21
-70.6295
0
LINE
8
BLACK
6
CONTINUOUS
10
193.138
20
-70.6295
11
184.447
21
-119.558
0
LINE
8
BLACK
6
CONTINUOUS
10
184.447
20
-119.558
11
184.447
21
-119.558
0
LINE
8
BLACK
6
CONTINUOUS
10
184.447
20
-119.558
11
184.365
21
-119.938
0
LINE
8
BLACK
6
CONTINUOUS
10
184.365
20
-119.938
11
184.248
21
-120.31
0
LINE
8
BLACK
6
CONTINUOUS
10
184.248
20
-120.31
11
184.096
21
-120.669
0
LINE
8
BLACK
6
CONTINUOUS
10
184.096
20
-120.669
11
183.912
21
-121.013
0
LINE
8
BLACK
6
CONTINUOUS
10
183.912
20
-121.013
11
183.696
21
-121.338
0
LINE
8
BLACK
6
CONTINUOUS
10
183.696
20
-121.338
11
183.45
21
-121.641
0
LINE
8
BLACK
6
CONTINUOUS
10
183.45
20
-121.641
11
183.177
21
-121.92
0
LINE
8
BLACK
6
CONTINUOUS
10
183.177
20
-121.92
11
182.88
21
-122.172
0
LINE
8
BLACK
6
CONTINUOUS
10
182.88
20
-122.172
11
182.56
21
-122.395
0
LINE
8
BLACK
6
CONTINUOUS
10
182.56
20
-122.395
11
182.22
21
-122.587
0
LINE
8
BLACK
6
CONTINUOUS
10
182.22
20
-122.587
11
181.865
21
-122.747
0
LINE
8
BLACK
6
CONTINUOUS
10
181.865
20
-122.747
11
181.495
21
-122.873
0
LINE
8
BLACK
6
CONTINUOUS
10
181.495
20
-122.873
11
181.116
21
-122.963
0
LINE
8
BLACK
6
CONTINUOUS
10
181.116
20
-122.963
11
180.73
21
-123.018
0
LINE
8
BLACK
6
CONTINUOUS
10
180.73
20
-123.018
11
180.34
21
-123.036
0
LINE
8
BLACK
6
CONTINUOUS
10
180.34
20
-123.036
11
112.522
21
-123.036
0
LINE
8
BLACK
6
CONTINUOUS
10
112.522
20
-123.036
11
112.522
21
-123.036
0
LINE
8
BLACK
6
CONTINUOUS
10
112.522
20
-123.036
11
112.421
21
-123.036
0
LINE
8
BLACK
6
CONTINUOUS
10
112.421
20
-123.036
11
112.223
21
-123.07
0
LINE
8
BLACK
6
CONTINUOUS
10
112.223
20
-123.07
11
112.033
21
-123.138
0
LINE
8
BLACK
6
CONTINUOUS
10
112.033
20
-123.138
11
111.858
21
-123.237
0
LINE
8
BLACK
6
CONTINUOUS
10
111.858
20
-123.237
11
111.702
21
-123.365
0
LINE
8
BLACK
6
CONTINUOUS
10
111.702
20
-123.365
11
111.571
21
-123.517
0
LINE
8
BLACK
6
CONTINUOUS
10
111.571
20
-123.517
11
111.467
21
-123.69
0
LINE
8
BLACK
6
CONTINUOUS
10
111.467
20
-123.69
11
111.395
21
-123.878
0
LINE
8
BLACK
6
CONTINUOUS
10
111.395
20
-123.878
11
111.375
21
-123.976
0
LINE
8
BLACK
6
CONTINUOUS
10
111.375
20
-123.976
11
111.035
21
-125.797
0
LINE
8
BLACK
6
CONTINUOUS
10
111.035
20
-125.797
11
111.034
21
-125.799
0
LINE
8
BLACK
6
CONTINUOUS
10
111.034
20
-125.799
11
111.034
21
-125.803
0
LINE
8
BLACK
6
CONTINUOUS
10
192.943
20
-70.5877
11
192.975
21
-70.4609
0
LINE
8
BLACK
6
CONTINUOUS
10
192.975
20
-70.4609
11
193.004
21
-70.2012
0
LINE
8
BLACK
6
CONTINUOUS
10
193.004
20
-70.2012
11
193
21
-69.9397
0
LINE
8
BLACK
6
CONTINUOUS
10
193
20
-69.9397
11
192.962
21
-69.6811
0
LINE
8
BLACK
6
CONTINUOUS
10
192.962
20
-69.6811
11
192.89
21
-69.4298
0
LINE
8
BLACK
6
CONTINUOUS
10
192.89
20
-69.4298
11
192.786
21
-69.1899
0
LINE
8
BLACK
6
CONTINUOUS
10
192.786
20
-69.1899
11
192.651
21
-68.9657
0
LINE
8
BLACK
6
CONTINUOUS
10
192.651
20
-68.9657
11
192.488
21
-68.761
0
LINE
8
BLACK
6
CONTINUOUS
10
192.488
20
-68.761
11
192.3
21
-68.5793
0
LINE
8
BLACK
6
CONTINUOUS
10
192.3
20
-68.5793
11
192.09
21
-68.4236
0
LINE
8
BLACK
6
CONTINUOUS
10
192.09
20
-68.4236
11
191.862
21
-68.2967
0
LINE
8
BLACK
6
CONTINUOUS
10
191.862
20
-68.2967
11
191.619
21
-68.2007
0
LINE
8
BLACK
6
CONTINUOUS
10
191.619
20
-68.2007
11
191.495
21
-68.1698
0
LINE
8
BLACK
6
CONTINUOUS
10
191.495
20
-68.1698
11
174.742
21
-65.092
0
LINE
8
BLACK
6
CONTINUOUS
10
174.742
20
-65.092
11
174.739
21
-65.0906
0
LINE
8
BLACK
6
CONTINUOUS
10
174.739
20
-65.0906
11
174.735
21
-65.0907
0
LINE
8
BLACK
6
CONTINUOUS
10
174.735
20
-65.0907
11
174.56
21
-65.0312
0
LINE
8
BLACK
6
CONTINUOUS
10
174.56
20
-65.0312
11
174.398
21
-64.9437
0
LINE
8
BLACK
6
CONTINUOUS
10
174.398
20
-64.9437
11
174.252
21
-64.8305
0
LINE
8
BLACK
6
CONTINUOUS
10
174.252
20
-64.8305
11
174.126
21
-64.6948
0
LINE
8
BLACK
6
CONTINUOUS
10
174.126
20
-64.6948
11
174.025
21
-64.5403
0
LINE
8
BLACK
6
CONTINUOUS
10
174.025
20
-64.5403
11
173.951
21
-64.3712
0
LINE
8
BLACK
6
CONTINUOUS
10
173.951
20
-64.3712
11
173.905
21
-64.1921
0
LINE
8
BLACK
6
CONTINUOUS
10
173.905
20
-64.1921
11
173.89
21
-64.008
0
LINE
8
BLACK
6
CONTINUOUS
10
173.89
20
-64.008
11
173.892
21
-64.0017
0
LINE
8
BLACK
6
CONTINUOUS
10
173.892
20
-64.0017
11
173.891
21
-63.9965
0
LINE
8
BLACK
6
CONTINUOUS
10
173.891
20
-63.9965
11
174.653
21
-57.3925
0
LINE
8
BLACK
6
CONTINUOUS
10
174.653
20
-57.3925
11
174.653
21
-57.3921
0
LINE
8
BLACK
6
CONTINUOUS
10
174.653
20
-57.3921
11
174.653
21
-57.3916
0
LINE
8
BLACK
6
CONTINUOUS
10
174.653
20
-57.3916
11
174.653
21
-57.3916
0
LINE
8
BLACK
6
CONTINUOUS
10
174.653
20
-57.3916
11
174.669
21
-57.2659
0
LINE
8
BLACK
6
CONTINUOUS
10
174.669
20
-57.2659
11
174.667
21
-57.0125
0
LINE
8
BLACK
6
CONTINUOUS
10
174.667
20
-57.0125
11
174.633
21
-56.7614
0
LINE
8
BLACK
6
CONTINUOUS
10
174.633
20
-56.7614
11
174.566
21
-56.5169
0
LINE
8
BLACK
6
CONTINUOUS
10
174.566
20
-56.5169
11
174.469
21
-56.2831
0
LINE
8
BLACK
6
CONTINUOUS
10
174.469
20
-56.2831
11
174.342
21
-56.0638
0
LINE
8
BLACK
6
CONTINUOUS
10
174.342
20
-56.0638
11
174.188
21
-55.8629
0
LINE
8
BLACK
6
CONTINUOUS
10
174.188
20
-55.8629
11
174.008
21
-55.6836
0
LINE
8
BLACK
6
CONTINUOUS
10
174.008
20
-55.6836
11
173.808
21
-55.5291
0
LINE
8
BLACK
6
CONTINUOUS
10
173.808
20
-55.5291
11
173.589
21
-55.4019
0
LINE
8
BLACK
6
CONTINUOUS
10
173.589
20
-55.4019
11
173.355
21
-55.3041
0
LINE
8
BLACK
6
CONTINUOUS
10
173.355
20
-55.3041
11
173.238
21
-55.2724
0
LINE
8
BLACK
6
CONTINUOUS
10
173.238
20
-55.2724
11
156.177
21
-52.7314
0
LINE
8
BLACK
6
CONTINUOUS
10
156.177
20
-52.7314
11
156.17
21
-52.7279
0
LINE
8
BLACK
6
CONTINUOUS
10
156.17
20
-52.7279
11
156.16
21
-52.7273
0
LINE
8
BLACK
6
CONTINUOUS
10
156.16
20
-52.7273
11
156.001
21
-52.6579
0
LINE
8
BLACK
6
CONTINUOUS
10
156.001
20
-52.6579
11
155.857
21
-52.5609
0
LINE
8
BLACK
6
CONTINUOUS
10
155.857
20
-52.5609
11
155.733
21
-52.4397
0
LINE
8
BLACK
6
CONTINUOUS
10
155.733
20
-52.4397
11
155.633
21
-52.2982
0
LINE
8
BLACK
6
CONTINUOUS
10
155.633
20
-52.2982
11
155.56
21
-52.1409
0
LINE
8
BLACK
6
CONTINUOUS
10
155.56
20
-52.1409
11
155.516
21
-51.973
0
LINE
8
BLACK
6
CONTINUOUS
10
155.516
20
-51.973
11
155.504
21
-51.8001
0
LINE
8
BLACK
6
CONTINUOUS
10
155.504
20
-51.8001
11
155.521
21
-51.6378
0
LINE
8
BLACK
6
CONTINUOUS
10
155.521
20
-51.6378
11
155.521
21
-51.6365
0
LINE
8
BLACK
6
CONTINUOUS
10
155.521
20
-51.6365
11
156.873
21
-39.1053
0
LINE
8
BLACK
6
CONTINUOUS
10
156.873
20
-39.1053
11
156.875
21
-39.1006
0
LINE
8
BLACK
6
CONTINUOUS
10
156.875
20
-39.1006
11
156.874
21
-39.0943
0
LINE
8
BLACK
6
CONTINUOUS
10
156.874
20
-39.0943
11
156.903
21
-38.9632
0
LINE
8
BLACK
6
CONTINUOUS
10
156.903
20
-38.9632
11
156.93
21
-38.696
0
LINE
8
BLACK
6
CONTINUOUS
10
156.93
20
-38.696
11
156.924
21
-38.4276
0
LINE
8
BLACK
6
CONTINUOUS
10
156.924
20
-38.4276
11
156.887
21
-38.1617
0
LINE
8
BLACK
6
CONTINUOUS
10
156.887
20
-38.1617
11
156.818
21
-37.9022
0
LINE
8
BLACK
6
CONTINUOUS
10
156.818
20
-37.9022
11
156.718
21
-37.6527
0
LINE
8
BLACK
6
CONTINUOUS
10
156.718
20
-37.6527
11
156.59
21
-37.417
0
LINE
8
BLACK
6
CONTINUOUS
10
156.59
20
-37.417
11
156.434
21
-37.1983
0
LINE
8
BLACK
6
CONTINUOUS
10
156.434
20
-37.1983
11
156.253
21
-36.9997
0
LINE
8
BLACK
6
CONTINUOUS
10
156.253
20
-36.9997
11
156.05
21
-36.8241
0
LINE
8
BLACK
6
CONTINUOUS
10
156.05
20
-36.8241
11
155.827
21
-36.674
0
LINE
8
BLACK
6
CONTINUOUS
10
155.827
20
-36.674
11
155.589
21
-36.5516
0
LINE
8
BLACK
6
CONTINUOUS
10
155.589
20
-36.5516
11
155.337
21
-36.4586
0
LINE
8
BLACK
6
CONTINUOUS
10
155.337
20
-36.4586
11
155.213
21
-36.4289
0
LINE
8
BLACK
6
CONTINUOUS
10
155.213
20
-36.4289
11
137.404
21
-34.6435
0
LINE
8
BLACK
6
CONTINUOUS
10
137.404
20
-34.6435
11
137.398
21
-34.6409
0
LINE
8
BLACK
6
CONTINUOUS
10
137.398
20
-34.6409
11
137.39
21
-34.641
0
LINE
8
BLACK
6
CONTINUOUS
10
137.39
20
-34.641
11
137.39
21
-34.641
0
LINE
8
BLACK
6
CONTINUOUS
10
137.39
20
-34.641
11
137.201
21
-34.5758
0
LINE
8
BLACK
6
CONTINUOUS
10
137.201
20
-34.5758
11
137.026
21
-34.4787
0
LINE
8
BLACK
6
CONTINUOUS
10
137.026
20
-34.4787
11
136.871
21
-34.3528
0
LINE
8
BLACK
6
CONTINUOUS
10
136.871
20
-34.3528
11
136.739
21
-34.2018
0
LINE
8
BLACK
6
CONTINUOUS
10
136.739
20
-34.2018
11
136.637
21
-34.0303
0
LINE
8
BLACK
6
CONTINUOUS
10
136.637
20
-34.0303
11
136.565
21
-33.8435
0
LINE
8
BLACK
6
CONTINUOUS
10
136.565
20
-33.8435
11
136.527
21
-33.6472
0
LINE
8
BLACK
6
CONTINUOUS
10
136.527
20
-33.6472
11
136.524
21
-33.4472
0
LINE
8
BLACK
6
CONTINUOUS
10
136.524
20
-33.4472
11
136.552
21
-33.267
0
LINE
8
BLACK
6
CONTINUOUS
10
136.552
20
-33.267
11
137.06
21
-25.1429
0
LINE
8
BLACK
6
CONTINUOUS
10
137.06
20
-25.1429
11
137.06
21
-25.0195
0
LINE
8
BLACK
6
CONTINUOUS
10
137.06
20
-25.0195
11
137.027
21
-24.7687
0
LINE
8
BLACK
6
CONTINUOUS
10
137.027
20
-24.7687
11
136.962
21
-24.5243
0
LINE
8
BLACK
6
CONTINUOUS
10
136.962
20
-24.5243
11
136.865
21
-24.2906
0
LINE
8
BLACK
6
CONTINUOUS
10
136.865
20
-24.2906
11
136.739
21
-24.0714
0
LINE
8
BLACK
6
CONTINUOUS
10
136.739
20
-24.0714
11
136.585
21
-23.8706
0
LINE
8
BLACK
6
CONTINUOUS
10
136.585
20
-23.8706
11
136.406
21
-23.6916
0
LINE
8
BLACK
6
CONTINUOUS
10
136.406
20
-23.6916
11
136.205
21
-23.5374
0
LINE
8
BLACK
6
CONTINUOUS
10
136.205
20
-23.5374
11
135.987
21
-23.4106
0
LINE
8
BLACK
6
CONTINUOUS
10
135.987
20
-23.4106
11
135.753
21
-23.3135
0
LINE
8
BLACK
6
CONTINUOUS
10
135.753
20
-23.3135
11
135.509
21
-23.2477
0
LINE
8
BLACK
6
CONTINUOUS
10
135.509
20
-23.2477
11
135.386
21
-23.2313
0
LINE
8
BLACK
6
CONTINUOUS
10
135.386
20
-23.2313
11
108.216
21
-21.1846
0
LINE
8
BLACK
6
CONTINUOUS
10
108.216
20
-21.1846
11
108.212
21
-21.1832
0
LINE
8
BLACK
6
CONTINUOUS
10
108.212
20
-21.1832
11
108.208
21
-21.1837
0
LINE
8
BLACK
6
CONTINUOUS
10
108.208
20
-21.1837
11
108.087
21
-21.1652
0
LINE
8
BLACK
6
CONTINUOUS
10
108.087
20
-21.1652
11
107.843
21
-21.163
0
LINE
8
BLACK
6
CONTINUOUS
10
107.843
20
-21.163
11
107.601
21
-21.1958
0
LINE
8
BLACK
6
CONTINUOUS
10
107.601
20
-21.1958
11
107.366
21
-21.263
0
LINE
8
BLACK
6
CONTINUOUS
10
107.366
20
-21.263
11
107.143
21
-21.3632
0
LINE
8
BLACK
6
CONTINUOUS
10
107.143
20
-21.3632
11
106.937
21
-21.4942
0
LINE
8
BLACK
6
CONTINUOUS
10
106.937
20
-21.4942
11
106.752
21
-21.6535
0
LINE
8
BLACK
6
CONTINUOUS
10
106.752
20
-21.6535
11
106.591
21
-21.8376
0
LINE
8
BLACK
6
CONTINUOUS
10
106.591
20
-21.8376
11
106.459
21
-22.0428
0
LINE
8
BLACK
6
CONTINUOUS
10
106.459
20
-22.0428
11
106.357
21
-22.2649
0
LINE
8
BLACK
6
CONTINUOUS
10
106.357
20
-22.2649
11
106.288
21
-22.4992
0
LINE
8
BLACK
6
CONTINUOUS
10
106.288
20
-22.4992
11
106.271
21
-22.6171
0
LINE
8
BLACK
6
CONTINUOUS
10
106.271
20
-22.6171
11
105.764
21
-28.964
0
LINE
8
BLACK
6
CONTINUOUS
10
105.764
20
-28.964
11
105.762
21
-28.9689
0
LINE
8
BLACK
6
CONTINUOUS
10
105.762
20
-28.9689
11
105.762
21
-28.9756
0
LINE
8
BLACK
6
CONTINUOUS
10
105.762
20
-28.9756
11
105.762
21
-28.9756
0
LINE
8
BLACK
6
CONTINUOUS
10
105.762
20
-28.9756
11
105.705
21
-29.1804
0
LINE
8
BLACK
6
CONTINUOUS
10
105.705
20
-29.1804
11
105.617
21
-29.374
0
LINE
8
BLACK
6
CONTINUOUS
10
105.617
20
-29.374
11
105.5
21
-29.5521
0
LINE
8
BLACK
6
CONTINUOUS
10
105.5
20
-29.5521
11
105.358
21
-29.7104
0
LINE
8
BLACK
6
CONTINUOUS
10
105.358
20
-29.7104
11
105.194
21
-29.8452
0
LINE
8
BLACK
6
CONTINUOUS
10
105.194
20
-29.8452
11
105.011
21
-29.9535
0
LINE
8
BLACK
6
CONTINUOUS
10
105.011
20
-29.9535
11
104.813
21
-30.0327
0
LINE
8
BLACK
6
CONTINUOUS
10
104.813
20
-30.0327
11
104.606
21
-30.0809
0
LINE
8
BLACK
6
CONTINUOUS
10
104.606
20
-30.0809
11
104.394
21
-30.0971
0
LINE
8
BLACK
6
CONTINUOUS
10
104.394
20
-30.0971
11
104.394
21
-30.0972
0
LINE
8
BLACK
6
CONTINUOUS
10
104.394
20
-30.0972
11
104.392
21
-30.0967
0
LINE
8
BLACK
6
CONTINUOUS
10
104.392
20
-30.0967
11
104.391
21
-30.0971
0
LINE
8
BLACK
6
CONTINUOUS
10
104.391
20
-30.0971
11
86.8665
21
-29.564
0
LINE
8
BLACK
6
CONTINUOUS
10
86.8665
20
-29.564
11
86.7559
21
-29.564
0
LINE
8
BLACK
6
CONTINUOUS
10
86.7559
20
-29.564
11
86.5345
21
-29.5991
0
LINE
8
BLACK
6
CONTINUOUS
10
86.5345
20
-29.5991
11
86.3214
21
-29.6683
0
LINE
8
BLACK
6
CONTINUOUS
10
86.3214
20
-29.6683
11
86.1217
21
-29.7701
0
LINE
8
BLACK
6
CONTINUOUS
10
86.1217
20
-29.7701
11
85.9403
21
-29.9018
0
LINE
8
BLACK
6
CONTINUOUS
10
85.9403
20
-29.9018
11
85.7818
21
-30.0603
0
LINE
8
BLACK
6
CONTINUOUS
10
85.7818
20
-30.0603
11
85.6501
21
-30.2417
0
LINE
8
BLACK
6
CONTINUOUS
10
85.6501
20
-30.2417
11
85.5483
21
-30.4414
0
LINE
8
BLACK
6
CONTINUOUS
10
85.5483
20
-30.4414
11
85.4791
21
-30.6545
0
LINE
8
BLACK
6
CONTINUOUS
10
85.4791
20
-30.6545
11
85.444
21
-30.8759
0
LINE
8
BLACK
6
CONTINUOUS
10
85.444
20
-30.8759
11
85.444
21
-30.988
0
LINE
8
BLACK
6
CONTINUOUS
10
85.444
20
-30.988
11
85.443
21
-30.9917
0
LINE
8
BLACK
6
CONTINUOUS
10
85.443
20
-30.9917
11
85.4438
21
-30.9947
0
LINE
8
BLACK
6
CONTINUOUS
10
85.4438
20
-30.9947
11
85.1898
21
-34.8047
0
LINE
8
BLACK
6
CONTINUOUS
10
85.1898
20
-34.8047
11
85.1892
21
-34.8061
0
LINE
8
BLACK
6
CONTINUOUS
10
85.1892
20
-34.8061
11
85.1734
21
-34.9662
0
LINE
8
BLACK
6
CONTINUOUS
10
85.1734
20
-34.9662
11
85.1244
21
-35.1279
0
LINE
8
BLACK
6
CONTINUOUS
10
85.1244
20
-35.1279
11
85.0447
21
-35.2769
0
LINE
8
BLACK
6
CONTINUOUS
10
85.0447
20
-35.2769
11
84.9375
21
-35.4075
0
LINE
8
BLACK
6
CONTINUOUS
10
84.9375
20
-35.4075
11
84.8069
21
-35.5147
0
LINE
8
BLACK
6
CONTINUOUS
10
84.8069
20
-35.5147
11
84.6579
21
-35.5944
0
LINE
8
BLACK
6
CONTINUOUS
10
84.6579
20
-35.5944
11
84.4962
21
-35.6434
0
LINE
8
BLACK
6
CONTINUOUS
10
84.4962
20
-35.6434
11
84.328
21
-35.66
0
LINE
8
BLACK
6
CONTINUOUS
10
84.328
20
-35.66
11
71.0126
21
-35.66
0
LINE
8
BLACK
6
CONTINUOUS
10
71.0126
20
-35.66
11
70.966
21
-103.124
0
LINE
8
BLACK
6
CONTINUOUS
10
70.966
20
-103.124
11
70.966
21
-103.124
0
LINE
8
BLACK
6
CONTINUOUS
10
70.966
20
-103.124
11
70.9501
21
-103.332
0
LINE
8
BLACK
6
CONTINUOUS
10
70.9501
20
-103.332
11
70.9028
21
-103.535
0
LINE
8
BLACK
6
CONTINUOUS
10
70.9028
20
-103.535
11
70.8251
21
-103.729
0
LINE
8
BLACK
6
CONTINUOUS
10
70.8251
20
-103.729
11
70.7189
21
-103.909
0
LINE
8
BLACK
6
CONTINUOUS
10
70.7189
20
-103.909
11
70.5866
21
-104.07
0
LINE
8
BLACK
6
CONTINUOUS
10
70.5866
20
-104.07
11
70.4313
21
-104.21
0
LINE
8
BLACK
6
CONTINUOUS
10
70.4313
20
-104.21
11
70.2566
21
-104.324
0
LINE
8
BLACK
6
CONTINUOUS
10
70.2566
20
-104.324
11
70.0666
21
-104.411
0
LINE
8
BLACK
6
CONTINUOUS
10
70.0666
20
-104.411
11
69.8738
21
-104.465
0
LINE
8
BLACK
6
CONTINUOUS
10
69.8738
20
-104.465
11
69.8731
21
-104.465
0
LINE
8
BLACK
6
CONTINUOUS
10
69.8731
20
-104.465
11
60.2058
21
-107.18
0
LINE
8
BLACK
6
CONTINUOUS
10
60.2058
20
-107.18
11
60.1002
21
-107.215
0
LINE
8
BLACK
6
CONTINUOUS
10
60.1002
20
-107.215
11
59.8926
21
-107.305
0
LINE
8
BLACK
6
CONTINUOUS
10
59.8926
20
-107.305
11
59.6943
21
-107.415
0
LINE
8
BLACK
6
CONTINUOUS
10
59.6943
20
-107.415
11
59.5072
21
-107.542
0
LINE
8
BLACK
6
CONTINUOUS
10
59.5072
20
-107.542
11
59.3328
21
-107.687
0
LINE
8
BLACK
6
CONTINUOUS
10
59.3328
20
-107.687
11
59.2527
21
-107.767
0
LINE
8
BLACK
6
CONTINUOUS
10
59.2527
20
-107.767
11
59.2481
21
-107.769
0
LINE
8
BLACK
6
CONTINUOUS
10
59.2481
20
-107.769
11
59.2458
21
-107.773
0
LINE
8
BLACK
6
CONTINUOUS
10
59.2458
20
-107.773
11
45.7774
21
-118.93
0
LINE
8
BLACK
6
CONTINUOUS
10
45.7774
20
-118.93
11
45.7768
21
-118.93
0
LINE
8
BLACK
6
CONTINUOUS
10
45.7768
20
-118.93
11
45.5889
21
-119.095
0
LINE
8
BLACK
6
CONTINUOUS
10
45.5889
20
-119.095
11
45.3711
21
-119.239
0
LINE
8
BLACK
6
CONTINUOUS
10
45.3711
20
-119.239
11
45.1357
21
-119.35
0
LINE
8
BLACK
6
CONTINUOUS
10
45.1357
20
-119.35
11
44.887
21
-119.428
0
LINE
8
BLACK
6
CONTINUOUS
10
44.887
20
-119.428
11
44.6299
21
-119.471
0
LINE
8
BLACK
6
CONTINUOUS
10
44.6299
20
-119.471
11
44.3694
21
-119.478
0
LINE
8
BLACK
6
CONTINUOUS
10
44.3694
20
-119.478
11
44.1104
21
-119.449
0
LINE
8
BLACK
6
CONTINUOUS
10
44.1104
20
-119.449
11
43.858
21
-119.384
0
LINE
8
BLACK
6
CONTINUOUS
10
43.858
20
-119.384
11
43.6169
21
-119.285
0
LINE
8
BLACK
6
CONTINUOUS
10
43.6169
20
-119.285
11
43.3919
21
-119.154
0
LINE
8
BLACK
6
CONTINUOUS
10
43.3919
20
-119.154
11
43.1873
21
-118.992
0
LINE
8
BLACK
6
CONTINUOUS
10
43.1873
20
-118.992
11
43.1562
21
-118.96
0
LINE
8
BLACK
6
CONTINUOUS
10
43.1562
20
-118.96
11
37.6558
21
-123.521
0
LINE
8
BLACK
6
CONTINUOUS
10
37.6558
20
-123.521
11
37.6495
21
-123.523
0
LINE
8
BLACK
6
CONTINUOUS
10
37.6495
20
-123.523
11
37.6435
21
-123.53
0
LINE
8
BLACK
6
CONTINUOUS
10
37.6435
20
-123.53
11
37.6435
21
-123.53
0
LINE
8
BLACK
6
CONTINUOUS
10
37.6435
20
-123.53
11
37.5515
21
-123.585
0
LINE
8
BLACK
6
CONTINUOUS
10
37.5515
20
-123.585
11
37.3869
21
-123.722
0
LINE
8
BLACK
6
CONTINUOUS
10
37.3869
20
-123.722
11
37.2454
21
-123.884
0
LINE
8
BLACK
6
CONTINUOUS
10
37.2454
20
-123.884
11
37.1305
21
-124.065
0
LINE
8
BLACK
6
CONTINUOUS
10
37.1305
20
-124.065
11
37.0449
21
-124.261
0
LINE
8
BLACK
6
CONTINUOUS
10
37.0449
20
-124.261
11
36.9907
21
-124.469
0
LINE
8
BLACK
6
CONTINUOUS
10
36.9907
20
-124.469
11
36.9692
21
-124.682
0
LINE
8
BLACK
6
CONTINUOUS
10
36.9692
20
-124.682
11
36.981
21
-124.897
0
LINE
8
BLACK
6
CONTINUOUS
10
36.981
20
-124.897
11
37.0256
21
-125.106
0
LINE
8
BLACK
6
CONTINUOUS
10
37.0256
20
-125.106
11
37.1021
21
-125.307
0
LINE
8
BLACK
6
CONTINUOUS
10
37.1021
20
-125.307
11
37.2087
21
-125.493
0
LINE
8
BLACK
6
CONTINUOUS
10
37.2087
20
-125.493
11
37.2749
21
-125.576
0
LINE
8
BLACK
6
CONTINUOUS
10
37.2749
20
-125.576
11
49.9863
21
-140.755
0
LINE
8
BLACK
6
CONTINUOUS
10
49.9863
20
-140.755
11
49.9867
21
-140.755
0
LINE
8
BLACK
6
CONTINUOUS
10
49.9867
20
-140.755
11
49.9877
21
-140.756
0
LINE
8
BLACK
6
CONTINUOUS
10
49.9877
20
-140.756
11
50.0933
21
-140.888
0
LINE
8
BLACK
6
CONTINUOUS
10
50.0933
20
-140.888
11
50.3302
21
-141.129
0
LINE
8
BLACK
6
CONTINUOUS
10
50.3302
20
-141.129
11
50.5903
21
-141.345
0
LINE
8
BLACK
6
CONTINUOUS
10
50.5903
20
-141.345
11
50.871
21
-141.533
0
LINE
8
BLACK
6
CONTINUOUS
10
50.871
20
-141.533
11
51.1695
21
-141.692
0
LINE
8
BLACK
6
CONTINUOUS
10
51.1695
20
-141.692
11
51.4825
21
-141.82
0
LINE
8
BLACK
6
CONTINUOUS
10
51.4825
20
-141.82
11
51.8068
21
-141.915
0
LINE
8
BLACK
6
CONTINUOUS
10
51.8068
20
-141.915
11
52.1391
21
-141.976
0
LINE
8
BLACK
6
CONTINUOUS
10
52.1391
20
-141.976
11
52.476
21
-142.004
0
LINE
8
BLACK
6
CONTINUOUS
10
52.476
20
-142.004
11
52.8139
21
-141.997
0
LINE
8
BLACK
6
CONTINUOUS
10
52.8139
20
-141.997
11
53.1494
21
-141.956
0
LINE
8
BLACK
6
CONTINUOUS
10
53.1494
20
-141.956
11
53.479
21
-141.881
0
LINE
8
BLACK
6
CONTINUOUS
10
53.479
20
-141.881
11
53.7992
21
-141.773
0
LINE
8
BLACK
6
CONTINUOUS
10
53.7992
20
-141.773
11
54.1068
21
-141.633
0
LINE
8
BLACK
6
CONTINUOUS
10
54.1068
20
-141.633
11
54.3986
21
-141.462
0
LINE
8
BLACK
6
CONTINUOUS
10
54.3986
20
-141.462
11
54.6715
21
-141.263
0
LINE
8
BLACK
6
CONTINUOUS
10
54.6715
20
-141.263
11
54.7971
21
-141.15
0
LINE
8
BLACK
6
CONTINUOUS
10
54.7971
20
-141.15
11
54.7971
21
-141.15
0
LINE
8
BLACK
6
CONTINUOUS
10
54.7971
20
-141.15
11
54.7991
21
-141.149
0
LINE
8
BLACK
6
CONTINUOUS
10
54.7991
20
-141.149
11
54.8001
21
-141.147
0
LINE
8
BLACK
6
CONTINUOUS
10
54.8001
20
-141.147
11
69.7861
21
-128.701
0
LINE
8
BLACK
6
CONTINUOUS
10
69.7861
20
-128.701
11
69.8062
21
-128.693
0
LINE
8
BLACK
6
CONTINUOUS
10
69.8062
20
-128.693
11
69.8243
21
-128.681
0
LINE
8
BLACK
6
CONTINUOUS
10
69.8243
20
-128.681
11
86.0803
21
-124.363
0
LINE
8
BLACK
6
CONTINUOUS
10
86.0803
20
-124.363
11
86.1021
21
-124.365
0
LINE
8
BLACK
6
CONTINUOUS
10
86.1021
20
-124.365
11
86.1238
21
-124.362
0
LINE
8
BLACK
6
CONTINUOUS
10
86.1238
20
-124.362
11
107.204
21
-128.171
0
LINE
8
BLACK
6
CONTINUOUS
10
107.204
20
-128.171
11
107.372
21
-128.197
0
LINE
8
BLACK
6
CONTINUOUS
10
107.372
20
-128.197
11
107.715
21
-128.213
0
LINE
8
BLACK
6
CONTINUOUS
10
107.715
20
-128.213
11
108.057
21
-128.193
0
LINE
8
BLACK
6
CONTINUOUS
10
108.057
20
-128.193
11
108.395
21
-128.137
0
LINE
8
BLACK
6
CONTINUOUS
10
108.395
20
-128.137
11
108.725
21
-128.046
0
LINE
8
BLACK
6
CONTINUOUS
10
108.725
20
-128.046
11
109.044
21
-127.92
0
LINE
8
BLACK
6
CONTINUOUS
10
109.044
20
-127.92
11
109.347
21
-127.762
0
LINE
8
BLACK
6
CONTINUOUS
10
109.347
20
-127.762
11
109.633
21
-127.572
0
LINE
8
BLACK
6
CONTINUOUS
10
109.633
20
-127.572
11
109.896
21
-127.354
0
LINE
8
BLACK
6
CONTINUOUS
10
109.896
20
-127.354
11
110.136
21
-127.108
0
LINE
8
BLACK
6
CONTINUOUS
10
110.136
20
-127.108
11
110.348
21
-126.839
0
LINE
8
BLACK
6
CONTINUOUS
10
110.348
20
-126.839
11
110.53
21
-126.549
0
LINE
8
BLACK
6
CONTINUOUS
10
110.53
20
-126.549
11
110.681
21
-126.242
0
LINE
8
BLACK
6
CONTINUOUS
10
110.681
20
-126.242
11
110.799
21
-125.92
0
LINE
8
BLACK
6
CONTINUOUS
10
110.799
20
-125.92
11
110.839
21
-125.757
0
LINE
8
BLACK
6
CONTINUOUS
10
110.839
20
-125.757
11
111.178
21
-123.939
0
LINE
8
BLACK
6
CONTINUOUS
10
111.178
20
-123.939
11
111.179
21
-123.938
0
LINE
8
BLACK
6
CONTINUOUS
10
111.179
20
-123.938
11
111.179
21
-123.937
0
LINE
8
BLACK
6
CONTINUOUS
10
111.179
20
-123.937
11
111.235
21
-123.736
0
LINE
8
BLACK
6
CONTINUOUS
10
111.235
20
-123.736
11
111.321
21
-123.546
0
LINE
8
BLACK
6
CONTINUOUS
10
111.321
20
-123.546
11
111.436
21
-123.371
0
LINE
8
BLACK
6
CONTINUOUS
10
111.436
20
-123.371
11
111.575
21
-123.216
0
LINE
8
BLACK
6
CONTINUOUS
10
111.575
20
-123.216
11
111.737
21
-123.083
0
LINE
8
BLACK
6
CONTINUOUS
10
111.737
20
-123.083
11
111.916
21
-122.977
0
LINE
8
BLACK
6
CONTINUOUS
10
111.916
20
-122.977
11
112.11
21
-122.899
0
LINE
8
BLACK
6
CONTINUOUS
10
112.11
20
-122.899
11
112.314
21
-122.852
0
LINE
8
BLACK
6
CONTINUOUS
10
112.314
20
-122.852
11
112.522
21
-122.836
0
LINE
8
BLACK
6
CONTINUOUS
10
112.522
20
-122.836
11
112.522
21
-122.836
0
LINE
8
BLACK
6
CONTINUOUS
10
112.522
20
-122.836
11
180.34
21
-122.836
0
LINE
8
BLACK
6
CONTINUOUS
10
180.34
20
-122.836
11
180.526
21
-122.836
0
LINE
8
BLACK
6
CONTINUOUS
10
180.526
20
-122.836
11
180.896
21
-122.801
0
LINE
8
BLACK
6
CONTINUOUS
10
180.896
20
-122.801
11
181.261
21
-122.732
0
LINE
8
BLACK
6
CONTINUOUS
10
181.261
20
-122.732
11
181.618
21
-122.629
0
LINE
8
BLACK
6
CONTINUOUS
10
181.618
20
-122.629
11
181.964
21
-122.493
0
LINE
8
BLACK
6
CONTINUOUS
10
181.964
20
-122.493
11
182.296
21
-122.325
0
LINE
8
BLACK
6
CONTINUOUS
10
182.296
20
-122.325
11
182.61
21
-122.127
0
LINE
8
BLACK
6
CONTINUOUS
10
182.61
20
-122.127
11
182.905
21
-121.9
0
LINE
8
BLACK
6
CONTINUOUS
10
182.905
20
-121.9
11
183.177
21
-121.647
0
LINE
8
BLACK
6
CONTINUOUS
10
183.177
20
-121.647
11
183.424
21
-121.369
0
LINE
8
BLACK
6
CONTINUOUS
10
183.424
20
-121.369
11
183.644
21
-121.069
0
LINE
8
BLACK
6
CONTINUOUS
10
183.644
20
-121.069
11
183.836
21
-120.751
0
LINE
8
BLACK
6
CONTINUOUS
10
183.836
20
-120.751
11
183.996
21
-120.415
0
LINE
8
BLACK
6
CONTINUOUS
10
183.996
20
-120.415
11
184.124
21
-120.066
0
LINE
8
BLACK
6
CONTINUOUS
10
184.124
20
-120.066
11
184.22
21
-119.707
0
LINE
8
BLACK
6
CONTINUOUS
10
184.22
20
-119.707
11
184.25
21
-119.524
0
LINE
8
BLACK
6
CONTINUOUS
10
184.25
20
-119.524
11
184.25
21
-119.523
0
LINE
8
BLACK
6
CONTINUOUS
10
184.25
20
-119.523
11
184.25
21
-119.523
0
LINE
8
BLACK
6
CONTINUOUS
10
184.25
20
-119.523
11
192.942
21
-70.5945
0
LINE
8
BLACK
6
CONTINUOUS
10
192.942
20
-70.5945
11
192.943
21
-70.5917
0
LINE
8
BLACK
6
CONTINUOUS
10
192.943
20
-70.5917
11
192.943
21
-70.5877
0
LINE
8
BLACK
6
CONTINUOUS
10
69.442
20
-35.66
11
69.442
21
-102.108
0
LINE
8
BLACK
6
CONTINUOUS
10
69.442
20
-102.108
11
69.442
21
-102.108
0
LINE
8
BLACK
6
CONTINUOUS
10
69.442
20
-102.108
11
69.428
21
-102.284
0
LINE
8
BLACK
6
CONTINUOUS
10
69.428
20
-102.284
11
69.3863
21
-102.456
0
LINE
8
BLACK
6
CONTINUOUS
10
69.3863
20
-102.456
11
69.3181
21
-102.619
0
LINE
8
BLACK
6
CONTINUOUS
10
69.3181
20
-102.619
11
69.2249
21
-102.769
0
LINE
8
BLACK
6
CONTINUOUS
10
69.2249
20
-102.769
11
69.1092
21
-102.903
0
LINE
8
BLACK
6
CONTINUOUS
10
69.1092
20
-102.903
11
68.9738
21
-103.017
0
LINE
8
BLACK
6
CONTINUOUS
10
68.9738
20
-103.017
11
68.8222
21
-103.108
0
LINE
8
BLACK
6
CONTINUOUS
10
68.8222
20
-103.108
11
68.6581
21
-103.173
0
LINE
8
BLACK
6
CONTINUOUS
10
68.6581
20
-103.173
11
68.6559
21
-103.174
0
LINE
8
BLACK
6
CONTINUOUS
10
68.6559
20
-103.174
11
68.6544
21
-103.175
0
LINE
8
BLACK
6
CONTINUOUS
10
68.6544
20
-103.175
11
59.4433
21
-105.657
0
LINE
8
BLACK
6
CONTINUOUS
10
59.4433
20
-105.657
11
59.3382
21
-105.691
0
LINE
8
BLACK
6
CONTINUOUS
10
59.3382
20
-105.691
11
59.1306
21
-105.781
0
LINE
8
BLACK
6
CONTINUOUS
10
59.1306
20
-105.781
11
58.9323
21
-105.891
0
LINE
8
BLACK
6
CONTINUOUS
10
58.9323
20
-105.891
11
58.7452
21
-106.018
0
LINE
8
BLACK
6
CONTINUOUS
10
58.7452
20
-106.018
11
58.5708
21
-106.163
0
LINE
8
BLACK
6
CONTINUOUS
10
58.5708
20
-106.163
11
58.4907
21
-106.243
0
LINE
8
BLACK
6
CONTINUOUS
10
58.4907
20
-106.243
11
58.4861
21
-106.245
0
LINE
8
BLACK
6
CONTINUOUS
10
58.4861
20
-106.245
11
58.4838
21
-106.249
0
LINE
8
BLACK
6
CONTINUOUS
10
58.4838
20
-106.249
11
43.3069
21
-118.835
0
LINE
8
BLACK
6
CONTINUOUS
10
43.3069
20
-118.835
11
43.484
21
-118.98
0
LINE
8
BLACK
6
CONTINUOUS
10
43.484
20
-118.98
11
43.6971
21
-119.107
0
LINE
8
BLACK
6
CONTINUOUS
10
43.6971
20
-119.107
11
43.9265
21
-119.201
0
LINE
8
BLACK
6
CONTINUOUS
10
43.9265
20
-119.201
11
44.1673
21
-119.261
0
LINE
8
BLACK
6
CONTINUOUS
10
44.1673
20
-119.261
11
44.4143
21
-119.284
0
LINE
8
BLACK
6
CONTINUOUS
10
44.4143
20
-119.284
11
44.662
21
-119.271
0
LINE
8
BLACK
6
CONTINUOUS
10
44.662
20
-119.271
11
44.9051
21
-119.222
0
LINE
8
BLACK
6
CONTINUOUS
10
44.9051
20
-119.222
11
45.1384
21
-119.137
0
LINE
8
BLACK
6
CONTINUOUS
10
45.1384
20
-119.137
11
45.3566
21
-119.019
0
LINE
8
BLACK
6
CONTINUOUS
10
45.3566
20
-119.019
11
45.5552
21
-118.871
0
LINE
8
BLACK
6
CONTINUOUS
10
45.5552
20
-118.871
11
45.6425
21
-118.783
0
LINE
8
BLACK
6
CONTINUOUS
10
45.6425
20
-118.783
11
45.6474
21
-118.78
0
LINE
8
BLACK
6
CONTINUOUS
10
45.6474
20
-118.78
11
45.6498
21
-118.776
0
LINE
8
BLACK
6
CONTINUOUS
10
45.6498
20
-118.776
11
59.1182
21
-107.619
0
LINE
8
BLACK
6
CONTINUOUS
10
59.1182
20
-107.619
11
59.1182
21
-107.619
0
LINE
8
BLACK
6
CONTINUOUS
10
59.1182
20
-107.619
11
59.2924
21
-107.46
0
LINE
8
BLACK
6
CONTINUOUS
10
59.2924
20
-107.46
11
59.4882
21
-107.313
0
LINE
8
BLACK
6
CONTINUOUS
10
59.4882
20
-107.313
11
59.6968
21
-107.185
0
LINE
8
BLACK
6
CONTINUOUS
10
59.6968
20
-107.185
11
59.9166
21
-107.077
0
LINE
8
BLACK
6
CONTINUOUS
10
59.9166
20
-107.077
11
60.1455
21
-106.99
0
LINE
8
BLACK
6
CONTINUOUS
10
60.1455
20
-106.99
11
60.1455
21
-106.99
0
LINE
8
BLACK
6
CONTINUOUS
10
60.1455
20
-106.99
11
60.1479
21
-106.99
0
LINE
8
BLACK
6
CONTINUOUS
10
60.1479
20
-106.99
11
60.1496
21
-106.988
0
LINE
8
BLACK
6
CONTINUOUS
10
60.1496
20
-106.988
11
69.819
21
-104.273
0
LINE
8
BLACK
6
CONTINUOUS
10
69.819
20
-104.273
11
69.8225
21
-104.273
0
LINE
8
BLACK
6
CONTINUOUS
10
69.8225
20
-104.273
11
69.8263
21
-104.271
0
LINE
8
BLACK
6
CONTINUOUS
10
69.8263
20
-104.271
11
69.925
21
-104.251
0
LINE
8
BLACK
6
CONTINUOUS
10
69.925
20
-104.251
11
70.1126
21
-104.178
0
LINE
8
BLACK
6
CONTINUOUS
10
70.1126
20
-104.178
11
70.285
21
-104.075
0
LINE
8
BLACK
6
CONTINUOUS
10
70.285
20
-104.075
11
70.4373
21
-103.943
0
LINE
8
BLACK
6
CONTINUOUS
10
70.4373
20
-103.943
11
70.5648
21
-103.788
0
LINE
8
BLACK
6
CONTINUOUS
10
70.5648
20
-103.788
11
70.6638
21
-103.612
0
LINE
8
BLACK
6
CONTINUOUS
10
70.6638
20
-103.612
11
70.7316
21
-103.423
0
LINE
8
BLACK
6
CONTINUOUS
10
70.7316
20
-103.423
11
70.7659
21
-103.225
0
LINE
8
BLACK
6
CONTINUOUS
10
70.7659
20
-103.225
11
70.766
21
-103.124
0
LINE
8
BLACK
6
CONTINUOUS
10
70.766
20
-103.124
11
70.766
21
-103.124
0
LINE
8
BLACK
6
CONTINUOUS
10
70.766
20
-103.124
11
70.766
21
-103.124
0
LINE
8
BLACK
6
CONTINUOUS
10
70.766
20
-103.124
11
70.8126
21
-35.66
0
LINE
8
BLACK
6
CONTINUOUS
10
70.8126
20
-35.66
11
69.442
21
-35.66
0
LINE
8
BLACK
6
CONTINUOUS
10
53.086
20
-35.66
11
53.0114
21
-35.66
0
LINE
8
BLACK
6
CONTINUOUS
10
53.0114
20
-35.66
11
52.866
21
-35.6932
0
LINE
8
BLACK
6
CONTINUOUS
10
52.866
20
-35.6932
11
52.7316
21
-35.7579
0
LINE
8
BLACK
6
CONTINUOUS
10
52.7316
20
-35.7579
11
52.6149
21
-35.8509
0
LINE
8
BLACK
6
CONTINUOUS
10
52.6149
20
-35.8509
11
52.5219
21
-35.9676
0
LINE
8
BLACK
6
CONTINUOUS
10
52.5219
20
-35.9676
11
52.4572
21
-36.102
0
LINE
8
BLACK
6
CONTINUOUS
10
52.4572
20
-36.102
11
52.424
21
-36.2474
0
LINE
8
BLACK
6
CONTINUOUS
10
52.424
20
-36.2474
11
52.424
21
-36.322
0
LINE
8
BLACK
6
CONTINUOUS
10
52.424
20
-36.322
11
52.424
21
-37.338
0
LINE
8
BLACK
6
CONTINUOUS
10
52.424
20
-37.338
11
52.4074
21
-37.5062
0
LINE
8
BLACK
6
CONTINUOUS
10
52.4074
20
-37.5062
11
52.3584
21
-37.6679
0
LINE
8
BLACK
6
CONTINUOUS
10
52.3584
20
-37.6679
11
52.2787
21
-37.8169
0
LINE
8
BLACK
6
CONTINUOUS
10
52.2787
20
-37.8169
11
52.1715
21
-37.9475
0
LINE
8
BLACK
6
CONTINUOUS
10
52.1715
20
-37.9475
11
52.0409
21
-38.0547
0
LINE
8
BLACK
6
CONTINUOUS
10
52.0409
20
-38.0547
11
51.8919
21
-38.1344
0
LINE
8
BLACK
6
CONTINUOUS
10
51.8919
20
-38.1344
11
51.7302
21
-38.1834
0
LINE
8
BLACK
6
CONTINUOUS
10
51.7302
20
-38.1834
11
51.562
21
-38.2
0
LINE
8
BLACK
6
CONTINUOUS
10
51.562
20
-38.2
11
51.4354
21
-38.2
0
LINE
8
BLACK
6
CONTINUOUS
10
51.4354
20
-38.2
11
51.1843
21
-38.2331
0
LINE
8
BLACK
6
CONTINUOUS
10
51.1843
20
-38.2331
11
50.9396
21
-38.2986
0
LINE
8
BLACK
6
CONTINUOUS
10
50.9396
20
-38.2986
11
50.7057
21
-38.3955
0
LINE
8
BLACK
6
CONTINUOUS
10
50.7057
20
-38.3955
11
50.4863
21
-38.5222
0
LINE
8
BLACK
6
CONTINUOUS
10
50.4863
20
-38.5222
11
50.2854
21
-38.6763
0
LINE
8
BLACK
6
CONTINUOUS
10
50.2854
20
-38.6763
11
50.1063
21
-38.8554
0
LINE
8
BLACK
6
CONTINUOUS
10
50.1063
20
-38.8554
11
49.9522
21
-39.0563
0
LINE
8
BLACK
6
CONTINUOUS
10
49.9522
20
-39.0563
11
49.8255
21
-39.2757
0
LINE
8
BLACK
6
CONTINUOUS
10
49.8255
20
-39.2757
11
49.7286
21
-39.5096
0
LINE
8
BLACK
6
CONTINUOUS
10
49.7286
20
-39.5096
11
49.6631
21
-39.7543
0
LINE
8
BLACK
6
CONTINUOUS
10
49.6631
20
-39.7543
11
49.63
21
-40.0054
0
LINE
8
BLACK
6
CONTINUOUS
10
49.63
20
-40.0054
11
49.63
21
-40.132
0
LINE
8
BLACK
6
CONTINUOUS
10
49.63
20
-40.132
11
49.63
21
-47.244
0
LINE
8
BLACK
6
CONTINUOUS
10
49.63
20
-47.244
11
49.6148
21
-47.3793
0
LINE
8
BLACK
6
CONTINUOUS
10
49.6148
20
-47.3793
11
49.5698
21
-47.5078
0
LINE
8
BLACK
6
CONTINUOUS
10
49.5698
20
-47.5078
11
49.4974
21
-47.6231
0
LINE
8
BLACK
6
CONTINUOUS
10
49.4974
20
-47.6231
11
49.4011
21
-47.7194
0
LINE
8
BLACK
6
CONTINUOUS
10
49.4011
20
-47.7194
11
49.2858
21
-47.7918
0
LINE
8
BLACK
6
CONTINUOUS
10
49.2858
20
-47.7918
11
49.1573
21
-47.8368
0
LINE
8
BLACK
6
CONTINUOUS
10
49.1573
20
-47.8368
11
49.022
21
-47.852
0
LINE
8
BLACK
6
CONTINUOUS
10
49.022
20
-47.852
11
38.862
21
-47.852
0
LINE
8
BLACK
6
CONTINUOUS
10
38.862
20
-47.852
11
38.7267
21
-47.8368
0
LINE
8
BLACK
6
CONTINUOUS
10
38.7267
20
-47.8368
11
38.5982
21
-47.7918
0
LINE
8
BLACK
6
CONTINUOUS
10
38.5982
20
-47.7918
11
38.4829
21
-47.7194
0
LINE
8
BLACK
6
CONTINUOUS
10
38.4829
20
-47.7194
11
38.3866
21
-47.6231
0
LINE
8
BLACK
6
CONTINUOUS
10
38.3866
20
-47.6231
11
38.3142
21
-47.5078
0
LINE
8
BLACK
6
CONTINUOUS
10
38.3142
20
-47.5078
11
38.2692
21
-47.3793
0
LINE
8
BLACK
6
CONTINUOUS
10
38.2692
20
-47.3793
11
38.254
21
-47.244
0
LINE
8
BLACK
6
CONTINUOUS
10
38.254
20
-47.244
11
38.254
21
-47.244
0
LINE
8
BLACK
6
CONTINUOUS
10
38.254
20
-47.244
11
38.254
21
-40.132
0
LINE
8
BLACK
6
CONTINUOUS
10
38.254
20
-40.132
11
38.254
21
-40.0054
0
LINE
8
BLACK
6
CONTINUOUS
10
38.254
20
-40.0054
11
38.2209
21
-39.7543
0
LINE
8
BLACK
6
CONTINUOUS
10
38.2209
20
-39.7543
11
38.1554
21
-39.5096
0
LINE
8
BLACK
6
CONTINUOUS
10
38.1554
20
-39.5096
11
38.0585
21
-39.2757
0
LINE
8
BLACK
6
CONTINUOUS
10
38.0585
20
-39.2757
11
37.9318
21
-39.0563
0
LINE
8
BLACK
6
CONTINUOUS
10
37.9318
20
-39.0563
11
37.7777
21
-38.8554
0
LINE
8
BLACK
6
CONTINUOUS
10
37.7777
20
-38.8554
11
37.5986
21
-38.6763
0
LINE
8
BLACK
6
CONTINUOUS
10
37.5986
20
-38.6763
11
37.3977
21
-38.5222
0
LINE
8
BLACK
6
CONTINUOUS
10
37.3977
20
-38.5222
11
37.1783
21
-38.3955
0
LINE
8
BLACK
6
CONTINUOUS
10
37.1783
20
-38.3955
11
36.9444
21
-38.2986
0
LINE
8
BLACK
6
CONTINUOUS
10
36.9444
20
-38.2986
11
36.6997
21
-38.2331
0
LINE
8
BLACK
6
CONTINUOUS
10
36.6997
20
-38.2331
11
36.4486
21
-38.2
0
LINE
8
BLACK
6
CONTINUOUS
10
36.4486
20
-38.2
11
36.322
21
-38.2
0
LINE
8
BLACK
6
CONTINUOUS
10
36.322
20
-38.2
11
33.782
21
-38.2
0
LINE
8
BLACK
6
CONTINUOUS
10
33.782
20
-38.2
11
33.7074
21
-38.2
0
LINE
8
BLACK
6
CONTINUOUS
10
33.7074
20
-38.2
11
33.562
21
-38.2332
0
LINE
8
BLACK
6
CONTINUOUS
10
33.562
20
-38.2332
11
33.4276
21
-38.2979
0
LINE
8
BLACK
6
CONTINUOUS
10
33.4276
20
-38.2979
11
33.3109
21
-38.3909
0
LINE
8
BLACK
6
CONTINUOUS
10
33.3109
20
-38.3909
11
33.2179
21
-38.5076
0
LINE
8
BLACK
6
CONTINUOUS
10
33.2179
20
-38.5076
11
33.1532
21
-38.642
0
LINE
8
BLACK
6
CONTINUOUS
10
33.1532
20
-38.642
11
33.12
21
-38.7874
0
LINE
8
BLACK
6
CONTINUOUS
10
33.12
20
-38.7874
11
33.12
21
-38.862
0
LINE
8
BLACK
6
CONTINUOUS
10
33.12
20
-38.862
11
33.12
21
-81.026
0
LINE
8
BLACK
6
CONTINUOUS
10
33.12
20
-81.026
11
33.12
21
-81.1006
0
LINE
8
BLACK
6
CONTINUOUS
10
33.12
20
-81.1006
11
33.1532
21
-81.246
0
LINE
8
BLACK
6
CONTINUOUS
10
33.1532
20
-81.246
11
33.2179
21
-81.3804
0
LINE
8
BLACK
6
CONTINUOUS
10
33.2179
20
-81.3804
11
33.3109
21
-81.4971
0
LINE
8
BLACK
6
CONTINUOUS
10
33.3109
20
-81.4971
11
33.4276
21
-81.5901
0
LINE
8
BLACK
6
CONTINUOUS
10
33.4276
20
-81.5901
11
33.562
21
-81.6548
0
LINE
8
BLACK
6
CONTINUOUS
10
33.562
20
-81.6548
11
33.7074
21
-81.688
0
LINE
8
BLACK
6
CONTINUOUS
10
33.7074
20
-81.688
11
33.782
21
-81.688
0
LINE
8
BLACK
6
CONTINUOUS
10
33.782
20
-81.688
11
40.386
21
-81.688
0
LINE
8
BLACK
6
CONTINUOUS
10
40.386
20
-81.688
11
40.5213
21
-81.7032
0
LINE
8
BLACK
6
CONTINUOUS
10
40.5213
20
-81.7032
11
40.6498
21
-81.7482
0
LINE
8
BLACK
6
CONTINUOUS
10
40.6498
20
-81.7482
11
40.7651
21
-81.8206
0
LINE
8
BLACK
6
CONTINUOUS
10
40.7651
20
-81.8206
11
40.8614
21
-81.9169
0
LINE
8
BLACK
6
CONTINUOUS
10
40.8614
20
-81.9169
11
40.9338
21
-82.0322
0
LINE
8
BLACK
6
CONTINUOUS
10
40.9338
20
-82.0322
11
40.9788
21
-82.1607
0
LINE
8
BLACK
6
CONTINUOUS
10
40.9788
20
-82.1607
11
40.994
21
-82.296
0
LINE
8
BLACK
6
CONTINUOUS
10
40.994
20
-82.296
11
40.994
21
-92.456
0
LINE
8
BLACK
6
CONTINUOUS
10
40.994
20
-92.456
11
40.9788
21
-92.5913
0
LINE
8
BLACK
6
CONTINUOUS
10
40.9788
20
-92.5913
11
40.9338
21
-92.7198
0
LINE
8
BLACK
6
CONTINUOUS
10
40.9338
20
-92.7198
11
40.8614
21
-92.8351
0
LINE
8
BLACK
6
CONTINUOUS
10
40.8614
20
-92.8351
11
40.7651
21
-92.9314
0
LINE
8
BLACK
6
CONTINUOUS
10
40.7651
20
-92.9314
11
40.6498
21
-93.0038
0
LINE
8
BLACK
6
CONTINUOUS
10
40.6498
20
-93.0038
11
40.5213
21
-93.0488
0
LINE
8
BLACK
6
CONTINUOUS
10
40.5213
20
-93.0488
11
40.386
21
-93.064
0
LINE
8
BLACK
6
CONTINUOUS
10
40.386
20
-93.064
11
33.782
21
-93.064
0
LINE
8
BLACK
6
CONTINUOUS
10
33.782
20
-93.064
11
33.7074
21
-93.064
0
LINE
8
BLACK
6
CONTINUOUS
10
33.7074
20
-93.064
11
33.562
21
-93.0972
0
LINE
8
BLACK
6
CONTINUOUS
10
33.562
20
-93.0972
11
33.4276
21
-93.1619
0
LINE
8
BLACK
6
CONTINUOUS
10
33.4276
20
-93.1619
11
33.3109
21
-93.2549
0
LINE
8
BLACK
6
CONTINUOUS
10
33.3109
20
-93.2549
11
33.2179
21
-93.3716
0
LINE
8
BLACK
6
CONTINUOUS
10
33.2179
20
-93.3716
11
33.1532
21
-93.506
0
LINE
8
BLACK
6
CONTINUOUS
10
33.1532
20
-93.506
11
33.12
21
-93.6514
0
LINE
8
BLACK
6
CONTINUOUS
10
33.12
20
-93.6514
11
33.12
21
-93.726
0
LINE
8
BLACK
6
CONTINUOUS
10
33.12
20
-93.726
11
33.12
21
-109.474
0
LINE
8
BLACK
6
CONTINUOUS
10
33.12
20
-109.474
11
33.12
21
-109.549
0
LINE
8
BLACK
6
CONTINUOUS
10
33.12
20
-109.549
11
33.1532
21
-109.694
0
LINE
8
BLACK
6
CONTINUOUS
10
33.1532
20
-109.694
11
33.2179
21
-109.828
0
LINE
8
BLACK
6
CONTINUOUS
10
33.2179
20
-109.828
11
33.3109
21
-109.945
0
LINE
8
BLACK
6
CONTINUOUS
10
33.3109
20
-109.945
11
33.4276
21
-110.038
0
LINE
8
BLACK
6
CONTINUOUS
10
33.4276
20
-110.038
11
33.562
21
-110.103
0
LINE
8
BLACK
6
CONTINUOUS
10
33.562
20
-110.103
11
33.7074
21
-110.136
0
LINE
8
BLACK
6
CONTINUOUS
10
33.7074
20
-110.136
11
33.782
21
-110.136
0
LINE
8
BLACK
6
CONTINUOUS
10
33.782
20
-110.136
11
41.91
21
-110.136
0
LINE
8
BLACK
6
CONTINUOUS
10
41.91
20
-110.136
11
42.0782
21
-110.153
0
LINE
8
BLACK
6
CONTINUOUS
10
42.0782
20
-110.153
11
42.2399
21
-110.202
0
LINE
8
BLACK
6
CONTINUOUS
10
42.2399
20
-110.202
11
42.3889
21
-110.281
0
LINE
8
BLACK
6
CONTINUOUS
10
42.3889
20
-110.281
11
42.5195
21
-110.388
0
LINE
8
BLACK
6
CONTINUOUS
10
42.5195
20
-110.388
11
42.6267
21
-110.519
0
LINE
8
BLACK
6
CONTINUOUS
10
42.6267
20
-110.519
11
42.7064
21
-110.668
0
LINE
8
BLACK
6
CONTINUOUS
10
42.7064
20
-110.668
11
42.7554
21
-110.83
0
LINE
8
BLACK
6
CONTINUOUS
10
42.7554
20
-110.83
11
42.772
21
-110.998
0
LINE
8
BLACK
6
CONTINUOUS
10
42.772
20
-110.998
11
42.772
21
-117.602
0
LINE
8
BLACK
6
CONTINUOUS
10
42.772
20
-117.602
11
42.7721
21
-117.726
0
LINE
8
BLACK
6
CONTINUOUS
10
42.7721
20
-117.726
11
42.8086
21
-117.971
0
LINE
8
BLACK
6
CONTINUOUS
10
42.8086
20
-117.971
11
42.8807
21
-118.209
0
LINE
8
BLACK
6
CONTINUOUS
10
42.8807
20
-118.209
11
42.987
21
-118.433
0
LINE
8
BLACK
6
CONTINUOUS
10
42.987
20
-118.433
11
43.1251
21
-118.639
0
LINE
8
BLACK
6
CONTINUOUS
10
43.1251
20
-118.639
11
43.17
21
-118.688
0
LINE
8
BLACK
6
CONTINUOUS
10
43.17
20
-118.688
11
58.3562
21
-106.095
0
LINE
8
BLACK
6
CONTINUOUS
10
58.3562
20
-106.095
11
58.3562
21
-106.095
0
LINE
8
BLACK
6
CONTINUOUS
10
58.3562
20
-106.095
11
58.5304
21
-105.936
0
LINE
8
BLACK
6
CONTINUOUS
10
58.5304
20
-105.936
11
58.7262
21
-105.789
0
LINE
8
BLACK
6
CONTINUOUS
10
58.7262
20
-105.789
11
58.9348
21
-105.661
0
LINE
8
BLACK
6
CONTINUOUS
10
58.9348
20
-105.661
11
59.1546
21
-105.553
0
LINE
8
BLACK
6
CONTINUOUS
10
59.1546
20
-105.553
11
59.3835
21
-105.466
0
LINE
8
BLACK
6
CONTINUOUS
10
59.3835
20
-105.466
11
59.3835
21
-105.466
0
LINE
8
BLACK
6
CONTINUOUS
10
59.3835
20
-105.466
11
59.3865
21
-105.465
0
LINE
8
BLACK
6
CONTINUOUS
10
59.3865
20
-105.465
11
59.3886
21
-105.464
0
LINE
8
BLACK
6
CONTINUOUS
10
59.3886
20
-105.464
11
68.6004
21
-102.982
0
LINE
8
BLACK
6
CONTINUOUS
10
68.6004
20
-102.982
11
68.678
21
-102.958
0
LINE
8
BLACK
6
CONTINUOUS
10
68.678
20
-102.958
11
68.8254
21
-102.88
0
LINE
8
BLACK
6
CONTINUOUS
10
68.8254
20
-102.88
11
68.9564
21
-102.778
0
LINE
8
BLACK
6
CONTINUOUS
10
68.9564
20
-102.778
11
69.0668
21
-102.653
0
LINE
8
BLACK
6
CONTINUOUS
10
69.0668
20
-102.653
11
69.1529
21
-102.511
0
LINE
8
BLACK
6
CONTINUOUS
10
69.1529
20
-102.511
11
69.2119
21
-102.355
0
LINE
8
BLACK
6
CONTINUOUS
10
69.2119
20
-102.355
11
69.2419
21
-102.191
0
LINE
8
BLACK
6
CONTINUOUS
10
69.2419
20
-102.191
11
69.242
21
-102.108
0
LINE
8
BLACK
6
CONTINUOUS
10
69.242
20
-102.108
11
69.242
21
-102.108
0
LINE
8
BLACK
6
CONTINUOUS
10
69.242
20
-102.108
11
69.242
21
-35.66
0
LINE
8
BLACK
6
CONTINUOUS
10
69.242
20
-35.66
11
53.086
21
-35.66
  0
ENDSEC
  0
EOF
