  0
SECTION
  2
HEADER
  9
$ANGBASE
  50
0.0
  9
$ANGDIR
  70
1
  9
$MEASUREMENT
  70
1
  0
ENDSEC
  0
SECTION
  2
TABLES
  0
TABLE
  2
LTYPE
  70
4
  0
LTYPE
  5
40F
  2
CONTINUOUS
  70
0
  3
Solid line
  72
65
  73
0
  40
0.0
  0
LTYPE
  5
410
  2
DASHDOT
 70
0
  3
Dash Dot ____ _ ____ _
 72
65
 73
4
 40
2.0
 49
1.25
 49
-0.25
 49
0.25
 49
-0.25
  0
LTYPE
  5
411
  2
DASHED
 70
0
  3
Dashed __ __ __ __ __
 72
65
 73
2
 40
0.75
 49
0.5
 49
-0.25
  0
LTYPE
  5
43B
  2
DOTTED
 70
0
  3
Dotted .  .  .  .
 72
65
 73
2
 40
0.2
 49
0.0
 49
-0.2
  0
ENDTAB
  0
TABLE
  2
STYLE
  70
4
  0
STYLE
  2
KICAD
  70
0
  40
0
  41
1
  42
1
  50
0
  71
0
  3
isocp.shx
  0
STYLE
  2
KICADB
  70
0
  40
0
  41
1
  42
1
  50
0
  71
0
  3
isocp.shx
  0
STYLE
  2
KICADI
  70
0
  40
0
  41
1
  42
1
  50
15
  71
0
  3
isocp.shx
  0
STYLE
  2
KICADBI
  70
0
  40
0
  41
1
  42
1
  50
15
  71
0
  3
isocp.shx
  0
ENDTAB
  0
TABLE
  2
LAYER
  70
1
  0
LAYER
  2
BLACK
  70
0
  62
7
  6
CONTINUOUS
  0
ENDTAB
  0
ENDSEC
  0
SECTION
  2
ENTITIES
0
LINE
8
BLACK
6
CONTINUOUS
10
109.749
20
-23.7098
11
133.691
21
-25.384
0
LINE
8
BLACK
6
CONTINUOUS
10
133.691
20
-25.384
11
133.691
21
-25.384
0
LINE
8
BLACK
6
CONTINUOUS
10
133.691
20
-25.384
11
133.691
21
-25.384
0
LINE
8
BLACK
6
CONTINUOUS
10
133.691
20
-25.384
11
133.691
21
-25.384
0
LINE
8
BLACK
6
CONTINUOUS
10
133.691
20
-25.384
11
133.88
21
-25.414
0
LINE
8
BLACK
6
CONTINUOUS
10
133.88
20
-25.414
11
134.062
21
-25.4764
0
LINE
8
BLACK
6
CONTINUOUS
10
134.062
20
-25.4764
11
134.229
21
-25.5693
0
LINE
8
BLACK
6
CONTINUOUS
10
134.229
20
-25.5693
11
134.378
21
-25.69
0
LINE
8
BLACK
6
CONTINUOUS
10
134.378
20
-25.69
11
134.504
21
-25.8347
0
LINE
8
BLACK
6
CONTINUOUS
10
134.504
20
-25.8347
11
134.603
21
-25.9991
0
LINE
8
BLACK
6
CONTINUOUS
10
134.603
20
-25.9991
11
134.672
21
-26.1781
0
LINE
8
BLACK
6
CONTINUOUS
10
134.672
20
-26.1781
11
134.708
21
-26.3663
0
LINE
8
BLACK
6
CONTINUOUS
10
134.708
20
-26.3663
11
134.712
21
-26.5578
0
LINE
8
BLACK
6
CONTINUOUS
10
134.712
20
-26.5578
11
134.712
21
-26.558
0
LINE
8
BLACK
6
CONTINUOUS
10
134.712
20
-26.558
11
134.712
21
-26.558
0
LINE
8
BLACK
6
CONTINUOUS
10
134.712
20
-26.558
11
134.712
21
-26.558
0
LINE
8
BLACK
6
CONTINUOUS
10
134.712
20
-26.558
11
134.712
21
-26.558
0
LINE
8
BLACK
6
CONTINUOUS
10
134.712
20
-26.558
11
134.057
21
-35.9199
0
LINE
8
BLACK
6
CONTINUOUS
10
134.057
20
-35.9199
11
134.057
21
-35.9199
0
LINE
8
BLACK
6
CONTINUOUS
10
134.057
20
-35.9199
11
134.057
21
-35.9199
0
LINE
8
BLACK
6
CONTINUOUS
10
134.057
20
-35.9199
11
134.051
21
-36.0064
0
LINE
8
BLACK
6
CONTINUOUS
10
134.051
20
-36.0064
11
134.072
21
-36.1784
0
LINE
8
BLACK
6
CONTINUOUS
10
134.072
20
-36.1784
11
134.126
21
-36.3432
0
LINE
8
BLACK
6
CONTINUOUS
10
134.126
20
-36.3432
11
134.21
21
-36.4947
0
LINE
8
BLACK
6
CONTINUOUS
10
134.21
20
-36.4947
11
134.321
21
-36.6275
0
LINE
8
BLACK
6
CONTINUOUS
10
134.321
20
-36.6275
11
134.456
21
-36.7366
0
LINE
8
BLACK
6
CONTINUOUS
10
134.456
20
-36.7366
11
134.609
21
-36.8179
0
LINE
8
BLACK
6
CONTINUOUS
10
134.609
20
-36.8179
11
134.775
21
-36.8686
0
LINE
8
BLACK
6
CONTINUOUS
10
134.775
20
-36.8686
11
134.861
21
-36.8778
0
LINE
8
BLACK
6
CONTINUOUS
10
134.861
20
-36.8778
11
134.861
21
-36.8778
0
LINE
8
BLACK
6
CONTINUOUS
10
134.861
20
-36.8778
11
152.984
21
-38.7827
0
LINE
8
BLACK
6
CONTINUOUS
10
152.984
20
-38.7827
11
152.984
21
-38.7827
0
LINE
8
BLACK
6
CONTINUOUS
10
152.984
20
-38.7827
11
152.984
21
-38.7827
0
LINE
8
BLACK
6
CONTINUOUS
10
152.984
20
-38.7827
11
153.173
21
-38.8193
0
LINE
8
BLACK
6
CONTINUOUS
10
153.173
20
-38.8193
11
153.352
21
-38.888
0
LINE
8
BLACK
6
CONTINUOUS
10
153.352
20
-38.888
11
153.516
21
-38.9867
0
LINE
8
BLACK
6
CONTINUOUS
10
153.516
20
-38.9867
11
153.661
21
-39.1125
0
LINE
8
BLACK
6
CONTINUOUS
10
153.661
20
-39.1125
11
153.781
21
-39.2615
0
LINE
8
BLACK
6
CONTINUOUS
10
153.781
20
-39.2615
11
153.874
21
-39.4292
0
LINE
8
BLACK
6
CONTINUOUS
10
153.874
20
-39.4292
11
153.937
21
-39.6105
0
LINE
8
BLACK
6
CONTINUOUS
10
153.937
20
-39.6105
11
153.967
21
-39.7999
0
LINE
8
BLACK
6
CONTINUOUS
10
153.967
20
-39.7999
11
153.963
21
-39.9916
0
LINE
8
BLACK
6
CONTINUOUS
10
153.963
20
-39.9916
11
153.963
21
-39.9916
0
LINE
8
BLACK
6
CONTINUOUS
10
153.963
20
-39.9916
11
153.963
21
-39.9916
0
LINE
8
BLACK
6
CONTINUOUS
10
153.963
20
-39.9916
11
153.963
21
-39.9916
0
LINE
8
BLACK
6
CONTINUOUS
10
153.963
20
-39.9916
11
153.963
21
-39.9916
0
LINE
8
BLACK
6
CONTINUOUS
10
153.963
20
-39.9916
11
152.507
21
-53.8528
0
LINE
8
BLACK
6
CONTINUOUS
10
152.507
20
-53.8528
11
152.507
21
-53.8528
0
LINE
8
BLACK
6
CONTINUOUS
10
152.507
20
-53.8528
11
152.507
21
-53.8528
0
LINE
8
BLACK
6
CONTINUOUS
10
152.507
20
-53.8528
11
152.498
21
-53.939
0
LINE
8
BLACK
6
CONTINUOUS
10
152.498
20
-53.939
11
152.513
21
-54.1116
0
LINE
8
BLACK
6
CONTINUOUS
10
152.513
20
-54.1116
11
152.561
21
-54.2782
0
LINE
8
BLACK
6
CONTINUOUS
10
152.561
20
-54.2782
11
152.639
21
-54.4326
0
LINE
8
BLACK
6
CONTINUOUS
10
152.639
20
-54.4326
11
152.746
21
-54.5692
0
LINE
8
BLACK
6
CONTINUOUS
10
152.746
20
-54.5692
11
152.877
21
-54.6829
0
LINE
8
BLACK
6
CONTINUOUS
10
152.877
20
-54.6829
11
153.027
21
-54.7695
0
LINE
8
BLACK
6
CONTINUOUS
10
153.027
20
-54.7695
11
153.191
21
-54.826
0
LINE
8
BLACK
6
CONTINUOUS
10
153.191
20
-54.826
11
153.276
21
-54.8381
0
LINE
8
BLACK
6
CONTINUOUS
10
153.276
20
-54.8381
11
171.165
21
-57.3522
0
LINE
8
BLACK
6
CONTINUOUS
10
171.165
20
-57.3522
11
171.165
21
-57.3522
0
LINE
8
BLACK
6
CONTINUOUS
10
171.165
20
-57.3522
11
171.165
21
-57.3522
0
LINE
8
BLACK
6
CONTINUOUS
10
171.165
20
-57.3522
11
171.352
21
-57.3954
0
LINE
8
BLACK
6
CONTINUOUS
10
171.352
20
-57.3954
11
171.529
21
-57.4703
0
LINE
8
BLACK
6
CONTINUOUS
10
171.529
20
-57.4703
11
171.689
21
-57.5747
0
LINE
8
BLACK
6
CONTINUOUS
10
171.689
20
-57.5747
11
171.83
21
-57.7055
0
LINE
8
BLACK
6
CONTINUOUS
10
171.83
20
-57.7055
11
171.945
21
-57.8586
0
LINE
8
BLACK
6
CONTINUOUS
10
171.945
20
-57.8586
11
172.032
21
-58.0295
0
LINE
8
BLACK
6
CONTINUOUS
10
172.032
20
-58.0295
11
172.088
21
-58.2128
0
LINE
8
BLACK
6
CONTINUOUS
10
172.088
20
-58.2128
11
172.112
21
-58.4031
0
LINE
8
BLACK
6
CONTINUOUS
10
172.112
20
-58.4031
11
172.102
21
-58.5946
0
LINE
8
BLACK
6
CONTINUOUS
10
172.102
20
-58.5946
11
172.102
21
-58.5946
0
LINE
8
BLACK
6
CONTINUOUS
10
172.102
20
-58.5946
11
172.102
21
-58.5946
0
LINE
8
BLACK
6
CONTINUOUS
10
172.102
20
-58.5946
11
172.102
21
-58.5946
0
LINE
8
BLACK
6
CONTINUOUS
10
172.102
20
-58.5946
11
171.049
21
-66.0847
0
LINE
8
BLACK
6
CONTINUOUS
10
171.049
20
-66.0847
11
171.049
21
-66.0847
0
LINE
8
BLACK
6
CONTINUOUS
10
171.049
20
-66.0847
11
171.037
21
-66.1705
0
LINE
8
BLACK
6
CONTINUOUS
10
171.037
20
-66.1705
11
171.046
21
-66.3436
0
LINE
8
BLACK
6
CONTINUOUS
10
171.046
20
-66.3436
11
171.088
21
-66.5117
0
LINE
8
BLACK
6
CONTINUOUS
10
171.088
20
-66.5117
11
171.161
21
-66.6688
0
LINE
8
BLACK
6
CONTINUOUS
10
171.161
20
-66.6688
11
171.263
21
-66.809
0
LINE
8
BLACK
6
CONTINUOUS
10
171.263
20
-66.809
11
171.39
21
-66.9272
0
LINE
8
BLACK
6
CONTINUOUS
10
171.39
20
-66.9272
11
171.537
21
-67.019
0
LINE
8
BLACK
6
CONTINUOUS
10
171.537
20
-67.019
11
171.699
21
-67.0811
0
LINE
8
BLACK
6
CONTINUOUS
10
171.699
20
-67.0811
11
171.784
21
-67.0963
0
LINE
8
BLACK
6
CONTINUOUS
10
171.784
20
-67.0963
11
171.784
21
-67.0963
0
LINE
8
BLACK
6
CONTINUOUS
10
171.784
20
-67.0963
11
189.596
21
-70.2371
0
LINE
8
BLACK
6
CONTINUOUS
10
189.596
20
-70.2371
11
189.596
21
-70.2371
0
LINE
8
BLACK
6
CONTINUOUS
10
189.596
20
-70.2371
11
189.596
21
-70.2371
0
LINE
8
BLACK
6
CONTINUOUS
10
189.596
20
-70.2371
11
189.781
21
-70.2867
0
LINE
8
BLACK
6
CONTINUOUS
10
189.781
20
-70.2867
11
189.955
21
-70.3677
0
LINE
8
BLACK
6
CONTINUOUS
10
189.955
20
-70.3677
11
190.112
21
-70.4777
0
LINE
8
BLACK
6
CONTINUOUS
10
190.112
20
-70.4777
11
190.248
21
-70.6133
0
LINE
8
BLACK
6
CONTINUOUS
10
190.248
20
-70.6133
11
190.358
21
-70.7704
0
LINE
8
BLACK
6
CONTINUOUS
10
190.358
20
-70.7704
11
190.439
21
-70.9441
0
LINE
8
BLACK
6
CONTINUOUS
10
190.439
20
-70.9441
11
190.489
21
-71.1293
0
LINE
8
BLACK
6
CONTINUOUS
10
190.489
20
-71.1293
11
190.505
21
-71.3204
0
LINE
8
BLACK
6
CONTINUOUS
10
190.505
20
-71.3204
11
190.489
21
-71.5114
0
LINE
8
BLACK
6
CONTINUOUS
10
190.489
20
-71.5114
11
190.489
21
-71.5114
0
LINE
8
BLACK
6
CONTINUOUS
10
190.489
20
-71.5114
11
190.489
21
-71.5114
0
LINE
8
BLACK
6
CONTINUOUS
10
190.489
20
-71.5114
11
190.489
21
-71.5114
0
LINE
8
BLACK
6
CONTINUOUS
10
190.489
20
-71.5114
11
182.023
21
-119.521
0
LINE
8
BLACK
6
CONTINUOUS
10
182.023
20
-119.521
11
182.023
21
-119.521
0
LINE
8
BLACK
6
CONTINUOUS
10
182.023
20
-119.521
11
181.973
21
-119.707
0
LINE
8
BLACK
6
CONTINUOUS
10
181.973
20
-119.707
11
181.892
21
-119.88
0
LINE
8
BLACK
6
CONTINUOUS
10
181.892
20
-119.88
11
181.782
21
-120.037
0
LINE
8
BLACK
6
CONTINUOUS
10
181.782
20
-120.037
11
181.647
21
-120.173
0
LINE
8
BLACK
6
CONTINUOUS
10
181.647
20
-120.173
11
181.49
21
-120.283
0
LINE
8
BLACK
6
CONTINUOUS
10
181.49
20
-120.283
11
181.316
21
-120.364
0
LINE
8
BLACK
6
CONTINUOUS
10
181.316
20
-120.364
11
181.13
21
-120.414
0
LINE
8
BLACK
6
CONTINUOUS
10
181.13
20
-120.414
11
180.94
21
-120.43
0
LINE
8
BLACK
6
CONTINUOUS
10
180.94
20
-120.43
11
180.939
21
-120.43
0
LINE
8
BLACK
6
CONTINUOUS
10
180.939
20
-120.43
11
180.939
21
-120.43
0
LINE
8
BLACK
6
CONTINUOUS
10
180.939
20
-120.43
11
180.939
21
-120.43
0
LINE
8
BLACK
6
CONTINUOUS
10
180.939
20
-120.43
11
180.939
21
-120.43
0
LINE
8
BLACK
6
CONTINUOUS
10
180.939
20
-120.43
11
110.357
21
-120.418
0
LINE
8
BLACK
6
CONTINUOUS
10
110.357
20
-120.418
11
110.273
21
-120.42
0
LINE
8
BLACK
6
CONTINUOUS
10
110.273
20
-120.42
11
110.104
21
-120.459
0
LINE
8
BLACK
6
CONTINUOUS
10
110.104
20
-120.459
11
109.945
21
-120.53
0
LINE
8
BLACK
6
CONTINUOUS
10
109.945
20
-120.53
11
109.803
21
-120.63
0
LINE
8
BLACK
6
CONTINUOUS
10
109.803
20
-120.63
11
109.683
21
-120.756
0
LINE
8
BLACK
6
CONTINUOUS
10
109.683
20
-120.756
11
109.59
21
-120.903
0
LINE
8
BLACK
6
CONTINUOUS
10
109.59
20
-120.903
11
109.528
21
-121.065
0
LINE
8
BLACK
6
CONTINUOUS
10
109.528
20
-121.065
11
109.513
21
-121.151
0
LINE
8
BLACK
6
CONTINUOUS
10
109.513
20
-121.151
11
109.513
21
-121.151
0
LINE
8
BLACK
6
CONTINUOUS
10
109.513
20
-121.151
11
109.512
21
-121.151
0
LINE
8
BLACK
6
CONTINUOUS
10
109.512
20
-121.151
11
109.513
21
-121.151
0
LINE
8
BLACK
6
CONTINUOUS
10
109.513
20
-121.151
11
108.804
21
-125.096
0
LINE
8
BLACK
6
CONTINUOUS
10
108.804
20
-125.096
11
108.804
21
-125.097
0
LINE
8
BLACK
6
CONTINUOUS
10
108.804
20
-125.097
11
108.755
21
-125.281
0
LINE
8
BLACK
6
CONTINUOUS
10
108.755
20
-125.281
11
108.674
21
-125.455
0
LINE
8
BLACK
6
CONTINUOUS
10
108.674
20
-125.455
11
108.564
21
-125.612
0
LINE
8
BLACK
6
CONTINUOUS
10
108.564
20
-125.612
11
108.428
21
-125.748
0
LINE
8
BLACK
6
CONTINUOUS
10
108.428
20
-125.748
11
108.271
21
-125.858
0
LINE
8
BLACK
6
CONTINUOUS
10
108.271
20
-125.858
11
108.097
21
-125.939
0
LINE
8
BLACK
6
CONTINUOUS
10
108.097
20
-125.939
11
107.912
21
-125.988
0
LINE
8
BLACK
6
CONTINUOUS
10
107.912
20
-125.988
11
107.721
21
-126.005
0
LINE
8
BLACK
6
CONTINUOUS
10
107.721
20
-126.005
11
107.53
21
-125.988
0
LINE
8
BLACK
6
CONTINUOUS
10
107.53
20
-125.988
11
107.53
21
-125.988
0
LINE
8
BLACK
6
CONTINUOUS
10
107.53
20
-125.988
11
107.53
21
-125.988
0
LINE
8
BLACK
6
CONTINUOUS
10
107.53
20
-125.988
11
107.53
21
-125.988
0
LINE
8
BLACK
6
CONTINUOUS
10
107.53
20
-125.988
11
86.1371
21
-122.143
0
LINE
8
BLACK
6
CONTINUOUS
10
86.1371
20
-122.143
11
68.841
21
-126.745
0
LINE
8
BLACK
6
CONTINUOUS
10
68.841
20
-126.745
11
53.2114
21
-139.756
0
LINE
8
BLACK
6
CONTINUOUS
10
53.2114
20
-139.756
11
53.2113
21
-139.756
0
LINE
8
BLACK
6
CONTINUOUS
10
53.2113
20
-139.756
11
53.0547
21
-139.865
0
LINE
8
BLACK
6
CONTINUOUS
10
53.0547
20
-139.865
11
52.8809
21
-139.947
0
LINE
8
BLACK
6
CONTINUOUS
10
52.8809
20
-139.947
11
52.6957
21
-139.996
0
LINE
8
BLACK
6
CONTINUOUS
10
52.6957
20
-139.996
11
52.5047
21
-140.013
0
LINE
8
BLACK
6
CONTINUOUS
10
52.5047
20
-140.013
11
52.3136
21
-139.996
0
LINE
8
BLACK
6
CONTINUOUS
10
52.3136
20
-139.996
11
52.1284
21
-139.947
0
LINE
8
BLACK
6
CONTINUOUS
10
52.1284
20
-139.947
11
51.9546
21
-139.866
0
LINE
8
BLACK
6
CONTINUOUS
10
51.9546
20
-139.866
11
51.7975
21
-139.756
0
LINE
8
BLACK
6
CONTINUOUS
10
51.7975
20
-139.756
11
51.662
21
-139.62
0
LINE
8
BLACK
6
CONTINUOUS
10
51.662
20
-139.62
11
51.662
21
-139.62
0
LINE
8
BLACK
6
CONTINUOUS
10
51.662
20
-139.62
11
35.7375
21
-120.714
0
LINE
8
BLACK
6
CONTINUOUS
10
35.7375
20
-120.714
11
35.7365
21
-120.712
0
LINE
8
BLACK
6
CONTINUOUS
10
35.7365
20
-120.712
11
35.734
21
-120.71
0
LINE
8
BLACK
6
CONTINUOUS
10
35.734
20
-120.71
11
35.6376
21
-120.563
0
LINE
8
BLACK
6
CONTINUOUS
10
35.6376
20
-120.563
11
35.5609
21
-120.404
0
LINE
8
BLACK
6
CONTINUOUS
10
35.5609
20
-120.404
11
35.5051
21
-120.237
0
LINE
8
BLACK
6
CONTINUOUS
10
35.5051
20
-120.237
11
35.4713
21
-120.064
0
LINE
8
BLACK
6
CONTINUOUS
10
35.4713
20
-120.064
11
35.46
21
-119.888
0
LINE
8
BLACK
6
CONTINUOUS
10
35.46
20
-119.888
11
35.46
21
-119.888
0
LINE
8
BLACK
6
CONTINUOUS
10
35.46
20
-119.888
11
35.46
21
-110.49
0
LINE
8
BLACK
6
CONTINUOUS
10
35.46
20
-110.49
11
35.46
21
-110.49
0
LINE
8
BLACK
6
CONTINUOUS
10
35.46
20
-110.49
11
35.46
21
-110.49
0
LINE
8
BLACK
6
CONTINUOUS
10
35.46
20
-110.49
11
35.477
21
-110.296
0
LINE
8
BLACK
6
CONTINUOUS
10
35.477
20
-110.296
11
35.5273
21
-110.108
0
LINE
8
BLACK
6
CONTINUOUS
10
35.5273
20
-110.108
11
35.6095
21
-109.932
0
LINE
8
BLACK
6
CONTINUOUS
10
35.6095
20
-109.932
11
35.7211
21
-109.773
0
LINE
8
BLACK
6
CONTINUOUS
10
35.7211
20
-109.773
11
35.8587
21
-109.635
0
LINE
8
BLACK
6
CONTINUOUS
10
35.8587
20
-109.635
11
36.018
21
-109.524
0
LINE
8
BLACK
6
CONTINUOUS
10
36.018
20
-109.524
11
36.1943
21
-109.441
0
LINE
8
BLACK
6
CONTINUOUS
10
36.1943
20
-109.441
11
36.3822
21
-109.391
0
LINE
8
BLACK
6
CONTINUOUS
10
36.3822
20
-109.391
11
36.576
21
-109.374
0
LINE
8
BLACK
6
CONTINUOUS
10
36.576
20
-109.374
11
36.576
21
-109.374
0
LINE
8
BLACK
6
CONTINUOUS
10
36.576
20
-109.374
11
37.592
21
-109.374
0
LINE
8
BLACK
6
CONTINUOUS
10
37.592
20
-109.374
11
37.592
21
-109.374
0
LINE
8
BLACK
6
CONTINUOUS
10
37.592
20
-109.374
11
37.6666
21
-109.374
0
LINE
8
BLACK
6
CONTINUOUS
10
37.6666
20
-109.374
11
37.812
21
-109.341
0
LINE
8
BLACK
6
CONTINUOUS
10
37.812
20
-109.341
11
37.9464
21
-109.276
0
LINE
8
BLACK
6
CONTINUOUS
10
37.9464
20
-109.276
11
38.0631
21
-109.183
0
LINE
8
BLACK
6
CONTINUOUS
10
38.0631
20
-109.183
11
38.1561
21
-109.066
0
LINE
8
BLACK
6
CONTINUOUS
10
38.1561
20
-109.066
11
38.2208
21
-108.932
0
LINE
8
BLACK
6
CONTINUOUS
10
38.2208
20
-108.932
11
38.254
21
-108.787
0
LINE
8
BLACK
6
CONTINUOUS
10
38.254
20
-108.787
11
38.254
21
-108.712
0
LINE
8
BLACK
6
CONTINUOUS
10
38.254
20
-108.712
11
38.254
21
-108.712
0
LINE
8
BLACK
6
CONTINUOUS
10
38.254
20
-108.712
11
38.254
21
-108.712
0
LINE
8
BLACK
6
CONTINUOUS
10
38.254
20
-108.712
11
38.254
21
-93.98
0
LINE
8
BLACK
6
CONTINUOUS
10
38.254
20
-93.98
11
38.254
21
-93.98
0
LINE
8
BLACK
6
CONTINUOUS
10
38.254
20
-93.98
11
38.254
21
-93.9054
0
LINE
8
BLACK
6
CONTINUOUS
10
38.254
20
-93.9054
11
38.2208
21
-93.76
0
LINE
8
BLACK
6
CONTINUOUS
10
38.2208
20
-93.76
11
38.1561
21
-93.6256
0
LINE
8
BLACK
6
CONTINUOUS
10
38.1561
20
-93.6256
11
38.0631
21
-93.5089
0
LINE
8
BLACK
6
CONTINUOUS
10
38.0631
20
-93.5089
11
37.9464
21
-93.4159
0
LINE
8
BLACK
6
CONTINUOUS
10
37.9464
20
-93.4159
11
37.812
21
-93.3512
0
LINE
8
BLACK
6
CONTINUOUS
10
37.812
20
-93.3512
11
37.6666
21
-93.318
0
LINE
8
BLACK
6
CONTINUOUS
10
37.6666
20
-93.318
11
37.592
21
-93.318
0
LINE
8
BLACK
6
CONTINUOUS
10
37.592
20
-93.318
11
36.576
21
-93.318
0
LINE
8
BLACK
6
CONTINUOUS
10
36.576
20
-93.318
11
36.576
21
-93.318
0
LINE
8
BLACK
6
CONTINUOUS
10
36.576
20
-93.318
11
36.3822
21
-93.301
0
LINE
8
BLACK
6
CONTINUOUS
10
36.3822
20
-93.301
11
36.1943
21
-93.2507
0
LINE
8
BLACK
6
CONTINUOUS
10
36.1943
20
-93.2507
11
36.018
21
-93.1685
0
LINE
8
BLACK
6
CONTINUOUS
10
36.018
20
-93.1685
11
35.8587
21
-93.0569
0
LINE
8
BLACK
6
CONTINUOUS
10
35.8587
20
-93.0569
11
35.7211
21
-92.9194
0
LINE
8
BLACK
6
CONTINUOUS
10
35.7211
20
-92.9194
11
35.6095
21
-92.76
0
LINE
8
BLACK
6
CONTINUOUS
10
35.6095
20
-92.76
11
35.5273
21
-92.5837
0
LINE
8
BLACK
6
CONTINUOUS
10
35.5273
20
-92.5837
11
35.477
21
-92.3958
0
LINE
8
BLACK
6
CONTINUOUS
10
35.477
20
-92.3958
11
35.46
21
-92.202
0
LINE
8
BLACK
6
CONTINUOUS
10
35.46
20
-92.202
11
35.46
21
-92.202
0
LINE
8
BLACK
6
CONTINUOUS
10
35.46
20
-92.202
11
35.46
21
-38.862
0
LINE
8
BLACK
6
CONTINUOUS
10
35.46
20
-38.862
11
35.4766
21
-38.6938
0
LINE
8
BLACK
6
CONTINUOUS
10
35.4766
20
-38.6938
11
35.5256
21
-38.5321
0
LINE
8
BLACK
6
CONTINUOUS
10
35.5256
20
-38.5321
11
35.6053
21
-38.3831
0
LINE
8
BLACK
6
CONTINUOUS
10
35.6053
20
-38.3831
11
35.7125
21
-38.2525
0
LINE
8
BLACK
6
CONTINUOUS
10
35.7125
20
-38.2525
11
35.8431
21
-38.1453
0
LINE
8
BLACK
6
CONTINUOUS
10
35.8431
20
-38.1453
11
35.9921
21
-38.0656
0
LINE
8
BLACK
6
CONTINUOUS
10
35.9921
20
-38.0656
11
36.1538
21
-38.0166
0
LINE
8
BLACK
6
CONTINUOUS
10
36.1538
20
-38.0166
11
36.322
21
-38
0
LINE
8
BLACK
6
CONTINUOUS
10
36.322
20
-38
11
36.322
21
-38
0
LINE
8
BLACK
6
CONTINUOUS
10
36.322
20
-38
11
86.6117
21
-38
0
LINE
8
BLACK
6
CONTINUOUS
10
86.6117
20
-38
11
86.614
21
-37.9994
0
LINE
8
BLACK
6
CONTINUOUS
10
86.614
20
-37.9994
11
86.614
21
-37.9994
0
LINE
8
BLACK
6
CONTINUOUS
10
86.614
20
-37.9994
11
86.6941
21
-37.9994
0
LINE
8
BLACK
6
CONTINUOUS
10
86.6941
20
-37.9994
11
86.8518
21
-37.9716
0
LINE
8
BLACK
6
CONTINUOUS
10
86.8518
20
-37.9716
11
87.0023
21
-37.9168
0
LINE
8
BLACK
6
CONTINUOUS
10
87.0023
20
-37.9168
11
87.141
21
-37.8367
0
LINE
8
BLACK
6
CONTINUOUS
10
87.141
20
-37.8367
11
87.2637
21
-37.7337
0
LINE
8
BLACK
6
CONTINUOUS
10
87.2637
20
-37.7337
11
87.3667
21
-37.611
0
LINE
8
BLACK
6
CONTINUOUS
10
87.3667
20
-37.611
11
87.4468
21
-37.4723
0
LINE
8
BLACK
6
CONTINUOUS
10
87.4468
20
-37.4723
11
87.5016
21
-37.3218
0
LINE
8
BLACK
6
CONTINUOUS
10
87.5016
20
-37.3218
11
87.5294
21
-37.1641
0
LINE
8
BLACK
6
CONTINUOUS
10
87.5294
20
-37.1641
11
87.5294
21
-37.084
0
LINE
8
BLACK
6
CONTINUOUS
10
87.5294
20
-37.084
11
87.5297
21
-37.0828
0
LINE
8
BLACK
6
CONTINUOUS
10
87.5297
20
-37.0828
11
87.5294
21
-37.0818
0
LINE
8
BLACK
6
CONTINUOUS
10
87.5294
20
-37.0818
11
87.6215
21
-32.8766
0
LINE
8
BLACK
6
CONTINUOUS
10
87.6215
20
-32.8766
11
87.6217
21
-32.876
0
LINE
8
BLACK
6
CONTINUOUS
10
87.6217
20
-32.876
11
87.6216
21
-32.8753
0
LINE
8
BLACK
6
CONTINUOUS
10
87.6216
20
-32.8753
11
87.6216
21
-32.8753
0
LINE
8
BLACK
6
CONTINUOUS
10
87.6216
20
-32.8753
11
87.6449
21
-32.685
0
LINE
8
BLACK
6
CONTINUOUS
10
87.6449
20
-32.685
11
87.701
21
-32.5016
0
LINE
8
BLACK
6
CONTINUOUS
10
87.701
20
-32.5016
11
87.788
21
-32.3308
0
LINE
8
BLACK
6
CONTINUOUS
10
87.788
20
-32.3308
11
87.9034
21
-32.1776
0
LINE
8
BLACK
6
CONTINUOUS
10
87.9034
20
-32.1776
11
88.0437
21
-32.0469
0
LINE
8
BLACK
6
CONTINUOUS
10
88.0437
20
-32.0469
11
88.2045
21
-31.9425
0
LINE
8
BLACK
6
CONTINUOUS
10
88.2045
20
-31.9425
11
88.381
21
-31.8675
0
LINE
8
BLACK
6
CONTINUOUS
10
88.381
20
-31.8675
11
88.5678
21
-31.8244
0
LINE
8
BLACK
6
CONTINUOUS
10
88.5678
20
-31.8244
11
88.7592
21
-31.8144
0
LINE
8
BLACK
6
CONTINUOUS
10
88.7592
20
-31.8144
11
88.7593
21
-31.8144
0
LINE
8
BLACK
6
CONTINUOUS
10
88.7593
20
-31.8144
11
107.164
21
-32.4571
0
LINE
8
BLACK
6
CONTINUOUS
10
107.164
20
-32.4571
11
107.164
21
-32.4571
0
LINE
8
BLACK
6
CONTINUOUS
10
107.164
20
-32.4571
11
107.164
21
-32.4571
0
LINE
8
BLACK
6
CONTINUOUS
10
107.164
20
-32.4571
11
107.164
21
-32.4571
0
LINE
8
BLACK
6
CONTINUOUS
10
107.164
20
-32.4571
11
107.251
21
-32.46
0
LINE
8
BLACK
6
CONTINUOUS
10
107.251
20
-32.46
11
107.422
21
-32.4329
0
LINE
8
BLACK
6
CONTINUOUS
10
107.422
20
-32.4329
11
107.585
21
-32.3736
0
LINE
8
BLACK
6
CONTINUOUS
10
107.585
20
-32.3736
11
107.734
21
-32.2844
0
LINE
8
BLACK
6
CONTINUOUS
10
107.734
20
-32.2844
11
107.862
21
-32.1684
0
LINE
8
BLACK
6
CONTINUOUS
10
107.862
20
-32.1684
11
107.967
21
-32.03
0
LINE
8
BLACK
6
CONTINUOUS
10
107.967
20
-32.03
11
108.043
21
-31.8743
0
LINE
8
BLACK
6
CONTINUOUS
10
108.043
20
-31.8743
11
108.088
21
-31.7068
0
LINE
8
BLACK
6
CONTINUOUS
10
108.088
20
-31.7068
11
108.094
21
-31.6204
0
LINE
8
BLACK
6
CONTINUOUS
10
108.094
20
-31.6204
11
108.094
21
-31.6204
0
LINE
8
BLACK
6
CONTINUOUS
10
108.094
20
-31.6204
11
108.094
21
-31.6204
0
LINE
8
BLACK
6
CONTINUOUS
10
108.094
20
-31.6204
11
108.094
21
-31.6204
0
LINE
8
BLACK
6
CONTINUOUS
10
108.094
20
-31.6204
11
108.575
21
-24.7304
0
LINE
8
BLACK
6
CONTINUOUS
10
108.575
20
-24.7304
11
108.575
21
-24.7304
0
LINE
8
BLACK
6
CONTINUOUS
10
108.575
20
-24.7304
11
108.575
21
-24.7304
0
LINE
8
BLACK
6
CONTINUOUS
10
108.575
20
-24.7304
11
108.575
21
-24.7304
0
LINE
8
BLACK
6
CONTINUOUS
10
108.575
20
-24.7304
11
108.575
21
-24.7304
0
LINE
8
BLACK
6
CONTINUOUS
10
108.575
20
-24.7304
11
108.605
21
-24.541
0
LINE
8
BLACK
6
CONTINUOUS
10
108.605
20
-24.541
11
108.668
21
-24.3597
0
LINE
8
BLACK
6
CONTINUOUS
10
108.668
20
-24.3597
11
108.761
21
-24.192
0
LINE
8
BLACK
6
CONTINUOUS
10
108.761
20
-24.192
11
108.881
21
-24.043
0
LINE
8
BLACK
6
CONTINUOUS
10
108.881
20
-24.043
11
109.026
21
-23.9172
0
LINE
8
BLACK
6
CONTINUOUS
10
109.026
20
-23.9172
11
109.191
21
-23.8185
0
LINE
8
BLACK
6
CONTINUOUS
10
109.191
20
-23.8185
11
109.37
21
-23.7497
0
LINE
8
BLACK
6
CONTINUOUS
10
109.37
20
-23.7497
11
109.558
21
-23.7132
0
LINE
8
BLACK
6
CONTINUOUS
10
109.558
20
-23.7132
11
109.749
21
-23.7098
0
LINE
8
BLACK
6
CONTINUOUS
10
109.749
20
-23.7098
11
109.749
21
-23.7098
0
LINE
8
BLACK
6
CONTINUOUS
10
109.749
20
-23.7098
11
109.749
21
-23.7098
0
LINE
8
BLACK
6
CONTINUOUS
10
109.749
20
-23.7098
11
109.749
21
-23.7098
0
LINE
8
BLACK
6
CONTINUOUS
10
109.471
20
-23.9255
11
109.303
21
-23.9818
0
LINE
8
BLACK
6
CONTINUOUS
10
109.303
20
-23.9818
11
109.149
21
-24.0697
0
LINE
8
BLACK
6
CONTINUOUS
10
109.149
20
-24.0697
11
109.015
21
-24.186
0
LINE
8
BLACK
6
CONTINUOUS
10
109.015
20
-24.186
11
108.907
21
-24.3262
0
LINE
8
BLACK
6
CONTINUOUS
10
108.907
20
-24.3262
11
108.828
21
-24.4849
0
LINE
8
BLACK
6
CONTINUOUS
10
108.828
20
-24.4849
11
108.781
21
-24.6559
0
LINE
8
BLACK
6
CONTINUOUS
10
108.781
20
-24.6559
11
108.775
21
-24.7443
0
LINE
8
BLACK
6
CONTINUOUS
10
108.775
20
-24.7443
11
108.775
21
-24.7443
0
LINE
8
BLACK
6
CONTINUOUS
10
108.775
20
-24.7443
11
108.293
21
-31.6343
0
LINE
8
BLACK
6
CONTINUOUS
10
108.293
20
-31.6343
11
108.293
21
-31.6343
0
LINE
8
BLACK
6
CONTINUOUS
10
108.293
20
-31.6343
11
108.293
21
-31.6343
0
LINE
8
BLACK
6
CONTINUOUS
10
108.293
20
-31.6343
11
108.293
21
-31.6344
0
LINE
8
BLACK
6
CONTINUOUS
10
108.293
20
-31.6344
11
108.293
21
-31.6344
0
LINE
8
BLACK
6
CONTINUOUS
10
108.293
20
-31.6344
11
108.264
21
-31.8196
0
LINE
8
BLACK
6
CONTINUOUS
10
108.264
20
-31.8196
11
108.204
21
-31.9972
0
LINE
8
BLACK
6
CONTINUOUS
10
108.204
20
-31.9972
11
108.115
21
-32.1621
0
LINE
8
BLACK
6
CONTINUOUS
10
108.115
20
-32.1621
11
107.999
21
-32.3094
0
LINE
8
BLACK
6
CONTINUOUS
10
107.999
20
-32.3094
11
107.86
21
-32.4349
0
LINE
8
BLACK
6
CONTINUOUS
10
107.86
20
-32.4349
11
107.701
21
-32.5348
0
LINE
8
BLACK
6
CONTINUOUS
10
107.701
20
-32.5348
11
107.528
21
-32.6064
0
LINE
8
BLACK
6
CONTINUOUS
10
107.528
20
-32.6064
11
107.345
21
-32.6475
0
LINE
8
BLACK
6
CONTINUOUS
10
107.345
20
-32.6475
11
107.158
21
-32.6569
0
LINE
8
BLACK
6
CONTINUOUS
10
107.158
20
-32.6569
11
107.157
21
-32.657
0
LINE
8
BLACK
6
CONTINUOUS
10
107.157
20
-32.657
11
107.157
21
-32.657
0
LINE
8
BLACK
6
CONTINUOUS
10
107.157
20
-32.657
11
107.157
21
-32.657
0
LINE
8
BLACK
6
CONTINUOUS
10
107.157
20
-32.657
11
107.157
21
-32.657
0
LINE
8
BLACK
6
CONTINUOUS
10
107.157
20
-32.657
11
88.7523
21
-32.0142
0
LINE
8
BLACK
6
CONTINUOUS
10
88.7523
20
-32.0142
11
88.7523
21
-32.0142
0
LINE
8
BLACK
6
CONTINUOUS
10
88.7523
20
-32.0142
11
88.6637
21
-32.0112
0
LINE
8
BLACK
6
CONTINUOUS
10
88.6637
20
-32.0112
11
88.4887
21
-32.0396
0
LINE
8
BLACK
6
CONTINUOUS
10
88.4887
20
-32.0396
11
88.3227
21
-32.1017
0
LINE
8
BLACK
6
CONTINUOUS
10
88.3227
20
-32.1017
11
88.1719
21
-32.195
0
LINE
8
BLACK
6
CONTINUOUS
10
88.1719
20
-32.195
11
88.0423
21
-32.3159
0
LINE
8
BLACK
6
CONTINUOUS
10
88.0423
20
-32.3159
11
87.9387
21
-32.4598
0
LINE
8
BLACK
6
CONTINUOUS
10
87.9387
20
-32.4598
11
87.8652
21
-32.6211
0
LINE
8
BLACK
6
CONTINUOUS
10
87.8652
20
-32.6211
11
87.8245
21
-32.7937
0
LINE
8
BLACK
6
CONTINUOUS
10
87.8245
20
-32.7937
11
87.8215
21
-32.8817
0
LINE
8
BLACK
6
CONTINUOUS
10
87.8215
20
-32.8817
11
87.7294
21
-37.0862
0
LINE
8
BLACK
6
CONTINUOUS
10
87.7294
20
-37.0862
11
87.7291
21
-37.0868
0
LINE
8
BLACK
6
CONTINUOUS
10
87.7291
20
-37.0868
11
87.7124
21
-37.2777
0
LINE
8
BLACK
6
CONTINUOUS
10
87.7124
20
-37.2777
11
87.6621
21
-37.4655
0
LINE
8
BLACK
6
CONTINUOUS
10
87.6621
20
-37.4655
11
87.5799
21
-37.6417
0
LINE
8
BLACK
6
CONTINUOUS
10
87.5799
20
-37.6417
11
87.4684
21
-37.801
0
LINE
8
BLACK
6
CONTINUOUS
10
87.4684
20
-37.801
11
87.331
21
-37.9384
0
LINE
8
BLACK
6
CONTINUOUS
10
87.331
20
-37.9384
11
87.1717
21
-38.0499
0
LINE
8
BLACK
6
CONTINUOUS
10
87.1717
20
-38.0499
11
86.9955
21
-38.1321
0
LINE
8
BLACK
6
CONTINUOUS
10
86.9955
20
-38.1321
11
86.8077
21
-38.1824
0
LINE
8
BLACK
6
CONTINUOUS
10
86.8077
20
-38.1824
11
86.6166
21
-38.1991
0
LINE
8
BLACK
6
CONTINUOUS
10
86.6166
20
-38.1991
11
86.614
21
-38.2
0
LINE
8
BLACK
6
CONTINUOUS
10
86.614
20
-38.2
11
36.322
21
-38.2
0
LINE
8
BLACK
6
CONTINUOUS
10
36.322
20
-38.2
11
36.322
21
-38.2
0
LINE
8
BLACK
6
CONTINUOUS
10
36.322
20
-38.2
11
36.322
21
-38.2
0
LINE
8
BLACK
6
CONTINUOUS
10
36.322
20
-38.2
11
36.322
21
-38.2
0
LINE
8
BLACK
6
CONTINUOUS
10
36.322
20
-38.2
11
36.2474
21
-38.2
0
LINE
8
BLACK
6
CONTINUOUS
10
36.2474
20
-38.2
11
36.102
21
-38.2332
0
LINE
8
BLACK
6
CONTINUOUS
10
36.102
20
-38.2332
11
35.9676
21
-38.2979
0
LINE
8
BLACK
6
CONTINUOUS
10
35.9676
20
-38.2979
11
35.8509
21
-38.3909
0
LINE
8
BLACK
6
CONTINUOUS
10
35.8509
20
-38.3909
11
35.7579
21
-38.5076
0
LINE
8
BLACK
6
CONTINUOUS
10
35.7579
20
-38.5076
11
35.6932
21
-38.642
0
LINE
8
BLACK
6
CONTINUOUS
10
35.6932
20
-38.642
11
35.66
21
-38.7874
0
LINE
8
BLACK
6
CONTINUOUS
10
35.66
20
-38.7874
11
35.66
21
-38.862
0
LINE
8
BLACK
6
CONTINUOUS
10
35.66
20
-38.862
11
35.66
21
-92.202
0
LINE
8
BLACK
6
CONTINUOUS
10
35.66
20
-92.202
11
35.66
21
-92.202
0
LINE
8
BLACK
6
CONTINUOUS
10
35.66
20
-92.202
11
35.66
21
-92.2821
0
LINE
8
BLACK
6
CONTINUOUS
10
35.66
20
-92.2821
11
35.6878
21
-92.44
0
LINE
8
BLACK
6
CONTINUOUS
10
35.6878
20
-92.44
11
35.7427
21
-92.5906
0
LINE
8
BLACK
6
CONTINUOUS
10
35.7427
20
-92.5906
11
35.8228
21
-92.7294
0
LINE
8
BLACK
6
CONTINUOUS
10
35.8228
20
-92.7294
11
35.9258
21
-92.8522
0
LINE
8
BLACK
6
CONTINUOUS
10
35.9258
20
-92.8522
11
36.0486
21
-92.9552
0
LINE
8
BLACK
6
CONTINUOUS
10
36.0486
20
-92.9552
11
36.1874
21
-93.0354
0
LINE
8
BLACK
6
CONTINUOUS
10
36.1874
20
-93.0354
11
36.338
21
-93.0902
0
LINE
8
BLACK
6
CONTINUOUS
10
36.338
20
-93.0902
11
36.4959
21
-93.118
0
LINE
8
BLACK
6
CONTINUOUS
10
36.4959
20
-93.118
11
36.576
21
-93.118
0
LINE
8
BLACK
6
CONTINUOUS
10
36.576
20
-93.118
11
36.576
21
-93.118
0
LINE
8
BLACK
6
CONTINUOUS
10
36.576
20
-93.118
11
37.592
21
-93.118
0
LINE
8
BLACK
6
CONTINUOUS
10
37.592
20
-93.118
11
37.7602
21
-93.1346
0
LINE
8
BLACK
6
CONTINUOUS
10
37.7602
20
-93.1346
11
37.9219
21
-93.1836
0
LINE
8
BLACK
6
CONTINUOUS
10
37.9219
20
-93.1836
11
38.0709
21
-93.2633
0
LINE
8
BLACK
6
CONTINUOUS
10
38.0709
20
-93.2633
11
38.2015
21
-93.3705
0
LINE
8
BLACK
6
CONTINUOUS
10
38.2015
20
-93.3705
11
38.3087
21
-93.5011
0
LINE
8
BLACK
6
CONTINUOUS
10
38.3087
20
-93.5011
11
38.3884
21
-93.6501
0
LINE
8
BLACK
6
CONTINUOUS
10
38.3884
20
-93.6501
11
38.4374
21
-93.8118
0
LINE
8
BLACK
6
CONTINUOUS
10
38.4374
20
-93.8118
11
38.454
21
-93.98
0
LINE
8
BLACK
6
CONTINUOUS
10
38.454
20
-93.98
11
38.454
21
-93.98
0
LINE
8
BLACK
6
CONTINUOUS
10
38.454
20
-93.98
11
38.454
21
-108.712
0
LINE
8
BLACK
6
CONTINUOUS
10
38.454
20
-108.712
11
38.454
21
-108.712
0
LINE
8
BLACK
6
CONTINUOUS
10
38.454
20
-108.712
11
38.4374
21
-108.88
0
LINE
8
BLACK
6
CONTINUOUS
10
38.4374
20
-108.88
11
38.3884
21
-109.042
0
LINE
8
BLACK
6
CONTINUOUS
10
38.3884
20
-109.042
11
38.3087
21
-109.191
0
LINE
8
BLACK
6
CONTINUOUS
10
38.3087
20
-109.191
11
38.2015
21
-109.322
0
LINE
8
BLACK
6
CONTINUOUS
10
38.2015
20
-109.322
11
38.0709
21
-109.429
0
LINE
8
BLACK
6
CONTINUOUS
10
38.0709
20
-109.429
11
37.9219
21
-109.508
0
LINE
8
BLACK
6
CONTINUOUS
10
37.9219
20
-109.508
11
37.7602
21
-109.557
0
LINE
8
BLACK
6
CONTINUOUS
10
37.7602
20
-109.557
11
37.592
21
-109.574
0
LINE
8
BLACK
6
CONTINUOUS
10
37.592
20
-109.574
11
37.592
21
-109.574
0
LINE
8
BLACK
6
CONTINUOUS
10
37.592
20
-109.574
11
37.592
21
-109.574
0
LINE
8
BLACK
6
CONTINUOUS
10
37.592
20
-109.574
11
37.592
21
-109.574
0
LINE
8
BLACK
6
CONTINUOUS
10
37.592
20
-109.574
11
36.576
21
-109.574
0
LINE
8
BLACK
6
CONTINUOUS
10
36.576
20
-109.574
11
36.576
21
-109.574
0
LINE
8
BLACK
6
CONTINUOUS
10
36.576
20
-109.574
11
36.4959
21
-109.574
0
LINE
8
BLACK
6
CONTINUOUS
10
36.4959
20
-109.574
11
36.338
21
-109.602
0
LINE
8
BLACK
6
CONTINUOUS
10
36.338
20
-109.602
11
36.1874
21
-109.657
0
LINE
8
BLACK
6
CONTINUOUS
10
36.1874
20
-109.657
11
36.0486
21
-109.737
0
LINE
8
BLACK
6
CONTINUOUS
10
36.0486
20
-109.737
11
35.9258
21
-109.84
0
LINE
8
BLACK
6
CONTINUOUS
10
35.9258
20
-109.84
11
35.8228
21
-109.963
0
LINE
8
BLACK
6
CONTINUOUS
10
35.8228
20
-109.963
11
35.7427
21
-110.101
0
LINE
8
BLACK
6
CONTINUOUS
10
35.7427
20
-110.101
11
35.6878
21
-110.252
0
LINE
8
BLACK
6
CONTINUOUS
10
35.6878
20
-110.252
11
35.66
21
-110.41
0
LINE
8
BLACK
6
CONTINUOUS
10
35.66
20
-110.41
11
35.66
21
-110.49
0
LINE
8
BLACK
6
CONTINUOUS
10
35.66
20
-110.49
11
35.66
21
-119.888
0
LINE
8
BLACK
6
CONTINUOUS
10
35.66
20
-119.888
11
35.66
21
-119.888
0
LINE
8
BLACK
6
CONTINUOUS
10
35.66
20
-119.888
11
35.66
21
-119.982
0
LINE
8
BLACK
6
CONTINUOUS
10
35.66
20
-119.982
11
35.6902
21
-120.169
0
LINE
8
BLACK
6
CONTINUOUS
10
35.6902
20
-120.169
11
35.7499
21
-120.347
0
LINE
8
BLACK
6
CONTINUOUS
10
35.7499
20
-120.347
11
35.8374
21
-120.515
0
LINE
8
BLACK
6
CONTINUOUS
10
35.8374
20
-120.515
11
35.8923
21
-120.588
0
LINE
8
BLACK
6
CONTINUOUS
10
35.8923
20
-120.588
11
51.8151
21
-139.491
0
LINE
8
BLACK
6
CONTINUOUS
10
51.8151
20
-139.491
11
51.8151
21
-139.491
0
LINE
8
BLACK
6
CONTINUOUS
10
51.8151
20
-139.491
11
51.8152
21
-139.491
0
LINE
8
BLACK
6
CONTINUOUS
10
51.8152
20
-139.491
11
51.8152
21
-139.491
0
LINE
8
BLACK
6
CONTINUOUS
10
51.8152
20
-139.491
11
51.8722
21
-139.559
0
LINE
8
BLACK
6
CONTINUOUS
10
51.8722
20
-139.559
11
52.0104
21
-139.67
0
LINE
8
BLACK
6
CONTINUOUS
10
52.0104
20
-139.67
11
52.1677
21
-139.752
0
LINE
8
BLACK
6
CONTINUOUS
10
52.1677
20
-139.752
11
52.3379
21
-139.802
0
LINE
8
BLACK
6
CONTINUOUS
10
52.3379
20
-139.802
11
52.5145
21
-139.817
0
LINE
8
BLACK
6
CONTINUOUS
10
52.5145
20
-139.817
11
52.6907
21
-139.798
0
LINE
8
BLACK
6
CONTINUOUS
10
52.6907
20
-139.798
11
52.8598
21
-139.745
0
LINE
8
BLACK
6
CONTINUOUS
10
52.8598
20
-139.745
11
53.0153
21
-139.659
0
LINE
8
BLACK
6
CONTINUOUS
10
53.0153
20
-139.659
11
53.0832
21
-139.602
0
LINE
8
BLACK
6
CONTINUOUS
10
53.0832
20
-139.602
11
53.0832
21
-139.602
0
LINE
8
BLACK
6
CONTINUOUS
10
53.0832
20
-139.602
11
53.0834
21
-139.602
0
LINE
8
BLACK
6
CONTINUOUS
10
53.0834
20
-139.602
11
53.0835
21
-139.602
0
LINE
8
BLACK
6
CONTINUOUS
10
53.0835
20
-139.602
11
68.73
21
-126.577
0
LINE
8
BLACK
6
CONTINUOUS
10
68.73
20
-126.577
11
68.7501
21
-126.569
0
LINE
8
BLACK
6
CONTINUOUS
10
68.7501
20
-126.569
11
68.7683
21
-126.558
0
LINE
8
BLACK
6
CONTINUOUS
10
68.7683
20
-126.558
11
86.1072
21
-121.944
0
LINE
8
BLACK
6
CONTINUOUS
10
86.1072
20
-121.944
11
86.1289
21
-121.945
0
LINE
8
BLACK
6
CONTINUOUS
10
86.1289
20
-121.945
11
86.1506
21
-121.942
0
LINE
8
BLACK
6
CONTINUOUS
10
86.1506
20
-121.942
11
107.565
21
-125.791
0
LINE
8
BLACK
6
CONTINUOUS
10
107.565
20
-125.791
11
107.565
21
-125.791
0
LINE
8
BLACK
6
CONTINUOUS
10
107.565
20
-125.791
11
107.565
21
-125.792
0
LINE
8
BLACK
6
CONTINUOUS
10
107.565
20
-125.792
11
107.565
21
-125.792
0
LINE
8
BLACK
6
CONTINUOUS
10
107.565
20
-125.792
11
107.652
21
-125.807
0
LINE
8
BLACK
6
CONTINUOUS
10
107.652
20
-125.807
11
107.829
21
-125.803
0
LINE
8
BLACK
6
CONTINUOUS
10
107.829
20
-125.803
11
108.003
21
-125.765
0
LINE
8
BLACK
6
CONTINUOUS
10
108.003
20
-125.765
11
108.165
21
-125.693
0
LINE
8
BLACK
6
CONTINUOUS
10
108.165
20
-125.693
11
108.31
21
-125.592
0
LINE
8
BLACK
6
CONTINUOUS
10
108.31
20
-125.592
11
108.433
21
-125.463
0
LINE
8
BLACK
6
CONTINUOUS
10
108.433
20
-125.463
11
108.528
21
-125.314
0
LINE
8
BLACK
6
CONTINUOUS
10
108.528
20
-125.314
11
108.592
21
-125.149
0
LINE
8
BLACK
6
CONTINUOUS
10
108.592
20
-125.149
11
108.608
21
-125.061
0
LINE
8
BLACK
6
CONTINUOUS
10
108.608
20
-125.061
11
108.608
21
-125.061
0
LINE
8
BLACK
6
CONTINUOUS
10
108.608
20
-125.061
11
108.608
21
-125.061
0
LINE
8
BLACK
6
CONTINUOUS
10
108.608
20
-125.061
11
109.316
21
-121.116
0
LINE
8
BLACK
6
CONTINUOUS
10
109.316
20
-121.116
11
109.316
21
-121.116
0
LINE
8
BLACK
6
CONTINUOUS
10
109.316
20
-121.116
11
109.363
21
-120.937
0
LINE
8
BLACK
6
CONTINUOUS
10
109.363
20
-120.937
11
109.441
21
-120.768
0
LINE
8
BLACK
6
CONTINUOUS
10
109.441
20
-120.768
11
109.546
21
-120.615
0
LINE
8
BLACK
6
CONTINUOUS
10
109.546
20
-120.615
11
109.675
21
-120.482
0
LINE
8
BLACK
6
CONTINUOUS
10
109.675
20
-120.482
11
109.825
21
-120.373
0
LINE
8
BLACK
6
CONTINUOUS
10
109.825
20
-120.373
11
109.992
21
-120.291
0
LINE
8
BLACK
6
CONTINUOUS
10
109.992
20
-120.291
11
110.17
21
-120.239
0
LINE
8
BLACK
6
CONTINUOUS
10
110.17
20
-120.239
11
110.354
21
-120.218
0
LINE
8
BLACK
6
CONTINUOUS
10
110.354
20
-120.218
11
110.354
21
-120.218
0
LINE
8
BLACK
6
CONTINUOUS
10
110.354
20
-120.218
11
110.356
21
-120.218
0
LINE
8
BLACK
6
CONTINUOUS
10
110.356
20
-120.218
11
110.357
21
-120.218
0
LINE
8
BLACK
6
CONTINUOUS
10
110.357
20
-120.218
11
180.939
21
-120.23
0
LINE
8
BLACK
6
CONTINUOUS
10
180.939
20
-120.23
11
180.939
21
-120.23
0
LINE
8
BLACK
6
CONTINUOUS
10
180.939
20
-120.23
11
180.939
21
-120.23
0
LINE
8
BLACK
6
CONTINUOUS
10
180.939
20
-120.23
11
180.939
21
-120.23
0
LINE
8
BLACK
6
CONTINUOUS
10
180.939
20
-120.23
11
181.018
21
-120.23
0
LINE
8
BLACK
6
CONTINUOUS
10
181.018
20
-120.23
11
181.173
21
-120.203
0
LINE
8
BLACK
6
CONTINUOUS
10
181.173
20
-120.203
11
181.321
21
-120.149
0
LINE
8
BLACK
6
CONTINUOUS
10
181.321
20
-120.149
11
181.458
21
-120.07
0
LINE
8
BLACK
6
CONTINUOUS
10
181.458
20
-120.07
11
181.579
21
-119.969
0
LINE
8
BLACK
6
CONTINUOUS
10
181.579
20
-119.969
11
181.68
21
-119.849
0
LINE
8
BLACK
6
CONTINUOUS
10
181.68
20
-119.849
11
181.759
21
-119.712
0
LINE
8
BLACK
6
CONTINUOUS
10
181.759
20
-119.712
11
181.812
21
-119.564
0
LINE
8
BLACK
6
CONTINUOUS
10
181.812
20
-119.564
11
181.826
21
-119.487
0
LINE
8
BLACK
6
CONTINUOUS
10
181.826
20
-119.487
11
181.826
21
-119.487
0
LINE
8
BLACK
6
CONTINUOUS
10
181.826
20
-119.487
11
190.292
21
-71.4766
0
LINE
8
BLACK
6
CONTINUOUS
10
190.292
20
-71.4766
11
190.292
21
-71.4766
0
LINE
8
BLACK
6
CONTINUOUS
10
190.292
20
-71.4766
11
190.307
21
-71.3893
0
LINE
8
BLACK
6
CONTINUOUS
10
190.307
20
-71.3893
11
190.303
21
-71.2121
0
LINE
8
BLACK
6
CONTINUOUS
10
190.303
20
-71.2121
11
190.265
21
-71.039
0
LINE
8
BLACK
6
CONTINUOUS
10
190.265
20
-71.039
11
190.193
21
-70.8768
0
LINE
8
BLACK
6
CONTINUOUS
10
190.193
20
-70.8768
11
190.092
21
-70.7315
0
LINE
8
BLACK
6
CONTINUOUS
10
190.092
20
-70.7315
11
189.964
21
-70.6089
0
LINE
8
BLACK
6
CONTINUOUS
10
189.964
20
-70.6089
11
189.814
21
-70.5137
0
LINE
8
BLACK
6
CONTINUOUS
10
189.814
20
-70.5137
11
189.649
21
-70.4494
0
LINE
8
BLACK
6
CONTINUOUS
10
189.649
20
-70.4494
11
189.562
21
-70.434
0
LINE
8
BLACK
6
CONTINUOUS
10
189.562
20
-70.434
11
189.562
21
-70.434
0
LINE
8
BLACK
6
CONTINUOUS
10
189.562
20
-70.434
11
171.749
21
-67.2932
0
LINE
8
BLACK
6
CONTINUOUS
10
171.749
20
-67.2932
11
171.749
21
-67.2932
0
LINE
8
BLACK
6
CONTINUOUS
10
171.749
20
-67.2932
11
171.749
21
-67.2932
0
LINE
8
BLACK
6
CONTINUOUS
10
171.749
20
-67.2932
11
171.749
21
-67.2932
0
LINE
8
BLACK
6
CONTINUOUS
10
171.749
20
-67.2932
11
171.568
21
-67.245
0
LINE
8
BLACK
6
CONTINUOUS
10
171.568
20
-67.245
11
171.398
21
-67.1668
0
LINE
8
BLACK
6
CONTINUOUS
10
171.398
20
-67.1668
11
171.243
21
-67.0607
0
LINE
8
BLACK
6
CONTINUOUS
10
171.243
20
-67.0607
11
171.109
21
-66.93
0
LINE
8
BLACK
6
CONTINUOUS
10
171.109
20
-66.93
11
170.998
21
-66.7783
0
LINE
8
BLACK
6
CONTINUOUS
10
170.998
20
-66.7783
11
170.916
21
-66.6101
0
LINE
8
BLACK
6
CONTINUOUS
10
170.916
20
-66.6101
11
170.862
21
-66.4303
0
LINE
8
BLACK
6
CONTINUOUS
10
170.862
20
-66.4303
11
170.841
21
-66.2441
0
LINE
8
BLACK
6
CONTINUOUS
10
170.841
20
-66.2441
11
170.851
21
-66.0569
0
LINE
8
BLACK
6
CONTINUOUS
10
170.851
20
-66.0569
11
170.851
21
-66.0568
0
LINE
8
BLACK
6
CONTINUOUS
10
170.851
20
-66.0568
11
170.851
21
-66.0568
0
LINE
8
BLACK
6
CONTINUOUS
10
170.851
20
-66.0568
11
170.851
21
-66.0568
0
LINE
8
BLACK
6
CONTINUOUS
10
170.851
20
-66.0568
11
171.903
21
-58.5668
0
LINE
8
BLACK
6
CONTINUOUS
10
171.903
20
-58.5668
11
171.904
21
-58.5667
0
LINE
8
BLACK
6
CONTINUOUS
10
171.904
20
-58.5667
11
171.916
21
-58.479
0
LINE
8
BLACK
6
CONTINUOUS
10
171.916
20
-58.479
11
171.906
21
-58.302
0
LINE
8
BLACK
6
CONTINUOUS
10
171.906
20
-58.302
11
171.861
21
-58.1304
0
LINE
8
BLACK
6
CONTINUOUS
10
171.861
20
-58.1304
11
171.784
21
-57.9707
0
LINE
8
BLACK
6
CONTINUOUS
10
171.784
20
-57.9707
11
171.678
21
-57.8291
0
LINE
8
BLACK
6
CONTINUOUS
10
171.678
20
-57.8291
11
171.545
21
-57.7111
0
LINE
8
BLACK
6
CONTINUOUS
10
171.545
20
-57.7111
11
171.393
21
-57.6211
0
LINE
8
BLACK
6
CONTINUOUS
10
171.393
20
-57.6211
11
171.225
21
-57.5626
0
LINE
8
BLACK
6
CONTINUOUS
10
171.225
20
-57.5626
11
171.138
21
-57.5503
0
LINE
8
BLACK
6
CONTINUOUS
10
171.138
20
-57.5503
11
171.138
21
-57.5503
0
LINE
8
BLACK
6
CONTINUOUS
10
171.138
20
-57.5503
11
153.249
21
-55.0362
0
LINE
8
BLACK
6
CONTINUOUS
10
153.249
20
-55.0362
11
153.249
21
-55.0362
0
LINE
8
BLACK
6
CONTINUOUS
10
153.249
20
-55.0362
11
153.249
21
-55.0362
0
LINE
8
BLACK
6
CONTINUOUS
10
153.249
20
-55.0362
11
153.249
21
-55.0362
0
LINE
8
BLACK
6
CONTINUOUS
10
153.249
20
-55.0362
11
153.066
21
-54.9943
0
LINE
8
BLACK
6
CONTINUOUS
10
153.066
20
-54.9943
11
152.893
21
-54.9221
0
LINE
8
BLACK
6
CONTINUOUS
10
152.893
20
-54.9221
11
152.735
21
-54.8215
0
LINE
8
BLACK
6
CONTINUOUS
10
152.735
20
-54.8215
11
152.596
21
-54.6955
0
LINE
8
BLACK
6
CONTINUOUS
10
152.596
20
-54.6955
11
152.48
21
-54.5477
0
LINE
8
BLACK
6
CONTINUOUS
10
152.48
20
-54.5477
11
152.392
21
-54.3825
0
LINE
8
BLACK
6
CONTINUOUS
10
152.392
20
-54.3825
11
152.332
21
-54.2047
0
LINE
8
BLACK
6
CONTINUOUS
10
152.332
20
-54.2047
11
152.304
21
-54.0194
0
LINE
8
BLACK
6
CONTINUOUS
10
152.304
20
-54.0194
11
152.308
21
-53.832
0
LINE
8
BLACK
6
CONTINUOUS
10
152.308
20
-53.832
11
152.308
21
-53.8319
0
LINE
8
BLACK
6
CONTINUOUS
10
152.308
20
-53.8319
11
152.308
21
-53.8319
0
LINE
8
BLACK
6
CONTINUOUS
10
152.308
20
-53.8319
11
152.308
21
-53.8319
0
LINE
8
BLACK
6
CONTINUOUS
10
152.308
20
-53.8319
11
152.308
21
-53.8319
0
LINE
8
BLACK
6
CONTINUOUS
10
152.308
20
-53.8319
11
153.765
21
-39.9707
0
LINE
8
BLACK
6
CONTINUOUS
10
153.765
20
-39.9707
11
153.765
21
-39.9707
0
LINE
8
BLACK
6
CONTINUOUS
10
153.765
20
-39.9707
11
153.774
21
-39.8826
0
LINE
8
BLACK
6
CONTINUOUS
10
153.774
20
-39.8826
11
153.758
21
-39.706
0
LINE
8
BLACK
6
CONTINUOUS
10
153.758
20
-39.706
11
153.707
21
-39.536
0
LINE
8
BLACK
6
CONTINUOUS
10
153.707
20
-39.536
11
153.625
21
-39.3792
0
LINE
8
BLACK
6
CONTINUOUS
10
153.625
20
-39.3792
11
153.513
21
-39.2414
0
LINE
8
BLACK
6
CONTINUOUS
10
153.513
20
-39.2414
11
153.377
21
-39.128
0
LINE
8
BLACK
6
CONTINUOUS
10
153.377
20
-39.128
11
153.221
21
-39.0434
0
LINE
8
BLACK
6
CONTINUOUS
10
153.221
20
-39.0434
11
153.052
21
-38.9908
0
LINE
8
BLACK
6
CONTINUOUS
10
153.052
20
-38.9908
11
152.964
21
-38.9816
0
LINE
8
BLACK
6
CONTINUOUS
10
152.964
20
-38.9816
11
152.964
21
-38.9816
0
LINE
8
BLACK
6
CONTINUOUS
10
152.964
20
-38.9816
11
134.84
21
-37.0767
0
LINE
8
BLACK
6
CONTINUOUS
10
134.84
20
-37.0767
11
134.84
21
-37.0767
0
LINE
8
BLACK
6
CONTINUOUS
10
134.84
20
-37.0767
11
134.84
21
-37.0767
0
LINE
8
BLACK
6
CONTINUOUS
10
134.84
20
-37.0767
11
134.656
21
-37.0412
0
LINE
8
BLACK
6
CONTINUOUS
10
134.656
20
-37.0412
11
134.48
21
-36.975
0
LINE
8
BLACK
6
CONTINUOUS
10
134.48
20
-36.975
11
134.319
21
-36.88
0
LINE
8
BLACK
6
CONTINUOUS
10
134.319
20
-36.88
11
134.175
21
-36.759
0
LINE
8
BLACK
6
CONTINUOUS
10
134.175
20
-36.759
11
134.055
21
-36.6153
0
LINE
8
BLACK
6
CONTINUOUS
10
134.055
20
-36.6153
11
133.961
21
-36.4533
0
LINE
8
BLACK
6
CONTINUOUS
10
133.961
20
-36.4533
11
133.895
21
-36.2777
0
LINE
8
BLACK
6
CONTINUOUS
10
133.895
20
-36.2777
11
133.86
21
-36.0934
0
LINE
8
BLACK
6
CONTINUOUS
10
133.86
20
-36.0934
11
133.857
21
-35.9061
0
LINE
8
BLACK
6
CONTINUOUS
10
133.857
20
-35.9061
11
133.857
21
-35.906
0
LINE
8
BLACK
6
CONTINUOUS
10
133.857
20
-35.906
11
133.857
21
-35.906
0
LINE
8
BLACK
6
CONTINUOUS
10
133.857
20
-35.906
11
133.857
21
-35.906
0
LINE
8
BLACK
6
CONTINUOUS
10
133.857
20
-35.906
11
133.857
21
-35.906
0
LINE
8
BLACK
6
CONTINUOUS
10
133.857
20
-35.906
11
134.512
21
-26.5441
0
LINE
8
BLACK
6
CONTINUOUS
10
134.512
20
-26.5441
11
134.512
21
-26.5441
0
LINE
8
BLACK
6
CONTINUOUS
10
134.512
20
-26.5441
11
134.512
21
-26.5441
0
LINE
8
BLACK
6
CONTINUOUS
10
134.512
20
-26.5441
11
134.512
21
-26.544
0
LINE
8
BLACK
6
CONTINUOUS
10
134.512
20
-26.544
11
134.518
21
-26.4556
0
LINE
8
BLACK
6
CONTINUOUS
10
134.518
20
-26.4556
11
134.496
21
-26.2798
0
LINE
8
BLACK
6
CONTINUOUS
10
134.496
20
-26.2798
11
134.44
21
-26.1116
0
LINE
8
BLACK
6
CONTINUOUS
10
134.44
20
-26.1116
11
134.352
21
-25.9577
0
LINE
8
BLACK
6
CONTINUOUS
10
134.352
20
-25.9577
11
134.235
21
-25.8239
0
LINE
8
BLACK
6
CONTINUOUS
10
134.235
20
-25.8239
11
134.095
21
-25.7154
0
LINE
8
BLACK
6
CONTINUOUS
10
134.095
20
-25.7154
11
133.937
21
-25.6363
0
LINE
8
BLACK
6
CONTINUOUS
10
133.937
20
-25.6363
11
133.765
21
-25.5897
0
LINE
8
BLACK
6
CONTINUOUS
10
133.765
20
-25.5897
11
133.677
21
-25.5835
0
LINE
8
BLACK
6
CONTINUOUS
10
133.677
20
-25.5835
11
133.677
21
-25.5835
0
LINE
8
BLACK
6
CONTINUOUS
10
133.677
20
-25.5835
11
109.736
21
-23.9093
0
LINE
8
BLACK
6
CONTINUOUS
10
109.736
20
-23.9093
11
109.736
21
-23.9093
0
LINE
8
BLACK
6
CONTINUOUS
10
109.736
20
-23.9093
11
109.736
21
-23.9093
0
LINE
8
BLACK
6
CONTINUOUS
10
109.736
20
-23.9093
11
109.736
21
-23.9093
0
LINE
8
BLACK
6
CONTINUOUS
10
109.736
20
-23.9093
11
109.647
21
-23.9031
0
LINE
8
BLACK
6
CONTINUOUS
10
109.647
20
-23.9031
11
109.471
21
-23.9255
  0
ENDSEC
  0
EOF
