  0
SECTION
  2
HEADER
  9
$ANGBASE
  50
0.0
  9
$ANGDIR
  70
1
  9
$MEASUREMENT
  70
1
  0
ENDSEC
  0
SECTION
  2
TABLES
  0
TABLE
  2
LTYPE
  70
4
  0
LTYPE
  5
40F
  2
CONTINUOUS
  70
0
  3
Solid line
  72
65
  73
0
  40
0.0
  0
LTYPE
  5
410
  2
DASHDOT
 70
0
  3
Dash Dot ____ _ ____ _
 72
65
 73
4
 40
2.0
 49
1.25
 49
-0.25
 49
0.25
 49
-0.25
  0
LTYPE
  5
411
  2
DASHED
 70
0
  3
Dashed __ __ __ __ __
 72
65
 73
2
 40
0.75
 49
0.5
 49
-0.25
  0
LTYPE
  5
43B
  2
DOTTED
 70
0
  3
Dotted .  .  .  .
 72
65
 73
2
 40
0.2
 49
0.0
 49
-0.2
  0
ENDTAB
  0
TABLE
  2
STYLE
  70
4
  0
STYLE
  2
KICAD
  70
0
  40
0
  41
1
  42
1
  50
0
  71
0
  3
isocp.shx
  0
STYLE
  2
KICADB
  70
0
  40
0
  41
1
  42
1
  50
0
  71
0
  3
isocp.shx
  0
STYLE
  2
KICADI
  70
0
  40
0
  41
1
  42
1
  50
15
  71
0
  3
isocp.shx
  0
STYLE
  2
KICADBI
  70
0
  40
0
  41
1
  42
1
  50
15
  71
0
  3
isocp.shx
  0
ENDTAB
  0
TABLE
  2
LAYER
  70
1
  0
LAYER
  2
BLACK
  70
0
  62
7
  6
CONTINUOUS
  0
ENDTAB
  0
ENDSEC
  0
SECTION
  2
ENTITIES
0
LINE
8
BLACK
6
CONTINUOUS
10
108.23
20
-20.9854
11
108.231
21
-20.9852
0
LINE
8
BLACK
6
CONTINUOUS
10
108.231
20
-20.9852
11
135.404
21
-23.0322
0
LINE
8
BLACK
6
CONTINUOUS
10
135.404
20
-23.0322
11
135.407
21
-23.0332
0
LINE
8
BLACK
6
CONTINUOUS
10
135.407
20
-23.0332
11
135.41
21
-23.0328
0
LINE
8
BLACK
6
CONTINUOUS
10
135.41
20
-23.0328
11
135.41
21
-23.0328
0
LINE
8
BLACK
6
CONTINUOUS
10
135.41
20
-23.0328
11
135.683
21
-23.0875
0
LINE
8
BLACK
6
CONTINUOUS
10
135.683
20
-23.0875
11
135.947
21
-23.1775
0
LINE
8
BLACK
6
CONTINUOUS
10
135.947
20
-23.1775
11
136.196
21
-23.301
0
LINE
8
BLACK
6
CONTINUOUS
10
136.196
20
-23.301
11
136.428
21
-23.456
0
LINE
8
BLACK
6
CONTINUOUS
10
136.428
20
-23.456
11
136.637
21
-23.6399
0
LINE
8
BLACK
6
CONTINUOUS
10
136.637
20
-23.6399
11
136.82
21
-23.8495
0
LINE
8
BLACK
6
CONTINUOUS
10
136.82
20
-23.8495
11
136.975
21
-24.0812
0
LINE
8
BLACK
6
CONTINUOUS
10
136.975
20
-24.0812
11
137.098
21
-24.3311
0
LINE
8
BLACK
6
CONTINUOUS
10
137.098
20
-24.3311
11
137.188
21
-24.5949
0
LINE
8
BLACK
6
CONTINUOUS
10
137.188
20
-24.5949
11
137.242
21
-24.8681
0
LINE
8
BLACK
6
CONTINUOUS
10
137.242
20
-24.8681
11
137.26
21
-25.1461
0
LINE
8
BLACK
6
CONTINUOUS
10
137.26
20
-25.1461
11
137.26
21
-25.1461
0
LINE
8
BLACK
6
CONTINUOUS
10
137.26
20
-25.1461
11
137.259
21
-25.1495
0
LINE
8
BLACK
6
CONTINUOUS
10
137.259
20
-25.1495
11
137.26
21
-25.1523
0
LINE
8
BLACK
6
CONTINUOUS
10
137.26
20
-25.1523
11
136.752
21
-33.2803
0
LINE
8
BLACK
6
CONTINUOUS
10
136.752
20
-33.2803
11
136.749
21
-33.2878
0
LINE
8
BLACK
6
CONTINUOUS
10
136.749
20
-33.2878
11
136.749
21
-33.2983
0
LINE
8
BLACK
6
CONTINUOUS
10
136.749
20
-33.2983
11
136.749
21
-33.2983
0
LINE
8
BLACK
6
CONTINUOUS
10
136.749
20
-33.2983
11
136.729
21
-33.3787
0
LINE
8
BLACK
6
CONTINUOUS
10
136.729
20
-33.3787
11
136.717
21
-33.5441
0
LINE
8
BLACK
6
CONTINUOUS
10
136.717
20
-33.5441
11
136.735
21
-33.7089
0
LINE
8
BLACK
6
CONTINUOUS
10
136.735
20
-33.7089
11
136.78
21
-33.8683
0
LINE
8
BLACK
6
CONTINUOUS
10
136.78
20
-33.8683
11
136.853
21
-34.0173
0
LINE
8
BLACK
6
CONTINUOUS
10
136.853
20
-34.0173
11
136.95
21
-34.1515
0
LINE
8
BLACK
6
CONTINUOUS
10
136.95
20
-34.1515
11
137.069
21
-34.2667
0
LINE
8
BLACK
6
CONTINUOUS
10
137.069
20
-34.2667
11
137.207
21
-34.3594
0
LINE
8
BLACK
6
CONTINUOUS
10
137.207
20
-34.3594
11
137.358
21
-34.4269
0
LINE
8
BLACK
6
CONTINUOUS
10
137.358
20
-34.4269
11
137.431
21
-34.4453
0
LINE
8
BLACK
6
CONTINUOUS
10
137.431
20
-34.4453
11
155.239
21
-36.2307
0
LINE
8
BLACK
6
CONTINUOUS
10
155.239
20
-36.2307
11
155.245
21
-36.2331
0
LINE
8
BLACK
6
CONTINUOUS
10
155.245
20
-36.2331
11
155.252
21
-36.2329
0
LINE
8
BLACK
6
CONTINUOUS
10
155.252
20
-36.2329
11
155.532
21
-36.3175
0
LINE
8
BLACK
6
CONTINUOUS
10
155.532
20
-36.3175
11
155.799
21
-36.4348
0
LINE
8
BLACK
6
CONTINUOUS
10
155.799
20
-36.4348
11
156.051
21
-36.5832
0
LINE
8
BLACK
6
CONTINUOUS
10
156.051
20
-36.5832
11
156.283
21
-36.7606
0
LINE
8
BLACK
6
CONTINUOUS
10
156.283
20
-36.7606
11
156.492
21
-36.9644
0
LINE
8
BLACK
6
CONTINUOUS
10
156.492
20
-36.9644
11
156.675
21
-37.1916
0
LINE
8
BLACK
6
CONTINUOUS
10
156.675
20
-37.1916
11
156.83
21
-37.4392
0
LINE
8
BLACK
6
CONTINUOUS
10
156.83
20
-37.4392
11
156.954
21
-37.7034
0
LINE
8
BLACK
6
CONTINUOUS
10
156.954
20
-37.7034
11
157.046
21
-37.9806
0
LINE
8
BLACK
6
CONTINUOUS
10
157.046
20
-37.9806
11
157.104
21
-38.2667
0
LINE
8
BLACK
6
CONTINUOUS
10
157.104
20
-38.2667
11
157.127
21
-38.5577
0
LINE
8
BLACK
6
CONTINUOUS
10
157.127
20
-38.5577
11
157.116
21
-38.8495
0
LINE
8
BLACK
6
CONTINUOUS
10
157.116
20
-38.8495
11
157.071
21
-39.1267
0
LINE
8
BLACK
6
CONTINUOUS
10
157.071
20
-39.1267
11
157.071
21
-39.1268
0
LINE
8
BLACK
6
CONTINUOUS
10
157.071
20
-39.1268
11
155.72
21
-51.658
0
LINE
8
BLACK
6
CONTINUOUS
10
155.72
20
-51.658
11
155.718
21
-51.6618
0
LINE
8
BLACK
6
CONTINUOUS
10
155.718
20
-51.6618
11
155.718
21
-51.6669
0
LINE
8
BLACK
6
CONTINUOUS
10
155.718
20
-51.6669
11
155.718
21
-51.6669
0
LINE
8
BLACK
6
CONTINUOUS
10
155.718
20
-51.6669
11
155.703
21
-51.7442
0
LINE
8
BLACK
6
CONTINUOUS
10
155.703
20
-51.7442
11
155.704
21
-51.902
0
LINE
8
BLACK
6
CONTINUOUS
10
155.704
20
-51.902
11
155.738
21
-52.0561
0
LINE
8
BLACK
6
CONTINUOUS
10
155.738
20
-52.0561
11
155.803
21
-52.2
0
LINE
8
BLACK
6
CONTINUOUS
10
155.803
20
-52.2
11
155.895
21
-52.3275
0
LINE
8
BLACK
6
CONTINUOUS
10
155.895
20
-52.3275
11
156.012
21
-52.4333
0
LINE
8
BLACK
6
CONTINUOUS
10
156.012
20
-52.4333
11
156.149
21
-52.5128
0
LINE
8
BLACK
6
CONTINUOUS
10
156.149
20
-52.5128
11
156.215
21
-52.5349
0
LINE
8
BLACK
6
CONTINUOUS
10
156.215
20
-52.5349
11
173.274
21
-55.0755
0
LINE
8
BLACK
6
CONTINUOUS
10
173.274
20
-55.0755
11
173.278
21
-55.0779
0
LINE
8
BLACK
6
CONTINUOUS
10
173.278
20
-55.0779
11
173.285
21
-55.0779
0
LINE
8
BLACK
6
CONTINUOUS
10
173.285
20
-55.0779
11
173.285
21
-55.0779
0
LINE
8
BLACK
6
CONTINUOUS
10
173.285
20
-55.0779
11
173.549
21
-55.1686
0
LINE
8
BLACK
6
CONTINUOUS
10
173.549
20
-55.1686
11
173.799
21
-55.2926
0
LINE
8
BLACK
6
CONTINUOUS
10
173.799
20
-55.2926
11
174.03
21
-55.448
0
LINE
8
BLACK
6
CONTINUOUS
10
174.03
20
-55.448
11
174.239
21
-55.632
0
LINE
8
BLACK
6
CONTINUOUS
10
174.239
20
-55.632
11
174.423
21
-55.8416
0
LINE
8
BLACK
6
CONTINUOUS
10
174.423
20
-55.8416
11
174.578
21
-56.0733
0
LINE
8
BLACK
6
CONTINUOUS
10
174.578
20
-56.0733
11
174.702
21
-56.3231
0
LINE
8
BLACK
6
CONTINUOUS
10
174.702
20
-56.3231
11
174.793
21
-56.5868
0
LINE
8
BLACK
6
CONTINUOUS
10
174.793
20
-56.5868
11
174.848
21
-56.86
0
LINE
8
BLACK
6
CONTINUOUS
10
174.848
20
-56.86
11
174.868
21
-57.1382
0
LINE
8
BLACK
6
CONTINUOUS
10
174.868
20
-57.1382
11
174.851
21
-57.4153
0
LINE
8
BLACK
6
CONTINUOUS
10
174.851
20
-57.4153
11
174.851
21
-57.4155
0
LINE
8
BLACK
6
CONTINUOUS
10
174.851
20
-57.4155
11
174.851
21
-57.4164
0
LINE
8
BLACK
6
CONTINUOUS
10
174.851
20
-57.4164
11
174.851
21
-57.4165
0
LINE
8
BLACK
6
CONTINUOUS
10
174.851
20
-57.4165
11
174.851
21
-57.4165
0
LINE
8
BLACK
6
CONTINUOUS
10
174.851
20
-57.4165
11
174.09
21
-64.0138
0
LINE
8
BLACK
6
CONTINUOUS
10
174.09
20
-64.0138
11
174.09
21
-64.0951
0
LINE
8
BLACK
6
CONTINUOUS
10
174.09
20
-64.0951
11
174.123
21
-64.266
0
LINE
8
BLACK
6
CONTINUOUS
10
174.123
20
-64.266
11
174.187
21
-64.4277
0
LINE
8
BLACK
6
CONTINUOUS
10
174.187
20
-64.4277
11
174.281
21
-64.5743
0
LINE
8
BLACK
6
CONTINUOUS
10
174.281
20
-64.5743
11
174.4
21
-64.7008
0
LINE
8
BLACK
6
CONTINUOUS
10
174.4
20
-64.7008
11
174.542
21
-64.8024
0
LINE
8
BLACK
6
CONTINUOUS
10
174.542
20
-64.8024
11
174.699
21
-64.8757
0
LINE
8
BLACK
6
CONTINUOUS
10
174.699
20
-64.8757
11
174.781
21
-64.8959
0
LINE
8
BLACK
6
CONTINUOUS
10
174.781
20
-64.8959
11
191.534
21
-67.9737
0
LINE
8
BLACK
6
CONTINUOUS
10
191.534
20
-67.9737
11
191.537
21
-67.9751
0
LINE
8
BLACK
6
CONTINUOUS
10
191.537
20
-67.9751
11
191.54
21
-67.975
0
LINE
8
BLACK
6
CONTINUOUS
10
191.54
20
-67.975
11
191.54
21
-67.975
0
LINE
8
BLACK
6
CONTINUOUS
10
191.54
20
-67.975
11
191.793
21
-68.0547
0
LINE
8
BLACK
6
CONTINUOUS
10
191.793
20
-68.0547
11
192.034
21
-68.1643
0
LINE
8
BLACK
6
CONTINUOUS
10
192.034
20
-68.1643
11
192.261
21
-68.3021
0
LINE
8
BLACK
6
CONTINUOUS
10
192.261
20
-68.3021
11
192.469
21
-68.4663
0
LINE
8
BLACK
6
CONTINUOUS
10
192.469
20
-68.4663
11
192.655
21
-68.6543
0
LINE
8
BLACK
6
CONTINUOUS
10
192.655
20
-68.6543
11
192.818
21
-68.8634
0
LINE
8
BLACK
6
CONTINUOUS
10
192.818
20
-68.8634
11
192.955
21
-69.0907
0
LINE
8
BLACK
6
CONTINUOUS
10
192.955
20
-69.0907
11
193.063
21
-69.3327
0
LINE
8
BLACK
6
CONTINUOUS
10
193.063
20
-69.3327
11
193.141
21
-69.5859
0
LINE
8
BLACK
6
CONTINUOUS
10
193.141
20
-69.5859
11
193.187
21
-69.8468
0
LINE
8
BLACK
6
CONTINUOUS
10
193.187
20
-69.8468
11
193.203
21
-70.1113
0
LINE
8
BLACK
6
CONTINUOUS
10
193.203
20
-70.1113
11
193.186
21
-70.3758
0
LINE
8
BLACK
6
CONTINUOUS
10
193.186
20
-70.3758
11
193.138
21
-70.6295
0
LINE
8
BLACK
6
CONTINUOUS
10
193.138
20
-70.6295
11
193.138
21
-70.63
0
LINE
8
BLACK
6
CONTINUOUS
10
193.138
20
-70.63
11
185.264
21
-113.805
0
LINE
8
BLACK
6
CONTINUOUS
10
185.264
20
-113.805
11
185.264
21
-113.805
0
LINE
8
BLACK
6
CONTINUOUS
10
185.264
20
-113.805
11
185.197
21
-114.134
0
LINE
8
BLACK
6
CONTINUOUS
10
185.197
20
-114.134
11
185.098
21
-114.458
0
LINE
8
BLACK
6
CONTINUOUS
10
185.098
20
-114.458
11
184.966
21
-114.771
0
LINE
8
BLACK
6
CONTINUOUS
10
184.966
20
-114.771
11
184.805
21
-115.069
0
LINE
8
BLACK
6
CONTINUOUS
10
184.805
20
-115.069
11
184.615
21
-115.35
0
LINE
8
BLACK
6
CONTINUOUS
10
184.615
20
-115.35
11
184.398
21
-115.611
0
LINE
8
BLACK
6
CONTINUOUS
10
184.398
20
-115.611
11
184.157
21
-115.849
0
LINE
8
BLACK
6
CONTINUOUS
10
184.157
20
-115.849
11
183.893
21
-116.062
0
LINE
8
BLACK
6
CONTINUOUS
10
183.893
20
-116.062
11
183.61
21
-116.248
0
LINE
8
BLACK
6
CONTINUOUS
10
183.61
20
-116.248
11
183.31
21
-116.406
0
LINE
8
BLACK
6
CONTINUOUS
10
183.31
20
-116.406
11
182.995
21
-116.533
0
LINE
8
BLACK
6
CONTINUOUS
10
182.995
20
-116.533
11
182.67
21
-116.628
0
LINE
8
BLACK
6
CONTINUOUS
10
182.67
20
-116.628
11
182.339
21
-116.691
0
LINE
8
BLACK
6
CONTINUOUS
10
182.339
20
-116.691
11
182.339
21
-116.691
0
LINE
8
BLACK
6
CONTINUOUS
10
182.339
20
-116.691
11
182.338
21
-116.691
0
LINE
8
BLACK
6
CONTINUOUS
10
182.338
20
-116.691
11
182.337
21
-116.692
0
LINE
8
BLACK
6
CONTINUOUS
10
182.337
20
-116.692
11
182.337
21
-116.692
0
LINE
8
BLACK
6
CONTINUOUS
10
182.337
20
-116.692
11
111.296
21
-128.081
0
LINE
8
BLACK
6
CONTINUOUS
10
111.296
20
-128.081
11
111.294
21
-128.081
0
LINE
8
BLACK
6
CONTINUOUS
10
111.294
20
-128.081
11
111.293
21
-128.082
0
LINE
8
BLACK
6
CONTINUOUS
10
111.293
20
-128.082
11
110.567
21
-128.159
0
LINE
8
BLACK
6
CONTINUOUS
10
110.567
20
-128.159
11
109.838
21
-128.208
0
LINE
8
BLACK
6
CONTINUOUS
10
109.838
20
-128.208
11
109.109
21
-128.228
0
LINE
8
BLACK
6
CONTINUOUS
10
109.109
20
-128.228
11
108.379
21
-128.219
0
LINE
8
BLACK
6
CONTINUOUS
10
108.379
20
-128.219
11
107.65
21
-128.182
0
LINE
8
BLACK
6
CONTINUOUS
10
107.65
20
-128.182
11
106.923
21
-128.115
0
LINE
8
BLACK
6
CONTINUOUS
10
106.923
20
-128.115
11
106.923
21
-128.115
0
LINE
8
BLACK
6
CONTINUOUS
10
106.923
20
-128.115
11
106.919
21
-128.114
0
LINE
8
BLACK
6
CONTINUOUS
10
106.919
20
-128.114
11
106.916
21
-128.114
0
LINE
8
BLACK
6
CONTINUOUS
10
106.916
20
-128.114
11
94.7246
21
-125.829
0
LINE
8
BLACK
6
CONTINUOUS
10
94.7246
20
-125.829
11
94.1181
21
-125.727
0
LINE
8
BLACK
6
CONTINUOUS
10
94.1181
20
-125.727
11
92.8973
21
-125.562
0
LINE
8
BLACK
6
CONTINUOUS
10
92.8973
20
-125.562
11
91.6721
21
-125.435
0
LINE
8
BLACK
6
CONTINUOUS
10
91.6721
20
-125.435
11
90.4436
21
-125.345
0
LINE
8
BLACK
6
CONTINUOUS
10
90.4436
20
-125.345
11
89.2128
21
-125.293
0
LINE
8
BLACK
6
CONTINUOUS
10
89.2128
20
-125.293
11
87.9811
21
-125.279
0
LINE
8
BLACK
6
CONTINUOUS
10
87.9811
20
-125.279
11
86.7495
21
-125.303
0
LINE
8
BLACK
6
CONTINUOUS
10
86.7495
20
-125.303
11
85.5192
21
-125.364
0
LINE
8
BLACK
6
CONTINUOUS
10
85.5192
20
-125.364
11
84.2913
21
-125.464
0
LINE
8
BLACK
6
CONTINUOUS
10
84.2913
20
-125.464
11
83.0672
21
-125.601
0
LINE
8
BLACK
6
CONTINUOUS
10
83.0672
20
-125.601
11
81.8478
21
-125.775
0
LINE
8
BLACK
6
CONTINUOUS
10
81.8478
20
-125.775
11
80.6343
21
-125.988
0
LINE
8
BLACK
6
CONTINUOUS
10
80.6343
20
-125.988
11
79.4279
21
-126.237
0
LINE
8
BLACK
6
CONTINUOUS
10
79.4279
20
-126.237
11
78.2298
21
-126.523
0
LINE
8
BLACK
6
CONTINUOUS
10
78.2298
20
-126.523
11
77.041
21
-126.846
0
LINE
8
BLACK
6
CONTINUOUS
10
77.041
20
-126.846
11
75.8627
21
-127.205
0
LINE
8
BLACK
6
CONTINUOUS
10
75.8627
20
-127.205
11
74.6961
21
-127.6
0
LINE
8
BLACK
6
CONTINUOUS
10
74.6961
20
-127.6
11
73.5421
21
-128.031
0
LINE
8
BLACK
6
CONTINUOUS
10
73.5421
20
-128.031
11
72.4019
21
-128.498
0
LINE
8
BLACK
6
CONTINUOUS
10
72.4019
20
-128.498
11
71.2765
21
-128.999
0
LINE
8
BLACK
6
CONTINUOUS
10
71.2765
20
-128.999
11
70.1671
21
-129.534
0
LINE
8
BLACK
6
CONTINUOUS
10
70.1671
20
-129.534
11
69.0747
21
-130.103
0
LINE
8
BLACK
6
CONTINUOUS
10
69.0747
20
-130.103
11
68.0003
21
-130.706
0
LINE
8
BLACK
6
CONTINUOUS
10
68.0003
20
-130.706
11
66.9449
21
-131.341
0
LINE
8
BLACK
6
CONTINUOUS
10
66.9449
20
-131.341
11
65.9096
21
-132.009
0
LINE
8
BLACK
6
CONTINUOUS
10
65.9096
20
-132.009
11
64.8952
21
-132.707
0
LINE
8
BLACK
6
CONTINUOUS
10
64.8952
20
-132.707
11
63.9028
21
-133.437
0
LINE
8
BLACK
6
CONTINUOUS
10
63.9028
20
-133.437
11
62.9333
21
-134.197
0
LINE
8
BLACK
6
CONTINUOUS
10
62.9333
20
-134.197
11
62.4611
21
-134.591
0
LINE
8
BLACK
6
CONTINUOUS
10
62.4611
20
-134.591
11
54.6753
21
-141.3
0
LINE
8
BLACK
6
CONTINUOUS
10
54.6753
20
-141.3
11
54.6737
21
-141.3
0
LINE
8
BLACK
6
CONTINUOUS
10
54.6737
20
-141.3
11
54.6725
21
-141.302
0
LINE
8
BLACK
6
CONTINUOUS
10
54.6725
20
-141.302
11
54.6725
21
-141.302
0
LINE
8
BLACK
6
CONTINUOUS
10
54.6725
20
-141.302
11
54.3874
21
-141.507
0
LINE
8
BLACK
6
CONTINUOUS
10
54.3874
20
-141.507
11
54.0824
21
-141.68
0
LINE
8
BLACK
6
CONTINUOUS
10
54.0824
20
-141.68
11
53.761
21
-141.821
0
LINE
8
BLACK
6
CONTINUOUS
10
53.761
20
-141.821
11
53.4266
21
-141.928
0
LINE
8
BLACK
6
CONTINUOUS
10
53.4266
20
-141.928
11
53.0829
21
-141.999
0
LINE
8
BLACK
6
CONTINUOUS
10
53.0829
20
-141.999
11
52.7336
21
-142.033
0
LINE
8
BLACK
6
CONTINUOUS
10
52.7336
20
-142.033
11
52.3827
21
-142.031
0
LINE
8
BLACK
6
CONTINUOUS
10
52.3827
20
-142.031
11
52.0339
21
-141.992
0
LINE
8
BLACK
6
CONTINUOUS
10
52.0339
20
-141.992
11
51.6911
21
-141.917
0
LINE
8
BLACK
6
CONTINUOUS
10
51.6911
20
-141.917
11
51.358
21
-141.807
0
LINE
8
BLACK
6
CONTINUOUS
10
51.358
20
-141.807
11
51.0382
21
-141.662
0
LINE
8
BLACK
6
CONTINUOUS
10
51.0382
20
-141.662
11
50.7353
21
-141.485
0
LINE
8
BLACK
6
CONTINUOUS
10
50.7353
20
-141.485
11
50.4526
21
-141.277
0
LINE
8
BLACK
6
CONTINUOUS
10
50.4526
20
-141.277
11
50.1932
21
-141.041
0
LINE
8
BLACK
6
CONTINUOUS
10
50.1932
20
-141.041
11
49.9623
21
-140.781
0
LINE
8
BLACK
6
CONTINUOUS
10
49.9623
20
-140.781
11
49.9619
21
-140.781
0
LINE
8
BLACK
6
CONTINUOUS
10
49.9619
20
-140.781
11
37.1214
21
-125.704
0
LINE
8
BLACK
6
CONTINUOUS
10
37.1214
20
-125.704
11
37.1209
21
-125.703
0
LINE
8
BLACK
6
CONTINUOUS
10
37.1209
20
-125.703
11
37.1194
21
-125.702
0
LINE
8
BLACK
6
CONTINUOUS
10
37.1194
20
-125.702
11
37.1194
21
-125.702
0
LINE
8
BLACK
6
CONTINUOUS
10
37.1194
20
-125.702
11
36.992
21
-125.517
0
LINE
8
BLACK
6
CONTINUOUS
10
36.992
20
-125.517
11
36.8921
21
-125.316
0
LINE
8
BLACK
6
CONTINUOUS
10
36.8921
20
-125.316
11
36.8216
21
-125.103
0
LINE
8
BLACK
6
CONTINUOUS
10
36.8216
20
-125.103
11
36.7819
21
-124.882
0
LINE
8
BLACK
6
CONTINUOUS
10
36.7819
20
-124.882
11
36.774
21
-124.658
0
LINE
8
BLACK
6
CONTINUOUS
10
36.774
20
-124.658
11
36.7979
21
-124.434
0
LINE
8
BLACK
6
CONTINUOUS
10
36.7979
20
-124.434
11
36.8532
21
-124.217
0
LINE
8
BLACK
6
CONTINUOUS
10
36.8532
20
-124.217
11
36.9388
21
-124.009
0
LINE
8
BLACK
6
CONTINUOUS
10
36.9388
20
-124.009
11
37.0528
21
-123.816
0
LINE
8
BLACK
6
CONTINUOUS
10
37.0528
20
-123.816
11
37.1931
21
-123.641
0
LINE
8
BLACK
6
CONTINUOUS
10
37.1931
20
-123.641
11
37.3568
21
-123.487
0
LINE
8
BLACK
6
CONTINUOUS
10
37.3568
20
-123.487
11
37.5289
21
-123.366
0
LINE
8
BLACK
6
CONTINUOUS
10
37.5289
20
-123.366
11
43.0176
21
-118.815
0
LINE
8
BLACK
6
CONTINUOUS
10
43.0176
20
-118.815
11
43.007
21
-118.804
0
LINE
8
BLACK
6
CONTINUOUS
10
43.007
20
-118.804
11
42.8545
21
-118.593
0
LINE
8
BLACK
6
CONTINUOUS
10
42.8545
20
-118.593
11
42.7327
21
-118.362
0
LINE
8
BLACK
6
CONTINUOUS
10
42.7327
20
-118.362
11
42.644
21
-118.117
0
LINE
8
BLACK
6
CONTINUOUS
10
42.644
20
-118.117
11
42.5901
21
-117.862
0
LINE
8
BLACK
6
CONTINUOUS
10
42.5901
20
-117.862
11
42.5721
21
-117.602
0
LINE
8
BLACK
6
CONTINUOUS
10
42.5721
20
-117.602
11
42.572
21
-117.602
0
LINE
8
BLACK
6
CONTINUOUS
10
42.572
20
-117.602
11
42.572
21
-110.998
0
LINE
8
BLACK
6
CONTINUOUS
10
42.572
20
-110.998
11
42.572
21
-110.998
0
LINE
8
BLACK
6
CONTINUOUS
10
42.572
20
-110.998
11
42.572
21
-110.923
0
LINE
8
BLACK
6
CONTINUOUS
10
42.572
20
-110.923
11
42.5388
21
-110.778
0
LINE
8
BLACK
6
CONTINUOUS
10
42.5388
20
-110.778
11
42.4741
21
-110.644
0
LINE
8
BLACK
6
CONTINUOUS
10
42.4741
20
-110.644
11
42.3811
21
-110.527
0
LINE
8
BLACK
6
CONTINUOUS
10
42.3811
20
-110.527
11
42.2645
21
-110.434
0
LINE
8
BLACK
6
CONTINUOUS
10
42.2645
20
-110.434
11
42.1301
21
-110.369
0
LINE
8
BLACK
6
CONTINUOUS
10
42.1301
20
-110.369
11
41.9846
21
-110.336
0
LINE
8
BLACK
6
CONTINUOUS
10
41.9846
20
-110.336
11
41.91
21
-110.336
0
LINE
8
BLACK
6
CONTINUOUS
10
41.91
20
-110.336
11
33.7821
21
-110.336
0
LINE
8
BLACK
6
CONTINUOUS
10
33.7821
20
-110.336
11
33.782
21
-110.336
0
LINE
8
BLACK
6
CONTINUOUS
10
33.782
20
-110.336
11
33.782
21
-110.336
0
LINE
8
BLACK
6
CONTINUOUS
10
33.782
20
-110.336
11
33.6139
21
-110.32
0
LINE
8
BLACK
6
CONTINUOUS
10
33.6139
20
-110.32
11
33.4522
21
-110.27
0
LINE
8
BLACK
6
CONTINUOUS
10
33.4522
20
-110.27
11
33.3031
21
-110.191
0
LINE
8
BLACK
6
CONTINUOUS
10
33.3031
20
-110.191
11
33.1725
21
-110.084
0
LINE
8
BLACK
6
CONTINUOUS
10
33.1725
20
-110.084
11
33.0653
21
-109.953
0
LINE
8
BLACK
6
CONTINUOUS
10
33.0653
20
-109.953
11
32.9856
21
-109.804
0
LINE
8
BLACK
6
CONTINUOUS
10
32.9856
20
-109.804
11
32.9366
21
-109.642
0
LINE
8
BLACK
6
CONTINUOUS
10
32.9366
20
-109.642
11
32.92
21
-109.474
0
LINE
8
BLACK
6
CONTINUOUS
10
32.92
20
-109.474
11
32.92
21
-109.474
0
LINE
8
BLACK
6
CONTINUOUS
10
32.92
20
-109.474
11
32.92
21
-38.8621
0
LINE
8
BLACK
6
CONTINUOUS
10
32.92
20
-38.8621
11
32.92
21
-38.8621
0
LINE
8
BLACK
6
CONTINUOUS
10
32.92
20
-38.8621
11
32.92
21
-38.862
0
LINE
8
BLACK
6
CONTINUOUS
10
32.92
20
-38.862
11
32.9366
21
-38.6939
0
LINE
8
BLACK
6
CONTINUOUS
10
32.9366
20
-38.6939
11
32.9857
21
-38.5322
0
LINE
8
BLACK
6
CONTINUOUS
10
32.9857
20
-38.5322
11
33.0654
21
-38.3832
0
LINE
8
BLACK
6
CONTINUOUS
10
33.0654
20
-38.3832
11
33.1726
21
-38.2526
0
LINE
8
BLACK
6
CONTINUOUS
10
33.1726
20
-38.2526
11
33.3032
21
-38.1454
0
LINE
8
BLACK
6
CONTINUOUS
10
33.3032
20
-38.1454
11
33.4522
21
-38.0658
0
LINE
8
BLACK
6
CONTINUOUS
10
33.4522
20
-38.0658
11
33.6139
21
-38.0167
0
LINE
8
BLACK
6
CONTINUOUS
10
33.6139
20
-38.0167
11
33.7817
21
-38.0002
0
LINE
8
BLACK
6
CONTINUOUS
10
33.7817
20
-38.0002
11
33.782
21
-38.0001
0
LINE
8
BLACK
6
CONTINUOUS
10
33.782
20
-38.0001
11
33.782
21
-38.0001
0
LINE
8
BLACK
6
CONTINUOUS
10
33.782
20
-38.0001
11
33.782
21
-38.0001
0
LINE
8
BLACK
6
CONTINUOUS
10
33.782
20
-38.0001
11
33.782
21
-38.0001
0
LINE
8
BLACK
6
CONTINUOUS
10
33.782
20
-38.0001
11
36.322
21
-38.0001
0
LINE
8
BLACK
6
CONTINUOUS
10
36.322
20
-38.0001
11
36.3221
21
-38.0001
0
LINE
8
BLACK
6
CONTINUOUS
10
36.3221
20
-38.0001
11
36.6003
21
-38.0183
0
LINE
8
BLACK
6
CONTINUOUS
10
36.6003
20
-38.0183
11
36.8738
21
-38.0727
0
LINE
8
BLACK
6
CONTINUOUS
10
36.8738
20
-38.0727
11
37.1379
21
-38.1624
0
LINE
8
BLACK
6
CONTINUOUS
10
37.1379
20
-38.1624
11
37.388
21
-38.2857
0
LINE
8
BLACK
6
CONTINUOUS
10
37.388
20
-38.2857
11
37.6199
21
-38.4406
0
LINE
8
BLACK
6
CONTINUOUS
10
37.6199
20
-38.4406
11
37.8296
21
-38.6245
0
LINE
8
BLACK
6
CONTINUOUS
10
37.8296
20
-38.6245
11
38.0135
21
-38.8342
0
LINE
8
BLACK
6
CONTINUOUS
10
38.0135
20
-38.8342
11
38.1684
21
-39.0661
0
LINE
8
BLACK
6
CONTINUOUS
10
38.1684
20
-39.0661
11
38.2917
21
-39.3162
0
LINE
8
BLACK
6
CONTINUOUS
10
38.2917
20
-39.3162
11
38.3814
21
-39.5803
0
LINE
8
BLACK
6
CONTINUOUS
10
38.3814
20
-39.5803
11
38.4358
21
-39.8538
0
LINE
8
BLACK
6
CONTINUOUS
10
38.4358
20
-39.8538
11
38.454
21
-40.132
0
LINE
8
BLACK
6
CONTINUOUS
10
38.454
20
-40.132
11
38.454
21
-40.1321
0
LINE
8
BLACK
6
CONTINUOUS
10
38.454
20
-40.1321
11
38.454
21
-40.1321
0
LINE
8
BLACK
6
CONTINUOUS
10
38.454
20
-40.1321
11
38.454
21
-40.1321
0
LINE
8
BLACK
6
CONTINUOUS
10
38.454
20
-40.1321
11
38.454
21
-40.1321
0
LINE
8
BLACK
6
CONTINUOUS
10
38.454
20
-40.1321
11
38.454
21
-47.2441
0
LINE
8
BLACK
6
CONTINUOUS
10
38.454
20
-47.2441
11
38.454
21
-47.2441
0
LINE
8
BLACK
6
CONTINUOUS
10
38.454
20
-47.2441
11
38.454
21
-47.2441
0
LINE
8
BLACK
6
CONTINUOUS
10
38.454
20
-47.2441
11
38.454
21
-47.2441
0
LINE
8
BLACK
6
CONTINUOUS
10
38.454
20
-47.2441
11
38.454
21
-47.2441
0
LINE
8
BLACK
6
CONTINUOUS
10
38.454
20
-47.2441
11
38.454
21
-47.2978
0
LINE
8
BLACK
6
CONTINUOUS
10
38.454
20
-47.2978
11
38.4818
21
-47.4016
0
LINE
8
BLACK
6
CONTINUOUS
10
38.4818
20
-47.4016
11
38.5355
21
-47.4946
0
LINE
8
BLACK
6
CONTINUOUS
10
38.5355
20
-47.4946
11
38.6115
21
-47.5706
0
LINE
8
BLACK
6
CONTINUOUS
10
38.6115
20
-47.5706
11
38.7046
21
-47.6243
0
LINE
8
BLACK
6
CONTINUOUS
10
38.7046
20
-47.6243
11
38.8083
21
-47.6521
0
LINE
8
BLACK
6
CONTINUOUS
10
38.8083
20
-47.6521
11
38.862
21
-47.6521
0
LINE
8
BLACK
6
CONTINUOUS
10
38.862
20
-47.6521
11
38.862
21
-47.6521
0
LINE
8
BLACK
6
CONTINUOUS
10
38.862
20
-47.6521
11
38.862
21
-47.6521
0
LINE
8
BLACK
6
CONTINUOUS
10
38.862
20
-47.6521
11
49.022
21
-47.6521
0
LINE
8
BLACK
6
CONTINUOUS
10
49.022
20
-47.6521
11
49.0221
21
-47.6521
0
LINE
8
BLACK
6
CONTINUOUS
10
49.0221
20
-47.6521
11
49.0221
21
-47.6521
0
LINE
8
BLACK
6
CONTINUOUS
10
49.0221
20
-47.6521
11
49.0221
21
-47.6521
0
LINE
8
BLACK
6
CONTINUOUS
10
49.0221
20
-47.6521
11
49.0223
21
-47.6521
0
LINE
8
BLACK
6
CONTINUOUS
10
49.0223
20
-47.6521
11
49.0758
21
-47.6522
0
LINE
8
BLACK
6
CONTINUOUS
10
49.0758
20
-47.6522
11
49.1796
21
-47.6243
0
LINE
8
BLACK
6
CONTINUOUS
10
49.1796
20
-47.6243
11
49.2726
21
-47.5706
0
LINE
8
BLACK
6
CONTINUOUS
10
49.2726
20
-47.5706
11
49.3486
21
-47.4946
0
LINE
8
BLACK
6
CONTINUOUS
10
49.3486
20
-47.4946
11
49.4023
21
-47.4016
0
LINE
8
BLACK
6
CONTINUOUS
10
49.4023
20
-47.4016
11
49.4301
21
-47.2978
0
LINE
8
BLACK
6
CONTINUOUS
10
49.4301
20
-47.2978
11
49.43
21
-47.2441
0
LINE
8
BLACK
6
CONTINUOUS
10
49.43
20
-47.2441
11
49.4301
21
-47.2441
0
LINE
8
BLACK
6
CONTINUOUS
10
49.4301
20
-47.2441
11
49.43
21
-47.2441
0
LINE
8
BLACK
6
CONTINUOUS
10
49.43
20
-47.2441
11
49.43
21
-40.1321
0
LINE
8
BLACK
6
CONTINUOUS
10
49.43
20
-40.1321
11
49.43
21
-40.1321
0
LINE
8
BLACK
6
CONTINUOUS
10
49.43
20
-40.1321
11
49.43
21
-40.1321
0
LINE
8
BLACK
6
CONTINUOUS
10
49.43
20
-40.1321
11
49.4483
21
-39.8538
0
LINE
8
BLACK
6
CONTINUOUS
10
49.4483
20
-39.8538
11
49.5027
21
-39.5803
0
LINE
8
BLACK
6
CONTINUOUS
10
49.5027
20
-39.5803
11
49.5924
21
-39.3162
0
LINE
8
BLACK
6
CONTINUOUS
10
49.5924
20
-39.3162
11
49.7157
21
-39.0661
0
LINE
8
BLACK
6
CONTINUOUS
10
49.7157
20
-39.0661
11
49.8706
21
-38.8342
0
LINE
8
BLACK
6
CONTINUOUS
10
49.8706
20
-38.8342
11
50.0545
21
-38.6245
0
LINE
8
BLACK
6
CONTINUOUS
10
50.0545
20
-38.6245
11
50.2642
21
-38.4407
0
LINE
8
BLACK
6
CONTINUOUS
10
50.2642
20
-38.4407
11
50.4961
21
-38.2857
0
LINE
8
BLACK
6
CONTINUOUS
10
50.4961
20
-38.2857
11
50.7462
21
-38.1624
0
LINE
8
BLACK
6
CONTINUOUS
10
50.7462
20
-38.1624
11
51.0103
21
-38.0727
0
LINE
8
BLACK
6
CONTINUOUS
10
51.0103
20
-38.0727
11
51.2838
21
-38.0183
0
LINE
8
BLACK
6
CONTINUOUS
10
51.2838
20
-38.0183
11
51.562
21
-38.0001
0
LINE
8
BLACK
6
CONTINUOUS
10
51.562
20
-38.0001
11
51.562
21
-38.0001
0
LINE
8
BLACK
6
CONTINUOUS
10
51.562
20
-38.0001
11
51.562
21
-38.0001
0
LINE
8
BLACK
6
CONTINUOUS
10
51.562
20
-38.0001
11
51.5621
21
-38.0001
0
LINE
8
BLACK
6
CONTINUOUS
10
51.5621
20
-38.0001
11
51.5621
21
-38.0001
0
LINE
8
BLACK
6
CONTINUOUS
10
51.5621
20
-38.0001
11
51.5624
21
-38.0001
0
LINE
8
BLACK
6
CONTINUOUS
10
51.5624
20
-38.0001
11
51.6366
21
-38.0002
0
LINE
8
BLACK
6
CONTINUOUS
10
51.6366
20
-38.0002
11
51.7821
21
-37.967
0
LINE
8
BLACK
6
CONTINUOUS
10
51.7821
20
-37.967
11
51.9165
21
-37.9022
0
LINE
8
BLACK
6
CONTINUOUS
10
51.9165
20
-37.9022
11
52.0332
21
-37.8092
0
LINE
8
BLACK
6
CONTINUOUS
10
52.0332
20
-37.8092
11
52.1262
21
-37.6926
0
LINE
8
BLACK
6
CONTINUOUS
10
52.1262
20
-37.6926
11
52.1909
21
-37.5581
0
LINE
8
BLACK
6
CONTINUOUS
10
52.1909
20
-37.5581
11
52.2241
21
-37.4127
0
LINE
8
BLACK
6
CONTINUOUS
10
52.2241
20
-37.4127
11
52.224
21
-37.3381
0
LINE
8
BLACK
6
CONTINUOUS
10
52.224
20
-37.3381
11
52.224
21
-37.3381
0
LINE
8
BLACK
6
CONTINUOUS
10
52.224
20
-37.3381
11
52.224
21
-37.3381
0
LINE
8
BLACK
6
CONTINUOUS
10
52.224
20
-37.3381
11
52.224
21
-36.3221
0
LINE
8
BLACK
6
CONTINUOUS
10
52.224
20
-36.3221
11
52.224
21
-36.3221
0
LINE
8
BLACK
6
CONTINUOUS
10
52.224
20
-36.3221
11
52.224
21
-36.322
0
LINE
8
BLACK
6
CONTINUOUS
10
52.224
20
-36.322
11
52.2406
21
-36.1539
0
LINE
8
BLACK
6
CONTINUOUS
10
52.2406
20
-36.1539
11
52.2897
21
-35.9922
0
LINE
8
BLACK
6
CONTINUOUS
10
52.2897
20
-35.9922
11
52.3694
21
-35.8432
0
LINE
8
BLACK
6
CONTINUOUS
10
52.3694
20
-35.8432
11
52.4766
21
-35.7126
0
LINE
8
BLACK
6
CONTINUOUS
10
52.4766
20
-35.7126
11
52.6072
21
-35.6054
0
LINE
8
BLACK
6
CONTINUOUS
10
52.6072
20
-35.6054
11
52.7562
21
-35.5258
0
LINE
8
BLACK
6
CONTINUOUS
10
52.7562
20
-35.5258
11
52.9179
21
-35.4767
0
LINE
8
BLACK
6
CONTINUOUS
10
52.9179
20
-35.4767
11
53.0857
21
-35.4602
0
LINE
8
BLACK
6
CONTINUOUS
10
53.0857
20
-35.4602
11
53.086
21
-35.4601
0
LINE
8
BLACK
6
CONTINUOUS
10
53.086
20
-35.4601
11
53.086
21
-35.4601
0
LINE
8
BLACK
6
CONTINUOUS
10
53.086
20
-35.4601
11
53.086
21
-35.4601
0
LINE
8
BLACK
6
CONTINUOUS
10
53.086
20
-35.4601
11
53.086
21
-35.4601
0
LINE
8
BLACK
6
CONTINUOUS
10
53.086
20
-35.4601
11
69.2883
21
-35.4601
0
LINE
8
BLACK
6
CONTINUOUS
10
69.2883
20
-35.4601
11
69.3087
21
-35.4667
0
LINE
8
BLACK
6
CONTINUOUS
10
69.3087
20
-35.4667
11
69.3111
21
-35.465
0
LINE
8
BLACK
6
CONTINUOUS
10
69.3111
20
-35.465
11
69.327
21
-35.465
0
LINE
8
BLACK
6
CONTINUOUS
10
69.327
20
-35.465
11
69.342
21
-35.4601
0
LINE
8
BLACK
6
CONTINUOUS
10
69.342
20
-35.4601
11
84.328
21
-35.4601
0
LINE
8
BLACK
6
CONTINUOUS
10
84.328
20
-35.4601
11
84.3281
21
-35.4601
0
LINE
8
BLACK
6
CONTINUOUS
10
84.3281
20
-35.4601
11
84.3281
21
-35.4601
0
LINE
8
BLACK
6
CONTINUOUS
10
84.3281
20
-35.4601
11
84.3281
21
-35.4601
0
LINE
8
BLACK
6
CONTINUOUS
10
84.3281
20
-35.4601
11
84.3283
21
-35.4601
0
LINE
8
BLACK
6
CONTINUOUS
10
84.3283
20
-35.4601
11
84.4026
21
-35.4602
0
LINE
8
BLACK
6
CONTINUOUS
10
84.4026
20
-35.4602
11
84.5481
21
-35.427
0
LINE
8
BLACK
6
CONTINUOUS
10
84.5481
20
-35.427
11
84.6825
21
-35.3622
0
LINE
8
BLACK
6
CONTINUOUS
10
84.6825
20
-35.3622
11
84.7992
21
-35.2692
0
LINE
8
BLACK
6
CONTINUOUS
10
84.7992
20
-35.2692
11
84.8922
21
-35.1526
0
LINE
8
BLACK
6
CONTINUOUS
10
84.8922
20
-35.1526
11
84.9569
21
-35.0181
0
LINE
8
BLACK
6
CONTINUOUS
10
84.9569
20
-35.0181
11
84.9901
21
-34.8727
0
LINE
8
BLACK
6
CONTINUOUS
10
84.9901
20
-34.8727
11
84.99
21
-34.7981
0
LINE
8
BLACK
6
CONTINUOUS
10
84.99
20
-34.7981
11
84.991
21
-34.7944
0
LINE
8
BLACK
6
CONTINUOUS
10
84.991
20
-34.7944
11
84.9903
21
-34.7914
0
LINE
8
BLACK
6
CONTINUOUS
10
84.9903
20
-34.7914
11
85.2443
21
-30.9814
0
LINE
8
BLACK
6
CONTINUOUS
10
85.2443
20
-30.9814
11
85.2446
21
-30.9806
0
LINE
8
BLACK
6
CONTINUOUS
10
85.2446
20
-30.9806
11
85.2606
21
-30.7569
0
LINE
8
BLACK
6
CONTINUOUS
10
85.2606
20
-30.7569
11
85.3099
21
-30.5305
0
LINE
8
BLACK
6
CONTINUOUS
10
85.3099
20
-30.5305
11
85.3908
21
-30.3135
0
LINE
8
BLACK
6
CONTINUOUS
10
85.3908
20
-30.3135
11
85.5019
21
-30.1101
0
LINE
8
BLACK
6
CONTINUOUS
10
85.5019
20
-30.1101
11
85.6408
21
-29.9246
0
LINE
8
BLACK
6
CONTINUOUS
10
85.6408
20
-29.9246
11
85.8046
21
-29.7608
0
LINE
8
BLACK
6
CONTINUOUS
10
85.8046
20
-29.7608
11
85.9901
21
-29.6219
0
LINE
8
BLACK
6
CONTINUOUS
10
85.9901
20
-29.6219
11
86.1934
21
-29.5109
0
LINE
8
BLACK
6
CONTINUOUS
10
86.1934
20
-29.5109
11
86.4105
21
-29.4299
0
LINE
8
BLACK
6
CONTINUOUS
10
86.4105
20
-29.4299
11
86.6369
21
-29.3807
0
LINE
8
BLACK
6
CONTINUOUS
10
86.6369
20
-29.3807
11
86.868
21
-29.3641
0
LINE
8
BLACK
6
CONTINUOUS
10
86.868
20
-29.3641
11
86.868
21
-29.3641
0
LINE
8
BLACK
6
CONTINUOUS
10
86.868
20
-29.3641
11
86.8697
21
-29.3645
0
LINE
8
BLACK
6
CONTINUOUS
10
86.8697
20
-29.3645
11
86.8711
21
-29.3641
0
LINE
8
BLACK
6
CONTINUOUS
10
86.8711
20
-29.3641
11
104.395
21
-29.8972
0
LINE
8
BLACK
6
CONTINUOUS
10
104.395
20
-29.8972
11
104.485
21
-29.8972
0
LINE
8
BLACK
6
CONTINUOUS
10
104.485
20
-29.8972
11
104.666
21
-29.8695
0
LINE
8
BLACK
6
CONTINUOUS
10
104.666
20
-29.8695
11
104.84
21
-29.8145
0
LINE
8
BLACK
6
CONTINUOUS
10
104.84
20
-29.8145
11
105.004
21
-29.7338
0
LINE
8
BLACK
6
CONTINUOUS
10
105.004
20
-29.7338
11
105.154
21
-29.629
0
LINE
8
BLACK
6
CONTINUOUS
10
105.154
20
-29.629
11
105.286
21
-29.5028
0
LINE
8
BLACK
6
CONTINUOUS
10
105.286
20
-29.5028
11
105.397
21
-29.3579
0
LINE
8
BLACK
6
CONTINUOUS
10
105.397
20
-29.3579
11
105.485
21
-29.1977
0
LINE
8
BLACK
6
CONTINUOUS
10
105.485
20
-29.1977
11
105.548
21
-29.0261
0
LINE
8
BLACK
6
CONTINUOUS
10
105.548
20
-29.0261
11
105.565
21
-28.9422
0
LINE
8
BLACK
6
CONTINUOUS
10
105.565
20
-28.9422
11
106.072
21
-22.5981
0
LINE
8
BLACK
6
CONTINUOUS
10
106.072
20
-22.5981
11
106.073
21
-22.5954
0
LINE
8
BLACK
6
CONTINUOUS
10
106.073
20
-22.5954
11
106.073
21
-22.5919
0
LINE
8
BLACK
6
CONTINUOUS
10
106.073
20
-22.5919
11
106.073
21
-22.5919
0
LINE
8
BLACK
6
CONTINUOUS
10
106.073
20
-22.5919
11
106.125
21
-22.3476
0
LINE
8
BLACK
6
CONTINUOUS
10
106.125
20
-22.3476
11
106.208
21
-22.1121
0
LINE
8
BLACK
6
CONTINUOUS
10
106.208
20
-22.1121
11
106.321
21
-21.8897
0
LINE
8
BLACK
6
CONTINUOUS
10
106.321
20
-21.8897
11
106.463
21
-21.684
0
LINE
8
BLACK
6
CONTINUOUS
10
106.463
20
-21.684
11
106.63
21
-21.4988
0
LINE
8
BLACK
6
CONTINUOUS
10
106.63
20
-21.4988
11
106.821
21
-21.3372
0
LINE
8
BLACK
6
CONTINUOUS
10
106.821
20
-21.3372
11
107.031
21
-21.202
0
LINE
8
BLACK
6
CONTINUOUS
10
107.031
20
-21.202
11
107.256
21
-21.0955
0
LINE
8
BLACK
6
CONTINUOUS
10
107.256
20
-21.0955
11
107.494
21
-21.0197
0
LINE
8
BLACK
6
CONTINUOUS
10
107.494
20
-21.0197
11
107.74
21
-20.9757
0
LINE
8
BLACK
6
CONTINUOUS
10
107.74
20
-20.9757
11
107.99
21
-20.9645
0
LINE
8
BLACK
6
CONTINUOUS
10
107.99
20
-20.9645
11
108.23
21
-20.9854
0
LINE
8
BLACK
6
CONTINUOUS
10
105.762
20
-28.9757
11
105.705
21
-29.1804
0
LINE
8
BLACK
6
CONTINUOUS
10
105.705
20
-29.1804
11
105.617
21
-29.3741
0
LINE
8
BLACK
6
CONTINUOUS
10
105.617
20
-29.3741
11
105.5
21
-29.5521
0
LINE
8
BLACK
6
CONTINUOUS
10
105.5
20
-29.5521
11
105.358
21
-29.7104
0
LINE
8
BLACK
6
CONTINUOUS
10
105.358
20
-29.7104
11
105.194
21
-29.8453
0
LINE
8
BLACK
6
CONTINUOUS
10
105.194
20
-29.8453
11
105.011
21
-29.9535
0
LINE
8
BLACK
6
CONTINUOUS
10
105.011
20
-29.9535
11
104.813
21
-30.0327
0
LINE
8
BLACK
6
CONTINUOUS
10
104.813
20
-30.0327
11
104.606
21
-30.081
0
LINE
8
BLACK
6
CONTINUOUS
10
104.606
20
-30.081
11
104.394
21
-30.0972
0
LINE
8
BLACK
6
CONTINUOUS
10
104.394
20
-30.0972
11
104.394
21
-30.0972
0
LINE
8
BLACK
6
CONTINUOUS
10
104.394
20
-30.0972
11
104.392
21
-30.0968
0
LINE
8
BLACK
6
CONTINUOUS
10
104.392
20
-30.0968
11
104.391
21
-30.0972
0
LINE
8
BLACK
6
CONTINUOUS
10
104.391
20
-30.0972
11
86.8681
21
-29.5641
0
LINE
8
BLACK
6
CONTINUOUS
10
86.8681
20
-29.5641
11
86.8681
21
-29.5641
0
LINE
8
BLACK
6
CONTINUOUS
10
86.8681
20
-29.5641
11
86.756
21
-29.5642
0
LINE
8
BLACK
6
CONTINUOUS
10
86.756
20
-29.5642
11
86.5346
21
-29.5992
0
LINE
8
BLACK
6
CONTINUOUS
10
86.5346
20
-29.5992
11
86.3214
21
-29.6685
0
LINE
8
BLACK
6
CONTINUOUS
10
86.3214
20
-29.6685
11
86.1217
21
-29.7702
0
LINE
8
BLACK
6
CONTINUOUS
10
86.1217
20
-29.7702
11
85.9404
21
-29.902
0
LINE
8
BLACK
6
CONTINUOUS
10
85.9404
20
-29.902
11
85.7819
21
-30.0605
0
LINE
8
BLACK
6
CONTINUOUS
10
85.7819
20
-30.0605
11
85.6502
21
-30.2418
0
LINE
8
BLACK
6
CONTINUOUS
10
85.6502
20
-30.2418
11
85.5484
21
-30.4415
0
LINE
8
BLACK
6
CONTINUOUS
10
85.5484
20
-30.4415
11
85.4791
21
-30.6546
0
LINE
8
BLACK
6
CONTINUOUS
10
85.4791
20
-30.6546
11
85.4441
21
-30.876
0
LINE
8
BLACK
6
CONTINUOUS
10
85.4441
20
-30.876
11
85.444
21
-30.9881
0
LINE
8
BLACK
6
CONTINUOUS
10
85.444
20
-30.9881
11
85.4431
21
-30.9917
0
LINE
8
BLACK
6
CONTINUOUS
10
85.4431
20
-30.9917
11
85.4438
21
-30.9947
0
LINE
8
BLACK
6
CONTINUOUS
10
85.4438
20
-30.9947
11
85.1898
21
-34.8047
0
LINE
8
BLACK
6
CONTINUOUS
10
85.1898
20
-34.8047
11
85.1893
21
-34.8062
0
LINE
8
BLACK
6
CONTINUOUS
10
85.1893
20
-34.8062
11
85.1735
21
-34.9662
0
LINE
8
BLACK
6
CONTINUOUS
10
85.1735
20
-34.9662
11
85.1245
21
-35.128
0
LINE
8
BLACK
6
CONTINUOUS
10
85.1245
20
-35.128
11
85.0448
21
-35.277
0
LINE
8
BLACK
6
CONTINUOUS
10
85.0448
20
-35.277
11
84.9376
21
-35.4077
0
LINE
8
BLACK
6
CONTINUOUS
10
84.9376
20
-35.4077
11
84.807
21
-35.5149
0
LINE
8
BLACK
6
CONTINUOUS
10
84.807
20
-35.5149
11
84.6579
21
-35.5945
0
LINE
8
BLACK
6
CONTINUOUS
10
84.6579
20
-35.5945
11
84.4962
21
-35.6436
0
LINE
8
BLACK
6
CONTINUOUS
10
84.4962
20
-35.6436
11
84.328
21
-35.6601
0
LINE
8
BLACK
6
CONTINUOUS
10
84.328
20
-35.6601
11
84.328
21
-35.6601
0
LINE
8
BLACK
6
CONTINUOUS
10
84.328
20
-35.6601
11
71.0126
21
-35.6601
0
LINE
8
BLACK
6
CONTINUOUS
10
71.0126
20
-35.6601
11
70.966
21
-103.124
0
LINE
8
BLACK
6
CONTINUOUS
10
70.966
20
-103.124
11
70.966
21
-103.124
0
LINE
8
BLACK
6
CONTINUOUS
10
70.966
20
-103.124
11
70.9502
21
-103.332
0
LINE
8
BLACK
6
CONTINUOUS
10
70.9502
20
-103.332
11
70.9028
21
-103.536
0
LINE
8
BLACK
6
CONTINUOUS
10
70.9028
20
-103.536
11
70.8252
21
-103.729
0
LINE
8
BLACK
6
CONTINUOUS
10
70.8252
20
-103.729
11
70.719
21
-103.909
0
LINE
8
BLACK
6
CONTINUOUS
10
70.719
20
-103.909
11
70.5867
21
-104.07
0
LINE
8
BLACK
6
CONTINUOUS
10
70.5867
20
-104.07
11
70.4314
21
-104.21
0
LINE
8
BLACK
6
CONTINUOUS
10
70.4314
20
-104.21
11
70.2567
21
-104.324
0
LINE
8
BLACK
6
CONTINUOUS
10
70.2567
20
-104.324
11
70.0667
21
-104.411
0
LINE
8
BLACK
6
CONTINUOUS
10
70.0667
20
-104.411
11
69.8739
21
-104.465
0
LINE
8
BLACK
6
CONTINUOUS
10
69.8739
20
-104.465
11
69.8731
21
-104.465
0
LINE
8
BLACK
6
CONTINUOUS
10
69.8731
20
-104.465
11
60.2056
21
-107.18
0
LINE
8
BLACK
6
CONTINUOUS
10
60.2056
20
-107.18
11
60.1002
21
-107.215
0
LINE
8
BLACK
6
CONTINUOUS
10
60.1002
20
-107.215
11
59.8926
21
-107.305
0
LINE
8
BLACK
6
CONTINUOUS
10
59.8926
20
-107.305
11
59.6944
21
-107.415
0
LINE
8
BLACK
6
CONTINUOUS
10
59.6944
20
-107.415
11
59.5072
21
-107.542
0
LINE
8
BLACK
6
CONTINUOUS
10
59.5072
20
-107.542
11
59.3328
21
-107.687
0
LINE
8
BLACK
6
CONTINUOUS
10
59.3328
20
-107.687
11
59.2528
21
-107.767
0
LINE
8
BLACK
6
CONTINUOUS
10
59.2528
20
-107.767
11
59.2481
21
-107.769
0
LINE
8
BLACK
6
CONTINUOUS
10
59.2481
20
-107.769
11
59.2458
21
-107.773
0
LINE
8
BLACK
6
CONTINUOUS
10
59.2458
20
-107.773
11
45.7774
21
-118.93
0
LINE
8
BLACK
6
CONTINUOUS
10
45.7774
20
-118.93
11
45.7769
21
-118.93
0
LINE
8
BLACK
6
CONTINUOUS
10
45.7769
20
-118.93
11
45.5889
21
-119.095
0
LINE
8
BLACK
6
CONTINUOUS
10
45.5889
20
-119.095
11
45.3712
21
-119.239
0
LINE
8
BLACK
6
CONTINUOUS
10
45.3712
20
-119.239
11
45.1357
21
-119.35
0
LINE
8
BLACK
6
CONTINUOUS
10
45.1357
20
-119.35
11
44.8871
21
-119.429
0
LINE
8
BLACK
6
CONTINUOUS
10
44.8871
20
-119.429
11
44.63
21
-119.471
0
LINE
8
BLACK
6
CONTINUOUS
10
44.63
20
-119.471
11
44.3694
21
-119.478
0
LINE
8
BLACK
6
CONTINUOUS
10
44.3694
20
-119.478
11
44.1105
21
-119.449
0
LINE
8
BLACK
6
CONTINUOUS
10
44.1105
20
-119.449
11
43.858
21
-119.384
0
LINE
8
BLACK
6
CONTINUOUS
10
43.858
20
-119.384
11
43.617
21
-119.285
0
LINE
8
BLACK
6
CONTINUOUS
10
43.617
20
-119.285
11
43.3919
21
-119.154
0
LINE
8
BLACK
6
CONTINUOUS
10
43.3919
20
-119.154
11
43.1873
21
-118.992
0
LINE
8
BLACK
6
CONTINUOUS
10
43.1873
20
-118.992
11
43.1563
21
-118.96
0
LINE
8
BLACK
6
CONTINUOUS
10
43.1563
20
-118.96
11
37.6559
21
-123.521
0
LINE
8
BLACK
6
CONTINUOUS
10
37.6559
20
-123.521
11
37.6496
21
-123.524
0
LINE
8
BLACK
6
CONTINUOUS
10
37.6496
20
-123.524
11
37.6435
21
-123.53
0
LINE
8
BLACK
6
CONTINUOUS
10
37.6435
20
-123.53
11
37.6435
21
-123.53
0
LINE
8
BLACK
6
CONTINUOUS
10
37.6435
20
-123.53
11
37.5516
21
-123.585
0
LINE
8
BLACK
6
CONTINUOUS
10
37.5516
20
-123.585
11
37.3869
21
-123.723
0
LINE
8
BLACK
6
CONTINUOUS
10
37.3869
20
-123.723
11
37.2454
21
-123.884
0
LINE
8
BLACK
6
CONTINUOUS
10
37.2454
20
-123.884
11
37.1305
21
-124.065
0
LINE
8
BLACK
6
CONTINUOUS
10
37.1305
20
-124.065
11
37.045
21
-124.262
0
LINE
8
BLACK
6
CONTINUOUS
10
37.045
20
-124.262
11
36.9908
21
-124.469
0
LINE
8
BLACK
6
CONTINUOUS
10
36.9908
20
-124.469
11
36.9693
21
-124.682
0
LINE
8
BLACK
6
CONTINUOUS
10
36.9693
20
-124.682
11
36.981
21
-124.897
0
LINE
8
BLACK
6
CONTINUOUS
10
36.981
20
-124.897
11
37.0257
21
-125.106
0
LINE
8
BLACK
6
CONTINUOUS
10
37.0257
20
-125.106
11
37.1022
21
-125.307
0
LINE
8
BLACK
6
CONTINUOUS
10
37.1022
20
-125.307
11
37.2087
21
-125.493
0
LINE
8
BLACK
6
CONTINUOUS
10
37.2087
20
-125.493
11
37.2747
21
-125.576
0
LINE
8
BLACK
6
CONTINUOUS
10
37.2747
20
-125.576
11
50.1142
21
-140.651
0
LINE
8
BLACK
6
CONTINUOUS
10
50.1142
20
-140.651
11
50.1147
21
-140.653
0
LINE
8
BLACK
6
CONTINUOUS
10
50.1147
20
-140.653
11
50.1161
21
-140.654
0
LINE
8
BLACK
6
CONTINUOUS
10
50.1161
20
-140.654
11
50.1161
21
-140.654
0
LINE
8
BLACK
6
CONTINUOUS
10
50.1161
20
-140.654
11
50.2194
21
-140.783
0
LINE
8
BLACK
6
CONTINUOUS
10
50.2194
20
-140.783
11
50.4516
21
-141.018
0
LINE
8
BLACK
6
CONTINUOUS
10
50.4516
20
-141.018
11
50.7072
21
-141.227
0
LINE
8
BLACK
6
CONTINUOUS
10
50.7072
20
-141.227
11
50.9833
21
-141.409
0
LINE
8
BLACK
6
CONTINUOUS
10
50.9833
20
-141.409
11
51.2768
21
-141.561
0
LINE
8
BLACK
6
CONTINUOUS
10
51.2768
20
-141.561
11
51.5846
21
-141.681
0
LINE
8
BLACK
6
CONTINUOUS
10
51.5846
20
-141.681
11
51.9033
21
-141.768
0
LINE
8
BLACK
6
CONTINUOUS
10
51.9033
20
-141.768
11
52.2294
21
-141.822
0
LINE
8
BLACK
6
CONTINUOUS
10
52.2294
20
-141.822
11
52.5593
21
-141.841
0
LINE
8
BLACK
6
CONTINUOUS
10
52.5593
20
-141.841
11
52.8894
21
-141.826
0
LINE
8
BLACK
6
CONTINUOUS
10
52.8894
20
-141.826
11
53.2161
21
-141.776
0
LINE
8
BLACK
6
CONTINUOUS
10
53.2161
20
-141.776
11
53.5358
21
-141.692
0
LINE
8
BLACK
6
CONTINUOUS
10
53.5358
20
-141.692
11
53.845
21
-141.576
0
LINE
8
BLACK
6
CONTINUOUS
10
53.845
20
-141.576
11
54.1403
21
-141.428
0
LINE
8
BLACK
6
CONTINUOUS
10
54.1403
20
-141.428
11
54.4186
21
-141.249
0
LINE
8
BLACK
6
CONTINUOUS
10
54.4186
20
-141.249
11
54.5462
21
-141.147
0
LINE
8
BLACK
6
CONTINUOUS
10
54.5462
20
-141.147
11
62.3311
21
-134.439
0
LINE
8
BLACK
6
CONTINUOUS
10
62.3311
20
-134.439
11
62.3318
21
-134.439
0
LINE
8
BLACK
6
CONTINUOUS
10
62.3318
20
-134.439
11
62.3323
21
-134.438
0
LINE
8
BLACK
6
CONTINUOUS
10
62.3323
20
-134.438
11
63.2947
21
-133.66
0
LINE
8
BLACK
6
CONTINUOUS
10
63.2947
20
-133.66
11
64.2805
21
-132.911
0
LINE
8
BLACK
6
CONTINUOUS
10
64.2805
20
-132.911
11
65.2889
21
-132.193
0
LINE
8
BLACK
6
CONTINUOUS
10
65.2889
20
-132.193
11
66.3189
21
-131.507
0
LINE
8
BLACK
6
CONTINUOUS
10
66.3189
20
-131.507
11
67.3695
21
-130.852
0
LINE
8
BLACK
6
CONTINUOUS
10
67.3695
20
-130.852
11
68.4397
21
-130.23
0
LINE
8
BLACK
6
CONTINUOUS
10
68.4397
20
-130.23
11
69.5285
21
-129.641
0
LINE
8
BLACK
6
CONTINUOUS
10
69.5285
20
-129.641
11
70.6349
21
-129.086
0
LINE
8
BLACK
6
CONTINUOUS
10
70.6349
20
-129.086
11
71.7579
21
-128.565
0
LINE
8
BLACK
6
CONTINUOUS
10
71.7579
20
-128.565
11
72.8963
21
-128.079
0
LINE
8
BLACK
6
CONTINUOUS
10
72.8963
20
-128.079
11
74.0491
21
-127.628
0
LINE
8
BLACK
6
CONTINUOUS
10
74.0491
20
-127.628
11
75.2152
21
-127.213
0
LINE
8
BLACK
6
CONTINUOUS
10
75.2152
20
-127.213
11
76.3936
21
-126.834
0
LINE
8
BLACK
6
CONTINUOUS
10
76.3936
20
-126.834
11
77.583
21
-126.491
0
LINE
8
BLACK
6
CONTINUOUS
10
77.583
20
-126.491
11
78.7824
21
-126.185
0
LINE
8
BLACK
6
CONTINUOUS
10
78.7824
20
-126.185
11
79.9907
21
-125.916
0
LINE
8
BLACK
6
CONTINUOUS
10
79.9907
20
-125.916
11
81.2066
21
-125.685
0
LINE
8
BLACK
6
CONTINUOUS
10
81.2066
20
-125.685
11
82.4291
21
-125.49
0
LINE
8
BLACK
6
CONTINUOUS
10
82.4291
20
-125.49
11
83.657
21
-125.334
0
LINE
8
BLACK
6
CONTINUOUS
10
83.657
20
-125.334
11
84.8891
21
-125.215
0
LINE
8
BLACK
6
CONTINUOUS
10
84.8891
20
-125.215
11
86.1243
21
-125.134
0
LINE
8
BLACK
6
CONTINUOUS
10
86.1243
20
-125.134
11
87.3614
21
-125.091
0
LINE
8
BLACK
6
CONTINUOUS
10
87.3614
20
-125.091
11
88.5992
21
-125.086
0
LINE
8
BLACK
6
CONTINUOUS
10
88.5992
20
-125.086
11
89.8366
21
-125.119
0
LINE
8
BLACK
6
CONTINUOUS
10
89.8366
20
-125.119
11
91.0724
21
-125.191
0
LINE
8
BLACK
6
CONTINUOUS
10
91.0724
20
-125.191
11
92.3054
21
-125.3
0
LINE
8
BLACK
6
CONTINUOUS
10
92.3054
20
-125.3
11
93.5345
21
-125.447
0
LINE
8
BLACK
6
CONTINUOUS
10
93.5345
20
-125.447
11
94.7585
21
-125.631
0
LINE
8
BLACK
6
CONTINUOUS
10
94.7585
20
-125.631
11
94.7585
21
-125.631
0
LINE
8
BLACK
6
CONTINUOUS
10
94.7585
20
-125.631
11
94.7595
21
-125.632
0
LINE
8
BLACK
6
CONTINUOUS
10
94.7595
20
-125.632
11
94.7605
21
-125.632
0
LINE
8
BLACK
6
CONTINUOUS
10
94.7605
20
-125.632
11
106.949
21
-127.917
0
LINE
8
BLACK
6
CONTINUOUS
10
106.949
20
-127.917
11
107.304
21
-127.957
0
LINE
8
BLACK
6
CONTINUOUS
10
107.304
20
-127.957
11
108.024
21
-128.008
0
LINE
8
BLACK
6
CONTINUOUS
10
108.024
20
-128.008
11
108.746
21
-128.031
0
LINE
8
BLACK
6
CONTINUOUS
10
108.746
20
-128.031
11
109.468
21
-128.025
0
LINE
8
BLACK
6
CONTINUOUS
10
109.468
20
-128.025
11
110.19
21
-127.991
0
LINE
8
BLACK
6
CONTINUOUS
10
110.19
20
-127.991
11
110.909
21
-127.929
0
LINE
8
BLACK
6
CONTINUOUS
10
110.909
20
-127.929
11
111.266
21
-127.884
0
LINE
8
BLACK
6
CONTINUOUS
10
111.266
20
-127.884
11
182.307
21
-116.494
0
LINE
8
BLACK
6
CONTINUOUS
10
182.307
20
-116.494
11
182.308
21
-116.494
0
LINE
8
BLACK
6
CONTINUOUS
10
182.308
20
-116.494
11
182.309
21
-116.493
0
LINE
8
BLACK
6
CONTINUOUS
10
182.309
20
-116.493
11
182.309
21
-116.493
0
LINE
8
BLACK
6
CONTINUOUS
10
182.309
20
-116.493
11
182.468
21
-116.471
0
LINE
8
BLACK
6
CONTINUOUS
10
182.468
20
-116.471
11
182.778
21
-116.397
0
LINE
8
BLACK
6
CONTINUOUS
10
182.778
20
-116.397
11
183.08
21
-116.291
0
LINE
8
BLACK
6
CONTINUOUS
10
183.08
20
-116.291
11
183.371
21
-116.157
0
LINE
8
BLACK
6
CONTINUOUS
10
183.371
20
-116.157
11
183.646
21
-115.995
0
LINE
8
BLACK
6
CONTINUOUS
10
183.646
20
-115.995
11
183.904
21
-115.806
0
LINE
8
BLACK
6
CONTINUOUS
10
183.904
20
-115.806
11
184.143
21
-115.593
0
LINE
8
BLACK
6
CONTINUOUS
10
184.143
20
-115.593
11
184.359
21
-115.358
0
LINE
8
BLACK
6
CONTINUOUS
10
184.359
20
-115.358
11
184.551
21
-115.102
0
LINE
8
BLACK
6
CONTINUOUS
10
184.551
20
-115.102
11
184.717
21
-114.829
0
LINE
8
BLACK
6
CONTINUOUS
10
184.717
20
-114.829
11
184.855
21
-114.54
0
LINE
8
BLACK
6
CONTINUOUS
10
184.855
20
-114.54
11
184.964
21
-114.24
0
LINE
8
BLACK
6
CONTINUOUS
10
184.964
20
-114.24
11
185.043
21
-113.93
0
LINE
8
BLACK
6
CONTINUOUS
10
185.043
20
-113.93
11
185.067
21
-113.772
0
LINE
8
BLACK
6
CONTINUOUS
10
185.067
20
-113.772
11
185.068
21
-113.77
0
LINE
8
BLACK
6
CONTINUOUS
10
185.068
20
-113.77
11
185.068
21
-113.769
0
LINE
8
BLACK
6
CONTINUOUS
10
185.068
20
-113.769
11
192.942
21
-70.5941
0
LINE
8
BLACK
6
CONTINUOUS
10
192.942
20
-70.5941
11
192.943
21
-70.5915
0
LINE
8
BLACK
6
CONTINUOUS
10
192.943
20
-70.5915
11
192.943
21
-70.5878
0
LINE
8
BLACK
6
CONTINUOUS
10
192.943
20
-70.5878
11
192.943
21
-70.5878
0
LINE
8
BLACK
6
CONTINUOUS
10
192.943
20
-70.5878
11
192.975
21
-70.461
0
LINE
8
BLACK
6
CONTINUOUS
10
192.975
20
-70.461
11
193.005
21
-70.2012
0
LINE
8
BLACK
6
CONTINUOUS
10
193.005
20
-70.2012
11
193
21
-69.9398
0
LINE
8
BLACK
6
CONTINUOUS
10
193
20
-69.9398
11
192.962
21
-69.6812
0
LINE
8
BLACK
6
CONTINUOUS
10
192.962
20
-69.6812
11
192.89
21
-69.4298
0
LINE
8
BLACK
6
CONTINUOUS
10
192.89
20
-69.4298
11
192.786
21
-69.19
0
LINE
8
BLACK
6
CONTINUOUS
10
192.786
20
-69.19
11
192.651
21
-68.9658
0
LINE
8
BLACK
6
CONTINUOUS
10
192.651
20
-68.9658
11
192.488
21
-68.7611
0
LINE
8
BLACK
6
CONTINUOUS
10
192.488
20
-68.7611
11
192.3
21
-68.5793
0
LINE
8
BLACK
6
CONTINUOUS
10
192.3
20
-68.5793
11
192.09
21
-68.4237
0
LINE
8
BLACK
6
CONTINUOUS
10
192.09
20
-68.4237
11
191.862
21
-68.2968
0
LINE
8
BLACK
6
CONTINUOUS
10
191.862
20
-68.2968
11
191.619
21
-68.2008
0
LINE
8
BLACK
6
CONTINUOUS
10
191.619
20
-68.2008
11
191.495
21
-68.1698
0
LINE
8
BLACK
6
CONTINUOUS
10
191.495
20
-68.1698
11
174.742
21
-65.0921
0
LINE
8
BLACK
6
CONTINUOUS
10
174.742
20
-65.0921
11
174.739
21
-65.0907
0
LINE
8
BLACK
6
CONTINUOUS
10
174.739
20
-65.0907
11
174.735
21
-65.0907
0
LINE
8
BLACK
6
CONTINUOUS
10
174.735
20
-65.0907
11
174.735
21
-65.0907
0
LINE
8
BLACK
6
CONTINUOUS
10
174.735
20
-65.0907
11
174.56
21
-65.0313
0
LINE
8
BLACK
6
CONTINUOUS
10
174.56
20
-65.0313
11
174.398
21
-64.9437
0
LINE
8
BLACK
6
CONTINUOUS
10
174.398
20
-64.9437
11
174.252
21
-64.8306
0
LINE
8
BLACK
6
CONTINUOUS
10
174.252
20
-64.8306
11
174.126
21
-64.6949
0
LINE
8
BLACK
6
CONTINUOUS
10
174.126
20
-64.6949
11
174.025
21
-64.5403
0
LINE
8
BLACK
6
CONTINUOUS
10
174.025
20
-64.5403
11
173.951
21
-64.3712
0
LINE
8
BLACK
6
CONTINUOUS
10
173.951
20
-64.3712
11
173.905
21
-64.1922
0
LINE
8
BLACK
6
CONTINUOUS
10
173.905
20
-64.1922
11
173.89
21
-64.0081
0
LINE
8
BLACK
6
CONTINUOUS
10
173.89
20
-64.0081
11
173.89
21
-64.0081
0
LINE
8
BLACK
6
CONTINUOUS
10
173.89
20
-64.0081
11
173.892
21
-64.0017
0
LINE
8
BLACK
6
CONTINUOUS
10
173.892
20
-64.0017
11
173.891
21
-63.9966
0
LINE
8
BLACK
6
CONTINUOUS
10
173.891
20
-63.9966
11
174.653
21
-57.3926
0
LINE
8
BLACK
6
CONTINUOUS
10
174.653
20
-57.3926
11
174.653
21
-57.3922
0
LINE
8
BLACK
6
CONTINUOUS
10
174.653
20
-57.3922
11
174.653
21
-57.3917
0
LINE
8
BLACK
6
CONTINUOUS
10
174.653
20
-57.3917
11
174.653
21
-57.3917
0
LINE
8
BLACK
6
CONTINUOUS
10
174.653
20
-57.3917
11
174.669
21
-57.266
0
LINE
8
BLACK
6
CONTINUOUS
10
174.669
20
-57.266
11
174.667
21
-57.0126
0
LINE
8
BLACK
6
CONTINUOUS
10
174.667
20
-57.0126
11
174.633
21
-56.7615
0
LINE
8
BLACK
6
CONTINUOUS
10
174.633
20
-56.7615
11
174.567
21
-56.517
0
LINE
8
BLACK
6
CONTINUOUS
10
174.567
20
-56.517
11
174.469
21
-56.2831
0
LINE
8
BLACK
6
CONTINUOUS
10
174.469
20
-56.2831
11
174.342
21
-56.0639
0
LINE
8
BLACK
6
CONTINUOUS
10
174.342
20
-56.0639
11
174.188
21
-55.863
0
LINE
8
BLACK
6
CONTINUOUS
10
174.188
20
-55.863
11
174.008
21
-55.6837
0
LINE
8
BLACK
6
CONTINUOUS
10
174.008
20
-55.6837
11
173.808
21
-55.5292
0
LINE
8
BLACK
6
CONTINUOUS
10
173.808
20
-55.5292
11
173.589
21
-55.4019
0
LINE
8
BLACK
6
CONTINUOUS
10
173.589
20
-55.4019
11
173.355
21
-55.3042
0
LINE
8
BLACK
6
CONTINUOUS
10
173.355
20
-55.3042
11
173.238
21
-55.2724
0
LINE
8
BLACK
6
CONTINUOUS
10
173.238
20
-55.2724
11
156.177
21
-52.7314
0
LINE
8
BLACK
6
CONTINUOUS
10
156.177
20
-52.7314
11
156.17
21
-52.728
0
LINE
8
BLACK
6
CONTINUOUS
10
156.17
20
-52.728
11
156.16
21
-52.7274
0
LINE
8
BLACK
6
CONTINUOUS
10
156.16
20
-52.7274
11
156.16
21
-52.7274
0
LINE
8
BLACK
6
CONTINUOUS
10
156.16
20
-52.7274
11
156.001
21
-52.6579
0
LINE
8
BLACK
6
CONTINUOUS
10
156.001
20
-52.6579
11
155.857
21
-52.561
0
LINE
8
BLACK
6
CONTINUOUS
10
155.857
20
-52.561
11
155.733
21
-52.4398
0
LINE
8
BLACK
6
CONTINUOUS
10
155.733
20
-52.4398
11
155.633
21
-52.2982
0
LINE
8
BLACK
6
CONTINUOUS
10
155.633
20
-52.2982
11
155.56
21
-52.141
0
LINE
8
BLACK
6
CONTINUOUS
10
155.56
20
-52.141
11
155.516
21
-51.9731
0
LINE
8
BLACK
6
CONTINUOUS
10
155.516
20
-51.9731
11
155.504
21
-51.8001
0
LINE
8
BLACK
6
CONTINUOUS
10
155.504
20
-51.8001
11
155.521
21
-51.6379
0
LINE
8
BLACK
6
CONTINUOUS
10
155.521
20
-51.6379
11
155.521
21
-51.6366
0
LINE
8
BLACK
6
CONTINUOUS
10
155.521
20
-51.6366
11
156.873
21
-39.1053
0
LINE
8
BLACK
6
CONTINUOUS
10
156.873
20
-39.1053
11
156.875
21
-39.1007
0
LINE
8
BLACK
6
CONTINUOUS
10
156.875
20
-39.1007
11
156.874
21
-39.0944
0
LINE
8
BLACK
6
CONTINUOUS
10
156.874
20
-39.0944
11
156.874
21
-39.0944
0
LINE
8
BLACK
6
CONTINUOUS
10
156.874
20
-39.0944
11
156.903
21
-38.9633
0
LINE
8
BLACK
6
CONTINUOUS
10
156.903
20
-38.9633
11
156.93
21
-38.6961
0
LINE
8
BLACK
6
CONTINUOUS
10
156.93
20
-38.6961
11
156.924
21
-38.4276
0
LINE
8
BLACK
6
CONTINUOUS
10
156.924
20
-38.4276
11
156.887
21
-38.1617
0
LINE
8
BLACK
6
CONTINUOUS
10
156.887
20
-38.1617
11
156.818
21
-37.9022
0
LINE
8
BLACK
6
CONTINUOUS
10
156.818
20
-37.9022
11
156.718
21
-37.6528
0
LINE
8
BLACK
6
CONTINUOUS
10
156.718
20
-37.6528
11
156.59
21
-37.4171
0
LINE
8
BLACK
6
CONTINUOUS
10
156.59
20
-37.4171
11
156.434
21
-37.1983
0
LINE
8
BLACK
6
CONTINUOUS
10
156.434
20
-37.1983
11
156.253
21
-36.9998
0
LINE
8
BLACK
6
CONTINUOUS
10
156.253
20
-36.9998
11
156.05
21
-36.8242
0
LINE
8
BLACK
6
CONTINUOUS
10
156.05
20
-36.8242
11
155.828
21
-36.6741
0
LINE
8
BLACK
6
CONTINUOUS
10
155.828
20
-36.6741
11
155.589
21
-36.5517
0
LINE
8
BLACK
6
CONTINUOUS
10
155.589
20
-36.5517
11
155.337
21
-36.4587
0
LINE
8
BLACK
6
CONTINUOUS
10
155.337
20
-36.4587
11
155.213
21
-36.429
0
LINE
8
BLACK
6
CONTINUOUS
10
155.213
20
-36.429
11
137.404
21
-34.6436
0
LINE
8
BLACK
6
CONTINUOUS
10
137.404
20
-34.6436
11
137.398
21
-34.6409
0
LINE
8
BLACK
6
CONTINUOUS
10
137.398
20
-34.6409
11
137.39
21
-34.6411
0
LINE
8
BLACK
6
CONTINUOUS
10
137.39
20
-34.6411
11
137.201
21
-34.5759
0
LINE
8
BLACK
6
CONTINUOUS
10
137.201
20
-34.5759
11
137.026
21
-34.4788
0
LINE
8
BLACK
6
CONTINUOUS
10
137.026
20
-34.4788
11
136.871
21
-34.3528
0
LINE
8
BLACK
6
CONTINUOUS
10
136.871
20
-34.3528
11
136.739
21
-34.2018
0
LINE
8
BLACK
6
CONTINUOUS
10
136.739
20
-34.2018
11
136.637
21
-34.0303
0
LINE
8
BLACK
6
CONTINUOUS
10
136.637
20
-34.0303
11
136.565
21
-33.8436
0
LINE
8
BLACK
6
CONTINUOUS
10
136.565
20
-33.8436
11
136.527
21
-33.6473
0
LINE
8
BLACK
6
CONTINUOUS
10
136.527
20
-33.6473
11
136.524
21
-33.4473
0
LINE
8
BLACK
6
CONTINUOUS
10
136.524
20
-33.4473
11
136.552
21
-33.2672
0
LINE
8
BLACK
6
CONTINUOUS
10
136.552
20
-33.2672
11
137.06
21
-25.143
0
LINE
8
BLACK
6
CONTINUOUS
10
137.06
20
-25.143
11
137.06
21
-25.0196
0
LINE
8
BLACK
6
CONTINUOUS
10
137.06
20
-25.0196
11
137.027
21
-24.7688
0
LINE
8
BLACK
6
CONTINUOUS
10
137.027
20
-24.7688
11
136.962
21
-24.5244
0
LINE
8
BLACK
6
CONTINUOUS
10
136.962
20
-24.5244
11
136.865
21
-24.2906
0
LINE
8
BLACK
6
CONTINUOUS
10
136.865
20
-24.2906
11
136.739
21
-24.0715
0
LINE
8
BLACK
6
CONTINUOUS
10
136.739
20
-24.0715
11
136.585
21
-23.8707
0
LINE
8
BLACK
6
CONTINUOUS
10
136.585
20
-23.8707
11
136.406
21
-23.6916
0
LINE
8
BLACK
6
CONTINUOUS
10
136.406
20
-23.6916
11
136.206
21
-23.5374
0
LINE
8
BLACK
6
CONTINUOUS
10
136.206
20
-23.5374
11
135.987
21
-23.4107
0
LINE
8
BLACK
6
CONTINUOUS
10
135.987
20
-23.4107
11
135.753
21
-23.3136
0
LINE
8
BLACK
6
CONTINUOUS
10
135.753
20
-23.3136
11
135.509
21
-23.2477
0
LINE
8
BLACK
6
CONTINUOUS
10
135.509
20
-23.2477
11
135.386
21
-23.2314
0
LINE
8
BLACK
6
CONTINUOUS
10
135.386
20
-23.2314
11
108.216
21
-21.1846
0
LINE
8
BLACK
6
CONTINUOUS
10
108.216
20
-21.1846
11
108.212
21
-21.1833
0
LINE
8
BLACK
6
CONTINUOUS
10
108.212
20
-21.1833
11
108.208
21
-21.1837
0
LINE
8
BLACK
6
CONTINUOUS
10
108.208
20
-21.1837
11
108.208
21
-21.1838
0
LINE
8
BLACK
6
CONTINUOUS
10
108.208
20
-21.1838
11
108.087
21
-21.1653
0
LINE
8
BLACK
6
CONTINUOUS
10
108.087
20
-21.1653
11
107.843
21
-21.1631
0
LINE
8
BLACK
6
CONTINUOUS
10
107.843
20
-21.1631
11
107.601
21
-21.196
0
LINE
8
BLACK
6
CONTINUOUS
10
107.601
20
-21.196
11
107.366
21
-21.2632
0
LINE
8
BLACK
6
CONTINUOUS
10
107.366
20
-21.2632
11
107.143
21
-21.3633
0
LINE
8
BLACK
6
CONTINUOUS
10
107.143
20
-21.3633
11
106.937
21
-21.4943
0
LINE
8
BLACK
6
CONTINUOUS
10
106.937
20
-21.4943
11
106.752
21
-21.6536
0
LINE
8
BLACK
6
CONTINUOUS
10
106.752
20
-21.6536
11
106.591
21
-21.8377
0
LINE
8
BLACK
6
CONTINUOUS
10
106.591
20
-21.8377
11
106.459
21
-22.0429
0
LINE
8
BLACK
6
CONTINUOUS
10
106.459
20
-22.0429
11
106.357
21
-22.265
0
LINE
8
BLACK
6
CONTINUOUS
10
106.357
20
-22.265
11
106.288
21
-22.4993
0
LINE
8
BLACK
6
CONTINUOUS
10
106.288
20
-22.4993
11
106.271
21
-22.6172
0
LINE
8
BLACK
6
CONTINUOUS
10
106.271
20
-22.6172
11
105.764
21
-28.964
0
LINE
8
BLACK
6
CONTINUOUS
10
105.764
20
-28.964
11
105.762
21
-28.969
0
LINE
8
BLACK
6
CONTINUOUS
10
105.762
20
-28.969
11
105.762
21
-28.9757
0
LINE
8
BLACK
6
CONTINUOUS
10
69.442
20
-35.6601
11
69.442
21
-102.108
0
LINE
8
BLACK
6
CONTINUOUS
10
69.442
20
-102.108
11
69.442
21
-102.108
0
LINE
8
BLACK
6
CONTINUOUS
10
69.442
20
-102.108
11
69.4281
21
-102.284
0
LINE
8
BLACK
6
CONTINUOUS
10
69.4281
20
-102.284
11
69.3864
21
-102.456
0
LINE
8
BLACK
6
CONTINUOUS
10
69.3864
20
-102.456
11
69.3182
21
-102.619
0
LINE
8
BLACK
6
CONTINUOUS
10
69.3182
20
-102.619
11
69.225
21
-102.769
0
LINE
8
BLACK
6
CONTINUOUS
10
69.225
20
-102.769
11
69.1093
21
-102.903
0
LINE
8
BLACK
6
CONTINUOUS
10
69.1093
20
-102.903
11
68.9739
21
-103.017
0
LINE
8
BLACK
6
CONTINUOUS
10
68.9739
20
-103.017
11
68.8223
21
-103.108
0
LINE
8
BLACK
6
CONTINUOUS
10
68.8223
20
-103.108
11
68.6582
21
-103.174
0
LINE
8
BLACK
6
CONTINUOUS
10
68.6582
20
-103.174
11
68.6582
21
-103.173
0
LINE
8
BLACK
6
CONTINUOUS
10
68.6582
20
-103.173
11
68.656
21
-103.174
0
LINE
8
BLACK
6
CONTINUOUS
10
68.656
20
-103.174
11
68.6544
21
-103.175
0
LINE
8
BLACK
6
CONTINUOUS
10
68.6544
20
-103.175
11
59.4431
21
-105.657
0
LINE
8
BLACK
6
CONTINUOUS
10
59.4431
20
-105.657
11
59.3382
21
-105.691
0
LINE
8
BLACK
6
CONTINUOUS
10
59.3382
20
-105.691
11
59.1306
21
-105.781
0
LINE
8
BLACK
6
CONTINUOUS
10
59.1306
20
-105.781
11
58.9324
21
-105.891
0
LINE
8
BLACK
6
CONTINUOUS
10
58.9324
20
-105.891
11
58.7452
21
-106.018
0
LINE
8
BLACK
6
CONTINUOUS
10
58.7452
20
-106.018
11
58.5708
21
-106.163
0
LINE
8
BLACK
6
CONTINUOUS
10
58.5708
20
-106.163
11
58.4908
21
-106.243
0
LINE
8
BLACK
6
CONTINUOUS
10
58.4908
20
-106.243
11
58.4908
21
-106.243
0
LINE
8
BLACK
6
CONTINUOUS
10
58.4908
20
-106.243
11
58.4862
21
-106.245
0
LINE
8
BLACK
6
CONTINUOUS
10
58.4862
20
-106.245
11
58.4839
21
-106.249
0
LINE
8
BLACK
6
CONTINUOUS
10
58.4839
20
-106.249
11
43.3069
21
-118.835
0
LINE
8
BLACK
6
CONTINUOUS
10
43.3069
20
-118.835
11
43.4841
21
-118.98
0
LINE
8
BLACK
6
CONTINUOUS
10
43.4841
20
-118.98
11
43.6971
21
-119.107
0
LINE
8
BLACK
6
CONTINUOUS
10
43.6971
20
-119.107
11
43.9266
21
-119.201
0
LINE
8
BLACK
6
CONTINUOUS
10
43.9266
20
-119.201
11
44.1674
21
-119.261
0
LINE
8
BLACK
6
CONTINUOUS
10
44.1674
20
-119.261
11
44.4143
21
-119.284
0
LINE
8
BLACK
6
CONTINUOUS
10
44.4143
20
-119.284
11
44.6621
21
-119.271
0
LINE
8
BLACK
6
CONTINUOUS
10
44.6621
20
-119.271
11
44.9052
21
-119.222
0
LINE
8
BLACK
6
CONTINUOUS
10
44.9052
20
-119.222
11
45.1384
21
-119.137
0
LINE
8
BLACK
6
CONTINUOUS
10
45.1384
20
-119.137
11
45.3567
21
-119.019
0
LINE
8
BLACK
6
CONTINUOUS
10
45.3567
20
-119.019
11
45.5552
21
-118.871
0
LINE
8
BLACK
6
CONTINUOUS
10
45.5552
20
-118.871
11
45.6426
21
-118.783
0
LINE
8
BLACK
6
CONTINUOUS
10
45.6426
20
-118.783
11
45.6474
21
-118.78
0
LINE
8
BLACK
6
CONTINUOUS
10
45.6474
20
-118.78
11
45.6498
21
-118.776
0
LINE
8
BLACK
6
CONTINUOUS
10
45.6498
20
-118.776
11
59.1183
21
-107.619
0
LINE
8
BLACK
6
CONTINUOUS
10
59.1183
20
-107.619
11
59.1183
21
-107.619
0
LINE
8
BLACK
6
CONTINUOUS
10
59.1183
20
-107.619
11
59.2924
21
-107.46
0
LINE
8
BLACK
6
CONTINUOUS
10
59.2924
20
-107.46
11
59.4882
21
-107.313
0
LINE
8
BLACK
6
CONTINUOUS
10
59.4882
20
-107.313
11
59.6969
21
-107.185
0
LINE
8
BLACK
6
CONTINUOUS
10
59.6969
20
-107.185
11
59.9166
21
-107.077
0
LINE
8
BLACK
6
CONTINUOUS
10
59.9166
20
-107.077
11
60.1455
21
-106.99
0
LINE
8
BLACK
6
CONTINUOUS
10
60.1455
20
-106.99
11
60.1455
21
-106.99
0
LINE
8
BLACK
6
CONTINUOUS
10
60.1455
20
-106.99
11
60.148
21
-106.99
0
LINE
8
BLACK
6
CONTINUOUS
10
60.148
20
-106.99
11
60.1496
21
-106.988
0
LINE
8
BLACK
6
CONTINUOUS
10
60.1496
20
-106.988
11
69.819
21
-104.273
0
LINE
8
BLACK
6
CONTINUOUS
10
69.819
20
-104.273
11
69.8225
21
-104.273
0
LINE
8
BLACK
6
CONTINUOUS
10
69.8225
20
-104.273
11
69.8264
21
-104.271
0
LINE
8
BLACK
6
CONTINUOUS
10
69.8264
20
-104.271
11
69.8264
21
-104.271
0
LINE
8
BLACK
6
CONTINUOUS
10
69.8264
20
-104.271
11
69.925
21
-104.251
0
LINE
8
BLACK
6
CONTINUOUS
10
69.925
20
-104.251
11
70.1127
21
-104.179
0
LINE
8
BLACK
6
CONTINUOUS
10
70.1127
20
-104.179
11
70.2851
21
-104.075
0
LINE
8
BLACK
6
CONTINUOUS
10
70.2851
20
-104.075
11
70.4374
21
-103.943
0
LINE
8
BLACK
6
CONTINUOUS
10
70.4374
20
-103.943
11
70.5649
21
-103.788
0
LINE
8
BLACK
6
CONTINUOUS
10
70.5649
20
-103.788
11
70.6639
21
-103.612
0
LINE
8
BLACK
6
CONTINUOUS
10
70.6639
20
-103.612
11
70.7316
21
-103.423
0
LINE
8
BLACK
6
CONTINUOUS
10
70.7316
20
-103.423
11
70.766
21
-103.225
0
LINE
8
BLACK
6
CONTINUOUS
10
70.766
20
-103.225
11
70.766
21
-103.124
0
LINE
8
BLACK
6
CONTINUOUS
10
70.766
20
-103.124
11
70.7661
21
-103.124
0
LINE
8
BLACK
6
CONTINUOUS
10
70.7661
20
-103.124
11
70.766
21
-103.124
0
LINE
8
BLACK
6
CONTINUOUS
10
70.766
20
-103.124
11
70.8126
21
-35.6601
0
LINE
8
BLACK
6
CONTINUOUS
10
70.8126
20
-35.6601
11
69.442
21
-35.6601
0
LINE
8
BLACK
6
CONTINUOUS
10
53.0861
20
-35.6601
11
53.0861
21
-35.6601
0
LINE
8
BLACK
6
CONTINUOUS
10
53.0861
20
-35.6601
11
53.0115
21
-35.6602
0
LINE
8
BLACK
6
CONTINUOUS
10
53.0115
20
-35.6602
11
52.866
21
-35.6933
0
LINE
8
BLACK
6
CONTINUOUS
10
52.866
20
-35.6933
11
52.7316
21
-35.7581
0
LINE
8
BLACK
6
CONTINUOUS
10
52.7316
20
-35.7581
11
52.615
21
-35.8511
0
LINE
8
BLACK
6
CONTINUOUS
10
52.615
20
-35.8511
11
52.522
21
-35.9677
0
LINE
8
BLACK
6
CONTINUOUS
10
52.522
20
-35.9677
11
52.4573
21
-36.1021
0
LINE
8
BLACK
6
CONTINUOUS
10
52.4573
20
-36.1021
11
52.4241
21
-36.2475
0
LINE
8
BLACK
6
CONTINUOUS
10
52.4241
20
-36.2475
11
52.424
21
-36.3221
0
LINE
8
BLACK
6
CONTINUOUS
10
52.424
20
-36.3221
11
52.424
21
-37.3381
0
LINE
8
BLACK
6
CONTINUOUS
10
52.424
20
-37.3381
11
52.424
21
-37.3381
0
LINE
8
BLACK
6
CONTINUOUS
10
52.424
20
-37.3381
11
52.4075
21
-37.5062
0
LINE
8
BLACK
6
CONTINUOUS
10
52.4075
20
-37.5062
11
52.3585
21
-37.668
0
LINE
8
BLACK
6
CONTINUOUS
10
52.3585
20
-37.668
11
52.2788
21
-37.817
0
LINE
8
BLACK
6
CONTINUOUS
10
52.2788
20
-37.817
11
52.1716
21
-37.9477
0
LINE
8
BLACK
6
CONTINUOUS
10
52.1716
20
-37.9477
11
52.041
21
-38.0549
0
LINE
8
BLACK
6
CONTINUOUS
10
52.041
20
-38.0549
11
51.8919
21
-38.1345
0
LINE
8
BLACK
6
CONTINUOUS
10
51.8919
20
-38.1345
11
51.7302
21
-38.1836
0
LINE
8
BLACK
6
CONTINUOUS
10
51.7302
20
-38.1836
11
51.562
21
-38.2001
0
LINE
8
BLACK
6
CONTINUOUS
10
51.562
20
-38.2001
11
51.562
21
-38.2001
0
LINE
8
BLACK
6
CONTINUOUS
10
51.562
20
-38.2001
11
51.562
21
-38.2001
0
LINE
8
BLACK
6
CONTINUOUS
10
51.562
20
-38.2001
11
51.4354
21
-38.2001
0
LINE
8
BLACK
6
CONTINUOUS
10
51.4354
20
-38.2001
11
51.1843
21
-38.2331
0
LINE
8
BLACK
6
CONTINUOUS
10
51.1843
20
-38.2331
11
50.9397
21
-38.2987
0
LINE
8
BLACK
6
CONTINUOUS
10
50.9397
20
-38.2987
11
50.7057
21
-38.3956
0
LINE
8
BLACK
6
CONTINUOUS
10
50.7057
20
-38.3956
11
50.4864
21
-38.5222
0
LINE
8
BLACK
6
CONTINUOUS
10
50.4864
20
-38.5222
11
50.2855
21
-38.6764
0
LINE
8
BLACK
6
CONTINUOUS
10
50.2855
20
-38.6764
11
50.1064
21
-38.8555
0
LINE
8
BLACK
6
CONTINUOUS
10
50.1064
20
-38.8555
11
49.9522
21
-39.0564
0
LINE
8
BLACK
6
CONTINUOUS
10
49.9522
20
-39.0564
11
49.8256
21
-39.2757
0
LINE
8
BLACK
6
CONTINUOUS
10
49.8256
20
-39.2757
11
49.7287
21
-39.5097
0
LINE
8
BLACK
6
CONTINUOUS
10
49.7287
20
-39.5097
11
49.6631
21
-39.7543
0
LINE
8
BLACK
6
CONTINUOUS
10
49.6631
20
-39.7543
11
49.6301
21
-40.0054
0
LINE
8
BLACK
6
CONTINUOUS
10
49.6301
20
-40.0054
11
49.63
21
-40.1321
0
LINE
8
BLACK
6
CONTINUOUS
10
49.63
20
-40.1321
11
49.63
21
-47.2441
0
LINE
8
BLACK
6
CONTINUOUS
10
49.63
20
-47.2441
11
49.63
21
-47.2441
0
LINE
8
BLACK
6
CONTINUOUS
10
49.63
20
-47.2441
11
49.6148
21
-47.3794
0
LINE
8
BLACK
6
CONTINUOUS
10
49.6148
20
-47.3794
11
49.5699
21
-47.5079
0
LINE
8
BLACK
6
CONTINUOUS
10
49.5699
20
-47.5079
11
49.4975
21
-47.6232
0
LINE
8
BLACK
6
CONTINUOUS
10
49.4975
20
-47.6232
11
49.4012
21
-47.7195
0
LINE
8
BLACK
6
CONTINUOUS
10
49.4012
20
-47.7195
11
49.2859
21
-47.7919
0
LINE
8
BLACK
6
CONTINUOUS
10
49.2859
20
-47.7919
11
49.1574
21
-47.8369
0
LINE
8
BLACK
6
CONTINUOUS
10
49.1574
20
-47.8369
11
49.022
21
-47.8521
0
LINE
8
BLACK
6
CONTINUOUS
10
49.022
20
-47.8521
11
49.022
21
-47.8521
0
LINE
8
BLACK
6
CONTINUOUS
10
49.022
20
-47.8521
11
38.8621
21
-47.8521
0
LINE
8
BLACK
6
CONTINUOUS
10
38.8621
20
-47.8521
11
38.862
21
-47.8521
0
LINE
8
BLACK
6
CONTINUOUS
10
38.862
20
-47.8521
11
38.862
21
-47.8521
0
LINE
8
BLACK
6
CONTINUOUS
10
38.862
20
-47.8521
11
38.7268
21
-47.8368
0
LINE
8
BLACK
6
CONTINUOUS
10
38.7268
20
-47.8368
11
38.5982
21
-47.7919
0
LINE
8
BLACK
6
CONTINUOUS
10
38.5982
20
-47.7919
11
38.483
21
-47.7194
0
LINE
8
BLACK
6
CONTINUOUS
10
38.483
20
-47.7194
11
38.3867
21
-47.6232
0
LINE
8
BLACK
6
CONTINUOUS
10
38.3867
20
-47.6232
11
38.3142
21
-47.5079
0
LINE
8
BLACK
6
CONTINUOUS
10
38.3142
20
-47.5079
11
38.2693
21
-47.3794
0
LINE
8
BLACK
6
CONTINUOUS
10
38.2693
20
-47.3794
11
38.254
21
-47.2441
0
LINE
8
BLACK
6
CONTINUOUS
10
38.254
20
-47.2441
11
38.254
21
-47.2441
0
LINE
8
BLACK
6
CONTINUOUS
10
38.254
20
-47.2441
11
38.254
21
-40.1321
0
LINE
8
BLACK
6
CONTINUOUS
10
38.254
20
-40.1321
11
38.254
21
-40.1321
0
LINE
8
BLACK
6
CONTINUOUS
10
38.254
20
-40.1321
11
38.254
21
-40.0054
0
LINE
8
BLACK
6
CONTINUOUS
10
38.254
20
-40.0054
11
38.221
21
-39.7543
0
LINE
8
BLACK
6
CONTINUOUS
10
38.221
20
-39.7543
11
38.1554
21
-39.5097
0
LINE
8
BLACK
6
CONTINUOUS
10
38.1554
20
-39.5097
11
38.0585
21
-39.2757
0
LINE
8
BLACK
6
CONTINUOUS
10
38.0585
20
-39.2757
11
37.9319
21
-39.0564
0
LINE
8
BLACK
6
CONTINUOUS
10
37.9319
20
-39.0564
11
37.7777
21
-38.8555
0
LINE
8
BLACK
6
CONTINUOUS
10
37.7777
20
-38.8555
11
37.5986
21
-38.6764
0
LINE
8
BLACK
6
CONTINUOUS
10
37.5986
20
-38.6764
11
37.3977
21
-38.5222
0
LINE
8
BLACK
6
CONTINUOUS
10
37.3977
20
-38.5222
11
37.1784
21
-38.3956
0
LINE
8
BLACK
6
CONTINUOUS
10
37.1784
20
-38.3956
11
36.9444
21
-38.2987
0
LINE
8
BLACK
6
CONTINUOUS
10
36.9444
20
-38.2987
11
36.6998
21
-38.2331
0
LINE
8
BLACK
6
CONTINUOUS
10
36.6998
20
-38.2331
11
36.4487
21
-38.2001
0
LINE
8
BLACK
6
CONTINUOUS
10
36.4487
20
-38.2001
11
36.322
21
-38.2001
0
LINE
8
BLACK
6
CONTINUOUS
10
36.322
20
-38.2001
11
33.7821
21
-38.2001
0
LINE
8
BLACK
6
CONTINUOUS
10
33.7821
20
-38.2001
11
33.7821
21
-38.2001
0
LINE
8
BLACK
6
CONTINUOUS
10
33.7821
20
-38.2001
11
33.7075
21
-38.2002
0
LINE
8
BLACK
6
CONTINUOUS
10
33.7075
20
-38.2002
11
33.562
21
-38.2333
0
LINE
8
BLACK
6
CONTINUOUS
10
33.562
20
-38.2333
11
33.4276
21
-38.2981
0
LINE
8
BLACK
6
CONTINUOUS
10
33.4276
20
-38.2981
11
33.311
21
-38.3911
0
LINE
8
BLACK
6
CONTINUOUS
10
33.311
20
-38.3911
11
33.218
21
-38.5077
0
LINE
8
BLACK
6
CONTINUOUS
10
33.218
20
-38.5077
11
33.1533
21
-38.6421
0
LINE
8
BLACK
6
CONTINUOUS
10
33.1533
20
-38.6421
11
33.1201
21
-38.7875
0
LINE
8
BLACK
6
CONTINUOUS
10
33.1201
20
-38.7875
11
33.12
21
-38.8621
0
LINE
8
BLACK
6
CONTINUOUS
10
33.12
20
-38.8621
11
33.12
21
-109.474
0
LINE
8
BLACK
6
CONTINUOUS
10
33.12
20
-109.474
11
33.12
21
-109.474
0
LINE
8
BLACK
6
CONTINUOUS
10
33.12
20
-109.474
11
33.12
21
-109.474
0
LINE
8
BLACK
6
CONTINUOUS
10
33.12
20
-109.474
11
33.12
21
-109.474
0
LINE
8
BLACK
6
CONTINUOUS
10
33.12
20
-109.474
11
33.12
21
-109.474
0
LINE
8
BLACK
6
CONTINUOUS
10
33.12
20
-109.474
11
33.12
21
-109.549
0
LINE
8
BLACK
6
CONTINUOUS
10
33.12
20
-109.549
11
33.1532
21
-109.694
0
LINE
8
BLACK
6
CONTINUOUS
10
33.1532
20
-109.694
11
33.218
21
-109.829
0
LINE
8
BLACK
6
CONTINUOUS
10
33.218
20
-109.829
11
33.311
21
-109.945
0
LINE
8
BLACK
6
CONTINUOUS
10
33.311
20
-109.945
11
33.4276
21
-110.038
0
LINE
8
BLACK
6
CONTINUOUS
10
33.4276
20
-110.038
11
33.562
21
-110.103
0
LINE
8
BLACK
6
CONTINUOUS
10
33.562
20
-110.103
11
33.7075
21
-110.136
0
LINE
8
BLACK
6
CONTINUOUS
10
33.7075
20
-110.136
11
33.782
21
-110.136
0
LINE
8
BLACK
6
CONTINUOUS
10
33.782
20
-110.136
11
33.782
21
-110.136
0
LINE
8
BLACK
6
CONTINUOUS
10
33.782
20
-110.136
11
33.782
21
-110.136
0
LINE
8
BLACK
6
CONTINUOUS
10
33.782
20
-110.136
11
41.91
21
-110.136
0
LINE
8
BLACK
6
CONTINUOUS
10
41.91
20
-110.136
11
41.91
21
-110.136
0
LINE
8
BLACK
6
CONTINUOUS
10
41.91
20
-110.136
11
41.9101
21
-110.136
0
LINE
8
BLACK
6
CONTINUOUS
10
41.9101
20
-110.136
11
42.0782
21
-110.153
0
LINE
8
BLACK
6
CONTINUOUS
10
42.0782
20
-110.153
11
42.2399
21
-110.202
0
LINE
8
BLACK
6
CONTINUOUS
10
42.2399
20
-110.202
11
42.3889
21
-110.281
0
LINE
8
BLACK
6
CONTINUOUS
10
42.3889
20
-110.281
11
42.5196
21
-110.389
0
LINE
8
BLACK
6
CONTINUOUS
10
42.5196
20
-110.389
11
42.6268
21
-110.519
0
LINE
8
BLACK
6
CONTINUOUS
10
42.6268
20
-110.519
11
42.7064
21
-110.668
0
LINE
8
BLACK
6
CONTINUOUS
10
42.7064
20
-110.668
11
42.7555
21
-110.83
0
LINE
8
BLACK
6
CONTINUOUS
10
42.7555
20
-110.83
11
42.772
21
-110.998
0
LINE
8
BLACK
6
CONTINUOUS
10
42.772
20
-110.998
11
42.772
21
-110.998
0
LINE
8
BLACK
6
CONTINUOUS
10
42.772
20
-110.998
11
42.772
21
-110.998
0
LINE
8
BLACK
6
CONTINUOUS
10
42.772
20
-110.998
11
42.772
21
-110.998
0
LINE
8
BLACK
6
CONTINUOUS
10
42.772
20
-110.998
11
42.772
21
-110.998
0
LINE
8
BLACK
6
CONTINUOUS
10
42.772
20
-110.998
11
42.772
21
-117.602
0
LINE
8
BLACK
6
CONTINUOUS
10
42.772
20
-117.602
11
42.7721
21
-117.602
0
LINE
8
BLACK
6
CONTINUOUS
10
42.7721
20
-117.602
11
42.7721
21
-117.726
0
LINE
8
BLACK
6
CONTINUOUS
10
42.7721
20
-117.726
11
42.8086
21
-117.971
0
LINE
8
BLACK
6
CONTINUOUS
10
42.8086
20
-117.971
11
42.8808
21
-118.209
0
LINE
8
BLACK
6
CONTINUOUS
10
42.8808
20
-118.209
11
42.9871
21
-118.433
0
LINE
8
BLACK
6
CONTINUOUS
10
42.9871
20
-118.433
11
43.1251
21
-118.639
0
LINE
8
BLACK
6
CONTINUOUS
10
43.1251
20
-118.639
11
43.1701
21
-118.688
0
LINE
8
BLACK
6
CONTINUOUS
10
43.1701
20
-118.688
11
58.3562
21
-106.095
0
LINE
8
BLACK
6
CONTINUOUS
10
58.3562
20
-106.095
11
58.3562
21
-106.095
0
LINE
8
BLACK
6
CONTINUOUS
10
58.3562
20
-106.095
11
58.5305
21
-105.936
0
LINE
8
BLACK
6
CONTINUOUS
10
58.5305
20
-105.936
11
58.7262
21
-105.789
0
LINE
8
BLACK
6
CONTINUOUS
10
58.7262
20
-105.789
11
58.9349
21
-105.661
0
LINE
8
BLACK
6
CONTINUOUS
10
58.9349
20
-105.661
11
59.1546
21
-105.553
0
LINE
8
BLACK
6
CONTINUOUS
10
59.1546
20
-105.553
11
59.3835
21
-105.466
0
LINE
8
BLACK
6
CONTINUOUS
10
59.3835
20
-105.466
11
59.3835
21
-105.466
0
LINE
8
BLACK
6
CONTINUOUS
10
59.3835
20
-105.466
11
59.3866
21
-105.466
0
LINE
8
BLACK
6
CONTINUOUS
10
59.3866
20
-105.466
11
59.3887
21
-105.464
0
LINE
8
BLACK
6
CONTINUOUS
10
59.3887
20
-105.464
11
68.6011
21
-102.982
0
LINE
8
BLACK
6
CONTINUOUS
10
68.6011
20
-102.982
11
68.6781
21
-102.958
0
LINE
8
BLACK
6
CONTINUOUS
10
68.6781
20
-102.958
11
68.8255
21
-102.88
0
LINE
8
BLACK
6
CONTINUOUS
10
68.8255
20
-102.88
11
68.9565
21
-102.778
0
LINE
8
BLACK
6
CONTINUOUS
10
68.9565
20
-102.778
11
69.0669
21
-102.653
0
LINE
8
BLACK
6
CONTINUOUS
10
69.0669
20
-102.653
11
69.153
21
-102.511
0
LINE
8
BLACK
6
CONTINUOUS
10
69.153
20
-102.511
11
69.212
21
-102.355
0
LINE
8
BLACK
6
CONTINUOUS
10
69.212
20
-102.355
11
69.242
21
-102.191
0
LINE
8
BLACK
6
CONTINUOUS
10
69.242
20
-102.191
11
69.242
21
-102.108
0
LINE
8
BLACK
6
CONTINUOUS
10
69.242
20
-102.108
11
69.242
21
-102.108
0
LINE
8
BLACK
6
CONTINUOUS
10
69.242
20
-102.108
11
69.242
21
-102.108
0
LINE
8
BLACK
6
CONTINUOUS
10
69.242
20
-102.108
11
69.242
21
-35.6601
0
LINE
8
BLACK
6
CONTINUOUS
10
69.242
20
-35.6601
11
53.0861
21
-35.6601
  0
ENDSEC
  0
EOF
