<?xml version="1.0" encoding="UTF-8" standalone="no"?>
<svg
   version="1.1"
   width="297.0022mm"
   height="210.0072mm"
   viewBox="0.0000 0.0000 297.0022 210.0072"
   id="svg161"
   sodipodi:docname="nightliner-User_Drawings-joined-outset.svg"
   inkscape:version="1.3 (0e150ed, 2023-07-21)"
   xmlns:inkscape="http://www.inkscape.org/namespaces/inkscape"
   xmlns:sodipodi="http://sodipodi.sourceforge.net/DTD/sodipodi-0.dtd"
   xmlns="http://www.w3.org/2000/svg"
   xmlns:svg="http://www.w3.org/2000/svg"
   xmlns:rdf="http://www.w3.org/1999/02/22-rdf-syntax-ns#"
   xmlns:cc="http://creativecommons.org/ns#"
   xmlns:dc="http://purl.org/dc/elements/1.1/">
  <sodipodi:namedview
     id="namedview161"
     pagecolor="#505050"
     bordercolor="#eeeeee"
     borderopacity="1"
     inkscape:showpageshadow="0"
     inkscape:pageopacity="0"
     inkscape:pagecheckerboard="0"
     inkscape:deskcolor="#505050"
     inkscape:document-units="mm"
     showgrid="false"
     inkscape:zoom="1.8665098"
     inkscape:cx="503.61374"
     inkscape:cy="429.1432"
     inkscape:window-width="3120"
     inkscape:window-height="1453"
     inkscape:window-x="165"
     inkscape:window-y="40"
     inkscape:window-maximized="0"
     inkscape:current-layer="layer2" />
  <defs
     id="defs161" />
  <title
     id="title1">SVG Image created as nightliner-User_Drawings.svg date 2023/11/06 17:28:25 </title>
  <desc
     id="desc1">Image generated by PCBNEW </desc>
  <g
     inkscape:groupmode="layer"
     id="layer2"
     inkscape:label="Layer 2">
    <path
       id="switchplate-outset"
       style="display:inline;fill:#000000;fill-opacity:0;stroke:#000000;stroke-width:0.2;stroke-linecap:round;stroke-linejoin:round;stroke-opacity:1"
       d="m 107.75,20.876953 c -1.27807,0.0759 -1.97915,1.460397 -1.85062,2.621182 -0.20984,1.916369 -0.18857,3.880529 -0.56149,5.765537 -0.58737,0.866568 -1.78444,0.428244 -2.6482,0.482691 -5.380888,-0.147608 -10.763693,-0.373142 -16.14409,-0.446627 -1.103852,0.159829 -1.538446,1.40086 -1.448771,2.38216 -0.121336,1.138682 -0.05179,2.327252 -0.317532,3.431385 -0.587156,0.537153 -1.459368,0.105806 -2.169141,0.248047 -4.422786,0 -8.845573,0 -13.268359,0 -0.434749,0.652188 -0.08687,1.546404 -0.199207,2.299609 -7.99e-4,21.526433 0.01059,43.052873 -0.01368,64.579293 -0.264683,0.94053 -1.498537,0.76024 -2.204727,1.09148 -2.650792,0.75518 -5.360953,1.35476 -7.969445,2.22499 -1.948978,1.40656 -3.708972,3.05683 -5.592818,4.55025 -5.447374,4.5349 -10.934184,9.03139 -16.351991,13.59624 -0.716984,0.89155 -0.149803,2.11772 0.62014,2.76513 4.175098,4.96561 8.304177,9.97357 12.526433,14.89725 1.434266,1.38285 3.926715,1.14343 5.223928,-0.3117 4.855613,-4.03228 9.711226,-8.06456 14.56684,-12.09684 5.388671,-1.43099 10.777343,-2.86198 16.166015,-4.29297 7.162571,1.27948 14.315549,2.6311 21.488649,3.84018 1.96247,0.11843 3.66228,-1.67614 3.69002,-3.57938 0.0896,-0.7201 0.27902,-1.83742 1.23617,-1.77097 22.73538,-0.0537 45.47087,0.0131 68.20626,-0.0348 2.15146,-0.1465 3.84685,-2.13361 3.93536,-4.23989 2.8737,-16.25819 5.80503,-32.509626 8.63077,-48.774158 0.0477,-1.353043 -1.26287,-2.382973 -2.54801,-2.373602 -5.35957,-0.989692 -10.72495,-1.948284 -16.07672,-2.979537 -0.839,-0.432361 -0.31084,-1.503348 -0.31511,-2.222433 0.16414,-1.949941 0.58558,-3.892609 0.56121,-5.849832 -0.23204,-1.241139 -1.54664,-1.899249 -2.71863,-1.866318 -5.34664,-0.799029 -10.69756,-1.570059 -16.03723,-2.414932 -0.71857,-0.494918 -0.13759,-1.436797 -0.19815,-2.130662 0.41425,-3.975283 0.91166,-7.947429 1.2435,-11.927886 -0.10101,-1.444658 -1.58117,-2.436841 -2.96116,-2.308969 -5.62816,-0.567408 -11.25937,-1.105362 -16.88302,-1.716468 -0.85055,-0.351956 -0.42404,-1.431754 -0.44714,-2.129118 0.10641,-2.525836 0.42894,-5.054929 0.37878,-7.579866 -0.27592,-1.230489 -1.62305,-1.854483 -2.79514,-1.741604 -8.91733,-0.66274 -17.83568,-1.36763 -26.75369,-1.986912 z" />
    <path
       id="acrylicglass-outset"
       style="display:inline;fill:#000000;fill-opacity:0;stroke:#000000;stroke-width:0.2;stroke-linecap:round;stroke-linejoin:round;stroke-opacity:1"
       d="m 70.074219,35.347656 c -5.721897,0.03869 -11.448869,-0.01415 -17.171875,0.03125 -0.943882,0.183629 -0.794225,1.34275 -0.783203,2.060547 -0.242131,0.727891 -1.206992,0.337514 -1.712536,0.778289 -1.007108,0.586897 -1.206336,1.862616 -1.077469,2.924444 -0.03927,2.084467 0.08868,4.213887 -0.07328,6.269923 -0.575961,0.360487 -1.31522,0.0093 -1.95664,0.139928 -2.852362,-0.01298 -5.705069,0.03425 -8.557031,-0.03251 -0.452303,-0.517436 -0.04433,-1.279593 -0.19059,-1.897654 -0.05243,-2.05594 0.119216,-4.130908 -0.09847,-6.174611 -0.367679,-1.219564 -1.775504,-1.764195 -2.951172,-1.529297 -0.816747,0.05465 -1.901545,-0.311563 -2.501953,0.412109 -0.418994,0.811395 -0.04787,1.76131 -0.179735,2.630859 0.0038,13.417227 -0.01698,26.835208 0.01958,40.251954 0.224377,1.012616 1.477097,0.761735 2.242968,0.77399 1.819791,0.04063 3.680046,-0.08941 5.473829,0.07562 0.346624,0.547863 0.02221,1.245867 0.138148,1.85664 -0.0375,2.895653 0.08257,5.826955 -0.06979,8.700001 -0.576892,0.36481 -1.314594,0.02318 -1.95859,0.148179 -1.760308,0.0494 -3.551032,-0.116047 -5.292126,0.09736 -0.895446,0.488112 -0.447385,1.648222 -0.554025,2.462273 0.0048,4.784817 -0.01978,9.570387 0.02349,14.354687 0.250495,0.99631 1.471533,0.73309 2.236718,0.75423 2.341599,0.0239 4.684364,-0.0514 7.025001,0.0427 0.709719,0.42564 0.219283,1.38349 0.36761,2.03749 0.06013,1.9195 -0.130576,3.8633 0.112859,5.76719 0.458652,1.38839 2.506061,1.73491 3.413746,0.59112 4.583149,-3.79657 9.156832,-7.60073 13.754222,-11.37432 2.278832,-0.84197 4.666262,-1.34079 6.987173,-2.05199 1.269358,-0.39387 2.628758,-0.61548 3.813609,-1.21168 0.870545,-0.8394 0.383184,-2.1499 0.511991,-3.2125 0.01488,-21.821096 0.02977,-43.642189 0.04465,-65.463283 -0.239564,-0.270771 -0.70256,-0.196749 -1.037109,-0.212891 z" />
  </g>
  <metadata
     id="metadata161">
    <rdf:RDF>
      <cc:Work
         rdf:about="">
        <dc:title>SVG Image created as nightliner-User_Drawings.svg date 2023/11/06 17:28:25 </dc:title>
      </cc:Work>
    </rdf:RDF>
  </metadata>
</svg>
