<?xml version="1.0" standalone="no"?>
 <!DOCTYPE svg PUBLIC "-//W3C//DTD SVG 1.1//EN" 
 "http://www.w3.org/Graphics/SVG/1.1/DTD/svg11.dtd"> 
<svg
  xmlns:svg="http://www.w3.org/2000/svg"
  xmlns="http://www.w3.org/2000/svg"
  xmlns:xlink="http://www.w3.org/1999/xlink"
  version="1.1"
  width="297.0022mm" height="210.0072mm" viewBox="0.0000 0.0000 297.0022 210.0072">
<title>SVG Image created as nightliner-User_4.svg date 2023/11/13 23:09:45 </title>
  <desc>Image generated by PCBNEW </desc>
<g style="fill:#000000; fill-opacity:1.0000;stroke:#000000; stroke-opacity:1.0000;
stroke-linecap:round; stroke-linejoin:round;"
 transform="translate(0 0) scale(1 1)">
</g>
<g style="fill:#000000; fill-opacity:0.0; 
stroke:#000000; stroke-width:0.0000; stroke-opacity:1; 
stroke-linecap:round; stroke-linejoin:round;">
</g>
<g style="fill:#000000; fill-opacity:0.0; 
stroke:#000000; stroke-width:0.1500; stroke-opacity:1; 
stroke-linecap:round; stroke-linejoin:round;">
<path d="M144.7214 93.3470
L146.8090 78.4930
" />
<path d="M147.9384 77.6419
L163.7827 79.8686
" />
<path d="M161.4168 96.7032
L145.5725 94.4764
" />
<path d="M164.6338 80.9981
L162.5462 95.8521
" />
<path d="M156.2834 93.7096
L151.3321 93.0138
" />
<path d="M151.3321 93.0138
L151.7635 89.9439
" />
<path d="M151.7635 89.9439
L156.7149 90.6398
" />
<path d="M156.7149 90.6398
L156.2834 93.7096
" />
<path d="M147.9384 77.6419 A1.0000 1.0000 0.0 0 0 146.8090 78.4930" />
<path d="M144.7214 93.3470 A1.0000 1.0000 0.0 0 0 145.5725 94.4764" />
<path d="M164.6338 80.9981 A1.0000 1.0000 0.0 0 0 163.7827 79.8686" />
<path d="M161.4168 96.7032 A1.0000 1.0000 0.0 0 0 162.5462 95.8521" />
<path d="M129.7013 57.5701
L131.2692 42.6523
" />
<path d="M132.3683 41.7623
L148.2806 43.4347
" />
<path d="M146.5036 60.3416
L130.5913 58.6692
" />
<path d="M149.1706 44.5338
L147.6027 59.4516
" />
<path d="M141.2689 57.5290
L136.2963 57.0064
" />
<path d="M136.2963 57.0064
L136.6204 53.9234
" />
<path d="M136.6204 53.9234
L141.5930 54.4460
" />
<path d="M141.5930 54.4460
L141.2689 57.5290
" />
<path d="M132.3683 41.7623 A1.0000 1.0000 0.0 0 0 131.2692 42.6523" />
<path d="M129.7013 57.5701 A1.0000 1.0000 0.0 0 0 130.5913 58.6692" />
<path d="M149.1706 44.5338 A1.0000 1.0000 0.0 0 0 148.2806 43.4347" />
<path d="M146.5036 60.3416 A1.0000 1.0000 0.0 0 0 147.6027 59.4516" />
<path d="M111.0637 44.9646
L112.1100 30.0011
" />
<path d="M113.1774 29.0733
L129.1384 30.1894
" />
<path d="M127.9525 47.1480
L111.9915 46.0319
" />
<path d="M130.0662 31.2567
L129.0198 46.2202
" />
<path d="M122.6229 44.5198
L117.6351 44.1711
" />
<path d="M117.6351 44.1711
L117.8513 41.0786
" />
<path d="M117.8513 41.0786
L122.8391 41.4274
" />
<path d="M122.8391 41.4274
L122.6229 44.5198
" />
<path d="M113.1774 29.0733 A1.0000 1.0000 0.0 0 0 112.1100 30.0011" />
<path d="M111.0637 44.9646 A1.0000 1.0000 0.0 0 0 111.9915 46.0319" />
<path d="M130.0662 31.2567 A1.0000 1.0000 0.0 0 0 129.1384 30.1894" />
<path d="M127.9525 47.1480 A1.0000 1.0000 0.0 0 0 129.0198 46.2202" />
<path d="M168.2467 87.3719
L170.8514 72.5998
" />
<path d="M172.0098 71.7886
L187.7668 74.5670
" />
<path d="M184.8148 91.3087
L169.0578 88.5304
" />
<path d="M188.5779 75.7255
L185.9732 90.4976
" />
<path d="M179.7890 88.1379
L174.8650 87.2696
" />
<path d="M174.8650 87.2696
L175.4033 84.2167
" />
<path d="M175.4033 84.2167
L180.3273 85.0850
" />
<path d="M180.3273 85.0850
L179.7890 88.1379
" />
<path d="M172.0098 71.7886 A1.0000 1.0000 0.0 0 0 170.8514 72.5998" />
<path d="M168.2467 87.3719 A1.0000 1.0000 0.0 0 0 169.0578 88.5304" />
<path d="M188.5779 75.7255 A1.0000 1.0000 0.0 0 0 187.7668 74.5670" />
<path d="M184.8148 91.3087 A1.0000 1.0000 0.0 0 0 185.9732 90.4976" />
<path d="M51.6115 133.8566
L41.9697 122.3659
" />
<path d="M42.0929 120.9571
L54.3496 110.6725
" />
<path d="M65.2770 123.6953
L53.0203 133.9799
" />
<path d="M55.7585 110.7958
L65.4003 122.2864
" />
<path d="M59.6175 125.5070
L55.7873 128.7209
" />
<path d="M55.7873 128.7209
L53.7946 126.3462
" />
<path d="M53.7946 126.3462
L57.6249 123.1323
" />
<path d="M57.6249 123.1323
L59.6175 125.5070
" />
<path d="M42.0929 120.9571 A1.0000 1.0000 0.0 0 0 41.9697 122.3659" />
<path d="M51.6115 133.8566 A1.0000 1.0000 0.0 0 0 53.0203 133.9799" />
<path d="M55.7585 110.7958 A1.0000 1.0000 0.0 0 0 54.3496 110.6725" />
<path d="M65.2770 123.6953 A1.0000 1.0000 0.0 0 0 65.4003 122.2864" />
<path d="M70.9255 59.0141
L70.9255 44.0141
" />
<path d="M71.9255 43.0141
L87.9255 43.0141
" />
<path d="M87.9255 60.0141
L71.9255 60.0141
" />
<path d="M88.9255 44.0141
L88.9255 59.0141
" />
<path d="M82.4255 57.7641
L77.4255 57.7641
" />
<path d="M77.4255 57.7641
L77.4255 54.6641
" />
<path d="M77.4255 54.6641
L82.4255 54.6641
" />
<path d="M82.4255 54.6641
L82.4255 57.7641
" />
<path d="M71.9255 43.0141 A1.0000 1.0000 0.0 0 0 70.9255 44.0141" />
<path d="M70.9255 59.0141 A1.0000 1.0000 0.0 0 0 71.9255 60.0141" />
<path d="M88.9255 44.0141 A1.0000 1.0000 0.0 0 0 87.9255 43.0141" />
<path d="M87.9255 60.0141 A1.0000 1.0000 0.0 0 0 88.9255 59.0141" />
<path d="M67.7533 121.5007
L63.8710 107.0119
" />
<path d="M64.5781 105.7871
L80.0329 101.6460
" />
<path d="M84.4328 118.0667
L68.9780 122.2079
" />
<path d="M81.2577 102.3531
L85.1400 116.8420
" />
<path d="M78.5379 117.3169
L73.7083 118.6110
" />
<path d="M73.7083 118.6110
L72.9059 115.6166
" />
<path d="M72.9059 115.6166
L77.7356 114.3226
" />
<path d="M77.7356 114.3226
L78.5379 117.3169
" />
<path d="M64.5781 105.7871 A1.0000 1.0000 0.0 0 0 63.8710 107.0119" />
<path d="M67.7533 121.5007 A1.0000 1.0000 0.0 0 0 68.9780 122.2079" />
<path d="M81.2577 102.3531 A1.0000 1.0000 0.0 0 0 80.0329 101.6460" />
<path d="M84.4328 118.0667 A1.0000 1.0000 0.0 0 0 85.1400 116.8420" />
<path d="M70.9255 77.2141
L70.9255 62.2141
" />
<path d="M71.9255 61.2141
L87.9255 61.2141
" />
<path d="M87.9255 78.2141
L71.9255 78.2141
" />
<path d="M88.9255 62.2141
L88.9255 77.2141
" />
<path d="M82.4255 75.9641
L77.4255 75.9641
" />
<path d="M77.4255 75.9641
L77.4255 72.8641
" />
<path d="M77.4255 72.8641
L82.4255 72.8641
" />
<path d="M82.4255 72.8641
L82.4255 75.9641
" />
<path d="M71.9255 61.2141 A1.0000 1.0000 0.0 0 0 70.9255 62.2141" />
<path d="M70.9255 77.2141 A1.0000 1.0000 0.0 0 0 71.9255 78.2141" />
<path d="M88.9255 62.2141 A1.0000 1.0000 0.0 0 0 87.9255 61.2141" />
<path d="M87.9255 78.2141 A1.0000 1.0000 0.0 0 0 88.9255 77.2141" />
<path d="M125.8964 93.7707
L127.4644 78.8529
" />
<path d="M128.5634 77.9629
L144.4758 79.6353
" />
<path d="M142.6988 96.5422
L126.7864 94.8697
" />
<path d="M145.3658 80.7344
L143.7978 95.6522
" />
<path d="M137.4641 93.7296
L132.4915 93.2070
" />
<path d="M132.4915 93.2070
L132.8155 90.1240
" />
<path d="M132.8155 90.1240
L137.7881 90.6466
" />
<path d="M137.7881 90.6466
L137.4641 93.7296
" />
<path d="M128.5634 77.9629 A1.0000 1.0000 0.0 0 0 127.4644 78.8529" />
<path d="M125.8964 93.7707 A1.0000 1.0000 0.0 0 0 126.7864 94.8697" />
<path d="M145.3658 80.7344 A1.0000 1.0000 0.0 0 0 144.4758 79.6353" />
<path d="M142.6988 96.5422 A1.0000 1.0000 0.0 0 0 143.7978 95.6522" />
<path d="M90.1654 71.1913
L90.6889 56.2004
" />
<path d="M91.7231 55.2359
L107.7134 55.7943
" />
<path d="M107.1201 72.7840
L91.1299 72.2256
" />
<path d="M108.6779 56.8286
L108.1544 71.8195
" />
<path d="M101.7020 70.3434
L96.7050 70.1689
" />
<path d="M96.7050 70.1689
L96.8132 67.0708
" />
<path d="M96.8132 67.0708
L101.8102 67.2453
" />
<path d="M101.8102 67.2453
L101.7020 70.3434
" />
<path d="M91.7231 55.2359 A1.0000 1.0000 0.0 0 0 90.6889 56.2004" />
<path d="M90.1654 71.1913 A1.0000 1.0000 0.0 0 0 91.1299 72.2256" />
<path d="M108.6779 56.8286 A1.0000 1.0000 0.0 0 0 107.7134 55.7943" />
<path d="M107.1201 72.7840 A1.0000 1.0000 0.0 0 0 108.1544 71.8195" />
<path d="M147.2543 75.3241
L149.3419 60.4701
" />
<path d="M150.4714 59.6190
L166.3157 61.8457
" />
<path d="M163.9497 78.6803
L148.1054 76.4535
" />
<path d="M167.1668 62.9752
L165.0792 77.8292
" />
<path d="M158.8164 75.6868
L153.8650 74.9909
" />
<path d="M153.8650 74.9909
L154.2965 71.9211
" />
<path d="M154.2965 71.9211
L159.2478 72.6169
" />
<path d="M159.2478 72.6169
L158.8164 75.6868
" />
<path d="M150.4714 59.6190 A1.0000 1.0000 0.0 0 0 149.3419 60.4701" />
<path d="M147.2543 75.3241 A1.0000 1.0000 0.0 0 0 148.1054 76.4535" />
<path d="M167.1668 62.9752 A1.0000 1.0000 0.0 0 0 166.3157 61.8457" />
<path d="M163.9497 78.6803 A1.0000 1.0000 0.0 0 0 165.0792 77.8292" />
<path d="M70.9255 95.4141
L70.9255 80.4141
" />
<path d="M71.9255 79.4141
L87.9255 79.4141
" />
<path d="M87.9255 96.4141
L71.9255 96.4141
" />
<path d="M88.9255 80.4141
L88.9255 95.4141
" />
<path d="M82.4255 94.1641
L77.4255 94.1641
" />
<path d="M77.4255 94.1641
L77.4255 91.0641
" />
<path d="M77.4255 91.0641
L82.4255 91.0641
" />
<path d="M82.4255 91.0641
L82.4255 94.1641
" />
<path d="M71.9255 79.4141 A1.0000 1.0000 0.0 0 0 70.9255 80.4141" />
<path d="M70.9255 95.4141 A1.0000 1.0000 0.0 0 0 71.9255 96.4141" />
<path d="M88.9255 80.4141 A1.0000 1.0000 0.0 0 0 87.9255 79.4141" />
<path d="M87.9255 96.4141 A1.0000 1.0000 0.0 0 0 88.9255 95.4141" />
<path d="M109.7941 63.1203
L110.8405 48.1568
" />
<path d="M111.9078 47.2290
L127.8688 48.3451
" />
<path d="M126.6830 65.3037
L110.7219 64.1876
" />
<path d="M128.7966 49.4124
L127.7503 64.3759
" />
<path d="M121.3533 62.6755
L116.3655 62.3267
" />
<path d="M116.3655 62.3267
L116.5817 59.2343
" />
<path d="M116.5817 59.2343
L121.5696 59.5831
" />
<path d="M121.5696 59.5831
L121.3533 62.6755
" />
<path d="M111.9078 47.2290 A1.0000 1.0000 0.0 0 0 110.8405 48.1568" />
<path d="M109.7941 63.1203 A1.0000 1.0000 0.0 0 0 110.7219 64.1876" />
<path d="M128.7966 49.4124 A1.0000 1.0000 0.0 0 0 127.8688 48.3451" />
<path d="M126.6830 65.3037 A1.0000 1.0000 0.0 0 0 127.7503 64.3759" />
<path d="M142.1884 111.3699
L144.2760 96.5158
" />
<path d="M145.4055 95.6647
L161.2498 97.8915
" />
<path d="M158.8838 114.7261
L143.0395 112.4993
" />
<path d="M162.1009 99.0209
L160.0133 113.8750
" />
<path d="M153.7505 111.7325
L148.7991 111.0366
" />
<path d="M148.7991 111.0366
L149.2306 107.9668
" />
<path d="M149.2306 107.9668
L154.1819 108.6627
" />
<path d="M154.1819 108.6627
L153.7505 111.7325
" />
<path d="M145.4055 95.6647 A1.0000 1.0000 0.0 0 0 144.2760 96.5158" />
<path d="M142.1884 111.3699 A1.0000 1.0000 0.0 0 0 143.0395 112.4993" />
<path d="M162.1009 99.0209 A1.0000 1.0000 0.0 0 0 161.2498 97.8915" />
<path d="M158.8838 114.7261 A1.0000 1.0000 0.0 0 0 160.0133 113.8750" />
<path d="M90.8005 53.0024
L91.3240 38.0115
" />
<path d="M92.3583 37.0470
L108.3486 37.6054
" />
<path d="M107.7553 54.5951
L91.7650 54.0367
" />
<path d="M109.3131 38.6397
L108.7896 53.6306
" />
<path d="M102.3372 52.1545
L97.3402 51.9800
" />
<path d="M97.3402 51.9800
L97.4484 48.8819
" />
<path d="M97.4484 48.8819
L102.4453 49.0564
" />
<path d="M102.4453 49.0564
L102.3372 52.1545
" />
<path d="M92.3583 37.0470 A1.0000 1.0000 0.0 0 0 91.3240 38.0115" />
<path d="M90.8005 53.0024 A1.0000 1.0000 0.0 0 0 91.7650 54.0367" />
<path d="M109.3131 38.6397 A1.0000 1.0000 0.0 0 0 108.3486 37.6054" />
<path d="M107.7553 54.5951 A1.0000 1.0000 0.0 0 0 108.7896 53.6306" />
<path d="M108.5246 81.2759
L109.5709 66.3125
" />
<path d="M110.6382 65.3847
L126.5993 66.5008
" />
<path d="M125.4134 83.4593
L109.4524 82.3432
" />
<path d="M127.5271 67.5681
L126.4807 82.5315
" />
<path d="M120.0837 80.8312
L115.0959 80.4824
" />
<path d="M115.0959 80.4824
L115.3122 77.3899
" />
<path d="M115.3122 77.3899
L120.3000 77.7387
" />
<path d="M120.3000 77.7387
L120.0837 80.8312
" />
<path d="M110.6382 65.3847 A1.0000 1.0000 0.0 0 0 109.5709 66.3125" />
<path d="M108.5246 81.2759 A1.0000 1.0000 0.0 0 0 109.4524 82.3432" />
<path d="M127.5271 67.5681 A1.0000 1.0000 0.0 0 0 126.5993 66.5008" />
<path d="M125.4134 83.4593 A1.0000 1.0000 0.0 0 0 126.4807 82.5315" />
<path d="M165.0863 105.2954
L167.6910 90.5233
" />
<path d="M168.8495 89.7121
L184.6064 92.4905
" />
<path d="M181.6544 109.2322
L165.8974 106.4539
" />
<path d="M185.4175 93.6490
L182.8128 108.4211
" />
<path d="M176.6286 106.0614
L171.7046 105.1931
" />
<path d="M171.7046 105.1931
L172.2429 102.1402
" />
<path d="M172.2429 102.1402
L177.1669 103.0085
" />
<path d="M177.1669 103.0085
L176.6286 106.0614
" />
<path d="M168.8495 89.7121 A1.0000 1.0000 0.0 0 0 167.6910 90.5233" />
<path d="M165.0863 105.2954 A1.0000 1.0000 0.0 0 0 165.8974 106.4539" />
<path d="M185.4175 93.6490 A1.0000 1.0000 0.0 0 0 184.6064 92.4905" />
<path d="M181.6544 109.2322 A1.0000 1.0000 0.0 0 0 182.8128 108.4211" />
<path d="M127.7989 75.6704
L129.3668 60.7526
" />
<path d="M130.4658 59.8626
L146.3782 61.5350
" />
<path d="M144.6012 78.4419
L128.6889 76.7694
" />
<path d="M147.2682 62.6341
L145.7003 77.5519
" />
<path d="M139.3665 75.6293
L134.3939 75.1067
" />
<path d="M134.3939 75.1067
L134.7179 72.0237
" />
<path d="M134.7179 72.0237
L139.6906 72.5463
" />
<path d="M139.6906 72.5463
L139.3665 75.6293
" />
<path d="M130.4658 59.8626 A1.0000 1.0000 0.0 0 0 129.3668 60.7526" />
<path d="M127.7989 75.6704 A1.0000 1.0000 0.0 0 0 128.6889 76.7694" />
<path d="M147.2682 62.6341 A1.0000 1.0000 0.0 0 0 146.3782 61.5350" />
<path d="M144.6012 78.4419 A1.0000 1.0000 0.0 0 0 145.7003 77.5519" />
<path d="M89.5302 89.3802
L90.0537 74.3893
" />
<path d="M91.0880 73.4249
L107.0782 73.9832
" />
<path d="M106.4849 90.9729
L90.4947 90.4145
" />
<path d="M108.0427 75.0175
L107.5192 90.0084
" />
<path d="M101.0668 88.5323
L96.0699 88.3578
" />
<path d="M96.0699 88.3578
L96.1780 85.2597
" />
<path d="M96.1780 85.2597
L101.1750 85.4342
" />
<path d="M101.1750 85.4342
L101.0668 88.5323
" />
<path d="M91.0880 73.4249 A1.0000 1.0000 0.0 0 0 90.0537 74.3893" />
<path d="M89.5302 89.3802 A1.0000 1.0000 0.0 0 0 90.4947 90.4145" />
<path d="M108.0427 75.0175 A1.0000 1.0000 0.0 0 0 107.0782 73.9832" />
<path d="M106.4849 90.9729 A1.0000 1.0000 0.0 0 0 107.5192 90.0084" />
<path d="M87.6046 117.1244
L90.2093 102.3522
" />
<path d="M91.3677 101.5411
L107.1247 104.3195
" />
<path d="M104.1726 121.0612
L88.4157 118.2828
" />
<path d="M107.9358 105.4779
L105.3311 120.2500
" />
<path d="M99.1469 117.8903
L94.2229 117.0221
" />
<path d="M94.2229 117.0221
L94.7612 113.9692
" />
<path d="M94.7612 113.9692
L99.6852 114.8374
" />
<path d="M99.6852 114.8374
L99.1469 117.8903
" />
<path d="M91.3677 101.5411 A1.0000 1.0000 0.0 0 0 90.2093 102.3522" />
<path d="M87.6046 117.1244 A1.0000 1.0000 0.0 0 0 88.4157 118.2828" />
<path d="M107.9358 105.4779 A1.0000 1.0000 0.0 0 0 107.1247 104.3195" />
<path d="M104.1726 121.0612 A1.0000 1.0000 0.0 0 0 105.3311 120.2500" />
<g >
</g>
<g >
</g>
<g >
</g>
<g >
</g>
<g >
</g>
<g >
</g>
<g >
</g>
<g >
</g>
<g >
</g>
<g >
</g>
<g >
</g>
<g >
</g>
<g >
</g>
<g >
</g>
<g >
</g>
<g >
</g>
<g >
</g>
<g >
</g>
<g >
</g>
<g >
</g>
<g >
</g>
<g >
</g>
<g >
</g>
<g >
</g>
<g >
</g>
<g >
</g>
<g >
</g>
<g >
</g>
<g >
</g>
<g >
</g>
<g >
</g>
<g >
</g>
<g >
</g>
<g >
</g>
<g >
</g>
<g >
</g>
<g >
</g>
<g >
</g>
<g >
</g>
<g >
</g>
<g >
</g>
<g >
</g>
<g >
</g>
<g >
</g>
<g >
</g>
<g >
</g>
<g >
</g>
<g >
</g>
<g >
</g>
<g >
</g>
<g >
</g>
<g >
</g>
<g >
</g>
<g >
</g>
<g >
</g>
<g >
</g>
<g >
</g>
<g >
</g>
<g >
</g>
<g >
</g>
<g >
</g>
<g >
</g>
<g >
</g>
<g >
</g>
<g >
</g>
<g >
</g>
<g >
</g>
<g >
</g>
<g >
</g>
<g >
</g>
<g >
</g>
<g >
</g>
<g >
</g>
<g >
</g>
<g >
</g>
<g >
</g>
<g >
</g>
<g >
</g>
<g >
</g>
<g >
</g>
<g >
</g>
<g >
</g>
<g >
</g>
<g >
</g>
<g >
</g>
<g >
</g>
<g >
</g>
<g >
</g>
<g >
</g>
<g >
</g>
</g> 
</svg>
