<?xml version="1.0" standalone="no"?>
 <!DOCTYPE svg PUBLIC "-//W3C//DTD SVG 1.1//EN" 
 "http://www.w3.org/Graphics/SVG/1.1/DTD/svg11.dtd"> 
<svg
  xmlns:svg="http://www.w3.org/2000/svg"
  xmlns="http://www.w3.org/2000/svg"
  xmlns:xlink="http://www.w3.org/1999/xlink"
  version="1.1"
  width="297.0022mm" height="210.0072mm" viewBox="0.0000 0.0000 297.0022 210.0072">
<title>SVG Image created as nightliner-User_Drawings.svg date 2023/11/06 19:53:36 </title>
  <desc>Image generated by PCBNEW </desc>
<g style="fill:#000000; fill-opacity:1.0000;stroke:#000000; stroke-opacity:1.0000;
stroke-linecap:round; stroke-linejoin:round;"
 transform="translate(0 0) scale(1 1)">
</g>
<g style="fill:#000000; fill-opacity:0.0; 
stroke:#000000; stroke-width:0.0000; stroke-opacity:1; 
stroke-linecap:round; stroke-linejoin:round;">
</g>
<g style="fill:#000000; fill-opacity:0.0; 
stroke:#000000; stroke-width:0.2000; stroke-opacity:1; 
stroke-linecap:round; stroke-linejoin:round;">
<path d="M53.0860 35.5600 A0.7620 0.7620 0.0 0 0 52.3240 36.3220" />
<path d="M108.2231 21.0848
L135.3966 23.1318
" />
<path d="M104.3940 29.9971 A1.2951 1.2951 0.0 0 0 105.6640 28.9560" />
<path d="M33.7820 92.9640
L40.3860 92.9640
" />
<path d="M84.3280 35.5600
L69.3420 35.5600
" />
<path d="M174.7596 64.9937
L191.5160 68.0720
" />
<path d="M180.3400 122.9360 A4.0640 4.0640 0.0 0 0 184.3487 119.5401" />
<path d="M33.0200 109.4740
L33.0200 93.7260
" />
<path d="M107.1880 128.2700 A3.3408 3.3408 0.0 0 0 110.9371 125.7783" />
<path d="M107.1880 128.2700
L86.1060 124.4600
" />
<path d="M60.1766 107.0847 A2.5145 2.5145 0.0 0 0 59.1820 107.6960" />
<path d="M86.1060 124.4600
L69.8500 128.7780
" />
<path d="M38.8620 47.7520
L49.0220 47.7520
" />
<path d="M108.2231 21.0848 A1.7961 1.7961 0.0 0 0 106.1720 22.6060" />
<path d="M42.6720 117.6020 A1.7780 1.7780 0.0 0 0 45.7136 118.8529" />
<path d="M40.8940 92.4560
L40.8940 82.2960
" />
<path d="M86.8680 29.4640 A1.5240 1.5240 0.0 0 0 85.3440 30.9880" />
<path d="M42.6720 110.9980 A0.7620 0.7620 0.0 0 0 41.9100 110.2360" />
<path d="M60.1766 107.0847
L69.8460 104.3691
" />
<path d="M137.4140 34.5440
L155.2292 36.3301
" />
<path d="M38.3540 47.2440 A0.5080 0.5080 0.0 0 0 38.8620 47.7520" />
<path d="M33.7820 38.1000 A0.7620 0.7620 0.0 0 0 33.0200 38.8620" />
<path d="M106.1720 22.6060
L105.6640 28.9560
" />
<path d="M68.6284 103.0780 A1.0160 1.0160 0.0 0 0 69.3420 102.1080" />
<path d="M70.9127 35.5600
L70.8660 103.1240
" />
<path d="M59.4146 105.5607
L68.6284 103.0780
" />
<path d="M42.6720 117.6020
L42.6720 110.9980
" />
<path d="M51.5620 38.1000 A0.7620 0.7620 0.0 0 0 52.3240 37.3380" />
<path d="M33.0200 38.8620
L33.0200 81.0260
" />
<path d="M37.1975 125.6392
L49.9096 140.8187
" />
<path d="M173.9900 64.0080
L174.7520 57.4040
" />
<path d="M33.0200 81.0260 A0.7620 0.7620 0.0 0 0 33.7820 81.7880" />
<path d="M180.3400 122.9360
L112.5220 122.9360
" />
<path d="M155.6201 51.6472 A0.8606 0.8606 0.0 0 0 156.1918 52.6325" />
<path d="M110.9371 125.7783
L111.2767 123.9569
" />
<path d="M156.1918 52.6325
L173.2588 55.1743
" />
<path d="M69.8500 128.7780
L54.8640 141.2240
" />
<path d="M193.0400 70.6120 A2.0945 2.0945 0.0 0 0 191.5160 68.0720" />
<path d="M137.1600 25.1460 A2.0320 2.0320 0.0 0 0 135.3966 23.1318" />
<path d="M33.0200 109.4740 A0.7620 0.7620 0.0 0 0 33.7820 110.2360" />
<path d="M49.9096 140.8187 A3.4172 3.4172 0.0 0 0 54.8640 141.2240" />
<path d="M40.3860 92.9640 A0.5080 0.5080 0.0 0 0 40.8940 92.4560" />
<path d="M85.0900 34.7980
L85.3440 30.9880
" />
<path d="M52.3240 37.3380
L52.3240 36.3220
" />
<path d="M112.5220 122.9360 A1.2700 1.2700 0.0 0 0 111.2767 123.9569" />
<path d="M40.3860 81.7880
L33.7820 81.7880
" />
<path d="M174.7520 57.4040 A2.0478 2.0478 0.0 0 0 173.2588 55.1743" />
<path d="M38.3540 40.1320 A2.0320 2.0320 0.0 0 0 36.3220 38.1000" />
<path d="M69.8460 104.3691 A1.2700 1.2700 0.0 0 0 70.8660 103.1240" />
<path d="M33.7820 38.1000
L36.3220 38.1000
" />
<path d="M59.4146 105.5607 A2.5145 2.5145 0.0 0 0 58.4200 106.1720" />
<path d="M37.5920 123.4440
L58.4200 106.1720
" />
<path d="M45.7136 118.8529
L59.1820 107.6960
" />
<path d="M136.6520 33.2740
L137.1600 25.1460
" />
<path d="M84.3280 35.5600 A0.7620 0.7620 0.0 0 0 85.0900 34.7980" />
<path d="M193.0400 70.6120
L184.3487 119.5401
" />
<path d="M155.6201 51.6472
L156.9720 39.1160
" />
<path d="M49.0220 47.7520 A0.5080 0.5080 0.0 0 0 49.5300 47.2440" />
<path d="M49.5300 47.2440
L49.5300 40.1320
" />
<path d="M51.5620 38.1000 A2.0320 2.0320 0.0 0 0 49.5300 40.1320" />
<path d="M40.8940 82.2960 A0.5080 0.5080 0.0 0 0 40.3860 81.7880" />
<path d="M41.9100 110.2360
L33.7820 110.2360
" />
<path d="M173.9900 64.0080 A1.0160 1.0160 0.0 0 0 174.7596 64.9937" />
<path d="M33.7820 92.9640 A0.7620 0.7620 0.0 0 0 33.0200 93.7260" />
<path d="M38.3540 47.2440
L38.3540 40.1320
" />
<path d="M136.6520 33.2740 A1.0473 1.0473 0.0 0 0 137.4140 34.5440" />
<path d="M69.3420 35.5600
L69.3420 102.1080
" />
<path d="M69.2883 35.5600
L53.0860 35.5600
" />
<path d="M37.5920 123.4440 A1.4811 1.4811 0.0 0 0 37.1975 125.6392" />
<path d="M156.9720 39.1160 A2.3418 2.3418 0.0 0 0 155.2292 36.3301" />
<path d="M104.3940 29.9972
L86.8680 29.4640
" />
<g >
</g>
<g >
</g>
<g >
</g>
<g >
</g>
<g >
</g>
<g >
</g>
<g >
</g>
<g >
</g>
<g >
</g>
<g >
</g>
<g >
</g>
<g >
</g>
<g >
</g>
<g >
</g>
<g >
</g>
<g >
</g>
<g >
</g>
<g >
</g>
<g >
</g>
<g >
</g>
<g >
</g>
<g >
</g>
<g >
</g>
<g >
</g>
<g >
</g>
<g >
</g>
<g >
</g>
<g >
</g>
<g >
</g>
<g >
</g>
<g >
</g>
<g >
</g>
<g >
</g>
<g >
</g>
<g >
</g>
<g >
</g>
<g >
</g>
<g >
</g>
<g >
</g>
<g >
</g>
<g >
</g>
<g >
</g>
<g >
</g>
<g >
</g>
<g >
</g>
<g >
</g>
<g >
</g>
<g >
</g>
<g >
</g>
<g >
</g>
<g >
</g>
<g >
</g>
<g >
</g>
<g >
</g>
<g >
</g>
<g >
</g>
<g >
</g>
<g >
</g>
<g >
</g>
<g >
</g>
<g >
</g>
<g >
</g>
<g >
</g>
<g >
</g>
<g >
</g>
<g >
</g>
<g >
</g>
<g >
</g>
<g >
</g>
<g >
</g>
<g >
</g>
<g >
</g>
<g >
</g>
<g >
</g>
<g >
</g>
<g >
</g>
<g >
</g>
<g >
</g>
<g >
</g>
<g >
</g>
<g >
</g>
<g >
</g>
<g >
</g>
<g >
</g>
<g >
</g>
<g >
</g>
<g >
</g>
<g >
</g>
<g >
</g>
</g> 
</svg>
