<?xml version="1.0" encoding="UTF-8" standalone="no"?>
<svg
   version="1.1"
   width="297.0022mm"
   height="210.0072mm"
   viewBox="0.0000 0.0000 297.0022 210.0072"
   id="svg161"
   sodipodi:docname="nightliner-User_Drawings-joined.svg"
   inkscape:version="1.3 (0e150ed, 2023-07-21)"
   xmlns:inkscape="http://www.inkscape.org/namespaces/inkscape"
   xmlns:sodipodi="http://sodipodi.sourceforge.net/DTD/sodipodi-0.dtd"
   xmlns="http://www.w3.org/2000/svg"
   xmlns:svg="http://www.w3.org/2000/svg"
   xmlns:rdf="http://www.w3.org/1999/02/22-rdf-syntax-ns#"
   xmlns:cc="http://creativecommons.org/ns#"
   xmlns:dc="http://purl.org/dc/elements/1.1/">
  <sodipodi:namedview
     id="namedview161"
     pagecolor="#505050"
     bordercolor="#eeeeee"
     borderopacity="1"
     inkscape:showpageshadow="0"
     inkscape:pageopacity="0"
     inkscape:pagecheckerboard="0"
     inkscape:deskcolor="#505050"
     inkscape:document-units="mm"
     showgrid="false"
     inkscape:zoom="1.8665098"
     inkscape:cx="503.61374"
     inkscape:cy="429.1432"
     inkscape:window-width="3120"
     inkscape:window-height="1453"
     inkscape:window-x="165"
     inkscape:window-y="40"
     inkscape:window-maximized="0"
     inkscape:current-layer="layer2" />
  <defs
     id="defs161" />
  <title
     id="title1">SVG Image created as nightliner-User_Drawings.svg date 2023/11/06 17:28:25 </title>
  <desc
     id="desc1">Image generated by PCBNEW </desc>
  <g
     inkscape:groupmode="layer"
     id="layer2"
     inkscape:label="Layer 2">
    <path
       d="m 135.397,23.1318 -27.174,-2.047 c -0.474,-0.0729 -0.958,0.0468 -1.343,0.3326 -0.385,0.2857 -0.64,0.7137 -0.708,1.1886 l -0.508,6.35 c -0.121,0.6054 -0.653,1.0411 -1.27,1.0411 L 86.868,29.464 c -0.4042,0 -0.7918,0.1606 -1.0776,0.4464 -0.2858,0.2858 -0.4464,0.6734 -0.4464,1.0776 l -0.254,3.81 c 0,0.2021 -0.0803,0.3959 -0.2232,0.5388 C 84.7239,35.4797 84.5301,35.56 84.328,35.56 H 69.342 v 66.548 c 0,0.445 -0.2891,0.838 -0.7136,0.97 l -9.2138,2.483 c -0.3749,0.123 -0.7156,0.332 -0.9946,0.611 l -20.828,17.272 c -0.3665,0.22 -0.6201,0.587 -0.6957,1.008 -0.0756,0.421 0.0342,0.853 0.3012,1.187 l 12.7121,15.18 c 0.5877,0.734 1.4522,1.194 2.3898,1.271 0.9376,0.077 1.8654,-0.237 2.5646,-0.866 l 14.986,-12.446 16.256,-4.318 21.082,3.81 c 1.706,0.262 3.331,-0.817 3.749,-2.492 l 0.34,-1.821 c 0.118,-0.594 0.64,-1.021 1.245,-1.021 h 67.818 c 1.987,0 3.682,-1.436 4.009,-3.396 l 8.691,-48.928 c 0.135,-0.5389 0.05,-1.1093 -0.236,-1.5856 -0.286,-0.4764 -0.749,-0.8197 -1.288,-0.9544 L 174.76,64.9937 c -0.453,-0.1131 -0.77,-0.5195 -0.77,-0.9857 l 0.762,-6.604 c 0.126,-1.0112 -0.51,-1.9616 -1.493,-2.2297 l -17.067,-2.5418 c -0.412,-0.1373 -0.657,-0.5597 -0.572,-0.9853 l 1.352,-12.5312 c 0.277,-1.2488 -0.498,-2.4891 -1.743,-2.7859 L 137.414,34.544 c -0.561,-0.1403 -0.902,-0.7089 -0.762,-1.27 l 0.508,-8.128 c 0,-1.0184 -0.754,-1.8796 -1.763,-2.0142"
       id="switchplate"
       style="display:inline;fill:#000000;fill-opacity:0;stroke:#000000;stroke-width:0.2;stroke-linecap:round;stroke-linejoin:round;stroke-opacity:1" />
    <path
       d="m 52.324,36.322 c 0,-0.2021 0.0803,-0.3959 0.2232,-0.5388 0.1429,-0.1429 0.3367,-0.2232 0.5388,-0.2232 h 16.2023 1.6244 l -0.0467,67.564 c 0,0.605 -0.4268,1.126 -1.02,1.245 l -9.6694,2.716 c -0.3749,0.123 -0.7156,0.332 -0.9946,0.611 l -13.4684,11.157 c -0.5071,0.512 -1.2733,0.668 -1.9399,0.393 -0.6666,-0.274 -1.1017,-0.923 -1.1017,-1.644 v -6.604 c 0,-0.202 -0.0803,-0.396 -0.2232,-0.539 -0.1429,-0.143 -0.3367,-0.223 -0.5388,-0.223 h -8.128 c -0.2021,0 -0.3959,-0.08 -0.5388,-0.223 C 33.1003,109.87 33.02,109.676 33.02,109.474 V 93.726 c 0,-0.2021 0.0803,-0.3959 0.2232,-0.5388 0.1429,-0.1429 0.3367,-0.2232 0.5388,-0.2232 h 6.604 c 0.1347,0 0.2639,-0.0535 0.3592,-0.1488 0.0953,-0.0953 0.1488,-0.2245 0.1488,-0.3592 v -10.16 c 0,-0.2806 -0.2274,-0.508 -0.508,-0.508 h -6.604 c -0.2021,0 -0.3959,-0.0803 -0.5388,-0.2232 C 33.1003,81.4219 33.02,81.2281 33.02,81.026 V 38.862 c 0,-0.2021 0.0803,-0.3959 0.2232,-0.5388 C 33.3861,38.1803 33.5799,38.1 33.782,38.1 h 2.54 c 1.1222,0 2.032,0.9098 2.032,2.032 v 7.112 c 0,0.1347 0.0535,0.2639 0.1488,0.3592 0.0953,0.0953 0.2245,0.1488 0.3592,0.1488 h 10.16 c 0.1347,0 0.2639,-0.0535 0.3592,-0.1488 0.0953,-0.0953 0.1488,-0.2245 0.1488,-0.3592 v -7.112 c 0,-0.5389 0.2141,-1.0558 0.5952,-1.4368 0.381,-0.3811 0.8979,-0.5952 1.4368,-0.5952 0.2021,0 0.3959,-0.0803 0.5388,-0.2232 0.1429,-0.1429 0.2232,-0.3367 0.2232,-0.5388 z"
       id="acrylicglass"
       style="display:inline;fill:#000000;fill-opacity:0;stroke:#000000;stroke-width:0.2;stroke-linecap:round;stroke-linejoin:round;stroke-opacity:1" />
  </g>
  <metadata
     id="metadata161">
    <rdf:RDF>
      <cc:Work
         rdf:about="">
        <dc:title>SVG Image created as nightliner-User_Drawings.svg date 2023/11/06 17:28:25 </dc:title>
      </cc:Work>
    </rdf:RDF>
  </metadata>
</svg>
