<?xml version="1.0" standalone="no"?>
 <!DOCTYPE svg PUBLIC "-//W3C//DTD SVG 1.1//EN" 
 "http://www.w3.org/Graphics/SVG/1.1/DTD/svg11.dtd"> 
<svg
  xmlns:svg="http://www.w3.org/2000/svg"
  xmlns="http://www.w3.org/2000/svg"
  xmlns:xlink="http://www.w3.org/1999/xlink"
  version="1.1"
  width="297.0022mm" height="210.0072mm" viewBox="0.0000 0.0000 297.0022 210.0072">
<title>SVG Image created as nightliner-User_5.svg date 2023/11/23 22:21:13 </title>
  <desc>Image generated by PCBNEW </desc>
<g style="fill:#000000; fill-opacity:1.0000;stroke:#000000; stroke-opacity:1.0000;
stroke-linecap:round; stroke-linejoin:round;"
 transform="translate(0 0) scale(1 1)">
</g>
<g style="fill:#000000; fill-opacity:0.0; 
stroke:#000000; stroke-width:0.0000; stroke-opacity:1; 
stroke-linecap:round; stroke-linejoin:round;">
</g>
<g style="fill:#000000; fill-opacity:0.0; 
stroke:#000000; stroke-width:0.1500; stroke-opacity:1; 
stroke-linecap:round; stroke-linejoin:round;">
<path d="M177.8000 63.2461
L191.9630 65.8067
" />
<path d="M48.5140 142.4941
L30.9880 121.4121
" />
<path d="M139.9541 24.6381 A3.5651 3.5651 0.0 0 0 136.8402 20.8465" />
<path d="M106.8120 130.2032 A20.5882 20.5882 0.0 0 0 112.3507 130.0360" />
<path d="M63.6392 136.0565
L56.1340 143.0021
" />
<path d="M33.0200 33.0201
L81.2801 33.0201
" />
<path d="M94.3744 127.6759 A38.1908 38.1908 0.0 0 0 63.6392 136.0565" />
<path d="M139.5005 30.5504 A1.4810 1.4810 0.0 0 0 140.7863 32.2037" />
<path d="M81.2801 33.0200 A1.5251 1.5251 0.0 0 0 82.7846 31.7455" />
<path d="M195.3261 70.9609 A4.4022 4.4022 0.0 0 0 191.9630 65.8067" />
<path d="M30.4800 119.8881
L30.4800 35.5601
" />
<path d="M30.4800 119.8881 A2.5404 2.5404 0.0 0 0 30.9881 121.4121" />
<path d="M103.3602 25.9055
L103.7594 21.3360
" />
<path d="M101.6001 27.4321 A1.7780 1.7780 0.0 0 0 103.3602 25.9055" />
<path d="M183.0718 118.9031
L112.3507 130.0360
" />
<path d="M140.7863 32.2037
L156.4640 33.9181
" />
<path d="M82.7846 31.7455
L82.9688 28.9365
" />
<path d="M159.7254 38.5753 A4.3036 4.3036 0.0 0 0 156.4640 33.9181" />
<path d="M107.0444 18.7631
L136.8402 20.8465
" />
<path d="M106.8120 130.2032
L94.3744 127.6759
" />
<path d="M177.2982 56.5915 A3.6367 3.6367 0.0 0 0 174.5500 53.0650" />
<path d="M158.4885 49.3171 A1.2951 1.2951 0.0 0 0 159.5120 50.8000" />
<path d="M177.2982 56.5915
L176.7841 61.7221
" />
<path d="M183.0718 118.9032 A5.7474 5.7474 0.0 0 0 187.4398 114.6780" />
<path d="M159.7253 38.5753
L158.4885 49.3171
" />
<path d="M176.7841 61.7221 A1.2951 1.2951 0.0 0 0 177.8001 63.2461" />
<path d="M139.9540 24.6381
L139.5004 30.5504
" />
<path d="M195.3260 70.9609
L187.4398 114.6780
" />
<path d="M33.0200 33.0201 A2.5401 2.5401 0.0 0 0 30.4801 35.5601" />
<path d="M85.2399 27.0331
L101.6000 27.4321
" />
<path d="M48.5141 142.4941 A5.4001 5.4001 0.0 0 0 56.1340 143.0021" />
<path d="M159.5120 50.8000
L174.5500 53.0650
" />
<path d="M107.0444 18.7630 A3.0901 3.0901 0.0 0 0 103.7594 21.3360" />
<path d="M85.2399 27.0332 A2.4331 2.4331 0.0 0 0 82.9688 28.9365" />
<g >
</g>
<g >
</g>
<g >
</g>
<g >
</g>
<g >
</g>
<g >
</g>
<g >
</g>
<g >
</g>
<g >
</g>
<g >
</g>
<g >
</g>
<g >
</g>
<g >
</g>
<g >
</g>
<g >
</g>
<g >
</g>
<g >
</g>
<g >
</g>
<g >
</g>
<g >
</g>
<g >
</g>
<g >
</g>
<g >
</g>
<g >
</g>
<g >
</g>
<g >
</g>
<g >
</g>
<g >
</g>
<g >
</g>
<g >
</g>
<g >
</g>
<g >
</g>
<g >
</g>
<g >
</g>
<g >
</g>
<g >
</g>
<g >
</g>
<g >
</g>
<g >
</g>
<g >
</g>
<g >
</g>
<g >
</g>
<g >
</g>
<g >
</g>
<g >
</g>
<g >
</g>
<g >
</g>
<g >
</g>
<g >
</g>
<g >
</g>
<g >
</g>
<g >
</g>
<g >
</g>
<g >
</g>
<g >
</g>
<g >
</g>
<g >
</g>
<g >
</g>
<g >
</g>
<g >
</g>
<g >
</g>
<g >
</g>
<g >
</g>
<g >
</g>
<g >
</g>
<g >
</g>
<g >
</g>
<g >
</g>
<g >
</g>
<g >
</g>
<g >
</g>
<g >
</g>
<g >
</g>
<g >
</g>
<g >
</g>
<g >
</g>
<g >
</g>
<g >
</g>
<g >
</g>
<g >
</g>
<g >
</g>
<g >
</g>
<g >
</g>
<g >
</g>
<g >
</g>
<g >
</g>
<g >
</g>
<g >
</g>
<g >
</g>
<g >
</g>
</g> 
</svg>
