<?xml version="1.0" encoding="UTF-8" standalone="no"?>
<svg
   version="1.1"
   width="297.0022mm"
   height="210.0072mm"
   viewBox="0.0000 0.0000 297.0022 210.0072"
   id="svg251"
   sodipodi:docname="nightliner-User_3-joined.svg"
   inkscape:version="1.3 (0e150ed, 2023-07-21)"
   xmlns:inkscape="http://www.inkscape.org/namespaces/inkscape"
   xmlns:sodipodi="http://sodipodi.sourceforge.net/DTD/sodipodi-0.dtd"
   xmlns="http://www.w3.org/2000/svg"
   xmlns:svg="http://www.w3.org/2000/svg"
   xmlns:rdf="http://www.w3.org/1999/02/22-rdf-syntax-ns#"
   xmlns:cc="http://creativecommons.org/ns#"
   xmlns:dc="http://purl.org/dc/elements/1.1/">
  <sodipodi:namedview
     id="namedview251"
     pagecolor="#505050"
     bordercolor="#eeeeee"
     borderopacity="1"
     inkscape:showpageshadow="0"
     inkscape:pageopacity="0"
     inkscape:pagecheckerboard="0"
     inkscape:deskcolor="#d1d1d1"
     inkscape:document-units="mm"
     inkscape:zoom="1.1893243"
     inkscape:cx="398.54563"
     inkscape:cy="338.84787"
     inkscape:window-width="1744"
     inkscape:window-height="805"
     inkscape:window-x="60"
     inkscape:window-y="313"
     inkscape:window-maximized="0"
     inkscape:current-layer="svg251" />
  <defs
     id="defs251" />
  <title
     id="title1">SVG Image created as nightliner-User_3.svg date 2023/11/14 20:43:43 </title>
  <desc
     id="desc1">Image generated by PCBNEW </desc>
  <g
     style="fill:#000000; fill-opacity:1.0000;stroke:#000000; stroke-opacity:1.0000; stroke-linecap:round; stroke-linejoin:round;"
     transform="translate(0 0) scale(1 1)"
     id="g1" />
  <g
     style="fill:#000000; fill-opacity:0.0;  stroke:#000000; stroke-width:0.0000; stroke-opacity:1;  stroke-linecap:round; stroke-linejoin:round;"
     id="g2" />
  <path
     d="M 148.155 79.692 L 146.346 92.5655 C 146.269 93.1124 146.65 93.618 147.197 93.6949 L 160.071 95.5042 C 160.333 95.5411 160.6 95.4722 160.812 95.3126 C 161.023 95.153 161.163 94.9157 161.2 94.6531 L 163.009 81.7796 C 163.046 81.517 162.977 81.2504 162.818 81.0386 C 162.658 80.8267 162.421 80.687 162.158 80.6501 L 149.285 78.8409 C 148.738 78.7641 148.232 79.1451 148.155 79.692"
     id="path2_joined"
     style="fill:#000000;fill-opacity:0;stroke:#000000;stroke-width:0.15;stroke-linecap:round;stroke-linejoin:round;stroke-opacity:1" />
  <path
     d="M 132.656 43.8036 L 131.298 56.7324 C 131.24 57.2816 131.638 57.7737 132.188 57.8314 L 145.116 59.1903 C 145.666 59.248 146.158 58.8495 146.215 58.3003 L 147.574 45.3715 C 147.632 44.8223 147.234 44.3302 146.684 44.2725 L 133.756 42.9136 C 133.206 42.8559 132.714 43.2544 132.657 43.8036"
     id="path10_joined"
     style="fill:#000000;fill-opacity:0;stroke:#000000;stroke-width:0.15;stroke-linecap:round;stroke-linejoin:round;stroke-opacity:1" />
  <path
     d="M 113.537 31.1033 L 112.63 44.0717 C 112.591 44.6226 113.007 45.1005 113.558 45.139 L 126.526 46.0458 C 126.79 46.0643 127.052 45.977 127.252 45.803 C 127.452 45.629 127.575 45.3826 127.593 45.118 L 128.5 32.1497 C 128.539 31.5988 128.123 31.1209 127.572 31.0824 L 114.604 30.1755 C 114.339 30.157 114.078 30.2443 113.878 30.4183 C 113.678 30.5923 113.555 30.8387 113.537 31.1033"
     id="path18_joined"
     style="fill:#000000;fill-opacity:0;stroke:#000000;stroke-width:0.15;stroke-linecap:round;stroke-linejoin:round;stroke-opacity:1" />
  <path
     d="M 166.737 86.6476 L 168.995 73.8451 C 169.09 73.3012 169.609 72.938 170.153 73.0339 L 182.956 75.2913 C 183.217 75.3373 183.449 75.4853 183.601 75.7025 C 183.753 75.9198 183.813 76.1886 183.767 76.4498 L 181.509 89.2523 C 181.413 89.7962 180.895 90.1594 180.351 90.0635 L 167.548 87.806 C 167.004 87.7101 166.641 87.1915 166.737 86.6476"
     id="path26_joined"
     style="fill:#000000;fill-opacity:0;stroke:#000000;stroke-width:0.15;stroke-linecap:round;stroke-linejoin:round;stroke-opacity:1" />
  <path
     d="M 43.7615 122.168 L 52.1178 132.126 C 52.4728 132.549 53.1035 132.605 53.5266 132.25 L 63.4852 123.893 C 63.9082 123.538 63.9634 122.908 63.6084 122.485 L 55.2522 112.526 C 55.0817 112.323 54.8375 112.196 54.5733 112.173 C 54.3091 112.149 54.0465 112.232 53.8433 112.403 L 43.8848 120.759 C 43.4617 121.114 43.4065 121.745 43.7615 122.168"
     id="path34_joined"
     style="fill:#000000;fill-opacity:0;stroke:#000000;stroke-width:0.15;stroke-linecap:round;stroke-linejoin:round;stroke-opacity:1" />
  <path
     d="M 72.4255 58.0141 L 72.4255 45.0141 C 72.4255 44.7489 72.5309 44.4945 72.7184 44.307 C 72.9059 44.1195 73.1603 44.0141 73.4255 44.0141 L 86.4255 44.0141 C 86.6907 44.0141 86.9451 44.1195 87.1326 44.307 C 87.3201 44.4945 87.4255 44.7489 87.4255 45.0141 L 87.4255 58.0141 C 87.4255 58.2793 87.3201 58.5337 87.1326 58.7212 C 86.9451 58.9087 86.6907 59.0141 86.4255 59.0141 L 73.4255 59.0141 C 73.1603 59.0141 72.9059 58.9087 72.7184 58.7212 C 72.5309 58.5337 72.4255 58.2793 72.4255 58.0141"
     id="path42_joined"
     style="fill:#000000;fill-opacity:0;stroke:#000000;stroke-width:0.15;stroke-linecap:round;stroke-linejoin:round;stroke-opacity:1" />
  <path
     d="M 65.5787 107.59 L 68.9434 120.147 L 65.5787 107.59 C 65.51 107.333 65.546 107.06 65.6786 106.831 C 65.8112 106.601 66.0296 106.433 66.2858 106.365 L 78.8429 103 C 79.3763 102.857 79.9247 103.174 80.0676 103.707 L 83.4322 116.264 C 83.5009 116.52 83.4649 116.793 83.3323 117.023 C 83.1997 117.253 82.9813 117.42 82.7251 117.489 L 70.1681 120.854 C 69.6347 120.997 69.0863 120.68 68.9434 120.147"
     id="path50_joined"
     style="fill:#000000;fill-opacity:0;stroke:#000000;stroke-width:0.15;stroke-linecap:round;stroke-linejoin:round;stroke-opacity:1" />
  <path
     d="M 72.4255 76.2141 L 72.4255 63.2141 C 72.4255 62.9489 72.5309 62.6945 72.7184 62.507 C 72.9059 62.3195 73.1603 62.2141 73.4255 62.2141 L 86.4255 62.2141 C 86.6907 62.2141 86.9451 62.3195 87.1326 62.507 C 87.3201 62.6945 87.4255 62.9489 87.4255 63.2141 L 87.4255 76.2141 C 87.4255 76.4793 87.3201 76.7337 87.1326 76.9212 C 86.9451 77.1087 86.6907 77.2141 86.4255 77.2141 L 73.4255 77.2141 C 73.1603 77.2141 72.9059 77.1087 72.7184 76.9212 C 72.5309 76.7337 72.4255 76.4793 72.4255 76.2141"
     id="path58_joined"
     style="fill:#000000;fill-opacity:0;stroke:#000000;stroke-width:0.15;stroke-linecap:round;stroke-linejoin:round;stroke-opacity:1" />
  <path
     d="M 128.852 80.0042 L 127.493 92.933 C 127.435 93.4822 127.834 93.9742 128.383 94.032 L 141.311 95.3909 C 141.575 95.4186 141.839 95.3404 142.045 95.1735 C 142.252 95.0066 142.383 94.7647 142.411 94.5009 L 143.769 81.5721 C 143.827 81.0229 143.429 80.5309 142.879 80.4731 L 129.951 79.1142 C 129.687 79.0865 129.423 79.1647 129.217 79.3316 C 129.011 79.4985 128.879 79.7404 128.852 80.0042"
     id="path66_joined"
     style="fill:#000000;fill-opacity:0;stroke:#000000;stroke-width:0.15;stroke-linecap:round;stroke-linejoin:round;stroke-opacity:1" />
  <path
     d="M 92.153 57.2522 L 91.6994 70.2443 C 91.6802 70.7962 92.1119 71.2592 92.6638 71.2785 L 105.656 71.7322 C 105.921 71.7415 106.179 71.645 106.373 71.4642 C 106.567 71.2833 106.681 71.0328 106.69 70.7677 L 107.144 57.7757 C 107.153 57.5106 107.057 57.2528 106.876 57.0588 C 106.695 56.8648 106.444 56.7507 106.179 56.7414 L 93.1873 56.2877 C 92.9222 56.2784 92.6644 56.3749 92.4704 56.5557 C 92.2764 56.7366 92.1623 56.9871 92.153 57.2522"
     id="path74_joined"
     style="fill:#000000;fill-opacity:0;stroke:#000000;stroke-width:0.15;stroke-linecap:round;stroke-linejoin:round;stroke-opacity:1" />
  <path
     d="M 150.688 61.6691 L 148.879 74.5426 C 148.802 75.0895 149.183 75.5951 149.73 75.672 L 162.603 77.4813 C 163.15 77.5581 163.656 77.1771 163.733 76.6302 L 165.542 63.7567 C 165.619 63.2098 165.238 62.7042 164.691 62.6273 L 151.818 60.818 C 151.271 60.7412 150.765 61.1222 150.688 61.6691"
     id="path82_joined"
     style="fill:#000000;fill-opacity:0;stroke:#000000;stroke-width:0.15;stroke-linecap:round;stroke-linejoin:round;stroke-opacity:1" />
  <path
     d="M 72.4255 94.4141 L 72.4255 81.4141 C 72.4255 81.1489 72.5309 80.8945 72.7184 80.707 C 72.9059 80.5195 73.1603 80.4141 73.4255 80.4141 L 86.4255 80.4141 C 86.6907 80.4141 86.9451 80.5195 87.1326 80.707 C 87.3201 80.8945 87.4255 81.1489 87.4255 81.4141 L 87.4255 94.4141 C 87.4255 94.6793 87.3201 94.9337 87.1326 95.1212 C 86.9451 95.3087 86.6907 95.4141 86.4255 95.4141 L 73.4255 95.4141 C 73.1603 95.4141 72.9059 95.3087 72.7184 95.1212 C 72.5309 94.9337 72.4255 94.6793 72.4255 94.4141"
     id="path90_joined"
     style="fill:#000000;fill-opacity:0;stroke:#000000;stroke-width:0.15;stroke-linecap:round;stroke-linejoin:round;stroke-opacity:1" />
  <path
     d="M 112.267 49.259 L 111.36 62.2273 C 111.322 62.7782 111.737 63.2561 112.288 63.2946 L 125.256 64.2015 C 125.807 64.24 126.285 63.8246 126.324 63.2737 L 127.231 50.3053 C 127.269 49.7544 126.854 49.2765 126.303 49.238 L 113.334 48.3312 C 112.783 48.2927 112.306 48.7081 112.267 49.259"
     id="path98_joined"
     style="fill:#000000;fill-opacity:0;stroke:#000000;stroke-width:0.15;stroke-linecap:round;stroke-linejoin:round;stroke-opacity:1" />
  <path
     d="M 145.622 97.7149 L 143.813 110.588 C 143.776 110.851 143.845 111.118 144.005 111.329 C 144.164 111.541 144.401 111.681 144.664 111.718 L 157.538 113.527 C 158.084 113.604 158.59 113.223 158.667 112.676 L 160.476 99.8025 C 160.513 99.5399 160.444 99.2733 160.285 99.0615 C 160.125 98.8496 159.888 98.7099 159.625 98.673 L 146.752 96.8638 C 146.205 96.787 145.699 97.168 145.622 97.7149"
     id="path106_joined"
     style="fill:#000000;fill-opacity:0;stroke:#000000;stroke-width:0.15;stroke-linecap:round;stroke-linejoin:round;stroke-opacity:1" />
  <path
     d="M 92.7882 39.0633 L 92.3345 52.0553 L 92.7882 39.0633 C 92.7975 38.7982 92.9116 38.5477 93.1056 38.3668 C 93.2996 38.186 93.5574 38.0895 93.8225 38.0988 L 106.815 38.5525 C 107.08 38.5618 107.33 38.6759 107.511 38.8699 C 107.692 39.0639 107.788 39.3217 107.779 39.5868 L 107.325 52.5788 C 107.316 52.8439 107.202 53.0944 107.008 53.2753 C 106.814 53.4561 106.556 53.5526 106.291 53.5433 L 93.299 53.0896 C 93.0339 53.0803 92.7834 52.9662 92.6025 52.7722 C 92.4217 52.5782 92.3252 52.3204 92.3345 52.0553"
     id="path114_joined"
     style="fill:#000000;fill-opacity:0;stroke:#000000;stroke-width:0.15;stroke-linecap:round;stroke-linejoin:round;stroke-opacity:1" />
  <path
     d="M 110.998 67.4147 L 110.091 80.383 C 110.052 80.9339 110.468 81.4118 111.019 81.4503 L 123.987 82.3571 C 124.538 82.3956 125.016 81.9802 125.054 81.4293 L 125.961 68.461 C 126 67.9101 125.584 67.4322 125.033 67.3937 L 112.065 66.4869 C 111.514 66.4484 111.036 66.8638 110.997 67.4147"
     id="path122_joined"
     style="fill:#000000;fill-opacity:0;stroke:#000000;stroke-width:0.15;stroke-linecap:round;stroke-linejoin:round;stroke-opacity:1" />
  <path
     d="M 165.834 91.7686 L 163.577 104.571 C 163.481 105.115 163.844 105.634 164.388 105.73 L 177.19 107.987 C 177.452 108.033 177.72 107.973 177.938 107.821 C 178.155 107.669 178.303 107.437 178.349 107.176 L 180.606 94.3733 C 180.652 94.1121 180.593 93.8433 180.441 93.626 C 180.289 93.4088 180.056 93.2608 179.795 93.2148 L 166.993 90.9574 C 166.449 90.8615 165.93 91.2247 165.834 91.7686"
     id="path130_joined"
     style="fill:#000000;fill-opacity:0;stroke:#000000;stroke-width:0.15;stroke-linecap:round;stroke-linejoin:round;stroke-opacity:1" />
  <path
     d="M 130.754 61.9039 L 129.395 74.8327 C 129.338 75.3819 129.736 75.874 130.285 75.9317 L 143.214 77.2906 C 143.478 77.3183 143.742 77.2401 143.948 77.0732 C 144.154 76.9063 144.285 76.6644 144.313 76.4006 L 145.672 63.4718 C 145.73 62.9226 145.331 62.4305 144.782 62.3728 L 131.853 61.0139 C 131.589 60.9862 131.325 61.0644 131.119 61.2313 C 130.913 61.3982 130.782 61.6401 130.754 61.9039"
     id="path138_joined"
     style="fill:#000000;fill-opacity:0;stroke:#000000;stroke-width:0.15;stroke-linecap:round;stroke-linejoin:round;stroke-opacity:1" />
  <path
     d="M 91.0642 88.4332 L 91.5179 75.4411 C 91.5272 75.176 91.6413 74.9255 91.8353 74.7446 C 92.0293 74.5638 92.2871 74.4673 92.5522 74.4766 L 105.544 74.9303 C 105.809 74.9396 106.06 75.0537 106.241 75.2477 C 106.422 75.4417 106.518 75.6995 106.509 75.9646 L 106.055 88.9567 C 106.036 89.5086 105.573 89.9404 105.021 89.9212 L 92.0287 89.4675 C 91.7636 89.4582 91.5131 89.3441 91.3322 89.1501 C 91.1514 88.9561 91.0549 88.6983 91.0642 88.4332"
     id="path146_joined"
     style="fill:#000000;fill-opacity:0;stroke:#000000;stroke-width:0.15;stroke-linecap:round;stroke-linejoin:round;stroke-opacity:1" />
  <path
     d="M 91.5128 103.598 L 89.2554 116.4 C 89.2093 116.661 89.2689 116.93 89.4211 117.147 C 89.5732 117.365 89.8054 117.512 90.0666 117.559 L 102.869 119.816 C 103.413 119.912 103.932 119.549 104.028 119.005 L 106.285 106.202 C 106.381 105.658 106.018 105.14 105.474 105.044 L 92.6713 102.786 C 92.4101 102.74 92.1413 102.8 91.9241 102.952 C 91.7068 103.104 91.5589 103.336 91.5128 103.597"
     id="path154_joined"
     style="fill:#000000;fill-opacity:0;stroke:#000000;stroke-width:0.15;stroke-linecap:round;stroke-linejoin:round;stroke-opacity:1" />
  <g
     id="g161"
     style="fill:#000000;fill-opacity:0;stroke:#000000;stroke-width:0.15;stroke-linecap:round;stroke-linejoin:round;stroke-opacity:1" />
  <g
     id="g162"
     style="fill:#000000;fill-opacity:0;stroke:#000000;stroke-width:0.15;stroke-linecap:round;stroke-linejoin:round;stroke-opacity:1" />
  <g
     id="g163"
     style="fill:#000000;fill-opacity:0;stroke:#000000;stroke-width:0.15;stroke-linecap:round;stroke-linejoin:round;stroke-opacity:1" />
  <g
     id="g164"
     style="fill:#000000;fill-opacity:0;stroke:#000000;stroke-width:0.15;stroke-linecap:round;stroke-linejoin:round;stroke-opacity:1" />
  <g
     id="g165"
     style="fill:#000000;fill-opacity:0;stroke:#000000;stroke-width:0.15;stroke-linecap:round;stroke-linejoin:round;stroke-opacity:1" />
  <g
     id="g166"
     style="fill:#000000;fill-opacity:0;stroke:#000000;stroke-width:0.15;stroke-linecap:round;stroke-linejoin:round;stroke-opacity:1" />
  <g
     id="g167"
     style="fill:#000000;fill-opacity:0;stroke:#000000;stroke-width:0.15;stroke-linecap:round;stroke-linejoin:round;stroke-opacity:1" />
  <g
     id="g168"
     style="fill:#000000;fill-opacity:0;stroke:#000000;stroke-width:0.15;stroke-linecap:round;stroke-linejoin:round;stroke-opacity:1" />
  <g
     id="g169"
     style="fill:#000000;fill-opacity:0;stroke:#000000;stroke-width:0.15;stroke-linecap:round;stroke-linejoin:round;stroke-opacity:1" />
  <g
     id="g170"
     style="fill:#000000;fill-opacity:0;stroke:#000000;stroke-width:0.15;stroke-linecap:round;stroke-linejoin:round;stroke-opacity:1" />
  <g
     id="g171"
     style="fill:#000000;fill-opacity:0;stroke:#000000;stroke-width:0.15;stroke-linecap:round;stroke-linejoin:round;stroke-opacity:1" />
  <g
     id="g172"
     style="fill:#000000;fill-opacity:0;stroke:#000000;stroke-width:0.15;stroke-linecap:round;stroke-linejoin:round;stroke-opacity:1" />
  <g
     id="g173"
     style="fill:#000000;fill-opacity:0;stroke:#000000;stroke-width:0.15;stroke-linecap:round;stroke-linejoin:round;stroke-opacity:1" />
  <g
     id="g174"
     style="fill:#000000;fill-opacity:0;stroke:#000000;stroke-width:0.15;stroke-linecap:round;stroke-linejoin:round;stroke-opacity:1" />
  <g
     id="g175"
     style="fill:#000000;fill-opacity:0;stroke:#000000;stroke-width:0.15;stroke-linecap:round;stroke-linejoin:round;stroke-opacity:1" />
  <g
     id="g176"
     style="fill:#000000;fill-opacity:0;stroke:#000000;stroke-width:0.15;stroke-linecap:round;stroke-linejoin:round;stroke-opacity:1" />
  <g
     id="g177"
     style="fill:#000000;fill-opacity:0;stroke:#000000;stroke-width:0.15;stroke-linecap:round;stroke-linejoin:round;stroke-opacity:1" />
  <g
     id="g178"
     style="fill:#000000;fill-opacity:0;stroke:#000000;stroke-width:0.15;stroke-linecap:round;stroke-linejoin:round;stroke-opacity:1" />
  <g
     id="g179"
     style="fill:#000000;fill-opacity:0;stroke:#000000;stroke-width:0.15;stroke-linecap:round;stroke-linejoin:round;stroke-opacity:1" />
  <g
     id="g180"
     style="fill:#000000;fill-opacity:0;stroke:#000000;stroke-width:0.15;stroke-linecap:round;stroke-linejoin:round;stroke-opacity:1" />
  <g
     id="g181"
     style="fill:#000000;fill-opacity:0;stroke:#000000;stroke-width:0.15;stroke-linecap:round;stroke-linejoin:round;stroke-opacity:1" />
  <g
     id="g182"
     style="fill:#000000;fill-opacity:0;stroke:#000000;stroke-width:0.15;stroke-linecap:round;stroke-linejoin:round;stroke-opacity:1" />
  <g
     id="g183"
     style="fill:#000000;fill-opacity:0;stroke:#000000;stroke-width:0.15;stroke-linecap:round;stroke-linejoin:round;stroke-opacity:1" />
  <g
     id="g184"
     style="fill:#000000;fill-opacity:0;stroke:#000000;stroke-width:0.15;stroke-linecap:round;stroke-linejoin:round;stroke-opacity:1" />
  <g
     id="g185"
     style="fill:#000000;fill-opacity:0;stroke:#000000;stroke-width:0.15;stroke-linecap:round;stroke-linejoin:round;stroke-opacity:1" />
  <g
     id="g186"
     style="fill:#000000;fill-opacity:0;stroke:#000000;stroke-width:0.15;stroke-linecap:round;stroke-linejoin:round;stroke-opacity:1" />
  <g
     id="g187"
     style="fill:#000000;fill-opacity:0;stroke:#000000;stroke-width:0.15;stroke-linecap:round;stroke-linejoin:round;stroke-opacity:1" />
  <g
     id="g188"
     style="fill:#000000;fill-opacity:0;stroke:#000000;stroke-width:0.15;stroke-linecap:round;stroke-linejoin:round;stroke-opacity:1" />
  <g
     id="g189"
     style="fill:#000000;fill-opacity:0;stroke:#000000;stroke-width:0.15;stroke-linecap:round;stroke-linejoin:round;stroke-opacity:1" />
  <g
     id="g190"
     style="fill:#000000;fill-opacity:0;stroke:#000000;stroke-width:0.15;stroke-linecap:round;stroke-linejoin:round;stroke-opacity:1" />
  <g
     id="g191"
     style="fill:#000000;fill-opacity:0;stroke:#000000;stroke-width:0.15;stroke-linecap:round;stroke-linejoin:round;stroke-opacity:1" />
  <g
     id="g192"
     style="fill:#000000;fill-opacity:0;stroke:#000000;stroke-width:0.15;stroke-linecap:round;stroke-linejoin:round;stroke-opacity:1" />
  <g
     id="g193"
     style="fill:#000000;fill-opacity:0;stroke:#000000;stroke-width:0.15;stroke-linecap:round;stroke-linejoin:round;stroke-opacity:1" />
  <g
     id="g194"
     style="fill:#000000;fill-opacity:0;stroke:#000000;stroke-width:0.15;stroke-linecap:round;stroke-linejoin:round;stroke-opacity:1" />
  <g
     id="g195"
     style="fill:#000000;fill-opacity:0;stroke:#000000;stroke-width:0.15;stroke-linecap:round;stroke-linejoin:round;stroke-opacity:1" />
  <g
     id="g196"
     style="fill:#000000;fill-opacity:0;stroke:#000000;stroke-width:0.15;stroke-linecap:round;stroke-linejoin:round;stroke-opacity:1" />
  <g
     id="g197"
     style="fill:#000000;fill-opacity:0;stroke:#000000;stroke-width:0.15;stroke-linecap:round;stroke-linejoin:round;stroke-opacity:1" />
  <g
     id="g198"
     style="fill:#000000;fill-opacity:0;stroke:#000000;stroke-width:0.15;stroke-linecap:round;stroke-linejoin:round;stroke-opacity:1" />
  <g
     id="g199"
     style="fill:#000000;fill-opacity:0;stroke:#000000;stroke-width:0.15;stroke-linecap:round;stroke-linejoin:round;stroke-opacity:1" />
  <g
     id="g200"
     style="fill:#000000;fill-opacity:0;stroke:#000000;stroke-width:0.15;stroke-linecap:round;stroke-linejoin:round;stroke-opacity:1" />
  <g
     id="g201"
     style="fill:#000000;fill-opacity:0;stroke:#000000;stroke-width:0.15;stroke-linecap:round;stroke-linejoin:round;stroke-opacity:1" />
  <g
     id="g202"
     style="fill:#000000;fill-opacity:0;stroke:#000000;stroke-width:0.15;stroke-linecap:round;stroke-linejoin:round;stroke-opacity:1" />
  <g
     id="g203"
     style="fill:#000000;fill-opacity:0;stroke:#000000;stroke-width:0.15;stroke-linecap:round;stroke-linejoin:round;stroke-opacity:1" />
  <g
     id="g204"
     style="fill:#000000;fill-opacity:0;stroke:#000000;stroke-width:0.15;stroke-linecap:round;stroke-linejoin:round;stroke-opacity:1" />
  <g
     id="g205"
     style="fill:#000000;fill-opacity:0;stroke:#000000;stroke-width:0.15;stroke-linecap:round;stroke-linejoin:round;stroke-opacity:1" />
  <g
     id="g206"
     style="fill:#000000;fill-opacity:0;stroke:#000000;stroke-width:0.15;stroke-linecap:round;stroke-linejoin:round;stroke-opacity:1" />
  <g
     id="g207"
     style="fill:#000000;fill-opacity:0;stroke:#000000;stroke-width:0.15;stroke-linecap:round;stroke-linejoin:round;stroke-opacity:1" />
  <g
     id="g208"
     style="fill:#000000;fill-opacity:0;stroke:#000000;stroke-width:0.15;stroke-linecap:round;stroke-linejoin:round;stroke-opacity:1" />
  <g
     id="g209"
     style="fill:#000000;fill-opacity:0;stroke:#000000;stroke-width:0.15;stroke-linecap:round;stroke-linejoin:round;stroke-opacity:1" />
  <g
     id="g210"
     style="fill:#000000;fill-opacity:0;stroke:#000000;stroke-width:0.15;stroke-linecap:round;stroke-linejoin:round;stroke-opacity:1" />
  <g
     id="g211"
     style="fill:#000000;fill-opacity:0;stroke:#000000;stroke-width:0.15;stroke-linecap:round;stroke-linejoin:round;stroke-opacity:1" />
  <g
     id="g212"
     style="fill:#000000;fill-opacity:0;stroke:#000000;stroke-width:0.15;stroke-linecap:round;stroke-linejoin:round;stroke-opacity:1" />
  <g
     id="g213"
     style="fill:#000000;fill-opacity:0;stroke:#000000;stroke-width:0.15;stroke-linecap:round;stroke-linejoin:round;stroke-opacity:1" />
  <g
     id="g214"
     style="fill:#000000;fill-opacity:0;stroke:#000000;stroke-width:0.15;stroke-linecap:round;stroke-linejoin:round;stroke-opacity:1" />
  <g
     id="g215"
     style="fill:#000000;fill-opacity:0;stroke:#000000;stroke-width:0.15;stroke-linecap:round;stroke-linejoin:round;stroke-opacity:1" />
  <g
     id="g216"
     style="fill:#000000;fill-opacity:0;stroke:#000000;stroke-width:0.15;stroke-linecap:round;stroke-linejoin:round;stroke-opacity:1" />
  <g
     id="g217"
     style="fill:#000000;fill-opacity:0;stroke:#000000;stroke-width:0.15;stroke-linecap:round;stroke-linejoin:round;stroke-opacity:1" />
  <g
     id="g218"
     style="fill:#000000;fill-opacity:0;stroke:#000000;stroke-width:0.15;stroke-linecap:round;stroke-linejoin:round;stroke-opacity:1" />
  <g
     id="g219"
     style="fill:#000000;fill-opacity:0;stroke:#000000;stroke-width:0.15;stroke-linecap:round;stroke-linejoin:round;stroke-opacity:1" />
  <g
     id="g220"
     style="fill:#000000;fill-opacity:0;stroke:#000000;stroke-width:0.15;stroke-linecap:round;stroke-linejoin:round;stroke-opacity:1" />
  <g
     id="g221"
     style="fill:#000000;fill-opacity:0;stroke:#000000;stroke-width:0.15;stroke-linecap:round;stroke-linejoin:round;stroke-opacity:1" />
  <g
     id="g222"
     style="fill:#000000;fill-opacity:0;stroke:#000000;stroke-width:0.15;stroke-linecap:round;stroke-linejoin:round;stroke-opacity:1" />
  <g
     id="g223"
     style="fill:#000000;fill-opacity:0;stroke:#000000;stroke-width:0.15;stroke-linecap:round;stroke-linejoin:round;stroke-opacity:1" />
  <g
     id="g224"
     style="fill:#000000;fill-opacity:0;stroke:#000000;stroke-width:0.15;stroke-linecap:round;stroke-linejoin:round;stroke-opacity:1" />
  <g
     id="g225"
     style="fill:#000000;fill-opacity:0;stroke:#000000;stroke-width:0.15;stroke-linecap:round;stroke-linejoin:round;stroke-opacity:1" />
  <g
     id="g226"
     style="fill:#000000;fill-opacity:0;stroke:#000000;stroke-width:0.15;stroke-linecap:round;stroke-linejoin:round;stroke-opacity:1" />
  <g
     id="g227"
     style="fill:#000000;fill-opacity:0;stroke:#000000;stroke-width:0.15;stroke-linecap:round;stroke-linejoin:round;stroke-opacity:1" />
  <g
     id="g228"
     style="fill:#000000;fill-opacity:0;stroke:#000000;stroke-width:0.15;stroke-linecap:round;stroke-linejoin:round;stroke-opacity:1" />
  <g
     id="g229"
     style="fill:#000000;fill-opacity:0;stroke:#000000;stroke-width:0.15;stroke-linecap:round;stroke-linejoin:round;stroke-opacity:1" />
  <g
     id="g230"
     style="fill:#000000;fill-opacity:0;stroke:#000000;stroke-width:0.15;stroke-linecap:round;stroke-linejoin:round;stroke-opacity:1" />
  <g
     id="g231"
     style="fill:#000000;fill-opacity:0;stroke:#000000;stroke-width:0.15;stroke-linecap:round;stroke-linejoin:round;stroke-opacity:1" />
  <g
     id="g232"
     style="fill:#000000;fill-opacity:0;stroke:#000000;stroke-width:0.15;stroke-linecap:round;stroke-linejoin:round;stroke-opacity:1" />
  <g
     id="g233"
     style="fill:#000000;fill-opacity:0;stroke:#000000;stroke-width:0.15;stroke-linecap:round;stroke-linejoin:round;stroke-opacity:1" />
  <g
     id="g234"
     style="fill:#000000;fill-opacity:0;stroke:#000000;stroke-width:0.15;stroke-linecap:round;stroke-linejoin:round;stroke-opacity:1" />
  <g
     id="g235"
     style="fill:#000000;fill-opacity:0;stroke:#000000;stroke-width:0.15;stroke-linecap:round;stroke-linejoin:round;stroke-opacity:1" />
  <g
     id="g236"
     style="fill:#000000;fill-opacity:0;stroke:#000000;stroke-width:0.15;stroke-linecap:round;stroke-linejoin:round;stroke-opacity:1" />
  <g
     id="g237"
     style="fill:#000000;fill-opacity:0;stroke:#000000;stroke-width:0.15;stroke-linecap:round;stroke-linejoin:round;stroke-opacity:1" />
  <g
     id="g238"
     style="fill:#000000;fill-opacity:0;stroke:#000000;stroke-width:0.15;stroke-linecap:round;stroke-linejoin:round;stroke-opacity:1" />
  <g
     id="g239"
     style="fill:#000000;fill-opacity:0;stroke:#000000;stroke-width:0.15;stroke-linecap:round;stroke-linejoin:round;stroke-opacity:1" />
  <g
     id="g240"
     style="fill:#000000;fill-opacity:0;stroke:#000000;stroke-width:0.15;stroke-linecap:round;stroke-linejoin:round;stroke-opacity:1" />
  <g
     id="g241"
     style="fill:#000000;fill-opacity:0;stroke:#000000;stroke-width:0.15;stroke-linecap:round;stroke-linejoin:round;stroke-opacity:1" />
  <g
     id="g242"
     style="fill:#000000;fill-opacity:0;stroke:#000000;stroke-width:0.15;stroke-linecap:round;stroke-linejoin:round;stroke-opacity:1" />
  <g
     id="g243"
     style="fill:#000000;fill-opacity:0;stroke:#000000;stroke-width:0.15;stroke-linecap:round;stroke-linejoin:round;stroke-opacity:1" />
  <g
     id="g244"
     style="fill:#000000;fill-opacity:0;stroke:#000000;stroke-width:0.15;stroke-linecap:round;stroke-linejoin:round;stroke-opacity:1" />
  <g
     id="g245"
     style="fill:#000000;fill-opacity:0;stroke:#000000;stroke-width:0.15;stroke-linecap:round;stroke-linejoin:round;stroke-opacity:1" />
  <g
     id="g246"
     style="fill:#000000;fill-opacity:0;stroke:#000000;stroke-width:0.15;stroke-linecap:round;stroke-linejoin:round;stroke-opacity:1" />
  <g
     id="g247"
     style="fill:#000000;fill-opacity:0;stroke:#000000;stroke-width:0.15;stroke-linecap:round;stroke-linejoin:round;stroke-opacity:1" />
  <g
     id="g248"
     style="fill:#000000;fill-opacity:0;stroke:#000000;stroke-width:0.15;stroke-linecap:round;stroke-linejoin:round;stroke-opacity:1" />
  <g
     id="g249"
     style="fill:#000000;fill-opacity:0;stroke:#000000;stroke-width:0.15;stroke-linecap:round;stroke-linejoin:round;stroke-opacity:1" />
  <g
     id="g250"
     style="fill:#000000;fill-opacity:0;stroke:#000000;stroke-width:0.15;stroke-linecap:round;stroke-linejoin:round;stroke-opacity:1" />
  <metadata
     id="metadata251">
    <rdf:RDF>
      <cc:Work
         rdf:about="">
        <dc:title>SVG Image created as nightliner-User_3.svg date 2023/11/14 20:43:43 </dc:title>
      </cc:Work>
    </rdf:RDF>
  </metadata>
</svg>
