<?xml version="1.0" standalone="no"?>
 <!DOCTYPE svg PUBLIC "-//W3C//DTD SVG 1.1//EN" 
 "http://www.w3.org/Graphics/SVG/1.1/DTD/svg11.dtd"> 
<svg
  xmlns:svg="http://www.w3.org/2000/svg"
  xmlns="http://www.w3.org/2000/svg"
  xmlns:xlink="http://www.w3.org/1999/xlink"
  version="1.1"
  width="297.0022mm" height="210.0072mm" viewBox="0.0000 0.0000 297.0022 210.0072">
<title>SVG Image created as nightliner-Edge_Cuts.svg date 2023/11/06 19:53:36 </title>
  <desc>Image generated by PCBNEW </desc>
<g style="fill:#000000; fill-opacity:1.0000;stroke:#000000; stroke-opacity:1.0000;
stroke-linecap:round; stroke-linejoin:round;"
 transform="translate(0 0) scale(1 1)">
</g>
<g style="fill:#000000; fill-opacity:0.0; 
stroke:#000000; stroke-width:0.0000; stroke-opacity:1; 
stroke-linecap:round; stroke-linejoin:round;">
</g>
<g style="fill:#000000; fill-opacity:0.0; 
stroke:#000000; stroke-width:0.2000; stroke-opacity:1; 
stroke-linecap:round; stroke-linejoin:round;">
<path d="M134.6118 26.5510 A0.9999 0.9999 0.0 0 0 133.6840 25.4837" />
<path d="M171.7665 67.1947
L189.5789 70.3355
" />
<path d="M133.9572 35.9129
L134.6118 26.5510
" />
<path d="M37.5920 93.2180
L36.5760 93.2180
" />
<path d="M88.7558 31.9143
L107.1609 32.5570
" />
<path d="M53.1474 139.6789
L68.7940 126.6542
" />
<path d="M170.9499 66.0708
L172.0025 58.5807
" />
<path d="M134.8502 36.9772
L152.9740 38.8821
" />
<path d="M190.3901 71.4940 A1.0001 1.0001 0.0 0 0 189.5789 70.3355" />
<path d="M36.5760 109.4740 A1.0160 1.0160 0.0 0 0 35.5600 110.4900" />
<path d="M107.1609 32.5570 A0.9999 0.9999 0.0 0 0 108.1934 31.6274" />
<path d="M181.9246 119.5040
L190.3900 71.4940
" />
<path d="M108.1934 31.6274
L108.6752 24.7374
" />
<path d="M86.6140 38.0994 A1.0154 1.0154 0.0 0 0 87.6294 37.0840" />
<path d="M153.2625 54.9371
L171.1514 57.4513
" />
<path d="M68.7940 126.6542
L86.1329 122.0404
" />
<path d="M152.4072 53.8423 A1.0001 1.0001 0.0 0 0 153.2625 54.9371" />
<path d="M109.7425 23.8096 A1.0000 1.0000 0.0 0 0 108.6752 24.7374" />
<path d="M180.9394 120.3303
L110.3573 120.3177
" />
<path d="M108.7060 125.0788
L109.4141 121.1335
" />
<path d="M35.8140 120.6500
L51.7386 139.5556
" />
<path d="M36.5760 109.4740
L37.5920 109.4740
" />
<path d="M51.7386 139.5557 A0.9998 0.9998 0.0 0 0 53.1474 139.6789" />
<path d="M87.6294 37.0840
L87.7215 32.8788
" />
<path d="M153.8640 39.9812 A1.0001 1.0001 0.0 0 0 152.9740 38.8821" />
<path d="M109.7425 23.8096
L133.6840 25.4837
" />
<path d="M170.9499 66.0708 A1.0000 1.0000 0.0 0 0 171.7665 67.1947" />
<path d="M172.0025 58.5807 A1.0001 1.0001 0.0 0 0 171.1514 57.4513" />
<path d="M86.1329 122.0404
L107.5476 125.8900
" />
<path d="M152.4071 53.8423
L153.8640 39.9812
" />
<path d="M37.5920 109.4740 A0.7620 0.7620 0.0 0 0 38.3540 108.7120" />
<path d="M36.3220 38.1000 A0.7620 0.7620 0.0 0 0 35.5600 38.8620" />
<path d="M38.3540 108.7120
L38.3540 93.9800
" />
<path d="M88.7558 31.9143 A1.0000 1.0000 0.0 0 0 87.7215 32.8788" />
<path d="M36.3220 38.1000
L86.6140 38.1000
" />
<path d="M38.3540 93.9800 A0.7620 0.7620 0.0 0 0 37.5920 93.2180" />
<path d="M35.5600 92.2020
L35.5600 38.8620
" />
<path d="M110.3573 120.3176 A0.9877 0.9877 0.0 0 0 109.4141 121.1335" />
<path d="M180.9394 120.3303 A1.0002 1.0002 0.0 0 0 181.9246 119.5040" />
<path d="M107.5476 125.8900 A1.0000 1.0000 0.0 0 0 108.7060 125.0788" />
<path d="M133.9572 35.9129 A1.0001 1.0001 0.0 0 0 134.8502 36.9772" />
<path d="M35.5600 92.2020 A1.0160 1.0160 0.0 0 0 36.5760 93.2180" />
<path d="M35.5600 119.8880 A1.2700 1.2700 0.0 0 0 35.8140 120.6500" />
<path d="M35.5600 119.8880
L35.5600 110.4900
" />
<g >
</g>
<g >
</g>
<g >
</g>
<g >
</g>
<g >
</g>
<g >
</g>
<g >
</g>
<g >
</g>
<g >
</g>
<g >
</g>
<g >
</g>
<g >
</g>
<g >
</g>
<g >
</g>
<g >
</g>
<g >
</g>
<g >
</g>
<g >
</g>
<g >
</g>
<g >
</g>
<g >
</g>
<g >
</g>
<g >
</g>
<g >
</g>
<g >
</g>
<g >
</g>
<g >
</g>
<g >
</g>
<g >
</g>
<g >
</g>
<g >
</g>
<g >
</g>
<g >
</g>
<g >
</g>
<g >
</g>
<g >
</g>
<g >
</g>
<g >
</g>
<g >
</g>
<g >
</g>
<g >
</g>
<g >
</g>
<g >
</g>
<g >
</g>
<g >
</g>
<g >
</g>
<g >
</g>
<g >
</g>
<g >
</g>
<g >
</g>
<g >
</g>
<g >
</g>
<g >
</g>
<g >
</g>
<g >
</g>
<g >
</g>
<g >
</g>
<g >
</g>
<g >
</g>
<g >
</g>
<g >
</g>
<g >
</g>
<g >
</g>
<g >
</g>
<g >
</g>
<g >
</g>
<g >
</g>
<g >
</g>
<g >
</g>
<g >
</g>
<g >
</g>
<g >
</g>
<g >
</g>
<g >
</g>
<g >
</g>
<g >
</g>
<g >
</g>
<g >
</g>
<g >
</g>
<g >
</g>
<g >
</g>
<g >
</g>
<g >
</g>
<g >
</g>
<g >
</g>
<g >
</g>
<g >
</g>
<g >
</g>
<g >
</g>
</g> 
</svg>
