<?xml version="1.0" standalone="no"?>
 <!DOCTYPE svg PUBLIC "-//W3C//DTD SVG 1.1//EN" 
 "http://www.w3.org/Graphics/SVG/1.1/DTD/svg11.dtd"> 
<svg
  xmlns:svg="http://www.w3.org/2000/svg"
  xmlns="http://www.w3.org/2000/svg"
  xmlns:xlink="http://www.w3.org/1999/xlink"
  version="1.1"
  width="297.0022mm" height="210.0072mm" viewBox="0.0000 0.0000 297.0022 210.0072">
<title>SVG Image created as nightliner-User_3.svg date 2023/12/03 14:29:59 </title>
  <desc>Image generated by PCBNEW </desc>
<g style="fill:#000000; fill-opacity:1.0000;stroke:#000000; stroke-opacity:1.0000;
stroke-linecap:round; stroke-linejoin:round;"
 transform="translate(0 0) scale(1 1)">
</g>
<g style="fill:#000000; fill-opacity:0.0; 
stroke:#000000; stroke-width:0.0000; stroke-opacity:1; 
stroke-linecap:round; stroke-linejoin:round;">
</g>
<g style="fill:#000000; fill-opacity:0.0; 
stroke:#000000; stroke-width:0.1500; stroke-opacity:1; 
stroke-linecap:round; stroke-linejoin:round;">
<path d="M146.3460 92.5655
L148.1552 79.6920
" />
<path d="M149.2846 78.8409
L162.1581 80.6501
" />
<path d="M160.0705 95.5042
L147.1971 93.6949
" />
<path d="M163.0092 81.7796
L161.2000 94.6531
" />
<path d="M149.2846 78.8409 A1.0000 1.0000 0.0 0 0 148.1552 79.6920" />
<path d="M146.3460 92.5655 A1.0000 1.0000 0.0 0 0 147.1971 93.6949" />
<path d="M163.0092 81.7796 A1.0000 1.0000 0.0 0 0 162.1581 80.6501" />
<path d="M160.0705 95.5042 A1.0000 1.0000 0.0 0 0 161.2000 94.6531" />
<path d="M131.2976 56.7324
L132.6565 43.8036
" />
<path d="M133.7555 42.9136
L146.6843 44.2725
" />
<path d="M145.1164 59.1903
L132.1876 57.8314
" />
<path d="M147.5743 45.3715
L146.2154 58.3003
" />
<path d="M133.7555 42.9136 A1.0000 1.0000 0.0 0 0 132.6565 43.8036" />
<path d="M131.2976 56.7324 A1.0000 1.0000 0.0 0 0 132.1876 57.8314" />
<path d="M147.5743 45.3715 A1.0000 1.0000 0.0 0 0 146.6843 44.2725" />
<path d="M145.1164 59.1903 A1.0000 1.0000 0.0 0 0 146.2154 58.3003" />
<path d="M112.6298 44.0717
L113.5366 31.1033
" />
<path d="M114.6040 30.1755
L127.5723 31.0824
" />
<path d="M126.5259 46.0458
L113.5576 45.1390
" />
<path d="M128.5001 32.1497
L127.5933 45.1180
" />
<path d="M114.6040 30.1755 A1.0000 1.0000 0.0 0 0 113.5366 31.1033" />
<path d="M112.6298 44.0717 A1.0000 1.0000 0.0 0 0 113.5576 45.1390" />
<path d="M128.5001 32.1497 A1.0000 1.0000 0.0 0 0 127.5723 31.0824" />
<path d="M126.5259 46.0458 A1.0000 1.0000 0.0 0 0 127.5933 45.1180" />
<path d="M166.7371 86.6476
L168.9946 73.8451
" />
<path d="M170.1530 73.0339
L182.9555 75.2913
" />
<path d="M180.3508 90.0635
L167.5483 87.8060
" />
<path d="M183.7667 76.4498
L181.5092 89.2523
" />
<path d="M170.1530 73.0339 A1.0000 1.0000 0.0 0 0 168.9946 73.8451" />
<path d="M166.7371 86.6476 A1.0000 1.0000 0.0 0 0 167.5483 87.8060" />
<path d="M183.7667 76.4498 A1.0000 1.0000 0.0 0 0 182.9555 75.2913" />
<path d="M180.3508 90.0635 A1.0000 1.0000 0.0 0 0 181.5092 89.2523" />
<path d="M52.1178 132.1264
L43.7615 122.1678
" />
<path d="M43.8848 120.7590
L53.8433 112.4027
" />
<path d="M63.4852 123.8934
L53.5266 132.2496
" />
<path d="M55.2522 112.5260
L63.6084 122.4846
" />
<path d="M43.8848 120.7590 A1.0000 1.0000 0.0 0 0 43.7615 122.1678" />
<path d="M52.1178 132.1264 A1.0000 1.0000 0.0 0 0 53.5266 132.2496" />
<path d="M55.2522 112.5260 A1.0000 1.0000 0.0 0 0 53.8433 112.4027" />
<path d="M63.4852 123.8934 A1.0000 1.0000 0.0 0 0 63.6084 122.4846" />
<path d="M72.4255 58.0141
L72.4255 45.0141
" />
<path d="M73.4255 44.0141
L86.4255 44.0141
" />
<path d="M86.4255 59.0141
L73.4255 59.0141
" />
<path d="M87.4255 45.0141
L87.4255 58.0141
" />
<path d="M73.4255 44.0141 A1.0000 1.0000 0.0 0 0 72.4255 45.0141" />
<path d="M72.4255 58.0141 A1.0000 1.0000 0.0 0 0 73.4255 59.0141" />
<path d="M87.4255 45.0141 A1.0000 1.0000 0.0 0 0 86.4255 44.0141" />
<path d="M86.4255 59.0141 A1.0000 1.0000 0.0 0 0 87.4255 58.0141" />
<path d="M68.9434 120.1466
L65.5787 107.5896
" />
<path d="M66.2858 106.3648
L78.8429 103.0002
" />
<path d="M82.7251 117.4891
L70.1681 120.8537
" />
<path d="M80.0676 103.7073
L83.4322 116.2643
" />
<path d="M66.2858 106.3648 A1.0000 1.0000 0.0 0 0 65.5787 107.5896" />
<path d="M68.9434 120.1466 A1.0000 1.0000 0.0 0 0 70.1681 120.8537" />
<path d="M80.0676 103.7073 A1.0000 1.0000 0.0 0 0 78.8429 103.0002" />
<path d="M82.7251 117.4891 A1.0000 1.0000 0.0 0 0 83.4322 116.2643" />
<path d="M72.4255 76.2141
L72.4255 63.2141
" />
<path d="M73.4255 62.2141
L86.4255 62.2141
" />
<path d="M86.4255 77.2141
L73.4255 77.2141
" />
<path d="M87.4255 63.2141
L87.4255 76.2141
" />
<path d="M73.4255 62.2141 A1.0000 1.0000 0.0 0 0 72.4255 63.2141" />
<path d="M72.4255 76.2141 A1.0000 1.0000 0.0 0 0 73.4255 77.2141" />
<path d="M87.4255 63.2141 A1.0000 1.0000 0.0 0 0 86.4255 62.2141" />
<path d="M86.4255 77.2141 A1.0000 1.0000 0.0 0 0 87.4255 76.2141" />
<path d="M127.4928 92.9330
L128.8516 80.0042
" />
<path d="M129.9507 79.1142
L142.8795 80.4731
" />
<path d="M141.3115 95.3909
L128.3827 94.0320
" />
<path d="M143.7694 81.5721
L142.4106 94.5009
" />
<path d="M129.9507 79.1142 A1.0000 1.0000 0.0 0 0 128.8516 80.0042" />
<path d="M127.4928 92.9330 A1.0000 1.0000 0.0 0 0 128.3827 94.0320" />
<path d="M143.7694 81.5721 A1.0000 1.0000 0.0 0 0 142.8795 80.4731" />
<path d="M141.3115 95.3909 A1.0000 1.0000 0.0 0 0 142.4106 94.5009" />
<path d="M91.6994 70.2443
L92.1530 57.2522
" />
<path d="M93.1873 56.2877
L106.1794 56.7414
" />
<path d="M105.6559 71.7322
L92.6638 71.2785
" />
<path d="M107.1439 57.7757
L106.6902 70.7677
" />
<path d="M93.1873 56.2877 A1.0000 1.0000 0.0 0 0 92.1530 57.2522" />
<path d="M91.6994 70.2443 A1.0000 1.0000 0.0 0 0 92.6638 71.2785" />
<path d="M107.1439 57.7757 A1.0000 1.0000 0.0 0 0 106.1794 56.7414" />
<path d="M105.6559 71.7322 A1.0000 1.0000 0.0 0 0 106.6902 70.7677" />
<path d="M148.8789 74.5426
L150.6882 61.6691
" />
<path d="M151.8176 60.8180
L164.6911 62.6273
" />
<path d="M162.6035 77.4813
L149.7300 75.6720
" />
<path d="M165.5422 63.7567
L163.7329 76.6302
" />
<path d="M151.8176 60.8180 A1.0000 1.0000 0.0 0 0 150.6882 61.6691" />
<path d="M148.8789 74.5426 A1.0000 1.0000 0.0 0 0 149.7300 75.6720" />
<path d="M165.5422 63.7567 A1.0000 1.0000 0.0 0 0 164.6911 62.6273" />
<path d="M162.6035 77.4813 A1.0000 1.0000 0.0 0 0 163.7329 76.6302" />
<path d="M72.4255 94.4141
L72.4255 81.4141
" />
<path d="M73.4255 80.4141
L86.4255 80.4141
" />
<path d="M86.4255 95.4141
L73.4255 95.4141
" />
<path d="M87.4255 81.4141
L87.4255 94.4141
" />
<path d="M73.4255 80.4141 A1.0000 1.0000 0.0 0 0 72.4255 81.4141" />
<path d="M72.4255 94.4141 A1.0000 1.0000 0.0 0 0 73.4255 95.4141" />
<path d="M87.4255 81.4141 A1.0000 1.0000 0.0 0 0 86.4255 80.4141" />
<path d="M86.4255 95.4141 A1.0000 1.0000 0.0 0 0 87.4255 94.4141" />
<path d="M111.3602 62.2273
L112.2671 49.2590
" />
<path d="M113.3344 48.3312
L126.3027 49.2380
" />
<path d="M125.2564 64.2015
L112.2880 63.2946
" />
<path d="M127.2305 50.3053
L126.3237 63.2737
" />
<path d="M113.3344 48.3312 A1.0000 1.0000 0.0 0 0 112.2671 49.2590" />
<path d="M111.3602 62.2273 A1.0000 1.0000 0.0 0 0 112.2880 63.2946" />
<path d="M127.2305 50.3053 A1.0000 1.0000 0.0 0 0 126.3027 49.2380" />
<path d="M125.2564 64.2015 A1.0000 1.0000 0.0 0 0 126.3237 63.2737" />
<path d="M143.8130 110.5883
L145.6223 97.7149
" />
<path d="M146.7517 96.8638
L159.6252 98.6730
" />
<path d="M157.5376 113.5270
L144.6641 111.7178
" />
<path d="M160.4763 99.8025
L158.6670 112.6759
" />
<path d="M146.7517 96.8638 A1.0000 1.0000 0.0 0 0 145.6223 97.7149" />
<path d="M143.8130 110.5883 A1.0000 1.0000 0.0 0 0 144.6641 111.7178" />
<path d="M160.4763 99.8025 A1.0000 1.0000 0.0 0 0 159.6252 98.6730" />
<path d="M157.5376 113.5270 A1.0000 1.0000 0.0 0 0 158.6670 112.6759" />
<path d="M92.3345 52.0553
L92.7882 39.0633
" />
<path d="M93.8225 38.0988
L106.8146 38.5525
" />
<path d="M106.2911 53.5433
L93.2990 53.0896
" />
<path d="M107.7791 39.5868
L107.3254 52.5788
" />
<path d="M93.8225 38.0988 A1.0000 1.0000 0.0 0 0 92.7882 39.0633" />
<path d="M92.3345 52.0553 A1.0000 1.0000 0.0 0 0 93.2990 53.0896" />
<path d="M107.7791 39.5868 A1.0000 1.0000 0.0 0 0 106.8146 38.5525" />
<path d="M106.2911 53.5433 A1.0000 1.0000 0.0 0 0 107.3254 52.5788" />
<path d="M110.0907 80.3830
L110.9975 67.4147
" />
<path d="M112.0648 66.4869
L125.0332 67.3937
" />
<path d="M123.9868 82.3571
L111.0185 81.4503
" />
<path d="M125.9610 68.4610
L125.0541 81.4293
" />
<path d="M112.0648 66.4869 A1.0000 1.0000 0.0 0 0 110.9975 67.4147" />
<path d="M110.0907 80.3830 A1.0000 1.0000 0.0 0 0 111.0185 81.4503" />
<path d="M125.9610 68.4610 A1.0000 1.0000 0.0 0 0 125.0332 67.3937" />
<path d="M123.9868 82.3571 A1.0000 1.0000 0.0 0 0 125.0541 81.4293" />
<path d="M163.5767 104.5711
L165.8342 91.7686
" />
<path d="M166.9926 90.9574
L179.7951 93.2148
" />
<path d="M177.1904 107.9870
L164.3879 105.7295
" />
<path d="M180.6063 94.3733
L178.3489 107.1758
" />
<path d="M166.9926 90.9574 A1.0000 1.0000 0.0 0 0 165.8342 91.7686" />
<path d="M163.5767 104.5711 A1.0000 1.0000 0.0 0 0 164.3879 105.7295" />
<path d="M180.6063 94.3733 A1.0000 1.0000 0.0 0 0 179.7951 93.2148" />
<path d="M177.1904 107.9870 A1.0000 1.0000 0.0 0 0 178.3489 107.1758" />
<path d="M129.3952 74.8327
L130.7540 61.9039
" />
<path d="M131.8531 61.0139
L144.7819 62.3728
" />
<path d="M143.2139 77.2906
L130.2852 75.9317
" />
<path d="M145.6719 63.4718
L144.3130 76.4006
" />
<path d="M131.8531 61.0139 A1.0000 1.0000 0.0 0 0 130.7540 61.9039" />
<path d="M129.3952 74.8327 A1.0000 1.0000 0.0 0 0 130.2852 75.9317" />
<path d="M145.6719 63.4718 A1.0000 1.0000 0.0 0 0 144.7819 62.3728" />
<path d="M143.2139 77.2906 A1.0000 1.0000 0.0 0 0 144.3130 76.4006" />
<path d="M91.0642 88.4332
L91.5179 75.4411
" />
<path d="M92.5522 74.4766
L105.5442 74.9303
" />
<path d="M105.0208 89.9212
L92.0287 89.4675
" />
<path d="M106.5087 75.9646
L106.0550 88.9567
" />
<path d="M92.5522 74.4766 A1.0000 1.0000 0.0 0 0 91.5179 75.4411" />
<path d="M91.0642 88.4332 A1.0000 1.0000 0.0 0 0 92.0287 89.4675" />
<path d="M106.5087 75.9646 A1.0000 1.0000 0.0 0 0 105.5442 74.9303" />
<path d="M105.0208 89.9212 A1.0000 1.0000 0.0 0 0 106.0550 88.9567" />
<path d="M89.2554 116.4000
L91.5128 103.5975
" />
<path d="M92.6713 102.7864
L105.4738 105.0438
" />
<path d="M102.8691 119.8159
L90.0666 117.5585
" />
<path d="M106.2850 106.2022
L104.0275 119.0047
" />
<path d="M92.6713 102.7864 A1.0000 1.0000 0.0 0 0 91.5128 103.5975" />
<path d="M89.2554 116.4000 A1.0000 1.0000 0.0 0 0 90.0666 117.5585" />
<path d="M106.2850 106.2022 A1.0000 1.0000 0.0 0 0 105.4738 105.0438" />
<path d="M102.8691 119.8159 A1.0000 1.0000 0.0 0 0 104.0275 119.0047" />
<g >
</g>
<g >
</g>
<g >
</g>
<g >
</g>
<g >
</g>
<g >
</g>
<g >
</g>
<g >
</g>
<g >
</g>
<g >
</g>
<g >
</g>
<g >
</g>
<g >
</g>
<g >
</g>
<g >
</g>
<g >
</g>
<g >
</g>
<g >
</g>
<g >
</g>
<g >
</g>
<g >
</g>
<g >
</g>
<g >
</g>
<g >
</g>
<g >
</g>
<g >
</g>
<g >
</g>
<g >
</g>
<g >
</g>
<g >
</g>
<g >
</g>
<g >
</g>
<g >
</g>
<g >
</g>
<g >
</g>
<g >
</g>
<g >
</g>
<g >
</g>
<g >
</g>
<g >
</g>
<g >
</g>
<g >
</g>
<g >
</g>
<g >
</g>
<g >
</g>
<g >
</g>
<g >
</g>
<g >
</g>
<g >
</g>
<g >
</g>
<g >
</g>
<g >
</g>
<g >
</g>
<g >
</g>
<g >
</g>
<g >
</g>
<g >
</g>
<g >
</g>
<g >
</g>
<g >
</g>
<g >
</g>
<g >
</g>
<g >
</g>
<g >
</g>
<g >
</g>
<g >
</g>
<g >
</g>
<g >
</g>
<g >
</g>
<g >
</g>
<g >
</g>
<g >
</g>
<g >
</g>
<g >
</g>
<g >
</g>
<g >
</g>
<g >
</g>
<g >
</g>
<g >
</g>
<g >
</g>
<g >
</g>
<g >
</g>
<g >
</g>
<g >
</g>
<g >
</g>
<g >
</g>
<g >
</g>
<g >
</g>
<g >
</g>
<g >
</g>
</g> 
</svg>
