<?xml version="1.0" standalone="no"?>
 <!DOCTYPE svg PUBLIC "-//W3C//DTD SVG 1.1//EN" 
 "http://www.w3.org/Graphics/SVG/1.1/DTD/svg11.dtd"> 
<svg
  xmlns:svg="http://www.w3.org/2000/svg"
  xmlns="http://www.w3.org/2000/svg"
  xmlns:xlink="http://www.w3.org/1999/xlink"
  version="1.1"
  width="297.0022mm" height="210.0072mm" viewBox="0.0000 0.0000 297.0022 210.0072">
<title>SVG Image created as nightliner-User_2.svg date 2023/12/03 14:29:59 </title>
  <desc>Image generated by PCBNEW </desc>
<g style="fill:#000000; fill-opacity:1.0000;stroke:#000000; stroke-opacity:1.0000;
stroke-linecap:round; stroke-linejoin:round;"
 transform="translate(0 0) scale(1 1)">
</g>
<g style="fill:#000000; fill-opacity:0.0; 
stroke:#000000; stroke-width:0.0000; stroke-opacity:1; 
stroke-linecap:round; stroke-linejoin:round;">
</g>
<g style="fill:#000000; fill-opacity:0.0; 
stroke:#000000; stroke-width:0.1500; stroke-opacity:1; 
stroke-linecap:round; stroke-linejoin:round;">
<path d="M147.0236 92.0548
L148.6659 80.3696
" />
<path d="M149.7953 79.5186
L161.4805 81.1608
" />
<path d="M159.5599 94.8265
L147.8747 93.1842
" />
<path d="M162.3316 82.2902
L160.6893 93.9754
" />
<path d="M149.7953 79.5186 A1.0000 1.0000 0.0 0 0 148.6659 80.3696" />
<path d="M147.0236 92.0548 A1.0000 1.0000 0.0 0 0 147.8747 93.1842" />
<path d="M162.3316 82.2902 A1.0000 1.0000 0.0 0 0 161.4805 81.1608" />
<path d="M159.5599 94.8265 A1.0000 1.0000 0.0 0 0 160.6893 93.9754" />
<path d="M131.9570 56.1984
L133.1905 44.4630
" />
<path d="M134.2895 43.5730
L146.0249 44.8065
" />
<path d="M144.5824 58.5309
L132.8470 57.2974
" />
<path d="M146.9149 45.9055
L145.6814 57.6409
" />
<path d="M134.2895 43.5730 A1.0000 1.0000 0.0 0 0 133.1905 44.4630" />
<path d="M131.9570 56.1984 A1.0000 1.0000 0.0 0 0 132.8470 57.2974" />
<path d="M146.9149 45.9055 A1.0000 1.0000 0.0 0 0 146.0249 44.8065" />
<path d="M144.5824 58.5309 A1.0000 1.0000 0.0 0 0 145.6814 57.6409" />
<path d="M113.2702 43.5150
L114.0933 31.7437
" />
<path d="M115.1606 30.8159
L126.9319 31.6390
" />
<path d="M125.9693 45.4054
L114.1980 44.5823
" />
<path d="M127.8597 32.7064
L127.0366 44.4776
" />
<path d="M115.1606 30.8159 A1.0000 1.0000 0.0 0 0 114.0933 31.7437" />
<path d="M113.2702 43.5150 A1.0000 1.0000 0.0 0 0 114.1980 44.5823" />
<path d="M127.8597 32.7064 A1.0000 1.0000 0.0 0 0 126.9319 31.6390" />
<path d="M125.9693 45.4054 A1.0000 1.0000 0.0 0 0 127.0366 44.4776" />
<path d="M167.4322 86.1609
L169.4813 74.5401
" />
<path d="M170.6397 73.7290
L182.2604 75.7780
" />
<path d="M179.8641 89.3684
L168.2434 87.3193
" />
<path d="M183.0716 76.9365
L181.0226 88.5572
" />
<path d="M170.6397 73.7290 A1.0000 1.0000 0.0 0 0 169.4813 74.5402" />
<path d="M167.4322 86.1609 A1.0000 1.0000 0.0 0 0 168.2434 87.3193" />
<path d="M183.0716 76.9365 A1.0000 1.0000 0.0 0 0 182.2604 75.7780" />
<path d="M179.8641 89.3684 A1.0000 1.0000 0.0 0 0 181.0226 88.5572" />
<path d="M52.1917 131.2811
L44.6068 122.2418
" />
<path d="M44.7301 120.8329
L53.7694 113.2480
" />
<path d="M62.6399 123.8194
L53.6005 131.4043
" />
<path d="M55.1782 113.3713
L62.7631 122.4106
" />
<path d="M44.7301 120.8329 A1.0000 1.0000 0.0 0 0 44.6068 122.2418" />
<path d="M52.1917 131.2811 A1.0000 1.0000 0.0 0 0 53.6005 131.4043" />
<path d="M55.1782 113.3713 A1.0000 1.0000 0.0 0 0 53.7694 113.2480" />
<path d="M62.6399 123.8194 A1.0000 1.0000 0.0 0 0 62.7631 122.4106" />
<path d="M73.0255 57.4141
L73.0255 45.6141
" />
<path d="M74.0255 44.6141
L85.8255 44.6141
" />
<path d="M85.8255 58.4141
L74.0255 58.4141
" />
<path d="M86.8255 45.6141
L86.8255 57.4141
" />
<path d="M74.0255 44.6141 A1.0000 1.0000 0.0 0 0 73.0255 45.6141" />
<path d="M73.0255 57.4141 A1.0000 1.0000 0.0 0 0 74.0255 58.4141" />
<path d="M86.8255 45.6141 A1.0000 1.0000 0.0 0 0 85.8255 44.6141" />
<path d="M85.8255 58.4141 A1.0000 1.0000 0.0 0 0 86.8255 57.4141" />
<path d="M69.3676 119.4117
L66.3136 108.0138
" />
<path d="M67.0207 106.7891
L78.4186 103.7350
" />
<path d="M81.9903 117.0648
L70.5924 120.1189
" />
<path d="M79.6433 104.4421
L82.6974 115.8400
" />
<path d="M67.0207 106.7891 A1.0000 1.0000 0.0 0 0 66.3136 108.0138" />
<path d="M69.3676 119.4117 A1.0000 1.0000 0.0 0 0 70.5924 120.1189" />
<path d="M79.6433 104.4421 A1.0000 1.0000 0.0 0 0 78.4186 103.7350" />
<path d="M81.9903 117.0648 A1.0000 1.0000 0.0 0 0 82.6974 115.8400" />
<path d="M73.0255 75.6141
L73.0255 63.8141
" />
<path d="M74.0255 62.8141
L85.8255 62.8141
" />
<path d="M85.8255 76.6141
L74.0255 76.6141
" />
<path d="M86.8255 63.8141
L86.8255 75.6141
" />
<path d="M74.0255 62.8141 A1.0000 1.0000 0.0 0 0 73.0255 63.8141" />
<path d="M73.0255 75.6141 A1.0000 1.0000 0.0 0 0 74.0255 76.6141" />
<path d="M86.8255 63.8141 A1.0000 1.0000 0.0 0 0 85.8255 62.8141" />
<path d="M85.8255 76.6141 A1.0000 1.0000 0.0 0 0 86.8255 75.6141" />
<path d="M128.1522 92.3990
L129.3856 80.6636
" />
<path d="M130.4847 79.7736
L142.2200 81.0071
" />
<path d="M140.7775 94.7315
L129.0422 93.4980
" />
<path d="M143.1100 82.1061
L141.8766 93.8415
" />
<path d="M130.4847 79.7736 A1.0000 1.0000 0.0 0 0 129.3856 80.6636" />
<path d="M128.1522 92.3990 A1.0000 1.0000 0.0 0 0 129.0422 93.4980" />
<path d="M143.1100 82.1061 A1.0000 1.0000 0.0 0 0 142.2200 81.0071" />
<path d="M140.7775 94.7315 A1.0000 1.0000 0.0 0 0 141.8766 93.8415" />
<path d="M92.3199 69.6656
L92.7317 57.8727
" />
<path d="M93.7660 56.9083
L105.5588 57.3201
" />
<path d="M105.0772 71.1117
L93.2844 70.6999
" />
<path d="M106.5233 58.3544
L106.1115 70.1472
" />
<path d="M93.7660 56.9083 A1.0000 1.0000 0.0 0 0 92.7317 57.8728" />
<path d="M92.3199 69.6656 A1.0000 1.0000 0.0 0 0 93.2844 70.6999" />
<path d="M106.5233 58.3544 A1.0000 1.0000 0.0 0 0 105.5588 57.3201" />
<path d="M105.0772 71.1117 A1.0000 1.0000 0.0 0 0 106.1115 70.1472" />
<path d="M149.5566 74.0319
L151.1988 62.3468
" />
<path d="M152.3283 61.4957
L164.0134 63.1379
" />
<path d="M162.0928 76.8036
L150.4077 75.1614
" />
<path d="M164.8645 64.2674
L163.2223 75.9525
" />
<path d="M152.3283 61.4957 A1.0000 1.0000 0.0 0 0 151.1988 62.3468" />
<path d="M149.5566 74.0319 A1.0000 1.0000 0.0 0 0 150.4077 75.1614" />
<path d="M164.8645 64.2674 A1.0000 1.0000 0.0 0 0 164.0134 63.1379" />
<path d="M162.0928 76.8036 A1.0000 1.0000 0.0 0 0 163.2223 75.9525" />
<path d="M73.0255 93.8141
L73.0255 82.0141
" />
<path d="M74.0255 81.0141
L85.8255 81.0141
" />
<path d="M85.8255 94.8141
L74.0255 94.8141
" />
<path d="M86.8255 82.0141
L86.8255 93.8141
" />
<path d="M74.0255 81.0141 A1.0000 1.0000 0.0 0 0 73.0255 82.0141" />
<path d="M73.0255 93.8141 A1.0000 1.0000 0.0 0 0 74.0255 94.8141" />
<path d="M86.8255 82.0141 A1.0000 1.0000 0.0 0 0 85.8255 81.0141" />
<path d="M85.8255 94.8141 A1.0000 1.0000 0.0 0 0 86.8255 93.8141" />
<path d="M112.0006 61.6706
L112.8238 49.8994
" />
<path d="M113.8911 48.9716
L125.6623 49.7947
" />
<path d="M124.6997 63.5611
L112.9284 62.7380
" />
<path d="M126.5901 50.8620
L125.7670 62.6333
" />
<path d="M113.8911 48.9716 A1.0000 1.0000 0.0 0 0 112.8238 49.8994" />
<path d="M112.0006 61.6706 A1.0000 1.0000 0.0 0 0 112.9284 62.7380" />
<path d="M126.5901 50.8620 A1.0000 1.0000 0.0 0 0 125.6623 49.7947" />
<path d="M124.6997 63.5611 A1.0000 1.0000 0.0 0 0 125.7670 62.6333" />
<path d="M144.4907 110.0777
L146.1329 98.3925
" />
<path d="M147.2624 97.5414
L158.9475 99.1837
" />
<path d="M157.0269 112.8494
L145.3418 111.2071
" />
<path d="M159.7986 100.3131
L158.1564 111.9983
" />
<path d="M147.2624 97.5414 A1.0000 1.0000 0.0 0 0 146.1329 98.3925" />
<path d="M144.4907 110.0777 A1.0000 1.0000 0.0 0 0 145.3418 111.2071" />
<path d="M159.7986 100.3131 A1.0000 1.0000 0.0 0 0 158.9475 99.1837" />
<path d="M157.0269 112.8494 A1.0000 1.0000 0.0 0 0 158.1564 111.9983" />
<path d="M92.9551 51.4766
L93.3669 39.6838
" />
<path d="M94.4012 38.7193
L106.1940 39.1312
" />
<path d="M105.7124 52.9228
L93.9196 52.5109
" />
<path d="M107.1585 40.1654
L106.7467 51.9583
" />
<path d="M94.4012 38.7193 A1.0000 1.0000 0.0 0 0 93.3669 39.6838" />
<path d="M92.9551 51.4766 A1.0000 1.0000 0.0 0 0 93.9196 52.5109" />
<path d="M107.1585 40.1654 A1.0000 1.0000 0.0 0 0 106.1940 39.1312" />
<path d="M105.7124 52.9228 A1.0000 1.0000 0.0 0 0 106.7467 51.9583" />
<path d="M110.7311 79.8263
L111.5542 68.0551
" />
<path d="M112.6215 67.1272
L124.3928 67.9504
" />
<path d="M123.4301 81.7168
L111.6589 80.8936
" />
<path d="M125.3206 69.0177
L124.4974 80.7889
" />
<path d="M112.6215 67.1272 A1.0000 1.0000 0.0 0 0 111.5542 68.0551" />
<path d="M110.7311 79.8263 A1.0000 1.0000 0.0 0 0 111.6589 80.8936" />
<path d="M125.3206 69.0177 A1.0000 1.0000 0.0 0 0 124.3928 67.9504" />
<path d="M123.4301 81.7168 A1.0000 1.0000 0.0 0 0 124.4974 80.7889" />
<path d="M164.2718 104.0844
L166.3209 92.4637
" />
<path d="M167.4793 91.6525
L179.1000 93.7015
" />
<path d="M176.7037 107.2919
L165.0830 105.2428
" />
<path d="M179.9112 94.8600
L177.8622 106.4807
" />
<path d="M167.4793 91.6525 A1.0000 1.0000 0.0 0 0 166.3209 92.4637" />
<path d="M164.2718 104.0844 A1.0000 1.0000 0.0 0 0 165.0830 105.2428" />
<path d="M179.9112 94.8600 A1.0000 1.0000 0.0 0 0 179.1000 93.7015" />
<path d="M176.7037 107.2919 A1.0000 1.0000 0.0 0 0 177.8622 106.4807" />
<path d="M130.0546 74.2987
L131.2880 62.5633
" />
<path d="M132.3871 61.6733
L144.1224 62.9068
" />
<path d="M142.6799 76.6312
L130.9446 75.3977
" />
<path d="M145.0124 64.0058
L143.7790 75.7412
" />
<path d="M132.3871 61.6733 A1.0000 1.0000 0.0 0 0 131.2880 62.5633" />
<path d="M130.0546 74.2987 A1.0000 1.0000 0.0 0 0 130.9446 75.3977" />
<path d="M145.0124 64.0058 A1.0000 1.0000 0.0 0 0 144.1224 62.9068" />
<path d="M142.6800 76.6312 A1.0000 1.0000 0.0 0 0 143.7790 75.7412" />
<path d="M91.6848 87.8545
L92.0966 76.0617
" />
<path d="M93.1309 75.0972
L104.9237 75.5090
" />
<path d="M104.4421 89.3006
L92.6492 88.8888
" />
<path d="M105.8882 76.5433
L105.4763 88.3361
" />
<path d="M93.1309 75.0972 A1.0000 1.0000 0.0 0 0 92.0966 76.0617" />
<path d="M91.6848 87.8545 A1.0000 1.0000 0.0 0 0 92.6492 88.8888" />
<path d="M105.8882 76.5433 A1.0000 1.0000 0.0 0 0 104.9237 75.5090" />
<path d="M104.4421 89.3006 A1.0000 1.0000 0.0 0 0 105.4763 88.3361" />
<path d="M89.9505 115.9133
L91.9995 104.2926
" />
<path d="M93.1580 103.4814
L104.7787 105.5305
" />
<path d="M102.3824 119.1208
L90.7616 117.0718
" />
<path d="M105.5899 106.6889
L103.5408 118.3097
" />
<path d="M93.1580 103.4814 A1.0000 1.0000 0.0 0 0 91.9995 104.2926" />
<path d="M89.9505 115.9133 A1.0000 1.0000 0.0 0 0 90.7616 117.0718" />
<path d="M105.5899 106.6889 A1.0000 1.0000 0.0 0 0 104.7787 105.5305" />
<path d="M102.3824 119.1208 A1.0000 1.0000 0.0 0 0 103.5408 118.3097" />
<circle cx="149.2678" cy="58.1660" r="1.6000" /> 
<circle cx="88.9000" cy="78.7400" r="1.6000" /> 
<circle cx="127.6778" cy="77.2160" r="1.6000" /> 
<circle cx="63.5000" cy="115.8240" r="1.6000" /> 
<circle cx="106.9340" cy="100.8381" r="1.6000" /> 
<circle cx="110.2360" cy="47.4980" r="1.6000" /> 
<circle cx="165.1000" cy="79.5020" r="1.6000" /> 
<g >
</g>
<g >
</g>
<g >
</g>
<g >
</g>
<g >
</g>
<g >
</g>
<g >
</g>
<g >
</g>
<g >
</g>
<g >
</g>
<g >
</g>
<g >
</g>
<g >
</g>
<g >
</g>
<g >
</g>
<g >
</g>
<g >
</g>
<g >
</g>
<g >
</g>
<g >
</g>
<g >
</g>
<g >
</g>
<g >
</g>
<g >
</g>
<g >
</g>
<g >
</g>
<g >
</g>
<g >
</g>
<g >
</g>
<g >
</g>
<g >
</g>
<g >
</g>
<g >
</g>
<g >
</g>
<g >
</g>
<g >
</g>
<g >
</g>
<g >
</g>
<g >
</g>
<g >
</g>
<g >
</g>
<g >
</g>
<g >
</g>
<g >
</g>
<g >
</g>
<g >
</g>
<g >
</g>
<g >
</g>
<g >
</g>
<g >
</g>
<g >
</g>
<g >
</g>
<g >
</g>
<g >
</g>
<g >
</g>
<g >
</g>
<g >
</g>
<g >
</g>
<g >
</g>
<g >
</g>
<g >
</g>
<g >
</g>
<g >
</g>
<g >
</g>
<g >
</g>
<g >
</g>
<g >
</g>
<g >
</g>
<g >
</g>
<g >
</g>
<g >
</g>
<g >
</g>
<g >
</g>
<g >
</g>
<g >
</g>
<g >
</g>
<g >
</g>
<g >
</g>
<g >
</g>
<g >
</g>
<g >
</g>
<g >
</g>
<g >
</g>
<g >
</g>
<g >
</g>
<g >
</g>
<g >
</g>
<g >
</g>
<g >
</g>
<g >
</g>
</g> 
</svg>
