<?xml version="1.0" standalone="no"?>
 <!DOCTYPE svg PUBLIC "-//W3C//DTD SVG 1.1//EN" 
 "http://www.w3.org/Graphics/SVG/1.1/DTD/svg11.dtd"> 
<svg
  xmlns:svg="http://www.w3.org/2000/svg"
  xmlns="http://www.w3.org/2000/svg"
  xmlns:xlink="http://www.w3.org/1999/xlink"
  version="1.1"
  width="297.0022mm" height="210.0072mm" viewBox="0.0000 0.0000 297.0022 210.0072">
<title>SVG Image created as nightliner-User_Drawings.svg date 2023/11/13 23:09:45 </title>
  <desc>Image generated by PCBNEW </desc>
<g style="fill:#000000; fill-opacity:1.0000;stroke:#000000; stroke-opacity:1.0000;
stroke-linecap:round; stroke-linejoin:round;"
 transform="translate(0 0) scale(1 1)">
</g>
<g style="fill:#000000; fill-opacity:0.0; 
stroke:#000000; stroke-width:0.0000; stroke-opacity:1; 
stroke-linecap:round; stroke-linejoin:round;">
</g>
<g style="fill:#000000; fill-opacity:0.0; 
stroke:#000000; stroke-width:0.2000; stroke-opacity:1; 
stroke-linecap:round; stroke-linejoin:round;">
<path d="M42.6720 110.9981 A0.7620 0.7620 0.0 0 0 41.9100 110.2361" />
<path d="M104.3940 29.9972
L86.8680 29.4641
" />
<path d="M41.9100 110.2361
L33.7820 110.2361
" />
<path d="M137.4140 34.5441
L155.2293 36.3302
" />
<path d="M69.3420 35.5601
L69.3420 102.1081
" />
<path d="M52.3240 37.3381
L52.3240 36.3221
" />
<path d="M68.6284 103.0780 A1.0158 1.0158 0.0 0 0 69.3420 102.1081" />
<path d="M33.7820 38.1001 A0.7621 0.7621 0.0 0 0 33.0200 38.8621" />
<path d="M45.7136 118.8529
L59.1820 107.6961
" />
<path d="M33.7820 38.1001
L36.3220 38.1001
" />
<path d="M60.1767 107.0847 A2.5145 2.5145 0.0 0 0 59.1820 107.6961" />
<path d="M136.6521 33.2741 A1.0472 1.0472 0.0 0 0 137.4140 34.5441" />
<path d="M193.0400 70.6121
L185.1660 113.7869
" />
<path d="M111.2800 127.9825
L182.3230 116.5924
" />
<path d="M193.0401 70.6121 A2.0946 2.0946 0.0 0 0 191.5160 68.0721" />
<path d="M60.1767 107.0847
L69.8461 104.3692
" />
<path d="M182.3230 116.5925 A3.3401 3.3401 0.0 0 0 185.1660 113.7869" />
<path d="M59.4147 105.5607
L68.6284 103.0780
" />
<path d="M38.3540 47.2441
L38.3540 40.1321
" />
<path d="M137.1600 25.1461 A2.0320 2.0320 0.0 0 0 135.3966 23.1319" />
<path d="M174.7596 64.9937
L191.5160 68.0721
" />
<path d="M104.3940 29.9972 A1.2951 1.2951 0.0 0 0 105.6640 28.9561" />
<path d="M108.2231 21.0849
L135.3966 23.1319
" />
<path d="M69.2883 35.5601
L53.0860 35.5601
" />
<path d="M38.3540 47.2441 A0.5080 0.5080 0.0 0 0 38.8620 47.7521" />
<path d="M37.5920 123.4441
L58.4200 106.1721
" />
<path d="M84.3280 35.5601 A0.7619 0.7619 0.0 0 0 85.0900 34.7981" />
<path d="M86.8680 29.4641 A1.5241 1.5241 0.0 0 0 85.3440 30.9881" />
<path d="M37.5920 123.4441 A1.4811 1.4811 0.0 0 0 37.1975 125.6393" />
<path d="M84.3280 35.5601
L69.3420 35.5601
" />
<path d="M106.9340 128.0160 A18.4006 18.4006 0.0 0 0 111.2800 127.9825" />
<path d="M51.5620 38.1001 A2.0321 2.0321 0.0 0 0 49.5300 40.1321" />
<path d="M33.0200 109.4741 A0.7620 0.7620 0.0 0 0 33.7820 110.2361" />
<path d="M38.8620 47.7521
L49.0220 47.7521
" />
<path d="M85.0900 34.7981
L85.3440 30.9881
" />
<path d="M70.9127 35.5601
L70.8660 103.1241
" />
<path d="M155.6201 51.6473
L156.9720 39.1161
" />
<path d="M33.0200 38.8621
L33.0200 109.4741
" />
<path d="M155.6201 51.6473 A0.8606 0.8606 0.0 0 0 156.1919 52.6325" />
<path d="M173.9900 64.0081
L174.7520 57.4041
" />
<path d="M42.6720 117.6021
L42.6720 110.9981
" />
<path d="M69.8461 104.3692 A1.2698 1.2698 0.0 0 0 70.8660 103.1241" />
<path d="M37.1975 125.6393
L50.0380 140.7161
" />
<path d="M106.1720 22.6061
L105.6640 28.9561
" />
<path d="M49.0220 47.7521 A0.5079 0.5079 0.0 0 0 49.5300 47.2441" />
<path d="M38.3540 40.1321 A2.0320 2.0320 0.0 0 0 36.3220 38.1001" />
<path d="M174.7521 57.4041 A2.0479 2.0479 0.0 0 0 173.2589 55.1744" />
<path d="M156.9721 39.1161 A2.3418 2.3418 0.0 0 0 155.2293 36.3302" />
<path d="M173.9901 64.0081 A1.0159 1.0159 0.0 0 0 174.7596 64.9937" />
<path d="M94.7420 125.7301 A40.1706 40.1706 0.0 0 0 62.3964 134.5151" />
<path d="M50.0381 140.7161 A3.2528 3.2528 0.0 0 0 54.6100 141.2241" />
<path d="M54.6100 141.2241
L62.3964 134.5151
" />
<path d="M53.0860 35.5601 A0.7621 0.7621 0.0 0 0 52.3240 36.3221" />
<path d="M42.6721 117.6021 A1.7780 1.7780 0.0 0 0 45.7136 118.8529" />
<path d="M49.5300 47.2441
L49.5300 40.1321
" />
<path d="M156.1919 52.6325
L173.2589 55.1744
" />
<path d="M136.6520 33.2741
L137.1600 25.1461
" />
<path d="M108.2231 21.0850 A1.7960 1.7960 0.0 0 0 106.1720 22.6061" />
<path d="M59.4147 105.5607 A2.5145 2.5145 0.0 0 0 58.4200 106.1721" />
<path d="M106.9340 128.0161
L94.7420 125.7301
" />
<path d="M51.5620 38.1001 A0.7619 0.7619 0.0 0 0 52.3240 37.3381" />
<g >
</g>
<g >
</g>
<g >
</g>
<g >
</g>
<g >
</g>
<g >
</g>
<g >
</g>
<g >
</g>
<g >
</g>
<g >
</g>
<g >
</g>
<g >
</g>
<g >
</g>
<g >
</g>
<g >
</g>
<g >
</g>
<g >
</g>
<g >
</g>
<g >
</g>
<g >
</g>
<g >
</g>
<g >
</g>
<g >
</g>
<g >
</g>
<g >
</g>
<g >
</g>
<g >
</g>
<g >
</g>
<g >
</g>
<g >
</g>
<g >
</g>
<g >
</g>
<g >
</g>
<g >
</g>
<g >
</g>
<g >
</g>
<g >
</g>
<g >
</g>
<g >
</g>
<g >
</g>
<g >
</g>
<g >
</g>
<g >
</g>
<g >
</g>
<g >
</g>
<g >
</g>
<g >
</g>
<g >
</g>
<g >
</g>
<g >
</g>
<g >
</g>
<g >
</g>
<g >
</g>
<g >
</g>
<g >
</g>
<g >
</g>
<g >
</g>
<g >
</g>
<g >
</g>
<g >
</g>
<g >
</g>
<g >
</g>
<g >
</g>
<g >
</g>
<g >
</g>
<g >
</g>
<g >
</g>
<g >
</g>
<g >
</g>
<g >
</g>
<g >
</g>
<g >
</g>
<g >
</g>
<g >
</g>
<g >
</g>
<g >
</g>
<g >
</g>
<g >
</g>
<g >
</g>
<g >
</g>
<g >
</g>
<g >
</g>
<g >
</g>
<g >
</g>
<g >
</g>
<g >
</g>
<g >
</g>
<g >
</g>
<g >
</g>
<g >
</g>
</g> 
</svg>
