<?xml version="1.0" encoding="UTF-8" standalone="no"?>
<svg
   version="1.1"
   width="297.0022mm"
   height="210.0072mm"
   viewBox="0.0000 0.0000 297.0022 210.0072"
   id="svg256"
   sodipodi:docname="nightliner-User_2-joined.svg"
   inkscape:version="1.3 (0e150ed, 2023-07-21)"
   xmlns:inkscape="http://www.inkscape.org/namespaces/inkscape"
   xmlns:sodipodi="http://sodipodi.sourceforge.net/DTD/sodipodi-0.dtd"
   xmlns="http://www.w3.org/2000/svg"
   xmlns:svg="http://www.w3.org/2000/svg"
   xmlns:rdf="http://www.w3.org/1999/02/22-rdf-syntax-ns#"
   xmlns:cc="http://creativecommons.org/ns#"
   xmlns:dc="http://purl.org/dc/elements/1.1/">
  <sodipodi:namedview
     id="namedview256"
     pagecolor="#505050"
     bordercolor="#eeeeee"
     borderopacity="1"
     inkscape:showpageshadow="0"
     inkscape:pageopacity="0"
     inkscape:pagecheckerboard="0"
     inkscape:deskcolor="#505050"
     inkscape:document-units="mm"
     inkscape:zoom="3.0274788"
     inkscape:cx="408.5908"
     inkscape:cy="453.67782"
     inkscape:window-width="3504"
     inkscape:window-height="1212"
     inkscape:window-x="0"
     inkscape:window-y="25"
     inkscape:window-maximized="0"
     inkscape:current-layer="svg256" />
  <defs
     id="defs256" />
  <title
     id="title1">SVG Image created as nightliner-User_2.svg date 2023/11/06 19:53:37 </title>
  <desc
     id="desc1">Image generated by PCBNEW </desc>
  <g
     style="fill:#000000; fill-opacity:1.0000;stroke:#000000; stroke-opacity:1.0000; stroke-linecap:round; stroke-linejoin:round;"
     transform="translate(0 0) scale(1 1)"
     id="g1" />
  <g
     style="fill:#000000; fill-opacity:0.0;  stroke:#000000; stroke-width:0.0000; stroke-opacity:1;  stroke-linecap:round; stroke-linejoin:round;"
     id="g2" />
  <path
     d="M 148.666 80.3696 L 147.024 92.0548 C 146.947 92.6017 147.328 93.1073 147.875 93.1842 L 159.56 94.8265 C 160.107 94.9033 160.612 94.5223 160.689 93.9754 L 162.332 82.2902 C 162.408 81.7433 162.027 81.2377 161.481 81.1608 L 149.795 79.5186 C 149.248 79.4418 148.743 79.8227 148.666 80.3696"
     id="path2_joined"
     style="fill:#000000;fill-opacity:0;stroke:#000000;stroke-width:0.15;stroke-linecap:round;stroke-linejoin:round;stroke-opacity:1" />
  <path
     d="M 133.19 44.463 L 131.957 56.1984 C 131.899 56.7476 132.298 57.2397 132.847 57.2974 L 144.582 58.5309 C 145.132 58.5886 145.624 58.1901 145.681 57.6409 L 146.915 45.9055 C 146.973 45.3563 146.574 44.8642 146.025 44.8065 L 134.29 43.573 C 133.74 43.5153 133.248 43.9138 133.191 44.463"
     id="path10_joined"
     style="fill:#000000;fill-opacity:0;stroke:#000000;stroke-width:0.15;stroke-linecap:round;stroke-linejoin:round;stroke-opacity:1" />
  <path
     d="M 114.093 31.7437 L 113.27 43.515 C 113.232 44.0659 113.647 44.5438 114.198 44.5823 L 125.969 45.4054 C 126.52 45.4439 126.998 45.0285 127.037 44.4776 L 127.86 32.7064 C 127.878 32.4418 127.791 32.1807 127.617 31.9805 C 127.443 31.7804 127.196 31.6575 126.932 31.639 L 115.161 30.8159 C 114.61 30.7774 114.132 31.1928 114.093 31.7437"
     id="path18_joined"
     style="fill:#000000;fill-opacity:0;stroke:#000000;stroke-width:0.15;stroke-linecap:round;stroke-linejoin:round;stroke-opacity:1" />
  <path
     d="M 166.321 74.5401 L 164.272 86.1609 C 164.176 86.7048 164.539 87.2234 165.083 87.3193 L 176.704 89.3684 C 176.965 89.4145 177.234 89.3549 177.451 89.2027 C 177.668 89.0506 177.816 88.8184 177.862 88.5572 L 179.911 76.9365 C 179.957 76.6753 179.898 76.4065 179.746 76.1892 C 179.593 75.972 179.361 75.824 179.1 75.778 L 167.479 73.729 C 166.935 73.6331 166.417 73.9963 166.321 74.5402"
     id="path26_joined"
     style="fill:#000000;fill-opacity:0;stroke:#000000;stroke-width:0.15;stroke-linecap:round;stroke-linejoin:round;stroke-opacity:1" />
  <path
     d="M 44.6068 122.242 L 52.1917 131.281 C 52.5467 131.704 53.1774 131.759 53.6005 131.404 L 62.6399 123.819 C 63.0629 123.464 63.1181 122.834 62.7631 122.411 L 55.1782 113.371 C 54.8232 112.948 54.1925 112.893 53.7694 113.248 L 44.7301 120.833 C 44.5269 121.003 44.3998 121.248 44.3766 121.512 C 44.3535 121.776 44.4363 122.039 44.6068 122.242"
     id="path34_joined"
     style="fill:#000000;fill-opacity:0;stroke:#000000;stroke-width:0.15;stroke-linecap:round;stroke-linejoin:round;stroke-opacity:1" />
  <path
     d="M 73.0255 45.6141 L 73.0255 57.4141 C 73.0255 57.6793 73.1309 57.9337 73.3184 58.1212 C 73.5059 58.3087 73.7603 58.4141 74.0255 58.4141 L 85.8255 58.4141 C 86.0907 58.4141 86.3451 58.3087 86.5326 58.1212 C 86.7201 57.9337 86.8255 57.6793 86.8255 57.4141 L 86.8255 45.6141 C 86.8255 45.3489 86.7201 45.0945 86.5326 44.907 C 86.3451 44.7195 86.0907 44.6141 85.8255 44.6141 L 74.0255 44.6141 C 73.7603 44.6141 73.5059 44.7195 73.3184 44.907 C 73.1309 45.0945 73.0255 45.3489 73.0255 45.6141"
     id="path42_joined"
     style="fill:#000000;fill-opacity:0;stroke:#000000;stroke-width:0.15;stroke-linecap:round;stroke-linejoin:round;stroke-opacity:1" />
  <path
     d="M 66.3136 108.014 L 69.3676 119.412 C 69.4362 119.668 69.6038 119.886 69.8335 120.019 C 70.0632 120.152 70.3362 120.188 70.5924 120.119 L 81.9903 117.065 C 82.2465 116.996 82.4649 116.829 82.5975 116.599 C 82.7301 116.369 82.7661 116.096 82.6974 115.84 L 79.6433 104.442 C 79.5004 103.909 78.952 103.592 78.4186 103.735 L 67.0207 106.789 C 66.4873 106.932 66.1707 107.48 66.3136 108.014"
     id="path50_joined"
     style="fill:#000000;fill-opacity:0;stroke:#000000;stroke-width:0.15;stroke-linecap:round;stroke-linejoin:round;stroke-opacity:1" />
  <path
     d="M 73.0255 63.8141 L 73.0255 75.6141 C 73.0255 75.8793 73.1309 76.1337 73.3184 76.3212 C 73.5059 76.5087 73.7603 76.6141 74.0255 76.6141 L 85.8255 76.6141 C 86.0907 76.6141 86.3451 76.5087 86.5326 76.3212 C 86.7201 76.1337 86.8255 75.8793 86.8255 75.6141 L 86.8255 63.8141 C 86.8255 63.5489 86.7201 63.2945 86.5326 63.107 C 86.3451 62.9195 86.0907 62.8141 85.8255 62.8141 L 74.0255 62.8141 C 73.7603 62.8141 73.5059 62.9195 73.3184 63.107 C 73.1309 63.2945 73.0255 63.5489 73.0255 63.8141"
     id="path58_joined"
     style="fill:#000000;fill-opacity:0;stroke:#000000;stroke-width:0.15;stroke-linecap:round;stroke-linejoin:round;stroke-opacity:1" />
  <path
     d="M 129.386 80.6636 L 128.152 92.399 C 128.095 92.9482 128.493 93.4403 129.042 93.498 L 140.778 94.7315 C 141.041 94.7592 141.305 94.681 141.511 94.5141 C 141.718 94.3472 141.849 94.1053 141.877 93.8415 L 143.11 82.1061 C 143.168 81.5569 142.769 81.0648 142.22 81.0071 L 130.485 79.7736 C 130.221 79.7459 129.957 79.8241 129.751 79.991 C 129.545 80.1579 129.413 80.3998 129.386 80.6636"
     id="path66_joined"
     style="fill:#000000;fill-opacity:0;stroke:#000000;stroke-width:0.15;stroke-linecap:round;stroke-linejoin:round;stroke-opacity:1" />
  <path
     d="M 92.7317 57.8727 L 92.3199 69.6656 C 92.3106 69.9307 92.4071 70.1885 92.5879 70.3825 C 92.7688 70.5765 93.0193 70.6906 93.2844 70.6999 L 105.077 71.1117 C 105.342 71.121 105.6 71.0245 105.794 70.8437 C 105.988 70.6628 106.102 70.4123 106.112 70.1472 L 106.523 58.3544 C 106.533 58.0893 106.436 57.8315 106.255 57.6375 C 106.074 57.4435 105.824 57.3294 105.559 57.3201 L 93.766 56.9083 C 93.5009 56.899 93.2431 56.9955 93.0491 57.1763 C 92.8551 57.3572 92.741 57.6077 92.7317 57.8728"
     id="path74_joined"
     style="fill:#000000;fill-opacity:0;stroke:#000000;stroke-width:0.15;stroke-linecap:round;stroke-linejoin:round;stroke-opacity:1" />
  <path
     d="M 151.199 62.3468 L 149.557 74.0319 C 149.52 74.2945 149.589 74.5611 149.748 74.7729 C 149.908 74.9848 150.145 75.1245 150.408 75.1614 L 162.093 76.8036 C 162.355 76.8405 162.622 76.7716 162.834 76.612 C 163.046 76.4524 163.185 76.2151 163.222 75.9525 L 164.864 64.2674 C 164.901 64.0048 164.833 63.7382 164.673 63.5264 C 164.513 63.3145 164.276 63.1748 164.013 63.1379 L 152.328 61.4957 C 152.066 61.4588 151.799 61.5277 151.587 61.6873 C 151.375 61.8469 151.236 62.0842 151.199 62.3468"
     id="path82_joined"
     style="fill:#000000;fill-opacity:0;stroke:#000000;stroke-width:0.15;stroke-linecap:round;stroke-linejoin:round;stroke-opacity:1" />
  <path
     d="M 73.0255 93.8141 L 73.0255 82.0141 C 73.0255 81.7489 73.1309 81.4945 73.3184 81.307 C 73.5059 81.1195 73.7603 81.0141 74.0255 81.0141 L 85.8255 81.0141 C 86.0907 81.0141 86.3451 81.1195 86.5326 81.307 C 86.7201 81.4945 86.8255 81.7489 86.8255 82.0141 L 86.8255 93.8141 C 86.8255 94.0793 86.7201 94.3337 86.5326 94.5212 C 86.3451 94.7087 86.0907 94.8141 85.8255 94.8141 L 74.0255 94.8141 C 73.7603 94.8141 73.5059 94.7087 73.3184 94.5212 C 73.1309 94.3337 73.0255 94.0793 73.0255 93.8141"
     id="path90_joined"
     style="fill:#000000;fill-opacity:0;stroke:#000000;stroke-width:0.15;stroke-linecap:round;stroke-linejoin:round;stroke-opacity:1" />
  <path
     d="M 112.824 49.8994 L 112.001 61.6706 C 111.982 61.9352 112.069 62.1963 112.243 62.3965 C 112.417 62.5966 112.664 62.7195 112.928 62.738 L 124.7 63.5611 C 125.251 63.5996 125.728 63.1842 125.767 62.6333 L 126.59 50.862 C 126.629 50.3111 126.213 49.8332 125.662 49.7947 L 113.891 48.9716 C 113.34 48.9331 112.862 49.3485 112.824 49.8994"
     id="path98_joined"
     style="fill:#000000;fill-opacity:0;stroke:#000000;stroke-width:0.15;stroke-linecap:round;stroke-linejoin:round;stroke-opacity:1" />
  <path
     d="M 146.133 98.3925 L 144.491 110.078 L 146.133 98.3925 C 146.17 98.1299 146.31 97.8926 146.521 97.733 C 146.733 97.5734 147 97.5045 147.262 97.5414 L 158.948 99.1837 C 159.494 99.2606 159.875 99.7662 159.799 100.313 L 158.156 111.998 C 158.119 112.261 157.98 112.498 157.768 112.658 C 157.556 112.817 157.29 112.886 157.027 112.849 L 145.342 111.207 C 144.795 111.13 144.414 110.625 144.491 110.078"
     id="path106_joined"
     style="fill:#000000;fill-opacity:0;stroke:#000000;stroke-width:0.15;stroke-linecap:round;stroke-linejoin:round;stroke-opacity:1" />
  <path
     d="M 92.9551 51.4766 L 93.3669 39.6838 C 93.3762 39.4187 93.4903 39.1682 93.6843 38.9873 C 93.8783 38.8065 94.1361 38.71 94.4012 38.7193 L 106.194 39.1312 C 106.746 39.1505 107.178 39.6135 107.159 40.1654 L 106.747 51.9583 C 106.737 52.2234 106.623 52.4739 106.429 52.6548 C 106.235 52.8356 105.977 52.9321 105.712 52.9228 L 93.9196 52.5109 C 93.6545 52.5016 93.404 52.3875 93.2231 52.1935 C 93.0423 51.9995 92.9458 51.7417 92.9551 51.4766"
     id="path114_joined"
     style="fill:#000000;fill-opacity:0;stroke:#000000;stroke-width:0.15;stroke-linecap:round;stroke-linejoin:round;stroke-opacity:1" />
  <path
     d="M 111.554 68.0551 L 110.731 79.8263 C 110.693 80.3772 111.108 80.8551 111.659 80.8936 L 123.43 81.7168 C 123.695 81.7353 123.956 81.6479 124.156 81.4739 C 124.356 81.2999 124.479 81.0535 124.497 80.7889 L 125.321 69.0177 C 125.359 68.4668 124.944 67.9889 124.393 67.9504 L 112.621 67.1272 C 112.357 67.1087 112.096 67.1961 111.896 67.3701 C 111.696 67.5441 111.573 67.7905 111.554 68.0551"
     id="path122_joined"
     style="fill:#000000;fill-opacity:0;stroke:#000000;stroke-width:0.15;stroke-linecap:round;stroke-linejoin:round;stroke-opacity:1" />
  <path
     d="M 169.481 92.4637 L 167.432 104.084 C 167.336 104.628 167.7 105.147 168.243 105.243 L 179.864 107.292 C 180.125 107.338 180.394 107.278 180.611 107.126 C 180.829 106.974 180.977 106.742 181.023 106.481 L 183.072 94.86 C 183.118 94.5988 183.058 94.33 182.906 94.1127 C 182.754 93.8955 182.522 93.7475 182.26 93.7015 L 170.64 91.6525 C 170.096 91.5566 169.577 91.9198 169.481 92.4637"
     id="path130_joined"
     style="fill:#000000;fill-opacity:0;stroke:#000000;stroke-width:0.15;stroke-linecap:round;stroke-linejoin:round;stroke-opacity:1" />
  <path
     d="M 131.288 62.5633 L 130.055 74.2987 C 129.997 74.8479 130.395 75.34 130.945 75.3977 L 142.68 76.6312 C 143.229 76.6889 143.721 76.2904 143.779 75.7412 L 145.012 64.0058 C 145.07 63.4566 144.672 62.9645 144.122 62.9068 L 132.387 61.6733 C 132.123 61.6456 131.859 61.7238 131.653 61.8907 C 131.447 62.0576 131.316 62.2995 131.288 62.5633"
     id="path138_joined"
     style="fill:#000000;fill-opacity:0;stroke:#000000;stroke-width:0.15;stroke-linecap:round;stroke-linejoin:round;stroke-opacity:1" />
  <path
     d="M 92.0966 76.0617 L 91.6848 87.8545 L 92.0966 76.0617 C 92.1059 75.7966 92.22 75.5461 92.414 75.3652 C 92.608 75.1844 92.8658 75.0879 93.1309 75.0972 L 104.924 75.509 C 105.189 75.5183 105.439 75.6324 105.62 75.8264 C 105.801 76.0204 105.897 76.2782 105.888 76.5433 L 105.476 88.3361 C 105.457 88.888 104.994 89.3198 104.442 89.3006 L 92.6492 88.8888 C 92.0973 88.8695 91.6655 88.4064 91.6848 87.8545"
     id="path146_joined"
     style="fill:#000000;fill-opacity:0;stroke:#000000;stroke-width:0.15;stroke-linecap:round;stroke-linejoin:round;stroke-opacity:1" />
  <path
     d="M 91.9995 104.293 L 89.9505 115.913 C 89.9044 116.174 89.964 116.443 90.1161 116.661 C 90.2682 116.878 90.5004 117.026 90.7616 117.072 L 102.382 119.121 C 102.926 119.217 103.445 118.854 103.541 118.31 L 105.59 106.689 C 105.686 106.145 105.323 105.626 104.779 105.531 L 93.158 103.481 C 92.8968 103.435 92.628 103.495 92.4107 103.647 C 92.1935 103.799 92.0455 104.031 91.9995 104.293"
     id="path154_joined"
     style="fill:#000000;fill-opacity:0;stroke:#000000;stroke-width:0.15;stroke-linecap:round;stroke-linejoin:round;stroke-opacity:1" />
  <circle
     cx="63.754002"
     cy="116.514"
     r="1.6"
     id="circle161"
     style="fill:#000000;fill-opacity:0;stroke:#000000;stroke-width:0.15;stroke-linecap:round;stroke-linejoin:round;stroke-opacity:1" />
  <circle
     cx="149.26781"
     cy="58.166"
     r="1.6"
     id="circle162"
     style="fill:#000000;fill-opacity:0;stroke:#000000;stroke-width:0.15;stroke-linecap:round;stroke-linejoin:round;stroke-opacity:1" />
  <circle
     cx="89.153999"
     cy="60.706001"
     r="1.6"
     id="circle163"
     style="fill:#000000;fill-opacity:0;stroke:#000000;stroke-width:0.15;stroke-linecap:round;stroke-linejoin:round;stroke-opacity:1" />
  <circle
     cx="127.6778"
     cy="77.216003"
     r="1.6"
     id="circle164"
     style="fill:#000000;fill-opacity:0;stroke:#000000;stroke-width:0.15;stroke-linecap:round;stroke-linejoin:round;stroke-opacity:1" />
  <circle
     cx="105.5798"
     cy="101.6"
     r="1.6"
     id="circle165"
     style="fill:#000000;fill-opacity:0;stroke:#000000;stroke-width:0.15;stroke-linecap:round;stroke-linejoin:round;stroke-opacity:1" />
  <circle
     cx="110.236"
     cy="47.498001"
     r="1.6"
     id="circle166"
     style="fill:#000000;fill-opacity:0;stroke:#000000;stroke-width:0.15;stroke-linecap:round;stroke-linejoin:round;stroke-opacity:1" />
  <circle
     cx="165.10001"
     cy="91.440002"
     r="1.6"
     id="circle167"
     style="fill:#000000;fill-opacity:0;stroke:#000000;stroke-width:0.15;stroke-linecap:round;stroke-linejoin:round;stroke-opacity:1" />
  <g
     id="g167"
     style="fill:#000000;fill-opacity:0;stroke:#000000;stroke-width:0.15;stroke-linecap:round;stroke-linejoin:round;stroke-opacity:1" />
  <g
     id="g168"
     style="fill:#000000;fill-opacity:0;stroke:#000000;stroke-width:0.15;stroke-linecap:round;stroke-linejoin:round;stroke-opacity:1" />
  <g
     id="g169"
     style="fill:#000000;fill-opacity:0;stroke:#000000;stroke-width:0.15;stroke-linecap:round;stroke-linejoin:round;stroke-opacity:1" />
  <g
     id="g170"
     style="fill:#000000;fill-opacity:0;stroke:#000000;stroke-width:0.15;stroke-linecap:round;stroke-linejoin:round;stroke-opacity:1" />
  <g
     id="g171"
     style="fill:#000000;fill-opacity:0;stroke:#000000;stroke-width:0.15;stroke-linecap:round;stroke-linejoin:round;stroke-opacity:1" />
  <g
     id="g172"
     style="fill:#000000;fill-opacity:0;stroke:#000000;stroke-width:0.15;stroke-linecap:round;stroke-linejoin:round;stroke-opacity:1" />
  <g
     id="g173"
     style="fill:#000000;fill-opacity:0;stroke:#000000;stroke-width:0.15;stroke-linecap:round;stroke-linejoin:round;stroke-opacity:1" />
  <g
     id="g174"
     style="fill:#000000;fill-opacity:0;stroke:#000000;stroke-width:0.15;stroke-linecap:round;stroke-linejoin:round;stroke-opacity:1" />
  <g
     id="g175"
     style="fill:#000000;fill-opacity:0;stroke:#000000;stroke-width:0.15;stroke-linecap:round;stroke-linejoin:round;stroke-opacity:1" />
  <g
     id="g176"
     style="fill:#000000;fill-opacity:0;stroke:#000000;stroke-width:0.15;stroke-linecap:round;stroke-linejoin:round;stroke-opacity:1" />
  <g
     id="g177"
     style="fill:#000000;fill-opacity:0;stroke:#000000;stroke-width:0.15;stroke-linecap:round;stroke-linejoin:round;stroke-opacity:1" />
  <g
     id="g178"
     style="fill:#000000;fill-opacity:0;stroke:#000000;stroke-width:0.15;stroke-linecap:round;stroke-linejoin:round;stroke-opacity:1" />
  <g
     id="g179"
     style="fill:#000000;fill-opacity:0;stroke:#000000;stroke-width:0.15;stroke-linecap:round;stroke-linejoin:round;stroke-opacity:1" />
  <g
     id="g180"
     style="fill:#000000;fill-opacity:0;stroke:#000000;stroke-width:0.15;stroke-linecap:round;stroke-linejoin:round;stroke-opacity:1" />
  <g
     id="g181"
     style="fill:#000000;fill-opacity:0;stroke:#000000;stroke-width:0.15;stroke-linecap:round;stroke-linejoin:round;stroke-opacity:1" />
  <g
     id="g182"
     style="fill:#000000;fill-opacity:0;stroke:#000000;stroke-width:0.15;stroke-linecap:round;stroke-linejoin:round;stroke-opacity:1" />
  <g
     id="g183"
     style="fill:#000000;fill-opacity:0;stroke:#000000;stroke-width:0.15;stroke-linecap:round;stroke-linejoin:round;stroke-opacity:1" />
  <g
     id="g184"
     style="fill:#000000;fill-opacity:0;stroke:#000000;stroke-width:0.15;stroke-linecap:round;stroke-linejoin:round;stroke-opacity:1" />
  <g
     id="g185"
     style="fill:#000000;fill-opacity:0;stroke:#000000;stroke-width:0.15;stroke-linecap:round;stroke-linejoin:round;stroke-opacity:1" />
  <g
     id="g186"
     style="fill:#000000;fill-opacity:0;stroke:#000000;stroke-width:0.15;stroke-linecap:round;stroke-linejoin:round;stroke-opacity:1" />
  <g
     id="g187"
     style="fill:#000000;fill-opacity:0;stroke:#000000;stroke-width:0.15;stroke-linecap:round;stroke-linejoin:round;stroke-opacity:1" />
  <g
     id="g188"
     style="fill:#000000;fill-opacity:0;stroke:#000000;stroke-width:0.15;stroke-linecap:round;stroke-linejoin:round;stroke-opacity:1" />
  <g
     id="g189"
     style="fill:#000000;fill-opacity:0;stroke:#000000;stroke-width:0.15;stroke-linecap:round;stroke-linejoin:round;stroke-opacity:1" />
  <g
     id="g190"
     style="fill:#000000;fill-opacity:0;stroke:#000000;stroke-width:0.15;stroke-linecap:round;stroke-linejoin:round;stroke-opacity:1" />
  <g
     id="g191"
     style="fill:#000000;fill-opacity:0;stroke:#000000;stroke-width:0.15;stroke-linecap:round;stroke-linejoin:round;stroke-opacity:1" />
  <g
     id="g192"
     style="fill:#000000;fill-opacity:0;stroke:#000000;stroke-width:0.15;stroke-linecap:round;stroke-linejoin:round;stroke-opacity:1" />
  <g
     id="g193"
     style="fill:#000000;fill-opacity:0;stroke:#000000;stroke-width:0.15;stroke-linecap:round;stroke-linejoin:round;stroke-opacity:1" />
  <g
     id="g194"
     style="fill:#000000;fill-opacity:0;stroke:#000000;stroke-width:0.15;stroke-linecap:round;stroke-linejoin:round;stroke-opacity:1" />
  <g
     id="g195"
     style="fill:#000000;fill-opacity:0;stroke:#000000;stroke-width:0.15;stroke-linecap:round;stroke-linejoin:round;stroke-opacity:1" />
  <g
     id="g196"
     style="fill:#000000;fill-opacity:0;stroke:#000000;stroke-width:0.15;stroke-linecap:round;stroke-linejoin:round;stroke-opacity:1" />
  <g
     id="g197"
     style="fill:#000000;fill-opacity:0;stroke:#000000;stroke-width:0.15;stroke-linecap:round;stroke-linejoin:round;stroke-opacity:1" />
  <g
     id="g198"
     style="fill:#000000;fill-opacity:0;stroke:#000000;stroke-width:0.15;stroke-linecap:round;stroke-linejoin:round;stroke-opacity:1" />
  <g
     id="g199"
     style="fill:#000000;fill-opacity:0;stroke:#000000;stroke-width:0.15;stroke-linecap:round;stroke-linejoin:round;stroke-opacity:1" />
  <g
     id="g200"
     style="fill:#000000;fill-opacity:0;stroke:#000000;stroke-width:0.15;stroke-linecap:round;stroke-linejoin:round;stroke-opacity:1" />
  <g
     id="g201"
     style="fill:#000000;fill-opacity:0;stroke:#000000;stroke-width:0.15;stroke-linecap:round;stroke-linejoin:round;stroke-opacity:1" />
  <g
     id="g202"
     style="fill:#000000;fill-opacity:0;stroke:#000000;stroke-width:0.15;stroke-linecap:round;stroke-linejoin:round;stroke-opacity:1" />
  <g
     id="g203"
     style="fill:#000000;fill-opacity:0;stroke:#000000;stroke-width:0.15;stroke-linecap:round;stroke-linejoin:round;stroke-opacity:1" />
  <g
     id="g204"
     style="fill:#000000;fill-opacity:0;stroke:#000000;stroke-width:0.15;stroke-linecap:round;stroke-linejoin:round;stroke-opacity:1" />
  <g
     id="g205"
     style="fill:#000000;fill-opacity:0;stroke:#000000;stroke-width:0.15;stroke-linecap:round;stroke-linejoin:round;stroke-opacity:1" />
  <g
     id="g206"
     style="fill:#000000;fill-opacity:0;stroke:#000000;stroke-width:0.15;stroke-linecap:round;stroke-linejoin:round;stroke-opacity:1" />
  <g
     id="g207"
     style="fill:#000000;fill-opacity:0;stroke:#000000;stroke-width:0.15;stroke-linecap:round;stroke-linejoin:round;stroke-opacity:1" />
  <g
     id="g208"
     style="fill:#000000;fill-opacity:0;stroke:#000000;stroke-width:0.15;stroke-linecap:round;stroke-linejoin:round;stroke-opacity:1" />
  <g
     id="g209"
     style="fill:#000000;fill-opacity:0;stroke:#000000;stroke-width:0.15;stroke-linecap:round;stroke-linejoin:round;stroke-opacity:1" />
  <g
     id="g210"
     style="fill:#000000;fill-opacity:0;stroke:#000000;stroke-width:0.15;stroke-linecap:round;stroke-linejoin:round;stroke-opacity:1" />
  <g
     id="g211"
     style="fill:#000000;fill-opacity:0;stroke:#000000;stroke-width:0.15;stroke-linecap:round;stroke-linejoin:round;stroke-opacity:1" />
  <g
     id="g212"
     style="fill:#000000;fill-opacity:0;stroke:#000000;stroke-width:0.15;stroke-linecap:round;stroke-linejoin:round;stroke-opacity:1" />
  <g
     id="g213"
     style="fill:#000000;fill-opacity:0;stroke:#000000;stroke-width:0.15;stroke-linecap:round;stroke-linejoin:round;stroke-opacity:1" />
  <g
     id="g214"
     style="fill:#000000;fill-opacity:0;stroke:#000000;stroke-width:0.15;stroke-linecap:round;stroke-linejoin:round;stroke-opacity:1" />
  <g
     id="g215"
     style="fill:#000000;fill-opacity:0;stroke:#000000;stroke-width:0.15;stroke-linecap:round;stroke-linejoin:round;stroke-opacity:1" />
  <g
     id="g216"
     style="fill:#000000;fill-opacity:0;stroke:#000000;stroke-width:0.15;stroke-linecap:round;stroke-linejoin:round;stroke-opacity:1" />
  <g
     id="g217"
     style="fill:#000000;fill-opacity:0;stroke:#000000;stroke-width:0.15;stroke-linecap:round;stroke-linejoin:round;stroke-opacity:1" />
  <g
     id="g218"
     style="fill:#000000;fill-opacity:0;stroke:#000000;stroke-width:0.15;stroke-linecap:round;stroke-linejoin:round;stroke-opacity:1" />
  <g
     id="g219"
     style="fill:#000000;fill-opacity:0;stroke:#000000;stroke-width:0.15;stroke-linecap:round;stroke-linejoin:round;stroke-opacity:1" />
  <g
     id="g220"
     style="fill:#000000;fill-opacity:0;stroke:#000000;stroke-width:0.15;stroke-linecap:round;stroke-linejoin:round;stroke-opacity:1" />
  <g
     id="g221"
     style="fill:#000000;fill-opacity:0;stroke:#000000;stroke-width:0.15;stroke-linecap:round;stroke-linejoin:round;stroke-opacity:1" />
  <g
     id="g222"
     style="fill:#000000;fill-opacity:0;stroke:#000000;stroke-width:0.15;stroke-linecap:round;stroke-linejoin:round;stroke-opacity:1" />
  <g
     id="g223"
     style="fill:#000000;fill-opacity:0;stroke:#000000;stroke-width:0.15;stroke-linecap:round;stroke-linejoin:round;stroke-opacity:1" />
  <g
     id="g224"
     style="fill:#000000;fill-opacity:0;stroke:#000000;stroke-width:0.15;stroke-linecap:round;stroke-linejoin:round;stroke-opacity:1" />
  <g
     id="g225"
     style="fill:#000000;fill-opacity:0;stroke:#000000;stroke-width:0.15;stroke-linecap:round;stroke-linejoin:round;stroke-opacity:1" />
  <g
     id="g226"
     style="fill:#000000;fill-opacity:0;stroke:#000000;stroke-width:0.15;stroke-linecap:round;stroke-linejoin:round;stroke-opacity:1" />
  <g
     id="g227"
     style="fill:#000000;fill-opacity:0;stroke:#000000;stroke-width:0.15;stroke-linecap:round;stroke-linejoin:round;stroke-opacity:1" />
  <g
     id="g228"
     style="fill:#000000;fill-opacity:0;stroke:#000000;stroke-width:0.15;stroke-linecap:round;stroke-linejoin:round;stroke-opacity:1" />
  <g
     id="g229"
     style="fill:#000000;fill-opacity:0;stroke:#000000;stroke-width:0.15;stroke-linecap:round;stroke-linejoin:round;stroke-opacity:1" />
  <g
     id="g230"
     style="fill:#000000;fill-opacity:0;stroke:#000000;stroke-width:0.15;stroke-linecap:round;stroke-linejoin:round;stroke-opacity:1" />
  <g
     id="g231"
     style="fill:#000000;fill-opacity:0;stroke:#000000;stroke-width:0.15;stroke-linecap:round;stroke-linejoin:round;stroke-opacity:1" />
  <g
     id="g232"
     style="fill:#000000;fill-opacity:0;stroke:#000000;stroke-width:0.15;stroke-linecap:round;stroke-linejoin:round;stroke-opacity:1" />
  <g
     id="g233"
     style="fill:#000000;fill-opacity:0;stroke:#000000;stroke-width:0.15;stroke-linecap:round;stroke-linejoin:round;stroke-opacity:1" />
  <g
     id="g234"
     style="fill:#000000;fill-opacity:0;stroke:#000000;stroke-width:0.15;stroke-linecap:round;stroke-linejoin:round;stroke-opacity:1" />
  <g
     id="g235"
     style="fill:#000000;fill-opacity:0;stroke:#000000;stroke-width:0.15;stroke-linecap:round;stroke-linejoin:round;stroke-opacity:1" />
  <g
     id="g236"
     style="fill:#000000;fill-opacity:0;stroke:#000000;stroke-width:0.15;stroke-linecap:round;stroke-linejoin:round;stroke-opacity:1" />
  <g
     id="g237"
     style="fill:#000000;fill-opacity:0;stroke:#000000;stroke-width:0.15;stroke-linecap:round;stroke-linejoin:round;stroke-opacity:1" />
  <g
     id="g238"
     style="fill:#000000;fill-opacity:0;stroke:#000000;stroke-width:0.15;stroke-linecap:round;stroke-linejoin:round;stroke-opacity:1" />
  <g
     id="g239"
     style="fill:#000000;fill-opacity:0;stroke:#000000;stroke-width:0.15;stroke-linecap:round;stroke-linejoin:round;stroke-opacity:1" />
  <g
     id="g240"
     style="fill:#000000;fill-opacity:0;stroke:#000000;stroke-width:0.15;stroke-linecap:round;stroke-linejoin:round;stroke-opacity:1" />
  <g
     id="g241"
     style="fill:#000000;fill-opacity:0;stroke:#000000;stroke-width:0.15;stroke-linecap:round;stroke-linejoin:round;stroke-opacity:1" />
  <g
     id="g242"
     style="fill:#000000;fill-opacity:0;stroke:#000000;stroke-width:0.15;stroke-linecap:round;stroke-linejoin:round;stroke-opacity:1" />
  <g
     id="g243"
     style="fill:#000000;fill-opacity:0;stroke:#000000;stroke-width:0.15;stroke-linecap:round;stroke-linejoin:round;stroke-opacity:1" />
  <g
     id="g244"
     style="fill:#000000;fill-opacity:0;stroke:#000000;stroke-width:0.15;stroke-linecap:round;stroke-linejoin:round;stroke-opacity:1" />
  <g
     id="g245"
     style="fill:#000000;fill-opacity:0;stroke:#000000;stroke-width:0.15;stroke-linecap:round;stroke-linejoin:round;stroke-opacity:1" />
  <g
     id="g246"
     style="fill:#000000;fill-opacity:0;stroke:#000000;stroke-width:0.15;stroke-linecap:round;stroke-linejoin:round;stroke-opacity:1" />
  <g
     id="g247"
     style="fill:#000000;fill-opacity:0;stroke:#000000;stroke-width:0.15;stroke-linecap:round;stroke-linejoin:round;stroke-opacity:1" />
  <g
     id="g248"
     style="fill:#000000;fill-opacity:0;stroke:#000000;stroke-width:0.15;stroke-linecap:round;stroke-linejoin:round;stroke-opacity:1" />
  <g
     id="g249"
     style="fill:#000000;fill-opacity:0;stroke:#000000;stroke-width:0.15;stroke-linecap:round;stroke-linejoin:round;stroke-opacity:1" />
  <g
     id="g250"
     style="fill:#000000;fill-opacity:0;stroke:#000000;stroke-width:0.15;stroke-linecap:round;stroke-linejoin:round;stroke-opacity:1" />
  <g
     id="g251"
     style="fill:#000000;fill-opacity:0;stroke:#000000;stroke-width:0.15;stroke-linecap:round;stroke-linejoin:round;stroke-opacity:1" />
  <g
     id="g252"
     style="fill:#000000;fill-opacity:0;stroke:#000000;stroke-width:0.15;stroke-linecap:round;stroke-linejoin:round;stroke-opacity:1" />
  <g
     id="g253"
     style="fill:#000000;fill-opacity:0;stroke:#000000;stroke-width:0.15;stroke-linecap:round;stroke-linejoin:round;stroke-opacity:1" />
  <g
     id="g254"
     style="fill:#000000;fill-opacity:0;stroke:#000000;stroke-width:0.15;stroke-linecap:round;stroke-linejoin:round;stroke-opacity:1" />
  <g
     id="g255"
     style="fill:#000000;fill-opacity:0;stroke:#000000;stroke-width:0.15;stroke-linecap:round;stroke-linejoin:round;stroke-opacity:1" />
  <metadata
     id="metadata256">
    <rdf:RDF>
      <cc:Work
         rdf:about="">
        <dc:title>SVG Image created as nightliner-User_2.svg date 2023/11/06 19:53:37 </dc:title>
      </cc:Work>
    </rdf:RDF>
  </metadata>
</svg>
