<?xml version="1.0" standalone="no"?>
 <!DOCTYPE svg PUBLIC "-//W3C//DTD SVG 1.1//EN" 
 "http://www.w3.org/Graphics/SVG/1.1/DTD/svg11.dtd"> 
<svg
  xmlns:svg="http://www.w3.org/2000/svg"
  xmlns="http://www.w3.org/2000/svg"
  xmlns:xlink="http://www.w3.org/1999/xlink"
  version="1.1"
  width="297.0022mm" height="210.0072mm" viewBox="0.0000 0.0000 297.0022 210.0072">
<title>SVG Image created as nightliner-Edge_Cuts.svg date 2023/11/23 22:21:13 </title>
  <desc>Image generated by PCBNEW </desc>
<g style="fill:#000000; fill-opacity:1.0000;stroke:#000000; stroke-opacity:1.0000;
stroke-linecap:round; stroke-linejoin:round;"
 transform="translate(0 0) scale(1 1)">
</g>
<g style="fill:#000000; fill-opacity:0.0; 
stroke:#000000; stroke-width:0.0000; stroke-opacity:1; 
stroke-linecap:round; stroke-linejoin:round;">
</g>
<g style="fill:#000000; fill-opacity:0.0; 
stroke:#000000; stroke-width:0.2000; stroke-opacity:1; 
stroke-linecap:round; stroke-linejoin:round;">
<path d="M182.8618 113.4760
L190.3901 71.4941
" />
<path d="M53.1475 139.6789
L60.9600 133.0961
" />
<path d="M153.2625 54.9372
L171.1515 57.4513
" />
<path d="M133.9572 35.9130
L134.6119 26.5511
" />
<path d="M38.3540 93.9801 A0.7620 0.7620 0.0 0 0 37.5920 93.2181" />
<path d="M134.8503 36.9773
L152.9741 38.8822
" />
<path d="M35.5600 119.8881 A1.2701 1.2701 0.0 0 0 35.8140 120.6501" />
<path d="M190.3901 71.4941 A1.0000 1.0000 0.0 0 0 189.5789 70.3356" />
<path d="M106.4195 125.7713 A16.2442 16.2442 0.0 0 0 111.7600 125.7301" />
<path d="M134.6119 26.5511 A1.0001 1.0001 0.0 0 0 133.6841 25.4838" />
<path d="M152.4072 53.8424
L153.8641 39.9812
" />
<path d="M106.4195 125.7713
L94.8479 123.7103
" />
<path d="M88.7558 31.9144
L107.1610 32.5571
" />
<path d="M35.5600 119.8881
L35.5600 110.4900
" />
<path d="M87.6294 37.0841
L87.7216 32.8788
" />
<path d="M37.5921 109.4741 A0.7619 0.7619 0.0 0 0 38.3540 108.7120" />
<path d="M172.0026 58.5808 A1.0001 1.0001 0.0 0 0 171.1515 57.4513" />
<path d="M51.7387 139.5557 A0.9999 0.9999 0.0 0 0 53.1475 139.6789" />
<path d="M35.8140 120.6501
L51.7387 139.5557
" />
<path d="M86.6140 38.0994 A1.0152 1.0152 0.0 0 0 87.6294 37.0841" />
<path d="M109.7425 23.8096 A0.9999 0.9999 0.0 0 0 108.6752 24.7374" />
<path d="M152.4072 53.8424 A0.9999 0.9999 0.0 0 0 153.2625 54.9372" />
<path d="M170.9499 66.0708
L172.0026 58.5808
" />
<path d="M170.9499 66.0708 A1.0000 1.0000 0.0 0 0 171.7665 67.1948" />
<path d="M88.7558 31.9144 A1.0000 1.0000 0.0 0 0 87.7216 32.8788" />
<path d="M37.5920 93.2181
L36.5761 93.2181
" />
<path d="M94.8479 123.7103 A42.1808 42.1808 0.0 0 0 60.9600 133.0961" />
<path d="M107.1610 32.5571 A1.0002 1.0002 0.0 0 0 108.1934 31.6274" />
<path d="M108.1934 31.6274
L108.6752 24.7374
" />
<path d="M153.8641 39.9812 A1.0001 1.0001 0.0 0 0 152.9741 38.8822" />
<path d="M35.5600 92.2021
L35.5600 38.8621
" />
<path d="M182.0262 114.3001 A1.0132 1.0132 0.0 0 0 182.8618 113.4760" />
<path d="M133.9573 35.9130 A1.0001 1.0001 0.0 0 0 134.8503 36.9773" />
<path d="M36.5760 109.4741
L37.5921 109.4741
" />
<path d="M171.7665 67.1948
L189.5789 70.3356
" />
<path d="M109.7425 23.8096
L133.6841 25.4838
" />
<path d="M35.5600 92.2021 A1.0160 1.0160 0.0 0 0 36.5761 93.2181" />
<path d="M36.3221 38.1001
L86.6140 38.1001
" />
<path d="M36.3221 38.1001 A0.7621 0.7621 0.0 0 0 35.5600 38.8621" />
<path d="M36.5760 109.4740 A1.0162 1.0162 0.0 0 0 35.5600 110.4900" />
<path d="M182.0262 114.3001
L111.7600 125.7301
" />
<path d="M38.3540 108.7120
L38.3540 93.9801
" />
<g >
</g>
<g >
</g>
<g >
</g>
<g >
</g>
<g >
</g>
<g >
</g>
<g >
</g>
<g >
</g>
<g >
</g>
<g >
</g>
<g >
</g>
<g >
</g>
<g >
</g>
<g >
</g>
<g >
</g>
<g >
</g>
<g >
</g>
<g >
</g>
<g >
</g>
<g >
</g>
<g >
</g>
<g >
</g>
<g >
</g>
<g >
</g>
<g >
</g>
<g >
</g>
<g >
</g>
<g >
</g>
<g >
</g>
<g >
</g>
<g >
</g>
<g >
</g>
<g >
</g>
<g >
</g>
<g >
</g>
<g >
</g>
<g >
</g>
<g >
</g>
<g >
</g>
<g >
</g>
<g >
</g>
<g >
</g>
<g >
</g>
<g >
</g>
<g >
</g>
<g >
</g>
<g >
</g>
<g >
</g>
<g >
</g>
<g >
</g>
<g >
</g>
<g >
</g>
<g >
</g>
<g >
</g>
<g >
</g>
<g >
</g>
<g >
</g>
<g >
</g>
<g >
</g>
<g >
</g>
<g >
</g>
<g >
</g>
<g >
</g>
<g >
</g>
<g >
</g>
<g >
</g>
<g >
</g>
<g >
</g>
<g >
</g>
<g >
</g>
<g >
</g>
<g >
</g>
<g >
</g>
<g >
</g>
<g >
</g>
<g >
</g>
<g >
</g>
<g >
</g>
<g >
</g>
<g >
</g>
<g >
</g>
<g >
</g>
<g >
</g>
<g >
</g>
<g >
</g>
<g >
</g>
<g >
</g>
<g >
</g>
<g >
</g>
<g >
</g>
</g> 
</svg>
