<?xml version="1.0" standalone="no"?>
 <!DOCTYPE svg PUBLIC "-//W3C//DTD SVG 1.1//EN" 
 "http://www.w3.org/Graphics/SVG/1.1/DTD/svg11.dtd"> 
<svg
  xmlns:svg="http://www.w3.org/2000/svg"
  xmlns="http://www.w3.org/2000/svg"
  xmlns:xlink="http://www.w3.org/1999/xlink"
  version="1.1"
  width="297.0022mm" height="210.0072mm" viewBox="0.0000 0.0000 297.0022 210.0072">
<title>SVG Image created as nightliner-User_5.svg date 2023/11/06 19:53:37 </title>
  <desc>Image generated by PCBNEW </desc>
<g style="fill:#000000; fill-opacity:1.0000;stroke:#000000; stroke-opacity:1.0000;
stroke-linecap:round; stroke-linejoin:round;"
 transform="translate(0 0) scale(1 1)">
</g>
<g style="fill:#000000; fill-opacity:0.0; 
stroke:#000000; stroke-width:0.0000; stroke-opacity:1; 
stroke-linecap:round; stroke-linejoin:round;">
</g>
<g style="fill:#000000; fill-opacity:0.0; 
stroke:#000000; stroke-width:0.1500; stroke-opacity:1; 
stroke-linecap:round; stroke-linejoin:round;">
<path d="M48.2600 142.2400
L30.9880 121.4120
" />
<path d="M113.7920 125.4760 A0.7620 0.7620 0.0 0 0 113.0691 125.9970" />
<path d="M181.1020 125.4760 A5.8420 5.8420 0.0 0 0 186.7887 120.9720" />
<path d="M139.5004 30.5503 A1.4811 1.4811 0.0 0 0 140.7863 32.2036" />
<path d="M108.2040 18.5420
L136.8402 20.8465
" />
<path d="M70.8660 130.5560
L56.2615 142.8937
" />
<path d="M181.1020 125.4760
L113.7920 125.4760
" />
<path d="M48.2600 142.2400 A5.5938 5.5938 0.0 0 0 56.2615 142.8937" />
<path d="M140.7863 32.2036
L156.4640 33.9181
" />
<path d="M30.4800 119.8880
L30.4800 35.5600
" />
<path d="M159.7253 38.5753 A4.3036 4.3036 0.0 0 0 156.4640 33.9181" />
<path d="M139.9540 24.6380
L139.5004 30.5503
" />
<path d="M139.9540 24.6380 A3.5651 3.5651 0.0 0 0 136.8402 20.8465" />
<path d="M108.2040 18.5420 A4.0956 4.0956 0.0 0 0 103.6188 22.2177" />
<path d="M86.1060 126.7460
L70.8660 130.5560
" />
<path d="M33.0200 33.0200 A2.5400 2.5400 0.0 0 0 30.4800 35.5600" />
<path d="M176.7840 61.7220 A1.2951 1.2951 0.0 0 0 177.8000 63.2460" />
<path d="M159.7660 50.8000
L174.5500 53.0649
" />
<path d="M159.7253 38.5753
L158.4960 49.0220
" />
<path d="M33.0200 33.0200
L81.2800 33.0200
" />
<path d="M195.3260 70.9608
L186.7887 120.9720
" />
<path d="M113.0691 125.9970
L112.5220 127.5080
" />
<path d="M30.4800 119.8880 A2.5400 2.5400 0.0 0 0 30.9880 121.4120" />
<path d="M106.9340 130.5560
L86.1060 126.7460
" />
<path d="M85.2398 27.0331
L101.6000 27.4320
" />
<path d="M177.2982 56.5915 A3.6368 3.6368 0.0 0 0 174.5500 53.0649" />
<path d="M106.9340 130.5560 A4.9318 4.9318 0.0 0 0 112.5464 127.5175" />
<path d="M101.6000 27.4320 A1.7780 1.7780 0.0 0 0 103.3601 25.9054" />
<path d="M81.2800 33.0200 A1.5253 1.5253 0.0 0 0 82.7845 31.7454" />
<path d="M177.8000 63.2460
L191.9630 65.8066
" />
<path d="M82.7845 31.7454
L82.9687 28.9365
" />
<path d="M85.2398 27.0331 A2.4331 2.4331 0.0 0 0 82.9687 28.9365" />
<path d="M195.3260 70.9608 A4.4022 4.4022 0.0 0 0 191.9630 65.8066" />
<path d="M103.3601 25.9054
L103.6188 22.2177
" />
<path d="M158.4960 49.0220 A1.5450 1.5450 0.0 0 0 159.7660 50.8000" />
<path d="M177.2982 56.5915
L176.7840 61.7220
" />
<g >
</g>
<g >
</g>
<g >
</g>
<g >
</g>
<g >
</g>
<g >
</g>
<g >
</g>
<g >
</g>
<g >
</g>
<g >
</g>
<g >
</g>
<g >
</g>
<g >
</g>
<g >
</g>
<g >
</g>
<g >
</g>
<g >
</g>
<g >
</g>
<g >
</g>
<g >
</g>
<g >
</g>
<g >
</g>
<g >
</g>
<g >
</g>
<g >
</g>
<g >
</g>
<g >
</g>
<g >
</g>
<g >
</g>
<g >
</g>
<g >
</g>
<g >
</g>
<g >
</g>
<g >
</g>
<g >
</g>
<g >
</g>
<g >
</g>
<g >
</g>
<g >
</g>
<g >
</g>
<g >
</g>
<g >
</g>
<g >
</g>
<g >
</g>
<g >
</g>
<g >
</g>
<g >
</g>
<g >
</g>
<g >
</g>
<g >
</g>
<g >
</g>
<g >
</g>
<g >
</g>
<g >
</g>
<g >
</g>
<g >
</g>
<g >
</g>
<g >
</g>
<g >
</g>
<g >
</g>
<g >
</g>
<g >
</g>
<g >
</g>
<g >
</g>
<g >
</g>
<g >
</g>
<g >
</g>
<g >
</g>
<g >
</g>
<g >
</g>
<g >
</g>
<g >
</g>
<g >
</g>
<g >
</g>
<g >
</g>
<g >
</g>
<g >
</g>
<g >
</g>
<g >
</g>
<g >
</g>
<g >
</g>
<g >
</g>
<g >
</g>
<g >
</g>
<g >
</g>
<g >
</g>
<g >
</g>
<g >
</g>
<g >
</g>
</g> 
</svg>
