<?xml version="1.0" encoding="UTF-8" standalone="no"?>
<svg
   version="1.1"
   width="297.0022mm"
   height="210.0072mm"
   viewBox="0.0000 0.0000 297.0022 210.0072"
   id="svg152"
   sodipodi:docname="nightliner-User_Drawings-joined.svg"
   inkscape:version="1.3 (0e150ed, 2023-07-21)"
   xmlns:inkscape="http://www.inkscape.org/namespaces/inkscape"
   xmlns:sodipodi="http://sodipodi.sourceforge.net/DTD/sodipodi-0.dtd"
   xmlns="http://www.w3.org/2000/svg"
   xmlns:svg="http://www.w3.org/2000/svg"
   xmlns:rdf="http://www.w3.org/1999/02/22-rdf-syntax-ns#"
   xmlns:cc="http://creativecommons.org/ns#"
   xmlns:dc="http://purl.org/dc/elements/1.1/">
  <sodipodi:namedview
     id="namedview152"
     pagecolor="#505050"
     bordercolor="#eeeeee"
     borderopacity="1"
     inkscape:showpageshadow="0"
     inkscape:pageopacity="0"
     inkscape:pagecheckerboard="0"
     inkscape:deskcolor="#505050"
     inkscape:document-units="mm"
     inkscape:zoom="2.3260401"
     inkscape:cx="474.19647"
     inkscape:cy="449.04643"
     inkscape:window-width="3824"
     inkscape:window-height="1478"
     inkscape:window-x="10"
     inkscape:window-y="35"
     inkscape:window-maximized="0"
     inkscape:current-layer="svg152" />
  <defs
     id="defs152" />
  <title
     id="title1">SVG Image created as nightliner-User_Drawings.svg date 2023/11/13 21:39:23 </title>
  <desc
     id="desc1">Image generated by PCBNEW </desc>
  <g
     inkscape:groupmode="layer"
     id="layer1"
     inkscape:label="Layer 1">
    <path
       d="M 41.91 110.236 C 42.1121 110.236 42.3059 110.316 42.4488 110.459 C 42.5917 110.602 42.672 110.796 42.672 110.998 L 42.672 117.602 C 42.6722 118.323 43.1073 118.972 43.7739 119.246 C 44.4404 119.52 45.2065 119.365 45.7136 118.853 L 59.182 107.696 C 59.461 107.417 59.8018 107.208 60.1767 107.085 L 69.8461 104.369 C 70.4393 104.25 70.8661 103.729 70.866 103.124 L 70.9127 35.5601 L 69.2883 35.5601 L 53.086 35.5601 C 52.6652 35.5602 52.3241 35.9013 52.324 36.3221 L 52.324 37.3381 C 52.324 37.5402 52.2438 37.734 52.1008 37.8769 C 51.9579 38.0199 51.7641 38.1001 51.562 38.1001 C 50.4398 38.1002 49.5301 39.0099 49.53 40.1321 L 49.53 47.2441 C 49.53 47.3788 49.4765 47.5081 49.3812 47.6033 C 49.286 47.6986 49.1567 47.7521 49.022 47.7521 L 38.862 47.7521 C 38.7273 47.7521 38.5981 47.6986 38.5028 47.6033 C 38.4075 47.508 38.354 47.3788 38.354 47.2441 L 38.354 40.1321 C 38.354 39.0099 37.4442 38.1001 36.322 38.1001 L 33.782 38.1001 C 33.3612 38.1002 33.0201 38.4413 33.02 38.8621 L 33.02 109.474 C 33.02 109.676 33.1003 109.87 33.2432 110.013 C 33.3861 110.156 33.5799 110.236 33.782 110.236 Z"
       id="path2_joined"
       style="fill:#000000;fill-opacity:0;stroke:#000000;stroke-width:0.2;stroke-linecap:round;stroke-linejoin:round;stroke-opacity:1" />
    <path
       d="M 86.868 29.4641 L 104.394 29.9972 C 105.011 29.9972 105.543 29.5615 105.664 28.9561 L 106.172 22.6061 C 106.24 22.1312 106.495 21.7032 106.88 21.4175 C 107.265 21.1318 107.749 21.012 108.223 21.085 L 135.397 23.1319 C 136.406 23.2665 137.16 24.1277 137.16 25.1461 L 136.652 33.2741 C 136.585 33.5435 136.627 33.8287 136.77 34.0669 C 136.913 34.3051 137.145 34.4767 137.414 34.5441 L 155.229 36.3302 C 156.474 36.627 157.25 37.8673 156.972 39.1161 L 155.62 51.6473 C 155.535 52.0729 155.78 52.4953 156.192 52.6325 L 173.259 55.1744 C 174.242 55.4426 174.878 56.3929 174.752 57.4041 L 173.99 64.0081 C 173.99 64.4743 174.307 64.8806 174.76 64.9937 L 191.516 68.0721 C 192.638 68.3526 193.321 69.4898 193.04 70.6121 L 185.166 113.787 C 184.943 115.248 183.787 116.389 182.323 116.593 L 111.28 127.983 C 109.838 128.165 108.379 128.177 106.934 128.016 L 94.742 125.73 C 83.1951 123.806 71.3832 127.014 62.3964 134.515 L 54.61 141.224 C 53.2072 142.346 51.1603 142.119 50.0381 140.716 L 37.1975 125.639 C 36.9305 125.306 36.8207 124.873 36.8963 124.452 C 36.9719 124.031 37.2255 123.664 37.592 123.444 L 58.42 106.172 C 58.699 105.893 59.0398 105.684 59.4147 105.561 L 68.6284 103.078 C 69.0529 102.946 69.342 102.553 69.342 102.108 L 69.342 35.5601 L 84.328 35.5601 C 84.5301 35.5601 84.7239 35.4799 84.8668 35.3369 C 85.0098 35.194 85.09 35.0002 85.09 34.7981 L 85.344 30.9881 C 85.3441 30.1464 86.0263 29.4642 86.868 29.4641"
       id="path3_joined"
       style="fill:#000000;fill-opacity:0;stroke:#000000;stroke-width:0.2;stroke-linecap:round;stroke-linejoin:round;stroke-opacity:1" />
  </g>
  <metadata
     id="metadata152">
    <rdf:RDF>
      <cc:Work
         rdf:about="">
        <dc:title>SVG Image created as nightliner-User_Drawings.svg date 2023/11/13 21:39:23 </dc:title>
      </cc:Work>
    </rdf:RDF>
  </metadata>
</svg>
