<?xml version="1.0" standalone="no"?>
 <!DOCTYPE svg PUBLIC "-//W3C//DTD SVG 1.1//EN" 
 "http://www.w3.org/Graphics/SVG/1.1/DTD/svg11.dtd"> 
<svg
  xmlns:svg="http://www.w3.org/2000/svg"
  xmlns="http://www.w3.org/2000/svg"
  xmlns:xlink="http://www.w3.org/1999/xlink"
  version="1.1"
  width="155.0670mm" height="116.2812mm" viewBox="0.0000 0.0000 155.0670 116.2812">
<title>SVG Image created as nightliner-User_Comments.svg date 2023/10/28 20:36:01 </title>
  <desc>Image generated by PCBNEW </desc>
<g style="fill:#000000; fill-opacity:1.0000;stroke:#000000; stroke-opacity:1.0000;
stroke-linecap:round; stroke-linejoin:round;"
 transform="translate(0 0) scale(1 1)">
</g>
<g style="fill:#000000; fill-opacity:0.0; 
stroke:#000000; stroke-width:0.0000; stroke-opacity:1; 
stroke-linecap:round; stroke-linejoin:round;">
</g>
<g style="fill:#000000; fill-opacity:0.0; 
stroke:#000000; stroke-width:0.2000; stroke-opacity:1; 
stroke-linecap:round; stroke-linejoin:round;">
<path style="fill:#000000; fill-opacity:0.0; 
stroke:#000000; stroke-width:0.2000; stroke-opacity:1; 
stroke-linecap:round; stroke-linejoin:round;fill:none"
d="M 81.7164,92.0673
50.9475,95.8453
48.3883,75.0018
79.1572,71.2238
Z" /> 
<path style="fill:#000000; fill-opacity:0.0; 
stroke:#000000; stroke-width:0.2000; stroke-opacity:1; 
stroke-linecap:round; stroke-linejoin:round;fill:none"
d="M 81.1592,91.6320
51.3829,95.2881
48.9455,75.4371
78.7219,71.7811
Z" /> 
</g>
<g style="fill:#000000; fill-opacity:0.0; 
stroke:#000000; stroke-width:0.3000; stroke-opacity:1; 
stroke-linecap:round; stroke-linejoin:round;">
<g transform="rotate(-7.000000 65.2458 80.9910)">
<text x="65.2458" y="81.7410"
textLength="5.3857" font-size="2.0000" lengthAdjust="spacingAndGlyphs"
text-anchor="middle" opacity="0">LiPo</text>
</g>
<g class="stroked-text"><desc>LiPo</desc>
<path d="M64.0169 81.8253
L63.3079 81.9124
" />
<path d="M63.3079 81.9124
L63.1251 80.4236
" />
<path d="M64.5132 81.7644
L64.3913 80.7719
" />
<path d="M64.3304 80.2756
L64.2682 80.3552
" />
<path d="M64.2682 80.3552
L64.3478 80.4174
" />
<path d="M64.3478 80.4174
L64.4100 80.3378
" />
<path d="M64.4100 80.3378
L64.3304 80.2756
" />
<path d="M64.3304 80.2756
L64.3478 80.4174
" />
<path d="M65.2221 81.6774
L65.0393 80.1885
" />
<path d="M65.0393 80.1885
L65.6065 80.1189
" />
<path d="M65.6065 80.1189
L65.7570 80.1724
" />
<path d="M65.7570 80.1724
L65.8366 80.2346
" />
<path d="M65.8366 80.2346
L65.9249 80.3677
" />
<path d="M65.9249 80.3677
L65.9510 80.5803
" />
<path d="M65.9510 80.5803
L65.8975 80.7308
" />
<path d="M65.8975 80.7308
L65.8353 80.8104
" />
<path d="M65.8353 80.8104
L65.7023 80.8988
" />
<path d="M65.7023 80.8988
L65.1351 80.9684
" />
<path d="M66.9236 81.4684
L66.7732 81.4149
" />
<path d="M66.7732 81.4149
L66.6936 81.3528
" />
<path d="M66.6936 81.3528
L66.6052 81.2197
" />
<path d="M66.6052 81.2197
L66.5530 80.7943
" />
<path d="M66.5530 80.7943
L66.6065 80.6438
" />
<path d="M66.6065 80.6438
L66.6687 80.5642
" />
<path d="M66.6687 80.5642
L66.8018 80.4759
" />
<path d="M66.8018 80.4759
L67.0145 80.4498
" />
<path d="M67.0145 80.4498
L67.1650 80.5033
" />
<path d="M67.1650 80.5033
L67.2446 80.5655
" />
<path d="M67.2446 80.5655
L67.3329 80.6985
" />
<path d="M67.3329 80.6985
L67.3851 81.1239
" />
<path d="M67.3851 81.1239
L67.3316 81.2744
" />
<path d="M67.3316 81.2744
L67.2694 81.3540
" />
<path d="M67.2694 81.3540
L67.1363 81.4423
" />
<path d="M67.1363 81.4423
L66.9236 81.4684
" />
</g><g transform="rotate(-7.000000 65.5401 83.3880)">
<text x="65.5401" y="84.1380"
textLength="8.5286" font-size="2.0000" lengthAdjust="spacingAndGlyphs"
text-anchor="middle" opacity="0">Battery</text>
</g>
<g class="stroked-text"><desc>Battery</desc>
<path d="M62.4431 83.6601
L62.6645 83.7049
" />
<path d="M62.6645 83.7049
L62.7441 83.7671
" />
<path d="M62.7441 83.7671
L62.8324 83.9002
" />
<path d="M62.8324 83.9002
L62.8585 84.1129
" />
<path d="M62.8585 84.1129
L62.8050 84.2633
" />
<path d="M62.8050 84.2633
L62.7428 84.3429
" />
<path d="M62.7428 84.3429
L62.6097 84.4313
" />
<path d="M62.6097 84.4313
L62.0425 84.5009
" />
<path d="M62.0425 84.5009
L61.8597 83.0121
" />
<path d="M61.8597 83.0121
L62.3560 82.9511
" />
<path d="M62.3560 82.9511
L62.5065 83.0046
" />
<path d="M62.5065 83.0046
L62.5861 83.0668
" />
<path d="M62.5861 83.0668
L62.6744 83.1999
" />
<path d="M62.6744 83.1999
L62.6918 83.3417
" />
<path d="M62.6918 83.3417
L62.6383 83.4922
" />
<path d="M62.6383 83.4922
L62.5761 83.5718
" />
<path d="M62.5761 83.5718
L62.4431 83.6601
" />
<path d="M62.4431 83.6601
L61.9468 83.7210
" />
<path d="M64.1694 84.2397
L64.0737 83.4599
" />
<path d="M64.0737 83.4599
L63.9854 83.3268
" />
<path d="M63.9854 83.3268
L63.8349 83.2733
" />
<path d="M63.8349 83.2733
L63.5513 83.3081
" />
<path d="M63.5513 83.3081
L63.4182 83.3964
" />
<path d="M64.1607 84.1688
L64.0276 84.2572
" />
<path d="M64.0276 84.2572
L63.6732 84.3007
" />
<path d="M63.6732 84.3007
L63.5227 84.2472
" />
<path d="M63.5227 84.2472
L63.4344 84.1141
" />
<path d="M63.4344 84.1141
L63.4169 83.9723
" />
<path d="M63.4169 83.9723
L63.4704 83.8218
" />
<path d="M63.4704 83.8218
L63.6035 83.7335
" />
<path d="M63.6035 83.7335
L63.9580 83.6900
" />
<path d="M63.9580 83.6900
L64.0911 83.6017
" />
<path d="M64.5438 83.1863
L65.1110 83.1166
" />
<path d="M64.6956 82.6639
L64.8523 83.9400
" />
<path d="M64.8523 83.9400
L64.9406 84.0731
" />
<path d="M64.9406 84.0731
L65.0911 84.1266
" />
<path d="M65.0911 84.1266
L65.2329 84.1092
" />
<path d="M65.3946 83.0818
L65.9618 83.0122
" />
<path d="M65.5463 82.5594
L65.7030 83.8355
" />
<path d="M65.7030 83.8355
L65.7913 83.9686
" />
<path d="M65.7913 83.9686
L65.9418 84.0221
" />
<path d="M65.9418 84.0221
L66.0836 84.0047
" />
<path d="M67.1384 83.8032
L67.0053 83.8915
" />
<path d="M67.0053 83.8915
L66.7217 83.9264
" />
<path d="M66.7217 83.9264
L66.5712 83.8729
" />
<path d="M66.5712 83.8729
L66.4829 83.7398
" />
<path d="M66.4829 83.7398
L66.4132 83.1726
" />
<path d="M66.4132 83.1726
L66.4667 83.0221
" />
<path d="M66.4667 83.0221
L66.5998 82.9338
" />
<path d="M66.5998 82.9338
L66.8834 82.8990
" />
<path d="M66.8834 82.8990
L67.0339 82.9525
" />
<path d="M67.0339 82.9525
L67.1222 83.0856
" />
<path d="M67.1222 83.0856
L67.1396 83.2274
" />
<path d="M67.1396 83.2274
L66.4481 83.4562
" />
<path d="M67.8560 83.7871
L67.7342 82.7945
" />
<path d="M67.7690 83.0781
L67.8225 82.9276
" />
<path d="M67.8225 82.9276
L67.8847 82.8480
" />
<path d="M67.8847 82.8480
L68.0177 82.7597
" />
<path d="M68.0177 82.7597
L68.1595 82.7423
" />
<path d="M68.5140 82.6988
L68.9904 83.6478
" />
<path d="M69.2230 82.6117
L68.9904 83.6478
" />
<path d="M68.9904 83.6478
L68.8921 84.0197
" />
<path d="M68.8921 84.0197
L68.8299 84.0993
" />
<path d="M68.8299 84.0993
L68.6968 84.1876
" />
</g><g transform="rotate(-7.000000 65.8344 85.7850)">
<text x="65.8344" y="86.5350"
textLength="19.8143" font-size="2.0000" lengthAdjust="spacingAndGlyphs"
text-anchor="middle" opacity="0">(30mm x 20mm)</text>
</g>
<g class="stroked-text"><desc>(30mm x 20mm)</desc>
<path d="M57.2311 88.1005
L57.1515 88.0383
" />
<path d="M57.1515 88.0383
L56.9836 87.8431
" />
<path d="M56.9836 87.8431
L56.8953 87.7100
" />
<path d="M56.8953 87.7100
L56.7983 87.5060
" />
<path d="M56.7983 87.5060
L56.6838 87.1602
" />
<path d="M56.6838 87.1602
L56.6490 86.8766
" />
<path d="M56.6490 86.8766
L56.6764 86.5134
" />
<path d="M56.6764 86.5134
L56.7212 86.2920
" />
<path d="M56.7212 86.2920
L56.7746 86.1415
" />
<path d="M56.7746 86.1415
L56.8903 85.9114
" />
<path d="M56.8903 85.9114
L56.9525 85.8318
" />
<path d="M57.4040 85.9923
L58.3257 85.8791
" />
<path d="M58.3257 85.8791
L57.8990 86.5072
" />
<path d="M57.8990 86.5072
L58.1117 86.4811
" />
<path d="M58.1117 86.4811
L58.2622 86.5346
" />
<path d="M58.2622 86.5346
L58.3418 86.5968
" />
<path d="M58.3418 86.5968
L58.4301 86.7299
" />
<path d="M58.4301 86.7299
L58.4736 87.0844
" />
<path d="M58.4736 87.0844
L58.4202 87.2349
" />
<path d="M58.4202 87.2349
L58.3580 87.3145
" />
<path d="M58.3580 87.3145
L58.2249 87.4028
" />
<path d="M58.2249 87.4028
L57.7995 87.4550
" />
<path d="M57.7995 87.4550
L57.6490 87.4015
" />
<path d="M57.6490 87.4015
L57.5694 87.3393
" />
<path d="M59.2473 85.7660
L59.3891 85.7486
" />
<path d="M59.3891 85.7486
L59.5396 85.8021
" />
<path d="M59.5396 85.8021
L59.6192 85.8642
" />
<path d="M59.6192 85.8642
L59.7075 85.9973
" />
<path d="M59.7075 85.9973
L59.8132 86.2722
" />
<path d="M59.8132 86.2722
L59.8567 86.6267
" />
<path d="M59.8567 86.6267
L59.8207 86.9190
" />
<path d="M59.8207 86.9190
L59.7672 87.0695
" />
<path d="M59.7672 87.0695
L59.7050 87.1491
" />
<path d="M59.7050 87.1491
L59.5719 87.2374
" />
<path d="M59.5719 87.2374
L59.4301 87.2548
" />
<path d="M59.4301 87.2548
L59.2796 87.2013
" />
<path d="M59.2796 87.2013
L59.2000 87.1391
" />
<path d="M59.2000 87.1391
L59.1117 87.0060
" />
<path d="M59.1117 87.0060
L59.0060 86.7312
" />
<path d="M59.0060 86.7312
L58.9625 86.3767
" />
<path d="M58.9625 86.3767
L58.9985 86.0844
" />
<path d="M58.9985 86.0844
L59.0520 85.9339
" />
<path d="M59.0520 85.9339
L59.1142 85.8543
" />
<path d="M59.1142 85.8543
L59.2473 85.7660
" />
<path d="M60.5645 87.1155
L60.4426 86.1230
" />
<path d="M60.4600 86.2648
L60.5222 86.1852
" />
<path d="M60.5222 86.1852
L60.6553 86.0969
" />
<path d="M60.6553 86.0969
L60.8680 86.0707
" />
<path d="M60.8680 86.0707
L61.0185 86.1242
" />
<path d="M61.0185 86.1242
L61.1068 86.2573
" />
<path d="M61.1068 86.2573
L61.2025 87.0372
" />
<path d="M61.1068 86.2573
L61.1602 86.1068
" />
<path d="M61.1602 86.1068
L61.2933 86.0185
" />
<path d="M61.2933 86.0185
L61.5060 85.9924
" />
<path d="M61.5060 85.9924
L61.6565 86.0459
" />
<path d="M61.6565 86.0459
L61.7448 86.1790
" />
<path d="M61.7448 86.1790
L61.8406 86.9588
" />
<path d="M62.5495 86.8718
L62.4277 85.8792
" />
<path d="M62.4451 86.0210
L62.5073 85.9414
" />
<path d="M62.5073 85.9414
L62.6404 85.8531
" />
<path d="M62.6404 85.8531
L62.8531 85.8270
" />
<path d="M62.8531 85.8270
L63.0035 85.8805
" />
<path d="M63.0035 85.8805
L63.0919 86.0136
" />
<path d="M63.0919 86.0136
L63.1876 86.7934
" />
<path d="M63.0919 86.0136
L63.1453 85.8631
" />
<path d="M63.1453 85.8631
L63.2784 85.7748
" />
<path d="M63.2784 85.7748
L63.4911 85.7487
" />
<path d="M63.4911 85.7487
L63.6416 85.8021
" />
<path d="M63.6416 85.8021
L63.7299 85.9352
" />
<path d="M63.7299 85.9352
L63.8257 86.7151
" />
<path d="M65.5272 86.5062
L66.1852 85.4179
" />
<path d="M65.4053 85.5136
L66.3070 86.4104
" />
<path d="M67.7723 84.8632
L67.8344 84.7836
" />
<path d="M67.8344 84.7836
L67.9675 84.6953
" />
<path d="M67.9675 84.6953
L68.3220 84.6517
" />
<path d="M68.3220 84.6517
L68.4725 84.7052
" />
<path d="M68.4725 84.7052
L68.5521 84.7674
" />
<path d="M68.5521 84.7674
L68.6404 84.9005
" />
<path d="M68.6404 84.9005
L68.6578 85.0423
" />
<path d="M68.6578 85.0423
L68.6131 85.2637
" />
<path d="M68.6131 85.2637
L67.8668 86.2189
" />
<path d="M67.8668 86.2189
L68.7884 86.1057
" />
<path d="M69.5273 84.5038
L69.6690 84.4864
" />
<path d="M69.6690 84.4864
L69.8195 84.5398
" />
<path d="M69.8195 84.5398
L69.8991 84.6020
" />
<path d="M69.8991 84.6020
L69.9874 84.7351
" />
<path d="M69.9874 84.7351
L70.0932 85.0100
" />
<path d="M70.0932 85.0100
L70.1367 85.3645
" />
<path d="M70.1367 85.3645
L70.1006 85.6568
" />
<path d="M70.1006 85.6568
L70.0471 85.8073
" />
<path d="M70.0471 85.8073
L69.9849 85.8869
" />
<path d="M69.9849 85.8869
L69.8518 85.9752
" />
<path d="M69.8518 85.9752
L69.7101 85.9926
" />
<path d="M69.7101 85.9926
L69.5596 85.9391
" />
<path d="M69.5596 85.9391
L69.4800 85.8769
" />
<path d="M69.4800 85.8769
L69.3917 85.7438
" />
<path d="M69.3917 85.7438
L69.2859 85.4689
" />
<path d="M69.2859 85.4689
L69.2424 85.1145
" />
<path d="M69.2424 85.1145
L69.2785 84.8222
" />
<path d="M69.2785 84.8222
L69.3320 84.6717
" />
<path d="M69.3320 84.6717
L69.3942 84.5921
" />
<path d="M69.3942 84.5921
L69.5273 84.5038
" />
<path d="M70.8444 85.8533
L70.7225 84.8608
" />
<path d="M70.7399 85.0025
L70.8021 84.9229
" />
<path d="M70.8021 84.9229
L70.9352 84.8346
" />
<path d="M70.9352 84.8346
L71.1479 84.8085
" />
<path d="M71.1479 84.8085
L71.2984 84.8620
" />
<path d="M71.2984 84.8620
L71.3867 84.9951
" />
<path d="M71.3867 84.9951
L71.4825 85.7750
" />
<path d="M71.3867 84.9951
L71.4402 84.8446
" />
<path d="M71.4402 84.8446
L71.5733 84.7563
" />
<path d="M71.5733 84.7563
L71.7860 84.7302
" />
<path d="M71.7860 84.7302
L71.9365 84.7837
" />
<path d="M71.9365 84.7837
L72.0248 84.9168
" />
<path d="M72.0248 84.9168
L72.1205 85.6966
" />
<path d="M72.8295 85.6096
L72.7076 84.6170
" />
<path d="M72.7250 84.7588
L72.7872 84.6792
" />
<path d="M72.7872 84.6792
L72.9203 84.5909
" />
<path d="M72.9203 84.5909
L73.1330 84.5648
" />
<path d="M73.1330 84.5648
L73.2835 84.6183
" />
<path d="M73.2835 84.6183
L73.3718 84.7514
" />
<path d="M73.3718 84.7514
L73.4676 85.5312
" />
<path d="M73.3718 84.7514
L73.4253 84.6009
" />
<path d="M73.4253 84.6009
L73.5584 84.5126
" />
<path d="M73.5584 84.5126
L73.7711 84.4864
" />
<path d="M73.7711 84.4864
L73.9216 84.5399
" />
<path d="M73.9216 84.5399
L74.0099 84.6730
" />
<path d="M74.0099 84.6730
L74.1056 85.4529
" />
<path d="M74.7424 85.9504
L74.8046 85.8708
" />
<path d="M74.8046 85.8708
L74.9203 85.6407
" />
<path d="M74.9203 85.6407
L74.9738 85.4902
" />
<path d="M74.9738 85.4902
L75.0186 85.2688
" />
<path d="M75.0186 85.2688
L75.0459 84.9056
" />
<path d="M75.0459 84.9056
L75.0111 84.6220
" />
<path d="M75.0111 84.6220
L74.8967 84.2763
" />
<path d="M74.8967 84.2763
L74.7997 84.0723
" />
<path d="M74.7997 84.0723
L74.7114 83.9392
" />
<path d="M74.7114 83.9392
L74.5435 83.7439
" />
<path d="M74.5435 83.7439
L74.4639 83.6817
" />
</g></g>
<g style="fill:#000000; fill-opacity:0.0; 
stroke:#000000; stroke-width:0.1500; stroke-opacity:1; 
stroke-linecap:round; stroke-linejoin:round;">
<path d="M29.2211 70.9459
L27.4118 58.0725
" />
<path d="M29.7317 70.2683
L28.0895 58.5831
" />
<path d="M28.2629 56.9430
L41.1364 55.1338
" />
<path d="M28.9406 57.4537
L40.6257 55.8114
" />
<path d="M42.5463 69.4771
L30.8612 71.1194
" />
<path d="M43.2240 69.9878
L30.3505 71.7970
" />
<path d="M41.7552 56.6625
L43.3974 68.3477
" />
<path d="M42.2658 55.9849
L44.0751 68.8583
" />
<path d="M28.2629 56.9430 A1.0000 1.0000 0.0 0 0 27.4118 58.0725" />
<path d="M28.9406 57.4537 A1.0000 1.0000 0.0 0 0 28.0895 58.5831" />
<path d="M29.2211 70.9459 A1.0000 1.0000 0.0 0 0 30.3505 71.7970" />
<path d="M29.7317 70.2683 A1.0000 1.0000 0.0 0 0 30.8612 71.1194" />
<path d="M41.7552 56.6625 A1.0000 1.0000 0.0 0 0 40.6257 55.8114" />
<path d="M42.2658 55.9849 A1.0000 1.0000 0.0 0 0 41.1364 55.1338" />
<path d="M42.5463 69.4771 A1.0000 1.0000 0.0 0 0 43.3974 68.3477" />
<path d="M43.2240 69.9878 A1.0000 1.0000 0.0 0 0 44.0751 68.8583" />
<circle cx="41.1532" cy="34.4589" r="3.2000" /> 
<path d="M44.2056 34.5932
L42.8468 21.6644
" />
<path d="M44.7396 33.9337
L43.5062 22.1984
" />
<path d="M43.7368 20.5653
L56.6655 19.2065
" />
<path d="M44.3962 21.0993
L56.1316 19.8659
" />
<path d="M57.5740 33.5903
L45.8387 34.8237
" />
<path d="M58.2335 34.1243
L45.3047 35.4832
" />
<path d="M57.2306 20.7559
L58.4640 32.4913
" />
<path d="M57.7646 20.0965
L59.1235 33.0252
" />
<path d="M43.7368 20.5653 A1.0000 1.0000 0.0 0 0 42.8468 21.6644" />
<path d="M44.3962 21.0993 A1.0000 1.0000 0.0 0 0 43.5062 22.1984" />
<path d="M44.2056 34.5932 A1.0000 1.0000 0.0 0 0 45.3047 35.4832" />
<path d="M44.7396 33.9337 A1.0000 1.0000 0.0 0 0 45.8387 34.8237" />
<path d="M57.2306 20.7559 A1.0000 1.0000 0.0 0 0 56.1316 19.8659" />
<path d="M57.7646 20.0965 A1.0000 1.0000 0.0 0 0 56.6655 19.2065" />
<path d="M57.5740 33.5903 A1.0000 1.0000 0.0 0 0 58.4640 32.4913" />
<path d="M58.2335 34.1243 A1.0000 1.0000 0.0 0 0 59.1235 33.0252" />
<circle cx="137.8918" cy="114.5456" r="1.1000" /> 
<path d="M62.8278 21.4109
L61.9210 8.4426
" />
<path d="M63.3845 20.7705
L62.5614 8.9992
" />
<path d="M62.8488 7.3752
L75.8171 6.4684
" />
<path d="M63.4892 7.9319
L75.2604 7.1088
" />
<path d="M76.2231 20.8752
L64.4518 21.6983
" />
<path d="M76.8634 21.4319
L63.8951 22.3387
" />
<path d="M76.3277 8.0366
L77.1509 19.8079
" />
<path d="M76.8844 7.3962
L77.7913 20.3645
" />
<path d="M62.8488 7.3752 A1.0000 1.0000 0.0 0 0 61.9210 8.4426" />
<path d="M63.4892 7.9319 A1.0000 1.0000 0.0 0 0 62.5614 8.9992" />
<path d="M62.8278 21.4109 A1.0000 1.0000 0.0 0 0 63.8951 22.3387" />
<path d="M63.3845 20.7705 A1.0000 1.0000 0.0 0 0 64.4518 21.6983" />
<path d="M76.3277 8.0366 A1.0000 1.0000 0.0 0 0 75.2604 7.1088" />
<path d="M76.8844 7.3962 A1.0000 1.0000 0.0 0 0 75.8171 6.4684" />
<path d="M76.2231 20.8752 A1.0000 1.0000 0.0 0 0 77.1509 19.8079" />
<path d="M76.8634 21.4319 A1.0000 1.0000 0.0 0 0 77.7913 20.3645" />
<path d="M8.9118 65.5452
L6.6544 52.7427
" />
<path d="M9.3985 64.8501
L7.3495 53.2294
" />
<path d="M7.4655 51.5842
L20.2680 49.3268
" />
<path d="M8.1606 52.0709
L19.7813 50.0219
" />
<path d="M22.1777 63.6122
L10.5570 65.6613
" />
<path d="M22.8728 64.0989
L10.0703 66.3563
" />
<path d="M20.9398 50.8330
L22.9888 62.4538
" />
<path d="M21.4265 50.1380
L23.6839 62.9405
" />
<path d="M7.4655 51.5842 A1.0000 1.0000 0.0 0 0 6.6544 52.7427" />
<path d="M8.1606 52.0709 A1.0000 1.0000 0.0 0 0 7.3495 53.2294" />
<path d="M8.9118 65.5452 A1.0000 1.0000 0.0 0 0 10.0703 66.3563" />
<path d="M9.3985 64.8501 A1.0000 1.0000 0.0 0 0 10.5570 65.6613" />
<path d="M20.9398 50.8330 A1.0000 1.0000 0.0 0 0 19.7813 50.0219" />
<path d="M21.4265 50.1380 A1.0000 1.0000 0.0 0 0 20.2680 49.3268" />
<path d="M22.1777 63.6122 A1.0000 1.0000 0.0 0 0 22.9888 62.4538" />
<path d="M22.8728 64.0989 A1.0000 1.0000 0.0 0 0 23.6839 62.9405" />
<circle cx="102.1132" cy="38.7769" r="3.2000" /> 
<path d="M126.8126 98.7774
L135.1689 88.8189
" />
<path d="M127.6579 98.7035
L135.2428 89.6642
" />
<path d="M136.5777 88.6956
L146.5363 97.0518
" />
<path d="M136.6517 89.5409
L145.6910 97.1258
" />
<path d="M136.8205 107.6972
L127.7812 100.1123
" />
<path d="M136.8945 108.5425
L126.9359 100.1863
" />
<path d="M145.8142 98.5346
L138.2293 107.5740
" />
<path d="M146.6595 98.4607
L138.3033 108.4193
" />
<path d="M136.5777 88.6956 A1.0000 1.0000 0.0 0 0 135.1689 88.8189" />
<path d="M136.6517 89.5409 A1.0000 1.0000 0.0 0 0 135.2428 89.6642" />
<path d="M126.8126 98.7774 A1.0000 1.0000 0.0 0 0 126.9359 100.1863" />
<path d="M127.6579 98.7035 A1.0000 1.0000 0.0 0 0 127.7812 100.1123" />
<path d="M145.8142 98.5346 A1.0000 1.0000 0.0 0 0 145.6910 97.1258" />
<path d="M146.6595 98.4607 A1.0000 1.0000 0.0 0 0 146.5363 97.0518" />
<path d="M136.8205 107.6972 A1.0000 1.0000 0.0 0 0 138.2293 107.5740" />
<path d="M136.8945 108.5425 A1.0000 1.0000 0.0 0 0 138.3033 108.4193" />
<path d="M102.9955 34.3070
L102.9955 21.3070
" />
<path d="M103.5955 33.7070
L103.5955 21.9070
" />
<path d="M103.9955 20.3070
L116.9955 20.3070
" />
<path d="M104.5955 20.9070
L116.3955 20.9070
" />
<path d="M116.3955 34.7070
L104.5955 34.7070
" />
<path d="M116.9955 35.3070
L103.9955 35.3070
" />
<path d="M117.3955 21.9070
L117.3955 33.7070
" />
<path d="M117.9955 21.3070
L117.9955 34.3070
" />
<path d="M103.9955 20.3070 A1.0000 1.0000 0.0 0 0 102.9955 21.3070" />
<path d="M104.5955 20.9070 A1.0000 1.0000 0.0 0 0 103.5955 21.9070" />
<path d="M102.9955 34.3070 A1.0000 1.0000 0.0 0 0 103.9955 35.3070" />
<path d="M103.5955 33.7070 A1.0000 1.0000 0.0 0 0 104.5955 34.7070" />
<path d="M117.3955 21.9070 A1.0000 1.0000 0.0 0 0 116.3955 20.9070" />
<path d="M117.9955 21.3070 A1.0000 1.0000 0.0 0 0 116.9955 20.3070" />
<path d="M116.3955 34.7070 A1.0000 1.0000 0.0 0 0 117.3955 33.7070" />
<path d="M116.9955 35.3070 A1.0000 1.0000 0.0 0 0 117.9955 34.3070" />
<path d="M106.9888 92.5572
L110.3535 80.0001
" />
<path d="M107.7237 92.1329
L110.7777 80.7350
" />
<path d="M111.5782 79.2930
L124.1352 82.6577
" />
<path d="M112.0025 80.0279
L123.4004 83.0820
" />
<path d="M119.8287 96.4117
L108.4308 93.3577
" />
<path d="M120.2530 97.1466
L107.6959 93.7819
" />
<path d="M124.1075 84.3067
L121.0534 95.7046
" />
<path d="M124.8423 83.8824
L121.4777 96.4395
" />
<path d="M111.5782 79.2930 A1.0000 1.0000 0.0 0 0 110.3535 80.0001" />
<path d="M112.0025 80.0279 A1.0000 1.0000 0.0 0 0 110.7777 80.7350" />
<path d="M106.9888 92.5572 A1.0000 1.0000 0.0 0 0 107.6959 93.7819" />
<path d="M107.7237 92.1329 A1.0000 1.0000 0.0 0 0 108.4308 93.3577" />
<path d="M124.1075 84.3067 A1.0000 1.0000 0.0 0 0 123.4004 83.0820" />
<path d="M124.8423 83.8824 A1.0000 1.0000 0.0 0 0 124.1352 82.6577" />
<path d="M119.8287 96.4117 A1.0000 1.0000 0.0 0 0 121.0534 95.7046" />
<path d="M120.2530 97.1466 A1.0000 1.0000 0.0 0 0 121.4777 96.4395" />
<path d="M102.9955 52.5070
L102.9955 39.5070
" />
<path d="M103.5955 51.9070
L103.5955 40.1070
" />
<path d="M103.9955 38.5070
L116.9955 38.5070
" />
<path d="M104.5955 39.1070
L116.3955 39.1070
" />
<path d="M116.3955 52.9070
L104.5955 52.9070
" />
<path d="M116.9955 53.5070
L103.9955 53.5070
" />
<path d="M117.3955 40.1070
L117.3955 51.9070
" />
<path d="M117.9955 39.5070
L117.9955 52.5070
" />
<path d="M103.9955 38.5070 A1.0000 1.0000 0.0 0 0 102.9955 39.5070" />
<path d="M104.5955 39.1070 A1.0000 1.0000 0.0 0 0 103.5955 40.1070" />
<path d="M102.9955 52.5070 A1.0000 1.0000 0.0 0 0 103.9955 53.5070" />
<path d="M103.5955 51.9070 A1.0000 1.0000 0.0 0 0 104.5955 52.9070" />
<path d="M117.3955 40.1070 A1.0000 1.0000 0.0 0 0 116.3955 39.1070" />
<path d="M117.9955 39.5070 A1.0000 1.0000 0.0 0 0 116.9955 38.5070" />
<path d="M116.3955 52.9070 A1.0000 1.0000 0.0 0 0 117.3955 51.9070" />
<path d="M116.9955 53.5070 A1.0000 1.0000 0.0 0 0 117.9955 52.5070" />
<path d="M48.0105 70.7938
L46.6516 57.8650
" />
<path d="M48.5445 70.1343
L47.3110 58.3990
" />
<path d="M47.5416 56.7659
L60.4704 55.4071
" />
<path d="M48.2010 57.2999
L59.9364 56.0665
" />
<path d="M61.3789 69.7909
L49.6435 71.0243
" />
<path d="M62.0383 70.3249
L49.1095 71.6838
" />
<path d="M61.0354 56.9565
L62.2689 68.6918
" />
<path d="M61.5694 56.2971
L62.9283 69.2258
" />
<path d="M47.5416 56.7659 A1.0000 1.0000 0.0 0 0 46.6516 57.8650" />
<path d="M48.2010 57.2999 A1.0000 1.0000 0.0 0 0 47.3110 58.3990" />
<path d="M48.0105 70.7938 A1.0000 1.0000 0.0 0 0 49.1095 71.6838" />
<path d="M48.5445 70.1343 A1.0000 1.0000 0.0 0 0 49.6435 71.0243" />
<path d="M61.0354 56.9565 A1.0000 1.0000 0.0 0 0 59.9364 56.0665" />
<path d="M61.5694 56.2971 A1.0000 1.0000 0.0 0 0 60.4704 55.4071" />
<path d="M61.3789 69.7909 A1.0000 1.0000 0.0 0 0 62.2689 68.6918" />
<path d="M62.0383 70.3249 A1.0000 1.0000 0.0 0 0 62.9283 69.2258" />
<circle cx="147.6879" cy="102.8711" r="1.1000" /> 
<path d="M83.7308 47.0606
L83.2771 34.0685
" />
<path d="M84.3095 46.4400
L83.8977 34.6472
" />
<path d="M84.2416 33.0343
L97.2337 32.5806
" />
<path d="M84.8622 33.6129
L96.6550 33.2011
" />
<path d="M97.1366 46.9927
L85.3438 47.4045
" />
<path d="M97.7572 47.5714
L84.7651 48.0251
" />
<path d="M97.6893 34.1656
L98.1011 45.9584
" />
<path d="M98.2680 33.5450
L98.7217 46.5371
" />
<path d="M84.2416 33.0343 A1.0000 1.0000 0.0 0 0 83.2771 34.0685" />
<path d="M84.8622 33.6129 A1.0000 1.0000 0.0 0 0 83.8977 34.6472" />
<path d="M83.7308 47.0606 A1.0000 1.0000 0.0 0 0 84.7651 48.0251" />
<path d="M84.3095 46.4400 A1.0000 1.0000 0.0 0 0 85.3438 47.4045" />
<path d="M97.6893 34.1656 A1.0000 1.0000 0.0 0 0 96.6550 33.2011" />
<path d="M98.2680 33.5450 A1.0000 1.0000 0.0 0 0 97.2337 32.5806" />
<path d="M97.1366 46.9927 A1.0000 1.0000 0.0 0 0 98.1011 45.9584" />
<path d="M97.7572 47.5714 A1.0000 1.0000 0.0 0 0 98.7217 46.5371" />
<path d="M26.6881 52.9231
L24.8789 40.0496
" />
<path d="M27.1988 52.2454
L25.5565 40.5602
" />
<path d="M25.7300 38.9201
L38.6035 37.1109
" />
<path d="M26.4076 39.4308
L38.0928 37.7885
" />
<path d="M40.0134 51.4542
L28.3282 53.0965
" />
<path d="M40.6910 51.9649
L27.8176 53.7742
" />
<path d="M39.2222 38.6396
L40.8645 50.3248
" />
<path d="M39.7329 37.9620
L41.5421 50.8355
" />
<path d="M25.7300 38.9201 A1.0000 1.0000 0.0 0 0 24.8789 40.0496" />
<path d="M26.4076 39.4308 A1.0000 1.0000 0.0 0 0 25.5565 40.5602" />
<path d="M26.6881 52.9231 A1.0000 1.0000 0.0 0 0 27.8176 53.7742" />
<path d="M27.1988 52.2454 A1.0000 1.0000 0.0 0 0 28.3282 53.0965" />
<path d="M39.2222 38.6396 A1.0000 1.0000 0.0 0 0 38.0928 37.7885" />
<path d="M39.7329 37.9620 A1.0000 1.0000 0.0 0 0 38.6035 37.1109" />
<path d="M40.0134 51.4542 A1.0000 1.0000 0.0 0 0 40.8645 50.3248" />
<path d="M40.6910 51.9649 A1.0000 1.0000 0.0 0 0 41.5421 50.8355" />
<path d="M102.9955 70.7070
L102.9955 57.7070
" />
<path d="M103.5955 70.1070
L103.5955 58.3070
" />
<path d="M103.9955 56.7070
L116.9955 56.7070
" />
<path d="M104.5955 57.3070
L116.3955 57.3070
" />
<path d="M116.3955 71.1070
L104.5955 71.1070
" />
<path d="M116.9955 71.7070
L103.9955 71.7070
" />
<path d="M117.3955 58.3070
L117.3955 70.1070
" />
<path d="M117.9955 57.7070
L117.9955 70.7070
" />
<path d="M103.9955 56.7070 A1.0000 1.0000 0.0 0 0 102.9955 57.7070" />
<path d="M104.5955 57.3070 A1.0000 1.0000 0.0 0 0 103.5955 58.3070" />
<path d="M102.9955 70.7070 A1.0000 1.0000 0.0 0 0 103.9955 71.7070" />
<path d="M103.5955 70.1070 A1.0000 1.0000 0.0 0 0 104.5955 71.1070" />
<path d="M117.3955 58.3070 A1.0000 1.0000 0.0 0 0 116.3955 57.3070" />
<path d="M117.9955 57.7070 A1.0000 1.0000 0.0 0 0 116.9955 56.7070" />
<path d="M116.3955 71.1070 A1.0000 1.0000 0.0 0 0 117.3955 70.1070" />
<path d="M116.9955 71.7070 A1.0000 1.0000 0.0 0 0 117.9955 70.7070" />
<circle cx="63.2512" cy="55.0329" r="3.2000" /> 
<circle cx="126.4972" cy="92.3709" r="3.2000" /> 
<path d="M64.0974 39.5665
L63.1905 26.5982
" />
<path d="M64.6540 38.9262
L63.8309 27.1549
" />
<path d="M64.1183 25.5309
L77.0867 24.6241
" />
<path d="M64.7587 26.0876
L76.5300 25.2645
" />
<path d="M77.4926 39.0308
L65.7214 39.8540
" />
<path d="M78.1330 39.5875
L65.1647 40.4944
" />
<path d="M77.5973 26.1923
L78.4204 37.9635
" />
<path d="M78.1540 25.5519
L79.0608 38.5202
" />
<path d="M64.1183 25.5309 A1.0000 1.0000 0.0 0 0 63.1905 26.5982" />
<path d="M64.7587 26.0876 A1.0000 1.0000 0.0 0 0 63.8309 27.1549" />
<path d="M64.0974 39.5665 A1.0000 1.0000 0.0 0 0 65.1647 40.4944" />
<path d="M64.6540 38.9262 A1.0000 1.0000 0.0 0 0 65.7214 39.8540" />
<path d="M77.5973 26.1923 A1.0000 1.0000 0.0 0 0 76.5300 25.2645" />
<path d="M78.1540 25.5519 A1.0000 1.0000 0.0 0 0 77.0867 24.6241" />
<path d="M77.4926 39.0308 A1.0000 1.0000 0.0 0 0 78.4204 37.9635" />
<path d="M78.1330 39.5875 A1.0000 1.0000 0.0 0 0 79.0608 38.5202" />
<path d="M31.7540 88.9688
L29.9448 76.0953
" />
<path d="M32.2647 88.2912
L30.6224 76.6060
" />
<path d="M30.7959 74.9659
L43.6694 73.1566
" />
<path d="M31.4735 75.4765
L43.1587 73.8343
" />
<path d="M45.0793 87.5000
L33.3941 89.1422
" />
<path d="M45.7569 88.0107
L32.8835 89.8199
" />
<path d="M44.2881 74.6854
L45.9304 86.3706
" />
<path d="M44.7988 74.0077
L46.6080 86.8812
" />
<path d="M30.7959 74.9659 A1.0000 1.0000 0.0 0 0 29.9448 76.0953" />
<path d="M31.4735 75.4765 A1.0000 1.0000 0.0 0 0 30.6224 76.6060" />
<path d="M31.7540 88.9688 A1.0000 1.0000 0.0 0 0 32.8835 89.8199" />
<path d="M32.2647 88.2912 A1.0000 1.0000 0.0 0 0 33.3941 89.1422" />
<path d="M44.2881 74.6854 A1.0000 1.0000 0.0 0 0 43.1587 73.8343" />
<path d="M44.7988 74.0077 A1.0000 1.0000 0.0 0 0 43.6694 73.1566" />
<path d="M45.0793 87.5000 A1.0000 1.0000 0.0 0 0 45.9304 86.3706" />
<path d="M45.7569 88.0107 A1.0000 1.0000 0.0 0 0 46.6080 86.8812" />
<path d="M83.0957 28.8717
L82.6420 15.8796
" />
<path d="M83.6744 28.2511
L83.2625 16.4583
" />
<path d="M83.6065 14.8453
L96.5985 14.3916
" />
<path d="M84.2270 15.4240
L96.0199 15.0122
" />
<path d="M96.5015 28.8038
L84.7087 29.2156
" />
<path d="M97.1220 29.3825
L84.1300 29.8362
" />
<path d="M97.0541 15.9767
L97.4660 27.7695
" />
<path d="M97.6328 15.3561
L98.0865 28.3482
" />
<path d="M83.6065 14.8453 A1.0000 1.0000 0.0 0 0 82.6420 15.8796" />
<path d="M84.2270 15.4240 A1.0000 1.0000 0.0 0 0 83.2625 16.4583" />
<path d="M83.0957 28.8717 A1.0000 1.0000 0.0 0 0 84.1300 29.8362" />
<path d="M83.6744 28.2511 A1.0000 1.0000 0.0 0 0 84.7087 29.2156" />
<path d="M97.0541 15.9767 A1.0000 1.0000 0.0 0 0 96.0199 15.0122" />
<path d="M97.6328 15.3561 A1.0000 1.0000 0.0 0 0 96.5985 14.3916" />
<path d="M96.5015 28.8038 A1.0000 1.0000 0.0 0 0 97.4660 27.7695" />
<path d="M97.1220 29.3825 A1.0000 1.0000 0.0 0 0 98.0865 28.3482" />
<circle cx="85.3492" cy="77.6389" r="3.2000" /> 
<path d="M65.3669 57.7222
L64.4601 44.7539
" />
<path d="M65.9236 57.0818
L65.1005 45.3106
" />
<path d="M65.3879 43.6866
L78.3562 42.7797
" />
<path d="M66.0283 44.2432
L77.7995 43.4201
" />
<path d="M78.7622 57.1865
L66.9909 58.0096
" />
<path d="M79.4026 57.7432
L66.4342 58.6500
" />
<path d="M78.8669 44.3479
L79.6900 56.1192
" />
<path d="M79.4236 43.7075
L80.3304 56.6759
" />
<path d="M65.3879 43.6866 A1.0000 1.0000 0.0 0 0 64.4601 44.7539" />
<path d="M66.0283 44.2432 A1.0000 1.0000 0.0 0 0 65.1005 45.3106" />
<path d="M65.3669 57.7222 A1.0000 1.0000 0.0 0 0 66.4342 58.6500" />
<path d="M65.9236 57.0818 A1.0000 1.0000 0.0 0 0 66.9909 58.0096" />
<path d="M78.8669 44.3479 A1.0000 1.0000 0.0 0 0 77.7995 43.4201" />
<path d="M79.4236 43.7075 A1.0000 1.0000 0.0 0 0 78.3562 42.7797" />
<path d="M78.7622 57.1865 A1.0000 1.0000 0.0 0 0 79.6900 56.1192" />
<path d="M79.4026 57.7432 A1.0000 1.0000 0.0 0 0 80.3304 56.6759" />
<path d="M12.0722 83.4687
L9.8148 70.6662
" />
<path d="M12.5589 82.7736
L10.5098 71.1529
" />
<path d="M10.6259 69.5077
L23.4284 67.2503
" />
<path d="M11.3210 69.9944
L22.9417 67.9454
" />
<path d="M25.3381 81.5357
L13.7174 83.5848
" />
<path d="M26.0332 82.0224
L13.2307 84.2798
" />
<path d="M24.1002 68.7565
L26.1492 80.3773
" />
<path d="M24.5869 68.0615
L26.8443 80.8640
" />
<path d="M10.6259 69.5077 A1.0000 1.0000 0.0 0 0 9.8148 70.6662" />
<path d="M11.3210 69.9944 A1.0000 1.0000 0.0 0 0 10.5098 71.1529" />
<path d="M12.0722 83.4687 A1.0000 1.0000 0.0 0 0 13.2307 84.2798" />
<path d="M12.5589 82.7736 A1.0000 1.0000 0.0 0 0 13.7174 83.5848" />
<path d="M24.1002 68.7565 A1.0000 1.0000 0.0 0 0 22.9417 67.9454" />
<path d="M24.5869 68.0615 A1.0000 1.0000 0.0 0 0 23.4284 67.2503" />
<path d="M25.3381 81.5357 A1.0000 1.0000 0.0 0 0 26.1492 80.3773" />
<path d="M26.0332 82.0224 A1.0000 1.0000 0.0 0 0 26.8443 80.8640" />
<path d="M46.1081 52.6935
L44.7492 39.7647
" />
<path d="M46.6421 52.0340
L45.4086 40.2987
" />
<path d="M45.6392 38.6656
L58.5680 37.3068
" />
<path d="M46.2986 39.1996
L58.0340 37.9662
" />
<path d="M59.4765 51.6906
L47.7411 52.9240
" />
<path d="M60.1359 52.2246
L47.2071 53.5835
" />
<path d="M59.1330 38.8562
L60.3665 50.5915
" />
<path d="M59.6670 38.1968
L61.0259 51.1255
" />
<path d="M45.6392 38.6656 A1.0000 1.0000 0.0 0 0 44.7492 39.7647" />
<path d="M46.2986 39.1996 A1.0000 1.0000 0.0 0 0 45.4086 40.2987" />
<path d="M46.1081 52.6935 A1.0000 1.0000 0.0 0 0 47.2071 53.5835" />
<path d="M46.6421 52.0340 A1.0000 1.0000 0.0 0 0 47.7411 52.9240" />
<path d="M59.1330 38.8562 A1.0000 1.0000 0.0 0 0 58.0340 37.9662" />
<path d="M59.6670 38.1968 A1.0000 1.0000 0.0 0 0 58.5680 37.3068" />
<path d="M59.4765 51.6906 A1.0000 1.0000 0.0 0 0 60.3665 50.5916" />
<path d="M60.1359 52.2246 A1.0000 1.0000 0.0 0 0 61.0259 51.1255" />
<path d="M84.3660 65.2495
L83.9123 52.2575
" />
<path d="M84.9447 64.6290
L84.5329 52.8362
" />
<path d="M84.8768 51.2232
L97.8689 50.7695
" />
<path d="M85.4974 51.8019
L97.2902 51.3900
" />
<path d="M97.7718 65.1816
L85.9790 65.5935
" />
<path d="M98.3924 65.7603
L85.4003 66.2140
" />
<path d="M98.3245 52.3545
L98.7363 64.1473
" />
<path d="M98.9032 51.7340
L99.3569 64.7260
" />
<path d="M84.8768 51.2232 A1.0000 1.0000 0.0 0 0 83.9123 52.2575" />
<path d="M85.4974 51.8019 A1.0000 1.0000 0.0 0 0 84.5329 52.8362" />
<path d="M84.3660 65.2495 A1.0000 1.0000 0.0 0 0 85.4003 66.2140" />
<path d="M84.9447 64.6290 A1.0000 1.0000 0.0 0 0 85.9790 65.5935" />
<path d="M98.3245 52.3545 A1.0000 1.0000 0.0 0 0 97.2902 51.3900" />
<path d="M98.9032 51.7340 A1.0000 1.0000 0.0 0 0 97.8689 50.7695" />
<path d="M97.7718 65.1816 A1.0000 1.0000 0.0 0 0 98.7363 64.1473" />
<path d="M98.3924 65.7603 A1.0000 1.0000 0.0 0 0 99.3569 64.7260" />
<circle cx="80.5232" cy="20.4889" r="3.2000" /> 
<circle cx="25.9132" cy="63.9229" r="3.2000" /> 
<path d="M86.3935 95.2976
L84.1361 82.4951
" />
<path d="M86.8802 94.6025
L84.8312 82.9818
" />
<path d="M84.9473 81.3367
L97.7498 79.0792
" />
<path d="M85.6423 81.8234
L97.2631 79.7743
" />
<path d="M99.6594 93.3647
L88.0387 95.4137
" />
<path d="M100.3545 93.8514
L87.5520 96.1088
" />
<path d="M98.4215 80.5855
L100.4706 92.2062
" />
<path d="M98.9082 79.8904
L101.1656 92.6929
" />
<path d="M84.9473 81.3367 A1.0000 1.0000 0.0 0 0 84.1361 82.4951" />
<path d="M85.6423 81.8234 A1.0000 1.0000 0.0 0 0 84.8312 82.9818" />
<path d="M86.3935 95.2976 A1.0000 1.0000 0.0 0 0 87.5520 96.1088" />
<path d="M86.8802 94.6025 A1.0000 1.0000 0.0 0 0 88.0387 95.4137" />
<path d="M98.4215 80.5855 A1.0000 1.0000 0.0 0 0 97.2631 79.7743" />
<path d="M98.9082 79.8904 A1.0000 1.0000 0.0 0 0 97.7498 79.0792" />
<path d="M99.6594 93.3647 A1.0000 1.0000 0.0 0 0 100.4706 92.2062" />
<path d="M100.3545 93.8514 A1.0000 1.0000 0.0 0 0 101.1656 92.6929" />
<g >
</g>
<g >
</g>
<g >
</g>
<g >
</g>
<g >
</g>
<g >
</g>
<g >
</g>
<g >
</g>
<g >
</g>
<g >
</g>
<g >
</g>
<g >
</g>
<g >
</g>
<g >
</g>
<g >
</g>
<g >
</g>
<g >
</g>
<g >
</g>
<g >
</g>
<g >
</g>
<g >
</g>
<g >
</g>
<g >
</g>
<g >
</g>
<g >
</g>
<g >
</g>
<g >
</g>
<g >
</g>
<g >
</g>
<g >
</g>
<g >
</g>
<g >
</g>
<g >
</g>
<g >
</g>
<g >
</g>
<g >
</g>
<g >
</g>
<g >
</g>
<g >
</g>
<g >
</g>
<g >
</g>
<g >
</g>
<g >
</g>
<g >
</g>
<g >
</g>
<g >
</g>
<g >
</g>
<g >
</g>
<g >
</g>
<g >
</g>
<g >
</g>
<g >
</g>
<g >
</g>
<g >
</g>
<g >
</g>
<g >
</g>
<g >
</g>
<g >
</g>
<g >
</g>
<g >
</g>
<g >
</g>
<g >
</g>
<g >
</g>
<g >
</g>
<g >
</g>
<g >
</g>
<g >
</g>
<g >
</g>
<g >
</g>
<g >
</g>
<g >
</g>
<g >
</g>
<g >
</g>
<g >
</g>
<g >
</g>
<g >
</g>
<g >
</g>
<g >
</g>
<g >
</g>
<g >
</g>
<g >
</g>
<g >
</g>
<g >
</g>
<g >
</g>
<g >
</g>
<g >
</g>
<g >
</g>
<g >
</g>
<g >
</g>
<g >
</g>
<g >
</g>
<g >
</g>
<g >
</g>
<g >
</g>
<g >
</g>
</g>
<g style="fill:#000000; fill-opacity:0.0; 
stroke:#000000; stroke-width:0.1500; stroke-opacity:1; 
stroke-linecap:round; stroke-linejoin:round;">
</g>
<g style="fill:#000000; fill-opacity:0.0; 
stroke:#000000; stroke-width:0.2000; stroke-opacity:1; 
stroke-linecap:round; stroke-linejoin:round;">
<path d="M56.8212 1.7765 A1.0001 1.0001 0.0 0 0 55.8934 2.8439" />
<path d="M0.9264 46.6284
L18.7388 43.4876
" />
<path d="M55.8934 2.8439
L56.5481 12.2058
" />
<path d="M153.9852 69.9111
L152.9852 69.9111
" />
<path d="M83.3443 8.8499
L101.7494 8.2072
" />
<path d="M121.7112 102.9471
L137.3578 115.9718
" />
<path d="M18.5027 34.8736
L19.5554 42.3636
" />
<path d="M37.5312 15.1750
L55.6550 13.2701
" />
<path d="M0.9264 46.6284 A1.0000 1.0000 0.0 0 0 0.1152 47.7869" />
<path d="M154.9853 86.7111 A1.0000 1.0000 0.0 0 0 153.9852 85.7111" />
<path d="M82.3119 7.9203 A0.9999 0.9999 0.0 0 0 83.3443 8.8499" />
<path d="M0.1152 47.7869
L8.5806 95.7968
" />
<path d="M48.8428 74.5592 A1.0000 1.0000 0.0 0 0 47.9721 75.6736" />
<path d="M81.8301 1.0302
L82.3119 7.9203
" />
<path d="M47.9721 75.6736
L50.4558 95.4473
" />
<path d="M82.2074 91.3445
L79.7365 71.7701
" />
<path d="M102.9295 13.3460 A1.0001 1.0001 0.0 0 0 103.9289 14.3111" />
<path d="M19.3538 33.7441
L37.2427 31.2300
" />
<path d="M104.3724 98.3333
L121.7112 102.9471
" />
<path d="M37.2427 31.2300 A0.9999 0.9999 0.0 0 0 38.0981 30.1352" />
<path d="M81.8301 1.0302 A1.0000 1.0000 0.0 0 0 80.7628 0.1024" />
<path d="M51.3738 96.0986
L81.2995 92.6298
" />
<path d="M79.7365 71.7701 A1.0000 1.0000 0.0 0 0 78.6225 70.9027" />
<path d="M80.1479 96.6105
L9.5658 96.6232
" />
<path d="M81.0912 97.4264
L81.7992 101.3717
" />
<path d="M138.7666 115.8485
L154.6359 96.9863
" />
<path d="M152.9852 85.7111
L153.9852 85.7111
" />
<path d="M137.3578 115.9718 A1.0000 1.0000 0.0 0 0 138.7666 115.8485" />
<path d="M102.7837 9.1717
L102.9295 13.3460
" />
<path d="M50.4558 95.4473 A0.8258 0.8258 0.0 0 0 51.3738 96.0986" />
<path d="M37.5312 15.1750 A1.0001 1.0001 0.0 0 0 36.6412 16.2740" />
<path d="M56.8212 1.7766
L80.7628 0.1024
" />
<path d="M18.7387 43.4875 A1.0000 1.0000 0.0 0 0 19.5554 42.3636" />
<path d="M19.3538 33.7442 A1.0000 1.0000 0.0 0 0 18.5027 34.8736" />
<path d="M82.9577 102.1828
L104.3724 98.3333
" />
<path d="M36.6412 16.2740
L38.0981 30.1352
" />
<path d="M151.9853 84.7111 A1.0000 1.0000 0.0 0 0 152.9852 85.7111" />
<path d="M154.9853 15.3111 A1.0000 1.0000 0.0 0 0 153.9852 14.3111" />
<path d="M151.9852 70.9111
L151.9852 84.7111
" />
<path d="M102.7837 9.1717 A1.0000 1.0000 0.0 0 0 101.7494 8.2072" />
<path d="M103.9289 14.3111
L153.9852 14.3111
" />
<path d="M78.6225 70.9027
L48.8428 74.5592
" />
<path d="M152.9852 69.9111 A0.9999 0.9999 0.0 0 0 151.9852 70.9111" />
<path d="M81.2995 92.6298 A1.0417 1.0417 0.0 0 0 82.2074 91.3445" />
<path d="M154.9852 15.3111
L154.9852 68.9111
" />
<path d="M81.0912 97.4264 A0.9879 0.9879 0.0 0 0 80.1479 96.6105" />
<path d="M8.5806 95.7968 A1.0000 1.0000 0.0 0 0 9.5658 96.6232" />
<path d="M81.7992 101.3717 A1.0000 1.0000 0.0 0 0 82.9577 102.1828" />
<path d="M55.6550 13.2701 A1.0001 1.0001 0.0 0 0 56.5481 12.2058" />
<path d="M153.9852 69.9111 A1.0000 1.0000 0.0 0 0 154.9852 68.9111" />
<path d="M154.6359 96.9864 A1.4081 1.4081 0.0 0 0 154.9863 96.0330" />
<path d="M154.9852 86.7111
L154.9863 96.0330
" />
<g >
</g>
<g >
</g>
<g >
</g>
<g >
</g>
<g >
</g>
<g >
</g>
<g >
</g>
<g >
</g>
<g >
</g>
<g >
</g>
<g >
</g>
<g >
</g>
<g >
</g>
<g >
</g>
<g >
</g>
<g >
</g>
<g >
</g>
<g >
</g>
<g >
</g>
<g >
</g>
<g >
</g>
<g >
</g>
<g >
</g>
<g >
</g>
<g >
</g>
<g >
</g>
<g >
</g>
<g >
</g>
<g >
</g>
<g >
</g>
<g >
</g>
<g >
</g>
<g >
</g>
<g >
</g>
<g >
</g>
<g >
</g>
<g >
</g>
<g >
</g>
<g >
</g>
<g >
</g>
<g >
</g>
<g >
</g>
<g >
</g>
<g >
</g>
<g >
</g>
<g >
</g>
<g >
</g>
<g >
</g>
<g >
</g>
<g >
</g>
<g >
</g>
<g >
</g>
<g >
</g>
<g >
</g>
<g >
</g>
<g >
</g>
<g >
</g>
<g >
</g>
<g >
</g>
<g >
</g>
<g >
</g>
<g >
</g>
<g >
</g>
<g >
</g>
<g >
</g>
<g >
</g>
<g >
</g>
<g >
</g>
<g >
</g>
<g >
</g>
<g >
</g>
<g >
</g>
<g >
</g>
<g >
</g>
<g >
</g>
<g >
</g>
<g >
</g>
<g >
</g>
<g >
</g>
<g >
</g>
<g >
</g>
<g >
</g>
<g >
</g>
<g >
</g>
<g >
</g>
<g >
</g>
<g >
</g>
<g >
</g>
<g >
</g>
<g >
</g>
<g >
</g>
<g >
</g>
<g >
</g>
<g >
</g>
<g >
</g>
</g> 
</svg>
