<?xml version="1.0" standalone="no"?>
 <!DOCTYPE svg PUBLIC "-//W3C//DTD SVG 1.1//EN" 
 "http://www.w3.org/Graphics/SVG/1.1/DTD/svg11.dtd"> 
<svg
  xmlns:svg="http://www.w3.org/2000/svg"
  xmlns="http://www.w3.org/2000/svg"
  xmlns:xlink="http://www.w3.org/1999/xlink"
  version="1.1"
  width="297.0022mm" height="210.0072mm" viewBox="0.0000 0.0000 297.0022 210.0072">
<title>SVG Image created as nightliner-F_Paste.svg date 2023/10/24 16:24:50 </title>
  <desc>Image generated by PCBNEW </desc>
<g style="fill:#000000; fill-opacity:1.0000;stroke:#000000; stroke-opacity:1.0000;
stroke-linecap:round; stroke-linejoin:round;"
 transform="translate(0 0) scale(1 1)">
</g>
<g style="fill:#000000; fill-opacity:0.0; 
stroke:#000000; stroke-width:0.0000; stroke-opacity:1; 
stroke-linecap:round; stroke-linejoin:round;">
<g >
</g>
<g style="fill:#000000; fill-opacity:0.0; 
stroke:#000000; stroke-width:0.0000; stroke-opacity:1; 
stroke-linecap:round; stroke-linejoin:round;">
</g>
<g style="fill:#000000; fill-opacity:1.0000; 
stroke:#000000; stroke-width:0.0000; stroke-opacity:1; 
stroke-linecap:round; stroke-linejoin:round;">
<path style="fill:#000000; fill-opacity:1.0000; 
stroke:#000000; stroke-width:0.0000; stroke-opacity:1; 
stroke-linecap:round; stroke-linejoin:round;fill-rule:evenodd;"
d="M 202.9000,51.0250
202.9000,50.5750
203.5000,50.5750
203.5000,51.0250
Z" /> 
<path style="fill:#000000; fill-opacity:1.0000; 
stroke:#000000; stroke-width:0.0000; stroke-opacity:1; 
stroke-linecap:round; stroke-linejoin:round;fill-rule:evenodd;"
d="M 205.0000,51.0250
205.0000,50.5750
205.6000,50.5750
205.6000,51.0250
Z" /> 
</g>
<g >
</g>
<g style="fill:#000000; fill-opacity:1.0000; 
stroke:#000000; stroke-width:0.0000; stroke-opacity:1; 
stroke-linecap:round; stroke-linejoin:round;">
<path style="fill:#000000; fill-opacity:1.0000; 
stroke:#000000; stroke-width:0.0000; stroke-opacity:1; 
stroke-linecap:round; stroke-linejoin:round;fill-rule:evenodd;"
d="M 179.8275,40.1900
179.8465,40.0943
179.9007,40.0132
179.9818,39.9590
180.0775,39.9400
180.6025,39.9400
180.6982,39.9590
180.7793,40.0132
180.8335,40.0943
180.8525,40.1900
180.8525,41.0900
180.8335,41.1857
180.7793,41.2668
180.6982,41.3210
180.6025,41.3400
180.0775,41.3400
179.9818,41.3210
179.9007,41.2668
179.8465,41.1857
179.8275,41.0900
Z" /> 
<path style="fill:#000000; fill-opacity:1.0000; 
stroke:#000000; stroke-width:0.0000; stroke-opacity:1; 
stroke-linecap:round; stroke-linejoin:round;fill-rule:evenodd;"
d="M 181.6525,40.1900
181.6715,40.0943
181.7257,40.0132
181.8068,39.9590
181.9025,39.9400
182.4275,39.9400
182.5232,39.9590
182.6043,40.0132
182.6585,40.0943
182.6775,40.1900
182.6775,41.0900
182.6585,41.1857
182.6043,41.2668
182.5232,41.3210
182.4275,41.3400
181.9025,41.3400
181.8068,41.3210
181.7257,41.2668
181.6715,41.1857
181.6525,41.0900
Z" /> 
</g>
<g >
</g>
<g style="fill:#000000; fill-opacity:1.0000; 
stroke:#000000; stroke-width:0.0000; stroke-opacity:1; 
stroke-linecap:round; stroke-linejoin:round;">
<path style="fill:#000000; fill-opacity:1.0000; 
stroke:#000000; stroke-width:0.0000; stroke-opacity:1; 
stroke-linecap:round; stroke-linejoin:round;fill-rule:evenodd;"
d="M 209.4700,71.3450
209.4700,70.8950
210.0700,70.8950
210.0700,71.3450
Z" /> 
<path style="fill:#000000; fill-opacity:1.0000; 
stroke:#000000; stroke-width:0.0000; stroke-opacity:1; 
stroke-linecap:round; stroke-linejoin:round;fill-rule:evenodd;"
d="M 211.5700,71.3450
211.5700,70.8950
212.1700,70.8950
212.1700,71.3450
Z" /> 
</g>
<g >
</g>
<g style="fill:#000000; fill-opacity:1.0000; 
stroke:#000000; stroke-width:0.0000; stroke-opacity:1; 
stroke-linecap:round; stroke-linejoin:round;">
<path style="fill:#000000; fill-opacity:1.0000; 
stroke:#000000; stroke-width:0.0000; stroke-opacity:1; 
stroke-linecap:round; stroke-linejoin:round;fill-rule:evenodd;"
d="M 185.6225,57.9700
185.6415,57.8743
185.6957,57.7932
185.7768,57.7390
185.8725,57.7200
186.3975,57.7200
186.4932,57.7390
186.5743,57.7932
186.6285,57.8743
186.6475,57.9700
186.6475,58.8700
186.6285,58.9657
186.5743,59.0468
186.4932,59.1010
186.3975,59.1200
185.8725,59.1200
185.7768,59.1010
185.6957,59.0468
185.6415,58.9657
185.6225,58.8700
Z" /> 
<path style="fill:#000000; fill-opacity:1.0000; 
stroke:#000000; stroke-width:0.0000; stroke-opacity:1; 
stroke-linecap:round; stroke-linejoin:round;fill-rule:evenodd;"
d="M 187.4475,57.9700
187.4665,57.8743
187.5207,57.7932
187.6018,57.7390
187.6975,57.7200
188.2225,57.7200
188.3182,57.7390
188.3993,57.7932
188.4535,57.8743
188.4725,57.9700
188.4725,58.8700
188.4535,58.9657
188.3993,59.0468
188.3182,59.1010
188.2225,59.1200
187.6975,59.1200
187.6018,59.1010
187.5207,59.0468
187.4665,58.9657
187.4475,58.8700
Z" /> 
</g>
<g >
</g>
<g style="fill:#000000; fill-opacity:1.0000; 
stroke:#000000; stroke-width:0.0000; stroke-opacity:1; 
stroke-linecap:round; stroke-linejoin:round;">
<path style="fill:#000000; fill-opacity:1.0000; 
stroke:#000000; stroke-width:0.0000; stroke-opacity:1; 
stroke-linecap:round; stroke-linejoin:round;fill-rule:evenodd;"
d="M 147.8600,25.1500
147.8771,25.0639
147.9259,24.9909
147.9989,24.9421
148.0850,24.9250
148.5350,24.9250
148.6211,24.9421
148.6941,24.9909
148.7429,25.0639
148.7600,25.1500
148.7600,25.6500
148.7429,25.7361
148.6941,25.8091
148.6211,25.8579
148.5350,25.8750
148.0850,25.8750
147.9989,25.8579
147.9259,25.8091
147.8771,25.7361
147.8600,25.6500
Z" /> 
<path style="fill:#000000; fill-opacity:1.0000; 
stroke:#000000; stroke-width:0.0000; stroke-opacity:1; 
stroke-linecap:round; stroke-linejoin:round;fill-rule:evenodd;"
d="M 149.4100,25.1500
149.4271,25.0639
149.4759,24.9909
149.5489,24.9421
149.6350,24.9250
150.0850,24.9250
150.1711,24.9421
150.2441,24.9909
150.2929,25.0639
150.3100,25.1500
150.3100,25.6500
150.2929,25.7361
150.2441,25.8091
150.1711,25.8579
150.0850,25.8750
149.6350,25.8750
149.5489,25.8579
149.4759,25.8091
149.4271,25.7361
149.4100,25.6500
Z" /> 
</g>
<g >
</g>
<g style="fill:#000000; fill-opacity:1.0000; 
stroke:#000000; stroke-width:0.0000; stroke-opacity:1; 
stroke-linecap:round; stroke-linejoin:round;">
<path style="fill:#000000; fill-opacity:1.0000; 
stroke:#000000; stroke-width:0.0000; stroke-opacity:1; 
stroke-linecap:round; stroke-linejoin:round;fill-rule:evenodd;"
d="M 171.9500,29.7700
171.9500,31.2200
171.3500,31.2200
171.3500,29.7700
Z" /> 
<path style="fill:#000000; fill-opacity:1.0000; 
stroke:#000000; stroke-width:0.0000; stroke-opacity:1; 
stroke-linecap:round; stroke-linejoin:round;fill-rule:evenodd;"
d="M 171.1500,29.7700
171.1500,31.2200
170.5500,31.2200
170.5500,29.7700
Z" /> 
<path style="fill:#000000; fill-opacity:1.0000; 
stroke:#000000; stroke-width:0.0000; stroke-opacity:1; 
stroke-linecap:round; stroke-linejoin:round;fill-rule:evenodd;"
d="M 169.8000,29.7700
169.8000,31.2200
169.5000,31.2200
169.5000,29.7700
Z" /> 
<path style="fill:#000000; fill-opacity:1.0000; 
stroke:#000000; stroke-width:0.0000; stroke-opacity:1; 
stroke-linecap:round; stroke-linejoin:round;fill-rule:evenodd;"
d="M 168.8000,29.7700
168.8000,31.2200
168.5000,31.2200
168.5000,29.7700
Z" /> 
<path style="fill:#000000; fill-opacity:1.0000; 
stroke:#000000; stroke-width:0.0000; stroke-opacity:1; 
stroke-linecap:round; stroke-linejoin:round;fill-rule:evenodd;"
d="M 168.3000,29.7700
168.3000,31.2200
168.0000,31.2200
168.0000,29.7700
Z" /> 
<path style="fill:#000000; fill-opacity:1.0000; 
stroke:#000000; stroke-width:0.0000; stroke-opacity:1; 
stroke-linecap:round; stroke-linejoin:round;fill-rule:evenodd;"
d="M 167.3000,29.7700
167.3000,31.2200
167.0000,31.2200
167.0000,29.7700
Z" /> 
<path style="fill:#000000; fill-opacity:1.0000; 
stroke:#000000; stroke-width:0.0000; stroke-opacity:1; 
stroke-linecap:round; stroke-linejoin:round;fill-rule:evenodd;"
d="M 166.2500,29.7700
166.2500,31.2200
165.6500,31.2200
165.6500,29.7700
Z" /> 
<path style="fill:#000000; fill-opacity:1.0000; 
stroke:#000000; stroke-width:0.0000; stroke-opacity:1; 
stroke-linecap:round; stroke-linejoin:round;fill-rule:evenodd;"
d="M 165.4500,29.7700
165.4500,31.2200
164.8500,31.2200
164.8500,29.7700
Z" /> 
<path style="fill:#000000; fill-opacity:1.0000; 
stroke:#000000; stroke-width:0.0000; stroke-opacity:1; 
stroke-linecap:round; stroke-linejoin:round;fill-rule:evenodd;"
d="M 165.4500,29.7700
165.4500,31.2200
164.8500,31.2200
164.8500,29.7700
Z" /> 
<path style="fill:#000000; fill-opacity:1.0000; 
stroke:#000000; stroke-width:0.0000; stroke-opacity:1; 
stroke-linecap:round; stroke-linejoin:round;fill-rule:evenodd;"
d="M 166.2500,29.7700
166.2500,31.2200
165.6500,31.2200
165.6500,29.7700
Z" /> 
<path style="fill:#000000; fill-opacity:1.0000; 
stroke:#000000; stroke-width:0.0000; stroke-opacity:1; 
stroke-linecap:round; stroke-linejoin:round;fill-rule:evenodd;"
d="M 166.8000,29.7700
166.8000,31.2200
166.5000,31.2200
166.5000,29.7700
Z" /> 
<path style="fill:#000000; fill-opacity:1.0000; 
stroke:#000000; stroke-width:0.0000; stroke-opacity:1; 
stroke-linecap:round; stroke-linejoin:round;fill-rule:evenodd;"
d="M 167.8000,29.7700
167.8000,31.2200
167.5000,31.2200
167.5000,29.7700
Z" /> 
<path style="fill:#000000; fill-opacity:1.0000; 
stroke:#000000; stroke-width:0.0000; stroke-opacity:1; 
stroke-linecap:round; stroke-linejoin:round;fill-rule:evenodd;"
d="M 169.3000,29.7700
169.3000,31.2200
169.0000,31.2200
169.0000,29.7700
Z" /> 
<path style="fill:#000000; fill-opacity:1.0000; 
stroke:#000000; stroke-width:0.0000; stroke-opacity:1; 
stroke-linecap:round; stroke-linejoin:round;fill-rule:evenodd;"
d="M 170.3000,29.7700
170.3000,31.2200
170.0000,31.2200
170.0000,29.7700
Z" /> 
<path style="fill:#000000; fill-opacity:1.0000; 
stroke:#000000; stroke-width:0.0000; stroke-opacity:1; 
stroke-linecap:round; stroke-linejoin:round;fill-rule:evenodd;"
d="M 171.1500,29.7700
171.1500,31.2200
170.5500,31.2200
170.5500,29.7700
Z" /> 
<path style="fill:#000000; fill-opacity:1.0000; 
stroke:#000000; stroke-width:0.0000; stroke-opacity:1; 
stroke-linecap:round; stroke-linejoin:round;fill-rule:evenodd;"
d="M 171.9500,29.7700
171.9500,31.2200
171.3500,31.2200
171.3500,29.7700
Z" /> 
</g>
<g >
</g>
<g >
</g>
<g >
</g>
<g >
</g>
<g style="fill:#000000; fill-opacity:1.0000; 
stroke:#000000; stroke-width:0.0000; stroke-opacity:1; 
stroke-linecap:round; stroke-linejoin:round;">
<path style="fill:#000000; fill-opacity:1.0000; 
stroke:#000000; stroke-width:0.0000; stroke-opacity:1; 
stroke-linecap:round; stroke-linejoin:round;fill-rule:evenodd;"
d="M 221.1200,68.8050
221.1200,68.3550
221.7200,68.3550
221.7200,68.8050
Z" /> 
<path style="fill:#000000; fill-opacity:1.0000; 
stroke:#000000; stroke-width:0.0000; stroke-opacity:1; 
stroke-linecap:round; stroke-linejoin:round;fill-rule:evenodd;"
d="M 223.2200,68.8050
223.2200,68.3550
223.8200,68.3550
223.8200,68.8050
Z" /> 
</g>
<g >
</g>
<g style="fill:#000000; fill-opacity:1.0000; 
stroke:#000000; stroke-width:0.0000; stroke-opacity:1; 
stroke-linecap:round; stroke-linejoin:round;">
<path style="fill:#000000; fill-opacity:1.0000; 
stroke:#000000; stroke-width:0.0000; stroke-opacity:1; 
stroke-linecap:round; stroke-linejoin:round;fill-rule:evenodd;"
d="M 226.2000,76.4250
226.2000,75.9750
226.8000,75.9750
226.8000,76.4250
Z" /> 
<path style="fill:#000000; fill-opacity:1.0000; 
stroke:#000000; stroke-width:0.0000; stroke-opacity:1; 
stroke-linecap:round; stroke-linejoin:round;fill-rule:evenodd;"
d="M 228.3000,76.4250
228.3000,75.9750
228.9000,75.9750
228.9000,76.4250
Z" /> 
</g>
<g >
</g>
<g style="fill:#000000; fill-opacity:1.0000; 
stroke:#000000; stroke-width:0.0000; stroke-opacity:1; 
stroke-linecap:round; stroke-linejoin:round;">
<path style="fill:#000000; fill-opacity:1.0000; 
stroke:#000000; stroke-width:0.0000; stroke-opacity:1; 
stroke-linecap:round; stroke-linejoin:round;fill-rule:evenodd;"
d="M 203.3400,58.6450
203.3400,58.1950
203.9400,58.1950
203.9400,58.6450
Z" /> 
<path style="fill:#000000; fill-opacity:1.0000; 
stroke:#000000; stroke-width:0.0000; stroke-opacity:1; 
stroke-linecap:round; stroke-linejoin:round;fill-rule:evenodd;"
d="M 205.4400,58.6450
205.4400,58.1950
206.0400,58.1950
206.0400,58.6450
Z" /> 
</g>
<g >
</g>
<g style="fill:#000000; fill-opacity:1.0000; 
stroke:#000000; stroke-width:0.0000; stroke-opacity:1; 
stroke-linecap:round; stroke-linejoin:round;">
<path style="fill:#000000; fill-opacity:1.0000; 
stroke:#000000; stroke-width:0.0000; stroke-opacity:1; 
stroke-linecap:round; stroke-linejoin:round;fill-rule:evenodd;"
d="M 157.6200,47.7850
157.6390,47.6893
157.6932,47.6082
157.7743,47.5540
157.8700,47.5350
158.3700,47.5350
158.4657,47.5540
158.5468,47.6082
158.6010,47.6893
158.6200,47.7850
158.6200,48.7350
158.6010,48.8307
158.5468,48.9118
158.4657,48.9660
158.3700,48.9850
157.8700,48.9850
157.7743,48.9660
157.6932,48.9118
157.6390,48.8307
157.6200,48.7350
Z" /> 
<path style="fill:#000000; fill-opacity:1.0000; 
stroke:#000000; stroke-width:0.0000; stroke-opacity:1; 
stroke-linecap:round; stroke-linejoin:round;fill-rule:evenodd;"
d="M 159.5200,47.7850
159.5390,47.6893
159.5932,47.6082
159.6743,47.5540
159.7700,47.5350
160.2700,47.5350
160.3657,47.5540
160.4468,47.6082
160.5010,47.6893
160.5200,47.7850
160.5200,48.7350
160.5010,48.8307
160.4468,48.9118
160.3657,48.9660
160.2700,48.9850
159.7700,48.9850
159.6743,48.9660
159.5932,48.9118
159.5390,48.8307
159.5200,48.7350
Z" /> 
</g>
<g >
</g>
<g style="fill:#000000; fill-opacity:1.0000; 
stroke:#000000; stroke-width:0.0000; stroke-opacity:1; 
stroke-linecap:round; stroke-linejoin:round;">
<path style="fill:#000000; fill-opacity:1.0000; 
stroke:#000000; stroke-width:0.0000; stroke-opacity:1; 
stroke-linecap:round; stroke-linejoin:round;fill-rule:evenodd;"
d="M 146.8200,37.6250
146.8390,37.5293
146.8932,37.4482
146.9743,37.3940
147.0700,37.3750
147.5700,37.3750
147.6657,37.3940
147.7468,37.4482
147.8010,37.5293
147.8200,37.6250
147.8200,38.5750
147.8010,38.6707
147.7468,38.7518
147.6657,38.8060
147.5700,38.8250
147.0700,38.8250
146.9743,38.8060
146.8932,38.7518
146.8390,38.6707
146.8200,38.5750
Z" /> 
<path style="fill:#000000; fill-opacity:1.0000; 
stroke:#000000; stroke-width:0.0000; stroke-opacity:1; 
stroke-linecap:round; stroke-linejoin:round;fill-rule:evenodd;"
d="M 148.7200,37.6250
148.7390,37.5293
148.7932,37.4482
148.8743,37.3940
148.9700,37.3750
149.4700,37.3750
149.5657,37.3940
149.6468,37.4482
149.7010,37.5293
149.7200,37.6250
149.7200,38.5750
149.7010,38.6707
149.6468,38.7518
149.5657,38.8060
149.4700,38.8250
148.9700,38.8250
148.8743,38.8060
148.7932,38.7518
148.7390,38.6707
148.7200,38.5750
Z" /> 
</g>
<g >
</g>
<g style="fill:#000000; fill-opacity:1.0000; 
stroke:#000000; stroke-width:0.0000; stroke-opacity:1; 
stroke-linecap:round; stroke-linejoin:round;">
<path style="fill:#000000; fill-opacity:1.0000; 
stroke:#000000; stroke-width:0.0000; stroke-opacity:1; 
stroke-linecap:round; stroke-linejoin:round;fill-rule:evenodd;"
d="M 188.4000,85.8000
189.2000,85.8000
189.2000,87.0000
188.4000,87.0000
Z" /> 
<path style="fill:#000000; fill-opacity:1.0000; 
stroke:#000000; stroke-width:0.0000; stroke-opacity:1; 
stroke-linecap:round; stroke-linejoin:round;fill-rule:evenodd;"
d="M 187.3000,85.8000
188.1000,85.8000
188.1000,87.0000
187.3000,87.0000
Z" /> 
<path style="fill:#000000; fill-opacity:1.0000; 
stroke:#000000; stroke-width:0.0000; stroke-opacity:1; 
stroke-linecap:round; stroke-linejoin:round;fill-rule:evenodd;"
d="M 186.2000,85.8000
187.0000,85.8000
187.0000,87.0000
186.2000,87.0000
Z" /> 
<path style="fill:#000000; fill-opacity:1.0000; 
stroke:#000000; stroke-width:0.0000; stroke-opacity:1; 
stroke-linecap:round; stroke-linejoin:round;fill-rule:evenodd;"
d="M 185.1000,85.8000
185.9000,85.8000
185.9000,87.0000
185.1000,87.0000
Z" /> 
<path style="fill:#000000; fill-opacity:1.0000; 
stroke:#000000; stroke-width:0.0000; stroke-opacity:1; 
stroke-linecap:round; stroke-linejoin:round;fill-rule:evenodd;"
d="M 183.9750,85.8000
184.8250,85.8000
184.8250,87.0000
183.9750,87.0000
Z" /> 
<path style="fill:#000000; fill-opacity:1.0000; 
stroke:#000000; stroke-width:0.0000; stroke-opacity:1; 
stroke-linecap:round; stroke-linejoin:round;fill-rule:evenodd;"
d="M 182.9000,85.8000
183.7000,85.8000
183.7000,87.0000
182.9000,87.0000
Z" /> 
<path style="fill:#000000; fill-opacity:1.0000; 
stroke:#000000; stroke-width:0.0000; stroke-opacity:1; 
stroke-linecap:round; stroke-linejoin:round;fill-rule:evenodd;"
d="M 181.8000,85.8000
182.6000,85.8000
182.6000,87.0000
181.8000,87.0000
Z" /> 
<path style="fill:#000000; fill-opacity:1.0000; 
stroke:#000000; stroke-width:0.0000; stroke-opacity:1; 
stroke-linecap:round; stroke-linejoin:round;fill-rule:evenodd;"
d="M 180.7000,85.8000
181.5000,85.8000
181.5000,87.0000
180.7000,87.0000
Z" /> 
<path style="fill:#000000; fill-opacity:1.0000; 
stroke:#000000; stroke-width:0.0000; stroke-opacity:1; 
stroke-linecap:round; stroke-linejoin:round;fill-rule:evenodd;"
d="M 179.6000,85.8000
180.4000,85.8000
180.4000,87.0000
179.6000,87.0000
Z" /> 
<path style="fill:#000000; fill-opacity:1.0000; 
stroke:#000000; stroke-width:0.0000; stroke-opacity:1; 
stroke-linecap:round; stroke-linejoin:round;fill-rule:evenodd;"
d="M 178.5000,85.8000
179.3000,85.8000
179.3000,87.0000
178.5000,87.0000
Z" /> 
<path style="fill:#000000; fill-opacity:1.0000; 
stroke:#000000; stroke-width:0.0000; stroke-opacity:1; 
stroke-linecap:round; stroke-linejoin:round;fill-rule:evenodd;"
d="M 177.4000,85.8000
178.2000,85.8000
178.2000,87.0000
177.4000,87.0000
Z" /> 
<path style="fill:#000000; fill-opacity:1.0000; 
stroke:#000000; stroke-width:0.0000; stroke-opacity:1; 
stroke-linecap:round; stroke-linejoin:round;fill-rule:evenodd;"
d="M 176.3000,85.8000
177.1000,85.8000
177.1000,87.0000
176.3000,87.0000
Z" /> 
<path style="fill:#000000; fill-opacity:1.0000; 
stroke:#000000; stroke-width:0.0000; stroke-opacity:1; 
stroke-linecap:round; stroke-linejoin:round;fill-rule:evenodd;"
d="M 175.2000,85.8000
176.0000,85.8000
176.0000,87.0000
175.2000,87.0000
Z" /> 
<path style="fill:#000000; fill-opacity:1.0000; 
stroke:#000000; stroke-width:0.0000; stroke-opacity:1; 
stroke-linecap:round; stroke-linejoin:round;fill-rule:evenodd;"
d="M 188.4000,99.3000
189.2000,99.3000
189.2000,100.5000
188.4000,100.5000
Z" /> 
<path style="fill:#000000; fill-opacity:1.0000; 
stroke:#000000; stroke-width:0.0000; stroke-opacity:1; 
stroke-linecap:round; stroke-linejoin:round;fill-rule:evenodd;"
d="M 187.3000,99.3000
188.1000,99.3000
188.1000,100.5000
187.3000,100.5000
Z" /> 
<path style="fill:#000000; fill-opacity:1.0000; 
stroke:#000000; stroke-width:0.0000; stroke-opacity:1; 
stroke-linecap:round; stroke-linejoin:round;fill-rule:evenodd;"
d="M 186.2000,99.3000
187.0000,99.3000
187.0000,100.5000
186.2000,100.5000
Z" /> 
<path style="fill:#000000; fill-opacity:1.0000; 
stroke:#000000; stroke-width:0.0000; stroke-opacity:1; 
stroke-linecap:round; stroke-linejoin:round;fill-rule:evenodd;"
d="M 185.1000,99.3000
185.9000,99.3000
185.9000,100.5000
185.1000,100.5000
Z" /> 
<path style="fill:#000000; fill-opacity:1.0000; 
stroke:#000000; stroke-width:0.0000; stroke-opacity:1; 
stroke-linecap:round; stroke-linejoin:round;fill-rule:evenodd;"
d="M 184.0000,99.3000
184.8000,99.3000
184.8000,100.5000
184.0000,100.5000
Z" /> 
<path style="fill:#000000; fill-opacity:1.0000; 
stroke:#000000; stroke-width:0.0000; stroke-opacity:1; 
stroke-linecap:round; stroke-linejoin:round;fill-rule:evenodd;"
d="M 182.9000,99.3000
183.7000,99.3000
183.7000,100.5000
182.9000,100.5000
Z" /> 
<path style="fill:#000000; fill-opacity:1.0000; 
stroke:#000000; stroke-width:0.0000; stroke-opacity:1; 
stroke-linecap:round; stroke-linejoin:round;fill-rule:evenodd;"
d="M 181.8000,99.3000
182.6000,99.3000
182.6000,100.5000
181.8000,100.5000
Z" /> 
<path style="fill:#000000; fill-opacity:1.0000; 
stroke:#000000; stroke-width:0.0000; stroke-opacity:1; 
stroke-linecap:round; stroke-linejoin:round;fill-rule:evenodd;"
d="M 180.7000,99.3000
181.5000,99.3000
181.5000,100.5000
180.7000,100.5000
Z" /> 
<path style="fill:#000000; fill-opacity:1.0000; 
stroke:#000000; stroke-width:0.0000; stroke-opacity:1; 
stroke-linecap:round; stroke-linejoin:round;fill-rule:evenodd;"
d="M 179.6000,99.3000
180.4000,99.3000
180.4000,100.5000
179.6000,100.5000
Z" /> 
<path style="fill:#000000; fill-opacity:1.0000; 
stroke:#000000; stroke-width:0.0000; stroke-opacity:1; 
stroke-linecap:round; stroke-linejoin:round;fill-rule:evenodd;"
d="M 178.5000,99.3000
179.3000,99.3000
179.3000,100.5000
178.5000,100.5000
Z" /> 
<path style="fill:#000000; fill-opacity:1.0000; 
stroke:#000000; stroke-width:0.0000; stroke-opacity:1; 
stroke-linecap:round; stroke-linejoin:round;fill-rule:evenodd;"
d="M 177.4000,99.3000
178.2000,99.3000
178.2000,100.5000
177.4000,100.5000
Z" /> 
<path style="fill:#000000; fill-opacity:1.0000; 
stroke:#000000; stroke-width:0.0000; stroke-opacity:1; 
stroke-linecap:round; stroke-linejoin:round;fill-rule:evenodd;"
d="M 176.3000,99.3000
177.1000,99.3000
177.1000,100.5000
176.3000,100.5000
Z" /> 
<path style="fill:#000000; fill-opacity:1.0000; 
stroke:#000000; stroke-width:0.0000; stroke-opacity:1; 
stroke-linecap:round; stroke-linejoin:round;fill-rule:evenodd;"
d="M 175.2000,99.3000
176.0000,99.3000
176.0000,100.5000
175.2000,100.5000
Z" /> 
<path style="fill:#000000; fill-opacity:1.0000; 
stroke:#000000; stroke-width:0.0000; stroke-opacity:1; 
stroke-linecap:round; stroke-linejoin:round;fill-rule:evenodd;"
d="M 173.5000,99.0500
173.5000,98.2500
174.7000,98.2500
174.7000,99.0500
Z" /> 
<path style="fill:#000000; fill-opacity:1.0000; 
stroke:#000000; stroke-width:0.0000; stroke-opacity:1; 
stroke-linecap:round; stroke-linejoin:round;fill-rule:evenodd;"
d="M 173.5000,97.9500
173.5000,97.1500
174.7000,97.1500
174.7000,97.9500
Z" /> 
<path style="fill:#000000; fill-opacity:1.0000; 
stroke:#000000; stroke-width:0.0000; stroke-opacity:1; 
stroke-linecap:round; stroke-linejoin:round;fill-rule:evenodd;"
d="M 173.5000,96.8500
173.5000,96.0500
174.7000,96.0500
174.7000,96.8500
Z" /> 
<path style="fill:#000000; fill-opacity:1.0000; 
stroke:#000000; stroke-width:0.0000; stroke-opacity:1; 
stroke-linecap:round; stroke-linejoin:round;fill-rule:evenodd;"
d="M 173.5000,95.7500
173.5000,94.9500
174.7000,94.9500
174.7000,95.7500
Z" /> 
<path style="fill:#000000; fill-opacity:1.0000; 
stroke:#000000; stroke-width:0.0000; stroke-opacity:1; 
stroke-linecap:round; stroke-linejoin:round;fill-rule:evenodd;"
d="M 173.5000,94.6500
173.5000,93.8500
174.7000,93.8500
174.7000,94.6500
Z" /> 
<path style="fill:#000000; fill-opacity:1.0000; 
stroke:#000000; stroke-width:0.0000; stroke-opacity:1; 
stroke-linecap:round; stroke-linejoin:round;fill-rule:evenodd;"
d="M 173.5000,93.5500
173.5000,92.7500
174.7000,92.7500
174.7000,93.5500
Z" /> 
<path style="fill:#000000; fill-opacity:1.0000; 
stroke:#000000; stroke-width:0.0000; stroke-opacity:1; 
stroke-linecap:round; stroke-linejoin:round;fill-rule:evenodd;"
d="M 173.5000,92.4500
173.5000,91.6500
174.7000,91.6500
174.7000,92.4500
Z" /> 
<path style="fill:#000000; fill-opacity:1.0000; 
stroke:#000000; stroke-width:0.0000; stroke-opacity:1; 
stroke-linecap:round; stroke-linejoin:round;fill-rule:evenodd;"
d="M 173.5000,91.3500
173.5000,90.5500
174.7000,90.5500
174.7000,91.3500
Z" /> 
<path style="fill:#000000; fill-opacity:1.0000; 
stroke:#000000; stroke-width:0.0000; stroke-opacity:1; 
stroke-linecap:round; stroke-linejoin:round;fill-rule:evenodd;"
d="M 173.5000,90.2500
173.5000,89.4500
174.7000,89.4500
174.7000,90.2500
Z" /> 
<path style="fill:#000000; fill-opacity:1.0000; 
stroke:#000000; stroke-width:0.0000; stroke-opacity:1; 
stroke-linecap:round; stroke-linejoin:round;fill-rule:evenodd;"
d="M 173.5000,89.1500
173.5000,88.3500
174.7000,88.3500
174.7000,89.1500
Z" /> 
<path style="fill:#000000; fill-opacity:1.0000; 
stroke:#000000; stroke-width:0.0000; stroke-opacity:1; 
stroke-linecap:round; stroke-linejoin:round;fill-rule:evenodd;"
d="M 173.5000,88.0500
173.5000,87.2500
174.7000,87.2500
174.7000,88.0500
Z" /> 
</g>
<g >
</g>
<g style="fill:#000000; fill-opacity:1.0000; 
stroke:#000000; stroke-width:0.0000; stroke-opacity:1; 
stroke-linecap:round; stroke-linejoin:round;">
<path style="fill:#000000; fill-opacity:1.0000; 
stroke:#000000; stroke-width:0.0000; stroke-opacity:1; 
stroke-linecap:round; stroke-linejoin:round;fill-rule:evenodd;"
d="M 198.2600,44.8650
198.2600,44.4150
198.8600,44.4150
198.8600,44.8650
Z" /> 
<path style="fill:#000000; fill-opacity:1.0000; 
stroke:#000000; stroke-width:0.0000; stroke-opacity:1; 
stroke-linecap:round; stroke-linejoin:round;fill-rule:evenodd;"
d="M 200.3600,44.8650
200.3600,44.4150
200.9600,44.4150
200.9600,44.8650
Z" /> 
</g>
<g >
</g>
<g >
</g>
<g style="fill:#000000; fill-opacity:1.0000; 
stroke:#000000; stroke-width:0.0000; stroke-opacity:1; 
stroke-linecap:round; stroke-linejoin:round;">
<path style="fill:#000000; fill-opacity:1.0000; 
stroke:#000000; stroke-width:0.0000; stroke-opacity:1; 
stroke-linecap:round; stroke-linejoin:round;fill-rule:evenodd;"
d="M 158.7275,39.4300
158.7397,39.3688
158.7744,39.3169
158.8263,39.2822
158.8875,39.2700
159.3775,39.2700
159.4387,39.2822
159.4906,39.3169
159.5253,39.3688
159.5375,39.4300
159.5375,39.7500
159.5253,39.8112
159.4906,39.8631
159.4387,39.8978
159.3775,39.9100
158.8875,39.9100
158.8263,39.8978
158.7744,39.8631
158.7397,39.8112
158.7275,39.7500
Z" /> 
<path style="fill:#000000; fill-opacity:1.0000; 
stroke:#000000; stroke-width:0.0000; stroke-opacity:1; 
stroke-linecap:round; stroke-linejoin:round;fill-rule:evenodd;"
d="M 158.7275,40.2300
158.7397,40.1688
158.7744,40.1169
158.8263,40.0822
158.8875,40.0700
159.3775,40.0700
159.4387,40.0822
159.4906,40.1169
159.5253,40.1688
159.5375,40.2300
159.5375,40.5500
159.5253,40.6112
159.4906,40.6631
159.4387,40.6978
159.3775,40.7100
158.8875,40.7100
158.8263,40.6978
158.7744,40.6631
158.7397,40.6112
158.7275,40.5500
Z" /> 
<path style="fill:#000000; fill-opacity:1.0000; 
stroke:#000000; stroke-width:0.0000; stroke-opacity:1; 
stroke-linecap:round; stroke-linejoin:round;fill-rule:evenodd;"
d="M 158.0575,39.2338
158.0646,39.1979
158.0850,39.1675
158.1154,39.1471
158.1513,39.1400
158.3388,39.1400
158.3746,39.1471
158.4050,39.1675
158.4254,39.1979
158.4325,39.2338
158.4325,39.4462
158.4254,39.4821
158.4050,39.5125
158.3746,39.5329
158.3388,39.5400
158.1513,39.5400
158.1154,39.5329
158.0850,39.5125
158.0646,39.4821
158.0575,39.4462
Z" /> 
<path style="fill:#000000; fill-opacity:1.0000; 
stroke:#000000; stroke-width:0.0000; stroke-opacity:1; 
stroke-linecap:round; stroke-linejoin:round;fill-rule:evenodd;"
d="M 158.0575,39.8837
158.0646,39.8479
158.0850,39.8175
158.1154,39.7971
158.1513,39.7900
158.3388,39.7900
158.3746,39.7971
158.4050,39.8175
158.4254,39.8479
158.4325,39.8837
158.4325,40.0962
158.4254,40.1321
158.4050,40.1625
158.3746,40.1829
158.3388,40.1900
158.1513,40.1900
158.1154,40.1829
158.0850,40.1625
158.0646,40.1321
158.0575,40.0962
Z" /> 
<path style="fill:#000000; fill-opacity:1.0000; 
stroke:#000000; stroke-width:0.0000; stroke-opacity:1; 
stroke-linecap:round; stroke-linejoin:round;fill-rule:evenodd;"
d="M 158.0575,40.5337
158.0646,40.4979
158.0850,40.4675
158.1154,40.4471
158.1513,40.4400
158.3388,40.4400
158.3746,40.4471
158.4050,40.4675
158.4254,40.4979
158.4325,40.5337
158.4325,40.7462
158.4254,40.7821
158.4050,40.8125
158.3746,40.8329
158.3388,40.8400
158.1513,40.8400
158.1154,40.8329
158.0850,40.8125
158.0646,40.7821
158.0575,40.7462
Z" /> 
<path style="fill:#000000; fill-opacity:1.0000; 
stroke:#000000; stroke-width:0.0000; stroke-opacity:1; 
stroke-linecap:round; stroke-linejoin:round;fill-rule:evenodd;"
d="M 159.8325,40.5337
159.8396,40.4979
159.8600,40.4675
159.8904,40.4471
159.9262,40.4400
160.1137,40.4400
160.1496,40.4471
160.1800,40.4675
160.2004,40.4979
160.2075,40.5337
160.2075,40.7462
160.2004,40.7821
160.1800,40.8125
160.1496,40.8329
160.1137,40.8400
159.9262,40.8400
159.8904,40.8329
159.8600,40.8125
159.8396,40.7821
159.8325,40.7462
Z" /> 
<path style="fill:#000000; fill-opacity:1.0000; 
stroke:#000000; stroke-width:0.0000; stroke-opacity:1; 
stroke-linecap:round; stroke-linejoin:round;fill-rule:evenodd;"
d="M 159.8325,39.8837
159.8396,39.8479
159.8600,39.8175
159.8904,39.7971
159.9262,39.7900
160.1137,39.7900
160.1496,39.7971
160.1800,39.8175
160.2004,39.8479
160.2075,39.8837
160.2075,40.0962
160.2004,40.1321
160.1800,40.1625
160.1496,40.1829
160.1137,40.1900
159.9262,40.1900
159.8904,40.1829
159.8600,40.1625
159.8396,40.1321
159.8325,40.0962
Z" /> 
<path style="fill:#000000; fill-opacity:1.0000; 
stroke:#000000; stroke-width:0.0000; stroke-opacity:1; 
stroke-linecap:round; stroke-linejoin:round;fill-rule:evenodd;"
d="M 159.8325,39.2338
159.8396,39.1979
159.8600,39.1675
159.8904,39.1471
159.9262,39.1400
160.1137,39.1400
160.1496,39.1471
160.1800,39.1675
160.2004,39.1979
160.2075,39.2338
160.2075,39.4462
160.2004,39.4821
160.1800,39.5125
160.1496,39.5329
160.1137,39.5400
159.9262,39.5400
159.8904,39.5329
159.8600,39.5125
159.8396,39.4821
159.8325,39.4462
Z" /> 
</g>
<g >
</g>
<g >
</g>
<g style="fill:#000000; fill-opacity:1.0000; 
stroke:#000000; stroke-width:0.0000; stroke-opacity:1; 
stroke-linecap:round; stroke-linejoin:round;">
<path style="fill:#000000; fill-opacity:1.0000; 
stroke:#000000; stroke-width:0.0000; stroke-opacity:1; 
stroke-linecap:round; stroke-linejoin:round;fill-rule:evenodd;"
d="M 150.6400,64.5400
150.6400,63.5400
153.4400,63.5400
153.4400,64.5400
Z" /> 
<path style="fill:#000000; fill-opacity:1.0000; 
stroke:#000000; stroke-width:0.0000; stroke-opacity:1; 
stroke-linecap:round; stroke-linejoin:round;fill-rule:evenodd;"
d="M 156.4400,64.5400
156.4400,63.5400
159.2400,63.5400
159.2400,64.5400
Z" /> 
<path style="fill:#000000; fill-opacity:1.0000; 
stroke:#000000; stroke-width:0.0000; stroke-opacity:1; 
stroke-linecap:round; stroke-linejoin:round;fill-rule:evenodd;"
d="M 150.6400,68.5400
150.6400,67.5400
153.4400,67.5400
153.4400,68.5400
Z" /> 
<path style="fill:#000000; fill-opacity:1.0000; 
stroke:#000000; stroke-width:0.0000; stroke-opacity:1; 
stroke-linecap:round; stroke-linejoin:round;fill-rule:evenodd;"
d="M 156.4400,68.5400
156.4400,67.5400
159.2400,67.5400
159.2400,68.5400
Z" /> 
</g>
<g >
</g>
<g >
</g>
<g style="fill:#000000; fill-opacity:1.0000; 
stroke:#000000; stroke-width:0.0000; stroke-opacity:1; 
stroke-linecap:round; stroke-linejoin:round;">
<path style="fill:#000000; fill-opacity:1.0000; 
stroke:#000000; stroke-width:0.0000; stroke-opacity:1; 
stroke-linecap:round; stroke-linejoin:round;fill-rule:evenodd;"
d="M 179.8900,20.0700
179.9071,19.9839
179.9559,19.9109
180.0289,19.8621
180.1150,19.8450
180.5650,19.8450
180.6511,19.8621
180.7241,19.9109
180.7729,19.9839
180.7900,20.0700
180.7900,20.5700
180.7729,20.6561
180.7241,20.7291
180.6511,20.7779
180.5650,20.7950
180.1150,20.7950
180.0289,20.7779
179.9559,20.7291
179.9071,20.6561
179.8900,20.5700
Z" /> 
<path style="fill:#000000; fill-opacity:1.0000; 
stroke:#000000; stroke-width:0.0000; stroke-opacity:1; 
stroke-linecap:round; stroke-linejoin:round;fill-rule:evenodd;"
d="M 181.4400,20.0700
181.4571,19.9839
181.5059,19.9109
181.5789,19.8621
181.6650,19.8450
182.1150,19.8450
182.2011,19.8621
182.2741,19.9109
182.3229,19.9839
182.3400,20.0700
182.3400,20.5700
182.3229,20.6561
182.2741,20.7291
182.2011,20.7779
182.1150,20.7950
181.6650,20.7950
181.5789,20.7779
181.5059,20.7291
181.4571,20.6561
181.4400,20.5700
Z" /> 
</g>
<g >
</g>
<g style="fill:#000000; fill-opacity:1.0000; 
stroke:#000000; stroke-width:0.0000; stroke-opacity:1; 
stroke-linecap:round; stroke-linejoin:round;">
<path style="fill:#000000; fill-opacity:1.0000; 
stroke:#000000; stroke-width:0.0000; stroke-opacity:1; 
stroke-linecap:round; stroke-linejoin:round;fill-rule:evenodd;"
d="M 155.1425,19.8700
155.1615,19.7743
155.2157,19.6932
155.2968,19.6390
155.3925,19.6200
155.9175,19.6200
156.0132,19.6390
156.0943,19.6932
156.1485,19.7743
156.1675,19.8700
156.1675,20.7700
156.1485,20.8657
156.0943,20.9468
156.0132,21.0010
155.9175,21.0200
155.3925,21.0200
155.2968,21.0010
155.2157,20.9468
155.1615,20.8657
155.1425,20.7700
Z" /> 
<path style="fill:#000000; fill-opacity:1.0000; 
stroke:#000000; stroke-width:0.0000; stroke-opacity:1; 
stroke-linecap:round; stroke-linejoin:round;fill-rule:evenodd;"
d="M 156.9675,19.8700
156.9865,19.7743
157.0407,19.6932
157.1218,19.6390
157.2175,19.6200
157.7425,19.6200
157.8382,19.6390
157.9193,19.6932
157.9735,19.7743
157.9925,19.8700
157.9925,20.7700
157.9735,20.8657
157.9193,20.9468
157.8382,21.0010
157.7425,21.0200
157.2175,21.0200
157.1218,21.0010
157.0407,20.9468
156.9865,20.8657
156.9675,20.7700
Z" /> 
</g>
<g >
</g>
<g >
</g>
<g style="fill:#000000; fill-opacity:1.0000; 
stroke:#000000; stroke-width:0.0000; stroke-opacity:1; 
stroke-linecap:round; stroke-linejoin:round;">
<path style="fill:#000000; fill-opacity:1.0000; 
stroke:#000000; stroke-width:0.0000; stroke-opacity:1; 
stroke-linecap:round; stroke-linejoin:round;fill-rule:evenodd;"
d="M 158.0200,78.4900
158.0371,78.4039
158.0859,78.3309
158.1589,78.2821
158.2450,78.2650
158.6950,78.2650
158.7811,78.2821
158.8541,78.3309
158.9029,78.4039
158.9200,78.4900
158.9200,78.9900
158.9029,79.0761
158.8541,79.1491
158.7811,79.1979
158.6950,79.2150
158.2450,79.2150
158.1589,79.1979
158.0859,79.1491
158.0371,79.0761
158.0200,78.9900
Z" /> 
<path style="fill:#000000; fill-opacity:1.0000; 
stroke:#000000; stroke-width:0.0000; stroke-opacity:1; 
stroke-linecap:round; stroke-linejoin:round;fill-rule:evenodd;"
d="M 159.5700,78.4900
159.5871,78.4039
159.6359,78.3309
159.7089,78.2821
159.7950,78.2650
160.2450,78.2650
160.3311,78.2821
160.4041,78.3309
160.4529,78.4039
160.4700,78.4900
160.4700,78.9900
160.4529,79.0761
160.4041,79.1491
160.3311,79.1979
160.2450,79.2150
159.7950,79.2150
159.7089,79.1979
159.6359,79.1491
159.5871,79.0761
159.5700,78.9900
Z" /> 
</g>
<g >
</g>
<g style="fill:#000000; fill-opacity:1.0000; 
stroke:#000000; stroke-width:0.0000; stroke-opacity:1; 
stroke-linecap:round; stroke-linejoin:round;">
<path style="fill:#000000; fill-opacity:1.0000; 
stroke:#000000; stroke-width:0.0000; stroke-opacity:1; 
stroke-linecap:round; stroke-linejoin:round;fill-rule:evenodd;"
d="M 167.1275,70.6700
167.1465,70.5743
167.2007,70.4932
167.2818,70.4390
167.3775,70.4200
167.9025,70.4200
167.9982,70.4390
168.0793,70.4932
168.1335,70.5743
168.1525,70.6700
168.1525,71.5700
168.1335,71.6657
168.0793,71.7468
167.9982,71.8010
167.9025,71.8200
167.3775,71.8200
167.2818,71.8010
167.2007,71.7468
167.1465,71.6657
167.1275,71.5700
Z" /> 
<path style="fill:#000000; fill-opacity:1.0000; 
stroke:#000000; stroke-width:0.0000; stroke-opacity:1; 
stroke-linecap:round; stroke-linejoin:round;fill-rule:evenodd;"
d="M 168.9525,70.6700
168.9715,70.5743
169.0257,70.4932
169.1068,70.4390
169.2025,70.4200
169.7275,70.4200
169.8232,70.4390
169.9043,70.4932
169.9585,70.5743
169.9775,70.6700
169.9775,71.5700
169.9585,71.6657
169.9043,71.7468
169.8232,71.8010
169.7275,71.8200
169.2025,71.8200
169.1068,71.8010
169.0257,71.7468
168.9715,71.6657
168.9525,71.5700
Z" /> 
</g>
<g >
</g>
<g >
</g>
<g >
</g>
<g style="fill:#000000; fill-opacity:1.0000; 
stroke:#000000; stroke-width:0.0000; stroke-opacity:1; 
stroke-linecap:round; stroke-linejoin:round;">
<path style="fill:#000000; fill-opacity:1.0000; 
stroke:#000000; stroke-width:0.0000; stroke-opacity:1; 
stroke-linecap:round; stroke-linejoin:round;fill-rule:evenodd;"
d="M 200.1475,19.8700
200.1665,19.7743
200.2207,19.6932
200.3018,19.6390
200.3975,19.6200
200.9225,19.6200
201.0182,19.6390
201.0993,19.6932
201.1535,19.7743
201.1725,19.8700
201.1725,20.7700
201.1535,20.8657
201.0993,20.9468
201.0182,21.0010
200.9225,21.0200
200.3975,21.0200
200.3018,21.0010
200.2207,20.9468
200.1665,20.8657
200.1475,20.7700
Z" /> 
<path style="fill:#000000; fill-opacity:1.0000; 
stroke:#000000; stroke-width:0.0000; stroke-opacity:1; 
stroke-linecap:round; stroke-linejoin:round;fill-rule:evenodd;"
d="M 201.9725,19.8700
201.9915,19.7743
202.0457,19.6932
202.1268,19.6390
202.2225,19.6200
202.7475,19.6200
202.8432,19.6390
202.9243,19.6932
202.9785,19.7743
202.9975,19.8700
202.9975,20.7700
202.9785,20.8657
202.9243,20.9468
202.8432,21.0010
202.7475,21.0200
202.2225,21.0200
202.1268,21.0010
202.0457,20.9468
201.9915,20.8657
201.9725,20.7700
Z" /> 
</g>
<g >
</g>
<g style="fill:#000000; fill-opacity:1.0000; 
stroke:#000000; stroke-width:0.0000; stroke-opacity:1; 
stroke-linecap:round; stroke-linejoin:round;">
<path style="fill:#000000; fill-opacity:1.0000; 
stroke:#000000; stroke-width:0.0000; stroke-opacity:1; 
stroke-linecap:round; stroke-linejoin:round;fill-rule:evenodd;"
d="M 191.0400,20.0700
191.0571,19.9839
191.1059,19.9109
191.1789,19.8621
191.2650,19.8450
191.7150,19.8450
191.8011,19.8621
191.8741,19.9109
191.9229,19.9839
191.9400,20.0700
191.9400,20.5700
191.9229,20.6561
191.8741,20.7291
191.8011,20.7779
191.7150,20.7950
191.2650,20.7950
191.1789,20.7779
191.1059,20.7291
191.0571,20.6561
191.0400,20.5700
Z" /> 
<path style="fill:#000000; fill-opacity:1.0000; 
stroke:#000000; stroke-width:0.0000; stroke-opacity:1; 
stroke-linecap:round; stroke-linejoin:round;fill-rule:evenodd;"
d="M 192.5900,20.0700
192.6071,19.9839
192.6559,19.9109
192.7289,19.8621
192.8150,19.8450
193.2650,19.8450
193.3511,19.8621
193.4241,19.9109
193.4729,19.9839
193.4900,20.0700
193.4900,20.5700
193.4729,20.6561
193.4241,20.7291
193.3511,20.7779
193.2650,20.7950
192.8150,20.7950
192.7289,20.7779
192.6559,20.7291
192.6071,20.6561
192.5900,20.5700
Z" /> 
</g>
<g >
</g>
<g >
</g>
<g style="fill:#000000; fill-opacity:1.0000; 
stroke:#000000; stroke-width:0.0000; stroke-opacity:1; 
stroke-linecap:round; stroke-linejoin:round;">
<path style="fill:#000000; fill-opacity:1.0000; 
stroke:#000000; stroke-width:0.0000; stroke-opacity:1; 
stroke-linecap:round; stroke-linejoin:round;fill-rule:evenodd;"
d="M 165.0800,50.3250
165.0990,50.2293
165.1532,50.1482
165.2343,50.0940
165.3300,50.0750
165.8300,50.0750
165.9257,50.0940
166.0068,50.1482
166.0610,50.2293
166.0800,50.3250
166.0800,51.2750
166.0610,51.3707
166.0068,51.4518
165.9257,51.5060
165.8300,51.5250
165.3300,51.5250
165.2343,51.5060
165.1532,51.4518
165.0990,51.3707
165.0800,51.2750
Z" /> 
<path style="fill:#000000; fill-opacity:1.0000; 
stroke:#000000; stroke-width:0.0000; stroke-opacity:1; 
stroke-linecap:round; stroke-linejoin:round;fill-rule:evenodd;"
d="M 166.9800,50.3250
166.9990,50.2293
167.0532,50.1482
167.1343,50.0940
167.2300,50.0750
167.7300,50.0750
167.8257,50.0940
167.9068,50.1482
167.9610,50.2293
167.9800,50.3250
167.9800,51.2750
167.9610,51.3707
167.9068,51.4518
167.8257,51.5060
167.7300,51.5250
167.2300,51.5250
167.1343,51.5060
167.0532,51.4518
166.9990,51.3707
166.9800,51.2750
Z" /> 
</g>
<g >
</g>
<g style="fill:#000000; fill-opacity:1.0000; 
stroke:#000000; stroke-width:0.0000; stroke-opacity:1; 
stroke-linecap:round; stroke-linejoin:round;">
<path style="fill:#000000; fill-opacity:1.0000; 
stroke:#000000; stroke-width:0.0000; stroke-opacity:1; 
stroke-linecap:round; stroke-linejoin:round;fill-rule:evenodd;"
d="M 216.0400,44.8650
216.0400,44.4150
216.6400,44.4150
216.6400,44.8650
Z" /> 
<path style="fill:#000000; fill-opacity:1.0000; 
stroke:#000000; stroke-width:0.0000; stroke-opacity:1; 
stroke-linecap:round; stroke-linejoin:round;fill-rule:evenodd;"
d="M 218.1400,44.8650
218.1400,44.4150
218.7400,44.4150
218.7400,44.8650
Z" /> 
</g>
<g >
</g>
<g >
</g>
<g style="fill:#000000; fill-opacity:1.0000; 
stroke:#000000; stroke-width:0.0000; stroke-opacity:1; 
stroke-linecap:round; stroke-linejoin:round;">
<path style="fill:#000000; fill-opacity:1.0000; 
stroke:#000000; stroke-width:0.0000; stroke-opacity:1; 
stroke-linecap:round; stroke-linejoin:round;fill-rule:evenodd;"
d="M 208.4200,34.7050
208.4200,34.2550
209.0200,34.2550
209.0200,34.7050
Z" /> 
<path style="fill:#000000; fill-opacity:1.0000; 
stroke:#000000; stroke-width:0.0000; stroke-opacity:1; 
stroke-linecap:round; stroke-linejoin:round;fill-rule:evenodd;"
d="M 210.5200,34.7050
210.5200,34.2550
211.1200,34.2550
211.1200,34.7050
Z" /> 
</g>
<g >
</g>
<g style="fill:#000000; fill-opacity:1.0000; 
stroke:#000000; stroke-width:0.0000; stroke-opacity:1; 
stroke-linecap:round; stroke-linejoin:round;">
<path style="fill:#000000; fill-opacity:1.0000; 
stroke:#000000; stroke-width:0.0000; stroke-opacity:1; 
stroke-linecap:round; stroke-linejoin:round;fill-rule:evenodd;"
d="M 195.2800,58.6450
195.2800,58.1950
195.8800,58.1950
195.8800,58.6450
Z" /> 
<path style="fill:#000000; fill-opacity:1.0000; 
stroke:#000000; stroke-width:0.0000; stroke-opacity:1; 
stroke-linecap:round; stroke-linejoin:round;fill-rule:evenodd;"
d="M 197.3800,58.6450
197.3800,58.1950
197.9800,58.1950
197.9800,58.6450
Z" /> 
</g>
<g >
</g>
<g style="fill:#000000; fill-opacity:1.0000; 
stroke:#000000; stroke-width:0.0000; stroke-opacity:1; 
stroke-linecap:round; stroke-linejoin:round;">
<path style="fill:#000000; fill-opacity:1.0000; 
stroke:#000000; stroke-width:0.0000; stroke-opacity:1; 
stroke-linecap:round; stroke-linejoin:round;fill-rule:evenodd;"
d="M 177.2875,65.5900
177.3065,65.4943
177.3607,65.4132
177.4418,65.3590
177.5375,65.3400
178.0625,65.3400
178.1582,65.3590
178.2393,65.4132
178.2935,65.4943
178.3125,65.5900
178.3125,66.4900
178.2935,66.5857
178.2393,66.6668
178.1582,66.7210
178.0625,66.7400
177.5375,66.7400
177.4418,66.7210
177.3607,66.6668
177.3065,66.5857
177.2875,66.4900
Z" /> 
<path style="fill:#000000; fill-opacity:1.0000; 
stroke:#000000; stroke-width:0.0000; stroke-opacity:1; 
stroke-linecap:round; stroke-linejoin:round;fill-rule:evenodd;"
d="M 179.1125,65.5900
179.1315,65.4943
179.1857,65.4132
179.2668,65.3590
179.3625,65.3400
179.8875,65.3400
179.9832,65.3590
180.0643,65.4132
180.1185,65.4943
180.1375,65.5900
180.1375,66.4900
180.1185,66.5857
180.0643,66.6668
179.9832,66.7210
179.8875,66.7400
179.3625,66.7400
179.2668,66.7210
179.1857,66.6668
179.1315,66.5857
179.1125,66.4900
Z" /> 
</g>
<g >
</g>
<g >
</g>
<g style="fill:#000000; fill-opacity:1.0000; 
stroke:#000000; stroke-width:0.0000; stroke-opacity:1; 
stroke-linecap:round; stroke-linejoin:round;">
<path style="fill:#000000; fill-opacity:1.0000; 
stroke:#000000; stroke-width:0.0000; stroke-opacity:1; 
stroke-linecap:round; stroke-linejoin:round;fill-rule:evenodd;"
d="M 218.5800,61.1850
218.5800,60.7350
219.1800,60.7350
219.1800,61.1850
Z" /> 
<path style="fill:#000000; fill-opacity:1.0000; 
stroke:#000000; stroke-width:0.0000; stroke-opacity:1; 
stroke-linecap:round; stroke-linejoin:round;fill-rule:evenodd;"
d="M 220.6800,61.1850
220.6800,60.7350
221.2800,60.7350
221.2800,61.1850
Z" /> 
</g>
<g >
</g>
<g style="fill:#000000; fill-opacity:1.0000; 
stroke:#000000; stroke-width:0.0000; stroke-opacity:1; 
stroke-linecap:round; stroke-linejoin:round;">
<path style="fill:#000000; fill-opacity:1.0000; 
stroke:#000000; stroke-width:0.0000; stroke-opacity:1; 
stroke-linecap:round; stroke-linejoin:round;fill-rule:evenodd;"
d="M 195.2800,51.0250
195.2800,50.5750
195.8800,50.5750
195.8800,51.0250
Z" /> 
<path style="fill:#000000; fill-opacity:1.0000; 
stroke:#000000; stroke-width:0.0000; stroke-opacity:1; 
stroke-linecap:round; stroke-linejoin:round;fill-rule:evenodd;"
d="M 197.3800,51.0250
197.3800,50.5750
197.9800,50.5750
197.9800,51.0250
Z" /> 
</g>
<g >
</g>
<g style="fill:#000000; fill-opacity:1.0000; 
stroke:#000000; stroke-width:0.0000; stroke-opacity:1; 
stroke-linecap:round; stroke-linejoin:round;">
<path style="fill:#000000; fill-opacity:1.0000; 
stroke:#000000; stroke-width:0.0000; stroke-opacity:1; 
stroke-linecap:round; stroke-linejoin:round;fill-rule:evenodd;"
d="M 177.2875,70.6700
177.3065,70.5743
177.3607,70.4932
177.4418,70.4390
177.5375,70.4200
178.0625,70.4200
178.1582,70.4390
178.2393,70.4932
178.2935,70.5743
178.3125,70.6700
178.3125,71.5700
178.2935,71.6657
178.2393,71.7468
178.1582,71.8010
178.0625,71.8200
177.5375,71.8200
177.4418,71.8010
177.3607,71.7468
177.3065,71.6657
177.2875,71.5700
Z" /> 
<path style="fill:#000000; fill-opacity:1.0000; 
stroke:#000000; stroke-width:0.0000; stroke-opacity:1; 
stroke-linecap:round; stroke-linejoin:round;fill-rule:evenodd;"
d="M 179.1125,70.6700
179.1315,70.5743
179.1857,70.4932
179.2668,70.4390
179.3625,70.4200
179.8875,70.4200
179.9832,70.4390
180.0643,70.4932
180.1185,70.5743
180.1375,70.6700
180.1375,71.5700
180.1185,71.6657
180.0643,71.7468
179.9832,71.8010
179.8875,71.8200
179.3625,71.8200
179.2668,71.8010
179.1857,71.7468
179.1315,71.6657
179.1125,71.5700
Z" /> 
</g>
<g >
</g>
<g >
</g>
<g style="fill:#000000; fill-opacity:1.0000; 
stroke:#000000; stroke-width:0.0000; stroke-opacity:1; 
stroke-linecap:round; stroke-linejoin:round;">
<path style="fill:#000000; fill-opacity:1.0000; 
stroke:#000000; stroke-width:0.0000; stroke-opacity:1; 
stroke-linecap:round; stroke-linejoin:round;fill-rule:evenodd;"
d="M 187.4475,40.1900
187.4665,40.0943
187.5207,40.0132
187.6018,39.9590
187.6975,39.9400
188.2225,39.9400
188.3182,39.9590
188.3993,40.0132
188.4535,40.0943
188.4725,40.1900
188.4725,41.0900
188.4535,41.1857
188.3993,41.2668
188.3182,41.3210
188.2225,41.3400
187.6975,41.3400
187.6018,41.3210
187.5207,41.2668
187.4665,41.1857
187.4475,41.0900
Z" /> 
<path style="fill:#000000; fill-opacity:1.0000; 
stroke:#000000; stroke-width:0.0000; stroke-opacity:1; 
stroke-linecap:round; stroke-linejoin:round;fill-rule:evenodd;"
d="M 189.2725,40.1900
189.2915,40.0943
189.3457,40.0132
189.4268,39.9590
189.5225,39.9400
190.0475,39.9400
190.1432,39.9590
190.2243,40.0132
190.2785,40.0943
190.2975,40.1900
190.2975,41.0900
190.2785,41.1857
190.2243,41.2668
190.1432,41.3210
190.0475,41.3400
189.5225,41.3400
189.4268,41.3210
189.3457,41.2668
189.2915,41.1857
189.2725,41.0900
Z" /> 
</g>
<g >
</g>
<g style="fill:#000000; fill-opacity:1.0000; 
stroke:#000000; stroke-width:0.0000; stroke-opacity:1; 
stroke-linecap:round; stroke-linejoin:round;">
<path style="fill:#000000; fill-opacity:1.0000; 
stroke:#000000; stroke-width:0.0000; stroke-opacity:1; 
stroke-linecap:round; stroke-linejoin:round;fill-rule:evenodd;"
d="M 184.7100,78.9200
183.9100,78.9200
183.9100,77.9200
184.7100,77.9200
Z" /> 
<path style="fill:#000000; fill-opacity:1.0000; 
stroke:#000000; stroke-width:0.0000; stroke-opacity:1; 
stroke-linecap:round; stroke-linejoin:round;fill-rule:evenodd;"
d="M 186.9200,78.9200
186.1200,78.9200
186.1200,77.9200
186.9200,77.9200
Z" /> 
<path style="fill:#000000; fill-opacity:1.0000; 
stroke:#000000; stroke-width:0.0000; stroke-opacity:1; 
stroke-linecap:round; stroke-linejoin:round;fill-rule:evenodd;"
d="M 184.7100,71.6200
183.9100,71.6200
183.9100,70.6200
184.7100,70.6200
Z" /> 
<path style="fill:#000000; fill-opacity:1.0000; 
stroke:#000000; stroke-width:0.0000; stroke-opacity:1; 
stroke-linecap:round; stroke-linejoin:round;fill-rule:evenodd;"
d="M 186.9200,71.6200
186.1200,71.6200
186.1200,70.6200
186.9200,70.6200
Z" /> 
<path style="fill:#000000; fill-opacity:1.0000; 
stroke:#000000; stroke-width:0.0000; stroke-opacity:1; 
stroke-linecap:round; stroke-linejoin:round;fill-rule:evenodd;"
d="M 184.4100,77.3700
182.9100,77.3700
182.9100,76.6700
184.4100,76.6700
Z" /> 
<path style="fill:#000000; fill-opacity:1.0000; 
stroke:#000000; stroke-width:0.0000; stroke-opacity:1; 
stroke-linecap:round; stroke-linejoin:round;fill-rule:evenodd;"
d="M 184.4100,74.3700
182.9100,74.3700
182.9100,73.6700
184.4100,73.6700
Z" /> 
<path style="fill:#000000; fill-opacity:1.0000; 
stroke:#000000; stroke-width:0.0000; stroke-opacity:1; 
stroke-linecap:round; stroke-linejoin:round;fill-rule:evenodd;"
d="M 184.4100,72.8700
182.9100,72.8700
182.9100,72.1700
184.4100,72.1700
Z" /> 
</g>
<g >
</g>
<g style="fill:#000000; fill-opacity:1.0000; 
stroke:#000000; stroke-width:0.0000; stroke-opacity:1; 
stroke-linecap:round; stroke-linejoin:round;">
<path style="fill:#000000; fill-opacity:1.0000; 
stroke:#000000; stroke-width:0.0000; stroke-opacity:1; 
stroke-linecap:round; stroke-linejoin:round;fill-rule:evenodd;"
d="M 182.3675,50.3500
182.3865,50.2543
182.4407,50.1732
182.5218,50.1190
182.6175,50.1000
183.1425,50.1000
183.2382,50.1190
183.3193,50.1732
183.3735,50.2543
183.3925,50.3500
183.3925,51.2500
183.3735,51.3457
183.3193,51.4268
183.2382,51.4810
183.1425,51.5000
182.6175,51.5000
182.5218,51.4810
182.4407,51.4268
182.3865,51.3457
182.3675,51.2500
Z" /> 
<path style="fill:#000000; fill-opacity:1.0000; 
stroke:#000000; stroke-width:0.0000; stroke-opacity:1; 
stroke-linecap:round; stroke-linejoin:round;fill-rule:evenodd;"
d="M 184.1925,50.3500
184.2115,50.2543
184.2657,50.1732
184.3468,50.1190
184.4425,50.1000
184.9675,50.1000
185.0632,50.1190
185.1443,50.1732
185.1985,50.2543
185.2175,50.3500
185.2175,51.2500
185.1985,51.3457
185.1443,51.4268
185.0632,51.4810
184.9675,51.5000
184.4425,51.5000
184.3468,51.4810
184.2657,51.4268
184.2115,51.3457
184.1925,51.2500
Z" /> 
</g>
<g >
</g>
<g >
</g>
<g >
</g>
<g style="fill:#000000; fill-opacity:1.0000; 
stroke:#000000; stroke-width:0.0000; stroke-opacity:1; 
stroke-linecap:round; stroke-linejoin:round;">
<path style="fill:#000000; fill-opacity:1.0000; 
stroke:#000000; stroke-width:0.0000; stroke-opacity:1; 
stroke-linecap:round; stroke-linejoin:round;fill-rule:evenodd;"
d="M 205.0775,25.8900
205.0889,25.8326
205.1214,25.7839
205.1701,25.7514
205.2275,25.7400
206.2525,25.7400
206.3099,25.7514
206.3586,25.7839
206.3911,25.8326
206.4025,25.8900
206.4025,26.1900
206.3911,26.2474
206.3586,26.2961
206.3099,26.3286
206.2525,26.3400
205.2275,26.3400
205.1701,26.3286
205.1214,26.2961
205.0889,26.2474
205.0775,26.1900
Z" /> 
<path style="fill:#000000; fill-opacity:1.0000; 
stroke:#000000; stroke-width:0.0000; stroke-opacity:1; 
stroke-linecap:round; stroke-linejoin:round;fill-rule:evenodd;"
d="M 205.0775,26.8400
205.0889,26.7826
205.1214,26.7339
205.1701,26.7014
205.2275,26.6900
206.2525,26.6900
206.3099,26.7014
206.3586,26.7339
206.3911,26.7826
206.4025,26.8400
206.4025,27.1400
206.3911,27.1974
206.3586,27.2461
206.3099,27.2786
206.2525,27.2900
205.2275,27.2900
205.1701,27.2786
205.1214,27.2461
205.0889,27.1974
205.0775,27.1400
Z" /> 
<path style="fill:#000000; fill-opacity:1.0000; 
stroke:#000000; stroke-width:0.0000; stroke-opacity:1; 
stroke-linecap:round; stroke-linejoin:round;fill-rule:evenodd;"
d="M 205.0775,27.7900
205.0889,27.7326
205.1214,27.6839
205.1701,27.6514
205.2275,27.6400
206.2525,27.6400
206.3099,27.6514
206.3586,27.6839
206.3911,27.7326
206.4025,27.7900
206.4025,28.0900
206.3911,28.1474
206.3586,28.1961
206.3099,28.2286
206.2525,28.2400
205.2275,28.2400
205.1701,28.2286
205.1214,28.1961
205.0889,28.1474
205.0775,28.0900
Z" /> 
<path style="fill:#000000; fill-opacity:1.0000; 
stroke:#000000; stroke-width:0.0000; stroke-opacity:1; 
stroke-linecap:round; stroke-linejoin:round;fill-rule:evenodd;"
d="M 207.3525,27.7900
207.3639,27.7326
207.3964,27.6839
207.4451,27.6514
207.5025,27.6400
208.5275,27.6400
208.5849,27.6514
208.6336,27.6839
208.6661,27.7326
208.6775,27.7900
208.6775,28.0900
208.6661,28.1474
208.6336,28.1961
208.5849,28.2286
208.5275,28.2400
207.5025,28.2400
207.4451,28.2286
207.3964,28.1961
207.3639,28.1474
207.3525,28.0900
Z" /> 
<path style="fill:#000000; fill-opacity:1.0000; 
stroke:#000000; stroke-width:0.0000; stroke-opacity:1; 
stroke-linecap:round; stroke-linejoin:round;fill-rule:evenodd;"
d="M 207.3525,25.8900
207.3639,25.8326
207.3964,25.7839
207.4451,25.7514
207.5025,25.7400
208.5275,25.7400
208.5849,25.7514
208.6336,25.7839
208.6661,25.8326
208.6775,25.8900
208.6775,26.1900
208.6661,26.2474
208.6336,26.2961
208.5849,26.3286
208.5275,26.3400
207.5025,26.3400
207.4451,26.3286
207.3964,26.2961
207.3639,26.2474
207.3525,26.1900
Z" /> 
</g>
<g >
</g>
<g style="fill:#000000; fill-opacity:1.0000; 
stroke:#000000; stroke-width:0.0000; stroke-opacity:1; 
stroke-linecap:round; stroke-linejoin:round;">
<path style="fill:#000000; fill-opacity:1.0000; 
stroke:#000000; stroke-width:0.0000; stroke-opacity:1; 
stroke-linecap:round; stroke-linejoin:round;fill-rule:evenodd;"
d="M 198.7200,37.2450
198.7200,36.7950
199.3200,36.7950
199.3200,37.2450
Z" /> 
<path style="fill:#000000; fill-opacity:1.0000; 
stroke:#000000; stroke-width:0.0000; stroke-opacity:1; 
stroke-linecap:round; stroke-linejoin:round;fill-rule:evenodd;"
d="M 200.8200,37.2450
200.8200,36.7950
201.4200,36.7950
201.4200,37.2450
Z" /> 
</g>
<g >
</g>
<g >
</g>
<g style="fill:#000000; fill-opacity:1.0000; 
stroke:#000000; stroke-width:0.0000; stroke-opacity:1; 
stroke-linecap:round; stroke-linejoin:round;">
<path style="fill:#000000; fill-opacity:1.0000; 
stroke:#000000; stroke-width:0.0000; stroke-opacity:1; 
stroke-linecap:round; stroke-linejoin:round;fill-rule:evenodd;"
d="M 188.1625,47.8100
188.1815,47.7143
188.2357,47.6332
188.3168,47.5790
188.4125,47.5600
188.9375,47.5600
189.0332,47.5790
189.1143,47.6332
189.1685,47.7143
189.1875,47.8100
189.1875,48.7100
189.1685,48.8057
189.1143,48.8868
189.0332,48.9410
188.9375,48.9600
188.4125,48.9600
188.3168,48.9410
188.2357,48.8868
188.1815,48.8057
188.1625,48.7100
Z" /> 
<path style="fill:#000000; fill-opacity:1.0000; 
stroke:#000000; stroke-width:0.0000; stroke-opacity:1; 
stroke-linecap:round; stroke-linejoin:round;fill-rule:evenodd;"
d="M 189.9875,47.8100
190.0065,47.7143
190.0607,47.6332
190.1418,47.5790
190.2375,47.5600
190.7625,47.5600
190.8582,47.5790
190.9393,47.6332
190.9935,47.7143
191.0125,47.8100
191.0125,48.7100
190.9935,48.8057
190.9393,48.8868
190.8582,48.9410
190.7625,48.9600
190.2375,48.9600
190.1418,48.9410
190.0607,48.8868
190.0065,48.8057
189.9875,48.7100
Z" /> 
</g>
<g >
</g>
<g style="fill:#000000; fill-opacity:1.0000; 
stroke:#000000; stroke-width:0.0000; stroke-opacity:1; 
stroke-linecap:round; stroke-linejoin:round;">
<path style="fill:#000000; fill-opacity:1.0000; 
stroke:#000000; stroke-width:0.0000; stroke-opacity:1; 
stroke-linecap:round; stroke-linejoin:round;fill-rule:evenodd;"
d="M 216.0400,34.7050
216.0400,34.2550
216.6400,34.2550
216.6400,34.7050
Z" /> 
<path style="fill:#000000; fill-opacity:1.0000; 
stroke:#000000; stroke-width:0.0000; stroke-opacity:1; 
stroke-linecap:round; stroke-linejoin:round;fill-rule:evenodd;"
d="M 218.1400,34.7050
218.1400,34.2550
218.7400,34.2550
218.7400,34.7050
Z" /> 
</g>
<g >
</g>
<g style="fill:#000000; fill-opacity:1.0000; 
stroke:#000000; stroke-width:0.0000; stroke-opacity:1; 
stroke-linecap:round; stroke-linejoin:round;">
<path style="fill:#000000; fill-opacity:1.0000; 
stroke:#000000; stroke-width:0.0000; stroke-opacity:1; 
stroke-linecap:round; stroke-linejoin:round;fill-rule:evenodd;"
d="M 177.1375,29.3800
177.1489,29.3226
177.1814,29.2739
177.2301,29.2414
177.2875,29.2300
178.3125,29.2300
178.3699,29.2414
178.4186,29.2739
178.4511,29.3226
178.4625,29.3800
178.4625,29.6800
178.4511,29.7374
178.4186,29.7861
178.3699,29.8186
178.3125,29.8300
177.2875,29.8300
177.2301,29.8186
177.1814,29.7861
177.1489,29.7374
177.1375,29.6800
Z" /> 
<path style="fill:#000000; fill-opacity:1.0000; 
stroke:#000000; stroke-width:0.0000; stroke-opacity:1; 
stroke-linecap:round; stroke-linejoin:round;fill-rule:evenodd;"
d="M 177.1375,30.3300
177.1489,30.2726
177.1814,30.2239
177.2301,30.1914
177.2875,30.1800
178.3125,30.1800
178.3699,30.1914
178.4186,30.2239
178.4511,30.2726
178.4625,30.3300
178.4625,30.6300
178.4511,30.6874
178.4186,30.7361
178.3699,30.7686
178.3125,30.7800
177.2875,30.7800
177.2301,30.7686
177.1814,30.7361
177.1489,30.6874
177.1375,30.6300
Z" /> 
<path style="fill:#000000; fill-opacity:1.0000; 
stroke:#000000; stroke-width:0.0000; stroke-opacity:1; 
stroke-linecap:round; stroke-linejoin:round;fill-rule:evenodd;"
d="M 177.1375,31.2800
177.1489,31.2226
177.1814,31.1739
177.2301,31.1414
177.2875,31.1300
178.3125,31.1300
178.3699,31.1414
178.4186,31.1739
178.4511,31.2226
178.4625,31.2800
178.4625,31.5800
178.4511,31.6374
178.4186,31.6861
178.3699,31.7186
178.3125,31.7300
177.2875,31.7300
177.2301,31.7186
177.1814,31.6861
177.1489,31.6374
177.1375,31.5800
Z" /> 
<path style="fill:#000000; fill-opacity:1.0000; 
stroke:#000000; stroke-width:0.0000; stroke-opacity:1; 
stroke-linecap:round; stroke-linejoin:round;fill-rule:evenodd;"
d="M 179.4125,31.2800
179.4239,31.2226
179.4564,31.1739
179.5051,31.1414
179.5625,31.1300
180.5875,31.1300
180.6449,31.1414
180.6936,31.1739
180.7261,31.2226
180.7375,31.2800
180.7375,31.5800
180.7261,31.6374
180.6936,31.6861
180.6449,31.7186
180.5875,31.7300
179.5625,31.7300
179.5051,31.7186
179.4564,31.6861
179.4239,31.6374
179.4125,31.5800
Z" /> 
<path style="fill:#000000; fill-opacity:1.0000; 
stroke:#000000; stroke-width:0.0000; stroke-opacity:1; 
stroke-linecap:round; stroke-linejoin:round;fill-rule:evenodd;"
d="M 179.4125,30.3300
179.4239,30.2726
179.4564,30.2239
179.5051,30.1914
179.5625,30.1800
180.5875,30.1800
180.6449,30.1914
180.6936,30.2239
180.7261,30.2726
180.7375,30.3300
180.7375,30.6300
180.7261,30.6874
180.6936,30.7361
180.6449,30.7686
180.5875,30.7800
179.5625,30.7800
179.5051,30.7686
179.4564,30.7361
179.4239,30.6874
179.4125,30.6300
Z" /> 
<path style="fill:#000000; fill-opacity:1.0000; 
stroke:#000000; stroke-width:0.0000; stroke-opacity:1; 
stroke-linecap:round; stroke-linejoin:round;fill-rule:evenodd;"
d="M 179.4125,29.3800
179.4239,29.3226
179.4564,29.2739
179.5051,29.2414
179.5625,29.2300
180.5875,29.2300
180.6449,29.2414
180.6936,29.2739
180.7261,29.3226
180.7375,29.3800
180.7375,29.6800
180.7261,29.7374
180.6936,29.7861
180.6449,29.8186
180.5875,29.8300
179.5625,29.8300
179.5051,29.8186
179.4564,29.7861
179.4239,29.7374
179.4125,29.6800
Z" /> 
</g>
<g >
</g>
<g >
</g>
<g >
</g>
<g >
</g>
<g style="fill:#000000; fill-opacity:1.0000; 
stroke:#000000; stroke-width:0.0000; stroke-opacity:1; 
stroke-linecap:round; stroke-linejoin:round;">
<path style="fill:#000000; fill-opacity:1.0000; 
stroke:#000000; stroke-width:0.0000; stroke-opacity:1; 
stroke-linecap:round; stroke-linejoin:round;fill-rule:evenodd;"
d="M 205.8800,42.3250
205.8800,41.8750
206.4800,41.8750
206.4800,42.3250
Z" /> 
<path style="fill:#000000; fill-opacity:1.0000; 
stroke:#000000; stroke-width:0.0000; stroke-opacity:1; 
stroke-linecap:round; stroke-linejoin:round;fill-rule:evenodd;"
d="M 207.9800,42.3250
207.9800,41.8750
208.5800,41.8750
208.5800,42.3250
Z" /> 
</g>
<g >
</g>
<g style="fill:#000000; fill-opacity:1.0000; 
stroke:#000000; stroke-width:0.0000; stroke-opacity:1; 
stroke-linecap:round; stroke-linejoin:round;">
<path style="fill:#000000; fill-opacity:1.0000; 
stroke:#000000; stroke-width:0.0000; stroke-opacity:1; 
stroke-linecap:round; stroke-linejoin:round;fill-rule:evenodd;"
d="M 168.1800,78.4900
168.1971,78.4039
168.2459,78.3309
168.3189,78.2821
168.4050,78.2650
168.8550,78.2650
168.9411,78.2821
169.0141,78.3309
169.0629,78.4039
169.0800,78.4900
169.0800,78.9900
169.0629,79.0761
169.0141,79.1491
168.9411,79.1979
168.8550,79.2150
168.4050,79.2150
168.3189,79.1979
168.2459,79.1491
168.1971,79.0761
168.1800,78.9900
Z" /> 
<path style="fill:#000000; fill-opacity:1.0000; 
stroke:#000000; stroke-width:0.0000; stroke-opacity:1; 
stroke-linecap:round; stroke-linejoin:round;fill-rule:evenodd;"
d="M 169.7300,78.4900
169.7471,78.4039
169.7959,78.3309
169.8689,78.2821
169.9550,78.2650
170.4050,78.2650
170.4911,78.2821
170.5641,78.3309
170.6129,78.4039
170.6300,78.4900
170.6300,78.9900
170.6129,79.0761
170.5641,79.1491
170.4911,79.1979
170.4050,79.2150
169.9550,79.2150
169.8689,79.1979
169.7959,79.1491
169.7471,79.0761
169.7300,78.9900
Z" /> 
</g>
<g >
</g>
<g style="fill:#000000; fill-opacity:1.0000; 
stroke:#000000; stroke-width:0.0000; stroke-opacity:1; 
stroke-linecap:round; stroke-linejoin:round;">
<path style="fill:#000000; fill-opacity:1.0000; 
stroke:#000000; stroke-width:0.0000; stroke-opacity:1; 
stroke-linecap:round; stroke-linejoin:round;fill-rule:evenodd;"
d="M 211.4700,55.8250
211.4700,55.3750
212.0700,55.3750
212.0700,55.8250
Z" /> 
<path style="fill:#000000; fill-opacity:1.0000; 
stroke:#000000; stroke-width:0.0000; stroke-opacity:1; 
stroke-linecap:round; stroke-linejoin:round;fill-rule:evenodd;"
d="M 213.5700,55.8250
213.5700,55.3750
214.1700,55.3750
214.1700,55.8250
Z" /> 
</g>
<g >
</g>
<g >
</g>
<g >
</g>
<g >
</g>
<g style="fill:#000000; fill-opacity:1.0000; 
stroke:#000000; stroke-width:0.0000; stroke-opacity:1; 
stroke-linecap:round; stroke-linejoin:round;">
<path style="fill:#000000; fill-opacity:1.0000; 
stroke:#000000; stroke-width:0.0000; stroke-opacity:1; 
stroke-linecap:round; stroke-linejoin:round;fill-rule:evenodd;"
d="M 167.7800,57.9450
167.7990,57.8493
167.8532,57.7682
167.9343,57.7140
168.0300,57.6950
168.5300,57.6950
168.6257,57.7140
168.7068,57.7682
168.7610,57.8493
168.7800,57.9450
168.7800,58.8950
168.7610,58.9907
168.7068,59.0718
168.6257,59.1260
168.5300,59.1450
168.0300,59.1450
167.9343,59.1260
167.8532,59.0718
167.7990,58.9907
167.7800,58.8950
Z" /> 
<path style="fill:#000000; fill-opacity:1.0000; 
stroke:#000000; stroke-width:0.0000; stroke-opacity:1; 
stroke-linecap:round; stroke-linejoin:round;fill-rule:evenodd;"
d="M 169.6800,57.9450
169.6990,57.8493
169.7532,57.7682
169.8343,57.7140
169.9300,57.6950
170.4300,57.6950
170.5257,57.7140
170.6068,57.7682
170.6610,57.8493
170.6800,57.9450
170.6800,58.8950
170.6610,58.9907
170.6068,59.0718
170.5257,59.1260
170.4300,59.1450
169.9300,59.1450
169.8343,59.1260
169.7532,59.0718
169.6990,58.9907
169.6800,58.8950
Z" /> 
</g>
<g >
</g>
<g style="fill:#000000; fill-opacity:1.0000; 
stroke:#000000; stroke-width:0.0000; stroke-opacity:1; 
stroke-linecap:round; stroke-linejoin:round;">
<path style="fill:#000000; fill-opacity:1.0000; 
stroke:#000000; stroke-width:0.0000; stroke-opacity:1; 
stroke-linecap:round; stroke-linejoin:round;fill-rule:evenodd;"
d="M 152.5400,37.6250
152.5590,37.5293
152.6132,37.4482
152.6943,37.3940
152.7900,37.3750
153.2900,37.3750
153.3857,37.3940
153.4668,37.4482
153.5210,37.5293
153.5400,37.6250
153.5400,38.5750
153.5210,38.6707
153.4668,38.7518
153.3857,38.8060
153.2900,38.8250
152.7900,38.8250
152.6943,38.8060
152.6132,38.7518
152.5590,38.6707
152.5400,38.5750
Z" /> 
<path style="fill:#000000; fill-opacity:1.0000; 
stroke:#000000; stroke-width:0.0000; stroke-opacity:1; 
stroke-linecap:round; stroke-linejoin:round;fill-rule:evenodd;"
d="M 154.4400,37.6250
154.4590,37.5293
154.5132,37.4482
154.5943,37.3940
154.6900,37.3750
155.1900,37.3750
155.2857,37.3940
155.3668,37.4482
155.4210,37.5293
155.4400,37.6250
155.4400,38.5750
155.4210,38.6707
155.3668,38.7518
155.2857,38.8060
155.1900,38.8250
154.6900,38.8250
154.5943,38.8060
154.5132,38.7518
154.4590,38.6707
154.4400,38.5750
Z" /> 
</g>
<g >
</g>
<g >
</g>
<g style="fill:#000000; fill-opacity:1.0000; 
stroke:#000000; stroke-width:0.0000; stroke-opacity:1; 
stroke-linecap:round; stroke-linejoin:round;">
<path style="fill:#000000; fill-opacity:1.0000; 
stroke:#000000; stroke-width:0.0000; stroke-opacity:1; 
stroke-linecap:round; stroke-linejoin:round;fill-rule:evenodd;"
d="M 218.5800,24.9250
218.5990,24.8293
218.6532,24.7482
218.7343,24.6940
218.8300,24.6750
219.3300,24.6750
219.4257,24.6940
219.5068,24.7482
219.5610,24.8293
219.5800,24.9250
219.5800,25.8750
219.5610,25.9707
219.5068,26.0518
219.4257,26.1060
219.3300,26.1250
218.8300,26.1250
218.7343,26.1060
218.6532,26.0518
218.5990,25.9707
218.5800,25.8750
Z" /> 
<path style="fill:#000000; fill-opacity:1.0000; 
stroke:#000000; stroke-width:0.0000; stroke-opacity:1; 
stroke-linecap:round; stroke-linejoin:round;fill-rule:evenodd;"
d="M 220.4800,24.9250
220.4990,24.8293
220.5532,24.7482
220.6343,24.6940
220.7300,24.6750
221.2300,24.6750
221.3257,24.6940
221.4068,24.7482
221.4610,24.8293
221.4800,24.9250
221.4800,25.8750
221.4610,25.9707
221.4068,26.0518
221.3257,26.1060
221.2300,26.1250
220.7300,26.1250
220.6343,26.1060
220.5532,26.0518
220.4990,25.9707
220.4800,25.8750
Z" /> 
</g>
<g >
</g>
<g style="fill:#000000; fill-opacity:1.0000; 
stroke:#000000; stroke-width:0.0000; stroke-opacity:1; 
stroke-linecap:round; stroke-linejoin:round;">
<path style="fill:#000000; fill-opacity:1.0000; 
stroke:#000000; stroke-width:0.0000; stroke-opacity:1; 
stroke-linecap:round; stroke-linejoin:round;fill-rule:evenodd;"
d="M 198.2600,68.8050
198.2600,68.3550
198.8600,68.3550
198.8600,68.8050
Z" /> 
<path style="fill:#000000; fill-opacity:1.0000; 
stroke:#000000; stroke-width:0.0000; stroke-opacity:1; 
stroke-linecap:round; stroke-linejoin:round;fill-rule:evenodd;"
d="M 200.3600,68.8050
200.3600,68.3550
200.9600,68.3550
200.9600,68.8050
Z" /> 
</g>
<g >
</g>
<g style="fill:#000000; fill-opacity:1.0000; 
stroke:#000000; stroke-width:0.0000; stroke-opacity:1; 
stroke-linecap:round; stroke-linejoin:round;">
<path style="fill:#000000; fill-opacity:1.0000; 
stroke:#000000; stroke-width:0.0000; stroke-opacity:1; 
stroke-linecap:round; stroke-linejoin:round;fill-rule:evenodd;"
d="M 190.2000,66.2650
190.2000,65.8150
190.8000,65.8150
190.8000,66.2650
Z" /> 
<path style="fill:#000000; fill-opacity:1.0000; 
stroke:#000000; stroke-width:0.0000; stroke-opacity:1; 
stroke-linecap:round; stroke-linejoin:round;fill-rule:evenodd;"
d="M 192.3000,66.2650
192.3000,65.8150
192.9000,65.8150
192.9000,66.2650
Z" /> 
</g>
<g >
</g>
<g >
</g>
<g style="fill:#000000; fill-opacity:1.0000; 
stroke:#000000; stroke-width:0.0000; stroke-opacity:1; 
stroke-linecap:round; stroke-linejoin:round;">
<path style="fill:#000000; fill-opacity:1.0000; 
stroke:#000000; stroke-width:0.0000; stroke-opacity:1; 
stroke-linecap:round; stroke-linejoin:round;fill-rule:evenodd;"
d="M 200.8000,78.9650
200.8000,78.5150
201.4000,78.5150
201.4000,78.9650
Z" /> 
<path style="fill:#000000; fill-opacity:1.0000; 
stroke:#000000; stroke-width:0.0000; stroke-opacity:1; 
stroke-linecap:round; stroke-linejoin:round;fill-rule:evenodd;"
d="M 202.9000,78.9650
202.9000,78.5150
203.5000,78.5150
203.5000,78.9650
Z" /> 
</g>
<g >
</g>
<g style="fill:#000000; fill-opacity:1.0000; 
stroke:#000000; stroke-width:0.0000; stroke-opacity:1; 
stroke-linecap:round; stroke-linejoin:round;">
<path style="fill:#000000; fill-opacity:1.0000; 
stroke:#000000; stroke-width:0.0000; stroke-opacity:1; 
stroke-linecap:round; stroke-linejoin:round;fill-rule:evenodd;"
d="M 213.5000,78.9650
213.5000,78.5150
214.1000,78.5150
214.1000,78.9650
Z" /> 
<path style="fill:#000000; fill-opacity:1.0000; 
stroke:#000000; stroke-width:0.0000; stroke-opacity:1; 
stroke-linecap:round; stroke-linejoin:round;fill-rule:evenodd;"
d="M 215.6000,78.9650
215.6000,78.5150
216.2000,78.5150
216.2000,78.9650
Z" /> 
</g>
<g >
</g>
<g style="fill:#000000; fill-opacity:1.0000; 
stroke:#000000; stroke-width:0.0000; stroke-opacity:1; 
stroke-linecap:round; stroke-linejoin:round;">
<path style="fill:#000000; fill-opacity:1.0000; 
stroke:#000000; stroke-width:0.0000; stroke-opacity:1; 
stroke-linecap:round; stroke-linejoin:round;fill-rule:evenodd;"
d="M 169.7300,35.3100
169.7471,35.2239
169.7959,35.1509
169.8689,35.1021
169.9550,35.0850
170.4050,35.0850
170.4911,35.1021
170.5641,35.1509
170.6129,35.2239
170.6300,35.3100
170.6300,35.8100
170.6129,35.8961
170.5641,35.9691
170.4911,36.0179
170.4050,36.0350
169.9550,36.0350
169.8689,36.0179
169.7959,35.9691
169.7471,35.8961
169.7300,35.8100
Z" /> 
<path style="fill:#000000; fill-opacity:1.0000; 
stroke:#000000; stroke-width:0.0000; stroke-opacity:1; 
stroke-linecap:round; stroke-linejoin:round;fill-rule:evenodd;"
d="M 171.2800,35.3100
171.2971,35.2239
171.3459,35.1509
171.4189,35.1021
171.5050,35.0850
171.9550,35.0850
172.0411,35.1021
172.1141,35.1509
172.1629,35.2239
172.1800,35.3100
172.1800,35.8100
172.1629,35.8961
172.1141,35.9691
172.0411,36.0179
171.9550,36.0350
171.5050,36.0350
171.4189,36.0179
171.3459,35.9691
171.2971,35.8961
171.2800,35.8100
Z" /> 
</g>
<g >
</g>
<g >
</g>
<g style="fill:#000000; fill-opacity:1.0000; 
stroke:#000000; stroke-width:0.0000; stroke-opacity:1; 
stroke-linecap:round; stroke-linejoin:round;">
<path style="fill:#000000; fill-opacity:1.0000; 
stroke:#000000; stroke-width:0.0000; stroke-opacity:1; 
stroke-linecap:round; stroke-linejoin:round;fill-rule:evenodd;"
d="M 170.3200,40.1650
170.3390,40.0693
170.3932,39.9882
170.4743,39.9340
170.5700,39.9150
171.0700,39.9150
171.1657,39.9340
171.2468,39.9882
171.3010,40.0693
171.3200,40.1650
171.3200,41.1150
171.3010,41.2107
171.2468,41.2918
171.1657,41.3460
171.0700,41.3650
170.5700,41.3650
170.4743,41.3460
170.3932,41.2918
170.3390,41.2107
170.3200,41.1150
Z" /> 
<path style="fill:#000000; fill-opacity:1.0000; 
stroke:#000000; stroke-width:0.0000; stroke-opacity:1; 
stroke-linecap:round; stroke-linejoin:round;fill-rule:evenodd;"
d="M 172.2200,40.1650
172.2390,40.0693
172.2932,39.9882
172.3743,39.9340
172.4700,39.9150
172.9700,39.9150
173.0657,39.9340
173.1468,39.9882
173.2010,40.0693
173.2200,40.1650
173.2200,41.1150
173.2010,41.2107
173.1468,41.2918
173.0657,41.3460
172.9700,41.3650
172.4700,41.3650
172.3743,41.3460
172.2932,41.2918
172.2390,41.2107
172.2200,41.1150
Z" /> 
</g>
<g >
</g>
<g >
</g>
<g style="fill:#000000; fill-opacity:1.0000; 
stroke:#000000; stroke-width:0.0000; stroke-opacity:1; 
stroke-linecap:round; stroke-linejoin:round;">
<path style="fill:#000000; fill-opacity:1.0000; 
stroke:#000000; stroke-width:0.0000; stroke-opacity:1; 
stroke-linecap:round; stroke-linejoin:round;fill-rule:evenodd;"
d="M 205.8800,66.2650
205.8800,65.8150
206.4800,65.8150
206.4800,66.2650
Z" /> 
<path style="fill:#000000; fill-opacity:1.0000; 
stroke:#000000; stroke-width:0.0000; stroke-opacity:1; 
stroke-linecap:round; stroke-linejoin:round;fill-rule:evenodd;"
d="M 207.9800,66.2650
207.9800,65.8150
208.5800,65.8150
208.5800,66.2650
Z" /> 
</g>
<g >
</g>
<g style="fill:#000000; fill-opacity:1.0000; 
stroke:#000000; stroke-width:0.0000; stroke-opacity:1; 
stroke-linecap:round; stroke-linejoin:round;">
<path style="fill:#000000; fill-opacity:1.0000; 
stroke:#000000; stroke-width:0.0000; stroke-opacity:1; 
stroke-linecap:round; stroke-linejoin:round;fill-rule:evenodd;"
d="M 177.2875,57.9700
177.3065,57.8743
177.3607,57.7932
177.4418,57.7390
177.5375,57.7200
178.0625,57.7200
178.1582,57.7390
178.2393,57.7932
178.2935,57.8743
178.3125,57.9700
178.3125,58.8700
178.2935,58.9657
178.2393,59.0468
178.1582,59.1010
178.0625,59.1200
177.5375,59.1200
177.4418,59.1010
177.3607,59.0468
177.3065,58.9657
177.2875,58.8700
Z" /> 
<path style="fill:#000000; fill-opacity:1.0000; 
stroke:#000000; stroke-width:0.0000; stroke-opacity:1; 
stroke-linecap:round; stroke-linejoin:round;fill-rule:evenodd;"
d="M 179.1125,57.9700
179.1315,57.8743
179.1857,57.7932
179.2668,57.7390
179.3625,57.7200
179.8875,57.7200
179.9832,57.7390
180.0643,57.7932
180.1185,57.8743
180.1375,57.9700
180.1375,58.8700
180.1185,58.9657
180.0643,59.0468
179.9832,59.1010
179.8875,59.1200
179.3625,59.1200
179.2668,59.1010
179.1857,59.0468
179.1315,58.9657
179.1125,58.8700
Z" /> 
</g>
<g >
</g>
<g style="fill:#000000; fill-opacity:1.0000; 
stroke:#000000; stroke-width:0.0000; stroke-opacity:1; 
stroke-linecap:round; stroke-linejoin:round;">
<path style="fill:#000000; fill-opacity:1.0000; 
stroke:#000000; stroke-width:0.0000; stroke-opacity:1; 
stroke-linecap:round; stroke-linejoin:round;fill-rule:evenodd;"
d="M 191.5700,31.0225
191.5822,30.9613
191.6169,30.9094
191.6688,30.8747
191.7300,30.8625
192.0500,30.8625
192.1112,30.8747
192.1631,30.9094
192.1978,30.9613
192.2100,31.0225
192.2100,31.3425
192.1978,31.4037
192.1631,31.4556
192.1112,31.4903
192.0500,31.5025
191.7300,31.5025
191.6688,31.4903
191.6169,31.4556
191.5822,31.4037
191.5700,31.3425
Z" /> 
<path style="fill:#000000; fill-opacity:1.0000; 
stroke:#000000; stroke-width:0.0000; stroke-opacity:1; 
stroke-linecap:round; stroke-linejoin:round;fill-rule:evenodd;"
d="M 191.5700,31.8225
191.5822,31.7613
191.6169,31.7094
191.6688,31.6747
191.7300,31.6625
192.0500,31.6625
192.1112,31.6747
192.1631,31.7094
192.1978,31.7613
192.2100,31.8225
192.2100,32.1425
192.1978,32.2037
192.1631,32.2556
192.1112,32.2903
192.0500,32.3025
191.7300,32.3025
191.6688,32.2903
191.6169,32.2556
191.5822,32.2037
191.5700,32.1425
Z" /> 
<path style="fill:#000000; fill-opacity:1.0000; 
stroke:#000000; stroke-width:0.0000; stroke-opacity:1; 
stroke-linecap:round; stroke-linejoin:round;fill-rule:evenodd;"
d="M 192.3700,31.0225
192.3822,30.9613
192.4169,30.9094
192.4688,30.8747
192.5300,30.8625
192.8500,30.8625
192.9112,30.8747
192.9631,30.9094
192.9978,30.9613
193.0100,31.0225
193.0100,31.3425
192.9978,31.4037
192.9631,31.4556
192.9112,31.4903
192.8500,31.5025
192.5300,31.5025
192.4688,31.4903
192.4169,31.4556
192.3822,31.4037
192.3700,31.3425
Z" /> 
<path style="fill:#000000; fill-opacity:1.0000; 
stroke:#000000; stroke-width:0.0000; stroke-opacity:1; 
stroke-linecap:round; stroke-linejoin:round;fill-rule:evenodd;"
d="M 192.3700,31.8225
192.3822,31.7613
192.4169,31.7094
192.4688,31.6747
192.5300,31.6625
192.8500,31.6625
192.9112,31.6747
192.9631,31.7094
192.9978,31.7613
193.0100,31.8225
193.0100,32.1425
192.9978,32.2037
192.9631,32.2556
192.9112,32.2903
192.8500,32.3025
192.5300,32.3025
192.4688,32.2903
192.4169,32.2556
192.3822,32.2037
192.3700,32.1425
Z" /> 
<path style="fill:#000000; fill-opacity:1.0000; 
stroke:#000000; stroke-width:0.0000; stroke-opacity:1; 
stroke-linecap:round; stroke-linejoin:round;fill-rule:evenodd;"
d="M 190.4150,30.7700
190.4198,30.7461
190.4333,30.7258
190.4536,30.7123
190.4775,30.7075
191.2275,30.7075
191.2514,30.7123
191.2717,30.7258
191.2852,30.7461
191.2900,30.7700
191.2900,30.8950
191.2852,30.9189
191.2717,30.9392
191.2514,30.9527
191.2275,30.9575
190.4775,30.9575
190.4536,30.9527
190.4333,30.9392
190.4198,30.9189
190.4150,30.8950
Z" /> 
<path style="fill:#000000; fill-opacity:1.0000; 
stroke:#000000; stroke-width:0.0000; stroke-opacity:1; 
stroke-linecap:round; stroke-linejoin:round;fill-rule:evenodd;"
d="M 190.4150,31.2700
190.4198,31.2461
190.4333,31.2258
190.4536,31.2123
190.4775,31.2075
191.2275,31.2075
191.2514,31.2123
191.2717,31.2258
191.2852,31.2461
191.2900,31.2700
191.2900,31.3950
191.2852,31.4189
191.2717,31.4392
191.2514,31.4527
191.2275,31.4575
190.4775,31.4575
190.4536,31.4527
190.4333,31.4392
190.4198,31.4189
190.4150,31.3950
Z" /> 
<path style="fill:#000000; fill-opacity:1.0000; 
stroke:#000000; stroke-width:0.0000; stroke-opacity:1; 
stroke-linecap:round; stroke-linejoin:round;fill-rule:evenodd;"
d="M 190.4150,31.7700
190.4198,31.7461
190.4333,31.7258
190.4536,31.7123
190.4775,31.7075
191.2275,31.7075
191.2514,31.7123
191.2717,31.7258
191.2852,31.7461
191.2900,31.7700
191.2900,31.8950
191.2852,31.9189
191.2717,31.9392
191.2514,31.9527
191.2275,31.9575
190.4775,31.9575
190.4536,31.9527
190.4333,31.9392
190.4198,31.9189
190.4150,31.8950
Z" /> 
<path style="fill:#000000; fill-opacity:1.0000; 
stroke:#000000; stroke-width:0.0000; stroke-opacity:1; 
stroke-linecap:round; stroke-linejoin:round;fill-rule:evenodd;"
d="M 190.4150,32.2700
190.4198,32.2461
190.4333,32.2258
190.4536,32.2123
190.4775,32.2075
191.2275,32.2075
191.2514,32.2123
191.2717,32.2258
191.2852,32.2461
191.2900,32.2700
191.2900,32.3950
191.2852,32.4189
191.2717,32.4392
191.2514,32.4527
191.2275,32.4575
190.4775,32.4575
190.4536,32.4527
190.4333,32.4392
190.4198,32.4189
190.4150,32.3950
Z" /> 
<path style="fill:#000000; fill-opacity:1.0000; 
stroke:#000000; stroke-width:0.0000; stroke-opacity:1; 
stroke-linecap:round; stroke-linejoin:round;fill-rule:evenodd;"
d="M 191.4150,32.6450
191.4198,32.6211
191.4333,32.6008
191.4536,32.5873
191.4775,32.5825
191.6025,32.5825
191.6264,32.5873
191.6467,32.6008
191.6602,32.6211
191.6650,32.6450
191.6650,33.3950
191.6602,33.4189
191.6467,33.4392
191.6264,33.4527
191.6025,33.4575
191.4775,33.4575
191.4536,33.4527
191.4333,33.4392
191.4198,33.4189
191.4150,33.3950
Z" /> 
<path style="fill:#000000; fill-opacity:1.0000; 
stroke:#000000; stroke-width:0.0000; stroke-opacity:1; 
stroke-linecap:round; stroke-linejoin:round;fill-rule:evenodd;"
d="M 191.9150,32.6450
191.9198,32.6211
191.9333,32.6008
191.9536,32.5873
191.9775,32.5825
192.1025,32.5825
192.1264,32.5873
192.1467,32.6008
192.1602,32.6211
192.1650,32.6450
192.1650,33.3950
192.1602,33.4189
192.1467,33.4392
192.1264,33.4527
192.1025,33.4575
191.9775,33.4575
191.9536,33.4527
191.9333,33.4392
191.9198,33.4189
191.9150,33.3950
Z" /> 
<path style="fill:#000000; fill-opacity:1.0000; 
stroke:#000000; stroke-width:0.0000; stroke-opacity:1; 
stroke-linecap:round; stroke-linejoin:round;fill-rule:evenodd;"
d="M 192.4150,32.6450
192.4198,32.6211
192.4333,32.6008
192.4536,32.5873
192.4775,32.5825
192.6025,32.5825
192.6264,32.5873
192.6467,32.6008
192.6602,32.6211
192.6650,32.6450
192.6650,33.3950
192.6602,33.4189
192.6467,33.4392
192.6264,33.4527
192.6025,33.4575
192.4775,33.4575
192.4536,33.4527
192.4333,33.4392
192.4198,33.4189
192.4150,33.3950
Z" /> 
<path style="fill:#000000; fill-opacity:1.0000; 
stroke:#000000; stroke-width:0.0000; stroke-opacity:1; 
stroke-linecap:round; stroke-linejoin:round;fill-rule:evenodd;"
d="M 192.9150,32.6450
192.9198,32.6211
192.9333,32.6008
192.9536,32.5873
192.9775,32.5825
193.1025,32.5825
193.1264,32.5873
193.1467,32.6008
193.1602,32.6211
193.1650,32.6450
193.1650,33.3950
193.1602,33.4189
193.1467,33.4392
193.1264,33.4527
193.1025,33.4575
192.9775,33.4575
192.9536,33.4527
192.9333,33.4392
192.9198,33.4189
192.9150,33.3950
Z" /> 
<path style="fill:#000000; fill-opacity:1.0000; 
stroke:#000000; stroke-width:0.0000; stroke-opacity:1; 
stroke-linecap:round; stroke-linejoin:round;fill-rule:evenodd;"
d="M 193.2900,32.2700
193.2948,32.2461
193.3083,32.2258
193.3286,32.2123
193.3525,32.2075
194.1025,32.2075
194.1264,32.2123
194.1467,32.2258
194.1602,32.2461
194.1650,32.2700
194.1650,32.3950
194.1602,32.4189
194.1467,32.4392
194.1264,32.4527
194.1025,32.4575
193.3525,32.4575
193.3286,32.4527
193.3083,32.4392
193.2948,32.4189
193.2900,32.3950
Z" /> 
<path style="fill:#000000; fill-opacity:1.0000; 
stroke:#000000; stroke-width:0.0000; stroke-opacity:1; 
stroke-linecap:round; stroke-linejoin:round;fill-rule:evenodd;"
d="M 193.2900,31.7700
193.2948,31.7461
193.3083,31.7258
193.3286,31.7123
193.3525,31.7075
194.1025,31.7075
194.1264,31.7123
194.1467,31.7258
194.1602,31.7461
194.1650,31.7700
194.1650,31.8950
194.1602,31.9189
194.1467,31.9392
194.1264,31.9527
194.1025,31.9575
193.3525,31.9575
193.3286,31.9527
193.3083,31.9392
193.2948,31.9189
193.2900,31.8950
Z" /> 
<path style="fill:#000000; fill-opacity:1.0000; 
stroke:#000000; stroke-width:0.0000; stroke-opacity:1; 
stroke-linecap:round; stroke-linejoin:round;fill-rule:evenodd;"
d="M 193.2900,31.2700
193.2948,31.2461
193.3083,31.2258
193.3286,31.2123
193.3525,31.2075
194.1025,31.2075
194.1264,31.2123
194.1467,31.2258
194.1602,31.2461
194.1650,31.2700
194.1650,31.3950
194.1602,31.4189
194.1467,31.4392
194.1264,31.4527
194.1025,31.4575
193.3525,31.4575
193.3286,31.4527
193.3083,31.4392
193.2948,31.4189
193.2900,31.3950
Z" /> 
<path style="fill:#000000; fill-opacity:1.0000; 
stroke:#000000; stroke-width:0.0000; stroke-opacity:1; 
stroke-linecap:round; stroke-linejoin:round;fill-rule:evenodd;"
d="M 193.2900,30.7700
193.2948,30.7461
193.3083,30.7258
193.3286,30.7123
193.3525,30.7075
194.1025,30.7075
194.1264,30.7123
194.1467,30.7258
194.1602,30.7461
194.1650,30.7700
194.1650,30.8950
194.1602,30.9189
194.1467,30.9392
194.1264,30.9527
194.1025,30.9575
193.3525,30.9575
193.3286,30.9527
193.3083,30.9392
193.2948,30.9189
193.2900,30.8950
Z" /> 
<path style="fill:#000000; fill-opacity:1.0000; 
stroke:#000000; stroke-width:0.0000; stroke-opacity:1; 
stroke-linecap:round; stroke-linejoin:round;fill-rule:evenodd;"
d="M 192.9150,29.7700
192.9198,29.7461
192.9333,29.7258
192.9536,29.7123
192.9775,29.7075
193.1025,29.7075
193.1264,29.7123
193.1467,29.7258
193.1602,29.7461
193.1650,29.7700
193.1650,30.5200
193.1602,30.5439
193.1467,30.5642
193.1264,30.5777
193.1025,30.5825
192.9775,30.5825
192.9536,30.5777
192.9333,30.5642
192.9198,30.5439
192.9150,30.5200
Z" /> 
<path style="fill:#000000; fill-opacity:1.0000; 
stroke:#000000; stroke-width:0.0000; stroke-opacity:1; 
stroke-linecap:round; stroke-linejoin:round;fill-rule:evenodd;"
d="M 192.4150,29.7700
192.4198,29.7461
192.4333,29.7258
192.4536,29.7123
192.4775,29.7075
192.6025,29.7075
192.6264,29.7123
192.6467,29.7258
192.6602,29.7461
192.6650,29.7700
192.6650,30.5200
192.6602,30.5439
192.6467,30.5642
192.6264,30.5777
192.6025,30.5825
192.4775,30.5825
192.4536,30.5777
192.4333,30.5642
192.4198,30.5439
192.4150,30.5200
Z" /> 
<path style="fill:#000000; fill-opacity:1.0000; 
stroke:#000000; stroke-width:0.0000; stroke-opacity:1; 
stroke-linecap:round; stroke-linejoin:round;fill-rule:evenodd;"
d="M 191.9150,29.7700
191.9198,29.7461
191.9333,29.7258
191.9536,29.7123
191.9775,29.7075
192.1025,29.7075
192.1264,29.7123
192.1467,29.7258
192.1602,29.7461
192.1650,29.7700
192.1650,30.5200
192.1602,30.5439
192.1467,30.5642
192.1264,30.5777
192.1025,30.5825
191.9775,30.5825
191.9536,30.5777
191.9333,30.5642
191.9198,30.5439
191.9150,30.5200
Z" /> 
<path style="fill:#000000; fill-opacity:1.0000; 
stroke:#000000; stroke-width:0.0000; stroke-opacity:1; 
stroke-linecap:round; stroke-linejoin:round;fill-rule:evenodd;"
d="M 191.4150,29.7700
191.4198,29.7461
191.4333,29.7258
191.4536,29.7123
191.4775,29.7075
191.6025,29.7075
191.6264,29.7123
191.6467,29.7258
191.6602,29.7461
191.6650,29.7700
191.6650,30.5200
191.6602,30.5439
191.6467,30.5642
191.6264,30.5777
191.6025,30.5825
191.4775,30.5825
191.4536,30.5777
191.4333,30.5642
191.4198,30.5439
191.4150,30.5200
Z" /> 
</g>
<g >
</g>
<g >
</g>
<g >
</g>
</g> 
</svg>
