<?xml version="1.0" standalone="no"?>
 <!DOCTYPE svg PUBLIC "-//W3C//DTD SVG 1.1//EN" 
 "http://www.w3.org/Graphics/SVG/1.1/DTD/svg11.dtd"> 
<svg
  xmlns:svg="http://www.w3.org/2000/svg"
  xmlns="http://www.w3.org/2000/svg"
  xmlns:xlink="http://www.w3.org/1999/xlink"
  version="1.1"
  width="155.0670mm" height="116.2812mm" viewBox="0.0000 0.0000 155.0670 116.2812">
<title>SVG Image created as nightliner-User_Drawings.svg date 2023/10/28 20:36:01 </title>
  <desc>Image generated by PCBNEW </desc>
<g style="fill:#000000; fill-opacity:1.0000;stroke:#000000; stroke-opacity:1.0000;
stroke-linecap:round; stroke-linejoin:round;"
 transform="translate(0 0) scale(1 1)">
</g>
<g style="fill:#000000; fill-opacity:0.0; 
stroke:#000000; stroke-width:0.0000; stroke-opacity:1; 
stroke-linecap:round; stroke-linejoin:round;">
</g>
<g style="fill:#000000; fill-opacity:0.0; 
stroke:#000000; stroke-width:0.2000; stroke-opacity:1; 
stroke-linecap:round; stroke-linejoin:round;">
<path d="M38.7111 18.0285
L40.1608 31.8214
" />
<path d="M3.1150 48.2252
L20.8598 45.0963
" />
<path d="M57.8998 4.6740
L58.5486 13.9347
" />
<path d="M49.4276 96.5673
L11.4644 96.5754
" />
<path d="M81.4263 10.9083
L99.6922 10.2502
" />
<path d="M79.7491 71.7088 A1.0000 1.0000 0.0 0 0 78.6351 70.8415" />
<path d="M83.1641 99.0640
L79.7491 71.7088
" />
<path d="M151.3394 97.5773 A0.9739 0.9739 0.0 0 0 151.2036 96.0812" />
<path d="M21.4844 35.4208 A1.0000 1.0000 0.0 0 0 20.6333 36.5502" />
<path d="M3.1150 48.2252 A1.0000 1.0000 0.0 0 0 2.3039 49.3836" />
<path d="M121.2169 76.5498 A1.0000 1.0000 0.0 0 0 121.9193 77.5045" />
<path d="M122.3940 100.8894
L136.9830 113.1285
" />
<path d="M104.6140 96.4085
L122.3940 100.8894
" />
<path d="M121.9193 77.5045
L132.8110 80.9003
" />
<path d="M100.7265 11.2147 A1.0000 1.0000 0.0 0 0 99.6922 10.2502" />
<path d="M79.8462 3.1393
L80.3315 10.0530
" />
<path d="M39.6011 16.9294
L57.6932 15.0295
" />
<path d="M100.8684 15.2855 A1.0017 1.0017 0.0 0 0 101.8997 16.3105" />
<path d="M2.3039 49.3836
L10.4793 95.7491
" />
<path d="M83.1642 99.0640 A1.0115 1.0115 0.0 0 0 84.3281 99.8858" />
<path d="M21.4844 35.4208
L39.3054 32.9162
" />
<path d="M79.8462 3.1393 A1.0000 1.0000 0.0 0 0 78.7789 2.2115" />
<path d="M49.4276 96.5673 A0.9999 0.9999 0.0 0 0 50.4199 95.4455" />
<path d="M145.2041 91.0468
L151.2036 96.0812
" />
<path d="M39.6011 16.9294 A1.0000 1.0000 0.0 0 0 38.7111 18.0285" />
<path d="M101.8997 16.3105
L120.2170 16.2855
" />
<path d="M58.8276 3.6066
L78.7789 2.2115
" />
<path d="M47.9847 75.6124
L50.4199 95.4455
" />
<path d="M145.1984 91.0420 A1.0163 1.0163 0.0 0 0 145.2041 91.0467" />
<path d="M84.3281 99.8858
L104.6140 96.4085
" />
<path d="M10.4794 95.7491 A1.0000 1.0000 0.0 0 0 11.4644 96.5754" />
<path d="M133.1504 81.0841 A0.9997 0.9997 0.0 0 0 132.8110 80.9003" />
<path d="M20.6333 36.5502
L21.6765 43.9723
" />
<path d="M48.8554 74.4980 A1.0001 1.0001 0.0 0 0 47.9847 75.6124" />
<path d="M57.6932 15.0295 A0.9999 0.9999 0.0 0 0 58.5486 13.9347" />
<path d="M80.3314 10.0530 A0.9999 0.9999 0.0 0 0 81.4263 10.9083" />
<path d="M78.6351 70.8415
L48.8554 74.4980
" />
<path d="M58.8276 3.6066 A0.9999 0.9999 0.0 0 0 57.8998 4.6740" />
<path d="M121.2169 17.2855 A1.0000 1.0000 0.0 0 0 120.2170 16.2855" />
<path d="M20.8598 45.0962 A0.9999 0.9999 0.0 0 0 21.6765 43.9723" />
<path d="M133.1504 81.0841
L145.1984 91.0420
" />
<path d="M100.7614 12.2141
L100.7265 11.2147
" />
<path d="M136.9831 113.1285 A1.0000 1.0000 0.0 0 0 138.3919 113.0053" />
<path d="M39.3054 32.9162 A0.9999 0.9999 0.0 0 0 40.1608 31.8214" />
<path d="M121.2170 76.5498
L121.2170 17.2855
" />
<path d="M138.3919 113.0053
L151.3395 97.5773
" />
<path d="M100.8683 15.2855
L100.7614 12.2141
" />
</g>
<g style="fill:#000000; fill-opacity:0.0; 
stroke:#000000; stroke-width:0.1500; stroke-opacity:1; 
stroke-linecap:round; stroke-linejoin:round;">
<path d="M27.8748 72.1450
L25.7872 57.2909
" />
<path d="M26.6383 56.1615
L42.4826 53.9347
" />
<path d="M44.8486 70.7693
L29.0043 72.9961
" />
<path d="M43.6121 54.7858
L45.6997 69.6398
" />
<path d="M39.0890 69.3066
L34.1376 70.0025
" />
<path d="M34.1376 70.0025
L33.7062 66.9327
" />
<path d="M33.7062 66.9327
L38.6575 66.2368
" />
<path d="M38.6575 66.2368
L39.0890 69.3066
" />
<path d="M26.6383 56.1615 A1.0000 1.0000 0.0 0 0 25.7872 57.2909" />
<path d="M27.8748 72.1450 A1.0000 1.0000 0.0 0 0 29.0043 72.9961" />
<path d="M43.6121 54.7858 A1.0000 1.0000 0.0 0 0 42.4826 53.9347" />
<path d="M44.8486 70.7693 A1.0000 1.0000 0.0 0 0 45.6997 69.6399" />
<path d="M42.8184 35.7445
L41.2505 20.8267
" />
<path d="M42.1405 19.7276
L58.0528 18.0552
" />
<path d="M59.8298 34.9620
L43.9174 36.6345
" />
<path d="M59.1519 18.9451
L60.7198 33.8630
" />
<path d="M54.1247 33.2993
L49.1521 33.8219
" />
<path d="M49.1521 33.8219
L48.8281 30.7389
" />
<path d="M48.8281 30.7389
L53.8007 30.2162
" />
<path d="M53.8007 30.2162
L54.1247 33.2993
" />
<path d="M42.1405 19.7276 A1.0000 1.0000 0.0 0 0 41.2505 20.8267" />
<path d="M42.8184 35.7445 A1.0000 1.0000 0.0 0 0 43.9174 36.6345" />
<path d="M59.1519 18.9451 A1.0000 1.0000 0.0 0 0 58.0528 18.0552" />
<path d="M59.8298 34.9620 A1.0000 1.0000 0.0 0 0 60.7198 33.8630" />
<path d="M61.4012 22.5131
L60.3549 7.5496
" />
<path d="M61.2827 6.4823
L77.2437 5.3662
" />
<path d="M78.4295 22.3248
L62.4685 23.4409
" />
<path d="M78.3110 6.2940
L79.3574 21.2575
" />
<path d="M72.7860 20.4639
L67.7982 20.8127
" />
<path d="M67.7982 20.8127
L67.5819 17.7203
" />
<path d="M67.5819 17.7203
L72.5697 17.3715
" />
<path d="M72.5697 17.3715
L72.7860 20.4639
" />
<path d="M61.2827 6.4823 A1.0000 1.0000 0.0 0 0 60.3549 7.5496" />
<path d="M61.4012 22.5131 A1.0000 1.0000 0.0 0 0 62.4685 23.4409" />
<path d="M78.3110 6.2940 A1.0000 1.0000 0.0 0 0 77.2437 5.3662" />
<path d="M78.4295 22.3248 A1.0000 1.0000 0.0 0 0 79.3574 21.2575" />
<path d="M7.6082 66.7905
L5.0035 52.0183
" />
<path d="M5.8147 50.8599
L21.5716 48.0815
" />
<path d="M24.5236 64.8232
L8.7667 67.6016
" />
<path d="M22.7301 48.8927
L25.3348 63.6648
" />
<path d="M18.7165 63.5625
L13.7924 64.4307
" />
<path d="M13.7924 64.4307
L13.2541 61.3778
" />
<path d="M13.2541 61.3778
L18.1782 60.5096
" />
<path d="M18.1782 60.5096
L18.7165 63.5625
" />
<path d="M5.8147 50.8599 A1.0000 1.0000 0.0 0 0 5.0035 52.0183" />
<path d="M7.6082 66.7905 A1.0000 1.0000 0.0 0 0 8.7667 67.6016" />
<path d="M22.7301 48.8927 A1.0000 1.0000 0.0 0 0 21.5716 48.0815" />
<path d="M24.5236 64.8232 A1.0000 1.0000 0.0 0 0 25.3348 63.6648" />
<path d="M125.0208 98.5793
L134.6626 87.0886
" />
<path d="M136.0714 86.9654
L148.3281 97.2500
" />
<path d="M137.4007 110.2727
L125.1440 99.9881
" />
<path d="M148.4514 98.6588
L138.8096 110.1495
" />
<path d="M134.6338 105.0138
L130.8036 101.7999
" />
<path d="M130.8036 101.7999
L132.7962 99.4251
" />
<path d="M132.7962 99.4251
L136.6264 102.6391
" />
<path d="M136.6264 102.6391
L134.6338 105.0138
" />
<path d="M136.0714 86.9654 A1.0000 1.0000 0.0 0 0 134.6626 87.0886" />
<path d="M125.0208 98.5793 A1.0000 1.0000 0.0 0 0 125.1440 99.9881" />
<path d="M148.4514 98.6588 A1.0000 1.0000 0.0 0 0 148.3281 97.2500" />
<path d="M137.4008 110.2727 A1.0000 1.0000 0.0 0 0 138.8096 110.1495" />
<path d="M101.4955 35.3070
L101.4955 20.3070
" />
<path d="M102.4955 19.3070
L118.4955 19.3070
" />
<path d="M118.4955 36.3070
L102.4955 36.3070
" />
<path d="M119.4955 20.3070
L119.4955 35.3070
" />
<path d="M112.9955 34.0570
L107.9955 34.0570
" />
<path d="M107.9955 34.0570
L107.9955 30.9570
" />
<path d="M107.9955 30.9570
L112.9955 30.9570
" />
<path d="M112.9955 30.9570
L112.9955 34.0570
" />
<path d="M102.4955 19.3070 A1.0000 1.0000 0.0 0 0 101.4955 20.3070" />
<path d="M101.4955 35.3070 A1.0000 1.0000 0.0 0 0 102.4955 36.3070" />
<path d="M119.4955 20.3070 A1.0000 1.0000 0.0 0 0 118.4955 19.3070" />
<path d="M118.4955 36.3070 A1.0000 1.0000 0.0 0 0 119.4955 35.3070" />
<path d="M105.2811 93.1349
L109.1634 78.6460
" />
<path d="M110.3881 77.9389
L125.8429 82.0800
" />
<path d="M121.4430 98.5007
L105.9882 94.3596
" />
<path d="M126.5501 83.3047
L122.6678 97.7936
" />
<path d="M116.7128 94.9039
L111.8831 93.6098
" />
<path d="M111.8831 93.6098
L112.6855 90.6154
" />
<path d="M112.6855 90.6154
L117.5151 91.9095
" />
<path d="M117.5151 91.9095
L116.7128 94.9039
" />
<path d="M110.3881 77.9389 A1.0000 1.0000 0.0 0 0 109.1634 78.6460" />
<path d="M105.2811 93.1349 A1.0000 1.0000 0.0 0 0 105.9882 94.3596" />
<path d="M126.5501 83.3047 A1.0000 1.0000 0.0 0 0 125.8429 82.0800" />
<path d="M121.4430 98.5007 A1.0000 1.0000 0.0 0 0 122.6678 97.7936" />
<path d="M101.4955 53.5070
L101.4955 38.5070
" />
<path d="M102.4955 37.5070
L118.4955 37.5070
" />
<path d="M118.4955 54.5070
L102.4955 54.5070
" />
<path d="M119.4955 38.5070
L119.4955 53.5070
" />
<path d="M112.9955 52.2570
L107.9955 52.2570
" />
<path d="M107.9955 52.2570
L107.9955 49.1570
" />
<path d="M107.9955 49.1570
L112.9955 49.1570
" />
<path d="M112.9955 49.1570
L112.9955 52.2570
" />
<path d="M102.4955 37.5070 A1.0000 1.0000 0.0 0 0 101.4955 38.5070" />
<path d="M101.4955 53.5070 A1.0000 1.0000 0.0 0 0 102.4955 54.5070" />
<path d="M119.4955 38.5070 A1.0000 1.0000 0.0 0 0 118.4955 37.5070" />
<path d="M118.4955 54.5070 A1.0000 1.0000 0.0 0 0 119.4955 53.5070" />
<path d="M46.6232 71.9451
L45.0553 57.0273
" />
<path d="M45.9453 55.9282
L61.8576 54.2558
" />
<path d="M63.6346 71.1626
L47.7223 72.8351
" />
<path d="M62.9567 55.1457
L64.5246 70.0636
" />
<path d="M57.9296 69.4999
L52.9570 70.0225
" />
<path d="M52.9570 70.0225
L52.6329 66.9395
" />
<path d="M52.6329 66.9395
L57.6055 66.4168
" />
<path d="M57.6055 66.4168
L57.9296 69.4999
" />
<path d="M45.9453 55.9282 A1.0000 1.0000 0.0 0 0 45.0553 57.0273" />
<path d="M46.6232 71.9451 A1.0000 1.0000 0.0 0 0 47.7223 72.8351" />
<path d="M62.9567 55.1457 A1.0000 1.0000 0.0 0 0 61.8576 54.2558" />
<path d="M63.6346 71.1626 A1.0000 1.0000 0.0 0 0 64.5246 70.0636" />
<path d="M82.2667 48.1124
L81.7432 33.1215
" />
<path d="M82.7077 32.0872
L98.6979 31.5288
" />
<path d="M99.2912 48.5185
L83.3009 49.0769
" />
<path d="M99.7322 32.4933
L100.2557 47.4842
" />
<path d="M93.7160 46.4618
L88.7191 46.6363
" />
<path d="M88.7191 46.6363
L88.6109 43.5382
" />
<path d="M88.6109 43.5382
L93.6078 43.3637
" />
<path d="M93.6078 43.3637
L93.7160 46.4618
" />
<path d="M82.7077 32.0872 A1.0000 1.0000 0.0 0 0 81.7432 33.1215" />
<path d="M82.2667 48.1124 A1.0000 1.0000 0.0 0 0 83.3009 49.0769" />
<path d="M99.7322 32.4933 A1.0000 1.0000 0.0 0 0 98.6979 31.5288" />
<path d="M99.2912 48.5185 A1.0000 1.0000 0.0 0 0 100.2557 47.4842" />
<path d="M25.3419 54.1221
L23.2543 39.2681
" />
<path d="M24.1054 38.1386
L39.9497 35.9119
" />
<path d="M42.3156 52.7464
L26.4713 54.9732
" />
<path d="M41.0791 36.7629
L43.1667 51.6170
" />
<path d="M36.5560 51.2838
L31.6047 51.9796
" />
<path d="M31.6047 51.9796
L31.1732 48.9098
" />
<path d="M31.1732 48.9098
L36.1246 48.2139
" />
<path d="M36.1246 48.2139
L36.5560 51.2838
" />
<path d="M24.1054 38.1386 A1.0000 1.0000 0.0 0 0 23.2543 39.2681" />
<path d="M25.3419 54.1221 A1.0000 1.0000 0.0 0 0 26.4713 54.9732" />
<path d="M41.0791 36.7630 A1.0000 1.0000 0.0 0 0 39.9497 35.9119" />
<path d="M42.3156 52.7464 A1.0000 1.0000 0.0 0 0 43.1667 51.6170" />
<path d="M101.4955 71.7070
L101.4955 56.7070
" />
<path d="M102.4955 55.7070
L118.4955 55.7070
" />
<path d="M118.4955 72.7070
L102.4955 72.7070
" />
<path d="M119.4955 56.7070
L119.4955 71.7070
" />
<path d="M112.9955 70.4570
L107.9955 70.4570
" />
<path d="M107.9955 70.4570
L107.9955 67.3570
" />
<path d="M107.9955 67.3570
L112.9955 67.3570
" />
<path d="M112.9955 67.3570
L112.9955 70.4570
" />
<path d="M102.4955 55.7070 A1.0000 1.0000 0.0 0 0 101.4955 56.7070" />
<path d="M101.4955 71.7070 A1.0000 1.0000 0.0 0 0 102.4955 72.7070" />
<path d="M119.4955 56.7070 A1.0000 1.0000 0.0 0 0 118.4955 55.7070" />
<path d="M118.4955 72.7070 A1.0000 1.0000 0.0 0 0 119.4955 71.7070" />
<path d="M62.6708 40.6687
L61.6244 25.7053
" />
<path d="M62.5522 24.6380
L78.5133 23.5219
" />
<path d="M79.6991 40.4805
L63.7381 41.5966
" />
<path d="M79.5806 24.4497
L80.6269 39.4131
" />
<path d="M74.0556 38.6196
L69.0677 38.9684
" />
<path d="M69.0677 38.9684
L68.8515 35.8759
" />
<path d="M68.8515 35.8759
L73.8393 35.5271
" />
<path d="M73.8393 35.5271
L74.0556 38.6196
" />
<path d="M62.5522 24.6380 A1.0000 1.0000 0.0 0 0 61.6244 25.7053" />
<path d="M62.6708 40.6687 A1.0000 1.0000 0.0 0 0 63.7381 41.5966" />
<path d="M79.5806 24.4497 A1.0000 1.0000 0.0 0 0 78.5133 23.5219" />
<path d="M79.6991 40.4805 A1.0000 1.0000 0.0 0 0 80.6269 39.4131" />
<path d="M30.4078 90.1678
L28.3202 75.3138
" />
<path d="M29.1713 74.1844
L45.0156 71.9576
" />
<path d="M47.3815 88.7922
L31.5372 91.0189
" />
<path d="M46.1450 72.8087
L48.2326 87.6627
" />
<path d="M41.6219 87.3295
L36.6706 88.0254
" />
<path d="M36.6706 88.0254
L36.2391 84.9556
" />
<path d="M36.2391 84.9556
L41.1905 84.2597
" />
<path d="M41.1905 84.2597
L41.6219 87.3295
" />
<path d="M29.1713 74.1844 A1.0000 1.0000 0.0 0 0 28.3202 75.3138" />
<path d="M30.4078 90.1678 A1.0000 1.0000 0.0 0 0 31.5372 91.0189" />
<path d="M46.1450 72.8087 A1.0000 1.0000 0.0 0 0 45.0156 71.9576" />
<path d="M47.3815 88.7922 A1.0000 1.0000 0.0 0 0 48.2326 87.6627" />
<path d="M81.6315 29.9235
L81.1080 14.9326
" />
<path d="M82.0725 13.8983
L98.0627 13.3399
" />
<path d="M98.6560 30.3295
L82.6658 30.8879
" />
<path d="M99.0970 14.3044
L99.6205 29.2953
" />
<path d="M93.0809 28.2729
L88.0839 28.4474
" />
<path d="M88.0839 28.4474
L87.9757 25.3493
" />
<path d="M87.9757 25.3493
L92.9727 25.1748
" />
<path d="M92.9727 25.1748
L93.0809 28.2729
" />
<path d="M82.0725 13.8983 A1.0000 1.0000 0.0 0 0 81.1080 14.9326" />
<path d="M81.6315 29.9235 A1.0000 1.0000 0.0 0 0 82.6658 30.8879" />
<path d="M99.0970 14.3044 A1.0000 1.0000 0.0 0 0 98.0627 13.3399" />
<path d="M98.6560 30.3295 A1.0000 1.0000 0.0 0 0 99.6205 29.2953" />
<path d="M63.9403 58.8244
L62.8940 43.8610
" />
<path d="M63.8218 42.7936
L79.7828 41.6775
" />
<path d="M80.9687 58.6361
L65.0077 59.7522
" />
<path d="M80.8501 42.6053
L81.8965 57.5688
" />
<path d="M75.3251 56.7753
L70.3373 57.1240
" />
<path d="M70.3373 57.1240
L70.1211 54.0316
" />
<path d="M70.1211 54.0316
L75.1089 53.6828
" />
<path d="M75.1089 53.6828
L75.3251 56.7753
" />
<path d="M63.8218 42.7936 A1.0000 1.0000 0.0 0 0 62.8940 43.8610" />
<path d="M63.9403 58.8244 A1.0000 1.0000 0.0 0 0 65.0077 59.7522" />
<path d="M80.8501 42.6053 A1.0000 1.0000 0.0 0 0 79.7828 41.6775" />
<path d="M80.9687 58.6361 A1.0000 1.0000 0.0 0 0 81.8965 57.5688" />
<path d="M10.7686 84.7140
L8.1639 69.9418
" />
<path d="M8.9751 68.7834
L24.7320 66.0050
" />
<path d="M27.6840 82.7467
L11.9271 85.5251
" />
<path d="M25.8905 66.8162
L28.4952 81.5883
" />
<path d="M21.8769 81.4860
L16.9528 82.3542
" />
<path d="M16.9528 82.3542
L16.4145 79.3013
" />
<path d="M16.4145 79.3013
L21.3386 78.4331
" />
<path d="M21.3386 78.4331
L21.8769 81.4860
" />
<path d="M8.9751 68.7834 A1.0000 1.0000 0.0 0 0 8.1639 69.9418" />
<path d="M10.7686 84.7140 A1.0000 1.0000 0.0 0 0 11.9271 85.5251" />
<path d="M25.8905 66.8162 A1.0000 1.0000 0.0 0 0 24.7320 66.0050" />
<path d="M27.6840 82.7467 A1.0000 1.0000 0.0 0 0 28.4952 81.5883" />
<path d="M44.7208 53.8448
L43.1529 38.9270
" />
<path d="M44.0429 37.8279
L59.9552 36.1555
" />
<path d="M61.7322 53.0623
L45.8199 54.7348
" />
<path d="M61.0543 37.0454
L62.6222 51.9633
" />
<path d="M56.0271 51.3996
L51.0545 51.9222
" />
<path d="M51.0545 51.9222
L50.7305 48.8392
" />
<path d="M50.7305 48.8392
L55.7031 48.3165
" />
<path d="M55.7031 48.3165
L56.0271 51.3996
" />
<path d="M44.0429 37.8279 A1.0000 1.0000 0.0 0 0 43.1529 38.9270" />
<path d="M44.7208 53.8448 A1.0000 1.0000 0.0 0 0 45.8199 54.7348" />
<path d="M61.0543 37.0454 A1.0000 1.0000 0.0 0 0 59.9552 36.1555" />
<path d="M61.7322 53.0623 A1.0000 1.0000 0.0 0 0 62.6222 51.9633" />
<path d="M82.9018 66.3013
L82.3783 51.3104
" />
<path d="M83.3428 50.2761
L99.3331 49.7177
" />
<path d="M99.9264 66.7074
L83.9361 67.2658
" />
<path d="M100.3674 50.6822
L100.8909 65.6731
" />
<path d="M94.3512 64.6507
L89.3542 64.8252
" />
<path d="M89.3542 64.8252
L89.2461 61.7271
" />
<path d="M89.2461 61.7271
L94.2430 61.5526
" />
<path d="M94.2430 61.5526
L94.3512 64.6507
" />
<path d="M83.3428 50.2761 A1.0000 1.0000 0.0 0 0 82.3783 51.3104" />
<path d="M82.9018 66.3013 A1.0000 1.0000 0.0 0 0 83.9361 67.2658" />
<path d="M100.3674 50.6822 A1.0000 1.0000 0.0 0 0 99.3331 49.7177" />
<path d="M99.9264 66.7074 A1.0000 1.0000 0.0 0 0 100.8909 65.6731" />
<path d="M85.0900 96.5429
L82.4852 81.7708
" />
<path d="M83.2964 80.6123
L99.0533 77.8340
" />
<path d="M102.0053 94.5757
L86.2484 97.3541
" />
<path d="M100.2118 78.6451
L102.8165 93.4172
" />
<path d="M96.1982 93.3149
L91.2741 94.1832
" />
<path d="M91.2741 94.1832
L90.7358 91.1303
" />
<path d="M90.7358 91.1303
L95.6599 90.2620
" />
<path d="M95.6599 90.2620
L96.1982 93.3149
" />
<path d="M83.2964 80.6123 A1.0000 1.0000 0.0 0 0 82.4852 81.7708" />
<path d="M85.0900 96.5429 A1.0000 1.0000 0.0 0 0 86.2484 97.3541" />
<path d="M100.2118 78.6451 A1.0000 1.0000 0.0 0 0 99.0533 77.8340" />
<path d="M102.0053 94.5757 A1.0000 1.0000 0.0 0 0 102.8165 93.4172" />
<g >
</g>
<g >
</g>
<g >
</g>
<g >
</g>
<g >
</g>
<g >
</g>
<g >
</g>
<g >
</g>
<g >
</g>
<g >
</g>
<g >
</g>
<g >
</g>
<g >
</g>
<g >
</g>
<g >
</g>
<g >
</g>
<g >
</g>
<g >
</g>
<g >
</g>
<g >
</g>
<g >
</g>
<g >
</g>
<g >
</g>
<g >
</g>
<g >
</g>
<g >
</g>
<g >
</g>
<g >
</g>
<g >
</g>
<g >
</g>
<g >
</g>
<g >
</g>
<g >
</g>
<g >
</g>
<g >
</g>
<g >
</g>
<g >
</g>
<g >
</g>
<g >
</g>
<g >
</g>
<g >
</g>
<g >
</g>
<g >
</g>
<g >
</g>
<g >
</g>
<g >
</g>
<g >
</g>
<g >
</g>
<g >
</g>
<g >
</g>
<g >
</g>
<g >
</g>
<g >
</g>
<g >
</g>
<g >
</g>
<g >
</g>
<g >
</g>
<g >
</g>
<g >
</g>
<g >
</g>
<g >
</g>
<g >
</g>
<g >
</g>
<g >
</g>
<g >
</g>
<g >
</g>
<g >
</g>
<g >
</g>
<g >
</g>
<g >
</g>
<g >
</g>
<g >
</g>
<g >
</g>
<g >
</g>
<g >
</g>
<g >
</g>
<g >
</g>
<g >
</g>
<g >
</g>
<g >
</g>
<g >
</g>
<g >
</g>
<g >
</g>
<g >
</g>
<g >
</g>
<g >
</g>
<g >
</g>
<g >
</g>
<g >
</g>
<g >
</g>
<g >
</g>
<g >
</g>
<g >
</g>
<g >
</g>
<g >
</g>
</g>
<g style="fill:#000000; fill-opacity:0.0; 
stroke:#000000; stroke-width:0.1500; stroke-opacity:1; 
stroke-linecap:round; stroke-linejoin:round;">
</g>
<g style="fill:#000000; fill-opacity:0.0; 
stroke:#000000; stroke-width:0.2000; stroke-opacity:1; 
stroke-linecap:round; stroke-linejoin:round;">
<path d="M56.8212 1.7765 A1.0001 1.0001 0.0 0 0 55.8934 2.8439" />
<path d="M0.9264 46.6284
L18.7388 43.4876
" />
<path d="M55.8934 2.8439
L56.5481 12.2058
" />
<path d="M153.9852 69.9111
L152.9852 69.9111
" />
<path d="M83.3443 8.8499
L101.7494 8.2072
" />
<path d="M121.7112 102.9471
L137.3578 115.9718
" />
<path d="M18.5027 34.8736
L19.5554 42.3636
" />
<path d="M37.5312 15.1750
L55.6550 13.2701
" />
<path d="M0.9264 46.6284 A1.0000 1.0000 0.0 0 0 0.1152 47.7869" />
<path d="M154.9853 86.7111 A1.0000 1.0000 0.0 0 0 153.9852 85.7111" />
<path d="M82.3119 7.9203 A0.9999 0.9999 0.0 0 0 83.3443 8.8499" />
<path d="M0.1152 47.7869
L8.5806 95.7968
" />
<path d="M48.8428 74.5592 A1.0000 1.0000 0.0 0 0 47.9721 75.6736" />
<path d="M81.8301 1.0302
L82.3119 7.9203
" />
<path d="M47.9721 75.6736
L50.4558 95.4473
" />
<path d="M82.2074 91.3445
L79.7365 71.7701
" />
<path d="M102.9295 13.3460 A1.0001 1.0001 0.0 0 0 103.9289 14.3111" />
<path d="M19.3538 33.7441
L37.2427 31.2300
" />
<path d="M104.3724 98.3333
L121.7112 102.9471
" />
<path d="M37.2427 31.2300 A0.9999 0.9999 0.0 0 0 38.0981 30.1352" />
<path d="M81.8301 1.0302 A1.0000 1.0000 0.0 0 0 80.7628 0.1024" />
<path d="M51.3738 96.0986
L81.2995 92.6298
" />
<path d="M79.7365 71.7701 A1.0000 1.0000 0.0 0 0 78.6225 70.9027" />
<path d="M80.1479 96.6105
L9.5658 96.6232
" />
<path d="M81.0912 97.4264
L81.7992 101.3717
" />
<path d="M138.7666 115.8485
L154.6359 96.9863
" />
<path d="M152.9852 85.7111
L153.9852 85.7111
" />
<path d="M137.3578 115.9718 A1.0000 1.0000 0.0 0 0 138.7666 115.8485" />
<path d="M102.7837 9.1717
L102.9295 13.3460
" />
<path d="M50.4558 95.4473 A0.8258 0.8258 0.0 0 0 51.3738 96.0986" />
<path d="M37.5312 15.1750 A1.0001 1.0001 0.0 0 0 36.6412 16.2740" />
<path d="M56.8212 1.7766
L80.7628 0.1024
" />
<path d="M18.7387 43.4875 A1.0000 1.0000 0.0 0 0 19.5554 42.3636" />
<path d="M19.3538 33.7442 A1.0000 1.0000 0.0 0 0 18.5027 34.8736" />
<path d="M82.9577 102.1828
L104.3724 98.3333
" />
<path d="M36.6412 16.2740
L38.0981 30.1352
" />
<path d="M151.9853 84.7111 A1.0000 1.0000 0.0 0 0 152.9852 85.7111" />
<path d="M154.9853 15.3111 A1.0000 1.0000 0.0 0 0 153.9852 14.3111" />
<path d="M151.9852 70.9111
L151.9852 84.7111
" />
<path d="M102.7837 9.1717 A1.0000 1.0000 0.0 0 0 101.7494 8.2072" />
<path d="M103.9289 14.3111
L153.9852 14.3111
" />
<path d="M78.6225 70.9027
L48.8428 74.5592
" />
<path d="M152.9852 69.9111 A0.9999 0.9999 0.0 0 0 151.9852 70.9111" />
<path d="M81.2995 92.6298 A1.0417 1.0417 0.0 0 0 82.2074 91.3445" />
<path d="M154.9852 15.3111
L154.9852 68.9111
" />
<path d="M81.0912 97.4264 A0.9879 0.9879 0.0 0 0 80.1479 96.6105" />
<path d="M8.5806 95.7968 A1.0000 1.0000 0.0 0 0 9.5658 96.6232" />
<path d="M81.7992 101.3717 A1.0000 1.0000 0.0 0 0 82.9577 102.1828" />
<path d="M55.6550 13.2701 A1.0001 1.0001 0.0 0 0 56.5481 12.2058" />
<path d="M153.9852 69.9111 A1.0000 1.0000 0.0 0 0 154.9852 68.9111" />
<path d="M154.6359 96.9864 A1.4081 1.4081 0.0 0 0 154.9863 96.0330" />
<path d="M154.9852 86.7111
L154.9863 96.0330
" />
<g >
</g>
<g >
</g>
<g >
</g>
<g >
</g>
<g >
</g>
<g >
</g>
<g >
</g>
<g >
</g>
<g >
</g>
<g >
</g>
<g >
</g>
<g >
</g>
<g >
</g>
<g >
</g>
<g >
</g>
<g >
</g>
<g >
</g>
<g >
</g>
<g >
</g>
<g >
</g>
<g >
</g>
<g >
</g>
<g >
</g>
<g >
</g>
<g >
</g>
<g >
</g>
<g >
</g>
<g >
</g>
<g >
</g>
<g >
</g>
<g >
</g>
<g >
</g>
<g >
</g>
<g >
</g>
<g >
</g>
<g >
</g>
<g >
</g>
<g >
</g>
<g >
</g>
<g >
</g>
<g >
</g>
<g >
</g>
<g >
</g>
<g >
</g>
<g >
</g>
<g >
</g>
<g >
</g>
<g >
</g>
<g >
</g>
<g >
</g>
<g >
</g>
<g >
</g>
<g >
</g>
<g >
</g>
<g >
</g>
<g >
</g>
<g >
</g>
<g >
</g>
<g >
</g>
<g >
</g>
<g >
</g>
<g >
</g>
<g >
</g>
<g >
</g>
<g >
</g>
<g >
</g>
<g >
</g>
<g >
</g>
<g >
</g>
<g >
</g>
<g >
</g>
<g >
</g>
<g >
</g>
<g >
</g>
<g >
</g>
<g >
</g>
<g >
</g>
<g >
</g>
<g >
</g>
<g >
</g>
<g >
</g>
<g >
</g>
<g >
</g>
<g >
</g>
<g >
</g>
<g >
</g>
<g >
</g>
<g >
</g>
<g >
</g>
<g >
</g>
<g >
</g>
<g >
</g>
<g >
</g>
<g >
</g>
<g >
</g>
</g> 
</svg>
