0
SECTION
2
HEADER
9
$INSUNITS
70
4
0
ENDSEC
0
SECTION
2
TABLES
0
TABLE
2
LTYPE
0
LTYPE
72
65
70
64
2
CONTINUOUS
3
______
73
0
40
0
0
ENDTAB
0
TABLE
2
LAYER
0
ENDTAB
0
ENDSEC
0
SECTION
2
ENTITIES
0
LINE
8
0
10
-9.7421248
20
8.9808688
11
7.6620084
21
10.8101169
0
LINE
8
0
10
7.6620084
20
10.8101169
11
5.9372888
21
27.2197282
0
LINE
8
0
10
5.9372888
20
27.2197282
11
-11.4668444
21
25.3904801
0
LINE
8
0
10
-11.4668444
20
25.3904801
11
-9.7421248
21
8.9808688
0
LINE
8
0
10
-11.6445428
20
27.0811673
11
5.7595904
21
28.9104154
0
LINE
8
0
10
5.7595904
20
28.9104154
11
4.0348708
21
45.3200267
0
LINE
8
0
10
4.0348708
20
45.3200267
11
-13.3692624
21
43.4907786
0
LINE
8
0
10
-13.3692624
20
43.4907786
11
-11.6445428
21
27.0811673
0
LINE
8
0
10
9.4434298
20
2.1593325
11
26.9008006
21
3.3800708
0
LINE
8
0
10
26.9008006
20
3.3800708
11
25.7498188
21
19.8398777
0
LINE
8
0
10
25.7498188
20
19.8398777
11
8.292448
21
18.6191394
0
LINE
8
0
10
8.292448
20
18.6191394
11
9.4434298
21
2.1593325
0
LINE
8
0
10
8.173862
20
20.3149982
11
25.6312328
21
21.5357365
0
LINE
8
0
10
25.6312328
20
21.5357365
11
24.480251
21
37.9955434
0
LINE
8
0
10
24.480251
20
37.9955434
11
7.0228802
21
36.7748051
0
LINE
8
0
10
7.0228802
20
36.7748051
11
8.173862
21
20.3149982
0
LINE
8
0
10
6.9042942
20
38.4706639
11
24.361665
21
39.6914022
0
LINE
8
0
10
24.361665
20
39.6914022
11
23.2106832
21
56.1512091
0
LINE
8
0
10
23.2106832
20
56.1512091
11
5.7533124
21
54.9304708
0
LINE
8
0
10
5.7533124
20
54.9304708
11
6.9042942
21
38.4706639
0
LINE
8
0
10
26.8648251
20
19.1964855
11
44.3541646
21
19.8072267
0
LINE
8
0
10
44.3541646
20
19.8072267
11
43.7783229
21
36.2971753
0
LINE
8
0
10
43.7783229
20
36.2971753
11
26.2889834
21
35.6864341
0
LINE
8
0
10
26.2889834
20
35.6864341
11
26.8648251
21
19.1964855
0
LINE
8
0
10
26.2296543
20
37.3853986
11
43.7189938
21
37.9961398
0
LINE
8
0
10
43.7189938
20
37.9961398
11
43.1431521
21
54.4860884
0
LINE
8
0
10
43.1431521
20
54.4860884
11
25.6538126
21
53.8753472
0
LINE
8
0
10
25.6538126
20
53.8753472
11
26.2296543
21
37.3853986
0
LINE
8
0
10
25.5944835
20
55.5743117
11
43.083823
21
56.1850529
0
LINE
8
0
10
43.083823
20
56.1850529
11
42.5079813
21
72.6750015
0
LINE
8
0
10
42.5079813
20
72.6750015
11
25.0186418
21
72.0642603
0
LINE
8
0
10
25.0186418
20
72.0642603
11
25.5944835
21
55.5743117
0
LINE
8
0
10
45.0289885
20
31.0680339
11
62.5289885
21
31.0680339
0
LINE
8
0
10
62.5289885
20
31.0680339
11
62.5289885
21
47.5680339
0
LINE
8
0
10
62.5289885
20
47.5680339
11
45.0289885
21
47.5680339
0
LINE
8
0
10
45.0289885
20
47.5680339
11
45.0289885
21
31.0680339
0
LINE
8
0
10
45.0289885
20
49.2680339
11
62.5289885
21
49.2680339
0
LINE
8
0
10
62.5289885
20
49.2680339
11
62.5289885
21
65.7680339
0
LINE
8
0
10
62.5289885
20
65.7680339
11
45.0289885
21
65.7680339
0
LINE
8
0
10
45.0289885
20
65.7680339
11
45.0289885
21
49.2680339
0
LINE
8
0
10
45.0289885
20
67.4680339
11
62.5289885
21
67.4680339
0
LINE
8
0
10
62.5289885
20
67.4680339
11
62.5289885
21
83.9680339
0
LINE
8
0
10
62.5289885
20
83.9680339
11
45.0289885
21
83.9680339
0
LINE
8
0
10
45.0289885
20
83.9680339
11
45.0289885
21
67.4680339
0
LINE
8
0
10
63.396398
20
22.2784301
11
80.8857375
21
21.6676889
0
LINE
8
0
10
80.8857375
20
21.6676889
11
81.4615792
21
38.1576375
0
LINE
8
0
10
81.4615792
20
38.1576375
11
63.9722397
21
38.7683787
0
LINE
8
0
10
63.9722397
20
38.7683787
11
63.396398
21
22.2784301
0
LINE
8
0
10
64.0315688
20
40.4673432
11
81.5209083
21
39.856602
0
LINE
8
0
10
81.5209083
20
39.856602
11
82.09675
21
56.3465506
0
LINE
8
0
10
82.09675
20
56.3465506
11
64.6074105
21
56.9572918
0
LINE
8
0
10
64.6074105
20
56.9572918
11
64.0315688
21
40.4673432
0
LINE
8
0
10
64.6667396
20
58.6562563
11
82.1560791
21
58.0455151
0
LINE
8
0
10
82.1560791
20
58.0455151
11
82.7319208
21
74.5354637
0
LINE
8
0
10
82.7319208
20
74.5354637
11
65.2425813
21
75.1462049
0
LINE
8
0
10
65.2425813
20
75.1462049
11
64.6667396
21
58.6562563
0
LINE
8
0
10
81.5411414
20
15.5815043
11
98.9985122
21
14.360766
0
LINE
8
0
10
98.9985122
20
14.360766
11
100.149494
21
30.8205729
0
LINE
8
0
10
100.149494
20
30.8205729
11
82.6921232
21
32.0413112
0
LINE
8
0
10
82.6921232
20
32.0413112
11
81.5411414
21
15.5815043
0
LINE
8
0
10
82.8107092
20
33.73717
11
100.26808
21
32.5164317
0
LINE
8
0
10
100.26808
20
32.5164317
11
101.4190618
21
48.9762386
0
LINE
8
0
10
101.4190618
20
48.9762386
11
83.961691
21
50.1969769
0
LINE
8
0
10
83.961691
20
50.1969769
11
82.8107092
21
33.73717
0
LINE
8
0
10
84.080277
20
51.8928357
11
101.5376478
21
50.6720974
0
LINE
8
0
10
101.5376478
20
50.6720974
11
102.6886296
21
67.1319043
0
LINE
8
0
10
102.6886296
20
67.1319043
11
85.2312588
21
68.3526426
0
LINE
8
0
10
85.2312588
20
68.3526426
11
84.080277
21
51.8928357
0
LINE
8
0
10
63.5730085
20
-8.0036568
11
80.9771417
21
-6.1744087
0
LINE
8
0
10
80.9771417
20
-6.1744087
11
79.2524221
21
10.2352026
0
LINE
8
0
10
79.2524221
20
10.2352026
11
61.8482889
21
8.4059545
0
LINE
8
0
10
61.8482889
20
8.4059545
11
63.5730085
21
-8.0036568
0
LINE
8
0
10
83.6178733
20
-6.0831701
11
100.1644484
21
-11.7806128
0
LINE
8
0
10
100.1644484
20
-11.7806128
11
105.5363229
21
3.8204437
0
LINE
8
0
10
105.5363229
20
3.8204437
11
88.9897478
21
9.5178864
0
LINE
8
0
10
88.9897478
20
9.5178864
11
83.6178733
21
-6.0831701
0
LINE
8
0
10
102.5963232
20
-12.8139442
11
115.1847697
21
-24.9704657
0
LINE
8
0
10
115.1847697
20
-24.9704657
11
126.6466328
21
-13.101359
0
LINE
8
0
10
126.6466328
20
-13.101359
11
114.0581863
21
-0.9448375
0
LINE
8
0
10
114.0581863
20
-0.9448375
11
102.5963232
21
-12.8139442
0
ENDSEC
0
EOF