0
SECTION
2
HEADER
9
$INSUNITS
70
4
0
ENDSEC
0
SECTION
2
TABLES
0
TABLE
2
LTYPE
0
LTYPE
72
65
70
64
2
CONTINUOUS
3
______
73
0
40
0
0
ENDTAB
0
TABLE
2
LAYER
0
ENDTAB
0
ENDSEC
0
SECTION
2
ENTITIES
0
LINE
8
0
10
-21.2244373
20
45.5057497
11
-12.7589854
21
-2.5042142
0
LINE
8
0
10
82.5892671
20
78.981571
11
132.6456004
21
78.981571
0
LINE
8
0
10
133.6456004
20
77.981571
11
133.6456004
21
24.381571
0
LINE
8
0
10
132.6456004
20
23.381571
11
131.6456004
21
23.381571
0
LINE
8
0
10
130.6456004
20
22.381571
11
130.6456004
21
8.581571
0
LINE
8
0
10
131.6456004
20
7.581571
11
132.6456004
21
7.581571
0
LINE
8
0
10
133.6456004
20
6.581571
11
133.6456004
21
-3.278429
0
LINE
8
0
10
133.6456004
20
-3.278429
11
133.6026777
21
-3.2784444
0
LINE
8
0
10
58.7783637
20
-3.305271
11
-11.7738191
21
-3.3305659
0
LINE
8
0
10
59.76353
20
-4.1316227
11
60.4595672
21
-8.079046
0
LINE
8
0
10
61.6180232
20
-8.8902056
11
82.6755667
21
-5.1771926
0
LINE
8
0
10
82.6755667
20
-5.1771926
11
83.0327461
21
-5.0406456
0
LINE
8
0
10
83.0327461
20
-5.0406456
11
100.0977962
21
-9.6132119
0
LINE
8
0
10
100.0977962
20
-9.6132119
11
100.4792178
21
-9.6404089
0
LINE
8
0
10
100.4792178
20
-9.6404089
11
116.0181616
21
-22.6791309
0
LINE
8
0
10
117.4269936
20
-22.5558741
11
133.6026777
21
-3.2784444
0
LINE
8
0
10
81.4441068
20
84.1209637
11
81.5898763
21
79.9466715
0
LINE
8
0
10
62.004702
20
84.4427343
11
80.4098165
21
85.085455
0
LINE
8
0
10
60.4904418
20
92.2623803
11
60.9722384
21
85.3723686
0
LINE
8
0
10
35.4815841
20
91.5160326
11
59.4231212
21
93.1901879
0
LINE
8
0
10
34.5537765
20
90.448712
11
35.2084246
21
81.0868078
0
LINE
8
0
10
16.1915897
20
78.1176414
11
34.315389
21
80.0225294
0
LINE
8
0
10
15.3015963
20
77.018591
11
16.7584658
21
63.1574039
0
LINE
8
0
10
-1.9858191
20
59.5484813
11
15.903117
21
62.0626073
0
LINE
8
0
10
-2.8369141
20
58.4190401
11
-1.7842567
21
50.9289935
0
LINE
8
0
10
-20.4132777
20
46.6642057
11
-2.6008766
21
49.8050126
0
ARC
8
0
10
-11.7741776
20
-2.330566
40
1
50
190.0000008
51
270.0205405
0
ARC
8
0
10
58.7787222
20
-4.3052709
40
1
50
10.0000008
51
90.0205405
0
ARC
8
0
10
61.444375
20
-7.9053978
40
1
50
190.0000008
51
280.0000008
0
ARC
8
0
10
116.6609492
20
-21.9130865
40
1
50
229.9999988
51
319.9999988
0
ARC
8
0
10
132.6456004
20
6.581571
40
1
50
0
51
90
0
ARC
8
0
10
131.6456004
20
8.581571
40
1
50
180
51
270
0
ARC
8
0
10
131.6456004
20
22.381571
40
1
50
90
51
180
0
ARC
8
0
10
132.6456004
20
24.381571
40
1
50
270
51
0
0
ARC
8
0
10
132.6456004
20
77.981571
40
1
50
0
51
90
0
ARC
8
0
10
82.5892671
20
79.981571
40
1
50
182.0000002
51
270
0
ARC
8
0
10
80.444716
20
84.0860642
40
1
50
2.0000002
51
92.0000002
0
ARC
8
0
10
61.9698025
20
85.4421251
40
1
50
184.0000013
51
272.0000002
0
ARC
8
0
10
59.4928777
20
92.1926238
40
1
50
4.0000013
51
94.0000013
0
ARC
8
0
10
35.5513406
20
90.5184685
40
1
50
94.0000013
51
184.0000013
0
ARC
8
0
10
34.2108605
20
81.0170513
40
1
50
276.0000021
51
4.0000013
0
ARC
8
0
10
16.2961182
20
77.1231195
40
1
50
96.0000021
51
186.0000021
0
ARC
8
0
10
15.7639439
20
63.0528754
40
1
50
277.9999997
51
6.0000021
0
ARC
8
0
10
-1.846646
20
58.5582132
40
1
50
97.9999997
51
187.9999997
0
ARC
8
0
10
-2.7745248
20
50.7898204
40
1
50
280.0000008
51
7.9999997
0
ARC
8
0
10
-20.2396295
20
45.6793979
40
1
50
100.0000008
51
190.0000008
0
ENDSEC
0
EOF