0
SECTION
2
HEADER
9
$INSUNITS
70
4
0
ENDSEC
0
SECTION
2
TABLES
0
TABLE
2
LTYPE
0
LTYPE
72
65
70
64
2
CONTINUOUS
3
______
73
0
40
0
0
ENDTAB
0
TABLE
2
LAYER
0
ENDTAB
0
ENDSEC
0
SECTION
2
ENTITIES
0
LINE
8
0
10
-15.7824117
20
25.7915777
11
-12.8327051
21
-2.2730058
0
LINE
8
0
10
-17.9984151
20
46.8754419
11
-15.7825051
21
25.7924673
0
LINE
8
0
10
87.8975597
20
73.0280398
11
137.8319582
21
69.5362866
0
LINE
8
0
10
138.7597658
20
68.468966
11
133.0913548
21
-12.5930887
0
LINE
8
0
10
133.0913548
20
-12.5930887
11
133.0509133
21
-12.5876478
0
LINE
8
0
10
57.8870887
20
-3.1357614
11
-11.837714
21
-3.1684772
0
LINE
8
0
10
58.8820798
20
-4.0312328
11
59.7487251
21
-12.276812
0
LINE
8
0
10
60.8477755
20
-13.1668054
11
82.1130306
21
-10.9317371
0
LINE
8
0
10
82.1130306
20
-10.9317371
11
82.4788649
21
-10.8204383
0
LINE
8
0
10
82.4788649
20
-10.8204383
11
99.1833793
21
-16.5722639
0
LINE
8
0
10
99.1833793
20
-16.5722639
11
99.5619745
21
-16.6260012
0
LINE
8
0
10
99.5619745
20
-16.6260012
11
114.1535309
21
-30.7169034
0
LINE
8
0
10
115.5675291
20
-30.692222
11
133.0509133
21
-12.5876478
0
LINE
8
0
10
86.9679254
20
74.0605034
11
87.1136949
21
78.2347956
0
LINE
8
0
10
67.744089
20
79.9118066
11
86.1492036
21
79.2690859
0
LINE
8
0
10
66.7789885
20
80.9111974
11
66.7789885
21
87.8180339
0
LINE
8
0
10
41.7789885
20
88.8180339
11
65.7789885
21
88.8180339
0
LINE
8
0
10
40.7789885
20
78.4332688
11
40.7789885
21
87.8180339
0
LINE
8
0
10
21.601359
20
76.7978825
11
39.813888
21
77.433878
0
LINE
8
0
10
20.6368677
20
75.7635922
11
21.1232808
21
61.8345441
0
LINE
8
0
10
2.1729103
20
59.5419479
11
20.1936465
21
60.8020805
0
LINE
8
0
10
1.2451027
20
58.4746273
11
1.7727166
21
50.9293964
0
LINE
8
0
10
-17.1084217
20
47.9744923
11
0.879681
21
49.865118
0
ARC
8
0
10
-11.8381832
20
-2.1684773
40
1
50
186.0000021
51
270.0268832
0
ARC
8
0
10
57.8875579
20
-4.1357613
40
1
50
6.0000021
51
90.0268832
0
ARC
8
0
10
60.743247
20
-12.1722835
40
1
50
186.0000021
51
276.0000021
0
ARC
8
0
10
114.8481893
20
-29.9975636
40
1
50
225.9999988
51
315.9999988
0
ARC
8
0
10
137.7622017
20
68.5387225
40
1
50
355.9999987
51
85.9999987
0
ARC
8
0
10
87.9673162
20
74.0256039
40
1
50
177.9999998
51
265.9999987
0
ARC
8
0
10
86.1143041
20
78.2696951
40
1
50
357.9999998
51
87.9999998
0
ARC
8
0
10
67.7789885
20
80.9111974
40
1
50
180
51
267.9999998
0
ARC
8
0
10
65.7789885
20
87.8180339
40
1
50
0
51
90
0
ARC
8
0
10
41.7789885
20
87.8180339
40
1
50
90
51
180
0
ARC
8
0
10
39.7789885
20
78.4332688
40
1
50
272.0000002
51
0
0
ARC
8
0
10
21.6362585
20
75.7984917
40
1
50
92.0000002
51
182.0000002
0
ARC
8
0
10
20.12389
20
61.7996446
40
1
50
274.0000013
51
2.0000002
0
ARC
8
0
10
2.2426668
20
58.5443838
40
1
50
94.0000013
51
184.0000013
0
ARC
8
0
10
0.7751525
20
50.8596399
40
1
50
276.0000021
51
4.0000013
0
ARC
8
0
10
-17.0038932
20
46.9799704
40
1
50
96.0000021
51
186.0000021
0
ENDSEC
0
EOF