0
SECTION
2
HEADER
9
$INSUNITS
70
4
0
ENDSEC
0
SECTION
2
TABLES
0
TABLE
2
LTYPE
0
LTYPE
72
65
70
64
2
CONTINUOUS
3
______
73
0
40
0
0
ENDTAB
0
TABLE
2
LAYER
0
ENDTAB
0
ENDSEC
0
SECTION
2
ENTITIES
0
LINE
8
0
10
-18.9075254
20
43.8834306
11
-10.7320445
21
-2.4820262
0
LINE
8
0
10
79.8483638
20
76.981571
11
99.0056004
21
76.981571
0
LINE
8
0
10
100.0056004
20
16.717268
11
100.0056004
21
75.981571
0
LINE
8
0
10
100.7079525
20
15.7625923
11
111.5996095
21
12.3668014
0
LINE
8
0
10
111.9390416
20
12.1829234
11
113.892053
21
10.5687197
0
LINE
8
0
10
123.9927259
20
2.2203075
11
130.6456004
21
-3.278429
0
LINE
8
0
10
130.6456004
20
-3.278429
11
130.5458474
21
-3.2784503
0
LINE
8
0
10
28.2161884
20
-3.3002795
11
-9.7470234
21
-3.308378
0
LINE
8
0
10
84.0886708
20
-3.2883607
11
81.9548181
21
-3.2888159
0
LINE
8
0
10
61.747527
20
-3.8658876
11
62.0818863
21
-5.7621341
0
LINE
8
0
10
63.2403423
20
-6.5732938
11
81.7813832
21
-3.3040081
0
LINE
8
0
10
84.3477031
20
-3.3224349
11
100.7053027
21
-7.7054404
0
LINE
8
0
10
100.7053027
20
-7.7054404
11
101.1707797
21
-7.6086746
0
LINE
8
0
10
101.1707797
20
-7.6086746
11
101.1934885
21
-7.6289385
0
LINE
8
0
10
101.1934885
20
-7.6289385
11
115.7716479
21
-19.8614667
0
LINE
8
0
10
117.1804799
20
-19.7382099
11
130.8075772
21
-3.4980677
0
LINE
8
0
10
113.9545995
20
10.6432597
11
123.9870183
21
2.2250608
0
LINE
8
0
10
130.5458474
20
-3.2784503
11
130.8075772
21
-3.4980677
0
LINE
8
0
10
113.892053
20
10.5687197
11
113.9545995
21
10.6432597
0
LINE
8
0
10
79.8483638
20
76.981571
11
79.6930589
21
76.9569995
0
LINE
8
0
10
79.6930589
20
76.9569995
11
79.5500237
21
81.0529922
0
LINE
8
0
10
79.5500237
20
81.0529922
11
79.5151242
21
82.0523831
0
LINE
8
0
10
59.3352672
20
82.3482965
11
78.4808339
21
83.0168744
0
LINE
8
0
10
59.3352672
20
82.3482965
11
59.1809145
21
82.3183199
0
LINE
8
0
10
58.6348266
20
90.1277392
11
59.1809145
21
82.3183199
0
LINE
8
0
10
37.616225
20
89.6604175
11
57.5675061
21
91.0555468
0
LINE
8
0
10
36.6884175
20
88.5930969
11
37.4058958
21
78.3326806
0
LINE
8
0
10
37.4058958
20
78.3326806
11
37.3456156
21
78.3300025
0
LINE
8
0
10
18.3896905
20
76.3376546
11
37.3456156
21
78.3300025
0
LINE
8
0
10
17.4996971
20
75.2386042
11
18.9493936
21
61.4456635
0
LINE
8
0
10
0.2730633
20
57.8462913
11
18.0940448
21
60.3508669
0
LINE
8
0
10
-0.5780317
20
56.7168501
11
0.4650753
21
49.2947582
0
LINE
8
0
10
-18.0963658
20
45.0418866
11
-0.3515446
21
48.1707773
0
LINE
8
0
10
61.7402045
20
-3.8174491
11
58.537723
21
21.5582276
0
LINE
8
0
10
57.4237234
20
22.4255642
11
27.6440034
21
18.7690744
0
LINE
8
0
10
26.7733265
20
17.6546589
11
29.2085213
21
-2.1784102
0
ARC
8
0
10
-9.7472367
20
-2.308378
40
1
50
190.0000008
51
270.0122212
0
ARC
8
0
10
28.2159751
20
-2.3002795
40
1
50
270.0122212
51
6.9999972
0
ARC
8
0
10
27.7658727
20
17.7765282
40
1
50
96.9999972
51
186.9999972
0
ARC
8
0
10
57.5455927
20
21.433018
40
1
50
7.1928602
51
96.9999972
0
ARC
8
0
10
62.7323348
20
-3.6922395
40
1
50
187.1928602
51
189.9999952
0
ARC
8
0
10
63.0666941
20
-5.588486
40
1
50
189.9999952
51
280.0000008
0
ARC
8
0
10
81.9550314
20
-4.2888159
40
1
50
90.0122212
51
100.0000008
0
ARC
8
0
10
84.0888841
20
-4.2883607
40
1
50
75.0000021
51
90.0122212
0
ARC
8
0
10
116.4144355
20
-19.0954223
40
1
50
229.9999988
51
319.9999988
0
ARC
8
0
10
124.6298059
20
2.9911052
40
1
50
229.9999988
51
230.425575
0
ARC
8
0
10
111.3019616
20
11.4121257
40
1
50
50.425575
51
72.6836145
0
ARC
8
0
10
101.0056004
20
16.717268
40
1
50
180
51
252.6836145
0
ARC
8
0
10
99.0056004
20
75.981571
40
1
50
0
51
90
0
ARC
8
0
10
78.5157334
20
82.0174836
40
1
50
2.0000002
51
92.0000002
0
ARC
8
0
10
57.6372626
20
90.0579827
40
1
50
4.0000017
51
94.0000013
0
ARC
8
0
10
37.6859815
20
88.6628534
40
1
50
94.0000013
51
184.0000017
0
ARC
8
0
10
18.494219
20
75.3431327
40
1
50
96.0000021
51
186.0000021
0
ARC
8
0
10
17.9548717
20
61.341135
40
1
50
277.9999997
51
6.0000021
0
ARC
8
0
10
0.4122364
20
56.8560232
40
1
50
97.9999997
51
187.9999997
0
ARC
8
0
10
-0.5251928
20
49.1555851
40
1
50
280.0000008
51
7.9999997
0
ARC
8
0
10
-17.9227176
20
44.0570788
40
1
50
100.0000008
51
190.0000008
0
ENDSEC
0
EOF