0
SECTION
2
HEADER
9
$INSUNITS
70
4
0
ENDSEC
0
SECTION
2
TABLES
0
TABLE
2
LTYPE
0
LTYPE
72
65
70
64
2
CONTINUOUS
3
______
73
0
40
0
0
ENDTAB
0
TABLE
2
LAYER
0
ENDTAB
0
ENDSEC
0
SECTION
2
ENTITIES
0
LINE
8
0
10
-18.9075254
20
43.8834306
11
-10.7319522
21
-2.4825495
0
LINE
8
0
10
79.8483638
20
76.981571
11
99.0056004
21
76.981571
0
LINE
8
0
10
100.0056004
20
16.717268
11
100.0056004
21
75.981571
0
LINE
8
0
10
100.7079525
20
15.7625923
11
111.5996095
21
12.3668014
0
LINE
8
0
10
111.9390416
20
12.1829234
11
113.892053
21
10.5687197
0
LINE
8
0
10
123.9927259
20
2.2203075
11
130.6456004
21
-3.278429
0
LINE
8
0
10
130.6456004
20
-3.278429
11
130.5457745
21
-3.2783891
0
LINE
8
0
10
83.9826793
20
-3.2597963
11
82.124218
21
-3.2590542
0
LINE
8
0
10
58.4165809
20
15.1186178
11
57.8040589
21
18.6102264
0
LINE
8
0
10
56.7145714
20
19.43196
11
30.7350863
21
16.7014061
0
LINE
8
0
10
29.8505238
20
15.5595786
11
32.4922646
21
-2.1785251
0
LINE
8
0
10
31.5027632
20
-3.3258306
11
-9.7475548
21
-3.3089012
0
LINE
8
0
10
58.4005451
20
15.1157903
11
58.4165809
21
15.1186178
0
LINE
8
0
10
58.4005451
20
15.1157903
11
62.0818863
21
-5.7621342
0
LINE
8
0
10
63.2403423
20
-6.5732938
11
81.9501705
21
-3.2742463
0
LINE
8
0
10
84.241099
20
-3.2938704
11
100.7053027
21
-7.7054404
0
LINE
8
0
10
100.7053027
20
-7.7054404
11
101.1707797
21
-7.6086746
0
LINE
8
0
10
101.1707797
20
-7.6086746
11
101.1934885
21
-7.6289385
0
LINE
8
0
10
101.1934885
20
-7.6289385
11
115.7716479
21
-19.8614667
0
LINE
8
0
10
117.1804799
20
-19.7382099
11
130.8075772
21
-3.4980677
0
LINE
8
0
10
113.9545995
20
10.6432597
11
123.9870183
21
2.2250608
0
LINE
8
0
10
130.5457745
20
-3.2783891
11
130.8075772
21
-3.4980677
0
LINE
8
0
10
113.892053
20
10.5687197
11
113.9545995
21
10.6432597
0
LINE
8
0
10
79.8483638
20
76.981571
11
79.6930589
21
76.9569995
0
LINE
8
0
10
79.6930589
20
76.9569995
11
79.5500237
21
81.0529922
0
LINE
8
0
10
79.5500237
20
81.0529922
11
79.5151242
21
82.0523831
0
LINE
8
0
10
59.3352672
20
82.3482965
11
78.4808339
21
83.0168744
0
LINE
8
0
10
59.3352672
20
82.3482965
11
59.1809145
21
82.3183199
0
LINE
8
0
10
58.6348266
20
90.1277392
11
59.1809145
21
82.3183199
0
LINE
8
0
10
37.616225
20
89.6604175
11
57.5675061
21
91.0555468
0
LINE
8
0
10
36.6884175
20
88.5930969
11
37.4058958
21
78.3326806
0
LINE
8
0
10
37.4058958
20
78.3326806
11
37.3456156
21
78.3300025
0
LINE
8
0
10
18.3896905
20
76.3376546
11
37.3456156
21
78.3300025
0
LINE
8
0
10
17.4996971
20
75.2386042
11
18.9493936
21
61.4456635
0
LINE
8
0
10
0.2730633
20
57.8462913
11
18.0940448
21
60.3508669
0
LINE
8
0
10
-0.5780317
20
56.7168501
11
0.4650753
21
49.2947582
0
LINE
8
0
10
-18.0963658
20
45.0418866
11
-0.3515446
21
48.1707773
0
ARC
8
0
10
-9.7471444
20
-2.3089013
40
1
50
190.0000008
51
269.9764858
0
ARC
8
0
10
31.5031736
20
-2.3258307
40
1
50
269.9764858
51
8.4708145
0
ARC
8
0
10
30.8396148
20
15.7068842
40
1
50
96.0000021
51
188.4708145
0
ARC
8
0
10
56.8190999
20
18.4374381
40
1
50
9.9499763
51
96.0000021
0
ARC
8
0
10
63.0666941
20
-5.588486
40
1
50
190.0000008
51
280.0000008
0
ARC
8
0
10
82.1238187
20
-4.2590541
40
1
50
89.9771218
51
100.0000008
0
ARC
8
0
10
83.98228
20
-4.2597962
40
1
50
75.0000021
51
89.9771218
0
ARC
8
0
10
116.4144355
20
-19.0954223
40
1
50
229.9999988
51
319.9999988
0
ARC
8
0
10
124.6298059
20
2.9911052
40
1
50
229.9999988
51
230.425575
0
ARC
8
0
10
111.3019616
20
11.4121257
40
1
50
50.425575
51
72.6836145
0
ARC
8
0
10
101.0056004
20
16.717268
40
1
50
180
51
252.6836145
0
ARC
8
0
10
99.0056004
20
75.981571
40
1
50
0
51
90
0
ARC
8
0
10
78.5157334
20
82.0174836
40
1
50
2.0000002
51
92.0000002
0
ARC
8
0
10
57.6372626
20
90.0579827
40
1
50
4.0000017
51
94.0000013
0
ARC
8
0
10
37.6859815
20
88.6628534
40
1
50
94.0000013
51
184.0000017
0
ARC
8
0
10
18.494219
20
75.3431327
40
1
50
96.0000021
51
186.0000021
0
ARC
8
0
10
17.9548717
20
61.341135
40
1
50
277.9999997
51
6.0000021
0
ARC
8
0
10
0.4122364
20
56.8560232
40
1
50
97.9999997
51
187.9999997
0
ARC
8
0
10
-0.5251928
20
49.1555851
40
1
50
280.0000008
51
7.9999997
0
ARC
8
0
10
-17.9227176
20
44.0570788
40
1
50
100.0000008
51
190.0000008
0
ENDSEC
0
EOF