0
SECTION
2
HEADER
9
$INSUNITS
70
4
0
ENDSEC
0
SECTION
2
TABLES
0
TABLE
2
LTYPE
0
LTYPE
72
65
70
64
2
CONTINUOUS
3
______
73
0
40
0
0
ENDTAB
0
TABLE
2
LAYER
0
ENDTAB
0
ENDSEC
0
SECTION
2
ENTITIES
0
LINE
8
0
10
-21.2244373
20
45.5057497
11
-12.7589854
21
-2.5042142
0
LINE
8
0
10
82.5892671
20
78.981571
11
132.6456004
21
78.981571
0
LINE
8
0
10
133.6456004
20
77.981571
11
133.6456004
21
24.381571
0
LINE
8
0
10
132.6456004
20
23.381571
11
131.6456004
21
23.381571
0
LINE
8
0
10
130.6456004
20
22.381571
11
130.6456004
21
8.581571
0
LINE
8
0
10
131.6456004
20
7.581571
11
132.6456004
21
7.581571
0
LINE
8
0
10
133.6456004
20
6.581571
11
133.6456004
21
-3.278429
0
LINE
8
0
10
133.6456004
20
-3.278429
11
133.6026777
21
-3.2784444
0
LINE
8
0
10
58.7783637
20
-3.305271
11
-11.7738191
21
-3.3305659
0
LINE
8
0
10
59.76353
20
-4.1316227
11
60.4595672
21
-8.079046
0
LINE
8
0
10
61.6180232
20
-8.8902056
11
82.6755667
21
-5.1771926
0
LINE
8
0
10
82.6755667
20
-5.1771926
11
83.0327461
21
-5.0406456
0
LINE
8
0
10
83.0327461
20
-5.0406456
11
100.0977962
21
-9.6132119
0
LINE
8
0
10
100.0977962
20
-9.6132119
11
100.4792178
21
-9.6404089
0
LINE
8
0
10
100.4792178
20
-9.6404089
11
116.0181616
21
-22.6791309
0
LINE
8
0
10
117.4269936
20
-22.5558741
11
133.6026777
21
-3.2784444
0
LINE
8
0
10
81.4441068
20
84.1209637
11
81.5898763
21
79.9466715
0
LINE
8
0
10
62.004702
20
84.4427343
11
80.4098165
21
85.085455
0
LINE
8
0
10
60.4904418
20
92.2623803
11
60.9722384
21
85.3723686
0
LINE
8
0
10
35.4815841
20
91.5160326
11
59.4231212
21
93.1901879
0
LINE
8
0
10
34.5537765
20
90.448712
11
35.2084246
21
81.0868078
0
LINE
8
0
10
16.1915897
20
78.1176414
11
34.315389
21
80.0225294
0
LINE
8
0
10
15.3015963
20
77.018591
11
16.7584658
21
63.1574039
0
LINE
8
0
10
-1.9858191
20
59.5484813
11
15.903117
21
62.0626073
0
LINE
8
0
10
-2.8369141
20
58.4190401
11
-1.7842567
21
50.9289935
0
LINE
8
0
10
-20.4132777
20
46.6642057
11
-2.6008766
21
49.8050126
0
ARC
8
0
10
-11.7741776
20
-2.330566
40
1
50
190.0000008
51
270.0205405
0
ARC
8
0
10
58.7787222
20
-4.3052709
40
1
50
10.0000008
51
90.0205405
0
ARC
8
0
10
61.444375
20
-7.9053978
40
1
50
190.0000008
51
280.0000008
0
ARC
8
0
10
116.6609492
20
-21.9130865
40
1
50
229.9999988
51
319.9999988
0
ARC
8
0
10
132.6456004
20
6.581571
40
1
50
0
51
90
0
ARC
8
0
10
131.6456004
20
8.581571
40
1
50
180
51
270
0
ARC
8
0
10
131.6456004
20
22.381571
40
1
50
90
51
180
0
ARC
8
0
10
132.6456004
20
24.381571
40
1
50
270
51
0
0
ARC
8
0
10
132.6456004
20
77.981571
40
1
50
0
51
90
0
ARC
8
0
10
82.5892671
20
79.981571
40
1
50
182.0000002
51
270
0
ARC
8
0
10
80.444716
20
84.0860642
40
1
50
2.0000002
51
92.0000002
0
ARC
8
0
10
61.9698025
20
85.4421251
40
1
50
184.0000013
51
272.0000002
0
ARC
8
0
10
59.4928777
20
92.1926238
40
1
50
4.0000013
51
94.0000013
0
ARC
8
0
10
35.5513406
20
90.5184685
40
1
50
94.0000013
51
184.0000013
0
ARC
8
0
10
34.2108605
20
81.0170513
40
1
50
276.0000021
51
4.0000013
0
ARC
8
0
10
16.2961182
20
77.1231195
40
1
50
96.0000021
51
186.0000021
0
ARC
8
0
10
15.7639439
20
63.0528754
40
1
50
277.9999997
51
6.0000021
0
ARC
8
0
10
-1.846646
20
58.5582132
40
1
50
97.9999997
51
187.9999997
0
ARC
8
0
10
-2.7745248
20
50.7898204
40
1
50
280.0000008
51
7.9999997
0
ARC
8
0
10
-20.2396295
20
45.6793979
40
1
50
100.0000008
51
190.0000008
0
LINE
8
0
10
-10.3448672
20
8.2794156
11
6.8892685
21
11.3182587
0
LINE
8
0
10
6.8892685
20
11.3182587
11
4.0240736
21
27.5675866
0
LINE
8
0
10
4.0240736
20
27.5675866
11
-13.2100621
21
24.5287435
0
LINE
8
0
10
-13.2100621
20
24.5287435
11
-10.3448672
21
8.2794156
0
LINE
8
0
10
-13.505264
20
26.2029167
11
3.7288717
21
29.2417598
0
LINE
8
0
10
3.7288717
20
29.2417598
11
0.8636768
21
45.4910877
0
LINE
8
0
10
0.8636768
20
45.4910877
11
-16.3704589
21
42.4522446
0
LINE
8
0
10
-16.3704589
20
42.4522446
11
-13.505264
21
26.2029167
0
LINE
8
0
10
9.2697986
20
2.8128129
11
26.5994898
21
5.2483422
0
LINE
8
0
10
26.5994898
20
5.2483422
11
24.3031336
21
21.5877653
0
LINE
8
0
10
24.3031336
20
21.5877653
11
6.9734424
21
19.152236
0
LINE
8
0
10
6.9734424
20
19.152236
11
9.2697986
21
2.8128129
0
LINE
8
0
10
6.7368482
20
20.8356917
11
24.0665394
21
23.271221
0
LINE
8
0
10
24.0665394
20
23.271221
11
21.7701832
21
39.6106441
0
LINE
8
0
10
21.7701832
20
39.6106441
11
4.440492
21
37.1751148
0
LINE
8
0
10
4.440492
20
37.1751148
11
6.7368482
21
20.8356917
0
LINE
8
0
10
4.2038978
20
38.8585706
11
21.533589
21
41.2940999
0
LINE
8
0
10
21.533589
20
41.2940999
11
19.2372328
21
57.633523
0
LINE
8
0
10
19.2372328
20
57.633523
11
1.9075416
21
55.1979937
0
LINE
8
0
10
1.9075416
20
55.1979937
11
4.2038978
21
38.8585706
0
LINE
8
0
10
25.4603046
20
21.0237193
11
42.8644378
21
22.8529674
0
LINE
8
0
10
42.8644378
20
22.8529674
11
41.1397182
21
39.2625787
0
LINE
8
0
10
41.1397182
20
39.2625787
11
23.735585
21
37.4333306
0
LINE
8
0
10
23.735585
20
37.4333306
11
25.4603046
21
21.0237193
0
LINE
8
0
10
23.5578866
20
39.1240178
11
40.9620198
21
40.9532659
0
LINE
8
0
10
40.9620198
20
40.9532659
11
39.2373002
21
57.3628772
0
LINE
8
0
10
39.2373002
20
57.3628772
11
21.833167
21
55.5336291
0
LINE
8
0
10
21.833167
20
55.5336291
11
23.5578866
21
39.1240178
0
LINE
8
0
10
21.6554686
20
57.2243164
11
39.0596018
21
59.0535645
0
LINE
8
0
10
39.0596018
20
59.0535645
11
37.3348822
21
75.4631758
0
LINE
8
0
10
37.3348822
20
75.4631758
11
19.930749
21
73.6339277
0
LINE
8
0
10
19.930749
20
73.6339277
11
21.6554686
21
57.2243164
0
LINE
8
0
10
42.7521037
20
34.1334171
11
60.2094745
21
35.3541554
0
LINE
8
0
10
60.2094745
20
35.3541554
11
59.0584927
21
51.8139623
0
LINE
8
0
10
59.0584927
20
51.8139623
11
41.6011219
21
50.593224
0
LINE
8
0
10
41.6011219
20
50.593224
11
42.7521037
21
34.1334171
0
LINE
8
0
10
41.4825359
20
52.2890829
11
58.9399067
21
53.5098212
0
LINE
8
0
10
58.9399067
20
53.5098212
11
57.7889249
21
69.9696281
0
LINE
8
0
10
57.7889249
20
69.9696281
11
40.3315541
21
68.7488898
0
LINE
8
0
10
40.3315541
20
68.7488898
11
41.4825359
21
52.2890829
0
LINE
8
0
10
40.212968
20
70.4447486
11
57.6703388
21
71.6654869
0
LINE
8
0
10
57.6703388
20
71.6654869
11
56.519357
21
88.1252938
0
LINE
8
0
10
56.519357
20
88.1252938
11
39.0619862
21
86.9045555
0
LINE
8
0
10
39.0619862
20
86.9045555
11
40.212968
21
70.4447486
0
LINE
8
0
10
61.6879028
20
26.6464701
11
79.1772423
21
27.2572113
0
LINE
8
0
10
79.1772423
20
27.2572113
11
78.6014006
21
43.7471599
0
LINE
8
0
10
78.6014006
20
43.7471599
11
61.1120611
21
43.1364187
0
LINE
8
0
10
61.1120611
20
43.1364187
11
61.6879028
21
26.6464701
0
LINE
8
0
10
61.052732
20
44.8353832
11
78.5420715
21
45.4461244
0
LINE
8
0
10
78.5420715
20
45.4461244
11
77.9662298
21
61.936073
0
LINE
8
0
10
77.9662298
20
61.936073
11
60.4768903
21
61.3253318
0
LINE
8
0
10
60.4768903
20
61.3253318
11
61.052732
21
44.8353832
0
LINE
8
0
10
60.4175611
20
63.0242963
11
77.9069006
21
63.6350375
0
LINE
8
0
10
77.9069006
20
63.6350375
11
77.3310589
21
80.1249861
0
LINE
8
0
10
77.3310589
20
80.1249861
11
59.8417194
21
79.5142449
0
LINE
8
0
10
59.8417194
20
79.5142449
11
60.4175611
21
63.0242963
0
LINE
8
0
10
80.2556004
20
21.2315711
11
97.7556004
21
21.2315711
0
LINE
8
0
10
97.7556004
20
21.2315711
11
97.7556004
21
37.7315711
0
LINE
8
0
10
97.7556004
20
37.7315711
11
80.2556004
21
37.7315711
0
LINE
8
0
10
80.2556004
20
37.7315711
11
80.2556004
21
21.2315711
0
LINE
8
0
10
80.2556004
20
39.431571
11
97.7556004
21
39.431571
0
LINE
8
0
10
97.7556004
20
39.431571
11
97.7556004
21
55.931571
0
LINE
8
0
10
97.7556004
20
55.931571
11
80.2556004
21
55.931571
0
LINE
8
0
10
80.2556004
20
55.931571
11
80.2556004
21
39.431571
0
LINE
8
0
10
80.2556004
20
57.631571
11
97.7556004
21
57.631571
0
LINE
8
0
10
97.7556004
20
57.631571
11
97.7556004
21
74.131571
0
LINE
8
0
10
97.7556004
20
74.131571
11
80.2556004
21
74.131571
0
LINE
8
0
10
80.2556004
20
74.131571
11
80.2556004
21
57.631571
0
LINE
8
0
10
63.9764547
20
-3.5495314
11
81.2105904
21
-0.5106883
0
LINE
8
0
10
81.2105904
20
-0.5106883
11
78.3453955
21
15.7386396
0
LINE
8
0
10
78.3453955
20
15.7386396
11
61.1112598
21
12.6997965
0
LINE
8
0
10
61.1112598
20
12.6997965
11
63.9764547
21
-3.5495314
0
LINE
8
0
10
83.8385248
20
-0.2354638
11
100.7422268
21
-4.7647971
0
LINE
8
0
10
100.7422268
20
-4.7647971
11
105.012741
21
11.172979
0
LINE
8
0
10
105.012741
20
11.172979
11
88.109039
21
15.7023123
0
LINE
8
0
10
88.109039
20
15.7023123
11
83.8385248
21
-0.2354638
0
LINE
8
0
10
103.2402592
20
-5.6259724
11
116.646037
21
-16.8747555
0
LINE
8
0
10
116.646037
20
-16.8747555
11
127.2520326
21
-4.2350222
0
LINE
8
0
10
127.2520326
20
-4.2350222
11
113.8462548
21
7.0137609
0
LINE
8
0
10
113.8462548
20
7.0137609
11
103.2402592
21
-5.6259724
0
ENDSEC
0
EOF