0
SECTION
2
HEADER
9
$INSUNITS
70
4
0
ENDSEC
0
SECTION
2
TABLES
0
TABLE
2
LTYPE
0
LTYPE
72
65
70
64
2
CONTINUOUS
3
______
73
0
40
0
0
ENDTAB
0
TABLE
2
LAYER
0
ENDTAB
0
ENDSEC
0
SECTION
2
ENTITIES
0
LINE
8
0
10
-18.9075254
20
43.8834306
11
-10.7320445
21
-2.4820262
0
LINE
8
0
10
79.8483638
20
76.981571
11
99.0056004
21
76.981571
0
LINE
8
0
10
100.0056004
20
16.717268
11
100.0056004
21
75.981571
0
LINE
8
0
10
100.7079525
20
15.7625923
11
111.5996095
21
12.3668014
0
LINE
8
0
10
111.9390416
20
12.1829234
11
113.892053
21
10.5687197
0
LINE
8
0
10
123.9927259
20
2.2203075
11
130.6456004
21
-3.278429
0
LINE
8
0
10
130.6456004
20
-3.278429
11
130.5458474
21
-3.2784503
0
LINE
8
0
10
28.2161884
20
-3.3002795
11
-9.7470234
21
-3.308378
0
LINE
8
0
10
84.0886708
20
-3.2883607
11
81.9548181
21
-3.2888159
0
LINE
8
0
10
61.7449159
20
-3.8510792
11
62.0818863
21
-5.7621341
0
LINE
8
0
10
63.2403423
20
-6.5732938
11
81.7813832
21
-3.3040081
0
LINE
8
0
10
84.3477031
20
-3.3224349
11
100.7053027
21
-7.7054404
0
LINE
8
0
10
100.7053027
20
-7.7054404
11
101.1707797
21
-7.6086746
0
LINE
8
0
10
101.1707797
20
-7.6086746
11
101.1934885
21
-7.6289385
0
LINE
8
0
10
101.1934885
20
-7.6289385
11
115.7716479
21
-19.8614667
0
LINE
8
0
10
117.1804799
20
-19.7382099
11
130.8075772
21
-3.4980677
0
LINE
8
0
10
113.9545995
20
10.6432597
11
123.9870183
21
2.2250608
0
LINE
8
0
10
130.5458474
20
-3.2784503
11
130.8075772
21
-3.4980677
0
LINE
8
0
10
113.892053
20
10.5687197
11
113.9545995
21
10.6432597
0
LINE
8
0
10
79.8483638
20
76.981571
11
79.6930589
21
76.9569995
0
LINE
8
0
10
79.6930589
20
76.9569995
11
79.5500237
21
81.0529922
0
LINE
8
0
10
79.5500237
20
81.0529922
11
79.5151242
21
82.0523831
0
LINE
8
0
10
59.3352672
20
82.3482965
11
78.4808339
21
83.0168744
0
LINE
8
0
10
59.3352672
20
82.3482965
11
59.1809145
21
82.3183199
0
LINE
8
0
10
58.6348266
20
90.1277392
11
59.1809145
21
82.3183199
0
LINE
8
0
10
37.616225
20
89.6604175
11
57.5675061
21
91.0555468
0
LINE
8
0
10
36.6884175
20
88.5930969
11
37.4058958
21
78.3326806
0
LINE
8
0
10
37.4058958
20
78.3326806
11
37.3456156
21
78.3300025
0
LINE
8
0
10
18.3896905
20
76.3376546
11
37.3456156
21
78.3300025
0
LINE
8
0
10
17.4996971
20
75.2386042
11
18.9493936
21
61.4456635
0
LINE
8
0
10
0.2730633
20
57.8462913
11
18.0940448
21
60.3508669
0
LINE
8
0
10
-0.5780317
20
56.7168501
11
0.4650753
21
49.2947582
0
LINE
8
0
10
-18.0963658
20
45.0418866
11
-0.3515446
21
48.1707773
0
LINE
8
0
10
61.7418056
20
-3.8324081
11
57.7640459
21
21.5242624
0
LINE
8
0
10
56.6861171
20
22.3652262
11
27.5579614
21
19.7326931
0
LINE
8
0
10
26.6554259
20
18.614883
11
29.2085213
21
-2.1784102
0
ARC
8
0
10
-9.7472367
20
-2.308378
40
1
50
190.0000008
51
270.0122212
0
ARC
8
0
10
28.2159751
20
-2.3002795
40
1
50
270.0122212
51
6.9999972
0
ARC
8
0
10
27.6479721
20
18.7367523
40
1
50
95.1642226
51
186.9999972
0
ARC
8
0
10
56.7761278
20
21.3692854
40
1
50
8.9154621
51
95.1642226
0
ARC
8
0
10
62.7297237
20
-3.6774311
40
1
50
188.9154621
51
189.9999952
0
ARC
8
0
10
63.0666941
20
-5.588486
40
1
50
189.9999952
51
280.0000008
0
ARC
8
0
10
81.9550314
20
-4.2888159
40
1
50
90.0122212
51
100.0000008
0
ARC
8
0
10
84.0888841
20
-4.2883607
40
1
50
75.0000021
51
90.0122212
0
ARC
8
0
10
116.4144355
20
-19.0954223
40
1
50
229.9999988
51
319.9999988
0
ARC
8
0
10
124.6298059
20
2.9911052
40
1
50
229.9999988
51
230.425575
0
ARC
8
0
10
111.3019616
20
11.4121257
40
1
50
50.425575
51
72.6836145
0
ARC
8
0
10
101.0056004
20
16.717268
40
1
50
180
51
252.6836145
0
ARC
8
0
10
99.0056004
20
75.981571
40
1
50
0
51
90
0
ARC
8
0
10
78.5157334
20
82.0174836
40
1
50
2.0000002
51
92.0000002
0
ARC
8
0
10
57.6372626
20
90.0579827
40
1
50
4.0000017
51
94.0000013
0
ARC
8
0
10
37.6859815
20
88.6628534
40
1
50
94.0000013
51
184.0000017
0
ARC
8
0
10
18.494219
20
75.3431327
40
1
50
96.0000021
51
186.0000021
0
ARC
8
0
10
17.9548717
20
61.341135
40
1
50
277.9999997
51
6.0000021
0
ARC
8
0
10
0.4122364
20
56.8560232
40
1
50
97.9999997
51
187.9999997
0
ARC
8
0
10
-0.5251928
20
49.1555851
40
1
50
280.0000008
51
7.9999997
0
ARC
8
0
10
-17.9227176
20
44.0570788
40
1
50
100.0000008
51
190.0000008
0
LINE
8
0
10
-10.3448672
20
8.2794156
11
6.8892685
21
11.3182587
0
LINE
8
0
10
6.8892685
20
11.3182587
11
4.0240736
21
27.5675866
0
LINE
8
0
10
4.0240736
20
27.5675866
11
-13.2100621
21
24.5287435
0
LINE
8
0
10
-13.2100621
20
24.5287435
11
-10.3448672
21
8.2794156
0
LINE
8
0
10
-13.505264
20
26.2029167
11
3.7288717
21
29.2417598
0
LINE
8
0
10
3.7288717
20
29.2417598
11
0.8636768
21
45.4910877
0
LINE
8
0
10
0.8636768
20
45.4910877
11
-16.3704589
21
42.4522446
0
LINE
8
0
10
-16.3704589
20
42.4522446
11
-13.505264
21
26.2029167
0
LINE
8
0
10
9.2697986
20
2.8128129
11
26.5994898
21
5.2483422
0
LINE
8
0
10
26.5994898
20
5.2483422
11
24.3031336
21
21.5877653
0
LINE
8
0
10
24.3031336
20
21.5877653
11
6.9734424
21
19.152236
0
LINE
8
0
10
6.9734424
20
19.152236
11
9.2697986
21
2.8128129
0
LINE
8
0
10
6.7368482
20
20.8356917
11
24.0665394
21
23.271221
0
LINE
8
0
10
24.0665394
20
23.271221
11
21.7701832
21
39.6106441
0
LINE
8
0
10
21.7701832
20
39.6106441
11
4.440492
21
37.1751148
0
LINE
8
0
10
4.440492
20
37.1751148
11
6.7368482
21
20.8356917
0
LINE
8
0
10
4.2038978
20
38.8585706
11
21.533589
21
41.2940999
0
LINE
8
0
10
21.533589
20
41.2940999
11
19.2372328
21
57.633523
0
LINE
8
0
10
19.2372328
20
57.633523
11
1.9075416
21
55.1979937
0
LINE
8
0
10
1.9075416
20
55.1979937
11
4.2038978
21
38.8585706
0
LINE
8
0
10
25.4603046
20
21.0237193
11
42.8644378
21
22.8529674
0
LINE
8
0
10
42.8644378
20
22.8529674
11
41.1397182
21
39.2625787
0
LINE
8
0
10
41.1397182
20
39.2625787
11
23.735585
21
37.4333306
0
LINE
8
0
10
23.735585
20
37.4333306
11
25.4603046
21
21.0237193
0
LINE
8
0
10
23.5578866
20
39.1240178
11
40.9620198
21
40.9532659
0
LINE
8
0
10
40.9620198
20
40.9532659
11
39.2373002
21
57.3628772
0
LINE
8
0
10
39.2373002
20
57.3628772
11
21.833167
21
55.5336291
0
LINE
8
0
10
21.833167
20
55.5336291
11
23.5578866
21
39.1240178
0
LINE
8
0
10
21.6554686
20
57.2243164
11
39.0596018
21
59.0535645
0
LINE
8
0
10
39.0596018
20
59.0535645
11
37.3348822
21
75.4631758
0
LINE
8
0
10
37.3348822
20
75.4631758
11
19.930749
21
73.6339277
0
LINE
8
0
10
19.930749
20
73.6339277
11
21.6554686
21
57.2243164
0
LINE
8
0
10
42.7521037
20
34.1334171
11
60.2094745
21
35.3541554
0
LINE
8
0
10
60.2094745
20
35.3541554
11
59.0584927
21
51.8139623
0
LINE
8
0
10
59.0584927
20
51.8139623
11
41.6011219
21
50.593224
0
LINE
8
0
10
41.6011219
20
50.593224
11
42.7521037
21
34.1334171
0
LINE
8
0
10
41.4825359
20
52.2890829
11
58.9399067
21
53.5098212
0
LINE
8
0
10
58.9399067
20
53.5098212
11
57.7889249
21
69.9696281
0
LINE
8
0
10
57.7889249
20
69.9696281
11
40.3315541
21
68.7488898
0
LINE
8
0
10
40.3315541
20
68.7488898
11
41.4825359
21
52.2890829
0
LINE
8
0
10
40.212968
20
70.4447486
11
57.6703388
21
71.6654869
0
LINE
8
0
10
57.6703388
20
71.6654869
11
56.519357
21
88.1252938
0
LINE
8
0
10
56.519357
20
88.1252938
11
39.0619862
21
86.9045555
0
LINE
8
0
10
39.0619862
20
86.9045555
11
40.212968
21
70.4447486
0
LINE
8
0
10
61.6879028
20
26.6464701
11
79.1772423
21
27.2572113
0
LINE
8
0
10
79.1772423
20
27.2572113
11
78.6014006
21
43.7471599
0
LINE
8
0
10
78.6014006
20
43.7471599
11
61.1120611
21
43.1364187
0
LINE
8
0
10
61.1120611
20
43.1364187
11
61.6879028
21
26.6464701
0
LINE
8
0
10
61.052732
20
44.8353832
11
78.5420715
21
45.4461244
0
LINE
8
0
10
78.5420715
20
45.4461244
11
77.9662298
21
61.936073
0
LINE
8
0
10
77.9662298
20
61.936073
11
60.4768903
21
61.3253318
0
LINE
8
0
10
60.4768903
20
61.3253318
11
61.052732
21
44.8353832
0
LINE
8
0
10
60.4175611
20
63.0242963
11
77.9069006
21
63.6350375
0
LINE
8
0
10
77.9069006
20
63.6350375
11
77.3310589
21
80.1249861
0
LINE
8
0
10
77.3310589
20
80.1249861
11
59.8417194
21
79.5142449
0
LINE
8
0
10
59.8417194
20
79.5142449
11
60.4175611
21
63.0242963
0
LINE
8
0
10
80.2556004
20
21.2315711
11
97.7556004
21
21.2315711
0
LINE
8
0
10
97.7556004
20
21.2315711
11
97.7556004
21
37.7315711
0
LINE
8
0
10
97.7556004
20
37.7315711
11
80.2556004
21
37.7315711
0
LINE
8
0
10
80.2556004
20
37.7315711
11
80.2556004
21
21.2315711
0
LINE
8
0
10
80.2556004
20
39.431571
11
97.7556004
21
39.431571
0
LINE
8
0
10
97.7556004
20
39.431571
11
97.7556004
21
55.931571
0
LINE
8
0
10
97.7556004
20
55.931571
11
80.2556004
21
55.931571
0
LINE
8
0
10
80.2556004
20
55.931571
11
80.2556004
21
39.431571
0
LINE
8
0
10
80.2556004
20
57.631571
11
97.7556004
21
57.631571
0
LINE
8
0
10
97.7556004
20
57.631571
11
97.7556004
21
74.131571
0
LINE
8
0
10
97.7556004
20
74.131571
11
80.2556004
21
74.131571
0
LINE
8
0
10
80.2556004
20
74.131571
11
80.2556004
21
57.631571
0
LINE
8
0
10
63.9764547
20
-3.5495314
11
81.2105904
21
-0.5106883
0
LINE
8
0
10
81.2105904
20
-0.5106883
11
78.3453955
21
15.7386396
0
LINE
8
0
10
78.3453955
20
15.7386396
11
61.1112598
21
12.6997965
0
LINE
8
0
10
61.1112598
20
12.6997965
11
63.9764547
21
-3.5495314
0
LINE
8
0
10
83.8385248
20
-0.2354638
11
100.7422268
21
-4.7647971
0
LINE
8
0
10
100.7422268
20
-4.7647971
11
105.012741
21
11.172979
0
LINE
8
0
10
105.012741
20
11.172979
11
88.109039
21
15.7023123
0
LINE
8
0
10
88.109039
20
15.7023123
11
83.8385248
21
-0.2354638
0
LINE
8
0
10
103.2402592
20
-5.6259724
11
116.646037
21
-16.8747555
0
LINE
8
0
10
116.646037
20
-16.8747555
11
127.2520326
21
-4.2350222
0
LINE
8
0
10
127.2520326
20
-4.2350222
11
113.8462548
21
7.0137609
0
LINE
8
0
10
113.8462548
20
7.0137609
11
103.2402592
21
-5.6259724
0
ENDSEC
0
EOF