0
SECTION
2
HEADER
9
$INSUNITS
70
4
0
ENDSEC
0
SECTION
2
TABLES
0
TABLE
2
LTYPE
0
LTYPE
72
65
70
64
2
CONTINUOUS
3
______
73
0
40
0
0
ENDTAB
0
TABLE
2
LAYER
0
ENDTAB
0
ENDSEC
0
SECTION
2
ENTITIES
0
LINE
8
0
10
-18.9075254
20
43.8834306
11
-10.7320445
21
-2.4820262
0
LINE
8
0
10
79.8483638
20
76.981571
11
99.0056004
21
76.981571
0
LINE
8
0
10
100.0056004
20
16.717268
11
100.0056004
21
75.981571
0
LINE
8
0
10
100.7079525
20
15.7625923
11
111.5996095
21
12.3668014
0
LINE
8
0
10
111.9390416
20
12.1829234
11
113.892053
21
10.5687197
0
LINE
8
0
10
123.9927259
20
2.2203075
11
130.6456004
21
-3.278429
0
LINE
8
0
10
130.6456004
20
-3.278429
11
130.5458474
21
-3.2784503
0
LINE
8
0
10
28.2161884
20
-3.3002795
11
-9.7470234
21
-3.308378
0
LINE
8
0
10
84.0886708
20
-3.2883607
11
81.9548181
21
-3.2888159
0
LINE
8
0
10
61.7449159
20
-3.8510792
11
62.0818863
21
-5.7621341
0
LINE
8
0
10
63.2403423
20
-6.5732938
11
81.7813832
21
-3.3040081
0
LINE
8
0
10
84.3477031
20
-3.3224349
11
100.7053027
21
-7.7054404
0
LINE
8
0
10
100.7053027
20
-7.7054404
11
101.1707797
21
-7.6086746
0
LINE
8
0
10
101.1707797
20
-7.6086746
11
101.1934885
21
-7.6289385
0
LINE
8
0
10
101.1934885
20
-7.6289385
11
115.7716479
21
-19.8614667
0
LINE
8
0
10
117.1804799
20
-19.7382099
11
130.8075772
21
-3.4980677
0
LINE
8
0
10
113.9545995
20
10.6432597
11
123.9870183
21
2.2250608
0
LINE
8
0
10
130.5458474
20
-3.2784503
11
130.8075772
21
-3.4980677
0
LINE
8
0
10
113.892053
20
10.5687197
11
113.9545995
21
10.6432597
0
LINE
8
0
10
79.8483638
20
76.981571
11
79.6930589
21
76.9569995
0
LINE
8
0
10
79.6930589
20
76.9569995
11
79.5500237
21
81.0529922
0
LINE
8
0
10
79.5500237
20
81.0529922
11
79.5151242
21
82.0523831
0
LINE
8
0
10
59.3352672
20
82.3482965
11
78.4808339
21
83.0168744
0
LINE
8
0
10
59.3352672
20
82.3482965
11
59.1809145
21
82.3183199
0
LINE
8
0
10
58.6348266
20
90.1277392
11
59.1809145
21
82.3183199
0
LINE
8
0
10
37.616225
20
89.6604175
11
57.5675061
21
91.0555468
0
LINE
8
0
10
36.6884175
20
88.5930969
11
37.4058958
21
78.3326806
0
LINE
8
0
10
37.4058958
20
78.3326806
11
37.3456156
21
78.3300025
0
LINE
8
0
10
18.3896905
20
76.3376546
11
37.3456156
21
78.3300025
0
LINE
8
0
10
17.4996971
20
75.2386042
11
18.9493936
21
61.4456635
0
LINE
8
0
10
0.2730633
20
57.8462913
11
18.0940448
21
60.3508669
0
LINE
8
0
10
-0.5780317
20
56.7168501
11
0.4650753
21
49.2947582
0
LINE
8
0
10
-18.0963658
20
45.0418866
11
-0.3515446
21
48.1707773
0
LINE
8
0
10
61.7418056
20
-3.8324081
11
57.7640459
21
21.5242624
0
LINE
8
0
10
56.6861171
20
22.3652262
11
27.5579614
21
19.7326931
0
LINE
8
0
10
26.6554259
20
18.614883
11
29.2085213
21
-2.1784102
0
ARC
8
0
10
-9.7472367
20
-2.308378
40
1
50
190.0000008
51
270.0122212
0
ARC
8
0
10
28.2159751
20
-2.3002795
40
1
50
270.0122212
51
6.9999972
0
ARC
8
0
10
27.6479721
20
18.7367523
40
1
50
95.1642226
51
186.9999972
0
ARC
8
0
10
56.7761278
20
21.3692854
40
1
50
8.9154621
51
95.1642226
0
ARC
8
0
10
62.7297237
20
-3.6774311
40
1
50
188.9154621
51
189.9999952
0
ARC
8
0
10
63.0666941
20
-5.588486
40
1
50
189.9999952
51
280.0000008
0
ARC
8
0
10
81.9550314
20
-4.2888159
40
1
50
90.0122212
51
100.0000008
0
ARC
8
0
10
84.0888841
20
-4.2883607
40
1
50
75.0000021
51
90.0122212
0
ARC
8
0
10
116.4144355
20
-19.0954223
40
1
50
229.9999988
51
319.9999988
0
ARC
8
0
10
124.6298059
20
2.9911052
40
1
50
229.9999988
51
230.425575
0
ARC
8
0
10
111.3019616
20
11.4121257
40
1
50
50.425575
51
72.6836145
0
ARC
8
0
10
101.0056004
20
16.717268
40
1
50
180
51
252.6836145
0
ARC
8
0
10
99.0056004
20
75.981571
40
1
50
0
51
90
0
ARC
8
0
10
78.5157334
20
82.0174836
40
1
50
2.0000002
51
92.0000002
0
ARC
8
0
10
57.6372626
20
90.0579827
40
1
50
4.0000017
51
94.0000013
0
ARC
8
0
10
37.6859815
20
88.6628534
40
1
50
94.0000013
51
184.0000017
0
ARC
8
0
10
18.494219
20
75.3431327
40
1
50
96.0000021
51
186.0000021
0
ARC
8
0
10
17.9548717
20
61.341135
40
1
50
277.9999997
51
6.0000021
0
ARC
8
0
10
0.4122364
20
56.8560232
40
1
50
97.9999997
51
187.9999997
0
ARC
8
0
10
-0.5251928
20
49.1555851
40
1
50
280.0000008
51
7.9999997
0
ARC
8
0
10
-17.9227176
20
44.0570788
40
1
50
100.0000008
51
190.0000008
0
LINE
8
0
10
-8.7573979
20
9.9301552
11
4.8329491
21
12.3265
0
LINE
8
0
10
4.8329491
20
12.3265
11
2.4366043
21
25.916847
0
LINE
8
0
10
2.4366043
20
25.916847
11
-11.1537427
21
23.5205022
0
LINE
8
0
10
-11.1537427
20
23.5205022
11
-8.7573979
21
9.9301552
0
LINE
8
0
10
-11.9177947
20
27.8536563
11
1.6725523
21
30.2500011
0
LINE
8
0
10
1.6725523
20
30.2500011
11
-0.7237925
21
43.8403481
0
LINE
8
0
10
-0.7237925
20
43.8403481
11
-14.3141395
21
41.4440033
0
LINE
8
0
10
-14.3141395
20
41.4440033
11
-11.9177947
21
27.8536563
0
LINE
8
0
10
10.9139108
20
4.407145
11
24.5796102
21
6.3277338
0
LINE
8
0
10
24.5796102
20
6.3277338
11
22.6590214
21
19.9934332
0
LINE
8
0
10
22.6590214
20
19.9934332
11
8.993322
21
18.0728444
0
LINE
8
0
10
8.993322
20
18.0728444
11
10.9139108
21
4.407145
0
LINE
8
0
10
8.3809604
20
22.4300238
11
22.0466598
21
24.3506126
0
LINE
8
0
10
22.0466598
20
24.3506126
11
20.126071
21
38.016312
0
LINE
8
0
10
20.126071
20
38.016312
11
6.4603716
21
36.0957232
0
LINE
8
0
10
6.4603716
20
36.0957232
11
8.3809604
21
22.4300238
0
LINE
8
0
10
5.84801
20
40.4529027
11
19.5137094
21
42.3734915
0
LINE
8
0
10
19.5137094
20
42.3734915
11
17.5931206
21
56.0391909
0
LINE
8
0
10
17.5931206
20
56.0391909
11
3.9274212
21
54.1186021
0
LINE
8
0
10
3.9274212
20
54.1186021
11
5.84801
21
40.4529027
0
LINE
8
0
10
27.1590567
20
22.5597015
11
40.8834589
21
24.0021943
0
LINE
8
0
10
40.8834589
20
24.0021943
11
39.4409661
21
37.7265965
0
LINE
8
0
10
39.4409661
20
37.7265965
11
25.7165639
21
36.2841037
0
LINE
8
0
10
25.7165639
20
36.2841037
11
27.1590567
21
22.5597015
0
LINE
8
0
10
25.2566387
20
40.66
11
38.9810409
21
42.1024928
0
LINE
8
0
10
38.9810409
20
42.1024928
11
37.5385481
21
55.826895
0
LINE
8
0
10
37.5385481
20
55.826895
11
23.8141459
21
54.3844022
0
LINE
8
0
10
23.8141459
20
54.3844022
11
25.2566387
21
40.66
0
LINE
8
0
10
23.3542207
20
58.7602986
11
37.0786229
21
60.2027914
0
LINE
8
0
10
37.0786229
20
60.2027914
11
35.6361301
21
73.9271936
0
LINE
8
0
10
35.6361301
20
73.9271936
11
21.9117279
21
72.4847008
0
LINE
8
0
10
21.9117279
20
72.4847008
11
23.3542207
21
58.7602986
0
LINE
8
0
10
44.5034259
20
35.6091781
11
58.2698098
21
36.5718174
0
LINE
8
0
10
58.2698098
20
36.5718174
11
57.3071705
21
50.3382013
0
LINE
8
0
10
57.3071705
20
50.3382013
11
43.5407866
21
49.375562
0
LINE
8
0
10
43.5407866
20
49.375562
11
44.5034259
21
35.6091781
0
LINE
8
0
10
43.2338581
20
53.7648439
11
57.000242
21
54.7274832
0
LINE
8
0
10
57.000242
20
54.7274832
11
56.0376027
21
68.4938671
0
LINE
8
0
10
56.0376027
20
68.4938671
11
42.2712188
21
67.5312278
0
LINE
8
0
10
42.2712188
20
67.5312278
11
43.2338581
21
53.7648439
0
LINE
8
0
10
41.9642902
20
71.9205096
11
55.7306741
21
72.8831489
0
LINE
8
0
10
55.7306741
20
72.8831489
11
54.7680348
21
86.6495328
0
LINE
8
0
10
54.7680348
20
86.6495328
11
41.0016509
21
85.6868935
0
LINE
8
0
10
41.0016509
20
85.6868935
11
41.9642902
21
71.9205096
0
LINE
8
0
10
63.4896615
20
28.0602118
11
77.2812549
21
28.5418248
0
LINE
8
0
10
77.2812549
20
28.5418248
11
76.7996419
21
42.3334182
0
LINE
8
0
10
76.7996419
20
42.3334182
11
63.0080485
21
41.8518052
0
LINE
8
0
10
63.0080485
20
41.8518052
11
63.4896615
21
28.0602118
0
LINE
8
0
10
62.8544907
20
46.2491249
11
76.6460841
21
46.7307379
0
LINE
8
0
10
76.6460841
20
46.7307379
11
76.1644711
21
60.5223313
0
LINE
8
0
10
76.1644711
20
60.5223313
11
62.3728777
21
60.0407183
0
LINE
8
0
10
62.3728777
20
60.0407183
11
62.8544907
21
46.2491249
0
LINE
8
0
10
62.2193198
20
64.438038
11
76.0109132
21
64.919651
0
LINE
8
0
10
76.0109132
20
64.919651
11
75.5293002
21
78.7112444
0
LINE
8
0
10
75.5293002
20
78.7112444
11
61.7377068
21
78.2296314
0
LINE
8
0
10
61.7377068
20
78.2296314
11
62.2193198
21
64.438038
0
LINE
8
0
10
82.1056004
20
22.5815711
11
95.9056004
21
22.5815711
0
LINE
8
0
10
95.9056004
20
22.5815711
11
95.9056004
21
36.3815711
0
LINE
8
0
10
95.9056004
20
36.3815711
11
82.1056004
21
36.3815711
0
LINE
8
0
10
82.1056004
20
36.3815711
11
82.1056004
21
22.5815711
0
LINE
8
0
10
82.1056004
20
40.781571
11
95.9056004
21
40.781571
0
LINE
8
0
10
95.9056004
20
40.781571
11
95.9056004
21
54.581571
0
LINE
8
0
10
95.9056004
20
54.581571
11
82.1056004
21
54.581571
0
LINE
8
0
10
82.1056004
20
54.581571
11
82.1056004
21
40.781571
0
LINE
8
0
10
82.1056004
20
58.981571
11
95.9056004
21
58.981571
0
LINE
8
0
10
95.9056004
20
58.981571
11
95.9056004
21
72.781571
0
LINE
8
0
10
95.9056004
20
72.781571
11
82.1056004
21
72.781571
0
LINE
8
0
10
82.1056004
20
72.781571
11
82.1056004
21
58.981571
0
LINE
8
0
10
65.563924
20
-1.8987918
11
79.154271
21
0.497553
0
LINE
8
0
10
79.154271
20
0.497553
11
76.7579262
21
14.0879
0
LINE
8
0
10
76.7579262
20
14.0879
11
63.1675792
21
11.6915552
0
LINE
8
0
10
63.1675792
20
11.6915552
11
65.563924
21
-1.8987918
0
LINE
8
0
10
85.9748933
20
0.5897208
11
99.3046697
21
-2.981982
0
LINE
8
0
10
99.3046697
20
-2.981982
11
102.8763725
21
10.3477944
0
LINE
8
0
10
102.8763725
20
10.3477944
11
89.5465961
21
13.9194972
0
LINE
8
0
10
89.5465961
20
13.9194972
11
85.9748933
21
0.5897208
0
LINE
8
0
10
105.5252047
20
-5.7809695
11
116.0966181
21
-14.6514385
0
LINE
8
0
10
116.0966181
20
-14.6514385
11
124.9670871
21
-4.0800251
0
LINE
8
0
10
124.9670871
20
-4.0800251
11
114.3956737
21
4.7904439
0
LINE
8
0
10
114.3956737
20
4.7904439
11
105.5252047
21
-5.7809695
0
ENDSEC
0
EOF