0
SECTION
2
HEADER
9
$INSUNITS
70
4
0
ENDSEC
0
SECTION
2
TABLES
0
TABLE
2
LTYPE
0
LTYPE
72
65
70
64
2
CONTINUOUS
3
______
73
0
40
0
0
ENDTAB
0
TABLE
2
LAYER
0
ENDTAB
0
ENDSEC
0
SECTION
2
ENTITIES
0
LINE
8
0
10
-15.7824117
20
25.7915777
11
-12.8327051
21
-2.2730058
0
LINE
8
0
10
-17.9984151
20
46.8754419
11
-15.7825051
21
25.7924673
0
LINE
8
0
10
87.8975597
20
73.0280398
11
137.8319582
21
69.5362866
0
LINE
8
0
10
138.7597658
20
68.468966
11
133.0913548
21
-12.5930887
0
LINE
8
0
10
133.0913548
20
-12.5930887
11
133.0509133
21
-12.5876478
0
LINE
8
0
10
57.8870887
20
-3.1357614
11
-11.837714
21
-3.1684772
0
LINE
8
0
10
58.8820798
20
-4.0312328
11
59.7487251
21
-12.276812
0
LINE
8
0
10
60.8477755
20
-13.1668054
11
82.1130306
21
-10.9317371
0
LINE
8
0
10
82.1130306
20
-10.9317371
11
82.4788649
21
-10.8204383
0
LINE
8
0
10
82.4788649
20
-10.8204383
11
99.1833793
21
-16.5722639
0
LINE
8
0
10
99.1833793
20
-16.5722639
11
99.5619745
21
-16.6260012
0
LINE
8
0
10
99.5619745
20
-16.6260012
11
114.1535309
21
-30.7169034
0
LINE
8
0
10
115.5675291
20
-30.692222
11
133.0509133
21
-12.5876478
0
LINE
8
0
10
86.9679254
20
74.0605034
11
87.1136949
21
78.2347956
0
LINE
8
0
10
67.744089
20
79.9118066
11
86.1492036
21
79.2690859
0
LINE
8
0
10
66.7789885
20
80.9111974
11
66.7789885
21
87.8180339
0
LINE
8
0
10
41.7789885
20
88.8180339
11
65.7789885
21
88.8180339
0
LINE
8
0
10
40.7789885
20
78.4332688
11
40.7789885
21
87.8180339
0
LINE
8
0
10
21.601359
20
76.7978825
11
39.813888
21
77.433878
0
LINE
8
0
10
20.6368677
20
75.7635922
11
21.1232808
21
61.8345441
0
LINE
8
0
10
2.1729103
20
59.5419479
11
20.1936465
21
60.8020805
0
LINE
8
0
10
1.2451027
20
58.4746273
11
1.7727166
21
50.9293964
0
LINE
8
0
10
-17.1084217
20
47.9744923
11
0.879681
21
49.865118
0
ARC
8
0
10
-11.8381832
20
-2.1684773
40
1
50
186.0000021
51
270.0268832
0
ARC
8
0
10
57.8875579
20
-4.1357613
40
1
50
6.0000021
51
90.0268832
0
ARC
8
0
10
60.743247
20
-12.1722835
40
1
50
186.0000021
51
276.0000021
0
ARC
8
0
10
114.8481893
20
-29.9975636
40
1
50
225.9999988
51
315.9999988
0
ARC
8
0
10
137.7622017
20
68.5387225
40
1
50
355.9999987
51
85.9999987
0
ARC
8
0
10
87.9673162
20
74.0256039
40
1
50
177.9999998
51
265.9999987
0
ARC
8
0
10
86.1143041
20
78.2696951
40
1
50
357.9999998
51
87.9999998
0
ARC
8
0
10
67.7789885
20
80.9111974
40
1
50
180
51
267.9999998
0
ARC
8
0
10
65.7789885
20
87.8180339
40
1
50
0
51
90
0
ARC
8
0
10
41.7789885
20
87.8180339
40
1
50
90
51
180
0
ARC
8
0
10
39.7789885
20
78.4332688
40
1
50
272.0000002
51
0
0
ARC
8
0
10
21.6362585
20
75.7984917
40
1
50
92.0000002
51
182.0000002
0
ARC
8
0
10
20.12389
20
61.7996446
40
1
50
274.0000013
51
2.0000002
0
ARC
8
0
10
2.2426668
20
58.5443838
40
1
50
94.0000013
51
184.0000013
0
ARC
8
0
10
0.7751525
20
50.8596399
40
1
50
276.0000021
51
4.0000013
0
ARC
8
0
10
-17.0038932
20
46.9799704
40
1
50
96.0000021
51
186.0000021
0
LINE
8
0
10
-8.0433727
20
10.516851
11
5.6810295
21
11.9593438
0
LINE
8
0
10
5.6810295
20
11.9593438
11
4.2385367
21
25.683746
0
LINE
8
0
10
4.2385367
20
25.683746
11
-9.4858655
21
24.2412532
0
LINE
8
0
10
-9.4858655
20
24.2412532
11
-8.0433727
21
10.516851
0
LINE
8
0
10
-9.9457907
20
28.6171495
11
3.7786115
21
30.0596423
0
LINE
8
0
10
3.7786115
20
30.0596423
11
2.3361187
21
43.7840445
0
LINE
8
0
10
2.3361187
20
43.7840445
11
-11.3882835
21
42.3415517
0
LINE
8
0
10
-11.3882835
20
42.3415517
11
-9.9457907
21
28.6171495
0
LINE
8
0
10
11.194752
20
3.6350935
11
24.9611359
21
4.5977328
0
LINE
8
0
10
24.9611359
20
4.5977328
11
23.9984966
21
18.3641167
0
LINE
8
0
10
23.9984966
20
18.3641167
11
10.2321127
21
17.4014774
0
LINE
8
0
10
10.2321127
20
17.4014774
11
11.194752
21
3.6350935
0
LINE
8
0
10
9.9251842
20
21.7907592
11
23.6915681
21
22.7533985
0
LINE
8
0
10
23.6915681
20
22.7533985
11
22.7289288
21
36.5197824
0
LINE
8
0
10
22.7289288
20
36.5197824
11
8.9625449
21
35.5571431
0
LINE
8
0
10
8.9625449
20
35.5571431
11
9.9251842
21
21.7907592
0
LINE
8
0
10
8.6556164
20
39.9464249
11
22.4220003
21
40.9090642
0
LINE
8
0
10
22.4220003
20
40.9090642
11
21.459361
21
54.6754481
0
LINE
8
0
10
21.459361
20
54.6754481
11
7.6929771
21
53.7128088
0
LINE
8
0
10
7.6929771
20
53.7128088
11
8.6556164
21
39.9464249
0
LINE
8
0
10
28.6665838
20
20.6102272
11
42.4581772
21
21.0918402
0
LINE
8
0
10
42.4581772
20
21.0918402
11
41.9765642
21
34.8834336
0
LINE
8
0
10
41.9765642
20
34.8834336
11
28.1849708
21
34.4018206
0
LINE
8
0
10
28.1849708
20
34.4018206
11
28.6665838
21
20.6102272
0
LINE
8
0
10
28.031413
20
38.7991403
11
41.8230064
21
39.2807533
0
LINE
8
0
10
41.8230064
20
39.2807533
11
41.3413934
21
53.0723467
0
LINE
8
0
10
41.3413934
20
53.0723467
11
27.5498
21
52.5907337
0
LINE
8
0
10
27.5498
20
52.5907337
11
28.031413
21
38.7991403
0
LINE
8
0
10
27.3962422
20
56.9880534
11
41.1878356
21
57.4696664
0
LINE
8
0
10
41.1878356
20
57.4696664
11
40.7062226
21
71.2612598
0
LINE
8
0
10
40.7062226
20
71.2612598
11
26.9146292
21
70.7796468
0
LINE
8
0
10
26.9146292
20
70.7796468
11
27.3962422
21
56.9880534
0
LINE
8
0
10
46.8789885
20
32.4180339
11
60.6789885
21
32.4180339
0
LINE
8
0
10
60.6789885
20
32.4180339
11
60.6789885
21
46.2180339
0
LINE
8
0
10
60.6789885
20
46.2180339
11
46.8789885
21
46.2180339
0
LINE
8
0
10
46.8789885
20
46.2180339
11
46.8789885
21
32.4180339
0
LINE
8
0
10
46.8789885
20
50.6180339
11
60.6789885
21
50.6180339
0
LINE
8
0
10
60.6789885
20
50.6180339
11
60.6789885
21
64.4180339
0
LINE
8
0
10
60.6789885
20
64.4180339
11
46.8789885
21
64.4180339
0
LINE
8
0
10
46.8789885
20
64.4180339
11
46.8789885
21
50.6180339
0
LINE
8
0
10
46.8789885
20
68.8180339
11
60.6789885
21
68.8180339
0
LINE
8
0
10
60.6789885
20
68.8180339
11
60.6789885
21
82.6180339
0
LINE
8
0
10
60.6789885
20
82.6180339
11
46.8789885
21
82.6180339
0
LINE
8
0
10
46.8789885
20
82.6180339
11
46.8789885
21
68.8180339
0
LINE
8
0
10
65.2923854
20
23.5630436
11
79.0839788
21
23.0814306
0
LINE
8
0
10
79.0839788
20
23.0814306
11
79.5655918
21
36.873024
0
LINE
8
0
10
79.5655918
20
36.873024
11
65.7739984
21
37.354637
0
LINE
8
0
10
65.7739984
20
37.354637
11
65.2923854
21
23.5630436
0
LINE
8
0
10
65.9275562
20
41.7519567
11
79.7191496
21
41.2703437
0
LINE
8
0
10
79.7191496
20
41.2703437
11
80.2007626
21
55.0619371
0
LINE
8
0
10
80.2007626
20
55.0619371
11
66.4091692
21
55.5435501
0
LINE
8
0
10
66.4091692
20
55.5435501
11
65.9275562
21
41.7519567
0
LINE
8
0
10
66.562727
20
59.9408698
11
80.3543204
21
59.4592568
0
LINE
8
0
10
80.3543204
20
59.4592568
11
80.8359334
21
73.2508502
0
LINE
8
0
10
80.8359334
20
73.2508502
11
67.04434
21
73.7324632
0
LINE
8
0
10
67.04434
20
73.7324632
11
66.562727
21
59.9408698
0
LINE
8
0
10
83.4808061
20
16.7991663
11
97.24719
21
15.836527
0
LINE
8
0
10
97.24719
20
15.836527
11
98.2098293
21
29.6029109
0
LINE
8
0
10
98.2098293
20
29.6029109
11
84.4434454
21
30.5655502
0
LINE
8
0
10
84.4434454
20
30.5655502
11
83.4808061
21
16.7991663
0
LINE
8
0
10
84.7503739
20
34.954832
11
98.5167578
21
33.9921927
0
LINE
8
0
10
98.5167578
20
33.9921927
11
99.4793971
21
47.7585766
0
LINE
8
0
10
99.4793971
20
47.7585766
11
85.7130132
21
48.7212159
0
LINE
8
0
10
85.7130132
20
48.7212159
11
84.7503739
21
34.954832
0
LINE
8
0
10
86.0199417
20
53.1104977
11
99.7863256
21
52.1478584
0
LINE
8
0
10
99.7863256
20
52.1478584
11
100.7489649
21
65.9142423
0
LINE
8
0
10
100.7489649
20
65.9142423
11
86.982581
21
66.8768816
0
LINE
8
0
10
86.982581
20
66.8768816
11
86.0199417
21
53.1104977
0
LINE
8
0
10
65.2717606
20
-6.4676746
11
78.9961628
21
-5.0251818
0
LINE
8
0
10
78.9961628
20
-5.0251818
11
77.55367
21
8.6992204
0
LINE
8
0
10
77.55367
20
8.6992204
11
63.8292678
21
7.2567276
0
LINE
8
0
10
63.8292678
20
7.2567276
11
65.2717606
21
-6.4676746
0
LINE
8
0
10
85.8065997
20
-5.4090211
11
98.854756
21
-9.9018616
0
LINE
8
0
10
98.854756
20
-9.9018616
11
103.3475965
21
3.1462947
0
LINE
8
0
10
103.3475965
20
3.1462947
11
90.2994402
21
7.6391352
0
LINE
8
0
10
90.2994402
20
7.6391352
11
85.8065997
21
-5.4090211
0
LINE
8
0
10
104.8648906
20
-13.1279535
11
114.7917799
21
-22.714239
0
LINE
8
0
10
114.7917799
20
-22.714239
11
124.3780654
21
-12.7873497
0
LINE
8
0
10
124.3780654
20
-12.7873497
11
114.4511761
21
-3.2010642
0
LINE
8
0
10
114.4511761
20
-3.2010642
11
104.8648906
21
-13.1279535
0
ENDSEC
0
EOF