0
SECTION
2
HEADER
9
$INSUNITS
70
4
0
ENDSEC
0
SECTION
2
TABLES
0
TABLE
2
LTYPE
0
LTYPE
72
65
70
64
2
CONTINUOUS
3
______
73
0
40
0
0
ENDTAB
0
TABLE
2
LAYER
0
ENDTAB
0
ENDSEC
0
SECTION
2
ENTITIES
0
LINE
8
0
10
-15.7824117
20
25.7915777
11
-12.8327051
21
-2.2730058
0
LINE
8
0
10
-17.9984151
20
46.8754419
11
-15.7825051
21
25.7924673
0
LINE
8
0
10
87.8975597
20
73.0280398
11
137.8319582
21
69.5362866
0
LINE
8
0
10
138.7597658
20
68.468966
11
133.0913548
21
-12.5930887
0
LINE
8
0
10
133.0913548
20
-12.5930887
11
133.0509133
21
-12.5876478
0
LINE
8
0
10
57.8870887
20
-3.1357614
11
-11.837714
21
-3.1684772
0
LINE
8
0
10
58.8820798
20
-4.0312328
11
59.7487251
21
-12.276812
0
LINE
8
0
10
60.8477755
20
-13.1668054
11
82.1130306
21
-10.9317371
0
LINE
8
0
10
82.1130306
20
-10.9317371
11
82.4788649
21
-10.8204383
0
LINE
8
0
10
82.4788649
20
-10.8204383
11
99.1833793
21
-16.5722639
0
LINE
8
0
10
99.1833793
20
-16.5722639
11
99.5619745
21
-16.6260012
0
LINE
8
0
10
99.5619745
20
-16.6260012
11
114.1535309
21
-30.7169034
0
LINE
8
0
10
115.5675291
20
-30.692222
11
133.0509133
21
-12.5876478
0
LINE
8
0
10
86.9679254
20
74.0605034
11
87.1136949
21
78.2347956
0
LINE
8
0
10
67.744089
20
79.9118066
11
86.1492036
21
79.2690859
0
LINE
8
0
10
66.7789885
20
80.9111974
11
66.7789885
21
87.8180339
0
LINE
8
0
10
41.7789885
20
88.8180339
11
65.7789885
21
88.8180339
0
LINE
8
0
10
40.7789885
20
78.4332688
11
40.7789885
21
87.8180339
0
LINE
8
0
10
21.601359
20
76.7978825
11
39.813888
21
77.433878
0
LINE
8
0
10
20.6368677
20
75.7635922
11
21.1232808
21
61.8345441
0
LINE
8
0
10
2.1729103
20
59.5419479
11
20.1936465
21
60.8020805
0
LINE
8
0
10
1.2451027
20
58.4746273
11
1.7727166
21
50.9293964
0
LINE
8
0
10
-17.1084217
20
47.9744923
11
0.879681
21
49.865118
0
ARC
8
0
10
-11.8381832
20
-2.1684773
40
1
50
186.0000021
51
270.0268832
0
ARC
8
0
10
57.8875579
20
-4.1357613
40
1
50
6.0000021
51
90.0268832
0
ARC
8
0
10
60.743247
20
-12.1722835
40
1
50
186.0000021
51
276.0000021
0
ARC
8
0
10
114.8481893
20
-29.9975636
40
1
50
225.9999988
51
315.9999988
0
ARC
8
0
10
137.7622017
20
68.5387225
40
1
50
355.9999987
51
85.9999987
0
ARC
8
0
10
87.9673162
20
74.0256039
40
1
50
177.9999998
51
265.9999987
0
ARC
8
0
10
86.1143041
20
78.2696951
40
1
50
357.9999998
51
87.9999998
0
ARC
8
0
10
67.7789885
20
80.9111974
40
1
50
180
51
267.9999998
0
ARC
8
0
10
65.7789885
20
87.8180339
40
1
50
0
51
90
0
ARC
8
0
10
41.7789885
20
87.8180339
40
1
50
90
51
180
0
ARC
8
0
10
39.7789885
20
78.4332688
40
1
50
272.0000002
51
0
0
ARC
8
0
10
21.6362585
20
75.7984917
40
1
50
92.0000002
51
182.0000002
0
ARC
8
0
10
20.12389
20
61.7996446
40
1
50
274.0000013
51
2.0000002
0
ARC
8
0
10
2.2426668
20
58.5443838
40
1
50
94.0000013
51
184.0000013
0
ARC
8
0
10
0.7751525
20
50.8596399
40
1
50
276.0000021
51
4.0000013
0
ARC
8
0
10
-17.0038932
20
46.9799704
40
1
50
96.0000021
51
186.0000021
0
LINE
8
0
10
-8.5773687
20
9.8574208
11
6.3404597
21
11.4253478
0
LINE
8
0
10
6.3404597
20
11.4253478
11
4.7725327
21
26.3431762
0
LINE
8
0
10
4.7725327
20
26.3431762
11
-10.1452957
21
24.7752492
0
LINE
8
0
10
-10.1452957
20
24.7752492
11
-8.5773687
21
9.8574208
0
LINE
8
0
10
-10.4797867
20
27.9577193
11
4.4380417
21
29.5256463
0
LINE
8
0
10
4.4380417
20
29.5256463
11
2.8701147
21
44.4434747
0
LINE
8
0
10
2.8701147
20
44.4434747
11
-12.0477137
21
42.8755477
0
LINE
8
0
10
-12.0477137
20
42.8755477
11
-10.4797867
21
27.9577193
0
LINE
8
0
10
10.6380675
20
2.9947012
11
25.6015282
21
4.0410483
0
LINE
8
0
10
25.6015282
20
4.0410483
11
24.5551811
21
19.004509
0
LINE
8
0
10
24.5551811
20
19.004509
11
9.5917204
21
17.9581619
0
LINE
8
0
10
9.5917204
20
17.9581619
11
10.6380675
21
2.9947012
0
LINE
8
0
10
9.3684997
20
21.1503669
11
24.3319604
21
22.196714
0
LINE
8
0
10
24.3319604
20
22.196714
11
23.2856133
21
37.1601747
0
LINE
8
0
10
23.2856133
20
37.1601747
11
8.3221526
21
36.1138276
0
LINE
8
0
10
8.3221526
20
36.1138276
11
9.3684997
21
21.1503669
0
LINE
8
0
10
8.0989319
20
39.3060326
11
23.0623926
21
40.3523797
0
LINE
8
0
10
23.0623926
20
40.3523797
11
22.0160455
21
55.3158404
0
LINE
8
0
10
22.0160455
20
55.3158404
11
7.0525848
21
54.2694933
0
LINE
8
0
10
7.0525848
20
54.2694933
11
8.0989319
21
39.3060326
0
LINE
8
0
10
28.087889
20
19.989653
11
43.0787514
21
20.5131454
0
LINE
8
0
10
43.0787514
20
20.5131454
11
42.555259
21
35.5040078
0
LINE
8
0
10
42.555259
20
35.5040078
11
27.5643966
21
34.9805154
0
LINE
8
0
10
27.5643966
20
34.9805154
11
28.087889
21
19.989653
0
LINE
8
0
10
27.4527182
20
38.1785661
11
42.4435806
21
38.7020585
0
LINE
8
0
10
42.4435806
20
38.7020585
11
41.9200882
21
53.6929209
0
LINE
8
0
10
41.9200882
20
53.6929209
11
26.9292258
21
53.1694285
0
LINE
8
0
10
26.9292258
20
53.1694285
11
27.4527182
21
38.1785661
0
LINE
8
0
10
26.8175474
20
56.3674792
11
41.8084098
21
56.8909716
0
LINE
8
0
10
41.8084098
20
56.8909716
11
41.2849174
21
71.881834
0
LINE
8
0
10
41.2849174
20
71.881834
11
26.294055
21
71.3583416
0
LINE
8
0
10
26.294055
20
71.3583416
11
26.8175474
21
56.3674792
0
LINE
8
0
10
46.2789885
20
31.8180339
11
61.2789885
21
31.8180339
0
LINE
8
0
10
61.2789885
20
31.8180339
11
61.2789885
21
46.8180339
0
LINE
8
0
10
61.2789885
20
46.8180339
11
46.2789885
21
46.8180339
0
LINE
8
0
10
46.2789885
20
46.8180339
11
46.2789885
21
31.8180339
0
LINE
8
0
10
46.2789885
20
50.0180339
11
61.2789885
21
50.0180339
0
LINE
8
0
10
61.2789885
20
50.0180339
11
61.2789885
21
65.0180339
0
LINE
8
0
10
61.2789885
20
65.0180339
11
46.2789885
21
65.0180339
0
LINE
8
0
10
46.2789885
20
65.0180339
11
46.2789885
21
50.0180339
0
LINE
8
0
10
46.2789885
20
68.2180339
11
61.2789885
21
68.2180339
0
LINE
8
0
10
61.2789885
20
68.2180339
11
61.2789885
21
83.2180339
0
LINE
8
0
10
61.2789885
20
83.2180339
11
46.2789885
21
83.2180339
0
LINE
8
0
10
46.2789885
20
83.2180339
11
46.2789885
21
68.2180339
0
LINE
8
0
10
64.6718112
20
22.9843488
11
79.6626736
21
22.4608564
0
LINE
8
0
10
79.6626736
20
22.4608564
11
80.186166
21
37.4517188
0
LINE
8
0
10
80.186166
20
37.4517188
11
65.1953036
21
37.9752112
0
LINE
8
0
10
65.1953036
20
37.9752112
11
64.6718112
21
22.9843488
0
LINE
8
0
10
65.306982
20
41.1732619
11
80.2978444
21
40.6497695
0
LINE
8
0
10
80.2978444
20
40.6497695
11
80.8213368
21
55.6406319
0
LINE
8
0
10
80.8213368
20
55.6406319
11
65.8304744
21
56.1641243
0
LINE
8
0
10
65.8304744
20
56.1641243
11
65.306982
21
41.1732619
0
LINE
8
0
10
65.9421528
20
59.362175
11
80.9330152
21
58.8386826
0
LINE
8
0
10
80.9330152
20
58.8386826
11
81.4565076
21
73.829545
0
LINE
8
0
10
81.4565076
20
73.829545
11
66.4656452
21
74.3530374
0
LINE
8
0
10
66.4656452
20
74.3530374
11
65.9421528
21
59.362175
0
LINE
8
0
10
82.8404138
20
16.2424818
11
97.8038745
21
15.1961347
0
LINE
8
0
10
97.8038745
20
15.1961347
11
98.8502216
21
30.1595954
0
LINE
8
0
10
98.8502216
20
30.1595954
11
83.8867609
21
31.2059425
0
LINE
8
0
10
83.8867609
20
31.2059425
11
82.8404138
21
16.2424818
0
LINE
8
0
10
84.1099816
20
34.3981475
11
99.0734423
21
33.3518004
0
LINE
8
0
10
99.0734423
20
33.3518004
11
100.1197894
21
48.3152611
0
LINE
8
0
10
100.1197894
20
48.3152611
11
85.1563287
21
49.3616082
0
LINE
8
0
10
85.1563287
20
49.3616082
11
84.1099816
21
34.3981475
0
LINE
8
0
10
85.3795494
20
52.5538132
11
100.3430101
21
51.5074661
0
LINE
8
0
10
100.3430101
20
51.5074661
11
101.3893572
21
66.4709268
0
LINE
8
0
10
101.3893572
20
66.4709268
11
86.4258965
21
67.5172739
0
LINE
8
0
10
86.4258965
20
67.5172739
11
85.3795494
21
52.5538132
0
LINE
8
0
10
64.7377646
20
-7.1271048
11
79.655593
21
-5.5591778
0
LINE
8
0
10
79.655593
20
-5.5591778
11
78.087666
21
9.3586506
0
LINE
8
0
10
78.087666
20
9.3586506
11
63.1698376
21
7.7907236
0
LINE
8
0
10
63.1698376
20
7.7907236
11
64.7377646
21
-7.1271048
0
LINE
8
0
10
85.0439476
20
-5.7809914
11
99.2267263
21
-10.6645137
0
LINE
8
0
10
99.2267263
20
-10.6645137
11
104.1102486
21
3.518265
0
LINE
8
0
10
104.1102486
20
3.518265
11
89.9274699
21
8.4017873
0
LINE
8
0
10
89.9274699
20
8.4017873
11
85.0439476
21
-5.7809914
0
LINE
8
0
10
104.0164917
20
-13.1427623
11
114.8065887
21
-23.5626379
0
LINE
8
0
10
114.8065887
20
-23.5626379
11
125.2264643
21
-12.7725409
0
LINE
8
0
10
125.2264643
20
-12.7725409
11
114.4363673
21
-2.3526653
0
LINE
8
0
10
114.4363673
20
-2.3526653
11
104.0164917
21
-13.1427623
0
ENDSEC
0
EOF