0
SECTION
2
HEADER
9
$INSUNITS
70
4
0
ENDSEC
0
SECTION
2
TABLES
0
TABLE
2
LTYPE
0
LTYPE
72
65
70
64
2
CONTINUOUS
3
______
73
0
40
0
0
ENDTAB
0
TABLE
2
LAYER
0
ENDTAB
0
ENDSEC
0
SECTION
2
ENTITIES
0
LINE
8
0
10
-18.9075254
20
43.8834306
11
-10.7319522
21
-2.4825495
0
LINE
8
0
10
79.8483638
20
76.981571
11
99.0056004
21
76.981571
0
LINE
8
0
10
100.0056004
20
16.717268
11
100.0056004
21
75.981571
0
LINE
8
0
10
100.7079525
20
15.7625923
11
111.5996095
21
12.3668014
0
LINE
8
0
10
111.9390416
20
12.1829234
11
113.892053
21
10.5687197
0
LINE
8
0
10
123.9927259
20
2.2203075
11
130.6456004
21
-3.278429
0
LINE
8
0
10
130.6456004
20
-3.278429
11
130.5457745
21
-3.2783891
0
LINE
8
0
10
83.9826793
20
-3.2597963
11
82.124218
21
-3.2590542
0
LINE
8
0
10
58.4165809
20
15.1186178
11
57.8040589
21
18.6102264
0
LINE
8
0
10
56.7145714
20
19.43196
11
30.7350863
21
16.7014061
0
LINE
8
0
10
29.8505238
20
15.5595786
11
32.4922646
21
-2.1785251
0
LINE
8
0
10
31.5027632
20
-3.3258306
11
-9.7475548
21
-3.3089012
0
LINE
8
0
10
58.4005451
20
15.1157903
11
58.4165809
21
15.1186178
0
LINE
8
0
10
58.4005451
20
15.1157903
11
62.0818863
21
-5.7621342
0
LINE
8
0
10
63.2403423
20
-6.5732938
11
81.9501705
21
-3.2742463
0
LINE
8
0
10
84.241099
20
-3.2938704
11
100.7053027
21
-7.7054404
0
LINE
8
0
10
100.7053027
20
-7.7054404
11
101.1707797
21
-7.6086746
0
LINE
8
0
10
101.1707797
20
-7.6086746
11
101.1934885
21
-7.6289385
0
LINE
8
0
10
101.1934885
20
-7.6289385
11
115.7716479
21
-19.8614667
0
LINE
8
0
10
117.1804799
20
-19.7382099
11
130.8075772
21
-3.4980677
0
LINE
8
0
10
113.9545995
20
10.6432597
11
123.9870183
21
2.2250608
0
LINE
8
0
10
130.5457745
20
-3.2783891
11
130.8075772
21
-3.4980677
0
LINE
8
0
10
113.892053
20
10.5687197
11
113.9545995
21
10.6432597
0
LINE
8
0
10
79.8483638
20
76.981571
11
79.6930589
21
76.9569995
0
LINE
8
0
10
79.6930589
20
76.9569995
11
79.5500237
21
81.0529922
0
LINE
8
0
10
79.5500237
20
81.0529922
11
79.5151242
21
82.0523831
0
LINE
8
0
10
59.3352672
20
82.3482965
11
78.4808339
21
83.0168744
0
LINE
8
0
10
59.3352672
20
82.3482965
11
59.1809145
21
82.3183199
0
LINE
8
0
10
58.6348266
20
90.1277392
11
59.1809145
21
82.3183199
0
LINE
8
0
10
37.616225
20
89.6604175
11
57.5675061
21
91.0555468
0
LINE
8
0
10
36.6884175
20
88.5930969
11
37.4058958
21
78.3326806
0
LINE
8
0
10
37.4058958
20
78.3326806
11
37.3456156
21
78.3300025
0
LINE
8
0
10
18.3896905
20
76.3376546
11
37.3456156
21
78.3300025
0
LINE
8
0
10
17.4996971
20
75.2386042
11
18.9493936
21
61.4456635
0
LINE
8
0
10
0.2730633
20
57.8462913
11
18.0940448
21
60.3508669
0
LINE
8
0
10
-0.5780317
20
56.7168501
11
0.4650753
21
49.2947582
0
LINE
8
0
10
-18.0963658
20
45.0418866
11
-0.3515446
21
48.1707773
0
ARC
8
0
10
-9.7471444
20
-2.3089013
40
1
50
190.0000008
51
269.9764858
0
ARC
8
0
10
31.5031736
20
-2.3258307
40
1
50
269.9764858
51
8.4708145
0
ARC
8
0
10
30.8396148
20
15.7068842
40
1
50
96.0000021
51
188.4708145
0
ARC
8
0
10
56.8190999
20
18.4374381
40
1
50
9.9499763
51
96.0000021
0
ARC
8
0
10
63.0666941
20
-5.588486
40
1
50
190.0000008
51
280.0000008
0
ARC
8
0
10
82.1238187
20
-4.2590541
40
1
50
89.9771218
51
100.0000008
0
ARC
8
0
10
83.98228
20
-4.2597962
40
1
50
75.0000021
51
89.9771218
0
ARC
8
0
10
116.4144355
20
-19.0954223
40
1
50
229.9999988
51
319.9999988
0
ARC
8
0
10
124.6298059
20
2.9911052
40
1
50
229.9999988
51
230.425575
0
ARC
8
0
10
111.3019616
20
11.4121257
40
1
50
50.425575
51
72.6836145
0
ARC
8
0
10
101.0056004
20
16.717268
40
1
50
180
51
252.6836145
0
ARC
8
0
10
99.0056004
20
75.981571
40
1
50
0
51
90
0
ARC
8
0
10
78.5157334
20
82.0174836
40
1
50
2.0000002
51
92.0000002
0
ARC
8
0
10
57.6372626
20
90.0579827
40
1
50
4.0000017
51
94.0000013
0
ARC
8
0
10
37.6859815
20
88.6628534
40
1
50
94.0000013
51
184.0000017
0
ARC
8
0
10
18.494219
20
75.3431327
40
1
50
96.0000021
51
186.0000021
0
ARC
8
0
10
17.9548717
20
61.341135
40
1
50
277.9999997
51
6.0000021
0
ARC
8
0
10
0.4122364
20
56.8560232
40
1
50
97.9999997
51
187.9999997
0
ARC
8
0
10
-0.5251928
20
49.1555851
40
1
50
280.0000008
51
7.9999997
0
ARC
8
0
10
-17.9227176
20
44.0570788
40
1
50
100.0000008
51
190.0000008
0
LINE
8
0
10
-9.2440936
20
9.2350816
11
5.5280227
21
11.8398043
0
LINE
8
0
10
5.5280227
20
11.8398043
11
2.9233
21
26.6119206
0
LINE
8
0
10
2.9233
20
26.6119206
11
-11.8488163
21
24.0071979
0
LINE
8
0
10
-11.8488163
20
24.0071979
11
-9.2440936
21
9.2350816
0
LINE
8
0
10
-12.4044904
20
27.1585827
11
2.3676259
21
29.7633054
0
LINE
8
0
10
2.3676259
20
29.7633054
11
-0.2370968
21
44.5354217
0
LINE
8
0
10
-0.2370968
20
44.5354217
11
-15.0092131
21
41.930699
0
LINE
8
0
10
-15.0092131
20
41.930699
11
-12.4044904
21
27.1585827
0
LINE
8
0
10
10.4032538
20
3.7294803
11
25.2572749
21
5.8170768
0
LINE
8
0
10
25.2572749
20
5.8170768
11
23.1696784
21
20.6710979
0
LINE
8
0
10
23.1696784
20
20.6710979
11
8.3156573
21
18.5835014
0
LINE
8
0
10
8.3156573
20
18.5835014
11
10.4032538
21
3.7294803
0
LINE
8
0
10
7.8703034
20
21.7523591
11
22.7243245
21
23.8399556
0
LINE
8
0
10
22.7243245
20
23.8399556
11
20.636728
21
38.6939767
0
LINE
8
0
10
20.636728
20
38.6939767
11
5.7827069
21
36.6063802
0
LINE
8
0
10
5.7827069
20
36.6063802
11
7.8703034
21
21.7523591
0
LINE
8
0
10
5.337353
20
39.775238
11
20.1913741
21
41.8628345
0
LINE
8
0
10
20.1913741
20
41.8628345
11
18.1037776
21
56.7168556
0
LINE
8
0
10
18.1037776
20
56.7168556
11
3.2497565
21
54.6292591
0
LINE
8
0
10
3.2497565
20
54.6292591
11
5.337353
21
39.775238
0
LINE
8
0
10
26.6250607
20
21.9002713
11
41.5428891
21
23.4681983
0
LINE
8
0
10
41.5428891
20
23.4681983
11
39.9749621
21
38.3860267
0
LINE
8
0
10
39.9749621
20
38.3860267
11
25.0571337
21
36.8180997
0
LINE
8
0
10
25.0571337
20
36.8180997
11
26.6250607
21
21.9002713
0
LINE
8
0
10
24.7226427
20
40.0005698
11
39.6404711
21
41.5684968
0
LINE
8
0
10
39.6404711
20
41.5684968
11
38.0725441
21
56.4863252
0
LINE
8
0
10
38.0725441
20
56.4863252
11
23.1547157
21
54.9183982
0
LINE
8
0
10
23.1547157
20
54.9183982
11
24.7226427
21
40.0005698
0
LINE
8
0
10
22.8202247
20
58.1008684
11
37.7380531
21
59.6687954
0
LINE
8
0
10
37.7380531
20
59.6687954
11
36.1701261
21
74.5866238
0
LINE
8
0
10
36.1701261
20
74.5866238
11
21.2522977
21
73.0186968
0
LINE
8
0
10
21.2522977
20
73.0186968
11
22.8202247
21
58.1008684
0
LINE
8
0
10
43.9467414
20
34.9687858
11
58.9102021
21
36.0151329
0
LINE
8
0
10
58.9102021
20
36.0151329
11
57.863855
21
50.9785936
0
LINE
8
0
10
57.863855
20
50.9785936
11
42.9003943
21
49.9322465
0
LINE
8
0
10
42.9003943
20
49.9322465
11
43.9467414
21
34.9687858
0
LINE
8
0
10
42.6771736
20
53.1244516
11
57.6406343
21
54.1707987
0
LINE
8
0
10
57.6406343
20
54.1707987
11
56.5942872
21
69.1342594
0
LINE
8
0
10
56.5942872
20
69.1342594
11
41.6308265
21
68.0879123
0
LINE
8
0
10
41.6308265
20
68.0879123
11
42.6771736
21
53.1244516
0
LINE
8
0
10
41.4076057
20
71.2801173
11
56.3710664
21
72.3264644
0
LINE
8
0
10
56.3710664
20
72.3264644
11
55.3247193
21
87.2899251
0
LINE
8
0
10
55.3247193
20
87.2899251
11
40.3612586
21
86.243578
0
LINE
8
0
10
40.3612586
20
86.243578
11
41.4076057
21
71.2801173
0
LINE
8
0
10
62.9109667
20
27.4396376
11
77.9018291
21
27.96313
0
LINE
8
0
10
77.9018291
20
27.96313
11
77.3783367
21
42.9539924
0
LINE
8
0
10
77.3783367
20
42.9539924
11
62.3874743
21
42.4305
0
LINE
8
0
10
62.3874743
20
42.4305
11
62.9109667
21
27.4396376
0
LINE
8
0
10
62.2757959
20
45.6285507
11
77.2666583
21
46.1520431
0
LINE
8
0
10
77.2666583
20
46.1520431
11
76.7431659
21
61.1429055
0
LINE
8
0
10
76.7431659
20
61.1429055
11
61.7523035
21
60.6194131
0
LINE
8
0
10
61.7523035
20
60.6194131
11
62.2757959
21
45.6285507
0
LINE
8
0
10
61.640625
20
63.8174638
11
76.6314874
21
64.3409562
0
LINE
8
0
10
76.6314874
20
64.3409562
11
76.107995
21
79.3318186
0
LINE
8
0
10
76.107995
20
79.3318186
11
61.1171326
21
78.8083262
0
LINE
8
0
10
61.1171326
20
78.8083262
11
61.640625
21
63.8174638
0
LINE
8
0
10
81.5056004
20
21.9815711
11
96.5056004
21
21.9815711
0
LINE
8
0
10
96.5056004
20
21.9815711
11
96.5056004
21
36.9815711
0
LINE
8
0
10
96.5056004
20
36.9815711
11
81.5056004
21
36.9815711
0
LINE
8
0
10
81.5056004
20
36.9815711
11
81.5056004
21
21.9815711
0
LINE
8
0
10
81.5056004
20
40.181571
11
96.5056004
21
40.181571
0
LINE
8
0
10
96.5056004
20
40.181571
11
96.5056004
21
55.181571
0
LINE
8
0
10
96.5056004
20
55.181571
11
81.5056004
21
55.181571
0
LINE
8
0
10
81.5056004
20
55.181571
11
81.5056004
21
40.181571
0
LINE
8
0
10
81.5056004
20
58.381571
11
96.5056004
21
58.381571
0
LINE
8
0
10
96.5056004
20
58.381571
11
96.5056004
21
73.381571
0
LINE
8
0
10
96.5056004
20
73.381571
11
81.5056004
21
73.381571
0
LINE
8
0
10
81.5056004
20
73.381571
11
81.5056004
21
58.381571
0
LINE
8
0
10
65.0772283
20
-2.5938654
11
79.8493446
21
0.0108573
0
LINE
8
0
10
79.8493446
20
0.0108573
11
77.2446219
21
14.7829736
0
LINE
8
0
10
77.2446219
20
14.7829736
11
62.4725056
21
12.1782509
0
LINE
8
0
10
62.4725056
20
12.1782509
11
65.0772283
21
-2.5938654
0
LINE
8
0
10
85.2400464
20
0.1654567
11
99.7289338
21
-3.7168289
0
LINE
8
0
10
99.7289338
20
-3.7168289
11
103.6112194
21
10.7720585
0
LINE
8
0
10
103.6112194
20
10.7720585
11
89.122332
21
14.6543441
0
LINE
8
0
10
89.122332
20
14.6543441
11
85.2400464
21
0.1654567
0
LINE
8
0
10
104.6799055
20
-5.8549236
11
116.1705722
21
-15.4967377
0
LINE
8
0
10
116.1705722
20
-15.4967377
11
125.8123863
21
-4.006071
0
LINE
8
0
10
125.8123863
20
-4.006071
11
114.3217196
21
5.6357431
0
LINE
8
0
10
114.3217196
20
5.6357431
11
104.6799055
21
-5.8549236
0
ENDSEC
0
EOF