<?xml version="1.0" encoding="UTF-8" standalone="no"?>
<svg
   width="250"
   height="250"
   viewBox="0 0 250 250"
   version="1.1"
   id="logo"
   inkscape:version="1.3 (0e150ed, 2023-07-21)"
   sodipodi:docname="miro-logo-2020-15-reduced-wo-wings-engrave.svg"
   xmlns:inkscape="http://www.inkscape.org/namespaces/inkscape"
   xmlns:sodipodi="http://sodipodi.sourceforge.net/DTD/sodipodi-0.dtd"
   xmlns="http://www.w3.org/2000/svg"
   xmlns:svg="http://www.w3.org/2000/svg">
  <defs
     id="defs31" />
  <sodipodi:namedview
     id="namedview29"
     pagecolor="#ffffff"
     bordercolor="#666666"
     borderopacity="1.0"
     inkscape:pageshadow="2"
     inkscape:pageopacity="0.0"
     inkscape:pagecheckerboard="0"
     inkscape:blackoutopacity="0.0"
     showgrid="true"
     inkscape:zoom="1.8730159"
     inkscape:cx="-151.89407"
     inkscape:cy="235.7161"
     inkscape:current-layer="logo"
     objecttolerance="10.0"
     gridtolerance="10.0"
     guidetolerance="10.0"
     width="250px"
     inkscape:showpageshadow="0"
     inkscape:deskcolor="#505050"
     inkscape:window-width="2952"
     inkscape:window-height="1362"
     inkscape:window-x="509"
     inkscape:window-y="69"
     inkscape:window-maximized="0" />
  <path
     id="trace10"
     style="opacity:1;fill:none;fill-opacity:1;stroke:#000000;stroke-width:5.227;stroke-linecap:butt;stroke-linejoin:miter;stroke-miterlimit:4;stroke-dasharray:none;stroke-dashoffset:0;stroke-opacity:1"
     d="m 48.620878,135.49872 h 41.34791 c 20.209302,0 28.842552,23.7605 49.943112,23.56272 h 8.10244 M 48.620878,123.11958 h 48.69547 c 31.566282,0 39.476872,13.12037 62.999472,13.12037 h 8.4791 M 48.620878,110.74047 h 68.841202 c 21.07272,0.20143 32.23698,-0.24682 53.97333,-0.24682 h 14.61898 M 48.620878,98.361328 h 82.428482 c 16.23638,0 34.02207,-15.54502 50.74228,-15.54502 h 17.767 m -150.937762,3.1659 h 43.11698 c 40.096002,0 60.819962,-32.72402 89.745282,-32.72402 h 27.71135 M -48.106562,135.49872 h -41.34789 c -20.209308,0 -28.842538,23.7605 -49.943098,23.56272 h -8.10244 m 99.393428,-35.94186 h -48.69545 c -31.566278,0 -39.476858,13.12037 -62.999468,13.12037 h -8.4791 m 120.174018,-25.49948 h -68.841178 c -21.07272,0.20143 -32.23698,-0.24682 -53.97333,-0.24682 h -14.61898 M -48.106562,98.361328 h -82.428448 c -16.23639,0 -34.02209,-15.54502 -50.74229,-15.54502 h -17.767 m 150.937738,3.1659 h -43.11696 c -40.095988,0 -60.819968,-32.72402 -89.745278,-32.72402 h -27.71135 m 417.92823,-3.02166 c 1.7219,-3.23841 5.74302,-4.46778 8.98142,-2.74589 3.23841,1.72189 4.46777,5.74301 2.74588,8.98141 -1.72188,3.23841 -5.74299,4.46778 -8.9814,2.74589 -3.2384,-1.72189 -4.46779,-5.743 -2.7459,-8.98141 z m -9.07802,28.64228 c 2.15583,-2.96726 6.30891,-3.62504 9.27617,-1.4692 2.96724,2.15583 3.62502,6.30891 1.46919,9.27615 -2.15583,2.96725 -6.3089,3.62503 -9.27616,1.4692 -2.96724,-2.15583 -3.62504,-6.30891 -1.4692,-9.27615 z m -12.97592,27.100112 c 2.54782,-2.63834 6.75203,-2.71173 9.39037,-0.16391 2.63834,2.54781 2.71171,6.75201 0.1639,9.39035 -2.54781,2.63834 -6.75202,2.71172 -9.39035,0.16391 -2.63833,-2.54781 -2.71173,-6.75202 -0.16392,-9.39035 z m -16.62123,25.03047 c 2.89019,-2.25807 7.06371,-1.74563 9.32178,1.14457 2.25808,2.89021 1.74563,7.06371 -1.14457,9.32178 -2.89021,2.25807 -7.0637,1.74564 -9.32178,-1.14457 -2.25807,-2.89019 -1.74564,-7.06371 1.14457,-9.32178 z m -19.94305,22.47365 c 3.17633,-1.83385 7.23791,-0.74556 9.07177,2.43079 1.83386,3.17633 0.74555,7.2379 -2.43078,9.07176 -3.17634,1.83386 -7.2379,0.74556 -9.07176,-2.43077 -1.83386,-3.17634 -0.74557,-7.23791 2.43077,-9.07178 z m -22.8767,19.47941 c 3.40065,-1.37396 7.27124,0.26901 8.64519,3.66967 1.37395,3.40065 -0.26902,7.27122 -3.66967,8.64517 -3.40065,1.37396 -7.27122,-0.269 -8.64517,-3.66965 -1.37396,-3.40066 0.269,-7.27124 3.66965,-8.64519 z m -25.36506,16.10601 c 3.55876,-0.8873 7.16303,1.27836 8.05033,4.83713 0.8873,3.55877 -1.27836,7.16302 -4.83714,8.05033 -3.55876,0.8873 -7.163012,-1.27835 -8.050322,-4.83713 -0.8873,-3.55877 1.27835,-7.16303 4.837132,-8.05033 z M 75.028328,201.4876 c 3.64763,-0.38338 6.91542,2.26282 7.2988,5.91044 0.38339,3.64763 -2.26281,6.9154 -5.91044,7.29878 -3.64763,0.38339 -6.91541,-2.2628 -7.29879,-5.91043 -0.38338,-3.64763 2.26281,-6.91541 5.91043,-7.29879 z m -28.82188,8.49053 c 3.66549,0.128 6.53319,3.20324 6.40519,6.86872 -0.128,3.66548 -3.20324,6.53318 -6.86872,6.40518 -3.66549,-0.12801 -6.53318,-3.20324 -6.40518,-6.86872 0.128,-3.66548 3.20322,-6.53319 6.86871,-6.40518 z m -29.72305,4.39666 c 3.612,0.6369 6.0238,4.08131 5.38691,7.69332 -0.63689,3.61199 -4.08131,6.02379 -7.6933,5.38689 -3.612,-0.63689 -6.0237896,-4.08129 -5.3868996,-7.69329 0.63688,-3.612 4.0812896,-6.02381 7.6932896,-5.38692 z m -30.04568,0.21724 c 3.4882,1.13339 5.3971704,4.87994 4.2637804,8.36814 -1.1333904,3.48822 -4.8799304,5.39717 -8.3681504,4.26378 -3.4882,-1.13338 -5.39716,-4.87992 -4.26377,-8.36814 1.13339,-3.4882 4.87993,-5.39717 8.36814,-4.26378 z m -29.78352,-3.96643 c 3.29652,1.60782 4.66549,5.58359 3.05767,8.88011 -1.60782,3.29653 -5.58358,4.66548 -8.88011,3.05766 -3.29653,-1.60783 -4.66549,-5.58358 -3.05767,-8.8801 1.60783,-3.29652 5.58359,-4.66549 8.88011,-3.05767 z m -28.94164,-8.07289 c 3.04068,2.05095 3.843,6.17855 1.79203,9.21923 -2.05095,3.04068 -6.17855,3.84299 -9.21923,1.79203 -3.04067,-2.05096 -3.84299,-6.17855 -1.79204,-9.21922 2.05097,-3.04068 6.17856,-3.84301 9.21924,-1.79204 z m -27.53646,-12.02224 c 2.72565,2.45419 2.94572,6.65328 0.49154,9.37892 -2.454198,2.72565 -6.653278,2.94571 -9.378928,0.49153 -2.72564,-2.45419 -2.9457,-6.65327 -0.49152,-9.37892 2.45418,-2.72564 6.65326,-2.94571 9.378908,-0.49153 z m -25.595288,-15.73756 c 2.35756,2.80963 1.99109,6.99849 -0.81855,9.35606 -2.80964,2.35756 -6.99848,1.99108 -9.35604,-0.81856 -2.35757,-2.80964 -1.99109,-6.99847 0.81854,-9.35604 2.80964,-2.35756 6.99848,-1.9911 9.35605,0.81854 z m -23.15596,-19.14658 c 1.94359,3.1104 0.9977,7.20749 -2.1127,9.15108 -3.11041,1.9436 -7.20748,0.9977 -9.15108,-2.1127 -1.94359,-3.1104 -0.99771,-7.20748 2.11269,-9.15107 3.1104,-1.9436 7.20748,-0.99772 9.15109,2.11269 z m -20.26593,-22.18294 c 1.4918,3.35063 -0.0151,7.27619 -3.36572,8.76799 -3.35063,1.4918 -7.27619,-0.0151 -8.76799,-3.36572 -1.49179,-3.35062 0.0151,-7.27618 3.36571,-8.76798 3.35064,-1.49179 7.2762,0.0151 8.768,3.36571 z m -16.98143,-24.78753 c 1.01096,3.52564 -1.02759,7.20329 -4.55324,8.21425 -3.52563,1.01096 -7.20327,-1.0276 -8.21423,-4.55323 -1.01097,-3.52564 1.02759,-7.20328 4.55323,-8.21423 3.52563,-1.01097 7.20327,1.02758 8.21424,4.55321 z m -13.36641,-26.909652 c 0.51045,3.63203 -2.0201,6.99017 -5.65213,7.50061 -3.63202,0.51046 -6.99015,-2.02009 -7.5006,-5.65211 -0.51045,-3.63203 2.02009,-6.99017 5.65212,-7.50062 3.63202,-0.51044 6.99016,2.02009 7.50061,5.65212 z m -9.49123,-30.02742 c 0,3.66772 -2.97328,6.641 -6.641,6.641 -3.66772,0 -6.64099,-2.97328 -6.64099,-6.641 0,-3.66772 2.97327,-6.64099 6.64099,-6.64099 3.66772,0 6.641,2.97327 6.641,6.64099 z m 177.507088,22.68307 h 62.3461 c 2.5585,0 4.61824,2.05973 4.61824,4.61823 v 62.346122 c 0,2.5585 -2.05974,4.61823 -4.61824,4.61823 h -62.34611 c -2.5585,0 -4.61822,-2.05973 -4.61822,-4.61823 V 79.040088 c 0,-2.5585 2.05972,-4.61823 4.61823,-4.61823 z m 66.96434,9.2716 h 12.31527 v 4.57752 h -12.31527 z m 0,12.37911 h 12.31527 v 4.577522 h -12.31527 z m 0,12.379142 h 12.31527 v 4.57752 h -12.31527 z m 0,12.37912 h 12.31527 v 4.57752 h -12.31527 z m 0,12.37914 h 12.31527 v 4.57752 h -12.31527 z m -83.89784,-49.516512 h 12.31529 v 4.57751 h -12.31529 z m 0,12.37911 h 12.31529 v 4.577512 h -12.31529 z m 0,12.379142 h 12.31529 v 4.57751 h -12.31529 z m 0,12.37912 h 12.31529 v 4.57751 h -12.31529 z m 0,12.37914 h 12.31529 v 4.57751 h -12.31529 z m 74.41704,-2.595 c 0,3.45677 -2.80226,6.25903 -6.25902,6.25903 -3.45677,0 -6.25904,-2.80226 -6.25904,-6.25903 0,-3.45676 2.80227,-6.25902 6.25904,-6.25902 3.45677,0 6.25902,2.80226 6.25902,6.25902 z m 10.38386,-307.35764 -44.3396296,46.19271 m -57.0165504,13.05523 c 0,3.99767 -3.20512,7.23844 -7.1588,7.23844 -3.9537,0 -7.15881,-3.24075 -7.15881,-7.23844 0,-3.99771 3.20511,-7.23846 7.15881,-7.23846 3.95371,0 7.1588,3.24075 7.1588,7.23846 z m -7.15876,12.86516 v -5.65699 m 103.03824,5.94296 c 0,0 12.08417,-6.98636 12.13187,-16.69161 0.0637,-12.92458 -14.53483,-20.9469 -14.53483,-20.9469 l 32.86734,-34.06978 7.09647,6.12457 c 0,0 -15.69403,14.78396 -12.90602,29.33704 2.78798,14.55306 10.7449,12.0357 14.18411,24.21098 2.1726,7.69128 -3.42935,12.08513 -3.42935,12.08513 m -52.08841,-66.79926 -38.96545,42.5701 m -30.87627,24.22916 c 0,0 14.75711,-24.6006 43.31074,-24.61931 28.55365,-0.0187 43.31074,24.61931 43.31074,24.61931 h 35.29108 c 17.89124,0 15.88341,15.512608 15.97618,24.610748 h -177.26215 c 0,-7.36452 -2.27019,-24.290538 15.97618,-24.610748 z M -199.6805,-42.764622 c 1.32709,-5.62821 0.77138,-8.99606 -6.24371,-14.11522 -7.01511,-5.11915 -8.91946,-7.67045 -10.74665,-13.53286 -1.74567,-5.60086 -0.97928,-12.28083 -0.37258,-20.3927 3.82308,0.68963 7.2597,1.77333 12.42864,4.09879 4.4836,2.01712 6.26995,3.26491 9.97116,4.48099 3.14814,1.03436 9.40434,-4.02696 11.35792,-7.95957 2.53248,-5.09788 2.90391,-8.45396 -2.65273,-15.127868 -5.55664,-6.67392 -6.78209,-9.61229 -7.12606,-15.7432 -0.32862,-5.85739 2.04202,-12.14941 4.60661,-19.86908 3.53989,1.60021 6.60898,3.48848 11.05567,7.00311 3.85711,3.04861 5.28567,4.69399 8.57911,6.7751 2.80131,1.77014 10.10203,-1.61459 12.95481,-4.95279 3.69809,-4.32735 4.87592,-7.49183 1.11256,-15.31835 -3.76337,-7.82653 -4.23606,-10.97491 -3.07609,-17.00491 1.10823,-5.76097 4.94027,-11.2859 9.30824,-18.14822 3.0434,2.41436 5.56001,4.99342 9.01651,9.48545 2.99823,3.89641 3.9829,5.84025 6.67013,8.66098 2.28568,2.39925 10.19101,0.89505 13.77107,-1.64759 4.64088,-3.29607 6.55415,-6.07827 4.81082,-14.5858 -1.74333,-8.50755 -1.43479,-11.67623 1.15924,-17.24197 2.4783,-5.31742 7.54085,-9.74235 13.448968,-15.33383 2.36354,3.08305 4.17603,6.19749 6.43407,11.39622 1.95867,4.50945 2.44013,6.63459 4.35922,10.025 1.63233,2.88379 9.66593,3.35077 13.75756,1.75689 5.30404,-2.06617 7.83745,-4.29845 8.21921,-12.97437 0.38176,-8.67594 1.45294,-11.67398 5.32471,-16.44009 3.69904,-4.55347 9.68704,-7.61178 16.77934,-11.59548 1.54124,3.56595 2.5404,7.02811 3.46392,12.62031 0.8011,4.85075 0.75034,7.02916 1.78566,10.78493 0.88061,3.19457 8.55842,5.60459 12.91506,5.05551 5.64757,-0.71178 8.64848,-2.25962 11.13232,-10.58115 2.48385,-8.32155 4.25313,-10.96831 9.1693404,-14.64761 4.69689,-3.51514 11.24954,-5.02254 19.0986496,-7.15843 0.62609,3.83399 0.75172,7.43524 0.28507,13.08396 -0.40476,4.89975 -0.98468,7.00017 -0.89553,10.89501 0.0759,3.31285 6.93522,7.52069 11.29438,8.0495 5.65084,0.6855 8.93841,-0.0847 13.37467,-7.55037 4.43626,-7.46573 6.79703,-9.60172 12.46146,-11.97251 5.41172,-2.26501 12.13417,-2.13066 20.26713,-2.29005 -0.32678,3.87101 -1.08225,7.39438 -2.91095,12.75921 -1.58622,4.65353 -2.66037,6.54939 -3.52274,10.34861 -0.7335,3.23152 4.89412,8.98363 8.99312,10.55846 5.31358,2.04147 8.68972,2.09542 14.8111,-4.06463 6.12138,-6.16005 8.93137,-7.65658 15.002712,-8.576 5.80047,-0.87839 12.28766,0.8896 20.21442,2.71633 -1.25997,3.67477 -2.85104,6.90794 -5.9316,11.66565 -2.67209,4.1269 -4.17574,5.70395 -5.93767,9.17863 -1.49865,2.95547 2.55812,9.90525 6.14997,12.43122 4.65616,3.27443 7.91745,4.14924 15.35507,-0.33395 7.43763,-4.48323 10.52754,-5.25011 16.63995,-4.66275 5.8397,0.56115 11.70074,3.85624 18.94366,7.55902 -2.11725,3.25711 -4.44801,6.00525 -8.59481,9.86915 -3.59697,3.3516 -5.43951,4.51483 -7.99485,7.45559 -2.17349,2.50134 0.0677,10.22989 2.93626,13.55492 3.71833,4.30997 6.66809,5.95305 14.97381,3.41683 8.30573,-2.53623 11.48937,-2.52725 17.27453,-0.46852 5.52706,1.96689 10.40878,6.59054 16.53144,11.94625 -2.84694,2.64318 -5.77698,4.74072 -10.74015,7.47798 -4.3051,2.37435 -6.3755,3.05367 -9.57026,5.28331 -2.71737,1.89648 -2.7184,9.357088 -0.45441,13.861848 2.26398,4.50476 5.01691,7.39815 13.69026,6.96174 8.67335,-0.4364 11.7589,0.34787 16.86822,3.75392 4.88138,3.2541 8.48963,8.92772 13.1231,15.61365 -3.40509,1.86999 -6.75785,3.19054 -12.23832,4.63624 -4.75382,1.25402 -6.92734,1.40848 -10.56903,2.79266 -3.0975,1.17736 -4.87249,9.07098 -3.79316,13.42067 m -367.80791,-81.589178 c -0.87613,3.35003 -4.57282,8.03573 -7.28724,8.21257 -3.50398,0.22829 -11.79817,-7.41853 -15.29193,-10.10646 m 58.58535,-35.41999 c -1.66586,3.03565 -6.39267,6.67962 -9.0684,6.18985 -3.45403,-0.63221 -9.63545,-10.06923 -12.36914,-13.52732 m 65.449118,-20.08059 c -2.3552,2.53838 -7.82733,4.92103 -10.30313,3.79417 -3.195938,-1.45461 -6.892118,-12.11321 -8.701018,-16.13307 m 68.369218,-3.53121 c -2.90263,1.88813 -8.79035,2.86592 -10.91704,1.16986 -2.74529,-2.18937 -3.73352,-13.42728 -4.50861,-17.76672 m 67.16964,13.23095 c -3.2751496,1.12413 -9.2236896,0.6381 -10.8731196,-1.52494 -2.12921995,-2.7922 -0.34994995,-13.93229 -0.0446,-18.32981 m 61.9227596,29.19586 c -3.45033,0.29239 -9.10125,-1.62815 -10.17404,-4.12785 -1.38485,-3.22679 3.05471,-13.59779 4.42222,-17.78841 m 52.944562,43.40153 c -3.41761,-0.55698 -8.43042,-3.79629 -8.86191,-6.48203 -0.55703,-3.46694 6.2753,-12.44394 8.62251,-16.17516 m 40.77616,54.99203 c -3.17896,-1.37279 -7.25159,-5.7357 -7.01579,-8.44564 0.30434,-3.49819 9.11776,-10.54027 12.30324,-13.58727 m 26.15078,63.26891 c -2.74876,-2.10586 -5.63581,-7.32948 -4.74694,-9.90034 1.14739,-3.31866 11.41084,-8.00148 15.24263,-10.18066 m 9.94965,67.733468 c -2.15291,-2.71205 -3.68044,-8.48162 -2.19205,-10.75848 1.9213,-2.93915 13.01634,-4.98058 17.26356,-6.16061 m -412.64759,-6.2013 c -0.0336,3.46254 -2.47742,8.90764 -5.06699,9.74042 -3.3428,1.07504 -13.24997,-4.32081 -17.2933,-6.07663 M -1.1553575e-5,-248.08643 A 248.08643,248.08643 0 0 1 248.08643,-1.5535749e-6 M -1.1553575e-5,248.08643 A 248.08643,248.08643 0 0 0 248.08643,-1.5535749e-6 M -1.1553575e-5,248.08643 A 248.08643,248.08643 0 0 1 -248.08643,-1.5535749e-6 M -1.1553575e-5,-248.08643 A 248.08643,248.08643 0 0 0 -248.08643,-1.5535749e-6 v 0 M 15.217218,-48.078342 l -5.9451696,9.5112 m -228.9811984,36.4106904 50.56437,-21.5316004 -31.31336,49.50147 81.92059,-49.50147 -29.31464,49.50147 81.394608,-49.50147 -29.73541,49.50147 95.90344045,-49.50147 -30.57697045,49.50147 98.10506,-49.50147 -34.25883,49.50147 c 0,0 15.29959,-8.31442 27.30453,-12.16043 12.39229,-3.9701296 20.61287,-6.5911996 26.35808,-4.1195696 4.44714,1.9131896 6.9463,7.2979596 3.63192,11.8155196 -3.23533,4.40982 -10.94531,5.54688 -14.91939,2.85643 -4.49457,-3.04283 -6.14621,-7.87321 0.40164,-17.9172996 8.79564,-13.49207 24.678182,-25.2956004 41.624342,-29.9761204 -8.29588,12.98397 -4.33934,20.3289604 4.01366,18.9261904 10.71482,-1.79941 21.15478,-12.8609304 45.98121,-18.9261904 -23.01078,9.90877 -32.45667,21.6719604 -32.46354,32.7243204 -0.007,9.0725796 5.68021,16.6029096 19.75242,16.7168696 19.33084,0.15665 36.7622,-18.9124496 43.71818,-28.8322196 8.12967,-11.5935704 1.34009,-20.6742304 -7.8377,-20.6089704 -6.44279,0.0457 -11.44232,3.65908 -11.75393,8.78332 -0.31116,5.1176604 2.66732,10.9955104 11.41798,11.1228904 7.91723,0.11524 15.64251,-2.55932 29.50851,-12.8947604" />
</svg>
