<?xml version="1.0" standalone="no"?>
 <!DOCTYPE svg PUBLIC "-//W3C//DTD SVG 1.1//EN" 
 "http://www.w3.org/Graphics/SVG/1.1/DTD/svg11.dtd"> 
<svg
  xmlns:svg="http://www.w3.org/2000/svg"
  xmlns="http://www.w3.org/2000/svg"
  xmlns:xlink="http://www.w3.org/1999/xlink"
  version="1.1"
  width="297.0022mm" height="210.0072mm" viewBox="0.0000 0.0000 297.0022 210.0072">
<title>SVG Image created as nightliner-User_4.svg date 2023/12/03 18:51:26 </title>
  <desc>Image generated by PCBNEW </desc>
<g style="fill:#000000; fill-opacity:1.0000;stroke:#000000; stroke-opacity:1.0000;
stroke-linecap:round; stroke-linejoin:round;"
 transform="translate(0 0) scale(1 1)">
</g>
<g style="fill:#000000; fill-opacity:0.0; 
stroke:#000000; stroke-width:0.0000; stroke-opacity:1; 
stroke-linecap:round; stroke-linejoin:round;">
</g>
<g style="fill:#000000; fill-opacity:0.0; 
stroke:#000000; stroke-width:0.1500; stroke-opacity:1; 
stroke-linecap:round; stroke-linejoin:round;">
<path d="M46.4116 95.3441
L44.3240 80.4901
" />
<path d="M45.1751 79.3606
L61.0194 77.1339
" />
<path d="M63.3853 93.9684
L47.5410 96.1952
" />
<path d="M62.1488 77.9850
L64.2364 92.8390
" />
<path d="M57.6257 92.5058
L52.6744 93.2016
" />
<path d="M52.6744 93.2016
L52.2429 90.1318
" />
<path d="M52.2429 90.1318
L57.1943 89.4359
" />
<path d="M57.1943 89.4359
L57.6257 92.5058
" />
<path d="M45.1751 79.3606 A1.0000 1.0000 0.0 0 0 44.3240 80.4901" />
<path d="M46.4116 95.3441 A1.0000 1.0000 0.0 0 0 47.5410 96.1952" />
<path d="M62.1488 77.9850 A1.0000 1.0000 0.0 0 0 61.0194 77.1339" />
<path d="M63.3853 93.9684 A1.0000 1.0000 0.0 0 0 64.2364 92.8390" />
<path d="M61.3551 58.9436
L59.7872 44.0258
" />
<path d="M60.6772 42.9267
L76.5896 41.2543
" />
<path d="M78.3665 58.1612
L62.4542 59.8336
" />
<path d="M77.6886 42.1443
L79.2565 57.0621
" />
<path d="M72.6615 56.4984
L67.6889 57.0210
" />
<path d="M67.6889 57.0210
L67.3648 53.9380
" />
<path d="M67.3648 53.9380
L72.3374 53.4154
" />
<path d="M72.3374 53.4154
L72.6615 56.4984
" />
<path d="M60.6772 42.9267 A1.0000 1.0000 0.0 0 0 59.7872 44.0258" />
<path d="M61.3551 58.9436 A1.0000 1.0000 0.0 0 0 62.4542 59.8336" />
<path d="M77.6886 42.1443 A1.0000 1.0000 0.0 0 0 76.5896 41.2543" />
<path d="M78.3665 58.1612 A1.0000 1.0000 0.0 0 0 79.2565 57.0621" />
<path d="M79.9380 45.7122
L78.8916 30.7487
" />
<path d="M79.8194 29.6814
L95.7804 28.5653
" />
<path d="M96.9663 45.5239
L81.0053 46.6400
" />
<path d="M96.8478 29.4931
L97.8941 44.4566
" />
<path d="M91.3228 43.6631
L86.3349 44.0118
" />
<path d="M86.3349 44.0118
L86.1187 40.9194
" />
<path d="M86.1187 40.9194
L91.1065 40.5706
" />
<path d="M91.1065 40.5706
L91.3228 43.6631
" />
<path d="M79.8194 29.6814 A1.0000 1.0000 0.0 0 0 78.8916 30.7487" />
<path d="M79.9380 45.7122 A1.0000 1.0000 0.0 0 0 81.0053 46.6400" />
<path d="M96.8478 29.4931 A1.0000 1.0000 0.0 0 0 95.7804 28.5653" />
<path d="M96.9663 45.5239 A1.0000 1.0000 0.0 0 0 97.8941 44.4566" />
<path d="M26.1450 89.9896
L23.5403 75.2175
" />
<path d="M24.3514 74.0590
L40.1084 71.2806
" />
<path d="M43.0604 88.0224
L27.3035 90.8007
" />
<path d="M41.2668 72.0918
L43.8715 86.8639
" />
<path d="M37.2532 86.7616
L32.3292 87.6299
" />
<path d="M32.3292 87.6299
L31.7909 84.5770
" />
<path d="M31.7909 84.5770
L36.7149 83.7087
" />
<path d="M36.7149 83.7087
L37.2532 86.7616
" />
<path d="M24.3514 74.0590 A1.0000 1.0000 0.0 0 0 23.5403 75.2175" />
<path d="M26.1450 89.9896 A1.0000 1.0000 0.0 0 0 27.3035 90.8007" />
<path d="M41.2668 72.0918 A1.0000 1.0000 0.0 0 0 40.1084 71.2806" />
<path d="M43.0604 88.0224 A1.0000 1.0000 0.0 0 0 43.8715 86.8639" />
<path d="M143.5575 121.7784
L153.1994 110.2878
" />
<path d="M154.6082 110.1645
L166.8649 120.4491
" />
<path d="M155.9375 133.4719
L143.6808 123.1873
" />
<path d="M166.9882 121.8579
L157.3463 133.3486
" />
<path d="M153.1705 128.2129
L149.3403 124.9990
" />
<path d="M149.3403 124.9990
L151.3330 122.6243
" />
<path d="M151.3330 122.6243
L155.1632 125.8382
" />
<path d="M155.1632 125.8382
L153.1705 128.2129
" />
<path d="M154.6082 110.1645 A1.0000 1.0000 0.0 0 0 153.1994 110.2878" />
<path d="M143.5575 121.7784 A1.0000 1.0000 0.0 0 0 143.6808 123.1873" />
<path d="M166.9882 121.8579 A1.0000 1.0000 0.0 0 0 166.8649 120.4491" />
<path d="M155.9375 133.4719 A1.0000 1.0000 0.0 0 0 157.3463 133.3486" />
<path d="M120.0323 58.5061
L120.0323 43.5061
" />
<path d="M121.0323 42.5061
L137.0323 42.5061
" />
<path d="M137.0323 59.5061
L121.0323 59.5061
" />
<path d="M138.0323 43.5061
L138.0323 58.5061
" />
<path d="M131.5323 57.2561
L126.5323 57.2561
" />
<path d="M126.5323 57.2561
L126.5323 54.1561
" />
<path d="M126.5323 54.1561
L131.5323 54.1561
" />
<path d="M131.5323 54.1561
L131.5323 57.2561
" />
<path d="M121.0323 42.5061 A1.0000 1.0000 0.0 0 0 120.0323 43.5061" />
<path d="M120.0323 58.5061 A1.0000 1.0000 0.0 0 0 121.0323 59.5061" />
<path d="M138.0323 43.5061 A1.0000 1.0000 0.0 0 0 137.0323 42.5061" />
<path d="M137.0323 59.5061 A1.0000 1.0000 0.0 0 0 138.0323 58.5061" />
<path d="M123.8179 116.3340
L127.7001 101.8451
" />
<path d="M128.9249 101.1380
L144.3797 105.2791
" />
<path d="M139.9798 121.6999
L124.5250 117.5587
" />
<path d="M145.0868 106.5039
L141.2045 120.9927
" />
<path d="M135.2495 118.1030
L130.4199 116.8089
" />
<path d="M130.4199 116.8089
L131.2222 113.8146
" />
<path d="M131.2222 113.8146
L136.0519 115.1086
" />
<path d="M136.0519 115.1086
L135.2495 118.1030
" />
<path d="M128.9249 101.1380 A1.0000 1.0000 0.0 0 0 127.7001 101.8451" />
<path d="M123.8179 116.3340 A1.0000 1.0000 0.0 0 0 124.5250 117.5587" />
<path d="M145.0868 106.5039 A1.0000 1.0000 0.0 0 0 144.3797 105.2791" />
<path d="M139.9798 121.6999 A1.0000 1.0000 0.0 0 0 141.2045 120.9927" />
<path d="M120.0323 76.7061
L120.0323 61.7061
" />
<path d="M121.0323 60.7061
L137.0323 60.7061
" />
<path d="M137.0323 77.7061
L121.0323 77.7061
" />
<path d="M138.0323 61.7061
L138.0323 76.7061
" />
<path d="M131.5323 75.4561
L126.5323 75.4561
" />
<path d="M126.5323 75.4561
L126.5323 72.3561
" />
<path d="M126.5323 72.3561
L131.5323 72.3561
" />
<path d="M131.5323 72.3561
L131.5323 75.4561
" />
<path d="M121.0323 60.7061 A1.0000 1.0000 0.0 0 0 120.0323 61.7061" />
<path d="M120.0323 76.7061 A1.0000 1.0000 0.0 0 0 121.0323 77.7061" />
<path d="M138.0323 61.7061 A1.0000 1.0000 0.0 0 0 137.0323 60.7061" />
<path d="M137.0323 77.7061 A1.0000 1.0000 0.0 0 0 138.0323 76.7061" />
<path d="M65.1600 95.1442
L63.5921 80.2264
" />
<path d="M64.4820 79.1273
L80.3944 77.4549
" />
<path d="M82.1714 94.3617
L66.2590 96.0342
" />
<path d="M81.4934 78.3449
L83.0614 93.2627
" />
<path d="M76.4663 92.6990
L71.4937 93.2216
" />
<path d="M71.4937 93.2216
L71.1697 90.1386
" />
<path d="M71.1697 90.1386
L76.1423 89.6160
" />
<path d="M76.1423 89.6160
L76.4663 92.6990
" />
<path d="M64.4820 79.1273 A1.0000 1.0000 0.0 0 0 63.5921 80.2264" />
<path d="M65.1600 95.1442 A1.0000 1.0000 0.0 0 0 66.2590 96.0342" />
<path d="M81.4934 78.3449 A1.0000 1.0000 0.0 0 0 80.3944 77.4549" />
<path d="M82.1714 94.3617 A1.0000 1.0000 0.0 0 0 83.0614 93.2627" />
<path d="M100.8034 71.3115
L100.2799 56.3206
" />
<path d="M101.2444 55.2863
L117.2347 54.7279
" />
<path d="M117.8280 71.7176
L101.8377 72.2760
" />
<path d="M118.2690 55.6924
L118.7924 70.6833
" />
<path d="M112.2528 69.6609
L107.2558 69.8354
" />
<path d="M107.2558 69.8354
L107.1476 66.7373
" />
<path d="M107.1476 66.7373
L112.1446 66.5628
" />
<path d="M112.1446 66.5628
L112.2528 69.6609
" />
<path d="M101.2444 55.2863 A1.0000 1.0000 0.0 0 0 100.2799 56.3206" />
<path d="M100.8034 71.3115 A1.0000 1.0000 0.0 0 0 101.8377 72.2760" />
<path d="M118.2690 55.6924 A1.0000 1.0000 0.0 0 0 117.2347 54.7279" />
<path d="M117.8280 71.7176 A1.0000 1.0000 0.0 0 0 118.7924 70.6833" />
<path d="M43.8787 77.3212
L41.7911 62.4672
" />
<path d="M42.6422 61.3377
L58.4864 59.1110
" />
<path d="M60.8524 75.9455
L45.0081 78.1723
" />
<path d="M59.6159 59.9621
L61.7035 74.8161
" />
<path d="M55.0928 74.4829
L50.1414 75.1788
" />
<path d="M50.1414 75.1788
L49.7100 72.1089
" />
<path d="M49.7100 72.1089
L54.6613 71.4131
" />
<path d="M54.6613 71.4131
L55.0928 74.4829
" />
<path d="M42.6422 61.3377 A1.0000 1.0000 0.0 0 0 41.7911 62.4672" />
<path d="M43.8787 77.3212 A1.0000 1.0000 0.0 0 0 45.0081 78.1723" />
<path d="M59.6159 59.9621 A1.0000 1.0000 0.0 0 0 58.4864 59.1110" />
<path d="M60.8524 75.9455 A1.0000 1.0000 0.0 0 0 61.7035 74.8161" />
<path d="M120.0323 94.9061
L120.0323 79.9061
" />
<path d="M121.0323 78.9061
L137.0323 78.9061
" />
<path d="M137.0323 95.9061
L121.0323 95.9061
" />
<path d="M138.0323 79.9061
L138.0323 94.9061
" />
<path d="M131.5323 93.6561
L126.5323 93.6561
" />
<path d="M126.5323 93.6561
L126.5323 90.5561
" />
<path d="M126.5323 90.5561
L131.5323 90.5561
" />
<path d="M131.5323 90.5561
L131.5323 93.6561
" />
<path d="M121.0323 78.9061 A1.0000 1.0000 0.0 0 0 120.0323 79.9061" />
<path d="M120.0323 94.9061 A1.0000 1.0000 0.0 0 0 121.0323 95.9061" />
<path d="M138.0323 79.9061 A1.0000 1.0000 0.0 0 0 137.0323 78.9061" />
<path d="M137.0323 95.9061 A1.0000 1.0000 0.0 0 0 138.0323 94.9061" />
<path d="M81.2075 63.8679
L80.1612 48.9044
" />
<path d="M81.0890 47.8371
L97.0500 46.7210
" />
<path d="M98.2359 63.6796
L82.2749 64.7957
" />
<path d="M98.1173 47.6488
L99.1637 62.6123
" />
<path d="M92.5923 61.8187
L87.6045 62.1675
" />
<path d="M87.6045 62.1675
L87.3883 59.0751
" />
<path d="M87.3883 59.0751
L92.3761 58.7263
" />
<path d="M92.3761 58.7263
L92.5923 61.8187
" />
<path d="M81.0890 47.8371 A1.0000 1.0000 0.0 0 0 80.1612 48.9044" />
<path d="M81.2075 63.8679 A1.0000 1.0000 0.0 0 0 82.2748 64.7957" />
<path d="M98.1173 47.6488 A1.0000 1.0000 0.0 0 0 97.0500 46.7210" />
<path d="M98.2359 63.6796 A1.0000 1.0000 0.0 0 0 99.1637 62.6123" />
<path d="M48.9446 113.3670
L46.8570 98.5129
" />
<path d="M47.7081 97.3835
L63.5523 95.1567
" />
<path d="M65.9183 111.9913
L50.0740 114.2181
" />
<path d="M64.6818 96.0078
L66.7694 110.8619
" />
<path d="M60.1587 110.5286
L55.2073 111.2245
" />
<path d="M55.2073 111.2245
L54.7759 108.1547
" />
<path d="M54.7759 108.1547
L59.7272 107.4588
" />
<path d="M59.7272 107.4588
L60.1587 110.5286
" />
<path d="M47.7081 97.3835 A1.0000 1.0000 0.0 0 0 46.8570 98.5129" />
<path d="M48.9446 113.3670 A1.0000 1.0000 0.0 0 0 50.0740 114.2181" />
<path d="M64.6818 96.0078 A1.0000 1.0000 0.0 0 0 63.5523 95.1567" />
<path d="M65.9183 111.9913 A1.0000 1.0000 0.0 0 0 66.7694 110.8619" />
<path d="M100.1682 53.1226
L99.6447 38.1317
" />
<path d="M100.6092 37.0974
L116.5995 36.5390
" />
<path d="M117.1928 53.5287
L101.2025 54.0871
" />
<path d="M117.6338 37.5035
L118.1573 52.4944
" />
<path d="M111.6176 51.4720
L106.6207 51.6465
" />
<path d="M106.6207 51.6465
L106.5125 48.5484
" />
<path d="M106.5125 48.5484
L111.5094 48.3739
" />
<path d="M111.5094 48.3739
L111.6176 51.4720
" />
<path d="M100.6092 37.0974 A1.0000 1.0000 0.0 0 0 99.6447 38.1317" />
<path d="M100.1682 53.1226 A1.0000 1.0000 0.0 0 0 101.2025 54.0871" />
<path d="M117.6338 37.5035 A1.0000 1.0000 0.0 0 0 116.5995 36.5390" />
<path d="M117.1928 53.5287 A1.0000 1.0000 0.0 0 0 118.1573 52.4944" />
<path d="M82.4771 82.0235
L81.4308 67.0601
" />
<path d="M82.3586 65.9928
L98.3196 64.8767
" />
<path d="M99.5054 81.8352
L83.5444 82.9513
" />
<path d="M99.3869 65.8045
L100.4333 80.7679
" />
<path d="M93.8619 79.9744
L88.8741 80.3232
" />
<path d="M88.8741 80.3232
L88.6578 77.2307
" />
<path d="M88.6578 77.2307
L93.6456 76.8819
" />
<path d="M93.6456 76.8819
L93.8619 79.9744
" />
<path d="M82.3586 65.9928 A1.0000 1.0000 0.0 0 0 81.4308 67.0601" />
<path d="M82.4771 82.0235 A1.0000 1.0000 0.0 0 0 83.5444 82.9513" />
<path d="M99.3869 65.8045 A1.0000 1.0000 0.0 0 0 98.3196 64.8767" />
<path d="M99.5054 81.8352 A1.0000 1.0000 0.0 0 0 100.4332 80.7679" />
<path d="M29.3054 107.9131
L26.7007 93.1410
" />
<path d="M27.5118 91.9825
L43.2688 89.2041
" />
<path d="M46.2208 105.9459
L30.4639 108.7242
" />
<path d="M44.4272 90.0153
L47.0319 104.7874
" />
<path d="M40.4136 104.6851
L35.4896 105.5534
" />
<path d="M35.4896 105.5534
L34.9513 102.5005
" />
<path d="M34.9513 102.5005
L39.8753 101.6322
" />
<path d="M39.8753 101.6322
L40.4136 104.6851
" />
<path d="M27.5118 91.9825 A1.0000 1.0000 0.0 0 0 26.7007 93.1410" />
<path d="M29.3054 107.9131 A1.0000 1.0000 0.0 0 0 30.4639 108.7242" />
<path d="M44.4272 90.0153 A1.0000 1.0000 0.0 0 0 43.2688 89.2041" />
<path d="M46.2208 105.9459 A1.0000 1.0000 0.0 0 0 47.0319 104.7874" />
<path d="M63.2576 77.0439
L61.6896 62.1261
" />
<path d="M62.5796 61.0270
L78.4920 59.3546
" />
<path d="M80.2690 76.2614
L64.3566 77.9339
" />
<path d="M79.5910 60.2446
L81.1590 75.1624
" />
<path d="M74.5639 74.5987
L69.5913 75.1213
" />
<path d="M69.5913 75.1213
L69.2673 72.0383
" />
<path d="M69.2673 72.0383
L74.2399 71.5157
" />
<path d="M74.2399 71.5157
L74.5639 74.5987
" />
<path d="M62.5796 61.0270 A1.0000 1.0000 0.0 0 0 61.6896 62.1261" />
<path d="M63.2576 77.0439 A1.0000 1.0000 0.0 0 0 64.3566 77.9339" />
<path d="M79.5910 60.2446 A1.0000 1.0000 0.0 0 0 78.4920 59.3546" />
<path d="M80.2690 76.2615 A1.0000 1.0000 0.0 0 0 81.1590 75.1624" />
<path d="M101.4386 89.5004
L100.9151 74.5095
" />
<path d="M101.8796 73.4752
L117.8698 72.9169
" />
<path d="M118.4631 89.9065
L102.4729 90.4649
" />
<path d="M118.9041 73.8813
L119.4276 88.8722
" />
<path d="M112.8880 87.8498
L107.8910 88.0243
" />
<path d="M107.8910 88.0243
L107.7828 84.9262
" />
<path d="M107.7828 84.9262
L112.7798 84.7517
" />
<path d="M112.7798 84.7517
L112.8880 87.8498
" />
<path d="M101.8796 73.4752 A1.0000 1.0000 0.0 0 0 100.9151 74.5095" />
<path d="M101.4386 89.5004 A1.0000 1.0000 0.0 0 0 102.4729 90.4649" />
<path d="M118.9041 73.8813 A1.0000 1.0000 0.0 0 0 117.8698 72.9169" />
<path d="M118.4631 89.9065 A1.0000 1.0000 0.0 0 0 119.4276 88.8722" />
<path d="M103.6267 119.7420
L101.0220 104.9699
" />
<path d="M101.8332 103.8115
L117.5901 101.0331
" />
<path d="M120.5421 117.7748
L104.7852 120.5532
" />
<path d="M118.7485 101.8442
L121.3533 116.6164
" />
<path d="M114.7349 116.5141
L109.8109 117.3823
" />
<path d="M109.8109 117.3823
L109.2726 114.3294
" />
<path d="M109.2726 114.3294
L114.1966 113.4612
" />
<path d="M114.1966 113.4612
L114.7349 116.5141
" />
<path d="M101.8332 103.8115 A1.0000 1.0000 0.0 0 0 101.0220 104.9699" />
<path d="M103.6267 119.7420 A1.0000 1.0000 0.0 0 0 104.7852 120.5532" />
<path d="M118.7485 101.8442 A1.0000 1.0000 0.0 0 0 117.5901 101.0331" />
<path d="M120.5421 117.7748 A1.0000 1.0000 0.0 0 0 121.3533 116.6164" />
<g >
</g>
<g >
</g>
<g >
</g>
<g >
</g>
<g >
</g>
<g >
</g>
<g >
</g>
<g >
</g>
<g >
</g>
<g >
</g>
<g >
</g>
<g >
</g>
<g >
</g>
<g >
</g>
<g >
</g>
<g >
</g>
<g >
</g>
<g >
</g>
<g >
</g>
<g >
</g>
<g >
</g>
<g >
</g>
<g >
</g>
<g >
</g>
<g >
</g>
<g >
</g>
<g >
</g>
<g >
</g>
<g >
</g>
<g >
</g>
<g >
</g>
<g >
</g>
<g >
</g>
<g >
</g>
<g >
</g>
<g >
</g>
<g >
</g>
<g >
</g>
<g >
</g>
<g >
</g>
<g >
</g>
<g >
</g>
<g >
</g>
<g >
</g>
<g >
</g>
<g >
</g>
<g >
</g>
<g >
</g>
<g >
</g>
<g >
</g>
<g >
</g>
<g >
</g>
<g >
</g>
<g >
</g>
<g >
</g>
<g >
</g>
<g >
</g>
<g >
</g>
<g >
</g>
<g >
</g>
<g >
</g>
<g >
</g>
<g >
</g>
<g >
</g>
<g >
</g>
<g >
</g>
<g >
</g>
<g >
</g>
<g >
</g>
<g >
</g>
<g >
</g>
<g >
</g>
<g >
</g>
<g >
</g>
<g >
</g>
<g >
</g>
<g >
</g>
<g >
</g>
<g >
</g>
<g >
</g>
<g >
</g>
<g >
</g>
<g >
</g>
<g >
</g>
<g >
</g>
<g >
</g>
<g >
</g>
<g >
</g>
<g >
</g>
<g >
</g>
</g> 
</svg>
