<?xml version="1.0" standalone="no"?>
 <!DOCTYPE svg PUBLIC "-//W3C//DTD SVG 1.1//EN" 
 "http://www.w3.org/Graphics/SVG/1.1/DTD/svg11.dtd"> 
<svg
  xmlns:svg="http://www.w3.org/2000/svg"
  xmlns="http://www.w3.org/2000/svg"
  xmlns:xlink="http://www.w3.org/1999/xlink"
  version="1.1"
  width="297.0022mm" height="210.0072mm" viewBox="0.0000 0.0000 297.0022 210.0072">
<title>SVG Image created as nightliner-User_5.svg date 2023/11/23 19:31:00 </title>
  <desc>Image generated by PCBNEW </desc>
<g style="fill:#000000; fill-opacity:1.0000;stroke:#000000; stroke-opacity:1.0000;
stroke-linecap:round; stroke-linejoin:round;"
 transform="translate(0 0) scale(1 1)">
</g>
<g style="fill:#000000; fill-opacity:0.0; 
stroke:#000000; stroke-width:0.0000; stroke-opacity:1; 
stroke-linecap:round; stroke-linejoin:round;">
</g>
<g style="fill:#000000; fill-opacity:0.0; 
stroke:#000000; stroke-width:0.1500; stroke-opacity:1; 
stroke-linecap:round; stroke-linejoin:round;">
<path d="M105.2827 20.8279 A3.0900 3.0900 0.0 0 0 101.9977 18.2550" />
<path d="M21.6022 114.1699
L13.7160 70.4528
" />
<path d="M69.5416 30.0423
L69.0880 24.1300
" />
<path d="M32.2580 61.2140
L31.7438 56.0835
" />
<path d="M31.2420 62.7380 A1.2951 1.2951 0.0 0 0 32.2580 61.2140" />
<path d="M50.5536 48.8090
L49.3167 38.0673
" />
<path d="M152.9080 142.4940
L145.4028 135.5485
" />
<path d="M126.0733 28.4285 A2.4331 2.4331 0.0 0 0 123.8022 26.5251" />
<path d="M72.2018 20.3385
L101.9977 18.2550
" />
<path d="M21.6022 114.1699 A5.7472 5.7472 0.0 0 0 25.9703 118.3950" />
<path d="M152.9080 142.4940 A5.4001 5.4001 0.0 0 0 160.5280 141.9860" />
<path d="M178.5620 35.0520 A2.5401 2.5401 0.0 0 0 176.0220 32.5120" />
<path d="M49.5300 50.2919 A1.2951 1.2951 0.0 0 0 50.5536 48.8090" />
<path d="M52.5780 33.4101 A4.3035 4.3035 0.0 0 0 49.3167 38.0673" />
<path d="M114.6676 127.1678
L102.2301 129.6951
" />
<path d="M34.4921 52.5570 A3.6367 3.6367 0.0 0 0 31.7438 56.0835" />
<path d="M52.5780 33.4101
L68.2557 31.6956
" />
<path d="M105.6819 25.3974 A1.7779 1.7779 0.0 0 0 107.4420 26.9240" />
<path d="M126.0733 28.4285
L126.2574 31.2374
" />
<path d="M107.4420 26.9240
L123.8022 26.5251
" />
<path d="M72.2018 20.3385 A3.5649 3.5649 0.0 0 0 69.0880 24.1300" />
<path d="M17.0790 65.2987 A4.4021 4.4021 0.0 0 0 13.7160 70.4528" />
<path d="M105.2827 20.8279
L105.6819 25.3974
" />
<path d="M178.5620 35.0520
L178.5620 119.3800
" />
<path d="M96.6913 129.5280
L25.9703 118.3950
" />
<path d="M17.0790 65.2986
L31.2420 62.7380
" />
<path d="M178.0540 120.9040
L160.5280 141.9860
" />
<path d="M68.2557 31.6957 A1.4812 1.4812 0.0 0 0 69.5416 30.0423" />
<path d="M145.4028 135.5485 A38.1908 38.1908 0.0 0 0 114.6676 127.1678" />
<path d="M127.7620 32.5120
L176.0220 32.5120
" />
<path d="M34.4920 52.5569
L49.5300 50.2919
" />
<path d="M178.0540 120.9040 A2.5401 2.5401 0.0 0 0 178.5620 119.3800" />
<path d="M126.2574 31.2374 A1.5252 1.5252 0.0 0 0 127.7620 32.5120" />
<path d="M96.6913 129.5280 A20.5874 20.5874 0.0 0 0 102.2301 129.6951" />
<g >
</g>
<g >
</g>
<g >
</g>
<g >
</g>
<g >
</g>
<g >
</g>
<g >
</g>
<g >
</g>
<g >
</g>
<g >
</g>
<g >
</g>
<g >
</g>
<g >
</g>
<g >
</g>
<g >
</g>
<g >
</g>
<g >
</g>
<g >
</g>
<g >
</g>
<g >
</g>
<g >
</g>
<g >
</g>
<g >
</g>
<g >
</g>
<g >
</g>
<g >
</g>
<g >
</g>
<g >
</g>
<g >
</g>
<g >
</g>
<g >
</g>
<g >
</g>
<g >
</g>
<g >
</g>
<g >
</g>
<g >
</g>
<g >
</g>
<g >
</g>
<g >
</g>
<g >
</g>
<g >
</g>
<g >
</g>
<g >
</g>
<g >
</g>
<g >
</g>
<g >
</g>
<g >
</g>
<g >
</g>
<g >
</g>
<g >
</g>
<g >
</g>
<g >
</g>
<g >
</g>
<g >
</g>
<g >
</g>
<g >
</g>
<g >
</g>
<g >
</g>
<g >
</g>
<g >
</g>
<g >
</g>
<g >
</g>
<g >
</g>
<g >
</g>
<g >
</g>
<g >
</g>
<g >
</g>
<g >
</g>
<g >
</g>
<g >
</g>
<g >
</g>
<g >
</g>
<g >
</g>
<g >
</g>
<g >
</g>
<g >
</g>
<g >
</g>
<g >
</g>
<g >
</g>
<g >
</g>
<g >
</g>
<g >
</g>
<g >
</g>
<g >
</g>
<g >
</g>
<g >
</g>
<g >
</g>
<g >
</g>
<g >
</g>
<g >
</g>
</g> 
</svg>
