<?xml version="1.0" standalone="no"?>
 <!DOCTYPE svg PUBLIC "-//W3C//DTD SVG 1.1//EN" 
 "http://www.w3.org/Graphics/SVG/1.1/DTD/svg11.dtd"> 
<svg
  xmlns:svg="http://www.w3.org/2000/svg"
  xmlns="http://www.w3.org/2000/svg"
  xmlns:xlink="http://www.w3.org/1999/xlink"
  version="1.1"
  width="297.0022mm" height="210.0072mm" viewBox="0.0000 0.0000 297.0022 210.0072">
<title>SVG Image created as nightliner-User_3.svg date 2023/12/03 18:51:26 </title>
  <desc>Image generated by PCBNEW </desc>
<g style="fill:#000000; fill-opacity:1.0000;stroke:#000000; stroke-opacity:1.0000;
stroke-linecap:round; stroke-linejoin:round;"
 transform="translate(0 0) scale(1 1)">
</g>
<g style="fill:#000000; fill-opacity:0.0; 
stroke:#000000; stroke-width:0.0000; stroke-opacity:1; 
stroke-linecap:round; stroke-linejoin:round;">
</g>
<g style="fill:#000000; fill-opacity:0.0; 
stroke:#000000; stroke-width:0.1500; stroke-opacity:1; 
stroke-linecap:round; stroke-linejoin:round;">
<path d="M47.7578 94.1451
L45.9486 81.2716
" />
<path d="M46.7997 80.1421
L59.6732 78.3329
" />
<path d="M61.7608 93.1869
L48.8873 94.9962
" />
<path d="M60.8026 79.1840
L62.6119 92.0575
" />
<path d="M46.7997 80.1421 A1.0000 1.0000 0.0 0 0 45.9486 81.2716" />
<path d="M47.7578 94.1451 A1.0000 1.0000 0.0 0 0 48.8873 94.9962" />
<path d="M60.8026 79.1840 A1.0000 1.0000 0.0 0 0 59.6732 78.3329" />
<path d="M61.7608 93.1869 A1.0000 1.0000 0.0 0 0 62.6119 92.0575" />
<path d="M62.7424 57.7923
L61.3835 44.8635
" />
<path d="M62.2735 43.7645
L75.2023 42.4056
" />
<path d="M76.7702 57.3234
L63.8414 58.6823
" />
<path d="M76.3014 43.2956
L77.6602 56.2244
" />
<path d="M62.2735 43.7645 A1.0000 1.0000 0.0 0 0 61.3835 44.8635" />
<path d="M62.7424 57.7923 A1.0000 1.0000 0.0 0 0 63.8414 58.6823" />
<path d="M76.3014 43.2956 A1.0000 1.0000 0.0 0 0 75.2023 42.4056" />
<path d="M76.7702 57.3234 A1.0000 1.0000 0.0 0 0 77.6602 56.2244" />
<path d="M81.3646 44.6100
L80.4577 31.6417
" />
<path d="M81.3855 30.5744
L94.3539 29.6675
" />
<path d="M95.4002 44.6310
L82.4319 45.5378
" />
<path d="M95.4212 30.5953
L96.3280 43.5637
" />
<path d="M81.3855 30.5744 A1.0000 1.0000 0.0 0 0 80.4577 31.6417" />
<path d="M81.3646 44.6100 A1.0000 1.0000 0.0 0 0 82.4319 45.5378" />
<path d="M95.4212 30.5953 A1.0000 1.0000 0.0 0 0 94.3539 29.6675" />
<path d="M95.4002 44.6310 A1.0000 1.0000 0.0 0 0 96.3280 43.5637" />
<path d="M27.4486 88.7443
L25.1911 75.9418
" />
<path d="M26.0023 74.7833
L38.8048 72.5259
" />
<path d="M41.4095 87.2980
L28.6070 89.5555
" />
<path d="M39.9633 73.3371
L42.2207 86.1396
" />
<path d="M26.0023 74.7833 A1.0000 1.0000 0.0 0 0 25.1911 75.9418" />
<path d="M27.4486 88.7443 A1.0000 1.0000 0.0 0 0 28.6070 89.5555" />
<path d="M39.9633 73.3371 A1.0000 1.0000 0.0 0 0 38.8048 72.5259" />
<path d="M41.4095 87.2980 A1.0000 1.0000 0.0 0 0 42.2207 86.1396" />
<path d="M145.3494 121.9766
L153.7056 112.0180
" />
<path d="M155.1145 111.8947
L165.0730 120.2510
" />
<path d="M155.4312 131.7416
L145.4727 123.3854
" />
<path d="M165.1963 121.6598
L156.8401 131.6184
" />
<path d="M155.1145 111.8947 A1.0000 1.0000 0.0 0 0 153.7056 112.0180" />
<path d="M145.3494 121.9766 A1.0000 1.0000 0.0 0 0 145.4727 123.3854" />
<path d="M165.1963 121.6598 A1.0000 1.0000 0.0 0 0 165.0730 120.2510" />
<path d="M155.4312 131.7416 A1.0000 1.0000 0.0 0 0 156.8401 131.6184" />
<path d="M121.5323 57.5061
L121.5323 44.5061
" />
<path d="M122.5323 43.5061
L135.5323 43.5061
" />
<path d="M135.5323 58.5061
L122.5323 58.5061
" />
<path d="M136.5323 44.5061
L136.5323 57.5061
" />
<path d="M122.5323 43.5061 A1.0000 1.0000 0.0 0 0 121.5323 44.5061" />
<path d="M121.5323 57.5061 A1.0000 1.0000 0.0 0 0 122.5323 58.5061" />
<path d="M136.5323 44.5061 A1.0000 1.0000 0.0 0 0 135.5323 43.5061" />
<path d="M135.5323 58.5061 A1.0000 1.0000 0.0 0 0 136.5323 57.5061" />
<path d="M125.5256 115.7563
L128.8902 103.1993
" />
<path d="M130.1150 102.4922
L142.6720 105.8568
" />
<path d="M138.7897 120.3457
L126.2327 116.9811
" />
<path d="M143.3791 107.0816
L140.0145 119.6386
" />
<path d="M130.1150 102.4922 A1.0000 1.0000 0.0 0 0 128.8902 103.1993" />
<path d="M125.5256 115.7563 A1.0000 1.0000 0.0 0 0 126.2327 116.9811" />
<path d="M143.3791 107.0816 A1.0000 1.0000 0.0 0 0 142.6720 105.8568" />
<path d="M138.7897 120.3457 A1.0000 1.0000 0.0 0 0 140.0145 119.6386" />
<path d="M121.5323 75.7061
L121.5323 62.7061
" />
<path d="M122.5323 61.7061
L135.5323 61.7061
" />
<path d="M135.5323 76.7061
L122.5323 76.7061
" />
<path d="M136.5323 62.7061
L136.5323 75.7061
" />
<path d="M122.5323 61.7061 A1.0000 1.0000 0.0 0 0 121.5323 62.7061" />
<path d="M121.5323 75.7061 A1.0000 1.0000 0.0 0 0 122.5323 76.7061" />
<path d="M136.5323 62.7061 A1.0000 1.0000 0.0 0 0 135.5323 61.7061" />
<path d="M135.5323 76.7061 A1.0000 1.0000 0.0 0 0 136.5323 75.7061" />
<path d="M66.5472 93.9929
L65.1884 81.0641
" />
<path d="M66.0784 79.9651
L79.0071 78.6062
" />
<path d="M80.5751 93.5240
L67.6463 94.8829
" />
<path d="M80.1062 79.4962
L81.4651 92.4250
" />
<path d="M66.0784 79.9651 A1.0000 1.0000 0.0 0 0 65.1884 81.0641" />
<path d="M66.5472 93.9929 A1.0000 1.0000 0.0 0 0 67.6463 94.8829" />
<path d="M80.1062 79.4962 A1.0000 1.0000 0.0 0 0 79.0071 78.6062" />
<path d="M80.5751 93.5240 A1.0000 1.0000 0.0 0 0 81.4651 92.4250" />
<path d="M102.2676 70.2597
L101.8139 57.2677
" />
<path d="M102.7784 56.2334
L115.7705 55.7797
" />
<path d="M116.2940 70.7705
L103.3019 71.2242
" />
<path d="M116.8048 56.7442
L117.2585 69.7363
" />
<path d="M102.7784 56.2334 A1.0000 1.0000 0.0 0 0 101.8139 57.2677" />
<path d="M102.2676 70.2597 A1.0000 1.0000 0.0 0 0 103.3019 71.2242" />
<path d="M116.8048 56.7442 A1.0000 1.0000 0.0 0 0 115.7705 55.7797" />
<path d="M116.2940 70.7705 A1.0000 1.0000 0.0 0 0 117.2585 69.7363" />
<path d="M45.2249 76.1222
L43.4156 63.2487
" />
<path d="M44.2667 62.1193
L57.1402 60.3100
" />
<path d="M59.2278 75.1640
L46.3543 76.9733
" />
<path d="M58.2697 61.1611
L60.0789 74.0346
" />
<path d="M44.2667 62.1193 A1.0000 1.0000 0.0 0 0 43.4156 63.2487" />
<path d="M45.2249 76.1222 A1.0000 1.0000 0.0 0 0 46.3543 76.9733" />
<path d="M58.2697 61.1611 A1.0000 1.0000 0.0 0 0 57.1402 60.3100" />
<path d="M59.2278 75.1640 A1.0000 1.0000 0.0 0 0 60.0789 74.0346" />
<path d="M121.5323 93.9061
L121.5323 80.9061
" />
<path d="M122.5323 79.9061
L135.5323 79.9061
" />
<path d="M135.5323 94.9061
L122.5323 94.9061
" />
<path d="M136.5323 80.9061
L136.5323 93.9061
" />
<path d="M122.5323 79.9061 A1.0000 1.0000 0.0 0 0 121.5323 80.9061" />
<path d="M121.5323 93.9061 A1.0000 1.0000 0.0 0 0 122.5323 94.9061" />
<path d="M136.5323 80.9061 A1.0000 1.0000 0.0 0 0 135.5323 79.9061" />
<path d="M135.5323 94.9061 A1.0000 1.0000 0.0 0 0 136.5323 93.9061" />
<path d="M82.6341 62.7657
L81.7273 49.7973
" />
<path d="M82.6551 48.7300
L95.6234 47.8232
" />
<path d="M96.6698 62.7866
L83.7014 63.6935
" />
<path d="M96.6907 48.7510
L97.5976 61.7193
" />
<path d="M82.6551 48.7300 A1.0000 1.0000 0.0 0 0 81.7273 49.7973" />
<path d="M82.6341 62.7657 A1.0000 1.0000 0.0 0 0 83.7014 63.6935" />
<path d="M96.6907 48.7510 A1.0000 1.0000 0.0 0 0 95.6234 47.8232" />
<path d="M96.6698 62.7866 A1.0000 1.0000 0.0 0 0 97.5976 61.7193" />
<path d="M50.2908 112.1679
L48.4815 99.2945
" />
<path d="M49.3326 98.1650
L62.2061 96.3558
" />
<path d="M64.2937 111.2098
L51.4202 113.0190
" />
<path d="M63.3356 97.2069
L65.1448 110.0803
" />
<path d="M49.3326 98.1650 A1.0000 1.0000 0.0 0 0 48.4815 99.2945" />
<path d="M50.2908 112.1679 A1.0000 1.0000 0.0 0 0 51.4202 113.0190" />
<path d="M63.3356 97.2069 A1.0000 1.0000 0.0 0 0 62.2061 96.3558" />
<path d="M64.2937 111.2098 A1.0000 1.0000 0.0 0 0 65.1448 110.0803" />
<path d="M101.6324 52.0708
L101.1787 39.0788
" />
<path d="M102.1432 38.0445
L115.1353 37.5908
" />
<path d="M115.6588 52.5816
L102.6667 53.0353
" />
<path d="M116.1696 38.5553
L116.6233 51.5473
" />
<path d="M102.1432 38.0445 A1.0000 1.0000 0.0 0 0 101.1787 39.0788" />
<path d="M101.6324 52.0708 A1.0000 1.0000 0.0 0 0 102.6667 53.0353" />
<path d="M116.1696 38.5553 A1.0000 1.0000 0.0 0 0 115.1353 37.5908" />
<path d="M115.6588 52.5816 A1.0000 1.0000 0.0 0 0 116.6233 51.5473" />
<path d="M83.9037 80.9213
L82.9969 67.9530
" />
<path d="M83.9247 66.8857
L96.8930 65.9789
" />
<path d="M97.9393 80.9423
L84.9710 81.8491
" />
<path d="M97.9603 66.9067
L98.8671 79.8750
" />
<path d="M83.9247 66.8857 A1.0000 1.0000 0.0 0 0 82.9969 67.9530" />
<path d="M83.9037 80.9213 A1.0000 1.0000 0.0 0 0 84.9710 81.8491" />
<path d="M97.9603 66.9067 A1.0000 1.0000 0.0 0 0 96.8930 65.9789" />
<path d="M97.9393 80.9423 A1.0000 1.0000 0.0 0 0 98.8671 79.8750" />
<path d="M30.6090 106.6678
L28.3515 93.8653
" />
<path d="M29.1627 92.7068
L41.9652 90.4494
" />
<path d="M44.5699 105.2215
L31.7674 107.4790
" />
<path d="M43.1236 91.2606
L45.3811 104.0631
" />
<path d="M29.1627 92.7068 A1.0000 1.0000 0.0 0 0 28.3515 93.8653" />
<path d="M30.6090 106.6678 A1.0000 1.0000 0.0 0 0 31.7674 107.4790" />
<path d="M43.1236 91.2606 A1.0000 1.0000 0.0 0 0 41.9652 90.4494" />
<path d="M44.5699 105.2215 A1.0000 1.0000 0.0 0 0 45.3811 104.0631" />
<path d="M64.6448 75.8926
L63.2859 62.9638
" />
<path d="M64.1759 61.8648
L77.1047 60.5059
" />
<path d="M78.6727 75.4237
L65.7439 76.7826
" />
<path d="M78.2038 61.3959
L79.5626 74.3247
" />
<path d="M64.1759 61.8648 A1.0000 1.0000 0.0 0 0 63.2859 62.9638" />
<path d="M64.6448 75.8926 A1.0000 1.0000 0.0 0 0 65.7439 76.7826" />
<path d="M78.2038 61.3959 A1.0000 1.0000 0.0 0 0 77.1047 60.5059" />
<path d="M78.6727 75.4237 A1.0000 1.0000 0.0 0 0 79.5626 74.3247" />
<path d="M102.9028 88.4487
L102.4491 75.4566
" />
<path d="M103.4136 74.4223
L116.4056 73.9686
" />
<path d="M116.9291 88.9595
L103.9371 89.4132
" />
<path d="M117.4399 74.9331
L117.8936 87.9252
" />
<path d="M103.4136 74.4223 A1.0000 1.0000 0.0 0 0 102.4491 75.4566" />
<path d="M102.9028 88.4487 A1.0000 1.0000 0.0 0 0 103.9371 89.4132" />
<path d="M117.4399 74.9331 A1.0000 1.0000 0.0 0 0 116.4056 73.9686" />
<path d="M116.9291 88.9595 A1.0000 1.0000 0.0 0 0 117.8936 87.9252" />
<path d="M104.9303 118.4967
L102.6729 105.6942
" />
<path d="M103.4840 104.5358
L116.2865 102.2784
" />
<path d="M118.8912 117.0505
L106.0887 119.3079
" />
<path d="M117.4450 103.0895
L119.7024 115.8920
" />
<path d="M103.4840 104.5358 A1.0000 1.0000 0.0 0 0 102.6729 105.6942" />
<path d="M104.9303 118.4967 A1.0000 1.0000 0.0 0 0 106.0887 119.3079" />
<path d="M117.4450 103.0895 A1.0000 1.0000 0.0 0 0 116.2865 102.2784" />
<path d="M118.8912 117.0505 A1.0000 1.0000 0.0 0 0 119.7024 115.8920" />
<g >
</g>
<g >
</g>
<g >
</g>
<g >
</g>
<g >
</g>
<g >
</g>
<g >
</g>
<g >
</g>
<g >
</g>
<g >
</g>
<g >
</g>
<g >
</g>
<g >
</g>
<g >
</g>
<g >
</g>
<g >
</g>
<g >
</g>
<g >
</g>
<g >
</g>
<g >
</g>
<g >
</g>
<g >
</g>
<g >
</g>
<g >
</g>
<g >
</g>
<g >
</g>
<g >
</g>
<g >
</g>
<g >
</g>
<g >
</g>
<g >
</g>
<g >
</g>
<g >
</g>
<g >
</g>
<g >
</g>
<g >
</g>
<g >
</g>
<g >
</g>
<g >
</g>
<g >
</g>
<g >
</g>
<g >
</g>
<g >
</g>
<g >
</g>
<g >
</g>
<g >
</g>
<g >
</g>
<g >
</g>
<g >
</g>
<g >
</g>
<g >
</g>
<g >
</g>
<g >
</g>
<g >
</g>
<g >
</g>
<g >
</g>
<g >
</g>
<g >
</g>
<g >
</g>
<g >
</g>
<g >
</g>
<g >
</g>
<g >
</g>
<g >
</g>
<g >
</g>
<g >
</g>
<g >
</g>
<g >
</g>
<g >
</g>
<g >
</g>
<g >
</g>
<g >
</g>
<g >
</g>
<g >
</g>
<g >
</g>
<g >
</g>
<g >
</g>
<g >
</g>
<g >
</g>
<g >
</g>
<g >
</g>
<g >
</g>
<g >
</g>
<g >
</g>
<g >
</g>
<g >
</g>
<g >
</g>
<g >
</g>
<g >
</g>
<g >
</g>
</g> 
</svg>
