<?xml version="1.0" encoding="UTF-8" standalone="no"?>
<svg
   version="1.1"
   width="297.0022mm"
   height="210.0072mm"
   viewBox="0.0000 0.0000 297.0022 210.0072"
   id="svg251"
   sodipodi:docname="nightliner-User_2-joined.svg"
   inkscape:version="1.3 (0e150ed, 2023-07-21)"
   xmlns:inkscape="http://www.inkscape.org/namespaces/inkscape"
   xmlns:sodipodi="http://sodipodi.sourceforge.net/DTD/sodipodi-0.dtd"
   xmlns="http://www.w3.org/2000/svg"
   xmlns:svg="http://www.w3.org/2000/svg"
   xmlns:rdf="http://www.w3.org/1999/02/22-rdf-syntax-ns#"
   xmlns:cc="http://creativecommons.org/ns#"
   xmlns:dc="http://purl.org/dc/elements/1.1/">
  <sodipodi:namedview
     id="namedview251"
     pagecolor="#505050"
     bordercolor="#eeeeee"
     borderopacity="1"
     inkscape:showpageshadow="0"
     inkscape:pageopacity="0"
     inkscape:pagecheckerboard="0"
     inkscape:deskcolor="#505050"
     inkscape:document-units="mm"
     inkscape:zoom="3.6844588"
     inkscape:cx="462.75453"
     inkscape:cy="415.93626"
     inkscape:window-width="2536"
     inkscape:window-height="1478"
     inkscape:window-x="652"
     inkscape:window-y="35"
     inkscape:window-maximized="0"
     inkscape:current-layer="svg251" />
  <defs
     id="defs251" />
  <title
     id="title1">SVG Image created as nightliner-User_2.svg date 2023/12/03 15:51:39 </title>
  <desc
     id="desc1">Image generated by PCBNEW </desc>
  <g
     style="fill:#000000; fill-opacity:1.0000;stroke:#000000; stroke-opacity:1.0000; stroke-linecap:round; stroke-linejoin:round;"
     transform="translate(0 0) scale(1 1)"
     id="g1" />
  <g
     style="fill:#000000; fill-opacity:0.0;  stroke:#000000; stroke-width:0.0000; stroke-opacity:1;  stroke-linecap:round; stroke-linejoin:round;"
     id="g2" />
  <path
     d="M 46.6262 81.7822 L 48.2685 93.4674 L 46.6262 81.7822 C 46.5494 81.2353 46.9304 80.7297 47.4773 80.6528 L 59.1625 79.0106 C 59.7094 78.9338 60.215 79.3147 60.2919 79.8616 L 61.9342 91.5468 C 62.011 92.0937 61.63 92.5993 61.0831 92.6762 L 49.3979 94.3185 C 48.851 94.3953 48.3454 94.0143 48.2685 93.4674"
     id="path2_joined"
     style="fill:#000000;fill-opacity:0;stroke:#000000;stroke-width:0.15;stroke-linecap:round;stroke-linejoin:round;stroke-opacity:1" />
  <circle
     cx="59.689999"
     cy="57.658001"
     r="1.6"
     id="circle9"
     style="fill:#000000;fill-opacity:0;stroke:#000000;stroke-width:0.15;stroke-linecap:round;stroke-linejoin:round;stroke-opacity:1" />
  <path
     d="M 62.043 45.3975 L 63.2764 57.1329 C 63.3341 57.6821 63.8262 58.0806 64.3754 58.0229 L 76.1108 56.7894 C 76.66 56.7317 77.0585 56.2396 77.0008 55.6904 L 75.7674 43.955 C 75.7397 43.6912 75.6083 43.4493 75.4022 43.2824 C 75.1961 43.1155 74.9321 43.0373 74.6683 43.065 L 62.933 44.2985 C 62.3838 44.3562 61.9853 44.8483 62.043 45.3975"
     id="path10_joined"
     style="fill:#000000;fill-opacity:0;stroke:#000000;stroke-width:0.15;stroke-linecap:round;stroke-linejoin:round;stroke-opacity:1" />
  <path
     d="M 81.0981 32.1984 L 81.9212 43.9696 C 81.9397 44.2342 82.0626 44.4806 82.2627 44.6546 C 82.4629 44.8286 82.724 44.9159 82.9886 44.8974 L 94.7598 44.0743 C 95.3107 44.0358 95.7261 43.5579 95.6876 43.007 L 94.8645 31.2357 C 94.826 30.6848 94.3481 30.2694 93.7972 30.3079 L 82.0259 31.131 C 81.7613 31.1495 81.5149 31.2724 81.3409 31.4725 C 81.1669 31.6727 81.0796 31.9338 81.0981 32.1984"
     id="path18_joined"
     style="fill:#000000;fill-opacity:0;stroke:#000000;stroke-width:0.15;stroke-linecap:round;stroke-linejoin:round;stroke-opacity:1" />
  <path
     d="M 25.8862 76.4285 L 27.9353 88.0492 L 25.8862 76.4285 C 25.8401 76.1673 25.8997 75.8985 26.0519 75.6812 C 26.204 75.464 26.4362 75.316 26.6974 75.27 L 38.3181 73.221 C 38.5793 73.1749 38.8481 73.2345 39.0654 73.3867 C 39.2826 73.5388 39.4306 73.771 39.4766 74.0322 L 41.5256 85.6529 C 41.6215 86.1968 41.2583 86.7154 40.7144 86.8113 L 29.0937 88.8604 C 28.5498 88.9563 28.0312 88.5931 27.9353 88.0492"
     id="path26_joined"
     style="fill:#000000;fill-opacity:0;stroke:#000000;stroke-width:0.15;stroke-linecap:round;stroke-linejoin:round;stroke-opacity:1" />
  <circle
     cx="119.38"
     cy="66.040001"
     r="1.6"
     id="circle33"
     style="fill:#000000;fill-opacity:0;stroke:#000000;stroke-width:0.15;stroke-linecap:round;stroke-linejoin:round;stroke-opacity:1" />
  <path
     d="M 153.78 112.863 L 146.195 121.903 C 145.84 122.326 145.895 122.956 146.318 123.311 L 155.357 130.896 C 155.78 131.251 156.411 131.196 156.766 130.773 L 164.351 121.734 C 164.521 121.531 164.604 121.268 164.581 121.004 C 164.558 120.74 164.431 120.495 164.228 120.325 L 155.188 112.74 C 154.765 112.385 154.135 112.44 153.78 112.863"
     id="path34_joined"
     style="fill:#000000;fill-opacity:0;stroke:#000000;stroke-width:0.15;stroke-linecap:round;stroke-linejoin:round;stroke-opacity:1" />
  <path
     d="M 122.132 56.9061 L 122.132 45.1061 C 122.132 44.8409 122.238 44.5865 122.425 44.399 C 122.613 44.2115 122.867 44.1061 123.132 44.1061 L 134.932 44.1061 C 135.198 44.1061 135.452 44.2115 135.639 44.399 C 135.827 44.5865 135.932 44.8409 135.932 45.1061 L 135.932 56.9061 C 135.932 57.1713 135.827 57.4257 135.639 57.6132 C 135.452 57.8007 135.198 57.9061 134.932 57.9061 L 123.132 57.9061 C 122.867 57.9061 122.613 57.8007 122.425 57.6132 C 122.238 57.4257 122.132 57.1713 122.132 56.9061"
     id="path42_joined"
     style="fill:#000000;fill-opacity:0;stroke:#000000;stroke-width:0.15;stroke-linecap:round;stroke-linejoin:round;stroke-opacity:1" />
  <path
     d="M 126.26 115.332 L 129.315 103.934 C 129.457 103.401 130.006 103.084 130.539 103.227 L 141.937 106.281 C 142.193 106.35 142.412 106.517 142.544 106.747 C 142.677 106.977 142.713 107.25 142.644 107.506 L 139.59 118.904 C 139.522 119.16 139.354 119.378 139.124 119.511 C 138.895 119.644 138.622 119.68 138.365 119.611 L 126.968 116.557 C 126.711 116.488 126.493 116.321 126.36 116.091 C 126.228 115.861 126.192 115.588 126.26 115.332"
     id="path50_joined"
     style="fill:#000000;fill-opacity:0;stroke:#000000;stroke-width:0.15;stroke-linecap:round;stroke-linejoin:round;stroke-opacity:1" />
  <path
     d="M 122.132 75.1061 L 122.132 63.3061 C 122.132 63.0409 122.238 62.7865 122.425 62.599 C 122.613 62.4115 122.867 62.3061 123.132 62.3061 L 134.932 62.3061 C 135.198 62.3061 135.452 62.4115 135.639 62.599 C 135.827 62.7865 135.932 63.0409 135.932 63.3061 L 135.932 75.1061 C 135.932 75.3713 135.827 75.6257 135.639 75.8132 C 135.452 76.0007 135.198 76.1061 134.932 76.1061 L 123.132 76.1061 C 122.867 76.1061 122.613 76.0007 122.425 75.8132 C 122.238 75.6257 122.132 75.3713 122.132 75.1061"
     id="path58_joined"
     style="fill:#000000;fill-opacity:0;stroke:#000000;stroke-width:0.15;stroke-linecap:round;stroke-linejoin:round;stroke-opacity:1" />
  <path
     d="M 65.8478 81.5981 L 67.0812 93.3335 C 67.1089 93.5973 67.2403 93.8392 67.4464 94.0061 C 67.6525 94.173 67.9165 94.2512 68.1803 94.2235 L 79.9156 92.99 C 80.4648 92.9323 80.8633 92.4402 80.8056 91.891 L 79.5722 80.1556 C 79.5445 79.8918 79.4131 79.6499 79.207 79.483 C 79.0009 79.3161 78.7369 79.2379 78.4731 79.2656 L 66.7378 80.4991 C 66.1886 80.5568 65.7901 81.0489 65.8478 81.5981"
     id="path66_joined"
     style="fill:#000000;fill-opacity:0;stroke:#000000;stroke-width:0.15;stroke-linecap:round;stroke-linejoin:round;stroke-opacity:1" />
  <path
     d="M 102.434 57.8464 L 102.846 69.6392 C 102.856 69.9043 102.97 70.1548 103.164 70.3357 C 103.358 70.5165 103.616 70.613 103.881 70.6037 L 115.673 70.1919 C 115.938 70.1826 116.189 70.0685 116.37 69.8745 C 116.551 69.6805 116.647 69.4227 116.638 69.1576 L 116.226 57.3648 C 116.217 57.0997 116.103 56.8492 115.909 56.6683 C 115.715 56.4875 115.457 56.391 115.192 56.4003 L 103.399 56.8121 C 103.134 56.8214 102.883 56.9355 102.703 57.1295 C 102.522 57.3235 102.425 57.5813 102.435 57.8464"
     id="path74_joined"
     style="fill:#000000;fill-opacity:0;stroke:#000000;stroke-width:0.15;stroke-linecap:round;stroke-linejoin:round;stroke-opacity:1" />
  <path
     d="M 44.0933 63.7594 L 45.7355 75.4445 L 44.0933 63.7594 C 44.0564 63.4968 44.1253 63.2302 44.2849 63.0184 C 44.4445 62.8065 44.6818 62.6668 44.9444 62.6299 L 56.6296 60.9877 C 57.1765 60.9109 57.6821 61.2919 57.759 61.8388 L 59.4012 73.5239 C 59.4381 73.7865 59.3692 74.0531 59.2096 74.2649 C 59.05 74.4768 58.8127 74.6165 58.5501 74.6534 L 46.865 76.2956 C 46.6024 76.3325 46.3358 76.2636 46.124 76.104 C 45.9121 75.9444 45.7724 75.7071 45.7355 75.4445"
     id="path82_joined"
     style="fill:#000000;fill-opacity:0;stroke:#000000;stroke-width:0.15;stroke-linecap:round;stroke-linejoin:round;stroke-opacity:1" />
  <path
     d="M 122.132 93.3061 L 122.132 81.5061 C 122.132 81.2409 122.238 80.9865 122.425 80.799 C 122.613 80.6115 122.867 80.5061 123.132 80.5061 L 134.932 80.5061 C 135.198 80.5061 135.452 80.6115 135.639 80.799 C 135.827 80.9865 135.932 81.2409 135.932 81.5061 L 135.932 93.3061 C 135.932 93.5713 135.827 93.8257 135.639 94.0132 C 135.452 94.2007 135.198 94.3061 134.932 94.3061 L 123.132 94.3061 C 122.867 94.3061 122.613 94.2007 122.425 94.0132 C 122.238 93.8257 122.132 93.5713 122.132 93.3061"
     id="path90_joined"
     style="fill:#000000;fill-opacity:0;stroke:#000000;stroke-width:0.15;stroke-linecap:round;stroke-linejoin:round;stroke-opacity:1" />
  <circle
     cx="81.279999"
     cy="76.708"
     r="1.6"
     id="circle97"
     style="fill:#000000;fill-opacity:0;stroke:#000000;stroke-width:0.15;stroke-linecap:round;stroke-linejoin:round;stroke-opacity:1" />
  <circle
     cx="145.54201"
     cy="115.316"
     r="1.6"
     id="circle98"
     style="fill:#000000;fill-opacity:0;stroke:#000000;stroke-width:0.15;stroke-linecap:round;stroke-linejoin:round;stroke-opacity:1" />
  <path
     d="M 83.1908 62.1253 L 82.3677 50.354 C 82.3292 49.8031 82.7446 49.3252 83.2955 49.2867 L 95.0667 48.4636 C 95.3313 48.4451 95.5924 48.5324 95.7926 48.7064 C 95.9927 48.8804 96.1156 49.1268 96.1341 49.3914 L 96.9572 61.1626 C 96.9757 61.4272 96.8884 61.6883 96.7144 61.8885 C 96.5404 62.0886 96.294 62.2115 96.0294 62.23 L 84.2581 63.0531 C 83.7072 63.0916 83.2293 62.6762 83.1908 62.1253"
     id="path98_joined"
     style="fill:#000000;fill-opacity:0;stroke:#000000;stroke-width:0.15;stroke-linecap:round;stroke-linejoin:round;stroke-opacity:1" />
  <path
     d="M 49.1592 99.8051 L 50.8014 111.49 C 50.8383 111.753 50.978 111.99 51.1899 112.15 C 51.4017 112.309 51.6683 112.378 51.9309 112.341 L 63.616 110.699 C 64.1629 110.622 64.5439 110.117 64.4671 109.57 L 62.8249 97.8845 C 62.748 97.3376 62.2424 96.9566 61.6955 97.0334 L 50.0103 98.6757 C 49.4634 98.7526 49.0824 99.2582 49.1592 99.8051"
     id="path106_joined"
     style="fill:#000000;fill-opacity:0;stroke:#000000;stroke-width:0.15;stroke-linecap:round;stroke-linejoin:round;stroke-opacity:1" />
  <path
     d="M 101.799 39.6574 L 102.211 51.4503 C 102.22 51.7154 102.335 51.9659 102.528 52.1468 C 102.722 52.3276 102.98 52.4241 103.245 52.4148 L 115.038 52.0029 C 115.303 51.9936 115.554 51.8795 115.735 51.6855 C 115.916 51.4915 116.012 51.2337 116.003 50.9686 L 115.591 39.1758 C 115.582 38.9107 115.467 38.6602 115.274 38.4793 C 115.08 38.2985 114.822 38.202 114.557 38.2113 L 102.764 38.6232 C 102.212 38.6425 101.78 39.1055 101.799 39.6574"
     id="path114_joined"
     style="fill:#000000;fill-opacity:0;stroke:#000000;stroke-width:0.15;stroke-linecap:round;stroke-linejoin:round;stroke-opacity:1" />
  <circle
     cx="102.108"
     cy="100.33"
     r="1.6"
     id="circle121"
     style="fill:#000000;fill-opacity:0;stroke:#000000;stroke-width:0.15;stroke-linecap:round;stroke-linejoin:round;stroke-opacity:1" />
  <path
     d="M 83.6372 68.5097 L 84.4604 80.2809 C 84.4789 80.5455 84.6017 80.7919 84.8019 80.9659 C 85.002 81.1399 85.2631 81.2273 85.5277 81.2088 L 97.2989 80.3856 C 97.5635 80.3671 97.8099 80.2443 97.9839 80.0441 C 98.1579 79.844 98.2453 79.5829 98.2268 79.3183 L 97.4036 67.5471 C 97.3851 67.2825 97.2623 67.0361 97.0621 66.8621 C 96.862 66.6881 96.6009 66.6007 96.3363 66.6192 L 84.5651 67.4424 C 84.3005 67.4609 84.0541 67.5837 83.8801 67.7839 C 83.7061 67.984 83.6187 68.2451 83.6372 68.5097"
     id="path122_joined"
     style="fill:#000000;fill-opacity:0;stroke:#000000;stroke-width:0.15;stroke-linecap:round;stroke-linejoin:round;stroke-opacity:1" />
  <path
     d="M 29.0466 94.352 L 31.0957 105.973 L 29.0466 94.352 C 29.0005 94.0908 29.0601 93.822 29.2123 93.6047 C 29.3644 93.3875 29.5966 93.2395 29.8578 93.1935 L 41.4785 91.1445 C 41.7397 91.0984 42.0085 91.158 42.2258 91.3102 C 42.443 91.4623 42.591 91.6945 42.637 91.9557 L 44.686 103.576 C 44.7819 104.12 44.4187 104.639 43.8748 104.735 L 32.2541 106.784 C 31.7102 106.88 31.1916 106.517 31.0957 105.973"
     id="path130_joined"
     style="fill:#000000;fill-opacity:0;stroke:#000000;stroke-width:0.15;stroke-linecap:round;stroke-linejoin:round;stroke-opacity:1" />
  <path
     d="M 65.1788 75.2332 L 63.9454 63.4978 C 63.8877 62.9486 64.2862 62.4565 64.8354 62.3988 L 76.5707 61.1653 C 76.8345 61.1376 77.0985 61.2158 77.3046 61.3827 C 77.5107 61.5496 77.6421 61.7915 77.6698 62.0553 L 78.9032 73.7907 C 78.9609 74.3399 78.5624 74.832 78.0132 74.8897 L 66.2779 76.1232 C 66.0141 76.1509 65.7501 76.0727 65.544 75.9058 C 65.3379 75.7389 65.2065 75.497 65.1788 75.2332"
     id="path138_joined"
     style="fill:#000000;fill-opacity:0;stroke:#000000;stroke-width:0.15;stroke-linecap:round;stroke-linejoin:round;stroke-opacity:1" />
  <path
     d="M 103.07 76.0353 L 103.481 87.8281 C 103.491 88.0932 103.605 88.3437 103.799 88.5246 C 103.993 88.7054 104.251 88.8019 104.516 88.7926 L 116.309 88.3808 C 116.574 88.3715 116.824 88.2574 117.005 88.0634 C 117.186 87.8694 117.282 87.6116 117.273 87.3465 L 116.861 75.5537 C 116.842 75.0018 116.379 74.57 115.827 74.5892 L 104.034 75.001 C 103.482 75.0203 103.05 75.4834 103.07 76.0353"
     id="path146_joined"
     style="fill:#000000;fill-opacity:0;stroke:#000000;stroke-width:0.15;stroke-linecap:round;stroke-linejoin:round;stroke-opacity:1" />
  <circle
     cx="98.806"
     cy="42.417999"
     r="1.6"
     id="circle153"
     style="fill:#000000;fill-opacity:0;stroke:#000000;stroke-width:0.15;stroke-linecap:round;stroke-linejoin:round;stroke-opacity:1" />
  <circle
     cx="44.195999"
     cy="88.391998"
     r="1.6"
     id="circle154"
     style="fill:#000000;fill-opacity:0;stroke:#000000;stroke-width:0.15;stroke-linecap:round;stroke-linejoin:round;stroke-opacity:1" />
  <path
     d="M 103.368 106.181 L 105.417 117.802 C 105.513 118.346 106.032 118.709 106.575 118.613 L 118.196 116.564 C 118.457 116.518 118.69 116.37 118.842 116.153 C 118.994 115.935 119.053 115.666 119.007 115.405 L 116.958 103.785 C 116.912 103.523 116.764 103.291 116.547 103.139 C 116.33 102.987 116.061 102.927 115.8 102.973 L 104.179 105.022 C 103.635 105.118 103.272 105.637 103.368 106.181"
     id="path154_joined"
     style="fill:#000000;fill-opacity:0;stroke:#000000;stroke-width:0.15;stroke-linecap:round;stroke-linejoin:round;stroke-opacity:1" />
  <g
     id="g161"
     style="fill:#000000;fill-opacity:0;stroke:#000000;stroke-width:0.15;stroke-linecap:round;stroke-linejoin:round;stroke-opacity:1" />
  <g
     id="g162"
     style="fill:#000000;fill-opacity:0;stroke:#000000;stroke-width:0.15;stroke-linecap:round;stroke-linejoin:round;stroke-opacity:1" />
  <g
     id="g163"
     style="fill:#000000;fill-opacity:0;stroke:#000000;stroke-width:0.15;stroke-linecap:round;stroke-linejoin:round;stroke-opacity:1" />
  <g
     id="g164"
     style="fill:#000000;fill-opacity:0;stroke:#000000;stroke-width:0.15;stroke-linecap:round;stroke-linejoin:round;stroke-opacity:1" />
  <g
     id="g165"
     style="fill:#000000;fill-opacity:0;stroke:#000000;stroke-width:0.15;stroke-linecap:round;stroke-linejoin:round;stroke-opacity:1" />
  <g
     id="g166"
     style="fill:#000000;fill-opacity:0;stroke:#000000;stroke-width:0.15;stroke-linecap:round;stroke-linejoin:round;stroke-opacity:1" />
  <g
     id="g167"
     style="fill:#000000;fill-opacity:0;stroke:#000000;stroke-width:0.15;stroke-linecap:round;stroke-linejoin:round;stroke-opacity:1" />
  <g
     id="g168"
     style="fill:#000000;fill-opacity:0;stroke:#000000;stroke-width:0.15;stroke-linecap:round;stroke-linejoin:round;stroke-opacity:1" />
  <g
     id="g169"
     style="fill:#000000;fill-opacity:0;stroke:#000000;stroke-width:0.15;stroke-linecap:round;stroke-linejoin:round;stroke-opacity:1" />
  <g
     id="g170"
     style="fill:#000000;fill-opacity:0;stroke:#000000;stroke-width:0.15;stroke-linecap:round;stroke-linejoin:round;stroke-opacity:1" />
  <g
     id="g171"
     style="fill:#000000;fill-opacity:0;stroke:#000000;stroke-width:0.15;stroke-linecap:round;stroke-linejoin:round;stroke-opacity:1" />
  <g
     id="g172"
     style="fill:#000000;fill-opacity:0;stroke:#000000;stroke-width:0.15;stroke-linecap:round;stroke-linejoin:round;stroke-opacity:1" />
  <g
     id="g173"
     style="fill:#000000;fill-opacity:0;stroke:#000000;stroke-width:0.15;stroke-linecap:round;stroke-linejoin:round;stroke-opacity:1" />
  <g
     id="g174"
     style="fill:#000000;fill-opacity:0;stroke:#000000;stroke-width:0.15;stroke-linecap:round;stroke-linejoin:round;stroke-opacity:1" />
  <g
     id="g175"
     style="fill:#000000;fill-opacity:0;stroke:#000000;stroke-width:0.15;stroke-linecap:round;stroke-linejoin:round;stroke-opacity:1" />
  <g
     id="g176"
     style="fill:#000000;fill-opacity:0;stroke:#000000;stroke-width:0.15;stroke-linecap:round;stroke-linejoin:round;stroke-opacity:1" />
  <g
     id="g177"
     style="fill:#000000;fill-opacity:0;stroke:#000000;stroke-width:0.15;stroke-linecap:round;stroke-linejoin:round;stroke-opacity:1" />
  <g
     id="g178"
     style="fill:#000000;fill-opacity:0;stroke:#000000;stroke-width:0.15;stroke-linecap:round;stroke-linejoin:round;stroke-opacity:1" />
  <g
     id="g179"
     style="fill:#000000;fill-opacity:0;stroke:#000000;stroke-width:0.15;stroke-linecap:round;stroke-linejoin:round;stroke-opacity:1" />
  <g
     id="g180"
     style="fill:#000000;fill-opacity:0;stroke:#000000;stroke-width:0.15;stroke-linecap:round;stroke-linejoin:round;stroke-opacity:1" />
  <g
     id="g181"
     style="fill:#000000;fill-opacity:0;stroke:#000000;stroke-width:0.15;stroke-linecap:round;stroke-linejoin:round;stroke-opacity:1" />
  <g
     id="g182"
     style="fill:#000000;fill-opacity:0;stroke:#000000;stroke-width:0.15;stroke-linecap:round;stroke-linejoin:round;stroke-opacity:1" />
  <g
     id="g183"
     style="fill:#000000;fill-opacity:0;stroke:#000000;stroke-width:0.15;stroke-linecap:round;stroke-linejoin:round;stroke-opacity:1" />
  <g
     id="g184"
     style="fill:#000000;fill-opacity:0;stroke:#000000;stroke-width:0.15;stroke-linecap:round;stroke-linejoin:round;stroke-opacity:1" />
  <g
     id="g185"
     style="fill:#000000;fill-opacity:0;stroke:#000000;stroke-width:0.15;stroke-linecap:round;stroke-linejoin:round;stroke-opacity:1" />
  <g
     id="g186"
     style="fill:#000000;fill-opacity:0;stroke:#000000;stroke-width:0.15;stroke-linecap:round;stroke-linejoin:round;stroke-opacity:1" />
  <g
     id="g187"
     style="fill:#000000;fill-opacity:0;stroke:#000000;stroke-width:0.15;stroke-linecap:round;stroke-linejoin:round;stroke-opacity:1" />
  <g
     id="g188"
     style="fill:#000000;fill-opacity:0;stroke:#000000;stroke-width:0.15;stroke-linecap:round;stroke-linejoin:round;stroke-opacity:1" />
  <g
     id="g189"
     style="fill:#000000;fill-opacity:0;stroke:#000000;stroke-width:0.15;stroke-linecap:round;stroke-linejoin:round;stroke-opacity:1" />
  <g
     id="g190"
     style="fill:#000000;fill-opacity:0;stroke:#000000;stroke-width:0.15;stroke-linecap:round;stroke-linejoin:round;stroke-opacity:1" />
  <g
     id="g191"
     style="fill:#000000;fill-opacity:0;stroke:#000000;stroke-width:0.15;stroke-linecap:round;stroke-linejoin:round;stroke-opacity:1" />
  <g
     id="g192"
     style="fill:#000000;fill-opacity:0;stroke:#000000;stroke-width:0.15;stroke-linecap:round;stroke-linejoin:round;stroke-opacity:1" />
  <g
     id="g193"
     style="fill:#000000;fill-opacity:0;stroke:#000000;stroke-width:0.15;stroke-linecap:round;stroke-linejoin:round;stroke-opacity:1" />
  <g
     id="g194"
     style="fill:#000000;fill-opacity:0;stroke:#000000;stroke-width:0.15;stroke-linecap:round;stroke-linejoin:round;stroke-opacity:1" />
  <g
     id="g195"
     style="fill:#000000;fill-opacity:0;stroke:#000000;stroke-width:0.15;stroke-linecap:round;stroke-linejoin:round;stroke-opacity:1" />
  <g
     id="g196"
     style="fill:#000000;fill-opacity:0;stroke:#000000;stroke-width:0.15;stroke-linecap:round;stroke-linejoin:round;stroke-opacity:1" />
  <g
     id="g197"
     style="fill:#000000;fill-opacity:0;stroke:#000000;stroke-width:0.15;stroke-linecap:round;stroke-linejoin:round;stroke-opacity:1" />
  <g
     id="g198"
     style="fill:#000000;fill-opacity:0;stroke:#000000;stroke-width:0.15;stroke-linecap:round;stroke-linejoin:round;stroke-opacity:1" />
  <g
     id="g199"
     style="fill:#000000;fill-opacity:0;stroke:#000000;stroke-width:0.15;stroke-linecap:round;stroke-linejoin:round;stroke-opacity:1" />
  <g
     id="g200"
     style="fill:#000000;fill-opacity:0;stroke:#000000;stroke-width:0.15;stroke-linecap:round;stroke-linejoin:round;stroke-opacity:1" />
  <g
     id="g201"
     style="fill:#000000;fill-opacity:0;stroke:#000000;stroke-width:0.15;stroke-linecap:round;stroke-linejoin:round;stroke-opacity:1" />
  <g
     id="g202"
     style="fill:#000000;fill-opacity:0;stroke:#000000;stroke-width:0.15;stroke-linecap:round;stroke-linejoin:round;stroke-opacity:1" />
  <g
     id="g203"
     style="fill:#000000;fill-opacity:0;stroke:#000000;stroke-width:0.15;stroke-linecap:round;stroke-linejoin:round;stroke-opacity:1" />
  <g
     id="g204"
     style="fill:#000000;fill-opacity:0;stroke:#000000;stroke-width:0.15;stroke-linecap:round;stroke-linejoin:round;stroke-opacity:1" />
  <g
     id="g205"
     style="fill:#000000;fill-opacity:0;stroke:#000000;stroke-width:0.15;stroke-linecap:round;stroke-linejoin:round;stroke-opacity:1" />
  <g
     id="g206"
     style="fill:#000000;fill-opacity:0;stroke:#000000;stroke-width:0.15;stroke-linecap:round;stroke-linejoin:round;stroke-opacity:1" />
  <g
     id="g207"
     style="fill:#000000;fill-opacity:0;stroke:#000000;stroke-width:0.15;stroke-linecap:round;stroke-linejoin:round;stroke-opacity:1" />
  <g
     id="g208"
     style="fill:#000000;fill-opacity:0;stroke:#000000;stroke-width:0.15;stroke-linecap:round;stroke-linejoin:round;stroke-opacity:1" />
  <g
     id="g209"
     style="fill:#000000;fill-opacity:0;stroke:#000000;stroke-width:0.15;stroke-linecap:round;stroke-linejoin:round;stroke-opacity:1" />
  <g
     id="g210"
     style="fill:#000000;fill-opacity:0;stroke:#000000;stroke-width:0.15;stroke-linecap:round;stroke-linejoin:round;stroke-opacity:1" />
  <g
     id="g211"
     style="fill:#000000;fill-opacity:0;stroke:#000000;stroke-width:0.15;stroke-linecap:round;stroke-linejoin:round;stroke-opacity:1" />
  <g
     id="g212"
     style="fill:#000000;fill-opacity:0;stroke:#000000;stroke-width:0.15;stroke-linecap:round;stroke-linejoin:round;stroke-opacity:1" />
  <g
     id="g213"
     style="fill:#000000;fill-opacity:0;stroke:#000000;stroke-width:0.15;stroke-linecap:round;stroke-linejoin:round;stroke-opacity:1" />
  <g
     id="g214"
     style="fill:#000000;fill-opacity:0;stroke:#000000;stroke-width:0.15;stroke-linecap:round;stroke-linejoin:round;stroke-opacity:1" />
  <g
     id="g215"
     style="fill:#000000;fill-opacity:0;stroke:#000000;stroke-width:0.15;stroke-linecap:round;stroke-linejoin:round;stroke-opacity:1" />
  <g
     id="g216"
     style="fill:#000000;fill-opacity:0;stroke:#000000;stroke-width:0.15;stroke-linecap:round;stroke-linejoin:round;stroke-opacity:1" />
  <g
     id="g217"
     style="fill:#000000;fill-opacity:0;stroke:#000000;stroke-width:0.15;stroke-linecap:round;stroke-linejoin:round;stroke-opacity:1" />
  <g
     id="g218"
     style="fill:#000000;fill-opacity:0;stroke:#000000;stroke-width:0.15;stroke-linecap:round;stroke-linejoin:round;stroke-opacity:1" />
  <g
     id="g219"
     style="fill:#000000;fill-opacity:0;stroke:#000000;stroke-width:0.15;stroke-linecap:round;stroke-linejoin:round;stroke-opacity:1" />
  <g
     id="g220"
     style="fill:#000000;fill-opacity:0;stroke:#000000;stroke-width:0.15;stroke-linecap:round;stroke-linejoin:round;stroke-opacity:1" />
  <g
     id="g221"
     style="fill:#000000;fill-opacity:0;stroke:#000000;stroke-width:0.15;stroke-linecap:round;stroke-linejoin:round;stroke-opacity:1" />
  <g
     id="g222"
     style="fill:#000000;fill-opacity:0;stroke:#000000;stroke-width:0.15;stroke-linecap:round;stroke-linejoin:round;stroke-opacity:1" />
  <g
     id="g223"
     style="fill:#000000;fill-opacity:0;stroke:#000000;stroke-width:0.15;stroke-linecap:round;stroke-linejoin:round;stroke-opacity:1" />
  <g
     id="g224"
     style="fill:#000000;fill-opacity:0;stroke:#000000;stroke-width:0.15;stroke-linecap:round;stroke-linejoin:round;stroke-opacity:1" />
  <g
     id="g225"
     style="fill:#000000;fill-opacity:0;stroke:#000000;stroke-width:0.15;stroke-linecap:round;stroke-linejoin:round;stroke-opacity:1" />
  <g
     id="g226"
     style="fill:#000000;fill-opacity:0;stroke:#000000;stroke-width:0.15;stroke-linecap:round;stroke-linejoin:round;stroke-opacity:1" />
  <g
     id="g227"
     style="fill:#000000;fill-opacity:0;stroke:#000000;stroke-width:0.15;stroke-linecap:round;stroke-linejoin:round;stroke-opacity:1" />
  <g
     id="g228"
     style="fill:#000000;fill-opacity:0;stroke:#000000;stroke-width:0.15;stroke-linecap:round;stroke-linejoin:round;stroke-opacity:1" />
  <g
     id="g229"
     style="fill:#000000;fill-opacity:0;stroke:#000000;stroke-width:0.15;stroke-linecap:round;stroke-linejoin:round;stroke-opacity:1" />
  <g
     id="g230"
     style="fill:#000000;fill-opacity:0;stroke:#000000;stroke-width:0.15;stroke-linecap:round;stroke-linejoin:round;stroke-opacity:1" />
  <g
     id="g231"
     style="fill:#000000;fill-opacity:0;stroke:#000000;stroke-width:0.15;stroke-linecap:round;stroke-linejoin:round;stroke-opacity:1" />
  <g
     id="g232"
     style="fill:#000000;fill-opacity:0;stroke:#000000;stroke-width:0.15;stroke-linecap:round;stroke-linejoin:round;stroke-opacity:1" />
  <g
     id="g233"
     style="fill:#000000;fill-opacity:0;stroke:#000000;stroke-width:0.15;stroke-linecap:round;stroke-linejoin:round;stroke-opacity:1" />
  <g
     id="g234"
     style="fill:#000000;fill-opacity:0;stroke:#000000;stroke-width:0.15;stroke-linecap:round;stroke-linejoin:round;stroke-opacity:1" />
  <g
     id="g235"
     style="fill:#000000;fill-opacity:0;stroke:#000000;stroke-width:0.15;stroke-linecap:round;stroke-linejoin:round;stroke-opacity:1" />
  <g
     id="g236"
     style="fill:#000000;fill-opacity:0;stroke:#000000;stroke-width:0.15;stroke-linecap:round;stroke-linejoin:round;stroke-opacity:1" />
  <g
     id="g237"
     style="fill:#000000;fill-opacity:0;stroke:#000000;stroke-width:0.15;stroke-linecap:round;stroke-linejoin:round;stroke-opacity:1" />
  <g
     id="g238"
     style="fill:#000000;fill-opacity:0;stroke:#000000;stroke-width:0.15;stroke-linecap:round;stroke-linejoin:round;stroke-opacity:1" />
  <g
     id="g239"
     style="fill:#000000;fill-opacity:0;stroke:#000000;stroke-width:0.15;stroke-linecap:round;stroke-linejoin:round;stroke-opacity:1" />
  <g
     id="g240"
     style="fill:#000000;fill-opacity:0;stroke:#000000;stroke-width:0.15;stroke-linecap:round;stroke-linejoin:round;stroke-opacity:1" />
  <g
     id="g241"
     style="fill:#000000;fill-opacity:0;stroke:#000000;stroke-width:0.15;stroke-linecap:round;stroke-linejoin:round;stroke-opacity:1" />
  <g
     id="g242"
     style="fill:#000000;fill-opacity:0;stroke:#000000;stroke-width:0.15;stroke-linecap:round;stroke-linejoin:round;stroke-opacity:1" />
  <g
     id="g243"
     style="fill:#000000;fill-opacity:0;stroke:#000000;stroke-width:0.15;stroke-linecap:round;stroke-linejoin:round;stroke-opacity:1" />
  <g
     id="g244"
     style="fill:#000000;fill-opacity:0;stroke:#000000;stroke-width:0.15;stroke-linecap:round;stroke-linejoin:round;stroke-opacity:1" />
  <g
     id="g245"
     style="fill:#000000;fill-opacity:0;stroke:#000000;stroke-width:0.15;stroke-linecap:round;stroke-linejoin:round;stroke-opacity:1" />
  <g
     id="g246"
     style="fill:#000000;fill-opacity:0;stroke:#000000;stroke-width:0.15;stroke-linecap:round;stroke-linejoin:round;stroke-opacity:1" />
  <g
     id="g247"
     style="fill:#000000;fill-opacity:0;stroke:#000000;stroke-width:0.15;stroke-linecap:round;stroke-linejoin:round;stroke-opacity:1" />
  <g
     id="g248"
     style="fill:#000000;fill-opacity:0;stroke:#000000;stroke-width:0.15;stroke-linecap:round;stroke-linejoin:round;stroke-opacity:1" />
  <g
     id="g249"
     style="fill:#000000;fill-opacity:0;stroke:#000000;stroke-width:0.15;stroke-linecap:round;stroke-linejoin:round;stroke-opacity:1" />
  <g
     id="g250"
     style="fill:#000000;fill-opacity:0;stroke:#000000;stroke-width:0.15;stroke-linecap:round;stroke-linejoin:round;stroke-opacity:1" />
  <metadata
     id="metadata251">
    <rdf:RDF>
      <cc:Work
         rdf:about="">
        <dc:title>SVG Image created as nightliner-User_2.svg date 2023/12/03 15:51:39 </dc:title>
      </cc:Work>
    </rdf:RDF>
  </metadata>
</svg>
