<?xml version="1.0" encoding="UTF-8" standalone="no"?>
<svg
   version="1.1"
   width="297.0022mm"
   height="210.0072mm"
   viewBox="0.0000 0.0000 297.0022 210.0072"
   id="svg251"
   sodipodi:docname="nightliner-User_3-joined.svg"
   inkscape:version="1.3 (0e150ed, 2023-07-21)"
   xmlns:inkscape="http://www.inkscape.org/namespaces/inkscape"
   xmlns:sodipodi="http://sodipodi.sourceforge.net/DTD/sodipodi-0.dtd"
   xmlns="http://www.w3.org/2000/svg"
   xmlns:svg="http://www.w3.org/2000/svg"
   xmlns:rdf="http://www.w3.org/1999/02/22-rdf-syntax-ns#"
   xmlns:cc="http://creativecommons.org/ns#"
   xmlns:dc="http://purl.org/dc/elements/1.1/">
  <sodipodi:namedview
     id="namedview251"
     pagecolor="#505050"
     bordercolor="#eeeeee"
     borderopacity="1"
     inkscape:showpageshadow="0"
     inkscape:pageopacity="0"
     inkscape:pagecheckerboard="0"
     inkscape:deskcolor="#505050"
     inkscape:document-units="mm"
     inkscape:zoom="1.8561565"
     inkscape:cx="360.69156"
     inkscape:cy="473.82857"
     inkscape:window-width="2536"
     inkscape:window-height="1478"
     inkscape:window-x="652"
     inkscape:window-y="35"
     inkscape:window-maximized="0"
     inkscape:current-layer="svg251" />
  <defs
     id="defs251" />
  <title
     id="title1">SVG Image created as nightliner-User_3.svg date 2023/12/03 15:51:39 </title>
  <desc
     id="desc1">Image generated by PCBNEW </desc>
  <g
     style="fill:#000000; fill-opacity:1.0000;stroke:#000000; stroke-opacity:1.0000; stroke-linecap:round; stroke-linejoin:round;"
     transform="translate(0 0) scale(1 1)"
     id="g1" />
  <g
     style="fill:#000000; fill-opacity:0.0;  stroke:#000000; stroke-width:0.0000; stroke-opacity:1;  stroke-linecap:round; stroke-linejoin:round;"
     id="g2" />
  <path
     d="M 45.9486 81.2716 L 47.7578 94.1451 C 47.7947 94.4077 47.9344 94.645 48.1463 94.8046 C 48.3581 94.9642 48.6247 95.0331 48.8873 94.9962 L 61.7608 93.1869 C 62.3077 93.11 62.6887 92.6044 62.6119 92.0575 L 60.8026 79.184 C 60.7257 78.6371 60.2201 78.2561 59.6732 78.3329 L 46.7997 80.1421 C 46.5371 80.179 46.2998 80.3187 46.1402 80.5306 C 45.9806 80.7424 45.9117 81.009 45.9486 81.2716"
     id="path2_joined"
     style="fill:#000000;fill-opacity:0;stroke:#000000;stroke-width:0.15;stroke-linecap:round;stroke-linejoin:round;stroke-opacity:1" />
  <path
     d="M 61.3835 44.8635 L 62.7424 57.7923 C 62.8001 58.3415 63.2922 58.74 63.8414 58.6823 L 76.7702 57.3234 C 77.3194 57.2657 77.7179 56.7736 77.6602 56.2244 L 76.3014 43.2956 C 76.2737 43.0318 76.1423 42.7899 75.9362 42.623 C 75.7301 42.4561 75.4661 42.3779 75.2023 42.4056 L 62.2735 43.7645 C 61.7243 43.8222 61.3258 44.3143 61.3835 44.8635"
     id="path10_joined"
     style="fill:#000000;fill-opacity:0;stroke:#000000;stroke-width:0.15;stroke-linecap:round;stroke-linejoin:round;stroke-opacity:1" />
  <path
     d="M 80.4577 31.6417 L 81.3646 44.61 C 81.4031 45.1609 81.881 45.5763 82.4319 45.5378 L 95.4002 44.631 C 95.9511 44.5925 96.3665 44.1146 96.328 43.5637 L 95.4212 30.5953 C 95.3827 30.0444 94.9048 29.629 94.3539 29.6675 L 81.3855 30.5744 C 80.8346 30.6129 80.4192 31.0908 80.4577 31.6417"
     id="path18_joined"
     style="fill:#000000;fill-opacity:0;stroke:#000000;stroke-width:0.15;stroke-linecap:round;stroke-linejoin:round;stroke-opacity:1" />
  <path
     d="M 25.1911 75.9418 L 27.4486 88.7443 C 27.5445 89.2882 28.0631 89.6514 28.607 89.5555 L 41.4095 87.298 C 41.9534 87.2021 42.3166 86.6835 42.2207 86.1396 L 39.9633 73.3371 C 39.9173 73.0759 39.7693 72.8437 39.5521 72.6916 C 39.3348 72.5394 39.066 72.4798 38.8048 72.5259 L 26.0023 74.7833 C 25.7411 74.8293 25.5089 74.9773 25.3568 75.1945 C 25.2046 75.4118 25.145 75.6806 25.1911 75.9418"
     id="path26_joined"
     style="fill:#000000;fill-opacity:0;stroke:#000000;stroke-width:0.15;stroke-linecap:round;stroke-linejoin:round;stroke-opacity:1" />
  <path
     d="M 153.706 112.018 L 145.349 121.977 C 144.994 122.4 145.05 123.03 145.473 123.385 L 155.431 131.742 C 155.634 131.912 155.897 131.995 156.161 131.972 C 156.425 131.949 156.67 131.822 156.84 131.618 L 165.196 121.66 C 165.551 121.237 165.496 120.606 165.073 120.251 L 155.114 111.895 C 154.911 111.724 154.649 111.641 154.385 111.665 C 154.12 111.688 153.876 111.815 153.706 112.018"
     id="path34_joined"
     style="fill:#000000;fill-opacity:0;stroke:#000000;stroke-width:0.15;stroke-linecap:round;stroke-linejoin:round;stroke-opacity:1" />
  <path
     d="M 121.532 44.5061 L 121.532 57.5061 L 121.532 44.5061 C 121.532 44.2409 121.638 43.9865 121.825 43.799 C 122.013 43.6115 122.267 43.5061 122.532 43.5061 L 135.532 43.5061 C 135.798 43.5061 136.052 43.6115 136.239 43.799 C 136.427 43.9865 136.532 44.2409 136.532 44.5061 L 136.532 57.5061 C 136.532 57.7713 136.427 58.0257 136.239 58.2132 C 136.052 58.4007 135.798 58.5061 135.532 58.5061 L 122.532 58.5061 C 122.267 58.5061 122.013 58.4007 121.825 58.2132 C 121.638 58.0257 121.532 57.7713 121.532 57.5061"
     id="path42_joined"
     style="fill:#000000;fill-opacity:0;stroke:#000000;stroke-width:0.15;stroke-linecap:round;stroke-linejoin:round;stroke-opacity:1" />
  <path
     d="M 128.89 103.199 L 125.526 115.756 C 125.457 116.012 125.493 116.285 125.625 116.515 C 125.758 116.745 125.977 116.912 126.233 116.981 L 138.79 120.346 C 139.046 120.414 139.319 120.378 139.549 120.246 C 139.778 120.113 139.946 119.895 140.015 119.639 L 143.379 107.082 C 143.448 106.825 143.412 106.552 143.279 106.323 C 143.147 106.093 142.928 105.925 142.672 105.857 L 130.115 102.492 C 129.859 102.424 129.586 102.459 129.356 102.592 C 129.126 102.725 128.959 102.943 128.89 103.199"
     id="path50_joined"
     style="fill:#000000;fill-opacity:0;stroke:#000000;stroke-width:0.15;stroke-linecap:round;stroke-linejoin:round;stroke-opacity:1" />
  <path
     d="M 121.532 62.7061 L 121.532 75.7061 C 121.532 75.9713 121.638 76.2257 121.825 76.4132 C 122.013 76.6007 122.267 76.7061 122.532 76.7061 L 135.532 76.7061 C 135.798 76.7061 136.052 76.6007 136.239 76.4132 C 136.427 76.2257 136.532 75.9713 136.532 75.7061 L 136.532 62.7061 C 136.532 62.4409 136.427 62.1865 136.239 61.999 C 136.052 61.8115 135.798 61.7061 135.532 61.7061 L 122.532 61.7061 C 122.267 61.7061 122.013 61.8115 121.825 61.999 C 121.638 62.1865 121.532 62.4409 121.532 62.7061"
     id="path58_joined"
     style="fill:#000000;fill-opacity:0;stroke:#000000;stroke-width:0.15;stroke-linecap:round;stroke-linejoin:round;stroke-opacity:1" />
  <path
     d="M 65.1884 81.0641 L 66.5472 93.9929 C 66.5749 94.2567 66.7063 94.4986 66.9124 94.6655 C 67.1185 94.8324 67.3825 94.9106 67.6463 94.8829 L 80.5751 93.524 C 81.1243 93.4663 81.5228 92.9742 81.4651 92.425 L 80.1062 79.4962 C 80.0785 79.2324 79.9471 78.9905 79.741 78.8236 C 79.5349 78.6567 79.2709 78.5785 79.0071 78.6062 L 66.0784 79.9651 C 65.5292 80.0228 65.1307 80.5149 65.1884 81.0641"
     id="path66_joined"
     style="fill:#000000;fill-opacity:0;stroke:#000000;stroke-width:0.15;stroke-linecap:round;stroke-linejoin:round;stroke-opacity:1" />
  <path
     d="M 101.814 57.2677 L 102.268 70.2597 C 102.277 70.5248 102.391 70.7753 102.585 70.9562 C 102.779 71.137 103.037 71.2335 103.302 71.2242 L 116.294 70.7705 C 116.846 70.7512 117.278 70.2882 117.259 69.7363 L 116.805 56.7442 C 116.796 56.4791 116.681 56.2286 116.487 56.0477 C 116.293 55.8669 116.036 55.7704 115.77 55.7797 L 102.778 56.2334 C 102.513 56.2427 102.263 56.3568 102.082 56.5508 C 101.901 56.7448 101.805 57.0026 101.814 57.2677"
     id="path74_joined"
     style="fill:#000000;fill-opacity:0;stroke:#000000;stroke-width:0.15;stroke-linecap:round;stroke-linejoin:round;stroke-opacity:1" />
  <path
     d="M 43.4156 63.2487 L 45.2249 76.1222 L 43.4156 63.2487 C 43.3388 62.7018 43.7198 62.1962 44.2667 62.1193 L 57.1402 60.31 C 57.4028 60.2731 57.6694 60.342 57.8812 60.5016 C 58.0931 60.6612 58.2328 60.8985 58.2697 61.1611 L 60.0789 74.0346 C 60.1557 74.5815 59.7747 75.0871 59.2278 75.164 L 46.3543 76.9733 C 45.8074 77.0501 45.3018 76.6691 45.2249 76.1222"
     id="path82_joined"
     style="fill:#000000;fill-opacity:0;stroke:#000000;stroke-width:0.15;stroke-linecap:round;stroke-linejoin:round;stroke-opacity:1" />
  <path
     d="M 121.532 80.9061 L 121.532 93.9061 L 121.532 80.9061 C 121.532 80.6409 121.638 80.3865 121.825 80.199 C 122.013 80.0115 122.267 79.9061 122.532 79.9061 L 135.532 79.9061 C 135.798 79.9061 136.052 80.0115 136.239 80.199 C 136.427 80.3865 136.532 80.6409 136.532 80.9061 L 136.532 93.9061 C 136.532 94.1713 136.427 94.4257 136.239 94.6132 C 136.052 94.8007 135.798 94.9061 135.532 94.9061 L 122.532 94.9061 C 122.267 94.9061 122.013 94.8007 121.825 94.6132 C 121.638 94.4257 121.532 94.1713 121.532 93.9061"
     id="path90_joined"
     style="fill:#000000;fill-opacity:0;stroke:#000000;stroke-width:0.15;stroke-linecap:round;stroke-linejoin:round;stroke-opacity:1" />
  <path
     d="M 81.7273 49.7973 L 82.6341 62.7657 L 81.7273 49.7973 C 81.6888 49.2464 82.1042 48.7685 82.6551 48.73 L 95.6234 47.8232 C 96.1743 47.7847 96.6522 48.2001 96.6907 48.751 L 97.5976 61.7193 C 97.6361 62.2702 97.2207 62.7481 96.6698 62.7866 L 83.7014 63.6935 C 83.1505 63.732 82.6726 63.3166 82.6341 62.7657"
     id="path98_joined"
     style="fill:#000000;fill-opacity:0;stroke:#000000;stroke-width:0.15;stroke-linecap:round;stroke-linejoin:round;stroke-opacity:1" />
  <path
     d="M 48.4815 99.2945 L 50.2908 112.168 L 48.4815 99.2945 C 48.4446 99.0319 48.5135 98.7653 48.6731 98.5535 C 48.8327 98.3416 49.07 98.2019 49.3326 98.165 L 62.2061 96.3558 C 62.4687 96.3189 62.7353 96.3878 62.9471 96.5474 C 63.159 96.707 63.2987 96.9443 63.3356 97.2069 L 65.1448 110.08 C 65.1817 110.343 65.1128 110.61 64.9532 110.821 C 64.7936 111.033 64.5563 111.173 64.2937 111.21 L 51.4202 113.019 C 50.8733 113.096 50.3677 112.715 50.2908 112.168"
     id="path106_joined"
     style="fill:#000000;fill-opacity:0;stroke:#000000;stroke-width:0.15;stroke-linecap:round;stroke-linejoin:round;stroke-opacity:1" />
  <path
     d="M 101.179 39.0788 L 101.632 52.0708 C 101.642 52.3359 101.756 52.5864 101.95 52.7673 C 102.144 52.9481 102.402 53.0446 102.667 53.0353 L 115.659 52.5816 C 115.924 52.5723 116.174 52.4582 116.355 52.2642 C 116.536 52.0702 116.633 51.8124 116.623 51.5473 L 116.17 38.5553 C 116.16 38.2902 116.046 38.0397 115.852 37.8588 C 115.658 37.678 115.4 37.5815 115.135 37.5908 L 102.143 38.0445 C 101.878 38.0538 101.628 38.1679 101.447 38.3619 C 101.266 38.5559 101.169 38.8137 101.179 39.0788"
     id="path114_joined"
     style="fill:#000000;fill-opacity:0;stroke:#000000;stroke-width:0.15;stroke-linecap:round;stroke-linejoin:round;stroke-opacity:1" />
  <path
     d="M 83.9037 80.9213 L 82.9969 67.953 C 82.9584 67.4021 83.3738 66.9242 83.9247 66.8857 L 96.893 65.9789 C 97.4439 65.9404 97.9218 66.3558 97.9603 66.9067 L 98.8671 79.875 C 98.9056 80.4259 98.4902 80.9038 97.9393 80.9423 L 84.971 81.8491 C 84.4201 81.8876 83.9422 81.4722 83.9037 80.9213"
     id="path122_joined"
     style="fill:#000000;fill-opacity:0;stroke:#000000;stroke-width:0.15;stroke-linecap:round;stroke-linejoin:round;stroke-opacity:1" />
  <path
     d="M 28.3515 93.8653 L 30.609 106.668 L 28.3515 93.8653 C 28.3054 93.6041 28.365 93.3353 28.5172 93.118 C 28.6693 92.9008 28.9015 92.7528 29.1627 92.7068 L 41.9652 90.4494 C 42.5091 90.3535 43.0277 90.7167 43.1236 91.2606 L 45.3811 104.063 C 45.477 104.607 45.1138 105.126 44.5699 105.222 L 31.7674 107.479 C 31.2235 107.575 30.7049 107.212 30.609 106.668"
     id="path130_joined"
     style="fill:#000000;fill-opacity:0;stroke:#000000;stroke-width:0.15;stroke-linecap:round;stroke-linejoin:round;stroke-opacity:1" />
  <path
     d="M 63.2859 62.9638 L 64.6448 75.8926 C 64.6725 76.1564 64.8039 76.3983 65.01 76.5652 C 65.2161 76.7321 65.4801 76.8103 65.7439 76.7826 L 78.6727 75.4237 C 79.2219 75.3659 79.6203 74.8739 79.5626 74.3247 L 78.2038 61.3959 C 78.1761 61.1321 78.0447 60.8902 77.8386 60.7233 C 77.6325 60.5564 77.3685 60.4782 77.1047 60.5059 L 64.1759 61.8648 C 63.6267 61.9225 63.2282 62.4146 63.2859 62.9638"
     id="path138_joined"
     style="fill:#000000;fill-opacity:0;stroke:#000000;stroke-width:0.15;stroke-linecap:round;stroke-linejoin:round;stroke-opacity:1" />
  <path
     d="M 102.449 75.4566 L 102.903 88.4487 C 102.912 88.7138 103.026 88.9643 103.22 89.1452 C 103.414 89.326 103.672 89.4225 103.937 89.4132 L 116.929 88.9595 C 117.194 88.9502 117.445 88.8361 117.626 88.6421 C 117.806 88.4481 117.903 88.1903 117.894 87.9252 L 117.44 74.9331 C 117.431 74.668 117.316 74.4175 117.123 74.2366 C 116.929 74.0558 116.671 73.9593 116.406 73.9686 L 103.414 74.4223 C 103.149 74.4316 102.898 74.5457 102.717 74.7397 C 102.536 74.9337 102.44 75.1915 102.449 75.4566"
     id="path146_joined"
     style="fill:#000000;fill-opacity:0;stroke:#000000;stroke-width:0.15;stroke-linecap:round;stroke-linejoin:round;stroke-opacity:1" />
  <path
     d="M 102.673 105.694 L 104.93 118.497 C 105.026 119.041 105.545 119.404 106.089 119.308 L 118.891 117.05 C 119.152 117.004 119.385 116.857 119.537 116.639 C 119.689 116.422 119.748 116.153 119.702 115.892 L 117.445 103.09 C 117.399 102.828 117.251 102.596 117.034 102.444 C 116.816 102.292 116.548 102.232 116.286 102.278 L 103.484 104.536 C 102.94 104.632 102.577 105.15 102.673 105.694"
     id="path154_joined"
     style="fill:#000000;fill-opacity:0;stroke:#000000;stroke-width:0.15;stroke-linecap:round;stroke-linejoin:round;stroke-opacity:1" />
  <g
     id="g161"
     style="fill:#000000;fill-opacity:0;stroke:#000000;stroke-width:0.15;stroke-linecap:round;stroke-linejoin:round;stroke-opacity:1" />
  <g
     id="g162"
     style="fill:#000000;fill-opacity:0;stroke:#000000;stroke-width:0.15;stroke-linecap:round;stroke-linejoin:round;stroke-opacity:1" />
  <g
     id="g163"
     style="fill:#000000;fill-opacity:0;stroke:#000000;stroke-width:0.15;stroke-linecap:round;stroke-linejoin:round;stroke-opacity:1" />
  <g
     id="g164"
     style="fill:#000000;fill-opacity:0;stroke:#000000;stroke-width:0.15;stroke-linecap:round;stroke-linejoin:round;stroke-opacity:1" />
  <g
     id="g165"
     style="fill:#000000;fill-opacity:0;stroke:#000000;stroke-width:0.15;stroke-linecap:round;stroke-linejoin:round;stroke-opacity:1" />
  <g
     id="g166"
     style="fill:#000000;fill-opacity:0;stroke:#000000;stroke-width:0.15;stroke-linecap:round;stroke-linejoin:round;stroke-opacity:1" />
  <g
     id="g167"
     style="fill:#000000;fill-opacity:0;stroke:#000000;stroke-width:0.15;stroke-linecap:round;stroke-linejoin:round;stroke-opacity:1" />
  <g
     id="g168"
     style="fill:#000000;fill-opacity:0;stroke:#000000;stroke-width:0.15;stroke-linecap:round;stroke-linejoin:round;stroke-opacity:1" />
  <g
     id="g169"
     style="fill:#000000;fill-opacity:0;stroke:#000000;stroke-width:0.15;stroke-linecap:round;stroke-linejoin:round;stroke-opacity:1" />
  <g
     id="g170"
     style="fill:#000000;fill-opacity:0;stroke:#000000;stroke-width:0.15;stroke-linecap:round;stroke-linejoin:round;stroke-opacity:1" />
  <g
     id="g171"
     style="fill:#000000;fill-opacity:0;stroke:#000000;stroke-width:0.15;stroke-linecap:round;stroke-linejoin:round;stroke-opacity:1" />
  <g
     id="g172"
     style="fill:#000000;fill-opacity:0;stroke:#000000;stroke-width:0.15;stroke-linecap:round;stroke-linejoin:round;stroke-opacity:1" />
  <g
     id="g173"
     style="fill:#000000;fill-opacity:0;stroke:#000000;stroke-width:0.15;stroke-linecap:round;stroke-linejoin:round;stroke-opacity:1" />
  <g
     id="g174"
     style="fill:#000000;fill-opacity:0;stroke:#000000;stroke-width:0.15;stroke-linecap:round;stroke-linejoin:round;stroke-opacity:1" />
  <g
     id="g175"
     style="fill:#000000;fill-opacity:0;stroke:#000000;stroke-width:0.15;stroke-linecap:round;stroke-linejoin:round;stroke-opacity:1" />
  <g
     id="g176"
     style="fill:#000000;fill-opacity:0;stroke:#000000;stroke-width:0.15;stroke-linecap:round;stroke-linejoin:round;stroke-opacity:1" />
  <g
     id="g177"
     style="fill:#000000;fill-opacity:0;stroke:#000000;stroke-width:0.15;stroke-linecap:round;stroke-linejoin:round;stroke-opacity:1" />
  <g
     id="g178"
     style="fill:#000000;fill-opacity:0;stroke:#000000;stroke-width:0.15;stroke-linecap:round;stroke-linejoin:round;stroke-opacity:1" />
  <g
     id="g179"
     style="fill:#000000;fill-opacity:0;stroke:#000000;stroke-width:0.15;stroke-linecap:round;stroke-linejoin:round;stroke-opacity:1" />
  <g
     id="g180"
     style="fill:#000000;fill-opacity:0;stroke:#000000;stroke-width:0.15;stroke-linecap:round;stroke-linejoin:round;stroke-opacity:1" />
  <g
     id="g181"
     style="fill:#000000;fill-opacity:0;stroke:#000000;stroke-width:0.15;stroke-linecap:round;stroke-linejoin:round;stroke-opacity:1" />
  <g
     id="g182"
     style="fill:#000000;fill-opacity:0;stroke:#000000;stroke-width:0.15;stroke-linecap:round;stroke-linejoin:round;stroke-opacity:1" />
  <g
     id="g183"
     style="fill:#000000;fill-opacity:0;stroke:#000000;stroke-width:0.15;stroke-linecap:round;stroke-linejoin:round;stroke-opacity:1" />
  <g
     id="g184"
     style="fill:#000000;fill-opacity:0;stroke:#000000;stroke-width:0.15;stroke-linecap:round;stroke-linejoin:round;stroke-opacity:1" />
  <g
     id="g185"
     style="fill:#000000;fill-opacity:0;stroke:#000000;stroke-width:0.15;stroke-linecap:round;stroke-linejoin:round;stroke-opacity:1" />
  <g
     id="g186"
     style="fill:#000000;fill-opacity:0;stroke:#000000;stroke-width:0.15;stroke-linecap:round;stroke-linejoin:round;stroke-opacity:1" />
  <g
     id="g187"
     style="fill:#000000;fill-opacity:0;stroke:#000000;stroke-width:0.15;stroke-linecap:round;stroke-linejoin:round;stroke-opacity:1" />
  <g
     id="g188"
     style="fill:#000000;fill-opacity:0;stroke:#000000;stroke-width:0.15;stroke-linecap:round;stroke-linejoin:round;stroke-opacity:1" />
  <g
     id="g189"
     style="fill:#000000;fill-opacity:0;stroke:#000000;stroke-width:0.15;stroke-linecap:round;stroke-linejoin:round;stroke-opacity:1" />
  <g
     id="g190"
     style="fill:#000000;fill-opacity:0;stroke:#000000;stroke-width:0.15;stroke-linecap:round;stroke-linejoin:round;stroke-opacity:1" />
  <g
     id="g191"
     style="fill:#000000;fill-opacity:0;stroke:#000000;stroke-width:0.15;stroke-linecap:round;stroke-linejoin:round;stroke-opacity:1" />
  <g
     id="g192"
     style="fill:#000000;fill-opacity:0;stroke:#000000;stroke-width:0.15;stroke-linecap:round;stroke-linejoin:round;stroke-opacity:1" />
  <g
     id="g193"
     style="fill:#000000;fill-opacity:0;stroke:#000000;stroke-width:0.15;stroke-linecap:round;stroke-linejoin:round;stroke-opacity:1" />
  <g
     id="g194"
     style="fill:#000000;fill-opacity:0;stroke:#000000;stroke-width:0.15;stroke-linecap:round;stroke-linejoin:round;stroke-opacity:1" />
  <g
     id="g195"
     style="fill:#000000;fill-opacity:0;stroke:#000000;stroke-width:0.15;stroke-linecap:round;stroke-linejoin:round;stroke-opacity:1" />
  <g
     id="g196"
     style="fill:#000000;fill-opacity:0;stroke:#000000;stroke-width:0.15;stroke-linecap:round;stroke-linejoin:round;stroke-opacity:1" />
  <g
     id="g197"
     style="fill:#000000;fill-opacity:0;stroke:#000000;stroke-width:0.15;stroke-linecap:round;stroke-linejoin:round;stroke-opacity:1" />
  <g
     id="g198"
     style="fill:#000000;fill-opacity:0;stroke:#000000;stroke-width:0.15;stroke-linecap:round;stroke-linejoin:round;stroke-opacity:1" />
  <g
     id="g199"
     style="fill:#000000;fill-opacity:0;stroke:#000000;stroke-width:0.15;stroke-linecap:round;stroke-linejoin:round;stroke-opacity:1" />
  <g
     id="g200"
     style="fill:#000000;fill-opacity:0;stroke:#000000;stroke-width:0.15;stroke-linecap:round;stroke-linejoin:round;stroke-opacity:1" />
  <g
     id="g201"
     style="fill:#000000;fill-opacity:0;stroke:#000000;stroke-width:0.15;stroke-linecap:round;stroke-linejoin:round;stroke-opacity:1" />
  <g
     id="g202"
     style="fill:#000000;fill-opacity:0;stroke:#000000;stroke-width:0.15;stroke-linecap:round;stroke-linejoin:round;stroke-opacity:1" />
  <g
     id="g203"
     style="fill:#000000;fill-opacity:0;stroke:#000000;stroke-width:0.15;stroke-linecap:round;stroke-linejoin:round;stroke-opacity:1" />
  <g
     id="g204"
     style="fill:#000000;fill-opacity:0;stroke:#000000;stroke-width:0.15;stroke-linecap:round;stroke-linejoin:round;stroke-opacity:1" />
  <g
     id="g205"
     style="fill:#000000;fill-opacity:0;stroke:#000000;stroke-width:0.15;stroke-linecap:round;stroke-linejoin:round;stroke-opacity:1" />
  <g
     id="g206"
     style="fill:#000000;fill-opacity:0;stroke:#000000;stroke-width:0.15;stroke-linecap:round;stroke-linejoin:round;stroke-opacity:1" />
  <g
     id="g207"
     style="fill:#000000;fill-opacity:0;stroke:#000000;stroke-width:0.15;stroke-linecap:round;stroke-linejoin:round;stroke-opacity:1" />
  <g
     id="g208"
     style="fill:#000000;fill-opacity:0;stroke:#000000;stroke-width:0.15;stroke-linecap:round;stroke-linejoin:round;stroke-opacity:1" />
  <g
     id="g209"
     style="fill:#000000;fill-opacity:0;stroke:#000000;stroke-width:0.15;stroke-linecap:round;stroke-linejoin:round;stroke-opacity:1" />
  <g
     id="g210"
     style="fill:#000000;fill-opacity:0;stroke:#000000;stroke-width:0.15;stroke-linecap:round;stroke-linejoin:round;stroke-opacity:1" />
  <g
     id="g211"
     style="fill:#000000;fill-opacity:0;stroke:#000000;stroke-width:0.15;stroke-linecap:round;stroke-linejoin:round;stroke-opacity:1" />
  <g
     id="g212"
     style="fill:#000000;fill-opacity:0;stroke:#000000;stroke-width:0.15;stroke-linecap:round;stroke-linejoin:round;stroke-opacity:1" />
  <g
     id="g213"
     style="fill:#000000;fill-opacity:0;stroke:#000000;stroke-width:0.15;stroke-linecap:round;stroke-linejoin:round;stroke-opacity:1" />
  <g
     id="g214"
     style="fill:#000000;fill-opacity:0;stroke:#000000;stroke-width:0.15;stroke-linecap:round;stroke-linejoin:round;stroke-opacity:1" />
  <g
     id="g215"
     style="fill:#000000;fill-opacity:0;stroke:#000000;stroke-width:0.15;stroke-linecap:round;stroke-linejoin:round;stroke-opacity:1" />
  <g
     id="g216"
     style="fill:#000000;fill-opacity:0;stroke:#000000;stroke-width:0.15;stroke-linecap:round;stroke-linejoin:round;stroke-opacity:1" />
  <g
     id="g217"
     style="fill:#000000;fill-opacity:0;stroke:#000000;stroke-width:0.15;stroke-linecap:round;stroke-linejoin:round;stroke-opacity:1" />
  <g
     id="g218"
     style="fill:#000000;fill-opacity:0;stroke:#000000;stroke-width:0.15;stroke-linecap:round;stroke-linejoin:round;stroke-opacity:1" />
  <g
     id="g219"
     style="fill:#000000;fill-opacity:0;stroke:#000000;stroke-width:0.15;stroke-linecap:round;stroke-linejoin:round;stroke-opacity:1" />
  <g
     id="g220"
     style="fill:#000000;fill-opacity:0;stroke:#000000;stroke-width:0.15;stroke-linecap:round;stroke-linejoin:round;stroke-opacity:1" />
  <g
     id="g221"
     style="fill:#000000;fill-opacity:0;stroke:#000000;stroke-width:0.15;stroke-linecap:round;stroke-linejoin:round;stroke-opacity:1" />
  <g
     id="g222"
     style="fill:#000000;fill-opacity:0;stroke:#000000;stroke-width:0.15;stroke-linecap:round;stroke-linejoin:round;stroke-opacity:1" />
  <g
     id="g223"
     style="fill:#000000;fill-opacity:0;stroke:#000000;stroke-width:0.15;stroke-linecap:round;stroke-linejoin:round;stroke-opacity:1" />
  <g
     id="g224"
     style="fill:#000000;fill-opacity:0;stroke:#000000;stroke-width:0.15;stroke-linecap:round;stroke-linejoin:round;stroke-opacity:1" />
  <g
     id="g225"
     style="fill:#000000;fill-opacity:0;stroke:#000000;stroke-width:0.15;stroke-linecap:round;stroke-linejoin:round;stroke-opacity:1" />
  <g
     id="g226"
     style="fill:#000000;fill-opacity:0;stroke:#000000;stroke-width:0.15;stroke-linecap:round;stroke-linejoin:round;stroke-opacity:1" />
  <g
     id="g227"
     style="fill:#000000;fill-opacity:0;stroke:#000000;stroke-width:0.15;stroke-linecap:round;stroke-linejoin:round;stroke-opacity:1" />
  <g
     id="g228"
     style="fill:#000000;fill-opacity:0;stroke:#000000;stroke-width:0.15;stroke-linecap:round;stroke-linejoin:round;stroke-opacity:1" />
  <g
     id="g229"
     style="fill:#000000;fill-opacity:0;stroke:#000000;stroke-width:0.15;stroke-linecap:round;stroke-linejoin:round;stroke-opacity:1" />
  <g
     id="g230"
     style="fill:#000000;fill-opacity:0;stroke:#000000;stroke-width:0.15;stroke-linecap:round;stroke-linejoin:round;stroke-opacity:1" />
  <g
     id="g231"
     style="fill:#000000;fill-opacity:0;stroke:#000000;stroke-width:0.15;stroke-linecap:round;stroke-linejoin:round;stroke-opacity:1" />
  <g
     id="g232"
     style="fill:#000000;fill-opacity:0;stroke:#000000;stroke-width:0.15;stroke-linecap:round;stroke-linejoin:round;stroke-opacity:1" />
  <g
     id="g233"
     style="fill:#000000;fill-opacity:0;stroke:#000000;stroke-width:0.15;stroke-linecap:round;stroke-linejoin:round;stroke-opacity:1" />
  <g
     id="g234"
     style="fill:#000000;fill-opacity:0;stroke:#000000;stroke-width:0.15;stroke-linecap:round;stroke-linejoin:round;stroke-opacity:1" />
  <g
     id="g235"
     style="fill:#000000;fill-opacity:0;stroke:#000000;stroke-width:0.15;stroke-linecap:round;stroke-linejoin:round;stroke-opacity:1" />
  <g
     id="g236"
     style="fill:#000000;fill-opacity:0;stroke:#000000;stroke-width:0.15;stroke-linecap:round;stroke-linejoin:round;stroke-opacity:1" />
  <g
     id="g237"
     style="fill:#000000;fill-opacity:0;stroke:#000000;stroke-width:0.15;stroke-linecap:round;stroke-linejoin:round;stroke-opacity:1" />
  <g
     id="g238"
     style="fill:#000000;fill-opacity:0;stroke:#000000;stroke-width:0.15;stroke-linecap:round;stroke-linejoin:round;stroke-opacity:1" />
  <g
     id="g239"
     style="fill:#000000;fill-opacity:0;stroke:#000000;stroke-width:0.15;stroke-linecap:round;stroke-linejoin:round;stroke-opacity:1" />
  <g
     id="g240"
     style="fill:#000000;fill-opacity:0;stroke:#000000;stroke-width:0.15;stroke-linecap:round;stroke-linejoin:round;stroke-opacity:1" />
  <g
     id="g241"
     style="fill:#000000;fill-opacity:0;stroke:#000000;stroke-width:0.15;stroke-linecap:round;stroke-linejoin:round;stroke-opacity:1" />
  <g
     id="g242"
     style="fill:#000000;fill-opacity:0;stroke:#000000;stroke-width:0.15;stroke-linecap:round;stroke-linejoin:round;stroke-opacity:1" />
  <g
     id="g243"
     style="fill:#000000;fill-opacity:0;stroke:#000000;stroke-width:0.15;stroke-linecap:round;stroke-linejoin:round;stroke-opacity:1" />
  <g
     id="g244"
     style="fill:#000000;fill-opacity:0;stroke:#000000;stroke-width:0.15;stroke-linecap:round;stroke-linejoin:round;stroke-opacity:1" />
  <g
     id="g245"
     style="fill:#000000;fill-opacity:0;stroke:#000000;stroke-width:0.15;stroke-linecap:round;stroke-linejoin:round;stroke-opacity:1" />
  <g
     id="g246"
     style="fill:#000000;fill-opacity:0;stroke:#000000;stroke-width:0.15;stroke-linecap:round;stroke-linejoin:round;stroke-opacity:1" />
  <g
     id="g247"
     style="fill:#000000;fill-opacity:0;stroke:#000000;stroke-width:0.15;stroke-linecap:round;stroke-linejoin:round;stroke-opacity:1" />
  <g
     id="g248"
     style="fill:#000000;fill-opacity:0;stroke:#000000;stroke-width:0.15;stroke-linecap:round;stroke-linejoin:round;stroke-opacity:1" />
  <g
     id="g249"
     style="fill:#000000;fill-opacity:0;stroke:#000000;stroke-width:0.15;stroke-linecap:round;stroke-linejoin:round;stroke-opacity:1" />
  <g
     id="g250"
     style="fill:#000000;fill-opacity:0;stroke:#000000;stroke-width:0.15;stroke-linecap:round;stroke-linejoin:round;stroke-opacity:1" />
  <metadata
     id="metadata251">
    <rdf:RDF>
      <cc:Work
         rdf:about="">
        <dc:title>SVG Image created as nightliner-User_3.svg date 2023/12/03 15:51:39 </dc:title>
      </cc:Work>
    </rdf:RDF>
  </metadata>
</svg>
