<?xml version="1.0" standalone="no"?>
 <!DOCTYPE svg PUBLIC "-//W3C//DTD SVG 1.1//EN" 
 "http://www.w3.org/Graphics/SVG/1.1/DTD/svg11.dtd"> 
<svg
  xmlns:svg="http://www.w3.org/2000/svg"
  xmlns="http://www.w3.org/2000/svg"
  xmlns:xlink="http://www.w3.org/1999/xlink"
  version="1.1"
  width="297.0022mm" height="210.0072mm" viewBox="0.0000 0.0000 297.0022 210.0072">
<title>SVG Image created as nightliner-Edge_Cuts.svg date 2023/11/23 19:31:00 </title>
  <desc>Image generated by PCBNEW </desc>
<g style="fill:#000000; fill-opacity:1.0000;stroke:#000000; stroke-opacity:1.0000;
stroke-linecap:round; stroke-linejoin:round;"
 transform="translate(0 0) scale(1 1)">
</g>
<g style="fill:#000000; fill-opacity:0.0; 
stroke:#000000; stroke-width:0.0000; stroke-opacity:1; 
stroke-linecap:round; stroke-linejoin:round;">
</g>
<g style="fill:#000000; fill-opacity:0.0; 
stroke:#000000; stroke-width:0.2000; stroke-opacity:1; 
stroke-linecap:round; stroke-linejoin:round;">
<path d="M148.0820 132.5880
L155.8946 139.1709
" />
<path d="M75.3580 24.9758 A1.0000 1.0000 0.0 0 0 74.4302 26.0430" />
<path d="M19.4631 69.8275
L37.2755 66.6867
" />
<path d="M74.4302 26.0430
L75.0848 35.4049
" />
<path d="M172.4660 92.7100
L171.4500 92.7100
" />
<path d="M101.8811 32.0490
L120.2862 31.4063
" />
<path d="M37.0395 58.0727
L38.0921 65.5628
" />
<path d="M56.0680 38.3741
L74.1918 36.4692
" />
<path d="M19.4631 69.8275 A1.0000 1.0000 0.0 0 0 18.6520 70.9860" />
<path d="M148.0820 132.5880 A42.1808 42.1808 0.0 0 0 114.1941 123.2023" />
<path d="M173.4820 109.9820 A1.0160 1.0160 0.0 0 0 172.4660 108.9660" />
<path d="M100.8487 31.1194 A1.0000 1.0000 0.0 0 0 101.8811 32.0490" />
<path d="M18.6520 70.9860
L26.1802 112.9679
" />
<path d="M100.3668 24.2294
L100.8486 31.1194
" />
<path d="M121.4126 36.5760 A1.0154 1.0154 0.0 0 0 122.4280 37.5914" />
<path d="M37.8906 56.9433
L55.7795 54.4291
" />
<path d="M55.7795 54.4292 A1.0000 1.0000 0.0 0 0 56.6349 53.3343" />
<path d="M100.3668 24.2294 A1.0000 1.0000 0.0 0 0 99.2995 23.3016" />
<path d="M97.2820 125.2220
L27.0158 113.7920
" />
<path d="M157.3034 139.0476
L173.2280 120.1420
" />
<path d="M171.4500 108.9660
L172.4660 108.9660
" />
<path d="M155.8946 139.1708 A0.9998 0.9998 0.0 0 0 157.3034 139.0476" />
<path d="M121.3205 32.3708
L121.4126 36.5760
" />
<path d="M56.0680 38.3741 A1.0001 1.0001 0.0 0 0 55.1780 39.4732" />
<path d="M75.3580 24.9757
L99.2995 23.3016
" />
<path d="M37.2755 66.6868 A1.0001 1.0001 0.0 0 0 38.0921 65.5628" />
<path d="M37.8906 56.9433 A1.0000 1.0000 0.0 0 0 37.0395 58.0727" />
<path d="M55.1780 39.4732
L56.6349 53.3343
" />
<path d="M170.6880 108.2040 A0.7620 0.7620 0.0 0 0 171.4500 108.9660" />
<path d="M173.4820 38.3540 A0.7620 0.7620 0.0 0 0 172.7200 37.5920" />
<path d="M170.6880 93.4720
L170.6880 108.2040
" />
<path d="M121.3205 32.3708 A1.0000 1.0000 0.0 0 0 120.2862 31.4063" />
<path d="M122.4280 37.5920
L172.7200 37.5920
" />
<path d="M171.4500 92.7100 A0.7620 0.7620 0.0 0 0 170.6880 93.4720" />
<path d="M114.1941 123.2023
L102.6225 125.2632
" />
<path d="M173.4820 38.3540
L173.4820 91.6940
" />
<path d="M26.1802 112.9679 A1.0132 1.0132 0.0 0 0 27.0158 113.7920" />
<path d="M97.2820 125.2220 A16.2442 16.2442 0.0 0 0 102.6225 125.2632" />
<path d="M74.1918 36.4692 A1.0001 1.0001 0.0 0 0 75.0848 35.4049" />
<path d="M172.4660 92.7100 A1.0160 1.0160 0.0 0 0 173.4820 91.6940" />
<path d="M173.2280 120.1420 A1.2700 1.2700 0.0 0 0 173.4820 119.3800" />
<path d="M173.4820 109.9820
L173.4820 119.3800
" />
<g >
</g>
<g >
</g>
<g >
</g>
<g >
</g>
<g >
</g>
<g >
</g>
<g >
</g>
<g >
</g>
<g >
</g>
<g >
</g>
<g >
</g>
<g >
</g>
<g >
</g>
<g >
</g>
<g >
</g>
<g >
</g>
<g >
</g>
<g >
</g>
<g >
</g>
<g >
</g>
<g >
</g>
<g >
</g>
<g >
</g>
<g >
</g>
<g >
</g>
<g >
</g>
<g >
</g>
<g >
</g>
<g >
</g>
<g >
</g>
<g >
</g>
<g >
</g>
<g >
</g>
<g >
</g>
<g >
</g>
<g >
</g>
<g >
</g>
<g >
</g>
<g >
</g>
<g >
</g>
<g >
</g>
<g >
</g>
<g >
</g>
<g >
</g>
<g >
</g>
<g >
</g>
<g >
</g>
<g >
</g>
<g >
</g>
<g >
</g>
<g >
</g>
<g >
</g>
<g >
</g>
<g >
</g>
<g >
</g>
<g >
</g>
<g >
</g>
<g >
</g>
<g >
</g>
<g >
</g>
<g >
</g>
<g >
</g>
<g >
</g>
<g >
</g>
<g >
</g>
<g >
</g>
<g >
</g>
<g >
</g>
<g >
</g>
<g >
</g>
<g >
</g>
<g >
</g>
<g >
</g>
<g >
</g>
<g >
</g>
<g >
</g>
<g >
</g>
<g >
</g>
<g >
</g>
<g >
</g>
<g >
</g>
<g >
</g>
<g >
</g>
<g >
</g>
<g >
</g>
<g >
</g>
<g >
</g>
<g >
</g>
<g >
</g>
<g >
</g>
</g> 
</svg>
