%TF.GenerationSoftware,KiCad,Pcbnew,7.0.7*%
%TF.CreationDate,2023-12-03T19:36:59+01:00*%
%TF.ProjectId,nightliner,6e696768-746c-4696-9e65-722e6b696361,rev?*%
%TF.SameCoordinates,Original*%
%TF.FileFunction,Profile,NP*%
%FSLAX46Y46*%
G04 Gerber Fmt 4.6, Leading zero omitted, Abs format (unit mm)*
G04 Created by KiCad (PCBNEW 7.0.7) date 2023-12-03 19:36:59*
%MOMM*%
%LPD*%
G01*
G04 APERTURE LIST*
%TA.AperFunction,Profile*%
%ADD10C,0.200000*%
%TD*%
G04 APERTURE END LIST*
D10*
X148082000Y-132588000D02*
X155894551Y-139170881D01*
X75357976Y-24975766D02*
G75*
G03*
X74430167Y-26043038I69724J-997534D01*
G01*
X19463111Y-69827544D02*
X37275512Y-66686737D01*
X74430166Y-26043038D02*
X75084814Y-35404942D01*
X172465991Y-92709999D02*
X171450000Y-92710000D01*
X101881091Y-32049016D02*
X120286206Y-31406295D01*
X37039475Y-58072710D02*
X38092132Y-65562756D01*
X56067979Y-38374109D02*
X74191778Y-36469221D01*
X19463111Y-69827542D02*
G75*
G03*
X18651953Y-70986000I173649J-984808D01*
G01*
X148081999Y-132588001D02*
G75*
G03*
X114194118Y-123202277I-27177999J-32257999D01*
G01*
X173482001Y-109981978D02*
G75*
G03*
X172466000Y-108965999I-1016001J-22D01*
G01*
X100848716Y-31119375D02*
G75*
G03*
X101881091Y-32049016I997584J69775D01*
G01*
X18651952Y-70986000D02*
X26180232Y-112967941D01*
X100366831Y-24229370D02*
X100848627Y-31119381D01*
X121412624Y-36575999D02*
G75*
G03*
X122428000Y-37591376I1015376J-1D01*
G01*
X37890570Y-56943269D02*
X55779506Y-54429143D01*
X55779514Y-54429198D02*
G75*
G03*
X56634854Y-53334346I-139214J990298D01*
G01*
X100366842Y-24229369D02*
G75*
G03*
X99299510Y-23301562I-997542J-69731D01*
G01*
X97282000Y-125222000D02*
X27015800Y-113792000D01*
X157303383Y-139047624D02*
X173228000Y-120141999D01*
X171449992Y-108965999D02*
X172466000Y-108965999D01*
X155894594Y-139170829D02*
G75*
G03*
X157303382Y-139047624I642806J765829D01*
G01*
X121320496Y-32370786D02*
X121412623Y-36575999D01*
X56067978Y-38374102D02*
G75*
G03*
X55177985Y-39473159I104622J-994598D01*
G01*
X75357973Y-24975717D02*
X99299510Y-23301562D01*
X37275515Y-66686756D02*
G75*
G03*
X38092132Y-65562757I-173715J984856D01*
G01*
X37890573Y-56943292D02*
G75*
G03*
X37039476Y-58072710I139227J-990308D01*
G01*
X55177985Y-39473159D02*
X56634855Y-53334346D01*
X170688001Y-108203979D02*
G75*
G03*
X171449992Y-108965999I761999J-21D01*
G01*
X173482001Y-38354000D02*
G75*
G03*
X172719989Y-37591999I-762001J0D01*
G01*
X170688001Y-93471999D02*
X170688000Y-108203979D01*
X121320504Y-32370786D02*
G75*
G03*
X120286205Y-31406295I-999404J-34914D01*
G01*
X122428000Y-37591998D02*
X172719989Y-37591999D01*
X171450000Y-92710001D02*
G75*
G03*
X170688001Y-93471999I0J-761999D01*
G01*
X114194118Y-123202277D02*
X102622547Y-125263239D01*
X173482000Y-38354000D02*
X173482000Y-91693999D01*
X26180244Y-112967939D02*
G75*
G03*
X27015800Y-113791999I997756J176039D01*
G01*
X97282000Y-125221999D02*
G75*
G03*
X102622547Y-125263238I2794000J16002099D01*
G01*
X74191781Y-36469249D02*
G75*
G03*
X75084813Y-35404942I-104681J994649D01*
G01*
X172465991Y-92710000D02*
G75*
G03*
X173482000Y-91693999I9J1016000D01*
G01*
X173228000Y-120141999D02*
G75*
G03*
X173482000Y-119379999I-1016000J761999D01*
G01*
X173482000Y-109981978D02*
X173482000Y-119379999D01*
M02*
