%TF.GenerationSoftware,KiCad,Pcbnew,7.0.7*%
%TF.CreationDate,2023-12-03T19:36:59+01:00*%
%TF.ProjectId,nightliner,6e696768-746c-4696-9e65-722e6b696361,rev?*%
%TF.SameCoordinates,Original*%
%TF.FileFunction,Other,Comment*%
%FSLAX46Y46*%
G04 Gerber Fmt 4.6, Leading zero omitted, Abs format (unit mm)*
G04 Created by KiCad (PCBNEW 7.0.7) date 2023-12-03 19:36:59*
%MOMM*%
%LPD*%
G01*
G04 APERTURE LIST*
%ADD10C,0.100000*%
%ADD11C,0.127000*%
%ADD12C,0.150000*%
G04 APERTURE END LIST*
D10*
X166232278Y-108553970D02*
X166732278Y-108553970D01*
X166732278Y-108553970D02*
X166732278Y-108744446D01*
X166732278Y-108744446D02*
X166708468Y-108792065D01*
X166708468Y-108792065D02*
X166684659Y-108815875D01*
X166684659Y-108815875D02*
X166637040Y-108839684D01*
X166637040Y-108839684D02*
X166565611Y-108839684D01*
X166565611Y-108839684D02*
X166517992Y-108815875D01*
X166517992Y-108815875D02*
X166494183Y-108792065D01*
X166494183Y-108792065D02*
X166470373Y-108744446D01*
X166470373Y-108744446D02*
X166470373Y-108553970D01*
X166232278Y-109315875D02*
X166232278Y-109030161D01*
X166232278Y-109173018D02*
X166732278Y-109173018D01*
X166732278Y-109173018D02*
X166660849Y-109125399D01*
X166660849Y-109125399D02*
X166613230Y-109077780D01*
X166613230Y-109077780D02*
X166589421Y-109030161D01*
X166279897Y-109530160D02*
X166256088Y-109553970D01*
X166256088Y-109553970D02*
X166232278Y-109530160D01*
X166232278Y-109530160D02*
X166256088Y-109506351D01*
X166256088Y-109506351D02*
X166279897Y-109530160D01*
X166279897Y-109530160D02*
X166232278Y-109530160D01*
X166732278Y-109863493D02*
X166732278Y-109911112D01*
X166732278Y-109911112D02*
X166708468Y-109958731D01*
X166708468Y-109958731D02*
X166684659Y-109982541D01*
X166684659Y-109982541D02*
X166637040Y-110006350D01*
X166637040Y-110006350D02*
X166541802Y-110030160D01*
X166541802Y-110030160D02*
X166422754Y-110030160D01*
X166422754Y-110030160D02*
X166327516Y-110006350D01*
X166327516Y-110006350D02*
X166279897Y-109982541D01*
X166279897Y-109982541D02*
X166256088Y-109958731D01*
X166256088Y-109958731D02*
X166232278Y-109911112D01*
X166232278Y-109911112D02*
X166232278Y-109863493D01*
X166232278Y-109863493D02*
X166256088Y-109815874D01*
X166256088Y-109815874D02*
X166279897Y-109792065D01*
X166279897Y-109792065D02*
X166327516Y-109768255D01*
X166327516Y-109768255D02*
X166422754Y-109744446D01*
X166422754Y-109744446D02*
X166541802Y-109744446D01*
X166541802Y-109744446D02*
X166637040Y-109768255D01*
X166637040Y-109768255D02*
X166684659Y-109792065D01*
X166684659Y-109792065D02*
X166708468Y-109815874D01*
X166708468Y-109815874D02*
X166732278Y-109863493D01*
X166732278Y-110458731D02*
X166732278Y-110363493D01*
X166732278Y-110363493D02*
X166708468Y-110315874D01*
X166708468Y-110315874D02*
X166684659Y-110292064D01*
X166684659Y-110292064D02*
X166613230Y-110244445D01*
X166613230Y-110244445D02*
X166517992Y-110220636D01*
X166517992Y-110220636D02*
X166327516Y-110220636D01*
X166327516Y-110220636D02*
X166279897Y-110244445D01*
X166279897Y-110244445D02*
X166256088Y-110268255D01*
X166256088Y-110268255D02*
X166232278Y-110315874D01*
X166232278Y-110315874D02*
X166232278Y-110411112D01*
X166232278Y-110411112D02*
X166256088Y-110458731D01*
X166256088Y-110458731D02*
X166279897Y-110482540D01*
X166279897Y-110482540D02*
X166327516Y-110506350D01*
X166327516Y-110506350D02*
X166446564Y-110506350D01*
X166446564Y-110506350D02*
X166494183Y-110482540D01*
X166494183Y-110482540D02*
X166517992Y-110458731D01*
X166517992Y-110458731D02*
X166541802Y-110411112D01*
X166541802Y-110411112D02*
X166541802Y-110315874D01*
X166541802Y-110315874D02*
X166517992Y-110268255D01*
X166517992Y-110268255D02*
X166494183Y-110244445D01*
X166494183Y-110244445D02*
X166446564Y-110220636D01*
X154217347Y-104981906D02*
X154217347Y-105481906D01*
X154217347Y-105481906D02*
X154098299Y-105481906D01*
X154098299Y-105481906D02*
X154026871Y-105458096D01*
X154026871Y-105458096D02*
X153979252Y-105410477D01*
X153979252Y-105410477D02*
X153955442Y-105362858D01*
X153955442Y-105362858D02*
X153931633Y-105267620D01*
X153931633Y-105267620D02*
X153931633Y-105196192D01*
X153931633Y-105196192D02*
X153955442Y-105100954D01*
X153955442Y-105100954D02*
X153979252Y-105053335D01*
X153979252Y-105053335D02*
X154026871Y-105005716D01*
X154026871Y-105005716D02*
X154098299Y-104981906D01*
X154098299Y-104981906D02*
X154217347Y-104981906D01*
X153717347Y-105172382D02*
X153336395Y-105172382D01*
X158537460Y-97509643D02*
X159037460Y-97509643D01*
X159037460Y-97509643D02*
X159037460Y-97700119D01*
X159037460Y-97700119D02*
X159013650Y-97747738D01*
X159013650Y-97747738D02*
X158989841Y-97771548D01*
X158989841Y-97771548D02*
X158942222Y-97795357D01*
X158942222Y-97795357D02*
X158870793Y-97795357D01*
X158870793Y-97795357D02*
X158823174Y-97771548D01*
X158823174Y-97771548D02*
X158799365Y-97747738D01*
X158799365Y-97747738D02*
X158775555Y-97700119D01*
X158775555Y-97700119D02*
X158775555Y-97509643D01*
X159037460Y-98104881D02*
X159037460Y-98152500D01*
X159037460Y-98152500D02*
X159013650Y-98200119D01*
X159013650Y-98200119D02*
X158989841Y-98223929D01*
X158989841Y-98223929D02*
X158942222Y-98247738D01*
X158942222Y-98247738D02*
X158846984Y-98271548D01*
X158846984Y-98271548D02*
X158727936Y-98271548D01*
X158727936Y-98271548D02*
X158632698Y-98247738D01*
X158632698Y-98247738D02*
X158585079Y-98223929D01*
X158585079Y-98223929D02*
X158561270Y-98200119D01*
X158561270Y-98200119D02*
X158537460Y-98152500D01*
X158537460Y-98152500D02*
X158537460Y-98104881D01*
X158537460Y-98104881D02*
X158561270Y-98057262D01*
X158561270Y-98057262D02*
X158585079Y-98033453D01*
X158585079Y-98033453D02*
X158632698Y-98009643D01*
X158632698Y-98009643D02*
X158727936Y-97985834D01*
X158727936Y-97985834D02*
X158846984Y-97985834D01*
X158846984Y-97985834D02*
X158942222Y-98009643D01*
X158942222Y-98009643D02*
X158989841Y-98033453D01*
X158989841Y-98033453D02*
X159013650Y-98057262D01*
X159013650Y-98057262D02*
X159037460Y-98104881D01*
X158585079Y-98485833D02*
X158561270Y-98509643D01*
X158561270Y-98509643D02*
X158537460Y-98485833D01*
X158537460Y-98485833D02*
X158561270Y-98462024D01*
X158561270Y-98462024D02*
X158585079Y-98485833D01*
X158585079Y-98485833D02*
X158537460Y-98485833D01*
X158989841Y-98700119D02*
X159013650Y-98723928D01*
X159013650Y-98723928D02*
X159037460Y-98771547D01*
X159037460Y-98771547D02*
X159037460Y-98890595D01*
X159037460Y-98890595D02*
X159013650Y-98938214D01*
X159013650Y-98938214D02*
X158989841Y-98962023D01*
X158989841Y-98962023D02*
X158942222Y-98985833D01*
X158942222Y-98985833D02*
X158894603Y-98985833D01*
X158894603Y-98985833D02*
X158823174Y-98962023D01*
X158823174Y-98962023D02*
X158537460Y-98676309D01*
X158537460Y-98676309D02*
X158537460Y-98985833D01*
X159037460Y-99414404D02*
X159037460Y-99319166D01*
X159037460Y-99319166D02*
X159013650Y-99271547D01*
X159013650Y-99271547D02*
X158989841Y-99247737D01*
X158989841Y-99247737D02*
X158918412Y-99200118D01*
X158918412Y-99200118D02*
X158823174Y-99176309D01*
X158823174Y-99176309D02*
X158632698Y-99176309D01*
X158632698Y-99176309D02*
X158585079Y-99200118D01*
X158585079Y-99200118D02*
X158561270Y-99223928D01*
X158561270Y-99223928D02*
X158537460Y-99271547D01*
X158537460Y-99271547D02*
X158537460Y-99366785D01*
X158537460Y-99366785D02*
X158561270Y-99414404D01*
X158561270Y-99414404D02*
X158585079Y-99438213D01*
X158585079Y-99438213D02*
X158632698Y-99462023D01*
X158632698Y-99462023D02*
X158751746Y-99462023D01*
X158751746Y-99462023D02*
X158799365Y-99438213D01*
X158799365Y-99438213D02*
X158823174Y-99414404D01*
X158823174Y-99414404D02*
X158846984Y-99366785D01*
X158846984Y-99366785D02*
X158846984Y-99271547D01*
X158846984Y-99271547D02*
X158823174Y-99223928D01*
X158823174Y-99223928D02*
X158799365Y-99200118D01*
X158799365Y-99200118D02*
X158751746Y-99176309D01*
X154217347Y-100582282D02*
X154217347Y-101082282D01*
X154217347Y-101082282D02*
X154026871Y-101082282D01*
X154026871Y-101082282D02*
X153979252Y-101058472D01*
X153979252Y-101058472D02*
X153955442Y-101034663D01*
X153955442Y-101034663D02*
X153931633Y-100987044D01*
X153931633Y-100987044D02*
X153931633Y-100915615D01*
X153931633Y-100915615D02*
X153955442Y-100867996D01*
X153955442Y-100867996D02*
X153979252Y-100844187D01*
X153979252Y-100844187D02*
X154026871Y-100820377D01*
X154026871Y-100820377D02*
X154217347Y-100820377D01*
X153622109Y-101082282D02*
X153574490Y-101082282D01*
X153574490Y-101082282D02*
X153526871Y-101058472D01*
X153526871Y-101058472D02*
X153503061Y-101034663D01*
X153503061Y-101034663D02*
X153479252Y-100987044D01*
X153479252Y-100987044D02*
X153455442Y-100891806D01*
X153455442Y-100891806D02*
X153455442Y-100772758D01*
X153455442Y-100772758D02*
X153479252Y-100677520D01*
X153479252Y-100677520D02*
X153503061Y-100629901D01*
X153503061Y-100629901D02*
X153526871Y-100606092D01*
X153526871Y-100606092D02*
X153574490Y-100582282D01*
X153574490Y-100582282D02*
X153622109Y-100582282D01*
X153622109Y-100582282D02*
X153669728Y-100606092D01*
X153669728Y-100606092D02*
X153693537Y-100629901D01*
X153693537Y-100629901D02*
X153717347Y-100677520D01*
X153717347Y-100677520D02*
X153741156Y-100772758D01*
X153741156Y-100772758D02*
X153741156Y-100891806D01*
X153741156Y-100891806D02*
X153717347Y-100987044D01*
X153717347Y-100987044D02*
X153693537Y-101034663D01*
X153693537Y-101034663D02*
X153669728Y-101058472D01*
X153669728Y-101058472D02*
X153622109Y-101082282D01*
X153241157Y-100629901D02*
X153217347Y-100606092D01*
X153217347Y-100606092D02*
X153241157Y-100582282D01*
X153241157Y-100582282D02*
X153264966Y-100606092D01*
X153264966Y-100606092D02*
X153241157Y-100629901D01*
X153241157Y-100629901D02*
X153241157Y-100582282D01*
X153026871Y-101034663D02*
X153003062Y-101058472D01*
X153003062Y-101058472D02*
X152955443Y-101082282D01*
X152955443Y-101082282D02*
X152836395Y-101082282D01*
X152836395Y-101082282D02*
X152788776Y-101058472D01*
X152788776Y-101058472D02*
X152764967Y-101034663D01*
X152764967Y-101034663D02*
X152741157Y-100987044D01*
X152741157Y-100987044D02*
X152741157Y-100939425D01*
X152741157Y-100939425D02*
X152764967Y-100867996D01*
X152764967Y-100867996D02*
X153050681Y-100582282D01*
X153050681Y-100582282D02*
X152741157Y-100582282D01*
X152264967Y-100582282D02*
X152550681Y-100582282D01*
X152407824Y-100582282D02*
X152407824Y-101082282D01*
X152407824Y-101082282D02*
X152455443Y-101010853D01*
X152455443Y-101010853D02*
X152503062Y-100963234D01*
X152503062Y-100963234D02*
X152550681Y-100939425D01*
X162912460Y-102189400D02*
X163412460Y-102189400D01*
X163412460Y-102189400D02*
X163412460Y-102379876D01*
X163412460Y-102379876D02*
X163388650Y-102427495D01*
X163388650Y-102427495D02*
X163364841Y-102451305D01*
X163364841Y-102451305D02*
X163317222Y-102475114D01*
X163317222Y-102475114D02*
X163245793Y-102475114D01*
X163245793Y-102475114D02*
X163198174Y-102451305D01*
X163198174Y-102451305D02*
X163174365Y-102427495D01*
X163174365Y-102427495D02*
X163150555Y-102379876D01*
X163150555Y-102379876D02*
X163150555Y-102189400D01*
X163412460Y-102784638D02*
X163412460Y-102832257D01*
X163412460Y-102832257D02*
X163388650Y-102879876D01*
X163388650Y-102879876D02*
X163364841Y-102903686D01*
X163364841Y-102903686D02*
X163317222Y-102927495D01*
X163317222Y-102927495D02*
X163221984Y-102951305D01*
X163221984Y-102951305D02*
X163102936Y-102951305D01*
X163102936Y-102951305D02*
X163007698Y-102927495D01*
X163007698Y-102927495D02*
X162960079Y-102903686D01*
X162960079Y-102903686D02*
X162936270Y-102879876D01*
X162936270Y-102879876D02*
X162912460Y-102832257D01*
X162912460Y-102832257D02*
X162912460Y-102784638D01*
X162912460Y-102784638D02*
X162936270Y-102737019D01*
X162936270Y-102737019D02*
X162960079Y-102713210D01*
X162960079Y-102713210D02*
X163007698Y-102689400D01*
X163007698Y-102689400D02*
X163102936Y-102665591D01*
X163102936Y-102665591D02*
X163221984Y-102665591D01*
X163221984Y-102665591D02*
X163317222Y-102689400D01*
X163317222Y-102689400D02*
X163364841Y-102713210D01*
X163364841Y-102713210D02*
X163388650Y-102737019D01*
X163388650Y-102737019D02*
X163412460Y-102784638D01*
X162960079Y-103165590D02*
X162936270Y-103189400D01*
X162936270Y-103189400D02*
X162912460Y-103165590D01*
X162912460Y-103165590D02*
X162936270Y-103141781D01*
X162936270Y-103141781D02*
X162960079Y-103165590D01*
X162960079Y-103165590D02*
X162912460Y-103165590D01*
X162912460Y-103665590D02*
X162912460Y-103379876D01*
X162912460Y-103522733D02*
X163412460Y-103522733D01*
X163412460Y-103522733D02*
X163341031Y-103475114D01*
X163341031Y-103475114D02*
X163293412Y-103427495D01*
X163293412Y-103427495D02*
X163269603Y-103379876D01*
X163412460Y-103832256D02*
X163412460Y-104165589D01*
X163412460Y-104165589D02*
X162912460Y-103951304D01*
X154288775Y-104382000D02*
X154122109Y-103882000D01*
X154122109Y-103882000D02*
X153955442Y-104382000D01*
X153622109Y-104143905D02*
X153550681Y-104120095D01*
X153550681Y-104120095D02*
X153526871Y-104096286D01*
X153526871Y-104096286D02*
X153503062Y-104048667D01*
X153503062Y-104048667D02*
X153503062Y-103977238D01*
X153503062Y-103977238D02*
X153526871Y-103929619D01*
X153526871Y-103929619D02*
X153550681Y-103905810D01*
X153550681Y-103905810D02*
X153598300Y-103882000D01*
X153598300Y-103882000D02*
X153788776Y-103882000D01*
X153788776Y-103882000D02*
X153788776Y-104382000D01*
X153788776Y-104382000D02*
X153622109Y-104382000D01*
X153622109Y-104382000D02*
X153574490Y-104358190D01*
X153574490Y-104358190D02*
X153550681Y-104334381D01*
X153550681Y-104334381D02*
X153526871Y-104286762D01*
X153526871Y-104286762D02*
X153526871Y-104239143D01*
X153526871Y-104239143D02*
X153550681Y-104191524D01*
X153550681Y-104191524D02*
X153574490Y-104167714D01*
X153574490Y-104167714D02*
X153622109Y-104143905D01*
X153622109Y-104143905D02*
X153788776Y-104143905D01*
X153288776Y-104382000D02*
X153288776Y-103977238D01*
X153288776Y-103977238D02*
X153264966Y-103929619D01*
X153264966Y-103929619D02*
X153241157Y-103905810D01*
X153241157Y-103905810D02*
X153193538Y-103882000D01*
X153193538Y-103882000D02*
X153098300Y-103882000D01*
X153098300Y-103882000D02*
X153050681Y-103905810D01*
X153050681Y-103905810D02*
X153026871Y-103929619D01*
X153026871Y-103929619D02*
X153003062Y-103977238D01*
X153003062Y-103977238D02*
X153003062Y-104382000D01*
X152788775Y-103905810D02*
X152717347Y-103882000D01*
X152717347Y-103882000D02*
X152598299Y-103882000D01*
X152598299Y-103882000D02*
X152550680Y-103905810D01*
X152550680Y-103905810D02*
X152526871Y-103929619D01*
X152526871Y-103929619D02*
X152503061Y-103977238D01*
X152503061Y-103977238D02*
X152503061Y-104024857D01*
X152503061Y-104024857D02*
X152526871Y-104072476D01*
X152526871Y-104072476D02*
X152550680Y-104096286D01*
X152550680Y-104096286D02*
X152598299Y-104120095D01*
X152598299Y-104120095D02*
X152693537Y-104143905D01*
X152693537Y-104143905D02*
X152741156Y-104167714D01*
X152741156Y-104167714D02*
X152764966Y-104191524D01*
X152764966Y-104191524D02*
X152788775Y-104239143D01*
X152788775Y-104239143D02*
X152788775Y-104286762D01*
X152788775Y-104286762D02*
X152764966Y-104334381D01*
X152764966Y-104334381D02*
X152741156Y-104358190D01*
X152741156Y-104358190D02*
X152693537Y-104382000D01*
X152693537Y-104382000D02*
X152574490Y-104382000D01*
X152574490Y-104382000D02*
X152503061Y-104358190D01*
X166193710Y-102189400D02*
X166693710Y-102189400D01*
X166693710Y-102189400D02*
X166693710Y-102379876D01*
X166693710Y-102379876D02*
X166669900Y-102427495D01*
X166669900Y-102427495D02*
X166646091Y-102451305D01*
X166646091Y-102451305D02*
X166598472Y-102475114D01*
X166598472Y-102475114D02*
X166527043Y-102475114D01*
X166527043Y-102475114D02*
X166479424Y-102451305D01*
X166479424Y-102451305D02*
X166455615Y-102427495D01*
X166455615Y-102427495D02*
X166431805Y-102379876D01*
X166431805Y-102379876D02*
X166431805Y-102189400D01*
X166193710Y-102951305D02*
X166193710Y-102665591D01*
X166193710Y-102808448D02*
X166693710Y-102808448D01*
X166693710Y-102808448D02*
X166622281Y-102760829D01*
X166622281Y-102760829D02*
X166574662Y-102713210D01*
X166574662Y-102713210D02*
X166550853Y-102665591D01*
X166241329Y-103165590D02*
X166217520Y-103189400D01*
X166217520Y-103189400D02*
X166193710Y-103165590D01*
X166193710Y-103165590D02*
X166217520Y-103141781D01*
X166217520Y-103141781D02*
X166241329Y-103165590D01*
X166241329Y-103165590D02*
X166193710Y-103165590D01*
X166693710Y-103498923D02*
X166693710Y-103546542D01*
X166693710Y-103546542D02*
X166669900Y-103594161D01*
X166669900Y-103594161D02*
X166646091Y-103617971D01*
X166646091Y-103617971D02*
X166598472Y-103641780D01*
X166598472Y-103641780D02*
X166503234Y-103665590D01*
X166503234Y-103665590D02*
X166384186Y-103665590D01*
X166384186Y-103665590D02*
X166288948Y-103641780D01*
X166288948Y-103641780D02*
X166241329Y-103617971D01*
X166241329Y-103617971D02*
X166217520Y-103594161D01*
X166217520Y-103594161D02*
X166193710Y-103546542D01*
X166193710Y-103546542D02*
X166193710Y-103498923D01*
X166193710Y-103498923D02*
X166217520Y-103451304D01*
X166217520Y-103451304D02*
X166241329Y-103427495D01*
X166241329Y-103427495D02*
X166288948Y-103403685D01*
X166288948Y-103403685D02*
X166384186Y-103379876D01*
X166384186Y-103379876D02*
X166503234Y-103379876D01*
X166503234Y-103379876D02*
X166598472Y-103403685D01*
X166598472Y-103403685D02*
X166646091Y-103427495D01*
X166646091Y-103427495D02*
X166669900Y-103451304D01*
X166669900Y-103451304D02*
X166693710Y-103498923D01*
X166693710Y-104117970D02*
X166693710Y-103879875D01*
X166693710Y-103879875D02*
X166455615Y-103856066D01*
X166455615Y-103856066D02*
X166479424Y-103879875D01*
X166479424Y-103879875D02*
X166503234Y-103927494D01*
X166503234Y-103927494D02*
X166503234Y-104046542D01*
X166503234Y-104046542D02*
X166479424Y-104094161D01*
X166479424Y-104094161D02*
X166455615Y-104117970D01*
X166455615Y-104117970D02*
X166407996Y-104141780D01*
X166407996Y-104141780D02*
X166288948Y-104141780D01*
X166288948Y-104141780D02*
X166241329Y-104117970D01*
X166241329Y-104117970D02*
X166217520Y-104094161D01*
X166217520Y-104094161D02*
X166193710Y-104046542D01*
X166193710Y-104046542D02*
X166193710Y-103927494D01*
X166193710Y-103927494D02*
X166217520Y-103879875D01*
X166217520Y-103879875D02*
X166241329Y-103856066D01*
X159623788Y-108553970D02*
X160123788Y-108553970D01*
X160123788Y-108553970D02*
X160123788Y-108744446D01*
X160123788Y-108744446D02*
X160099978Y-108792065D01*
X160099978Y-108792065D02*
X160076169Y-108815875D01*
X160076169Y-108815875D02*
X160028550Y-108839684D01*
X160028550Y-108839684D02*
X159957121Y-108839684D01*
X159957121Y-108839684D02*
X159909502Y-108815875D01*
X159909502Y-108815875D02*
X159885693Y-108792065D01*
X159885693Y-108792065D02*
X159861883Y-108744446D01*
X159861883Y-108744446D02*
X159861883Y-108553970D01*
X159623788Y-109315875D02*
X159623788Y-109030161D01*
X159623788Y-109173018D02*
X160123788Y-109173018D01*
X160123788Y-109173018D02*
X160052359Y-109125399D01*
X160052359Y-109125399D02*
X160004740Y-109077780D01*
X160004740Y-109077780D02*
X159980931Y-109030161D01*
X159671407Y-109530160D02*
X159647598Y-109553970D01*
X159647598Y-109553970D02*
X159623788Y-109530160D01*
X159623788Y-109530160D02*
X159647598Y-109506351D01*
X159647598Y-109506351D02*
X159671407Y-109530160D01*
X159671407Y-109530160D02*
X159623788Y-109530160D01*
X160123788Y-109863493D02*
X160123788Y-109911112D01*
X160123788Y-109911112D02*
X160099978Y-109958731D01*
X160099978Y-109958731D02*
X160076169Y-109982541D01*
X160076169Y-109982541D02*
X160028550Y-110006350D01*
X160028550Y-110006350D02*
X159933312Y-110030160D01*
X159933312Y-110030160D02*
X159814264Y-110030160D01*
X159814264Y-110030160D02*
X159719026Y-110006350D01*
X159719026Y-110006350D02*
X159671407Y-109982541D01*
X159671407Y-109982541D02*
X159647598Y-109958731D01*
X159647598Y-109958731D02*
X159623788Y-109911112D01*
X159623788Y-109911112D02*
X159623788Y-109863493D01*
X159623788Y-109863493D02*
X159647598Y-109815874D01*
X159647598Y-109815874D02*
X159671407Y-109792065D01*
X159671407Y-109792065D02*
X159719026Y-109768255D01*
X159719026Y-109768255D02*
X159814264Y-109744446D01*
X159814264Y-109744446D02*
X159933312Y-109744446D01*
X159933312Y-109744446D02*
X160028550Y-109768255D01*
X160028550Y-109768255D02*
X160076169Y-109792065D01*
X160076169Y-109792065D02*
X160099978Y-109815874D01*
X160099978Y-109815874D02*
X160123788Y-109863493D01*
X160123788Y-110196826D02*
X160123788Y-110506350D01*
X160123788Y-110506350D02*
X159933312Y-110339683D01*
X159933312Y-110339683D02*
X159933312Y-110411112D01*
X159933312Y-110411112D02*
X159909502Y-110458731D01*
X159909502Y-110458731D02*
X159885693Y-110482540D01*
X159885693Y-110482540D02*
X159838074Y-110506350D01*
X159838074Y-110506350D02*
X159719026Y-110506350D01*
X159719026Y-110506350D02*
X159671407Y-110482540D01*
X159671407Y-110482540D02*
X159647598Y-110458731D01*
X159647598Y-110458731D02*
X159623788Y-110411112D01*
X159623788Y-110411112D02*
X159623788Y-110268255D01*
X159623788Y-110268255D02*
X159647598Y-110220636D01*
X159647598Y-110220636D02*
X159671407Y-110196826D01*
X154288775Y-95582752D02*
X154122109Y-95082752D01*
X154122109Y-95082752D02*
X153955442Y-95582752D01*
X153788776Y-95082752D02*
X153788776Y-95582752D01*
X153788776Y-95582752D02*
X153669728Y-95582752D01*
X153669728Y-95582752D02*
X153598300Y-95558942D01*
X153598300Y-95558942D02*
X153550681Y-95511323D01*
X153550681Y-95511323D02*
X153526871Y-95463704D01*
X153526871Y-95463704D02*
X153503062Y-95368466D01*
X153503062Y-95368466D02*
X153503062Y-95297038D01*
X153503062Y-95297038D02*
X153526871Y-95201800D01*
X153526871Y-95201800D02*
X153550681Y-95154181D01*
X153550681Y-95154181D02*
X153598300Y-95106562D01*
X153598300Y-95106562D02*
X153669728Y-95082752D01*
X153669728Y-95082752D02*
X153788776Y-95082752D01*
X153288776Y-95082752D02*
X153288776Y-95582752D01*
X153288776Y-95582752D02*
X153169728Y-95582752D01*
X153169728Y-95582752D02*
X153098300Y-95558942D01*
X153098300Y-95558942D02*
X153050681Y-95511323D01*
X153050681Y-95511323D02*
X153026871Y-95463704D01*
X153026871Y-95463704D02*
X153003062Y-95368466D01*
X153003062Y-95368466D02*
X153003062Y-95297038D01*
X153003062Y-95297038D02*
X153026871Y-95201800D01*
X153026871Y-95201800D02*
X153050681Y-95154181D01*
X153050681Y-95154181D02*
X153098300Y-95106562D01*
X153098300Y-95106562D02*
X153169728Y-95082752D01*
X153169728Y-95082752D02*
X153288776Y-95082752D01*
X152907824Y-95035133D02*
X152526871Y-95035133D01*
X152407824Y-95416085D02*
X152407824Y-95082752D01*
X152407824Y-95368466D02*
X152384014Y-95392276D01*
X152384014Y-95392276D02*
X152336395Y-95416085D01*
X152336395Y-95416085D02*
X152264967Y-95416085D01*
X152264967Y-95416085D02*
X152217348Y-95392276D01*
X152217348Y-95392276D02*
X152193538Y-95344657D01*
X152193538Y-95344657D02*
X152193538Y-95082752D01*
X151669729Y-95082752D02*
X151836395Y-95320847D01*
X151955443Y-95082752D02*
X151955443Y-95582752D01*
X151955443Y-95582752D02*
X151764967Y-95582752D01*
X151764967Y-95582752D02*
X151717348Y-95558942D01*
X151717348Y-95558942D02*
X151693538Y-95535133D01*
X151693538Y-95535133D02*
X151669729Y-95487514D01*
X151669729Y-95487514D02*
X151669729Y-95416085D01*
X151669729Y-95416085D02*
X151693538Y-95368466D01*
X151693538Y-95368466D02*
X151717348Y-95344657D01*
X151717348Y-95344657D02*
X151764967Y-95320847D01*
X151764967Y-95320847D02*
X151955443Y-95320847D01*
X151288776Y-95344657D02*
X151455443Y-95344657D01*
X151455443Y-95082752D02*
X151455443Y-95582752D01*
X151455443Y-95582752D02*
X151217348Y-95582752D01*
X170012713Y-91479353D02*
X170036523Y-91431734D01*
X170036523Y-91431734D02*
X170036523Y-91360305D01*
X170036523Y-91360305D02*
X170012713Y-91288877D01*
X170012713Y-91288877D02*
X169965094Y-91241258D01*
X169965094Y-91241258D02*
X169917475Y-91217448D01*
X169917475Y-91217448D02*
X169822237Y-91193639D01*
X169822237Y-91193639D02*
X169750809Y-91193639D01*
X169750809Y-91193639D02*
X169655571Y-91217448D01*
X169655571Y-91217448D02*
X169607952Y-91241258D01*
X169607952Y-91241258D02*
X169560333Y-91288877D01*
X169560333Y-91288877D02*
X169536523Y-91360305D01*
X169536523Y-91360305D02*
X169536523Y-91407924D01*
X169536523Y-91407924D02*
X169560333Y-91479353D01*
X169560333Y-91479353D02*
X169584142Y-91503162D01*
X169584142Y-91503162D02*
X169750809Y-91503162D01*
X169750809Y-91503162D02*
X169750809Y-91407924D01*
X169536523Y-91717448D02*
X170036523Y-91717448D01*
X170036523Y-91717448D02*
X169536523Y-92003162D01*
X169536523Y-92003162D02*
X170036523Y-92003162D01*
X169536523Y-92241258D02*
X170036523Y-92241258D01*
X170036523Y-92241258D02*
X170036523Y-92360306D01*
X170036523Y-92360306D02*
X170012713Y-92431734D01*
X170012713Y-92431734D02*
X169965094Y-92479353D01*
X169965094Y-92479353D02*
X169917475Y-92503163D01*
X169917475Y-92503163D02*
X169822237Y-92526972D01*
X169822237Y-92526972D02*
X169750809Y-92526972D01*
X169750809Y-92526972D02*
X169655571Y-92503163D01*
X169655571Y-92503163D02*
X169607952Y-92479353D01*
X169607952Y-92479353D02*
X169560333Y-92431734D01*
X169560333Y-92431734D02*
X169536523Y-92360306D01*
X169536523Y-92360306D02*
X169536523Y-92241258D01*
X154217347Y-98382470D02*
X154217347Y-98882470D01*
X154217347Y-98882470D02*
X154026871Y-98882470D01*
X154026871Y-98882470D02*
X153979252Y-98858660D01*
X153979252Y-98858660D02*
X153955442Y-98834851D01*
X153955442Y-98834851D02*
X153931633Y-98787232D01*
X153931633Y-98787232D02*
X153931633Y-98715803D01*
X153931633Y-98715803D02*
X153955442Y-98668184D01*
X153955442Y-98668184D02*
X153979252Y-98644375D01*
X153979252Y-98644375D02*
X154026871Y-98620565D01*
X154026871Y-98620565D02*
X154217347Y-98620565D01*
X153622109Y-98882470D02*
X153574490Y-98882470D01*
X153574490Y-98882470D02*
X153526871Y-98858660D01*
X153526871Y-98858660D02*
X153503061Y-98834851D01*
X153503061Y-98834851D02*
X153479252Y-98787232D01*
X153479252Y-98787232D02*
X153455442Y-98691994D01*
X153455442Y-98691994D02*
X153455442Y-98572946D01*
X153455442Y-98572946D02*
X153479252Y-98477708D01*
X153479252Y-98477708D02*
X153503061Y-98430089D01*
X153503061Y-98430089D02*
X153526871Y-98406280D01*
X153526871Y-98406280D02*
X153574490Y-98382470D01*
X153574490Y-98382470D02*
X153622109Y-98382470D01*
X153622109Y-98382470D02*
X153669728Y-98406280D01*
X153669728Y-98406280D02*
X153693537Y-98430089D01*
X153693537Y-98430089D02*
X153717347Y-98477708D01*
X153717347Y-98477708D02*
X153741156Y-98572946D01*
X153741156Y-98572946D02*
X153741156Y-98691994D01*
X153741156Y-98691994D02*
X153717347Y-98787232D01*
X153717347Y-98787232D02*
X153693537Y-98834851D01*
X153693537Y-98834851D02*
X153669728Y-98858660D01*
X153669728Y-98858660D02*
X153622109Y-98882470D01*
X153241157Y-98430089D02*
X153217347Y-98406280D01*
X153217347Y-98406280D02*
X153241157Y-98382470D01*
X153241157Y-98382470D02*
X153264966Y-98406280D01*
X153264966Y-98406280D02*
X153241157Y-98430089D01*
X153241157Y-98430089D02*
X153241157Y-98382470D01*
X152741157Y-98382470D02*
X153026871Y-98382470D01*
X152884014Y-98382470D02*
X152884014Y-98882470D01*
X152884014Y-98882470D02*
X152931633Y-98811041D01*
X152931633Y-98811041D02*
X152979252Y-98763422D01*
X152979252Y-98763422D02*
X153026871Y-98739613D01*
X152550681Y-98834851D02*
X152526872Y-98858660D01*
X152526872Y-98858660D02*
X152479253Y-98882470D01*
X152479253Y-98882470D02*
X152360205Y-98882470D01*
X152360205Y-98882470D02*
X152312586Y-98858660D01*
X152312586Y-98858660D02*
X152288777Y-98834851D01*
X152288777Y-98834851D02*
X152264967Y-98787232D01*
X152264967Y-98787232D02*
X152264967Y-98739613D01*
X152264967Y-98739613D02*
X152288777Y-98668184D01*
X152288777Y-98668184D02*
X152574491Y-98382470D01*
X152574491Y-98382470D02*
X152264967Y-98382470D01*
X165130863Y-108553970D02*
X165630863Y-108553970D01*
X165630863Y-108553970D02*
X165630863Y-108744446D01*
X165630863Y-108744446D02*
X165607053Y-108792065D01*
X165607053Y-108792065D02*
X165583244Y-108815875D01*
X165583244Y-108815875D02*
X165535625Y-108839684D01*
X165535625Y-108839684D02*
X165464196Y-108839684D01*
X165464196Y-108839684D02*
X165416577Y-108815875D01*
X165416577Y-108815875D02*
X165392768Y-108792065D01*
X165392768Y-108792065D02*
X165368958Y-108744446D01*
X165368958Y-108744446D02*
X165368958Y-108553970D01*
X165130863Y-109315875D02*
X165130863Y-109030161D01*
X165130863Y-109173018D02*
X165630863Y-109173018D01*
X165630863Y-109173018D02*
X165559434Y-109125399D01*
X165559434Y-109125399D02*
X165511815Y-109077780D01*
X165511815Y-109077780D02*
X165488006Y-109030161D01*
X165178482Y-109530160D02*
X165154673Y-109553970D01*
X165154673Y-109553970D02*
X165130863Y-109530160D01*
X165130863Y-109530160D02*
X165154673Y-109506351D01*
X165154673Y-109506351D02*
X165178482Y-109530160D01*
X165178482Y-109530160D02*
X165130863Y-109530160D01*
X165630863Y-109863493D02*
X165630863Y-109911112D01*
X165630863Y-109911112D02*
X165607053Y-109958731D01*
X165607053Y-109958731D02*
X165583244Y-109982541D01*
X165583244Y-109982541D02*
X165535625Y-110006350D01*
X165535625Y-110006350D02*
X165440387Y-110030160D01*
X165440387Y-110030160D02*
X165321339Y-110030160D01*
X165321339Y-110030160D02*
X165226101Y-110006350D01*
X165226101Y-110006350D02*
X165178482Y-109982541D01*
X165178482Y-109982541D02*
X165154673Y-109958731D01*
X165154673Y-109958731D02*
X165130863Y-109911112D01*
X165130863Y-109911112D02*
X165130863Y-109863493D01*
X165130863Y-109863493D02*
X165154673Y-109815874D01*
X165154673Y-109815874D02*
X165178482Y-109792065D01*
X165178482Y-109792065D02*
X165226101Y-109768255D01*
X165226101Y-109768255D02*
X165321339Y-109744446D01*
X165321339Y-109744446D02*
X165440387Y-109744446D01*
X165440387Y-109744446D02*
X165535625Y-109768255D01*
X165535625Y-109768255D02*
X165583244Y-109792065D01*
X165583244Y-109792065D02*
X165607053Y-109815874D01*
X165607053Y-109815874D02*
X165630863Y-109863493D01*
X165464196Y-110458731D02*
X165130863Y-110458731D01*
X165654673Y-110339683D02*
X165297530Y-110220636D01*
X165297530Y-110220636D02*
X165297530Y-110530159D01*
X161826618Y-108553970D02*
X162326618Y-108553970D01*
X162326618Y-108553970D02*
X162326618Y-108744446D01*
X162326618Y-108744446D02*
X162302808Y-108792065D01*
X162302808Y-108792065D02*
X162278999Y-108815875D01*
X162278999Y-108815875D02*
X162231380Y-108839684D01*
X162231380Y-108839684D02*
X162159951Y-108839684D01*
X162159951Y-108839684D02*
X162112332Y-108815875D01*
X162112332Y-108815875D02*
X162088523Y-108792065D01*
X162088523Y-108792065D02*
X162064713Y-108744446D01*
X162064713Y-108744446D02*
X162064713Y-108553970D01*
X161826618Y-109315875D02*
X161826618Y-109030161D01*
X161826618Y-109173018D02*
X162326618Y-109173018D01*
X162326618Y-109173018D02*
X162255189Y-109125399D01*
X162255189Y-109125399D02*
X162207570Y-109077780D01*
X162207570Y-109077780D02*
X162183761Y-109030161D01*
X161874237Y-109530160D02*
X161850428Y-109553970D01*
X161850428Y-109553970D02*
X161826618Y-109530160D01*
X161826618Y-109530160D02*
X161850428Y-109506351D01*
X161850428Y-109506351D02*
X161874237Y-109530160D01*
X161874237Y-109530160D02*
X161826618Y-109530160D01*
X162326618Y-109863493D02*
X162326618Y-109911112D01*
X162326618Y-109911112D02*
X162302808Y-109958731D01*
X162302808Y-109958731D02*
X162278999Y-109982541D01*
X162278999Y-109982541D02*
X162231380Y-110006350D01*
X162231380Y-110006350D02*
X162136142Y-110030160D01*
X162136142Y-110030160D02*
X162017094Y-110030160D01*
X162017094Y-110030160D02*
X161921856Y-110006350D01*
X161921856Y-110006350D02*
X161874237Y-109982541D01*
X161874237Y-109982541D02*
X161850428Y-109958731D01*
X161850428Y-109958731D02*
X161826618Y-109911112D01*
X161826618Y-109911112D02*
X161826618Y-109863493D01*
X161826618Y-109863493D02*
X161850428Y-109815874D01*
X161850428Y-109815874D02*
X161874237Y-109792065D01*
X161874237Y-109792065D02*
X161921856Y-109768255D01*
X161921856Y-109768255D02*
X162017094Y-109744446D01*
X162017094Y-109744446D02*
X162136142Y-109744446D01*
X162136142Y-109744446D02*
X162231380Y-109768255D01*
X162231380Y-109768255D02*
X162278999Y-109792065D01*
X162278999Y-109792065D02*
X162302808Y-109815874D01*
X162302808Y-109815874D02*
X162326618Y-109863493D01*
X162278999Y-110220636D02*
X162302808Y-110244445D01*
X162302808Y-110244445D02*
X162326618Y-110292064D01*
X162326618Y-110292064D02*
X162326618Y-110411112D01*
X162326618Y-110411112D02*
X162302808Y-110458731D01*
X162302808Y-110458731D02*
X162278999Y-110482540D01*
X162278999Y-110482540D02*
X162231380Y-110506350D01*
X162231380Y-110506350D02*
X162183761Y-110506350D01*
X162183761Y-110506350D02*
X162112332Y-110482540D01*
X162112332Y-110482540D02*
X161826618Y-110196826D01*
X161826618Y-110196826D02*
X161826618Y-110506350D01*
X154217347Y-96182658D02*
X154217347Y-96682658D01*
X154217347Y-96682658D02*
X154026871Y-96682658D01*
X154026871Y-96682658D02*
X153979252Y-96658848D01*
X153979252Y-96658848D02*
X153955442Y-96635039D01*
X153955442Y-96635039D02*
X153931633Y-96587420D01*
X153931633Y-96587420D02*
X153931633Y-96515991D01*
X153931633Y-96515991D02*
X153955442Y-96468372D01*
X153955442Y-96468372D02*
X153979252Y-96444563D01*
X153979252Y-96444563D02*
X154026871Y-96420753D01*
X154026871Y-96420753D02*
X154217347Y-96420753D01*
X153622109Y-96682658D02*
X153574490Y-96682658D01*
X153574490Y-96682658D02*
X153526871Y-96658848D01*
X153526871Y-96658848D02*
X153503061Y-96635039D01*
X153503061Y-96635039D02*
X153479252Y-96587420D01*
X153479252Y-96587420D02*
X153455442Y-96492182D01*
X153455442Y-96492182D02*
X153455442Y-96373134D01*
X153455442Y-96373134D02*
X153479252Y-96277896D01*
X153479252Y-96277896D02*
X153503061Y-96230277D01*
X153503061Y-96230277D02*
X153526871Y-96206468D01*
X153526871Y-96206468D02*
X153574490Y-96182658D01*
X153574490Y-96182658D02*
X153622109Y-96182658D01*
X153622109Y-96182658D02*
X153669728Y-96206468D01*
X153669728Y-96206468D02*
X153693537Y-96230277D01*
X153693537Y-96230277D02*
X153717347Y-96277896D01*
X153717347Y-96277896D02*
X153741156Y-96373134D01*
X153741156Y-96373134D02*
X153741156Y-96492182D01*
X153741156Y-96492182D02*
X153717347Y-96587420D01*
X153717347Y-96587420D02*
X153693537Y-96635039D01*
X153693537Y-96635039D02*
X153669728Y-96658848D01*
X153669728Y-96658848D02*
X153622109Y-96682658D01*
X153241157Y-96230277D02*
X153217347Y-96206468D01*
X153217347Y-96206468D02*
X153241157Y-96182658D01*
X153241157Y-96182658D02*
X153264966Y-96206468D01*
X153264966Y-96206468D02*
X153241157Y-96230277D01*
X153241157Y-96230277D02*
X153241157Y-96182658D01*
X152907824Y-96682658D02*
X152860205Y-96682658D01*
X152860205Y-96682658D02*
X152812586Y-96658848D01*
X152812586Y-96658848D02*
X152788776Y-96635039D01*
X152788776Y-96635039D02*
X152764967Y-96587420D01*
X152764967Y-96587420D02*
X152741157Y-96492182D01*
X152741157Y-96492182D02*
X152741157Y-96373134D01*
X152741157Y-96373134D02*
X152764967Y-96277896D01*
X152764967Y-96277896D02*
X152788776Y-96230277D01*
X152788776Y-96230277D02*
X152812586Y-96206468D01*
X152812586Y-96206468D02*
X152860205Y-96182658D01*
X152860205Y-96182658D02*
X152907824Y-96182658D01*
X152907824Y-96182658D02*
X152955443Y-96206468D01*
X152955443Y-96206468D02*
X152979252Y-96230277D01*
X152979252Y-96230277D02*
X153003062Y-96277896D01*
X153003062Y-96277896D02*
X153026871Y-96373134D01*
X153026871Y-96373134D02*
X153026871Y-96492182D01*
X153026871Y-96492182D02*
X153003062Y-96587420D01*
X153003062Y-96587420D02*
X152979252Y-96635039D01*
X152979252Y-96635039D02*
X152955443Y-96658848D01*
X152955443Y-96658848D02*
X152907824Y-96682658D01*
X152574491Y-96682658D02*
X152241158Y-96682658D01*
X152241158Y-96682658D02*
X152455443Y-96182658D01*
X156795732Y-108815875D02*
X156819542Y-108768256D01*
X156819542Y-108768256D02*
X156819542Y-108696827D01*
X156819542Y-108696827D02*
X156795732Y-108625399D01*
X156795732Y-108625399D02*
X156748113Y-108577780D01*
X156748113Y-108577780D02*
X156700494Y-108553970D01*
X156700494Y-108553970D02*
X156605256Y-108530161D01*
X156605256Y-108530161D02*
X156533828Y-108530161D01*
X156533828Y-108530161D02*
X156438590Y-108553970D01*
X156438590Y-108553970D02*
X156390971Y-108577780D01*
X156390971Y-108577780D02*
X156343352Y-108625399D01*
X156343352Y-108625399D02*
X156319542Y-108696827D01*
X156319542Y-108696827D02*
X156319542Y-108744446D01*
X156319542Y-108744446D02*
X156343352Y-108815875D01*
X156343352Y-108815875D02*
X156367161Y-108839684D01*
X156367161Y-108839684D02*
X156533828Y-108839684D01*
X156533828Y-108839684D02*
X156533828Y-108744446D01*
X156319542Y-109053970D02*
X156819542Y-109053970D01*
X156819542Y-109053970D02*
X156319542Y-109339684D01*
X156319542Y-109339684D02*
X156819542Y-109339684D01*
X156319542Y-109577780D02*
X156819542Y-109577780D01*
X156819542Y-109577780D02*
X156819542Y-109696828D01*
X156819542Y-109696828D02*
X156795732Y-109768256D01*
X156795732Y-109768256D02*
X156748113Y-109815875D01*
X156748113Y-109815875D02*
X156700494Y-109839685D01*
X156700494Y-109839685D02*
X156605256Y-109863494D01*
X156605256Y-109863494D02*
X156533828Y-109863494D01*
X156533828Y-109863494D02*
X156438590Y-109839685D01*
X156438590Y-109839685D02*
X156390971Y-109815875D01*
X156390971Y-109815875D02*
X156343352Y-109768256D01*
X156343352Y-109768256D02*
X156319542Y-109696828D01*
X156319542Y-109696828D02*
X156319542Y-109577780D01*
D11*
X153705127Y-107283371D02*
X153705127Y-107863943D01*
X152689127Y-107573657D02*
X153705127Y-107573657D01*
X153705127Y-108396133D02*
X153705127Y-108589657D01*
X153705127Y-108589657D02*
X153656746Y-108686419D01*
X153656746Y-108686419D02*
X153559984Y-108783181D01*
X153559984Y-108783181D02*
X153366460Y-108831562D01*
X153366460Y-108831562D02*
X153027793Y-108831562D01*
X153027793Y-108831562D02*
X152834269Y-108783181D01*
X152834269Y-108783181D02*
X152737508Y-108686419D01*
X152737508Y-108686419D02*
X152689127Y-108589657D01*
X152689127Y-108589657D02*
X152689127Y-108396133D01*
X152689127Y-108396133D02*
X152737508Y-108299371D01*
X152737508Y-108299371D02*
X152834269Y-108202609D01*
X152834269Y-108202609D02*
X153027793Y-108154228D01*
X153027793Y-108154228D02*
X153366460Y-108154228D01*
X153366460Y-108154228D02*
X153559984Y-108202609D01*
X153559984Y-108202609D02*
X153656746Y-108299371D01*
X153656746Y-108299371D02*
X153705127Y-108396133D01*
X152689127Y-109266990D02*
X153705127Y-109266990D01*
X153705127Y-109266990D02*
X153705127Y-109654038D01*
X153705127Y-109654038D02*
X153656746Y-109750800D01*
X153656746Y-109750800D02*
X153608365Y-109799181D01*
X153608365Y-109799181D02*
X153511603Y-109847562D01*
X153511603Y-109847562D02*
X153366460Y-109847562D01*
X153366460Y-109847562D02*
X153269698Y-109799181D01*
X153269698Y-109799181D02*
X153221317Y-109750800D01*
X153221317Y-109750800D02*
X153172936Y-109654038D01*
X153172936Y-109654038D02*
X153172936Y-109266990D01*
X153705127Y-110911942D02*
X152689127Y-111250609D01*
X152689127Y-111250609D02*
X153705127Y-111589276D01*
X152689127Y-111927942D02*
X153705127Y-111927942D01*
X153221317Y-112411752D02*
X153221317Y-112750419D01*
X152689127Y-112895562D02*
X152689127Y-112411752D01*
X152689127Y-112411752D02*
X153705127Y-112411752D01*
X153705127Y-112411752D02*
X153705127Y-112895562D01*
X153705127Y-113234228D02*
X152689127Y-113476133D01*
X152689127Y-113476133D02*
X153414841Y-113669657D01*
X153414841Y-113669657D02*
X152689127Y-113863181D01*
X152689127Y-113863181D02*
X153705127Y-114105086D01*
D10*
X165099960Y-102106090D02*
X165599960Y-102106090D01*
X165599960Y-102106090D02*
X165599960Y-102296566D01*
X165599960Y-102296566D02*
X165576150Y-102344185D01*
X165576150Y-102344185D02*
X165552341Y-102367995D01*
X165552341Y-102367995D02*
X165504722Y-102391804D01*
X165504722Y-102391804D02*
X165433293Y-102391804D01*
X165433293Y-102391804D02*
X165385674Y-102367995D01*
X165385674Y-102367995D02*
X165361865Y-102344185D01*
X165361865Y-102344185D02*
X165338055Y-102296566D01*
X165338055Y-102296566D02*
X165338055Y-102106090D01*
X165599960Y-102701328D02*
X165599960Y-102748947D01*
X165599960Y-102748947D02*
X165576150Y-102796566D01*
X165576150Y-102796566D02*
X165552341Y-102820376D01*
X165552341Y-102820376D02*
X165504722Y-102844185D01*
X165504722Y-102844185D02*
X165409484Y-102867995D01*
X165409484Y-102867995D02*
X165290436Y-102867995D01*
X165290436Y-102867995D02*
X165195198Y-102844185D01*
X165195198Y-102844185D02*
X165147579Y-102820376D01*
X165147579Y-102820376D02*
X165123770Y-102796566D01*
X165123770Y-102796566D02*
X165099960Y-102748947D01*
X165099960Y-102748947D02*
X165099960Y-102701328D01*
X165099960Y-102701328D02*
X165123770Y-102653709D01*
X165123770Y-102653709D02*
X165147579Y-102629900D01*
X165147579Y-102629900D02*
X165195198Y-102606090D01*
X165195198Y-102606090D02*
X165290436Y-102582281D01*
X165290436Y-102582281D02*
X165409484Y-102582281D01*
X165409484Y-102582281D02*
X165504722Y-102606090D01*
X165504722Y-102606090D02*
X165552341Y-102629900D01*
X165552341Y-102629900D02*
X165576150Y-102653709D01*
X165576150Y-102653709D02*
X165599960Y-102701328D01*
X165147579Y-103082280D02*
X165123770Y-103106090D01*
X165123770Y-103106090D02*
X165099960Y-103082280D01*
X165099960Y-103082280D02*
X165123770Y-103058471D01*
X165123770Y-103058471D02*
X165147579Y-103082280D01*
X165147579Y-103082280D02*
X165099960Y-103082280D01*
X165552341Y-103296566D02*
X165576150Y-103320375D01*
X165576150Y-103320375D02*
X165599960Y-103367994D01*
X165599960Y-103367994D02*
X165599960Y-103487042D01*
X165599960Y-103487042D02*
X165576150Y-103534661D01*
X165576150Y-103534661D02*
X165552341Y-103558470D01*
X165552341Y-103558470D02*
X165504722Y-103582280D01*
X165504722Y-103582280D02*
X165457103Y-103582280D01*
X165457103Y-103582280D02*
X165385674Y-103558470D01*
X165385674Y-103558470D02*
X165099960Y-103272756D01*
X165099960Y-103272756D02*
X165099960Y-103582280D01*
X165433293Y-104010851D02*
X165099960Y-104010851D01*
X165623770Y-103891803D02*
X165266627Y-103772756D01*
X165266627Y-103772756D02*
X165266627Y-104082279D01*
X167338027Y-91247095D02*
X167838027Y-91247095D01*
X167838027Y-91247095D02*
X167838027Y-91437571D01*
X167838027Y-91437571D02*
X167814217Y-91485190D01*
X167814217Y-91485190D02*
X167790408Y-91509000D01*
X167790408Y-91509000D02*
X167742789Y-91532809D01*
X167742789Y-91532809D02*
X167671360Y-91532809D01*
X167671360Y-91532809D02*
X167623741Y-91509000D01*
X167623741Y-91509000D02*
X167599932Y-91485190D01*
X167599932Y-91485190D02*
X167576122Y-91437571D01*
X167576122Y-91437571D02*
X167576122Y-91247095D01*
X167338027Y-92009000D02*
X167338027Y-91723286D01*
X167338027Y-91866143D02*
X167838027Y-91866143D01*
X167838027Y-91866143D02*
X167766598Y-91818524D01*
X167766598Y-91818524D02*
X167718979Y-91770905D01*
X167718979Y-91770905D02*
X167695170Y-91723286D01*
X167385646Y-92223285D02*
X167361837Y-92247095D01*
X167361837Y-92247095D02*
X167338027Y-92223285D01*
X167338027Y-92223285D02*
X167361837Y-92199476D01*
X167361837Y-92199476D02*
X167385646Y-92223285D01*
X167385646Y-92223285D02*
X167338027Y-92223285D01*
X167338027Y-92723285D02*
X167338027Y-92437571D01*
X167338027Y-92580428D02*
X167838027Y-92580428D01*
X167838027Y-92580428D02*
X167766598Y-92532809D01*
X167766598Y-92532809D02*
X167718979Y-92485190D01*
X167718979Y-92485190D02*
X167695170Y-92437571D01*
X167838027Y-93032808D02*
X167838027Y-93080427D01*
X167838027Y-93080427D02*
X167814217Y-93128046D01*
X167814217Y-93128046D02*
X167790408Y-93151856D01*
X167790408Y-93151856D02*
X167742789Y-93175665D01*
X167742789Y-93175665D02*
X167647551Y-93199475D01*
X167647551Y-93199475D02*
X167528503Y-93199475D01*
X167528503Y-93199475D02*
X167433265Y-93175665D01*
X167433265Y-93175665D02*
X167385646Y-93151856D01*
X167385646Y-93151856D02*
X167361837Y-93128046D01*
X167361837Y-93128046D02*
X167338027Y-93080427D01*
X167338027Y-93080427D02*
X167338027Y-93032808D01*
X167338027Y-93032808D02*
X167361837Y-92985189D01*
X167361837Y-92985189D02*
X167385646Y-92961380D01*
X167385646Y-92961380D02*
X167433265Y-92937570D01*
X167433265Y-92937570D02*
X167528503Y-92913761D01*
X167528503Y-92913761D02*
X167647551Y-92913761D01*
X167647551Y-92913761D02*
X167742789Y-92937570D01*
X167742789Y-92937570D02*
X167790408Y-92961380D01*
X167790408Y-92961380D02*
X167814217Y-92985189D01*
X167814217Y-92985189D02*
X167838027Y-93032808D01*
X154217347Y-99482376D02*
X154217347Y-99982376D01*
X154217347Y-99982376D02*
X154026871Y-99982376D01*
X154026871Y-99982376D02*
X153979252Y-99958566D01*
X153979252Y-99958566D02*
X153955442Y-99934757D01*
X153955442Y-99934757D02*
X153931633Y-99887138D01*
X153931633Y-99887138D02*
X153931633Y-99815709D01*
X153931633Y-99815709D02*
X153955442Y-99768090D01*
X153955442Y-99768090D02*
X153979252Y-99744281D01*
X153979252Y-99744281D02*
X154026871Y-99720471D01*
X154026871Y-99720471D02*
X154217347Y-99720471D01*
X153622109Y-99982376D02*
X153574490Y-99982376D01*
X153574490Y-99982376D02*
X153526871Y-99958566D01*
X153526871Y-99958566D02*
X153503061Y-99934757D01*
X153503061Y-99934757D02*
X153479252Y-99887138D01*
X153479252Y-99887138D02*
X153455442Y-99791900D01*
X153455442Y-99791900D02*
X153455442Y-99672852D01*
X153455442Y-99672852D02*
X153479252Y-99577614D01*
X153479252Y-99577614D02*
X153503061Y-99529995D01*
X153503061Y-99529995D02*
X153526871Y-99506186D01*
X153526871Y-99506186D02*
X153574490Y-99482376D01*
X153574490Y-99482376D02*
X153622109Y-99482376D01*
X153622109Y-99482376D02*
X153669728Y-99506186D01*
X153669728Y-99506186D02*
X153693537Y-99529995D01*
X153693537Y-99529995D02*
X153717347Y-99577614D01*
X153717347Y-99577614D02*
X153741156Y-99672852D01*
X153741156Y-99672852D02*
X153741156Y-99791900D01*
X153741156Y-99791900D02*
X153717347Y-99887138D01*
X153717347Y-99887138D02*
X153693537Y-99934757D01*
X153693537Y-99934757D02*
X153669728Y-99958566D01*
X153669728Y-99958566D02*
X153622109Y-99982376D01*
X153241157Y-99529995D02*
X153217347Y-99506186D01*
X153217347Y-99506186D02*
X153241157Y-99482376D01*
X153241157Y-99482376D02*
X153264966Y-99506186D01*
X153264966Y-99506186D02*
X153241157Y-99529995D01*
X153241157Y-99529995D02*
X153241157Y-99482376D01*
X153026871Y-99934757D02*
X153003062Y-99958566D01*
X153003062Y-99958566D02*
X152955443Y-99982376D01*
X152955443Y-99982376D02*
X152836395Y-99982376D01*
X152836395Y-99982376D02*
X152788776Y-99958566D01*
X152788776Y-99958566D02*
X152764967Y-99934757D01*
X152764967Y-99934757D02*
X152741157Y-99887138D01*
X152741157Y-99887138D02*
X152741157Y-99839519D01*
X152741157Y-99839519D02*
X152764967Y-99768090D01*
X152764967Y-99768090D02*
X153050681Y-99482376D01*
X153050681Y-99482376D02*
X152741157Y-99482376D01*
X152574491Y-99982376D02*
X152264967Y-99982376D01*
X152264967Y-99982376D02*
X152431634Y-99791900D01*
X152431634Y-99791900D02*
X152360205Y-99791900D01*
X152360205Y-99791900D02*
X152312586Y-99768090D01*
X152312586Y-99768090D02*
X152288777Y-99744281D01*
X152288777Y-99744281D02*
X152264967Y-99696662D01*
X152264967Y-99696662D02*
X152264967Y-99577614D01*
X152264967Y-99577614D02*
X152288777Y-99529995D01*
X152288777Y-99529995D02*
X152312586Y-99506186D01*
X152312586Y-99506186D02*
X152360205Y-99482376D01*
X152360205Y-99482376D02*
X152503062Y-99482376D01*
X152503062Y-99482376D02*
X152550681Y-99506186D01*
X152550681Y-99506186D02*
X152574491Y-99529995D01*
X167333693Y-108553970D02*
X167833693Y-108553970D01*
X167833693Y-108553970D02*
X167833693Y-108744446D01*
X167833693Y-108744446D02*
X167809883Y-108792065D01*
X167809883Y-108792065D02*
X167786074Y-108815875D01*
X167786074Y-108815875D02*
X167738455Y-108839684D01*
X167738455Y-108839684D02*
X167667026Y-108839684D01*
X167667026Y-108839684D02*
X167619407Y-108815875D01*
X167619407Y-108815875D02*
X167595598Y-108792065D01*
X167595598Y-108792065D02*
X167571788Y-108744446D01*
X167571788Y-108744446D02*
X167571788Y-108553970D01*
X167833693Y-109149208D02*
X167833693Y-109196827D01*
X167833693Y-109196827D02*
X167809883Y-109244446D01*
X167809883Y-109244446D02*
X167786074Y-109268256D01*
X167786074Y-109268256D02*
X167738455Y-109292065D01*
X167738455Y-109292065D02*
X167643217Y-109315875D01*
X167643217Y-109315875D02*
X167524169Y-109315875D01*
X167524169Y-109315875D02*
X167428931Y-109292065D01*
X167428931Y-109292065D02*
X167381312Y-109268256D01*
X167381312Y-109268256D02*
X167357503Y-109244446D01*
X167357503Y-109244446D02*
X167333693Y-109196827D01*
X167333693Y-109196827D02*
X167333693Y-109149208D01*
X167333693Y-109149208D02*
X167357503Y-109101589D01*
X167357503Y-109101589D02*
X167381312Y-109077780D01*
X167381312Y-109077780D02*
X167428931Y-109053970D01*
X167428931Y-109053970D02*
X167524169Y-109030161D01*
X167524169Y-109030161D02*
X167643217Y-109030161D01*
X167643217Y-109030161D02*
X167738455Y-109053970D01*
X167738455Y-109053970D02*
X167786074Y-109077780D01*
X167786074Y-109077780D02*
X167809883Y-109101589D01*
X167809883Y-109101589D02*
X167833693Y-109149208D01*
X167381312Y-109530160D02*
X167357503Y-109553970D01*
X167357503Y-109553970D02*
X167333693Y-109530160D01*
X167333693Y-109530160D02*
X167357503Y-109506351D01*
X167357503Y-109506351D02*
X167381312Y-109530160D01*
X167381312Y-109530160D02*
X167333693Y-109530160D01*
X167833693Y-109863493D02*
X167833693Y-109911112D01*
X167833693Y-109911112D02*
X167809883Y-109958731D01*
X167809883Y-109958731D02*
X167786074Y-109982541D01*
X167786074Y-109982541D02*
X167738455Y-110006350D01*
X167738455Y-110006350D02*
X167643217Y-110030160D01*
X167643217Y-110030160D02*
X167524169Y-110030160D01*
X167524169Y-110030160D02*
X167428931Y-110006350D01*
X167428931Y-110006350D02*
X167381312Y-109982541D01*
X167381312Y-109982541D02*
X167357503Y-109958731D01*
X167357503Y-109958731D02*
X167333693Y-109911112D01*
X167333693Y-109911112D02*
X167333693Y-109863493D01*
X167333693Y-109863493D02*
X167357503Y-109815874D01*
X167357503Y-109815874D02*
X167381312Y-109792065D01*
X167381312Y-109792065D02*
X167428931Y-109768255D01*
X167428931Y-109768255D02*
X167524169Y-109744446D01*
X167524169Y-109744446D02*
X167643217Y-109744446D01*
X167643217Y-109744446D02*
X167738455Y-109768255D01*
X167738455Y-109768255D02*
X167786074Y-109792065D01*
X167786074Y-109792065D02*
X167809883Y-109815874D01*
X167809883Y-109815874D02*
X167833693Y-109863493D01*
X167333693Y-110268255D02*
X167333693Y-110363493D01*
X167333693Y-110363493D02*
X167357503Y-110411112D01*
X167357503Y-110411112D02*
X167381312Y-110434921D01*
X167381312Y-110434921D02*
X167452741Y-110482540D01*
X167452741Y-110482540D02*
X167547979Y-110506350D01*
X167547979Y-110506350D02*
X167738455Y-110506350D01*
X167738455Y-110506350D02*
X167786074Y-110482540D01*
X167786074Y-110482540D02*
X167809883Y-110458731D01*
X167809883Y-110458731D02*
X167833693Y-110411112D01*
X167833693Y-110411112D02*
X167833693Y-110315874D01*
X167833693Y-110315874D02*
X167809883Y-110268255D01*
X167809883Y-110268255D02*
X167786074Y-110244445D01*
X167786074Y-110244445D02*
X167738455Y-110220636D01*
X167738455Y-110220636D02*
X167619407Y-110220636D01*
X167619407Y-110220636D02*
X167571788Y-110244445D01*
X167571788Y-110244445D02*
X167547979Y-110268255D01*
X167547979Y-110268255D02*
X167524169Y-110315874D01*
X167524169Y-110315874D02*
X167524169Y-110411112D01*
X167524169Y-110411112D02*
X167547979Y-110458731D01*
X167547979Y-110458731D02*
X167571788Y-110482540D01*
X167571788Y-110482540D02*
X167619407Y-110506350D01*
X164040283Y-91247095D02*
X164540283Y-91247095D01*
X164540283Y-91247095D02*
X164540283Y-91437571D01*
X164540283Y-91437571D02*
X164516473Y-91485190D01*
X164516473Y-91485190D02*
X164492664Y-91509000D01*
X164492664Y-91509000D02*
X164445045Y-91532809D01*
X164445045Y-91532809D02*
X164373616Y-91532809D01*
X164373616Y-91532809D02*
X164325997Y-91509000D01*
X164325997Y-91509000D02*
X164302188Y-91485190D01*
X164302188Y-91485190D02*
X164278378Y-91437571D01*
X164278378Y-91437571D02*
X164278378Y-91247095D01*
X164540283Y-91842333D02*
X164540283Y-91889952D01*
X164540283Y-91889952D02*
X164516473Y-91937571D01*
X164516473Y-91937571D02*
X164492664Y-91961381D01*
X164492664Y-91961381D02*
X164445045Y-91985190D01*
X164445045Y-91985190D02*
X164349807Y-92009000D01*
X164349807Y-92009000D02*
X164230759Y-92009000D01*
X164230759Y-92009000D02*
X164135521Y-91985190D01*
X164135521Y-91985190D02*
X164087902Y-91961381D01*
X164087902Y-91961381D02*
X164064093Y-91937571D01*
X164064093Y-91937571D02*
X164040283Y-91889952D01*
X164040283Y-91889952D02*
X164040283Y-91842333D01*
X164040283Y-91842333D02*
X164064093Y-91794714D01*
X164064093Y-91794714D02*
X164087902Y-91770905D01*
X164087902Y-91770905D02*
X164135521Y-91747095D01*
X164135521Y-91747095D02*
X164230759Y-91723286D01*
X164230759Y-91723286D02*
X164349807Y-91723286D01*
X164349807Y-91723286D02*
X164445045Y-91747095D01*
X164445045Y-91747095D02*
X164492664Y-91770905D01*
X164492664Y-91770905D02*
X164516473Y-91794714D01*
X164516473Y-91794714D02*
X164540283Y-91842333D01*
X164087902Y-92223285D02*
X164064093Y-92247095D01*
X164064093Y-92247095D02*
X164040283Y-92223285D01*
X164040283Y-92223285D02*
X164064093Y-92199476D01*
X164064093Y-92199476D02*
X164087902Y-92223285D01*
X164087902Y-92223285D02*
X164040283Y-92223285D01*
X164540283Y-92556618D02*
X164540283Y-92604237D01*
X164540283Y-92604237D02*
X164516473Y-92651856D01*
X164516473Y-92651856D02*
X164492664Y-92675666D01*
X164492664Y-92675666D02*
X164445045Y-92699475D01*
X164445045Y-92699475D02*
X164349807Y-92723285D01*
X164349807Y-92723285D02*
X164230759Y-92723285D01*
X164230759Y-92723285D02*
X164135521Y-92699475D01*
X164135521Y-92699475D02*
X164087902Y-92675666D01*
X164087902Y-92675666D02*
X164064093Y-92651856D01*
X164064093Y-92651856D02*
X164040283Y-92604237D01*
X164040283Y-92604237D02*
X164040283Y-92556618D01*
X164040283Y-92556618D02*
X164064093Y-92508999D01*
X164064093Y-92508999D02*
X164087902Y-92485190D01*
X164087902Y-92485190D02*
X164135521Y-92461380D01*
X164135521Y-92461380D02*
X164230759Y-92437571D01*
X164230759Y-92437571D02*
X164349807Y-92437571D01*
X164349807Y-92437571D02*
X164445045Y-92461380D01*
X164445045Y-92461380D02*
X164492664Y-92485190D01*
X164492664Y-92485190D02*
X164516473Y-92508999D01*
X164516473Y-92508999D02*
X164540283Y-92556618D01*
X164540283Y-92889951D02*
X164540283Y-93199475D01*
X164540283Y-93199475D02*
X164349807Y-93032808D01*
X164349807Y-93032808D02*
X164349807Y-93104237D01*
X164349807Y-93104237D02*
X164325997Y-93151856D01*
X164325997Y-93151856D02*
X164302188Y-93175665D01*
X164302188Y-93175665D02*
X164254569Y-93199475D01*
X164254569Y-93199475D02*
X164135521Y-93199475D01*
X164135521Y-93199475D02*
X164087902Y-93175665D01*
X164087902Y-93175665D02*
X164064093Y-93151856D01*
X164064093Y-93151856D02*
X164040283Y-93104237D01*
X164040283Y-93104237D02*
X164040283Y-92961380D01*
X164040283Y-92961380D02*
X164064093Y-92913761D01*
X164064093Y-92913761D02*
X164087902Y-92889951D01*
X154217347Y-97282564D02*
X154217347Y-97782564D01*
X154217347Y-97782564D02*
X154026871Y-97782564D01*
X154026871Y-97782564D02*
X153979252Y-97758754D01*
X153979252Y-97758754D02*
X153955442Y-97734945D01*
X153955442Y-97734945D02*
X153931633Y-97687326D01*
X153931633Y-97687326D02*
X153931633Y-97615897D01*
X153931633Y-97615897D02*
X153955442Y-97568278D01*
X153955442Y-97568278D02*
X153979252Y-97544469D01*
X153979252Y-97544469D02*
X154026871Y-97520659D01*
X154026871Y-97520659D02*
X154217347Y-97520659D01*
X153455442Y-97282564D02*
X153741156Y-97282564D01*
X153598299Y-97282564D02*
X153598299Y-97782564D01*
X153598299Y-97782564D02*
X153645918Y-97711135D01*
X153645918Y-97711135D02*
X153693537Y-97663516D01*
X153693537Y-97663516D02*
X153741156Y-97639707D01*
X153241157Y-97330183D02*
X153217347Y-97306374D01*
X153217347Y-97306374D02*
X153241157Y-97282564D01*
X153241157Y-97282564D02*
X153264966Y-97306374D01*
X153264966Y-97306374D02*
X153241157Y-97330183D01*
X153241157Y-97330183D02*
X153241157Y-97282564D01*
X152907824Y-97782564D02*
X152860205Y-97782564D01*
X152860205Y-97782564D02*
X152812586Y-97758754D01*
X152812586Y-97758754D02*
X152788776Y-97734945D01*
X152788776Y-97734945D02*
X152764967Y-97687326D01*
X152764967Y-97687326D02*
X152741157Y-97592088D01*
X152741157Y-97592088D02*
X152741157Y-97473040D01*
X152741157Y-97473040D02*
X152764967Y-97377802D01*
X152764967Y-97377802D02*
X152788776Y-97330183D01*
X152788776Y-97330183D02*
X152812586Y-97306374D01*
X152812586Y-97306374D02*
X152860205Y-97282564D01*
X152860205Y-97282564D02*
X152907824Y-97282564D01*
X152907824Y-97282564D02*
X152955443Y-97306374D01*
X152955443Y-97306374D02*
X152979252Y-97330183D01*
X152979252Y-97330183D02*
X153003062Y-97377802D01*
X153003062Y-97377802D02*
X153026871Y-97473040D01*
X153026871Y-97473040D02*
X153026871Y-97592088D01*
X153026871Y-97592088D02*
X153003062Y-97687326D01*
X153003062Y-97687326D02*
X152979252Y-97734945D01*
X152979252Y-97734945D02*
X152955443Y-97758754D01*
X152955443Y-97758754D02*
X152907824Y-97782564D01*
X152503062Y-97282564D02*
X152407824Y-97282564D01*
X152407824Y-97282564D02*
X152360205Y-97306374D01*
X152360205Y-97306374D02*
X152336396Y-97330183D01*
X152336396Y-97330183D02*
X152288777Y-97401612D01*
X152288777Y-97401612D02*
X152264967Y-97496850D01*
X152264967Y-97496850D02*
X152264967Y-97687326D01*
X152264967Y-97687326D02*
X152288777Y-97734945D01*
X152288777Y-97734945D02*
X152312586Y-97758754D01*
X152312586Y-97758754D02*
X152360205Y-97782564D01*
X152360205Y-97782564D02*
X152455443Y-97782564D01*
X152455443Y-97782564D02*
X152503062Y-97758754D01*
X152503062Y-97758754D02*
X152526872Y-97734945D01*
X152526872Y-97734945D02*
X152550681Y-97687326D01*
X152550681Y-97687326D02*
X152550681Y-97568278D01*
X152550681Y-97568278D02*
X152526872Y-97520659D01*
X152526872Y-97520659D02*
X152503062Y-97496850D01*
X152503062Y-97496850D02*
X152455443Y-97473040D01*
X152455443Y-97473040D02*
X152360205Y-97473040D01*
X152360205Y-97473040D02*
X152312586Y-97496850D01*
X152312586Y-97496850D02*
X152288777Y-97520659D01*
X152288777Y-97520659D02*
X152264967Y-97568278D01*
X159643291Y-91247095D02*
X160143291Y-91247095D01*
X160143291Y-91247095D02*
X160143291Y-91437571D01*
X160143291Y-91437571D02*
X160119481Y-91485190D01*
X160119481Y-91485190D02*
X160095672Y-91509000D01*
X160095672Y-91509000D02*
X160048053Y-91532809D01*
X160048053Y-91532809D02*
X159976624Y-91532809D01*
X159976624Y-91532809D02*
X159929005Y-91509000D01*
X159929005Y-91509000D02*
X159905196Y-91485190D01*
X159905196Y-91485190D02*
X159881386Y-91437571D01*
X159881386Y-91437571D02*
X159881386Y-91247095D01*
X160143291Y-91842333D02*
X160143291Y-91889952D01*
X160143291Y-91889952D02*
X160119481Y-91937571D01*
X160119481Y-91937571D02*
X160095672Y-91961381D01*
X160095672Y-91961381D02*
X160048053Y-91985190D01*
X160048053Y-91985190D02*
X159952815Y-92009000D01*
X159952815Y-92009000D02*
X159833767Y-92009000D01*
X159833767Y-92009000D02*
X159738529Y-91985190D01*
X159738529Y-91985190D02*
X159690910Y-91961381D01*
X159690910Y-91961381D02*
X159667101Y-91937571D01*
X159667101Y-91937571D02*
X159643291Y-91889952D01*
X159643291Y-91889952D02*
X159643291Y-91842333D01*
X159643291Y-91842333D02*
X159667101Y-91794714D01*
X159667101Y-91794714D02*
X159690910Y-91770905D01*
X159690910Y-91770905D02*
X159738529Y-91747095D01*
X159738529Y-91747095D02*
X159833767Y-91723286D01*
X159833767Y-91723286D02*
X159952815Y-91723286D01*
X159952815Y-91723286D02*
X160048053Y-91747095D01*
X160048053Y-91747095D02*
X160095672Y-91770905D01*
X160095672Y-91770905D02*
X160119481Y-91794714D01*
X160119481Y-91794714D02*
X160143291Y-91842333D01*
X159690910Y-92223285D02*
X159667101Y-92247095D01*
X159667101Y-92247095D02*
X159643291Y-92223285D01*
X159643291Y-92223285D02*
X159667101Y-92199476D01*
X159667101Y-92199476D02*
X159690910Y-92223285D01*
X159690910Y-92223285D02*
X159643291Y-92223285D01*
X160143291Y-92413761D02*
X160143291Y-92723285D01*
X160143291Y-92723285D02*
X159952815Y-92556618D01*
X159952815Y-92556618D02*
X159952815Y-92628047D01*
X159952815Y-92628047D02*
X159929005Y-92675666D01*
X159929005Y-92675666D02*
X159905196Y-92699475D01*
X159905196Y-92699475D02*
X159857577Y-92723285D01*
X159857577Y-92723285D02*
X159738529Y-92723285D01*
X159738529Y-92723285D02*
X159690910Y-92699475D01*
X159690910Y-92699475D02*
X159667101Y-92675666D01*
X159667101Y-92675666D02*
X159643291Y-92628047D01*
X159643291Y-92628047D02*
X159643291Y-92485190D01*
X159643291Y-92485190D02*
X159667101Y-92437571D01*
X159667101Y-92437571D02*
X159690910Y-92413761D01*
X160143291Y-93032808D02*
X160143291Y-93080427D01*
X160143291Y-93080427D02*
X160119481Y-93128046D01*
X160119481Y-93128046D02*
X160095672Y-93151856D01*
X160095672Y-93151856D02*
X160048053Y-93175665D01*
X160048053Y-93175665D02*
X159952815Y-93199475D01*
X159952815Y-93199475D02*
X159833767Y-93199475D01*
X159833767Y-93199475D02*
X159738529Y-93175665D01*
X159738529Y-93175665D02*
X159690910Y-93151856D01*
X159690910Y-93151856D02*
X159667101Y-93128046D01*
X159667101Y-93128046D02*
X159643291Y-93080427D01*
X159643291Y-93080427D02*
X159643291Y-93032808D01*
X159643291Y-93032808D02*
X159667101Y-92985189D01*
X159667101Y-92985189D02*
X159690910Y-92961380D01*
X159690910Y-92961380D02*
X159738529Y-92937570D01*
X159738529Y-92937570D02*
X159833767Y-92913761D01*
X159833767Y-92913761D02*
X159952815Y-92913761D01*
X159952815Y-92913761D02*
X160048053Y-92937570D01*
X160048053Y-92937570D02*
X160095672Y-92961380D01*
X160095672Y-92961380D02*
X160119481Y-92985189D01*
X160119481Y-92985189D02*
X160143291Y-93032808D01*
X161841787Y-91247095D02*
X162341787Y-91247095D01*
X162341787Y-91247095D02*
X162341787Y-91437571D01*
X162341787Y-91437571D02*
X162317977Y-91485190D01*
X162317977Y-91485190D02*
X162294168Y-91509000D01*
X162294168Y-91509000D02*
X162246549Y-91532809D01*
X162246549Y-91532809D02*
X162175120Y-91532809D01*
X162175120Y-91532809D02*
X162127501Y-91509000D01*
X162127501Y-91509000D02*
X162103692Y-91485190D01*
X162103692Y-91485190D02*
X162079882Y-91437571D01*
X162079882Y-91437571D02*
X162079882Y-91247095D01*
X162341787Y-91842333D02*
X162341787Y-91889952D01*
X162341787Y-91889952D02*
X162317977Y-91937571D01*
X162317977Y-91937571D02*
X162294168Y-91961381D01*
X162294168Y-91961381D02*
X162246549Y-91985190D01*
X162246549Y-91985190D02*
X162151311Y-92009000D01*
X162151311Y-92009000D02*
X162032263Y-92009000D01*
X162032263Y-92009000D02*
X161937025Y-91985190D01*
X161937025Y-91985190D02*
X161889406Y-91961381D01*
X161889406Y-91961381D02*
X161865597Y-91937571D01*
X161865597Y-91937571D02*
X161841787Y-91889952D01*
X161841787Y-91889952D02*
X161841787Y-91842333D01*
X161841787Y-91842333D02*
X161865597Y-91794714D01*
X161865597Y-91794714D02*
X161889406Y-91770905D01*
X161889406Y-91770905D02*
X161937025Y-91747095D01*
X161937025Y-91747095D02*
X162032263Y-91723286D01*
X162032263Y-91723286D02*
X162151311Y-91723286D01*
X162151311Y-91723286D02*
X162246549Y-91747095D01*
X162246549Y-91747095D02*
X162294168Y-91770905D01*
X162294168Y-91770905D02*
X162317977Y-91794714D01*
X162317977Y-91794714D02*
X162341787Y-91842333D01*
X161889406Y-92223285D02*
X161865597Y-92247095D01*
X161865597Y-92247095D02*
X161841787Y-92223285D01*
X161841787Y-92223285D02*
X161865597Y-92199476D01*
X161865597Y-92199476D02*
X161889406Y-92223285D01*
X161889406Y-92223285D02*
X161841787Y-92223285D01*
X162294168Y-92437571D02*
X162317977Y-92461380D01*
X162317977Y-92461380D02*
X162341787Y-92508999D01*
X162341787Y-92508999D02*
X162341787Y-92628047D01*
X162341787Y-92628047D02*
X162317977Y-92675666D01*
X162317977Y-92675666D02*
X162294168Y-92699475D01*
X162294168Y-92699475D02*
X162246549Y-92723285D01*
X162246549Y-92723285D02*
X162198930Y-92723285D01*
X162198930Y-92723285D02*
X162127501Y-92699475D01*
X162127501Y-92699475D02*
X161841787Y-92413761D01*
X161841787Y-92413761D02*
X161841787Y-92723285D01*
X162127501Y-93008999D02*
X162151311Y-92961380D01*
X162151311Y-92961380D02*
X162175120Y-92937570D01*
X162175120Y-92937570D02*
X162222739Y-92913761D01*
X162222739Y-92913761D02*
X162246549Y-92913761D01*
X162246549Y-92913761D02*
X162294168Y-92937570D01*
X162294168Y-92937570D02*
X162317977Y-92961380D01*
X162317977Y-92961380D02*
X162341787Y-93008999D01*
X162341787Y-93008999D02*
X162341787Y-93104237D01*
X162341787Y-93104237D02*
X162317977Y-93151856D01*
X162317977Y-93151856D02*
X162294168Y-93175665D01*
X162294168Y-93175665D02*
X162246549Y-93199475D01*
X162246549Y-93199475D02*
X162222739Y-93199475D01*
X162222739Y-93199475D02*
X162175120Y-93175665D01*
X162175120Y-93175665D02*
X162151311Y-93151856D01*
X162151311Y-93151856D02*
X162127501Y-93104237D01*
X162127501Y-93104237D02*
X162127501Y-93008999D01*
X162127501Y-93008999D02*
X162103692Y-92961380D01*
X162103692Y-92961380D02*
X162079882Y-92937570D01*
X162079882Y-92937570D02*
X162032263Y-92913761D01*
X162032263Y-92913761D02*
X161937025Y-92913761D01*
X161937025Y-92913761D02*
X161889406Y-92937570D01*
X161889406Y-92937570D02*
X161865597Y-92961380D01*
X161865597Y-92961380D02*
X161841787Y-93008999D01*
X161841787Y-93008999D02*
X161841787Y-93104237D01*
X161841787Y-93104237D02*
X161865597Y-93151856D01*
X161865597Y-93151856D02*
X161889406Y-93175665D01*
X161889406Y-93175665D02*
X161937025Y-93199475D01*
X161937025Y-93199475D02*
X162032263Y-93199475D01*
X162032263Y-93199475D02*
X162079882Y-93175665D01*
X162079882Y-93175665D02*
X162103692Y-93151856D01*
X162103692Y-93151856D02*
X162127501Y-93104237D01*
X165139531Y-91247095D02*
X165639531Y-91247095D01*
X165639531Y-91247095D02*
X165639531Y-91437571D01*
X165639531Y-91437571D02*
X165615721Y-91485190D01*
X165615721Y-91485190D02*
X165591912Y-91509000D01*
X165591912Y-91509000D02*
X165544293Y-91532809D01*
X165544293Y-91532809D02*
X165472864Y-91532809D01*
X165472864Y-91532809D02*
X165425245Y-91509000D01*
X165425245Y-91509000D02*
X165401436Y-91485190D01*
X165401436Y-91485190D02*
X165377626Y-91437571D01*
X165377626Y-91437571D02*
X165377626Y-91247095D01*
X165139531Y-92009000D02*
X165139531Y-91723286D01*
X165139531Y-91866143D02*
X165639531Y-91866143D01*
X165639531Y-91866143D02*
X165568102Y-91818524D01*
X165568102Y-91818524D02*
X165520483Y-91770905D01*
X165520483Y-91770905D02*
X165496674Y-91723286D01*
X165187150Y-92223285D02*
X165163341Y-92247095D01*
X165163341Y-92247095D02*
X165139531Y-92223285D01*
X165139531Y-92223285D02*
X165163341Y-92199476D01*
X165163341Y-92199476D02*
X165187150Y-92223285D01*
X165187150Y-92223285D02*
X165139531Y-92223285D01*
X165139531Y-92723285D02*
X165139531Y-92437571D01*
X165139531Y-92580428D02*
X165639531Y-92580428D01*
X165639531Y-92580428D02*
X165568102Y-92532809D01*
X165568102Y-92532809D02*
X165520483Y-92485190D01*
X165520483Y-92485190D02*
X165496674Y-92437571D01*
X165639531Y-93175665D02*
X165639531Y-92937570D01*
X165639531Y-92937570D02*
X165401436Y-92913761D01*
X165401436Y-92913761D02*
X165425245Y-92937570D01*
X165425245Y-92937570D02*
X165449055Y-92985189D01*
X165449055Y-92985189D02*
X165449055Y-93104237D01*
X165449055Y-93104237D02*
X165425245Y-93151856D01*
X165425245Y-93151856D02*
X165401436Y-93175665D01*
X165401436Y-93175665D02*
X165353817Y-93199475D01*
X165353817Y-93199475D02*
X165234769Y-93199475D01*
X165234769Y-93199475D02*
X165187150Y-93175665D01*
X165187150Y-93175665D02*
X165163341Y-93151856D01*
X165163341Y-93151856D02*
X165139531Y-93104237D01*
X165139531Y-93104237D02*
X165139531Y-92985189D01*
X165139531Y-92985189D02*
X165163341Y-92937570D01*
X165163341Y-92937570D02*
X165187150Y-92913761D01*
X158537460Y-102189400D02*
X159037460Y-102189400D01*
X159037460Y-102189400D02*
X159037460Y-102379876D01*
X159037460Y-102379876D02*
X159013650Y-102427495D01*
X159013650Y-102427495D02*
X158989841Y-102451305D01*
X158989841Y-102451305D02*
X158942222Y-102475114D01*
X158942222Y-102475114D02*
X158870793Y-102475114D01*
X158870793Y-102475114D02*
X158823174Y-102451305D01*
X158823174Y-102451305D02*
X158799365Y-102427495D01*
X158799365Y-102427495D02*
X158775555Y-102379876D01*
X158775555Y-102379876D02*
X158775555Y-102189400D01*
X159037460Y-102784638D02*
X159037460Y-102832257D01*
X159037460Y-102832257D02*
X159013650Y-102879876D01*
X159013650Y-102879876D02*
X158989841Y-102903686D01*
X158989841Y-102903686D02*
X158942222Y-102927495D01*
X158942222Y-102927495D02*
X158846984Y-102951305D01*
X158846984Y-102951305D02*
X158727936Y-102951305D01*
X158727936Y-102951305D02*
X158632698Y-102927495D01*
X158632698Y-102927495D02*
X158585079Y-102903686D01*
X158585079Y-102903686D02*
X158561270Y-102879876D01*
X158561270Y-102879876D02*
X158537460Y-102832257D01*
X158537460Y-102832257D02*
X158537460Y-102784638D01*
X158537460Y-102784638D02*
X158561270Y-102737019D01*
X158561270Y-102737019D02*
X158585079Y-102713210D01*
X158585079Y-102713210D02*
X158632698Y-102689400D01*
X158632698Y-102689400D02*
X158727936Y-102665591D01*
X158727936Y-102665591D02*
X158846984Y-102665591D01*
X158846984Y-102665591D02*
X158942222Y-102689400D01*
X158942222Y-102689400D02*
X158989841Y-102713210D01*
X158989841Y-102713210D02*
X159013650Y-102737019D01*
X159013650Y-102737019D02*
X159037460Y-102784638D01*
X158585079Y-103165590D02*
X158561270Y-103189400D01*
X158561270Y-103189400D02*
X158537460Y-103165590D01*
X158537460Y-103165590D02*
X158561270Y-103141781D01*
X158561270Y-103141781D02*
X158585079Y-103165590D01*
X158585079Y-103165590D02*
X158537460Y-103165590D01*
X158537460Y-103665590D02*
X158537460Y-103379876D01*
X158537460Y-103522733D02*
X159037460Y-103522733D01*
X159037460Y-103522733D02*
X158966031Y-103475114D01*
X158966031Y-103475114D02*
X158918412Y-103427495D01*
X158918412Y-103427495D02*
X158894603Y-103379876D01*
X159037460Y-104094161D02*
X159037460Y-103998923D01*
X159037460Y-103998923D02*
X159013650Y-103951304D01*
X159013650Y-103951304D02*
X158989841Y-103927494D01*
X158989841Y-103927494D02*
X158918412Y-103879875D01*
X158918412Y-103879875D02*
X158823174Y-103856066D01*
X158823174Y-103856066D02*
X158632698Y-103856066D01*
X158632698Y-103856066D02*
X158585079Y-103879875D01*
X158585079Y-103879875D02*
X158561270Y-103903685D01*
X158561270Y-103903685D02*
X158537460Y-103951304D01*
X158537460Y-103951304D02*
X158537460Y-104046542D01*
X158537460Y-104046542D02*
X158561270Y-104094161D01*
X158561270Y-104094161D02*
X158585079Y-104117970D01*
X158585079Y-104117970D02*
X158632698Y-104141780D01*
X158632698Y-104141780D02*
X158751746Y-104141780D01*
X158751746Y-104141780D02*
X158799365Y-104117970D01*
X158799365Y-104117970D02*
X158823174Y-104094161D01*
X158823174Y-104094161D02*
X158846984Y-104046542D01*
X158846984Y-104046542D02*
X158846984Y-103951304D01*
X158846984Y-103951304D02*
X158823174Y-103903685D01*
X158823174Y-103903685D02*
X158799365Y-103879875D01*
X158799365Y-103879875D02*
X158751746Y-103856066D01*
X154217347Y-101682188D02*
X154217347Y-102182188D01*
X154217347Y-102182188D02*
X154026871Y-102182188D01*
X154026871Y-102182188D02*
X153979252Y-102158378D01*
X153979252Y-102158378D02*
X153955442Y-102134569D01*
X153955442Y-102134569D02*
X153931633Y-102086950D01*
X153931633Y-102086950D02*
X153931633Y-102015521D01*
X153931633Y-102015521D02*
X153955442Y-101967902D01*
X153955442Y-101967902D02*
X153979252Y-101944093D01*
X153979252Y-101944093D02*
X154026871Y-101920283D01*
X154026871Y-101920283D02*
X154217347Y-101920283D01*
X153622109Y-102182188D02*
X153574490Y-102182188D01*
X153574490Y-102182188D02*
X153526871Y-102158378D01*
X153526871Y-102158378D02*
X153503061Y-102134569D01*
X153503061Y-102134569D02*
X153479252Y-102086950D01*
X153479252Y-102086950D02*
X153455442Y-101991712D01*
X153455442Y-101991712D02*
X153455442Y-101872664D01*
X153455442Y-101872664D02*
X153479252Y-101777426D01*
X153479252Y-101777426D02*
X153503061Y-101729807D01*
X153503061Y-101729807D02*
X153526871Y-101705998D01*
X153526871Y-101705998D02*
X153574490Y-101682188D01*
X153574490Y-101682188D02*
X153622109Y-101682188D01*
X153622109Y-101682188D02*
X153669728Y-101705998D01*
X153669728Y-101705998D02*
X153693537Y-101729807D01*
X153693537Y-101729807D02*
X153717347Y-101777426D01*
X153717347Y-101777426D02*
X153741156Y-101872664D01*
X153741156Y-101872664D02*
X153741156Y-101991712D01*
X153741156Y-101991712D02*
X153717347Y-102086950D01*
X153717347Y-102086950D02*
X153693537Y-102134569D01*
X153693537Y-102134569D02*
X153669728Y-102158378D01*
X153669728Y-102158378D02*
X153622109Y-102182188D01*
X153241157Y-101729807D02*
X153217347Y-101705998D01*
X153217347Y-101705998D02*
X153241157Y-101682188D01*
X153241157Y-101682188D02*
X153264966Y-101705998D01*
X153264966Y-101705998D02*
X153241157Y-101729807D01*
X153241157Y-101729807D02*
X153241157Y-101682188D01*
X152741157Y-101682188D02*
X153026871Y-101682188D01*
X152884014Y-101682188D02*
X152884014Y-102182188D01*
X152884014Y-102182188D02*
X152931633Y-102110759D01*
X152931633Y-102110759D02*
X152979252Y-102063140D01*
X152979252Y-102063140D02*
X153026871Y-102039331D01*
X152503062Y-101682188D02*
X152407824Y-101682188D01*
X152407824Y-101682188D02*
X152360205Y-101705998D01*
X152360205Y-101705998D02*
X152336396Y-101729807D01*
X152336396Y-101729807D02*
X152288777Y-101801236D01*
X152288777Y-101801236D02*
X152264967Y-101896474D01*
X152264967Y-101896474D02*
X152264967Y-102086950D01*
X152264967Y-102086950D02*
X152288777Y-102134569D01*
X152288777Y-102134569D02*
X152312586Y-102158378D01*
X152312586Y-102158378D02*
X152360205Y-102182188D01*
X152360205Y-102182188D02*
X152455443Y-102182188D01*
X152455443Y-102182188D02*
X152503062Y-102158378D01*
X152503062Y-102158378D02*
X152526872Y-102134569D01*
X152526872Y-102134569D02*
X152550681Y-102086950D01*
X152550681Y-102086950D02*
X152550681Y-101967902D01*
X152550681Y-101967902D02*
X152526872Y-101920283D01*
X152526872Y-101920283D02*
X152503062Y-101896474D01*
X152503062Y-101896474D02*
X152455443Y-101872664D01*
X152455443Y-101872664D02*
X152360205Y-101872664D01*
X152360205Y-101872664D02*
X152312586Y-101896474D01*
X152312586Y-101896474D02*
X152288777Y-101920283D01*
X152288777Y-101920283D02*
X152264967Y-101967902D01*
X160737460Y-102189400D02*
X161237460Y-102189400D01*
X161237460Y-102189400D02*
X161237460Y-102379876D01*
X161237460Y-102379876D02*
X161213650Y-102427495D01*
X161213650Y-102427495D02*
X161189841Y-102451305D01*
X161189841Y-102451305D02*
X161142222Y-102475114D01*
X161142222Y-102475114D02*
X161070793Y-102475114D01*
X161070793Y-102475114D02*
X161023174Y-102451305D01*
X161023174Y-102451305D02*
X160999365Y-102427495D01*
X160999365Y-102427495D02*
X160975555Y-102379876D01*
X160975555Y-102379876D02*
X160975555Y-102189400D01*
X161237460Y-102784638D02*
X161237460Y-102832257D01*
X161237460Y-102832257D02*
X161213650Y-102879876D01*
X161213650Y-102879876D02*
X161189841Y-102903686D01*
X161189841Y-102903686D02*
X161142222Y-102927495D01*
X161142222Y-102927495D02*
X161046984Y-102951305D01*
X161046984Y-102951305D02*
X160927936Y-102951305D01*
X160927936Y-102951305D02*
X160832698Y-102927495D01*
X160832698Y-102927495D02*
X160785079Y-102903686D01*
X160785079Y-102903686D02*
X160761270Y-102879876D01*
X160761270Y-102879876D02*
X160737460Y-102832257D01*
X160737460Y-102832257D02*
X160737460Y-102784638D01*
X160737460Y-102784638D02*
X160761270Y-102737019D01*
X160761270Y-102737019D02*
X160785079Y-102713210D01*
X160785079Y-102713210D02*
X160832698Y-102689400D01*
X160832698Y-102689400D02*
X160927936Y-102665591D01*
X160927936Y-102665591D02*
X161046984Y-102665591D01*
X161046984Y-102665591D02*
X161142222Y-102689400D01*
X161142222Y-102689400D02*
X161189841Y-102713210D01*
X161189841Y-102713210D02*
X161213650Y-102737019D01*
X161213650Y-102737019D02*
X161237460Y-102784638D01*
X160785079Y-103165590D02*
X160761270Y-103189400D01*
X160761270Y-103189400D02*
X160737460Y-103165590D01*
X160737460Y-103165590D02*
X160761270Y-103141781D01*
X160761270Y-103141781D02*
X160785079Y-103165590D01*
X160785079Y-103165590D02*
X160737460Y-103165590D01*
X160737460Y-103665590D02*
X160737460Y-103379876D01*
X160737460Y-103522733D02*
X161237460Y-103522733D01*
X161237460Y-103522733D02*
X161166031Y-103475114D01*
X161166031Y-103475114D02*
X161118412Y-103427495D01*
X161118412Y-103427495D02*
X161094603Y-103379876D01*
X161070793Y-104094161D02*
X160737460Y-104094161D01*
X161261270Y-103975113D02*
X160904127Y-103856066D01*
X160904127Y-103856066D02*
X160904127Y-104165589D01*
X164053258Y-108530161D02*
X164029448Y-108601589D01*
X164029448Y-108601589D02*
X164029448Y-108720637D01*
X164029448Y-108720637D02*
X164053258Y-108768256D01*
X164053258Y-108768256D02*
X164077067Y-108792065D01*
X164077067Y-108792065D02*
X164124686Y-108815875D01*
X164124686Y-108815875D02*
X164172305Y-108815875D01*
X164172305Y-108815875D02*
X164219924Y-108792065D01*
X164219924Y-108792065D02*
X164243734Y-108768256D01*
X164243734Y-108768256D02*
X164267543Y-108720637D01*
X164267543Y-108720637D02*
X164291353Y-108625399D01*
X164291353Y-108625399D02*
X164315162Y-108577780D01*
X164315162Y-108577780D02*
X164338972Y-108553970D01*
X164338972Y-108553970D02*
X164386591Y-108530161D01*
X164386591Y-108530161D02*
X164434210Y-108530161D01*
X164434210Y-108530161D02*
X164481829Y-108553970D01*
X164481829Y-108553970D02*
X164505638Y-108577780D01*
X164505638Y-108577780D02*
X164529448Y-108625399D01*
X164529448Y-108625399D02*
X164529448Y-108744446D01*
X164529448Y-108744446D02*
X164505638Y-108815875D01*
X164529448Y-108982541D02*
X164029448Y-109101589D01*
X164029448Y-109101589D02*
X164386591Y-109196827D01*
X164386591Y-109196827D02*
X164029448Y-109292065D01*
X164029448Y-109292065D02*
X164529448Y-109411113D01*
X164029448Y-109601589D02*
X164529448Y-109601589D01*
X164529448Y-109601589D02*
X164529448Y-109720637D01*
X164529448Y-109720637D02*
X164505638Y-109792065D01*
X164505638Y-109792065D02*
X164458019Y-109839684D01*
X164458019Y-109839684D02*
X164410400Y-109863494D01*
X164410400Y-109863494D02*
X164315162Y-109887303D01*
X164315162Y-109887303D02*
X164243734Y-109887303D01*
X164243734Y-109887303D02*
X164148496Y-109863494D01*
X164148496Y-109863494D02*
X164100877Y-109839684D01*
X164100877Y-109839684D02*
X164053258Y-109792065D01*
X164053258Y-109792065D02*
X164029448Y-109720637D01*
X164029448Y-109720637D02*
X164029448Y-109601589D01*
X164029448Y-110101589D02*
X164529448Y-110101589D01*
X164529448Y-110434922D02*
X164529448Y-110530160D01*
X164529448Y-110530160D02*
X164505638Y-110577779D01*
X164505638Y-110577779D02*
X164458019Y-110625398D01*
X164458019Y-110625398D02*
X164362781Y-110649208D01*
X164362781Y-110649208D02*
X164196115Y-110649208D01*
X164196115Y-110649208D02*
X164100877Y-110625398D01*
X164100877Y-110625398D02*
X164053258Y-110577779D01*
X164053258Y-110577779D02*
X164029448Y-110530160D01*
X164029448Y-110530160D02*
X164029448Y-110434922D01*
X164029448Y-110434922D02*
X164053258Y-110387303D01*
X164053258Y-110387303D02*
X164100877Y-110339684D01*
X164100877Y-110339684D02*
X164196115Y-110315875D01*
X164196115Y-110315875D02*
X164362781Y-110315875D01*
X164362781Y-110315875D02*
X164458019Y-110339684D01*
X164458019Y-110339684D02*
X164505638Y-110387303D01*
X164505638Y-110387303D02*
X164529448Y-110434922D01*
X164006210Y-97509643D02*
X164506210Y-97509643D01*
X164506210Y-97509643D02*
X164506210Y-97700119D01*
X164506210Y-97700119D02*
X164482400Y-97747738D01*
X164482400Y-97747738D02*
X164458591Y-97771548D01*
X164458591Y-97771548D02*
X164410972Y-97795357D01*
X164410972Y-97795357D02*
X164339543Y-97795357D01*
X164339543Y-97795357D02*
X164291924Y-97771548D01*
X164291924Y-97771548D02*
X164268115Y-97747738D01*
X164268115Y-97747738D02*
X164244305Y-97700119D01*
X164244305Y-97700119D02*
X164244305Y-97509643D01*
X164506210Y-98104881D02*
X164506210Y-98152500D01*
X164506210Y-98152500D02*
X164482400Y-98200119D01*
X164482400Y-98200119D02*
X164458591Y-98223929D01*
X164458591Y-98223929D02*
X164410972Y-98247738D01*
X164410972Y-98247738D02*
X164315734Y-98271548D01*
X164315734Y-98271548D02*
X164196686Y-98271548D01*
X164196686Y-98271548D02*
X164101448Y-98247738D01*
X164101448Y-98247738D02*
X164053829Y-98223929D01*
X164053829Y-98223929D02*
X164030020Y-98200119D01*
X164030020Y-98200119D02*
X164006210Y-98152500D01*
X164006210Y-98152500D02*
X164006210Y-98104881D01*
X164006210Y-98104881D02*
X164030020Y-98057262D01*
X164030020Y-98057262D02*
X164053829Y-98033453D01*
X164053829Y-98033453D02*
X164101448Y-98009643D01*
X164101448Y-98009643D02*
X164196686Y-97985834D01*
X164196686Y-97985834D02*
X164315734Y-97985834D01*
X164315734Y-97985834D02*
X164410972Y-98009643D01*
X164410972Y-98009643D02*
X164458591Y-98033453D01*
X164458591Y-98033453D02*
X164482400Y-98057262D01*
X164482400Y-98057262D02*
X164506210Y-98104881D01*
X164053829Y-98485833D02*
X164030020Y-98509643D01*
X164030020Y-98509643D02*
X164006210Y-98485833D01*
X164006210Y-98485833D02*
X164030020Y-98462024D01*
X164030020Y-98462024D02*
X164053829Y-98485833D01*
X164053829Y-98485833D02*
X164006210Y-98485833D01*
X164006210Y-98985833D02*
X164006210Y-98700119D01*
X164006210Y-98842976D02*
X164506210Y-98842976D01*
X164506210Y-98842976D02*
X164434781Y-98795357D01*
X164434781Y-98795357D02*
X164387162Y-98747738D01*
X164387162Y-98747738D02*
X164363353Y-98700119D01*
X164006210Y-99462023D02*
X164006210Y-99176309D01*
X164006210Y-99319166D02*
X164506210Y-99319166D01*
X164506210Y-99319166D02*
X164434781Y-99271547D01*
X164434781Y-99271547D02*
X164387162Y-99223928D01*
X164387162Y-99223928D02*
X164363353Y-99176309D01*
X168437275Y-91247095D02*
X168937275Y-91247095D01*
X168937275Y-91247095D02*
X168937275Y-91437571D01*
X168937275Y-91437571D02*
X168913465Y-91485190D01*
X168913465Y-91485190D02*
X168889656Y-91509000D01*
X168889656Y-91509000D02*
X168842037Y-91532809D01*
X168842037Y-91532809D02*
X168770608Y-91532809D01*
X168770608Y-91532809D02*
X168722989Y-91509000D01*
X168722989Y-91509000D02*
X168699180Y-91485190D01*
X168699180Y-91485190D02*
X168675370Y-91437571D01*
X168675370Y-91437571D02*
X168675370Y-91247095D01*
X168437275Y-92009000D02*
X168437275Y-91723286D01*
X168437275Y-91866143D02*
X168937275Y-91866143D01*
X168937275Y-91866143D02*
X168865846Y-91818524D01*
X168865846Y-91818524D02*
X168818227Y-91770905D01*
X168818227Y-91770905D02*
X168794418Y-91723286D01*
X168484894Y-92223285D02*
X168461085Y-92247095D01*
X168461085Y-92247095D02*
X168437275Y-92223285D01*
X168437275Y-92223285D02*
X168461085Y-92199476D01*
X168461085Y-92199476D02*
X168484894Y-92223285D01*
X168484894Y-92223285D02*
X168437275Y-92223285D01*
X168437275Y-92723285D02*
X168437275Y-92437571D01*
X168437275Y-92580428D02*
X168937275Y-92580428D01*
X168937275Y-92580428D02*
X168865846Y-92532809D01*
X168865846Y-92532809D02*
X168818227Y-92485190D01*
X168818227Y-92485190D02*
X168794418Y-92437571D01*
X168437275Y-93199475D02*
X168437275Y-92913761D01*
X168437275Y-93056618D02*
X168937275Y-93056618D01*
X168937275Y-93056618D02*
X168865846Y-93008999D01*
X168865846Y-93008999D02*
X168818227Y-92961380D01*
X168818227Y-92961380D02*
X168794418Y-92913761D01*
X160742539Y-91247095D02*
X161242539Y-91247095D01*
X161242539Y-91247095D02*
X161242539Y-91437571D01*
X161242539Y-91437571D02*
X161218729Y-91485190D01*
X161218729Y-91485190D02*
X161194920Y-91509000D01*
X161194920Y-91509000D02*
X161147301Y-91532809D01*
X161147301Y-91532809D02*
X161075872Y-91532809D01*
X161075872Y-91532809D02*
X161028253Y-91509000D01*
X161028253Y-91509000D02*
X161004444Y-91485190D01*
X161004444Y-91485190D02*
X160980634Y-91437571D01*
X160980634Y-91437571D02*
X160980634Y-91247095D01*
X161242539Y-91842333D02*
X161242539Y-91889952D01*
X161242539Y-91889952D02*
X161218729Y-91937571D01*
X161218729Y-91937571D02*
X161194920Y-91961381D01*
X161194920Y-91961381D02*
X161147301Y-91985190D01*
X161147301Y-91985190D02*
X161052063Y-92009000D01*
X161052063Y-92009000D02*
X160933015Y-92009000D01*
X160933015Y-92009000D02*
X160837777Y-91985190D01*
X160837777Y-91985190D02*
X160790158Y-91961381D01*
X160790158Y-91961381D02*
X160766349Y-91937571D01*
X160766349Y-91937571D02*
X160742539Y-91889952D01*
X160742539Y-91889952D02*
X160742539Y-91842333D01*
X160742539Y-91842333D02*
X160766349Y-91794714D01*
X160766349Y-91794714D02*
X160790158Y-91770905D01*
X160790158Y-91770905D02*
X160837777Y-91747095D01*
X160837777Y-91747095D02*
X160933015Y-91723286D01*
X160933015Y-91723286D02*
X161052063Y-91723286D01*
X161052063Y-91723286D02*
X161147301Y-91747095D01*
X161147301Y-91747095D02*
X161194920Y-91770905D01*
X161194920Y-91770905D02*
X161218729Y-91794714D01*
X161218729Y-91794714D02*
X161242539Y-91842333D01*
X160790158Y-92223285D02*
X160766349Y-92247095D01*
X160766349Y-92247095D02*
X160742539Y-92223285D01*
X160742539Y-92223285D02*
X160766349Y-92199476D01*
X160766349Y-92199476D02*
X160790158Y-92223285D01*
X160790158Y-92223285D02*
X160742539Y-92223285D01*
X161194920Y-92437571D02*
X161218729Y-92461380D01*
X161218729Y-92461380D02*
X161242539Y-92508999D01*
X161242539Y-92508999D02*
X161242539Y-92628047D01*
X161242539Y-92628047D02*
X161218729Y-92675666D01*
X161218729Y-92675666D02*
X161194920Y-92699475D01*
X161194920Y-92699475D02*
X161147301Y-92723285D01*
X161147301Y-92723285D02*
X161099682Y-92723285D01*
X161099682Y-92723285D02*
X161028253Y-92699475D01*
X161028253Y-92699475D02*
X160742539Y-92413761D01*
X160742539Y-92413761D02*
X160742539Y-92723285D01*
X160742539Y-92961380D02*
X160742539Y-93056618D01*
X160742539Y-93056618D02*
X160766349Y-93104237D01*
X160766349Y-93104237D02*
X160790158Y-93128046D01*
X160790158Y-93128046D02*
X160861587Y-93175665D01*
X160861587Y-93175665D02*
X160956825Y-93199475D01*
X160956825Y-93199475D02*
X161147301Y-93199475D01*
X161147301Y-93199475D02*
X161194920Y-93175665D01*
X161194920Y-93175665D02*
X161218729Y-93151856D01*
X161218729Y-93151856D02*
X161242539Y-93104237D01*
X161242539Y-93104237D02*
X161242539Y-93008999D01*
X161242539Y-93008999D02*
X161218729Y-92961380D01*
X161218729Y-92961380D02*
X161194920Y-92937570D01*
X161194920Y-92937570D02*
X161147301Y-92913761D01*
X161147301Y-92913761D02*
X161028253Y-92913761D01*
X161028253Y-92913761D02*
X160980634Y-92937570D01*
X160980634Y-92937570D02*
X160956825Y-92961380D01*
X160956825Y-92961380D02*
X160933015Y-93008999D01*
X160933015Y-93008999D02*
X160933015Y-93104237D01*
X160933015Y-93104237D02*
X160956825Y-93151856D01*
X160956825Y-93151856D02*
X160980634Y-93175665D01*
X160980634Y-93175665D02*
X161028253Y-93199475D01*
X162941035Y-91247095D02*
X163441035Y-91247095D01*
X163441035Y-91247095D02*
X163441035Y-91437571D01*
X163441035Y-91437571D02*
X163417225Y-91485190D01*
X163417225Y-91485190D02*
X163393416Y-91509000D01*
X163393416Y-91509000D02*
X163345797Y-91532809D01*
X163345797Y-91532809D02*
X163274368Y-91532809D01*
X163274368Y-91532809D02*
X163226749Y-91509000D01*
X163226749Y-91509000D02*
X163202940Y-91485190D01*
X163202940Y-91485190D02*
X163179130Y-91437571D01*
X163179130Y-91437571D02*
X163179130Y-91247095D01*
X163441035Y-91842333D02*
X163441035Y-91889952D01*
X163441035Y-91889952D02*
X163417225Y-91937571D01*
X163417225Y-91937571D02*
X163393416Y-91961381D01*
X163393416Y-91961381D02*
X163345797Y-91985190D01*
X163345797Y-91985190D02*
X163250559Y-92009000D01*
X163250559Y-92009000D02*
X163131511Y-92009000D01*
X163131511Y-92009000D02*
X163036273Y-91985190D01*
X163036273Y-91985190D02*
X162988654Y-91961381D01*
X162988654Y-91961381D02*
X162964845Y-91937571D01*
X162964845Y-91937571D02*
X162941035Y-91889952D01*
X162941035Y-91889952D02*
X162941035Y-91842333D01*
X162941035Y-91842333D02*
X162964845Y-91794714D01*
X162964845Y-91794714D02*
X162988654Y-91770905D01*
X162988654Y-91770905D02*
X163036273Y-91747095D01*
X163036273Y-91747095D02*
X163131511Y-91723286D01*
X163131511Y-91723286D02*
X163250559Y-91723286D01*
X163250559Y-91723286D02*
X163345797Y-91747095D01*
X163345797Y-91747095D02*
X163393416Y-91770905D01*
X163393416Y-91770905D02*
X163417225Y-91794714D01*
X163417225Y-91794714D02*
X163441035Y-91842333D01*
X162988654Y-92223285D02*
X162964845Y-92247095D01*
X162964845Y-92247095D02*
X162941035Y-92223285D01*
X162941035Y-92223285D02*
X162964845Y-92199476D01*
X162964845Y-92199476D02*
X162988654Y-92223285D01*
X162988654Y-92223285D02*
X162941035Y-92223285D01*
X163441035Y-92556618D02*
X163441035Y-92604237D01*
X163441035Y-92604237D02*
X163417225Y-92651856D01*
X163417225Y-92651856D02*
X163393416Y-92675666D01*
X163393416Y-92675666D02*
X163345797Y-92699475D01*
X163345797Y-92699475D02*
X163250559Y-92723285D01*
X163250559Y-92723285D02*
X163131511Y-92723285D01*
X163131511Y-92723285D02*
X163036273Y-92699475D01*
X163036273Y-92699475D02*
X162988654Y-92675666D01*
X162988654Y-92675666D02*
X162964845Y-92651856D01*
X162964845Y-92651856D02*
X162941035Y-92604237D01*
X162941035Y-92604237D02*
X162941035Y-92556618D01*
X162941035Y-92556618D02*
X162964845Y-92508999D01*
X162964845Y-92508999D02*
X162988654Y-92485190D01*
X162988654Y-92485190D02*
X163036273Y-92461380D01*
X163036273Y-92461380D02*
X163131511Y-92437571D01*
X163131511Y-92437571D02*
X163250559Y-92437571D01*
X163250559Y-92437571D02*
X163345797Y-92461380D01*
X163345797Y-92461380D02*
X163393416Y-92485190D01*
X163393416Y-92485190D02*
X163417225Y-92508999D01*
X163417225Y-92508999D02*
X163441035Y-92556618D01*
X163393416Y-92913761D02*
X163417225Y-92937570D01*
X163417225Y-92937570D02*
X163441035Y-92985189D01*
X163441035Y-92985189D02*
X163441035Y-93104237D01*
X163441035Y-93104237D02*
X163417225Y-93151856D01*
X163417225Y-93151856D02*
X163393416Y-93175665D01*
X163393416Y-93175665D02*
X163345797Y-93199475D01*
X163345797Y-93199475D02*
X163298178Y-93199475D01*
X163298178Y-93199475D02*
X163226749Y-93175665D01*
X163226749Y-93175665D02*
X162941035Y-92889951D01*
X162941035Y-92889951D02*
X162941035Y-93199475D01*
X158522373Y-108553970D02*
X159022373Y-108553970D01*
X159022373Y-108553970D02*
X159022373Y-108744446D01*
X159022373Y-108744446D02*
X158998563Y-108792065D01*
X158998563Y-108792065D02*
X158974754Y-108815875D01*
X158974754Y-108815875D02*
X158927135Y-108839684D01*
X158927135Y-108839684D02*
X158855706Y-108839684D01*
X158855706Y-108839684D02*
X158808087Y-108815875D01*
X158808087Y-108815875D02*
X158784278Y-108792065D01*
X158784278Y-108792065D02*
X158760468Y-108744446D01*
X158760468Y-108744446D02*
X158760468Y-108553970D01*
X158522373Y-109315875D02*
X158522373Y-109030161D01*
X158522373Y-109173018D02*
X159022373Y-109173018D01*
X159022373Y-109173018D02*
X158950944Y-109125399D01*
X158950944Y-109125399D02*
X158903325Y-109077780D01*
X158903325Y-109077780D02*
X158879516Y-109030161D01*
X158569992Y-109530160D02*
X158546183Y-109553970D01*
X158546183Y-109553970D02*
X158522373Y-109530160D01*
X158522373Y-109530160D02*
X158546183Y-109506351D01*
X158546183Y-109506351D02*
X158569992Y-109530160D01*
X158569992Y-109530160D02*
X158522373Y-109530160D01*
X159022373Y-109863493D02*
X159022373Y-109911112D01*
X159022373Y-109911112D02*
X158998563Y-109958731D01*
X158998563Y-109958731D02*
X158974754Y-109982541D01*
X158974754Y-109982541D02*
X158927135Y-110006350D01*
X158927135Y-110006350D02*
X158831897Y-110030160D01*
X158831897Y-110030160D02*
X158712849Y-110030160D01*
X158712849Y-110030160D02*
X158617611Y-110006350D01*
X158617611Y-110006350D02*
X158569992Y-109982541D01*
X158569992Y-109982541D02*
X158546183Y-109958731D01*
X158546183Y-109958731D02*
X158522373Y-109911112D01*
X158522373Y-109911112D02*
X158522373Y-109863493D01*
X158522373Y-109863493D02*
X158546183Y-109815874D01*
X158546183Y-109815874D02*
X158569992Y-109792065D01*
X158569992Y-109792065D02*
X158617611Y-109768255D01*
X158617611Y-109768255D02*
X158712849Y-109744446D01*
X158712849Y-109744446D02*
X158831897Y-109744446D01*
X158831897Y-109744446D02*
X158927135Y-109768255D01*
X158927135Y-109768255D02*
X158974754Y-109792065D01*
X158974754Y-109792065D02*
X158998563Y-109815874D01*
X158998563Y-109815874D02*
X159022373Y-109863493D01*
X159022373Y-110339683D02*
X159022373Y-110387302D01*
X159022373Y-110387302D02*
X158998563Y-110434921D01*
X158998563Y-110434921D02*
X158974754Y-110458731D01*
X158974754Y-110458731D02*
X158927135Y-110482540D01*
X158927135Y-110482540D02*
X158831897Y-110506350D01*
X158831897Y-110506350D02*
X158712849Y-110506350D01*
X158712849Y-110506350D02*
X158617611Y-110482540D01*
X158617611Y-110482540D02*
X158569992Y-110458731D01*
X158569992Y-110458731D02*
X158546183Y-110434921D01*
X158546183Y-110434921D02*
X158522373Y-110387302D01*
X158522373Y-110387302D02*
X158522373Y-110339683D01*
X158522373Y-110339683D02*
X158546183Y-110292064D01*
X158546183Y-110292064D02*
X158569992Y-110268255D01*
X158569992Y-110268255D02*
X158617611Y-110244445D01*
X158617611Y-110244445D02*
X158712849Y-110220636D01*
X158712849Y-110220636D02*
X158831897Y-110220636D01*
X158831897Y-110220636D02*
X158927135Y-110244445D01*
X158927135Y-110244445D02*
X158974754Y-110268255D01*
X158974754Y-110268255D02*
X158998563Y-110292064D01*
X158998563Y-110292064D02*
X159022373Y-110339683D01*
X160725203Y-108553970D02*
X161225203Y-108553970D01*
X161225203Y-108553970D02*
X161225203Y-108744446D01*
X161225203Y-108744446D02*
X161201393Y-108792065D01*
X161201393Y-108792065D02*
X161177584Y-108815875D01*
X161177584Y-108815875D02*
X161129965Y-108839684D01*
X161129965Y-108839684D02*
X161058536Y-108839684D01*
X161058536Y-108839684D02*
X161010917Y-108815875D01*
X161010917Y-108815875D02*
X160987108Y-108792065D01*
X160987108Y-108792065D02*
X160963298Y-108744446D01*
X160963298Y-108744446D02*
X160963298Y-108553970D01*
X160725203Y-109315875D02*
X160725203Y-109030161D01*
X160725203Y-109173018D02*
X161225203Y-109173018D01*
X161225203Y-109173018D02*
X161153774Y-109125399D01*
X161153774Y-109125399D02*
X161106155Y-109077780D01*
X161106155Y-109077780D02*
X161082346Y-109030161D01*
X160772822Y-109530160D02*
X160749013Y-109553970D01*
X160749013Y-109553970D02*
X160725203Y-109530160D01*
X160725203Y-109530160D02*
X160749013Y-109506351D01*
X160749013Y-109506351D02*
X160772822Y-109530160D01*
X160772822Y-109530160D02*
X160725203Y-109530160D01*
X161225203Y-109863493D02*
X161225203Y-109911112D01*
X161225203Y-109911112D02*
X161201393Y-109958731D01*
X161201393Y-109958731D02*
X161177584Y-109982541D01*
X161177584Y-109982541D02*
X161129965Y-110006350D01*
X161129965Y-110006350D02*
X161034727Y-110030160D01*
X161034727Y-110030160D02*
X160915679Y-110030160D01*
X160915679Y-110030160D02*
X160820441Y-110006350D01*
X160820441Y-110006350D02*
X160772822Y-109982541D01*
X160772822Y-109982541D02*
X160749013Y-109958731D01*
X160749013Y-109958731D02*
X160725203Y-109911112D01*
X160725203Y-109911112D02*
X160725203Y-109863493D01*
X160725203Y-109863493D02*
X160749013Y-109815874D01*
X160749013Y-109815874D02*
X160772822Y-109792065D01*
X160772822Y-109792065D02*
X160820441Y-109768255D01*
X160820441Y-109768255D02*
X160915679Y-109744446D01*
X160915679Y-109744446D02*
X161034727Y-109744446D01*
X161034727Y-109744446D02*
X161129965Y-109768255D01*
X161129965Y-109768255D02*
X161177584Y-109792065D01*
X161177584Y-109792065D02*
X161201393Y-109815874D01*
X161201393Y-109815874D02*
X161225203Y-109863493D01*
X160725203Y-110506350D02*
X160725203Y-110220636D01*
X160725203Y-110363493D02*
X161225203Y-110363493D01*
X161225203Y-110363493D02*
X161153774Y-110315874D01*
X161153774Y-110315874D02*
X161106155Y-110268255D01*
X161106155Y-110268255D02*
X161082346Y-110220636D01*
X168435108Y-108553970D02*
X168935108Y-108553970D01*
X168935108Y-108553970D02*
X168935108Y-108744446D01*
X168935108Y-108744446D02*
X168911298Y-108792065D01*
X168911298Y-108792065D02*
X168887489Y-108815875D01*
X168887489Y-108815875D02*
X168839870Y-108839684D01*
X168839870Y-108839684D02*
X168768441Y-108839684D01*
X168768441Y-108839684D02*
X168720822Y-108815875D01*
X168720822Y-108815875D02*
X168697013Y-108792065D01*
X168697013Y-108792065D02*
X168673203Y-108744446D01*
X168673203Y-108744446D02*
X168673203Y-108553970D01*
X168935108Y-109149208D02*
X168935108Y-109196827D01*
X168935108Y-109196827D02*
X168911298Y-109244446D01*
X168911298Y-109244446D02*
X168887489Y-109268256D01*
X168887489Y-109268256D02*
X168839870Y-109292065D01*
X168839870Y-109292065D02*
X168744632Y-109315875D01*
X168744632Y-109315875D02*
X168625584Y-109315875D01*
X168625584Y-109315875D02*
X168530346Y-109292065D01*
X168530346Y-109292065D02*
X168482727Y-109268256D01*
X168482727Y-109268256D02*
X168458918Y-109244446D01*
X168458918Y-109244446D02*
X168435108Y-109196827D01*
X168435108Y-109196827D02*
X168435108Y-109149208D01*
X168435108Y-109149208D02*
X168458918Y-109101589D01*
X168458918Y-109101589D02*
X168482727Y-109077780D01*
X168482727Y-109077780D02*
X168530346Y-109053970D01*
X168530346Y-109053970D02*
X168625584Y-109030161D01*
X168625584Y-109030161D02*
X168744632Y-109030161D01*
X168744632Y-109030161D02*
X168839870Y-109053970D01*
X168839870Y-109053970D02*
X168887489Y-109077780D01*
X168887489Y-109077780D02*
X168911298Y-109101589D01*
X168911298Y-109101589D02*
X168935108Y-109149208D01*
X168482727Y-109530160D02*
X168458918Y-109553970D01*
X168458918Y-109553970D02*
X168435108Y-109530160D01*
X168435108Y-109530160D02*
X168458918Y-109506351D01*
X168458918Y-109506351D02*
X168482727Y-109530160D01*
X168482727Y-109530160D02*
X168435108Y-109530160D01*
X168435108Y-110030160D02*
X168435108Y-109744446D01*
X168435108Y-109887303D02*
X168935108Y-109887303D01*
X168935108Y-109887303D02*
X168863679Y-109839684D01*
X168863679Y-109839684D02*
X168816060Y-109792065D01*
X168816060Y-109792065D02*
X168792251Y-109744446D01*
X168935108Y-110339683D02*
X168935108Y-110387302D01*
X168935108Y-110387302D02*
X168911298Y-110434921D01*
X168911298Y-110434921D02*
X168887489Y-110458731D01*
X168887489Y-110458731D02*
X168839870Y-110482540D01*
X168839870Y-110482540D02*
X168744632Y-110506350D01*
X168744632Y-110506350D02*
X168625584Y-110506350D01*
X168625584Y-110506350D02*
X168530346Y-110482540D01*
X168530346Y-110482540D02*
X168482727Y-110458731D01*
X168482727Y-110458731D02*
X168458918Y-110434921D01*
X168458918Y-110434921D02*
X168435108Y-110387302D01*
X168435108Y-110387302D02*
X168435108Y-110339683D01*
X168435108Y-110339683D02*
X168458918Y-110292064D01*
X168458918Y-110292064D02*
X168482727Y-110268255D01*
X168482727Y-110268255D02*
X168530346Y-110244445D01*
X168530346Y-110244445D02*
X168625584Y-110220636D01*
X168625584Y-110220636D02*
X168744632Y-110220636D01*
X168744632Y-110220636D02*
X168839870Y-110244445D01*
X168839870Y-110244445D02*
X168887489Y-110268255D01*
X168887489Y-110268255D02*
X168911298Y-110292064D01*
X168911298Y-110292064D02*
X168935108Y-110339683D01*
X154217347Y-106081815D02*
X154217347Y-106581815D01*
X154217347Y-106581815D02*
X154098299Y-106581815D01*
X154098299Y-106581815D02*
X154026871Y-106558005D01*
X154026871Y-106558005D02*
X153979252Y-106510386D01*
X153979252Y-106510386D02*
X153955442Y-106462767D01*
X153955442Y-106462767D02*
X153931633Y-106367529D01*
X153931633Y-106367529D02*
X153931633Y-106296101D01*
X153931633Y-106296101D02*
X153955442Y-106200863D01*
X153955442Y-106200863D02*
X153979252Y-106153244D01*
X153979252Y-106153244D02*
X154026871Y-106105625D01*
X154026871Y-106105625D02*
X154098299Y-106081815D01*
X154098299Y-106081815D02*
X154217347Y-106081815D01*
X153717347Y-106272291D02*
X153336395Y-106272291D01*
X153526871Y-106081815D02*
X153526871Y-106462767D01*
X164006210Y-102106090D02*
X164506210Y-102106090D01*
X164506210Y-102106090D02*
X164506210Y-102296566D01*
X164506210Y-102296566D02*
X164482400Y-102344185D01*
X164482400Y-102344185D02*
X164458591Y-102367995D01*
X164458591Y-102367995D02*
X164410972Y-102391804D01*
X164410972Y-102391804D02*
X164339543Y-102391804D01*
X164339543Y-102391804D02*
X164291924Y-102367995D01*
X164291924Y-102367995D02*
X164268115Y-102344185D01*
X164268115Y-102344185D02*
X164244305Y-102296566D01*
X164244305Y-102296566D02*
X164244305Y-102106090D01*
X164506210Y-102701328D02*
X164506210Y-102748947D01*
X164506210Y-102748947D02*
X164482400Y-102796566D01*
X164482400Y-102796566D02*
X164458591Y-102820376D01*
X164458591Y-102820376D02*
X164410972Y-102844185D01*
X164410972Y-102844185D02*
X164315734Y-102867995D01*
X164315734Y-102867995D02*
X164196686Y-102867995D01*
X164196686Y-102867995D02*
X164101448Y-102844185D01*
X164101448Y-102844185D02*
X164053829Y-102820376D01*
X164053829Y-102820376D02*
X164030020Y-102796566D01*
X164030020Y-102796566D02*
X164006210Y-102748947D01*
X164006210Y-102748947D02*
X164006210Y-102701328D01*
X164006210Y-102701328D02*
X164030020Y-102653709D01*
X164030020Y-102653709D02*
X164053829Y-102629900D01*
X164053829Y-102629900D02*
X164101448Y-102606090D01*
X164101448Y-102606090D02*
X164196686Y-102582281D01*
X164196686Y-102582281D02*
X164315734Y-102582281D01*
X164315734Y-102582281D02*
X164410972Y-102606090D01*
X164410972Y-102606090D02*
X164458591Y-102629900D01*
X164458591Y-102629900D02*
X164482400Y-102653709D01*
X164482400Y-102653709D02*
X164506210Y-102701328D01*
X164053829Y-103082280D02*
X164030020Y-103106090D01*
X164030020Y-103106090D02*
X164006210Y-103082280D01*
X164006210Y-103082280D02*
X164030020Y-103058471D01*
X164030020Y-103058471D02*
X164053829Y-103082280D01*
X164053829Y-103082280D02*
X164006210Y-103082280D01*
X164458591Y-103296566D02*
X164482400Y-103320375D01*
X164482400Y-103320375D02*
X164506210Y-103367994D01*
X164506210Y-103367994D02*
X164506210Y-103487042D01*
X164506210Y-103487042D02*
X164482400Y-103534661D01*
X164482400Y-103534661D02*
X164458591Y-103558470D01*
X164458591Y-103558470D02*
X164410972Y-103582280D01*
X164410972Y-103582280D02*
X164363353Y-103582280D01*
X164363353Y-103582280D02*
X164291924Y-103558470D01*
X164291924Y-103558470D02*
X164006210Y-103272756D01*
X164006210Y-103272756D02*
X164006210Y-103582280D01*
X164506210Y-103891803D02*
X164506210Y-103939422D01*
X164506210Y-103939422D02*
X164482400Y-103987041D01*
X164482400Y-103987041D02*
X164458591Y-104010851D01*
X164458591Y-104010851D02*
X164410972Y-104034660D01*
X164410972Y-104034660D02*
X164315734Y-104058470D01*
X164315734Y-104058470D02*
X164196686Y-104058470D01*
X164196686Y-104058470D02*
X164101448Y-104034660D01*
X164101448Y-104034660D02*
X164053829Y-104010851D01*
X164053829Y-104010851D02*
X164030020Y-103987041D01*
X164030020Y-103987041D02*
X164006210Y-103939422D01*
X164006210Y-103939422D02*
X164006210Y-103891803D01*
X164006210Y-103891803D02*
X164030020Y-103844184D01*
X164030020Y-103844184D02*
X164053829Y-103820375D01*
X164053829Y-103820375D02*
X164101448Y-103796565D01*
X164101448Y-103796565D02*
X164196686Y-103772756D01*
X164196686Y-103772756D02*
X164315734Y-103772756D01*
X164315734Y-103772756D02*
X164410972Y-103796565D01*
X164410972Y-103796565D02*
X164458591Y-103820375D01*
X164458591Y-103820375D02*
X164482400Y-103844184D01*
X164482400Y-103844184D02*
X164506210Y-103891803D01*
X162912460Y-97509643D02*
X163412460Y-97509643D01*
X163412460Y-97509643D02*
X163412460Y-97700119D01*
X163412460Y-97700119D02*
X163388650Y-97747738D01*
X163388650Y-97747738D02*
X163364841Y-97771548D01*
X163364841Y-97771548D02*
X163317222Y-97795357D01*
X163317222Y-97795357D02*
X163245793Y-97795357D01*
X163245793Y-97795357D02*
X163198174Y-97771548D01*
X163198174Y-97771548D02*
X163174365Y-97747738D01*
X163174365Y-97747738D02*
X163150555Y-97700119D01*
X163150555Y-97700119D02*
X163150555Y-97509643D01*
X162912460Y-98271548D02*
X162912460Y-97985834D01*
X162912460Y-98128691D02*
X163412460Y-98128691D01*
X163412460Y-98128691D02*
X163341031Y-98081072D01*
X163341031Y-98081072D02*
X163293412Y-98033453D01*
X163293412Y-98033453D02*
X163269603Y-97985834D01*
X162960079Y-98485833D02*
X162936270Y-98509643D01*
X162936270Y-98509643D02*
X162912460Y-98485833D01*
X162912460Y-98485833D02*
X162936270Y-98462024D01*
X162936270Y-98462024D02*
X162960079Y-98485833D01*
X162960079Y-98485833D02*
X162912460Y-98485833D01*
X163412460Y-98819166D02*
X163412460Y-98866785D01*
X163412460Y-98866785D02*
X163388650Y-98914404D01*
X163388650Y-98914404D02*
X163364841Y-98938214D01*
X163364841Y-98938214D02*
X163317222Y-98962023D01*
X163317222Y-98962023D02*
X163221984Y-98985833D01*
X163221984Y-98985833D02*
X163102936Y-98985833D01*
X163102936Y-98985833D02*
X163007698Y-98962023D01*
X163007698Y-98962023D02*
X162960079Y-98938214D01*
X162960079Y-98938214D02*
X162936270Y-98914404D01*
X162936270Y-98914404D02*
X162912460Y-98866785D01*
X162912460Y-98866785D02*
X162912460Y-98819166D01*
X162912460Y-98819166D02*
X162936270Y-98771547D01*
X162936270Y-98771547D02*
X162960079Y-98747738D01*
X162960079Y-98747738D02*
X163007698Y-98723928D01*
X163007698Y-98723928D02*
X163102936Y-98700119D01*
X163102936Y-98700119D02*
X163221984Y-98700119D01*
X163221984Y-98700119D02*
X163317222Y-98723928D01*
X163317222Y-98723928D02*
X163364841Y-98747738D01*
X163364841Y-98747738D02*
X163388650Y-98771547D01*
X163388650Y-98771547D02*
X163412460Y-98819166D01*
X163198174Y-99271547D02*
X163221984Y-99223928D01*
X163221984Y-99223928D02*
X163245793Y-99200118D01*
X163245793Y-99200118D02*
X163293412Y-99176309D01*
X163293412Y-99176309D02*
X163317222Y-99176309D01*
X163317222Y-99176309D02*
X163364841Y-99200118D01*
X163364841Y-99200118D02*
X163388650Y-99223928D01*
X163388650Y-99223928D02*
X163412460Y-99271547D01*
X163412460Y-99271547D02*
X163412460Y-99366785D01*
X163412460Y-99366785D02*
X163388650Y-99414404D01*
X163388650Y-99414404D02*
X163364841Y-99438213D01*
X163364841Y-99438213D02*
X163317222Y-99462023D01*
X163317222Y-99462023D02*
X163293412Y-99462023D01*
X163293412Y-99462023D02*
X163245793Y-99438213D01*
X163245793Y-99438213D02*
X163221984Y-99414404D01*
X163221984Y-99414404D02*
X163198174Y-99366785D01*
X163198174Y-99366785D02*
X163198174Y-99271547D01*
X163198174Y-99271547D02*
X163174365Y-99223928D01*
X163174365Y-99223928D02*
X163150555Y-99200118D01*
X163150555Y-99200118D02*
X163102936Y-99176309D01*
X163102936Y-99176309D02*
X163007698Y-99176309D01*
X163007698Y-99176309D02*
X162960079Y-99200118D01*
X162960079Y-99200118D02*
X162936270Y-99223928D01*
X162936270Y-99223928D02*
X162912460Y-99271547D01*
X162912460Y-99271547D02*
X162912460Y-99366785D01*
X162912460Y-99366785D02*
X162936270Y-99414404D01*
X162936270Y-99414404D02*
X162960079Y-99438213D01*
X162960079Y-99438213D02*
X163007698Y-99462023D01*
X163007698Y-99462023D02*
X163102936Y-99462023D01*
X163102936Y-99462023D02*
X163150555Y-99438213D01*
X163150555Y-99438213D02*
X163174365Y-99414404D01*
X163174365Y-99414404D02*
X163198174Y-99366785D01*
X156345542Y-91247095D02*
X156845542Y-91247095D01*
X156845542Y-91247095D02*
X156845542Y-91437571D01*
X156845542Y-91437571D02*
X156821732Y-91485190D01*
X156821732Y-91485190D02*
X156797923Y-91509000D01*
X156797923Y-91509000D02*
X156750304Y-91532809D01*
X156750304Y-91532809D02*
X156678875Y-91532809D01*
X156678875Y-91532809D02*
X156631256Y-91509000D01*
X156631256Y-91509000D02*
X156607447Y-91485190D01*
X156607447Y-91485190D02*
X156583637Y-91437571D01*
X156583637Y-91437571D02*
X156583637Y-91247095D01*
X156845542Y-91842333D02*
X156845542Y-91889952D01*
X156845542Y-91889952D02*
X156821732Y-91937571D01*
X156821732Y-91937571D02*
X156797923Y-91961381D01*
X156797923Y-91961381D02*
X156750304Y-91985190D01*
X156750304Y-91985190D02*
X156655066Y-92009000D01*
X156655066Y-92009000D02*
X156536018Y-92009000D01*
X156536018Y-92009000D02*
X156440780Y-91985190D01*
X156440780Y-91985190D02*
X156393161Y-91961381D01*
X156393161Y-91961381D02*
X156369352Y-91937571D01*
X156369352Y-91937571D02*
X156345542Y-91889952D01*
X156345542Y-91889952D02*
X156345542Y-91842333D01*
X156345542Y-91842333D02*
X156369352Y-91794714D01*
X156369352Y-91794714D02*
X156393161Y-91770905D01*
X156393161Y-91770905D02*
X156440780Y-91747095D01*
X156440780Y-91747095D02*
X156536018Y-91723286D01*
X156536018Y-91723286D02*
X156655066Y-91723286D01*
X156655066Y-91723286D02*
X156750304Y-91747095D01*
X156750304Y-91747095D02*
X156797923Y-91770905D01*
X156797923Y-91770905D02*
X156821732Y-91794714D01*
X156821732Y-91794714D02*
X156845542Y-91842333D01*
X156393161Y-92223285D02*
X156369352Y-92247095D01*
X156369352Y-92247095D02*
X156345542Y-92223285D01*
X156345542Y-92223285D02*
X156369352Y-92199476D01*
X156369352Y-92199476D02*
X156393161Y-92223285D01*
X156393161Y-92223285D02*
X156345542Y-92223285D01*
X156845542Y-92556618D02*
X156845542Y-92604237D01*
X156845542Y-92604237D02*
X156821732Y-92651856D01*
X156821732Y-92651856D02*
X156797923Y-92675666D01*
X156797923Y-92675666D02*
X156750304Y-92699475D01*
X156750304Y-92699475D02*
X156655066Y-92723285D01*
X156655066Y-92723285D02*
X156536018Y-92723285D01*
X156536018Y-92723285D02*
X156440780Y-92699475D01*
X156440780Y-92699475D02*
X156393161Y-92675666D01*
X156393161Y-92675666D02*
X156369352Y-92651856D01*
X156369352Y-92651856D02*
X156345542Y-92604237D01*
X156345542Y-92604237D02*
X156345542Y-92556618D01*
X156345542Y-92556618D02*
X156369352Y-92508999D01*
X156369352Y-92508999D02*
X156393161Y-92485190D01*
X156393161Y-92485190D02*
X156440780Y-92461380D01*
X156440780Y-92461380D02*
X156536018Y-92437571D01*
X156536018Y-92437571D02*
X156655066Y-92437571D01*
X156655066Y-92437571D02*
X156750304Y-92461380D01*
X156750304Y-92461380D02*
X156797923Y-92485190D01*
X156797923Y-92485190D02*
X156821732Y-92508999D01*
X156821732Y-92508999D02*
X156845542Y-92556618D01*
X156845542Y-93175665D02*
X156845542Y-92937570D01*
X156845542Y-92937570D02*
X156607447Y-92913761D01*
X156607447Y-92913761D02*
X156631256Y-92937570D01*
X156631256Y-92937570D02*
X156655066Y-92985189D01*
X156655066Y-92985189D02*
X156655066Y-93104237D01*
X156655066Y-93104237D02*
X156631256Y-93151856D01*
X156631256Y-93151856D02*
X156607447Y-93175665D01*
X156607447Y-93175665D02*
X156559828Y-93199475D01*
X156559828Y-93199475D02*
X156440780Y-93199475D01*
X156440780Y-93199475D02*
X156393161Y-93175665D01*
X156393161Y-93175665D02*
X156369352Y-93151856D01*
X156369352Y-93151856D02*
X156345542Y-93104237D01*
X156345542Y-93104237D02*
X156345542Y-92985189D01*
X156345542Y-92985189D02*
X156369352Y-92937570D01*
X156369352Y-92937570D02*
X156393161Y-92913761D01*
X166238779Y-91247095D02*
X166738779Y-91247095D01*
X166738779Y-91247095D02*
X166738779Y-91437571D01*
X166738779Y-91437571D02*
X166714969Y-91485190D01*
X166714969Y-91485190D02*
X166691160Y-91509000D01*
X166691160Y-91509000D02*
X166643541Y-91532809D01*
X166643541Y-91532809D02*
X166572112Y-91532809D01*
X166572112Y-91532809D02*
X166524493Y-91509000D01*
X166524493Y-91509000D02*
X166500684Y-91485190D01*
X166500684Y-91485190D02*
X166476874Y-91437571D01*
X166476874Y-91437571D02*
X166476874Y-91247095D01*
X166238779Y-92009000D02*
X166238779Y-91723286D01*
X166238779Y-91866143D02*
X166738779Y-91866143D01*
X166738779Y-91866143D02*
X166667350Y-91818524D01*
X166667350Y-91818524D02*
X166619731Y-91770905D01*
X166619731Y-91770905D02*
X166595922Y-91723286D01*
X166286398Y-92223285D02*
X166262589Y-92247095D01*
X166262589Y-92247095D02*
X166238779Y-92223285D01*
X166238779Y-92223285D02*
X166262589Y-92199476D01*
X166262589Y-92199476D02*
X166286398Y-92223285D01*
X166286398Y-92223285D02*
X166238779Y-92223285D01*
X166238779Y-92723285D02*
X166238779Y-92437571D01*
X166238779Y-92580428D02*
X166738779Y-92580428D01*
X166738779Y-92580428D02*
X166667350Y-92532809D01*
X166667350Y-92532809D02*
X166619731Y-92485190D01*
X166619731Y-92485190D02*
X166595922Y-92437571D01*
X166738779Y-92889951D02*
X166738779Y-93199475D01*
X166738779Y-93199475D02*
X166548303Y-93032808D01*
X166548303Y-93032808D02*
X166548303Y-93104237D01*
X166548303Y-93104237D02*
X166524493Y-93151856D01*
X166524493Y-93151856D02*
X166500684Y-93175665D01*
X166500684Y-93175665D02*
X166453065Y-93199475D01*
X166453065Y-93199475D02*
X166334017Y-93199475D01*
X166334017Y-93199475D02*
X166286398Y-93175665D01*
X166286398Y-93175665D02*
X166262589Y-93151856D01*
X166262589Y-93151856D02*
X166238779Y-93104237D01*
X166238779Y-93104237D02*
X166238779Y-92961380D01*
X166238779Y-92961380D02*
X166262589Y-92913761D01*
X166262589Y-92913761D02*
X166286398Y-92889951D01*
X170012713Y-108815875D02*
X170036523Y-108768256D01*
X170036523Y-108768256D02*
X170036523Y-108696827D01*
X170036523Y-108696827D02*
X170012713Y-108625399D01*
X170012713Y-108625399D02*
X169965094Y-108577780D01*
X169965094Y-108577780D02*
X169917475Y-108553970D01*
X169917475Y-108553970D02*
X169822237Y-108530161D01*
X169822237Y-108530161D02*
X169750809Y-108530161D01*
X169750809Y-108530161D02*
X169655571Y-108553970D01*
X169655571Y-108553970D02*
X169607952Y-108577780D01*
X169607952Y-108577780D02*
X169560333Y-108625399D01*
X169560333Y-108625399D02*
X169536523Y-108696827D01*
X169536523Y-108696827D02*
X169536523Y-108744446D01*
X169536523Y-108744446D02*
X169560333Y-108815875D01*
X169560333Y-108815875D02*
X169584142Y-108839684D01*
X169584142Y-108839684D02*
X169750809Y-108839684D01*
X169750809Y-108839684D02*
X169750809Y-108744446D01*
X169536523Y-109053970D02*
X170036523Y-109053970D01*
X170036523Y-109053970D02*
X169536523Y-109339684D01*
X169536523Y-109339684D02*
X170036523Y-109339684D01*
X169536523Y-109577780D02*
X170036523Y-109577780D01*
X170036523Y-109577780D02*
X170036523Y-109696828D01*
X170036523Y-109696828D02*
X170012713Y-109768256D01*
X170012713Y-109768256D02*
X169965094Y-109815875D01*
X169965094Y-109815875D02*
X169917475Y-109839685D01*
X169917475Y-109839685D02*
X169822237Y-109863494D01*
X169822237Y-109863494D02*
X169750809Y-109863494D01*
X169750809Y-109863494D02*
X169655571Y-109839685D01*
X169655571Y-109839685D02*
X169607952Y-109815875D01*
X169607952Y-109815875D02*
X169560333Y-109768256D01*
X169560333Y-109768256D02*
X169536523Y-109696828D01*
X169536523Y-109696828D02*
X169536523Y-109577780D01*
X165099960Y-97509643D02*
X165599960Y-97509643D01*
X165599960Y-97509643D02*
X165599960Y-97700119D01*
X165599960Y-97700119D02*
X165576150Y-97747738D01*
X165576150Y-97747738D02*
X165552341Y-97771548D01*
X165552341Y-97771548D02*
X165504722Y-97795357D01*
X165504722Y-97795357D02*
X165433293Y-97795357D01*
X165433293Y-97795357D02*
X165385674Y-97771548D01*
X165385674Y-97771548D02*
X165361865Y-97747738D01*
X165361865Y-97747738D02*
X165338055Y-97700119D01*
X165338055Y-97700119D02*
X165338055Y-97509643D01*
X165599960Y-98104881D02*
X165599960Y-98152500D01*
X165599960Y-98152500D02*
X165576150Y-98200119D01*
X165576150Y-98200119D02*
X165552341Y-98223929D01*
X165552341Y-98223929D02*
X165504722Y-98247738D01*
X165504722Y-98247738D02*
X165409484Y-98271548D01*
X165409484Y-98271548D02*
X165290436Y-98271548D01*
X165290436Y-98271548D02*
X165195198Y-98247738D01*
X165195198Y-98247738D02*
X165147579Y-98223929D01*
X165147579Y-98223929D02*
X165123770Y-98200119D01*
X165123770Y-98200119D02*
X165099960Y-98152500D01*
X165099960Y-98152500D02*
X165099960Y-98104881D01*
X165099960Y-98104881D02*
X165123770Y-98057262D01*
X165123770Y-98057262D02*
X165147579Y-98033453D01*
X165147579Y-98033453D02*
X165195198Y-98009643D01*
X165195198Y-98009643D02*
X165290436Y-97985834D01*
X165290436Y-97985834D02*
X165409484Y-97985834D01*
X165409484Y-97985834D02*
X165504722Y-98009643D01*
X165504722Y-98009643D02*
X165552341Y-98033453D01*
X165552341Y-98033453D02*
X165576150Y-98057262D01*
X165576150Y-98057262D02*
X165599960Y-98104881D01*
X165147579Y-98485833D02*
X165123770Y-98509643D01*
X165123770Y-98509643D02*
X165099960Y-98485833D01*
X165099960Y-98485833D02*
X165123770Y-98462024D01*
X165123770Y-98462024D02*
X165147579Y-98485833D01*
X165147579Y-98485833D02*
X165099960Y-98485833D01*
X165552341Y-98700119D02*
X165576150Y-98723928D01*
X165576150Y-98723928D02*
X165599960Y-98771547D01*
X165599960Y-98771547D02*
X165599960Y-98890595D01*
X165599960Y-98890595D02*
X165576150Y-98938214D01*
X165576150Y-98938214D02*
X165552341Y-98962023D01*
X165552341Y-98962023D02*
X165504722Y-98985833D01*
X165504722Y-98985833D02*
X165457103Y-98985833D01*
X165457103Y-98985833D02*
X165385674Y-98962023D01*
X165385674Y-98962023D02*
X165099960Y-98676309D01*
X165099960Y-98676309D02*
X165099960Y-98985833D01*
X165599960Y-99438213D02*
X165599960Y-99200118D01*
X165599960Y-99200118D02*
X165361865Y-99176309D01*
X165361865Y-99176309D02*
X165385674Y-99200118D01*
X165385674Y-99200118D02*
X165409484Y-99247737D01*
X165409484Y-99247737D02*
X165409484Y-99366785D01*
X165409484Y-99366785D02*
X165385674Y-99414404D01*
X165385674Y-99414404D02*
X165361865Y-99438213D01*
X165361865Y-99438213D02*
X165314246Y-99462023D01*
X165314246Y-99462023D02*
X165195198Y-99462023D01*
X165195198Y-99462023D02*
X165147579Y-99438213D01*
X165147579Y-99438213D02*
X165123770Y-99414404D01*
X165123770Y-99414404D02*
X165099960Y-99366785D01*
X165099960Y-99366785D02*
X165099960Y-99247737D01*
X165099960Y-99247737D02*
X165123770Y-99200118D01*
X165123770Y-99200118D02*
X165147579Y-99176309D01*
X154217347Y-102782094D02*
X154217347Y-103282094D01*
X154217347Y-103282094D02*
X154026871Y-103282094D01*
X154026871Y-103282094D02*
X153979252Y-103258284D01*
X153979252Y-103258284D02*
X153955442Y-103234475D01*
X153955442Y-103234475D02*
X153931633Y-103186856D01*
X153931633Y-103186856D02*
X153931633Y-103115427D01*
X153931633Y-103115427D02*
X153955442Y-103067808D01*
X153955442Y-103067808D02*
X153979252Y-103043999D01*
X153979252Y-103043999D02*
X154026871Y-103020189D01*
X154026871Y-103020189D02*
X154217347Y-103020189D01*
X153622109Y-103282094D02*
X153574490Y-103282094D01*
X153574490Y-103282094D02*
X153526871Y-103258284D01*
X153526871Y-103258284D02*
X153503061Y-103234475D01*
X153503061Y-103234475D02*
X153479252Y-103186856D01*
X153479252Y-103186856D02*
X153455442Y-103091618D01*
X153455442Y-103091618D02*
X153455442Y-102972570D01*
X153455442Y-102972570D02*
X153479252Y-102877332D01*
X153479252Y-102877332D02*
X153503061Y-102829713D01*
X153503061Y-102829713D02*
X153526871Y-102805904D01*
X153526871Y-102805904D02*
X153574490Y-102782094D01*
X153574490Y-102782094D02*
X153622109Y-102782094D01*
X153622109Y-102782094D02*
X153669728Y-102805904D01*
X153669728Y-102805904D02*
X153693537Y-102829713D01*
X153693537Y-102829713D02*
X153717347Y-102877332D01*
X153717347Y-102877332D02*
X153741156Y-102972570D01*
X153741156Y-102972570D02*
X153741156Y-103091618D01*
X153741156Y-103091618D02*
X153717347Y-103186856D01*
X153717347Y-103186856D02*
X153693537Y-103234475D01*
X153693537Y-103234475D02*
X153669728Y-103258284D01*
X153669728Y-103258284D02*
X153622109Y-103282094D01*
X153241157Y-102829713D02*
X153217347Y-102805904D01*
X153217347Y-102805904D02*
X153241157Y-102782094D01*
X153241157Y-102782094D02*
X153264966Y-102805904D01*
X153264966Y-102805904D02*
X153241157Y-102829713D01*
X153241157Y-102829713D02*
X153241157Y-102782094D01*
X152741157Y-102782094D02*
X153026871Y-102782094D01*
X152884014Y-102782094D02*
X152884014Y-103282094D01*
X152884014Y-103282094D02*
X152931633Y-103210665D01*
X152931633Y-103210665D02*
X152979252Y-103163046D01*
X152979252Y-103163046D02*
X153026871Y-103139237D01*
X152455443Y-103067808D02*
X152503062Y-103091618D01*
X152503062Y-103091618D02*
X152526872Y-103115427D01*
X152526872Y-103115427D02*
X152550681Y-103163046D01*
X152550681Y-103163046D02*
X152550681Y-103186856D01*
X152550681Y-103186856D02*
X152526872Y-103234475D01*
X152526872Y-103234475D02*
X152503062Y-103258284D01*
X152503062Y-103258284D02*
X152455443Y-103282094D01*
X152455443Y-103282094D02*
X152360205Y-103282094D01*
X152360205Y-103282094D02*
X152312586Y-103258284D01*
X152312586Y-103258284D02*
X152288777Y-103234475D01*
X152288777Y-103234475D02*
X152264967Y-103186856D01*
X152264967Y-103186856D02*
X152264967Y-103163046D01*
X152264967Y-103163046D02*
X152288777Y-103115427D01*
X152288777Y-103115427D02*
X152312586Y-103091618D01*
X152312586Y-103091618D02*
X152360205Y-103067808D01*
X152360205Y-103067808D02*
X152455443Y-103067808D01*
X152455443Y-103067808D02*
X152503062Y-103043999D01*
X152503062Y-103043999D02*
X152526872Y-103020189D01*
X152526872Y-103020189D02*
X152550681Y-102972570D01*
X152550681Y-102972570D02*
X152550681Y-102877332D01*
X152550681Y-102877332D02*
X152526872Y-102829713D01*
X152526872Y-102829713D02*
X152503062Y-102805904D01*
X152503062Y-102805904D02*
X152455443Y-102782094D01*
X152455443Y-102782094D02*
X152360205Y-102782094D01*
X152360205Y-102782094D02*
X152312586Y-102805904D01*
X152312586Y-102805904D02*
X152288777Y-102829713D01*
X152288777Y-102829713D02*
X152264967Y-102877332D01*
X152264967Y-102877332D02*
X152264967Y-102972570D01*
X152264967Y-102972570D02*
X152288777Y-103020189D01*
X152288777Y-103020189D02*
X152312586Y-103043999D01*
X152312586Y-103043999D02*
X152360205Y-103067808D01*
X151693539Y-103305904D02*
X152122110Y-102663046D01*
X151526872Y-103115427D02*
X151526872Y-102782094D01*
X151526872Y-103067808D02*
X151503062Y-103091618D01*
X151503062Y-103091618D02*
X151455443Y-103115427D01*
X151455443Y-103115427D02*
X151384015Y-103115427D01*
X151384015Y-103115427D02*
X151336396Y-103091618D01*
X151336396Y-103091618D02*
X151312586Y-103043999D01*
X151312586Y-103043999D02*
X151312586Y-102782094D01*
X150788777Y-102782094D02*
X150955443Y-103020189D01*
X151074491Y-102782094D02*
X151074491Y-103282094D01*
X151074491Y-103282094D02*
X150884015Y-103282094D01*
X150884015Y-103282094D02*
X150836396Y-103258284D01*
X150836396Y-103258284D02*
X150812586Y-103234475D01*
X150812586Y-103234475D02*
X150788777Y-103186856D01*
X150788777Y-103186856D02*
X150788777Y-103115427D01*
X150788777Y-103115427D02*
X150812586Y-103067808D01*
X150812586Y-103067808D02*
X150836396Y-103043999D01*
X150836396Y-103043999D02*
X150884015Y-103020189D01*
X150884015Y-103020189D02*
X151074491Y-103020189D01*
X150574491Y-103043999D02*
X150407824Y-103043999D01*
X150336396Y-102782094D02*
X150574491Y-102782094D01*
X150574491Y-102782094D02*
X150574491Y-103282094D01*
X150574491Y-103282094D02*
X150336396Y-103282094D01*
X150145919Y-102805904D02*
X150074491Y-102782094D01*
X150074491Y-102782094D02*
X149955443Y-102782094D01*
X149955443Y-102782094D02*
X149907824Y-102805904D01*
X149907824Y-102805904D02*
X149884015Y-102829713D01*
X149884015Y-102829713D02*
X149860205Y-102877332D01*
X149860205Y-102877332D02*
X149860205Y-102924951D01*
X149860205Y-102924951D02*
X149884015Y-102972570D01*
X149884015Y-102972570D02*
X149907824Y-102996380D01*
X149907824Y-102996380D02*
X149955443Y-103020189D01*
X149955443Y-103020189D02*
X150050681Y-103043999D01*
X150050681Y-103043999D02*
X150098300Y-103067808D01*
X150098300Y-103067808D02*
X150122110Y-103091618D01*
X150122110Y-103091618D02*
X150145919Y-103139237D01*
X150145919Y-103139237D02*
X150145919Y-103186856D01*
X150145919Y-103186856D02*
X150122110Y-103234475D01*
X150122110Y-103234475D02*
X150098300Y-103258284D01*
X150098300Y-103258284D02*
X150050681Y-103282094D01*
X150050681Y-103282094D02*
X149931634Y-103282094D01*
X149931634Y-103282094D02*
X149860205Y-103258284D01*
X149645920Y-103043999D02*
X149479253Y-103043999D01*
X149407825Y-102782094D02*
X149645920Y-102782094D01*
X149645920Y-102782094D02*
X149645920Y-103282094D01*
X149645920Y-103282094D02*
X149407825Y-103282094D01*
X149264967Y-103282094D02*
X148979253Y-103282094D01*
X149122110Y-102782094D02*
X149122110Y-103282094D01*
X162951843Y-108530161D02*
X162928033Y-108601589D01*
X162928033Y-108601589D02*
X162928033Y-108720637D01*
X162928033Y-108720637D02*
X162951843Y-108768256D01*
X162951843Y-108768256D02*
X162975652Y-108792065D01*
X162975652Y-108792065D02*
X163023271Y-108815875D01*
X163023271Y-108815875D02*
X163070890Y-108815875D01*
X163070890Y-108815875D02*
X163118509Y-108792065D01*
X163118509Y-108792065D02*
X163142319Y-108768256D01*
X163142319Y-108768256D02*
X163166128Y-108720637D01*
X163166128Y-108720637D02*
X163189938Y-108625399D01*
X163189938Y-108625399D02*
X163213747Y-108577780D01*
X163213747Y-108577780D02*
X163237557Y-108553970D01*
X163237557Y-108553970D02*
X163285176Y-108530161D01*
X163285176Y-108530161D02*
X163332795Y-108530161D01*
X163332795Y-108530161D02*
X163380414Y-108553970D01*
X163380414Y-108553970D02*
X163404223Y-108577780D01*
X163404223Y-108577780D02*
X163428033Y-108625399D01*
X163428033Y-108625399D02*
X163428033Y-108744446D01*
X163428033Y-108744446D02*
X163404223Y-108815875D01*
X163428033Y-108982541D02*
X162928033Y-109101589D01*
X162928033Y-109101589D02*
X163285176Y-109196827D01*
X163285176Y-109196827D02*
X162928033Y-109292065D01*
X162928033Y-109292065D02*
X163428033Y-109411113D01*
X162928033Y-109601589D02*
X163428033Y-109601589D01*
X163428033Y-109601589D02*
X163428033Y-109720637D01*
X163428033Y-109720637D02*
X163404223Y-109792065D01*
X163404223Y-109792065D02*
X163356604Y-109839684D01*
X163356604Y-109839684D02*
X163308985Y-109863494D01*
X163308985Y-109863494D02*
X163213747Y-109887303D01*
X163213747Y-109887303D02*
X163142319Y-109887303D01*
X163142319Y-109887303D02*
X163047081Y-109863494D01*
X163047081Y-109863494D02*
X162999462Y-109839684D01*
X162999462Y-109839684D02*
X162951843Y-109792065D01*
X162951843Y-109792065D02*
X162928033Y-109720637D01*
X162928033Y-109720637D02*
X162928033Y-109601589D01*
X162975652Y-110387303D02*
X162951843Y-110363494D01*
X162951843Y-110363494D02*
X162928033Y-110292065D01*
X162928033Y-110292065D02*
X162928033Y-110244446D01*
X162928033Y-110244446D02*
X162951843Y-110173018D01*
X162951843Y-110173018D02*
X162999462Y-110125399D01*
X162999462Y-110125399D02*
X163047081Y-110101589D01*
X163047081Y-110101589D02*
X163142319Y-110077780D01*
X163142319Y-110077780D02*
X163213747Y-110077780D01*
X163213747Y-110077780D02*
X163308985Y-110101589D01*
X163308985Y-110101589D02*
X163356604Y-110125399D01*
X163356604Y-110125399D02*
X163404223Y-110173018D01*
X163404223Y-110173018D02*
X163428033Y-110244446D01*
X163428033Y-110244446D02*
X163428033Y-110292065D01*
X163428033Y-110292065D02*
X163404223Y-110363494D01*
X163404223Y-110363494D02*
X163380414Y-110387303D01*
X162928033Y-110839684D02*
X162928033Y-110601589D01*
X162928033Y-110601589D02*
X163428033Y-110601589D01*
X162928033Y-111006351D02*
X163428033Y-111006351D01*
X162928033Y-111292065D02*
X163213747Y-111077780D01*
X163428033Y-111292065D02*
X163142319Y-111006351D01*
X159631210Y-97509643D02*
X160131210Y-97509643D01*
X160131210Y-97509643D02*
X160131210Y-97700119D01*
X160131210Y-97700119D02*
X160107400Y-97747738D01*
X160107400Y-97747738D02*
X160083591Y-97771548D01*
X160083591Y-97771548D02*
X160035972Y-97795357D01*
X160035972Y-97795357D02*
X159964543Y-97795357D01*
X159964543Y-97795357D02*
X159916924Y-97771548D01*
X159916924Y-97771548D02*
X159893115Y-97747738D01*
X159893115Y-97747738D02*
X159869305Y-97700119D01*
X159869305Y-97700119D02*
X159869305Y-97509643D01*
X160131210Y-98104881D02*
X160131210Y-98152500D01*
X160131210Y-98152500D02*
X160107400Y-98200119D01*
X160107400Y-98200119D02*
X160083591Y-98223929D01*
X160083591Y-98223929D02*
X160035972Y-98247738D01*
X160035972Y-98247738D02*
X159940734Y-98271548D01*
X159940734Y-98271548D02*
X159821686Y-98271548D01*
X159821686Y-98271548D02*
X159726448Y-98247738D01*
X159726448Y-98247738D02*
X159678829Y-98223929D01*
X159678829Y-98223929D02*
X159655020Y-98200119D01*
X159655020Y-98200119D02*
X159631210Y-98152500D01*
X159631210Y-98152500D02*
X159631210Y-98104881D01*
X159631210Y-98104881D02*
X159655020Y-98057262D01*
X159655020Y-98057262D02*
X159678829Y-98033453D01*
X159678829Y-98033453D02*
X159726448Y-98009643D01*
X159726448Y-98009643D02*
X159821686Y-97985834D01*
X159821686Y-97985834D02*
X159940734Y-97985834D01*
X159940734Y-97985834D02*
X160035972Y-98009643D01*
X160035972Y-98009643D02*
X160083591Y-98033453D01*
X160083591Y-98033453D02*
X160107400Y-98057262D01*
X160107400Y-98057262D02*
X160131210Y-98104881D01*
X159678829Y-98485833D02*
X159655020Y-98509643D01*
X159655020Y-98509643D02*
X159631210Y-98485833D01*
X159631210Y-98485833D02*
X159655020Y-98462024D01*
X159655020Y-98462024D02*
X159678829Y-98485833D01*
X159678829Y-98485833D02*
X159631210Y-98485833D01*
X160131210Y-98819166D02*
X160131210Y-98866785D01*
X160131210Y-98866785D02*
X160107400Y-98914404D01*
X160107400Y-98914404D02*
X160083591Y-98938214D01*
X160083591Y-98938214D02*
X160035972Y-98962023D01*
X160035972Y-98962023D02*
X159940734Y-98985833D01*
X159940734Y-98985833D02*
X159821686Y-98985833D01*
X159821686Y-98985833D02*
X159726448Y-98962023D01*
X159726448Y-98962023D02*
X159678829Y-98938214D01*
X159678829Y-98938214D02*
X159655020Y-98914404D01*
X159655020Y-98914404D02*
X159631210Y-98866785D01*
X159631210Y-98866785D02*
X159631210Y-98819166D01*
X159631210Y-98819166D02*
X159655020Y-98771547D01*
X159655020Y-98771547D02*
X159678829Y-98747738D01*
X159678829Y-98747738D02*
X159726448Y-98723928D01*
X159726448Y-98723928D02*
X159821686Y-98700119D01*
X159821686Y-98700119D02*
X159940734Y-98700119D01*
X159940734Y-98700119D02*
X160035972Y-98723928D01*
X160035972Y-98723928D02*
X160083591Y-98747738D01*
X160083591Y-98747738D02*
X160107400Y-98771547D01*
X160107400Y-98771547D02*
X160131210Y-98819166D01*
X160131210Y-99414404D02*
X160131210Y-99319166D01*
X160131210Y-99319166D02*
X160107400Y-99271547D01*
X160107400Y-99271547D02*
X160083591Y-99247737D01*
X160083591Y-99247737D02*
X160012162Y-99200118D01*
X160012162Y-99200118D02*
X159916924Y-99176309D01*
X159916924Y-99176309D02*
X159726448Y-99176309D01*
X159726448Y-99176309D02*
X159678829Y-99200118D01*
X159678829Y-99200118D02*
X159655020Y-99223928D01*
X159655020Y-99223928D02*
X159631210Y-99271547D01*
X159631210Y-99271547D02*
X159631210Y-99366785D01*
X159631210Y-99366785D02*
X159655020Y-99414404D01*
X159655020Y-99414404D02*
X159678829Y-99438213D01*
X159678829Y-99438213D02*
X159726448Y-99462023D01*
X159726448Y-99462023D02*
X159845496Y-99462023D01*
X159845496Y-99462023D02*
X159893115Y-99438213D01*
X159893115Y-99438213D02*
X159916924Y-99414404D01*
X159916924Y-99414404D02*
X159940734Y-99366785D01*
X159940734Y-99366785D02*
X159940734Y-99271547D01*
X159940734Y-99271547D02*
X159916924Y-99223928D01*
X159916924Y-99223928D02*
X159893115Y-99200118D01*
X159893115Y-99200118D02*
X159845496Y-99176309D01*
X157420958Y-108553970D02*
X157920958Y-108553970D01*
X157920958Y-108553970D02*
X157920958Y-108744446D01*
X157920958Y-108744446D02*
X157897148Y-108792065D01*
X157897148Y-108792065D02*
X157873339Y-108815875D01*
X157873339Y-108815875D02*
X157825720Y-108839684D01*
X157825720Y-108839684D02*
X157754291Y-108839684D01*
X157754291Y-108839684D02*
X157706672Y-108815875D01*
X157706672Y-108815875D02*
X157682863Y-108792065D01*
X157682863Y-108792065D02*
X157659053Y-108744446D01*
X157659053Y-108744446D02*
X157659053Y-108553970D01*
X157920958Y-109149208D02*
X157920958Y-109196827D01*
X157920958Y-109196827D02*
X157897148Y-109244446D01*
X157897148Y-109244446D02*
X157873339Y-109268256D01*
X157873339Y-109268256D02*
X157825720Y-109292065D01*
X157825720Y-109292065D02*
X157730482Y-109315875D01*
X157730482Y-109315875D02*
X157611434Y-109315875D01*
X157611434Y-109315875D02*
X157516196Y-109292065D01*
X157516196Y-109292065D02*
X157468577Y-109268256D01*
X157468577Y-109268256D02*
X157444768Y-109244446D01*
X157444768Y-109244446D02*
X157420958Y-109196827D01*
X157420958Y-109196827D02*
X157420958Y-109149208D01*
X157420958Y-109149208D02*
X157444768Y-109101589D01*
X157444768Y-109101589D02*
X157468577Y-109077780D01*
X157468577Y-109077780D02*
X157516196Y-109053970D01*
X157516196Y-109053970D02*
X157611434Y-109030161D01*
X157611434Y-109030161D02*
X157730482Y-109030161D01*
X157730482Y-109030161D02*
X157825720Y-109053970D01*
X157825720Y-109053970D02*
X157873339Y-109077780D01*
X157873339Y-109077780D02*
X157897148Y-109101589D01*
X157897148Y-109101589D02*
X157920958Y-109149208D01*
X157468577Y-109530160D02*
X157444768Y-109553970D01*
X157444768Y-109553970D02*
X157420958Y-109530160D01*
X157420958Y-109530160D02*
X157444768Y-109506351D01*
X157444768Y-109506351D02*
X157468577Y-109530160D01*
X157468577Y-109530160D02*
X157420958Y-109530160D01*
X157873339Y-109744446D02*
X157897148Y-109768255D01*
X157897148Y-109768255D02*
X157920958Y-109815874D01*
X157920958Y-109815874D02*
X157920958Y-109934922D01*
X157920958Y-109934922D02*
X157897148Y-109982541D01*
X157897148Y-109982541D02*
X157873339Y-110006350D01*
X157873339Y-110006350D02*
X157825720Y-110030160D01*
X157825720Y-110030160D02*
X157778101Y-110030160D01*
X157778101Y-110030160D02*
X157706672Y-110006350D01*
X157706672Y-110006350D02*
X157420958Y-109720636D01*
X157420958Y-109720636D02*
X157420958Y-110030160D01*
X157873339Y-110220636D02*
X157897148Y-110244445D01*
X157897148Y-110244445D02*
X157920958Y-110292064D01*
X157920958Y-110292064D02*
X157920958Y-110411112D01*
X157920958Y-110411112D02*
X157897148Y-110458731D01*
X157897148Y-110458731D02*
X157873339Y-110482540D01*
X157873339Y-110482540D02*
X157825720Y-110506350D01*
X157825720Y-110506350D02*
X157778101Y-110506350D01*
X157778101Y-110506350D02*
X157706672Y-110482540D01*
X157706672Y-110482540D02*
X157420958Y-110196826D01*
X157420958Y-110196826D02*
X157420958Y-110506350D01*
X160724960Y-97509643D02*
X161224960Y-97509643D01*
X161224960Y-97509643D02*
X161224960Y-97700119D01*
X161224960Y-97700119D02*
X161201150Y-97747738D01*
X161201150Y-97747738D02*
X161177341Y-97771548D01*
X161177341Y-97771548D02*
X161129722Y-97795357D01*
X161129722Y-97795357D02*
X161058293Y-97795357D01*
X161058293Y-97795357D02*
X161010674Y-97771548D01*
X161010674Y-97771548D02*
X160986865Y-97747738D01*
X160986865Y-97747738D02*
X160963055Y-97700119D01*
X160963055Y-97700119D02*
X160963055Y-97509643D01*
X161224960Y-98104881D02*
X161224960Y-98152500D01*
X161224960Y-98152500D02*
X161201150Y-98200119D01*
X161201150Y-98200119D02*
X161177341Y-98223929D01*
X161177341Y-98223929D02*
X161129722Y-98247738D01*
X161129722Y-98247738D02*
X161034484Y-98271548D01*
X161034484Y-98271548D02*
X160915436Y-98271548D01*
X160915436Y-98271548D02*
X160820198Y-98247738D01*
X160820198Y-98247738D02*
X160772579Y-98223929D01*
X160772579Y-98223929D02*
X160748770Y-98200119D01*
X160748770Y-98200119D02*
X160724960Y-98152500D01*
X160724960Y-98152500D02*
X160724960Y-98104881D01*
X160724960Y-98104881D02*
X160748770Y-98057262D01*
X160748770Y-98057262D02*
X160772579Y-98033453D01*
X160772579Y-98033453D02*
X160820198Y-98009643D01*
X160820198Y-98009643D02*
X160915436Y-97985834D01*
X160915436Y-97985834D02*
X161034484Y-97985834D01*
X161034484Y-97985834D02*
X161129722Y-98009643D01*
X161129722Y-98009643D02*
X161177341Y-98033453D01*
X161177341Y-98033453D02*
X161201150Y-98057262D01*
X161201150Y-98057262D02*
X161224960Y-98104881D01*
X160772579Y-98485833D02*
X160748770Y-98509643D01*
X160748770Y-98509643D02*
X160724960Y-98485833D01*
X160724960Y-98485833D02*
X160748770Y-98462024D01*
X160748770Y-98462024D02*
X160772579Y-98485833D01*
X160772579Y-98485833D02*
X160724960Y-98485833D01*
X161224960Y-98819166D02*
X161224960Y-98866785D01*
X161224960Y-98866785D02*
X161201150Y-98914404D01*
X161201150Y-98914404D02*
X161177341Y-98938214D01*
X161177341Y-98938214D02*
X161129722Y-98962023D01*
X161129722Y-98962023D02*
X161034484Y-98985833D01*
X161034484Y-98985833D02*
X160915436Y-98985833D01*
X160915436Y-98985833D02*
X160820198Y-98962023D01*
X160820198Y-98962023D02*
X160772579Y-98938214D01*
X160772579Y-98938214D02*
X160748770Y-98914404D01*
X160748770Y-98914404D02*
X160724960Y-98866785D01*
X160724960Y-98866785D02*
X160724960Y-98819166D01*
X160724960Y-98819166D02*
X160748770Y-98771547D01*
X160748770Y-98771547D02*
X160772579Y-98747738D01*
X160772579Y-98747738D02*
X160820198Y-98723928D01*
X160820198Y-98723928D02*
X160915436Y-98700119D01*
X160915436Y-98700119D02*
X161034484Y-98700119D01*
X161034484Y-98700119D02*
X161129722Y-98723928D01*
X161129722Y-98723928D02*
X161177341Y-98747738D01*
X161177341Y-98747738D02*
X161201150Y-98771547D01*
X161201150Y-98771547D02*
X161224960Y-98819166D01*
X161010674Y-99271547D02*
X161034484Y-99223928D01*
X161034484Y-99223928D02*
X161058293Y-99200118D01*
X161058293Y-99200118D02*
X161105912Y-99176309D01*
X161105912Y-99176309D02*
X161129722Y-99176309D01*
X161129722Y-99176309D02*
X161177341Y-99200118D01*
X161177341Y-99200118D02*
X161201150Y-99223928D01*
X161201150Y-99223928D02*
X161224960Y-99271547D01*
X161224960Y-99271547D02*
X161224960Y-99366785D01*
X161224960Y-99366785D02*
X161201150Y-99414404D01*
X161201150Y-99414404D02*
X161177341Y-99438213D01*
X161177341Y-99438213D02*
X161129722Y-99462023D01*
X161129722Y-99462023D02*
X161105912Y-99462023D01*
X161105912Y-99462023D02*
X161058293Y-99438213D01*
X161058293Y-99438213D02*
X161034484Y-99414404D01*
X161034484Y-99414404D02*
X161010674Y-99366785D01*
X161010674Y-99366785D02*
X161010674Y-99271547D01*
X161010674Y-99271547D02*
X160986865Y-99223928D01*
X160986865Y-99223928D02*
X160963055Y-99200118D01*
X160963055Y-99200118D02*
X160915436Y-99176309D01*
X160915436Y-99176309D02*
X160820198Y-99176309D01*
X160820198Y-99176309D02*
X160772579Y-99200118D01*
X160772579Y-99200118D02*
X160748770Y-99223928D01*
X160748770Y-99223928D02*
X160724960Y-99271547D01*
X160724960Y-99271547D02*
X160724960Y-99366785D01*
X160724960Y-99366785D02*
X160748770Y-99414404D01*
X160748770Y-99414404D02*
X160772579Y-99438213D01*
X160772579Y-99438213D02*
X160820198Y-99462023D01*
X160820198Y-99462023D02*
X160915436Y-99462023D01*
X160915436Y-99462023D02*
X160963055Y-99438213D01*
X160963055Y-99438213D02*
X160986865Y-99414404D01*
X160986865Y-99414404D02*
X161010674Y-99366785D01*
X167287460Y-102189400D02*
X167787460Y-102189400D01*
X167787460Y-102189400D02*
X167787460Y-102379876D01*
X167787460Y-102379876D02*
X167763650Y-102427495D01*
X167763650Y-102427495D02*
X167739841Y-102451305D01*
X167739841Y-102451305D02*
X167692222Y-102475114D01*
X167692222Y-102475114D02*
X167620793Y-102475114D01*
X167620793Y-102475114D02*
X167573174Y-102451305D01*
X167573174Y-102451305D02*
X167549365Y-102427495D01*
X167549365Y-102427495D02*
X167525555Y-102379876D01*
X167525555Y-102379876D02*
X167525555Y-102189400D01*
X167287460Y-102951305D02*
X167287460Y-102665591D01*
X167287460Y-102808448D02*
X167787460Y-102808448D01*
X167787460Y-102808448D02*
X167716031Y-102760829D01*
X167716031Y-102760829D02*
X167668412Y-102713210D01*
X167668412Y-102713210D02*
X167644603Y-102665591D01*
X167335079Y-103165590D02*
X167311270Y-103189400D01*
X167311270Y-103189400D02*
X167287460Y-103165590D01*
X167287460Y-103165590D02*
X167311270Y-103141781D01*
X167311270Y-103141781D02*
X167335079Y-103165590D01*
X167335079Y-103165590D02*
X167287460Y-103165590D01*
X167787460Y-103498923D02*
X167787460Y-103546542D01*
X167787460Y-103546542D02*
X167763650Y-103594161D01*
X167763650Y-103594161D02*
X167739841Y-103617971D01*
X167739841Y-103617971D02*
X167692222Y-103641780D01*
X167692222Y-103641780D02*
X167596984Y-103665590D01*
X167596984Y-103665590D02*
X167477936Y-103665590D01*
X167477936Y-103665590D02*
X167382698Y-103641780D01*
X167382698Y-103641780D02*
X167335079Y-103617971D01*
X167335079Y-103617971D02*
X167311270Y-103594161D01*
X167311270Y-103594161D02*
X167287460Y-103546542D01*
X167287460Y-103546542D02*
X167287460Y-103498923D01*
X167287460Y-103498923D02*
X167311270Y-103451304D01*
X167311270Y-103451304D02*
X167335079Y-103427495D01*
X167335079Y-103427495D02*
X167382698Y-103403685D01*
X167382698Y-103403685D02*
X167477936Y-103379876D01*
X167477936Y-103379876D02*
X167596984Y-103379876D01*
X167596984Y-103379876D02*
X167692222Y-103403685D01*
X167692222Y-103403685D02*
X167739841Y-103427495D01*
X167739841Y-103427495D02*
X167763650Y-103451304D01*
X167763650Y-103451304D02*
X167787460Y-103498923D01*
X167787460Y-103832256D02*
X167787460Y-104165589D01*
X167787460Y-104165589D02*
X167287460Y-103951304D01*
X161818710Y-97509643D02*
X162318710Y-97509643D01*
X162318710Y-97509643D02*
X162318710Y-97700119D01*
X162318710Y-97700119D02*
X162294900Y-97747738D01*
X162294900Y-97747738D02*
X162271091Y-97771548D01*
X162271091Y-97771548D02*
X162223472Y-97795357D01*
X162223472Y-97795357D02*
X162152043Y-97795357D01*
X162152043Y-97795357D02*
X162104424Y-97771548D01*
X162104424Y-97771548D02*
X162080615Y-97747738D01*
X162080615Y-97747738D02*
X162056805Y-97700119D01*
X162056805Y-97700119D02*
X162056805Y-97509643D01*
X162318710Y-98104881D02*
X162318710Y-98152500D01*
X162318710Y-98152500D02*
X162294900Y-98200119D01*
X162294900Y-98200119D02*
X162271091Y-98223929D01*
X162271091Y-98223929D02*
X162223472Y-98247738D01*
X162223472Y-98247738D02*
X162128234Y-98271548D01*
X162128234Y-98271548D02*
X162009186Y-98271548D01*
X162009186Y-98271548D02*
X161913948Y-98247738D01*
X161913948Y-98247738D02*
X161866329Y-98223929D01*
X161866329Y-98223929D02*
X161842520Y-98200119D01*
X161842520Y-98200119D02*
X161818710Y-98152500D01*
X161818710Y-98152500D02*
X161818710Y-98104881D01*
X161818710Y-98104881D02*
X161842520Y-98057262D01*
X161842520Y-98057262D02*
X161866329Y-98033453D01*
X161866329Y-98033453D02*
X161913948Y-98009643D01*
X161913948Y-98009643D02*
X162009186Y-97985834D01*
X162009186Y-97985834D02*
X162128234Y-97985834D01*
X162128234Y-97985834D02*
X162223472Y-98009643D01*
X162223472Y-98009643D02*
X162271091Y-98033453D01*
X162271091Y-98033453D02*
X162294900Y-98057262D01*
X162294900Y-98057262D02*
X162318710Y-98104881D01*
X161866329Y-98485833D02*
X161842520Y-98509643D01*
X161842520Y-98509643D02*
X161818710Y-98485833D01*
X161818710Y-98485833D02*
X161842520Y-98462024D01*
X161842520Y-98462024D02*
X161866329Y-98485833D01*
X161866329Y-98485833D02*
X161818710Y-98485833D01*
X162271091Y-98700119D02*
X162294900Y-98723928D01*
X162294900Y-98723928D02*
X162318710Y-98771547D01*
X162318710Y-98771547D02*
X162318710Y-98890595D01*
X162318710Y-98890595D02*
X162294900Y-98938214D01*
X162294900Y-98938214D02*
X162271091Y-98962023D01*
X162271091Y-98962023D02*
X162223472Y-98985833D01*
X162223472Y-98985833D02*
X162175853Y-98985833D01*
X162175853Y-98985833D02*
X162104424Y-98962023D01*
X162104424Y-98962023D02*
X161818710Y-98676309D01*
X161818710Y-98676309D02*
X161818710Y-98985833D01*
X162318710Y-99152499D02*
X162318710Y-99485832D01*
X162318710Y-99485832D02*
X161818710Y-99271547D01*
X167287460Y-97509643D02*
X167787460Y-97509643D01*
X167787460Y-97509643D02*
X167787460Y-97700119D01*
X167787460Y-97700119D02*
X167763650Y-97747738D01*
X167763650Y-97747738D02*
X167739841Y-97771548D01*
X167739841Y-97771548D02*
X167692222Y-97795357D01*
X167692222Y-97795357D02*
X167620793Y-97795357D01*
X167620793Y-97795357D02*
X167573174Y-97771548D01*
X167573174Y-97771548D02*
X167549365Y-97747738D01*
X167549365Y-97747738D02*
X167525555Y-97700119D01*
X167525555Y-97700119D02*
X167525555Y-97509643D01*
X167287460Y-98271548D02*
X167287460Y-97985834D01*
X167287460Y-98128691D02*
X167787460Y-98128691D01*
X167787460Y-98128691D02*
X167716031Y-98081072D01*
X167716031Y-98081072D02*
X167668412Y-98033453D01*
X167668412Y-98033453D02*
X167644603Y-97985834D01*
X167335079Y-98485833D02*
X167311270Y-98509643D01*
X167311270Y-98509643D02*
X167287460Y-98485833D01*
X167287460Y-98485833D02*
X167311270Y-98462024D01*
X167311270Y-98462024D02*
X167335079Y-98485833D01*
X167335079Y-98485833D02*
X167287460Y-98485833D01*
X167287460Y-98985833D02*
X167287460Y-98700119D01*
X167287460Y-98842976D02*
X167787460Y-98842976D01*
X167787460Y-98842976D02*
X167716031Y-98795357D01*
X167716031Y-98795357D02*
X167668412Y-98747738D01*
X167668412Y-98747738D02*
X167644603Y-98700119D01*
X167620793Y-99414404D02*
X167287460Y-99414404D01*
X167811270Y-99295356D02*
X167454127Y-99176309D01*
X167454127Y-99176309D02*
X167454127Y-99485832D01*
X161818710Y-102189400D02*
X162318710Y-102189400D01*
X162318710Y-102189400D02*
X162318710Y-102379876D01*
X162318710Y-102379876D02*
X162294900Y-102427495D01*
X162294900Y-102427495D02*
X162271091Y-102451305D01*
X162271091Y-102451305D02*
X162223472Y-102475114D01*
X162223472Y-102475114D02*
X162152043Y-102475114D01*
X162152043Y-102475114D02*
X162104424Y-102451305D01*
X162104424Y-102451305D02*
X162080615Y-102427495D01*
X162080615Y-102427495D02*
X162056805Y-102379876D01*
X162056805Y-102379876D02*
X162056805Y-102189400D01*
X162318710Y-102784638D02*
X162318710Y-102832257D01*
X162318710Y-102832257D02*
X162294900Y-102879876D01*
X162294900Y-102879876D02*
X162271091Y-102903686D01*
X162271091Y-102903686D02*
X162223472Y-102927495D01*
X162223472Y-102927495D02*
X162128234Y-102951305D01*
X162128234Y-102951305D02*
X162009186Y-102951305D01*
X162009186Y-102951305D02*
X161913948Y-102927495D01*
X161913948Y-102927495D02*
X161866329Y-102903686D01*
X161866329Y-102903686D02*
X161842520Y-102879876D01*
X161842520Y-102879876D02*
X161818710Y-102832257D01*
X161818710Y-102832257D02*
X161818710Y-102784638D01*
X161818710Y-102784638D02*
X161842520Y-102737019D01*
X161842520Y-102737019D02*
X161866329Y-102713210D01*
X161866329Y-102713210D02*
X161913948Y-102689400D01*
X161913948Y-102689400D02*
X162009186Y-102665591D01*
X162009186Y-102665591D02*
X162128234Y-102665591D01*
X162128234Y-102665591D02*
X162223472Y-102689400D01*
X162223472Y-102689400D02*
X162271091Y-102713210D01*
X162271091Y-102713210D02*
X162294900Y-102737019D01*
X162294900Y-102737019D02*
X162318710Y-102784638D01*
X161866329Y-103165590D02*
X161842520Y-103189400D01*
X161842520Y-103189400D02*
X161818710Y-103165590D01*
X161818710Y-103165590D02*
X161842520Y-103141781D01*
X161842520Y-103141781D02*
X161866329Y-103165590D01*
X161866329Y-103165590D02*
X161818710Y-103165590D01*
X161818710Y-103665590D02*
X161818710Y-103379876D01*
X161818710Y-103522733D02*
X162318710Y-103522733D01*
X162318710Y-103522733D02*
X162247281Y-103475114D01*
X162247281Y-103475114D02*
X162199662Y-103427495D01*
X162199662Y-103427495D02*
X162175853Y-103379876D01*
X162318710Y-104117970D02*
X162318710Y-103879875D01*
X162318710Y-103879875D02*
X162080615Y-103856066D01*
X162080615Y-103856066D02*
X162104424Y-103879875D01*
X162104424Y-103879875D02*
X162128234Y-103927494D01*
X162128234Y-103927494D02*
X162128234Y-104046542D01*
X162128234Y-104046542D02*
X162104424Y-104094161D01*
X162104424Y-104094161D02*
X162080615Y-104117970D01*
X162080615Y-104117970D02*
X162032996Y-104141780D01*
X162032996Y-104141780D02*
X161913948Y-104141780D01*
X161913948Y-104141780D02*
X161866329Y-104117970D01*
X161866329Y-104117970D02*
X161842520Y-104094161D01*
X161842520Y-104094161D02*
X161818710Y-104046542D01*
X161818710Y-104046542D02*
X161818710Y-103927494D01*
X161818710Y-103927494D02*
X161842520Y-103879875D01*
X161842520Y-103879875D02*
X161866329Y-103856066D01*
X159631210Y-102189400D02*
X160131210Y-102189400D01*
X160131210Y-102189400D02*
X160131210Y-102379876D01*
X160131210Y-102379876D02*
X160107400Y-102427495D01*
X160107400Y-102427495D02*
X160083591Y-102451305D01*
X160083591Y-102451305D02*
X160035972Y-102475114D01*
X160035972Y-102475114D02*
X159964543Y-102475114D01*
X159964543Y-102475114D02*
X159916924Y-102451305D01*
X159916924Y-102451305D02*
X159893115Y-102427495D01*
X159893115Y-102427495D02*
X159869305Y-102379876D01*
X159869305Y-102379876D02*
X159869305Y-102189400D01*
X160131210Y-102784638D02*
X160131210Y-102832257D01*
X160131210Y-102832257D02*
X160107400Y-102879876D01*
X160107400Y-102879876D02*
X160083591Y-102903686D01*
X160083591Y-102903686D02*
X160035972Y-102927495D01*
X160035972Y-102927495D02*
X159940734Y-102951305D01*
X159940734Y-102951305D02*
X159821686Y-102951305D01*
X159821686Y-102951305D02*
X159726448Y-102927495D01*
X159726448Y-102927495D02*
X159678829Y-102903686D01*
X159678829Y-102903686D02*
X159655020Y-102879876D01*
X159655020Y-102879876D02*
X159631210Y-102832257D01*
X159631210Y-102832257D02*
X159631210Y-102784638D01*
X159631210Y-102784638D02*
X159655020Y-102737019D01*
X159655020Y-102737019D02*
X159678829Y-102713210D01*
X159678829Y-102713210D02*
X159726448Y-102689400D01*
X159726448Y-102689400D02*
X159821686Y-102665591D01*
X159821686Y-102665591D02*
X159940734Y-102665591D01*
X159940734Y-102665591D02*
X160035972Y-102689400D01*
X160035972Y-102689400D02*
X160083591Y-102713210D01*
X160083591Y-102713210D02*
X160107400Y-102737019D01*
X160107400Y-102737019D02*
X160131210Y-102784638D01*
X159678829Y-103165590D02*
X159655020Y-103189400D01*
X159655020Y-103189400D02*
X159631210Y-103165590D01*
X159631210Y-103165590D02*
X159655020Y-103141781D01*
X159655020Y-103141781D02*
X159678829Y-103165590D01*
X159678829Y-103165590D02*
X159631210Y-103165590D01*
X159631210Y-103665590D02*
X159631210Y-103379876D01*
X159631210Y-103522733D02*
X160131210Y-103522733D01*
X160131210Y-103522733D02*
X160059781Y-103475114D01*
X160059781Y-103475114D02*
X160012162Y-103427495D01*
X160012162Y-103427495D02*
X159988353Y-103379876D01*
X160131210Y-103832256D02*
X160131210Y-104141780D01*
X160131210Y-104141780D02*
X159940734Y-103975113D01*
X159940734Y-103975113D02*
X159940734Y-104046542D01*
X159940734Y-104046542D02*
X159916924Y-104094161D01*
X159916924Y-104094161D02*
X159893115Y-104117970D01*
X159893115Y-104117970D02*
X159845496Y-104141780D01*
X159845496Y-104141780D02*
X159726448Y-104141780D01*
X159726448Y-104141780D02*
X159678829Y-104117970D01*
X159678829Y-104117970D02*
X159655020Y-104094161D01*
X159655020Y-104094161D02*
X159631210Y-104046542D01*
X159631210Y-104046542D02*
X159631210Y-103903685D01*
X159631210Y-103903685D02*
X159655020Y-103856066D01*
X159655020Y-103856066D02*
X159678829Y-103832256D01*
X166193710Y-97509643D02*
X166693710Y-97509643D01*
X166693710Y-97509643D02*
X166693710Y-97700119D01*
X166693710Y-97700119D02*
X166669900Y-97747738D01*
X166669900Y-97747738D02*
X166646091Y-97771548D01*
X166646091Y-97771548D02*
X166598472Y-97795357D01*
X166598472Y-97795357D02*
X166527043Y-97795357D01*
X166527043Y-97795357D02*
X166479424Y-97771548D01*
X166479424Y-97771548D02*
X166455615Y-97747738D01*
X166455615Y-97747738D02*
X166431805Y-97700119D01*
X166431805Y-97700119D02*
X166431805Y-97509643D01*
X166193710Y-98271548D02*
X166193710Y-97985834D01*
X166193710Y-98128691D02*
X166693710Y-98128691D01*
X166693710Y-98128691D02*
X166622281Y-98081072D01*
X166622281Y-98081072D02*
X166574662Y-98033453D01*
X166574662Y-98033453D02*
X166550853Y-97985834D01*
X166241329Y-98485833D02*
X166217520Y-98509643D01*
X166217520Y-98509643D02*
X166193710Y-98485833D01*
X166193710Y-98485833D02*
X166217520Y-98462024D01*
X166217520Y-98462024D02*
X166241329Y-98485833D01*
X166241329Y-98485833D02*
X166193710Y-98485833D01*
X166193710Y-98985833D02*
X166193710Y-98700119D01*
X166193710Y-98842976D02*
X166693710Y-98842976D01*
X166693710Y-98842976D02*
X166622281Y-98795357D01*
X166622281Y-98795357D02*
X166574662Y-98747738D01*
X166574662Y-98747738D02*
X166550853Y-98700119D01*
X166646091Y-99176309D02*
X166669900Y-99200118D01*
X166669900Y-99200118D02*
X166693710Y-99247737D01*
X166693710Y-99247737D02*
X166693710Y-99366785D01*
X166693710Y-99366785D02*
X166669900Y-99414404D01*
X166669900Y-99414404D02*
X166646091Y-99438213D01*
X166646091Y-99438213D02*
X166598472Y-99462023D01*
X166598472Y-99462023D02*
X166550853Y-99462023D01*
X166550853Y-99462023D02*
X166479424Y-99438213D01*
X166479424Y-99438213D02*
X166193710Y-99152499D01*
X166193710Y-99152499D02*
X166193710Y-99462023D01*
X157444795Y-91247095D02*
X157944795Y-91247095D01*
X157944795Y-91247095D02*
X157944795Y-91437571D01*
X157944795Y-91437571D02*
X157920985Y-91485190D01*
X157920985Y-91485190D02*
X157897176Y-91509000D01*
X157897176Y-91509000D02*
X157849557Y-91532809D01*
X157849557Y-91532809D02*
X157778128Y-91532809D01*
X157778128Y-91532809D02*
X157730509Y-91509000D01*
X157730509Y-91509000D02*
X157706700Y-91485190D01*
X157706700Y-91485190D02*
X157682890Y-91437571D01*
X157682890Y-91437571D02*
X157682890Y-91247095D01*
X157944795Y-91842333D02*
X157944795Y-91889952D01*
X157944795Y-91889952D02*
X157920985Y-91937571D01*
X157920985Y-91937571D02*
X157897176Y-91961381D01*
X157897176Y-91961381D02*
X157849557Y-91985190D01*
X157849557Y-91985190D02*
X157754319Y-92009000D01*
X157754319Y-92009000D02*
X157635271Y-92009000D01*
X157635271Y-92009000D02*
X157540033Y-91985190D01*
X157540033Y-91985190D02*
X157492414Y-91961381D01*
X157492414Y-91961381D02*
X157468605Y-91937571D01*
X157468605Y-91937571D02*
X157444795Y-91889952D01*
X157444795Y-91889952D02*
X157444795Y-91842333D01*
X157444795Y-91842333D02*
X157468605Y-91794714D01*
X157468605Y-91794714D02*
X157492414Y-91770905D01*
X157492414Y-91770905D02*
X157540033Y-91747095D01*
X157540033Y-91747095D02*
X157635271Y-91723286D01*
X157635271Y-91723286D02*
X157754319Y-91723286D01*
X157754319Y-91723286D02*
X157849557Y-91747095D01*
X157849557Y-91747095D02*
X157897176Y-91770905D01*
X157897176Y-91770905D02*
X157920985Y-91794714D01*
X157920985Y-91794714D02*
X157944795Y-91842333D01*
X157492414Y-92223285D02*
X157468605Y-92247095D01*
X157468605Y-92247095D02*
X157444795Y-92223285D01*
X157444795Y-92223285D02*
X157468605Y-92199476D01*
X157468605Y-92199476D02*
X157492414Y-92223285D01*
X157492414Y-92223285D02*
X157444795Y-92223285D01*
X157944795Y-92556618D02*
X157944795Y-92604237D01*
X157944795Y-92604237D02*
X157920985Y-92651856D01*
X157920985Y-92651856D02*
X157897176Y-92675666D01*
X157897176Y-92675666D02*
X157849557Y-92699475D01*
X157849557Y-92699475D02*
X157754319Y-92723285D01*
X157754319Y-92723285D02*
X157635271Y-92723285D01*
X157635271Y-92723285D02*
X157540033Y-92699475D01*
X157540033Y-92699475D02*
X157492414Y-92675666D01*
X157492414Y-92675666D02*
X157468605Y-92651856D01*
X157468605Y-92651856D02*
X157444795Y-92604237D01*
X157444795Y-92604237D02*
X157444795Y-92556618D01*
X157444795Y-92556618D02*
X157468605Y-92508999D01*
X157468605Y-92508999D02*
X157492414Y-92485190D01*
X157492414Y-92485190D02*
X157540033Y-92461380D01*
X157540033Y-92461380D02*
X157635271Y-92437571D01*
X157635271Y-92437571D02*
X157754319Y-92437571D01*
X157754319Y-92437571D02*
X157849557Y-92461380D01*
X157849557Y-92461380D02*
X157897176Y-92485190D01*
X157897176Y-92485190D02*
X157920985Y-92508999D01*
X157920985Y-92508999D02*
X157944795Y-92556618D01*
X157778128Y-93151856D02*
X157444795Y-93151856D01*
X157968605Y-93032808D02*
X157611462Y-92913761D01*
X157611462Y-92913761D02*
X157611462Y-93223284D01*
X158544043Y-91247095D02*
X159044043Y-91247095D01*
X159044043Y-91247095D02*
X159044043Y-91437571D01*
X159044043Y-91437571D02*
X159020233Y-91485190D01*
X159020233Y-91485190D02*
X158996424Y-91509000D01*
X158996424Y-91509000D02*
X158948805Y-91532809D01*
X158948805Y-91532809D02*
X158877376Y-91532809D01*
X158877376Y-91532809D02*
X158829757Y-91509000D01*
X158829757Y-91509000D02*
X158805948Y-91485190D01*
X158805948Y-91485190D02*
X158782138Y-91437571D01*
X158782138Y-91437571D02*
X158782138Y-91247095D01*
X159044043Y-91842333D02*
X159044043Y-91889952D01*
X159044043Y-91889952D02*
X159020233Y-91937571D01*
X159020233Y-91937571D02*
X158996424Y-91961381D01*
X158996424Y-91961381D02*
X158948805Y-91985190D01*
X158948805Y-91985190D02*
X158853567Y-92009000D01*
X158853567Y-92009000D02*
X158734519Y-92009000D01*
X158734519Y-92009000D02*
X158639281Y-91985190D01*
X158639281Y-91985190D02*
X158591662Y-91961381D01*
X158591662Y-91961381D02*
X158567853Y-91937571D01*
X158567853Y-91937571D02*
X158544043Y-91889952D01*
X158544043Y-91889952D02*
X158544043Y-91842333D01*
X158544043Y-91842333D02*
X158567853Y-91794714D01*
X158567853Y-91794714D02*
X158591662Y-91770905D01*
X158591662Y-91770905D02*
X158639281Y-91747095D01*
X158639281Y-91747095D02*
X158734519Y-91723286D01*
X158734519Y-91723286D02*
X158853567Y-91723286D01*
X158853567Y-91723286D02*
X158948805Y-91747095D01*
X158948805Y-91747095D02*
X158996424Y-91770905D01*
X158996424Y-91770905D02*
X159020233Y-91794714D01*
X159020233Y-91794714D02*
X159044043Y-91842333D01*
X158591662Y-92223285D02*
X158567853Y-92247095D01*
X158567853Y-92247095D02*
X158544043Y-92223285D01*
X158544043Y-92223285D02*
X158567853Y-92199476D01*
X158567853Y-92199476D02*
X158591662Y-92223285D01*
X158591662Y-92223285D02*
X158544043Y-92223285D01*
X159044043Y-92413761D02*
X159044043Y-92723285D01*
X159044043Y-92723285D02*
X158853567Y-92556618D01*
X158853567Y-92556618D02*
X158853567Y-92628047D01*
X158853567Y-92628047D02*
X158829757Y-92675666D01*
X158829757Y-92675666D02*
X158805948Y-92699475D01*
X158805948Y-92699475D02*
X158758329Y-92723285D01*
X158758329Y-92723285D02*
X158639281Y-92723285D01*
X158639281Y-92723285D02*
X158591662Y-92699475D01*
X158591662Y-92699475D02*
X158567853Y-92675666D01*
X158567853Y-92675666D02*
X158544043Y-92628047D01*
X158544043Y-92628047D02*
X158544043Y-92485190D01*
X158544043Y-92485190D02*
X158567853Y-92437571D01*
X158567853Y-92437571D02*
X158591662Y-92413761D01*
X158544043Y-93199475D02*
X158544043Y-92913761D01*
X158544043Y-93056618D02*
X159044043Y-93056618D01*
X159044043Y-93056618D02*
X158972614Y-93008999D01*
X158972614Y-93008999D02*
X158924995Y-92961380D01*
X158924995Y-92961380D02*
X158901186Y-92913761D01*
D12*
%TO.C,P1*%
X143085807Y-124540000D02*
G75*
G03*
X143085807Y-124540000I-1700000J0D01*
G01*
X123458194Y-119280797D02*
G75*
G03*
X123458194Y-119280797I-1700000J0D01*
G01*
%TD*%
M02*
