M48
; DRILL file {KiCad 7.0.7} date 2023 December 03, Sunday 19:36:59
; FORMAT={-:-/ absolute / inch / decimal}
; #@! TF.CreationDate,2023-12-03T19:36:59+01:00
; #@! TF.GenerationSoftware,Kicad,Pcbnew,7.0.7
; #@! TF.FileFunction,NonPlated,1,2,NPTH
FMAT,2
INCH
; #@! TA.AperFunction,NonPlated,NPTH,ComponentDrill
T1C0.0256
; #@! TA.AperFunction,NonPlated,NPTH,ComponentDrill
T2C0.0669
; #@! TA.AperFunction,NonPlated,NPTH,ComponentDrill
T3C0.0945
; #@! TA.AperFunction,NonPlated,NPTH,ComponentDrill
T4C0.1004
; #@! TA.AperFunction,NonPlated,NPTH,ComponentDrill
T5C0.1181
; #@! TA.AperFunction,NonPlated,NPTH,ComponentDrill
T6C0.1339
; #@! TA.AperFunction,NonPlated,NPTH,ComponentDrill
T7C0.2362
%
G90
G05
T1
X6.3862Y-1.7424
X6.6138Y-1.7424
T2
X1.1138Y-3.2282
X1.2382Y-3.9338
X1.5403Y-3.153
X1.6647Y-3.8586
X1.8229Y-2.7326
X1.9226Y-3.4421
X2.0223Y-4.1517
X2.2517Y-2.6723
X2.3514Y-3.3819
X2.4512Y-4.0914
X2.5217Y-2.0126
X2.5966Y-2.7252
X2.6715Y-3.4378
X2.9524Y-1.9673
X3.0273Y-2.6799
X3.1022Y-3.3925
X3.264Y-1.4955
X3.314Y-2.2103
X3.364Y-2.9251
X3.696Y-1.4653
X3.746Y-2.1801
X3.796Y-2.8949
X4.071Y-1.7915
X4.096Y-2.5076
X4.1211Y-3.2237
X4.1642Y-4.3995
X4.5038Y-1.7764
X4.5289Y-2.4925
X4.5539Y-3.2086
X4.5907Y-4.3243
X4.8635Y-2.0081
X4.8635Y-2.7247
X4.8635Y-3.4412
X5.0842Y-4.3305
X5.2965Y-2.0081
X5.2965Y-2.7247
X5.2965Y-3.4412
X5.5026Y-4.4426
X5.9472Y-4.6568
X6.279Y-4.9352
T3
X4.7936Y-4.6961
X5.5664Y-4.9031
T4
X6.5722Y-2.3285
X6.5722Y-2.9584
T5
X1.2867Y-2.9618
X1.4111Y-3.6675
X1.4949Y-3.0091
X1.6193Y-3.7147
X2.005Y-2.4724
X2.1047Y-3.182
X2.2044Y-3.8915
X2.2114Y-2.5269
X2.3111Y-3.2364
X2.4109Y-3.946
X2.7128Y-1.7589
X2.7877Y-2.4715
X2.8626Y-3.1841
X2.9172Y-1.8206
X2.9921Y-2.5332
X3.067Y-3.2458
X3.4638Y-1.2487
X3.5138Y-1.9635
X3.5638Y-2.6783
X3.666Y-1.3174
X3.716Y-2.0322
X3.7659Y-2.747
X4.2793Y-1.5518
X4.3043Y-2.2679
X4.3293Y-2.984
X4.3371Y-4.1332
X4.479Y-1.6276
X4.504Y-2.3437
X4.529Y-3.0598
X4.5453Y-4.1804
X5.08Y-1.7758
X5.08Y-2.4924
X5.08Y-3.2089
X5.2769Y-1.8585
X5.2769Y-2.575
X5.2769Y-3.2916
X5.3535Y-4.1622
X5.5223Y-4.293
X6.2624Y-4.6181
X6.3601Y-4.8079
T6
X1.327Y-3.1906
X1.4514Y-3.8962
X2.0373Y-2.7024
X2.137Y-3.412
X2.2367Y-4.1216
X2.7371Y-1.9899
X2.812Y-2.7025
X2.8869Y-3.4151
X3.48Y-1.4804
X3.53Y-2.1952
X3.58Y-2.91
X4.2874Y-1.784
X4.3124Y-2.5001
X4.3375Y-3.2162
X4.3775Y-4.3619
X5.08Y-2.0081
X5.08Y-2.7247
X5.08Y-3.4412
X5.2934Y-4.3866
X6.1131Y-4.796
T7
X1.74Y-3.48
X2.35Y-2.27
X3.2Y-3.02
X3.88Y-1.8
X4.02Y-3.95
X4.68Y-2.84
X5.73Y-4.54
T0
M30
