%TF.GenerationSoftware,KiCad,Pcbnew,7.0.7*%
%TF.CreationDate,2023-12-03T19:36:59+01:00*%
%TF.ProjectId,nightliner,6e696768-746c-4696-9e65-722e6b696361,rev?*%
%TF.SameCoordinates,Original*%
%TF.FileFunction,Soldermask,Bot*%
%TF.FilePolarity,Negative*%
%FSLAX46Y46*%
G04 Gerber Fmt 4.6, Leading zero omitted, Abs format (unit mm)*
G04 Created by KiCad (PCBNEW 7.0.7) date 2023-12-03 19:36:59*
%MOMM*%
%LPD*%
G01*
G04 APERTURE LIST*
G04 Aperture macros list*
%AMRoundRect*
0 Rectangle with rounded corners*
0 $1 Rounding radius*
0 $2 $3 $4 $5 $6 $7 $8 $9 X,Y pos of 4 corners*
0 Add a 4 corners polygon primitive as box body*
4,1,4,$2,$3,$4,$5,$6,$7,$8,$9,$2,$3,0*
0 Add four circle primitives for the rounded corners*
1,1,$1+$1,$2,$3*
1,1,$1+$1,$4,$5*
1,1,$1+$1,$6,$7*
1,1,$1+$1,$8,$9*
0 Add four rect primitives between the rounded corners*
20,1,$1+$1,$2,$3,$4,$5,0*
20,1,$1+$1,$4,$5,$6,$7,0*
20,1,$1+$1,$6,$7,$8,$9,0*
20,1,$1+$1,$8,$9,$2,$3,0*%
%AMRotRect*
0 Rectangle, with rotation*
0 The origin of the aperture is its center*
0 $1 length*
0 $2 width*
0 $3 Rotation angle, in degrees counterclockwise*
0 Add horizontal line*
21,1,$1,$2,0,0,$3*%
G04 Aperture macros list end*
%ADD10C,0.650000*%
%ADD11O,1.000000X2.100000*%
%ADD12O,1.000000X1.600000*%
%ADD13C,1.700000*%
%ADD14C,3.000000*%
%ADD15C,3.400000*%
%ADD16RotRect,2.600000X2.600000X8.000000*%
%ADD17C,6.000000*%
%ADD18RotRect,2.600000X2.600000X6.000000*%
%ADD19R,0.700000X1.000000*%
%ADD20RotRect,2.600000X2.600000X4.000000*%
%ADD21RotRect,2.600000X2.600000X10.000000*%
%ADD22RotRect,2.600000X2.600000X320.000000*%
%ADD23R,2.600000X2.600000*%
%ADD24RotRect,2.600000X2.600000X345.000000*%
%ADD25R,1.300000X1.300000*%
%ADD26C,1.300000*%
%ADD27RotRect,2.600000X2.600000X2.000000*%
%ADD28RoundRect,0.250000X-0.725000X0.600000X-0.725000X-0.600000X0.725000X-0.600000X0.725000X0.600000X0*%
%ADD29O,1.950000X1.700000*%
%ADD30C,2.400000*%
%ADD31C,1.500000*%
%ADD32C,2.000000*%
%ADD33R,1.100000X1.100000*%
%ADD34C,1.100000*%
G04 APERTURE END LIST*
D10*
%TO.C,J1*%
X167990000Y-44256000D03*
X162210000Y-44256000D03*
D11*
X169420000Y-44786000D03*
D12*
X169420000Y-40606000D03*
D11*
X160780000Y-44786000D03*
D12*
X160780000Y-40606000D03*
%TD*%
D13*
%TO.C,SW6*%
X48833744Y-87429974D03*
D14*
X53459097Y-80821940D03*
D15*
X54280218Y-86664522D03*
D14*
X58702701Y-82205638D03*
D13*
X59726692Y-85899070D03*
D16*
X49918888Y-81319484D03*
X62242909Y-81708094D03*
%TD*%
D17*
%TO.C,H2*%
X59690000Y-57658000D03*
%TD*%
D13*
%TO.C,SW2*%
X64052007Y-51118851D03*
D14*
X68905159Y-44676265D03*
D15*
X69521877Y-50543944D03*
D14*
X74097278Y-46242118D03*
D13*
X74991747Y-49969037D03*
D18*
X65349743Y-45049954D03*
X77652694Y-45868429D03*
%TD*%
D19*
%TO.C,U1*%
X167584000Y-96588000D03*
X166484000Y-96588000D03*
X165384000Y-96588000D03*
X164284000Y-96588000D03*
X163184000Y-96588000D03*
X162084000Y-96588000D03*
X160984000Y-96588000D03*
X159884000Y-96588000D03*
X158784000Y-96588000D03*
X167584000Y-105088000D03*
X166484000Y-105088000D03*
X165384000Y-105088000D03*
X164284000Y-105088000D03*
X163184000Y-105088000D03*
X162084000Y-105088000D03*
X160984000Y-105088000D03*
X159884000Y-105088000D03*
X158784000Y-105088000D03*
%TD*%
D13*
%TO.C,SW3*%
X82906263Y-37986330D03*
D14*
X87981302Y-31717041D03*
D15*
X88392865Y-37602669D03*
D14*
X93115611Y-33463143D03*
D13*
X93879467Y-37219008D03*
D20*
X84415010Y-31966420D03*
X96681902Y-33213764D03*
%TD*%
D13*
%TO.C,SW16*%
X28289465Y-81995753D03*
D14*
X32681384Y-75230322D03*
D15*
X33705908Y-81040688D03*
D14*
X37970084Y-76430178D03*
D13*
X39122351Y-80085623D03*
D21*
X29160696Y-75851114D03*
X41490771Y-75809385D03*
%TD*%
D17*
%TO.C,H5*%
X118872000Y-72136000D03*
%TD*%
D13*
%TO.C,SW20*%
X151059604Y-118282855D03*
D14*
X159065295Y-117298525D03*
D15*
X155272848Y-121818187D03*
D14*
X161545663Y-122121156D03*
D13*
X159486092Y-125353519D03*
D22*
X156326686Y-115000559D03*
X164284272Y-124419122D03*
%TD*%
D13*
%TO.C,SW5*%
X123532302Y-51006119D03*
D14*
X129032302Y-45106119D03*
D15*
X129032302Y-51006119D03*
D14*
X134032302Y-47206119D03*
D13*
X134532302Y-51006119D03*
D23*
X125457302Y-45106119D03*
X137607302Y-47206119D03*
%TD*%
D13*
%TO.C,SW19*%
X129139743Y-109995427D03*
D14*
X135979367Y-105719970D03*
D15*
X134452335Y-111418932D03*
D14*
X140265477Y-109042509D03*
D13*
X139764927Y-112842437D03*
D24*
X132526183Y-104794692D03*
X143718661Y-109967787D03*
%TD*%
D13*
%TO.C,SW10*%
X123532302Y-69206119D03*
D14*
X129032302Y-63306119D03*
D15*
X129032302Y-69206119D03*
D14*
X134032302Y-65406119D03*
D13*
X134532302Y-69206119D03*
D23*
X125457302Y-63306119D03*
X137607302Y-65406119D03*
%TD*%
D13*
%TO.C,SW12*%
X67856843Y-87319448D03*
D14*
X72709995Y-80876862D03*
D15*
X73326713Y-86744541D03*
D14*
X77902114Y-82442715D03*
D13*
X78796583Y-86169634D03*
D18*
X69154579Y-81250551D03*
X81457530Y-82069026D03*
%TD*%
D14*
%TO.C,J3*%
X166934000Y-75144000D03*
X166934000Y-59144000D03*
D25*
X170434000Y-72644000D03*
D26*
X170434000Y-70444000D03*
X170434000Y-68244000D03*
X170434000Y-66044000D03*
X170434000Y-63844000D03*
X170434000Y-61644000D03*
%TD*%
D13*
%TO.C,SW9*%
X104039533Y-63693909D03*
D14*
X109330276Y-57605556D03*
D15*
X109536183Y-63501962D03*
D14*
X114400519Y-59529779D03*
D13*
X115032833Y-63310015D03*
D27*
X105757454Y-57730322D03*
X117973341Y-59405014D03*
%TD*%
D13*
%TO.C,SW1*%
X46300793Y-69407095D03*
D14*
X50926146Y-62799061D03*
D15*
X51747267Y-68641643D03*
D14*
X56169750Y-64182759D03*
D13*
X57193741Y-67876191D03*
D16*
X47385937Y-63296605D03*
X59709958Y-63685215D03*
%TD*%
D13*
%TO.C,SW15*%
X123532302Y-87406119D03*
D14*
X129032302Y-81506119D03*
D15*
X129032302Y-87406119D03*
D14*
X134032302Y-83606119D03*
D13*
X134532302Y-87406119D03*
D23*
X125457302Y-81506119D03*
X137607302Y-83606119D03*
%TD*%
D17*
%TO.C,H3*%
X81280000Y-76708000D03*
%TD*%
%TO.C,H7*%
X145542000Y-115316000D03*
%TD*%
D13*
%TO.C,SW8*%
X84175830Y-56141995D03*
D14*
X89250869Y-49872706D03*
D15*
X89662432Y-55758334D03*
D14*
X94385178Y-51618808D03*
D13*
X95149034Y-55374673D03*
D20*
X85684577Y-50122085D03*
X97951469Y-51369429D03*
%TD*%
D13*
%TO.C,SW11*%
X51366694Y-105452853D03*
D14*
X55992047Y-98844819D03*
D15*
X56813168Y-104687401D03*
D14*
X61235651Y-100228517D03*
D13*
X62259642Y-103921949D03*
D16*
X52451838Y-99342363D03*
X64775859Y-99730973D03*
%TD*%
D13*
%TO.C,SW4*%
X103404362Y-45504996D03*
D14*
X108695105Y-39416643D03*
D15*
X108901012Y-45313049D03*
D14*
X113765348Y-41340866D03*
D13*
X114397662Y-45121102D03*
D27*
X105122283Y-39541409D03*
X117338170Y-41216101D03*
%TD*%
D17*
%TO.C,H6*%
X102108000Y-100330000D03*
%TD*%
D13*
%TO.C,SW13*%
X85445398Y-74297661D03*
D14*
X90520437Y-68028372D03*
D15*
X90932000Y-73914000D03*
D14*
X95654746Y-69774474D03*
D13*
X96418602Y-73530339D03*
D20*
X86954145Y-68277751D03*
X99221037Y-69525095D03*
%TD*%
D13*
%TO.C,SW17*%
X31449862Y-99919254D03*
D14*
X35841781Y-93153823D03*
D15*
X36866305Y-98964189D03*
D14*
X41130481Y-94353679D03*
D13*
X42282748Y-98009124D03*
D21*
X32321093Y-93774615D03*
X44651168Y-93732886D03*
%TD*%
D13*
%TO.C,SW7*%
X65954425Y-69219149D03*
D14*
X70807577Y-62776563D03*
D15*
X71424295Y-68644242D03*
D14*
X75999696Y-64342416D03*
D13*
X76894165Y-68069335D03*
D18*
X67252161Y-63150252D03*
X79555112Y-63968727D03*
%TD*%
D13*
%TO.C,SW14*%
X104674704Y-81882822D03*
D14*
X109965447Y-75794469D03*
D15*
X110171354Y-81690875D03*
D14*
X115035690Y-77718692D03*
D13*
X115668004Y-81498928D03*
D27*
X106392625Y-75919235D03*
X118608512Y-77593927D03*
%TD*%
D17*
%TO.C,H4*%
X98552000Y-45720000D03*
%TD*%
%TO.C,H1*%
X44196000Y-88392000D03*
%TD*%
D13*
%TO.C,SW18*%
X105771184Y-111748201D03*
D14*
X110163103Y-104982770D03*
D15*
X111187627Y-110793136D03*
D14*
X115451803Y-106182626D03*
D13*
X116604070Y-109838071D03*
D21*
X106642415Y-105603562D03*
X118972490Y-105561833D03*
%TD*%
D28*
%TO.C,J2*%
X151566000Y-40386000D03*
D29*
X151566000Y-42886000D03*
X151566000Y-45386000D03*
%TD*%
D30*
%TO.C,P1*%
X141385807Y-124540000D03*
X121758194Y-119280797D03*
D31*
X136478904Y-123225199D03*
X134025452Y-122567799D03*
X131572001Y-121910399D03*
X129118549Y-121252998D03*
X126668557Y-120596525D03*
%TD*%
D32*
%TO.C,SW21*%
X170942000Y-82568000D03*
X170942000Y-91168000D03*
D33*
X170942000Y-84868000D03*
D34*
X170942000Y-86868000D03*
X170942000Y-88868000D03*
%TD*%
M02*
