%TF.GenerationSoftware,KiCad,Pcbnew,7.0.7*%
%TF.CreationDate,2023-12-03T19:36:59+01:00*%
%TF.ProjectId,nightliner,6e696768-746c-4696-9e65-722e6b696361,rev?*%
%TF.SameCoordinates,Original*%
%TF.FileFunction,Legend,Bot*%
%TF.FilePolarity,Positive*%
%FSLAX46Y46*%
G04 Gerber Fmt 4.6, Leading zero omitted, Abs format (unit mm)*
G04 Created by KiCad (PCBNEW 7.0.7) date 2023-12-03 19:36:59*
%MOMM*%
%LPD*%
G01*
G04 APERTURE LIST*
G04 Aperture macros list*
%AMRoundRect*
0 Rectangle with rounded corners*
0 $1 Rounding radius*
0 $2 $3 $4 $5 $6 $7 $8 $9 X,Y pos of 4 corners*
0 Add a 4 corners polygon primitive as box body*
4,1,4,$2,$3,$4,$5,$6,$7,$8,$9,$2,$3,0*
0 Add four circle primitives for the rounded corners*
1,1,$1+$1,$2,$3*
1,1,$1+$1,$4,$5*
1,1,$1+$1,$6,$7*
1,1,$1+$1,$8,$9*
0 Add four rect primitives between the rounded corners*
20,1,$1+$1,$2,$3,$4,$5,0*
20,1,$1+$1,$4,$5,$6,$7,0*
20,1,$1+$1,$6,$7,$8,$9,0*
20,1,$1+$1,$8,$9,$2,$3,0*%
%AMRotRect*
0 Rectangle, with rotation*
0 The origin of the aperture is its center*
0 $1 length*
0 $2 width*
0 $3 Rotation angle, in degrees counterclockwise*
0 Add horizontal line*
21,1,$1,$2,0,0,$3*%
G04 Aperture macros list end*
%ADD10C,0.150000*%
%ADD11C,0.120000*%
%ADD12C,0.125000*%
%ADD13C,0.650000*%
%ADD14O,1.000000X2.100000*%
%ADD15O,1.000000X1.600000*%
%ADD16C,1.700000*%
%ADD17C,3.000000*%
%ADD18C,3.400000*%
%ADD19RotRect,2.600000X2.600000X8.000000*%
%ADD20C,6.000000*%
%ADD21RotRect,2.600000X2.600000X6.000000*%
%ADD22R,0.700000X1.000000*%
%ADD23RotRect,2.600000X2.600000X4.000000*%
%ADD24RotRect,2.600000X2.600000X10.000000*%
%ADD25RotRect,2.600000X2.600000X320.000000*%
%ADD26R,2.600000X2.600000*%
%ADD27RotRect,2.600000X2.600000X345.000000*%
%ADD28R,1.300000X1.300000*%
%ADD29C,1.300000*%
%ADD30RotRect,2.600000X2.600000X2.000000*%
%ADD31RoundRect,0.250000X-0.725000X0.600000X-0.725000X-0.600000X0.725000X-0.600000X0.725000X0.600000X0*%
%ADD32O,1.950000X1.700000*%
%ADD33C,2.400000*%
%ADD34C,1.500000*%
%ADD35C,2.000000*%
%ADD36R,1.100000X1.100000*%
%ADD37C,1.100000*%
G04 APERTURE END LIST*
D10*
X166528570Y-39412152D02*
X166290475Y-40078819D01*
X166290475Y-40078819D02*
X166052380Y-39412152D01*
X165147618Y-40078819D02*
X165719046Y-40078819D01*
X165433332Y-40078819D02*
X165433332Y-39078819D01*
X165433332Y-39078819D02*
X165528570Y-39221676D01*
X165528570Y-39221676D02*
X165623808Y-39316914D01*
X165623808Y-39316914D02*
X165719046Y-39364533D01*
X164719046Y-39983580D02*
X164671427Y-40031200D01*
X164671427Y-40031200D02*
X164719046Y-40078819D01*
X164719046Y-40078819D02*
X164766665Y-40031200D01*
X164766665Y-40031200D02*
X164719046Y-39983580D01*
X164719046Y-39983580D02*
X164719046Y-40078819D01*
X164052380Y-39078819D02*
X163957142Y-39078819D01*
X163957142Y-39078819D02*
X163861904Y-39126438D01*
X163861904Y-39126438D02*
X163814285Y-39174057D01*
X163814285Y-39174057D02*
X163766666Y-39269295D01*
X163766666Y-39269295D02*
X163719047Y-39459771D01*
X163719047Y-39459771D02*
X163719047Y-39697866D01*
X163719047Y-39697866D02*
X163766666Y-39888342D01*
X163766666Y-39888342D02*
X163814285Y-39983580D01*
X163814285Y-39983580D02*
X163861904Y-40031200D01*
X163861904Y-40031200D02*
X163957142Y-40078819D01*
X163957142Y-40078819D02*
X164052380Y-40078819D01*
X164052380Y-40078819D02*
X164147618Y-40031200D01*
X164147618Y-40031200D02*
X164195237Y-39983580D01*
X164195237Y-39983580D02*
X164242856Y-39888342D01*
X164242856Y-39888342D02*
X164290475Y-39697866D01*
X164290475Y-39697866D02*
X164290475Y-39459771D01*
X164290475Y-39459771D02*
X164242856Y-39269295D01*
X164242856Y-39269295D02*
X164195237Y-39174057D01*
X164195237Y-39174057D02*
X164147618Y-39126438D01*
X164147618Y-39126438D02*
X164052380Y-39078819D01*
X148237411Y-44968438D02*
X148332649Y-44920819D01*
X148332649Y-44920819D02*
X148475506Y-44920819D01*
X148475506Y-44920819D02*
X148618363Y-44968438D01*
X148618363Y-44968438D02*
X148713601Y-45063676D01*
X148713601Y-45063676D02*
X148761220Y-45158914D01*
X148761220Y-45158914D02*
X148808839Y-45349390D01*
X148808839Y-45349390D02*
X148808839Y-45492247D01*
X148808839Y-45492247D02*
X148761220Y-45682723D01*
X148761220Y-45682723D02*
X148713601Y-45777961D01*
X148713601Y-45777961D02*
X148618363Y-45873200D01*
X148618363Y-45873200D02*
X148475506Y-45920819D01*
X148475506Y-45920819D02*
X148380268Y-45920819D01*
X148380268Y-45920819D02*
X148237411Y-45873200D01*
X148237411Y-45873200D02*
X148189792Y-45825580D01*
X148189792Y-45825580D02*
X148189792Y-45492247D01*
X148189792Y-45492247D02*
X148380268Y-45492247D01*
X147761220Y-45920819D02*
X147761220Y-44920819D01*
X147761220Y-44920819D02*
X147189792Y-45920819D01*
X147189792Y-45920819D02*
X147189792Y-44920819D01*
X146713601Y-45920819D02*
X146713601Y-44920819D01*
X146713601Y-44920819D02*
X146475506Y-44920819D01*
X146475506Y-44920819D02*
X146332649Y-44968438D01*
X146332649Y-44968438D02*
X146237411Y-45063676D01*
X146237411Y-45063676D02*
X146189792Y-45158914D01*
X146189792Y-45158914D02*
X146142173Y-45349390D01*
X146142173Y-45349390D02*
X146142173Y-45492247D01*
X146142173Y-45492247D02*
X146189792Y-45682723D01*
X146189792Y-45682723D02*
X146237411Y-45777961D01*
X146237411Y-45777961D02*
X146332649Y-45873200D01*
X146332649Y-45873200D02*
X146475506Y-45920819D01*
X146475506Y-45920819D02*
X146713601Y-45920819D01*
D11*
X80984814Y-117854331D02*
X81026481Y-117806712D01*
X81026481Y-117806712D02*
X81103862Y-117663855D01*
X81103862Y-117663855D02*
X81139576Y-117568617D01*
X81139576Y-117568617D02*
X81169338Y-117425760D01*
X81169338Y-117425760D02*
X81187195Y-117187664D01*
X81187195Y-117187664D02*
X81163386Y-116997188D01*
X81163386Y-116997188D02*
X81086005Y-116759093D01*
X81086005Y-116759093D02*
X81020529Y-116616236D01*
X81020529Y-116616236D02*
X80961005Y-116520998D01*
X80961005Y-116520998D02*
X80847910Y-116378140D01*
X80847910Y-116378140D02*
X80794338Y-116330521D01*
X80490766Y-116949569D02*
X80157433Y-116949569D01*
X80080052Y-117473379D02*
X80556243Y-117473379D01*
X80556243Y-117473379D02*
X80431243Y-116473379D01*
X80431243Y-116473379D02*
X79955052Y-116473379D01*
X79651481Y-117473379D02*
X79568147Y-116806712D01*
X79580052Y-116901950D02*
X79526481Y-116854331D01*
X79526481Y-116854331D02*
X79425290Y-116806712D01*
X79425290Y-116806712D02*
X79282433Y-116806712D01*
X79282433Y-116806712D02*
X79193147Y-116854331D01*
X79193147Y-116854331D02*
X79157433Y-116949569D01*
X79157433Y-116949569D02*
X79222909Y-117473379D01*
X79157433Y-116949569D02*
X79097909Y-116854331D01*
X79097909Y-116854331D02*
X78996719Y-116806712D01*
X78996719Y-116806712D02*
X78853862Y-116806712D01*
X78853862Y-116806712D02*
X78764576Y-116854331D01*
X78764576Y-116854331D02*
X78728862Y-116949569D01*
X78728862Y-116949569D02*
X78794338Y-117473379D01*
X78318148Y-117473379D02*
X78234814Y-116806712D01*
X78193148Y-116473379D02*
X78246719Y-116520998D01*
X78246719Y-116520998D02*
X78205052Y-116568617D01*
X78205052Y-116568617D02*
X78151481Y-116520998D01*
X78151481Y-116520998D02*
X78193148Y-116473379D01*
X78193148Y-116473379D02*
X78205052Y-116568617D01*
X77699101Y-117473379D02*
X77788386Y-117425760D01*
X77788386Y-117425760D02*
X77824101Y-117330521D01*
X77824101Y-117330521D02*
X77716958Y-116473379D01*
X77330052Y-116806712D02*
X77175291Y-117473379D01*
X76853862Y-116806712D02*
X77175291Y-117473379D01*
X77175291Y-117473379D02*
X77300291Y-117711474D01*
X77300291Y-117711474D02*
X77353862Y-117759093D01*
X77353862Y-117759093D02*
X77455052Y-117806712D01*
X75794338Y-117473379D02*
X75669338Y-116473379D01*
X75669338Y-116473379D02*
X75431242Y-116473379D01*
X75431242Y-116473379D02*
X75294338Y-116520998D01*
X75294338Y-116520998D02*
X75211004Y-116616236D01*
X75211004Y-116616236D02*
X75175290Y-116711474D01*
X75175290Y-116711474D02*
X75151481Y-116901950D01*
X75151481Y-116901950D02*
X75169338Y-117044807D01*
X75169338Y-117044807D02*
X75240766Y-117235283D01*
X75240766Y-117235283D02*
X75300290Y-117330521D01*
X75300290Y-117330521D02*
X75407433Y-117425760D01*
X75407433Y-117425760D02*
X75556242Y-117473379D01*
X75556242Y-117473379D02*
X75794338Y-117473379D01*
X74794338Y-117473379D02*
X74711004Y-116806712D01*
X74669338Y-116473379D02*
X74722909Y-116520998D01*
X74722909Y-116520998D02*
X74681242Y-116568617D01*
X74681242Y-116568617D02*
X74627671Y-116520998D01*
X74627671Y-116520998D02*
X74669338Y-116473379D01*
X74669338Y-116473379D02*
X74681242Y-116568617D01*
X73883624Y-117425760D02*
X73984814Y-117473379D01*
X73984814Y-117473379D02*
X74175291Y-117473379D01*
X74175291Y-117473379D02*
X74264576Y-117425760D01*
X74264576Y-117425760D02*
X74306243Y-117378140D01*
X74306243Y-117378140D02*
X74341957Y-117282902D01*
X74341957Y-117282902D02*
X74306243Y-116997188D01*
X74306243Y-116997188D02*
X74246719Y-116901950D01*
X74246719Y-116901950D02*
X74193148Y-116854331D01*
X74193148Y-116854331D02*
X74091957Y-116806712D01*
X74091957Y-116806712D02*
X73901481Y-116806712D01*
X73901481Y-116806712D02*
X73812195Y-116854331D01*
X73461005Y-117473379D02*
X73336005Y-116473379D01*
X73318148Y-117092426D02*
X73080052Y-117473379D01*
X72996719Y-116806712D02*
X73425290Y-117187664D01*
X72651481Y-117473379D02*
X72568147Y-116806712D01*
X72526481Y-116473379D02*
X72580052Y-116520998D01*
X72580052Y-116520998D02*
X72538385Y-116568617D01*
X72538385Y-116568617D02*
X72484814Y-116520998D01*
X72484814Y-116520998D02*
X72526481Y-116473379D01*
X72526481Y-116473379D02*
X72538385Y-116568617D01*
X72091957Y-116806712D02*
X72175291Y-117473379D01*
X72103862Y-116901950D02*
X72050291Y-116854331D01*
X72050291Y-116854331D02*
X71949100Y-116806712D01*
X71949100Y-116806712D02*
X71806243Y-116806712D01*
X71806243Y-116806712D02*
X71716957Y-116854331D01*
X71716957Y-116854331D02*
X71681243Y-116949569D01*
X71681243Y-116949569D02*
X71746719Y-117473379D01*
X71312195Y-117425760D02*
X71222910Y-117473379D01*
X71222910Y-117473379D02*
X71032433Y-117473379D01*
X71032433Y-117473379D02*
X70931243Y-117425760D01*
X70931243Y-117425760D02*
X70871719Y-117330521D01*
X70871719Y-117330521D02*
X70865767Y-117282902D01*
X70865767Y-117282902D02*
X70901481Y-117187664D01*
X70901481Y-117187664D02*
X70990767Y-117140045D01*
X70990767Y-117140045D02*
X71133624Y-117140045D01*
X71133624Y-117140045D02*
X71222910Y-117092426D01*
X71222910Y-117092426D02*
X71258624Y-116997188D01*
X71258624Y-116997188D02*
X71252672Y-116949569D01*
X71252672Y-116949569D02*
X71193148Y-116854331D01*
X71193148Y-116854331D02*
X71091957Y-116806712D01*
X71091957Y-116806712D02*
X70949100Y-116806712D01*
X70949100Y-116806712D02*
X70859814Y-116854331D01*
X70318148Y-117473379D02*
X70407433Y-117425760D01*
X70407433Y-117425760D02*
X70449100Y-117378140D01*
X70449100Y-117378140D02*
X70484814Y-117282902D01*
X70484814Y-117282902D02*
X70449100Y-116997188D01*
X70449100Y-116997188D02*
X70389576Y-116901950D01*
X70389576Y-116901950D02*
X70336005Y-116854331D01*
X70336005Y-116854331D02*
X70234814Y-116806712D01*
X70234814Y-116806712D02*
X70091957Y-116806712D01*
X70091957Y-116806712D02*
X70002671Y-116854331D01*
X70002671Y-116854331D02*
X69961005Y-116901950D01*
X69961005Y-116901950D02*
X69925290Y-116997188D01*
X69925290Y-116997188D02*
X69961005Y-117282902D01*
X69961005Y-117282902D02*
X70020528Y-117378140D01*
X70020528Y-117378140D02*
X70074100Y-117425760D01*
X70074100Y-117425760D02*
X70175290Y-117473379D01*
X70175290Y-117473379D02*
X70318148Y-117473379D01*
X69472909Y-116806712D02*
X69556243Y-117473379D01*
X69484814Y-116901950D02*
X69431243Y-116854331D01*
X69431243Y-116854331D02*
X69330052Y-116806712D01*
X69330052Y-116806712D02*
X69187195Y-116806712D01*
X69187195Y-116806712D02*
X69097909Y-116854331D01*
X69097909Y-116854331D02*
X69062195Y-116949569D01*
X69062195Y-116949569D02*
X69127671Y-117473379D01*
X68794338Y-117854331D02*
X68740766Y-117806712D01*
X68740766Y-117806712D02*
X68627671Y-117663855D01*
X68627671Y-117663855D02*
X68568147Y-117568617D01*
X68568147Y-117568617D02*
X68502671Y-117425760D01*
X68502671Y-117425760D02*
X68425290Y-117187664D01*
X68425290Y-117187664D02*
X68401481Y-116997188D01*
X68401481Y-116997188D02*
X68419338Y-116759093D01*
X68419338Y-116759093D02*
X68449100Y-116616236D01*
X68449100Y-116616236D02*
X68484814Y-116520998D01*
X68484814Y-116520998D02*
X68562195Y-116378140D01*
X68562195Y-116378140D02*
X68603862Y-116330521D01*
D10*
X148904077Y-42380819D02*
X148332649Y-42380819D01*
X148618363Y-43380819D02*
X148618363Y-42380819D01*
X147999315Y-42857009D02*
X147665982Y-42857009D01*
X147523125Y-43380819D02*
X147999315Y-43380819D01*
X147999315Y-43380819D02*
X147999315Y-42380819D01*
X147999315Y-42380819D02*
X147523125Y-42380819D01*
X147094553Y-43380819D02*
X147094553Y-42380819D01*
X147094553Y-42380819D02*
X146761220Y-43095104D01*
X146761220Y-43095104D02*
X146427887Y-42380819D01*
X146427887Y-42380819D02*
X146427887Y-43380819D01*
X145951696Y-43380819D02*
X145951696Y-42380819D01*
X145951696Y-42380819D02*
X145570744Y-42380819D01*
X145570744Y-42380819D02*
X145475506Y-42428438D01*
X145475506Y-42428438D02*
X145427887Y-42476057D01*
X145427887Y-42476057D02*
X145380268Y-42571295D01*
X145380268Y-42571295D02*
X145380268Y-42714152D01*
X145380268Y-42714152D02*
X145427887Y-42809390D01*
X145427887Y-42809390D02*
X145475506Y-42857009D01*
X145475506Y-42857009D02*
X145570744Y-42904628D01*
X145570744Y-42904628D02*
X145951696Y-42904628D01*
D12*
X94008906Y-93765119D02*
X93770811Y-94765119D01*
X93770811Y-94765119D02*
X93580335Y-94050833D01*
X93580335Y-94050833D02*
X93389859Y-94765119D01*
X93389859Y-94765119D02*
X93151764Y-93765119D01*
X92770811Y-94765119D02*
X92770811Y-94098452D01*
X92770811Y-93765119D02*
X92818430Y-93812738D01*
X92818430Y-93812738D02*
X92770811Y-93860357D01*
X92770811Y-93860357D02*
X92723192Y-93812738D01*
X92723192Y-93812738D02*
X92770811Y-93765119D01*
X92770811Y-93765119D02*
X92770811Y-93860357D01*
X92151764Y-94765119D02*
X92247002Y-94717500D01*
X92247002Y-94717500D02*
X92294621Y-94622261D01*
X92294621Y-94622261D02*
X92294621Y-93765119D01*
X91342240Y-94765119D02*
X91342240Y-93765119D01*
X91342240Y-94717500D02*
X91437478Y-94765119D01*
X91437478Y-94765119D02*
X91627954Y-94765119D01*
X91627954Y-94765119D02*
X91723192Y-94717500D01*
X91723192Y-94717500D02*
X91770811Y-94669880D01*
X91770811Y-94669880D02*
X91818430Y-94574642D01*
X91818430Y-94574642D02*
X91818430Y-94288928D01*
X91818430Y-94288928D02*
X91770811Y-94193690D01*
X91770811Y-94193690D02*
X91723192Y-94146071D01*
X91723192Y-94146071D02*
X91627954Y-94098452D01*
X91627954Y-94098452D02*
X91437478Y-94098452D01*
X91437478Y-94098452D02*
X91342240Y-94146071D01*
X90104144Y-94098452D02*
X90104144Y-94765119D01*
X90104144Y-94193690D02*
X90056525Y-94146071D01*
X90056525Y-94146071D02*
X89961287Y-94098452D01*
X89961287Y-94098452D02*
X89818430Y-94098452D01*
X89818430Y-94098452D02*
X89723192Y-94146071D01*
X89723192Y-94146071D02*
X89675573Y-94241309D01*
X89675573Y-94241309D02*
X89675573Y-94765119D01*
X89199382Y-94765119D02*
X89199382Y-94098452D01*
X89199382Y-93765119D02*
X89247001Y-93812738D01*
X89247001Y-93812738D02*
X89199382Y-93860357D01*
X89199382Y-93860357D02*
X89151763Y-93812738D01*
X89151763Y-93812738D02*
X89199382Y-93765119D01*
X89199382Y-93765119D02*
X89199382Y-93860357D01*
X88294621Y-94098452D02*
X88294621Y-94907976D01*
X88294621Y-94907976D02*
X88342240Y-95003214D01*
X88342240Y-95003214D02*
X88389859Y-95050833D01*
X88389859Y-95050833D02*
X88485097Y-95098452D01*
X88485097Y-95098452D02*
X88627954Y-95098452D01*
X88627954Y-95098452D02*
X88723192Y-95050833D01*
X88294621Y-94717500D02*
X88389859Y-94765119D01*
X88389859Y-94765119D02*
X88580335Y-94765119D01*
X88580335Y-94765119D02*
X88675573Y-94717500D01*
X88675573Y-94717500D02*
X88723192Y-94669880D01*
X88723192Y-94669880D02*
X88770811Y-94574642D01*
X88770811Y-94574642D02*
X88770811Y-94288928D01*
X88770811Y-94288928D02*
X88723192Y-94193690D01*
X88723192Y-94193690D02*
X88675573Y-94146071D01*
X88675573Y-94146071D02*
X88580335Y-94098452D01*
X88580335Y-94098452D02*
X88389859Y-94098452D01*
X88389859Y-94098452D02*
X88294621Y-94146071D01*
X87818430Y-94765119D02*
X87818430Y-93765119D01*
X87389859Y-94765119D02*
X87389859Y-94241309D01*
X87389859Y-94241309D02*
X87437478Y-94146071D01*
X87437478Y-94146071D02*
X87532716Y-94098452D01*
X87532716Y-94098452D02*
X87675573Y-94098452D01*
X87675573Y-94098452D02*
X87770811Y-94146071D01*
X87770811Y-94146071D02*
X87818430Y-94193690D01*
X87056525Y-94098452D02*
X86675573Y-94098452D01*
X86913668Y-93765119D02*
X86913668Y-94622261D01*
X86913668Y-94622261D02*
X86866049Y-94717500D01*
X86866049Y-94717500D02*
X86770811Y-94765119D01*
X86770811Y-94765119D02*
X86675573Y-94765119D01*
X86389858Y-94717500D02*
X86294620Y-94765119D01*
X86294620Y-94765119D02*
X86104144Y-94765119D01*
X86104144Y-94765119D02*
X86008906Y-94717500D01*
X86008906Y-94717500D02*
X85961287Y-94622261D01*
X85961287Y-94622261D02*
X85961287Y-94574642D01*
X85961287Y-94574642D02*
X86008906Y-94479404D01*
X86008906Y-94479404D02*
X86104144Y-94431785D01*
X86104144Y-94431785D02*
X86247001Y-94431785D01*
X86247001Y-94431785D02*
X86342239Y-94384166D01*
X86342239Y-94384166D02*
X86389858Y-94288928D01*
X86389858Y-94288928D02*
X86389858Y-94241309D01*
X86389858Y-94241309D02*
X86342239Y-94146071D01*
X86342239Y-94146071D02*
X86247001Y-94098452D01*
X86247001Y-94098452D02*
X86104144Y-94098452D01*
X86104144Y-94098452D02*
X86008906Y-94146071D01*
X84770810Y-94384166D02*
X84008906Y-94384166D01*
X82866048Y-93765119D02*
X82627953Y-94765119D01*
X82627953Y-94765119D02*
X82437477Y-94050833D01*
X82437477Y-94050833D02*
X82247001Y-94765119D01*
X82247001Y-94765119D02*
X82008906Y-93765119D01*
X81627953Y-94765119D02*
X81627953Y-94098452D01*
X81627953Y-93765119D02*
X81675572Y-93812738D01*
X81675572Y-93812738D02*
X81627953Y-93860357D01*
X81627953Y-93860357D02*
X81580334Y-93812738D01*
X81580334Y-93812738D02*
X81627953Y-93765119D01*
X81627953Y-93765119D02*
X81627953Y-93860357D01*
X81008906Y-94765119D02*
X81104144Y-94717500D01*
X81104144Y-94717500D02*
X81151763Y-94622261D01*
X81151763Y-94622261D02*
X81151763Y-93765119D01*
X80199382Y-94765119D02*
X80199382Y-93765119D01*
X80199382Y-94717500D02*
X80294620Y-94765119D01*
X80294620Y-94765119D02*
X80485096Y-94765119D01*
X80485096Y-94765119D02*
X80580334Y-94717500D01*
X80580334Y-94717500D02*
X80627953Y-94669880D01*
X80627953Y-94669880D02*
X80675572Y-94574642D01*
X80675572Y-94574642D02*
X80675572Y-94288928D01*
X80675572Y-94288928D02*
X80627953Y-94193690D01*
X80627953Y-94193690D02*
X80580334Y-94146071D01*
X80580334Y-94146071D02*
X80485096Y-94098452D01*
X80485096Y-94098452D02*
X80294620Y-94098452D01*
X80294620Y-94098452D02*
X80199382Y-94146071D01*
X78961286Y-94098452D02*
X78961286Y-94765119D01*
X78961286Y-94193690D02*
X78913667Y-94146071D01*
X78913667Y-94146071D02*
X78818429Y-94098452D01*
X78818429Y-94098452D02*
X78675572Y-94098452D01*
X78675572Y-94098452D02*
X78580334Y-94146071D01*
X78580334Y-94146071D02*
X78532715Y-94241309D01*
X78532715Y-94241309D02*
X78532715Y-94765119D01*
X78056524Y-94765119D02*
X78056524Y-94098452D01*
X78056524Y-93765119D02*
X78104143Y-93812738D01*
X78104143Y-93812738D02*
X78056524Y-93860357D01*
X78056524Y-93860357D02*
X78008905Y-93812738D01*
X78008905Y-93812738D02*
X78056524Y-93765119D01*
X78056524Y-93765119D02*
X78056524Y-93860357D01*
X77151763Y-94098452D02*
X77151763Y-94907976D01*
X77151763Y-94907976D02*
X77199382Y-95003214D01*
X77199382Y-95003214D02*
X77247001Y-95050833D01*
X77247001Y-95050833D02*
X77342239Y-95098452D01*
X77342239Y-95098452D02*
X77485096Y-95098452D01*
X77485096Y-95098452D02*
X77580334Y-95050833D01*
X77151763Y-94717500D02*
X77247001Y-94765119D01*
X77247001Y-94765119D02*
X77437477Y-94765119D01*
X77437477Y-94765119D02*
X77532715Y-94717500D01*
X77532715Y-94717500D02*
X77580334Y-94669880D01*
X77580334Y-94669880D02*
X77627953Y-94574642D01*
X77627953Y-94574642D02*
X77627953Y-94288928D01*
X77627953Y-94288928D02*
X77580334Y-94193690D01*
X77580334Y-94193690D02*
X77532715Y-94146071D01*
X77532715Y-94146071D02*
X77437477Y-94098452D01*
X77437477Y-94098452D02*
X77247001Y-94098452D01*
X77247001Y-94098452D02*
X77151763Y-94146071D01*
X76675572Y-94765119D02*
X76675572Y-93765119D01*
X76247001Y-94765119D02*
X76247001Y-94241309D01*
X76247001Y-94241309D02*
X76294620Y-94146071D01*
X76294620Y-94146071D02*
X76389858Y-94098452D01*
X76389858Y-94098452D02*
X76532715Y-94098452D01*
X76532715Y-94098452D02*
X76627953Y-94146071D01*
X76627953Y-94146071D02*
X76675572Y-94193690D01*
X75913667Y-94098452D02*
X75532715Y-94098452D01*
X75770810Y-93765119D02*
X75770810Y-94622261D01*
X75770810Y-94622261D02*
X75723191Y-94717500D01*
X75723191Y-94717500D02*
X75627953Y-94765119D01*
X75627953Y-94765119D02*
X75532715Y-94765119D01*
X75247000Y-94717500D02*
X75151762Y-94765119D01*
X75151762Y-94765119D02*
X74961286Y-94765119D01*
X74961286Y-94765119D02*
X74866048Y-94717500D01*
X74866048Y-94717500D02*
X74818429Y-94622261D01*
X74818429Y-94622261D02*
X74818429Y-94574642D01*
X74818429Y-94574642D02*
X74866048Y-94479404D01*
X74866048Y-94479404D02*
X74961286Y-94431785D01*
X74961286Y-94431785D02*
X75104143Y-94431785D01*
X75104143Y-94431785D02*
X75199381Y-94384166D01*
X75199381Y-94384166D02*
X75247000Y-94288928D01*
X75247000Y-94288928D02*
X75247000Y-94241309D01*
X75247000Y-94241309D02*
X75199381Y-94146071D01*
X75199381Y-94146071D02*
X75104143Y-94098452D01*
X75104143Y-94098452D02*
X74961286Y-94098452D01*
X74961286Y-94098452D02*
X74866048Y-94146071D01*
X74389857Y-94669880D02*
X74342238Y-94717500D01*
X74342238Y-94717500D02*
X74389857Y-94765119D01*
X74389857Y-94765119D02*
X74437476Y-94717500D01*
X74437476Y-94717500D02*
X74389857Y-94669880D01*
X74389857Y-94669880D02*
X74389857Y-94765119D01*
X74389857Y-94384166D02*
X74437476Y-93812738D01*
X74437476Y-93812738D02*
X74389857Y-93765119D01*
X74389857Y-93765119D02*
X74342238Y-93812738D01*
X74342238Y-93812738D02*
X74389857Y-94384166D01*
X74389857Y-94384166D02*
X74389857Y-93765119D01*
X94008906Y-95375119D02*
X93770811Y-96375119D01*
X93770811Y-96375119D02*
X93580335Y-95660833D01*
X93580335Y-95660833D02*
X93389859Y-96375119D01*
X93389859Y-96375119D02*
X93151764Y-95375119D01*
X92389859Y-96327500D02*
X92485097Y-96375119D01*
X92485097Y-96375119D02*
X92675573Y-96375119D01*
X92675573Y-96375119D02*
X92770811Y-96327500D01*
X92770811Y-96327500D02*
X92818430Y-96232261D01*
X92818430Y-96232261D02*
X92818430Y-95851309D01*
X92818430Y-95851309D02*
X92770811Y-95756071D01*
X92770811Y-95756071D02*
X92675573Y-95708452D01*
X92675573Y-95708452D02*
X92485097Y-95708452D01*
X92485097Y-95708452D02*
X92389859Y-95756071D01*
X92389859Y-95756071D02*
X92342240Y-95851309D01*
X92342240Y-95851309D02*
X92342240Y-95946547D01*
X92342240Y-95946547D02*
X92818430Y-96041785D01*
X91913668Y-96375119D02*
X91913668Y-95708452D01*
X91913668Y-95898928D02*
X91866049Y-95803690D01*
X91866049Y-95803690D02*
X91818430Y-95756071D01*
X91818430Y-95756071D02*
X91723192Y-95708452D01*
X91723192Y-95708452D02*
X91627954Y-95708452D01*
X90913668Y-96327500D02*
X91008906Y-96375119D01*
X91008906Y-96375119D02*
X91199382Y-96375119D01*
X91199382Y-96375119D02*
X91294620Y-96327500D01*
X91294620Y-96327500D02*
X91342239Y-96232261D01*
X91342239Y-96232261D02*
X91342239Y-95851309D01*
X91342239Y-95851309D02*
X91294620Y-95756071D01*
X91294620Y-95756071D02*
X91199382Y-95708452D01*
X91199382Y-95708452D02*
X91008906Y-95708452D01*
X91008906Y-95708452D02*
X90913668Y-95756071D01*
X90913668Y-95756071D02*
X90866049Y-95851309D01*
X90866049Y-95851309D02*
X90866049Y-95946547D01*
X90866049Y-95946547D02*
X91342239Y-96041785D01*
X89675572Y-96375119D02*
X89675572Y-95375119D01*
X88532715Y-95708452D02*
X88342239Y-96375119D01*
X88342239Y-96375119D02*
X88151763Y-95898928D01*
X88151763Y-95898928D02*
X87961287Y-96375119D01*
X87961287Y-96375119D02*
X87770811Y-95708452D01*
X87389858Y-96375119D02*
X87389858Y-95708452D01*
X87389858Y-95375119D02*
X87437477Y-95422738D01*
X87437477Y-95422738D02*
X87389858Y-95470357D01*
X87389858Y-95470357D02*
X87342239Y-95422738D01*
X87342239Y-95422738D02*
X87389858Y-95375119D01*
X87389858Y-95375119D02*
X87389858Y-95470357D01*
X87056525Y-95708452D02*
X86675573Y-95708452D01*
X86913668Y-95375119D02*
X86913668Y-96232261D01*
X86913668Y-96232261D02*
X86866049Y-96327500D01*
X86866049Y-96327500D02*
X86770811Y-96375119D01*
X86770811Y-96375119D02*
X86675573Y-96375119D01*
X86342239Y-96375119D02*
X86342239Y-95375119D01*
X85913668Y-96375119D02*
X85913668Y-95851309D01*
X85913668Y-95851309D02*
X85961287Y-95756071D01*
X85961287Y-95756071D02*
X86056525Y-95708452D01*
X86056525Y-95708452D02*
X86199382Y-95708452D01*
X86199382Y-95708452D02*
X86294620Y-95756071D01*
X86294620Y-95756071D02*
X86342239Y-95803690D01*
X84818429Y-95708452D02*
X84437477Y-95708452D01*
X84675572Y-95375119D02*
X84675572Y-96232261D01*
X84675572Y-96232261D02*
X84627953Y-96327500D01*
X84627953Y-96327500D02*
X84532715Y-96375119D01*
X84532715Y-96375119D02*
X84437477Y-96375119D01*
X84104143Y-96375119D02*
X84104143Y-95375119D01*
X83675572Y-96375119D02*
X83675572Y-95851309D01*
X83675572Y-95851309D02*
X83723191Y-95756071D01*
X83723191Y-95756071D02*
X83818429Y-95708452D01*
X83818429Y-95708452D02*
X83961286Y-95708452D01*
X83961286Y-95708452D02*
X84056524Y-95756071D01*
X84056524Y-95756071D02*
X84104143Y-95803690D01*
X82818429Y-96327500D02*
X82913667Y-96375119D01*
X82913667Y-96375119D02*
X83104143Y-96375119D01*
X83104143Y-96375119D02*
X83199381Y-96327500D01*
X83199381Y-96327500D02*
X83247000Y-96232261D01*
X83247000Y-96232261D02*
X83247000Y-95851309D01*
X83247000Y-95851309D02*
X83199381Y-95756071D01*
X83199381Y-95756071D02*
X83104143Y-95708452D01*
X83104143Y-95708452D02*
X82913667Y-95708452D01*
X82913667Y-95708452D02*
X82818429Y-95756071D01*
X82818429Y-95756071D02*
X82770810Y-95851309D01*
X82770810Y-95851309D02*
X82770810Y-95946547D01*
X82770810Y-95946547D02*
X83247000Y-96041785D01*
X81961286Y-96327500D02*
X82056524Y-96375119D01*
X82056524Y-96375119D02*
X82247000Y-96375119D01*
X82247000Y-96375119D02*
X82342238Y-96327500D01*
X82342238Y-96327500D02*
X82389857Y-96232261D01*
X82389857Y-96232261D02*
X82389857Y-95851309D01*
X82389857Y-95851309D02*
X82342238Y-95756071D01*
X82342238Y-95756071D02*
X82247000Y-95708452D01*
X82247000Y-95708452D02*
X82056524Y-95708452D01*
X82056524Y-95708452D02*
X81961286Y-95756071D01*
X81961286Y-95756071D02*
X81913667Y-95851309D01*
X81913667Y-95851309D02*
X81913667Y-95946547D01*
X81913667Y-95946547D02*
X82389857Y-96041785D01*
X94008906Y-96985119D02*
X93770811Y-97985119D01*
X93770811Y-97985119D02*
X93580335Y-97270833D01*
X93580335Y-97270833D02*
X93389859Y-97985119D01*
X93389859Y-97985119D02*
X93151764Y-96985119D01*
X92770811Y-97985119D02*
X92770811Y-97318452D01*
X92770811Y-96985119D02*
X92818430Y-97032738D01*
X92818430Y-97032738D02*
X92770811Y-97080357D01*
X92770811Y-97080357D02*
X92723192Y-97032738D01*
X92723192Y-97032738D02*
X92770811Y-96985119D01*
X92770811Y-96985119D02*
X92770811Y-97080357D01*
X92151764Y-97985119D02*
X92247002Y-97937500D01*
X92247002Y-97937500D02*
X92294621Y-97842261D01*
X92294621Y-97842261D02*
X92294621Y-96985119D01*
X91342240Y-97985119D02*
X91342240Y-96985119D01*
X91342240Y-97937500D02*
X91437478Y-97985119D01*
X91437478Y-97985119D02*
X91627954Y-97985119D01*
X91627954Y-97985119D02*
X91723192Y-97937500D01*
X91723192Y-97937500D02*
X91770811Y-97889880D01*
X91770811Y-97889880D02*
X91818430Y-97794642D01*
X91818430Y-97794642D02*
X91818430Y-97508928D01*
X91818430Y-97508928D02*
X91770811Y-97413690D01*
X91770811Y-97413690D02*
X91723192Y-97366071D01*
X91723192Y-97366071D02*
X91627954Y-97318452D01*
X91627954Y-97318452D02*
X91437478Y-97318452D01*
X91437478Y-97318452D02*
X91342240Y-97366071D01*
X90104144Y-97318452D02*
X90104144Y-97985119D01*
X90104144Y-97413690D02*
X90056525Y-97366071D01*
X90056525Y-97366071D02*
X89961287Y-97318452D01*
X89961287Y-97318452D02*
X89818430Y-97318452D01*
X89818430Y-97318452D02*
X89723192Y-97366071D01*
X89723192Y-97366071D02*
X89675573Y-97461309D01*
X89675573Y-97461309D02*
X89675573Y-97985119D01*
X89199382Y-97985119D02*
X89199382Y-97318452D01*
X89199382Y-96985119D02*
X89247001Y-97032738D01*
X89247001Y-97032738D02*
X89199382Y-97080357D01*
X89199382Y-97080357D02*
X89151763Y-97032738D01*
X89151763Y-97032738D02*
X89199382Y-96985119D01*
X89199382Y-96985119D02*
X89199382Y-97080357D01*
X88294621Y-97318452D02*
X88294621Y-98127976D01*
X88294621Y-98127976D02*
X88342240Y-98223214D01*
X88342240Y-98223214D02*
X88389859Y-98270833D01*
X88389859Y-98270833D02*
X88485097Y-98318452D01*
X88485097Y-98318452D02*
X88627954Y-98318452D01*
X88627954Y-98318452D02*
X88723192Y-98270833D01*
X88294621Y-97937500D02*
X88389859Y-97985119D01*
X88389859Y-97985119D02*
X88580335Y-97985119D01*
X88580335Y-97985119D02*
X88675573Y-97937500D01*
X88675573Y-97937500D02*
X88723192Y-97889880D01*
X88723192Y-97889880D02*
X88770811Y-97794642D01*
X88770811Y-97794642D02*
X88770811Y-97508928D01*
X88770811Y-97508928D02*
X88723192Y-97413690D01*
X88723192Y-97413690D02*
X88675573Y-97366071D01*
X88675573Y-97366071D02*
X88580335Y-97318452D01*
X88580335Y-97318452D02*
X88389859Y-97318452D01*
X88389859Y-97318452D02*
X88294621Y-97366071D01*
X87818430Y-97985119D02*
X87818430Y-96985119D01*
X87389859Y-97985119D02*
X87389859Y-97461309D01*
X87389859Y-97461309D02*
X87437478Y-97366071D01*
X87437478Y-97366071D02*
X87532716Y-97318452D01*
X87532716Y-97318452D02*
X87675573Y-97318452D01*
X87675573Y-97318452D02*
X87770811Y-97366071D01*
X87770811Y-97366071D02*
X87818430Y-97413690D01*
X87056525Y-97318452D02*
X86675573Y-97318452D01*
X86913668Y-96985119D02*
X86913668Y-97842261D01*
X86913668Y-97842261D02*
X86866049Y-97937500D01*
X86866049Y-97937500D02*
X86770811Y-97985119D01*
X86770811Y-97985119D02*
X86675573Y-97985119D01*
X86389858Y-97937500D02*
X86294620Y-97985119D01*
X86294620Y-97985119D02*
X86104144Y-97985119D01*
X86104144Y-97985119D02*
X86008906Y-97937500D01*
X86008906Y-97937500D02*
X85961287Y-97842261D01*
X85961287Y-97842261D02*
X85961287Y-97794642D01*
X85961287Y-97794642D02*
X86008906Y-97699404D01*
X86008906Y-97699404D02*
X86104144Y-97651785D01*
X86104144Y-97651785D02*
X86247001Y-97651785D01*
X86247001Y-97651785D02*
X86342239Y-97604166D01*
X86342239Y-97604166D02*
X86389858Y-97508928D01*
X86389858Y-97508928D02*
X86389858Y-97461309D01*
X86389858Y-97461309D02*
X86342239Y-97366071D01*
X86342239Y-97366071D02*
X86247001Y-97318452D01*
X86247001Y-97318452D02*
X86104144Y-97318452D01*
X86104144Y-97318452D02*
X86008906Y-97366071D01*
X84818429Y-97937500D02*
X84723191Y-97985119D01*
X84723191Y-97985119D02*
X84532715Y-97985119D01*
X84532715Y-97985119D02*
X84437477Y-97937500D01*
X84437477Y-97937500D02*
X84389858Y-97842261D01*
X84389858Y-97842261D02*
X84389858Y-97794642D01*
X84389858Y-97794642D02*
X84437477Y-97699404D01*
X84437477Y-97699404D02*
X84532715Y-97651785D01*
X84532715Y-97651785D02*
X84675572Y-97651785D01*
X84675572Y-97651785D02*
X84770810Y-97604166D01*
X84770810Y-97604166D02*
X84818429Y-97508928D01*
X84818429Y-97508928D02*
X84818429Y-97461309D01*
X84818429Y-97461309D02*
X84770810Y-97366071D01*
X84770810Y-97366071D02*
X84675572Y-97318452D01*
X84675572Y-97318452D02*
X84532715Y-97318452D01*
X84532715Y-97318452D02*
X84437477Y-97366071D01*
X83961286Y-97985119D02*
X83961286Y-96985119D01*
X83532715Y-97985119D02*
X83532715Y-97461309D01*
X83532715Y-97461309D02*
X83580334Y-97366071D01*
X83580334Y-97366071D02*
X83675572Y-97318452D01*
X83675572Y-97318452D02*
X83818429Y-97318452D01*
X83818429Y-97318452D02*
X83913667Y-97366071D01*
X83913667Y-97366071D02*
X83961286Y-97413690D01*
X82913667Y-97985119D02*
X83008905Y-97937500D01*
X83008905Y-97937500D02*
X83056524Y-97889880D01*
X83056524Y-97889880D02*
X83104143Y-97794642D01*
X83104143Y-97794642D02*
X83104143Y-97508928D01*
X83104143Y-97508928D02*
X83056524Y-97413690D01*
X83056524Y-97413690D02*
X83008905Y-97366071D01*
X83008905Y-97366071D02*
X82913667Y-97318452D01*
X82913667Y-97318452D02*
X82770810Y-97318452D01*
X82770810Y-97318452D02*
X82675572Y-97366071D01*
X82675572Y-97366071D02*
X82627953Y-97413690D01*
X82627953Y-97413690D02*
X82580334Y-97508928D01*
X82580334Y-97508928D02*
X82580334Y-97794642D01*
X82580334Y-97794642D02*
X82627953Y-97889880D01*
X82627953Y-97889880D02*
X82675572Y-97937500D01*
X82675572Y-97937500D02*
X82770810Y-97985119D01*
X82770810Y-97985119D02*
X82913667Y-97985119D01*
X81723191Y-97318452D02*
X81723191Y-97985119D01*
X82151762Y-97318452D02*
X82151762Y-97842261D01*
X82151762Y-97842261D02*
X82104143Y-97937500D01*
X82104143Y-97937500D02*
X82008905Y-97985119D01*
X82008905Y-97985119D02*
X81866048Y-97985119D01*
X81866048Y-97985119D02*
X81770810Y-97937500D01*
X81770810Y-97937500D02*
X81723191Y-97889880D01*
X81104143Y-97985119D02*
X81199381Y-97937500D01*
X81199381Y-97937500D02*
X81247000Y-97842261D01*
X81247000Y-97842261D02*
X81247000Y-96985119D01*
X80294619Y-97985119D02*
X80294619Y-96985119D01*
X80294619Y-97937500D02*
X80389857Y-97985119D01*
X80389857Y-97985119D02*
X80580333Y-97985119D01*
X80580333Y-97985119D02*
X80675571Y-97937500D01*
X80675571Y-97937500D02*
X80723190Y-97889880D01*
X80723190Y-97889880D02*
X80770809Y-97794642D01*
X80770809Y-97794642D02*
X80770809Y-97508928D01*
X80770809Y-97508928D02*
X80723190Y-97413690D01*
X80723190Y-97413690D02*
X80675571Y-97366071D01*
X80675571Y-97366071D02*
X80580333Y-97318452D01*
X80580333Y-97318452D02*
X80389857Y-97318452D01*
X80389857Y-97318452D02*
X80294619Y-97366071D01*
X79056523Y-97985119D02*
X79056523Y-96985119D01*
X79056523Y-97366071D02*
X78961285Y-97318452D01*
X78961285Y-97318452D02*
X78770809Y-97318452D01*
X78770809Y-97318452D02*
X78675571Y-97366071D01*
X78675571Y-97366071D02*
X78627952Y-97413690D01*
X78627952Y-97413690D02*
X78580333Y-97508928D01*
X78580333Y-97508928D02*
X78580333Y-97794642D01*
X78580333Y-97794642D02*
X78627952Y-97889880D01*
X78627952Y-97889880D02*
X78675571Y-97937500D01*
X78675571Y-97937500D02*
X78770809Y-97985119D01*
X78770809Y-97985119D02*
X78961285Y-97985119D01*
X78961285Y-97985119D02*
X79056523Y-97937500D01*
X77770809Y-97937500D02*
X77866047Y-97985119D01*
X77866047Y-97985119D02*
X78056523Y-97985119D01*
X78056523Y-97985119D02*
X78151761Y-97937500D01*
X78151761Y-97937500D02*
X78199380Y-97842261D01*
X78199380Y-97842261D02*
X78199380Y-97461309D01*
X78199380Y-97461309D02*
X78151761Y-97366071D01*
X78151761Y-97366071D02*
X78056523Y-97318452D01*
X78056523Y-97318452D02*
X77866047Y-97318452D01*
X77866047Y-97318452D02*
X77770809Y-97366071D01*
X77770809Y-97366071D02*
X77723190Y-97461309D01*
X77723190Y-97461309D02*
X77723190Y-97556547D01*
X77723190Y-97556547D02*
X78199380Y-97651785D01*
X93723192Y-98595119D02*
X93532716Y-98595119D01*
X93532716Y-98595119D02*
X93437478Y-98642738D01*
X93437478Y-98642738D02*
X93342240Y-98737976D01*
X93342240Y-98737976D02*
X93294621Y-98928452D01*
X93294621Y-98928452D02*
X93294621Y-99261785D01*
X93294621Y-99261785D02*
X93342240Y-99452261D01*
X93342240Y-99452261D02*
X93437478Y-99547500D01*
X93437478Y-99547500D02*
X93532716Y-99595119D01*
X93532716Y-99595119D02*
X93723192Y-99595119D01*
X93723192Y-99595119D02*
X93818430Y-99547500D01*
X93818430Y-99547500D02*
X93913668Y-99452261D01*
X93913668Y-99452261D02*
X93961287Y-99261785D01*
X93961287Y-99261785D02*
X93961287Y-98928452D01*
X93961287Y-98928452D02*
X93913668Y-98737976D01*
X93913668Y-98737976D02*
X93818430Y-98642738D01*
X93818430Y-98642738D02*
X93723192Y-98595119D01*
X92437478Y-98928452D02*
X92437478Y-99595119D01*
X92866049Y-98928452D02*
X92866049Y-99452261D01*
X92866049Y-99452261D02*
X92818430Y-99547500D01*
X92818430Y-99547500D02*
X92723192Y-99595119D01*
X92723192Y-99595119D02*
X92580335Y-99595119D01*
X92580335Y-99595119D02*
X92485097Y-99547500D01*
X92485097Y-99547500D02*
X92437478Y-99499880D01*
X91961287Y-99595119D02*
X91961287Y-98928452D01*
X91961287Y-99118928D02*
X91913668Y-99023690D01*
X91913668Y-99023690D02*
X91866049Y-98976071D01*
X91866049Y-98976071D02*
X91770811Y-98928452D01*
X91770811Y-98928452D02*
X91675573Y-98928452D01*
X90437477Y-99595119D02*
X90532715Y-99547500D01*
X90532715Y-99547500D02*
X90580334Y-99452261D01*
X90580334Y-99452261D02*
X90580334Y-98595119D01*
X89627953Y-98928452D02*
X89627953Y-99595119D01*
X90056524Y-98928452D02*
X90056524Y-99452261D01*
X90056524Y-99452261D02*
X90008905Y-99547500D01*
X90008905Y-99547500D02*
X89913667Y-99595119D01*
X89913667Y-99595119D02*
X89770810Y-99595119D01*
X89770810Y-99595119D02*
X89675572Y-99547500D01*
X89675572Y-99547500D02*
X89627953Y-99499880D01*
X89247000Y-99595119D02*
X88723191Y-98928452D01*
X89247000Y-98928452D02*
X88723191Y-99595119D01*
X87913667Y-98928452D02*
X87913667Y-99595119D01*
X88342238Y-98928452D02*
X88342238Y-99452261D01*
X88342238Y-99452261D02*
X88294619Y-99547500D01*
X88294619Y-99547500D02*
X88199381Y-99595119D01*
X88199381Y-99595119D02*
X88056524Y-99595119D01*
X88056524Y-99595119D02*
X87961286Y-99547500D01*
X87961286Y-99547500D02*
X87913667Y-99499880D01*
X87437476Y-99595119D02*
X87437476Y-98928452D01*
X87437476Y-99118928D02*
X87389857Y-99023690D01*
X87389857Y-99023690D02*
X87342238Y-98976071D01*
X87342238Y-98976071D02*
X87247000Y-98928452D01*
X87247000Y-98928452D02*
X87151762Y-98928452D01*
X86913666Y-98928452D02*
X86675571Y-99595119D01*
X86437476Y-98928452D02*
X86675571Y-99595119D01*
X86675571Y-99595119D02*
X86770809Y-99833214D01*
X86770809Y-99833214D02*
X86818428Y-99880833D01*
X86818428Y-99880833D02*
X86913666Y-99928452D01*
X86056523Y-99499880D02*
X86008904Y-99547500D01*
X86008904Y-99547500D02*
X86056523Y-99595119D01*
X86056523Y-99595119D02*
X86104142Y-99547500D01*
X86104142Y-99547500D02*
X86056523Y-99499880D01*
X86056523Y-99499880D02*
X86056523Y-99595119D01*
X86056523Y-99214166D02*
X86104142Y-98642738D01*
X86104142Y-98642738D02*
X86056523Y-98595119D01*
X86056523Y-98595119D02*
X86008904Y-98642738D01*
X86008904Y-98642738D02*
X86056523Y-99214166D01*
X86056523Y-99214166D02*
X86056523Y-98595119D01*
X93580335Y-102291309D02*
X93913668Y-102291309D01*
X93913668Y-102815119D02*
X93913668Y-101815119D01*
X93913668Y-101815119D02*
X93437478Y-101815119D01*
X92627954Y-102148452D02*
X92627954Y-102815119D01*
X93056525Y-102148452D02*
X93056525Y-102672261D01*
X93056525Y-102672261D02*
X93008906Y-102767500D01*
X93008906Y-102767500D02*
X92913668Y-102815119D01*
X92913668Y-102815119D02*
X92770811Y-102815119D01*
X92770811Y-102815119D02*
X92675573Y-102767500D01*
X92675573Y-102767500D02*
X92627954Y-102719880D01*
X92294620Y-102148452D02*
X91913668Y-102148452D01*
X92151763Y-101815119D02*
X92151763Y-102672261D01*
X92151763Y-102672261D02*
X92104144Y-102767500D01*
X92104144Y-102767500D02*
X92008906Y-102815119D01*
X92008906Y-102815119D02*
X91913668Y-102815119D01*
X91580334Y-102815119D02*
X91580334Y-102148452D01*
X91580334Y-101815119D02*
X91627953Y-101862738D01*
X91627953Y-101862738D02*
X91580334Y-101910357D01*
X91580334Y-101910357D02*
X91532715Y-101862738D01*
X91532715Y-101862738D02*
X91580334Y-101815119D01*
X91580334Y-101815119D02*
X91580334Y-101910357D01*
X90961287Y-102815119D02*
X91056525Y-102767500D01*
X91056525Y-102767500D02*
X91104144Y-102672261D01*
X91104144Y-102672261D02*
X91104144Y-101815119D01*
X90199382Y-102767500D02*
X90294620Y-102815119D01*
X90294620Y-102815119D02*
X90485096Y-102815119D01*
X90485096Y-102815119D02*
X90580334Y-102767500D01*
X90580334Y-102767500D02*
X90627953Y-102672261D01*
X90627953Y-102672261D02*
X90627953Y-102291309D01*
X90627953Y-102291309D02*
X90580334Y-102196071D01*
X90580334Y-102196071D02*
X90485096Y-102148452D01*
X90485096Y-102148452D02*
X90294620Y-102148452D01*
X90294620Y-102148452D02*
X90199382Y-102196071D01*
X90199382Y-102196071D02*
X90151763Y-102291309D01*
X90151763Y-102291309D02*
X90151763Y-102386547D01*
X90151763Y-102386547D02*
X90627953Y-102481785D01*
X88961286Y-102434166D02*
X88199382Y-102434166D01*
X87104143Y-102148452D02*
X86723191Y-102148452D01*
X86961286Y-101815119D02*
X86961286Y-102672261D01*
X86961286Y-102672261D02*
X86913667Y-102767500D01*
X86913667Y-102767500D02*
X86818429Y-102815119D01*
X86818429Y-102815119D02*
X86723191Y-102815119D01*
X86389857Y-102815119D02*
X86389857Y-101815119D01*
X85961286Y-102815119D02*
X85961286Y-102291309D01*
X85961286Y-102291309D02*
X86008905Y-102196071D01*
X86008905Y-102196071D02*
X86104143Y-102148452D01*
X86104143Y-102148452D02*
X86247000Y-102148452D01*
X86247000Y-102148452D02*
X86342238Y-102196071D01*
X86342238Y-102196071D02*
X86389857Y-102243690D01*
X85104143Y-102767500D02*
X85199381Y-102815119D01*
X85199381Y-102815119D02*
X85389857Y-102815119D01*
X85389857Y-102815119D02*
X85485095Y-102767500D01*
X85485095Y-102767500D02*
X85532714Y-102672261D01*
X85532714Y-102672261D02*
X85532714Y-102291309D01*
X85532714Y-102291309D02*
X85485095Y-102196071D01*
X85485095Y-102196071D02*
X85389857Y-102148452D01*
X85389857Y-102148452D02*
X85199381Y-102148452D01*
X85199381Y-102148452D02*
X85104143Y-102196071D01*
X85104143Y-102196071D02*
X85056524Y-102291309D01*
X85056524Y-102291309D02*
X85056524Y-102386547D01*
X85056524Y-102386547D02*
X85532714Y-102481785D01*
X83961285Y-102148452D02*
X83770809Y-102815119D01*
X83770809Y-102815119D02*
X83580333Y-102338928D01*
X83580333Y-102338928D02*
X83389857Y-102815119D01*
X83389857Y-102815119D02*
X83199381Y-102148452D01*
X82818428Y-102815119D02*
X82818428Y-102148452D01*
X82818428Y-101815119D02*
X82866047Y-101862738D01*
X82866047Y-101862738D02*
X82818428Y-101910357D01*
X82818428Y-101910357D02*
X82770809Y-101862738D01*
X82770809Y-101862738D02*
X82818428Y-101815119D01*
X82818428Y-101815119D02*
X82818428Y-101910357D01*
X82342238Y-102148452D02*
X82342238Y-102815119D01*
X82342238Y-102243690D02*
X82294619Y-102196071D01*
X82294619Y-102196071D02*
X82199381Y-102148452D01*
X82199381Y-102148452D02*
X82056524Y-102148452D01*
X82056524Y-102148452D02*
X81961286Y-102196071D01*
X81961286Y-102196071D02*
X81913667Y-102291309D01*
X81913667Y-102291309D02*
X81913667Y-102815119D01*
X81008905Y-102815119D02*
X81008905Y-101815119D01*
X81008905Y-102767500D02*
X81104143Y-102815119D01*
X81104143Y-102815119D02*
X81294619Y-102815119D01*
X81294619Y-102815119D02*
X81389857Y-102767500D01*
X81389857Y-102767500D02*
X81437476Y-102719880D01*
X81437476Y-102719880D02*
X81485095Y-102624642D01*
X81485095Y-102624642D02*
X81485095Y-102338928D01*
X81485095Y-102338928D02*
X81437476Y-102243690D01*
X81437476Y-102243690D02*
X81389857Y-102196071D01*
X81389857Y-102196071D02*
X81294619Y-102148452D01*
X81294619Y-102148452D02*
X81104143Y-102148452D01*
X81104143Y-102148452D02*
X81008905Y-102196071D01*
X80580333Y-102767500D02*
X80485095Y-102815119D01*
X80485095Y-102815119D02*
X80294619Y-102815119D01*
X80294619Y-102815119D02*
X80199381Y-102767500D01*
X80199381Y-102767500D02*
X80151762Y-102672261D01*
X80151762Y-102672261D02*
X80151762Y-102624642D01*
X80151762Y-102624642D02*
X80199381Y-102529404D01*
X80199381Y-102529404D02*
X80294619Y-102481785D01*
X80294619Y-102481785D02*
X80437476Y-102481785D01*
X80437476Y-102481785D02*
X80532714Y-102434166D01*
X80532714Y-102434166D02*
X80580333Y-102338928D01*
X80580333Y-102338928D02*
X80580333Y-102291309D01*
X80580333Y-102291309D02*
X80532714Y-102196071D01*
X80532714Y-102196071D02*
X80437476Y-102148452D01*
X80437476Y-102148452D02*
X80294619Y-102148452D01*
X80294619Y-102148452D02*
X80199381Y-102196071D01*
X78961285Y-102434166D02*
X78199381Y-102434166D01*
X94056525Y-103425119D02*
X93485097Y-103425119D01*
X93770811Y-104425119D02*
X93770811Y-103425119D01*
X93008906Y-104425119D02*
X93104144Y-104377500D01*
X93104144Y-104377500D02*
X93151763Y-104329880D01*
X93151763Y-104329880D02*
X93199382Y-104234642D01*
X93199382Y-104234642D02*
X93199382Y-103948928D01*
X93199382Y-103948928D02*
X93151763Y-103853690D01*
X93151763Y-103853690D02*
X93104144Y-103806071D01*
X93104144Y-103806071D02*
X93008906Y-103758452D01*
X93008906Y-103758452D02*
X92866049Y-103758452D01*
X92866049Y-103758452D02*
X92770811Y-103806071D01*
X92770811Y-103806071D02*
X92723192Y-103853690D01*
X92723192Y-103853690D02*
X92675573Y-103948928D01*
X92675573Y-103948928D02*
X92675573Y-104234642D01*
X92675573Y-104234642D02*
X92723192Y-104329880D01*
X92723192Y-104329880D02*
X92770811Y-104377500D01*
X92770811Y-104377500D02*
X92866049Y-104425119D01*
X92866049Y-104425119D02*
X93008906Y-104425119D01*
X91056525Y-104425119D02*
X91056525Y-103901309D01*
X91056525Y-103901309D02*
X91104144Y-103806071D01*
X91104144Y-103806071D02*
X91199382Y-103758452D01*
X91199382Y-103758452D02*
X91389858Y-103758452D01*
X91389858Y-103758452D02*
X91485096Y-103806071D01*
X91056525Y-104377500D02*
X91151763Y-104425119D01*
X91151763Y-104425119D02*
X91389858Y-104425119D01*
X91389858Y-104425119D02*
X91485096Y-104377500D01*
X91485096Y-104377500D02*
X91532715Y-104282261D01*
X91532715Y-104282261D02*
X91532715Y-104187023D01*
X91532715Y-104187023D02*
X91485096Y-104091785D01*
X91485096Y-104091785D02*
X91389858Y-104044166D01*
X91389858Y-104044166D02*
X91151763Y-104044166D01*
X91151763Y-104044166D02*
X91056525Y-103996547D01*
X89818429Y-104425119D02*
X89818429Y-103425119D01*
X89818429Y-103901309D02*
X89247001Y-103901309D01*
X89247001Y-104425119D02*
X89247001Y-103425119D01*
X88389858Y-104377500D02*
X88485096Y-104425119D01*
X88485096Y-104425119D02*
X88675572Y-104425119D01*
X88675572Y-104425119D02*
X88770810Y-104377500D01*
X88770810Y-104377500D02*
X88818429Y-104282261D01*
X88818429Y-104282261D02*
X88818429Y-103901309D01*
X88818429Y-103901309D02*
X88770810Y-103806071D01*
X88770810Y-103806071D02*
X88675572Y-103758452D01*
X88675572Y-103758452D02*
X88485096Y-103758452D01*
X88485096Y-103758452D02*
X88389858Y-103806071D01*
X88389858Y-103806071D02*
X88342239Y-103901309D01*
X88342239Y-103901309D02*
X88342239Y-103996547D01*
X88342239Y-103996547D02*
X88818429Y-104091785D01*
X87485096Y-104425119D02*
X87485096Y-103901309D01*
X87485096Y-103901309D02*
X87532715Y-103806071D01*
X87532715Y-103806071D02*
X87627953Y-103758452D01*
X87627953Y-103758452D02*
X87818429Y-103758452D01*
X87818429Y-103758452D02*
X87913667Y-103806071D01*
X87485096Y-104377500D02*
X87580334Y-104425119D01*
X87580334Y-104425119D02*
X87818429Y-104425119D01*
X87818429Y-104425119D02*
X87913667Y-104377500D01*
X87913667Y-104377500D02*
X87961286Y-104282261D01*
X87961286Y-104282261D02*
X87961286Y-104187023D01*
X87961286Y-104187023D02*
X87913667Y-104091785D01*
X87913667Y-104091785D02*
X87818429Y-104044166D01*
X87818429Y-104044166D02*
X87580334Y-104044166D01*
X87580334Y-104044166D02*
X87485096Y-103996547D01*
X87008905Y-104425119D02*
X87008905Y-103758452D01*
X87008905Y-103948928D02*
X86961286Y-103853690D01*
X86961286Y-103853690D02*
X86913667Y-103806071D01*
X86913667Y-103806071D02*
X86818429Y-103758452D01*
X86818429Y-103758452D02*
X86723191Y-103758452D01*
X86532714Y-103758452D02*
X86151762Y-103758452D01*
X86389857Y-103425119D02*
X86389857Y-104282261D01*
X86389857Y-104282261D02*
X86342238Y-104377500D01*
X86342238Y-104377500D02*
X86247000Y-104425119D01*
X86247000Y-104425119D02*
X86151762Y-104425119D01*
X85056523Y-104425119D02*
X85056523Y-103758452D01*
X85056523Y-103425119D02*
X85104142Y-103472738D01*
X85104142Y-103472738D02*
X85056523Y-103520357D01*
X85056523Y-103520357D02*
X85008904Y-103472738D01*
X85008904Y-103472738D02*
X85056523Y-103425119D01*
X85056523Y-103425119D02*
X85056523Y-103520357D01*
X84580333Y-103758452D02*
X84580333Y-104425119D01*
X84580333Y-103853690D02*
X84532714Y-103806071D01*
X84532714Y-103806071D02*
X84437476Y-103758452D01*
X84437476Y-103758452D02*
X84294619Y-103758452D01*
X84294619Y-103758452D02*
X84199381Y-103806071D01*
X84199381Y-103806071D02*
X84151762Y-103901309D01*
X84151762Y-103901309D02*
X84151762Y-104425119D01*
X82913666Y-103758452D02*
X82913666Y-104758452D01*
X82913666Y-103806071D02*
X82818428Y-103758452D01*
X82818428Y-103758452D02*
X82627952Y-103758452D01*
X82627952Y-103758452D02*
X82532714Y-103806071D01*
X82532714Y-103806071D02*
X82485095Y-103853690D01*
X82485095Y-103853690D02*
X82437476Y-103948928D01*
X82437476Y-103948928D02*
X82437476Y-104234642D01*
X82437476Y-104234642D02*
X82485095Y-104329880D01*
X82485095Y-104329880D02*
X82532714Y-104377500D01*
X82532714Y-104377500D02*
X82627952Y-104425119D01*
X82627952Y-104425119D02*
X82818428Y-104425119D01*
X82818428Y-104425119D02*
X82913666Y-104377500D01*
X81866047Y-104425119D02*
X81961285Y-104377500D01*
X81961285Y-104377500D02*
X82008904Y-104329880D01*
X82008904Y-104329880D02*
X82056523Y-104234642D01*
X82056523Y-104234642D02*
X82056523Y-103948928D01*
X82056523Y-103948928D02*
X82008904Y-103853690D01*
X82008904Y-103853690D02*
X81961285Y-103806071D01*
X81961285Y-103806071D02*
X81866047Y-103758452D01*
X81866047Y-103758452D02*
X81723190Y-103758452D01*
X81723190Y-103758452D02*
X81627952Y-103806071D01*
X81627952Y-103806071D02*
X81580333Y-103853690D01*
X81580333Y-103853690D02*
X81532714Y-103948928D01*
X81532714Y-103948928D02*
X81532714Y-104234642D01*
X81532714Y-104234642D02*
X81580333Y-104329880D01*
X81580333Y-104329880D02*
X81627952Y-104377500D01*
X81627952Y-104377500D02*
X81723190Y-104425119D01*
X81723190Y-104425119D02*
X81866047Y-104425119D01*
X81104142Y-104425119D02*
X81104142Y-103758452D01*
X81104142Y-103948928D02*
X81056523Y-103853690D01*
X81056523Y-103853690D02*
X81008904Y-103806071D01*
X81008904Y-103806071D02*
X80913666Y-103758452D01*
X80913666Y-103758452D02*
X80818428Y-103758452D01*
X80627951Y-103758452D02*
X80246999Y-103758452D01*
X80485094Y-103425119D02*
X80485094Y-104282261D01*
X80485094Y-104282261D02*
X80437475Y-104377500D01*
X80437475Y-104377500D02*
X80342237Y-104425119D01*
X80342237Y-104425119D02*
X80246999Y-104425119D01*
X79151760Y-104044166D02*
X78389856Y-104044166D01*
X93913668Y-106035119D02*
X93913668Y-105035119D01*
X93913668Y-105035119D02*
X93675573Y-105035119D01*
X93675573Y-105035119D02*
X93532716Y-105082738D01*
X93532716Y-105082738D02*
X93437478Y-105177976D01*
X93437478Y-105177976D02*
X93389859Y-105273214D01*
X93389859Y-105273214D02*
X93342240Y-105463690D01*
X93342240Y-105463690D02*
X93342240Y-105606547D01*
X93342240Y-105606547D02*
X93389859Y-105797023D01*
X93389859Y-105797023D02*
X93437478Y-105892261D01*
X93437478Y-105892261D02*
X93532716Y-105987500D01*
X93532716Y-105987500D02*
X93675573Y-106035119D01*
X93675573Y-106035119D02*
X93913668Y-106035119D01*
X92770811Y-106035119D02*
X92866049Y-105987500D01*
X92866049Y-105987500D02*
X92913668Y-105939880D01*
X92913668Y-105939880D02*
X92961287Y-105844642D01*
X92961287Y-105844642D02*
X92961287Y-105558928D01*
X92961287Y-105558928D02*
X92913668Y-105463690D01*
X92913668Y-105463690D02*
X92866049Y-105416071D01*
X92866049Y-105416071D02*
X92770811Y-105368452D01*
X92770811Y-105368452D02*
X92627954Y-105368452D01*
X92627954Y-105368452D02*
X92532716Y-105416071D01*
X92532716Y-105416071D02*
X92485097Y-105463690D01*
X92485097Y-105463690D02*
X92437478Y-105558928D01*
X92437478Y-105558928D02*
X92437478Y-105844642D01*
X92437478Y-105844642D02*
X92485097Y-105939880D01*
X92485097Y-105939880D02*
X92532716Y-105987500D01*
X92532716Y-105987500D02*
X92627954Y-106035119D01*
X92627954Y-106035119D02*
X92770811Y-106035119D01*
X92008906Y-105368452D02*
X92008906Y-106035119D01*
X92008906Y-105463690D02*
X91961287Y-105416071D01*
X91961287Y-105416071D02*
X91866049Y-105368452D01*
X91866049Y-105368452D02*
X91723192Y-105368452D01*
X91723192Y-105368452D02*
X91627954Y-105416071D01*
X91627954Y-105416071D02*
X91580335Y-105511309D01*
X91580335Y-105511309D02*
X91580335Y-106035119D01*
X90723192Y-105987500D02*
X90818430Y-106035119D01*
X90818430Y-106035119D02*
X91008906Y-106035119D01*
X91008906Y-106035119D02*
X91104144Y-105987500D01*
X91104144Y-105987500D02*
X91151763Y-105892261D01*
X91151763Y-105892261D02*
X91151763Y-105511309D01*
X91151763Y-105511309D02*
X91104144Y-105416071D01*
X91104144Y-105416071D02*
X91008906Y-105368452D01*
X91008906Y-105368452D02*
X90818430Y-105368452D01*
X90818430Y-105368452D02*
X90723192Y-105416071D01*
X90723192Y-105416071D02*
X90675573Y-105511309D01*
X90675573Y-105511309D02*
X90675573Y-105606547D01*
X90675573Y-105606547D02*
X91151763Y-105701785D01*
X89580334Y-105368452D02*
X89389858Y-106035119D01*
X89389858Y-106035119D02*
X89199382Y-105558928D01*
X89199382Y-105558928D02*
X89008906Y-106035119D01*
X89008906Y-106035119D02*
X88818430Y-105368452D01*
X88437477Y-106035119D02*
X88437477Y-105368452D01*
X88437477Y-105035119D02*
X88485096Y-105082738D01*
X88485096Y-105082738D02*
X88437477Y-105130357D01*
X88437477Y-105130357D02*
X88389858Y-105082738D01*
X88389858Y-105082738D02*
X88437477Y-105035119D01*
X88437477Y-105035119D02*
X88437477Y-105130357D01*
X88104144Y-105368452D02*
X87723192Y-105368452D01*
X87961287Y-105035119D02*
X87961287Y-105892261D01*
X87961287Y-105892261D02*
X87913668Y-105987500D01*
X87913668Y-105987500D02*
X87818430Y-106035119D01*
X87818430Y-106035119D02*
X87723192Y-106035119D01*
X87389858Y-106035119D02*
X87389858Y-105035119D01*
X86961287Y-106035119D02*
X86961287Y-105511309D01*
X86961287Y-105511309D02*
X87008906Y-105416071D01*
X87008906Y-105416071D02*
X87104144Y-105368452D01*
X87104144Y-105368452D02*
X87247001Y-105368452D01*
X87247001Y-105368452D02*
X87342239Y-105416071D01*
X87342239Y-105416071D02*
X87389858Y-105463690D01*
X85866048Y-105368452D02*
X85485096Y-105368452D01*
X85723191Y-105035119D02*
X85723191Y-105892261D01*
X85723191Y-105892261D02*
X85675572Y-105987500D01*
X85675572Y-105987500D02*
X85580334Y-106035119D01*
X85580334Y-106035119D02*
X85485096Y-106035119D01*
X85151762Y-106035119D02*
X85151762Y-105035119D01*
X84723191Y-106035119D02*
X84723191Y-105511309D01*
X84723191Y-105511309D02*
X84770810Y-105416071D01*
X84770810Y-105416071D02*
X84866048Y-105368452D01*
X84866048Y-105368452D02*
X85008905Y-105368452D01*
X85008905Y-105368452D02*
X85104143Y-105416071D01*
X85104143Y-105416071D02*
X85151762Y-105463690D01*
X83866048Y-105987500D02*
X83961286Y-106035119D01*
X83961286Y-106035119D02*
X84151762Y-106035119D01*
X84151762Y-106035119D02*
X84247000Y-105987500D01*
X84247000Y-105987500D02*
X84294619Y-105892261D01*
X84294619Y-105892261D02*
X84294619Y-105511309D01*
X84294619Y-105511309D02*
X84247000Y-105416071D01*
X84247000Y-105416071D02*
X84151762Y-105368452D01*
X84151762Y-105368452D02*
X83961286Y-105368452D01*
X83961286Y-105368452D02*
X83866048Y-105416071D01*
X83866048Y-105416071D02*
X83818429Y-105511309D01*
X83818429Y-105511309D02*
X83818429Y-105606547D01*
X83818429Y-105606547D02*
X84294619Y-105701785D01*
X82056524Y-105939880D02*
X82104143Y-105987500D01*
X82104143Y-105987500D02*
X82247000Y-106035119D01*
X82247000Y-106035119D02*
X82342238Y-106035119D01*
X82342238Y-106035119D02*
X82485095Y-105987500D01*
X82485095Y-105987500D02*
X82580333Y-105892261D01*
X82580333Y-105892261D02*
X82627952Y-105797023D01*
X82627952Y-105797023D02*
X82675571Y-105606547D01*
X82675571Y-105606547D02*
X82675571Y-105463690D01*
X82675571Y-105463690D02*
X82627952Y-105273214D01*
X82627952Y-105273214D02*
X82580333Y-105177976D01*
X82580333Y-105177976D02*
X82485095Y-105082738D01*
X82485095Y-105082738D02*
X82342238Y-105035119D01*
X82342238Y-105035119D02*
X82247000Y-105035119D01*
X82247000Y-105035119D02*
X82104143Y-105082738D01*
X82104143Y-105082738D02*
X82056524Y-105130357D01*
X81485095Y-106035119D02*
X81580333Y-105987500D01*
X81580333Y-105987500D02*
X81627952Y-105939880D01*
X81627952Y-105939880D02*
X81675571Y-105844642D01*
X81675571Y-105844642D02*
X81675571Y-105558928D01*
X81675571Y-105558928D02*
X81627952Y-105463690D01*
X81627952Y-105463690D02*
X81580333Y-105416071D01*
X81580333Y-105416071D02*
X81485095Y-105368452D01*
X81485095Y-105368452D02*
X81342238Y-105368452D01*
X81342238Y-105368452D02*
X81247000Y-105416071D01*
X81247000Y-105416071D02*
X81199381Y-105463690D01*
X81199381Y-105463690D02*
X81151762Y-105558928D01*
X81151762Y-105558928D02*
X81151762Y-105844642D01*
X81151762Y-105844642D02*
X81199381Y-105939880D01*
X81199381Y-105939880D02*
X81247000Y-105987500D01*
X81247000Y-105987500D02*
X81342238Y-106035119D01*
X81342238Y-106035119D02*
X81485095Y-106035119D01*
X80723190Y-106035119D02*
X80723190Y-105368452D01*
X80723190Y-105463690D02*
X80675571Y-105416071D01*
X80675571Y-105416071D02*
X80580333Y-105368452D01*
X80580333Y-105368452D02*
X80437476Y-105368452D01*
X80437476Y-105368452D02*
X80342238Y-105416071D01*
X80342238Y-105416071D02*
X80294619Y-105511309D01*
X80294619Y-105511309D02*
X80294619Y-106035119D01*
X80294619Y-105511309D02*
X80247000Y-105416071D01*
X80247000Y-105416071D02*
X80151762Y-105368452D01*
X80151762Y-105368452D02*
X80008905Y-105368452D01*
X80008905Y-105368452D02*
X79913666Y-105416071D01*
X79913666Y-105416071D02*
X79866047Y-105511309D01*
X79866047Y-105511309D02*
X79866047Y-106035119D01*
X79389857Y-105368452D02*
X79389857Y-106368452D01*
X79389857Y-105416071D02*
X79294619Y-105368452D01*
X79294619Y-105368452D02*
X79104143Y-105368452D01*
X79104143Y-105368452D02*
X79008905Y-105416071D01*
X79008905Y-105416071D02*
X78961286Y-105463690D01*
X78961286Y-105463690D02*
X78913667Y-105558928D01*
X78913667Y-105558928D02*
X78913667Y-105844642D01*
X78913667Y-105844642D02*
X78961286Y-105939880D01*
X78961286Y-105939880D02*
X79008905Y-105987500D01*
X79008905Y-105987500D02*
X79104143Y-106035119D01*
X79104143Y-106035119D02*
X79294619Y-106035119D01*
X79294619Y-106035119D02*
X79389857Y-105987500D01*
X78056524Y-106035119D02*
X78056524Y-105511309D01*
X78056524Y-105511309D02*
X78104143Y-105416071D01*
X78104143Y-105416071D02*
X78199381Y-105368452D01*
X78199381Y-105368452D02*
X78389857Y-105368452D01*
X78389857Y-105368452D02*
X78485095Y-105416071D01*
X78056524Y-105987500D02*
X78151762Y-106035119D01*
X78151762Y-106035119D02*
X78389857Y-106035119D01*
X78389857Y-106035119D02*
X78485095Y-105987500D01*
X78485095Y-105987500D02*
X78532714Y-105892261D01*
X78532714Y-105892261D02*
X78532714Y-105797023D01*
X78532714Y-105797023D02*
X78485095Y-105701785D01*
X78485095Y-105701785D02*
X78389857Y-105654166D01*
X78389857Y-105654166D02*
X78151762Y-105654166D01*
X78151762Y-105654166D02*
X78056524Y-105606547D01*
X77627952Y-105987500D02*
X77532714Y-106035119D01*
X77532714Y-106035119D02*
X77342238Y-106035119D01*
X77342238Y-106035119D02*
X77247000Y-105987500D01*
X77247000Y-105987500D02*
X77199381Y-105892261D01*
X77199381Y-105892261D02*
X77199381Y-105844642D01*
X77199381Y-105844642D02*
X77247000Y-105749404D01*
X77247000Y-105749404D02*
X77342238Y-105701785D01*
X77342238Y-105701785D02*
X77485095Y-105701785D01*
X77485095Y-105701785D02*
X77580333Y-105654166D01*
X77580333Y-105654166D02*
X77627952Y-105558928D01*
X77627952Y-105558928D02*
X77627952Y-105511309D01*
X77627952Y-105511309D02*
X77580333Y-105416071D01*
X77580333Y-105416071D02*
X77485095Y-105368452D01*
X77485095Y-105368452D02*
X77342238Y-105368452D01*
X77342238Y-105368452D02*
X77247000Y-105416071D01*
X76818428Y-105987500D02*
X76723190Y-106035119D01*
X76723190Y-106035119D02*
X76532714Y-106035119D01*
X76532714Y-106035119D02*
X76437476Y-105987500D01*
X76437476Y-105987500D02*
X76389857Y-105892261D01*
X76389857Y-105892261D02*
X76389857Y-105844642D01*
X76389857Y-105844642D02*
X76437476Y-105749404D01*
X76437476Y-105749404D02*
X76532714Y-105701785D01*
X76532714Y-105701785D02*
X76675571Y-105701785D01*
X76675571Y-105701785D02*
X76770809Y-105654166D01*
X76770809Y-105654166D02*
X76818428Y-105558928D01*
X76818428Y-105558928D02*
X76818428Y-105511309D01*
X76818428Y-105511309D02*
X76770809Y-105416071D01*
X76770809Y-105416071D02*
X76675571Y-105368452D01*
X76675571Y-105368452D02*
X76532714Y-105368452D01*
X76532714Y-105368452D02*
X76437476Y-105416071D01*
X75199380Y-105654166D02*
X74437476Y-105654166D01*
X93913668Y-107645119D02*
X93913668Y-106645119D01*
X93913668Y-106645119D02*
X93675573Y-106645119D01*
X93675573Y-106645119D02*
X93532716Y-106692738D01*
X93532716Y-106692738D02*
X93437478Y-106787976D01*
X93437478Y-106787976D02*
X93389859Y-106883214D01*
X93389859Y-106883214D02*
X93342240Y-107073690D01*
X93342240Y-107073690D02*
X93342240Y-107216547D01*
X93342240Y-107216547D02*
X93389859Y-107407023D01*
X93389859Y-107407023D02*
X93437478Y-107502261D01*
X93437478Y-107502261D02*
X93532716Y-107597500D01*
X93532716Y-107597500D02*
X93675573Y-107645119D01*
X93675573Y-107645119D02*
X93913668Y-107645119D01*
X92770811Y-107645119D02*
X92866049Y-107597500D01*
X92866049Y-107597500D02*
X92913668Y-107549880D01*
X92913668Y-107549880D02*
X92961287Y-107454642D01*
X92961287Y-107454642D02*
X92961287Y-107168928D01*
X92961287Y-107168928D02*
X92913668Y-107073690D01*
X92913668Y-107073690D02*
X92866049Y-107026071D01*
X92866049Y-107026071D02*
X92770811Y-106978452D01*
X92770811Y-106978452D02*
X92627954Y-106978452D01*
X92627954Y-106978452D02*
X92532716Y-107026071D01*
X92532716Y-107026071D02*
X92485097Y-107073690D01*
X92485097Y-107073690D02*
X92437478Y-107168928D01*
X92437478Y-107168928D02*
X92437478Y-107454642D01*
X92437478Y-107454642D02*
X92485097Y-107549880D01*
X92485097Y-107549880D02*
X92532716Y-107597500D01*
X92532716Y-107597500D02*
X92627954Y-107645119D01*
X92627954Y-107645119D02*
X92770811Y-107645119D01*
X92008906Y-106978452D02*
X92008906Y-107645119D01*
X92008906Y-107073690D02*
X91961287Y-107026071D01*
X91961287Y-107026071D02*
X91866049Y-106978452D01*
X91866049Y-106978452D02*
X91723192Y-106978452D01*
X91723192Y-106978452D02*
X91627954Y-107026071D01*
X91627954Y-107026071D02*
X91580335Y-107121309D01*
X91580335Y-107121309D02*
X91580335Y-107645119D01*
X90723192Y-107597500D02*
X90818430Y-107645119D01*
X90818430Y-107645119D02*
X91008906Y-107645119D01*
X91008906Y-107645119D02*
X91104144Y-107597500D01*
X91104144Y-107597500D02*
X91151763Y-107502261D01*
X91151763Y-107502261D02*
X91151763Y-107121309D01*
X91151763Y-107121309D02*
X91104144Y-107026071D01*
X91104144Y-107026071D02*
X91008906Y-106978452D01*
X91008906Y-106978452D02*
X90818430Y-106978452D01*
X90818430Y-106978452D02*
X90723192Y-107026071D01*
X90723192Y-107026071D02*
X90675573Y-107121309D01*
X90675573Y-107121309D02*
X90675573Y-107216547D01*
X90675573Y-107216547D02*
X91151763Y-107311785D01*
X89580334Y-106978452D02*
X89389858Y-107645119D01*
X89389858Y-107645119D02*
X89199382Y-107168928D01*
X89199382Y-107168928D02*
X89008906Y-107645119D01*
X89008906Y-107645119D02*
X88818430Y-106978452D01*
X88437477Y-107645119D02*
X88437477Y-106978452D01*
X88437477Y-106645119D02*
X88485096Y-106692738D01*
X88485096Y-106692738D02*
X88437477Y-106740357D01*
X88437477Y-106740357D02*
X88389858Y-106692738D01*
X88389858Y-106692738D02*
X88437477Y-106645119D01*
X88437477Y-106645119D02*
X88437477Y-106740357D01*
X88104144Y-106978452D02*
X87723192Y-106978452D01*
X87961287Y-106645119D02*
X87961287Y-107502261D01*
X87961287Y-107502261D02*
X87913668Y-107597500D01*
X87913668Y-107597500D02*
X87818430Y-107645119D01*
X87818430Y-107645119D02*
X87723192Y-107645119D01*
X87389858Y-107645119D02*
X87389858Y-106645119D01*
X86961287Y-107645119D02*
X86961287Y-107121309D01*
X86961287Y-107121309D02*
X87008906Y-107026071D01*
X87008906Y-107026071D02*
X87104144Y-106978452D01*
X87104144Y-106978452D02*
X87247001Y-106978452D01*
X87247001Y-106978452D02*
X87342239Y-107026071D01*
X87342239Y-107026071D02*
X87389858Y-107073690D01*
X85866048Y-106978452D02*
X85485096Y-106978452D01*
X85723191Y-106645119D02*
X85723191Y-107502261D01*
X85723191Y-107502261D02*
X85675572Y-107597500D01*
X85675572Y-107597500D02*
X85580334Y-107645119D01*
X85580334Y-107645119D02*
X85485096Y-107645119D01*
X85151762Y-107645119D02*
X85151762Y-106645119D01*
X84723191Y-107645119D02*
X84723191Y-107121309D01*
X84723191Y-107121309D02*
X84770810Y-107026071D01*
X84770810Y-107026071D02*
X84866048Y-106978452D01*
X84866048Y-106978452D02*
X85008905Y-106978452D01*
X85008905Y-106978452D02*
X85104143Y-107026071D01*
X85104143Y-107026071D02*
X85151762Y-107073690D01*
X83866048Y-107597500D02*
X83961286Y-107645119D01*
X83961286Y-107645119D02*
X84151762Y-107645119D01*
X84151762Y-107645119D02*
X84247000Y-107597500D01*
X84247000Y-107597500D02*
X84294619Y-107502261D01*
X84294619Y-107502261D02*
X84294619Y-107121309D01*
X84294619Y-107121309D02*
X84247000Y-107026071D01*
X84247000Y-107026071D02*
X84151762Y-106978452D01*
X84151762Y-106978452D02*
X83961286Y-106978452D01*
X83961286Y-106978452D02*
X83866048Y-107026071D01*
X83866048Y-107026071D02*
X83818429Y-107121309D01*
X83818429Y-107121309D02*
X83818429Y-107216547D01*
X83818429Y-107216547D02*
X84294619Y-107311785D01*
X82056524Y-107549880D02*
X82104143Y-107597500D01*
X82104143Y-107597500D02*
X82247000Y-107645119D01*
X82247000Y-107645119D02*
X82342238Y-107645119D01*
X82342238Y-107645119D02*
X82485095Y-107597500D01*
X82485095Y-107597500D02*
X82580333Y-107502261D01*
X82580333Y-107502261D02*
X82627952Y-107407023D01*
X82627952Y-107407023D02*
X82675571Y-107216547D01*
X82675571Y-107216547D02*
X82675571Y-107073690D01*
X82675571Y-107073690D02*
X82627952Y-106883214D01*
X82627952Y-106883214D02*
X82580333Y-106787976D01*
X82580333Y-106787976D02*
X82485095Y-106692738D01*
X82485095Y-106692738D02*
X82342238Y-106645119D01*
X82342238Y-106645119D02*
X82247000Y-106645119D01*
X82247000Y-106645119D02*
X82104143Y-106692738D01*
X82104143Y-106692738D02*
X82056524Y-106740357D01*
X81627952Y-107645119D02*
X81627952Y-106645119D01*
X81199381Y-107645119D02*
X81199381Y-107121309D01*
X81199381Y-107121309D02*
X81247000Y-107026071D01*
X81247000Y-107026071D02*
X81342238Y-106978452D01*
X81342238Y-106978452D02*
X81485095Y-106978452D01*
X81485095Y-106978452D02*
X81580333Y-107026071D01*
X81580333Y-107026071D02*
X81627952Y-107073690D01*
X80294619Y-107645119D02*
X80294619Y-107121309D01*
X80294619Y-107121309D02*
X80342238Y-107026071D01*
X80342238Y-107026071D02*
X80437476Y-106978452D01*
X80437476Y-106978452D02*
X80627952Y-106978452D01*
X80627952Y-106978452D02*
X80723190Y-107026071D01*
X80294619Y-107597500D02*
X80389857Y-107645119D01*
X80389857Y-107645119D02*
X80627952Y-107645119D01*
X80627952Y-107645119D02*
X80723190Y-107597500D01*
X80723190Y-107597500D02*
X80770809Y-107502261D01*
X80770809Y-107502261D02*
X80770809Y-107407023D01*
X80770809Y-107407023D02*
X80723190Y-107311785D01*
X80723190Y-107311785D02*
X80627952Y-107264166D01*
X80627952Y-107264166D02*
X80389857Y-107264166D01*
X80389857Y-107264166D02*
X80294619Y-107216547D01*
X79818428Y-107645119D02*
X79818428Y-106978452D01*
X79818428Y-107168928D02*
X79770809Y-107073690D01*
X79770809Y-107073690D02*
X79723190Y-107026071D01*
X79723190Y-107026071D02*
X79627952Y-106978452D01*
X79627952Y-106978452D02*
X79532714Y-106978452D01*
X79342237Y-106978452D02*
X78961285Y-106978452D01*
X79199380Y-106645119D02*
X79199380Y-107502261D01*
X79199380Y-107502261D02*
X79151761Y-107597500D01*
X79151761Y-107597500D02*
X79056523Y-107645119D01*
X79056523Y-107645119D02*
X78961285Y-107645119D01*
X78627951Y-107549880D02*
X78580332Y-107597500D01*
X78580332Y-107597500D02*
X78627951Y-107645119D01*
X78627951Y-107645119D02*
X78675570Y-107597500D01*
X78675570Y-107597500D02*
X78627951Y-107549880D01*
X78627951Y-107549880D02*
X78627951Y-107645119D01*
X78627951Y-107264166D02*
X78675570Y-106692738D01*
X78675570Y-106692738D02*
X78627951Y-106645119D01*
X78627951Y-106645119D02*
X78580332Y-106692738D01*
X78580332Y-106692738D02*
X78627951Y-107264166D01*
X78627951Y-107264166D02*
X78627951Y-106645119D01*
X93342240Y-110865119D02*
X93675573Y-110388928D01*
X93913668Y-110865119D02*
X93913668Y-109865119D01*
X93913668Y-109865119D02*
X93532716Y-109865119D01*
X93532716Y-109865119D02*
X93437478Y-109912738D01*
X93437478Y-109912738D02*
X93389859Y-109960357D01*
X93389859Y-109960357D02*
X93342240Y-110055595D01*
X93342240Y-110055595D02*
X93342240Y-110198452D01*
X93342240Y-110198452D02*
X93389859Y-110293690D01*
X93389859Y-110293690D02*
X93437478Y-110341309D01*
X93437478Y-110341309D02*
X93532716Y-110388928D01*
X93532716Y-110388928D02*
X93913668Y-110388928D01*
X92770811Y-110865119D02*
X92866049Y-110817500D01*
X92866049Y-110817500D02*
X92913668Y-110769880D01*
X92913668Y-110769880D02*
X92961287Y-110674642D01*
X92961287Y-110674642D02*
X92961287Y-110388928D01*
X92961287Y-110388928D02*
X92913668Y-110293690D01*
X92913668Y-110293690D02*
X92866049Y-110246071D01*
X92866049Y-110246071D02*
X92770811Y-110198452D01*
X92770811Y-110198452D02*
X92627954Y-110198452D01*
X92627954Y-110198452D02*
X92532716Y-110246071D01*
X92532716Y-110246071D02*
X92485097Y-110293690D01*
X92485097Y-110293690D02*
X92437478Y-110388928D01*
X92437478Y-110388928D02*
X92437478Y-110674642D01*
X92437478Y-110674642D02*
X92485097Y-110769880D01*
X92485097Y-110769880D02*
X92532716Y-110817500D01*
X92532716Y-110817500D02*
X92627954Y-110865119D01*
X92627954Y-110865119D02*
X92770811Y-110865119D01*
X92104144Y-110198452D02*
X91913668Y-110865119D01*
X91913668Y-110865119D02*
X91723192Y-110388928D01*
X91723192Y-110388928D02*
X91532716Y-110865119D01*
X91532716Y-110865119D02*
X91342240Y-110198452D01*
X90961287Y-110865119D02*
X90961287Y-110198452D01*
X90961287Y-109865119D02*
X91008906Y-109912738D01*
X91008906Y-109912738D02*
X90961287Y-109960357D01*
X90961287Y-109960357D02*
X90913668Y-109912738D01*
X90913668Y-109912738D02*
X90961287Y-109865119D01*
X90961287Y-109865119D02*
X90961287Y-109960357D01*
X90485097Y-110198452D02*
X90485097Y-110865119D01*
X90485097Y-110293690D02*
X90437478Y-110246071D01*
X90437478Y-110246071D02*
X90342240Y-110198452D01*
X90342240Y-110198452D02*
X90199383Y-110198452D01*
X90199383Y-110198452D02*
X90104145Y-110246071D01*
X90104145Y-110246071D02*
X90056526Y-110341309D01*
X90056526Y-110341309D02*
X90056526Y-110865119D01*
X89151764Y-110198452D02*
X89151764Y-111007976D01*
X89151764Y-111007976D02*
X89199383Y-111103214D01*
X89199383Y-111103214D02*
X89247002Y-111150833D01*
X89247002Y-111150833D02*
X89342240Y-111198452D01*
X89342240Y-111198452D02*
X89485097Y-111198452D01*
X89485097Y-111198452D02*
X89580335Y-111150833D01*
X89151764Y-110817500D02*
X89247002Y-110865119D01*
X89247002Y-110865119D02*
X89437478Y-110865119D01*
X89437478Y-110865119D02*
X89532716Y-110817500D01*
X89532716Y-110817500D02*
X89580335Y-110769880D01*
X89580335Y-110769880D02*
X89627954Y-110674642D01*
X89627954Y-110674642D02*
X89627954Y-110388928D01*
X89627954Y-110388928D02*
X89580335Y-110293690D01*
X89580335Y-110293690D02*
X89532716Y-110246071D01*
X89532716Y-110246071D02*
X89437478Y-110198452D01*
X89437478Y-110198452D02*
X89247002Y-110198452D01*
X89247002Y-110198452D02*
X89151764Y-110246071D01*
X87913668Y-110865119D02*
X87913668Y-110198452D01*
X87913668Y-109865119D02*
X87961287Y-109912738D01*
X87961287Y-109912738D02*
X87913668Y-109960357D01*
X87913668Y-109960357D02*
X87866049Y-109912738D01*
X87866049Y-109912738D02*
X87913668Y-109865119D01*
X87913668Y-109865119D02*
X87913668Y-109960357D01*
X87437478Y-110198452D02*
X87437478Y-110865119D01*
X87437478Y-110293690D02*
X87389859Y-110246071D01*
X87389859Y-110246071D02*
X87294621Y-110198452D01*
X87294621Y-110198452D02*
X87151764Y-110198452D01*
X87151764Y-110198452D02*
X87056526Y-110246071D01*
X87056526Y-110246071D02*
X87008907Y-110341309D01*
X87008907Y-110341309D02*
X87008907Y-110865119D01*
X85770811Y-110341309D02*
X85437478Y-110341309D01*
X85294621Y-110865119D02*
X85770811Y-110865119D01*
X85770811Y-110865119D02*
X85770811Y-109865119D01*
X85770811Y-109865119D02*
X85294621Y-109865119D01*
X84437478Y-110865119D02*
X84437478Y-109865119D01*
X84437478Y-110817500D02*
X84532716Y-110865119D01*
X84532716Y-110865119D02*
X84723192Y-110865119D01*
X84723192Y-110865119D02*
X84818430Y-110817500D01*
X84818430Y-110817500D02*
X84866049Y-110769880D01*
X84866049Y-110769880D02*
X84913668Y-110674642D01*
X84913668Y-110674642D02*
X84913668Y-110388928D01*
X84913668Y-110388928D02*
X84866049Y-110293690D01*
X84866049Y-110293690D02*
X84818430Y-110246071D01*
X84818430Y-110246071D02*
X84723192Y-110198452D01*
X84723192Y-110198452D02*
X84532716Y-110198452D01*
X84532716Y-110198452D02*
X84437478Y-110246071D01*
X83580335Y-110817500D02*
X83675573Y-110865119D01*
X83675573Y-110865119D02*
X83866049Y-110865119D01*
X83866049Y-110865119D02*
X83961287Y-110817500D01*
X83961287Y-110817500D02*
X84008906Y-110722261D01*
X84008906Y-110722261D02*
X84008906Y-110341309D01*
X84008906Y-110341309D02*
X83961287Y-110246071D01*
X83961287Y-110246071D02*
X83866049Y-110198452D01*
X83866049Y-110198452D02*
X83675573Y-110198452D01*
X83675573Y-110198452D02*
X83580335Y-110246071D01*
X83580335Y-110246071D02*
X83532716Y-110341309D01*
X83532716Y-110341309D02*
X83532716Y-110436547D01*
X83532716Y-110436547D02*
X84008906Y-110531785D01*
X83104144Y-110198452D02*
X83104144Y-110865119D01*
X83104144Y-110293690D02*
X83056525Y-110246071D01*
X83056525Y-110246071D02*
X82961287Y-110198452D01*
X82961287Y-110198452D02*
X82818430Y-110198452D01*
X82818430Y-110198452D02*
X82723192Y-110246071D01*
X82723192Y-110246071D02*
X82675573Y-110341309D01*
X82675573Y-110341309D02*
X82675573Y-110865119D01*
X81437477Y-110484166D02*
X80675573Y-110484166D01*
X93961287Y-112189404D02*
X93485097Y-112189404D01*
X94056525Y-112475119D02*
X93723192Y-111475119D01*
X93723192Y-111475119D02*
X93389859Y-112475119D01*
X93056525Y-112475119D02*
X93056525Y-111475119D01*
X92627954Y-112475119D02*
X92627954Y-111951309D01*
X92627954Y-111951309D02*
X92675573Y-111856071D01*
X92675573Y-111856071D02*
X92770811Y-111808452D01*
X92770811Y-111808452D02*
X92913668Y-111808452D01*
X92913668Y-111808452D02*
X93008906Y-111856071D01*
X93008906Y-111856071D02*
X93056525Y-111903690D01*
X91389858Y-112094166D02*
X90627954Y-112094166D01*
X89532715Y-111808452D02*
X89151763Y-111808452D01*
X89389858Y-111475119D02*
X89389858Y-112332261D01*
X89389858Y-112332261D02*
X89342239Y-112427500D01*
X89342239Y-112427500D02*
X89247001Y-112475119D01*
X89247001Y-112475119D02*
X89151763Y-112475119D01*
X88818429Y-112475119D02*
X88818429Y-111475119D01*
X88389858Y-112475119D02*
X88389858Y-111951309D01*
X88389858Y-111951309D02*
X88437477Y-111856071D01*
X88437477Y-111856071D02*
X88532715Y-111808452D01*
X88532715Y-111808452D02*
X88675572Y-111808452D01*
X88675572Y-111808452D02*
X88770810Y-111856071D01*
X88770810Y-111856071D02*
X88818429Y-111903690D01*
X87532715Y-112427500D02*
X87627953Y-112475119D01*
X87627953Y-112475119D02*
X87818429Y-112475119D01*
X87818429Y-112475119D02*
X87913667Y-112427500D01*
X87913667Y-112427500D02*
X87961286Y-112332261D01*
X87961286Y-112332261D02*
X87961286Y-111951309D01*
X87961286Y-111951309D02*
X87913667Y-111856071D01*
X87913667Y-111856071D02*
X87818429Y-111808452D01*
X87818429Y-111808452D02*
X87627953Y-111808452D01*
X87627953Y-111808452D02*
X87532715Y-111856071D01*
X87532715Y-111856071D02*
X87485096Y-111951309D01*
X87485096Y-111951309D02*
X87485096Y-112046547D01*
X87485096Y-112046547D02*
X87961286Y-112141785D01*
X86342238Y-112427500D02*
X86199381Y-112475119D01*
X86199381Y-112475119D02*
X85961286Y-112475119D01*
X85961286Y-112475119D02*
X85866048Y-112427500D01*
X85866048Y-112427500D02*
X85818429Y-112379880D01*
X85818429Y-112379880D02*
X85770810Y-112284642D01*
X85770810Y-112284642D02*
X85770810Y-112189404D01*
X85770810Y-112189404D02*
X85818429Y-112094166D01*
X85818429Y-112094166D02*
X85866048Y-112046547D01*
X85866048Y-112046547D02*
X85961286Y-111998928D01*
X85961286Y-111998928D02*
X86151762Y-111951309D01*
X86151762Y-111951309D02*
X86247000Y-111903690D01*
X86247000Y-111903690D02*
X86294619Y-111856071D01*
X86294619Y-111856071D02*
X86342238Y-111760833D01*
X86342238Y-111760833D02*
X86342238Y-111665595D01*
X86342238Y-111665595D02*
X86294619Y-111570357D01*
X86294619Y-111570357D02*
X86247000Y-111522738D01*
X86247000Y-111522738D02*
X86151762Y-111475119D01*
X86151762Y-111475119D02*
X85913667Y-111475119D01*
X85913667Y-111475119D02*
X85770810Y-111522738D01*
X84961286Y-112427500D02*
X85056524Y-112475119D01*
X85056524Y-112475119D02*
X85247000Y-112475119D01*
X85247000Y-112475119D02*
X85342238Y-112427500D01*
X85342238Y-112427500D02*
X85389857Y-112332261D01*
X85389857Y-112332261D02*
X85389857Y-111951309D01*
X85389857Y-111951309D02*
X85342238Y-111856071D01*
X85342238Y-111856071D02*
X85247000Y-111808452D01*
X85247000Y-111808452D02*
X85056524Y-111808452D01*
X85056524Y-111808452D02*
X84961286Y-111856071D01*
X84961286Y-111856071D02*
X84913667Y-111951309D01*
X84913667Y-111951309D02*
X84913667Y-112046547D01*
X84913667Y-112046547D02*
X85389857Y-112141785D01*
X84056524Y-112475119D02*
X84056524Y-111951309D01*
X84056524Y-111951309D02*
X84104143Y-111856071D01*
X84104143Y-111856071D02*
X84199381Y-111808452D01*
X84199381Y-111808452D02*
X84389857Y-111808452D01*
X84389857Y-111808452D02*
X84485095Y-111856071D01*
X84056524Y-112427500D02*
X84151762Y-112475119D01*
X84151762Y-112475119D02*
X84389857Y-112475119D01*
X84389857Y-112475119D02*
X84485095Y-112427500D01*
X84485095Y-112427500D02*
X84532714Y-112332261D01*
X84532714Y-112332261D02*
X84532714Y-112237023D01*
X84532714Y-112237023D02*
X84485095Y-112141785D01*
X84485095Y-112141785D02*
X84389857Y-112094166D01*
X84389857Y-112094166D02*
X84151762Y-112094166D01*
X84151762Y-112094166D02*
X84056524Y-112046547D01*
X83580333Y-112379880D02*
X83532714Y-112427500D01*
X83532714Y-112427500D02*
X83580333Y-112475119D01*
X83580333Y-112475119D02*
X83627952Y-112427500D01*
X83627952Y-112427500D02*
X83580333Y-112379880D01*
X83580333Y-112379880D02*
X83580333Y-112475119D01*
X83580333Y-112094166D02*
X83627952Y-111522738D01*
X83627952Y-111522738D02*
X83580333Y-111475119D01*
X83580333Y-111475119D02*
X83532714Y-111522738D01*
X83532714Y-111522738D02*
X83580333Y-112094166D01*
X83580333Y-112094166D02*
X83580333Y-111475119D01*
X93913668Y-114085119D02*
X93913668Y-113085119D01*
X93913668Y-113085119D02*
X93580335Y-113799404D01*
X93580335Y-113799404D02*
X93247002Y-113085119D01*
X93247002Y-113085119D02*
X93247002Y-114085119D01*
X92770811Y-114085119D02*
X92770811Y-113418452D01*
X92770811Y-113085119D02*
X92818430Y-113132738D01*
X92818430Y-113132738D02*
X92770811Y-113180357D01*
X92770811Y-113180357D02*
X92723192Y-113132738D01*
X92723192Y-113132738D02*
X92770811Y-113085119D01*
X92770811Y-113085119D02*
X92770811Y-113180357D01*
X91866050Y-113418452D02*
X91866050Y-114227976D01*
X91866050Y-114227976D02*
X91913669Y-114323214D01*
X91913669Y-114323214D02*
X91961288Y-114370833D01*
X91961288Y-114370833D02*
X92056526Y-114418452D01*
X92056526Y-114418452D02*
X92199383Y-114418452D01*
X92199383Y-114418452D02*
X92294621Y-114370833D01*
X91866050Y-114037500D02*
X91961288Y-114085119D01*
X91961288Y-114085119D02*
X92151764Y-114085119D01*
X92151764Y-114085119D02*
X92247002Y-114037500D01*
X92247002Y-114037500D02*
X92294621Y-113989880D01*
X92294621Y-113989880D02*
X92342240Y-113894642D01*
X92342240Y-113894642D02*
X92342240Y-113608928D01*
X92342240Y-113608928D02*
X92294621Y-113513690D01*
X92294621Y-113513690D02*
X92247002Y-113466071D01*
X92247002Y-113466071D02*
X92151764Y-113418452D01*
X92151764Y-113418452D02*
X91961288Y-113418452D01*
X91961288Y-113418452D02*
X91866050Y-113466071D01*
X91389859Y-114085119D02*
X91389859Y-113085119D01*
X90961288Y-114085119D02*
X90961288Y-113561309D01*
X90961288Y-113561309D02*
X91008907Y-113466071D01*
X91008907Y-113466071D02*
X91104145Y-113418452D01*
X91104145Y-113418452D02*
X91247002Y-113418452D01*
X91247002Y-113418452D02*
X91342240Y-113466071D01*
X91342240Y-113466071D02*
X91389859Y-113513690D01*
X90627954Y-113418452D02*
X90247002Y-113418452D01*
X90485097Y-113085119D02*
X90485097Y-113942261D01*
X90485097Y-113942261D02*
X90437478Y-114037500D01*
X90437478Y-114037500D02*
X90342240Y-114085119D01*
X90342240Y-114085119D02*
X90247002Y-114085119D01*
X89151763Y-114085119D02*
X89151763Y-113085119D01*
X87913668Y-114085119D02*
X87913668Y-113085119D01*
X87913668Y-113466071D02*
X87818430Y-113418452D01*
X87818430Y-113418452D02*
X87627954Y-113418452D01*
X87627954Y-113418452D02*
X87532716Y-113466071D01*
X87532716Y-113466071D02*
X87485097Y-113513690D01*
X87485097Y-113513690D02*
X87437478Y-113608928D01*
X87437478Y-113608928D02*
X87437478Y-113894642D01*
X87437478Y-113894642D02*
X87485097Y-113989880D01*
X87485097Y-113989880D02*
X87532716Y-114037500D01*
X87532716Y-114037500D02*
X87627954Y-114085119D01*
X87627954Y-114085119D02*
X87818430Y-114085119D01*
X87818430Y-114085119D02*
X87913668Y-114037500D01*
X86580335Y-113418452D02*
X86580335Y-114085119D01*
X87008906Y-113418452D02*
X87008906Y-113942261D01*
X87008906Y-113942261D02*
X86961287Y-114037500D01*
X86961287Y-114037500D02*
X86866049Y-114085119D01*
X86866049Y-114085119D02*
X86723192Y-114085119D01*
X86723192Y-114085119D02*
X86627954Y-114037500D01*
X86627954Y-114037500D02*
X86580335Y-113989880D01*
X86247001Y-113418452D02*
X85866049Y-113418452D01*
X86104144Y-113085119D02*
X86104144Y-113942261D01*
X86104144Y-113942261D02*
X86056525Y-114037500D01*
X86056525Y-114037500D02*
X85961287Y-114085119D01*
X85961287Y-114085119D02*
X85866049Y-114085119D01*
X84770810Y-114085119D02*
X84770810Y-113418452D01*
X84770810Y-113513690D02*
X84723191Y-113466071D01*
X84723191Y-113466071D02*
X84627953Y-113418452D01*
X84627953Y-113418452D02*
X84485096Y-113418452D01*
X84485096Y-113418452D02*
X84389858Y-113466071D01*
X84389858Y-113466071D02*
X84342239Y-113561309D01*
X84342239Y-113561309D02*
X84342239Y-114085119D01*
X84342239Y-113561309D02*
X84294620Y-113466071D01*
X84294620Y-113466071D02*
X84199382Y-113418452D01*
X84199382Y-113418452D02*
X84056525Y-113418452D01*
X84056525Y-113418452D02*
X83961286Y-113466071D01*
X83961286Y-113466071D02*
X83913667Y-113561309D01*
X83913667Y-113561309D02*
X83913667Y-114085119D01*
X83294620Y-114085119D02*
X83389858Y-114037500D01*
X83389858Y-114037500D02*
X83437477Y-113989880D01*
X83437477Y-113989880D02*
X83485096Y-113894642D01*
X83485096Y-113894642D02*
X83485096Y-113608928D01*
X83485096Y-113608928D02*
X83437477Y-113513690D01*
X83437477Y-113513690D02*
X83389858Y-113466071D01*
X83389858Y-113466071D02*
X83294620Y-113418452D01*
X83294620Y-113418452D02*
X83151763Y-113418452D01*
X83151763Y-113418452D02*
X83056525Y-113466071D01*
X83056525Y-113466071D02*
X83008906Y-113513690D01*
X83008906Y-113513690D02*
X82961287Y-113608928D01*
X82961287Y-113608928D02*
X82961287Y-113894642D01*
X82961287Y-113894642D02*
X83008906Y-113989880D01*
X83008906Y-113989880D02*
X83056525Y-114037500D01*
X83056525Y-114037500D02*
X83151763Y-114085119D01*
X83151763Y-114085119D02*
X83294620Y-114085119D01*
X82389858Y-114085119D02*
X82485096Y-114037500D01*
X82485096Y-114037500D02*
X82532715Y-113989880D01*
X82532715Y-113989880D02*
X82580334Y-113894642D01*
X82580334Y-113894642D02*
X82580334Y-113608928D01*
X82580334Y-113608928D02*
X82532715Y-113513690D01*
X82532715Y-113513690D02*
X82485096Y-113466071D01*
X82485096Y-113466071D02*
X82389858Y-113418452D01*
X82389858Y-113418452D02*
X82247001Y-113418452D01*
X82247001Y-113418452D02*
X82151763Y-113466071D01*
X82151763Y-113466071D02*
X82104144Y-113513690D01*
X82104144Y-113513690D02*
X82056525Y-113608928D01*
X82056525Y-113608928D02*
X82056525Y-113894642D01*
X82056525Y-113894642D02*
X82104144Y-113989880D01*
X82104144Y-113989880D02*
X82151763Y-114037500D01*
X82151763Y-114037500D02*
X82247001Y-114085119D01*
X82247001Y-114085119D02*
X82389858Y-114085119D01*
X81627953Y-114085119D02*
X81627953Y-113418452D01*
X81627953Y-113608928D02*
X81580334Y-113513690D01*
X81580334Y-113513690D02*
X81532715Y-113466071D01*
X81532715Y-113466071D02*
X81437477Y-113418452D01*
X81437477Y-113418452D02*
X81342239Y-113418452D01*
X80247000Y-113704166D02*
X79485096Y-113704166D01*
X78389857Y-113418452D02*
X78008905Y-113418452D01*
X78247000Y-113085119D02*
X78247000Y-113942261D01*
X78247000Y-113942261D02*
X78199381Y-114037500D01*
X78199381Y-114037500D02*
X78104143Y-114085119D01*
X78104143Y-114085119D02*
X78008905Y-114085119D01*
X77532714Y-114085119D02*
X77627952Y-114037500D01*
X77627952Y-114037500D02*
X77675571Y-113989880D01*
X77675571Y-113989880D02*
X77723190Y-113894642D01*
X77723190Y-113894642D02*
X77723190Y-113608928D01*
X77723190Y-113608928D02*
X77675571Y-113513690D01*
X77675571Y-113513690D02*
X77627952Y-113466071D01*
X77627952Y-113466071D02*
X77532714Y-113418452D01*
X77532714Y-113418452D02*
X77389857Y-113418452D01*
X77389857Y-113418452D02*
X77294619Y-113466071D01*
X77294619Y-113466071D02*
X77247000Y-113513690D01*
X77247000Y-113513690D02*
X77199381Y-113608928D01*
X77199381Y-113608928D02*
X77199381Y-113894642D01*
X77199381Y-113894642D02*
X77247000Y-113989880D01*
X77247000Y-113989880D02*
X77294619Y-114037500D01*
X77294619Y-114037500D02*
X77389857Y-114085119D01*
X77389857Y-114085119D02*
X77532714Y-114085119D01*
X76770809Y-113418452D02*
X76770809Y-114085119D01*
X76770809Y-113513690D02*
X76723190Y-113466071D01*
X76723190Y-113466071D02*
X76627952Y-113418452D01*
X76627952Y-113418452D02*
X76485095Y-113418452D01*
X76485095Y-113418452D02*
X76389857Y-113466071D01*
X76389857Y-113466071D02*
X76342238Y-113561309D01*
X76342238Y-113561309D02*
X76342238Y-114085119D01*
X75866047Y-114085119D02*
X75866047Y-113418452D01*
X75866047Y-113085119D02*
X75913666Y-113132738D01*
X75913666Y-113132738D02*
X75866047Y-113180357D01*
X75866047Y-113180357D02*
X75818428Y-113132738D01*
X75818428Y-113132738D02*
X75866047Y-113085119D01*
X75866047Y-113085119D02*
X75866047Y-113180357D01*
X74961286Y-113418452D02*
X74961286Y-114227976D01*
X74961286Y-114227976D02*
X75008905Y-114323214D01*
X75008905Y-114323214D02*
X75056524Y-114370833D01*
X75056524Y-114370833D02*
X75151762Y-114418452D01*
X75151762Y-114418452D02*
X75294619Y-114418452D01*
X75294619Y-114418452D02*
X75389857Y-114370833D01*
X74961286Y-114037500D02*
X75056524Y-114085119D01*
X75056524Y-114085119D02*
X75247000Y-114085119D01*
X75247000Y-114085119D02*
X75342238Y-114037500D01*
X75342238Y-114037500D02*
X75389857Y-113989880D01*
X75389857Y-113989880D02*
X75437476Y-113894642D01*
X75437476Y-113894642D02*
X75437476Y-113608928D01*
X75437476Y-113608928D02*
X75389857Y-113513690D01*
X75389857Y-113513690D02*
X75342238Y-113466071D01*
X75342238Y-113466071D02*
X75247000Y-113418452D01*
X75247000Y-113418452D02*
X75056524Y-113418452D01*
X75056524Y-113418452D02*
X74961286Y-113466071D01*
X74485095Y-114085119D02*
X74485095Y-113085119D01*
X74056524Y-114085119D02*
X74056524Y-113561309D01*
X74056524Y-113561309D02*
X74104143Y-113466071D01*
X74104143Y-113466071D02*
X74199381Y-113418452D01*
X74199381Y-113418452D02*
X74342238Y-113418452D01*
X74342238Y-113418452D02*
X74437476Y-113466071D01*
X74437476Y-113466071D02*
X74485095Y-113513690D01*
X73723190Y-113418452D02*
X73342238Y-113418452D01*
X73580333Y-113085119D02*
X73580333Y-113942261D01*
X73580333Y-113942261D02*
X73532714Y-114037500D01*
X73532714Y-114037500D02*
X73437476Y-114085119D01*
X73437476Y-114085119D02*
X73342238Y-114085119D01*
X72246999Y-113704166D02*
X71485095Y-113704166D01*
X93913668Y-115695119D02*
X93913668Y-114695119D01*
X93437478Y-115028452D02*
X93437478Y-115695119D01*
X93437478Y-115123690D02*
X93389859Y-115076071D01*
X93389859Y-115076071D02*
X93294621Y-115028452D01*
X93294621Y-115028452D02*
X93151764Y-115028452D01*
X93151764Y-115028452D02*
X93056526Y-115076071D01*
X93056526Y-115076071D02*
X93008907Y-115171309D01*
X93008907Y-115171309D02*
X93008907Y-115695119D01*
X91913668Y-115028452D02*
X91532716Y-115028452D01*
X91770811Y-114695119D02*
X91770811Y-115552261D01*
X91770811Y-115552261D02*
X91723192Y-115647500D01*
X91723192Y-115647500D02*
X91627954Y-115695119D01*
X91627954Y-115695119D02*
X91532716Y-115695119D01*
X91199382Y-115695119D02*
X91199382Y-114695119D01*
X90770811Y-115695119D02*
X90770811Y-115171309D01*
X90770811Y-115171309D02*
X90818430Y-115076071D01*
X90818430Y-115076071D02*
X90913668Y-115028452D01*
X90913668Y-115028452D02*
X91056525Y-115028452D01*
X91056525Y-115028452D02*
X91151763Y-115076071D01*
X91151763Y-115076071D02*
X91199382Y-115123690D01*
X89913668Y-115647500D02*
X90008906Y-115695119D01*
X90008906Y-115695119D02*
X90199382Y-115695119D01*
X90199382Y-115695119D02*
X90294620Y-115647500D01*
X90294620Y-115647500D02*
X90342239Y-115552261D01*
X90342239Y-115552261D02*
X90342239Y-115171309D01*
X90342239Y-115171309D02*
X90294620Y-115076071D01*
X90294620Y-115076071D02*
X90199382Y-115028452D01*
X90199382Y-115028452D02*
X90008906Y-115028452D01*
X90008906Y-115028452D02*
X89913668Y-115076071D01*
X89913668Y-115076071D02*
X89866049Y-115171309D01*
X89866049Y-115171309D02*
X89866049Y-115266547D01*
X89866049Y-115266547D02*
X90342239Y-115361785D01*
X89056525Y-115647500D02*
X89151763Y-115695119D01*
X89151763Y-115695119D02*
X89342239Y-115695119D01*
X89342239Y-115695119D02*
X89437477Y-115647500D01*
X89437477Y-115647500D02*
X89485096Y-115552261D01*
X89485096Y-115552261D02*
X89485096Y-115171309D01*
X89485096Y-115171309D02*
X89437477Y-115076071D01*
X89437477Y-115076071D02*
X89342239Y-115028452D01*
X89342239Y-115028452D02*
X89151763Y-115028452D01*
X89151763Y-115028452D02*
X89056525Y-115076071D01*
X89056525Y-115076071D02*
X89008906Y-115171309D01*
X89008906Y-115171309D02*
X89008906Y-115266547D01*
X89008906Y-115266547D02*
X89485096Y-115361785D01*
X88580334Y-115599880D02*
X88532715Y-115647500D01*
X88532715Y-115647500D02*
X88580334Y-115695119D01*
X88580334Y-115695119D02*
X88627953Y-115647500D01*
X88627953Y-115647500D02*
X88580334Y-115599880D01*
X88580334Y-115599880D02*
X88580334Y-115695119D01*
X88580334Y-115314166D02*
X88627953Y-114742738D01*
X88627953Y-114742738D02*
X88580334Y-114695119D01*
X88580334Y-114695119D02*
X88532715Y-114742738D01*
X88532715Y-114742738D02*
X88580334Y-115314166D01*
X88580334Y-115314166D02*
X88580334Y-114695119D01*
D10*
X148904077Y-39840819D02*
X148570744Y-40840819D01*
X148570744Y-40840819D02*
X148237411Y-39840819D01*
X147570744Y-40317009D02*
X147427887Y-40364628D01*
X147427887Y-40364628D02*
X147380268Y-40412247D01*
X147380268Y-40412247D02*
X147332649Y-40507485D01*
X147332649Y-40507485D02*
X147332649Y-40650342D01*
X147332649Y-40650342D02*
X147380268Y-40745580D01*
X147380268Y-40745580D02*
X147427887Y-40793200D01*
X147427887Y-40793200D02*
X147523125Y-40840819D01*
X147523125Y-40840819D02*
X147904077Y-40840819D01*
X147904077Y-40840819D02*
X147904077Y-39840819D01*
X147904077Y-39840819D02*
X147570744Y-39840819D01*
X147570744Y-39840819D02*
X147475506Y-39888438D01*
X147475506Y-39888438D02*
X147427887Y-39936057D01*
X147427887Y-39936057D02*
X147380268Y-40031295D01*
X147380268Y-40031295D02*
X147380268Y-40126533D01*
X147380268Y-40126533D02*
X147427887Y-40221771D01*
X147427887Y-40221771D02*
X147475506Y-40269390D01*
X147475506Y-40269390D02*
X147570744Y-40317009D01*
X147570744Y-40317009D02*
X147904077Y-40317009D01*
X146951696Y-40555104D02*
X146475506Y-40555104D01*
X147046934Y-40840819D02*
X146713601Y-39840819D01*
X146713601Y-39840819D02*
X146380268Y-40840819D01*
X146189791Y-39840819D02*
X145618363Y-39840819D01*
X145904077Y-40840819D02*
X145904077Y-39840819D01*
X148669333Y-48730819D02*
X148669333Y-49445104D01*
X148669333Y-49445104D02*
X148716952Y-49587961D01*
X148716952Y-49587961D02*
X148812190Y-49683200D01*
X148812190Y-49683200D02*
X148955047Y-49730819D01*
X148955047Y-49730819D02*
X149050285Y-49730819D01*
X148240761Y-48826057D02*
X148193142Y-48778438D01*
X148193142Y-48778438D02*
X148097904Y-48730819D01*
X148097904Y-48730819D02*
X147859809Y-48730819D01*
X147859809Y-48730819D02*
X147764571Y-48778438D01*
X147764571Y-48778438D02*
X147716952Y-48826057D01*
X147716952Y-48826057D02*
X147669333Y-48921295D01*
X147669333Y-48921295D02*
X147669333Y-49016533D01*
X147669333Y-49016533D02*
X147716952Y-49159390D01*
X147716952Y-49159390D02*
X148288380Y-49730819D01*
X148288380Y-49730819D02*
X147669333Y-49730819D01*
D11*
%TO.C,J2*%
X159276000Y-37826000D02*
X147556000Y-37826000D01*
X147556000Y-37826000D02*
X147556000Y-39246000D01*
X147556000Y-39246000D02*
X152056000Y-39246000D01*
X149466000Y-40086000D02*
X149466000Y-40686000D01*
X158666000Y-40136000D02*
X158666000Y-40636000D01*
X153166000Y-40136000D02*
X158666000Y-40136000D01*
X150066000Y-40386000D02*
X149466000Y-40086000D01*
X158666000Y-40636000D02*
X153166000Y-40636000D01*
X153166000Y-40636000D02*
X153166000Y-40136000D01*
X149466000Y-40686000D02*
X150066000Y-40386000D01*
X158666000Y-42636000D02*
X158666000Y-43136000D01*
X153166000Y-42636000D02*
X158666000Y-42636000D01*
X159276000Y-42886000D02*
X159276000Y-37826000D01*
X159276000Y-42886000D02*
X159276000Y-47946000D01*
X158666000Y-43136000D02*
X153166000Y-43136000D01*
X153166000Y-43136000D02*
X153166000Y-42636000D01*
X158666000Y-45136000D02*
X158666000Y-45636000D01*
X153166000Y-45136000D02*
X158666000Y-45136000D01*
X158666000Y-45636000D02*
X153166000Y-45636000D01*
X153166000Y-45636000D02*
X153166000Y-45136000D01*
X147556000Y-46526000D02*
X152056000Y-46526000D01*
X159276000Y-47946000D02*
X147556000Y-47946000D01*
X147556000Y-47946000D02*
X147556000Y-46526000D01*
%TO.C,P1*%
X137428904Y-123225199D02*
G75*
G03*
X137428904Y-123225199I-950000J0D01*
G01*
X134975451Y-122567799D02*
G75*
G03*
X134975451Y-122567799I-949999J0D01*
G01*
X132522000Y-121910399D02*
G75*
G03*
X132522000Y-121910399I-949999J0D01*
G01*
X130068549Y-121252998D02*
G75*
G03*
X130068549Y-121252998I-950000J0D01*
G01*
X127615096Y-120595598D02*
G75*
G03*
X127615096Y-120595598I-949999J0D01*
G01*
G36*
X137192400Y-119997422D02*
G01*
X137350644Y-120033158D01*
X137490710Y-120077445D01*
X137596048Y-120125941D01*
X137666657Y-120178644D01*
X137718342Y-120270969D01*
X137713656Y-120383526D01*
X137681365Y-120448832D01*
X136824191Y-120219153D01*
X136828880Y-120146451D01*
X136882124Y-120045878D01*
X136975295Y-119992572D01*
X137067283Y-119983893D01*
X137192400Y-119997422D01*
G37*
G36*
X137397837Y-119230718D02*
G01*
X137556081Y-119266454D01*
X137696148Y-119310741D01*
X137801485Y-119359237D01*
X137872095Y-119411940D01*
X137923779Y-119504266D01*
X137919094Y-119616822D01*
X137886803Y-119682127D01*
X137029629Y-119452448D01*
X137034317Y-119379747D01*
X137087562Y-119279174D01*
X137180733Y-119225868D01*
X137272721Y-119217190D01*
X137397837Y-119230718D01*
G37*
G36*
X132474747Y-117976330D02*
G01*
X132632991Y-118012066D01*
X132773057Y-118056353D01*
X132878395Y-118104849D01*
X132949004Y-118157552D01*
X133000688Y-118249878D01*
X132996003Y-118362434D01*
X132963712Y-118427740D01*
X132106538Y-118198061D01*
X132111227Y-118125359D01*
X132164471Y-118024786D01*
X132257642Y-117971480D01*
X132349630Y-117962802D01*
X132474747Y-117976330D01*
G37*
G36*
X127582222Y-116624778D02*
G01*
X127740465Y-116660514D01*
X127880532Y-116704801D01*
X127985870Y-116753295D01*
X128056479Y-116805998D01*
X128108164Y-116898324D01*
X128103478Y-117010882D01*
X128071187Y-117076187D01*
X127214013Y-116846507D01*
X127218701Y-116773807D01*
X127271946Y-116673233D01*
X127365117Y-116619928D01*
X127457105Y-116611249D01*
X127582222Y-116624778D01*
G37*
G36*
X132876669Y-116437146D02*
G01*
X133028942Y-116473018D01*
X133178751Y-116518089D01*
X133290825Y-116562911D01*
X133365166Y-116607482D01*
X133421411Y-116680486D01*
X133423724Y-116766158D01*
X133378885Y-116839194D01*
X133293674Y-116874295D01*
X133207006Y-116875726D01*
X133087537Y-116858505D01*
X132935263Y-116822634D01*
X132785455Y-116777562D01*
X132673381Y-116732741D01*
X132599040Y-116688169D01*
X132542795Y-116615165D01*
X132540481Y-116529494D01*
X132585321Y-116456456D01*
X132670532Y-116421356D01*
X132757199Y-116419926D01*
X132876669Y-116437146D01*
G37*
G36*
X130011683Y-117315614D02*
G01*
X130163956Y-117351485D01*
X130313764Y-117396557D01*
X130425839Y-117441378D01*
X130500180Y-117485950D01*
X130556424Y-117558954D01*
X130558738Y-117644625D01*
X130513899Y-117717663D01*
X130428687Y-117752763D01*
X130342020Y-117754193D01*
X130222550Y-117736973D01*
X130070277Y-117701101D01*
X129920468Y-117656030D01*
X129808394Y-117611208D01*
X129734053Y-117566637D01*
X129677809Y-117493633D01*
X129675495Y-117407961D01*
X129720334Y-117334925D01*
X129805546Y-117299824D01*
X129892213Y-117298393D01*
X130011683Y-117315614D01*
G37*
G36*
X138565620Y-119015421D02*
G01*
X138480021Y-119334881D01*
X137884251Y-121558323D01*
X137798652Y-121877782D01*
X135865870Y-121935120D01*
X136009677Y-121398428D01*
X136095276Y-121078968D01*
X136137800Y-120920264D01*
X136496631Y-120920264D01*
X137549457Y-121468615D01*
X137596707Y-121292272D01*
X136677501Y-120858612D01*
X136677911Y-120857079D01*
X137690798Y-120941122D01*
X137736405Y-120770914D01*
X136550045Y-120720920D01*
X136496631Y-120920264D01*
X136137800Y-120920264D01*
X136215251Y-120631212D01*
X136287901Y-120360079D01*
X136663167Y-120360079D01*
X137751887Y-120651800D01*
X137807039Y-120537974D01*
X137847063Y-120419272D01*
X137867941Y-120285808D01*
X137853881Y-120171652D01*
X137804881Y-120076804D01*
X137741902Y-120015708D01*
X137652667Y-119960212D01*
X137537176Y-119910314D01*
X137395429Y-119866017D01*
X137255224Y-119833836D01*
X137133112Y-119817277D01*
X137029091Y-119816340D01*
X136903268Y-119841997D01*
X136810719Y-119898347D01*
X136744336Y-119987387D01*
X136697007Y-120111116D01*
X136671085Y-120238526D01*
X136663167Y-120360079D01*
X136287901Y-120360079D01*
X136377547Y-120025517D01*
X136493340Y-119593374D01*
X136868605Y-119593374D01*
X137957325Y-119885096D01*
X138012477Y-119771270D01*
X138052501Y-119652569D01*
X138073379Y-119519105D01*
X138059319Y-119404949D01*
X138010319Y-119310101D01*
X137947339Y-119249005D01*
X137858104Y-119193508D01*
X137742614Y-119143611D01*
X137600867Y-119099312D01*
X137460661Y-119067132D01*
X137338549Y-119050573D01*
X137234528Y-119049636D01*
X137108705Y-119075293D01*
X137016157Y-119131643D01*
X136949773Y-119220684D01*
X136902444Y-119344412D01*
X136876523Y-119471822D01*
X136868605Y-119593374D01*
X136493340Y-119593374D01*
X136582985Y-119258813D01*
X136691045Y-118855526D01*
X136776644Y-118536067D01*
X138709426Y-118478729D01*
X138565620Y-119015421D01*
G37*
G36*
X128749237Y-116409275D02*
G01*
X128663638Y-116728735D01*
X128073210Y-118932242D01*
X127987611Y-119251701D01*
X126054829Y-119309039D01*
X126198635Y-118772347D01*
X126284234Y-118452887D01*
X126339289Y-118247421D01*
X126691443Y-118247421D01*
X126697892Y-118332609D01*
X126725761Y-118410695D01*
X126775048Y-118481681D01*
X126845754Y-118545566D01*
X126937880Y-118602351D01*
X127051425Y-118652035D01*
X127186389Y-118694619D01*
X127325458Y-118724948D01*
X127448251Y-118737050D01*
X127554769Y-118730924D01*
X127645011Y-118706570D01*
X127742400Y-118646381D01*
X127815625Y-118555066D01*
X127864687Y-118432623D01*
X127882445Y-118332608D01*
X127882310Y-118231907D01*
X127744304Y-118194928D01*
X127745712Y-118300078D01*
X127729746Y-118396465D01*
X127676129Y-118499198D01*
X127582659Y-118555917D01*
X127493252Y-118567570D01*
X127376229Y-118557579D01*
X127231585Y-118525944D01*
X127087090Y-118480469D01*
X126976640Y-118430605D01*
X126900237Y-118376349D01*
X126840523Y-118286392D01*
X126839518Y-118185869D01*
X126882572Y-118098795D01*
X127284325Y-118206444D01*
X127232554Y-118399653D01*
X127362894Y-118434578D01*
X127458628Y-118077295D01*
X126829931Y-117908836D01*
X126778110Y-117982968D01*
X126736937Y-118065069D01*
X126706413Y-118155134D01*
X126691443Y-118247421D01*
X126339289Y-118247421D01*
X126386953Y-118069535D01*
X126475907Y-117737555D01*
X126834738Y-117737555D01*
X127954125Y-118037494D01*
X128001786Y-117859619D01*
X127253177Y-117402644D01*
X127254410Y-117398044D01*
X128067115Y-117615808D01*
X128110257Y-117454800D01*
X126990870Y-117154861D01*
X126944852Y-117326602D01*
X127693461Y-117783578D01*
X127692640Y-117786644D01*
X126879934Y-117568881D01*
X126834738Y-117737555D01*
X126475907Y-117737555D01*
X126499944Y-117647848D01*
X126676957Y-116987228D01*
X127052222Y-116987228D01*
X128140942Y-117278949D01*
X128196094Y-117165123D01*
X128236118Y-117046423D01*
X128256996Y-116912959D01*
X128242936Y-116798803D01*
X128193936Y-116703954D01*
X128130956Y-116642859D01*
X128041721Y-116587362D01*
X127926231Y-116537465D01*
X127784484Y-116493166D01*
X127644278Y-116460986D01*
X127522166Y-116444427D01*
X127418146Y-116443489D01*
X127292323Y-116469147D01*
X127199774Y-116525497D01*
X127133391Y-116614537D01*
X127086061Y-116738266D01*
X127060140Y-116865676D01*
X127052222Y-116987228D01*
X126676957Y-116987228D01*
X126766602Y-116652667D01*
X126874662Y-116249380D01*
X126960261Y-115929921D01*
X128893043Y-115872583D01*
X128749237Y-116409275D01*
G37*
G36*
X131187596Y-117109161D02*
G01*
X131101997Y-117428621D01*
X130522663Y-119590726D01*
X130437064Y-119910186D01*
X128504282Y-119967524D01*
X128648088Y-119430831D01*
X128733687Y-119111371D01*
X128756593Y-119025886D01*
X129107754Y-119025886D01*
X129109006Y-119119353D01*
X129128805Y-119209025D01*
X129288279Y-119251756D01*
X129254592Y-119155989D01*
X129244240Y-119061726D01*
X129257224Y-118968970D01*
X129286050Y-118903558D01*
X129331441Y-118860663D01*
X129392014Y-118842380D01*
X129466385Y-118850803D01*
X129532413Y-118877329D01*
X129580224Y-118916642D01*
X129613314Y-118972554D01*
X129635183Y-119048878D01*
X129659075Y-119155990D01*
X129690535Y-119243034D01*
X129729563Y-119310010D01*
X129807246Y-119381979D01*
X129911856Y-119427061D01*
X130039921Y-119439805D01*
X130148103Y-119404079D01*
X130207110Y-119354241D01*
X130253142Y-119284674D01*
X130286200Y-119195379D01*
X130305010Y-119104730D01*
X130312685Y-119014751D01*
X130309224Y-118925439D01*
X130155883Y-118884351D01*
X130173595Y-119016058D01*
X130158134Y-119139698D01*
X130130191Y-119204113D01*
X130086628Y-119247088D01*
X130030464Y-119266552D01*
X129964718Y-119260440D01*
X129890508Y-119225946D01*
X129839617Y-119168483D01*
X129812046Y-119088052D01*
X129787384Y-118969502D01*
X129755218Y-118874874D01*
X129715546Y-118804164D01*
X129634109Y-118729340D01*
X129520071Y-118681116D01*
X129406131Y-118664720D01*
X129309659Y-118681273D01*
X129230655Y-118730775D01*
X129169119Y-118813224D01*
X129125050Y-118928624D01*
X129107754Y-119025886D01*
X128756593Y-119025886D01*
X128805590Y-118843025D01*
X128921251Y-118411374D01*
X129280082Y-118411374D01*
X130372762Y-118810984D01*
X130416726Y-118646910D01*
X129580066Y-118365204D01*
X129580887Y-118362138D01*
X130270517Y-118456531D01*
X130307085Y-118320057D01*
X129554491Y-118031295D01*
X129555313Y-118028229D01*
X130528895Y-118228289D01*
X130569982Y-118074949D01*
X129423888Y-117874681D01*
X129370474Y-118074024D01*
X130101300Y-118352023D01*
X130100067Y-118356623D01*
X129324456Y-118245766D01*
X129280082Y-118411374D01*
X128921251Y-118411374D01*
X129089094Y-117784974D01*
X129170201Y-117482280D01*
X129526567Y-117482280D01*
X129543276Y-117576327D01*
X129597196Y-117658775D01*
X129693307Y-117734039D01*
X129782445Y-117780292D01*
X129893585Y-117823495D01*
X130026724Y-117863643D01*
X130162100Y-117895443D01*
X130279951Y-117913599D01*
X130380274Y-117918111D01*
X130501140Y-117900986D01*
X130589059Y-117856544D01*
X130650555Y-117783451D01*
X130692145Y-117680371D01*
X130707666Y-117570307D01*
X130690957Y-117476259D01*
X130637037Y-117393812D01*
X130540926Y-117318548D01*
X130451788Y-117272295D01*
X130340648Y-117229092D01*
X130207509Y-117188943D01*
X130072133Y-117157144D01*
X129954282Y-117138988D01*
X129853959Y-117134476D01*
X129733093Y-117151601D01*
X129645173Y-117196042D01*
X129583678Y-117269136D01*
X129542088Y-117372215D01*
X129526567Y-117482280D01*
X129170201Y-117482280D01*
X129222629Y-117286616D01*
X129313021Y-116949266D01*
X129398620Y-116629806D01*
X131331402Y-116572469D01*
X131187596Y-117109161D01*
G37*
G36*
X136506352Y-116886905D02*
G01*
X136420753Y-117206365D01*
X135429722Y-120904943D01*
X135344123Y-121224403D01*
X133411341Y-121281741D01*
X133555148Y-120745048D01*
X133640746Y-120425589D01*
X133663652Y-120340105D01*
X134014813Y-120340105D01*
X134016065Y-120433571D01*
X134035864Y-120523243D01*
X134195338Y-120565974D01*
X134161651Y-120470207D01*
X134151299Y-120375945D01*
X134164284Y-120283188D01*
X134193110Y-120217776D01*
X134238500Y-120174881D01*
X134299073Y-120156599D01*
X134373444Y-120165021D01*
X134439473Y-120191547D01*
X134487283Y-120230859D01*
X134520374Y-120286771D01*
X134542242Y-120363097D01*
X134566134Y-120470208D01*
X134597594Y-120557251D01*
X134636623Y-120624228D01*
X134714306Y-120696197D01*
X134818915Y-120741278D01*
X134946981Y-120754022D01*
X135055162Y-120718296D01*
X135114170Y-120668458D01*
X135160202Y-120598892D01*
X135193259Y-120509596D01*
X135212070Y-120418948D01*
X135219745Y-120328968D01*
X135216283Y-120239657D01*
X135062942Y-120198570D01*
X135080655Y-120330276D01*
X135065194Y-120453916D01*
X135037251Y-120518332D01*
X134993688Y-120561305D01*
X134937523Y-120580770D01*
X134871778Y-120574657D01*
X134797567Y-120540164D01*
X134746676Y-120482701D01*
X134719105Y-120402269D01*
X134694444Y-120283720D01*
X134662277Y-120189091D01*
X134622605Y-120118383D01*
X134541168Y-120043559D01*
X134427130Y-119995334D01*
X134313190Y-119978939D01*
X134216719Y-119995491D01*
X134137715Y-120044993D01*
X134076178Y-120127443D01*
X134032109Y-120242842D01*
X134014813Y-120340105D01*
X133663652Y-120340105D01*
X133712650Y-120157243D01*
X133828310Y-119725592D01*
X134187141Y-119725592D01*
X135279821Y-120125202D01*
X135323785Y-119961128D01*
X134487125Y-119679423D01*
X134487947Y-119676356D01*
X135177577Y-119770749D01*
X135214145Y-119634276D01*
X134461551Y-119345514D01*
X134462372Y-119342447D01*
X135435954Y-119542507D01*
X135477041Y-119389167D01*
X134330947Y-119188900D01*
X134277533Y-119388243D01*
X135008359Y-119666242D01*
X135007127Y-119670842D01*
X134231515Y-119559984D01*
X134187141Y-119725592D01*
X133828310Y-119725592D01*
X133996153Y-119099192D01*
X134101448Y-118706228D01*
X134453731Y-118706228D01*
X134460289Y-118792445D01*
X134488545Y-118871483D01*
X134538497Y-118943340D01*
X134610147Y-119008018D01*
X134703494Y-119065515D01*
X134818539Y-119115832D01*
X134955280Y-119158969D01*
X135088064Y-119188128D01*
X135206566Y-119200621D01*
X135310789Y-119196447D01*
X135400730Y-119175608D01*
X135476392Y-119138102D01*
X135537773Y-119083929D01*
X135584873Y-119013091D01*
X135617693Y-118925587D01*
X135638534Y-118814071D01*
X135639426Y-118709537D01*
X135292876Y-118616679D01*
X135248912Y-118780754D01*
X135488123Y-118844851D01*
X135484807Y-118881762D01*
X135454805Y-118946539D01*
X135404515Y-118992641D01*
X135333936Y-119020067D01*
X135243071Y-119028818D01*
X135131917Y-119018893D01*
X135000477Y-118990294D01*
X134862209Y-118945941D01*
X134753066Y-118894782D01*
X134673045Y-118836819D01*
X134622149Y-118772050D01*
X134600377Y-118700477D01*
X134607727Y-118622097D01*
X134641389Y-118544011D01*
X134700460Y-118466160D01*
X134559386Y-118428359D01*
X134505880Y-118513042D01*
X134468870Y-118612829D01*
X134453731Y-118706228D01*
X134101448Y-118706228D01*
X134149410Y-118527230D01*
X134247403Y-118161517D01*
X134606234Y-118161517D01*
X135725621Y-118461456D01*
X135771639Y-118289714D01*
X134785659Y-118025521D01*
X134881393Y-117668237D01*
X134747986Y-117632491D01*
X134606234Y-118161517D01*
X134247403Y-118161517D01*
X134413192Y-117542783D01*
X134439282Y-117445415D01*
X134798112Y-117445415D01*
X135917500Y-117745354D01*
X135963518Y-117573612D01*
X135472827Y-117442132D01*
X135473649Y-117439065D01*
X136034599Y-117308333D01*
X136083904Y-117124325D01*
X135471801Y-117274220D01*
X134966571Y-116816718D01*
X134916855Y-117002261D01*
X135381645Y-117414413D01*
X135380823Y-117417480D01*
X134844130Y-117273673D01*
X134798112Y-117445415D01*
X134439282Y-117445415D01*
X134509337Y-117183966D01*
X134631778Y-116727010D01*
X134717377Y-116407551D01*
X136650159Y-116350213D01*
X136506352Y-116886905D01*
G37*
G36*
X134052582Y-116230693D02*
G01*
X133966983Y-116550154D01*
X132976774Y-120245665D01*
X132891175Y-120565125D01*
X130958393Y-120622463D01*
X131102199Y-120085770D01*
X131187798Y-119766311D01*
X131210704Y-119680825D01*
X131561865Y-119680825D01*
X131563117Y-119774292D01*
X131582916Y-119863964D01*
X131742390Y-119906695D01*
X131708703Y-119810928D01*
X131698351Y-119716666D01*
X131711335Y-119623910D01*
X131740161Y-119558498D01*
X131785552Y-119515603D01*
X131846125Y-119497319D01*
X131920496Y-119505743D01*
X131986525Y-119532268D01*
X132034335Y-119571581D01*
X132067425Y-119627493D01*
X132089294Y-119703817D01*
X132113186Y-119810929D01*
X132144646Y-119897973D01*
X132183674Y-119964949D01*
X132261357Y-120036918D01*
X132365967Y-120082000D01*
X132494032Y-120094744D01*
X132602214Y-120059018D01*
X132661221Y-120009180D01*
X132707253Y-119939614D01*
X132740311Y-119850318D01*
X132759121Y-119759670D01*
X132766796Y-119669690D01*
X132763335Y-119580379D01*
X132609994Y-119539291D01*
X132627707Y-119670998D01*
X132612245Y-119794637D01*
X132584302Y-119859053D01*
X132540739Y-119902027D01*
X132484575Y-119921491D01*
X132418830Y-119915379D01*
X132344619Y-119880885D01*
X132293728Y-119823422D01*
X132266157Y-119742991D01*
X132241495Y-119624441D01*
X132209329Y-119529813D01*
X132169657Y-119459104D01*
X132088220Y-119384280D01*
X131974181Y-119336056D01*
X131860242Y-119319660D01*
X131763770Y-119336213D01*
X131684766Y-119385714D01*
X131623230Y-119468165D01*
X131579161Y-119583563D01*
X131561865Y-119680825D01*
X131210704Y-119680825D01*
X131259701Y-119497964D01*
X131375362Y-119066313D01*
X131734193Y-119066313D01*
X132826873Y-119465924D01*
X132870837Y-119301849D01*
X132034177Y-119020144D01*
X132034998Y-119017078D01*
X132724628Y-119111470D01*
X132761196Y-118974998D01*
X132008602Y-118686235D01*
X132009424Y-118683168D01*
X132983006Y-118883229D01*
X133024093Y-118729888D01*
X131877999Y-118529620D01*
X131824585Y-118728963D01*
X132555411Y-119006963D01*
X132554178Y-119011563D01*
X131778567Y-118900705D01*
X131734193Y-119066313D01*
X131375362Y-119066313D01*
X131543205Y-118439913D01*
X131570248Y-118338987D01*
X131945514Y-118338987D01*
X133034234Y-118630709D01*
X133089386Y-118516882D01*
X133129410Y-118398181D01*
X133150288Y-118264717D01*
X133136228Y-118150561D01*
X133087228Y-118055713D01*
X133024249Y-117994617D01*
X132935014Y-117939120D01*
X132819523Y-117889223D01*
X132677776Y-117844926D01*
X132537571Y-117812744D01*
X132415459Y-117796185D01*
X132311437Y-117795249D01*
X132185615Y-117820905D01*
X132093066Y-117877255D01*
X132026682Y-117966296D01*
X131979353Y-118090024D01*
X131953432Y-118217435D01*
X131945514Y-118338987D01*
X131570248Y-118338987D01*
X131659894Y-118004425D01*
X131788291Y-117525239D01*
X132147122Y-117525239D01*
X132280529Y-117560986D01*
X132326547Y-117389244D01*
X133179122Y-117617691D01*
X133133103Y-117789432D01*
X133266509Y-117825178D01*
X133406207Y-117303820D01*
X133272801Y-117268074D01*
X133226783Y-117439815D01*
X132374209Y-117211369D01*
X132420227Y-117039627D01*
X132286820Y-117003881D01*
X132147122Y-117525239D01*
X131788291Y-117525239D01*
X131952026Y-116914173D01*
X132035187Y-116603812D01*
X132391553Y-116603812D01*
X132408262Y-116697860D01*
X132462182Y-116780307D01*
X132558293Y-116855571D01*
X132647431Y-116901824D01*
X132758571Y-116945027D01*
X132891710Y-116985176D01*
X133027087Y-117016975D01*
X133144937Y-117035131D01*
X133245260Y-117039643D01*
X133366127Y-117022518D01*
X133454046Y-116978077D01*
X133515541Y-116904983D01*
X133557131Y-116801904D01*
X133572653Y-116691839D01*
X133555943Y-116597792D01*
X133502023Y-116515344D01*
X133405912Y-116440080D01*
X133316774Y-116393827D01*
X133205635Y-116350624D01*
X133072495Y-116310476D01*
X132937119Y-116278676D01*
X132819268Y-116260520D01*
X132718946Y-116256008D01*
X132598079Y-116273133D01*
X132510159Y-116317575D01*
X132448665Y-116390668D01*
X132407074Y-116493748D01*
X132391553Y-116603812D01*
X132035187Y-116603812D01*
X132087615Y-116408149D01*
X132178007Y-116070799D01*
X132263607Y-115751338D01*
X134196389Y-115694000D01*
X134052582Y-116230693D01*
G37*
%TO.C,SW21*%
X173342000Y-82368000D02*
X173342000Y-83568000D01*
X168542000Y-82368000D02*
X169542000Y-82368000D01*
X168542000Y-83368000D02*
X168542000Y-82368000D01*
X168542000Y-90368000D02*
X168542000Y-91368000D01*
X173342000Y-91368000D02*
X173342000Y-90168000D01*
X168542000Y-91368000D02*
X169542000Y-91368000D01*
%TD*%
%LPC*%
D13*
%TO.C,J1*%
X167990000Y-44256000D03*
X162210000Y-44256000D03*
D14*
X169420000Y-44786000D03*
D15*
X169420000Y-40606000D03*
D14*
X160780000Y-44786000D03*
D15*
X160780000Y-40606000D03*
%TD*%
D16*
%TO.C,SW6*%
X48833744Y-87429974D03*
D17*
X53459097Y-80821940D03*
D18*
X54280218Y-86664522D03*
D17*
X58702701Y-82205638D03*
D16*
X59726692Y-85899070D03*
D19*
X49918888Y-81319484D03*
X62242909Y-81708094D03*
%TD*%
D20*
%TO.C,H2*%
X59690000Y-57658000D03*
%TD*%
D16*
%TO.C,SW2*%
X64052007Y-51118851D03*
D17*
X68905159Y-44676265D03*
D18*
X69521877Y-50543944D03*
D17*
X74097278Y-46242118D03*
D16*
X74991747Y-49969037D03*
D21*
X65349743Y-45049954D03*
X77652694Y-45868429D03*
%TD*%
D22*
%TO.C,U1*%
X167584000Y-96588000D03*
X166484000Y-96588000D03*
X165384000Y-96588000D03*
X164284000Y-96588000D03*
X163184000Y-96588000D03*
X162084000Y-96588000D03*
X160984000Y-96588000D03*
X159884000Y-96588000D03*
X158784000Y-96588000D03*
X167584000Y-105088000D03*
X166484000Y-105088000D03*
X165384000Y-105088000D03*
X164284000Y-105088000D03*
X163184000Y-105088000D03*
X162084000Y-105088000D03*
X160984000Y-105088000D03*
X159884000Y-105088000D03*
X158784000Y-105088000D03*
%TD*%
D16*
%TO.C,SW3*%
X82906263Y-37986330D03*
D17*
X87981302Y-31717041D03*
D18*
X88392865Y-37602669D03*
D17*
X93115611Y-33463143D03*
D16*
X93879467Y-37219008D03*
D23*
X84415010Y-31966420D03*
X96681902Y-33213764D03*
%TD*%
D16*
%TO.C,SW16*%
X28289465Y-81995753D03*
D17*
X32681384Y-75230322D03*
D18*
X33705908Y-81040688D03*
D17*
X37970084Y-76430178D03*
D16*
X39122351Y-80085623D03*
D24*
X29160696Y-75851114D03*
X41490771Y-75809385D03*
%TD*%
D20*
%TO.C,H5*%
X118872000Y-72136000D03*
%TD*%
D16*
%TO.C,SW20*%
X151059604Y-118282855D03*
D17*
X159065295Y-117298525D03*
D18*
X155272848Y-121818187D03*
D17*
X161545663Y-122121156D03*
D16*
X159486092Y-125353519D03*
D25*
X156326686Y-115000559D03*
X164284272Y-124419122D03*
%TD*%
D16*
%TO.C,SW5*%
X123532302Y-51006119D03*
D17*
X129032302Y-45106119D03*
D18*
X129032302Y-51006119D03*
D17*
X134032302Y-47206119D03*
D16*
X134532302Y-51006119D03*
D26*
X125457302Y-45106119D03*
X137607302Y-47206119D03*
%TD*%
D16*
%TO.C,SW19*%
X129139743Y-109995427D03*
D17*
X135979367Y-105719970D03*
D18*
X134452335Y-111418932D03*
D17*
X140265477Y-109042509D03*
D16*
X139764927Y-112842437D03*
D27*
X132526183Y-104794692D03*
X143718661Y-109967787D03*
%TD*%
D16*
%TO.C,SW10*%
X123532302Y-69206119D03*
D17*
X129032302Y-63306119D03*
D18*
X129032302Y-69206119D03*
D17*
X134032302Y-65406119D03*
D16*
X134532302Y-69206119D03*
D26*
X125457302Y-63306119D03*
X137607302Y-65406119D03*
%TD*%
D16*
%TO.C,SW12*%
X67856843Y-87319448D03*
D17*
X72709995Y-80876862D03*
D18*
X73326713Y-86744541D03*
D17*
X77902114Y-82442715D03*
D16*
X78796583Y-86169634D03*
D21*
X69154579Y-81250551D03*
X81457530Y-82069026D03*
%TD*%
D17*
%TO.C,J3*%
X166934000Y-75144000D03*
X166934000Y-59144000D03*
D28*
X170434000Y-72644000D03*
D29*
X170434000Y-70444000D03*
X170434000Y-68244000D03*
X170434000Y-66044000D03*
X170434000Y-63844000D03*
X170434000Y-61644000D03*
%TD*%
D16*
%TO.C,SW9*%
X104039533Y-63693909D03*
D17*
X109330276Y-57605556D03*
D18*
X109536183Y-63501962D03*
D17*
X114400519Y-59529779D03*
D16*
X115032833Y-63310015D03*
D30*
X105757454Y-57730322D03*
X117973341Y-59405014D03*
%TD*%
D16*
%TO.C,SW1*%
X46300793Y-69407095D03*
D17*
X50926146Y-62799061D03*
D18*
X51747267Y-68641643D03*
D17*
X56169750Y-64182759D03*
D16*
X57193741Y-67876191D03*
D19*
X47385937Y-63296605D03*
X59709958Y-63685215D03*
%TD*%
D16*
%TO.C,SW15*%
X123532302Y-87406119D03*
D17*
X129032302Y-81506119D03*
D18*
X129032302Y-87406119D03*
D17*
X134032302Y-83606119D03*
D16*
X134532302Y-87406119D03*
D26*
X125457302Y-81506119D03*
X137607302Y-83606119D03*
%TD*%
D20*
%TO.C,H3*%
X81280000Y-76708000D03*
%TD*%
%TO.C,H7*%
X145542000Y-115316000D03*
%TD*%
D16*
%TO.C,SW8*%
X84175830Y-56141995D03*
D17*
X89250869Y-49872706D03*
D18*
X89662432Y-55758334D03*
D17*
X94385178Y-51618808D03*
D16*
X95149034Y-55374673D03*
D23*
X85684577Y-50122085D03*
X97951469Y-51369429D03*
%TD*%
D16*
%TO.C,SW11*%
X51366694Y-105452853D03*
D17*
X55992047Y-98844819D03*
D18*
X56813168Y-104687401D03*
D17*
X61235651Y-100228517D03*
D16*
X62259642Y-103921949D03*
D19*
X52451838Y-99342363D03*
X64775859Y-99730973D03*
%TD*%
D16*
%TO.C,SW4*%
X103404362Y-45504996D03*
D17*
X108695105Y-39416643D03*
D18*
X108901012Y-45313049D03*
D17*
X113765348Y-41340866D03*
D16*
X114397662Y-45121102D03*
D30*
X105122283Y-39541409D03*
X117338170Y-41216101D03*
%TD*%
D20*
%TO.C,H6*%
X102108000Y-100330000D03*
%TD*%
D16*
%TO.C,SW13*%
X85445398Y-74297661D03*
D17*
X90520437Y-68028372D03*
D18*
X90932000Y-73914000D03*
D17*
X95654746Y-69774474D03*
D16*
X96418602Y-73530339D03*
D23*
X86954145Y-68277751D03*
X99221037Y-69525095D03*
%TD*%
D16*
%TO.C,SW17*%
X31449862Y-99919254D03*
D17*
X35841781Y-93153823D03*
D18*
X36866305Y-98964189D03*
D17*
X41130481Y-94353679D03*
D16*
X42282748Y-98009124D03*
D24*
X32321093Y-93774615D03*
X44651168Y-93732886D03*
%TD*%
D16*
%TO.C,SW7*%
X65954425Y-69219149D03*
D17*
X70807577Y-62776563D03*
D18*
X71424295Y-68644242D03*
D17*
X75999696Y-64342416D03*
D16*
X76894165Y-68069335D03*
D21*
X67252161Y-63150252D03*
X79555112Y-63968727D03*
%TD*%
D16*
%TO.C,SW14*%
X104674704Y-81882822D03*
D17*
X109965447Y-75794469D03*
D18*
X110171354Y-81690875D03*
D17*
X115035690Y-77718692D03*
D16*
X115668004Y-81498928D03*
D30*
X106392625Y-75919235D03*
X118608512Y-77593927D03*
%TD*%
D20*
%TO.C,H4*%
X98552000Y-45720000D03*
%TD*%
%TO.C,H1*%
X44196000Y-88392000D03*
%TD*%
D16*
%TO.C,SW18*%
X105771184Y-111748201D03*
D17*
X110163103Y-104982770D03*
D18*
X111187627Y-110793136D03*
D17*
X115451803Y-106182626D03*
D16*
X116604070Y-109838071D03*
D24*
X106642415Y-105603562D03*
X118972490Y-105561833D03*
%TD*%
D31*
%TO.C,J2*%
X151566000Y-40386000D03*
D32*
X151566000Y-42886000D03*
X151566000Y-45386000D03*
%TD*%
D33*
%TO.C,P1*%
X141385807Y-124540000D03*
X121758194Y-119280797D03*
D34*
X136478904Y-123225199D03*
X134025452Y-122567799D03*
X131572001Y-121910399D03*
X129118549Y-121252998D03*
X126668557Y-120596525D03*
%TD*%
D35*
%TO.C,SW21*%
X170942000Y-82568000D03*
X170942000Y-91168000D03*
D36*
X170942000Y-84868000D03*
D37*
X170942000Y-86868000D03*
X170942000Y-88868000D03*
%TD*%
%LPD*%
M02*
