M48
; DRILL file {KiCad 7.0.7} date 2023 December 03, Sunday 19:36:59
; FORMAT={-:-/ absolute / inch / decimal}
; #@! TF.CreationDate,2023-12-03T19:36:59+01:00
; #@! TF.GenerationSoftware,Kicad,Pcbnew,7.0.7
; #@! TF.FileFunction,Plated,1,2,PTH
FMAT,2
INCH
; #@! TA.AperFunction,Plated,PTH,ComponentDrill
T1C0.0118
; #@! TA.AperFunction,Plated,PTH,ViaDrill
T2C0.0157
; #@! TA.AperFunction,Plated,PTH,ComponentDrill
T3C0.0197
; #@! TA.AperFunction,Plated,PTH,ComponentDrill
T4C0.0236
; #@! TA.AperFunction,Plated,PTH,ComponentDrill
T5C0.0315
; #@! TA.AperFunction,Plated,PTH,ComponentDrill
T6C0.0354
; #@! TA.AperFunction,Plated,PTH,ComponentDrill
T7C0.0374
; #@! TA.AperFunction,Plated,PTH,ComponentDrill
T8C0.0512
%
G90
G05
T1
X6.2385Y-2.5918
X6.2385Y-2.6351
X6.2818Y-2.5918
X6.2818Y-2.6351
T2
X1.66Y-3.07
X1.78Y-3.77
X1.9602Y-3.32
X2.0298Y-3.32
X2.44Y-2.5
X2.54Y-3.21
X2.63Y-3.92
X3.14Y-1.8
X3.21Y-2.5
X3.22Y-3.31
X3.81Y-1.39
X3.87Y-2.11
X3.9063Y-2.83
X4.61Y-1.71
X4.65Y-2.42
X4.67Y-3.14
X5.03Y-4.7995
X5.08Y-2.6
X5.08Y-3.32
X5.32Y-3.66
X5.41Y-3.58
X5.41Y-3.62
X5.41Y-3.66
X5.4176Y-3.1824
X5.42Y-1.95
X5.42Y-2.67
X5.46Y-4.83
X5.52Y-2.87
X5.52Y-3.31
X5.52Y-3.66
X5.55Y-3.62
X5.57Y-3.95
X5.5702Y-4.0098
X5.63Y-3.9285
X5.65Y-4.11
X5.69Y-3.9085
X5.7104Y-2.5589
X5.75Y-3.8885
X5.7602Y-2.6098
X5.81Y-3.87
X5.84Y-2.61
X5.84Y-2.6862
X5.85Y-3.7974
X5.85Y-4.15
X5.8818Y-2.4498
X5.89Y-2.716
X5.9281Y-4.34
X5.9636Y-1.9664
X5.9672Y-2.38
X5.9674Y-3.7669
X5.9674Y-4.34
X5.9995Y-2.47
X5.9998Y-1.9298
X6.0295Y-2.61
X6.03Y-2.0159
X6.05Y-4.04
X6.05Y-4.14
X6.05Y-4.18
X6.07Y-2.18
X6.09Y-2.096
X6.1412Y-2.5903
X6.15Y-2.5
X6.16Y-2.26
X6.17Y-3.78
X6.1994Y-2.26
X6.2Y-2.5
X6.2354Y-2.7492
X6.2513Y-3.67
X6.26Y-2.84
X6.2604Y-2.1
X6.2751Y-2.1451
X6.31Y-2.7
X6.32Y-2.5105
X6.34Y-2.4159
X6.36Y-4.31
X6.39Y-2.82
X6.39Y-4.35
X6.4025Y-1.88
X6.41Y-3.39
X6.42Y-4.31
X6.45Y-3.43
X6.4639Y-1.852
X6.48Y-2.45
X6.49Y-2.5726
X6.493Y-1.8815
X6.5Y-1.64
X6.5139Y-3.2961
X6.54Y-4.83
X6.59Y-3.58
X6.598Y-1.8528
X6.64Y-4.0639
X6.69Y-1.8595
X6.7Y-4.39
X6.7077Y-1.9411
T3
X6.2513Y-3.8027
X6.2513Y-4.1373
X6.2946Y-3.8027
X6.2946Y-4.1373
X6.338Y-3.8027
X6.338Y-4.1373
X6.3813Y-3.8027
X6.3813Y-4.1373
X6.4246Y-3.8027
X6.4246Y-4.1373
X6.4679Y-3.8027
X6.4679Y-4.1373
X6.5112Y-3.8027
X6.5112Y-4.1373
X6.5545Y-3.8027
X6.5545Y-4.1373
X6.5978Y-3.8027
X6.5978Y-4.1373
T5
X6.73Y-3.3413
X6.73Y-3.42
X6.73Y-3.4987
T6
X6.71Y-2.4269
X6.71Y-2.5135
X6.71Y-2.6002
X6.71Y-2.6868
X6.71Y-2.7734
X6.71Y-2.86
T7
X5.9672Y-1.59
X5.9672Y-1.6884
X5.9672Y-1.7869
T8
X6.73Y-3.2507
X6.73Y-3.5893
T4
G00X6.3299Y-1.6105
M15
G01X6.3299Y-1.5869
M16
G05
G00X6.3299Y-1.7849
M15
G01X6.3299Y-1.7416
M16
G05
G00X6.6701Y-1.6105
M15
G01X6.6701Y-1.5869
M16
G05
G00X6.6701Y-1.7849
M15
G01X6.6701Y-1.7416
M16
G05
T0
M30
