  0
SECTION
  2
HEADER
  9
$ANGBASE
  50
0.0
  9
$ANGDIR
  70
1
  9
$MEASUREMENT
  70
1
  0
ENDSEC
  0
SECTION
  2
TABLES
  0
TABLE
  2
LTYPE
  70
4
  0
LTYPE
  5
40F
  2
CONTINUOUS
  70
0
  3
Solid line
  72
65
  73
0
  40
0.0
  0
LTYPE
  5
410
  2
DASHDOT
 70
0
  3
Dash Dot ____ _ ____ _
 72
65
 73
4
 40
2.0
 49
1.25
 49
-0.25
 49
0.25
 49
-0.25
  0
LTYPE
  5
411
  2
DASHED
 70
0
  3
Dashed __ __ __ __ __
 72
65
 73
2
 40
0.75
 49
0.5
 49
-0.25
  0
LTYPE
  5
43B
  2
DOTTED
 70
0
  3
Dotted .  .  .  .
 72
65
 73
2
 40
0.2
 49
0.0
 49
-0.2
  0
ENDTAB
  0
TABLE
  2
STYLE
  70
4
  0
STYLE
  2
KICAD
  70
0
  40
0
  41
1
  42
1
  50
0
  71
0
  3
isocp.shx
  0
STYLE
  2
KICADB
  70
0
  40
0
  41
1
  42
1
  50
0
  71
0
  3
isocp.shx
  0
STYLE
  2
KICADI
  70
0
  40
0
  41
1
  42
1
  50
15
  71
0
  3
isocp.shx
  0
STYLE
  2
KICADBI
  70
0
  40
0
  41
1
  42
1
  50
15
  71
0
  3
isocp.shx
  0
ENDTAB
  0
TABLE
  2
LAYER
  70
1
  0
LAYER
  2
BLACK
  70
0
  62
7
  6
CONTINUOUS
  0
ENDTAB
  0
ENDSEC
  0
SECTION
  2
ENTITIES
0
LINE
8
BLACK
6
CONTINUOUS
10
154.658
20
-111.602
11
154.839
21
-111.651
0
LINE
8
BLACK
6
CONTINUOUS
10
154.839
20
-111.651
11
155.009
21
-111.73
0
LINE
8
BLACK
6
CONTINUOUS
10
155.009
20
-111.73
11
155.163
21
-111.837
0
LINE
8
BLACK
6
CONTINUOUS
10
155.163
20
-111.837
11
155.163
21
-111.837
0
LINE
8
BLACK
6
CONTINUOUS
10
155.163
20
-111.837
11
155.163
21
-111.837
0
LINE
8
BLACK
6
CONTINUOUS
10
155.163
20
-111.837
11
155.163
21
-111.837
0
LINE
8
BLACK
6
CONTINUOUS
10
155.163
20
-111.837
11
165.121
21
-120.194
0
LINE
8
BLACK
6
CONTINUOUS
10
165.121
20
-120.194
11
165.121
21
-120.194
0
LINE
8
BLACK
6
CONTINUOUS
10
165.121
20
-120.194
11
165.254
21
-120.326
0
LINE
8
BLACK
6
CONTINUOUS
10
165.254
20
-120.326
11
165.361
21
-120.48
0
LINE
8
BLACK
6
CONTINUOUS
10
165.361
20
-120.48
11
165.44
21
-120.649
0
LINE
8
BLACK
6
CONTINUOUS
10
165.44
20
-120.649
11
165.489
21
-120.83
0
LINE
8
BLACK
6
CONTINUOUS
10
165.489
20
-120.83
11
165.505
21
-121.017
0
LINE
8
BLACK
6
CONTINUOUS
10
165.505
20
-121.017
11
165.489
21
-121.204
0
LINE
8
BLACK
6
CONTINUOUS
10
165.489
20
-121.204
11
165.44
21
-121.385
0
LINE
8
BLACK
6
CONTINUOUS
10
165.44
20
-121.385
11
165.361
21
-121.555
0
LINE
8
BLACK
6
CONTINUOUS
10
165.361
20
-121.555
11
165.254
21
-121.708
0
LINE
8
BLACK
6
CONTINUOUS
10
165.254
20
-121.708
11
165.254
21
-121.708
0
LINE
8
BLACK
6
CONTINUOUS
10
165.254
20
-121.708
11
156.898
21
-131.667
0
LINE
8
BLACK
6
CONTINUOUS
10
156.898
20
-131.667
11
156.898
21
-131.667
0
LINE
8
BLACK
6
CONTINUOUS
10
156.898
20
-131.667
11
156.765
21
-131.799
0
LINE
8
BLACK
6
CONTINUOUS
10
156.765
20
-131.799
11
156.612
21
-131.907
0
LINE
8
BLACK
6
CONTINUOUS
10
156.612
20
-131.907
11
156.442
21
-131.986
0
LINE
8
BLACK
6
CONTINUOUS
10
156.442
20
-131.986
11
156.261
21
-132.034
0
LINE
8
BLACK
6
CONTINUOUS
10
156.261
20
-132.034
11
156.074
21
-132.051
0
LINE
8
BLACK
6
CONTINUOUS
10
156.074
20
-132.051
11
155.887
21
-132.034
0
LINE
8
BLACK
6
CONTINUOUS
10
155.887
20
-132.034
11
155.706
21
-131.986
0
LINE
8
BLACK
6
CONTINUOUS
10
155.706
20
-131.986
11
155.537
21
-131.907
0
LINE
8
BLACK
6
CONTINUOUS
10
155.537
20
-131.907
11
155.383
21
-131.799
0
LINE
8
BLACK
6
CONTINUOUS
10
155.383
20
-131.799
11
155.383
21
-131.799
0
LINE
8
BLACK
6
CONTINUOUS
10
155.383
20
-131.799
11
155.383
21
-131.799
0
LINE
8
BLACK
6
CONTINUOUS
10
155.383
20
-131.799
11
145.424
21
-123.443
0
LINE
8
BLACK
6
CONTINUOUS
10
145.424
20
-123.443
11
145.424
21
-123.443
0
LINE
8
BLACK
6
CONTINUOUS
10
145.424
20
-123.443
11
145.292
21
-123.31
0
LINE
8
BLACK
6
CONTINUOUS
10
145.292
20
-123.31
11
145.184
21
-123.157
0
LINE
8
BLACK
6
CONTINUOUS
10
145.184
20
-123.157
11
145.105
21
-122.987
0
LINE
8
BLACK
6
CONTINUOUS
10
145.105
20
-122.987
11
145.057
21
-122.806
0
LINE
8
BLACK
6
CONTINUOUS
10
145.057
20
-122.806
11
145.04
21
-122.619
0
LINE
8
BLACK
6
CONTINUOUS
10
145.04
20
-122.619
11
145.057
21
-122.433
0
LINE
8
BLACK
6
CONTINUOUS
10
145.057
20
-122.433
11
145.105
21
-122.252
0
LINE
8
BLACK
6
CONTINUOUS
10
145.105
20
-122.252
11
145.185
21
-122.082
0
LINE
8
BLACK
6
CONTINUOUS
10
145.185
20
-122.082
11
145.292
21
-121.929
0
LINE
8
BLACK
6
CONTINUOUS
10
145.292
20
-121.929
11
145.292
21
-121.928
0
LINE
8
BLACK
6
CONTINUOUS
10
145.292
20
-121.928
11
145.292
21
-121.928
0
LINE
8
BLACK
6
CONTINUOUS
10
145.292
20
-121.928
11
145.292
21
-121.928
0
LINE
8
BLACK
6
CONTINUOUS
10
145.292
20
-121.928
11
153.648
21
-111.97
0
LINE
8
BLACK
6
CONTINUOUS
10
153.648
20
-111.97
11
153.648
21
-111.97
0
LINE
8
BLACK
6
CONTINUOUS
10
153.648
20
-111.97
11
153.781
21
-111.837
0
LINE
8
BLACK
6
CONTINUOUS
10
153.781
20
-111.837
11
153.934
21
-111.73
0
LINE
8
BLACK
6
CONTINUOUS
10
153.934
20
-111.73
11
154.104
21
-111.651
0
LINE
8
BLACK
6
CONTINUOUS
10
154.104
20
-111.651
11
154.285
21
-111.602
0
LINE
8
BLACK
6
CONTINUOUS
10
154.285
20
-111.602
11
154.472
21
-111.586
0
LINE
8
BLACK
6
CONTINUOUS
10
154.472
20
-111.586
11
154.658
21
-111.602
0
LINE
8
BLACK
6
CONTINUOUS
10
154.391
20
-111.736
11
154.231
21
-111.764
0
LINE
8
BLACK
6
CONTINUOUS
10
154.231
20
-111.764
11
154.079
21
-111.819
0
LINE
8
BLACK
6
CONTINUOUS
10
154.079
20
-111.819
11
153.939
21
-111.9
0
LINE
8
BLACK
6
CONTINUOUS
10
153.939
20
-111.9
11
153.815
21
-112.004
0
LINE
8
BLACK
6
CONTINUOUS
10
153.815
20
-112.004
11
153.763
21
-112.066
0
LINE
8
BLACK
6
CONTINUOUS
10
153.763
20
-112.066
11
153.763
21
-112.066
0
LINE
8
BLACK
6
CONTINUOUS
10
153.763
20
-112.066
11
145.407
21
-122.025
0
LINE
8
BLACK
6
CONTINUOUS
10
145.407
20
-122.025
11
145.407
21
-122.025
0
LINE
8
BLACK
6
CONTINUOUS
10
145.407
20
-122.025
11
145.407
21
-122.025
0
LINE
8
BLACK
6
CONTINUOUS
10
145.407
20
-122.025
11
145.407
21
-122.025
0
LINE
8
BLACK
6
CONTINUOUS
10
145.407
20
-122.025
11
145.355
21
-122.087
0
LINE
8
BLACK
6
CONTINUOUS
10
145.355
20
-122.087
11
145.274
21
-122.227
0
LINE
8
BLACK
6
CONTINUOUS
10
145.274
20
-122.227
11
145.219
21
-122.379
0
LINE
8
BLACK
6
CONTINUOUS
10
145.219
20
-122.379
11
145.19
21
-122.538
0
LINE
8
BLACK
6
CONTINUOUS
10
145.19
20
-122.538
11
145.19
21
-122.7
0
LINE
8
BLACK
6
CONTINUOUS
10
145.19
20
-122.7
11
145.219
21
-122.86
0
LINE
8
BLACK
6
CONTINUOUS
10
145.219
20
-122.86
11
145.274
21
-123.012
0
LINE
8
BLACK
6
CONTINUOUS
10
145.274
20
-123.012
11
145.355
21
-123.152
0
LINE
8
BLACK
6
CONTINUOUS
10
145.355
20
-123.152
11
145.459
21
-123.276
0
LINE
8
BLACK
6
CONTINUOUS
10
145.459
20
-123.276
11
145.521
21
-123.328
0
LINE
8
BLACK
6
CONTINUOUS
10
145.521
20
-123.328
11
145.521
21
-123.328
0
LINE
8
BLACK
6
CONTINUOUS
10
145.521
20
-123.328
11
155.479
21
-131.684
0
LINE
8
BLACK
6
CONTINUOUS
10
155.479
20
-131.684
11
155.48
21
-131.684
0
LINE
8
BLACK
6
CONTINUOUS
10
155.48
20
-131.684
11
155.541
21
-131.736
0
LINE
8
BLACK
6
CONTINUOUS
10
155.541
20
-131.736
11
155.682
21
-131.817
0
LINE
8
BLACK
6
CONTINUOUS
10
155.682
20
-131.817
11
155.834
21
-131.873
0
LINE
8
BLACK
6
CONTINUOUS
10
155.834
20
-131.873
11
155.993
21
-131.901
0
LINE
8
BLACK
6
CONTINUOUS
10
155.993
20
-131.901
11
156.155
21
-131.901
0
LINE
8
BLACK
6
CONTINUOUS
10
156.155
20
-131.901
11
156.314
21
-131.873
0
LINE
8
BLACK
6
CONTINUOUS
10
156.314
20
-131.873
11
156.466
21
-131.817
0
LINE
8
BLACK
6
CONTINUOUS
10
156.466
20
-131.817
11
156.607
21
-131.736
0
LINE
8
BLACK
6
CONTINUOUS
10
156.607
20
-131.736
11
156.731
21
-131.632
0
LINE
8
BLACK
6
CONTINUOUS
10
156.731
20
-131.632
11
156.783
21
-131.57
0
LINE
8
BLACK
6
CONTINUOUS
10
156.783
20
-131.57
11
156.783
21
-131.57
0
LINE
8
BLACK
6
CONTINUOUS
10
156.783
20
-131.57
11
165.139
21
-121.612
0
LINE
8
BLACK
6
CONTINUOUS
10
165.139
20
-121.612
11
165.139
21
-121.612
0
LINE
8
BLACK
6
CONTINUOUS
10
165.139
20
-121.612
11
165.139
21
-121.612
0
LINE
8
BLACK
6
CONTINUOUS
10
165.139
20
-121.612
11
165.191
21
-121.55
0
LINE
8
BLACK
6
CONTINUOUS
10
165.191
20
-121.55
11
165.272
21
-121.409
0
LINE
8
BLACK
6
CONTINUOUS
10
165.272
20
-121.409
11
165.327
21
-121.257
0
LINE
8
BLACK
6
CONTINUOUS
10
165.327
20
-121.257
11
165.355
21
-121.098
0
LINE
8
BLACK
6
CONTINUOUS
10
165.355
20
-121.098
11
165.355
21
-120.936
0
LINE
8
BLACK
6
CONTINUOUS
10
165.355
20
-120.936
11
165.327
21
-120.777
0
LINE
8
BLACK
6
CONTINUOUS
10
165.327
20
-120.777
11
165.272
21
-120.625
0
LINE
8
BLACK
6
CONTINUOUS
10
165.272
20
-120.625
11
165.191
21
-120.484
0
LINE
8
BLACK
6
CONTINUOUS
10
165.191
20
-120.484
11
165.087
21
-120.36
0
LINE
8
BLACK
6
CONTINUOUS
10
165.087
20
-120.36
11
165.025
21
-120.308
0
LINE
8
BLACK
6
CONTINUOUS
10
165.025
20
-120.308
11
165.025
21
-120.308
0
LINE
8
BLACK
6
CONTINUOUS
10
165.025
20
-120.308
11
165.025
21
-120.308
0
LINE
8
BLACK
6
CONTINUOUS
10
165.025
20
-120.308
11
155.066
21
-111.952
0
LINE
8
BLACK
6
CONTINUOUS
10
155.066
20
-111.952
11
155.066
21
-111.952
0
LINE
8
BLACK
6
CONTINUOUS
10
155.066
20
-111.952
11
155.004
21
-111.9
0
LINE
8
BLACK
6
CONTINUOUS
10
155.004
20
-111.9
11
154.864
21
-111.819
0
LINE
8
BLACK
6
CONTINUOUS
10
154.864
20
-111.819
11
154.712
21
-111.764
0
LINE
8
BLACK
6
CONTINUOUS
10
154.712
20
-111.764
11
154.553
21
-111.736
0
LINE
8
BLACK
6
CONTINUOUS
10
154.553
20
-111.736
11
154.391
21
-111.736
0
LINE
8
BLACK
6
CONTINUOUS
10
129.95
20
-102.387
11
130.134
21
-102.42
0
LINE
8
BLACK
6
CONTINUOUS
10
130.134
20
-102.42
11
130.134
21
-102.42
0
LINE
8
BLACK
6
CONTINUOUS
10
130.134
20
-102.42
11
130.134
21
-102.42
0
LINE
8
BLACK
6
CONTINUOUS
10
130.134
20
-102.42
11
130.134
21
-102.42
0
LINE
8
BLACK
6
CONTINUOUS
10
130.134
20
-102.42
11
130.134
21
-102.42
0
LINE
8
BLACK
6
CONTINUOUS
10
130.134
20
-102.42
11
142.691
21
-105.784
0
LINE
8
BLACK
6
CONTINUOUS
10
142.691
20
-105.784
11
142.691
21
-105.784
0
LINE
8
BLACK
6
CONTINUOUS
10
142.691
20
-105.784
11
142.691
21
-105.784
0
LINE
8
BLACK
6
CONTINUOUS
10
142.691
20
-105.784
11
142.691
21
-105.784
0
LINE
8
BLACK
6
CONTINUOUS
10
142.691
20
-105.784
11
142.867
21
-105.848
0
LINE
8
BLACK
6
CONTINUOUS
10
142.867
20
-105.848
11
143.03
21
-105.942
0
LINE
8
BLACK
6
CONTINUOUS
10
143.03
20
-105.942
11
143.173
21
-106.063
0
LINE
8
BLACK
6
CONTINUOUS
10
143.173
20
-106.063
11
143.294
21
-106.206
0
LINE
8
BLACK
6
CONTINUOUS
10
143.294
20
-106.206
11
143.387
21
-106.368
0
LINE
8
BLACK
6
CONTINUOUS
10
143.387
20
-106.368
11
143.452
21
-106.545
0
LINE
8
BLACK
6
CONTINUOUS
10
143.452
20
-106.545
11
143.484
21
-106.729
0
LINE
8
BLACK
6
CONTINUOUS
10
143.484
20
-106.729
11
143.484
21
-106.916
0
LINE
8
BLACK
6
CONTINUOUS
10
143.484
20
-106.916
11
143.452
21
-107.101
0
LINE
8
BLACK
6
CONTINUOUS
10
143.452
20
-107.101
11
143.452
21
-107.101
0
LINE
8
BLACK
6
CONTINUOUS
10
143.452
20
-107.101
11
143.452
21
-107.101
0
LINE
8
BLACK
6
CONTINUOUS
10
143.452
20
-107.101
11
143.452
21
-107.101
0
LINE
8
BLACK
6
CONTINUOUS
10
143.452
20
-107.101
11
143.452
21
-107.101
0
LINE
8
BLACK
6
CONTINUOUS
10
143.452
20
-107.101
11
140.087
21
-119.658
0
LINE
8
BLACK
6
CONTINUOUS
10
140.087
20
-119.658
11
140.087
21
-119.658
0
LINE
8
BLACK
6
CONTINUOUS
10
140.087
20
-119.658
11
140.023
21
-119.834
0
LINE
8
BLACK
6
CONTINUOUS
10
140.023
20
-119.834
11
139.929
21
-119.996
0
LINE
8
BLACK
6
CONTINUOUS
10
139.929
20
-119.996
11
139.809
21
-120.14
0
LINE
8
BLACK
6
CONTINUOUS
10
139.809
20
-120.14
11
139.665
21
-120.26
0
LINE
8
BLACK
6
CONTINUOUS
10
139.665
20
-120.26
11
139.503
21
-120.354
0
LINE
8
BLACK
6
CONTINUOUS
10
139.503
20
-120.354
11
139.327
21
-120.418
0
LINE
8
BLACK
6
CONTINUOUS
10
139.327
20
-120.418
11
139.142
21
-120.451
0
LINE
8
BLACK
6
CONTINUOUS
10
139.142
20
-120.451
11
138.955
21
-120.451
0
LINE
8
BLACK
6
CONTINUOUS
10
138.955
20
-120.451
11
138.77
21
-120.418
0
LINE
8
BLACK
6
CONTINUOUS
10
138.77
20
-120.418
11
138.77
21
-120.418
0
LINE
8
BLACK
6
CONTINUOUS
10
138.77
20
-120.418
11
138.77
21
-120.418
0
LINE
8
BLACK
6
CONTINUOUS
10
138.77
20
-120.418
11
126.213
21
-117.053
0
LINE
8
BLACK
6
CONTINUOUS
10
126.213
20
-117.053
11
126.037
21
-116.989
0
LINE
8
BLACK
6
CONTINUOUS
10
126.037
20
-116.989
11
125.875
21
-116.896
0
LINE
8
BLACK
6
CONTINUOUS
10
125.875
20
-116.896
11
125.731
21
-116.775
0
LINE
8
BLACK
6
CONTINUOUS
10
125.731
20
-116.775
11
125.611
21
-116.632
0
LINE
8
BLACK
6
CONTINUOUS
10
125.611
20
-116.632
11
125.517
21
-116.469
0
LINE
8
BLACK
6
CONTINUOUS
10
125.517
20
-116.469
11
125.453
21
-116.293
0
LINE
8
BLACK
6
CONTINUOUS
10
125.453
20
-116.293
11
125.421
21
-116.109
0
LINE
8
BLACK
6
CONTINUOUS
10
125.421
20
-116.109
11
125.421
21
-115.921
0
LINE
8
BLACK
6
CONTINUOUS
10
125.421
20
-115.921
11
125.453
21
-115.737
0
LINE
8
BLACK
6
CONTINUOUS
10
125.453
20
-115.737
11
125.453
21
-115.737
0
LINE
8
BLACK
6
CONTINUOUS
10
125.453
20
-115.737
11
125.453
21
-115.737
0
LINE
8
BLACK
6
CONTINUOUS
10
125.453
20
-115.737
11
128.818
21
-103.18
0
LINE
8
BLACK
6
CONTINUOUS
10
128.818
20
-103.18
11
128.818
21
-103.18
0
LINE
8
BLACK
6
CONTINUOUS
10
128.818
20
-103.18
11
128.818
21
-103.18
0
LINE
8
BLACK
6
CONTINUOUS
10
128.818
20
-103.18
11
128.882
21
-103.004
0
LINE
8
BLACK
6
CONTINUOUS
10
128.882
20
-103.004
11
128.976
21
-102.842
0
LINE
8
BLACK
6
CONTINUOUS
10
128.976
20
-102.842
11
129.096
21
-102.698
0
LINE
8
BLACK
6
CONTINUOUS
10
129.096
20
-102.698
11
129.24
21
-102.578
0
LINE
8
BLACK
6
CONTINUOUS
10
129.24
20
-102.578
11
129.402
21
-102.484
0
LINE
8
BLACK
6
CONTINUOUS
10
129.402
20
-102.484
11
129.578
21
-102.42
0
LINE
8
BLACK
6
CONTINUOUS
10
129.578
20
-102.42
11
129.762
21
-102.387
0
LINE
8
BLACK
6
CONTINUOUS
10
129.762
20
-102.387
11
129.95
21
-102.387
0
LINE
8
BLACK
6
CONTINUOUS
10
129.695
20
-102.544
11
129.539
21
-102.586
0
LINE
8
BLACK
6
CONTINUOUS
10
129.539
20
-102.586
11
129.392
21
-102.654
0
LINE
8
BLACK
6
CONTINUOUS
10
129.392
20
-102.654
11
129.259
21
-102.747
0
LINE
8
BLACK
6
CONTINUOUS
10
129.259
20
-102.747
11
129.145
21
-102.861
0
LINE
8
BLACK
6
CONTINUOUS
10
129.145
20
-102.861
11
129.052
21
-102.994
0
LINE
8
BLACK
6
CONTINUOUS
10
129.052
20
-102.994
11
128.984
21
-103.141
0
LINE
8
BLACK
6
CONTINUOUS
10
128.984
20
-103.141
11
128.963
21
-103.219
0
LINE
8
BLACK
6
CONTINUOUS
10
128.963
20
-103.219
11
125.598
21
-115.776
0
LINE
8
BLACK
6
CONTINUOUS
10
125.598
20
-115.776
11
125.598
21
-115.776
0
LINE
8
BLACK
6
CONTINUOUS
10
125.598
20
-115.776
11
125.577
21
-115.854
0
LINE
8
BLACK
6
CONTINUOUS
10
125.577
20
-115.854
11
125.563
21
-116.015
0
LINE
8
BLACK
6
CONTINUOUS
10
125.563
20
-116.015
11
125.577
21
-116.176
0
LINE
8
BLACK
6
CONTINUOUS
10
125.577
20
-116.176
11
125.619
21
-116.333
0
LINE
8
BLACK
6
CONTINUOUS
10
125.619
20
-116.333
11
125.687
21
-116.479
0
LINE
8
BLACK
6
CONTINUOUS
10
125.687
20
-116.479
11
125.78
21
-116.612
0
LINE
8
BLACK
6
CONTINUOUS
10
125.78
20
-116.612
11
125.895
21
-116.726
0
LINE
8
BLACK
6
CONTINUOUS
10
125.895
20
-116.726
11
126.027
21
-116.819
0
LINE
8
BLACK
6
CONTINUOUS
10
126.027
20
-116.819
11
126.174
21
-116.888
0
LINE
8
BLACK
6
CONTINUOUS
10
126.174
20
-116.888
11
126.252
21
-116.909
0
LINE
8
BLACK
6
CONTINUOUS
10
126.252
20
-116.909
11
126.252
21
-116.909
0
LINE
8
BLACK
6
CONTINUOUS
10
126.252
20
-116.909
11
138.809
21
-120.273
0
LINE
8
BLACK
6
CONTINUOUS
10
138.809
20
-120.273
11
138.809
21
-120.273
0
LINE
8
BLACK
6
CONTINUOUS
10
138.809
20
-120.273
11
138.809
21
-120.273
0
LINE
8
BLACK
6
CONTINUOUS
10
138.809
20
-120.273
11
138.809
21
-120.273
0
LINE
8
BLACK
6
CONTINUOUS
10
138.809
20
-120.273
11
138.887
21
-120.294
0
LINE
8
BLACK
6
CONTINUOUS
10
138.887
20
-120.294
11
139.049
21
-120.308
0
LINE
8
BLACK
6
CONTINUOUS
10
139.049
20
-120.308
11
139.21
21
-120.294
0
LINE
8
BLACK
6
CONTINUOUS
10
139.21
20
-120.294
11
139.366
21
-120.252
0
LINE
8
BLACK
6
CONTINUOUS
10
139.366
20
-120.252
11
139.513
21
-120.184
0
LINE
8
BLACK
6
CONTINUOUS
10
139.513
20
-120.184
11
139.645
21
-120.091
0
LINE
8
BLACK
6
CONTINUOUS
10
139.645
20
-120.091
11
139.76
21
-119.977
0
LINE
8
BLACK
6
CONTINUOUS
10
139.76
20
-119.977
11
139.853
21
-119.844
0
LINE
8
BLACK
6
CONTINUOUS
10
139.853
20
-119.844
11
139.921
21
-119.697
0
LINE
8
BLACK
6
CONTINUOUS
10
139.921
20
-119.697
11
139.942
21
-119.619
0
LINE
8
BLACK
6
CONTINUOUS
10
139.942
20
-119.619
11
139.942
21
-119.619
0
LINE
8
BLACK
6
CONTINUOUS
10
139.942
20
-119.619
11
143.307
21
-107.062
0
LINE
8
BLACK
6
CONTINUOUS
10
143.307
20
-107.062
11
143.307
21
-107.062
0
LINE
8
BLACK
6
CONTINUOUS
10
143.307
20
-107.062
11
143.307
21
-107.062
0
LINE
8
BLACK
6
CONTINUOUS
10
143.307
20
-107.062
11
143.307
21
-107.062
0
LINE
8
BLACK
6
CONTINUOUS
10
143.307
20
-107.062
11
143.328
21
-106.984
0
LINE
8
BLACK
6
CONTINUOUS
10
143.328
20
-106.984
11
143.342
21
-106.823
0
LINE
8
BLACK
6
CONTINUOUS
10
143.342
20
-106.823
11
143.328
21
-106.661
0
LINE
8
BLACK
6
CONTINUOUS
10
143.328
20
-106.661
11
143.286
21
-106.505
0
LINE
8
BLACK
6
CONTINUOUS
10
143.286
20
-106.505
11
143.217
21
-106.358
0
LINE
8
BLACK
6
CONTINUOUS
10
143.217
20
-106.358
11
143.124
21
-106.226
0
LINE
8
BLACK
6
CONTINUOUS
10
143.124
20
-106.226
11
143.01
21
-106.111
0
LINE
8
BLACK
6
CONTINUOUS
10
143.01
20
-106.111
11
142.877
21
-106.019
0
LINE
8
BLACK
6
CONTINUOUS
10
142.877
20
-106.019
11
142.731
21
-105.95
0
LINE
8
BLACK
6
CONTINUOUS
10
142.731
20
-105.95
11
142.653
21
-105.929
0
LINE
8
BLACK
6
CONTINUOUS
10
142.653
20
-105.929
11
142.653
21
-105.929
0
LINE
8
BLACK
6
CONTINUOUS
10
142.653
20
-105.929
11
130.096
21
-102.565
0
LINE
8
BLACK
6
CONTINUOUS
10
130.096
20
-102.565
11
130.096
21
-102.565
0
LINE
8
BLACK
6
CONTINUOUS
10
130.096
20
-102.565
11
130.096
21
-102.565
0
LINE
8
BLACK
6
CONTINUOUS
10
130.096
20
-102.565
11
130.096
21
-102.565
0
LINE
8
BLACK
6
CONTINUOUS
10
130.096
20
-102.565
11
130.017
21
-102.544
0
LINE
8
BLACK
6
CONTINUOUS
10
130.017
20
-102.544
11
129.856
21
-102.53
0
LINE
8
BLACK
6
CONTINUOUS
10
129.856
20
-102.53
11
129.695
21
-102.544
0
LINE
8
BLACK
6
CONTINUOUS
10
116.647
20
-102.204
11
116.828
21
-102.253
0
LINE
8
BLACK
6
CONTINUOUS
10
116.828
20
-102.253
11
116.998
21
-102.332
0
LINE
8
BLACK
6
CONTINUOUS
10
116.998
20
-102.332
11
117.151
21
-102.44
0
LINE
8
BLACK
6
CONTINUOUS
10
117.151
20
-102.44
11
117.284
21
-102.572
0
LINE
8
BLACK
6
CONTINUOUS
10
117.284
20
-102.572
11
117.391
21
-102.726
0
LINE
8
BLACK
6
CONTINUOUS
10
117.391
20
-102.726
11
117.47
21
-102.895
0
LINE
8
BLACK
6
CONTINUOUS
10
117.47
20
-102.895
11
117.519
21
-103.076
0
LINE
8
BLACK
6
CONTINUOUS
10
117.519
20
-103.076
11
117.519
21
-103.076
0
LINE
8
BLACK
6
CONTINUOUS
10
117.519
20
-103.076
11
117.519
21
-103.076
0
LINE
8
BLACK
6
CONTINUOUS
10
117.519
20
-103.076
11
119.776
21
-115.879
0
LINE
8
BLACK
6
CONTINUOUS
10
119.776
20
-115.879
11
119.776
21
-115.879
0
LINE
8
BLACK
6
CONTINUOUS
10
119.776
20
-115.879
11
119.793
21
-116.066
0
LINE
8
BLACK
6
CONTINUOUS
10
119.793
20
-116.066
11
119.776
21
-116.252
0
LINE
8
BLACK
6
CONTINUOUS
10
119.776
20
-116.252
11
119.728
21
-116.433
0
LINE
8
BLACK
6
CONTINUOUS
10
119.728
20
-116.433
11
119.649
21
-116.603
0
LINE
8
BLACK
6
CONTINUOUS
10
119.649
20
-116.603
11
119.541
21
-116.757
0
LINE
8
BLACK
6
CONTINUOUS
10
119.541
20
-116.757
11
119.409
21
-116.889
0
LINE
8
BLACK
6
CONTINUOUS
10
119.409
20
-116.889
11
119.255
21
-116.997
0
LINE
8
BLACK
6
CONTINUOUS
10
119.255
20
-116.997
11
119.085
21
-117.076
0
LINE
8
BLACK
6
CONTINUOUS
10
119.085
20
-117.076
11
118.904
21
-117.124
0
LINE
8
BLACK
6
CONTINUOUS
10
118.904
20
-117.124
11
118.904
21
-117.124
0
LINE
8
BLACK
6
CONTINUOUS
10
118.904
20
-117.124
11
106.102
21
-119.382
0
LINE
8
BLACK
6
CONTINUOUS
10
106.102
20
-119.382
11
106.102
21
-119.382
0
LINE
8
BLACK
6
CONTINUOUS
10
106.102
20
-119.382
11
106.102
21
-119.382
0
LINE
8
BLACK
6
CONTINUOUS
10
106.102
20
-119.382
11
105.915
21
-119.398
0
LINE
8
BLACK
6
CONTINUOUS
10
105.915
20
-119.398
11
105.728
21
-119.382
0
LINE
8
BLACK
6
CONTINUOUS
10
105.728
20
-119.382
11
105.547
21
-119.333
0
LINE
8
BLACK
6
CONTINUOUS
10
105.547
20
-119.333
11
105.378
21
-119.254
0
LINE
8
BLACK
6
CONTINUOUS
10
105.378
20
-119.254
11
105.224
21
-119.147
0
LINE
8
BLACK
6
CONTINUOUS
10
105.224
20
-119.147
11
105.092
21
-119.014
0
LINE
8
BLACK
6
CONTINUOUS
10
105.092
20
-119.014
11
104.984
21
-118.861
0
LINE
8
BLACK
6
CONTINUOUS
10
104.984
20
-118.861
11
104.905
21
-118.691
0
LINE
8
BLACK
6
CONTINUOUS
10
104.905
20
-118.691
11
104.856
21
-118.51
0
LINE
8
BLACK
6
CONTINUOUS
10
104.856
20
-118.51
11
104.856
21
-118.51
0
LINE
8
BLACK
6
CONTINUOUS
10
104.856
20
-118.51
11
102.599
21
-105.707
0
LINE
8
BLACK
6
CONTINUOUS
10
102.599
20
-105.707
11
102.599
21
-105.707
0
LINE
8
BLACK
6
CONTINUOUS
10
102.599
20
-105.707
11
102.583
21
-105.521
0
LINE
8
BLACK
6
CONTINUOUS
10
102.583
20
-105.521
11
102.599
21
-105.334
0
LINE
8
BLACK
6
CONTINUOUS
10
102.599
20
-105.334
11
102.647
21
-105.153
0
LINE
8
BLACK
6
CONTINUOUS
10
102.647
20
-105.153
11
102.727
21
-104.983
0
LINE
8
BLACK
6
CONTINUOUS
10
102.727
20
-104.983
11
102.834
21
-104.83
0
LINE
8
BLACK
6
CONTINUOUS
10
102.834
20
-104.83
11
102.967
21
-104.697
0
LINE
8
BLACK
6
CONTINUOUS
10
102.967
20
-104.697
11
103.12
21
-104.59
0
LINE
8
BLACK
6
CONTINUOUS
10
103.12
20
-104.59
11
103.29
21
-104.51
0
LINE
8
BLACK
6
CONTINUOUS
10
103.29
20
-104.51
11
103.471
21
-104.462
0
LINE
8
BLACK
6
CONTINUOUS
10
103.471
20
-104.462
11
103.471
21
-104.462
0
LINE
8
BLACK
6
CONTINUOUS
10
103.471
20
-104.462
11
103.471
21
-104.462
0
LINE
8
BLACK
6
CONTINUOUS
10
103.471
20
-104.462
11
116.273
21
-102.205
0
LINE
8
BLACK
6
CONTINUOUS
10
116.273
20
-102.205
11
116.274
21
-102.205
0
LINE
8
BLACK
6
CONTINUOUS
10
116.274
20
-102.205
11
116.46
21
-102.188
0
LINE
8
BLACK
6
CONTINUOUS
10
116.46
20
-102.188
11
116.647
21
-102.204
0
LINE
8
BLACK
6
CONTINUOUS
10
116.379
20
-102.338
11
116.3
21
-102.352
0
LINE
8
BLACK
6
CONTINUOUS
10
116.3
20
-102.352
11
116.3
21
-102.352
0
LINE
8
BLACK
6
CONTINUOUS
10
116.3
20
-102.352
11
116.3
21
-102.352
0
LINE
8
BLACK
6
CONTINUOUS
10
116.3
20
-102.352
11
103.497
21
-104.61
0
LINE
8
BLACK
6
CONTINUOUS
10
103.497
20
-104.61
11
103.497
21
-104.61
0
LINE
8
BLACK
6
CONTINUOUS
10
103.497
20
-104.61
11
103.417
21
-104.624
0
LINE
8
BLACK
6
CONTINUOUS
10
103.417
20
-104.624
11
103.265
21
-104.679
0
LINE
8
BLACK
6
CONTINUOUS
10
103.265
20
-104.679
11
103.125
21
-104.76
0
LINE
8
BLACK
6
CONTINUOUS
10
103.125
20
-104.76
11
103.001
21
-104.864
0
LINE
8
BLACK
6
CONTINUOUS
10
103.001
20
-104.864
11
102.897
21
-104.988
0
LINE
8
BLACK
6
CONTINUOUS
10
102.897
20
-104.988
11
102.816
21
-105.128
0
LINE
8
BLACK
6
CONTINUOUS
10
102.816
20
-105.128
11
102.761
21
-105.28
0
LINE
8
BLACK
6
CONTINUOUS
10
102.761
20
-105.28
11
102.733
21
-105.44
0
LINE
8
BLACK
6
CONTINUOUS
10
102.733
20
-105.44
11
102.733
21
-105.602
0
LINE
8
BLACK
6
CONTINUOUS
10
102.733
20
-105.602
11
102.747
21
-105.681
0
LINE
8
BLACK
6
CONTINUOUS
10
102.747
20
-105.681
11
102.747
21
-105.681
0
LINE
8
BLACK
6
CONTINUOUS
10
102.747
20
-105.681
11
105.004
21
-118.484
0
LINE
8
BLACK
6
CONTINUOUS
10
105.004
20
-118.484
11
105.004
21
-118.484
0
LINE
8
BLACK
6
CONTINUOUS
10
105.004
20
-118.484
11
105.004
21
-118.484
0
LINE
8
BLACK
6
CONTINUOUS
10
105.004
20
-118.484
11
105.018
21
-118.563
0
LINE
8
BLACK
6
CONTINUOUS
10
105.018
20
-118.563
11
105.074
21
-118.716
0
LINE
8
BLACK
6
CONTINUOUS
10
105.074
20
-118.716
11
105.154
21
-118.856
0
LINE
8
BLACK
6
CONTINUOUS
10
105.154
20
-118.856
11
105.259
21
-118.98
0
LINE
8
BLACK
6
CONTINUOUS
10
105.259
20
-118.98
11
105.383
21
-119.084
0
LINE
8
BLACK
6
CONTINUOUS
10
105.383
20
-119.084
11
105.523
21
-119.165
0
LINE
8
BLACK
6
CONTINUOUS
10
105.523
20
-119.165
11
105.675
21
-119.22
0
LINE
8
BLACK
6
CONTINUOUS
10
105.675
20
-119.22
11
105.834
21
-119.248
0
LINE
8
BLACK
6
CONTINUOUS
10
105.834
20
-119.248
11
105.996
21
-119.248
0
LINE
8
BLACK
6
CONTINUOUS
10
105.996
20
-119.248
11
106.076
21
-119.234
0
LINE
8
BLACK
6
CONTINUOUS
10
106.076
20
-119.234
11
106.076
21
-119.234
0
LINE
8
BLACK
6
CONTINUOUS
10
106.076
20
-119.234
11
118.878
21
-116.977
0
LINE
8
BLACK
6
CONTINUOUS
10
118.878
20
-116.977
11
118.878
21
-116.977
0
LINE
8
BLACK
6
CONTINUOUS
10
118.878
20
-116.977
11
118.958
21
-116.963
0
LINE
8
BLACK
6
CONTINUOUS
10
118.958
20
-116.963
11
119.11
21
-116.907
0
LINE
8
BLACK
6
CONTINUOUS
10
119.11
20
-116.907
11
119.25
21
-116.826
0
LINE
8
BLACK
6
CONTINUOUS
10
119.25
20
-116.826
11
119.374
21
-116.722
0
LINE
8
BLACK
6
CONTINUOUS
10
119.374
20
-116.722
11
119.478
21
-116.598
0
LINE
8
BLACK
6
CONTINUOUS
10
119.478
20
-116.598
11
119.559
21
-116.458
0
LINE
8
BLACK
6
CONTINUOUS
10
119.559
20
-116.458
11
119.614
21
-116.306
0
LINE
8
BLACK
6
CONTINUOUS
10
119.614
20
-116.306
11
119.643
21
-116.147
0
LINE
8
BLACK
6
CONTINUOUS
10
119.643
20
-116.147
11
119.643
21
-115.985
0
LINE
8
BLACK
6
CONTINUOUS
10
119.643
20
-115.985
11
119.629
21
-115.905
0
LINE
8
BLACK
6
CONTINUOUS
10
119.629
20
-115.905
11
119.629
21
-115.905
0
LINE
8
BLACK
6
CONTINUOUS
10
119.629
20
-115.905
11
119.629
21
-115.905
0
LINE
8
BLACK
6
CONTINUOUS
10
119.629
20
-115.905
11
117.371
21
-103.103
0
LINE
8
BLACK
6
CONTINUOUS
10
117.371
20
-103.103
11
117.371
21
-103.102
0
LINE
8
BLACK
6
CONTINUOUS
10
117.371
20
-103.102
11
117.357
21
-103.023
0
LINE
8
BLACK
6
CONTINUOUS
10
117.357
20
-103.023
11
117.302
21
-102.871
0
LINE
8
BLACK
6
CONTINUOUS
10
117.302
20
-102.871
11
117.221
21
-102.731
0
LINE
8
BLACK
6
CONTINUOUS
10
117.221
20
-102.731
11
117.117
21
-102.607
0
LINE
8
BLACK
6
CONTINUOUS
10
117.117
20
-102.607
11
116.993
21
-102.503
0
LINE
8
BLACK
6
CONTINUOUS
10
116.993
20
-102.503
11
116.853
21
-102.422
0
LINE
8
BLACK
6
CONTINUOUS
10
116.853
20
-102.422
11
116.701
21
-102.366
0
LINE
8
BLACK
6
CONTINUOUS
10
116.701
20
-102.366
11
116.541
21
-102.338
0
LINE
8
BLACK
6
CONTINUOUS
10
116.541
20
-102.338
11
116.379
21
-102.338
0
LINE
8
BLACK
6
CONTINUOUS
10
62.5688
20
-96.2945
11
62.748
21
-96.3493
0
LINE
8
BLACK
6
CONTINUOUS
10
62.748
20
-96.3493
11
62.9149
21
-96.4344
0
LINE
8
BLACK
6
CONTINUOUS
10
62.9149
20
-96.4344
11
63.0646
21
-96.5471
0
LINE
8
BLACK
6
CONTINUOUS
10
63.0646
20
-96.5471
11
63.1924
21
-96.6842
0
LINE
8
BLACK
6
CONTINUOUS
10
63.1924
20
-96.6842
11
63.2945
21
-96.8414
0
LINE
8
BLACK
6
CONTINUOUS
10
63.2945
20
-96.8414
11
63.3677
21
-97.0138
0
LINE
8
BLACK
6
CONTINUOUS
10
63.3677
20
-97.0138
11
63.4098
21
-97.1964
0
LINE
8
BLACK
6
CONTINUOUS
10
63.4098
20
-97.1964
11
63.4098
21
-97.1964
0
LINE
8
BLACK
6
CONTINUOUS
10
63.4098
20
-97.1964
11
65.2191
21
-110.07
0
LINE
8
BLACK
6
CONTINUOUS
10
65.2191
20
-110.07
11
65.2191
21
-110.07
0
LINE
8
BLACK
6
CONTINUOUS
10
65.2191
20
-110.07
11
65.2191
21
-110.07
0
LINE
8
BLACK
6
CONTINUOUS
10
65.2191
20
-110.07
11
65.2289
21
-110.257
0
LINE
8
BLACK
6
CONTINUOUS
10
65.2289
20
-110.257
11
65.206
21
-110.443
0
LINE
8
BLACK
6
CONTINUOUS
10
65.206
20
-110.443
11
65.1513
21
-110.622
0
LINE
8
BLACK
6
CONTINUOUS
10
65.1513
20
-110.622
11
65.0662
21
-110.789
0
LINE
8
BLACK
6
CONTINUOUS
10
65.0662
20
-110.789
11
64.9534
21
-110.939
0
LINE
8
BLACK
6
CONTINUOUS
10
64.9534
20
-110.939
11
64.8164
21
-111.067
0
LINE
8
BLACK
6
CONTINUOUS
10
64.8164
20
-111.067
11
64.6592
21
-111.169
0
LINE
8
BLACK
6
CONTINUOUS
10
64.6592
20
-111.169
11
64.4867
21
-111.242
0
LINE
8
BLACK
6
CONTINUOUS
10
64.4867
20
-111.242
11
64.3042
21
-111.284
0
LINE
8
BLACK
6
CONTINUOUS
10
64.3042
20
-111.284
11
64.3041
21
-111.284
0
LINE
8
BLACK
6
CONTINUOUS
10
64.3041
20
-111.284
11
64.3041
21
-111.284
0
LINE
8
BLACK
6
CONTINUOUS
10
64.3041
20
-111.284
11
64.3041
21
-111.284
0
LINE
8
BLACK
6
CONTINUOUS
10
64.3041
20
-111.284
11
51.4307
21
-113.093
0
LINE
8
BLACK
6
CONTINUOUS
10
51.4307
20
-113.093
11
51.4307
21
-113.093
0
LINE
8
BLACK
6
CONTINUOUS
10
51.4307
20
-113.093
11
51.4307
21
-113.093
0
LINE
8
BLACK
6
CONTINUOUS
10
51.4307
20
-113.093
11
51.4307
21
-113.093
0
LINE
8
BLACK
6
CONTINUOUS
10
51.4307
20
-113.093
11
51.2435
21
-113.103
0
LINE
8
BLACK
6
CONTINUOUS
10
51.2435
20
-113.103
11
51.0576
21
-113.08
0
LINE
8
BLACK
6
CONTINUOUS
10
51.0576
20
-113.08
11
50.8784
21
-113.025
0
LINE
8
BLACK
6
CONTINUOUS
10
50.8784
20
-113.025
11
50.7114
21
-112.94
0
LINE
8
BLACK
6
CONTINUOUS
10
50.7114
20
-112.94
11
50.5618
21
-112.828
0
LINE
8
BLACK
6
CONTINUOUS
10
50.5618
20
-112.828
11
50.434
21
-112.691
0
LINE
8
BLACK
6
CONTINUOUS
10
50.434
20
-112.691
11
50.3319
21
-112.533
0
LINE
8
BLACK
6
CONTINUOUS
10
50.3319
20
-112.533
11
50.2587
21
-112.361
0
LINE
8
BLACK
6
CONTINUOUS
10
50.2587
20
-112.361
11
50.2167
21
-112.179
0
LINE
8
BLACK
6
CONTINUOUS
10
50.2167
20
-112.179
11
50.2165
21
-112.178
0
LINE
8
BLACK
6
CONTINUOUS
10
50.2165
20
-112.178
11
48.4073
21
-99.3049
0
LINE
8
BLACK
6
CONTINUOUS
10
48.4073
20
-99.3049
11
48.4073
21
-99.3049
0
LINE
8
BLACK
6
CONTINUOUS
10
48.4073
20
-99.3049
11
48.3975
21
-99.1178
0
LINE
8
BLACK
6
CONTINUOUS
10
48.3975
20
-99.1178
11
48.4203
21
-98.9318
0
LINE
8
BLACK
6
CONTINUOUS
10
48.4203
20
-98.9318
11
48.4751
21
-98.7526
0
LINE
8
BLACK
6
CONTINUOUS
10
48.4751
20
-98.7526
11
48.5602
21
-98.5856
0
LINE
8
BLACK
6
CONTINUOUS
10
48.5602
20
-98.5856
11
48.6729
21
-98.436
0
LINE
8
BLACK
6
CONTINUOUS
10
48.6729
20
-98.436
11
48.81
21
-98.3082
0
LINE
8
BLACK
6
CONTINUOUS
10
48.81
20
-98.3082
11
48.9671
21
-98.2061
0
LINE
8
BLACK
6
CONTINUOUS
10
48.9671
20
-98.2061
11
49.1396
21
-98.1329
0
LINE
8
BLACK
6
CONTINUOUS
10
49.1396
20
-98.1329
11
49.3221
21
-98.0908
0
LINE
8
BLACK
6
CONTINUOUS
10
49.3221
20
-98.0908
11
49.3222
21
-98.0907
0
LINE
8
BLACK
6
CONTINUOUS
10
49.3222
20
-98.0907
11
62.1957
21
-96.2815
0
LINE
8
BLACK
6
CONTINUOUS
10
62.1957
20
-96.2815
11
62.1957
21
-96.2815
0
LINE
8
BLACK
6
CONTINUOUS
10
62.1957
20
-96.2815
11
62.3828
21
-96.2717
0
LINE
8
BLACK
6
CONTINUOUS
10
62.3828
20
-96.2717
11
62.5688
21
-96.2945
0
LINE
8
BLACK
6
CONTINUOUS
10
62.2166
20
-96.43
11
62.2165
21
-96.43
0
LINE
8
BLACK
6
CONTINUOUS
10
62.2165
20
-96.43
11
62.2165
21
-96.43
0
LINE
8
BLACK
6
CONTINUOUS
10
62.2165
20
-96.43
11
49.3431
21
-98.2393
0
LINE
8
BLACK
6
CONTINUOUS
10
49.3431
20
-98.2393
11
49.3431
21
-98.2393
0
LINE
8
BLACK
6
CONTINUOUS
10
49.3431
20
-98.2393
11
49.2629
21
-98.2506
0
LINE
8
BLACK
6
CONTINUOUS
10
49.2629
20
-98.2506
11
49.109
21
-98.3006
0
LINE
8
BLACK
6
CONTINUOUS
10
49.109
20
-98.3006
11
48.9661
21
-98.3766
0
LINE
8
BLACK
6
CONTINUOUS
10
48.9661
20
-98.3766
11
48.8385
21
-98.4762
0
LINE
8
BLACK
6
CONTINUOUS
10
48.8385
20
-98.4762
11
48.7302
21
-98.5965
0
LINE
8
BLACK
6
CONTINUOUS
10
48.7302
20
-98.5965
11
48.6445
21
-98.7337
0
LINE
8
BLACK
6
CONTINUOUS
10
48.6445
20
-98.7337
11
48.5838
21
-98.8838
0
LINE
8
BLACK
6
CONTINUOUS
10
48.5838
20
-98.8838
11
48.5502
21
-99.0421
0
LINE
8
BLACK
6
CONTINUOUS
10
48.5502
20
-99.0421
11
48.5445
21
-99.2039
0
LINE
8
BLACK
6
CONTINUOUS
10
48.5445
20
-99.2039
11
48.5558
21
-99.284
0
LINE
8
BLACK
6
CONTINUOUS
10
48.5558
20
-99.284
11
48.5558
21
-99.284
0
LINE
8
BLACK
6
CONTINUOUS
10
48.5558
20
-99.284
11
50.3651
21
-112.158
0
LINE
8
BLACK
6
CONTINUOUS
10
50.3651
20
-112.158
11
50.3651
21
-112.158
0
LINE
8
BLACK
6
CONTINUOUS
10
50.3651
20
-112.158
11
50.3651
21
-112.157
0
LINE
8
BLACK
6
CONTINUOUS
10
50.3651
20
-112.157
11
50.3764
21
-112.238
0
LINE
8
BLACK
6
CONTINUOUS
10
50.3764
20
-112.238
11
50.4264
21
-112.392
0
LINE
8
BLACK
6
CONTINUOUS
10
50.4264
20
-112.392
11
50.5024
21
-112.534
0
LINE
8
BLACK
6
CONTINUOUS
10
50.5024
20
-112.534
11
50.602
21
-112.662
0
LINE
8
BLACK
6
CONTINUOUS
10
50.602
20
-112.662
11
50.7223
21
-112.77
0
LINE
8
BLACK
6
CONTINUOUS
10
50.7223
20
-112.77
11
50.8595
21
-112.856
0
LINE
8
BLACK
6
CONTINUOUS
10
50.8595
20
-112.856
11
51.0096
21
-112.917
0
LINE
8
BLACK
6
CONTINUOUS
10
51.0096
20
-112.917
11
51.1679
21
-112.95
0
LINE
8
BLACK
6
CONTINUOUS
10
51.1679
20
-112.95
11
51.3297
21
-112.956
0
LINE
8
BLACK
6
CONTINUOUS
10
51.3297
20
-112.956
11
51.4098
21
-112.945
0
LINE
8
BLACK
6
CONTINUOUS
10
51.4098
20
-112.945
11
51.4098
21
-112.945
0
LINE
8
BLACK
6
CONTINUOUS
10
51.4098
20
-112.945
11
64.2833
21
-111.136
0
LINE
8
BLACK
6
CONTINUOUS
10
64.2833
20
-111.136
11
64.2833
21
-111.136
0
LINE
8
BLACK
6
CONTINUOUS
10
64.2833
20
-111.136
11
64.2833
21
-111.136
0
LINE
8
BLACK
6
CONTINUOUS
10
64.2833
20
-111.136
11
64.2833
21
-111.136
0
LINE
8
BLACK
6
CONTINUOUS
10
64.2833
20
-111.136
11
64.3634
21
-111.124
0
LINE
8
BLACK
6
CONTINUOUS
10
64.3634
20
-111.124
11
64.5173
21
-111.074
0
LINE
8
BLACK
6
CONTINUOUS
10
64.5173
20
-111.074
11
64.6602
21
-110.998
0
LINE
8
BLACK
6
CONTINUOUS
10
64.6602
20
-110.998
11
64.7878
21
-110.899
0
LINE
8
BLACK
6
CONTINUOUS
10
64.7878
20
-110.899
11
64.8961
21
-110.778
0
LINE
8
BLACK
6
CONTINUOUS
10
64.8961
20
-110.778
11
64.9819
21
-110.641
0
LINE
8
BLACK
6
CONTINUOUS
10
64.9819
20
-110.641
11
65.0425
21
-110.491
0
LINE
8
BLACK
6
CONTINUOUS
10
65.0425
20
-110.491
11
65.0761
21
-110.333
0
LINE
8
BLACK
6
CONTINUOUS
10
65.0761
20
-110.333
11
65.0818
21
-110.171
0
LINE
8
BLACK
6
CONTINUOUS
10
65.0818
20
-110.171
11
65.0705
21
-110.091
0
LINE
8
BLACK
6
CONTINUOUS
10
65.0705
20
-110.091
11
65.0705
21
-110.091
0
LINE
8
BLACK
6
CONTINUOUS
10
65.0705
20
-110.091
11
63.2613
21
-97.2173
0
LINE
8
BLACK
6
CONTINUOUS
10
63.2613
20
-97.2173
11
63.2613
21
-97.2173
0
LINE
8
BLACK
6
CONTINUOUS
10
63.2613
20
-97.2173
11
63.2613
21
-97.2173
0
LINE
8
BLACK
6
CONTINUOUS
10
63.2613
20
-97.2173
11
63.25
21
-97.1372
0
LINE
8
BLACK
6
CONTINUOUS
10
63.25
20
-97.1372
11
63.2
21
-96.9832
0
LINE
8
BLACK
6
CONTINUOUS
10
63.2
20
-96.9832
11
63.124
21
-96.8403
0
LINE
8
BLACK
6
CONTINUOUS
10
63.124
20
-96.8403
11
63.0244
21
-96.7128
0
LINE
8
BLACK
6
CONTINUOUS
10
63.0244
20
-96.7128
11
62.9041
21
-96.6045
0
LINE
8
BLACK
6
CONTINUOUS
10
62.9041
20
-96.6045
11
62.7668
21
-96.5187
0
LINE
8
BLACK
6
CONTINUOUS
10
62.7668
20
-96.5187
11
62.6168
21
-96.4581
0
LINE
8
BLACK
6
CONTINUOUS
10
62.6168
20
-96.4581
11
62.4584
21
-96.4244
0
LINE
8
BLACK
6
CONTINUOUS
10
62.4584
20
-96.4244
11
62.2967
21
-96.4188
0
LINE
8
BLACK
6
CONTINUOUS
10
62.2967
20
-96.4188
11
62.2166
21
-96.43
0
LINE
8
BLACK
6
CONTINUOUS
10
42.3255
20
-90.3756
11
42.5065
21
-90.4241
0
LINE
8
BLACK
6
CONTINUOUS
10
42.5065
20
-90.4241
11
42.6763
21
-90.5033
0
LINE
8
BLACK
6
CONTINUOUS
10
42.6763
20
-90.5033
11
42.8298
21
-90.6108
0
LINE
8
BLACK
6
CONTINUOUS
10
42.8298
20
-90.6108
11
42.9623
21
-90.7433
0
LINE
8
BLACK
6
CONTINUOUS
10
42.9623
20
-90.7433
11
43.0698
21
-90.8967
0
LINE
8
BLACK
6
CONTINUOUS
10
43.0698
20
-90.8967
11
43.149
21
-91.0666
0
LINE
8
BLACK
6
CONTINUOUS
10
43.149
20
-91.0666
11
43.1974
21
-91.2473
0
LINE
8
BLACK
6
CONTINUOUS
10
43.1974
20
-91.2473
11
43.1975
21
-91.2476
0
LINE
8
BLACK
6
CONTINUOUS
10
43.1975
20
-91.2476
11
45.4549
21
-104.05
0
LINE
8
BLACK
6
CONTINUOUS
10
45.4549
20
-104.05
11
45.4549
21
-104.05
0
LINE
8
BLACK
6
CONTINUOUS
10
45.4549
20
-104.05
11
45.4713
21
-104.237
0
LINE
8
BLACK
6
CONTINUOUS
10
45.4713
20
-104.237
11
45.4549
21
-104.423
0
LINE
8
BLACK
6
CONTINUOUS
10
45.4549
20
-104.423
11
45.4064
21
-104.604
0
LINE
8
BLACK
6
CONTINUOUS
10
45.4064
20
-104.604
11
45.3272
21
-104.774
0
LINE
8
BLACK
6
CONTINUOUS
10
45.3272
20
-104.774
11
45.2197
21
-104.928
0
LINE
8
BLACK
6
CONTINUOUS
10
45.2197
20
-104.928
11
45.0872
21
-105.06
0
LINE
8
BLACK
6
CONTINUOUS
10
45.0872
20
-105.06
11
44.9338
21
-105.168
0
LINE
8
BLACK
6
CONTINUOUS
10
44.9338
20
-105.168
11
44.7639
21
-105.247
0
LINE
8
BLACK
6
CONTINUOUS
10
44.7639
20
-105.247
11
44.5831
21
-105.295
0
LINE
8
BLACK
6
CONTINUOUS
10
44.5831
20
-105.295
11
44.5829
21
-105.295
0
LINE
8
BLACK
6
CONTINUOUS
10
44.5829
20
-105.295
11
31.7804
21
-107.553
0
LINE
8
BLACK
6
CONTINUOUS
10
31.7804
20
-107.553
11
31.7804
21
-107.553
0
LINE
8
BLACK
6
CONTINUOUS
10
31.7804
20
-107.553
11
31.5938
21
-107.569
0
LINE
8
BLACK
6
CONTINUOUS
10
31.5938
20
-107.569
11
31.4071
21
-107.553
0
LINE
8
BLACK
6
CONTINUOUS
10
31.4071
20
-107.553
11
31.2261
21
-107.504
0
LINE
8
BLACK
6
CONTINUOUS
10
31.2261
20
-107.504
11
31.0563
21
-107.425
0
LINE
8
BLACK
6
CONTINUOUS
10
31.0563
20
-107.425
11
30.9028
21
-107.318
0
LINE
8
BLACK
6
CONTINUOUS
10
30.9028
20
-107.318
11
30.7703
21
-107.185
0
LINE
8
BLACK
6
CONTINUOUS
10
30.7703
20
-107.185
11
30.6628
21
-107.032
0
LINE
8
BLACK
6
CONTINUOUS
10
30.6628
20
-107.032
11
30.5837
21
-106.862
0
LINE
8
BLACK
6
CONTINUOUS
10
30.5837
20
-106.862
11
30.5352
21
-106.681
0
LINE
8
BLACK
6
CONTINUOUS
10
30.5352
20
-106.681
11
30.5351
21
-106.681
0
LINE
8
BLACK
6
CONTINUOUS
10
30.5351
20
-106.681
11
28.2777
21
-93.8783
0
LINE
8
BLACK
6
CONTINUOUS
10
28.2777
20
-93.8783
11
28.2777
21
-93.8783
0
LINE
8
BLACK
6
CONTINUOUS
10
28.2777
20
-93.8783
11
28.2613
21
-93.6917
0
LINE
8
BLACK
6
CONTINUOUS
10
28.2613
20
-93.6917
11
28.2777
21
-93.505
0
LINE
8
BLACK
6
CONTINUOUS
10
28.2777
20
-93.505
11
28.3262
21
-93.324
0
LINE
8
BLACK
6
CONTINUOUS
10
28.3262
20
-93.324
11
28.4054
21
-93.1542
0
LINE
8
BLACK
6
CONTINUOUS
10
28.4054
20
-93.1542
11
28.5128
21
-93.0007
0
LINE
8
BLACK
6
CONTINUOUS
10
28.5128
20
-93.0007
11
28.6453
21
-92.8682
0
LINE
8
BLACK
6
CONTINUOUS
10
28.6453
20
-92.8682
11
28.7988
21
-92.7607
0
LINE
8
BLACK
6
CONTINUOUS
10
28.7988
20
-92.7607
11
28.9687
21
-92.6815
0
LINE
8
BLACK
6
CONTINUOUS
10
28.9687
20
-92.6815
11
29.1497
21
-92.633
0
LINE
8
BLACK
6
CONTINUOUS
10
29.1497
20
-92.633
11
41.9522
21
-90.3756
0
LINE
8
BLACK
6
CONTINUOUS
10
41.9522
20
-90.3756
11
41.9522
21
-90.3756
0
LINE
8
BLACK
6
CONTINUOUS
10
41.9522
20
-90.3756
11
42.1388
21
-90.3592
0
LINE
8
BLACK
6
CONTINUOUS
10
42.1388
20
-90.3592
11
42.3255
21
-90.3756
0
LINE
8
BLACK
6
CONTINUOUS
10
41.9782
20
-90.5233
11
41.9782
21
-90.5233
0
LINE
8
BLACK
6
CONTINUOUS
10
41.9782
20
-90.5233
11
29.1757
21
-92.7807
0
LINE
8
BLACK
6
CONTINUOUS
10
29.1757
20
-92.7807
11
29.096
21
-92.7948
0
LINE
8
BLACK
6
CONTINUOUS
10
29.096
20
-92.7948
11
28.9439
21
-92.8501
0
LINE
8
BLACK
6
CONTINUOUS
10
28.9439
20
-92.8501
11
28.8038
21
-92.931
0
LINE
8
BLACK
6
CONTINUOUS
10
28.8038
20
-92.931
11
28.6798
21
-93.0351
0
LINE
8
BLACK
6
CONTINUOUS
10
28.6798
20
-93.0351
11
28.5757
21
-93.1591
0
LINE
8
BLACK
6
CONTINUOUS
10
28.5757
20
-93.1591
11
28.4948
21
-93.2992
0
LINE
8
BLACK
6
CONTINUOUS
10
28.4948
20
-93.2992
11
28.4394
21
-93.4513
0
LINE
8
BLACK
6
CONTINUOUS
10
28.4394
20
-93.4513
11
28.4113
21
-93.6107
0
LINE
8
BLACK
6
CONTINUOUS
10
28.4113
20
-93.6107
11
28.4113
21
-93.7726
0
LINE
8
BLACK
6
CONTINUOUS
10
28.4113
20
-93.7726
11
28.4254
21
-93.8523
0
LINE
8
BLACK
6
CONTINUOUS
10
28.4254
20
-93.8523
11
30.6828
21
-106.655
0
LINE
8
BLACK
6
CONTINUOUS
10
30.6828
20
-106.655
11
30.6828
21
-106.655
0
LINE
8
BLACK
6
CONTINUOUS
10
30.6828
20
-106.655
11
30.6829
21
-106.655
0
LINE
8
BLACK
6
CONTINUOUS
10
30.6829
20
-106.655
11
30.6969
21
-106.734
0
LINE
8
BLACK
6
CONTINUOUS
10
30.6969
20
-106.734
11
30.7523
21
-106.887
0
LINE
8
BLACK
6
CONTINUOUS
10
30.7523
20
-106.887
11
30.8332
21
-107.027
0
LINE
8
BLACK
6
CONTINUOUS
10
30.8332
20
-107.027
11
30.9372
21
-107.151
0
LINE
8
BLACK
6
CONTINUOUS
10
30.9372
20
-107.151
11
31.0612
21
-107.255
0
LINE
8
BLACK
6
CONTINUOUS
10
31.0612
20
-107.255
11
31.2014
21
-107.336
0
LINE
8
BLACK
6
CONTINUOUS
10
31.2014
20
-107.336
11
31.3535
21
-107.391
0
LINE
8
BLACK
6
CONTINUOUS
10
31.3535
20
-107.391
11
31.5129
21
-107.419
0
LINE
8
BLACK
6
CONTINUOUS
10
31.5129
20
-107.419
11
31.6747
21
-107.419
0
LINE
8
BLACK
6
CONTINUOUS
10
31.6747
20
-107.419
11
31.7544
21
-107.405
0
LINE
8
BLACK
6
CONTINUOUS
10
31.7544
20
-107.405
11
31.7544
21
-107.405
0
LINE
8
BLACK
6
CONTINUOUS
10
31.7544
20
-107.405
11
44.5569
21
-105.148
0
LINE
8
BLACK
6
CONTINUOUS
10
44.5569
20
-105.148
11
44.5569
21
-105.148
0
LINE
8
BLACK
6
CONTINUOUS
10
44.5569
20
-105.148
11
44.5569
21
-105.148
0
LINE
8
BLACK
6
CONTINUOUS
10
44.5569
20
-105.148
11
44.6366
21
-105.134
0
LINE
8
BLACK
6
CONTINUOUS
10
44.6366
20
-105.134
11
44.7887
21
-105.078
0
LINE
8
BLACK
6
CONTINUOUS
10
44.7887
20
-105.078
11
44.9288
21
-104.997
0
LINE
8
BLACK
6
CONTINUOUS
10
44.9288
20
-104.997
11
45.0528
21
-104.893
0
LINE
8
BLACK
6
CONTINUOUS
10
45.0528
20
-104.893
11
45.1569
21
-104.769
0
LINE
8
BLACK
6
CONTINUOUS
10
45.1569
20
-104.769
11
45.2378
21
-104.629
0
LINE
8
BLACK
6
CONTINUOUS
10
45.2378
20
-104.629
11
45.2932
21
-104.477
0
LINE
8
BLACK
6
CONTINUOUS
10
45.2932
20
-104.477
11
45.3213
21
-104.318
0
LINE
8
BLACK
6
CONTINUOUS
10
45.3213
20
-104.318
11
45.3213
21
-104.156
0
LINE
8
BLACK
6
CONTINUOUS
10
45.3213
20
-104.156
11
45.3072
21
-104.076
0
LINE
8
BLACK
6
CONTINUOUS
10
45.3072
20
-104.076
11
45.3072
21
-104.076
0
LINE
8
BLACK
6
CONTINUOUS
10
45.3072
20
-104.076
11
43.0498
21
-91.2736
0
LINE
8
BLACK
6
CONTINUOUS
10
43.0498
20
-91.2736
11
43.0498
21
-91.2736
0
LINE
8
BLACK
6
CONTINUOUS
10
43.0498
20
-91.2736
11
43.0497
21
-91.2736
0
LINE
8
BLACK
6
CONTINUOUS
10
43.0497
20
-91.2736
11
43.0357
21
-91.1939
0
LINE
8
BLACK
6
CONTINUOUS
10
43.0357
20
-91.1939
11
42.9803
21
-91.0418
0
LINE
8
BLACK
6
CONTINUOUS
10
42.9803
20
-91.0418
11
42.8994
21
-90.9017
0
LINE
8
BLACK
6
CONTINUOUS
10
42.8994
20
-90.9017
11
42.7954
21
-90.7777
0
LINE
8
BLACK
6
CONTINUOUS
10
42.7954
20
-90.7777
11
42.6714
21
-90.6736
0
LINE
8
BLACK
6
CONTINUOUS
10
42.6714
20
-90.6736
11
42.5312
21
-90.5927
0
LINE
8
BLACK
6
CONTINUOUS
10
42.5312
20
-90.5927
11
42.3791
21
-90.5373
0
LINE
8
BLACK
6
CONTINUOUS
10
42.3791
20
-90.5373
11
42.2198
21
-90.5092
0
LINE
8
BLACK
6
CONTINUOUS
10
42.2198
20
-90.5092
11
42.0579
21
-90.5092
0
LINE
8
BLACK
6
CONTINUOUS
10
42.0579
20
-90.5092
11
41.9782
21
-90.5233
0
LINE
8
BLACK
6
CONTINUOUS
10
60.0358
20
-78.2717
11
60.215
21
-78.3264
0
LINE
8
BLACK
6
CONTINUOUS
10
60.215
20
-78.3264
11
60.382
21
-78.4115
0
LINE
8
BLACK
6
CONTINUOUS
10
60.382
20
-78.4115
11
60.5316
21
-78.5243
0
LINE
8
BLACK
6
CONTINUOUS
10
60.5316
20
-78.5243
11
60.6594
21
-78.6613
0
LINE
8
BLACK
6
CONTINUOUS
10
60.6594
20
-78.6613
11
60.7615
21
-78.8185
0
LINE
8
BLACK
6
CONTINUOUS
10
60.7615
20
-78.8185
11
60.8347
21
-78.991
0
LINE
8
BLACK
6
CONTINUOUS
10
60.8347
20
-78.991
11
60.8769
21
-79.1735
0
LINE
8
BLACK
6
CONTINUOUS
10
60.8769
20
-79.1735
11
60.8769
21
-79.1735
0
LINE
8
BLACK
6
CONTINUOUS
10
60.8769
20
-79.1735
11
60.8769
21
-79.1735
0
LINE
8
BLACK
6
CONTINUOUS
10
60.8769
20
-79.1735
11
60.8769
21
-79.1735
0
LINE
8
BLACK
6
CONTINUOUS
10
60.8769
20
-79.1735
11
62.6861
21
-92.047
0
LINE
8
BLACK
6
CONTINUOUS
10
62.6861
20
-92.047
11
62.6861
21
-92.047
0
LINE
8
BLACK
6
CONTINUOUS
10
62.6861
20
-92.047
11
62.6861
21
-92.047
0
LINE
8
BLACK
6
CONTINUOUS
10
62.6861
20
-92.047
11
62.6959
21
-92.2342
0
LINE
8
BLACK
6
CONTINUOUS
10
62.6959
20
-92.2342
11
62.6731
21
-92.4201
0
LINE
8
BLACK
6
CONTINUOUS
10
62.6731
20
-92.4201
11
62.6183
21
-92.5993
0
LINE
8
BLACK
6
CONTINUOUS
10
62.6183
20
-92.5993
11
62.5332
21
-92.7663
0
LINE
8
BLACK
6
CONTINUOUS
10
62.5332
20
-92.7663
11
62.4204
21
-92.9159
0
LINE
8
BLACK
6
CONTINUOUS
10
62.4204
20
-92.9159
11
62.2834
21
-93.0437
0
LINE
8
BLACK
6
CONTINUOUS
10
62.2834
20
-93.0437
11
62.1262
21
-93.1458
0
LINE
8
BLACK
6
CONTINUOUS
10
62.1262
20
-93.1458
11
61.9538
21
-93.219
0
LINE
8
BLACK
6
CONTINUOUS
10
61.9538
20
-93.219
11
61.7714
21
-93.2611
0
LINE
8
BLACK
6
CONTINUOUS
10
61.7714
20
-93.2611
11
61.7712
21
-93.2612
0
LINE
8
BLACK
6
CONTINUOUS
10
61.7712
20
-93.2612
11
48.8977
21
-95.0704
0
LINE
8
BLACK
6
CONTINUOUS
10
48.8977
20
-95.0704
11
48.7106
21
-95.0802
0
LINE
8
BLACK
6
CONTINUOUS
10
48.7106
20
-95.0802
11
48.5246
21
-95.0574
0
LINE
8
BLACK
6
CONTINUOUS
10
48.5246
20
-95.0574
11
48.3454
21
-95.0026
0
LINE
8
BLACK
6
CONTINUOUS
10
48.3454
20
-95.0026
11
48.1784
21
-94.9175
0
LINE
8
BLACK
6
CONTINUOUS
10
48.1784
20
-94.9175
11
48.0288
21
-94.8048
0
LINE
8
BLACK
6
CONTINUOUS
10
48.0288
20
-94.8048
11
47.901
21
-94.6677
0
LINE
8
BLACK
6
CONTINUOUS
10
47.901
20
-94.6677
11
47.7989
21
-94.5106
0
LINE
8
BLACK
6
CONTINUOUS
10
47.7989
20
-94.5106
11
47.7257
21
-94.3381
0
LINE
8
BLACK
6
CONTINUOUS
10
47.7257
20
-94.3381
11
47.6836
21
-94.1555
0
LINE
8
BLACK
6
CONTINUOUS
10
47.6836
20
-94.1555
11
47.6836
21
-94.1555
0
LINE
8
BLACK
6
CONTINUOUS
10
47.6836
20
-94.1555
11
45.8743
21
-81.282
0
LINE
8
BLACK
6
CONTINUOUS
10
45.8743
20
-81.282
11
45.8645
21
-81.0949
0
LINE
8
BLACK
6
CONTINUOUS
10
45.8645
20
-81.0949
11
45.8873
21
-80.9089
0
LINE
8
BLACK
6
CONTINUOUS
10
45.8873
20
-80.9089
11
45.9421
21
-80.7297
0
LINE
8
BLACK
6
CONTINUOUS
10
45.9421
20
-80.7297
11
46.0272
21
-80.5627
0
LINE
8
BLACK
6
CONTINUOUS
10
46.0272
20
-80.5627
11
46.14
21
-80.4131
0
LINE
8
BLACK
6
CONTINUOUS
10
46.14
20
-80.4131
11
46.277
21
-80.2853
0
LINE
8
BLACK
6
CONTINUOUS
10
46.277
20
-80.2853
11
46.4342
21
-80.1832
0
LINE
8
BLACK
6
CONTINUOUS
10
46.4342
20
-80.1832
11
46.6066
21
-80.11
0
LINE
8
BLACK
6
CONTINUOUS
10
46.6066
20
-80.11
11
46.7892
21
-80.0678
0
LINE
8
BLACK
6
CONTINUOUS
10
46.7892
20
-80.0678
11
46.7892
21
-80.0679
0
LINE
8
BLACK
6
CONTINUOUS
10
46.7892
20
-80.0679
11
46.7892
21
-80.0679
0
LINE
8
BLACK
6
CONTINUOUS
10
46.7892
20
-80.0679
11
46.7892
21
-80.0679
0
LINE
8
BLACK
6
CONTINUOUS
10
46.7892
20
-80.0679
11
59.6627
21
-78.2586
0
LINE
8
BLACK
6
CONTINUOUS
10
59.6627
20
-78.2586
11
59.6627
21
-78.2586
0
LINE
8
BLACK
6
CONTINUOUS
10
59.6627
20
-78.2586
11
59.6627
21
-78.2586
0
LINE
8
BLACK
6
CONTINUOUS
10
59.6627
20
-78.2586
11
59.8499
21
-78.2488
0
LINE
8
BLACK
6
CONTINUOUS
10
59.8499
20
-78.2488
11
60.0358
21
-78.2717
0
LINE
8
BLACK
6
CONTINUOUS
10
59.6836
20
-78.4072
11
59.6836
21
-78.4072
0
LINE
8
BLACK
6
CONTINUOUS
10
59.6836
20
-78.4072
11
46.8101
21
-80.2164
0
LINE
8
BLACK
6
CONTINUOUS
10
46.8101
20
-80.2164
11
46.8101
21
-80.2164
0
LINE
8
BLACK
6
CONTINUOUS
10
46.8101
20
-80.2164
11
46.8101
21
-80.2164
0
LINE
8
BLACK
6
CONTINUOUS
10
46.8101
20
-80.2164
11
46.8101
21
-80.2164
0
LINE
8
BLACK
6
CONTINUOUS
10
46.8101
20
-80.2164
11
46.8098
21
-80.2164
0
LINE
8
BLACK
6
CONTINUOUS
10
46.8098
20
-80.2164
11
46.73
21
-80.2276
0
LINE
8
BLACK
6
CONTINUOUS
10
46.73
20
-80.2276
11
46.576
21
-80.2776
0
LINE
8
BLACK
6
CONTINUOUS
10
46.576
20
-80.2776
11
46.4331
21
-80.3536
0
LINE
8
BLACK
6
CONTINUOUS
10
46.4331
20
-80.3536
11
46.3056
21
-80.4533
0
LINE
8
BLACK
6
CONTINUOUS
10
46.3056
20
-80.4533
11
46.1973
21
-80.5736
0
LINE
8
BLACK
6
CONTINUOUS
10
46.1973
20
-80.5736
11
46.1115
21
-80.7108
0
LINE
8
BLACK
6
CONTINUOUS
10
46.1115
20
-80.7108
11
46.0509
21
-80.8609
0
LINE
8
BLACK
6
CONTINUOUS
10
46.0509
20
-80.8609
11
46.0172
21
-81.0192
0
LINE
8
BLACK
6
CONTINUOUS
10
46.0172
20
-81.0192
11
46.0116
21
-81.181
0
LINE
8
BLACK
6
CONTINUOUS
10
46.0116
20
-81.181
11
46.0229
21
-81.2611
0
LINE
8
BLACK
6
CONTINUOUS
10
46.0229
20
-81.2611
11
47.8321
21
-94.1346
0
LINE
8
BLACK
6
CONTINUOUS
10
47.8321
20
-94.1346
11
47.8321
21
-94.1346
0
LINE
8
BLACK
6
CONTINUOUS
10
47.8321
20
-94.1346
11
47.8321
21
-94.1346
0
LINE
8
BLACK
6
CONTINUOUS
10
47.8321
20
-94.1346
11
47.8434
21
-94.2148
0
LINE
8
BLACK
6
CONTINUOUS
10
47.8434
20
-94.2148
11
47.8934
21
-94.3687
0
LINE
8
BLACK
6
CONTINUOUS
10
47.8934
20
-94.3687
11
47.9694
21
-94.5116
0
LINE
8
BLACK
6
CONTINUOUS
10
47.9694
20
-94.5116
11
48.069
21
-94.6391
0
LINE
8
BLACK
6
CONTINUOUS
10
48.069
20
-94.6391
11
48.1893
21
-94.7474
0
LINE
8
BLACK
6
CONTINUOUS
10
48.1893
20
-94.7474
11
48.3266
21
-94.8332
0
LINE
8
BLACK
6
CONTINUOUS
10
48.3266
20
-94.8332
11
48.4766
21
-94.8939
0
LINE
8
BLACK
6
CONTINUOUS
10
48.4766
20
-94.8939
11
48.6349
21
-94.9275
0
LINE
8
BLACK
6
CONTINUOUS
10
48.6349
20
-94.9275
11
48.7967
21
-94.9331
0
LINE
8
BLACK
6
CONTINUOUS
10
48.7967
20
-94.9331
11
48.8768
21
-94.9219
0
LINE
8
BLACK
6
CONTINUOUS
10
48.8768
20
-94.9219
11
61.7503
21
-93.1126
0
LINE
8
BLACK
6
CONTINUOUS
10
61.7503
20
-93.1126
11
61.7503
21
-93.1126
0
LINE
8
BLACK
6
CONTINUOUS
10
61.7503
20
-93.1126
11
61.7503
21
-93.1126
0
LINE
8
BLACK
6
CONTINUOUS
10
61.7503
20
-93.1126
11
61.8305
21
-93.1013
0
LINE
8
BLACK
6
CONTINUOUS
10
61.8305
20
-93.1013
11
61.9844
21
-93.0513
0
LINE
8
BLACK
6
CONTINUOUS
10
61.9844
20
-93.0513
11
62.1273
21
-92.9753
0
LINE
8
BLACK
6
CONTINUOUS
10
62.1273
20
-92.9753
11
62.2548
21
-92.8757
0
LINE
8
BLACK
6
CONTINUOUS
10
62.2548
20
-92.8757
11
62.3631
21
-92.7554
0
LINE
8
BLACK
6
CONTINUOUS
10
62.3631
20
-92.7554
11
62.4489
21
-92.6182
0
LINE
8
BLACK
6
CONTINUOUS
10
62.4489
20
-92.6182
11
62.5095
21
-92.4681
0
LINE
8
BLACK
6
CONTINUOUS
10
62.5095
20
-92.4681
11
62.5432
21
-92.3098
0
LINE
8
BLACK
6
CONTINUOUS
10
62.5432
20
-92.3098
11
62.5488
21
-92.148
0
LINE
8
BLACK
6
CONTINUOUS
10
62.5488
20
-92.148
11
62.5376
21
-92.0679
0
LINE
8
BLACK
6
CONTINUOUS
10
62.5376
20
-92.0679
11
62.5376
21
-92.0679
0
LINE
8
BLACK
6
CONTINUOUS
10
62.5376
20
-92.0679
11
60.7283
21
-79.1944
0
LINE
8
BLACK
6
CONTINUOUS
10
60.7283
20
-79.1944
11
60.7283
21
-79.1944
0
LINE
8
BLACK
6
CONTINUOUS
10
60.7283
20
-79.1944
11
60.7171
21
-79.1143
0
LINE
8
BLACK
6
CONTINUOUS
10
60.7171
20
-79.1143
11
60.667
21
-78.9604
0
LINE
8
BLACK
6
CONTINUOUS
10
60.667
20
-78.9604
11
60.5911
21
-78.8174
0
LINE
8
BLACK
6
CONTINUOUS
10
60.5911
20
-78.8174
11
60.4914
21
-78.6899
0
LINE
8
BLACK
6
CONTINUOUS
10
60.4914
20
-78.6899
11
60.3711
21
-78.5816
0
LINE
8
BLACK
6
CONTINUOUS
10
60.3711
20
-78.5816
11
60.2339
21
-78.4958
0
LINE
8
BLACK
6
CONTINUOUS
10
60.2339
20
-78.4958
11
60.0838
21
-78.4352
0
LINE
8
BLACK
6
CONTINUOUS
10
60.0838
20
-78.4352
11
59.9255
21
-78.4016
0
LINE
8
BLACK
6
CONTINUOUS
10
59.9255
20
-78.4016
11
59.7637
21
-78.3959
0
LINE
8
BLACK
6
CONTINUOUS
10
59.7637
20
-78.3959
11
59.6836
21
-78.4072
0
LINE
8
BLACK
6
CONTINUOUS
10
122.532
20
-79.8311
11
135.532
21
-79.8311
0
LINE
8
BLACK
6
CONTINUOUS
10
135.532
20
-79.8311
11
135.719
21
-79.8475
0
LINE
8
BLACK
6
CONTINUOUS
10
135.719
20
-79.8475
11
135.9
21
-79.8959
0
LINE
8
BLACK
6
CONTINUOUS
10
135.9
20
-79.8959
11
136.07
21
-79.9751
0
LINE
8
BLACK
6
CONTINUOUS
10
136.07
20
-79.9751
11
136.223
21
-80.0826
0
LINE
8
BLACK
6
CONTINUOUS
10
136.223
20
-80.0826
11
136.356
21
-80.2151
0
LINE
8
BLACK
6
CONTINUOUS
10
136.356
20
-80.2151
11
136.463
21
-80.3686
0
LINE
8
BLACK
6
CONTINUOUS
10
136.463
20
-80.3686
11
136.542
21
-80.5384
0
LINE
8
BLACK
6
CONTINUOUS
10
136.542
20
-80.5384
11
136.591
21
-80.7194
0
LINE
8
BLACK
6
CONTINUOUS
10
136.591
20
-80.7194
11
136.607
21
-80.906
0
LINE
8
BLACK
6
CONTINUOUS
10
136.607
20
-80.906
11
136.607
21
-80.9061
0
LINE
8
BLACK
6
CONTINUOUS
10
136.607
20
-80.9061
11
136.607
21
-93.9061
0
LINE
8
BLACK
6
CONTINUOUS
10
136.607
20
-93.9061
11
136.607
21
-93.9061
0
LINE
8
BLACK
6
CONTINUOUS
10
136.607
20
-93.9061
11
136.591
21
-94.0928
0
LINE
8
BLACK
6
CONTINUOUS
10
136.591
20
-94.0928
11
136.542
21
-94.2738
0
LINE
8
BLACK
6
CONTINUOUS
10
136.542
20
-94.2738
11
136.463
21
-94.4436
0
LINE
8
BLACK
6
CONTINUOUS
10
136.463
20
-94.4436
11
136.356
21
-94.5971
0
LINE
8
BLACK
6
CONTINUOUS
10
136.356
20
-94.5971
11
136.223
21
-94.7296
0
LINE
8
BLACK
6
CONTINUOUS
10
136.223
20
-94.7296
11
136.07
21
-94.8371
0
LINE
8
BLACK
6
CONTINUOUS
10
136.07
20
-94.8371
11
135.9
21
-94.9163
0
LINE
8
BLACK
6
CONTINUOUS
10
135.9
20
-94.9163
11
135.719
21
-94.9648
0
LINE
8
BLACK
6
CONTINUOUS
10
135.719
20
-94.9648
11
135.532
21
-94.9811
0
LINE
8
BLACK
6
CONTINUOUS
10
135.532
20
-94.9811
11
135.532
21
-94.9811
0
LINE
8
BLACK
6
CONTINUOUS
10
135.532
20
-94.9811
11
122.532
21
-94.9811
0
LINE
8
BLACK
6
CONTINUOUS
10
122.532
20
-94.9811
11
122.346
21
-94.9648
0
LINE
8
BLACK
6
CONTINUOUS
10
122.346
20
-94.9648
11
122.165
21
-94.9163
0
LINE
8
BLACK
6
CONTINUOUS
10
122.165
20
-94.9163
11
121.995
21
-94.8371
0
LINE
8
BLACK
6
CONTINUOUS
10
121.995
20
-94.8371
11
121.841
21
-94.7296
0
LINE
8
BLACK
6
CONTINUOUS
10
121.841
20
-94.7296
11
121.709
21
-94.5971
0
LINE
8
BLACK
6
CONTINUOUS
10
121.709
20
-94.5971
11
121.601
21
-94.4436
0
LINE
8
BLACK
6
CONTINUOUS
10
121.601
20
-94.4436
11
121.522
21
-94.2738
0
LINE
8
BLACK
6
CONTINUOUS
10
121.522
20
-94.2738
11
121.474
21
-94.0928
0
LINE
8
BLACK
6
CONTINUOUS
10
121.474
20
-94.0928
11
121.457
21
-93.9061
0
LINE
8
BLACK
6
CONTINUOUS
10
121.457
20
-93.9061
11
121.457
21
-93.9061
0
LINE
8
BLACK
6
CONTINUOUS
10
121.457
20
-93.9061
11
121.457
21
-93.9061
0
LINE
8
BLACK
6
CONTINUOUS
10
121.457
20
-93.9061
11
121.457
21
-80.9061
0
LINE
8
BLACK
6
CONTINUOUS
10
121.457
20
-80.9061
11
121.457
21
-80.9061
0
LINE
8
BLACK
6
CONTINUOUS
10
121.457
20
-80.9061
11
121.474
21
-80.7194
0
LINE
8
BLACK
6
CONTINUOUS
10
121.474
20
-80.7194
11
121.522
21
-80.5384
0
LINE
8
BLACK
6
CONTINUOUS
10
121.522
20
-80.5384
11
121.601
21
-80.3686
0
LINE
8
BLACK
6
CONTINUOUS
10
121.601
20
-80.3686
11
121.709
21
-80.2151
0
LINE
8
BLACK
6
CONTINUOUS
10
121.709
20
-80.2151
11
121.841
21
-80.0826
0
LINE
8
BLACK
6
CONTINUOUS
10
121.841
20
-80.0826
11
121.995
21
-79.9751
0
LINE
8
BLACK
6
CONTINUOUS
10
121.995
20
-79.9751
11
122.165
21
-79.8959
0
LINE
8
BLACK
6
CONTINUOUS
10
122.165
20
-79.8959
11
122.346
21
-79.8474
0
LINE
8
BLACK
6
CONTINUOUS
10
122.346
20
-79.8474
11
122.532
21
-79.8311
0
LINE
8
BLACK
6
CONTINUOUS
10
122.532
20
-79.8311
11
122.532
21
-79.8311
0
LINE
8
BLACK
6
CONTINUOUS
10
122.292
20
-80.0092
11
122.14
21
-80.0646
0
LINE
8
BLACK
6
CONTINUOUS
10
122.14
20
-80.0646
11
122
21
-80.1455
0
LINE
8
BLACK
6
CONTINUOUS
10
122
20
-80.1455
11
121.876
21
-80.2495
0
LINE
8
BLACK
6
CONTINUOUS
10
121.876
20
-80.2495
11
121.772
21
-80.3735
0
LINE
8
BLACK
6
CONTINUOUS
10
121.772
20
-80.3735
11
121.691
21
-80.5137
0
LINE
8
BLACK
6
CONTINUOUS
10
121.691
20
-80.5137
11
121.635
21
-80.6658
0
LINE
8
BLACK
6
CONTINUOUS
10
121.635
20
-80.6658
11
121.607
21
-80.8252
0
LINE
8
BLACK
6
CONTINUOUS
10
121.607
20
-80.8252
11
121.607
21
-80.9061
0
LINE
8
BLACK
6
CONTINUOUS
10
121.607
20
-80.9061
11
121.607
21
-80.9061
0
LINE
8
BLACK
6
CONTINUOUS
10
121.607
20
-80.9061
11
121.607
21
-93.9061
0
LINE
8
BLACK
6
CONTINUOUS
10
121.607
20
-93.9061
11
121.607
21
-93.9062
0
LINE
8
BLACK
6
CONTINUOUS
10
121.607
20
-93.9062
11
121.607
21
-93.987
0
LINE
8
BLACK
6
CONTINUOUS
10
121.607
20
-93.987
11
121.635
21
-94.1464
0
LINE
8
BLACK
6
CONTINUOUS
10
121.635
20
-94.1464
11
121.691
21
-94.2985
0
LINE
8
BLACK
6
CONTINUOUS
10
121.691
20
-94.2985
11
121.772
21
-94.4387
0
LINE
8
BLACK
6
CONTINUOUS
10
121.772
20
-94.4387
11
121.876
21
-94.5627
0
LINE
8
BLACK
6
CONTINUOUS
10
121.876
20
-94.5627
11
122
21
-94.6667
0
LINE
8
BLACK
6
CONTINUOUS
10
122
20
-94.6667
11
122.14
21
-94.7477
0
LINE
8
BLACK
6
CONTINUOUS
10
122.14
20
-94.7477
11
122.292
21
-94.803
0
LINE
8
BLACK
6
CONTINUOUS
10
122.292
20
-94.803
11
122.451
21
-94.8311
0
LINE
8
BLACK
6
CONTINUOUS
10
122.451
20
-94.8311
11
122.532
21
-94.8311
0
LINE
8
BLACK
6
CONTINUOUS
10
122.532
20
-94.8311
11
135.532
21
-94.8311
0
LINE
8
BLACK
6
CONTINUOUS
10
135.532
20
-94.8311
11
135.532
21
-94.8311
0
LINE
8
BLACK
6
CONTINUOUS
10
135.532
20
-94.8311
11
135.613
21
-94.8311
0
LINE
8
BLACK
6
CONTINUOUS
10
135.613
20
-94.8311
11
135.773
21
-94.803
0
LINE
8
BLACK
6
CONTINUOUS
10
135.773
20
-94.803
11
135.925
21
-94.7476
0
LINE
8
BLACK
6
CONTINUOUS
10
135.925
20
-94.7476
11
136.065
21
-94.6667
0
LINE
8
BLACK
6
CONTINUOUS
10
136.065
20
-94.6667
11
136.189
21
-94.5627
0
LINE
8
BLACK
6
CONTINUOUS
10
136.189
20
-94.5627
11
136.293
21
-94.4387
0
LINE
8
BLACK
6
CONTINUOUS
10
136.293
20
-94.4387
11
136.374
21
-94.2985
0
LINE
8
BLACK
6
CONTINUOUS
10
136.374
20
-94.2985
11
136.429
21
-94.1464
0
LINE
8
BLACK
6
CONTINUOUS
10
136.429
20
-94.1464
11
136.457
21
-93.987
0
LINE
8
BLACK
6
CONTINUOUS
10
136.457
20
-93.987
11
136.457
21
-93.9061
0
LINE
8
BLACK
6
CONTINUOUS
10
136.457
20
-93.9061
11
136.457
21
-93.9061
0
LINE
8
BLACK
6
CONTINUOUS
10
136.457
20
-93.9061
11
136.457
21
-80.9061
0
LINE
8
BLACK
6
CONTINUOUS
10
136.457
20
-80.9061
11
136.457
21
-80.9061
0
LINE
8
BLACK
6
CONTINUOUS
10
136.457
20
-80.9061
11
136.457
21
-80.9061
0
LINE
8
BLACK
6
CONTINUOUS
10
136.457
20
-80.9061
11
136.457
21
-80.8252
0
LINE
8
BLACK
6
CONTINUOUS
10
136.457
20
-80.8252
11
136.429
21
-80.6658
0
LINE
8
BLACK
6
CONTINUOUS
10
136.429
20
-80.6658
11
136.374
21
-80.5137
0
LINE
8
BLACK
6
CONTINUOUS
10
136.374
20
-80.5137
11
136.293
21
-80.3735
0
LINE
8
BLACK
6
CONTINUOUS
10
136.293
20
-80.3735
11
136.189
21
-80.2495
0
LINE
8
BLACK
6
CONTINUOUS
10
136.189
20
-80.2495
11
136.065
21
-80.1455
0
LINE
8
BLACK
6
CONTINUOUS
10
136.065
20
-80.1455
11
135.925
21
-80.0646
0
LINE
8
BLACK
6
CONTINUOUS
10
135.925
20
-80.0646
11
135.773
21
-80.0092
0
LINE
8
BLACK
6
CONTINUOUS
10
135.773
20
-80.0092
11
135.613
21
-79.9811
0
LINE
8
BLACK
6
CONTINUOUS
10
135.613
20
-79.9811
11
135.532
21
-79.9811
0
LINE
8
BLACK
6
CONTINUOUS
10
135.532
20
-79.9811
11
122.532
21
-79.9811
0
LINE
8
BLACK
6
CONTINUOUS
10
122.532
20
-79.9811
11
122.532
21
-79.9811
0
LINE
8
BLACK
6
CONTINUOUS
10
122.532
20
-79.9811
11
122.451
21
-79.9811
0
LINE
8
BLACK
6
CONTINUOUS
10
122.451
20
-79.9811
11
122.292
21
-80.0092
0
LINE
8
BLACK
6
CONTINUOUS
10
79.3717
20
-78.5576
11
79.5489
21
-78.6186
0
LINE
8
BLACK
6
CONTINUOUS
10
79.5489
20
-78.6186
11
79.7128
21
-78.7095
0
LINE
8
BLACK
6
CONTINUOUS
10
79.7128
20
-78.7095
11
79.8584
21
-78.8274
0
LINE
8
BLACK
6
CONTINUOUS
10
79.8584
20
-78.8274
11
79.9814
21
-78.9688
0
LINE
8
BLACK
6
CONTINUOUS
10
79.9814
20
-78.9688
11
80.0779
21
-79.1295
0
LINE
8
BLACK
6
CONTINUOUS
10
80.0779
20
-79.1295
11
80.145
21
-79.3044
0
LINE
8
BLACK
6
CONTINUOUS
10
80.145
20
-79.3044
11
80.1808
21
-79.4883
0
LINE
8
BLACK
6
CONTINUOUS
10
80.1808
20
-79.4883
11
80.1808
21
-79.4883
0
LINE
8
BLACK
6
CONTINUOUS
10
80.1808
20
-79.4883
11
81.5397
21
-92.4171
0
LINE
8
BLACK
6
CONTINUOUS
10
81.5397
20
-92.4171
11
81.5397
21
-92.4171
0
LINE
8
BLACK
6
CONTINUOUS
10
81.5397
20
-92.4171
11
81.5429
21
-92.6045
0
LINE
8
BLACK
6
CONTINUOUS
10
81.5429
20
-92.6045
11
81.5136
21
-92.7896
0
LINE
8
BLACK
6
CONTINUOUS
10
81.5136
20
-92.7896
11
81.4526
21
-92.9667
0
LINE
8
BLACK
6
CONTINUOUS
10
81.4526
20
-92.9667
11
81.3618
21
-93.1306
0
LINE
8
BLACK
6
CONTINUOUS
10
81.3618
20
-93.1306
11
81.2438
21
-93.2763
0
LINE
8
BLACK
6
CONTINUOUS
10
81.2438
20
-93.2763
11
81.1024
21
-93.3992
0
LINE
8
BLACK
6
CONTINUOUS
10
81.1024
20
-93.3992
11
80.9418
21
-93.4957
0
LINE
8
BLACK
6
CONTINUOUS
10
80.9418
20
-93.4957
11
80.7669
21
-93.5629
0
LINE
8
BLACK
6
CONTINUOUS
10
80.7669
20
-93.5629
11
80.5829
21
-93.5986
0
LINE
8
BLACK
6
CONTINUOUS
10
80.5829
20
-93.5986
11
80.5829
21
-93.5986
0
LINE
8
BLACK
6
CONTINUOUS
10
80.5829
20
-93.5986
11
80.5829
21
-93.5986
0
LINE
8
BLACK
6
CONTINUOUS
10
80.5829
20
-93.5986
11
80.5829
21
-93.5986
0
LINE
8
BLACK
6
CONTINUOUS
10
80.5829
20
-93.5986
11
67.6541
21
-94.9575
0
LINE
8
BLACK
6
CONTINUOUS
10
67.6541
20
-94.9575
11
67.6541
21
-94.9575
0
LINE
8
BLACK
6
CONTINUOUS
10
67.6541
20
-94.9575
11
67.6541
21
-94.9575
0
LINE
8
BLACK
6
CONTINUOUS
10
67.6541
20
-94.9575
11
67.4668
21
-94.9607
0
LINE
8
BLACK
6
CONTINUOUS
10
67.4668
20
-94.9607
11
67.2817
21
-94.9314
0
LINE
8
BLACK
6
CONTINUOUS
10
67.2817
20
-94.9314
11
67.1045
21
-94.8704
0
LINE
8
BLACK
6
CONTINUOUS
10
67.1045
20
-94.8704
11
66.9407
21
-94.7796
0
LINE
8
BLACK
6
CONTINUOUS
10
66.9407
20
-94.7796
11
66.795
21
-94.6616
0
LINE
8
BLACK
6
CONTINUOUS
10
66.795
20
-94.6616
11
66.6721
21
-94.5202
0
LINE
8
BLACK
6
CONTINUOUS
10
66.6721
20
-94.5202
11
66.5756
21
-94.3596
0
LINE
8
BLACK
6
CONTINUOUS
10
66.5756
20
-94.3596
11
66.5085
21
-94.1847
0
LINE
8
BLACK
6
CONTINUOUS
10
66.5085
20
-94.1847
11
66.4728
21
-94.001
0
LINE
8
BLACK
6
CONTINUOUS
10
66.4728
20
-94.001
11
66.4726
21
-94.0007
0
LINE
8
BLACK
6
CONTINUOUS
10
66.4726
20
-94.0007
11
65.1138
21
-81.072
0
LINE
8
BLACK
6
CONTINUOUS
10
65.1138
20
-81.072
11
65.1138
21
-81.072
0
LINE
8
BLACK
6
CONTINUOUS
10
65.1138
20
-81.072
11
65.1105
21
-80.8846
0
LINE
8
BLACK
6
CONTINUOUS
10
65.1105
20
-80.8846
11
65.1398
21
-80.6995
0
LINE
8
BLACK
6
CONTINUOUS
10
65.1398
20
-80.6995
11
65.2008
21
-80.5223
0
LINE
8
BLACK
6
CONTINUOUS
10
65.2008
20
-80.5223
11
65.2917
21
-80.3585
0
LINE
8
BLACK
6
CONTINUOUS
10
65.2917
20
-80.3585
11
65.4096
21
-80.2128
0
LINE
8
BLACK
6
CONTINUOUS
10
65.4096
20
-80.2128
11
65.551
21
-80.0899
0
LINE
8
BLACK
6
CONTINUOUS
10
65.551
20
-80.0899
11
65.7116
21
-79.9934
0
LINE
8
BLACK
6
CONTINUOUS
10
65.7116
20
-79.9934
11
65.8866
21
-79.9262
0
LINE
8
BLACK
6
CONTINUOUS
10
65.8866
20
-79.9262
11
66.0705
21
-79.8905
0
LINE
8
BLACK
6
CONTINUOUS
10
66.0705
20
-79.8905
11
66.0705
21
-79.8905
0
LINE
8
BLACK
6
CONTINUOUS
10
66.0705
20
-79.8905
11
66.0705
21
-79.8905
0
LINE
8
BLACK
6
CONTINUOUS
10
66.0705
20
-79.8905
11
78.9993
21
-78.5316
0
LINE
8
BLACK
6
CONTINUOUS
10
78.9993
20
-78.5316
11
78.9993
21
-78.5316
0
LINE
8
BLACK
6
CONTINUOUS
10
78.9993
20
-78.5316
11
79.1867
21
-78.5283
0
LINE
8
BLACK
6
CONTINUOUS
10
79.1867
20
-78.5283
11
79.3717
21
-78.5576
0
LINE
8
BLACK
6
CONTINUOUS
10
79.015
20
-78.6808
11
79.015
21
-78.6808
0
LINE
8
BLACK
6
CONTINUOUS
10
79.015
20
-78.6808
11
79.015
21
-78.6808
0
LINE
8
BLACK
6
CONTINUOUS
10
79.015
20
-78.6808
11
66.0862
21
-80.0396
0
LINE
8
BLACK
6
CONTINUOUS
10
66.0862
20
-80.0396
11
66.0862
21
-80.0397
0
LINE
8
BLACK
6
CONTINUOUS
10
66.0862
20
-80.0397
11
66.0862
21
-80.0397
0
LINE
8
BLACK
6
CONTINUOUS
10
66.0862
20
-80.0397
11
66.0057
21
-80.0481
0
LINE
8
BLACK
6
CONTINUOUS
10
66.0057
20
-80.0481
11
65.8501
21
-80.0927
0
LINE
8
BLACK
6
CONTINUOUS
10
65.8501
20
-80.0927
11
65.7047
21
-80.1637
0
LINE
8
BLACK
6
CONTINUOUS
10
65.7047
20
-80.1637
11
65.5737
21
-80.2588
0
LINE
8
BLACK
6
CONTINUOUS
10
65.5737
20
-80.2588
11
65.4613
21
-80.3752
0
LINE
8
BLACK
6
CONTINUOUS
10
65.4613
20
-80.3752
11
65.3708
21
-80.5094
0
LINE
8
BLACK
6
CONTINUOUS
10
65.3708
20
-80.5094
11
65.3049
21
-80.6573
0
LINE
8
BLACK
6
CONTINUOUS
10
65.3049
20
-80.6573
11
65.2658
21
-80.8143
0
LINE
8
BLACK
6
CONTINUOUS
10
65.2658
20
-80.8143
11
65.2545
21
-80.9758
0
LINE
8
BLACK
6
CONTINUOUS
10
65.2545
20
-80.9758
11
65.263
21
-81.0563
0
LINE
8
BLACK
6
CONTINUOUS
10
65.263
20
-81.0563
11
65.263
21
-81.0563
0
LINE
8
BLACK
6
CONTINUOUS
10
65.263
20
-81.0563
11
66.6218
21
-93.9851
0
LINE
8
BLACK
6
CONTINUOUS
10
66.6218
20
-93.9851
11
66.6218
21
-93.9851
0
LINE
8
BLACK
6
CONTINUOUS
10
66.6218
20
-93.9851
11
66.6219
21
-93.9851
0
LINE
8
BLACK
6
CONTINUOUS
10
66.6219
20
-93.9851
11
66.6304
21
-94.0655
0
LINE
8
BLACK
6
CONTINUOUS
10
66.6304
20
-94.0655
11
66.675
21
-94.2211
0
LINE
8
BLACK
6
CONTINUOUS
10
66.675
20
-94.2211
11
66.7459
21
-94.3666
0
LINE
8
BLACK
6
CONTINUOUS
10
66.7459
20
-94.3666
11
66.841
21
-94.4975
0
LINE
8
BLACK
6
CONTINUOUS
10
66.841
20
-94.4975
11
66.9575
21
-94.61
0
LINE
8
BLACK
6
CONTINUOUS
10
66.9575
20
-94.61
11
67.0916
21
-94.7005
0
LINE
8
BLACK
6
CONTINUOUS
10
67.0916
20
-94.7005
11
67.2395
21
-94.7663
0
LINE
8
BLACK
6
CONTINUOUS
10
67.2395
20
-94.7663
11
67.3965
21
-94.8055
0
LINE
8
BLACK
6
CONTINUOUS
10
67.3965
20
-94.8055
11
67.558
21
-94.8168
0
LINE
8
BLACK
6
CONTINUOUS
10
67.558
20
-94.8168
11
67.6384
21
-94.8083
0
LINE
8
BLACK
6
CONTINUOUS
10
67.6384
20
-94.8083
11
80.5672
21
-93.4494
0
LINE
8
BLACK
6
CONTINUOUS
10
80.5672
20
-93.4494
11
80.5672
21
-93.4494
0
LINE
8
BLACK
6
CONTINUOUS
10
80.5672
20
-93.4494
11
80.5672
21
-93.4494
0
LINE
8
BLACK
6
CONTINUOUS
10
80.5672
20
-93.4494
11
80.5674
21
-93.4494
0
LINE
8
BLACK
6
CONTINUOUS
10
80.5674
20
-93.4494
11
80.6477
21
-93.441
0
LINE
8
BLACK
6
CONTINUOUS
10
80.6477
20
-93.441
11
80.8033
21
-93.3964
0
LINE
8
BLACK
6
CONTINUOUS
10
80.8033
20
-93.3964
11
80.9488
21
-93.3254
0
LINE
8
BLACK
6
CONTINUOUS
10
80.9488
20
-93.3254
11
81.0797
21
-93.2303
0
LINE
8
BLACK
6
CONTINUOUS
10
81.0797
20
-93.2303
11
81.1921
21
-93.1139
0
LINE
8
BLACK
6
CONTINUOUS
10
81.1921
20
-93.1139
11
81.2827
21
-92.9797
0
LINE
8
BLACK
6
CONTINUOUS
10
81.2827
20
-92.9797
11
81.3485
21
-92.8318
0
LINE
8
BLACK
6
CONTINUOUS
10
81.3485
20
-92.8318
11
81.3876
21
-92.6748
0
LINE
8
BLACK
6
CONTINUOUS
10
81.3876
20
-92.6748
11
81.3989
21
-92.5133
0
LINE
8
BLACK
6
CONTINUOUS
10
81.3989
20
-92.5133
11
81.3905
21
-92.4328
0
LINE
8
BLACK
6
CONTINUOUS
10
81.3905
20
-92.4328
11
80.0316
21
-79.504
0
LINE
8
BLACK
6
CONTINUOUS
10
80.0316
20
-79.504
11
80.0316
21
-79.5039
0
LINE
8
BLACK
6
CONTINUOUS
10
80.0316
20
-79.5039
11
80.0232
21
-79.4235
0
LINE
8
BLACK
6
CONTINUOUS
10
80.0232
20
-79.4235
11
79.9786
21
-79.2679
0
LINE
8
BLACK
6
CONTINUOUS
10
79.9786
20
-79.2679
11
79.9076
21
-79.1225
0
LINE
8
BLACK
6
CONTINUOUS
10
79.9076
20
-79.1225
11
79.8125
21
-78.9915
0
LINE
8
BLACK
6
CONTINUOUS
10
79.8125
20
-78.9915
11
79.696
21
-78.8791
0
LINE
8
BLACK
6
CONTINUOUS
10
79.696
20
-78.8791
11
79.5618
21
-78.7886
0
LINE
8
BLACK
6
CONTINUOUS
10
79.5618
20
-78.7886
11
79.414
21
-78.7228
0
LINE
8
BLACK
6
CONTINUOUS
10
79.414
20
-78.7228
11
79.2569
21
-78.6836
0
LINE
8
BLACK
6
CONTINUOUS
10
79.2569
20
-78.6836
11
79.0955
21
-78.6723
0
LINE
8
BLACK
6
CONTINUOUS
10
79.0955
20
-78.6723
11
79.015
21
-78.6808
0
LINE
8
BLACK
6
CONTINUOUS
10
39.1651
20
-72.4521
11
39.3461
21
-72.5006
0
LINE
8
BLACK
6
CONTINUOUS
10
39.3461
20
-72.5006
11
39.5159
21
-72.5798
0
LINE
8
BLACK
6
CONTINUOUS
10
39.5159
20
-72.5798
11
39.6694
21
-72.6873
0
LINE
8
BLACK
6
CONTINUOUS
10
39.6694
20
-72.6873
11
39.8019
21
-72.8198
0
LINE
8
BLACK
6
CONTINUOUS
10
39.8019
20
-72.8198
11
39.9094
21
-72.9732
0
LINE
8
BLACK
6
CONTINUOUS
10
39.9094
20
-72.9732
11
39.9886
21
-73.1431
0
LINE
8
BLACK
6
CONTINUOUS
10
39.9886
20
-73.1431
11
40.037
21
-73.3238
0
LINE
8
BLACK
6
CONTINUOUS
10
40.037
20
-73.3238
11
40.0371
21
-73.3241
0
LINE
8
BLACK
6
CONTINUOUS
10
40.0371
20
-73.3241
11
42.2945
21
-86.1266
0
LINE
8
BLACK
6
CONTINUOUS
10
42.2945
20
-86.1266
11
42.2945
21
-86.1266
0
LINE
8
BLACK
6
CONTINUOUS
10
42.2945
20
-86.1266
11
42.3109
21
-86.3132
0
LINE
8
BLACK
6
CONTINUOUS
10
42.3109
20
-86.3132
11
42.2945
21
-86.4999
0
LINE
8
BLACK
6
CONTINUOUS
10
42.2945
20
-86.4999
11
42.246
21
-86.6809
0
LINE
8
BLACK
6
CONTINUOUS
10
42.246
20
-86.6809
11
42.1668
21
-86.8507
0
LINE
8
BLACK
6
CONTINUOUS
10
42.1668
20
-86.8507
11
42.0594
21
-87.0042
0
LINE
8
BLACK
6
CONTINUOUS
10
42.0594
20
-87.0042
11
41.9269
21
-87.1367
0
LINE
8
BLACK
6
CONTINUOUS
10
41.9269
20
-87.1367
11
41.7734
21
-87.2442
0
LINE
8
BLACK
6
CONTINUOUS
10
41.7734
20
-87.2442
11
41.6035
21
-87.3233
0
LINE
8
BLACK
6
CONTINUOUS
10
41.6035
20
-87.3233
11
41.4227
21
-87.3718
0
LINE
8
BLACK
6
CONTINUOUS
10
41.4227
20
-87.3718
11
41.4225
21
-87.3719
0
LINE
8
BLACK
6
CONTINUOUS
10
41.4225
20
-87.3719
11
28.62
21
-89.6293
0
LINE
8
BLACK
6
CONTINUOUS
10
28.62
20
-89.6293
11
28.62
21
-89.6293
0
LINE
8
BLACK
6
CONTINUOUS
10
28.62
20
-89.6293
11
28.4334
21
-89.6456
0
LINE
8
BLACK
6
CONTINUOUS
10
28.4334
20
-89.6456
11
28.2467
21
-89.6293
0
LINE
8
BLACK
6
CONTINUOUS
10
28.2467
20
-89.6293
11
28.0657
21
-89.5808
0
LINE
8
BLACK
6
CONTINUOUS
10
28.0657
20
-89.5808
11
27.8959
21
-89.5016
0
LINE
8
BLACK
6
CONTINUOUS
10
27.8959
20
-89.5016
11
27.7424
21
-89.3941
0
LINE
8
BLACK
6
CONTINUOUS
10
27.7424
20
-89.3941
11
27.6099
21
-89.2616
0
LINE
8
BLACK
6
CONTINUOUS
10
27.6099
20
-89.2616
11
27.5024
21
-89.1081
0
LINE
8
BLACK
6
CONTINUOUS
10
27.5024
20
-89.1081
11
27.4232
21
-88.9383
0
LINE
8
BLACK
6
CONTINUOUS
10
27.4232
20
-88.9383
11
27.3747
21
-88.7573
0
LINE
8
BLACK
6
CONTINUOUS
10
27.3747
20
-88.7573
11
27.3747
21
-88.7573
0
LINE
8
BLACK
6
CONTINUOUS
10
27.3747
20
-88.7573
11
27.3747
21
-88.7573
0
LINE
8
BLACK
6
CONTINUOUS
10
27.3747
20
-88.7573
11
27.3747
21
-88.7573
0
LINE
8
BLACK
6
CONTINUOUS
10
27.3747
20
-88.7573
11
25.1173
21
-75.9548
0
LINE
8
BLACK
6
CONTINUOUS
10
25.1173
20
-75.9548
11
25.1173
21
-75.9548
0
LINE
8
BLACK
6
CONTINUOUS
10
25.1173
20
-75.9548
11
25.1009
21
-75.7682
0
LINE
8
BLACK
6
CONTINUOUS
10
25.1009
20
-75.7682
11
25.1173
21
-75.5815
0
LINE
8
BLACK
6
CONTINUOUS
10
25.1173
20
-75.5815
11
25.1658
21
-75.4005
0
LINE
8
BLACK
6
CONTINUOUS
10
25.1658
20
-75.4005
11
25.245
21
-75.2306
0
LINE
8
BLACK
6
CONTINUOUS
10
25.245
20
-75.2306
11
25.3524
21
-75.0772
0
LINE
8
BLACK
6
CONTINUOUS
10
25.3524
20
-75.0772
11
25.4849
21
-74.9447
0
LINE
8
BLACK
6
CONTINUOUS
10
25.4849
20
-74.9447
11
25.6384
21
-74.8372
0
LINE
8
BLACK
6
CONTINUOUS
10
25.6384
20
-74.8372
11
25.8083
21
-74.758
0
LINE
8
BLACK
6
CONTINUOUS
10
25.8083
20
-74.758
11
25.9893
21
-74.7095
0
LINE
8
BLACK
6
CONTINUOUS
10
25.9893
20
-74.7095
11
25.9893
21
-74.7095
0
LINE
8
BLACK
6
CONTINUOUS
10
25.9893
20
-74.7095
11
38.7918
21
-72.4521
0
LINE
8
BLACK
6
CONTINUOUS
10
38.7918
20
-72.4521
11
38.7918
21
-72.4521
0
LINE
8
BLACK
6
CONTINUOUS
10
38.7918
20
-72.4521
11
38.9784
21
-72.4357
0
LINE
8
BLACK
6
CONTINUOUS
10
38.9784
20
-72.4357
11
39.1651
21
-72.4521
0
LINE
8
BLACK
6
CONTINUOUS
10
38.8178
20
-72.5998
11
38.8178
21
-72.5998
0
LINE
8
BLACK
6
CONTINUOUS
10
38.8178
20
-72.5998
11
26.0153
21
-74.8572
0
LINE
8
BLACK
6
CONTINUOUS
10
26.0153
20
-74.8572
11
26.0153
21
-74.8572
0
LINE
8
BLACK
6
CONTINUOUS
10
26.0153
20
-74.8572
11
25.9356
21
-74.8713
0
LINE
8
BLACK
6
CONTINUOUS
10
25.9356
20
-74.8713
11
25.7835
21
-74.9266
0
LINE
8
BLACK
6
CONTINUOUS
10
25.7835
20
-74.9266
11
25.6434
21
-75.0075
0
LINE
8
BLACK
6
CONTINUOUS
10
25.6434
20
-75.0075
11
25.5194
21
-75.1116
0
LINE
8
BLACK
6
CONTINUOUS
10
25.5194
20
-75.1116
11
25.4153
21
-75.2356
0
LINE
8
BLACK
6
CONTINUOUS
10
25.4153
20
-75.2356
11
25.3344
21
-75.3757
0
LINE
8
BLACK
6
CONTINUOUS
10
25.3344
20
-75.3757
11
25.2791
21
-75.5278
0
LINE
8
BLACK
6
CONTINUOUS
10
25.2791
20
-75.5278
11
25.2509
21
-75.6872
0
LINE
8
BLACK
6
CONTINUOUS
10
25.2509
20
-75.6872
11
25.2509
21
-75.8491
0
LINE
8
BLACK
6
CONTINUOUS
10
25.2509
20
-75.8491
11
25.265
21
-75.9288
0
LINE
8
BLACK
6
CONTINUOUS
10
25.265
20
-75.9288
11
27.5224
21
-88.7313
0
LINE
8
BLACK
6
CONTINUOUS
10
27.5224
20
-88.7313
11
27.5224
21
-88.7313
0
LINE
8
BLACK
6
CONTINUOUS
10
27.5224
20
-88.7313
11
27.5365
21
-88.811
0
LINE
8
BLACK
6
CONTINUOUS
10
27.5365
20
-88.811
11
27.5918
21
-88.9631
0
LINE
8
BLACK
6
CONTINUOUS
10
27.5918
20
-88.9631
11
27.6728
21
-89.1032
0
LINE
8
BLACK
6
CONTINUOUS
10
27.6728
20
-89.1032
11
27.7768
21
-89.2272
0
LINE
8
BLACK
6
CONTINUOUS
10
27.7768
20
-89.2272
11
27.9008
21
-89.3312
0
LINE
8
BLACK
6
CONTINUOUS
10
27.9008
20
-89.3312
11
28.041
21
-89.4122
0
LINE
8
BLACK
6
CONTINUOUS
10
28.041
20
-89.4122
11
28.1931
21
-89.4675
0
LINE
8
BLACK
6
CONTINUOUS
10
28.1931
20
-89.4675
11
28.3524
21
-89.4956
0
LINE
8
BLACK
6
CONTINUOUS
10
28.3524
20
-89.4956
11
28.5143
21
-89.4956
0
LINE
8
BLACK
6
CONTINUOUS
10
28.5143
20
-89.4956
11
28.594
21
-89.4816
0
LINE
8
BLACK
6
CONTINUOUS
10
28.594
20
-89.4816
11
28.594
21
-89.4816
0
LINE
8
BLACK
6
CONTINUOUS
10
28.594
20
-89.4816
11
41.3965
21
-87.2242
0
LINE
8
BLACK
6
CONTINUOUS
10
41.3965
20
-87.2242
11
41.3965
21
-87.2242
0
LINE
8
BLACK
6
CONTINUOUS
10
41.3965
20
-87.2242
11
41.3965
21
-87.2241
0
LINE
8
BLACK
6
CONTINUOUS
10
41.3965
20
-87.2241
11
41.4762
21
-87.2101
0
LINE
8
BLACK
6
CONTINUOUS
10
41.4762
20
-87.2101
11
41.6283
21
-87.1547
0
LINE
8
BLACK
6
CONTINUOUS
10
41.6283
20
-87.1547
11
41.7684
21
-87.0738
0
LINE
8
BLACK
6
CONTINUOUS
10
41.7684
20
-87.0738
11
41.8924
21
-86.9698
0
LINE
8
BLACK
6
CONTINUOUS
10
41.8924
20
-86.9698
11
41.9965
21
-86.8458
0
LINE
8
BLACK
6
CONTINUOUS
10
41.9965
20
-86.8458
11
42.0774
21
-86.7056
0
LINE
8
BLACK
6
CONTINUOUS
10
42.0774
20
-86.7056
11
42.1328
21
-86.5535
0
LINE
8
BLACK
6
CONTINUOUS
10
42.1328
20
-86.5535
11
42.1609
21
-86.3941
0
LINE
8
BLACK
6
CONTINUOUS
10
42.1609
20
-86.3941
11
42.1609
21
-86.2323
0
LINE
8
BLACK
6
CONTINUOUS
10
42.1609
20
-86.2323
11
42.1468
21
-86.1526
0
LINE
8
BLACK
6
CONTINUOUS
10
42.1468
20
-86.1526
11
42.1468
21
-86.1526
0
LINE
8
BLACK
6
CONTINUOUS
10
42.1468
20
-86.1526
11
39.8894
21
-73.3501
0
LINE
8
BLACK
6
CONTINUOUS
10
39.8894
20
-73.3501
11
39.8894
21
-73.3501
0
LINE
8
BLACK
6
CONTINUOUS
10
39.8894
20
-73.3501
11
39.8893
21
-73.3501
0
LINE
8
BLACK
6
CONTINUOUS
10
39.8893
20
-73.3501
11
39.8753
21
-73.2704
0
LINE
8
BLACK
6
CONTINUOUS
10
39.8753
20
-73.2704
11
39.8199
21
-73.1183
0
LINE
8
BLACK
6
CONTINUOUS
10
39.8199
20
-73.1183
11
39.739
21
-72.9782
0
LINE
8
BLACK
6
CONTINUOUS
10
39.739
20
-72.9782
11
39.635
21
-72.8542
0
LINE
8
BLACK
6
CONTINUOUS
10
39.635
20
-72.8542
11
39.511
21
-72.7501
0
LINE
8
BLACK
6
CONTINUOUS
10
39.511
20
-72.7501
11
39.3708
21
-72.6692
0
LINE
8
BLACK
6
CONTINUOUS
10
39.3708
20
-72.6692
11
39.2187
21
-72.6138
0
LINE
8
BLACK
6
CONTINUOUS
10
39.2187
20
-72.6138
11
39.0594
21
-72.5857
0
LINE
8
BLACK
6
CONTINUOUS
10
39.0594
20
-72.5857
11
38.8975
21
-72.5857
0
LINE
8
BLACK
6
CONTINUOUS
10
38.8975
20
-72.5857
11
38.8178
21
-72.5998
0
LINE
8
BLACK
6
CONTINUOUS
10
116.59
20
-73.9035
11
116.773
21
-73.9456
0
LINE
8
BLACK
6
CONTINUOUS
10
116.773
20
-73.9456
11
116.945
21
-74.0188
0
LINE
8
BLACK
6
CONTINUOUS
10
116.945
20
-74.0188
11
117.102
21
-74.1209
0
LINE
8
BLACK
6
CONTINUOUS
10
117.102
20
-74.1209
11
117.239
21
-74.2487
0
LINE
8
BLACK
6
CONTINUOUS
10
117.239
20
-74.2487
11
117.352
21
-74.3983
0
LINE
8
BLACK
6
CONTINUOUS
10
117.352
20
-74.3983
11
117.437
21
-74.5653
0
LINE
8
BLACK
6
CONTINUOUS
10
117.437
20
-74.5653
11
117.492
21
-74.7445
0
LINE
8
BLACK
6
CONTINUOUS
10
117.492
20
-74.7445
11
117.515
21
-74.9303
0
LINE
8
BLACK
6
CONTINUOUS
10
117.515
20
-74.9303
11
117.515
21
-74.9305
0
LINE
8
BLACK
6
CONTINUOUS
10
117.515
20
-74.9305
11
117.969
21
-87.9225
0
LINE
8
BLACK
6
CONTINUOUS
10
117.969
20
-87.9225
11
117.969
21
-87.9225
0
LINE
8
BLACK
6
CONTINUOUS
10
117.969
20
-87.9225
11
117.959
21
-88.1097
0
LINE
8
BLACK
6
CONTINUOUS
10
117.959
20
-88.1097
11
117.917
21
-88.2923
0
LINE
8
BLACK
6
CONTINUOUS
10
117.917
20
-88.2923
11
117.843
21
-88.4648
0
LINE
8
BLACK
6
CONTINUOUS
10
117.843
20
-88.4648
11
117.741
21
-88.6219
0
LINE
8
BLACK
6
CONTINUOUS
10
117.741
20
-88.6219
11
117.614
21
-88.759
0
LINE
8
BLACK
6
CONTINUOUS
10
117.614
20
-88.759
11
117.464
21
-88.8718
0
LINE
8
BLACK
6
CONTINUOUS
10
117.464
20
-88.8718
11
117.297
21
-88.9568
0
LINE
8
BLACK
6
CONTINUOUS
10
117.297
20
-88.9568
11
117.118
21
-89.0116
0
LINE
8
BLACK
6
CONTINUOUS
10
117.118
20
-89.0116
11
116.932
21
-89.0345
0
LINE
8
BLACK
6
CONTINUOUS
10
116.932
20
-89.0345
11
116.932
21
-89.0344
0
LINE
8
BLACK
6
CONTINUOUS
10
116.932
20
-89.0344
11
116.932
21
-89.0344
0
LINE
8
BLACK
6
CONTINUOUS
10
116.932
20
-89.0344
11
116.932
21
-89.0344
0
LINE
8
BLACK
6
CONTINUOUS
10
116.932
20
-89.0344
11
103.94
21
-89.4881
0
LINE
8
BLACK
6
CONTINUOUS
10
103.94
20
-89.4881
11
103.94
21
-89.4881
0
LINE
8
BLACK
6
CONTINUOUS
10
103.94
20
-89.4881
11
103.94
21
-89.4881
0
LINE
8
BLACK
6
CONTINUOUS
10
103.94
20
-89.4881
11
103.753
21
-89.4783
0
LINE
8
BLACK
6
CONTINUOUS
10
103.753
20
-89.4783
11
103.57
21
-89.4361
0
LINE
8
BLACK
6
CONTINUOUS
10
103.57
20
-89.4361
11
103.397
21
-89.3629
0
LINE
8
BLACK
6
CONTINUOUS
10
103.397
20
-89.3629
11
103.24
21
-89.2609
0
LINE
8
BLACK
6
CONTINUOUS
10
103.24
20
-89.2609
11
103.103
21
-89.1331
0
LINE
8
BLACK
6
CONTINUOUS
10
103.103
20
-89.1331
11
102.991
21
-88.9834
0
LINE
8
BLACK
6
CONTINUOUS
10
102.991
20
-88.9834
11
102.905
21
-88.8164
0
LINE
8
BLACK
6
CONTINUOUS
10
102.905
20
-88.8164
11
102.851
21
-88.6373
0
LINE
8
BLACK
6
CONTINUOUS
10
102.851
20
-88.6373
11
102.828
21
-88.4516
0
LINE
8
BLACK
6
CONTINUOUS
10
102.828
20
-88.4516
11
102.828
21
-88.4513
0
LINE
8
BLACK
6
CONTINUOUS
10
102.828
20
-88.4513
11
102.374
21
-75.4592
0
LINE
8
BLACK
6
CONTINUOUS
10
102.374
20
-75.4592
11
102.374
21
-75.4592
0
LINE
8
BLACK
6
CONTINUOUS
10
102.374
20
-75.4592
11
102.384
21
-75.2721
0
LINE
8
BLACK
6
CONTINUOUS
10
102.384
20
-75.2721
11
102.426
21
-75.0895
0
LINE
8
BLACK
6
CONTINUOUS
10
102.426
20
-75.0895
11
102.499
21
-74.917
0
LINE
8
BLACK
6
CONTINUOUS
10
102.499
20
-74.917
11
102.601
21
-74.7598
0
LINE
8
BLACK
6
CONTINUOUS
10
102.601
20
-74.7598
11
102.729
21
-74.6228
0
LINE
8
BLACK
6
CONTINUOUS
10
102.729
20
-74.6228
11
102.879
21
-74.51
0
LINE
8
BLACK
6
CONTINUOUS
10
102.879
20
-74.51
11
103.046
21
-74.425
0
LINE
8
BLACK
6
CONTINUOUS
10
103.046
20
-74.425
11
103.225
21
-74.3702
0
LINE
8
BLACK
6
CONTINUOUS
10
103.225
20
-74.3702
11
103.411
21
-74.3473
0
LINE
8
BLACK
6
CONTINUOUS
10
103.411
20
-74.3473
11
103.411
21
-74.3473
0
LINE
8
BLACK
6
CONTINUOUS
10
103.411
20
-74.3473
11
103.411
21
-74.3473
0
LINE
8
BLACK
6
CONTINUOUS
10
103.411
20
-74.3473
11
103.411
21
-74.3473
0
LINE
8
BLACK
6
CONTINUOUS
10
103.411
20
-74.3473
11
116.403
21
-73.8936
0
LINE
8
BLACK
6
CONTINUOUS
10
116.403
20
-73.8936
11
116.403
21
-73.8936
0
LINE
8
BLACK
6
CONTINUOUS
10
116.403
20
-73.8936
11
116.403
21
-73.8936
0
LINE
8
BLACK
6
CONTINUOUS
10
116.403
20
-73.8936
11
116.59
21
-73.9035
0
LINE
8
BLACK
6
CONTINUOUS
10
116.408
20
-74.0436
11
116.408
21
-74.0436
0
LINE
8
BLACK
6
CONTINUOUS
10
116.408
20
-74.0436
11
103.416
21
-74.4972
0
LINE
8
BLACK
6
CONTINUOUS
10
103.416
20
-74.4972
11
103.416
21
-74.4972
0
LINE
8
BLACK
6
CONTINUOUS
10
103.416
20
-74.4972
11
103.416
21
-74.4972
0
LINE
8
BLACK
6
CONTINUOUS
10
103.416
20
-74.4972
11
103.416
21
-74.4972
0
LINE
8
BLACK
6
CONTINUOUS
10
103.416
20
-74.4972
11
103.416
21
-74.4972
0
LINE
8
BLACK
6
CONTINUOUS
10
103.416
20
-74.4972
11
103.335
21
-74.5001
0
LINE
8
BLACK
6
CONTINUOUS
10
103.335
20
-74.5001
11
103.177
21
-74.5337
0
LINE
8
BLACK
6
CONTINUOUS
10
103.177
20
-74.5337
11
103.027
21
-74.5943
0
LINE
8
BLACK
6
CONTINUOUS
10
103.027
20
-74.5943
11
102.89
21
-74.6801
0
LINE
8
BLACK
6
CONTINUOUS
10
102.89
20
-74.6801
11
102.769
21
-74.7884
0
LINE
8
BLACK
6
CONTINUOUS
10
102.769
20
-74.7884
11
102.67
21
-74.916
0
LINE
8
BLACK
6
CONTINUOUS
10
102.67
20
-74.916
11
102.594
21
-75.0589
0
LINE
8
BLACK
6
CONTINUOUS
10
102.594
20
-75.0589
11
102.544
21
-75.2128
0
LINE
8
BLACK
6
CONTINUOUS
10
102.544
20
-75.2128
11
102.521
21
-75.3731
0
LINE
8
BLACK
6
CONTINUOUS
10
102.521
20
-75.3731
11
102.524
21
-75.454
0
LINE
8
BLACK
6
CONTINUOUS
10
102.524
20
-75.454
11
102.524
21
-75.454
0
LINE
8
BLACK
6
CONTINUOUS
10
102.524
20
-75.454
11
102.978
21
-88.446
0
LINE
8
BLACK
6
CONTINUOUS
10
102.978
20
-88.446
11
102.978
21
-88.446
0
LINE
8
BLACK
6
CONTINUOUS
10
102.978
20
-88.446
11
102.978
21
-88.446
0
LINE
8
BLACK
6
CONTINUOUS
10
102.978
20
-88.446
11
102.981
21
-88.5269
0
LINE
8
BLACK
6
CONTINUOUS
10
102.981
20
-88.5269
11
103.014
21
-88.6852
0
LINE
8
BLACK
6
CONTINUOUS
10
103.014
20
-88.6852
11
103.075
21
-88.8353
0
LINE
8
BLACK
6
CONTINUOUS
10
103.075
20
-88.8353
11
103.161
21
-88.9726
0
LINE
8
BLACK
6
CONTINUOUS
10
103.161
20
-88.9726
11
103.269
21
-89.0928
0
LINE
8
BLACK
6
CONTINUOUS
10
103.269
20
-89.0928
11
103.396
21
-89.1925
0
LINE
8
BLACK
6
CONTINUOUS
10
103.396
20
-89.1925
11
103.539
21
-89.2685
0
LINE
8
BLACK
6
CONTINUOUS
10
103.539
20
-89.2685
11
103.693
21
-89.3185
0
LINE
8
BLACK
6
CONTINUOUS
10
103.693
20
-89.3185
11
103.854
21
-89.341
0
LINE
8
BLACK
6
CONTINUOUS
10
103.854
20
-89.341
11
103.934
21
-89.3382
0
LINE
8
BLACK
6
CONTINUOUS
10
103.934
20
-89.3382
11
116.927
21
-88.8845
0
LINE
8
BLACK
6
CONTINUOUS
10
116.927
20
-88.8845
11
116.927
21
-88.8845
0
LINE
8
BLACK
6
CONTINUOUS
10
116.927
20
-88.8845
11
116.927
21
-88.8845
0
LINE
8
BLACK
6
CONTINUOUS
10
116.927
20
-88.8845
11
116.927
21
-88.8846
0
LINE
8
BLACK
6
CONTINUOUS
10
116.927
20
-88.8846
11
117.007
21
-88.8817
0
LINE
8
BLACK
6
CONTINUOUS
10
117.007
20
-88.8817
11
117.166
21
-88.8481
0
LINE
8
BLACK
6
CONTINUOUS
10
117.166
20
-88.8481
11
117.316
21
-88.7875
0
LINE
8
BLACK
6
CONTINUOUS
10
117.316
20
-88.7875
11
117.453
21
-88.7017
0
LINE
8
BLACK
6
CONTINUOUS
10
117.453
20
-88.7017
11
117.573
21
-88.5934
0
LINE
8
BLACK
6
CONTINUOUS
10
117.573
20
-88.5934
11
117.673
21
-88.4658
0
LINE
8
BLACK
6
CONTINUOUS
10
117.673
20
-88.4658
11
117.749
21
-88.3229
0
LINE
8
BLACK
6
CONTINUOUS
10
117.749
20
-88.3229
11
117.799
21
-88.169
0
LINE
8
BLACK
6
CONTINUOUS
10
117.799
20
-88.169
11
117.822
21
-88.0087
0
LINE
8
BLACK
6
CONTINUOUS
10
117.822
20
-88.0087
11
117.819
21
-87.9278
0
LINE
8
BLACK
6
CONTINUOUS
10
117.819
20
-87.9278
11
117.819
21
-87.9278
0
LINE
8
BLACK
6
CONTINUOUS
10
117.819
20
-87.9278
11
117.819
21
-87.9278
0
LINE
8
BLACK
6
CONTINUOUS
10
117.819
20
-87.9278
11
117.365
21
-74.9357
0
LINE
8
BLACK
6
CONTINUOUS
10
117.365
20
-74.9357
11
117.365
21
-74.9357
0
LINE
8
BLACK
6
CONTINUOUS
10
117.365
20
-74.9357
11
117.362
21
-74.8548
0
LINE
8
BLACK
6
CONTINUOUS
10
117.362
20
-74.8548
11
117.328
21
-74.6965
0
LINE
8
BLACK
6
CONTINUOUS
10
117.328
20
-74.6965
11
117.268
21
-74.5465
0
LINE
8
BLACK
6
CONTINUOUS
10
117.268
20
-74.5465
11
117.182
21
-74.4092
0
LINE
8
BLACK
6
CONTINUOUS
10
117.182
20
-74.4092
11
117.074
21
-74.2889
0
LINE
8
BLACK
6
CONTINUOUS
10
117.074
20
-74.2889
11
116.946
21
-74.1893
0
LINE
8
BLACK
6
CONTINUOUS
10
116.946
20
-74.1893
11
116.803
21
-74.1133
0
LINE
8
BLACK
6
CONTINUOUS
10
116.803
20
-74.1133
11
116.649
21
-74.0633
0
LINE
8
BLACK
6
CONTINUOUS
10
116.649
20
-74.0633
11
116.489
21
-74.0407
0
LINE
8
BLACK
6
CONTINUOUS
10
116.489
20
-74.0407
11
116.408
21
-74.0436
0
LINE
8
BLACK
6
CONTINUOUS
10
96.8878
20
-65.904
11
97.0751
21
-65.9073
0
LINE
8
BLACK
6
CONTINUOUS
10
97.0751
20
-65.9073
11
97.259
21
-65.9431
0
LINE
8
BLACK
6
CONTINUOUS
10
97.259
20
-65.9431
11
97.434
21
-66.0102
0
LINE
8
BLACK
6
CONTINUOUS
10
97.434
20
-66.0102
11
97.5946
21
-66.1067
0
LINE
8
BLACK
6
CONTINUOUS
10
97.5946
20
-66.1067
11
97.736
21
-66.2297
0
LINE
8
BLACK
6
CONTINUOUS
10
97.736
20
-66.2297
11
97.8539
21
-66.3753
0
LINE
8
BLACK
6
CONTINUOUS
10
97.8539
20
-66.3753
11
97.9448
21
-66.5392
0
LINE
8
BLACK
6
CONTINUOUS
10
97.9448
20
-66.5392
11
98.0058
21
-66.7164
0
LINE
8
BLACK
6
CONTINUOUS
10
98.0058
20
-66.7164
11
98.035
21
-66.9012
0
LINE
8
BLACK
6
CONTINUOUS
10
98.035
20
-66.9012
11
98.0351
21
-66.9014
0
LINE
8
BLACK
6
CONTINUOUS
10
98.0351
20
-66.9014
11
98.942
21
-79.8698
0
LINE
8
BLACK
6
CONTINUOUS
10
98.942
20
-79.8698
11
98.942
21
-79.8698
0
LINE
8
BLACK
6
CONTINUOUS
10
98.942
20
-79.8698
11
98.942
21
-79.8698
0
LINE
8
BLACK
6
CONTINUOUS
10
98.942
20
-79.8698
11
98.942
21
-79.8698
0
LINE
8
BLACK
6
CONTINUOUS
10
98.942
20
-79.8698
11
98.9387
21
-80.0571
0
LINE
8
BLACK
6
CONTINUOUS
10
98.9387
20
-80.0571
11
98.9029
21
-80.241
0
LINE
8
BLACK
6
CONTINUOUS
10
98.9029
20
-80.241
11
98.8358
21
-80.416
0
LINE
8
BLACK
6
CONTINUOUS
10
98.8358
20
-80.416
11
98.7393
21
-80.5766
0
LINE
8
BLACK
6
CONTINUOUS
10
98.7393
20
-80.5766
11
98.6163
21
-80.718
0
LINE
8
BLACK
6
CONTINUOUS
10
98.6163
20
-80.718
11
98.4707
21
-80.8359
0
LINE
8
BLACK
6
CONTINUOUS
10
98.4707
20
-80.8359
11
98.3068
21
-80.9268
0
LINE
8
BLACK
6
CONTINUOUS
10
98.3068
20
-80.9268
11
98.1296
21
-80.9878
0
LINE
8
BLACK
6
CONTINUOUS
10
98.1296
20
-80.9878
11
97.9448
21
-81.017
0
LINE
8
BLACK
6
CONTINUOUS
10
97.9448
20
-81.017
11
97.9446
21
-81.0171
0
LINE
8
BLACK
6
CONTINUOUS
10
97.9446
20
-81.0171
11
84.9762
21
-81.924
0
LINE
8
BLACK
6
CONTINUOUS
10
84.9762
20
-81.924
11
84.9762
21
-81.924
0
LINE
8
BLACK
6
CONTINUOUS
10
84.9762
20
-81.924
11
84.9762
21
-81.924
0
LINE
8
BLACK
6
CONTINUOUS
10
84.9762
20
-81.924
11
84.9762
21
-81.924
0
LINE
8
BLACK
6
CONTINUOUS
10
84.9762
20
-81.924
11
84.7889
21
-81.9207
0
LINE
8
BLACK
6
CONTINUOUS
10
84.7889
20
-81.9207
11
84.605
21
-81.8849
0
LINE
8
BLACK
6
CONTINUOUS
10
84.605
20
-81.8849
11
84.43
21
-81.8178
0
LINE
8
BLACK
6
CONTINUOUS
10
84.43
20
-81.8178
11
84.2694
21
-81.7213
0
LINE
8
BLACK
6
CONTINUOUS
10
84.2694
20
-81.7213
11
84.128
21
-81.5983
0
LINE
8
BLACK
6
CONTINUOUS
10
84.128
20
-81.5983
11
84.0101
21
-81.4527
0
LINE
8
BLACK
6
CONTINUOUS
10
84.0101
20
-81.4527
11
83.9192
21
-81.2888
0
LINE
8
BLACK
6
CONTINUOUS
10
83.9192
20
-81.2888
11
83.8582
21
-81.1116
0
LINE
8
BLACK
6
CONTINUOUS
10
83.8582
20
-81.1116
11
83.829
21
-80.9268
0
LINE
8
BLACK
6
CONTINUOUS
10
83.829
20
-80.9268
11
83.8289
21
-80.9266
0
LINE
8
BLACK
6
CONTINUOUS
10
83.8289
20
-80.9266
11
82.922
21
-67.9582
0
LINE
8
BLACK
6
CONTINUOUS
10
82.922
20
-67.9582
11
82.922
21
-67.9582
0
LINE
8
BLACK
6
CONTINUOUS
10
82.922
20
-67.9582
11
82.922
21
-67.9582
0
LINE
8
BLACK
6
CONTINUOUS
10
82.922
20
-67.9582
11
82.922
21
-67.9582
0
LINE
8
BLACK
6
CONTINUOUS
10
82.922
20
-67.9582
11
82.9253
21
-67.7709
0
LINE
8
BLACK
6
CONTINUOUS
10
82.9253
20
-67.7709
11
82.9611
21
-67.587
0
LINE
8
BLACK
6
CONTINUOUS
10
82.9611
20
-67.587
11
83.0282
21
-67.412
0
LINE
8
BLACK
6
CONTINUOUS
10
83.0282
20
-67.412
11
83.1247
21
-67.2514
0
LINE
8
BLACK
6
CONTINUOUS
10
83.1247
20
-67.2514
11
83.2477
21
-67.11
0
LINE
8
BLACK
6
CONTINUOUS
10
83.2477
20
-67.11
11
83.3933
21
-66.9921
0
LINE
8
BLACK
6
CONTINUOUS
10
83.3933
20
-66.9921
11
83.5572
21
-66.9012
0
LINE
8
BLACK
6
CONTINUOUS
10
83.5572
20
-66.9012
11
83.7344
21
-66.8402
0
LINE
8
BLACK
6
CONTINUOUS
10
83.7344
20
-66.8402
11
83.9192
21
-66.811
0
LINE
8
BLACK
6
CONTINUOUS
10
83.9192
20
-66.811
11
83.9194
21
-66.8109
0
LINE
8
BLACK
6
CONTINUOUS
10
83.9194
20
-66.8109
11
96.8878
21
-65.904
0
LINE
8
BLACK
6
CONTINUOUS
10
96.8878
20
-65.904
11
96.8878
21
-65.904
0
LINE
8
BLACK
6
CONTINUOUS
10
96.8878
20
-65.904
11
96.8878
21
-65.904
0
LINE
8
BLACK
6
CONTINUOUS
10
96.8878
20
-65.904
11
96.8878
21
-65.904
0
LINE
8
BLACK
6
CONTINUOUS
10
96.8982
20
-66.0537
11
96.8982
21
-66.0537
0
LINE
8
BLACK
6
CONTINUOUS
10
96.8982
20
-66.0537
11
83.9299
21
-66.9605
0
LINE
8
BLACK
6
CONTINUOUS
10
83.9299
20
-66.9605
11
83.9299
21
-66.9605
0
LINE
8
BLACK
6
CONTINUOUS
10
83.9299
20
-66.9605
11
83.9299
21
-66.9605
0
LINE
8
BLACK
6
CONTINUOUS
10
83.9299
20
-66.9605
11
83.9299
21
-66.9606
0
LINE
8
BLACK
6
CONTINUOUS
10
83.9299
20
-66.9606
11
83.8492
21
-66.9662
0
LINE
8
BLACK
6
CONTINUOUS
10
83.8492
20
-66.9662
11
83.6921
21
-67.0054
0
LINE
8
BLACK
6
CONTINUOUS
10
83.6921
20
-67.0054
11
83.5443
21
-67.0712
0
LINE
8
BLACK
6
CONTINUOUS
10
83.5443
20
-67.0712
11
83.4101
21
-67.1617
0
LINE
8
BLACK
6
CONTINUOUS
10
83.4101
20
-67.1617
11
83.2937
21
-67.2741
0
LINE
8
BLACK
6
CONTINUOUS
10
83.2937
20
-67.2741
11
83.1985
21
-67.4051
0
LINE
8
BLACK
6
CONTINUOUS
10
83.1985
20
-67.4051
11
83.1276
21
-67.5505
0
LINE
8
BLACK
6
CONTINUOUS
10
83.1276
20
-67.5505
11
83.083
21
-67.7061
0
LINE
8
BLACK
6
CONTINUOUS
10
83.083
20
-67.7061
11
83.066
21
-67.8671
0
LINE
8
BLACK
6
CONTINUOUS
10
83.066
20
-67.8671
11
83.0717
21
-67.9478
0
LINE
8
BLACK
6
CONTINUOUS
10
83.0717
20
-67.9478
11
83.0717
21
-67.9478
0
LINE
8
BLACK
6
CONTINUOUS
10
83.0717
20
-67.9478
11
83.9785
21
-80.9161
0
LINE
8
BLACK
6
CONTINUOUS
10
83.9785
20
-80.9161
11
83.9785
21
-80.9161
0
LINE
8
BLACK
6
CONTINUOUS
10
83.9785
20
-80.9161
11
83.9786
21
-80.9161
0
LINE
8
BLACK
6
CONTINUOUS
10
83.9786
20
-80.9161
11
83.9842
21
-80.9968
0
LINE
8
BLACK
6
CONTINUOUS
10
83.9842
20
-80.9968
11
84.0234
21
-81.1539
0
LINE
8
BLACK
6
CONTINUOUS
10
84.0234
20
-81.1539
11
84.0892
21
-81.3017
0
LINE
8
BLACK
6
CONTINUOUS
10
84.0892
20
-81.3017
11
84.1797
21
-81.4359
0
LINE
8
BLACK
6
CONTINUOUS
10
84.1797
20
-81.4359
11
84.2921
21
-81.5523
0
LINE
8
BLACK
6
CONTINUOUS
10
84.2921
20
-81.5523
11
84.4231
21
-81.6475
0
LINE
8
BLACK
6
CONTINUOUS
10
84.4231
20
-81.6475
11
84.5685
21
-81.7184
0
LINE
8
BLACK
6
CONTINUOUS
10
84.5685
20
-81.7184
11
84.7241
21
-81.763
0
LINE
8
BLACK
6
CONTINUOUS
10
84.7241
20
-81.763
11
84.8851
21
-81.78
0
LINE
8
BLACK
6
CONTINUOUS
10
84.8851
20
-81.78
11
84.9658
21
-81.7743
0
LINE
8
BLACK
6
CONTINUOUS
10
84.9658
20
-81.7743
11
84.9658
21
-81.7743
0
LINE
8
BLACK
6
CONTINUOUS
10
84.9658
20
-81.7743
11
97.9341
21
-80.8675
0
LINE
8
BLACK
6
CONTINUOUS
10
97.9341
20
-80.8675
11
97.9341
21
-80.8675
0
LINE
8
BLACK
6
CONTINUOUS
10
97.9341
20
-80.8675
11
97.9341
21
-80.8675
0
LINE
8
BLACK
6
CONTINUOUS
10
97.9341
20
-80.8675
11
97.9341
21
-80.8674
0
LINE
8
BLACK
6
CONTINUOUS
10
97.9341
20
-80.8674
11
98.0148
21
-80.8618
0
LINE
8
BLACK
6
CONTINUOUS
10
98.0148
20
-80.8618
11
98.1719
21
-80.8226
0
LINE
8
BLACK
6
CONTINUOUS
10
98.1719
20
-80.8226
11
98.3197
21
-80.7568
0
LINE
8
BLACK
6
CONTINUOUS
10
98.3197
20
-80.7568
11
98.4539
21
-80.6663
0
LINE
8
BLACK
6
CONTINUOUS
10
98.4539
20
-80.6663
11
98.5703
21
-80.5539
0
LINE
8
BLACK
6
CONTINUOUS
10
98.5703
20
-80.5539
11
98.6655
21
-80.4229
0
LINE
8
BLACK
6
CONTINUOUS
10
98.6655
20
-80.4229
11
98.7364
21
-80.2775
0
LINE
8
BLACK
6
CONTINUOUS
10
98.7364
20
-80.2775
11
98.781
21
-80.1219
0
LINE
8
BLACK
6
CONTINUOUS
10
98.781
20
-80.1219
11
98.798
21
-79.9609
0
LINE
8
BLACK
6
CONTINUOUS
10
98.798
20
-79.9609
11
98.7923
21
-79.8802
0
LINE
8
BLACK
6
CONTINUOUS
10
98.7923
20
-79.8802
11
98.7923
21
-79.8802
0
LINE
8
BLACK
6
CONTINUOUS
10
98.7923
20
-79.8802
11
97.8855
21
-66.9119
0
LINE
8
BLACK
6
CONTINUOUS
10
97.8855
20
-66.9119
11
97.8855
21
-66.9119
0
LINE
8
BLACK
6
CONTINUOUS
10
97.8855
20
-66.9119
11
97.8854
21
-66.9119
0
LINE
8
BLACK
6
CONTINUOUS
10
97.8854
20
-66.9119
11
97.8798
21
-66.8312
0
LINE
8
BLACK
6
CONTINUOUS
10
97.8798
20
-66.8312
11
97.8406
21
-66.6741
0
LINE
8
BLACK
6
CONTINUOUS
10
97.8406
20
-66.6741
11
97.7748
21
-66.5263
0
LINE
8
BLACK
6
CONTINUOUS
10
97.7748
20
-66.5263
11
97.6843
21
-66.3921
0
LINE
8
BLACK
6
CONTINUOUS
10
97.6843
20
-66.3921
11
97.5719
21
-66.2757
0
LINE
8
BLACK
6
CONTINUOUS
10
97.5719
20
-66.2757
11
97.4409
21
-66.1805
0
LINE
8
BLACK
6
CONTINUOUS
10
97.4409
20
-66.1805
11
97.2955
21
-66.1096
0
LINE
8
BLACK
6
CONTINUOUS
10
97.2955
20
-66.1096
11
97.1399
21
-66.065
0
LINE
8
BLACK
6
CONTINUOUS
10
97.1399
20
-66.065
11
96.9789
21
-66.048
0
LINE
8
BLACK
6
CONTINUOUS
10
96.9789
20
-66.048
11
96.8982
21
-66.0537
0
LINE
8
BLACK
6
CONTINUOUS
10
57.5029
20
-60.2488
11
57.6821
21
-60.3035
0
LINE
8
BLACK
6
CONTINUOUS
10
57.6821
20
-60.3035
11
57.8491
21
-60.3886
0
LINE
8
BLACK
6
CONTINUOUS
10
57.8491
20
-60.3886
11
57.9987
21
-60.5014
0
LINE
8
BLACK
6
CONTINUOUS
10
57.9987
20
-60.5014
11
58.1265
21
-60.6384
0
LINE
8
BLACK
6
CONTINUOUS
10
58.1265
20
-60.6384
11
58.2286
21
-60.7956
0
LINE
8
BLACK
6
CONTINUOUS
10
58.2286
20
-60.7956
11
58.3018
21
-60.9681
0
LINE
8
BLACK
6
CONTINUOUS
10
58.3018
20
-60.9681
11
58.344
21
-61.1507
0
LINE
8
BLACK
6
CONTINUOUS
10
58.344
20
-61.1507
11
58.3439
21
-61.1507
0
LINE
8
BLACK
6
CONTINUOUS
10
58.3439
20
-61.1507
11
58.3439
21
-61.1507
0
LINE
8
BLACK
6
CONTINUOUS
10
58.3439
20
-61.1507
11
58.3439
21
-61.1507
0
LINE
8
BLACK
6
CONTINUOUS
10
58.3439
20
-61.1507
11
60.1532
21
-74.0241
0
LINE
8
BLACK
6
CONTINUOUS
10
60.1532
20
-74.0241
11
60.1532
21
-74.0241
0
LINE
8
BLACK
6
CONTINUOUS
10
60.1532
20
-74.0241
11
60.163
21
-74.2113
0
LINE
8
BLACK
6
CONTINUOUS
10
60.163
20
-74.2113
11
60.1402
21
-74.3973
0
LINE
8
BLACK
6
CONTINUOUS
10
60.1402
20
-74.3973
11
60.0854
21
-74.5765
0
LINE
8
BLACK
6
CONTINUOUS
10
60.0854
20
-74.5765
11
60.0003
21
-74.7435
0
LINE
8
BLACK
6
CONTINUOUS
10
60.0003
20
-74.7435
11
59.8875
21
-74.8931
0
LINE
8
BLACK
6
CONTINUOUS
10
59.8875
20
-74.8931
11
59.7505
21
-75.0209
0
LINE
8
BLACK
6
CONTINUOUS
10
59.7505
20
-75.0209
11
59.5933
21
-75.123
0
LINE
8
BLACK
6
CONTINUOUS
10
59.5933
20
-75.123
11
59.4208
21
-75.1962
0
LINE
8
BLACK
6
CONTINUOUS
10
59.4208
20
-75.1962
11
59.2383
21
-75.2384
0
LINE
8
BLACK
6
CONTINUOUS
10
59.2383
20
-75.2384
11
59.2382
21
-75.2383
0
LINE
8
BLACK
6
CONTINUOUS
10
59.2382
20
-75.2383
11
59.2382
21
-75.2383
0
LINE
8
BLACK
6
CONTINUOUS
10
59.2382
20
-75.2383
11
59.2382
21
-75.2383
0
LINE
8
BLACK
6
CONTINUOUS
10
59.2382
20
-75.2383
11
46.3648
21
-77.0475
0
LINE
8
BLACK
6
CONTINUOUS
10
46.3648
20
-77.0475
11
46.3648
21
-77.0475
0
LINE
8
BLACK
6
CONTINUOUS
10
46.3648
20
-77.0475
11
46.3648
21
-77.0476
0
LINE
8
BLACK
6
CONTINUOUS
10
46.3648
20
-77.0476
11
46.3648
21
-77.0475
0
LINE
8
BLACK
6
CONTINUOUS
10
46.3648
20
-77.0475
11
46.1776
21
-77.0573
0
LINE
8
BLACK
6
CONTINUOUS
10
46.1776
20
-77.0573
11
45.9917
21
-77.0345
0
LINE
8
BLACK
6
CONTINUOUS
10
45.9917
20
-77.0345
11
45.8125
21
-76.9797
0
LINE
8
BLACK
6
CONTINUOUS
10
45.8125
20
-76.9797
11
45.6455
21
-76.8946
0
LINE
8
BLACK
6
CONTINUOUS
10
45.6455
20
-76.8946
11
45.4959
21
-76.7819
0
LINE
8
BLACK
6
CONTINUOUS
10
45.4959
20
-76.7819
11
45.3681
21
-76.6448
0
LINE
8
BLACK
6
CONTINUOUS
10
45.3681
20
-76.6448
11
45.266
21
-76.4877
0
LINE
8
BLACK
6
CONTINUOUS
10
45.266
20
-76.4877
11
45.1928
21
-76.3152
0
LINE
8
BLACK
6
CONTINUOUS
10
45.1928
20
-76.3152
11
45.1507
21
-76.1328
0
LINE
8
BLACK
6
CONTINUOUS
10
45.1507
20
-76.1328
11
45.1506
21
-76.1326
0
LINE
8
BLACK
6
CONTINUOUS
10
45.1506
20
-76.1326
11
43.3414
21
-63.2591
0
LINE
8
BLACK
6
CONTINUOUS
10
43.3414
20
-63.2591
11
43.3414
21
-63.2591
0
LINE
8
BLACK
6
CONTINUOUS
10
43.3414
20
-63.2591
11
43.3316
21
-63.072
0
LINE
8
BLACK
6
CONTINUOUS
10
43.3316
20
-63.072
11
43.3544
21
-62.886
0
LINE
8
BLACK
6
CONTINUOUS
10
43.3544
20
-62.886
11
43.4092
21
-62.7068
0
LINE
8
BLACK
6
CONTINUOUS
10
43.4092
20
-62.7068
11
43.4942
21
-62.5398
0
LINE
8
BLACK
6
CONTINUOUS
10
43.4942
20
-62.5398
11
43.607
21
-62.3902
0
LINE
8
BLACK
6
CONTINUOUS
10
43.607
20
-62.3902
11
43.7441
21
-62.2624
0
LINE
8
BLACK
6
CONTINUOUS
10
43.7441
20
-62.2624
11
43.9012
21
-62.1603
0
LINE
8
BLACK
6
CONTINUOUS
10
43.9012
20
-62.1603
11
44.0737
21
-62.0871
0
LINE
8
BLACK
6
CONTINUOUS
10
44.0737
20
-62.0871
11
44.2563
21
-62.045
0
LINE
8
BLACK
6
CONTINUOUS
10
44.2563
20
-62.045
11
44.2563
21
-62.045
0
LINE
8
BLACK
6
CONTINUOUS
10
44.2563
20
-62.045
11
57.1298
21
-60.2357
0
LINE
8
BLACK
6
CONTINUOUS
10
57.1298
20
-60.2357
11
57.1298
21
-60.2357
0
LINE
8
BLACK
6
CONTINUOUS
10
57.1298
20
-60.2357
11
57.1298
21
-60.2357
0
LINE
8
BLACK
6
CONTINUOUS
10
57.1298
20
-60.2357
11
57.1298
21
-60.2357
0
LINE
8
BLACK
6
CONTINUOUS
10
57.1298
20
-60.2357
11
57.3169
21
-60.2259
0
LINE
8
BLACK
6
CONTINUOUS
10
57.3169
20
-60.2259
11
57.5029
21
-60.2488
0
LINE
8
BLACK
6
CONTINUOUS
10
57.1506
20
-60.3843
11
57.1506
21
-60.3843
0
LINE
8
BLACK
6
CONTINUOUS
10
57.1506
20
-60.3843
11
57.1506
21
-60.3843
0
LINE
8
BLACK
6
CONTINUOUS
10
57.1506
20
-60.3843
11
57.1506
21
-60.3843
0
LINE
8
BLACK
6
CONTINUOUS
10
57.1506
20
-60.3843
11
44.2772
21
-62.1935
0
LINE
8
BLACK
6
CONTINUOUS
10
44.2772
20
-62.1935
11
44.277
21
-62.1935
0
LINE
8
BLACK
6
CONTINUOUS
10
44.277
20
-62.1935
11
44.197
21
-62.2048
0
LINE
8
BLACK
6
CONTINUOUS
10
44.197
20
-62.2048
11
44.0431
21
-62.2548
0
LINE
8
BLACK
6
CONTINUOUS
10
44.0431
20
-62.2548
11
43.9002
21
-62.3308
0
LINE
8
BLACK
6
CONTINUOUS
10
43.9002
20
-62.3308
11
43.7726
21
-62.4304
0
LINE
8
BLACK
6
CONTINUOUS
10
43.7726
20
-62.4304
11
43.6643
21
-62.5507
0
LINE
8
BLACK
6
CONTINUOUS
10
43.6643
20
-62.5507
11
43.5786
21
-62.688
0
LINE
8
BLACK
6
CONTINUOUS
10
43.5786
20
-62.688
11
43.5179
21
-62.838
0
LINE
8
BLACK
6
CONTINUOUS
10
43.5179
20
-62.838
11
43.4843
21
-62.9964
0
LINE
8
BLACK
6
CONTINUOUS
10
43.4843
20
-62.9964
11
43.4786
21
-63.1581
0
LINE
8
BLACK
6
CONTINUOUS
10
43.4786
20
-63.1581
11
43.4899
21
-63.2383
0
LINE
8
BLACK
6
CONTINUOUS
10
43.4899
20
-63.2383
11
43.4899
21
-63.2383
0
LINE
8
BLACK
6
CONTINUOUS
10
43.4899
20
-63.2383
11
43.4899
21
-63.2383
0
LINE
8
BLACK
6
CONTINUOUS
10
43.4899
20
-63.2383
11
45.2992
21
-76.1117
0
LINE
8
BLACK
6
CONTINUOUS
10
45.2992
20
-76.1117
11
45.2992
21
-76.1117
0
LINE
8
BLACK
6
CONTINUOUS
10
45.2992
20
-76.1117
11
45.3105
21
-76.1919
0
LINE
8
BLACK
6
CONTINUOUS
10
45.3105
20
-76.1919
11
45.3605
21
-76.3458
0
LINE
8
BLACK
6
CONTINUOUS
10
45.3605
20
-76.3458
11
45.4365
21
-76.4887
0
LINE
8
BLACK
6
CONTINUOUS
10
45.4365
20
-76.4887
11
45.5361
21
-76.6162
0
LINE
8
BLACK
6
CONTINUOUS
10
45.5361
20
-76.6162
11
45.6564
21
-76.7245
0
LINE
8
BLACK
6
CONTINUOUS
10
45.6564
20
-76.7245
11
45.7936
21
-76.8103
0
LINE
8
BLACK
6
CONTINUOUS
10
45.7936
20
-76.8103
11
45.9437
21
-76.871
0
LINE
8
BLACK
6
CONTINUOUS
10
45.9437
20
-76.871
11
46.102
21
-76.9046
0
LINE
8
BLACK
6
CONTINUOUS
10
46.102
20
-76.9046
11
46.2638
21
-76.9103
0
LINE
8
BLACK
6
CONTINUOUS
10
46.2638
20
-76.9103
11
46.3439
21
-76.899
0
LINE
8
BLACK
6
CONTINUOUS
10
46.3439
20
-76.899
11
46.3439
21
-76.899
0
LINE
8
BLACK
6
CONTINUOUS
10
46.3439
20
-76.899
11
59.2174
21
-75.0898
0
LINE
8
BLACK
6
CONTINUOUS
10
59.2174
20
-75.0898
11
59.2174
21
-75.0898
0
LINE
8
BLACK
6
CONTINUOUS
10
59.2174
20
-75.0898
11
59.2174
21
-75.0898
0
LINE
8
BLACK
6
CONTINUOUS
10
59.2174
20
-75.0898
11
59.2178
21
-75.0898
0
LINE
8
BLACK
6
CONTINUOUS
10
59.2178
20
-75.0898
11
59.2975
21
-75.0786
0
LINE
8
BLACK
6
CONTINUOUS
10
59.2975
20
-75.0786
11
59.4515
21
-75.0285
0
LINE
8
BLACK
6
CONTINUOUS
10
59.4515
20
-75.0285
11
59.5944
21
-74.9525
0
LINE
8
BLACK
6
CONTINUOUS
10
59.5944
20
-74.9525
11
59.7219
21
-74.8529
0
LINE
8
BLACK
6
CONTINUOUS
10
59.7219
20
-74.8529
11
59.8302
21
-74.7326
0
LINE
8
BLACK
6
CONTINUOUS
10
59.8302
20
-74.7326
11
59.916
21
-74.5953
0
LINE
8
BLACK
6
CONTINUOUS
10
59.916
20
-74.5953
11
59.9766
21
-74.4453
0
LINE
8
BLACK
6
CONTINUOUS
10
59.9766
20
-74.4453
11
60.0103
21
-74.2869
0
LINE
8
BLACK
6
CONTINUOUS
10
60.0103
20
-74.2869
11
60.0159
21
-74.1252
0
LINE
8
BLACK
6
CONTINUOUS
10
60.0159
20
-74.1252
11
60.0046
21
-74.045
0
LINE
8
BLACK
6
CONTINUOUS
10
60.0046
20
-74.045
11
60.0046
21
-74.045
0
LINE
8
BLACK
6
CONTINUOUS
10
60.0046
20
-74.045
11
58.1954
21
-61.1715
0
LINE
8
BLACK
6
CONTINUOUS
10
58.1954
20
-61.1715
11
58.1954
21
-61.1713
0
LINE
8
BLACK
6
CONTINUOUS
10
58.1954
20
-61.1713
11
58.1842
21
-61.0914
0
LINE
8
BLACK
6
CONTINUOUS
10
58.1842
20
-61.0914
11
58.1341
21
-60.9375
0
LINE
8
BLACK
6
CONTINUOUS
10
58.1341
20
-60.9375
11
58.0581
21
-60.7946
0
LINE
8
BLACK
6
CONTINUOUS
10
58.0581
20
-60.7946
11
57.9585
21
-60.667
0
LINE
8
BLACK
6
CONTINUOUS
10
57.9585
20
-60.667
11
57.8382
21
-60.5587
0
LINE
8
BLACK
6
CONTINUOUS
10
57.8382
20
-60.5587
11
57.7009
21
-60.4729
0
LINE
8
BLACK
6
CONTINUOUS
10
57.7009
20
-60.4729
11
57.5509
21
-60.4123
0
LINE
8
BLACK
6
CONTINUOUS
10
57.5509
20
-60.4123
11
57.3925
21
-60.3787
0
LINE
8
BLACK
6
CONTINUOUS
10
57.3925
20
-60.3787
11
57.2308
21
-60.373
0
LINE
8
BLACK
6
CONTINUOUS
10
57.2308
20
-60.373
11
57.1506
21
-60.3843
0
LINE
8
BLACK
6
CONTINUOUS
10
77.4693
20
-60.4573
11
77.6465
21
-60.5183
0
LINE
8
BLACK
6
CONTINUOUS
10
77.6465
20
-60.5183
11
77.8104
21
-60.6092
0
LINE
8
BLACK
6
CONTINUOUS
10
77.8104
20
-60.6092
11
77.956
21
-60.7271
0
LINE
8
BLACK
6
CONTINUOUS
10
77.956
20
-60.7271
11
78.079
21
-60.8685
0
LINE
8
BLACK
6
CONTINUOUS
10
78.079
20
-60.8685
11
78.1755
21
-61.0292
0
LINE
8
BLACK
6
CONTINUOUS
10
78.1755
20
-61.0292
11
78.2426
21
-61.2041
0
LINE
8
BLACK
6
CONTINUOUS
10
78.2426
20
-61.2041
11
78.2784
21
-61.388
0
LINE
8
BLACK
6
CONTINUOUS
10
78.2784
20
-61.388
11
78.2784
21
-61.388
0
LINE
8
BLACK
6
CONTINUOUS
10
78.2784
20
-61.388
11
79.6372
21
-74.3168
0
LINE
8
BLACK
6
CONTINUOUS
10
79.6372
20
-74.3168
11
79.6372
21
-74.3168
0
LINE
8
BLACK
6
CONTINUOUS
10
79.6372
20
-74.3168
11
79.6372
21
-74.3168
0
LINE
8
BLACK
6
CONTINUOUS
10
79.6372
20
-74.3168
11
79.6405
21
-74.5042
0
LINE
8
BLACK
6
CONTINUOUS
10
79.6405
20
-74.5042
11
79.6112
21
-74.6893
0
LINE
8
BLACK
6
CONTINUOUS
10
79.6112
20
-74.6893
11
79.5502
21
-74.8664
0
LINE
8
BLACK
6
CONTINUOUS
10
79.5502
20
-74.8664
11
79.4593
21
-75.0303
0
LINE
8
BLACK
6
CONTINUOUS
10
79.4593
20
-75.0303
11
79.3414
21
-75.176
0
LINE
8
BLACK
6
CONTINUOUS
10
79.3414
20
-75.176
11
79.2
21
-75.2989
0
LINE
8
BLACK
6
CONTINUOUS
10
79.2
20
-75.2989
11
79.0394
21
-75.3954
0
LINE
8
BLACK
6
CONTINUOUS
10
79.0394
20
-75.3954
11
78.8644
21
-75.4626
0
LINE
8
BLACK
6
CONTINUOUS
10
78.8644
20
-75.4626
11
78.6805
21
-75.4983
0
LINE
8
BLACK
6
CONTINUOUS
10
78.6805
20
-75.4983
11
78.6805
21
-75.4983
0
LINE
8
BLACK
6
CONTINUOUS
10
78.6805
20
-75.4983
11
78.6805
21
-75.4983
0
LINE
8
BLACK
6
CONTINUOUS
10
78.6805
20
-75.4983
11
78.6805
21
-75.4983
0
LINE
8
BLACK
6
CONTINUOUS
10
78.6805
20
-75.4983
11
65.7517
21
-76.8572
0
LINE
8
BLACK
6
CONTINUOUS
10
65.7517
20
-76.8572
11
65.7517
21
-76.8572
0
LINE
8
BLACK
6
CONTINUOUS
10
65.7517
20
-76.8572
11
65.5643
21
-76.8605
0
LINE
8
BLACK
6
CONTINUOUS
10
65.5643
20
-76.8605
11
65.3793
21
-76.8311
0
LINE
8
BLACK
6
CONTINUOUS
10
65.3793
20
-76.8311
11
65.2021
21
-76.7701
0
LINE
8
BLACK
6
CONTINUOUS
10
65.2021
20
-76.7701
11
65.0382
21
-76.6793
0
LINE
8
BLACK
6
CONTINUOUS
10
65.0382
20
-76.6793
11
64.8926
21
-76.5614
0
LINE
8
BLACK
6
CONTINUOUS
10
64.8926
20
-76.5614
11
64.7696
21
-76.42
0
LINE
8
BLACK
6
CONTINUOUS
10
64.7696
20
-76.42
11
64.6731
21
-76.2593
0
LINE
8
BLACK
6
CONTINUOUS
10
64.6731
20
-76.2593
11
64.606
21
-76.0844
0
LINE
8
BLACK
6
CONTINUOUS
10
64.606
20
-76.0844
11
64.5702
21
-75.9004
0
LINE
8
BLACK
6
CONTINUOUS
10
64.5702
20
-75.9004
11
64.5702
21
-75.9004
0
LINE
8
BLACK
6
CONTINUOUS
10
64.5702
20
-75.9004
11
64.5702
21
-75.9004
0
LINE
8
BLACK
6
CONTINUOUS
10
64.5702
20
-75.9004
11
63.2114
21
-62.9717
0
LINE
8
BLACK
6
CONTINUOUS
10
63.2114
20
-62.9717
11
63.2114
21
-62.9717
0
LINE
8
BLACK
6
CONTINUOUS
10
63.2114
20
-62.9717
11
63.2081
21
-62.7843
0
LINE
8
BLACK
6
CONTINUOUS
10
63.2081
20
-62.7843
11
63.2374
21
-62.5992
0
LINE
8
BLACK
6
CONTINUOUS
10
63.2374
20
-62.5992
11
63.2984
21
-62.422
0
LINE
8
BLACK
6
CONTINUOUS
10
63.2984
20
-62.422
11
63.3893
21
-62.2582
0
LINE
8
BLACK
6
CONTINUOUS
10
63.3893
20
-62.2582
11
63.5072
21
-62.1125
0
LINE
8
BLACK
6
CONTINUOUS
10
63.5072
20
-62.1125
11
63.6486
21
-61.9896
0
LINE
8
BLACK
6
CONTINUOUS
10
63.6486
20
-61.9896
11
63.8092
21
-61.8931
0
LINE
8
BLACK
6
CONTINUOUS
10
63.8092
20
-61.8931
11
63.9842
21
-61.8259
0
LINE
8
BLACK
6
CONTINUOUS
10
63.9842
20
-61.8259
11
64.1681
21
-61.7902
0
LINE
8
BLACK
6
CONTINUOUS
10
64.1681
20
-61.7902
11
64.1681
21
-61.7902
0
LINE
8
BLACK
6
CONTINUOUS
10
64.1681
20
-61.7902
11
64.1681
21
-61.7902
0
LINE
8
BLACK
6
CONTINUOUS
10
64.1681
20
-61.7902
11
64.1681
21
-61.7902
0
LINE
8
BLACK
6
CONTINUOUS
10
64.1681
20
-61.7902
11
77.0969
21
-60.4313
0
LINE
8
BLACK
6
CONTINUOUS
10
77.0969
20
-60.4313
11
77.0969
21
-60.4313
0
LINE
8
BLACK
6
CONTINUOUS
10
77.0969
20
-60.4313
11
77.2842
21
-60.428
0
LINE
8
BLACK
6
CONTINUOUS
10
77.2842
20
-60.428
11
77.4693
21
-60.4573
0
LINE
8
BLACK
6
CONTINUOUS
10
77.1126
20
-60.5805
11
77.1126
21
-60.5805
0
LINE
8
BLACK
6
CONTINUOUS
10
77.1126
20
-60.5805
11
77.1126
21
-60.5805
0
LINE
8
BLACK
6
CONTINUOUS
10
77.1126
20
-60.5805
11
64.1838
21
-61.9394
0
LINE
8
BLACK
6
CONTINUOUS
10
64.1838
20
-61.9394
11
64.1838
21
-61.9394
0
LINE
8
BLACK
6
CONTINUOUS
10
64.1838
20
-61.9394
11
64.1838
21
-61.9394
0
LINE
8
BLACK
6
CONTINUOUS
10
64.1838
20
-61.9394
11
64.1838
21
-61.9394
0
LINE
8
BLACK
6
CONTINUOUS
10
64.1838
20
-61.9394
11
64.1837
21
-61.9393
0
LINE
8
BLACK
6
CONTINUOUS
10
64.1837
20
-61.9393
11
64.1033
21
-61.9478
0
LINE
8
BLACK
6
CONTINUOUS
10
64.1033
20
-61.9478
11
63.9477
21
-61.9924
0
LINE
8
BLACK
6
CONTINUOUS
10
63.9477
20
-61.9924
11
63.8022
21
-62.0634
0
LINE
8
BLACK
6
CONTINUOUS
10
63.8022
20
-62.0634
11
63.6713
21
-62.1585
0
LINE
8
BLACK
6
CONTINUOUS
10
63.6713
20
-62.1585
11
63.5589
21
-62.2749
0
LINE
8
BLACK
6
CONTINUOUS
10
63.5589
20
-62.2749
11
63.4684
21
-62.4091
0
LINE
8
BLACK
6
CONTINUOUS
10
63.4684
20
-62.4091
11
63.4025
21
-62.557
0
LINE
8
BLACK
6
CONTINUOUS
10
63.4025
20
-62.557
11
63.3634
21
-62.714
0
LINE
8
BLACK
6
CONTINUOUS
10
63.3634
20
-62.714
11
63.3521
21
-62.8755
0
LINE
8
BLACK
6
CONTINUOUS
10
63.3521
20
-62.8755
11
63.3605
21
-62.956
0
LINE
8
BLACK
6
CONTINUOUS
10
63.3605
20
-62.956
11
63.3605
21
-62.956
0
LINE
8
BLACK
6
CONTINUOUS
10
63.3605
20
-62.956
11
64.7194
21
-75.8848
0
LINE
8
BLACK
6
CONTINUOUS
10
64.7194
20
-75.8848
11
64.7194
21
-75.8848
0
LINE
8
BLACK
6
CONTINUOUS
10
64.7194
20
-75.8848
11
64.7278
21
-75.9652
0
LINE
8
BLACK
6
CONTINUOUS
10
64.7278
20
-75.9652
11
64.7725
21
-76.1208
0
LINE
8
BLACK
6
CONTINUOUS
10
64.7725
20
-76.1208
11
64.8434
21
-76.2663
0
LINE
8
BLACK
6
CONTINUOUS
10
64.8434
20
-76.2663
11
64.9385
21
-76.3973
0
LINE
8
BLACK
6
CONTINUOUS
10
64.9385
20
-76.3973
11
65.055
21
-76.5097
0
LINE
8
BLACK
6
CONTINUOUS
10
65.055
20
-76.5097
11
65.1892
21
-76.6002
0
LINE
8
BLACK
6
CONTINUOUS
10
65.1892
20
-76.6002
11
65.337
21
-76.666
0
LINE
8
BLACK
6
CONTINUOUS
10
65.337
20
-76.666
11
65.4941
21
-76.7052
0
LINE
8
BLACK
6
CONTINUOUS
10
65.4941
20
-76.7052
11
65.6555
21
-76.7165
0
LINE
8
BLACK
6
CONTINUOUS
10
65.6555
20
-76.7165
11
65.736
21
-76.708
0
LINE
8
BLACK
6
CONTINUOUS
10
65.736
20
-76.708
11
65.736
21
-76.708
0
LINE
8
BLACK
6
CONTINUOUS
10
65.736
20
-76.708
11
65.736
21
-76.708
0
LINE
8
BLACK
6
CONTINUOUS
10
65.736
20
-76.708
11
78.6648
21
-75.3491
0
LINE
8
BLACK
6
CONTINUOUS
10
78.6648
20
-75.3491
11
78.6648
21
-75.3491
0
LINE
8
BLACK
6
CONTINUOUS
10
78.6648
20
-75.3491
11
78.6648
21
-75.3491
0
LINE
8
BLACK
6
CONTINUOUS
10
78.6648
20
-75.3491
11
78.6649
21
-75.3491
0
LINE
8
BLACK
6
CONTINUOUS
10
78.6649
20
-75.3491
11
78.7453
21
-75.3407
0
LINE
8
BLACK
6
CONTINUOUS
10
78.7453
20
-75.3407
11
78.9009
21
-75.2961
0
LINE
8
BLACK
6
CONTINUOUS
10
78.9009
20
-75.2961
11
79.0464
21
-75.2251
0
LINE
8
BLACK
6
CONTINUOUS
10
79.0464
20
-75.2251
11
79.1773
21
-75.13
0
LINE
8
BLACK
6
CONTINUOUS
10
79.1773
20
-75.13
11
79.2897
21
-75.0136
0
LINE
8
BLACK
6
CONTINUOUS
10
79.2897
20
-75.0136
11
79.3802
21
-74.8794
0
LINE
8
BLACK
6
CONTINUOUS
10
79.3802
20
-74.8794
11
79.4461
21
-74.7315
0
LINE
8
BLACK
6
CONTINUOUS
10
79.4461
20
-74.7315
11
79.4852
21
-74.5745
0
LINE
8
BLACK
6
CONTINUOUS
10
79.4852
20
-74.5745
11
79.4965
21
-74.413
0
LINE
8
BLACK
6
CONTINUOUS
10
79.4965
20
-74.413
11
79.4881
21
-74.3325
0
LINE
8
BLACK
6
CONTINUOUS
10
79.4881
20
-74.3325
11
79.4881
21
-74.3325
0
LINE
8
BLACK
6
CONTINUOUS
10
79.4881
20
-74.3325
11
78.1292
21
-61.4037
0
LINE
8
BLACK
6
CONTINUOUS
10
78.1292
20
-61.4037
11
78.1292
21
-61.4035
0
LINE
8
BLACK
6
CONTINUOUS
10
78.1292
20
-61.4035
11
78.1208
21
-61.3232
0
LINE
8
BLACK
6
CONTINUOUS
10
78.1208
20
-61.3232
11
78.0762
21
-61.1676
0
LINE
8
BLACK
6
CONTINUOUS
10
78.0762
20
-61.1676
11
78.0052
21
-61.0222
0
LINE
8
BLACK
6
CONTINUOUS
10
78.0052
20
-61.0222
11
77.9101
21
-60.8912
0
LINE
8
BLACK
6
CONTINUOUS
10
77.9101
20
-60.8912
11
77.7936
21
-60.7788
0
LINE
8
BLACK
6
CONTINUOUS
10
77.7936
20
-60.7788
11
77.6594
21
-60.6883
0
LINE
8
BLACK
6
CONTINUOUS
10
77.6594
20
-60.6883
11
77.5116
21
-60.6225
0
LINE
8
BLACK
6
CONTINUOUS
10
77.5116
20
-60.6225
11
77.3545
21
-60.5833
0
LINE
8
BLACK
6
CONTINUOUS
10
77.3545
20
-60.5833
11
77.1931
21
-60.572
0
LINE
8
BLACK
6
CONTINUOUS
10
77.1931
20
-60.572
11
77.1126
21
-60.5805
0
LINE
8
BLACK
6
CONTINUOUS
10
122.532
20
-61.6311
11
135.532
21
-61.6311
0
LINE
8
BLACK
6
CONTINUOUS
10
135.532
20
-61.6311
11
135.719
21
-61.6475
0
LINE
8
BLACK
6
CONTINUOUS
10
135.719
20
-61.6475
11
135.9
21
-61.6959
0
LINE
8
BLACK
6
CONTINUOUS
10
135.9
20
-61.6959
11
136.07
21
-61.7751
0
LINE
8
BLACK
6
CONTINUOUS
10
136.07
20
-61.7751
11
136.223
21
-61.8826
0
LINE
8
BLACK
6
CONTINUOUS
10
136.223
20
-61.8826
11
136.356
21
-62.0151
0
LINE
8
BLACK
6
CONTINUOUS
10
136.356
20
-62.0151
11
136.463
21
-62.1686
0
LINE
8
BLACK
6
CONTINUOUS
10
136.463
20
-62.1686
11
136.542
21
-62.3384
0
LINE
8
BLACK
6
CONTINUOUS
10
136.542
20
-62.3384
11
136.591
21
-62.5194
0
LINE
8
BLACK
6
CONTINUOUS
10
136.591
20
-62.5194
11
136.607
21
-62.706
0
LINE
8
BLACK
6
CONTINUOUS
10
136.607
20
-62.706
11
136.607
21
-62.7061
0
LINE
8
BLACK
6
CONTINUOUS
10
136.607
20
-62.7061
11
136.607
21
-75.7061
0
LINE
8
BLACK
6
CONTINUOUS
10
136.607
20
-75.7061
11
136.607
21
-75.7061
0
LINE
8
BLACK
6
CONTINUOUS
10
136.607
20
-75.7061
11
136.591
21
-75.8928
0
LINE
8
BLACK
6
CONTINUOUS
10
136.591
20
-75.8928
11
136.542
21
-76.0738
0
LINE
8
BLACK
6
CONTINUOUS
10
136.542
20
-76.0738
11
136.463
21
-76.2436
0
LINE
8
BLACK
6
CONTINUOUS
10
136.463
20
-76.2436
11
136.356
21
-76.3971
0
LINE
8
BLACK
6
CONTINUOUS
10
136.356
20
-76.3971
11
136.223
21
-76.5296
0
LINE
8
BLACK
6
CONTINUOUS
10
136.223
20
-76.5296
11
136.07
21
-76.6371
0
LINE
8
BLACK
6
CONTINUOUS
10
136.07
20
-76.6371
11
135.9
21
-76.7163
0
LINE
8
BLACK
6
CONTINUOUS
10
135.9
20
-76.7163
11
135.719
21
-76.7648
0
LINE
8
BLACK
6
CONTINUOUS
10
135.719
20
-76.7648
11
135.532
21
-76.7811
0
LINE
8
BLACK
6
CONTINUOUS
10
135.532
20
-76.7811
11
135.532
21
-76.7811
0
LINE
8
BLACK
6
CONTINUOUS
10
135.532
20
-76.7811
11
122.532
21
-76.7811
0
LINE
8
BLACK
6
CONTINUOUS
10
122.532
20
-76.7811
11
122.346
21
-76.7648
0
LINE
8
BLACK
6
CONTINUOUS
10
122.346
20
-76.7648
11
122.165
21
-76.7163
0
LINE
8
BLACK
6
CONTINUOUS
10
122.165
20
-76.7163
11
121.995
21
-76.6371
0
LINE
8
BLACK
6
CONTINUOUS
10
121.995
20
-76.6371
11
121.841
21
-76.5296
0
LINE
8
BLACK
6
CONTINUOUS
10
121.841
20
-76.5296
11
121.709
21
-76.3971
0
LINE
8
BLACK
6
CONTINUOUS
10
121.709
20
-76.3971
11
121.601
21
-76.2436
0
LINE
8
BLACK
6
CONTINUOUS
10
121.601
20
-76.2436
11
121.522
21
-76.0738
0
LINE
8
BLACK
6
CONTINUOUS
10
121.522
20
-76.0738
11
121.474
21
-75.8928
0
LINE
8
BLACK
6
CONTINUOUS
10
121.474
20
-75.8928
11
121.457
21
-75.7061
0
LINE
8
BLACK
6
CONTINUOUS
10
121.457
20
-75.7061
11
121.457
21
-75.7061
0
LINE
8
BLACK
6
CONTINUOUS
10
121.457
20
-75.7061
11
121.457
21
-75.7061
0
LINE
8
BLACK
6
CONTINUOUS
10
121.457
20
-75.7061
11
121.457
21
-62.7061
0
LINE
8
BLACK
6
CONTINUOUS
10
121.457
20
-62.7061
11
121.457
21
-62.7061
0
LINE
8
BLACK
6
CONTINUOUS
10
121.457
20
-62.7061
11
121.474
21
-62.5194
0
LINE
8
BLACK
6
CONTINUOUS
10
121.474
20
-62.5194
11
121.522
21
-62.3384
0
LINE
8
BLACK
6
CONTINUOUS
10
121.522
20
-62.3384
11
121.601
21
-62.1686
0
LINE
8
BLACK
6
CONTINUOUS
10
121.601
20
-62.1686
11
121.709
21
-62.0151
0
LINE
8
BLACK
6
CONTINUOUS
10
121.709
20
-62.0151
11
121.841
21
-61.8826
0
LINE
8
BLACK
6
CONTINUOUS
10
121.841
20
-61.8826
11
121.995
21
-61.7751
0
LINE
8
BLACK
6
CONTINUOUS
10
121.995
20
-61.7751
11
122.165
21
-61.6959
0
LINE
8
BLACK
6
CONTINUOUS
10
122.165
20
-61.6959
11
122.346
21
-61.6474
0
LINE
8
BLACK
6
CONTINUOUS
10
122.346
20
-61.6474
11
122.532
21
-61.6311
0
LINE
8
BLACK
6
CONTINUOUS
10
122.532
20
-61.6311
11
122.532
21
-61.6311
0
LINE
8
BLACK
6
CONTINUOUS
10
122.292
20
-61.8092
11
122.14
21
-61.8646
0
LINE
8
BLACK
6
CONTINUOUS
10
122.14
20
-61.8646
11
122
21
-61.9455
0
LINE
8
BLACK
6
CONTINUOUS
10
122
20
-61.9455
11
121.876
21
-62.0495
0
LINE
8
BLACK
6
CONTINUOUS
10
121.876
20
-62.0495
11
121.772
21
-62.1735
0
LINE
8
BLACK
6
CONTINUOUS
10
121.772
20
-62.1735
11
121.691
21
-62.3137
0
LINE
8
BLACK
6
CONTINUOUS
10
121.691
20
-62.3137
11
121.635
21
-62.4658
0
LINE
8
BLACK
6
CONTINUOUS
10
121.635
20
-62.4658
11
121.607
21
-62.6252
0
LINE
8
BLACK
6
CONTINUOUS
10
121.607
20
-62.6252
11
121.607
21
-62.7061
0
LINE
8
BLACK
6
CONTINUOUS
10
121.607
20
-62.7061
11
121.607
21
-62.7061
0
LINE
8
BLACK
6
CONTINUOUS
10
121.607
20
-62.7061
11
121.607
21
-75.7061
0
LINE
8
BLACK
6
CONTINUOUS
10
121.607
20
-75.7061
11
121.607
21
-75.7062
0
LINE
8
BLACK
6
CONTINUOUS
10
121.607
20
-75.7062
11
121.607
21
-75.787
0
LINE
8
BLACK
6
CONTINUOUS
10
121.607
20
-75.787
11
121.635
21
-75.9464
0
LINE
8
BLACK
6
CONTINUOUS
10
121.635
20
-75.9464
11
121.691
21
-76.0985
0
LINE
8
BLACK
6
CONTINUOUS
10
121.691
20
-76.0985
11
121.772
21
-76.2387
0
LINE
8
BLACK
6
CONTINUOUS
10
121.772
20
-76.2387
11
121.876
21
-76.3627
0
LINE
8
BLACK
6
CONTINUOUS
10
121.876
20
-76.3627
11
122
21
-76.4667
0
LINE
8
BLACK
6
CONTINUOUS
10
122
20
-76.4667
11
122.14
21
-76.5477
0
LINE
8
BLACK
6
CONTINUOUS
10
122.14
20
-76.5477
11
122.292
21
-76.603
0
LINE
8
BLACK
6
CONTINUOUS
10
122.292
20
-76.603
11
122.451
21
-76.6311
0
LINE
8
BLACK
6
CONTINUOUS
10
122.451
20
-76.6311
11
122.532
21
-76.6311
0
LINE
8
BLACK
6
CONTINUOUS
10
122.532
20
-76.6311
11
135.532
21
-76.6311
0
LINE
8
BLACK
6
CONTINUOUS
10
135.532
20
-76.6311
11
135.532
21
-76.6311
0
LINE
8
BLACK
6
CONTINUOUS
10
135.532
20
-76.6311
11
135.613
21
-76.6311
0
LINE
8
BLACK
6
CONTINUOUS
10
135.613
20
-76.6311
11
135.773
21
-76.603
0
LINE
8
BLACK
6
CONTINUOUS
10
135.773
20
-76.603
11
135.925
21
-76.5476
0
LINE
8
BLACK
6
CONTINUOUS
10
135.925
20
-76.5476
11
136.065
21
-76.4667
0
LINE
8
BLACK
6
CONTINUOUS
10
136.065
20
-76.4667
11
136.189
21
-76.3627
0
LINE
8
BLACK
6
CONTINUOUS
10
136.189
20
-76.3627
11
136.293
21
-76.2387
0
LINE
8
BLACK
6
CONTINUOUS
10
136.293
20
-76.2387
11
136.374
21
-76.0985
0
LINE
8
BLACK
6
CONTINUOUS
10
136.374
20
-76.0985
11
136.429
21
-75.9464
0
LINE
8
BLACK
6
CONTINUOUS
10
136.429
20
-75.9464
11
136.457
21
-75.787
0
LINE
8
BLACK
6
CONTINUOUS
10
136.457
20
-75.787
11
136.457
21
-75.7061
0
LINE
8
BLACK
6
CONTINUOUS
10
136.457
20
-75.7061
11
136.457
21
-62.7061
0
LINE
8
BLACK
6
CONTINUOUS
10
136.457
20
-62.7061
11
136.457
21
-62.7061
0
LINE
8
BLACK
6
CONTINUOUS
10
136.457
20
-62.7061
11
136.457
21
-62.7061
0
LINE
8
BLACK
6
CONTINUOUS
10
136.457
20
-62.7061
11
136.457
21
-62.6252
0
LINE
8
BLACK
6
CONTINUOUS
10
136.457
20
-62.6252
11
136.429
21
-62.4658
0
LINE
8
BLACK
6
CONTINUOUS
10
136.429
20
-62.4658
11
136.374
21
-62.3137
0
LINE
8
BLACK
6
CONTINUOUS
10
136.374
20
-62.3137
11
136.293
21
-62.1735
0
LINE
8
BLACK
6
CONTINUOUS
10
136.293
20
-62.1735
11
136.189
21
-62.0495
0
LINE
8
BLACK
6
CONTINUOUS
10
136.189
20
-62.0495
11
136.065
21
-61.9455
0
LINE
8
BLACK
6
CONTINUOUS
10
136.065
20
-61.9455
11
135.925
21
-61.8646
0
LINE
8
BLACK
6
CONTINUOUS
10
135.925
20
-61.8646
11
135.773
21
-61.8092
0
LINE
8
BLACK
6
CONTINUOUS
10
135.773
20
-61.8092
11
135.613
21
-61.7811
0
LINE
8
BLACK
6
CONTINUOUS
10
135.613
20
-61.7811
11
135.532
21
-61.7811
0
LINE
8
BLACK
6
CONTINUOUS
10
135.532
20
-61.7811
11
122.532
21
-61.7811
0
LINE
8
BLACK
6
CONTINUOUS
10
122.532
20
-61.7811
11
122.532
21
-61.7811
0
LINE
8
BLACK
6
CONTINUOUS
10
122.532
20
-61.7811
11
122.451
21
-61.7811
0
LINE
8
BLACK
6
CONTINUOUS
10
122.451
20
-61.7811
11
122.292
21
-61.8092
0
LINE
8
BLACK
6
CONTINUOUS
10
115.768
20
-55.7047
11
115.955
21
-55.7145
0
LINE
8
BLACK
6
CONTINUOUS
10
115.955
20
-55.7145
11
116.138
21
-55.7567
0
LINE
8
BLACK
6
CONTINUOUS
10
116.138
20
-55.7567
11
116.31
21
-55.8299
0
LINE
8
BLACK
6
CONTINUOUS
10
116.31
20
-55.8299
11
116.467
21
-55.932
0
LINE
8
BLACK
6
CONTINUOUS
10
116.467
20
-55.932
11
116.604
21
-56.0597
0
LINE
8
BLACK
6
CONTINUOUS
10
116.604
20
-56.0597
11
116.717
21
-56.2094
0
LINE
8
BLACK
6
CONTINUOUS
10
116.717
20
-56.2094
11
116.802
21
-56.3764
0
LINE
8
BLACK
6
CONTINUOUS
10
116.802
20
-56.3764
11
116.857
21
-56.5556
0
LINE
8
BLACK
6
CONTINUOUS
10
116.857
20
-56.5556
11
116.88
21
-56.7416
0
LINE
8
BLACK
6
CONTINUOUS
10
116.88
20
-56.7416
11
116.88
21
-56.7416
0
LINE
8
BLACK
6
CONTINUOUS
10
116.88
20
-56.7416
11
116.88
21
-56.7416
0
LINE
8
BLACK
6
CONTINUOUS
10
116.88
20
-56.7416
11
116.88
21
-56.7416
0
LINE
8
BLACK
6
CONTINUOUS
10
116.88
20
-56.7416
11
117.333
21
-69.7336
0
LINE
8
BLACK
6
CONTINUOUS
10
117.333
20
-69.7336
11
117.333
21
-69.7337
0
LINE
8
BLACK
6
CONTINUOUS
10
117.333
20
-69.7337
11
117.324
21
-69.9208
0
LINE
8
BLACK
6
CONTINUOUS
10
117.324
20
-69.9208
11
117.281
21
-70.1034
0
LINE
8
BLACK
6
CONTINUOUS
10
117.281
20
-70.1034
11
117.208
21
-70.2758
0
LINE
8
BLACK
6
CONTINUOUS
10
117.208
20
-70.2758
11
117.106
21
-70.433
0
LINE
8
BLACK
6
CONTINUOUS
10
117.106
20
-70.433
11
116.978
21
-70.5701
0
LINE
8
BLACK
6
CONTINUOUS
10
116.978
20
-70.5701
11
116.829
21
-70.6828
0
LINE
8
BLACK
6
CONTINUOUS
10
116.829
20
-70.6828
11
116.662
21
-70.7679
0
LINE
8
BLACK
6
CONTINUOUS
10
116.662
20
-70.7679
11
116.483
21
-70.8227
0
LINE
8
BLACK
6
CONTINUOUS
10
116.483
20
-70.8227
11
116.297
21
-70.8455
0
LINE
8
BLACK
6
CONTINUOUS
10
116.297
20
-70.8455
11
116.297
21
-70.8455
0
LINE
8
BLACK
6
CONTINUOUS
10
116.297
20
-70.8455
11
103.305
21
-71.2992
0
LINE
8
BLACK
6
CONTINUOUS
10
103.305
20
-71.2992
11
103.117
21
-71.2894
0
LINE
8
BLACK
6
CONTINUOUS
10
103.117
20
-71.2894
11
102.935
21
-71.2472
0
LINE
8
BLACK
6
CONTINUOUS
10
102.935
20
-71.2472
11
102.762
21
-71.174
0
LINE
8
BLACK
6
CONTINUOUS
10
102.762
20
-71.174
11
102.605
21
-71.072
0
LINE
8
BLACK
6
CONTINUOUS
10
102.605
20
-71.072
11
102.468
21
-70.9442
0
LINE
8
BLACK
6
CONTINUOUS
10
102.468
20
-70.9442
11
102.355
21
-70.7945
0
LINE
8
BLACK
6
CONTINUOUS
10
102.355
20
-70.7945
11
102.27
21
-70.6276
0
LINE
8
BLACK
6
CONTINUOUS
10
102.27
20
-70.6276
11
102.215
21
-70.4484
0
LINE
8
BLACK
6
CONTINUOUS
10
102.215
20
-70.4484
11
102.193
21
-70.2624
0
LINE
8
BLACK
6
CONTINUOUS
10
102.193
20
-70.2624
11
102.193
21
-70.2624
0
LINE
8
BLACK
6
CONTINUOUS
10
102.193
20
-70.2624
11
102.193
21
-70.2624
0
LINE
8
BLACK
6
CONTINUOUS
10
102.193
20
-70.2624
11
102.193
21
-70.2624
0
LINE
8
BLACK
6
CONTINUOUS
10
102.193
20
-70.2624
11
101.739
21
-57.2703
0
LINE
8
BLACK
6
CONTINUOUS
10
101.739
20
-57.2703
11
101.739
21
-57.2703
0
LINE
8
BLACK
6
CONTINUOUS
10
101.739
20
-57.2703
11
101.749
21
-57.0832
0
LINE
8
BLACK
6
CONTINUOUS
10
101.749
20
-57.0832
11
101.791
21
-56.9006
0
LINE
8
BLACK
6
CONTINUOUS
10
101.791
20
-56.9006
11
101.864
21
-56.7281
0
LINE
8
BLACK
6
CONTINUOUS
10
101.864
20
-56.7281
11
101.966
21
-56.5709
0
LINE
8
BLACK
6
CONTINUOUS
10
101.966
20
-56.5709
11
102.094
21
-56.4339
0
LINE
8
BLACK
6
CONTINUOUS
10
102.094
20
-56.4339
11
102.244
21
-56.3211
0
LINE
8
BLACK
6
CONTINUOUS
10
102.244
20
-56.3211
11
102.411
21
-56.2361
0
LINE
8
BLACK
6
CONTINUOUS
10
102.411
20
-56.2361
11
102.59
21
-56.1813
0
LINE
8
BLACK
6
CONTINUOUS
10
102.59
20
-56.1813
11
102.776
21
-56.1585
0
LINE
8
BLACK
6
CONTINUOUS
10
102.776
20
-56.1585
11
102.776
21
-56.1584
0
LINE
8
BLACK
6
CONTINUOUS
10
102.776
20
-56.1584
11
102.776
21
-56.1584
0
LINE
8
BLACK
6
CONTINUOUS
10
102.776
20
-56.1584
11
115.768
21
-55.7047
0
LINE
8
BLACK
6
CONTINUOUS
10
115.768
20
-55.7047
11
115.768
21
-55.7047
0
LINE
8
BLACK
6
CONTINUOUS
10
115.768
20
-55.7047
11
115.768
21
-55.7047
0
LINE
8
BLACK
6
CONTINUOUS
10
115.768
20
-55.7047
11
115.768
21
-55.7047
0
LINE
8
BLACK
6
CONTINUOUS
10
115.773
20
-55.8546
11
115.773
21
-55.8546
0
LINE
8
BLACK
6
CONTINUOUS
10
115.773
20
-55.8546
11
115.773
21
-55.8546
0
LINE
8
BLACK
6
CONTINUOUS
10
115.773
20
-55.8546
11
115.773
21
-55.8546
0
LINE
8
BLACK
6
CONTINUOUS
10
115.773
20
-55.8546
11
102.781
21
-56.3083
0
LINE
8
BLACK
6
CONTINUOUS
10
102.781
20
-56.3083
11
102.781
21
-56.3083
0
LINE
8
BLACK
6
CONTINUOUS
10
102.781
20
-56.3083
11
102.781
21
-56.3084
0
LINE
8
BLACK
6
CONTINUOUS
10
102.781
20
-56.3084
11
102.7
21
-56.3112
0
LINE
8
BLACK
6
CONTINUOUS
10
102.7
20
-56.3112
11
102.542
21
-56.3448
0
LINE
8
BLACK
6
CONTINUOUS
10
102.542
20
-56.3448
11
102.392
21
-56.4055
0
LINE
8
BLACK
6
CONTINUOUS
10
102.392
20
-56.4055
11
102.255
21
-56.4912
0
LINE
8
BLACK
6
CONTINUOUS
10
102.255
20
-56.4912
11
102.134
21
-56.5995
0
LINE
8
BLACK
6
CONTINUOUS
10
102.134
20
-56.5995
11
102.035
21
-56.7271
0
LINE
8
BLACK
6
CONTINUOUS
10
102.035
20
-56.7271
11
101.959
21
-56.87
0
LINE
8
BLACK
6
CONTINUOUS
10
101.959
20
-56.87
11
101.909
21
-57.0239
0
LINE
8
BLACK
6
CONTINUOUS
10
101.909
20
-57.0239
11
101.886
21
-57.1842
0
LINE
8
BLACK
6
CONTINUOUS
10
101.886
20
-57.1842
11
101.889
21
-57.265
0
LINE
8
BLACK
6
CONTINUOUS
10
101.889
20
-57.265
11
101.889
21
-57.2651
0
LINE
8
BLACK
6
CONTINUOUS
10
101.889
20
-57.2651
11
102.343
21
-70.2571
0
LINE
8
BLACK
6
CONTINUOUS
10
102.343
20
-70.2571
11
102.343
21
-70.2573
0
LINE
8
BLACK
6
CONTINUOUS
10
102.343
20
-70.2573
11
102.345
21
-70.338
0
LINE
8
BLACK
6
CONTINUOUS
10
102.345
20
-70.338
11
102.379
21
-70.4963
0
LINE
8
BLACK
6
CONTINUOUS
10
102.379
20
-70.4963
11
102.44
21
-70.6464
0
LINE
8
BLACK
6
CONTINUOUS
10
102.44
20
-70.6464
11
102.525
21
-70.7837
0
LINE
8
BLACK
6
CONTINUOUS
10
102.525
20
-70.7837
11
102.634
21
-70.9039
0
LINE
8
BLACK
6
CONTINUOUS
10
102.634
20
-70.9039
11
102.761
21
-71.0036
0
LINE
8
BLACK
6
CONTINUOUS
10
102.761
20
-71.0036
11
102.904
21
-71.0796
0
LINE
8
BLACK
6
CONTINUOUS
10
102.904
20
-71.0796
11
103.058
21
-71.1296
0
LINE
8
BLACK
6
CONTINUOUS
10
103.058
20
-71.1296
11
103.218
21
-71.1521
0
LINE
8
BLACK
6
CONTINUOUS
10
103.218
20
-71.1521
11
103.299
21
-71.1493
0
LINE
8
BLACK
6
CONTINUOUS
10
103.299
20
-71.1493
11
103.299
21
-71.1493
0
LINE
8
BLACK
6
CONTINUOUS
10
103.299
20
-71.1493
11
116.291
21
-70.6956
0
LINE
8
BLACK
6
CONTINUOUS
10
116.291
20
-70.6956
11
116.291
21
-70.6956
0
LINE
8
BLACK
6
CONTINUOUS
10
116.291
20
-70.6956
11
116.291
21
-70.6956
0
LINE
8
BLACK
6
CONTINUOUS
10
116.291
20
-70.6956
11
116.291
21
-70.6956
0
LINE
8
BLACK
6
CONTINUOUS
10
116.291
20
-70.6956
11
116.372
21
-70.6928
0
LINE
8
BLACK
6
CONTINUOUS
10
116.372
20
-70.6928
11
116.531
21
-70.6591
0
LINE
8
BLACK
6
CONTINUOUS
10
116.531
20
-70.6591
11
116.681
21
-70.5985
0
LINE
8
BLACK
6
CONTINUOUS
10
116.681
20
-70.5985
11
116.818
21
-70.5127
0
LINE
8
BLACK
6
CONTINUOUS
10
116.818
20
-70.5127
11
116.938
21
-70.4044
0
LINE
8
BLACK
6
CONTINUOUS
10
116.938
20
-70.4044
11
117.038
21
-70.2769
0
LINE
8
BLACK
6
CONTINUOUS
10
117.038
20
-70.2769
11
117.114
21
-70.134
0
LINE
8
BLACK
6
CONTINUOUS
10
117.114
20
-70.134
11
117.164
21
-69.98
0
LINE
8
BLACK
6
CONTINUOUS
10
117.164
20
-69.98
11
117.186
21
-69.8198
0
LINE
8
BLACK
6
CONTINUOUS
10
117.186
20
-69.8198
11
117.184
21
-69.7389
0
LINE
8
BLACK
6
CONTINUOUS
10
117.184
20
-69.7389
11
117.184
21
-69.7389
0
LINE
8
BLACK
6
CONTINUOUS
10
117.184
20
-69.7389
11
117.184
21
-69.7389
0
LINE
8
BLACK
6
CONTINUOUS
10
117.184
20
-69.7389
11
117.184
21
-69.7389
0
LINE
8
BLACK
6
CONTINUOUS
10
117.184
20
-69.7389
11
116.73
21
-56.7468
0
LINE
8
BLACK
6
CONTINUOUS
10
116.73
20
-56.7468
11
116.73
21
-56.7465
0
LINE
8
BLACK
6
CONTINUOUS
10
116.73
20
-56.7465
11
116.727
21
-56.6659
0
LINE
8
BLACK
6
CONTINUOUS
10
116.727
20
-56.6659
11
116.693
21
-56.5076
0
LINE
8
BLACK
6
CONTINUOUS
10
116.693
20
-56.5076
11
116.633
21
-56.3575
0
LINE
8
BLACK
6
CONTINUOUS
10
116.633
20
-56.3575
11
116.547
21
-56.2203
0
LINE
8
BLACK
6
CONTINUOUS
10
116.547
20
-56.2203
11
116.439
21
-56.1
0
LINE
8
BLACK
6
CONTINUOUS
10
116.439
20
-56.1
11
116.311
21
-56.0003
0
LINE
8
BLACK
6
CONTINUOUS
10
116.311
20
-56.0003
11
116.168
21
-55.9243
0
LINE
8
BLACK
6
CONTINUOUS
10
116.168
20
-55.9243
11
116.014
21
-55.8743
0
LINE
8
BLACK
6
CONTINUOUS
10
116.014
20
-55.8743
11
115.854
21
-55.8518
0
LINE
8
BLACK
6
CONTINUOUS
10
115.854
20
-55.8518
11
115.773
21
-55.8546
0
LINE
8
BLACK
6
CONTINUOUS
10
95.6182
20
-47.7484
11
95.8056
21
-47.7516
0
LINE
8
BLACK
6
CONTINUOUS
10
95.8056
20
-47.7516
11
95.9895
21
-47.7874
0
LINE
8
BLACK
6
CONTINUOUS
10
95.9895
20
-47.7874
11
96.1644
21
-47.8545
0
LINE
8
BLACK
6
CONTINUOUS
10
96.1644
20
-47.8545
11
96.3251
21
-47.951
0
LINE
8
BLACK
6
CONTINUOUS
10
96.3251
20
-47.951
11
96.4665
21
-48.074
0
LINE
8
BLACK
6
CONTINUOUS
10
96.4665
20
-48.074
11
96.5844
21
-48.2196
0
LINE
8
BLACK
6
CONTINUOUS
10
96.5844
20
-48.2196
11
96.6753
21
-48.3835
0
LINE
8
BLACK
6
CONTINUOUS
10
96.6753
20
-48.3835
11
96.7363
21
-48.5607
0
LINE
8
BLACK
6
CONTINUOUS
10
96.7363
20
-48.5607
11
96.7656
21
-48.7458
0
LINE
8
BLACK
6
CONTINUOUS
10
96.7656
20
-48.7458
11
96.7656
21
-48.7458
0
LINE
8
BLACK
6
CONTINUOUS
10
96.7656
20
-48.7458
11
96.7656
21
-48.7458
0
LINE
8
BLACK
6
CONTINUOUS
10
96.7656
20
-48.7458
11
96.7656
21
-48.7458
0
LINE
8
BLACK
6
CONTINUOUS
10
96.7656
20
-48.7458
11
97.6724
21
-61.7141
0
LINE
8
BLACK
6
CONTINUOUS
10
97.6724
20
-61.7141
11
97.6724
21
-61.7141
0
LINE
8
BLACK
6
CONTINUOUS
10
97.6724
20
-61.7141
11
97.6691
21
-61.9015
0
LINE
8
BLACK
6
CONTINUOUS
10
97.6691
20
-61.9015
11
97.6334
21
-62.0854
0
LINE
8
BLACK
6
CONTINUOUS
10
97.6334
20
-62.0854
11
97.5662
21
-62.2603
0
LINE
8
BLACK
6
CONTINUOUS
10
97.5662
20
-62.2603
11
97.4697
21
-62.421
0
LINE
8
BLACK
6
CONTINUOUS
10
97.4697
20
-62.421
11
97.3468
21
-62.5624
0
LINE
8
BLACK
6
CONTINUOUS
10
97.3468
20
-62.5624
11
97.2012
21
-62.6803
0
LINE
8
BLACK
6
CONTINUOUS
10
97.2012
20
-62.6803
11
97.0373
21
-62.7712
0
LINE
8
BLACK
6
CONTINUOUS
10
97.0373
20
-62.7712
11
96.8601
21
-62.8322
0
LINE
8
BLACK
6
CONTINUOUS
10
96.8601
20
-62.8322
11
96.675
21
-62.8615
0
LINE
8
BLACK
6
CONTINUOUS
10
96.675
20
-62.8615
11
96.675
21
-62.8615
0
LINE
8
BLACK
6
CONTINUOUS
10
96.675
20
-62.8615
11
96.675
21
-62.8615
0
LINE
8
BLACK
6
CONTINUOUS
10
96.675
20
-62.8615
11
96.675
21
-62.8615
0
LINE
8
BLACK
6
CONTINUOUS
10
96.675
20
-62.8615
11
83.7067
21
-63.7683
0
LINE
8
BLACK
6
CONTINUOUS
10
83.7067
20
-63.7683
11
83.7067
21
-63.7683
0
LINE
8
BLACK
6
CONTINUOUS
10
83.7067
20
-63.7683
11
83.7067
21
-63.7683
0
LINE
8
BLACK
6
CONTINUOUS
10
83.7067
20
-63.7683
11
83.5193
21
-63.765
0
LINE
8
BLACK
6
CONTINUOUS
10
83.5193
20
-63.765
11
83.3354
21
-63.7293
0
LINE
8
BLACK
6
CONTINUOUS
10
83.3354
20
-63.7293
11
83.1604
21
-63.6621
0
LINE
8
BLACK
6
CONTINUOUS
10
83.1604
20
-63.6621
11
82.9998
21
-63.5656
0
LINE
8
BLACK
6
CONTINUOUS
10
82.9998
20
-63.5656
11
82.8584
21
-63.4427
0
LINE
8
BLACK
6
CONTINUOUS
10
82.8584
20
-63.4427
11
82.7405
21
-63.297
0
LINE
8
BLACK
6
CONTINUOUS
10
82.7405
20
-63.297
11
82.6496
21
-63.1332
0
LINE
8
BLACK
6
CONTINUOUS
10
82.6496
20
-63.1332
11
82.5886
21
-62.956
0
LINE
8
BLACK
6
CONTINUOUS
10
82.5886
20
-62.956
11
82.5593
21
-62.7709
0
LINE
8
BLACK
6
CONTINUOUS
10
82.5593
20
-62.7709
11
82.5593
21
-62.7709
0
LINE
8
BLACK
6
CONTINUOUS
10
82.5593
20
-62.7709
11
82.5593
21
-62.7709
0
LINE
8
BLACK
6
CONTINUOUS
10
82.5593
20
-62.7709
11
82.5593
21
-62.7709
0
LINE
8
BLACK
6
CONTINUOUS
10
82.5593
20
-62.7709
11
81.6525
21
-49.8026
0
LINE
8
BLACK
6
CONTINUOUS
10
81.6525
20
-49.8026
11
81.6525
21
-49.8026
0
LINE
8
BLACK
6
CONTINUOUS
10
81.6525
20
-49.8026
11
81.6557
21
-49.6152
0
LINE
8
BLACK
6
CONTINUOUS
10
81.6557
20
-49.6152
11
81.6915
21
-49.4313
0
LINE
8
BLACK
6
CONTINUOUS
10
81.6915
20
-49.4313
11
81.7587
21
-49.2563
0
LINE
8
BLACK
6
CONTINUOUS
10
81.7587
20
-49.2563
11
81.8552
21
-49.0957
0
LINE
8
BLACK
6
CONTINUOUS
10
81.8552
20
-49.0957
11
81.9781
21
-48.9543
0
LINE
8
BLACK
6
CONTINUOUS
10
81.9781
20
-48.9543
11
82.1237
21
-48.8364
0
LINE
8
BLACK
6
CONTINUOUS
10
82.1237
20
-48.8364
11
82.2876
21
-48.7455
0
LINE
8
BLACK
6
CONTINUOUS
10
82.2876
20
-48.7455
11
82.4648
21
-48.6845
0
LINE
8
BLACK
6
CONTINUOUS
10
82.4648
20
-48.6845
11
82.6499
21
-48.6552
0
LINE
8
BLACK
6
CONTINUOUS
10
82.6499
20
-48.6552
11
82.6499
21
-48.6552
0
LINE
8
BLACK
6
CONTINUOUS
10
82.6499
20
-48.6552
11
82.6499
21
-48.6552
0
LINE
8
BLACK
6
CONTINUOUS
10
82.6499
20
-48.6552
11
82.6499
21
-48.6552
0
LINE
8
BLACK
6
CONTINUOUS
10
82.6499
20
-48.6552
11
95.6182
21
-47.7484
0
LINE
8
BLACK
6
CONTINUOUS
10
95.6182
20
-47.7484
11
95.6182
21
-47.7484
0
LINE
8
BLACK
6
CONTINUOUS
10
95.6182
20
-47.7484
11
95.6182
21
-47.7484
0
LINE
8
BLACK
6
CONTINUOUS
10
95.6287
20
-47.898
11
95.6287
21
-47.898
0
LINE
8
BLACK
6
CONTINUOUS
10
95.6287
20
-47.898
11
95.6287
21
-47.898
0
LINE
8
BLACK
6
CONTINUOUS
10
95.6287
20
-47.898
11
82.6603
21
-48.8048
0
LINE
8
BLACK
6
CONTINUOUS
10
82.6603
20
-48.8048
11
82.6603
21
-48.8048
0
LINE
8
BLACK
6
CONTINUOUS
10
82.6603
20
-48.8048
11
82.6603
21
-48.8048
0
LINE
8
BLACK
6
CONTINUOUS
10
82.6603
20
-48.8048
11
82.6603
21
-48.8048
0
LINE
8
BLACK
6
CONTINUOUS
10
82.6603
20
-48.8048
11
82.6602
21
-48.8048
0
LINE
8
BLACK
6
CONTINUOUS
10
82.6602
20
-48.8048
11
82.5796
21
-48.8105
0
LINE
8
BLACK
6
CONTINUOUS
10
82.5796
20
-48.8105
11
82.4225
21
-48.8496
0
LINE
8
BLACK
6
CONTINUOUS
10
82.4225
20
-48.8496
11
82.2747
21
-48.9155
0
LINE
8
BLACK
6
CONTINUOUS
10
82.2747
20
-48.9155
11
82.1405
21
-49.006
0
LINE
8
BLACK
6
CONTINUOUS
10
82.1405
20
-49.006
11
82.0241
21
-49.1184
0
LINE
8
BLACK
6
CONTINUOUS
10
82.0241
20
-49.1184
11
81.9289
21
-49.2494
0
LINE
8
BLACK
6
CONTINUOUS
10
81.9289
20
-49.2494
11
81.858
21
-49.3948
0
LINE
8
BLACK
6
CONTINUOUS
10
81.858
20
-49.3948
11
81.8134
21
-49.5504
0
LINE
8
BLACK
6
CONTINUOUS
10
81.8134
20
-49.5504
11
81.7965
21
-49.7114
0
LINE
8
BLACK
6
CONTINUOUS
10
81.7965
20
-49.7114
11
81.8021
21
-49.7921
0
LINE
8
BLACK
6
CONTINUOUS
10
81.8021
20
-49.7921
11
81.8021
21
-49.7921
0
LINE
8
BLACK
6
CONTINUOUS
10
81.8021
20
-49.7921
11
82.7089
21
-62.7604
0
LINE
8
BLACK
6
CONTINUOUS
10
82.7089
20
-62.7604
11
82.7089
21
-62.7604
0
LINE
8
BLACK
6
CONTINUOUS
10
82.7089
20
-62.7604
11
82.7146
21
-62.8412
0
LINE
8
BLACK
6
CONTINUOUS
10
82.7146
20
-62.8412
11
82.7537
21
-62.9982
0
LINE
8
BLACK
6
CONTINUOUS
10
82.7537
20
-62.9982
11
82.8196
21
-63.1461
0
LINE
8
BLACK
6
CONTINUOUS
10
82.8196
20
-63.1461
11
82.9101
21
-63.2803
0
LINE
8
BLACK
6
CONTINUOUS
10
82.9101
20
-63.2803
11
83.0225
21
-63.3967
0
LINE
8
BLACK
6
CONTINUOUS
10
83.0225
20
-63.3967
11
83.1535
21
-63.4918
0
LINE
8
BLACK
6
CONTINUOUS
10
83.1535
20
-63.4918
11
83.2989
21
-63.5628
0
LINE
8
BLACK
6
CONTINUOUS
10
83.2989
20
-63.5628
11
83.4545
21
-63.6074
0
LINE
8
BLACK
6
CONTINUOUS
10
83.4545
20
-63.6074
11
83.6155
21
-63.6243
0
LINE
8
BLACK
6
CONTINUOUS
10
83.6155
20
-63.6243
11
83.6962
21
-63.6187
0
LINE
8
BLACK
6
CONTINUOUS
10
83.6962
20
-63.6187
11
96.6645
21
-62.7118
0
LINE
8
BLACK
6
CONTINUOUS
10
96.6645
20
-62.7118
11
96.6645
21
-62.7118
0
LINE
8
BLACK
6
CONTINUOUS
10
96.6645
20
-62.7118
11
96.6645
21
-62.7118
0
LINE
8
BLACK
6
CONTINUOUS
10
96.6645
20
-62.7118
11
96.6647
21
-62.7118
0
LINE
8
BLACK
6
CONTINUOUS
10
96.6647
20
-62.7118
11
96.7453
21
-62.7062
0
LINE
8
BLACK
6
CONTINUOUS
10
96.7453
20
-62.7062
11
96.9023
21
-62.6671
0
LINE
8
BLACK
6
CONTINUOUS
10
96.9023
20
-62.6671
11
97.0502
21
-62.6012
0
LINE
8
BLACK
6
CONTINUOUS
10
97.0502
20
-62.6012
11
97.1844
21
-62.5107
0
LINE
8
BLACK
6
CONTINUOUS
10
97.1844
20
-62.5107
11
97.3008
21
-62.3983
0
LINE
8
BLACK
6
CONTINUOUS
10
97.3008
20
-62.3983
11
97.3959
21
-62.2673
0
LINE
8
BLACK
6
CONTINUOUS
10
97.3959
20
-62.2673
11
97.4669
21
-62.1218
0
LINE
8
BLACK
6
CONTINUOUS
10
97.4669
20
-62.1218
11
97.5115
21
-61.9663
0
LINE
8
BLACK
6
CONTINUOUS
10
97.5115
20
-61.9663
11
97.5284
21
-61.8053
0
LINE
8
BLACK
6
CONTINUOUS
10
97.5284
20
-61.8053
11
97.5228
21
-61.7246
0
LINE
8
BLACK
6
CONTINUOUS
10
97.5228
20
-61.7246
11
97.5228
21
-61.7246
0
LINE
8
BLACK
6
CONTINUOUS
10
97.5228
20
-61.7246
11
96.6159
21
-48.7562
0
LINE
8
BLACK
6
CONTINUOUS
10
96.6159
20
-48.7562
11
96.616
21
-48.7559
0
LINE
8
BLACK
6
CONTINUOUS
10
96.616
20
-48.7559
11
96.6103
21
-48.6755
0
LINE
8
BLACK
6
CONTINUOUS
10
96.6103
20
-48.6755
11
96.5712
21
-48.5184
0
LINE
8
BLACK
6
CONTINUOUS
10
96.5712
20
-48.5184
11
96.5053
21
-48.3706
0
LINE
8
BLACK
6
CONTINUOUS
10
96.5053
20
-48.3706
11
96.4148
21
-48.2364
0
LINE
8
BLACK
6
CONTINUOUS
10
96.4148
20
-48.2364
11
96.3024
21
-48.12
0
LINE
8
BLACK
6
CONTINUOUS
10
96.3024
20
-48.12
11
96.1714
21
-48.0248
0
LINE
8
BLACK
6
CONTINUOUS
10
96.1714
20
-48.0248
11
96.026
21
-47.9539
0
LINE
8
BLACK
6
CONTINUOUS
10
96.026
20
-47.9539
11
95.8704
21
-47.9093
0
LINE
8
BLACK
6
CONTINUOUS
10
95.8704
20
-47.9093
11
95.7094
21
-47.8924
0
LINE
8
BLACK
6
CONTINUOUS
10
95.7094
20
-47.8924
11
95.6287
21
-47.898
0
LINE
8
BLACK
6
CONTINUOUS
10
75.5669
20
-42.3571
11
75.7441
21
-42.4181
0
LINE
8
BLACK
6
CONTINUOUS
10
75.7441
20
-42.4181
11
75.9079
21
-42.5089
0
LINE
8
BLACK
6
CONTINUOUS
10
75.9079
20
-42.5089
11
76.0536
21
-42.6268
0
LINE
8
BLACK
6
CONTINUOUS
10
76.0536
20
-42.6268
11
76.1765
21
-42.7683
0
LINE
8
BLACK
6
CONTINUOUS
10
76.1765
20
-42.7683
11
76.273
21
-42.9289
0
LINE
8
BLACK
6
CONTINUOUS
10
76.273
20
-42.9289
11
76.3401
21
-43.1038
0
LINE
8
BLACK
6
CONTINUOUS
10
76.3401
20
-43.1038
11
76.3759
21
-43.2876
0
LINE
8
BLACK
6
CONTINUOUS
10
76.3759
20
-43.2876
11
76.3759
21
-43.2877
0
LINE
8
BLACK
6
CONTINUOUS
10
76.3759
20
-43.2877
11
77.7348
21
-56.2165
0
LINE
8
BLACK
6
CONTINUOUS
10
77.7348
20
-56.2165
11
77.7348
21
-56.2165
0
LINE
8
BLACK
6
CONTINUOUS
10
77.7348
20
-56.2165
11
77.7381
21
-56.4039
0
LINE
8
BLACK
6
CONTINUOUS
10
77.7381
20
-56.4039
11
77.7088
21
-56.589
0
LINE
8
BLACK
6
CONTINUOUS
10
77.7088
20
-56.589
11
77.6478
21
-56.7661
0
LINE
8
BLACK
6
CONTINUOUS
10
77.6478
20
-56.7661
11
77.5569
21
-56.93
0
LINE
8
BLACK
6
CONTINUOUS
10
77.5569
20
-56.93
11
77.439
21
-57.0757
0
LINE
8
BLACK
6
CONTINUOUS
10
77.439
20
-57.0757
11
77.2976
21
-57.1986
0
LINE
8
BLACK
6
CONTINUOUS
10
77.2976
20
-57.1986
11
77.137
21
-57.2951
0
LINE
8
BLACK
6
CONTINUOUS
10
77.137
20
-57.2951
11
76.962
21
-57.3623
0
LINE
8
BLACK
6
CONTINUOUS
10
76.962
20
-57.3623
11
76.7781
21
-57.398
0
LINE
8
BLACK
6
CONTINUOUS
10
76.7781
20
-57.398
11
76.7781
21
-57.398
0
LINE
8
BLACK
6
CONTINUOUS
10
76.7781
20
-57.398
11
76.7781
21
-57.398
0
LINE
8
BLACK
6
CONTINUOUS
10
76.7781
20
-57.398
11
76.7781
21
-57.398
0
LINE
8
BLACK
6
CONTINUOUS
10
76.7781
20
-57.398
11
63.8493
21
-58.7569
0
LINE
8
BLACK
6
CONTINUOUS
10
63.8493
20
-58.7569
11
63.8493
21
-58.7569
0
LINE
8
BLACK
6
CONTINUOUS
10
63.8493
20
-58.7569
11
63.6619
21
-58.7602
0
LINE
8
BLACK
6
CONTINUOUS
10
63.6619
20
-58.7602
11
63.4769
21
-58.7308
0
LINE
8
BLACK
6
CONTINUOUS
10
63.4769
20
-58.7308
11
63.2997
21
-58.6698
0
LINE
8
BLACK
6
CONTINUOUS
10
63.2997
20
-58.6698
11
63.1358
21
-58.579
0
LINE
8
BLACK
6
CONTINUOUS
10
63.1358
20
-58.579
11
62.9902
21
-58.4611
0
LINE
8
BLACK
6
CONTINUOUS
10
62.9902
20
-58.4611
11
62.8672
21
-58.3196
0
LINE
8
BLACK
6
CONTINUOUS
10
62.8672
20
-58.3196
11
62.7707
21
-58.159
0
LINE
8
BLACK
6
CONTINUOUS
10
62.7707
20
-58.159
11
62.7036
21
-57.9841
0
LINE
8
BLACK
6
CONTINUOUS
10
62.7036
20
-57.9841
11
62.6678
21
-57.8002
0
LINE
8
BLACK
6
CONTINUOUS
10
62.6678
20
-57.8002
11
62.6678
21
-57.8001
0
LINE
8
BLACK
6
CONTINUOUS
10
62.6678
20
-57.8001
11
61.3089
21
-44.8714
0
LINE
8
BLACK
6
CONTINUOUS
10
61.3089
20
-44.8714
11
61.3089
21
-44.8714
0
LINE
8
BLACK
6
CONTINUOUS
10
61.3089
20
-44.8714
11
61.3057
21
-44.684
0
LINE
8
BLACK
6
CONTINUOUS
10
61.3057
20
-44.684
11
61.335
21
-44.4989
0
LINE
8
BLACK
6
CONTINUOUS
10
61.335
20
-44.4989
11
61.396
21
-44.3217
0
LINE
8
BLACK
6
CONTINUOUS
10
61.396
20
-44.3217
11
61.4868
21
-44.1579
0
LINE
8
BLACK
6
CONTINUOUS
10
61.4868
20
-44.1579
11
61.6048
21
-44.0122
0
LINE
8
BLACK
6
CONTINUOUS
10
61.6048
20
-44.0122
11
61.7462
21
-43.8893
0
LINE
8
BLACK
6
CONTINUOUS
10
61.7462
20
-43.8893
11
61.9068
21
-43.7928
0
LINE
8
BLACK
6
CONTINUOUS
10
61.9068
20
-43.7928
11
62.0817
21
-43.7256
0
LINE
8
BLACK
6
CONTINUOUS
10
62.0817
20
-43.7256
11
62.2657
21
-43.6898
0
LINE
8
BLACK
6
CONTINUOUS
10
62.2657
20
-43.6898
11
62.2657
21
-43.6899
0
LINE
8
BLACK
6
CONTINUOUS
10
62.2657
20
-43.6899
11
62.2657
21
-43.6899
0
LINE
8
BLACK
6
CONTINUOUS
10
62.2657
20
-43.6899
11
62.2657
21
-43.6899
0
LINE
8
BLACK
6
CONTINUOUS
10
62.2657
20
-43.6899
11
75.1945
21
-42.331
0
LINE
8
BLACK
6
CONTINUOUS
10
75.1945
20
-42.331
11
75.1945
21
-42.331
0
LINE
8
BLACK
6
CONTINUOUS
10
75.1945
20
-42.331
11
75.1945
21
-42.331
0
LINE
8
BLACK
6
CONTINUOUS
10
75.1945
20
-42.331
11
75.3818
21
-42.3277
0
LINE
8
BLACK
6
CONTINUOUS
10
75.3818
20
-42.3277
11
75.5669
21
-42.3571
0
LINE
8
BLACK
6
CONTINUOUS
10
75.2101
20
-42.4802
11
75.2101
21
-42.4802
0
LINE
8
BLACK
6
CONTINUOUS
10
75.2101
20
-42.4802
11
62.2814
21
-43.8391
0
LINE
8
BLACK
6
CONTINUOUS
10
62.2814
20
-43.8391
11
62.2814
21
-43.8391
0
LINE
8
BLACK
6
CONTINUOUS
10
62.2814
20
-43.8391
11
62.2814
21
-43.8391
0
LINE
8
BLACK
6
CONTINUOUS
10
62.2814
20
-43.8391
11
62.2814
21
-43.8391
0
LINE
8
BLACK
6
CONTINUOUS
10
62.2814
20
-43.8391
11
62.2812
21
-43.839
0
LINE
8
BLACK
6
CONTINUOUS
10
62.2812
20
-43.839
11
62.2009
21
-43.8475
0
LINE
8
BLACK
6
CONTINUOUS
10
62.2009
20
-43.8475
11
62.0453
21
-43.8921
0
LINE
8
BLACK
6
CONTINUOUS
10
62.0453
20
-43.8921
11
61.8998
21
-43.9631
0
LINE
8
BLACK
6
CONTINUOUS
10
61.8998
20
-43.9631
11
61.7689
21
-44.0582
0
LINE
8
BLACK
6
CONTINUOUS
10
61.7689
20
-44.0582
11
61.6564
21
-44.1746
0
LINE
8
BLACK
6
CONTINUOUS
10
61.6564
20
-44.1746
11
61.5659
21
-44.3088
0
LINE
8
BLACK
6
CONTINUOUS
10
61.5659
20
-44.3088
11
61.5001
21
-44.4567
0
LINE
8
BLACK
6
CONTINUOUS
10
61.5001
20
-44.4567
11
61.461
21
-44.6137
0
LINE
8
BLACK
6
CONTINUOUS
10
61.461
20
-44.6137
11
61.4497
21
-44.7752
0
LINE
8
BLACK
6
CONTINUOUS
10
61.4497
20
-44.7752
11
61.4581
21
-44.8557
0
LINE
8
BLACK
6
CONTINUOUS
10
61.4581
20
-44.8557
11
61.4581
21
-44.8557
0
LINE
8
BLACK
6
CONTINUOUS
10
61.4581
20
-44.8557
11
62.817
21
-57.7845
0
LINE
8
BLACK
6
CONTINUOUS
10
62.817
20
-57.7845
11
62.817
21
-57.7845
0
LINE
8
BLACK
6
CONTINUOUS
10
62.817
20
-57.7845
11
62.817
21
-57.7845
0
LINE
8
BLACK
6
CONTINUOUS
10
62.817
20
-57.7845
11
62.8254
21
-57.8649
0
LINE
8
BLACK
6
CONTINUOUS
10
62.8254
20
-57.8649
11
62.8701
21
-58.0205
0
LINE
8
BLACK
6
CONTINUOUS
10
62.8701
20
-58.0205
11
62.941
21
-58.166
0
LINE
8
BLACK
6
CONTINUOUS
10
62.941
20
-58.166
11
63.0361
21
-58.2969
0
LINE
8
BLACK
6
CONTINUOUS
10
63.0361
20
-58.2969
11
63.1526
21
-58.4094
0
LINE
8
BLACK
6
CONTINUOUS
10
63.1526
20
-58.4094
11
63.2868
21
-58.4999
0
LINE
8
BLACK
6
CONTINUOUS
10
63.2868
20
-58.4999
11
63.4346
21
-58.5657
0
LINE
8
BLACK
6
CONTINUOUS
10
63.4346
20
-58.5657
11
63.5917
21
-58.6049
0
LINE
8
BLACK
6
CONTINUOUS
10
63.5917
20
-58.6049
11
63.7531
21
-58.6162
0
LINE
8
BLACK
6
CONTINUOUS
10
63.7531
20
-58.6162
11
63.8336
21
-58.6077
0
LINE
8
BLACK
6
CONTINUOUS
10
63.8336
20
-58.6077
11
63.8336
21
-58.6077
0
LINE
8
BLACK
6
CONTINUOUS
10
63.8336
20
-58.6077
11
76.7624
21
-57.2488
0
LINE
8
BLACK
6
CONTINUOUS
10
76.7624
20
-57.2488
11
76.7624
21
-57.2488
0
LINE
8
BLACK
6
CONTINUOUS
10
76.7624
20
-57.2488
11
76.8429
21
-57.2404
0
LINE
8
BLACK
6
CONTINUOUS
10
76.8429
20
-57.2404
11
76.9985
21
-57.1958
0
LINE
8
BLACK
6
CONTINUOUS
10
76.9985
20
-57.1958
11
77.1439
21
-57.1248
0
LINE
8
BLACK
6
CONTINUOUS
10
77.1439
20
-57.1248
11
77.2749
21
-57.0297
0
LINE
8
BLACK
6
CONTINUOUS
10
77.2749
20
-57.0297
11
77.3873
21
-56.9132
0
LINE
8
BLACK
6
CONTINUOUS
10
77.3873
20
-56.9132
11
77.4778
21
-56.7791
0
LINE
8
BLACK
6
CONTINUOUS
10
77.4778
20
-56.7791
11
77.5436
21
-56.6312
0
LINE
8
BLACK
6
CONTINUOUS
10
77.5436
20
-56.6312
11
77.5828
21
-56.4742
0
LINE
8
BLACK
6
CONTINUOUS
10
77.5828
20
-56.4742
11
77.5941
21
-56.3127
0
LINE
8
BLACK
6
CONTINUOUS
10
77.5941
20
-56.3127
11
77.5856
21
-56.2322
0
LINE
8
BLACK
6
CONTINUOUS
10
77.5856
20
-56.2322
11
77.5856
21
-56.2322
0
LINE
8
BLACK
6
CONTINUOUS
10
77.5856
20
-56.2322
11
76.2268
21
-43.3034
0
LINE
8
BLACK
6
CONTINUOUS
10
76.2268
20
-43.3034
11
76.2268
21
-43.3034
0
LINE
8
BLACK
6
CONTINUOUS
10
76.2268
20
-43.3034
11
76.2267
21
-43.3034
0
LINE
8
BLACK
6
CONTINUOUS
10
76.2267
20
-43.3034
11
76.2183
21
-43.2229
0
LINE
8
BLACK
6
CONTINUOUS
10
76.2183
20
-43.2229
11
76.1736
21
-43.0674
0
LINE
8
BLACK
6
CONTINUOUS
10
76.1736
20
-43.0674
11
76.1027
21
-42.9219
0
LINE
8
BLACK
6
CONTINUOUS
10
76.1027
20
-42.9219
11
76.0076
21
-42.791
0
LINE
8
BLACK
6
CONTINUOUS
10
76.0076
20
-42.791
11
75.8911
21
-42.6785
0
LINE
8
BLACK
6
CONTINUOUS
10
75.8911
20
-42.6785
11
75.757
21
-42.588
0
LINE
8
BLACK
6
CONTINUOUS
10
75.757
20
-42.588
11
75.6091
21
-42.5222
0
LINE
8
BLACK
6
CONTINUOUS
10
75.6091
20
-42.5222
11
75.4521
21
-42.483
0
LINE
8
BLACK
6
CONTINUOUS
10
75.4521
20
-42.483
11
75.2906
21
-42.4717
0
LINE
8
BLACK
6
CONTINUOUS
10
75.2906
20
-42.4717
11
75.2101
21
-42.4802
0
LINE
8
BLACK
6
CONTINUOUS
10
122.532
20
-43.4311
11
135.532
21
-43.4311
0
LINE
8
BLACK
6
CONTINUOUS
10
135.532
20
-43.4311
11
135.719
21
-43.4475
0
LINE
8
BLACK
6
CONTINUOUS
10
135.719
20
-43.4475
11
135.9
21
-43.496
0
LINE
8
BLACK
6
CONTINUOUS
10
135.9
20
-43.496
11
136.07
21
-43.5751
0
LINE
8
BLACK
6
CONTINUOUS
10
136.07
20
-43.5751
11
136.223
21
-43.6826
0
LINE
8
BLACK
6
CONTINUOUS
10
136.223
20
-43.6826
11
136.356
21
-43.8151
0
LINE
8
BLACK
6
CONTINUOUS
10
136.356
20
-43.8151
11
136.463
21
-43.9686
0
LINE
8
BLACK
6
CONTINUOUS
10
136.463
20
-43.9686
11
136.542
21
-44.1384
0
LINE
8
BLACK
6
CONTINUOUS
10
136.542
20
-44.1384
11
136.591
21
-44.3194
0
LINE
8
BLACK
6
CONTINUOUS
10
136.591
20
-44.3194
11
136.607
21
-44.506
0
LINE
8
BLACK
6
CONTINUOUS
10
136.607
20
-44.506
11
136.607
21
-44.5061
0
LINE
8
BLACK
6
CONTINUOUS
10
136.607
20
-44.5061
11
136.607
21
-57.5061
0
LINE
8
BLACK
6
CONTINUOUS
10
136.607
20
-57.5061
11
136.607
21
-57.5061
0
LINE
8
BLACK
6
CONTINUOUS
10
136.607
20
-57.5061
11
136.591
21
-57.6928
0
LINE
8
BLACK
6
CONTINUOUS
10
136.591
20
-57.6928
11
136.542
21
-57.8738
0
LINE
8
BLACK
6
CONTINUOUS
10
136.542
20
-57.8738
11
136.463
21
-58.0436
0
LINE
8
BLACK
6
CONTINUOUS
10
136.463
20
-58.0436
11
136.356
21
-58.1971
0
LINE
8
BLACK
6
CONTINUOUS
10
136.356
20
-58.1971
11
136.223
21
-58.3296
0
LINE
8
BLACK
6
CONTINUOUS
10
136.223
20
-58.3296
11
136.07
21
-58.4371
0
LINE
8
BLACK
6
CONTINUOUS
10
136.07
20
-58.4371
11
135.9
21
-58.5163
0
LINE
8
BLACK
6
CONTINUOUS
10
135.9
20
-58.5163
11
135.719
21
-58.5648
0
LINE
8
BLACK
6
CONTINUOUS
10
135.719
20
-58.5648
11
135.532
21
-58.5811
0
LINE
8
BLACK
6
CONTINUOUS
10
135.532
20
-58.5811
11
135.532
21
-58.5811
0
LINE
8
BLACK
6
CONTINUOUS
10
135.532
20
-58.5811
11
122.532
21
-58.5811
0
LINE
8
BLACK
6
CONTINUOUS
10
122.532
20
-58.5811
11
122.346
21
-58.5648
0
LINE
8
BLACK
6
CONTINUOUS
10
122.346
20
-58.5648
11
122.165
21
-58.5163
0
LINE
8
BLACK
6
CONTINUOUS
10
122.165
20
-58.5163
11
121.995
21
-58.4371
0
LINE
8
BLACK
6
CONTINUOUS
10
121.995
20
-58.4371
11
121.841
21
-58.3296
0
LINE
8
BLACK
6
CONTINUOUS
10
121.841
20
-58.3296
11
121.709
21
-58.1971
0
LINE
8
BLACK
6
CONTINUOUS
10
121.709
20
-58.1971
11
121.601
21
-58.0436
0
LINE
8
BLACK
6
CONTINUOUS
10
121.601
20
-58.0436
11
121.522
21
-57.8738
0
LINE
8
BLACK
6
CONTINUOUS
10
121.522
20
-57.8738
11
121.474
21
-57.6928
0
LINE
8
BLACK
6
CONTINUOUS
10
121.474
20
-57.6928
11
121.457
21
-57.5061
0
LINE
8
BLACK
6
CONTINUOUS
10
121.457
20
-57.5061
11
121.457
21
-57.5061
0
LINE
8
BLACK
6
CONTINUOUS
10
121.457
20
-57.5061
11
121.457
21
-57.5061
0
LINE
8
BLACK
6
CONTINUOUS
10
121.457
20
-57.5061
11
121.457
21
-44.5061
0
LINE
8
BLACK
6
CONTINUOUS
10
121.457
20
-44.5061
11
121.457
21
-44.5061
0
LINE
8
BLACK
6
CONTINUOUS
10
121.457
20
-44.5061
11
121.474
21
-44.3194
0
LINE
8
BLACK
6
CONTINUOUS
10
121.474
20
-44.3194
11
121.522
21
-44.1384
0
LINE
8
BLACK
6
CONTINUOUS
10
121.522
20
-44.1384
11
121.601
21
-43.9686
0
LINE
8
BLACK
6
CONTINUOUS
10
121.601
20
-43.9686
11
121.709
21
-43.8151
0
LINE
8
BLACK
6
CONTINUOUS
10
121.709
20
-43.8151
11
121.841
21
-43.6826
0
LINE
8
BLACK
6
CONTINUOUS
10
121.841
20
-43.6826
11
121.995
21
-43.5751
0
LINE
8
BLACK
6
CONTINUOUS
10
121.995
20
-43.5751
11
122.165
21
-43.4959
0
LINE
8
BLACK
6
CONTINUOUS
10
122.165
20
-43.4959
11
122.346
21
-43.4474
0
LINE
8
BLACK
6
CONTINUOUS
10
122.346
20
-43.4474
11
122.532
21
-43.4311
0
LINE
8
BLACK
6
CONTINUOUS
10
122.532
20
-43.4311
11
122.532
21
-43.4311
0
LINE
8
BLACK
6
CONTINUOUS
10
122.292
20
-43.6092
11
122.14
21
-43.6646
0
LINE
8
BLACK
6
CONTINUOUS
10
122.14
20
-43.6646
11
122
21
-43.7455
0
LINE
8
BLACK
6
CONTINUOUS
10
122
20
-43.7455
11
121.876
21
-43.8495
0
LINE
8
BLACK
6
CONTINUOUS
10
121.876
20
-43.8495
11
121.772
21
-43.9735
0
LINE
8
BLACK
6
CONTINUOUS
10
121.772
20
-43.9735
11
121.691
21
-44.1137
0
LINE
8
BLACK
6
CONTINUOUS
10
121.691
20
-44.1137
11
121.635
21
-44.2658
0
LINE
8
BLACK
6
CONTINUOUS
10
121.635
20
-44.2658
11
121.607
21
-44.4252
0
LINE
8
BLACK
6
CONTINUOUS
10
121.607
20
-44.4252
11
121.607
21
-44.5061
0
LINE
8
BLACK
6
CONTINUOUS
10
121.607
20
-44.5061
11
121.607
21
-44.5061
0
LINE
8
BLACK
6
CONTINUOUS
10
121.607
20
-44.5061
11
121.607
21
-57.5061
0
LINE
8
BLACK
6
CONTINUOUS
10
121.607
20
-57.5061
11
121.607
21
-57.5062
0
LINE
8
BLACK
6
CONTINUOUS
10
121.607
20
-57.5062
11
121.607
21
-57.587
0
LINE
8
BLACK
6
CONTINUOUS
10
121.607
20
-57.587
11
121.635
21
-57.7464
0
LINE
8
BLACK
6
CONTINUOUS
10
121.635
20
-57.7464
11
121.691
21
-57.8985
0
LINE
8
BLACK
6
CONTINUOUS
10
121.691
20
-57.8985
11
121.772
21
-58.0387
0
LINE
8
BLACK
6
CONTINUOUS
10
121.772
20
-58.0387
11
121.876
21
-58.1627
0
LINE
8
BLACK
6
CONTINUOUS
10
121.876
20
-58.1627
11
122
21
-58.2667
0
LINE
8
BLACK
6
CONTINUOUS
10
122
20
-58.2667
11
122.14
21
-58.3477
0
LINE
8
BLACK
6
CONTINUOUS
10
122.14
20
-58.3477
11
122.292
21
-58.403
0
LINE
8
BLACK
6
CONTINUOUS
10
122.292
20
-58.403
11
122.451
21
-58.4311
0
LINE
8
BLACK
6
CONTINUOUS
10
122.451
20
-58.4311
11
122.532
21
-58.4311
0
LINE
8
BLACK
6
CONTINUOUS
10
122.532
20
-58.4311
11
135.532
21
-58.4311
0
LINE
8
BLACK
6
CONTINUOUS
10
135.532
20
-58.4311
11
135.532
21
-58.4311
0
LINE
8
BLACK
6
CONTINUOUS
10
135.532
20
-58.4311
11
135.613
21
-58.4311
0
LINE
8
BLACK
6
CONTINUOUS
10
135.613
20
-58.4311
11
135.773
21
-58.403
0
LINE
8
BLACK
6
CONTINUOUS
10
135.773
20
-58.403
11
135.925
21
-58.3476
0
LINE
8
BLACK
6
CONTINUOUS
10
135.925
20
-58.3476
11
136.065
21
-58.2667
0
LINE
8
BLACK
6
CONTINUOUS
10
136.065
20
-58.2667
11
136.189
21
-58.1627
0
LINE
8
BLACK
6
CONTINUOUS
10
136.189
20
-58.1627
11
136.293
21
-58.0387
0
LINE
8
BLACK
6
CONTINUOUS
10
136.293
20
-58.0387
11
136.374
21
-57.8985
0
LINE
8
BLACK
6
CONTINUOUS
10
136.374
20
-57.8985
11
136.429
21
-57.7464
0
LINE
8
BLACK
6
CONTINUOUS
10
136.429
20
-57.7464
11
136.457
21
-57.587
0
LINE
8
BLACK
6
CONTINUOUS
10
136.457
20
-57.587
11
136.457
21
-57.5061
0
LINE
8
BLACK
6
CONTINUOUS
10
136.457
20
-57.5061
11
136.457
21
-57.5061
0
LINE
8
BLACK
6
CONTINUOUS
10
136.457
20
-57.5061
11
136.457
21
-44.5061
0
LINE
8
BLACK
6
CONTINUOUS
10
136.457
20
-44.5061
11
136.457
21
-44.5061
0
LINE
8
BLACK
6
CONTINUOUS
10
136.457
20
-44.5061
11
136.457
21
-44.5061
0
LINE
8
BLACK
6
CONTINUOUS
10
136.457
20
-44.5061
11
136.457
21
-44.4252
0
LINE
8
BLACK
6
CONTINUOUS
10
136.457
20
-44.4252
11
136.429
21
-44.2658
0
LINE
8
BLACK
6
CONTINUOUS
10
136.429
20
-44.2658
11
136.374
21
-44.1137
0
LINE
8
BLACK
6
CONTINUOUS
10
136.374
20
-44.1137
11
136.293
21
-43.9735
0
LINE
8
BLACK
6
CONTINUOUS
10
136.293
20
-43.9735
11
136.189
21
-43.8495
0
LINE
8
BLACK
6
CONTINUOUS
10
136.189
20
-43.8495
11
136.065
21
-43.7455
0
LINE
8
BLACK
6
CONTINUOUS
10
136.065
20
-43.7455
11
135.925
21
-43.6646
0
LINE
8
BLACK
6
CONTINUOUS
10
135.925
20
-43.6646
11
135.773
21
-43.6092
0
LINE
8
BLACK
6
CONTINUOUS
10
135.773
20
-43.6092
11
135.613
21
-43.5811
0
LINE
8
BLACK
6
CONTINUOUS
10
135.613
20
-43.5811
11
135.532
21
-43.5811
0
LINE
8
BLACK
6
CONTINUOUS
10
135.532
20
-43.5811
11
122.532
21
-43.5811
0
LINE
8
BLACK
6
CONTINUOUS
10
122.532
20
-43.5811
11
122.532
21
-43.5811
0
LINE
8
BLACK
6
CONTINUOUS
10
122.532
20
-43.5811
11
122.451
21
-43.5811
0
LINE
8
BLACK
6
CONTINUOUS
10
122.451
20
-43.5811
11
122.292
21
-43.6092
0
LINE
8
BLACK
6
CONTINUOUS
10
115.133
20
-37.5158
11
115.133
21
-37.5158
0
LINE
8
BLACK
6
CONTINUOUS
10
115.133
20
-37.5158
11
115.32
21
-37.5256
0
LINE
8
BLACK
6
CONTINUOUS
10
115.32
20
-37.5256
11
115.502
21
-37.5678
0
LINE
8
BLACK
6
CONTINUOUS
10
115.502
20
-37.5678
11
115.675
21
-37.641
0
LINE
8
BLACK
6
CONTINUOUS
10
115.675
20
-37.641
11
115.832
21
-37.7431
0
LINE
8
BLACK
6
CONTINUOUS
10
115.832
20
-37.7431
11
115.969
21
-37.8708
0
LINE
8
BLACK
6
CONTINUOUS
10
115.969
20
-37.8708
11
116.082
21
-38.0205
0
LINE
8
BLACK
6
CONTINUOUS
10
116.082
20
-38.0205
11
116.167
21
-38.1875
0
LINE
8
BLACK
6
CONTINUOUS
10
116.167
20
-38.1875
11
116.222
21
-38.3667
0
LINE
8
BLACK
6
CONTINUOUS
10
116.222
20
-38.3667
11
116.245
21
-38.5526
0
LINE
8
BLACK
6
CONTINUOUS
10
116.245
20
-38.5526
11
116.245
21
-38.5526
0
LINE
8
BLACK
6
CONTINUOUS
10
116.245
20
-38.5526
11
116.245
21
-38.5526
0
LINE
8
BLACK
6
CONTINUOUS
10
116.245
20
-38.5526
11
116.245
21
-38.5526
0
LINE
8
BLACK
6
CONTINUOUS
10
116.245
20
-38.5526
11
116.698
21
-51.5447
0
LINE
8
BLACK
6
CONTINUOUS
10
116.698
20
-51.5447
11
116.698
21
-51.5447
0
LINE
8
BLACK
6
CONTINUOUS
10
116.698
20
-51.5447
11
116.698
21
-51.5447
0
LINE
8
BLACK
6
CONTINUOUS
10
116.698
20
-51.5447
11
116.688
21
-51.7319
0
LINE
8
BLACK
6
CONTINUOUS
10
116.688
20
-51.7319
11
116.646
21
-51.9144
0
LINE
8
BLACK
6
CONTINUOUS
10
116.646
20
-51.9144
11
116.573
21
-52.0869
0
LINE
8
BLACK
6
CONTINUOUS
10
116.573
20
-52.0869
11
116.471
21
-52.2441
0
LINE
8
BLACK
6
CONTINUOUS
10
116.471
20
-52.2441
11
116.343
21
-52.3811
0
LINE
8
BLACK
6
CONTINUOUS
10
116.343
20
-52.3811
11
116.194
21
-52.4939
0
LINE
8
BLACK
6
CONTINUOUS
10
116.194
20
-52.4939
11
116.027
21
-52.5789
0
LINE
8
BLACK
6
CONTINUOUS
10
116.027
20
-52.5789
11
115.847
21
-52.6337
0
LINE
8
BLACK
6
CONTINUOUS
10
115.847
20
-52.6337
11
115.662
21
-52.6565
0
LINE
8
BLACK
6
CONTINUOUS
10
115.662
20
-52.6565
11
115.661
21
-52.6566
0
LINE
8
BLACK
6
CONTINUOUS
10
115.661
20
-52.6566
11
102.669
21
-53.1103
0
LINE
8
BLACK
6
CONTINUOUS
10
102.669
20
-53.1103
11
102.669
21
-53.1103
0
LINE
8
BLACK
6
CONTINUOUS
10
102.669
20
-53.1103
11
102.669
21
-53.1103
0
LINE
8
BLACK
6
CONTINUOUS
10
102.669
20
-53.1103
11
102.482
21
-53.1005
0
LINE
8
BLACK
6
CONTINUOUS
10
102.482
20
-53.1005
11
102.3
21
-53.0583
0
LINE
8
BLACK
6
CONTINUOUS
10
102.3
20
-53.0583
11
102.127
21
-52.9851
0
LINE
8
BLACK
6
CONTINUOUS
10
102.127
20
-52.9851
11
101.97
21
-52.8831
0
LINE
8
BLACK
6
CONTINUOUS
10
101.97
20
-52.8831
11
101.833
21
-52.7553
0
LINE
8
BLACK
6
CONTINUOUS
10
101.833
20
-52.7553
11
101.72
21
-52.6056
0
LINE
8
BLACK
6
CONTINUOUS
10
101.72
20
-52.6056
11
101.635
21
-52.4386
0
LINE
8
BLACK
6
CONTINUOUS
10
101.635
20
-52.4386
11
101.58
21
-52.2594
0
LINE
8
BLACK
6
CONTINUOUS
10
101.58
20
-52.2594
11
101.557
21
-52.0735
0
LINE
8
BLACK
6
CONTINUOUS
10
101.557
20
-52.0735
11
101.557
21
-52.0735
0
LINE
8
BLACK
6
CONTINUOUS
10
101.557
20
-52.0735
11
101.557
21
-52.0735
0
LINE
8
BLACK
6
CONTINUOUS
10
101.557
20
-52.0735
11
101.557
21
-52.0735
0
LINE
8
BLACK
6
CONTINUOUS
10
101.557
20
-52.0735
11
101.104
21
-39.0814
0
LINE
8
BLACK
6
CONTINUOUS
10
101.104
20
-39.0814
11
101.104
21
-39.0814
0
LINE
8
BLACK
6
CONTINUOUS
10
101.104
20
-39.0814
11
101.114
21
-38.8942
0
LINE
8
BLACK
6
CONTINUOUS
10
101.114
20
-38.8942
11
101.156
21
-38.7117
0
LINE
8
BLACK
6
CONTINUOUS
10
101.156
20
-38.7117
11
101.229
21
-38.5392
0
LINE
8
BLACK
6
CONTINUOUS
10
101.229
20
-38.5392
11
101.331
21
-38.382
0
LINE
8
BLACK
6
CONTINUOUS
10
101.331
20
-38.382
11
101.459
21
-38.245
0
LINE
8
BLACK
6
CONTINUOUS
10
101.459
20
-38.245
11
101.608
21
-38.1323
0
LINE
8
BLACK
6
CONTINUOUS
10
101.608
20
-38.1323
11
101.775
21
-38.0472
0
LINE
8
BLACK
6
CONTINUOUS
10
101.775
20
-38.0472
11
101.955
21
-37.9924
0
LINE
8
BLACK
6
CONTINUOUS
10
101.955
20
-37.9924
11
102.14
21
-37.9696
0
LINE
8
BLACK
6
CONTINUOUS
10
102.14
20
-37.9696
11
102.141
21
-37.9695
0
LINE
8
BLACK
6
CONTINUOUS
10
102.141
20
-37.9695
11
115.133
21
-37.5158
0
LINE
8
BLACK
6
CONTINUOUS
10
115.133
20
-37.5158
11
115.133
21
-37.5158
0
LINE
8
BLACK
6
CONTINUOUS
10
115.138
20
-37.6657
11
115.138
21
-37.6657
0
LINE
8
BLACK
6
CONTINUOUS
10
115.138
20
-37.6657
11
102.146
21
-38.1194
0
LINE
8
BLACK
6
CONTINUOUS
10
102.146
20
-38.1194
11
102.146
21
-38.1194
0
LINE
8
BLACK
6
CONTINUOUS
10
102.146
20
-38.1194
11
102.146
21
-38.1194
0
LINE
8
BLACK
6
CONTINUOUS
10
102.146
20
-38.1194
11
102.146
21
-38.1195
0
LINE
8
BLACK
6
CONTINUOUS
10
102.146
20
-38.1195
11
102.065
21
-38.1223
0
LINE
8
BLACK
6
CONTINUOUS
10
102.065
20
-38.1223
11
101.907
21
-38.156
0
LINE
8
BLACK
6
CONTINUOUS
10
101.907
20
-38.156
11
101.757
21
-38.2166
0
LINE
8
BLACK
6
CONTINUOUS
10
101.757
20
-38.2166
11
101.619
21
-38.3023
0
LINE
8
BLACK
6
CONTINUOUS
10
101.619
20
-38.3023
11
101.499
21
-38.4106
0
LINE
8
BLACK
6
CONTINUOUS
10
101.499
20
-38.4106
11
101.399
21
-38.5382
0
LINE
8
BLACK
6
CONTINUOUS
10
101.399
20
-38.5382
11
101.323
21
-38.6811
0
LINE
8
BLACK
6
CONTINUOUS
10
101.323
20
-38.6811
11
101.273
21
-38.835
0
LINE
8
BLACK
6
CONTINUOUS
10
101.273
20
-38.835
11
101.251
21
-38.9953
0
LINE
8
BLACK
6
CONTINUOUS
10
101.251
20
-38.9953
11
101.254
21
-39.0761
0
LINE
8
BLACK
6
CONTINUOUS
10
101.254
20
-39.0761
11
101.254
21
-39.0761
0
LINE
8
BLACK
6
CONTINUOUS
10
101.254
20
-39.0761
11
101.707
21
-52.0682
0
LINE
8
BLACK
6
CONTINUOUS
10
101.707
20
-52.0682
11
101.707
21
-52.0685
0
LINE
8
BLACK
6
CONTINUOUS
10
101.707
20
-52.0685
11
101.71
21
-52.1491
0
LINE
8
BLACK
6
CONTINUOUS
10
101.71
20
-52.1491
11
101.744
21
-52.3074
0
LINE
8
BLACK
6
CONTINUOUS
10
101.744
20
-52.3074
11
101.804
21
-52.4575
0
LINE
8
BLACK
6
CONTINUOUS
10
101.804
20
-52.4575
11
101.89
21
-52.5947
0
LINE
8
BLACK
6
CONTINUOUS
10
101.89
20
-52.5947
11
101.999
21
-52.715
0
LINE
8
BLACK
6
CONTINUOUS
10
101.999
20
-52.715
11
102.126
21
-52.8147
0
LINE
8
BLACK
6
CONTINUOUS
10
102.126
20
-52.8147
11
102.269
21
-52.8907
0
LINE
8
BLACK
6
CONTINUOUS
10
102.269
20
-52.8907
11
102.423
21
-52.9407
0
LINE
8
BLACK
6
CONTINUOUS
10
102.423
20
-52.9407
11
102.583
21
-52.9632
0
LINE
8
BLACK
6
CONTINUOUS
10
102.583
20
-52.9632
11
102.664
21
-52.9604
0
LINE
8
BLACK
6
CONTINUOUS
10
102.664
20
-52.9604
11
102.664
21
-52.9604
0
LINE
8
BLACK
6
CONTINUOUS
10
102.664
20
-52.9604
11
102.664
21
-52.9604
0
LINE
8
BLACK
6
CONTINUOUS
10
102.664
20
-52.9604
11
102.664
21
-52.9604
0
LINE
8
BLACK
6
CONTINUOUS
10
102.664
20
-52.9604
11
115.656
21
-52.5067
0
LINE
8
BLACK
6
CONTINUOUS
10
115.656
20
-52.5067
11
115.656
21
-52.5067
0
LINE
8
BLACK
6
CONTINUOUS
10
115.656
20
-52.5067
11
115.656
21
-52.5066
0
LINE
8
BLACK
6
CONTINUOUS
10
115.656
20
-52.5066
11
115.737
21
-52.5038
0
LINE
8
BLACK
6
CONTINUOUS
10
115.737
20
-52.5038
11
115.895
21
-52.4702
0
LINE
8
BLACK
6
CONTINUOUS
10
115.895
20
-52.4702
11
116.045
21
-52.4095
0
LINE
8
BLACK
6
CONTINUOUS
10
116.045
20
-52.4095
11
116.183
21
-52.3238
0
LINE
8
BLACK
6
CONTINUOUS
10
116.183
20
-52.3238
11
116.303
21
-52.2155
0
LINE
8
BLACK
6
CONTINUOUS
10
116.303
20
-52.2155
11
116.403
21
-52.0879
0
LINE
8
BLACK
6
CONTINUOUS
10
116.403
20
-52.0879
11
116.479
21
-51.945
0
LINE
8
BLACK
6
CONTINUOUS
10
116.479
20
-51.945
11
116.529
21
-51.7911
0
LINE
8
BLACK
6
CONTINUOUS
10
116.529
20
-51.7911
11
116.551
21
-51.6308
0
LINE
8
BLACK
6
CONTINUOUS
10
116.551
20
-51.6308
11
116.548
21
-51.55
0
LINE
8
BLACK
6
CONTINUOUS
10
116.548
20
-51.55
11
116.548
21
-51.55
0
LINE
8
BLACK
6
CONTINUOUS
10
116.548
20
-51.55
11
116.095
21
-38.5579
0
LINE
8
BLACK
6
CONTINUOUS
10
116.095
20
-38.5579
11
116.095
21
-38.5577
0
LINE
8
BLACK
6
CONTINUOUS
10
116.095
20
-38.5577
11
116.092
21
-38.477
0
LINE
8
BLACK
6
CONTINUOUS
10
116.092
20
-38.477
11
116.058
21
-38.3187
0
LINE
8
BLACK
6
CONTINUOUS
10
116.058
20
-38.3187
11
115.998
21
-38.1686
0
LINE
8
BLACK
6
CONTINUOUS
10
115.998
20
-38.1686
11
115.912
21
-38.0314
0
LINE
8
BLACK
6
CONTINUOUS
10
115.912
20
-38.0314
11
115.803
21
-37.9111
0
LINE
8
BLACK
6
CONTINUOUS
10
115.803
20
-37.9111
11
115.676
21
-37.8114
0
LINE
8
BLACK
6
CONTINUOUS
10
115.676
20
-37.8114
11
115.533
21
-37.7354
0
LINE
8
BLACK
6
CONTINUOUS
10
115.533
20
-37.7354
11
115.379
21
-37.6854
0
LINE
8
BLACK
6
CONTINUOUS
10
115.379
20
-37.6854
11
115.219
21
-37.6629
0
LINE
8
BLACK
6
CONTINUOUS
10
115.219
20
-37.6629
11
115.138
21
-37.6657
0
LINE
8
BLACK
6
CONTINUOUS
10
94.3486
20
-29.5927
11
94.3486
21
-29.5927
0
LINE
8
BLACK
6
CONTINUOUS
10
94.3486
20
-29.5927
11
94.536
21
-29.596
0
LINE
8
BLACK
6
CONTINUOUS
10
94.536
20
-29.596
11
94.7199
21
-29.6317
0
LINE
8
BLACK
6
CONTINUOUS
10
94.7199
20
-29.6317
11
94.8949
21
-29.6989
0
LINE
8
BLACK
6
CONTINUOUS
10
94.8949
20
-29.6989
11
95.0555
21
-29.7954
0
LINE
8
BLACK
6
CONTINUOUS
10
95.0555
20
-29.7954
11
95.1969
21
-29.9183
0
LINE
8
BLACK
6
CONTINUOUS
10
95.1969
20
-29.9183
11
95.3148
21
-30.064
0
LINE
8
BLACK
6
CONTINUOUS
10
95.3148
20
-30.064
11
95.4057
21
-30.2278
0
LINE
8
BLACK
6
CONTINUOUS
10
95.4057
20
-30.2278
11
95.4667
21
-30.405
0
LINE
8
BLACK
6
CONTINUOUS
10
95.4667
20
-30.405
11
95.496
21
-30.5901
0
LINE
8
BLACK
6
CONTINUOUS
10
95.496
20
-30.5901
11
95.496
21
-30.5901
0
LINE
8
BLACK
6
CONTINUOUS
10
95.496
20
-30.5901
11
96.4028
21
-43.5584
0
LINE
8
BLACK
6
CONTINUOUS
10
96.4028
20
-43.5584
11
96.4028
21
-43.5584
0
LINE
8
BLACK
6
CONTINUOUS
10
96.4028
20
-43.5584
11
96.4028
21
-43.5584
0
LINE
8
BLACK
6
CONTINUOUS
10
96.4028
20
-43.5584
11
96.3996
21
-43.7458
0
LINE
8
BLACK
6
CONTINUOUS
10
96.3996
20
-43.7458
11
96.3638
21
-43.9297
0
LINE
8
BLACK
6
CONTINUOUS
10
96.3638
20
-43.9297
11
96.2966
21
-44.1047
0
LINE
8
BLACK
6
CONTINUOUS
10
96.2966
20
-44.1047
11
96.2001
21
-44.2653
0
LINE
8
BLACK
6
CONTINUOUS
10
96.2001
20
-44.2653
11
96.0772
21
-44.4067
0
LINE
8
BLACK
6
CONTINUOUS
10
96.0772
20
-44.4067
11
95.9316
21
-44.5246
0
LINE
8
BLACK
6
CONTINUOUS
10
95.9316
20
-44.5246
11
95.7677
21
-44.6155
0
LINE
8
BLACK
6
CONTINUOUS
10
95.7677
20
-44.6155
11
95.5905
21
-44.6765
0
LINE
8
BLACK
6
CONTINUOUS
10
95.5905
20
-44.6765
11
95.4054
21
-44.7058
0
LINE
8
BLACK
6
CONTINUOUS
10
95.4054
20
-44.7058
11
95.4054
21
-44.7058
0
LINE
8
BLACK
6
CONTINUOUS
10
95.4054
20
-44.7058
11
95.4054
21
-44.7058
0
LINE
8
BLACK
6
CONTINUOUS
10
95.4054
20
-44.7058
11
95.4054
21
-44.7058
0
LINE
8
BLACK
6
CONTINUOUS
10
95.4054
20
-44.7058
11
82.4371
21
-45.6126
0
LINE
8
BLACK
6
CONTINUOUS
10
82.4371
20
-45.6126
11
82.4371
21
-45.6126
0
LINE
8
BLACK
6
CONTINUOUS
10
82.4371
20
-45.6126
11
82.4371
21
-45.6126
0
LINE
8
BLACK
6
CONTINUOUS
10
82.4371
20
-45.6126
11
82.2497
21
-45.6094
0
LINE
8
BLACK
6
CONTINUOUS
10
82.2497
20
-45.6094
11
82.0658
21
-45.5736
0
LINE
8
BLACK
6
CONTINUOUS
10
82.0658
20
-45.5736
11
81.8909
21
-45.5065
0
LINE
8
BLACK
6
CONTINUOUS
10
81.8909
20
-45.5065
11
81.7302
21
-45.41
0
LINE
8
BLACK
6
CONTINUOUS
10
81.7302
20
-45.41
11
81.5888
21
-45.287
0
LINE
8
BLACK
6
CONTINUOUS
10
81.5888
20
-45.287
11
81.4709
21
-45.1414
0
LINE
8
BLACK
6
CONTINUOUS
10
81.4709
20
-45.1414
11
81.38
21
-44.9775
0
LINE
8
BLACK
6
CONTINUOUS
10
81.38
20
-44.9775
11
81.319
21
-44.8003
0
LINE
8
BLACK
6
CONTINUOUS
10
81.319
20
-44.8003
11
81.2897
21
-44.6152
0
LINE
8
BLACK
6
CONTINUOUS
10
81.2897
20
-44.6152
11
81.2897
21
-44.6152
0
LINE
8
BLACK
6
CONTINUOUS
10
81.2897
20
-44.6152
11
81.2897
21
-44.6152
0
LINE
8
BLACK
6
CONTINUOUS
10
81.2897
20
-44.6152
11
81.2897
21
-44.6152
0
LINE
8
BLACK
6
CONTINUOUS
10
81.2897
20
-44.6152
11
80.3829
21
-31.6469
0
LINE
8
BLACK
6
CONTINUOUS
10
80.3829
20
-31.6469
11
80.3829
21
-31.6469
0
LINE
8
BLACK
6
CONTINUOUS
10
80.3829
20
-31.6469
11
80.3862
21
-31.4596
0
LINE
8
BLACK
6
CONTINUOUS
10
80.3862
20
-31.4596
11
80.4219
21
-31.2756
0
LINE
8
BLACK
6
CONTINUOUS
10
80.4219
20
-31.2756
11
80.4891
21
-31.1007
0
LINE
8
BLACK
6
CONTINUOUS
10
80.4891
20
-31.1007
11
80.5856
21
-30.94
0
LINE
8
BLACK
6
CONTINUOUS
10
80.5856
20
-30.94
11
80.7085
21
-30.7986
0
LINE
8
BLACK
6
CONTINUOUS
10
80.7085
20
-30.7986
11
80.8541
21
-30.6807
0
LINE
8
BLACK
6
CONTINUOUS
10
80.8541
20
-30.6807
11
81.018
21
-30.5898
0
LINE
8
BLACK
6
CONTINUOUS
10
81.018
20
-30.5898
11
81.1952
21
-30.5288
0
LINE
8
BLACK
6
CONTINUOUS
10
81.1952
20
-30.5288
11
81.3803
21
-30.4995
0
LINE
8
BLACK
6
CONTINUOUS
10
81.3803
20
-30.4995
11
81.3803
21
-30.4995
0
LINE
8
BLACK
6
CONTINUOUS
10
81.3803
20
-30.4995
11
81.3803
21
-30.4995
0
LINE
8
BLACK
6
CONTINUOUS
10
81.3803
20
-30.4995
11
94.3486
21
-29.5927
0
LINE
8
BLACK
6
CONTINUOUS
10
94.3486
20
-29.5927
11
94.3486
21
-29.5927
0
LINE
8
BLACK
6
CONTINUOUS
10
94.3591
20
-29.7423
11
94.3591
21
-29.7423
0
LINE
8
BLACK
6
CONTINUOUS
10
94.3591
20
-29.7423
11
81.3908
21
-30.6492
0
LINE
8
BLACK
6
CONTINUOUS
10
81.3908
20
-30.6492
11
81.3908
21
-30.6492
0
LINE
8
BLACK
6
CONTINUOUS
10
81.3908
20
-30.6492
11
81.3908
21
-30.6492
0
LINE
8
BLACK
6
CONTINUOUS
10
81.3908
20
-30.6492
11
81.3908
21
-30.6492
0
LINE
8
BLACK
6
CONTINUOUS
10
81.3908
20
-30.6492
11
81.3905
21
-30.6491
0
LINE
8
BLACK
6
CONTINUOUS
10
81.3905
20
-30.6491
11
81.31
21
-30.6548
0
LINE
8
BLACK
6
CONTINUOUS
10
81.31
20
-30.6548
11
81.153
21
-30.6939
0
LINE
8
BLACK
6
CONTINUOUS
10
81.153
20
-30.6939
11
81.0051
21
-30.7598
0
LINE
8
BLACK
6
CONTINUOUS
10
81.0051
20
-30.7598
11
80.8709
21
-30.8503
0
LINE
8
BLACK
6
CONTINUOUS
10
80.8709
20
-30.8503
11
80.7545
21
-30.9627
0
LINE
8
BLACK
6
CONTINUOUS
10
80.7545
20
-30.9627
11
80.6594
21
-31.0937
0
LINE
8
BLACK
6
CONTINUOUS
10
80.6594
20
-31.0937
11
80.5884
21
-31.2392
0
LINE
8
BLACK
6
CONTINUOUS
10
80.5884
20
-31.2392
11
80.5438
21
-31.3947
0
LINE
8
BLACK
6
CONTINUOUS
10
80.5438
20
-31.3947
11
80.5269
21
-31.5557
0
LINE
8
BLACK
6
CONTINUOUS
10
80.5269
20
-31.5557
11
80.5325
21
-31.6364
0
LINE
8
BLACK
6
CONTINUOUS
10
80.5325
20
-31.6364
11
80.5325
21
-31.6364
0
LINE
8
BLACK
6
CONTINUOUS
10
80.5325
20
-31.6364
11
81.4394
21
-44.6048
0
LINE
8
BLACK
6
CONTINUOUS
10
81.4394
20
-44.6048
11
81.4393
21
-44.6051
0
LINE
8
BLACK
6
CONTINUOUS
10
81.4393
20
-44.6051
11
81.445
21
-44.6855
0
LINE
8
BLACK
6
CONTINUOUS
10
81.445
20
-44.6855
11
81.4841
21
-44.8426
0
LINE
8
BLACK
6
CONTINUOUS
10
81.4841
20
-44.8426
11
81.55
21
-44.9904
0
LINE
8
BLACK
6
CONTINUOUS
10
81.55
20
-44.9904
11
81.6405
21
-45.1246
0
LINE
8
BLACK
6
CONTINUOUS
10
81.6405
20
-45.1246
11
81.7529
21
-45.241
0
LINE
8
BLACK
6
CONTINUOUS
10
81.7529
20
-45.241
11
81.8839
21
-45.3362
0
LINE
8
BLACK
6
CONTINUOUS
10
81.8839
20
-45.3362
11
82.0293
21
-45.4071
0
LINE
8
BLACK
6
CONTINUOUS
10
82.0293
20
-45.4071
11
82.1849
21
-45.4517
0
LINE
8
BLACK
6
CONTINUOUS
10
82.1849
20
-45.4517
11
82.3459
21
-45.4686
0
LINE
8
BLACK
6
CONTINUOUS
10
82.3459
20
-45.4686
11
82.4266
21
-45.463
0
LINE
8
BLACK
6
CONTINUOUS
10
82.4266
20
-45.463
11
82.4266
21
-45.463
0
LINE
8
BLACK
6
CONTINUOUS
10
82.4266
20
-45.463
11
82.4266
21
-45.463
0
LINE
8
BLACK
6
CONTINUOUS
10
82.4266
20
-45.463
11
95.395
21
-44.5562
0
LINE
8
BLACK
6
CONTINUOUS
10
95.395
20
-44.5562
11
95.395
21
-44.5562
0
LINE
8
BLACK
6
CONTINUOUS
10
95.395
20
-44.5562
11
95.395
21
-44.5562
0
LINE
8
BLACK
6
CONTINUOUS
10
95.395
20
-44.5562
11
95.3951
21
-44.5562
0
LINE
8
BLACK
6
CONTINUOUS
10
95.3951
20
-44.5562
11
95.4757
21
-44.5505
0
LINE
8
BLACK
6
CONTINUOUS
10
95.4757
20
-44.5505
11
95.6327
21
-44.5114
0
LINE
8
BLACK
6
CONTINUOUS
10
95.6327
20
-44.5114
11
95.7806
21
-44.4455
0
LINE
8
BLACK
6
CONTINUOUS
10
95.7806
20
-44.4455
11
95.9148
21
-44.355
0
LINE
8
BLACK
6
CONTINUOUS
10
95.9148
20
-44.355
11
96.0312
21
-44.2426
0
LINE
8
BLACK
6
CONTINUOUS
10
96.0312
20
-44.2426
11
96.1264
21
-44.1116
0
LINE
8
BLACK
6
CONTINUOUS
10
96.1264
20
-44.1116
11
96.1973
21
-43.9662
0
LINE
8
BLACK
6
CONTINUOUS
10
96.1973
20
-43.9662
11
96.2419
21
-43.8106
0
LINE
8
BLACK
6
CONTINUOUS
10
96.2419
20
-43.8106
11
96.2588
21
-43.6496
0
LINE
8
BLACK
6
CONTINUOUS
10
96.2588
20
-43.6496
11
96.2532
21
-43.5689
0
LINE
8
BLACK
6
CONTINUOUS
10
96.2532
20
-43.5689
11
96.2532
21
-43.5689
0
LINE
8
BLACK
6
CONTINUOUS
10
96.2532
20
-43.5689
11
95.3464
21
-30.6006
0
LINE
8
BLACK
6
CONTINUOUS
10
95.3464
20
-30.6006
11
95.3464
21
-30.6006
0
LINE
8
BLACK
6
CONTINUOUS
10
95.3464
20
-30.6006
11
95.3407
21
-30.5198
0
LINE
8
BLACK
6
CONTINUOUS
10
95.3407
20
-30.5198
11
95.3016
21
-30.3628
0
LINE
8
BLACK
6
CONTINUOUS
10
95.3016
20
-30.3628
11
95.2357
21
-30.2149
0
LINE
8
BLACK
6
CONTINUOUS
10
95.2357
20
-30.2149
11
95.1452
21
-30.0807
0
LINE
8
BLACK
6
CONTINUOUS
10
95.1452
20
-30.0807
11
95.0328
21
-29.9643
0
LINE
8
BLACK
6
CONTINUOUS
10
95.0328
20
-29.9643
11
94.9018
21
-29.8692
0
LINE
8
BLACK
6
CONTINUOUS
10
94.9018
20
-29.8692
11
94.7564
21
-29.7982
0
LINE
8
BLACK
6
CONTINUOUS
10
94.7564
20
-29.7982
11
94.6008
21
-29.7536
0
LINE
8
BLACK
6
CONTINUOUS
10
94.6008
20
-29.7536
11
94.4398
21
-29.7367
0
LINE
8
BLACK
6
CONTINUOUS
10
94.4398
20
-29.7367
11
94.3591
21
-29.7423
  0
ENDSEC
  0
EOF
