<?xml version="1.0" standalone="no"?>
 <!DOCTYPE svg PUBLIC "-//W3C//DTD SVG 1.1//EN" 
 "http://www.w3.org/Graphics/SVG/1.1/DTD/svg11.dtd"> 
<svg
  xmlns:svg="http://www.w3.org/2000/svg"
  xmlns="http://www.w3.org/2000/svg"
  xmlns:xlink="http://www.w3.org/1999/xlink"
  version="1.1"
  width="159.9184mm" height="117.2718mm" viewBox="0.0000 0.0000 159.9184 117.2718">
<title>SVG Image created as nightliner-Edge_Cuts.svg date 2023/10/29 01:29:25 </title>
  <desc>Image generated by PCBNEW </desc>
<g style="fill:#000000; fill-opacity:1.0000;stroke:#000000; stroke-opacity:1.0000;
stroke-linecap:round; stroke-linejoin:round;"
 transform="translate(0 0) scale(1 1)">
</g>
<g style="fill:#000000; fill-opacity:0.0; 
stroke:#000000; stroke-width:0.0000; stroke-opacity:1; 
stroke-linecap:round; stroke-linejoin:round;">
</g>
<g style="fill:#000000; fill-opacity:0.0; 
stroke:#000000; stroke-width:0.2000; stroke-opacity:1; 
stroke-linecap:round; stroke-linejoin:round;">
<path d="M56.8212 1.7765 A1.0001 1.0001 0.0 0 0 55.8934 2.8439" />
<path d="M0.9264 46.6284
L18.7388 43.4876
" />
<path d="M55.8934 2.8439
L56.5481 12.2058
" />
<path d="M153.9852 69.9111
L152.9852 69.9111
" />
<path d="M83.3443 8.8499
L101.7494 8.2072
" />
<path d="M121.7112 102.9471
L137.3578 115.9718
" />
<path d="M18.5027 34.8736
L19.5554 42.3636
" />
<path d="M37.5312 15.1750
L55.6550 13.2701
" />
<path d="M0.9264 46.6284 A1.0000 1.0000 0.0 0 0 0.1152 47.7869" />
<path d="M154.9853 86.7111 A1.0000 1.0000 0.0 0 0 153.9852 85.7111" />
<path d="M82.3119 7.9203 A0.9999 0.9999 0.0 0 0 83.3443 8.8499" />
<path d="M0.1152 47.7869
L8.5806 95.7968
" />
<path d="M48.8428 74.5592 A1.0000 1.0000 0.0 0 0 47.9721 75.6736" />
<path d="M81.8301 1.0302
L82.3119 7.9203
" />
<path d="M47.9721 75.6736
L50.4558 95.4473
" />
<path d="M82.2074 91.3445
L79.7365 71.7701
" />
<path d="M102.9295 13.3460 A1.0001 1.0001 0.0 0 0 103.9289 14.3111" />
<path d="M19.3538 33.7441
L37.2427 31.2300
" />
<path d="M104.3724 98.3333
L121.7112 102.9471
" />
<path d="M37.2427 31.2300 A0.9999 0.9999 0.0 0 0 38.0981 30.1352" />
<path d="M81.8301 1.0302 A1.0000 1.0000 0.0 0 0 80.7628 0.1024" />
<path d="M51.3738 96.0986
L81.2995 92.6298
" />
<path d="M79.7365 71.7701 A1.0000 1.0000 0.0 0 0 78.6225 70.9027" />
<path d="M80.1479 96.6105
L9.5658 96.6232
" />
<path d="M81.0912 97.4264
L81.7992 101.3717
" />
<path d="M138.7666 115.8485
L154.6359 96.9863
" />
<path d="M152.9852 85.7111
L153.9852 85.7111
" />
<path d="M137.3578 115.9718 A1.0000 1.0000 0.0 0 0 138.7666 115.8485" />
<path d="M102.7837 9.1717
L102.9295 13.3460
" />
<path d="M50.4558 95.4473 A0.8258 0.8258 0.0 0 0 51.3738 96.0986" />
<path d="M37.5312 15.1750 A1.0001 1.0001 0.0 0 0 36.6412 16.2740" />
<path d="M56.8212 1.7766
L80.7628 0.1024
" />
<path d="M18.7387 43.4875 A1.0000 1.0000 0.0 0 0 19.5554 42.3636" />
<path d="M19.3538 33.7442 A1.0000 1.0000 0.0 0 0 18.5027 34.8736" />
<path d="M82.9577 102.1828
L104.3724 98.3333
" />
<path d="M36.6412 16.2740
L38.0981 30.1352
" />
<path d="M151.9853 84.7111 A1.0000 1.0000 0.0 0 0 152.9852 85.7111" />
<path d="M154.9853 15.3111 A1.0000 1.0000 0.0 0 0 153.9852 14.3111" />
<path d="M151.9852 70.9111
L151.9852 84.7111
" />
<path d="M102.7837 9.1717 A1.0000 1.0000 0.0 0 0 101.7494 8.2072" />
<path d="M103.9289 14.3111
L153.9852 14.3111
" />
<path d="M78.6225 70.9027
L48.8428 74.5592
" />
<path d="M152.9852 69.9111 A0.9999 0.9999 0.0 0 0 151.9852 70.9111" />
<path d="M81.2995 92.6298 A1.0417 1.0417 0.0 0 0 82.2074 91.3445" />
<path d="M154.9852 15.3111
L154.9852 68.9111
" />
<path d="M81.0912 97.4264 A0.9879 0.9879 0.0 0 0 80.1479 96.6105" />
<path d="M8.5806 95.7968 A1.0000 1.0000 0.0 0 0 9.5658 96.6232" />
<path d="M81.7992 101.3717 A1.0000 1.0000 0.0 0 0 82.9577 102.1828" />
<path d="M55.6550 13.2701 A1.0001 1.0001 0.0 0 0 56.5481 12.2058" />
<path d="M153.9852 69.9111 A1.0000 1.0000 0.0 0 0 154.9852 68.9111" />
<path d="M154.6359 96.9864 A1.4081 1.4081 0.0 0 0 154.9863 96.0330" />
<path d="M154.9852 86.7111
L154.9863 96.0330
" />
<g >
</g>
<g >
</g>
<g >
</g>
<g >
</g>
<g >
</g>
<g >
</g>
<g >
</g>
<g >
</g>
<g >
</g>
<g >
</g>
<g >
</g>
<g >
</g>
<g >
</g>
<g >
</g>
<g >
</g>
<g >
</g>
<g >
</g>
<g >
</g>
<g >
</g>
<g >
</g>
<g >
</g>
<g >
</g>
<g >
</g>
<g >
</g>
<g >
</g>
<g >
</g>
<g >
</g>
<g >
</g>
<g >
</g>
<g >
</g>
<g >
</g>
<g >
</g>
<g >
</g>
<g >
</g>
<g >
</g>
<g >
</g>
<g >
</g>
<g >
</g>
<g >
</g>
<g >
</g>
<g >
</g>
<g >
</g>
<g >
</g>
<g >
</g>
<g >
</g>
<g >
</g>
<g >
</g>
<g >
</g>
<g >
</g>
<g >
</g>
<g >
</g>
<g >
</g>
<g >
</g>
<g >
</g>
<g >
</g>
<g >
</g>
<g >
</g>
<g >
</g>
<g >
</g>
<g >
</g>
<g >
</g>
<g >
</g>
<g >
</g>
<g >
</g>
<g >
</g>
<g >
</g>
<g >
</g>
<g >
</g>
<g >
</g>
<g >
</g>
<g >
</g>
<g >
</g>
<g >
</g>
<g >
</g>
<g >
</g>
<g >
</g>
<g >
</g>
<g >
</g>
<g >
</g>
<g >
</g>
<g >
</g>
<g >
</g>
<g >
</g>
<g >
</g>
</g> 
</svg>
