M48
; DRILL file {KiCad 7.0.7} date 2023 December 03, Sunday 19:38:24
; FORMAT={-:-/ absolute / inch / decimal}
; #@! TF.CreationDate,2023-12-03T19:38:24+01:00
; #@! TF.GenerationSoftware,Kicad,Pcbnew,7.0.7
; #@! TF.FileFunction,NonPlated,1,2,NPTH
FMAT,2
INCH
; #@! TA.AperFunction,NonPlated,NPTH,ComponentDrill
T1C0.0256
; #@! TA.AperFunction,NonPlated,NPTH,ComponentDrill
T2C0.0669
; #@! TA.AperFunction,NonPlated,NPTH,ComponentDrill
T3C0.0945
; #@! TA.AperFunction,NonPlated,NPTH,ComponentDrill
T4C0.1004
; #@! TA.AperFunction,NonPlated,NPTH,ComponentDrill
T5C0.1181
; #@! TA.AperFunction,NonPlated,NPTH,ComponentDrill
T6C0.1339
; #@! TA.AperFunction,NonPlated,NPTH,ComponentDrill
T7C0.2362
%
G90
G05
T1
X1.6162Y-1.7624
X1.8438Y-1.7624
T2
X1.9477Y-4.9552
X2.2795Y-4.6768
X2.7241Y-4.4626
X2.9301Y-2.0281
X2.9301Y-2.7447
X2.9301Y-3.4612
X3.1424Y-4.3505
X3.3632Y-2.0281
X3.3632Y-2.7447
X3.3632Y-3.4612
X3.636Y-4.3443
X3.6728Y-3.2286
X3.6978Y-2.5125
X3.7228Y-1.7964
X4.0625Y-4.4195
X4.1056Y-3.2437
X4.1306Y-2.5276
X4.1556Y-1.8115
X4.4307Y-2.9149
X4.4807Y-2.2001
X4.5306Y-1.4853
X4.8627Y-2.9451
X4.9127Y-2.2303
X4.9627Y-1.5155
X5.1245Y-3.4125
X5.1994Y-2.6999
X5.2743Y-1.9873
X5.5552Y-3.4578
X5.6301Y-2.7452
X5.705Y-2.0326
X5.7755Y-4.1114
X5.8752Y-3.4019
X5.975Y-2.6923
X6.2044Y-4.1717
X6.3041Y-3.4621
X6.4038Y-2.7526
X6.562Y-3.8786
X6.6864Y-3.173
X6.9885Y-3.9538
X7.1129Y-3.2482
T3
X2.6636Y-4.9235
X3.4364Y-4.7165
T4
X1.6578Y-2.3485
X1.6578Y-2.9784
T5
X1.9643Y-4.6381
X2.1682Y-4.5749
X2.8732Y-4.1822
X3.0847Y-4.2111
X3.1467Y-1.7958
X3.1467Y-2.5124
X3.1467Y-3.2289
X3.3435Y-1.8785
X3.3435Y-2.595
X3.3435Y-3.3116
X3.8896Y-4.1532
X3.8973Y-3.004
X3.9223Y-2.2879
X3.9474Y-1.5718
X4.0691Y-4.2688
X4.0912Y-3.0935
X4.1162Y-2.3774
X4.1412Y-1.6613
X4.6629Y-2.6983
X4.7129Y-1.9835
X4.7629Y-1.2687
X4.8535Y-2.7945
X4.9035Y-2.0797
X4.9535Y-1.3649
X5.3641Y-3.2041
X5.439Y-2.4915
X5.5139Y-1.7789
X5.5512Y-3.3069
X5.6261Y-2.5943
X5.701Y-1.8817
X6.0223Y-3.9115
X6.122Y-3.202
X6.2057Y-4.0208
X6.2217Y-2.4924
X6.3054Y-3.3112
X6.4051Y-2.6017
X6.8156Y-3.6875
X6.94Y-2.9818
X6.9951Y-3.8031
X7.1195Y-3.0974
T6
X2.1136Y-4.816
X2.9333Y-4.4066
X3.1467Y-2.0281
X3.1467Y-2.7447
X3.1467Y-3.4612
X3.8492Y-4.3819
X3.8892Y-3.2362
X3.9142Y-2.5201
X3.9392Y-1.804
X4.6467Y-2.93
X4.6967Y-2.2152
X4.7467Y-1.5004
X5.3398Y-3.4351
X5.4147Y-2.7225
X5.4896Y-2.0099
X5.9899Y-4.1416
X6.0897Y-3.432
X6.1894Y-2.7224
X6.7753Y-3.9162
X6.8997Y-3.2106
T7
X2.5Y-4.56
X3.5Y-3.1
X4.21Y-3.97
X4.34Y-1.87
X5.0267Y-3.04
X5.8767Y-2.29
X6.5Y-3.13
T0
M30
