%TF.GenerationSoftware,KiCad,Pcbnew,7.0.7*%
%TF.CreationDate,2023-12-03T19:38:24+01:00*%
%TF.ProjectId,nightliner,6e696768-746c-4696-9e65-722e6b696361,rev?*%
%TF.SameCoordinates,Original*%
%TF.FileFunction,Legend,Bot*%
%TF.FilePolarity,Positive*%
%FSLAX46Y46*%
G04 Gerber Fmt 4.6, Leading zero omitted, Abs format (unit mm)*
G04 Created by KiCad (PCBNEW 7.0.7) date 2023-12-03 19:38:24*
%MOMM*%
%LPD*%
G01*
G04 APERTURE LIST*
G04 Aperture macros list*
%AMRoundRect*
0 Rectangle with rounded corners*
0 $1 Rounding radius*
0 $2 $3 $4 $5 $6 $7 $8 $9 X,Y pos of 4 corners*
0 Add a 4 corners polygon primitive as box body*
4,1,4,$2,$3,$4,$5,$6,$7,$8,$9,$2,$3,0*
0 Add four circle primitives for the rounded corners*
1,1,$1+$1,$2,$3*
1,1,$1+$1,$4,$5*
1,1,$1+$1,$6,$7*
1,1,$1+$1,$8,$9*
0 Add four rect primitives between the rounded corners*
20,1,$1+$1,$2,$3,$4,$5,0*
20,1,$1+$1,$4,$5,$6,$7,0*
20,1,$1+$1,$6,$7,$8,$9,0*
20,1,$1+$1,$8,$9,$2,$3,0*%
%AMRotRect*
0 Rectangle, with rotation*
0 The origin of the aperture is its center*
0 $1 length*
0 $2 width*
0 $3 Rotation angle, in degrees counterclockwise*
0 Add horizontal line*
21,1,$1,$2,0,0,$3*%
G04 Aperture macros list end*
%ADD10C,0.150000*%
%ADD11C,0.120000*%
%ADD12C,0.125000*%
%ADD13C,0.650000*%
%ADD14O,1.000000X2.100000*%
%ADD15O,1.000000X1.600000*%
%ADD16C,1.700000*%
%ADD17C,3.000000*%
%ADD18C,3.400000*%
%ADD19RotRect,2.600000X2.600000X352.000000*%
%ADD20RotRect,2.600000X2.600000X354.000000*%
%ADD21R,0.700000X1.000000*%
%ADD22RotRect,2.600000X2.600000X356.000000*%
%ADD23RotRect,2.600000X2.600000X350.000000*%
%ADD24RotRect,2.600000X2.600000X40.000000*%
%ADD25R,2.600000X2.600000*%
%ADD26RotRect,2.600000X2.600000X15.000000*%
%ADD27RotRect,2.600000X2.600000X358.000000*%
%ADD28RoundRect,0.250000X0.725000X-0.600000X0.725000X0.600000X-0.725000X0.600000X-0.725000X-0.600000X0*%
%ADD29O,1.950000X1.700000*%
%ADD30C,6.000000*%
%ADD31C,2.400000*%
%ADD32C,1.500000*%
%ADD33R,1.300000X1.300000*%
%ADD34C,1.300000*%
%ADD35C,2.000000*%
%ADD36R,1.100000X1.100000*%
%ADD37C,1.100000*%
G04 APERTURE END LIST*
D10*
X62328398Y-40396438D02*
X62423636Y-40348819D01*
X62423636Y-40348819D02*
X62566493Y-40348819D01*
X62566493Y-40348819D02*
X62709350Y-40396438D01*
X62709350Y-40396438D02*
X62804588Y-40491676D01*
X62804588Y-40491676D02*
X62852207Y-40586914D01*
X62852207Y-40586914D02*
X62899826Y-40777390D01*
X62899826Y-40777390D02*
X62899826Y-40920247D01*
X62899826Y-40920247D02*
X62852207Y-41110723D01*
X62852207Y-41110723D02*
X62804588Y-41205961D01*
X62804588Y-41205961D02*
X62709350Y-41301200D01*
X62709350Y-41301200D02*
X62566493Y-41348819D01*
X62566493Y-41348819D02*
X62471255Y-41348819D01*
X62471255Y-41348819D02*
X62328398Y-41301200D01*
X62328398Y-41301200D02*
X62280779Y-41253580D01*
X62280779Y-41253580D02*
X62280779Y-40920247D01*
X62280779Y-40920247D02*
X62471255Y-40920247D01*
X61852207Y-41348819D02*
X61852207Y-40348819D01*
X61852207Y-40348819D02*
X61280779Y-41348819D01*
X61280779Y-41348819D02*
X61280779Y-40348819D01*
X60804588Y-41348819D02*
X60804588Y-40348819D01*
X60804588Y-40348819D02*
X60566493Y-40348819D01*
X60566493Y-40348819D02*
X60423636Y-40396438D01*
X60423636Y-40396438D02*
X60328398Y-40491676D01*
X60328398Y-40491676D02*
X60280779Y-40586914D01*
X60280779Y-40586914D02*
X60233160Y-40777390D01*
X60233160Y-40777390D02*
X60233160Y-40920247D01*
X60233160Y-40920247D02*
X60280779Y-41110723D01*
X60280779Y-41110723D02*
X60328398Y-41205961D01*
X60328398Y-41205961D02*
X60423636Y-41301200D01*
X60423636Y-41301200D02*
X60566493Y-41348819D01*
X60566493Y-41348819D02*
X60804588Y-41348819D01*
D11*
X124926814Y-117854331D02*
X124968481Y-117806712D01*
X124968481Y-117806712D02*
X125045862Y-117663855D01*
X125045862Y-117663855D02*
X125081576Y-117568617D01*
X125081576Y-117568617D02*
X125111338Y-117425760D01*
X125111338Y-117425760D02*
X125129195Y-117187664D01*
X125129195Y-117187664D02*
X125105386Y-116997188D01*
X125105386Y-116997188D02*
X125028005Y-116759093D01*
X125028005Y-116759093D02*
X124962529Y-116616236D01*
X124962529Y-116616236D02*
X124903005Y-116520998D01*
X124903005Y-116520998D02*
X124789910Y-116378140D01*
X124789910Y-116378140D02*
X124736338Y-116330521D01*
X124432766Y-116949569D02*
X124099433Y-116949569D01*
X124022052Y-117473379D02*
X124498243Y-117473379D01*
X124498243Y-117473379D02*
X124373243Y-116473379D01*
X124373243Y-116473379D02*
X123897052Y-116473379D01*
X123593481Y-117473379D02*
X123510147Y-116806712D01*
X123522052Y-116901950D02*
X123468481Y-116854331D01*
X123468481Y-116854331D02*
X123367290Y-116806712D01*
X123367290Y-116806712D02*
X123224433Y-116806712D01*
X123224433Y-116806712D02*
X123135147Y-116854331D01*
X123135147Y-116854331D02*
X123099433Y-116949569D01*
X123099433Y-116949569D02*
X123164909Y-117473379D01*
X123099433Y-116949569D02*
X123039909Y-116854331D01*
X123039909Y-116854331D02*
X122938719Y-116806712D01*
X122938719Y-116806712D02*
X122795862Y-116806712D01*
X122795862Y-116806712D02*
X122706576Y-116854331D01*
X122706576Y-116854331D02*
X122670862Y-116949569D01*
X122670862Y-116949569D02*
X122736338Y-117473379D01*
X122260148Y-117473379D02*
X122176814Y-116806712D01*
X122135148Y-116473379D02*
X122188719Y-116520998D01*
X122188719Y-116520998D02*
X122147052Y-116568617D01*
X122147052Y-116568617D02*
X122093481Y-116520998D01*
X122093481Y-116520998D02*
X122135148Y-116473379D01*
X122135148Y-116473379D02*
X122147052Y-116568617D01*
X121641101Y-117473379D02*
X121730386Y-117425760D01*
X121730386Y-117425760D02*
X121766101Y-117330521D01*
X121766101Y-117330521D02*
X121658958Y-116473379D01*
X121272052Y-116806712D02*
X121117291Y-117473379D01*
X120795862Y-116806712D02*
X121117291Y-117473379D01*
X121117291Y-117473379D02*
X121242291Y-117711474D01*
X121242291Y-117711474D02*
X121295862Y-117759093D01*
X121295862Y-117759093D02*
X121397052Y-117806712D01*
X119736338Y-117473379D02*
X119611338Y-116473379D01*
X119611338Y-116473379D02*
X119373242Y-116473379D01*
X119373242Y-116473379D02*
X119236338Y-116520998D01*
X119236338Y-116520998D02*
X119153004Y-116616236D01*
X119153004Y-116616236D02*
X119117290Y-116711474D01*
X119117290Y-116711474D02*
X119093481Y-116901950D01*
X119093481Y-116901950D02*
X119111338Y-117044807D01*
X119111338Y-117044807D02*
X119182766Y-117235283D01*
X119182766Y-117235283D02*
X119242290Y-117330521D01*
X119242290Y-117330521D02*
X119349433Y-117425760D01*
X119349433Y-117425760D02*
X119498242Y-117473379D01*
X119498242Y-117473379D02*
X119736338Y-117473379D01*
X118736338Y-117473379D02*
X118653004Y-116806712D01*
X118611338Y-116473379D02*
X118664909Y-116520998D01*
X118664909Y-116520998D02*
X118623242Y-116568617D01*
X118623242Y-116568617D02*
X118569671Y-116520998D01*
X118569671Y-116520998D02*
X118611338Y-116473379D01*
X118611338Y-116473379D02*
X118623242Y-116568617D01*
X117825624Y-117425760D02*
X117926814Y-117473379D01*
X117926814Y-117473379D02*
X118117291Y-117473379D01*
X118117291Y-117473379D02*
X118206576Y-117425760D01*
X118206576Y-117425760D02*
X118248243Y-117378140D01*
X118248243Y-117378140D02*
X118283957Y-117282902D01*
X118283957Y-117282902D02*
X118248243Y-116997188D01*
X118248243Y-116997188D02*
X118188719Y-116901950D01*
X118188719Y-116901950D02*
X118135148Y-116854331D01*
X118135148Y-116854331D02*
X118033957Y-116806712D01*
X118033957Y-116806712D02*
X117843481Y-116806712D01*
X117843481Y-116806712D02*
X117754195Y-116854331D01*
X117403005Y-117473379D02*
X117278005Y-116473379D01*
X117260148Y-117092426D02*
X117022052Y-117473379D01*
X116938719Y-116806712D02*
X117367290Y-117187664D01*
X116593481Y-117473379D02*
X116510147Y-116806712D01*
X116468481Y-116473379D02*
X116522052Y-116520998D01*
X116522052Y-116520998D02*
X116480385Y-116568617D01*
X116480385Y-116568617D02*
X116426814Y-116520998D01*
X116426814Y-116520998D02*
X116468481Y-116473379D01*
X116468481Y-116473379D02*
X116480385Y-116568617D01*
X116033957Y-116806712D02*
X116117291Y-117473379D01*
X116045862Y-116901950D02*
X115992291Y-116854331D01*
X115992291Y-116854331D02*
X115891100Y-116806712D01*
X115891100Y-116806712D02*
X115748243Y-116806712D01*
X115748243Y-116806712D02*
X115658957Y-116854331D01*
X115658957Y-116854331D02*
X115623243Y-116949569D01*
X115623243Y-116949569D02*
X115688719Y-117473379D01*
X115254195Y-117425760D02*
X115164910Y-117473379D01*
X115164910Y-117473379D02*
X114974433Y-117473379D01*
X114974433Y-117473379D02*
X114873243Y-117425760D01*
X114873243Y-117425760D02*
X114813719Y-117330521D01*
X114813719Y-117330521D02*
X114807767Y-117282902D01*
X114807767Y-117282902D02*
X114843481Y-117187664D01*
X114843481Y-117187664D02*
X114932767Y-117140045D01*
X114932767Y-117140045D02*
X115075624Y-117140045D01*
X115075624Y-117140045D02*
X115164910Y-117092426D01*
X115164910Y-117092426D02*
X115200624Y-116997188D01*
X115200624Y-116997188D02*
X115194672Y-116949569D01*
X115194672Y-116949569D02*
X115135148Y-116854331D01*
X115135148Y-116854331D02*
X115033957Y-116806712D01*
X115033957Y-116806712D02*
X114891100Y-116806712D01*
X114891100Y-116806712D02*
X114801814Y-116854331D01*
X114260148Y-117473379D02*
X114349433Y-117425760D01*
X114349433Y-117425760D02*
X114391100Y-117378140D01*
X114391100Y-117378140D02*
X114426814Y-117282902D01*
X114426814Y-117282902D02*
X114391100Y-116997188D01*
X114391100Y-116997188D02*
X114331576Y-116901950D01*
X114331576Y-116901950D02*
X114278005Y-116854331D01*
X114278005Y-116854331D02*
X114176814Y-116806712D01*
X114176814Y-116806712D02*
X114033957Y-116806712D01*
X114033957Y-116806712D02*
X113944671Y-116854331D01*
X113944671Y-116854331D02*
X113903005Y-116901950D01*
X113903005Y-116901950D02*
X113867290Y-116997188D01*
X113867290Y-116997188D02*
X113903005Y-117282902D01*
X113903005Y-117282902D02*
X113962528Y-117378140D01*
X113962528Y-117378140D02*
X114016100Y-117425760D01*
X114016100Y-117425760D02*
X114117290Y-117473379D01*
X114117290Y-117473379D02*
X114260148Y-117473379D01*
X113414909Y-116806712D02*
X113498243Y-117473379D01*
X113426814Y-116901950D02*
X113373243Y-116854331D01*
X113373243Y-116854331D02*
X113272052Y-116806712D01*
X113272052Y-116806712D02*
X113129195Y-116806712D01*
X113129195Y-116806712D02*
X113039909Y-116854331D01*
X113039909Y-116854331D02*
X113004195Y-116949569D01*
X113004195Y-116949569D02*
X113069671Y-117473379D01*
X112736338Y-117854331D02*
X112682766Y-117806712D01*
X112682766Y-117806712D02*
X112569671Y-117663855D01*
X112569671Y-117663855D02*
X112510147Y-117568617D01*
X112510147Y-117568617D02*
X112444671Y-117425760D01*
X112444671Y-117425760D02*
X112367290Y-117187664D01*
X112367290Y-117187664D02*
X112343481Y-116997188D01*
X112343481Y-116997188D02*
X112361338Y-116759093D01*
X112361338Y-116759093D02*
X112391100Y-116616236D01*
X112391100Y-116616236D02*
X112426814Y-116520998D01*
X112426814Y-116520998D02*
X112504195Y-116378140D01*
X112504195Y-116378140D02*
X112545862Y-116330521D01*
D12*
X137950906Y-93765119D02*
X137712811Y-94765119D01*
X137712811Y-94765119D02*
X137522335Y-94050833D01*
X137522335Y-94050833D02*
X137331859Y-94765119D01*
X137331859Y-94765119D02*
X137093764Y-93765119D01*
X136712811Y-94765119D02*
X136712811Y-94098452D01*
X136712811Y-93765119D02*
X136760430Y-93812738D01*
X136760430Y-93812738D02*
X136712811Y-93860357D01*
X136712811Y-93860357D02*
X136665192Y-93812738D01*
X136665192Y-93812738D02*
X136712811Y-93765119D01*
X136712811Y-93765119D02*
X136712811Y-93860357D01*
X136093764Y-94765119D02*
X136189002Y-94717500D01*
X136189002Y-94717500D02*
X136236621Y-94622261D01*
X136236621Y-94622261D02*
X136236621Y-93765119D01*
X135284240Y-94765119D02*
X135284240Y-93765119D01*
X135284240Y-94717500D02*
X135379478Y-94765119D01*
X135379478Y-94765119D02*
X135569954Y-94765119D01*
X135569954Y-94765119D02*
X135665192Y-94717500D01*
X135665192Y-94717500D02*
X135712811Y-94669880D01*
X135712811Y-94669880D02*
X135760430Y-94574642D01*
X135760430Y-94574642D02*
X135760430Y-94288928D01*
X135760430Y-94288928D02*
X135712811Y-94193690D01*
X135712811Y-94193690D02*
X135665192Y-94146071D01*
X135665192Y-94146071D02*
X135569954Y-94098452D01*
X135569954Y-94098452D02*
X135379478Y-94098452D01*
X135379478Y-94098452D02*
X135284240Y-94146071D01*
X134046144Y-94098452D02*
X134046144Y-94765119D01*
X134046144Y-94193690D02*
X133998525Y-94146071D01*
X133998525Y-94146071D02*
X133903287Y-94098452D01*
X133903287Y-94098452D02*
X133760430Y-94098452D01*
X133760430Y-94098452D02*
X133665192Y-94146071D01*
X133665192Y-94146071D02*
X133617573Y-94241309D01*
X133617573Y-94241309D02*
X133617573Y-94765119D01*
X133141382Y-94765119D02*
X133141382Y-94098452D01*
X133141382Y-93765119D02*
X133189001Y-93812738D01*
X133189001Y-93812738D02*
X133141382Y-93860357D01*
X133141382Y-93860357D02*
X133093763Y-93812738D01*
X133093763Y-93812738D02*
X133141382Y-93765119D01*
X133141382Y-93765119D02*
X133141382Y-93860357D01*
X132236621Y-94098452D02*
X132236621Y-94907976D01*
X132236621Y-94907976D02*
X132284240Y-95003214D01*
X132284240Y-95003214D02*
X132331859Y-95050833D01*
X132331859Y-95050833D02*
X132427097Y-95098452D01*
X132427097Y-95098452D02*
X132569954Y-95098452D01*
X132569954Y-95098452D02*
X132665192Y-95050833D01*
X132236621Y-94717500D02*
X132331859Y-94765119D01*
X132331859Y-94765119D02*
X132522335Y-94765119D01*
X132522335Y-94765119D02*
X132617573Y-94717500D01*
X132617573Y-94717500D02*
X132665192Y-94669880D01*
X132665192Y-94669880D02*
X132712811Y-94574642D01*
X132712811Y-94574642D02*
X132712811Y-94288928D01*
X132712811Y-94288928D02*
X132665192Y-94193690D01*
X132665192Y-94193690D02*
X132617573Y-94146071D01*
X132617573Y-94146071D02*
X132522335Y-94098452D01*
X132522335Y-94098452D02*
X132331859Y-94098452D01*
X132331859Y-94098452D02*
X132236621Y-94146071D01*
X131760430Y-94765119D02*
X131760430Y-93765119D01*
X131331859Y-94765119D02*
X131331859Y-94241309D01*
X131331859Y-94241309D02*
X131379478Y-94146071D01*
X131379478Y-94146071D02*
X131474716Y-94098452D01*
X131474716Y-94098452D02*
X131617573Y-94098452D01*
X131617573Y-94098452D02*
X131712811Y-94146071D01*
X131712811Y-94146071D02*
X131760430Y-94193690D01*
X130998525Y-94098452D02*
X130617573Y-94098452D01*
X130855668Y-93765119D02*
X130855668Y-94622261D01*
X130855668Y-94622261D02*
X130808049Y-94717500D01*
X130808049Y-94717500D02*
X130712811Y-94765119D01*
X130712811Y-94765119D02*
X130617573Y-94765119D01*
X130331858Y-94717500D02*
X130236620Y-94765119D01*
X130236620Y-94765119D02*
X130046144Y-94765119D01*
X130046144Y-94765119D02*
X129950906Y-94717500D01*
X129950906Y-94717500D02*
X129903287Y-94622261D01*
X129903287Y-94622261D02*
X129903287Y-94574642D01*
X129903287Y-94574642D02*
X129950906Y-94479404D01*
X129950906Y-94479404D02*
X130046144Y-94431785D01*
X130046144Y-94431785D02*
X130189001Y-94431785D01*
X130189001Y-94431785D02*
X130284239Y-94384166D01*
X130284239Y-94384166D02*
X130331858Y-94288928D01*
X130331858Y-94288928D02*
X130331858Y-94241309D01*
X130331858Y-94241309D02*
X130284239Y-94146071D01*
X130284239Y-94146071D02*
X130189001Y-94098452D01*
X130189001Y-94098452D02*
X130046144Y-94098452D01*
X130046144Y-94098452D02*
X129950906Y-94146071D01*
X128712810Y-94384166D02*
X127950906Y-94384166D01*
X126808048Y-93765119D02*
X126569953Y-94765119D01*
X126569953Y-94765119D02*
X126379477Y-94050833D01*
X126379477Y-94050833D02*
X126189001Y-94765119D01*
X126189001Y-94765119D02*
X125950906Y-93765119D01*
X125569953Y-94765119D02*
X125569953Y-94098452D01*
X125569953Y-93765119D02*
X125617572Y-93812738D01*
X125617572Y-93812738D02*
X125569953Y-93860357D01*
X125569953Y-93860357D02*
X125522334Y-93812738D01*
X125522334Y-93812738D02*
X125569953Y-93765119D01*
X125569953Y-93765119D02*
X125569953Y-93860357D01*
X124950906Y-94765119D02*
X125046144Y-94717500D01*
X125046144Y-94717500D02*
X125093763Y-94622261D01*
X125093763Y-94622261D02*
X125093763Y-93765119D01*
X124141382Y-94765119D02*
X124141382Y-93765119D01*
X124141382Y-94717500D02*
X124236620Y-94765119D01*
X124236620Y-94765119D02*
X124427096Y-94765119D01*
X124427096Y-94765119D02*
X124522334Y-94717500D01*
X124522334Y-94717500D02*
X124569953Y-94669880D01*
X124569953Y-94669880D02*
X124617572Y-94574642D01*
X124617572Y-94574642D02*
X124617572Y-94288928D01*
X124617572Y-94288928D02*
X124569953Y-94193690D01*
X124569953Y-94193690D02*
X124522334Y-94146071D01*
X124522334Y-94146071D02*
X124427096Y-94098452D01*
X124427096Y-94098452D02*
X124236620Y-94098452D01*
X124236620Y-94098452D02*
X124141382Y-94146071D01*
X122903286Y-94098452D02*
X122903286Y-94765119D01*
X122903286Y-94193690D02*
X122855667Y-94146071D01*
X122855667Y-94146071D02*
X122760429Y-94098452D01*
X122760429Y-94098452D02*
X122617572Y-94098452D01*
X122617572Y-94098452D02*
X122522334Y-94146071D01*
X122522334Y-94146071D02*
X122474715Y-94241309D01*
X122474715Y-94241309D02*
X122474715Y-94765119D01*
X121998524Y-94765119D02*
X121998524Y-94098452D01*
X121998524Y-93765119D02*
X122046143Y-93812738D01*
X122046143Y-93812738D02*
X121998524Y-93860357D01*
X121998524Y-93860357D02*
X121950905Y-93812738D01*
X121950905Y-93812738D02*
X121998524Y-93765119D01*
X121998524Y-93765119D02*
X121998524Y-93860357D01*
X121093763Y-94098452D02*
X121093763Y-94907976D01*
X121093763Y-94907976D02*
X121141382Y-95003214D01*
X121141382Y-95003214D02*
X121189001Y-95050833D01*
X121189001Y-95050833D02*
X121284239Y-95098452D01*
X121284239Y-95098452D02*
X121427096Y-95098452D01*
X121427096Y-95098452D02*
X121522334Y-95050833D01*
X121093763Y-94717500D02*
X121189001Y-94765119D01*
X121189001Y-94765119D02*
X121379477Y-94765119D01*
X121379477Y-94765119D02*
X121474715Y-94717500D01*
X121474715Y-94717500D02*
X121522334Y-94669880D01*
X121522334Y-94669880D02*
X121569953Y-94574642D01*
X121569953Y-94574642D02*
X121569953Y-94288928D01*
X121569953Y-94288928D02*
X121522334Y-94193690D01*
X121522334Y-94193690D02*
X121474715Y-94146071D01*
X121474715Y-94146071D02*
X121379477Y-94098452D01*
X121379477Y-94098452D02*
X121189001Y-94098452D01*
X121189001Y-94098452D02*
X121093763Y-94146071D01*
X120617572Y-94765119D02*
X120617572Y-93765119D01*
X120189001Y-94765119D02*
X120189001Y-94241309D01*
X120189001Y-94241309D02*
X120236620Y-94146071D01*
X120236620Y-94146071D02*
X120331858Y-94098452D01*
X120331858Y-94098452D02*
X120474715Y-94098452D01*
X120474715Y-94098452D02*
X120569953Y-94146071D01*
X120569953Y-94146071D02*
X120617572Y-94193690D01*
X119855667Y-94098452D02*
X119474715Y-94098452D01*
X119712810Y-93765119D02*
X119712810Y-94622261D01*
X119712810Y-94622261D02*
X119665191Y-94717500D01*
X119665191Y-94717500D02*
X119569953Y-94765119D01*
X119569953Y-94765119D02*
X119474715Y-94765119D01*
X119189000Y-94717500D02*
X119093762Y-94765119D01*
X119093762Y-94765119D02*
X118903286Y-94765119D01*
X118903286Y-94765119D02*
X118808048Y-94717500D01*
X118808048Y-94717500D02*
X118760429Y-94622261D01*
X118760429Y-94622261D02*
X118760429Y-94574642D01*
X118760429Y-94574642D02*
X118808048Y-94479404D01*
X118808048Y-94479404D02*
X118903286Y-94431785D01*
X118903286Y-94431785D02*
X119046143Y-94431785D01*
X119046143Y-94431785D02*
X119141381Y-94384166D01*
X119141381Y-94384166D02*
X119189000Y-94288928D01*
X119189000Y-94288928D02*
X119189000Y-94241309D01*
X119189000Y-94241309D02*
X119141381Y-94146071D01*
X119141381Y-94146071D02*
X119046143Y-94098452D01*
X119046143Y-94098452D02*
X118903286Y-94098452D01*
X118903286Y-94098452D02*
X118808048Y-94146071D01*
X118331857Y-94669880D02*
X118284238Y-94717500D01*
X118284238Y-94717500D02*
X118331857Y-94765119D01*
X118331857Y-94765119D02*
X118379476Y-94717500D01*
X118379476Y-94717500D02*
X118331857Y-94669880D01*
X118331857Y-94669880D02*
X118331857Y-94765119D01*
X118331857Y-94384166D02*
X118379476Y-93812738D01*
X118379476Y-93812738D02*
X118331857Y-93765119D01*
X118331857Y-93765119D02*
X118284238Y-93812738D01*
X118284238Y-93812738D02*
X118331857Y-94384166D01*
X118331857Y-94384166D02*
X118331857Y-93765119D01*
X137950906Y-95375119D02*
X137712811Y-96375119D01*
X137712811Y-96375119D02*
X137522335Y-95660833D01*
X137522335Y-95660833D02*
X137331859Y-96375119D01*
X137331859Y-96375119D02*
X137093764Y-95375119D01*
X136331859Y-96327500D02*
X136427097Y-96375119D01*
X136427097Y-96375119D02*
X136617573Y-96375119D01*
X136617573Y-96375119D02*
X136712811Y-96327500D01*
X136712811Y-96327500D02*
X136760430Y-96232261D01*
X136760430Y-96232261D02*
X136760430Y-95851309D01*
X136760430Y-95851309D02*
X136712811Y-95756071D01*
X136712811Y-95756071D02*
X136617573Y-95708452D01*
X136617573Y-95708452D02*
X136427097Y-95708452D01*
X136427097Y-95708452D02*
X136331859Y-95756071D01*
X136331859Y-95756071D02*
X136284240Y-95851309D01*
X136284240Y-95851309D02*
X136284240Y-95946547D01*
X136284240Y-95946547D02*
X136760430Y-96041785D01*
X135855668Y-96375119D02*
X135855668Y-95708452D01*
X135855668Y-95898928D02*
X135808049Y-95803690D01*
X135808049Y-95803690D02*
X135760430Y-95756071D01*
X135760430Y-95756071D02*
X135665192Y-95708452D01*
X135665192Y-95708452D02*
X135569954Y-95708452D01*
X134855668Y-96327500D02*
X134950906Y-96375119D01*
X134950906Y-96375119D02*
X135141382Y-96375119D01*
X135141382Y-96375119D02*
X135236620Y-96327500D01*
X135236620Y-96327500D02*
X135284239Y-96232261D01*
X135284239Y-96232261D02*
X135284239Y-95851309D01*
X135284239Y-95851309D02*
X135236620Y-95756071D01*
X135236620Y-95756071D02*
X135141382Y-95708452D01*
X135141382Y-95708452D02*
X134950906Y-95708452D01*
X134950906Y-95708452D02*
X134855668Y-95756071D01*
X134855668Y-95756071D02*
X134808049Y-95851309D01*
X134808049Y-95851309D02*
X134808049Y-95946547D01*
X134808049Y-95946547D02*
X135284239Y-96041785D01*
X133617572Y-96375119D02*
X133617572Y-95375119D01*
X132474715Y-95708452D02*
X132284239Y-96375119D01*
X132284239Y-96375119D02*
X132093763Y-95898928D01*
X132093763Y-95898928D02*
X131903287Y-96375119D01*
X131903287Y-96375119D02*
X131712811Y-95708452D01*
X131331858Y-96375119D02*
X131331858Y-95708452D01*
X131331858Y-95375119D02*
X131379477Y-95422738D01*
X131379477Y-95422738D02*
X131331858Y-95470357D01*
X131331858Y-95470357D02*
X131284239Y-95422738D01*
X131284239Y-95422738D02*
X131331858Y-95375119D01*
X131331858Y-95375119D02*
X131331858Y-95470357D01*
X130998525Y-95708452D02*
X130617573Y-95708452D01*
X130855668Y-95375119D02*
X130855668Y-96232261D01*
X130855668Y-96232261D02*
X130808049Y-96327500D01*
X130808049Y-96327500D02*
X130712811Y-96375119D01*
X130712811Y-96375119D02*
X130617573Y-96375119D01*
X130284239Y-96375119D02*
X130284239Y-95375119D01*
X129855668Y-96375119D02*
X129855668Y-95851309D01*
X129855668Y-95851309D02*
X129903287Y-95756071D01*
X129903287Y-95756071D02*
X129998525Y-95708452D01*
X129998525Y-95708452D02*
X130141382Y-95708452D01*
X130141382Y-95708452D02*
X130236620Y-95756071D01*
X130236620Y-95756071D02*
X130284239Y-95803690D01*
X128760429Y-95708452D02*
X128379477Y-95708452D01*
X128617572Y-95375119D02*
X128617572Y-96232261D01*
X128617572Y-96232261D02*
X128569953Y-96327500D01*
X128569953Y-96327500D02*
X128474715Y-96375119D01*
X128474715Y-96375119D02*
X128379477Y-96375119D01*
X128046143Y-96375119D02*
X128046143Y-95375119D01*
X127617572Y-96375119D02*
X127617572Y-95851309D01*
X127617572Y-95851309D02*
X127665191Y-95756071D01*
X127665191Y-95756071D02*
X127760429Y-95708452D01*
X127760429Y-95708452D02*
X127903286Y-95708452D01*
X127903286Y-95708452D02*
X127998524Y-95756071D01*
X127998524Y-95756071D02*
X128046143Y-95803690D01*
X126760429Y-96327500D02*
X126855667Y-96375119D01*
X126855667Y-96375119D02*
X127046143Y-96375119D01*
X127046143Y-96375119D02*
X127141381Y-96327500D01*
X127141381Y-96327500D02*
X127189000Y-96232261D01*
X127189000Y-96232261D02*
X127189000Y-95851309D01*
X127189000Y-95851309D02*
X127141381Y-95756071D01*
X127141381Y-95756071D02*
X127046143Y-95708452D01*
X127046143Y-95708452D02*
X126855667Y-95708452D01*
X126855667Y-95708452D02*
X126760429Y-95756071D01*
X126760429Y-95756071D02*
X126712810Y-95851309D01*
X126712810Y-95851309D02*
X126712810Y-95946547D01*
X126712810Y-95946547D02*
X127189000Y-96041785D01*
X125903286Y-96327500D02*
X125998524Y-96375119D01*
X125998524Y-96375119D02*
X126189000Y-96375119D01*
X126189000Y-96375119D02*
X126284238Y-96327500D01*
X126284238Y-96327500D02*
X126331857Y-96232261D01*
X126331857Y-96232261D02*
X126331857Y-95851309D01*
X126331857Y-95851309D02*
X126284238Y-95756071D01*
X126284238Y-95756071D02*
X126189000Y-95708452D01*
X126189000Y-95708452D02*
X125998524Y-95708452D01*
X125998524Y-95708452D02*
X125903286Y-95756071D01*
X125903286Y-95756071D02*
X125855667Y-95851309D01*
X125855667Y-95851309D02*
X125855667Y-95946547D01*
X125855667Y-95946547D02*
X126331857Y-96041785D01*
X137950906Y-96985119D02*
X137712811Y-97985119D01*
X137712811Y-97985119D02*
X137522335Y-97270833D01*
X137522335Y-97270833D02*
X137331859Y-97985119D01*
X137331859Y-97985119D02*
X137093764Y-96985119D01*
X136712811Y-97985119D02*
X136712811Y-97318452D01*
X136712811Y-96985119D02*
X136760430Y-97032738D01*
X136760430Y-97032738D02*
X136712811Y-97080357D01*
X136712811Y-97080357D02*
X136665192Y-97032738D01*
X136665192Y-97032738D02*
X136712811Y-96985119D01*
X136712811Y-96985119D02*
X136712811Y-97080357D01*
X136093764Y-97985119D02*
X136189002Y-97937500D01*
X136189002Y-97937500D02*
X136236621Y-97842261D01*
X136236621Y-97842261D02*
X136236621Y-96985119D01*
X135284240Y-97985119D02*
X135284240Y-96985119D01*
X135284240Y-97937500D02*
X135379478Y-97985119D01*
X135379478Y-97985119D02*
X135569954Y-97985119D01*
X135569954Y-97985119D02*
X135665192Y-97937500D01*
X135665192Y-97937500D02*
X135712811Y-97889880D01*
X135712811Y-97889880D02*
X135760430Y-97794642D01*
X135760430Y-97794642D02*
X135760430Y-97508928D01*
X135760430Y-97508928D02*
X135712811Y-97413690D01*
X135712811Y-97413690D02*
X135665192Y-97366071D01*
X135665192Y-97366071D02*
X135569954Y-97318452D01*
X135569954Y-97318452D02*
X135379478Y-97318452D01*
X135379478Y-97318452D02*
X135284240Y-97366071D01*
X134046144Y-97318452D02*
X134046144Y-97985119D01*
X134046144Y-97413690D02*
X133998525Y-97366071D01*
X133998525Y-97366071D02*
X133903287Y-97318452D01*
X133903287Y-97318452D02*
X133760430Y-97318452D01*
X133760430Y-97318452D02*
X133665192Y-97366071D01*
X133665192Y-97366071D02*
X133617573Y-97461309D01*
X133617573Y-97461309D02*
X133617573Y-97985119D01*
X133141382Y-97985119D02*
X133141382Y-97318452D01*
X133141382Y-96985119D02*
X133189001Y-97032738D01*
X133189001Y-97032738D02*
X133141382Y-97080357D01*
X133141382Y-97080357D02*
X133093763Y-97032738D01*
X133093763Y-97032738D02*
X133141382Y-96985119D01*
X133141382Y-96985119D02*
X133141382Y-97080357D01*
X132236621Y-97318452D02*
X132236621Y-98127976D01*
X132236621Y-98127976D02*
X132284240Y-98223214D01*
X132284240Y-98223214D02*
X132331859Y-98270833D01*
X132331859Y-98270833D02*
X132427097Y-98318452D01*
X132427097Y-98318452D02*
X132569954Y-98318452D01*
X132569954Y-98318452D02*
X132665192Y-98270833D01*
X132236621Y-97937500D02*
X132331859Y-97985119D01*
X132331859Y-97985119D02*
X132522335Y-97985119D01*
X132522335Y-97985119D02*
X132617573Y-97937500D01*
X132617573Y-97937500D02*
X132665192Y-97889880D01*
X132665192Y-97889880D02*
X132712811Y-97794642D01*
X132712811Y-97794642D02*
X132712811Y-97508928D01*
X132712811Y-97508928D02*
X132665192Y-97413690D01*
X132665192Y-97413690D02*
X132617573Y-97366071D01*
X132617573Y-97366071D02*
X132522335Y-97318452D01*
X132522335Y-97318452D02*
X132331859Y-97318452D01*
X132331859Y-97318452D02*
X132236621Y-97366071D01*
X131760430Y-97985119D02*
X131760430Y-96985119D01*
X131331859Y-97985119D02*
X131331859Y-97461309D01*
X131331859Y-97461309D02*
X131379478Y-97366071D01*
X131379478Y-97366071D02*
X131474716Y-97318452D01*
X131474716Y-97318452D02*
X131617573Y-97318452D01*
X131617573Y-97318452D02*
X131712811Y-97366071D01*
X131712811Y-97366071D02*
X131760430Y-97413690D01*
X130998525Y-97318452D02*
X130617573Y-97318452D01*
X130855668Y-96985119D02*
X130855668Y-97842261D01*
X130855668Y-97842261D02*
X130808049Y-97937500D01*
X130808049Y-97937500D02*
X130712811Y-97985119D01*
X130712811Y-97985119D02*
X130617573Y-97985119D01*
X130331858Y-97937500D02*
X130236620Y-97985119D01*
X130236620Y-97985119D02*
X130046144Y-97985119D01*
X130046144Y-97985119D02*
X129950906Y-97937500D01*
X129950906Y-97937500D02*
X129903287Y-97842261D01*
X129903287Y-97842261D02*
X129903287Y-97794642D01*
X129903287Y-97794642D02*
X129950906Y-97699404D01*
X129950906Y-97699404D02*
X130046144Y-97651785D01*
X130046144Y-97651785D02*
X130189001Y-97651785D01*
X130189001Y-97651785D02*
X130284239Y-97604166D01*
X130284239Y-97604166D02*
X130331858Y-97508928D01*
X130331858Y-97508928D02*
X130331858Y-97461309D01*
X130331858Y-97461309D02*
X130284239Y-97366071D01*
X130284239Y-97366071D02*
X130189001Y-97318452D01*
X130189001Y-97318452D02*
X130046144Y-97318452D01*
X130046144Y-97318452D02*
X129950906Y-97366071D01*
X128760429Y-97937500D02*
X128665191Y-97985119D01*
X128665191Y-97985119D02*
X128474715Y-97985119D01*
X128474715Y-97985119D02*
X128379477Y-97937500D01*
X128379477Y-97937500D02*
X128331858Y-97842261D01*
X128331858Y-97842261D02*
X128331858Y-97794642D01*
X128331858Y-97794642D02*
X128379477Y-97699404D01*
X128379477Y-97699404D02*
X128474715Y-97651785D01*
X128474715Y-97651785D02*
X128617572Y-97651785D01*
X128617572Y-97651785D02*
X128712810Y-97604166D01*
X128712810Y-97604166D02*
X128760429Y-97508928D01*
X128760429Y-97508928D02*
X128760429Y-97461309D01*
X128760429Y-97461309D02*
X128712810Y-97366071D01*
X128712810Y-97366071D02*
X128617572Y-97318452D01*
X128617572Y-97318452D02*
X128474715Y-97318452D01*
X128474715Y-97318452D02*
X128379477Y-97366071D01*
X127903286Y-97985119D02*
X127903286Y-96985119D01*
X127474715Y-97985119D02*
X127474715Y-97461309D01*
X127474715Y-97461309D02*
X127522334Y-97366071D01*
X127522334Y-97366071D02*
X127617572Y-97318452D01*
X127617572Y-97318452D02*
X127760429Y-97318452D01*
X127760429Y-97318452D02*
X127855667Y-97366071D01*
X127855667Y-97366071D02*
X127903286Y-97413690D01*
X126855667Y-97985119D02*
X126950905Y-97937500D01*
X126950905Y-97937500D02*
X126998524Y-97889880D01*
X126998524Y-97889880D02*
X127046143Y-97794642D01*
X127046143Y-97794642D02*
X127046143Y-97508928D01*
X127046143Y-97508928D02*
X126998524Y-97413690D01*
X126998524Y-97413690D02*
X126950905Y-97366071D01*
X126950905Y-97366071D02*
X126855667Y-97318452D01*
X126855667Y-97318452D02*
X126712810Y-97318452D01*
X126712810Y-97318452D02*
X126617572Y-97366071D01*
X126617572Y-97366071D02*
X126569953Y-97413690D01*
X126569953Y-97413690D02*
X126522334Y-97508928D01*
X126522334Y-97508928D02*
X126522334Y-97794642D01*
X126522334Y-97794642D02*
X126569953Y-97889880D01*
X126569953Y-97889880D02*
X126617572Y-97937500D01*
X126617572Y-97937500D02*
X126712810Y-97985119D01*
X126712810Y-97985119D02*
X126855667Y-97985119D01*
X125665191Y-97318452D02*
X125665191Y-97985119D01*
X126093762Y-97318452D02*
X126093762Y-97842261D01*
X126093762Y-97842261D02*
X126046143Y-97937500D01*
X126046143Y-97937500D02*
X125950905Y-97985119D01*
X125950905Y-97985119D02*
X125808048Y-97985119D01*
X125808048Y-97985119D02*
X125712810Y-97937500D01*
X125712810Y-97937500D02*
X125665191Y-97889880D01*
X125046143Y-97985119D02*
X125141381Y-97937500D01*
X125141381Y-97937500D02*
X125189000Y-97842261D01*
X125189000Y-97842261D02*
X125189000Y-96985119D01*
X124236619Y-97985119D02*
X124236619Y-96985119D01*
X124236619Y-97937500D02*
X124331857Y-97985119D01*
X124331857Y-97985119D02*
X124522333Y-97985119D01*
X124522333Y-97985119D02*
X124617571Y-97937500D01*
X124617571Y-97937500D02*
X124665190Y-97889880D01*
X124665190Y-97889880D02*
X124712809Y-97794642D01*
X124712809Y-97794642D02*
X124712809Y-97508928D01*
X124712809Y-97508928D02*
X124665190Y-97413690D01*
X124665190Y-97413690D02*
X124617571Y-97366071D01*
X124617571Y-97366071D02*
X124522333Y-97318452D01*
X124522333Y-97318452D02*
X124331857Y-97318452D01*
X124331857Y-97318452D02*
X124236619Y-97366071D01*
X122998523Y-97985119D02*
X122998523Y-96985119D01*
X122998523Y-97366071D02*
X122903285Y-97318452D01*
X122903285Y-97318452D02*
X122712809Y-97318452D01*
X122712809Y-97318452D02*
X122617571Y-97366071D01*
X122617571Y-97366071D02*
X122569952Y-97413690D01*
X122569952Y-97413690D02*
X122522333Y-97508928D01*
X122522333Y-97508928D02*
X122522333Y-97794642D01*
X122522333Y-97794642D02*
X122569952Y-97889880D01*
X122569952Y-97889880D02*
X122617571Y-97937500D01*
X122617571Y-97937500D02*
X122712809Y-97985119D01*
X122712809Y-97985119D02*
X122903285Y-97985119D01*
X122903285Y-97985119D02*
X122998523Y-97937500D01*
X121712809Y-97937500D02*
X121808047Y-97985119D01*
X121808047Y-97985119D02*
X121998523Y-97985119D01*
X121998523Y-97985119D02*
X122093761Y-97937500D01*
X122093761Y-97937500D02*
X122141380Y-97842261D01*
X122141380Y-97842261D02*
X122141380Y-97461309D01*
X122141380Y-97461309D02*
X122093761Y-97366071D01*
X122093761Y-97366071D02*
X121998523Y-97318452D01*
X121998523Y-97318452D02*
X121808047Y-97318452D01*
X121808047Y-97318452D02*
X121712809Y-97366071D01*
X121712809Y-97366071D02*
X121665190Y-97461309D01*
X121665190Y-97461309D02*
X121665190Y-97556547D01*
X121665190Y-97556547D02*
X122141380Y-97651785D01*
X137665192Y-98595119D02*
X137474716Y-98595119D01*
X137474716Y-98595119D02*
X137379478Y-98642738D01*
X137379478Y-98642738D02*
X137284240Y-98737976D01*
X137284240Y-98737976D02*
X137236621Y-98928452D01*
X137236621Y-98928452D02*
X137236621Y-99261785D01*
X137236621Y-99261785D02*
X137284240Y-99452261D01*
X137284240Y-99452261D02*
X137379478Y-99547500D01*
X137379478Y-99547500D02*
X137474716Y-99595119D01*
X137474716Y-99595119D02*
X137665192Y-99595119D01*
X137665192Y-99595119D02*
X137760430Y-99547500D01*
X137760430Y-99547500D02*
X137855668Y-99452261D01*
X137855668Y-99452261D02*
X137903287Y-99261785D01*
X137903287Y-99261785D02*
X137903287Y-98928452D01*
X137903287Y-98928452D02*
X137855668Y-98737976D01*
X137855668Y-98737976D02*
X137760430Y-98642738D01*
X137760430Y-98642738D02*
X137665192Y-98595119D01*
X136379478Y-98928452D02*
X136379478Y-99595119D01*
X136808049Y-98928452D02*
X136808049Y-99452261D01*
X136808049Y-99452261D02*
X136760430Y-99547500D01*
X136760430Y-99547500D02*
X136665192Y-99595119D01*
X136665192Y-99595119D02*
X136522335Y-99595119D01*
X136522335Y-99595119D02*
X136427097Y-99547500D01*
X136427097Y-99547500D02*
X136379478Y-99499880D01*
X135903287Y-99595119D02*
X135903287Y-98928452D01*
X135903287Y-99118928D02*
X135855668Y-99023690D01*
X135855668Y-99023690D02*
X135808049Y-98976071D01*
X135808049Y-98976071D02*
X135712811Y-98928452D01*
X135712811Y-98928452D02*
X135617573Y-98928452D01*
X134379477Y-99595119D02*
X134474715Y-99547500D01*
X134474715Y-99547500D02*
X134522334Y-99452261D01*
X134522334Y-99452261D02*
X134522334Y-98595119D01*
X133569953Y-98928452D02*
X133569953Y-99595119D01*
X133998524Y-98928452D02*
X133998524Y-99452261D01*
X133998524Y-99452261D02*
X133950905Y-99547500D01*
X133950905Y-99547500D02*
X133855667Y-99595119D01*
X133855667Y-99595119D02*
X133712810Y-99595119D01*
X133712810Y-99595119D02*
X133617572Y-99547500D01*
X133617572Y-99547500D02*
X133569953Y-99499880D01*
X133189000Y-99595119D02*
X132665191Y-98928452D01*
X133189000Y-98928452D02*
X132665191Y-99595119D01*
X131855667Y-98928452D02*
X131855667Y-99595119D01*
X132284238Y-98928452D02*
X132284238Y-99452261D01*
X132284238Y-99452261D02*
X132236619Y-99547500D01*
X132236619Y-99547500D02*
X132141381Y-99595119D01*
X132141381Y-99595119D02*
X131998524Y-99595119D01*
X131998524Y-99595119D02*
X131903286Y-99547500D01*
X131903286Y-99547500D02*
X131855667Y-99499880D01*
X131379476Y-99595119D02*
X131379476Y-98928452D01*
X131379476Y-99118928D02*
X131331857Y-99023690D01*
X131331857Y-99023690D02*
X131284238Y-98976071D01*
X131284238Y-98976071D02*
X131189000Y-98928452D01*
X131189000Y-98928452D02*
X131093762Y-98928452D01*
X130855666Y-98928452D02*
X130617571Y-99595119D01*
X130379476Y-98928452D02*
X130617571Y-99595119D01*
X130617571Y-99595119D02*
X130712809Y-99833214D01*
X130712809Y-99833214D02*
X130760428Y-99880833D01*
X130760428Y-99880833D02*
X130855666Y-99928452D01*
X129998523Y-99499880D02*
X129950904Y-99547500D01*
X129950904Y-99547500D02*
X129998523Y-99595119D01*
X129998523Y-99595119D02*
X130046142Y-99547500D01*
X130046142Y-99547500D02*
X129998523Y-99499880D01*
X129998523Y-99499880D02*
X129998523Y-99595119D01*
X129998523Y-99214166D02*
X130046142Y-98642738D01*
X130046142Y-98642738D02*
X129998523Y-98595119D01*
X129998523Y-98595119D02*
X129950904Y-98642738D01*
X129950904Y-98642738D02*
X129998523Y-99214166D01*
X129998523Y-99214166D02*
X129998523Y-98595119D01*
X137522335Y-102291309D02*
X137855668Y-102291309D01*
X137855668Y-102815119D02*
X137855668Y-101815119D01*
X137855668Y-101815119D02*
X137379478Y-101815119D01*
X136569954Y-102148452D02*
X136569954Y-102815119D01*
X136998525Y-102148452D02*
X136998525Y-102672261D01*
X136998525Y-102672261D02*
X136950906Y-102767500D01*
X136950906Y-102767500D02*
X136855668Y-102815119D01*
X136855668Y-102815119D02*
X136712811Y-102815119D01*
X136712811Y-102815119D02*
X136617573Y-102767500D01*
X136617573Y-102767500D02*
X136569954Y-102719880D01*
X136236620Y-102148452D02*
X135855668Y-102148452D01*
X136093763Y-101815119D02*
X136093763Y-102672261D01*
X136093763Y-102672261D02*
X136046144Y-102767500D01*
X136046144Y-102767500D02*
X135950906Y-102815119D01*
X135950906Y-102815119D02*
X135855668Y-102815119D01*
X135522334Y-102815119D02*
X135522334Y-102148452D01*
X135522334Y-101815119D02*
X135569953Y-101862738D01*
X135569953Y-101862738D02*
X135522334Y-101910357D01*
X135522334Y-101910357D02*
X135474715Y-101862738D01*
X135474715Y-101862738D02*
X135522334Y-101815119D01*
X135522334Y-101815119D02*
X135522334Y-101910357D01*
X134903287Y-102815119D02*
X134998525Y-102767500D01*
X134998525Y-102767500D02*
X135046144Y-102672261D01*
X135046144Y-102672261D02*
X135046144Y-101815119D01*
X134141382Y-102767500D02*
X134236620Y-102815119D01*
X134236620Y-102815119D02*
X134427096Y-102815119D01*
X134427096Y-102815119D02*
X134522334Y-102767500D01*
X134522334Y-102767500D02*
X134569953Y-102672261D01*
X134569953Y-102672261D02*
X134569953Y-102291309D01*
X134569953Y-102291309D02*
X134522334Y-102196071D01*
X134522334Y-102196071D02*
X134427096Y-102148452D01*
X134427096Y-102148452D02*
X134236620Y-102148452D01*
X134236620Y-102148452D02*
X134141382Y-102196071D01*
X134141382Y-102196071D02*
X134093763Y-102291309D01*
X134093763Y-102291309D02*
X134093763Y-102386547D01*
X134093763Y-102386547D02*
X134569953Y-102481785D01*
X132903286Y-102434166D02*
X132141382Y-102434166D01*
X131046143Y-102148452D02*
X130665191Y-102148452D01*
X130903286Y-101815119D02*
X130903286Y-102672261D01*
X130903286Y-102672261D02*
X130855667Y-102767500D01*
X130855667Y-102767500D02*
X130760429Y-102815119D01*
X130760429Y-102815119D02*
X130665191Y-102815119D01*
X130331857Y-102815119D02*
X130331857Y-101815119D01*
X129903286Y-102815119D02*
X129903286Y-102291309D01*
X129903286Y-102291309D02*
X129950905Y-102196071D01*
X129950905Y-102196071D02*
X130046143Y-102148452D01*
X130046143Y-102148452D02*
X130189000Y-102148452D01*
X130189000Y-102148452D02*
X130284238Y-102196071D01*
X130284238Y-102196071D02*
X130331857Y-102243690D01*
X129046143Y-102767500D02*
X129141381Y-102815119D01*
X129141381Y-102815119D02*
X129331857Y-102815119D01*
X129331857Y-102815119D02*
X129427095Y-102767500D01*
X129427095Y-102767500D02*
X129474714Y-102672261D01*
X129474714Y-102672261D02*
X129474714Y-102291309D01*
X129474714Y-102291309D02*
X129427095Y-102196071D01*
X129427095Y-102196071D02*
X129331857Y-102148452D01*
X129331857Y-102148452D02*
X129141381Y-102148452D01*
X129141381Y-102148452D02*
X129046143Y-102196071D01*
X129046143Y-102196071D02*
X128998524Y-102291309D01*
X128998524Y-102291309D02*
X128998524Y-102386547D01*
X128998524Y-102386547D02*
X129474714Y-102481785D01*
X127903285Y-102148452D02*
X127712809Y-102815119D01*
X127712809Y-102815119D02*
X127522333Y-102338928D01*
X127522333Y-102338928D02*
X127331857Y-102815119D01*
X127331857Y-102815119D02*
X127141381Y-102148452D01*
X126760428Y-102815119D02*
X126760428Y-102148452D01*
X126760428Y-101815119D02*
X126808047Y-101862738D01*
X126808047Y-101862738D02*
X126760428Y-101910357D01*
X126760428Y-101910357D02*
X126712809Y-101862738D01*
X126712809Y-101862738D02*
X126760428Y-101815119D01*
X126760428Y-101815119D02*
X126760428Y-101910357D01*
X126284238Y-102148452D02*
X126284238Y-102815119D01*
X126284238Y-102243690D02*
X126236619Y-102196071D01*
X126236619Y-102196071D02*
X126141381Y-102148452D01*
X126141381Y-102148452D02*
X125998524Y-102148452D01*
X125998524Y-102148452D02*
X125903286Y-102196071D01*
X125903286Y-102196071D02*
X125855667Y-102291309D01*
X125855667Y-102291309D02*
X125855667Y-102815119D01*
X124950905Y-102815119D02*
X124950905Y-101815119D01*
X124950905Y-102767500D02*
X125046143Y-102815119D01*
X125046143Y-102815119D02*
X125236619Y-102815119D01*
X125236619Y-102815119D02*
X125331857Y-102767500D01*
X125331857Y-102767500D02*
X125379476Y-102719880D01*
X125379476Y-102719880D02*
X125427095Y-102624642D01*
X125427095Y-102624642D02*
X125427095Y-102338928D01*
X125427095Y-102338928D02*
X125379476Y-102243690D01*
X125379476Y-102243690D02*
X125331857Y-102196071D01*
X125331857Y-102196071D02*
X125236619Y-102148452D01*
X125236619Y-102148452D02*
X125046143Y-102148452D01*
X125046143Y-102148452D02*
X124950905Y-102196071D01*
X124522333Y-102767500D02*
X124427095Y-102815119D01*
X124427095Y-102815119D02*
X124236619Y-102815119D01*
X124236619Y-102815119D02*
X124141381Y-102767500D01*
X124141381Y-102767500D02*
X124093762Y-102672261D01*
X124093762Y-102672261D02*
X124093762Y-102624642D01*
X124093762Y-102624642D02*
X124141381Y-102529404D01*
X124141381Y-102529404D02*
X124236619Y-102481785D01*
X124236619Y-102481785D02*
X124379476Y-102481785D01*
X124379476Y-102481785D02*
X124474714Y-102434166D01*
X124474714Y-102434166D02*
X124522333Y-102338928D01*
X124522333Y-102338928D02*
X124522333Y-102291309D01*
X124522333Y-102291309D02*
X124474714Y-102196071D01*
X124474714Y-102196071D02*
X124379476Y-102148452D01*
X124379476Y-102148452D02*
X124236619Y-102148452D01*
X124236619Y-102148452D02*
X124141381Y-102196071D01*
X122903285Y-102434166D02*
X122141381Y-102434166D01*
X137998525Y-103425119D02*
X137427097Y-103425119D01*
X137712811Y-104425119D02*
X137712811Y-103425119D01*
X136950906Y-104425119D02*
X137046144Y-104377500D01*
X137046144Y-104377500D02*
X137093763Y-104329880D01*
X137093763Y-104329880D02*
X137141382Y-104234642D01*
X137141382Y-104234642D02*
X137141382Y-103948928D01*
X137141382Y-103948928D02*
X137093763Y-103853690D01*
X137093763Y-103853690D02*
X137046144Y-103806071D01*
X137046144Y-103806071D02*
X136950906Y-103758452D01*
X136950906Y-103758452D02*
X136808049Y-103758452D01*
X136808049Y-103758452D02*
X136712811Y-103806071D01*
X136712811Y-103806071D02*
X136665192Y-103853690D01*
X136665192Y-103853690D02*
X136617573Y-103948928D01*
X136617573Y-103948928D02*
X136617573Y-104234642D01*
X136617573Y-104234642D02*
X136665192Y-104329880D01*
X136665192Y-104329880D02*
X136712811Y-104377500D01*
X136712811Y-104377500D02*
X136808049Y-104425119D01*
X136808049Y-104425119D02*
X136950906Y-104425119D01*
X134998525Y-104425119D02*
X134998525Y-103901309D01*
X134998525Y-103901309D02*
X135046144Y-103806071D01*
X135046144Y-103806071D02*
X135141382Y-103758452D01*
X135141382Y-103758452D02*
X135331858Y-103758452D01*
X135331858Y-103758452D02*
X135427096Y-103806071D01*
X134998525Y-104377500D02*
X135093763Y-104425119D01*
X135093763Y-104425119D02*
X135331858Y-104425119D01*
X135331858Y-104425119D02*
X135427096Y-104377500D01*
X135427096Y-104377500D02*
X135474715Y-104282261D01*
X135474715Y-104282261D02*
X135474715Y-104187023D01*
X135474715Y-104187023D02*
X135427096Y-104091785D01*
X135427096Y-104091785D02*
X135331858Y-104044166D01*
X135331858Y-104044166D02*
X135093763Y-104044166D01*
X135093763Y-104044166D02*
X134998525Y-103996547D01*
X133760429Y-104425119D02*
X133760429Y-103425119D01*
X133760429Y-103901309D02*
X133189001Y-103901309D01*
X133189001Y-104425119D02*
X133189001Y-103425119D01*
X132331858Y-104377500D02*
X132427096Y-104425119D01*
X132427096Y-104425119D02*
X132617572Y-104425119D01*
X132617572Y-104425119D02*
X132712810Y-104377500D01*
X132712810Y-104377500D02*
X132760429Y-104282261D01*
X132760429Y-104282261D02*
X132760429Y-103901309D01*
X132760429Y-103901309D02*
X132712810Y-103806071D01*
X132712810Y-103806071D02*
X132617572Y-103758452D01*
X132617572Y-103758452D02*
X132427096Y-103758452D01*
X132427096Y-103758452D02*
X132331858Y-103806071D01*
X132331858Y-103806071D02*
X132284239Y-103901309D01*
X132284239Y-103901309D02*
X132284239Y-103996547D01*
X132284239Y-103996547D02*
X132760429Y-104091785D01*
X131427096Y-104425119D02*
X131427096Y-103901309D01*
X131427096Y-103901309D02*
X131474715Y-103806071D01*
X131474715Y-103806071D02*
X131569953Y-103758452D01*
X131569953Y-103758452D02*
X131760429Y-103758452D01*
X131760429Y-103758452D02*
X131855667Y-103806071D01*
X131427096Y-104377500D02*
X131522334Y-104425119D01*
X131522334Y-104425119D02*
X131760429Y-104425119D01*
X131760429Y-104425119D02*
X131855667Y-104377500D01*
X131855667Y-104377500D02*
X131903286Y-104282261D01*
X131903286Y-104282261D02*
X131903286Y-104187023D01*
X131903286Y-104187023D02*
X131855667Y-104091785D01*
X131855667Y-104091785D02*
X131760429Y-104044166D01*
X131760429Y-104044166D02*
X131522334Y-104044166D01*
X131522334Y-104044166D02*
X131427096Y-103996547D01*
X130950905Y-104425119D02*
X130950905Y-103758452D01*
X130950905Y-103948928D02*
X130903286Y-103853690D01*
X130903286Y-103853690D02*
X130855667Y-103806071D01*
X130855667Y-103806071D02*
X130760429Y-103758452D01*
X130760429Y-103758452D02*
X130665191Y-103758452D01*
X130474714Y-103758452D02*
X130093762Y-103758452D01*
X130331857Y-103425119D02*
X130331857Y-104282261D01*
X130331857Y-104282261D02*
X130284238Y-104377500D01*
X130284238Y-104377500D02*
X130189000Y-104425119D01*
X130189000Y-104425119D02*
X130093762Y-104425119D01*
X128998523Y-104425119D02*
X128998523Y-103758452D01*
X128998523Y-103425119D02*
X129046142Y-103472738D01*
X129046142Y-103472738D02*
X128998523Y-103520357D01*
X128998523Y-103520357D02*
X128950904Y-103472738D01*
X128950904Y-103472738D02*
X128998523Y-103425119D01*
X128998523Y-103425119D02*
X128998523Y-103520357D01*
X128522333Y-103758452D02*
X128522333Y-104425119D01*
X128522333Y-103853690D02*
X128474714Y-103806071D01*
X128474714Y-103806071D02*
X128379476Y-103758452D01*
X128379476Y-103758452D02*
X128236619Y-103758452D01*
X128236619Y-103758452D02*
X128141381Y-103806071D01*
X128141381Y-103806071D02*
X128093762Y-103901309D01*
X128093762Y-103901309D02*
X128093762Y-104425119D01*
X126855666Y-103758452D02*
X126855666Y-104758452D01*
X126855666Y-103806071D02*
X126760428Y-103758452D01*
X126760428Y-103758452D02*
X126569952Y-103758452D01*
X126569952Y-103758452D02*
X126474714Y-103806071D01*
X126474714Y-103806071D02*
X126427095Y-103853690D01*
X126427095Y-103853690D02*
X126379476Y-103948928D01*
X126379476Y-103948928D02*
X126379476Y-104234642D01*
X126379476Y-104234642D02*
X126427095Y-104329880D01*
X126427095Y-104329880D02*
X126474714Y-104377500D01*
X126474714Y-104377500D02*
X126569952Y-104425119D01*
X126569952Y-104425119D02*
X126760428Y-104425119D01*
X126760428Y-104425119D02*
X126855666Y-104377500D01*
X125808047Y-104425119D02*
X125903285Y-104377500D01*
X125903285Y-104377500D02*
X125950904Y-104329880D01*
X125950904Y-104329880D02*
X125998523Y-104234642D01*
X125998523Y-104234642D02*
X125998523Y-103948928D01*
X125998523Y-103948928D02*
X125950904Y-103853690D01*
X125950904Y-103853690D02*
X125903285Y-103806071D01*
X125903285Y-103806071D02*
X125808047Y-103758452D01*
X125808047Y-103758452D02*
X125665190Y-103758452D01*
X125665190Y-103758452D02*
X125569952Y-103806071D01*
X125569952Y-103806071D02*
X125522333Y-103853690D01*
X125522333Y-103853690D02*
X125474714Y-103948928D01*
X125474714Y-103948928D02*
X125474714Y-104234642D01*
X125474714Y-104234642D02*
X125522333Y-104329880D01*
X125522333Y-104329880D02*
X125569952Y-104377500D01*
X125569952Y-104377500D02*
X125665190Y-104425119D01*
X125665190Y-104425119D02*
X125808047Y-104425119D01*
X125046142Y-104425119D02*
X125046142Y-103758452D01*
X125046142Y-103948928D02*
X124998523Y-103853690D01*
X124998523Y-103853690D02*
X124950904Y-103806071D01*
X124950904Y-103806071D02*
X124855666Y-103758452D01*
X124855666Y-103758452D02*
X124760428Y-103758452D01*
X124569951Y-103758452D02*
X124188999Y-103758452D01*
X124427094Y-103425119D02*
X124427094Y-104282261D01*
X124427094Y-104282261D02*
X124379475Y-104377500D01*
X124379475Y-104377500D02*
X124284237Y-104425119D01*
X124284237Y-104425119D02*
X124188999Y-104425119D01*
X123093760Y-104044166D02*
X122331856Y-104044166D01*
X137855668Y-106035119D02*
X137855668Y-105035119D01*
X137855668Y-105035119D02*
X137617573Y-105035119D01*
X137617573Y-105035119D02*
X137474716Y-105082738D01*
X137474716Y-105082738D02*
X137379478Y-105177976D01*
X137379478Y-105177976D02*
X137331859Y-105273214D01*
X137331859Y-105273214D02*
X137284240Y-105463690D01*
X137284240Y-105463690D02*
X137284240Y-105606547D01*
X137284240Y-105606547D02*
X137331859Y-105797023D01*
X137331859Y-105797023D02*
X137379478Y-105892261D01*
X137379478Y-105892261D02*
X137474716Y-105987500D01*
X137474716Y-105987500D02*
X137617573Y-106035119D01*
X137617573Y-106035119D02*
X137855668Y-106035119D01*
X136712811Y-106035119D02*
X136808049Y-105987500D01*
X136808049Y-105987500D02*
X136855668Y-105939880D01*
X136855668Y-105939880D02*
X136903287Y-105844642D01*
X136903287Y-105844642D02*
X136903287Y-105558928D01*
X136903287Y-105558928D02*
X136855668Y-105463690D01*
X136855668Y-105463690D02*
X136808049Y-105416071D01*
X136808049Y-105416071D02*
X136712811Y-105368452D01*
X136712811Y-105368452D02*
X136569954Y-105368452D01*
X136569954Y-105368452D02*
X136474716Y-105416071D01*
X136474716Y-105416071D02*
X136427097Y-105463690D01*
X136427097Y-105463690D02*
X136379478Y-105558928D01*
X136379478Y-105558928D02*
X136379478Y-105844642D01*
X136379478Y-105844642D02*
X136427097Y-105939880D01*
X136427097Y-105939880D02*
X136474716Y-105987500D01*
X136474716Y-105987500D02*
X136569954Y-106035119D01*
X136569954Y-106035119D02*
X136712811Y-106035119D01*
X135950906Y-105368452D02*
X135950906Y-106035119D01*
X135950906Y-105463690D02*
X135903287Y-105416071D01*
X135903287Y-105416071D02*
X135808049Y-105368452D01*
X135808049Y-105368452D02*
X135665192Y-105368452D01*
X135665192Y-105368452D02*
X135569954Y-105416071D01*
X135569954Y-105416071D02*
X135522335Y-105511309D01*
X135522335Y-105511309D02*
X135522335Y-106035119D01*
X134665192Y-105987500D02*
X134760430Y-106035119D01*
X134760430Y-106035119D02*
X134950906Y-106035119D01*
X134950906Y-106035119D02*
X135046144Y-105987500D01*
X135046144Y-105987500D02*
X135093763Y-105892261D01*
X135093763Y-105892261D02*
X135093763Y-105511309D01*
X135093763Y-105511309D02*
X135046144Y-105416071D01*
X135046144Y-105416071D02*
X134950906Y-105368452D01*
X134950906Y-105368452D02*
X134760430Y-105368452D01*
X134760430Y-105368452D02*
X134665192Y-105416071D01*
X134665192Y-105416071D02*
X134617573Y-105511309D01*
X134617573Y-105511309D02*
X134617573Y-105606547D01*
X134617573Y-105606547D02*
X135093763Y-105701785D01*
X133522334Y-105368452D02*
X133331858Y-106035119D01*
X133331858Y-106035119D02*
X133141382Y-105558928D01*
X133141382Y-105558928D02*
X132950906Y-106035119D01*
X132950906Y-106035119D02*
X132760430Y-105368452D01*
X132379477Y-106035119D02*
X132379477Y-105368452D01*
X132379477Y-105035119D02*
X132427096Y-105082738D01*
X132427096Y-105082738D02*
X132379477Y-105130357D01*
X132379477Y-105130357D02*
X132331858Y-105082738D01*
X132331858Y-105082738D02*
X132379477Y-105035119D01*
X132379477Y-105035119D02*
X132379477Y-105130357D01*
X132046144Y-105368452D02*
X131665192Y-105368452D01*
X131903287Y-105035119D02*
X131903287Y-105892261D01*
X131903287Y-105892261D02*
X131855668Y-105987500D01*
X131855668Y-105987500D02*
X131760430Y-106035119D01*
X131760430Y-106035119D02*
X131665192Y-106035119D01*
X131331858Y-106035119D02*
X131331858Y-105035119D01*
X130903287Y-106035119D02*
X130903287Y-105511309D01*
X130903287Y-105511309D02*
X130950906Y-105416071D01*
X130950906Y-105416071D02*
X131046144Y-105368452D01*
X131046144Y-105368452D02*
X131189001Y-105368452D01*
X131189001Y-105368452D02*
X131284239Y-105416071D01*
X131284239Y-105416071D02*
X131331858Y-105463690D01*
X129808048Y-105368452D02*
X129427096Y-105368452D01*
X129665191Y-105035119D02*
X129665191Y-105892261D01*
X129665191Y-105892261D02*
X129617572Y-105987500D01*
X129617572Y-105987500D02*
X129522334Y-106035119D01*
X129522334Y-106035119D02*
X129427096Y-106035119D01*
X129093762Y-106035119D02*
X129093762Y-105035119D01*
X128665191Y-106035119D02*
X128665191Y-105511309D01*
X128665191Y-105511309D02*
X128712810Y-105416071D01*
X128712810Y-105416071D02*
X128808048Y-105368452D01*
X128808048Y-105368452D02*
X128950905Y-105368452D01*
X128950905Y-105368452D02*
X129046143Y-105416071D01*
X129046143Y-105416071D02*
X129093762Y-105463690D01*
X127808048Y-105987500D02*
X127903286Y-106035119D01*
X127903286Y-106035119D02*
X128093762Y-106035119D01*
X128093762Y-106035119D02*
X128189000Y-105987500D01*
X128189000Y-105987500D02*
X128236619Y-105892261D01*
X128236619Y-105892261D02*
X128236619Y-105511309D01*
X128236619Y-105511309D02*
X128189000Y-105416071D01*
X128189000Y-105416071D02*
X128093762Y-105368452D01*
X128093762Y-105368452D02*
X127903286Y-105368452D01*
X127903286Y-105368452D02*
X127808048Y-105416071D01*
X127808048Y-105416071D02*
X127760429Y-105511309D01*
X127760429Y-105511309D02*
X127760429Y-105606547D01*
X127760429Y-105606547D02*
X128236619Y-105701785D01*
X125998524Y-105939880D02*
X126046143Y-105987500D01*
X126046143Y-105987500D02*
X126189000Y-106035119D01*
X126189000Y-106035119D02*
X126284238Y-106035119D01*
X126284238Y-106035119D02*
X126427095Y-105987500D01*
X126427095Y-105987500D02*
X126522333Y-105892261D01*
X126522333Y-105892261D02*
X126569952Y-105797023D01*
X126569952Y-105797023D02*
X126617571Y-105606547D01*
X126617571Y-105606547D02*
X126617571Y-105463690D01*
X126617571Y-105463690D02*
X126569952Y-105273214D01*
X126569952Y-105273214D02*
X126522333Y-105177976D01*
X126522333Y-105177976D02*
X126427095Y-105082738D01*
X126427095Y-105082738D02*
X126284238Y-105035119D01*
X126284238Y-105035119D02*
X126189000Y-105035119D01*
X126189000Y-105035119D02*
X126046143Y-105082738D01*
X126046143Y-105082738D02*
X125998524Y-105130357D01*
X125427095Y-106035119D02*
X125522333Y-105987500D01*
X125522333Y-105987500D02*
X125569952Y-105939880D01*
X125569952Y-105939880D02*
X125617571Y-105844642D01*
X125617571Y-105844642D02*
X125617571Y-105558928D01*
X125617571Y-105558928D02*
X125569952Y-105463690D01*
X125569952Y-105463690D02*
X125522333Y-105416071D01*
X125522333Y-105416071D02*
X125427095Y-105368452D01*
X125427095Y-105368452D02*
X125284238Y-105368452D01*
X125284238Y-105368452D02*
X125189000Y-105416071D01*
X125189000Y-105416071D02*
X125141381Y-105463690D01*
X125141381Y-105463690D02*
X125093762Y-105558928D01*
X125093762Y-105558928D02*
X125093762Y-105844642D01*
X125093762Y-105844642D02*
X125141381Y-105939880D01*
X125141381Y-105939880D02*
X125189000Y-105987500D01*
X125189000Y-105987500D02*
X125284238Y-106035119D01*
X125284238Y-106035119D02*
X125427095Y-106035119D01*
X124665190Y-106035119D02*
X124665190Y-105368452D01*
X124665190Y-105463690D02*
X124617571Y-105416071D01*
X124617571Y-105416071D02*
X124522333Y-105368452D01*
X124522333Y-105368452D02*
X124379476Y-105368452D01*
X124379476Y-105368452D02*
X124284238Y-105416071D01*
X124284238Y-105416071D02*
X124236619Y-105511309D01*
X124236619Y-105511309D02*
X124236619Y-106035119D01*
X124236619Y-105511309D02*
X124189000Y-105416071D01*
X124189000Y-105416071D02*
X124093762Y-105368452D01*
X124093762Y-105368452D02*
X123950905Y-105368452D01*
X123950905Y-105368452D02*
X123855666Y-105416071D01*
X123855666Y-105416071D02*
X123808047Y-105511309D01*
X123808047Y-105511309D02*
X123808047Y-106035119D01*
X123331857Y-105368452D02*
X123331857Y-106368452D01*
X123331857Y-105416071D02*
X123236619Y-105368452D01*
X123236619Y-105368452D02*
X123046143Y-105368452D01*
X123046143Y-105368452D02*
X122950905Y-105416071D01*
X122950905Y-105416071D02*
X122903286Y-105463690D01*
X122903286Y-105463690D02*
X122855667Y-105558928D01*
X122855667Y-105558928D02*
X122855667Y-105844642D01*
X122855667Y-105844642D02*
X122903286Y-105939880D01*
X122903286Y-105939880D02*
X122950905Y-105987500D01*
X122950905Y-105987500D02*
X123046143Y-106035119D01*
X123046143Y-106035119D02*
X123236619Y-106035119D01*
X123236619Y-106035119D02*
X123331857Y-105987500D01*
X121998524Y-106035119D02*
X121998524Y-105511309D01*
X121998524Y-105511309D02*
X122046143Y-105416071D01*
X122046143Y-105416071D02*
X122141381Y-105368452D01*
X122141381Y-105368452D02*
X122331857Y-105368452D01*
X122331857Y-105368452D02*
X122427095Y-105416071D01*
X121998524Y-105987500D02*
X122093762Y-106035119D01*
X122093762Y-106035119D02*
X122331857Y-106035119D01*
X122331857Y-106035119D02*
X122427095Y-105987500D01*
X122427095Y-105987500D02*
X122474714Y-105892261D01*
X122474714Y-105892261D02*
X122474714Y-105797023D01*
X122474714Y-105797023D02*
X122427095Y-105701785D01*
X122427095Y-105701785D02*
X122331857Y-105654166D01*
X122331857Y-105654166D02*
X122093762Y-105654166D01*
X122093762Y-105654166D02*
X121998524Y-105606547D01*
X121569952Y-105987500D02*
X121474714Y-106035119D01*
X121474714Y-106035119D02*
X121284238Y-106035119D01*
X121284238Y-106035119D02*
X121189000Y-105987500D01*
X121189000Y-105987500D02*
X121141381Y-105892261D01*
X121141381Y-105892261D02*
X121141381Y-105844642D01*
X121141381Y-105844642D02*
X121189000Y-105749404D01*
X121189000Y-105749404D02*
X121284238Y-105701785D01*
X121284238Y-105701785D02*
X121427095Y-105701785D01*
X121427095Y-105701785D02*
X121522333Y-105654166D01*
X121522333Y-105654166D02*
X121569952Y-105558928D01*
X121569952Y-105558928D02*
X121569952Y-105511309D01*
X121569952Y-105511309D02*
X121522333Y-105416071D01*
X121522333Y-105416071D02*
X121427095Y-105368452D01*
X121427095Y-105368452D02*
X121284238Y-105368452D01*
X121284238Y-105368452D02*
X121189000Y-105416071D01*
X120760428Y-105987500D02*
X120665190Y-106035119D01*
X120665190Y-106035119D02*
X120474714Y-106035119D01*
X120474714Y-106035119D02*
X120379476Y-105987500D01*
X120379476Y-105987500D02*
X120331857Y-105892261D01*
X120331857Y-105892261D02*
X120331857Y-105844642D01*
X120331857Y-105844642D02*
X120379476Y-105749404D01*
X120379476Y-105749404D02*
X120474714Y-105701785D01*
X120474714Y-105701785D02*
X120617571Y-105701785D01*
X120617571Y-105701785D02*
X120712809Y-105654166D01*
X120712809Y-105654166D02*
X120760428Y-105558928D01*
X120760428Y-105558928D02*
X120760428Y-105511309D01*
X120760428Y-105511309D02*
X120712809Y-105416071D01*
X120712809Y-105416071D02*
X120617571Y-105368452D01*
X120617571Y-105368452D02*
X120474714Y-105368452D01*
X120474714Y-105368452D02*
X120379476Y-105416071D01*
X119141380Y-105654166D02*
X118379476Y-105654166D01*
X137855668Y-107645119D02*
X137855668Y-106645119D01*
X137855668Y-106645119D02*
X137617573Y-106645119D01*
X137617573Y-106645119D02*
X137474716Y-106692738D01*
X137474716Y-106692738D02*
X137379478Y-106787976D01*
X137379478Y-106787976D02*
X137331859Y-106883214D01*
X137331859Y-106883214D02*
X137284240Y-107073690D01*
X137284240Y-107073690D02*
X137284240Y-107216547D01*
X137284240Y-107216547D02*
X137331859Y-107407023D01*
X137331859Y-107407023D02*
X137379478Y-107502261D01*
X137379478Y-107502261D02*
X137474716Y-107597500D01*
X137474716Y-107597500D02*
X137617573Y-107645119D01*
X137617573Y-107645119D02*
X137855668Y-107645119D01*
X136712811Y-107645119D02*
X136808049Y-107597500D01*
X136808049Y-107597500D02*
X136855668Y-107549880D01*
X136855668Y-107549880D02*
X136903287Y-107454642D01*
X136903287Y-107454642D02*
X136903287Y-107168928D01*
X136903287Y-107168928D02*
X136855668Y-107073690D01*
X136855668Y-107073690D02*
X136808049Y-107026071D01*
X136808049Y-107026071D02*
X136712811Y-106978452D01*
X136712811Y-106978452D02*
X136569954Y-106978452D01*
X136569954Y-106978452D02*
X136474716Y-107026071D01*
X136474716Y-107026071D02*
X136427097Y-107073690D01*
X136427097Y-107073690D02*
X136379478Y-107168928D01*
X136379478Y-107168928D02*
X136379478Y-107454642D01*
X136379478Y-107454642D02*
X136427097Y-107549880D01*
X136427097Y-107549880D02*
X136474716Y-107597500D01*
X136474716Y-107597500D02*
X136569954Y-107645119D01*
X136569954Y-107645119D02*
X136712811Y-107645119D01*
X135950906Y-106978452D02*
X135950906Y-107645119D01*
X135950906Y-107073690D02*
X135903287Y-107026071D01*
X135903287Y-107026071D02*
X135808049Y-106978452D01*
X135808049Y-106978452D02*
X135665192Y-106978452D01*
X135665192Y-106978452D02*
X135569954Y-107026071D01*
X135569954Y-107026071D02*
X135522335Y-107121309D01*
X135522335Y-107121309D02*
X135522335Y-107645119D01*
X134665192Y-107597500D02*
X134760430Y-107645119D01*
X134760430Y-107645119D02*
X134950906Y-107645119D01*
X134950906Y-107645119D02*
X135046144Y-107597500D01*
X135046144Y-107597500D02*
X135093763Y-107502261D01*
X135093763Y-107502261D02*
X135093763Y-107121309D01*
X135093763Y-107121309D02*
X135046144Y-107026071D01*
X135046144Y-107026071D02*
X134950906Y-106978452D01*
X134950906Y-106978452D02*
X134760430Y-106978452D01*
X134760430Y-106978452D02*
X134665192Y-107026071D01*
X134665192Y-107026071D02*
X134617573Y-107121309D01*
X134617573Y-107121309D02*
X134617573Y-107216547D01*
X134617573Y-107216547D02*
X135093763Y-107311785D01*
X133522334Y-106978452D02*
X133331858Y-107645119D01*
X133331858Y-107645119D02*
X133141382Y-107168928D01*
X133141382Y-107168928D02*
X132950906Y-107645119D01*
X132950906Y-107645119D02*
X132760430Y-106978452D01*
X132379477Y-107645119D02*
X132379477Y-106978452D01*
X132379477Y-106645119D02*
X132427096Y-106692738D01*
X132427096Y-106692738D02*
X132379477Y-106740357D01*
X132379477Y-106740357D02*
X132331858Y-106692738D01*
X132331858Y-106692738D02*
X132379477Y-106645119D01*
X132379477Y-106645119D02*
X132379477Y-106740357D01*
X132046144Y-106978452D02*
X131665192Y-106978452D01*
X131903287Y-106645119D02*
X131903287Y-107502261D01*
X131903287Y-107502261D02*
X131855668Y-107597500D01*
X131855668Y-107597500D02*
X131760430Y-107645119D01*
X131760430Y-107645119D02*
X131665192Y-107645119D01*
X131331858Y-107645119D02*
X131331858Y-106645119D01*
X130903287Y-107645119D02*
X130903287Y-107121309D01*
X130903287Y-107121309D02*
X130950906Y-107026071D01*
X130950906Y-107026071D02*
X131046144Y-106978452D01*
X131046144Y-106978452D02*
X131189001Y-106978452D01*
X131189001Y-106978452D02*
X131284239Y-107026071D01*
X131284239Y-107026071D02*
X131331858Y-107073690D01*
X129808048Y-106978452D02*
X129427096Y-106978452D01*
X129665191Y-106645119D02*
X129665191Y-107502261D01*
X129665191Y-107502261D02*
X129617572Y-107597500D01*
X129617572Y-107597500D02*
X129522334Y-107645119D01*
X129522334Y-107645119D02*
X129427096Y-107645119D01*
X129093762Y-107645119D02*
X129093762Y-106645119D01*
X128665191Y-107645119D02*
X128665191Y-107121309D01*
X128665191Y-107121309D02*
X128712810Y-107026071D01*
X128712810Y-107026071D02*
X128808048Y-106978452D01*
X128808048Y-106978452D02*
X128950905Y-106978452D01*
X128950905Y-106978452D02*
X129046143Y-107026071D01*
X129046143Y-107026071D02*
X129093762Y-107073690D01*
X127808048Y-107597500D02*
X127903286Y-107645119D01*
X127903286Y-107645119D02*
X128093762Y-107645119D01*
X128093762Y-107645119D02*
X128189000Y-107597500D01*
X128189000Y-107597500D02*
X128236619Y-107502261D01*
X128236619Y-107502261D02*
X128236619Y-107121309D01*
X128236619Y-107121309D02*
X128189000Y-107026071D01*
X128189000Y-107026071D02*
X128093762Y-106978452D01*
X128093762Y-106978452D02*
X127903286Y-106978452D01*
X127903286Y-106978452D02*
X127808048Y-107026071D01*
X127808048Y-107026071D02*
X127760429Y-107121309D01*
X127760429Y-107121309D02*
X127760429Y-107216547D01*
X127760429Y-107216547D02*
X128236619Y-107311785D01*
X125998524Y-107549880D02*
X126046143Y-107597500D01*
X126046143Y-107597500D02*
X126189000Y-107645119D01*
X126189000Y-107645119D02*
X126284238Y-107645119D01*
X126284238Y-107645119D02*
X126427095Y-107597500D01*
X126427095Y-107597500D02*
X126522333Y-107502261D01*
X126522333Y-107502261D02*
X126569952Y-107407023D01*
X126569952Y-107407023D02*
X126617571Y-107216547D01*
X126617571Y-107216547D02*
X126617571Y-107073690D01*
X126617571Y-107073690D02*
X126569952Y-106883214D01*
X126569952Y-106883214D02*
X126522333Y-106787976D01*
X126522333Y-106787976D02*
X126427095Y-106692738D01*
X126427095Y-106692738D02*
X126284238Y-106645119D01*
X126284238Y-106645119D02*
X126189000Y-106645119D01*
X126189000Y-106645119D02*
X126046143Y-106692738D01*
X126046143Y-106692738D02*
X125998524Y-106740357D01*
X125569952Y-107645119D02*
X125569952Y-106645119D01*
X125141381Y-107645119D02*
X125141381Y-107121309D01*
X125141381Y-107121309D02*
X125189000Y-107026071D01*
X125189000Y-107026071D02*
X125284238Y-106978452D01*
X125284238Y-106978452D02*
X125427095Y-106978452D01*
X125427095Y-106978452D02*
X125522333Y-107026071D01*
X125522333Y-107026071D02*
X125569952Y-107073690D01*
X124236619Y-107645119D02*
X124236619Y-107121309D01*
X124236619Y-107121309D02*
X124284238Y-107026071D01*
X124284238Y-107026071D02*
X124379476Y-106978452D01*
X124379476Y-106978452D02*
X124569952Y-106978452D01*
X124569952Y-106978452D02*
X124665190Y-107026071D01*
X124236619Y-107597500D02*
X124331857Y-107645119D01*
X124331857Y-107645119D02*
X124569952Y-107645119D01*
X124569952Y-107645119D02*
X124665190Y-107597500D01*
X124665190Y-107597500D02*
X124712809Y-107502261D01*
X124712809Y-107502261D02*
X124712809Y-107407023D01*
X124712809Y-107407023D02*
X124665190Y-107311785D01*
X124665190Y-107311785D02*
X124569952Y-107264166D01*
X124569952Y-107264166D02*
X124331857Y-107264166D01*
X124331857Y-107264166D02*
X124236619Y-107216547D01*
X123760428Y-107645119D02*
X123760428Y-106978452D01*
X123760428Y-107168928D02*
X123712809Y-107073690D01*
X123712809Y-107073690D02*
X123665190Y-107026071D01*
X123665190Y-107026071D02*
X123569952Y-106978452D01*
X123569952Y-106978452D02*
X123474714Y-106978452D01*
X123284237Y-106978452D02*
X122903285Y-106978452D01*
X123141380Y-106645119D02*
X123141380Y-107502261D01*
X123141380Y-107502261D02*
X123093761Y-107597500D01*
X123093761Y-107597500D02*
X122998523Y-107645119D01*
X122998523Y-107645119D02*
X122903285Y-107645119D01*
X122569951Y-107549880D02*
X122522332Y-107597500D01*
X122522332Y-107597500D02*
X122569951Y-107645119D01*
X122569951Y-107645119D02*
X122617570Y-107597500D01*
X122617570Y-107597500D02*
X122569951Y-107549880D01*
X122569951Y-107549880D02*
X122569951Y-107645119D01*
X122569951Y-107264166D02*
X122617570Y-106692738D01*
X122617570Y-106692738D02*
X122569951Y-106645119D01*
X122569951Y-106645119D02*
X122522332Y-106692738D01*
X122522332Y-106692738D02*
X122569951Y-107264166D01*
X122569951Y-107264166D02*
X122569951Y-106645119D01*
X137284240Y-110865119D02*
X137617573Y-110388928D01*
X137855668Y-110865119D02*
X137855668Y-109865119D01*
X137855668Y-109865119D02*
X137474716Y-109865119D01*
X137474716Y-109865119D02*
X137379478Y-109912738D01*
X137379478Y-109912738D02*
X137331859Y-109960357D01*
X137331859Y-109960357D02*
X137284240Y-110055595D01*
X137284240Y-110055595D02*
X137284240Y-110198452D01*
X137284240Y-110198452D02*
X137331859Y-110293690D01*
X137331859Y-110293690D02*
X137379478Y-110341309D01*
X137379478Y-110341309D02*
X137474716Y-110388928D01*
X137474716Y-110388928D02*
X137855668Y-110388928D01*
X136712811Y-110865119D02*
X136808049Y-110817500D01*
X136808049Y-110817500D02*
X136855668Y-110769880D01*
X136855668Y-110769880D02*
X136903287Y-110674642D01*
X136903287Y-110674642D02*
X136903287Y-110388928D01*
X136903287Y-110388928D02*
X136855668Y-110293690D01*
X136855668Y-110293690D02*
X136808049Y-110246071D01*
X136808049Y-110246071D02*
X136712811Y-110198452D01*
X136712811Y-110198452D02*
X136569954Y-110198452D01*
X136569954Y-110198452D02*
X136474716Y-110246071D01*
X136474716Y-110246071D02*
X136427097Y-110293690D01*
X136427097Y-110293690D02*
X136379478Y-110388928D01*
X136379478Y-110388928D02*
X136379478Y-110674642D01*
X136379478Y-110674642D02*
X136427097Y-110769880D01*
X136427097Y-110769880D02*
X136474716Y-110817500D01*
X136474716Y-110817500D02*
X136569954Y-110865119D01*
X136569954Y-110865119D02*
X136712811Y-110865119D01*
X136046144Y-110198452D02*
X135855668Y-110865119D01*
X135855668Y-110865119D02*
X135665192Y-110388928D01*
X135665192Y-110388928D02*
X135474716Y-110865119D01*
X135474716Y-110865119D02*
X135284240Y-110198452D01*
X134903287Y-110865119D02*
X134903287Y-110198452D01*
X134903287Y-109865119D02*
X134950906Y-109912738D01*
X134950906Y-109912738D02*
X134903287Y-109960357D01*
X134903287Y-109960357D02*
X134855668Y-109912738D01*
X134855668Y-109912738D02*
X134903287Y-109865119D01*
X134903287Y-109865119D02*
X134903287Y-109960357D01*
X134427097Y-110198452D02*
X134427097Y-110865119D01*
X134427097Y-110293690D02*
X134379478Y-110246071D01*
X134379478Y-110246071D02*
X134284240Y-110198452D01*
X134284240Y-110198452D02*
X134141383Y-110198452D01*
X134141383Y-110198452D02*
X134046145Y-110246071D01*
X134046145Y-110246071D02*
X133998526Y-110341309D01*
X133998526Y-110341309D02*
X133998526Y-110865119D01*
X133093764Y-110198452D02*
X133093764Y-111007976D01*
X133093764Y-111007976D02*
X133141383Y-111103214D01*
X133141383Y-111103214D02*
X133189002Y-111150833D01*
X133189002Y-111150833D02*
X133284240Y-111198452D01*
X133284240Y-111198452D02*
X133427097Y-111198452D01*
X133427097Y-111198452D02*
X133522335Y-111150833D01*
X133093764Y-110817500D02*
X133189002Y-110865119D01*
X133189002Y-110865119D02*
X133379478Y-110865119D01*
X133379478Y-110865119D02*
X133474716Y-110817500D01*
X133474716Y-110817500D02*
X133522335Y-110769880D01*
X133522335Y-110769880D02*
X133569954Y-110674642D01*
X133569954Y-110674642D02*
X133569954Y-110388928D01*
X133569954Y-110388928D02*
X133522335Y-110293690D01*
X133522335Y-110293690D02*
X133474716Y-110246071D01*
X133474716Y-110246071D02*
X133379478Y-110198452D01*
X133379478Y-110198452D02*
X133189002Y-110198452D01*
X133189002Y-110198452D02*
X133093764Y-110246071D01*
X131855668Y-110865119D02*
X131855668Y-110198452D01*
X131855668Y-109865119D02*
X131903287Y-109912738D01*
X131903287Y-109912738D02*
X131855668Y-109960357D01*
X131855668Y-109960357D02*
X131808049Y-109912738D01*
X131808049Y-109912738D02*
X131855668Y-109865119D01*
X131855668Y-109865119D02*
X131855668Y-109960357D01*
X131379478Y-110198452D02*
X131379478Y-110865119D01*
X131379478Y-110293690D02*
X131331859Y-110246071D01*
X131331859Y-110246071D02*
X131236621Y-110198452D01*
X131236621Y-110198452D02*
X131093764Y-110198452D01*
X131093764Y-110198452D02*
X130998526Y-110246071D01*
X130998526Y-110246071D02*
X130950907Y-110341309D01*
X130950907Y-110341309D02*
X130950907Y-110865119D01*
X129712811Y-110341309D02*
X129379478Y-110341309D01*
X129236621Y-110865119D02*
X129712811Y-110865119D01*
X129712811Y-110865119D02*
X129712811Y-109865119D01*
X129712811Y-109865119D02*
X129236621Y-109865119D01*
X128379478Y-110865119D02*
X128379478Y-109865119D01*
X128379478Y-110817500D02*
X128474716Y-110865119D01*
X128474716Y-110865119D02*
X128665192Y-110865119D01*
X128665192Y-110865119D02*
X128760430Y-110817500D01*
X128760430Y-110817500D02*
X128808049Y-110769880D01*
X128808049Y-110769880D02*
X128855668Y-110674642D01*
X128855668Y-110674642D02*
X128855668Y-110388928D01*
X128855668Y-110388928D02*
X128808049Y-110293690D01*
X128808049Y-110293690D02*
X128760430Y-110246071D01*
X128760430Y-110246071D02*
X128665192Y-110198452D01*
X128665192Y-110198452D02*
X128474716Y-110198452D01*
X128474716Y-110198452D02*
X128379478Y-110246071D01*
X127522335Y-110817500D02*
X127617573Y-110865119D01*
X127617573Y-110865119D02*
X127808049Y-110865119D01*
X127808049Y-110865119D02*
X127903287Y-110817500D01*
X127903287Y-110817500D02*
X127950906Y-110722261D01*
X127950906Y-110722261D02*
X127950906Y-110341309D01*
X127950906Y-110341309D02*
X127903287Y-110246071D01*
X127903287Y-110246071D02*
X127808049Y-110198452D01*
X127808049Y-110198452D02*
X127617573Y-110198452D01*
X127617573Y-110198452D02*
X127522335Y-110246071D01*
X127522335Y-110246071D02*
X127474716Y-110341309D01*
X127474716Y-110341309D02*
X127474716Y-110436547D01*
X127474716Y-110436547D02*
X127950906Y-110531785D01*
X127046144Y-110198452D02*
X127046144Y-110865119D01*
X127046144Y-110293690D02*
X126998525Y-110246071D01*
X126998525Y-110246071D02*
X126903287Y-110198452D01*
X126903287Y-110198452D02*
X126760430Y-110198452D01*
X126760430Y-110198452D02*
X126665192Y-110246071D01*
X126665192Y-110246071D02*
X126617573Y-110341309D01*
X126617573Y-110341309D02*
X126617573Y-110865119D01*
X125379477Y-110484166D02*
X124617573Y-110484166D01*
X137903287Y-112189404D02*
X137427097Y-112189404D01*
X137998525Y-112475119D02*
X137665192Y-111475119D01*
X137665192Y-111475119D02*
X137331859Y-112475119D01*
X136998525Y-112475119D02*
X136998525Y-111475119D01*
X136569954Y-112475119D02*
X136569954Y-111951309D01*
X136569954Y-111951309D02*
X136617573Y-111856071D01*
X136617573Y-111856071D02*
X136712811Y-111808452D01*
X136712811Y-111808452D02*
X136855668Y-111808452D01*
X136855668Y-111808452D02*
X136950906Y-111856071D01*
X136950906Y-111856071D02*
X136998525Y-111903690D01*
X135331858Y-112094166D02*
X134569954Y-112094166D01*
X133474715Y-111808452D02*
X133093763Y-111808452D01*
X133331858Y-111475119D02*
X133331858Y-112332261D01*
X133331858Y-112332261D02*
X133284239Y-112427500D01*
X133284239Y-112427500D02*
X133189001Y-112475119D01*
X133189001Y-112475119D02*
X133093763Y-112475119D01*
X132760429Y-112475119D02*
X132760429Y-111475119D01*
X132331858Y-112475119D02*
X132331858Y-111951309D01*
X132331858Y-111951309D02*
X132379477Y-111856071D01*
X132379477Y-111856071D02*
X132474715Y-111808452D01*
X132474715Y-111808452D02*
X132617572Y-111808452D01*
X132617572Y-111808452D02*
X132712810Y-111856071D01*
X132712810Y-111856071D02*
X132760429Y-111903690D01*
X131474715Y-112427500D02*
X131569953Y-112475119D01*
X131569953Y-112475119D02*
X131760429Y-112475119D01*
X131760429Y-112475119D02*
X131855667Y-112427500D01*
X131855667Y-112427500D02*
X131903286Y-112332261D01*
X131903286Y-112332261D02*
X131903286Y-111951309D01*
X131903286Y-111951309D02*
X131855667Y-111856071D01*
X131855667Y-111856071D02*
X131760429Y-111808452D01*
X131760429Y-111808452D02*
X131569953Y-111808452D01*
X131569953Y-111808452D02*
X131474715Y-111856071D01*
X131474715Y-111856071D02*
X131427096Y-111951309D01*
X131427096Y-111951309D02*
X131427096Y-112046547D01*
X131427096Y-112046547D02*
X131903286Y-112141785D01*
X130284238Y-112427500D02*
X130141381Y-112475119D01*
X130141381Y-112475119D02*
X129903286Y-112475119D01*
X129903286Y-112475119D02*
X129808048Y-112427500D01*
X129808048Y-112427500D02*
X129760429Y-112379880D01*
X129760429Y-112379880D02*
X129712810Y-112284642D01*
X129712810Y-112284642D02*
X129712810Y-112189404D01*
X129712810Y-112189404D02*
X129760429Y-112094166D01*
X129760429Y-112094166D02*
X129808048Y-112046547D01*
X129808048Y-112046547D02*
X129903286Y-111998928D01*
X129903286Y-111998928D02*
X130093762Y-111951309D01*
X130093762Y-111951309D02*
X130189000Y-111903690D01*
X130189000Y-111903690D02*
X130236619Y-111856071D01*
X130236619Y-111856071D02*
X130284238Y-111760833D01*
X130284238Y-111760833D02*
X130284238Y-111665595D01*
X130284238Y-111665595D02*
X130236619Y-111570357D01*
X130236619Y-111570357D02*
X130189000Y-111522738D01*
X130189000Y-111522738D02*
X130093762Y-111475119D01*
X130093762Y-111475119D02*
X129855667Y-111475119D01*
X129855667Y-111475119D02*
X129712810Y-111522738D01*
X128903286Y-112427500D02*
X128998524Y-112475119D01*
X128998524Y-112475119D02*
X129189000Y-112475119D01*
X129189000Y-112475119D02*
X129284238Y-112427500D01*
X129284238Y-112427500D02*
X129331857Y-112332261D01*
X129331857Y-112332261D02*
X129331857Y-111951309D01*
X129331857Y-111951309D02*
X129284238Y-111856071D01*
X129284238Y-111856071D02*
X129189000Y-111808452D01*
X129189000Y-111808452D02*
X128998524Y-111808452D01*
X128998524Y-111808452D02*
X128903286Y-111856071D01*
X128903286Y-111856071D02*
X128855667Y-111951309D01*
X128855667Y-111951309D02*
X128855667Y-112046547D01*
X128855667Y-112046547D02*
X129331857Y-112141785D01*
X127998524Y-112475119D02*
X127998524Y-111951309D01*
X127998524Y-111951309D02*
X128046143Y-111856071D01*
X128046143Y-111856071D02*
X128141381Y-111808452D01*
X128141381Y-111808452D02*
X128331857Y-111808452D01*
X128331857Y-111808452D02*
X128427095Y-111856071D01*
X127998524Y-112427500D02*
X128093762Y-112475119D01*
X128093762Y-112475119D02*
X128331857Y-112475119D01*
X128331857Y-112475119D02*
X128427095Y-112427500D01*
X128427095Y-112427500D02*
X128474714Y-112332261D01*
X128474714Y-112332261D02*
X128474714Y-112237023D01*
X128474714Y-112237023D02*
X128427095Y-112141785D01*
X128427095Y-112141785D02*
X128331857Y-112094166D01*
X128331857Y-112094166D02*
X128093762Y-112094166D01*
X128093762Y-112094166D02*
X127998524Y-112046547D01*
X127522333Y-112379880D02*
X127474714Y-112427500D01*
X127474714Y-112427500D02*
X127522333Y-112475119D01*
X127522333Y-112475119D02*
X127569952Y-112427500D01*
X127569952Y-112427500D02*
X127522333Y-112379880D01*
X127522333Y-112379880D02*
X127522333Y-112475119D01*
X127522333Y-112094166D02*
X127569952Y-111522738D01*
X127569952Y-111522738D02*
X127522333Y-111475119D01*
X127522333Y-111475119D02*
X127474714Y-111522738D01*
X127474714Y-111522738D02*
X127522333Y-112094166D01*
X127522333Y-112094166D02*
X127522333Y-111475119D01*
X137855668Y-114085119D02*
X137855668Y-113085119D01*
X137855668Y-113085119D02*
X137522335Y-113799404D01*
X137522335Y-113799404D02*
X137189002Y-113085119D01*
X137189002Y-113085119D02*
X137189002Y-114085119D01*
X136712811Y-114085119D02*
X136712811Y-113418452D01*
X136712811Y-113085119D02*
X136760430Y-113132738D01*
X136760430Y-113132738D02*
X136712811Y-113180357D01*
X136712811Y-113180357D02*
X136665192Y-113132738D01*
X136665192Y-113132738D02*
X136712811Y-113085119D01*
X136712811Y-113085119D02*
X136712811Y-113180357D01*
X135808050Y-113418452D02*
X135808050Y-114227976D01*
X135808050Y-114227976D02*
X135855669Y-114323214D01*
X135855669Y-114323214D02*
X135903288Y-114370833D01*
X135903288Y-114370833D02*
X135998526Y-114418452D01*
X135998526Y-114418452D02*
X136141383Y-114418452D01*
X136141383Y-114418452D02*
X136236621Y-114370833D01*
X135808050Y-114037500D02*
X135903288Y-114085119D01*
X135903288Y-114085119D02*
X136093764Y-114085119D01*
X136093764Y-114085119D02*
X136189002Y-114037500D01*
X136189002Y-114037500D02*
X136236621Y-113989880D01*
X136236621Y-113989880D02*
X136284240Y-113894642D01*
X136284240Y-113894642D02*
X136284240Y-113608928D01*
X136284240Y-113608928D02*
X136236621Y-113513690D01*
X136236621Y-113513690D02*
X136189002Y-113466071D01*
X136189002Y-113466071D02*
X136093764Y-113418452D01*
X136093764Y-113418452D02*
X135903288Y-113418452D01*
X135903288Y-113418452D02*
X135808050Y-113466071D01*
X135331859Y-114085119D02*
X135331859Y-113085119D01*
X134903288Y-114085119D02*
X134903288Y-113561309D01*
X134903288Y-113561309D02*
X134950907Y-113466071D01*
X134950907Y-113466071D02*
X135046145Y-113418452D01*
X135046145Y-113418452D02*
X135189002Y-113418452D01*
X135189002Y-113418452D02*
X135284240Y-113466071D01*
X135284240Y-113466071D02*
X135331859Y-113513690D01*
X134569954Y-113418452D02*
X134189002Y-113418452D01*
X134427097Y-113085119D02*
X134427097Y-113942261D01*
X134427097Y-113942261D02*
X134379478Y-114037500D01*
X134379478Y-114037500D02*
X134284240Y-114085119D01*
X134284240Y-114085119D02*
X134189002Y-114085119D01*
X133093763Y-114085119D02*
X133093763Y-113085119D01*
X131855668Y-114085119D02*
X131855668Y-113085119D01*
X131855668Y-113466071D02*
X131760430Y-113418452D01*
X131760430Y-113418452D02*
X131569954Y-113418452D01*
X131569954Y-113418452D02*
X131474716Y-113466071D01*
X131474716Y-113466071D02*
X131427097Y-113513690D01*
X131427097Y-113513690D02*
X131379478Y-113608928D01*
X131379478Y-113608928D02*
X131379478Y-113894642D01*
X131379478Y-113894642D02*
X131427097Y-113989880D01*
X131427097Y-113989880D02*
X131474716Y-114037500D01*
X131474716Y-114037500D02*
X131569954Y-114085119D01*
X131569954Y-114085119D02*
X131760430Y-114085119D01*
X131760430Y-114085119D02*
X131855668Y-114037500D01*
X130522335Y-113418452D02*
X130522335Y-114085119D01*
X130950906Y-113418452D02*
X130950906Y-113942261D01*
X130950906Y-113942261D02*
X130903287Y-114037500D01*
X130903287Y-114037500D02*
X130808049Y-114085119D01*
X130808049Y-114085119D02*
X130665192Y-114085119D01*
X130665192Y-114085119D02*
X130569954Y-114037500D01*
X130569954Y-114037500D02*
X130522335Y-113989880D01*
X130189001Y-113418452D02*
X129808049Y-113418452D01*
X130046144Y-113085119D02*
X130046144Y-113942261D01*
X130046144Y-113942261D02*
X129998525Y-114037500D01*
X129998525Y-114037500D02*
X129903287Y-114085119D01*
X129903287Y-114085119D02*
X129808049Y-114085119D01*
X128712810Y-114085119D02*
X128712810Y-113418452D01*
X128712810Y-113513690D02*
X128665191Y-113466071D01*
X128665191Y-113466071D02*
X128569953Y-113418452D01*
X128569953Y-113418452D02*
X128427096Y-113418452D01*
X128427096Y-113418452D02*
X128331858Y-113466071D01*
X128331858Y-113466071D02*
X128284239Y-113561309D01*
X128284239Y-113561309D02*
X128284239Y-114085119D01*
X128284239Y-113561309D02*
X128236620Y-113466071D01*
X128236620Y-113466071D02*
X128141382Y-113418452D01*
X128141382Y-113418452D02*
X127998525Y-113418452D01*
X127998525Y-113418452D02*
X127903286Y-113466071D01*
X127903286Y-113466071D02*
X127855667Y-113561309D01*
X127855667Y-113561309D02*
X127855667Y-114085119D01*
X127236620Y-114085119D02*
X127331858Y-114037500D01*
X127331858Y-114037500D02*
X127379477Y-113989880D01*
X127379477Y-113989880D02*
X127427096Y-113894642D01*
X127427096Y-113894642D02*
X127427096Y-113608928D01*
X127427096Y-113608928D02*
X127379477Y-113513690D01*
X127379477Y-113513690D02*
X127331858Y-113466071D01*
X127331858Y-113466071D02*
X127236620Y-113418452D01*
X127236620Y-113418452D02*
X127093763Y-113418452D01*
X127093763Y-113418452D02*
X126998525Y-113466071D01*
X126998525Y-113466071D02*
X126950906Y-113513690D01*
X126950906Y-113513690D02*
X126903287Y-113608928D01*
X126903287Y-113608928D02*
X126903287Y-113894642D01*
X126903287Y-113894642D02*
X126950906Y-113989880D01*
X126950906Y-113989880D02*
X126998525Y-114037500D01*
X126998525Y-114037500D02*
X127093763Y-114085119D01*
X127093763Y-114085119D02*
X127236620Y-114085119D01*
X126331858Y-114085119D02*
X126427096Y-114037500D01*
X126427096Y-114037500D02*
X126474715Y-113989880D01*
X126474715Y-113989880D02*
X126522334Y-113894642D01*
X126522334Y-113894642D02*
X126522334Y-113608928D01*
X126522334Y-113608928D02*
X126474715Y-113513690D01*
X126474715Y-113513690D02*
X126427096Y-113466071D01*
X126427096Y-113466071D02*
X126331858Y-113418452D01*
X126331858Y-113418452D02*
X126189001Y-113418452D01*
X126189001Y-113418452D02*
X126093763Y-113466071D01*
X126093763Y-113466071D02*
X126046144Y-113513690D01*
X126046144Y-113513690D02*
X125998525Y-113608928D01*
X125998525Y-113608928D02*
X125998525Y-113894642D01*
X125998525Y-113894642D02*
X126046144Y-113989880D01*
X126046144Y-113989880D02*
X126093763Y-114037500D01*
X126093763Y-114037500D02*
X126189001Y-114085119D01*
X126189001Y-114085119D02*
X126331858Y-114085119D01*
X125569953Y-114085119D02*
X125569953Y-113418452D01*
X125569953Y-113608928D02*
X125522334Y-113513690D01*
X125522334Y-113513690D02*
X125474715Y-113466071D01*
X125474715Y-113466071D02*
X125379477Y-113418452D01*
X125379477Y-113418452D02*
X125284239Y-113418452D01*
X124189000Y-113704166D02*
X123427096Y-113704166D01*
X122331857Y-113418452D02*
X121950905Y-113418452D01*
X122189000Y-113085119D02*
X122189000Y-113942261D01*
X122189000Y-113942261D02*
X122141381Y-114037500D01*
X122141381Y-114037500D02*
X122046143Y-114085119D01*
X122046143Y-114085119D02*
X121950905Y-114085119D01*
X121474714Y-114085119D02*
X121569952Y-114037500D01*
X121569952Y-114037500D02*
X121617571Y-113989880D01*
X121617571Y-113989880D02*
X121665190Y-113894642D01*
X121665190Y-113894642D02*
X121665190Y-113608928D01*
X121665190Y-113608928D02*
X121617571Y-113513690D01*
X121617571Y-113513690D02*
X121569952Y-113466071D01*
X121569952Y-113466071D02*
X121474714Y-113418452D01*
X121474714Y-113418452D02*
X121331857Y-113418452D01*
X121331857Y-113418452D02*
X121236619Y-113466071D01*
X121236619Y-113466071D02*
X121189000Y-113513690D01*
X121189000Y-113513690D02*
X121141381Y-113608928D01*
X121141381Y-113608928D02*
X121141381Y-113894642D01*
X121141381Y-113894642D02*
X121189000Y-113989880D01*
X121189000Y-113989880D02*
X121236619Y-114037500D01*
X121236619Y-114037500D02*
X121331857Y-114085119D01*
X121331857Y-114085119D02*
X121474714Y-114085119D01*
X120712809Y-113418452D02*
X120712809Y-114085119D01*
X120712809Y-113513690D02*
X120665190Y-113466071D01*
X120665190Y-113466071D02*
X120569952Y-113418452D01*
X120569952Y-113418452D02*
X120427095Y-113418452D01*
X120427095Y-113418452D02*
X120331857Y-113466071D01*
X120331857Y-113466071D02*
X120284238Y-113561309D01*
X120284238Y-113561309D02*
X120284238Y-114085119D01*
X119808047Y-114085119D02*
X119808047Y-113418452D01*
X119808047Y-113085119D02*
X119855666Y-113132738D01*
X119855666Y-113132738D02*
X119808047Y-113180357D01*
X119808047Y-113180357D02*
X119760428Y-113132738D01*
X119760428Y-113132738D02*
X119808047Y-113085119D01*
X119808047Y-113085119D02*
X119808047Y-113180357D01*
X118903286Y-113418452D02*
X118903286Y-114227976D01*
X118903286Y-114227976D02*
X118950905Y-114323214D01*
X118950905Y-114323214D02*
X118998524Y-114370833D01*
X118998524Y-114370833D02*
X119093762Y-114418452D01*
X119093762Y-114418452D02*
X119236619Y-114418452D01*
X119236619Y-114418452D02*
X119331857Y-114370833D01*
X118903286Y-114037500D02*
X118998524Y-114085119D01*
X118998524Y-114085119D02*
X119189000Y-114085119D01*
X119189000Y-114085119D02*
X119284238Y-114037500D01*
X119284238Y-114037500D02*
X119331857Y-113989880D01*
X119331857Y-113989880D02*
X119379476Y-113894642D01*
X119379476Y-113894642D02*
X119379476Y-113608928D01*
X119379476Y-113608928D02*
X119331857Y-113513690D01*
X119331857Y-113513690D02*
X119284238Y-113466071D01*
X119284238Y-113466071D02*
X119189000Y-113418452D01*
X119189000Y-113418452D02*
X118998524Y-113418452D01*
X118998524Y-113418452D02*
X118903286Y-113466071D01*
X118427095Y-114085119D02*
X118427095Y-113085119D01*
X117998524Y-114085119D02*
X117998524Y-113561309D01*
X117998524Y-113561309D02*
X118046143Y-113466071D01*
X118046143Y-113466071D02*
X118141381Y-113418452D01*
X118141381Y-113418452D02*
X118284238Y-113418452D01*
X118284238Y-113418452D02*
X118379476Y-113466071D01*
X118379476Y-113466071D02*
X118427095Y-113513690D01*
X117665190Y-113418452D02*
X117284238Y-113418452D01*
X117522333Y-113085119D02*
X117522333Y-113942261D01*
X117522333Y-113942261D02*
X117474714Y-114037500D01*
X117474714Y-114037500D02*
X117379476Y-114085119D01*
X117379476Y-114085119D02*
X117284238Y-114085119D01*
X116188999Y-113704166D02*
X115427095Y-113704166D01*
X137855668Y-115695119D02*
X137855668Y-114695119D01*
X137379478Y-115028452D02*
X137379478Y-115695119D01*
X137379478Y-115123690D02*
X137331859Y-115076071D01*
X137331859Y-115076071D02*
X137236621Y-115028452D01*
X137236621Y-115028452D02*
X137093764Y-115028452D01*
X137093764Y-115028452D02*
X136998526Y-115076071D01*
X136998526Y-115076071D02*
X136950907Y-115171309D01*
X136950907Y-115171309D02*
X136950907Y-115695119D01*
X135855668Y-115028452D02*
X135474716Y-115028452D01*
X135712811Y-114695119D02*
X135712811Y-115552261D01*
X135712811Y-115552261D02*
X135665192Y-115647500D01*
X135665192Y-115647500D02*
X135569954Y-115695119D01*
X135569954Y-115695119D02*
X135474716Y-115695119D01*
X135141382Y-115695119D02*
X135141382Y-114695119D01*
X134712811Y-115695119D02*
X134712811Y-115171309D01*
X134712811Y-115171309D02*
X134760430Y-115076071D01*
X134760430Y-115076071D02*
X134855668Y-115028452D01*
X134855668Y-115028452D02*
X134998525Y-115028452D01*
X134998525Y-115028452D02*
X135093763Y-115076071D01*
X135093763Y-115076071D02*
X135141382Y-115123690D01*
X133855668Y-115647500D02*
X133950906Y-115695119D01*
X133950906Y-115695119D02*
X134141382Y-115695119D01*
X134141382Y-115695119D02*
X134236620Y-115647500D01*
X134236620Y-115647500D02*
X134284239Y-115552261D01*
X134284239Y-115552261D02*
X134284239Y-115171309D01*
X134284239Y-115171309D02*
X134236620Y-115076071D01*
X134236620Y-115076071D02*
X134141382Y-115028452D01*
X134141382Y-115028452D02*
X133950906Y-115028452D01*
X133950906Y-115028452D02*
X133855668Y-115076071D01*
X133855668Y-115076071D02*
X133808049Y-115171309D01*
X133808049Y-115171309D02*
X133808049Y-115266547D01*
X133808049Y-115266547D02*
X134284239Y-115361785D01*
X132998525Y-115647500D02*
X133093763Y-115695119D01*
X133093763Y-115695119D02*
X133284239Y-115695119D01*
X133284239Y-115695119D02*
X133379477Y-115647500D01*
X133379477Y-115647500D02*
X133427096Y-115552261D01*
X133427096Y-115552261D02*
X133427096Y-115171309D01*
X133427096Y-115171309D02*
X133379477Y-115076071D01*
X133379477Y-115076071D02*
X133284239Y-115028452D01*
X133284239Y-115028452D02*
X133093763Y-115028452D01*
X133093763Y-115028452D02*
X132998525Y-115076071D01*
X132998525Y-115076071D02*
X132950906Y-115171309D01*
X132950906Y-115171309D02*
X132950906Y-115266547D01*
X132950906Y-115266547D02*
X133427096Y-115361785D01*
X132522334Y-115599880D02*
X132474715Y-115647500D01*
X132474715Y-115647500D02*
X132522334Y-115695119D01*
X132522334Y-115695119D02*
X132569953Y-115647500D01*
X132569953Y-115647500D02*
X132522334Y-115599880D01*
X132522334Y-115599880D02*
X132522334Y-115695119D01*
X132522334Y-115314166D02*
X132569953Y-114742738D01*
X132569953Y-114742738D02*
X132522334Y-114695119D01*
X132522334Y-114695119D02*
X132474715Y-114742738D01*
X132474715Y-114742738D02*
X132522334Y-115314166D01*
X132522334Y-115314166D02*
X132522334Y-114695119D01*
D10*
X63423636Y-45428819D02*
X63090303Y-46428819D01*
X63090303Y-46428819D02*
X62756970Y-45428819D01*
X62090303Y-45905009D02*
X61947446Y-45952628D01*
X61947446Y-45952628D02*
X61899827Y-46000247D01*
X61899827Y-46000247D02*
X61852208Y-46095485D01*
X61852208Y-46095485D02*
X61852208Y-46238342D01*
X61852208Y-46238342D02*
X61899827Y-46333580D01*
X61899827Y-46333580D02*
X61947446Y-46381200D01*
X61947446Y-46381200D02*
X62042684Y-46428819D01*
X62042684Y-46428819D02*
X62423636Y-46428819D01*
X62423636Y-46428819D02*
X62423636Y-45428819D01*
X62423636Y-45428819D02*
X62090303Y-45428819D01*
X62090303Y-45428819D02*
X61995065Y-45476438D01*
X61995065Y-45476438D02*
X61947446Y-45524057D01*
X61947446Y-45524057D02*
X61899827Y-45619295D01*
X61899827Y-45619295D02*
X61899827Y-45714533D01*
X61899827Y-45714533D02*
X61947446Y-45809771D01*
X61947446Y-45809771D02*
X61995065Y-45857390D01*
X61995065Y-45857390D02*
X62090303Y-45905009D01*
X62090303Y-45905009D02*
X62423636Y-45905009D01*
X61471255Y-46143104D02*
X60995065Y-46143104D01*
X61566493Y-46428819D02*
X61233160Y-45428819D01*
X61233160Y-45428819D02*
X60899827Y-46428819D01*
X60709350Y-45428819D02*
X60137922Y-45428819D01*
X60423636Y-46428819D02*
X60423636Y-45428819D01*
X45370570Y-39920152D02*
X45132475Y-40586819D01*
X45132475Y-40586819D02*
X44894380Y-39920152D01*
X43989618Y-40586819D02*
X44561046Y-40586819D01*
X44275332Y-40586819D02*
X44275332Y-39586819D01*
X44275332Y-39586819D02*
X44370570Y-39729676D01*
X44370570Y-39729676D02*
X44465808Y-39824914D01*
X44465808Y-39824914D02*
X44561046Y-39872533D01*
X43561046Y-40491580D02*
X43513427Y-40539200D01*
X43513427Y-40539200D02*
X43561046Y-40586819D01*
X43561046Y-40586819D02*
X43608665Y-40539200D01*
X43608665Y-40539200D02*
X43561046Y-40491580D01*
X43561046Y-40491580D02*
X43561046Y-40586819D01*
X42894380Y-39586819D02*
X42799142Y-39586819D01*
X42799142Y-39586819D02*
X42703904Y-39634438D01*
X42703904Y-39634438D02*
X42656285Y-39682057D01*
X42656285Y-39682057D02*
X42608666Y-39777295D01*
X42608666Y-39777295D02*
X42561047Y-39967771D01*
X42561047Y-39967771D02*
X42561047Y-40205866D01*
X42561047Y-40205866D02*
X42608666Y-40396342D01*
X42608666Y-40396342D02*
X42656285Y-40491580D01*
X42656285Y-40491580D02*
X42703904Y-40539200D01*
X42703904Y-40539200D02*
X42799142Y-40586819D01*
X42799142Y-40586819D02*
X42894380Y-40586819D01*
X42894380Y-40586819D02*
X42989618Y-40539200D01*
X42989618Y-40539200D02*
X43037237Y-40491580D01*
X43037237Y-40491580D02*
X43084856Y-40396342D01*
X43084856Y-40396342D02*
X43132475Y-40205866D01*
X43132475Y-40205866D02*
X43132475Y-39967771D01*
X43132475Y-39967771D02*
X43084856Y-39777295D01*
X43084856Y-39777295D02*
X43037237Y-39682057D01*
X43037237Y-39682057D02*
X42989618Y-39634438D01*
X42989618Y-39634438D02*
X42894380Y-39586819D01*
X63756969Y-42888819D02*
X63185541Y-42888819D01*
X63471255Y-43888819D02*
X63471255Y-42888819D01*
X62852207Y-43365009D02*
X62518874Y-43365009D01*
X62376017Y-43888819D02*
X62852207Y-43888819D01*
X62852207Y-43888819D02*
X62852207Y-42888819D01*
X62852207Y-42888819D02*
X62376017Y-42888819D01*
X61947445Y-43888819D02*
X61947445Y-42888819D01*
X61947445Y-42888819D02*
X61614112Y-43603104D01*
X61614112Y-43603104D02*
X61280779Y-42888819D01*
X61280779Y-42888819D02*
X61280779Y-43888819D01*
X60804588Y-43888819D02*
X60804588Y-42888819D01*
X60804588Y-42888819D02*
X60423636Y-42888819D01*
X60423636Y-42888819D02*
X60328398Y-42936438D01*
X60328398Y-42936438D02*
X60280779Y-42984057D01*
X60280779Y-42984057D02*
X60233160Y-43079295D01*
X60233160Y-43079295D02*
X60233160Y-43222152D01*
X60233160Y-43222152D02*
X60280779Y-43317390D01*
X60280779Y-43317390D02*
X60328398Y-43365009D01*
X60328398Y-43365009D02*
X60423636Y-43412628D01*
X60423636Y-43412628D02*
X60804588Y-43412628D01*
X61293333Y-48984819D02*
X61293333Y-49699104D01*
X61293333Y-49699104D02*
X61340952Y-49841961D01*
X61340952Y-49841961D02*
X61436190Y-49937200D01*
X61436190Y-49937200D02*
X61579047Y-49984819D01*
X61579047Y-49984819D02*
X61674285Y-49984819D01*
X60864761Y-49080057D02*
X60817142Y-49032438D01*
X60817142Y-49032438D02*
X60721904Y-48984819D01*
X60721904Y-48984819D02*
X60483809Y-48984819D01*
X60483809Y-48984819D02*
X60388571Y-49032438D01*
X60388571Y-49032438D02*
X60340952Y-49080057D01*
X60340952Y-49080057D02*
X60293333Y-49175295D01*
X60293333Y-49175295D02*
X60293333Y-49270533D01*
X60293333Y-49270533D02*
X60340952Y-49413390D01*
X60340952Y-49413390D02*
X60912380Y-49984819D01*
X60912380Y-49984819D02*
X60293333Y-49984819D01*
D11*
%TO.C,J2*%
X49766000Y-48494000D02*
X61486000Y-48494000D01*
X61486000Y-48494000D02*
X61486000Y-47074000D01*
X61486000Y-47074000D02*
X56986000Y-47074000D01*
X59576000Y-46234000D02*
X59576000Y-45634000D01*
X50376000Y-46184000D02*
X50376000Y-45684000D01*
X55876000Y-46184000D02*
X50376000Y-46184000D01*
X58976000Y-45934000D02*
X59576000Y-46234000D01*
X50376000Y-45684000D02*
X55876000Y-45684000D01*
X55876000Y-45684000D02*
X55876000Y-46184000D01*
X59576000Y-45634000D02*
X58976000Y-45934000D01*
X50376000Y-43684000D02*
X50376000Y-43184000D01*
X55876000Y-43684000D02*
X50376000Y-43684000D01*
X49766000Y-43434000D02*
X49766000Y-48494000D01*
X49766000Y-43434000D02*
X49766000Y-38374000D01*
X50376000Y-43184000D02*
X55876000Y-43184000D01*
X55876000Y-43184000D02*
X55876000Y-43684000D01*
X50376000Y-41184000D02*
X50376000Y-40684000D01*
X55876000Y-41184000D02*
X50376000Y-41184000D01*
X50376000Y-40684000D02*
X55876000Y-40684000D01*
X55876000Y-40684000D02*
X55876000Y-41184000D01*
X61486000Y-39794000D02*
X56986000Y-39794000D01*
X49766000Y-38374000D02*
X61486000Y-38374000D01*
X61486000Y-38374000D02*
X61486000Y-39794000D01*
%TO.C,P1*%
X83326902Y-121113200D02*
G75*
G03*
X83326902Y-121113200I-949999J0D01*
G01*
X80873451Y-121770600D02*
G75*
G03*
X80873451Y-121770600I-950000J0D01*
G01*
X78420000Y-122428000D02*
G75*
G03*
X78420000Y-122428000I-950000J0D01*
G01*
X75966547Y-123085401D02*
G75*
G03*
X75966547Y-123085401I-949999J0D01*
G01*
X73513097Y-123742801D02*
G75*
G03*
X73513097Y-123742801I-950001J0D01*
G01*
G36*
X81882250Y-117880928D02*
G01*
X81973172Y-117935043D01*
X82025393Y-118034862D01*
X82030081Y-118107564D01*
X81172907Y-118337243D01*
X81140617Y-118271938D01*
X81136441Y-118158216D01*
X81190477Y-118065466D01*
X81265801Y-118011957D01*
X81380920Y-117961114D01*
X81535831Y-117912941D01*
X81679276Y-117881261D01*
X81794749Y-117870591D01*
X81882250Y-117880928D01*
G37*
G36*
X81676812Y-117114225D02*
G01*
X81767735Y-117168339D01*
X81819955Y-117268159D01*
X81824644Y-117340860D01*
X80967469Y-117570539D01*
X80935179Y-117505234D01*
X80931003Y-117391513D01*
X80985039Y-117298763D01*
X81060364Y-117245253D01*
X81175482Y-117194411D01*
X81330393Y-117146237D01*
X81473838Y-117114558D01*
X81589311Y-117103888D01*
X81676812Y-117114225D01*
G37*
G36*
X76786096Y-118489438D02*
G01*
X76877019Y-118543553D01*
X76929240Y-118643372D01*
X76933928Y-118716074D01*
X76076754Y-118945753D01*
X76044463Y-118880447D01*
X76040288Y-118766726D01*
X76094324Y-118673976D01*
X76169648Y-118620467D01*
X76284767Y-118569624D01*
X76439678Y-118521451D01*
X76583122Y-118489771D01*
X76698595Y-118479101D01*
X76786096Y-118489438D01*
G37*
G36*
X71873269Y-119765221D02*
G01*
X71964192Y-119819335D01*
X72016412Y-119919156D01*
X72021100Y-119991857D01*
X71163926Y-120221536D01*
X71131636Y-120156231D01*
X71127460Y-120042510D01*
X71181496Y-119949760D01*
X71256820Y-119896250D01*
X71371939Y-119845408D01*
X71526850Y-119797235D01*
X71670295Y-119765555D01*
X71785768Y-119754884D01*
X71873269Y-119765221D01*
G37*
G36*
X76371468Y-116938958D02*
G01*
X76456679Y-116974058D01*
X76501519Y-117047096D01*
X76499205Y-117132767D01*
X76442961Y-117205771D01*
X76368620Y-117250343D01*
X76256545Y-117295164D01*
X76106737Y-117340236D01*
X75954464Y-117376107D01*
X75834994Y-117393328D01*
X75748327Y-117391897D01*
X75663115Y-117356796D01*
X75618276Y-117283760D01*
X75620590Y-117198088D01*
X75676834Y-117125084D01*
X75751175Y-117080513D01*
X75863249Y-117035691D01*
X76013058Y-116990620D01*
X76165331Y-116954748D01*
X76284801Y-116937528D01*
X76371468Y-116938958D01*
G37*
G36*
X74329551Y-119132227D02*
G01*
X74414763Y-119167327D01*
X74459602Y-119240364D01*
X74457288Y-119326036D01*
X74401044Y-119399039D01*
X74326703Y-119443611D01*
X74214629Y-119488433D01*
X74064820Y-119533504D01*
X73912547Y-119569376D01*
X73793077Y-119586596D01*
X73706410Y-119585166D01*
X73621198Y-119550065D01*
X73576359Y-119477028D01*
X73578673Y-119391357D01*
X73634917Y-119318353D01*
X73709258Y-119273781D01*
X73821333Y-119228959D01*
X73971141Y-119183887D01*
X74123414Y-119148017D01*
X74242884Y-119130796D01*
X74329551Y-119132227D01*
G37*
G36*
X82079163Y-116424067D02*
G01*
X82164762Y-116743527D01*
X82760531Y-118966968D01*
X82846130Y-119286428D01*
X81200961Y-120302475D01*
X81057154Y-119765783D01*
X80971555Y-119446323D01*
X80851579Y-118998567D01*
X80827542Y-118908859D01*
X81186373Y-118908859D01*
X81239787Y-119108203D01*
X82425736Y-119056676D01*
X82378486Y-118880334D01*
X81365599Y-118964377D01*
X81365188Y-118962844D01*
X82284395Y-118529184D01*
X82238788Y-118358976D01*
X81186373Y-118908859D01*
X80827542Y-118908859D01*
X80689284Y-118392872D01*
X80631295Y-118176456D01*
X80987867Y-118176456D01*
X81008744Y-118307273D01*
X81050000Y-118430574D01*
X81103919Y-118539801D01*
X82192639Y-118248079D01*
X82183489Y-118121927D01*
X82158800Y-117999116D01*
X82110149Y-117873094D01*
X82040895Y-117781262D01*
X81951035Y-117723621D01*
X81865946Y-117702200D01*
X81760918Y-117698756D01*
X81635951Y-117713289D01*
X81491046Y-117745800D01*
X81353534Y-117788033D01*
X81239502Y-117834748D01*
X81148949Y-117885948D01*
X81052812Y-117971079D01*
X81000837Y-118066153D01*
X80987867Y-118176456D01*
X80631295Y-118176456D01*
X80483846Y-117626168D01*
X80425858Y-117409753D01*
X80782430Y-117409753D01*
X80803306Y-117540569D01*
X80844562Y-117663871D01*
X80898481Y-117773096D01*
X81987201Y-117481374D01*
X81978051Y-117355223D01*
X81953362Y-117232412D01*
X81904712Y-117106390D01*
X81835457Y-117014558D01*
X81745598Y-116956918D01*
X81660508Y-116935497D01*
X81555480Y-116932052D01*
X81430513Y-116946585D01*
X81285608Y-116979095D01*
X81148096Y-117021329D01*
X81034064Y-117068045D01*
X80943511Y-117119244D01*
X80847374Y-117204375D01*
X80795399Y-117299450D01*
X80782430Y-117409753D01*
X80425858Y-117409753D01*
X80375786Y-117222882D01*
X80290187Y-116903422D01*
X81935356Y-115887375D01*
X82079163Y-116424067D01*
G37*
G36*
X72274853Y-119075270D02*
G01*
X72360452Y-119394730D01*
X72950880Y-121598236D01*
X73036479Y-121917696D01*
X71391309Y-122933743D01*
X71247503Y-122397051D01*
X71161904Y-122077591D01*
X71059185Y-121694239D01*
X70986692Y-121423691D01*
X71354654Y-121423691D01*
X71360047Y-121515379D01*
X71378645Y-121608640D01*
X71411824Y-121696048D01*
X71460003Y-121766598D01*
X71523181Y-121820288D01*
X71601358Y-121857120D01*
X71694534Y-121877093D01*
X71802710Y-121880207D01*
X71925885Y-121866463D01*
X72064058Y-121835859D01*
X72199661Y-121792590D01*
X72312054Y-121741675D01*
X72401238Y-121683110D01*
X72467212Y-121616899D01*
X72521460Y-121516079D01*
X72539217Y-121400385D01*
X72520484Y-121269815D01*
X72485856Y-121174321D01*
X72435388Y-121087178D01*
X72297381Y-121124157D01*
X72351176Y-121214516D01*
X72385543Y-121305973D01*
X72390475Y-121421750D01*
X72337887Y-121517605D01*
X72266286Y-121572400D01*
X72159945Y-121622260D01*
X72018862Y-121667185D01*
X71870988Y-121700050D01*
X71750404Y-121712091D01*
X71657109Y-121703306D01*
X71560417Y-121655257D01*
X71509285Y-121568704D01*
X71503033Y-121471769D01*
X71904786Y-121364120D01*
X71956556Y-121557329D01*
X72086896Y-121522405D01*
X71991163Y-121165121D01*
X71362466Y-121333580D01*
X71354654Y-121423691D01*
X70986692Y-121423691D01*
X70946194Y-121272552D01*
X70766024Y-120600149D01*
X71124855Y-120600149D01*
X71170873Y-120771891D01*
X72047676Y-120793338D01*
X72048497Y-120796405D01*
X71235792Y-121014169D01*
X71280988Y-121182844D01*
X72400375Y-120882905D01*
X72352714Y-120705030D01*
X71475911Y-120683582D01*
X71474679Y-120678982D01*
X72287385Y-120461218D01*
X72244243Y-120300210D01*
X71124855Y-120600149D01*
X70766024Y-120600149D01*
X70679536Y-120277371D01*
X70621548Y-120060955D01*
X70978120Y-120060955D01*
X70998996Y-120191772D01*
X71040252Y-120315073D01*
X71094171Y-120424299D01*
X72182891Y-120132577D01*
X72173741Y-120006425D01*
X72149052Y-119883615D01*
X72100402Y-119757593D01*
X72031147Y-119665761D01*
X71941287Y-119608119D01*
X71856198Y-119586699D01*
X71751170Y-119583255D01*
X71626203Y-119597788D01*
X71481298Y-119630298D01*
X71343786Y-119672532D01*
X71229754Y-119719247D01*
X71139201Y-119770446D01*
X71043064Y-119855578D01*
X70991089Y-119950652D01*
X70978120Y-120060955D01*
X70621548Y-120060955D01*
X70571476Y-119874084D01*
X70485877Y-119554625D01*
X72131046Y-118538577D01*
X72274853Y-119075270D01*
G37*
G36*
X74736477Y-118462209D02*
G01*
X74822076Y-118781669D01*
X75401410Y-120943774D01*
X75487009Y-121263234D01*
X73841840Y-122279281D01*
X73698033Y-121742588D01*
X73612434Y-121423129D01*
X73540531Y-121154782D01*
X73484912Y-120947210D01*
X73840456Y-120947210D01*
X73859991Y-121069183D01*
X73893643Y-121162063D01*
X73941461Y-121242382D01*
X74003443Y-121310140D01*
X74162917Y-121267409D01*
X74085860Y-121201316D01*
X74029763Y-121124859D01*
X73994630Y-121038036D01*
X73986888Y-120966976D01*
X74004750Y-120907132D01*
X74048067Y-120861012D01*
X74116685Y-120831121D01*
X74187131Y-120821079D01*
X74248192Y-120831220D01*
X74304805Y-120863095D01*
X74361906Y-120918260D01*
X74436153Y-120999075D01*
X74506920Y-121058728D01*
X74574208Y-121097216D01*
X74677468Y-121120702D01*
X74790603Y-121107439D01*
X74907883Y-121054443D01*
X74983708Y-120969413D01*
X75009891Y-120896748D01*
X75014972Y-120813486D01*
X74998954Y-120719625D01*
X74969920Y-120631716D01*
X74931577Y-120549954D01*
X74883923Y-120474338D01*
X74730582Y-120515425D01*
X74811775Y-120620631D01*
X74860205Y-120735436D01*
X74868214Y-120805193D01*
X74851974Y-120864192D01*
X74813066Y-120909130D01*
X74753073Y-120936710D01*
X74671558Y-120943943D01*
X74598754Y-120919624D01*
X74534660Y-120863754D01*
X74454028Y-120773418D01*
X74378857Y-120707550D01*
X74309146Y-120666150D01*
X74201207Y-120642069D01*
X74078335Y-120657325D01*
X73971462Y-120700096D01*
X73896192Y-120762666D01*
X73852523Y-120845038D01*
X73840456Y-120947210D01*
X73484912Y-120947210D01*
X73257027Y-120096731D01*
X73232990Y-120007023D01*
X73591821Y-120007023D01*
X73645235Y-120206366D01*
X74417148Y-120081708D01*
X74418380Y-120086307D01*
X73691253Y-120378108D01*
X73735627Y-120543716D01*
X74881721Y-120343448D01*
X74837758Y-120179374D01*
X73972336Y-120353740D01*
X73971515Y-120350674D01*
X74615948Y-120087605D01*
X74579380Y-119951132D01*
X73783234Y-120077353D01*
X73782412Y-120074287D01*
X74725589Y-119760753D01*
X74684501Y-119607413D01*
X73591821Y-120007023D01*
X73232990Y-120007023D01*
X73123493Y-119598373D01*
X73071065Y-119402710D01*
X73427431Y-119402710D01*
X73442952Y-119512774D01*
X73484542Y-119615854D01*
X73546037Y-119688947D01*
X73633957Y-119733389D01*
X73754823Y-119750514D01*
X73855146Y-119746002D01*
X73972997Y-119727846D01*
X74108373Y-119696045D01*
X74241512Y-119655897D01*
X74352652Y-119612695D01*
X74441790Y-119566442D01*
X74537901Y-119491178D01*
X74591820Y-119408730D01*
X74608530Y-119314682D01*
X74593009Y-119204617D01*
X74551419Y-119101538D01*
X74489923Y-119028445D01*
X74402004Y-118984004D01*
X74281138Y-118966879D01*
X74180815Y-118971391D01*
X74062964Y-118989547D01*
X73927588Y-119021346D01*
X73794449Y-119061495D01*
X73683309Y-119104697D01*
X73594171Y-119150951D01*
X73498060Y-119226215D01*
X73444140Y-119308662D01*
X73427431Y-119402710D01*
X73071065Y-119402710D01*
X73033100Y-119261024D01*
X72947501Y-118941564D01*
X74592670Y-117925517D01*
X74736477Y-118462209D01*
G37*
G36*
X79231527Y-115610352D02*
G01*
X79317126Y-115929812D01*
X80308157Y-119628390D01*
X80393756Y-119947850D01*
X78748586Y-120963897D01*
X78604780Y-120427204D01*
X78519181Y-120107745D01*
X78447278Y-119839399D01*
X78391659Y-119631827D01*
X78747203Y-119631827D01*
X78766738Y-119753800D01*
X78800391Y-119846680D01*
X78848208Y-119926998D01*
X78910190Y-119994757D01*
X79069665Y-119952026D01*
X78992607Y-119885933D01*
X78936511Y-119809475D01*
X78901377Y-119722653D01*
X78893635Y-119651592D01*
X78911497Y-119591748D01*
X78954814Y-119545629D01*
X79023432Y-119515738D01*
X79093878Y-119505696D01*
X79154939Y-119515836D01*
X79211552Y-119547711D01*
X79268653Y-119602877D01*
X79342900Y-119683692D01*
X79413667Y-119743344D01*
X79480955Y-119781833D01*
X79584215Y-119805319D01*
X79697350Y-119792055D01*
X79814630Y-119739059D01*
X79890455Y-119654029D01*
X79916638Y-119581364D01*
X79921719Y-119498102D01*
X79905700Y-119404241D01*
X79876667Y-119316332D01*
X79838324Y-119234570D01*
X79790670Y-119158955D01*
X79637330Y-119200042D01*
X79718522Y-119305247D01*
X79766952Y-119420053D01*
X79774961Y-119489810D01*
X79758721Y-119548808D01*
X79719813Y-119593747D01*
X79659820Y-119621326D01*
X79578305Y-119628559D01*
X79505501Y-119604241D01*
X79441407Y-119548370D01*
X79360775Y-119458035D01*
X79285604Y-119392166D01*
X79215893Y-119350767D01*
X79107954Y-119326686D01*
X78985082Y-119341941D01*
X78878209Y-119384712D01*
X78802939Y-119447283D01*
X78759270Y-119529655D01*
X78747203Y-119631827D01*
X78391659Y-119631827D01*
X78163774Y-118781348D01*
X78139737Y-118691640D01*
X78498568Y-118691640D01*
X78551982Y-118890983D01*
X79323895Y-118766324D01*
X79325128Y-118770924D01*
X78598000Y-119062725D01*
X78642374Y-119228333D01*
X79788468Y-119028065D01*
X79744505Y-118863991D01*
X78879084Y-119038356D01*
X78878262Y-119035290D01*
X79522695Y-118772222D01*
X79486127Y-118635748D01*
X78689981Y-118761970D01*
X78689159Y-118758903D01*
X79632336Y-118445370D01*
X79591248Y-118292029D01*
X78498568Y-118691640D01*
X78139737Y-118691640D01*
X78010518Y-118209386D01*
X77959468Y-118018864D01*
X78312135Y-118018864D01*
X78329977Y-118123787D01*
X78363566Y-118212242D01*
X78412354Y-118283629D01*
X78476343Y-118337951D01*
X78555531Y-118375205D01*
X78649921Y-118395391D01*
X78759510Y-118398512D01*
X78884301Y-118384566D01*
X79024291Y-118353553D01*
X79153864Y-118312413D01*
X79262737Y-118263981D01*
X79350910Y-118208256D01*
X79418381Y-118145238D01*
X79465153Y-118074925D01*
X79491225Y-117997320D01*
X79496596Y-117912422D01*
X79481266Y-117820231D01*
X79443557Y-117713236D01*
X79392062Y-117622260D01*
X79045512Y-117715118D01*
X79089476Y-117879193D01*
X79328688Y-117815097D01*
X79344271Y-117848721D01*
X79350677Y-117919821D01*
X79330175Y-117984891D01*
X79282766Y-118043933D01*
X79208450Y-118096943D01*
X79107225Y-118143925D01*
X78979095Y-118184878D01*
X78837175Y-118215601D01*
X78717075Y-118225868D01*
X78618793Y-118215681D01*
X78542332Y-118185037D01*
X78487689Y-118133938D01*
X78454866Y-118062385D01*
X78444974Y-117977929D01*
X78457205Y-117880973D01*
X78316132Y-117918773D01*
X78312135Y-118018864D01*
X77959468Y-118018864D01*
X77746736Y-117224939D01*
X77722699Y-117135231D01*
X78081529Y-117135231D01*
X78223282Y-117664257D01*
X79342669Y-117364318D01*
X79296651Y-117192577D01*
X78310670Y-117456769D01*
X78214936Y-117099485D01*
X78081529Y-117135231D01*
X77722699Y-117135231D01*
X77650591Y-116866122D01*
X77528150Y-116409166D01*
X77504113Y-116319459D01*
X77862944Y-116319459D01*
X77912660Y-116505001D01*
X78521255Y-116629541D01*
X78522077Y-116632608D01*
X77985385Y-116776414D01*
X78031403Y-116948155D01*
X79150790Y-116648217D01*
X79104772Y-116476475D01*
X78614082Y-116607955D01*
X78613260Y-116604888D01*
X79033691Y-116211196D01*
X78984386Y-116027187D01*
X78529237Y-116463052D01*
X77862944Y-116319459D01*
X77504113Y-116319459D01*
X77442551Y-116089707D01*
X79087721Y-115073659D01*
X79231527Y-115610352D01*
G37*
G36*
X76778394Y-116268940D02*
G01*
X76863993Y-116588401D01*
X77854202Y-120283913D01*
X77939801Y-120603372D01*
X76294632Y-121619419D01*
X76150825Y-121082727D01*
X76065226Y-120763267D01*
X75993323Y-120494920D01*
X75937705Y-120287349D01*
X76293248Y-120287349D01*
X76312783Y-120409321D01*
X76346436Y-120502201D01*
X76394253Y-120582520D01*
X76456235Y-120650279D01*
X76615709Y-120607548D01*
X76538652Y-120541455D01*
X76482556Y-120464997D01*
X76447422Y-120378176D01*
X76439681Y-120307114D01*
X76457543Y-120247271D01*
X76500859Y-120201151D01*
X76569478Y-120171260D01*
X76639923Y-120161217D01*
X76700984Y-120171358D01*
X76757597Y-120203234D01*
X76814698Y-120258399D01*
X76888945Y-120339214D01*
X76959712Y-120398866D01*
X77027000Y-120437355D01*
X77130260Y-120460840D01*
X77243395Y-120447578D01*
X77360675Y-120394582D01*
X77436500Y-120309551D01*
X77462683Y-120236887D01*
X77467765Y-120153624D01*
X77451746Y-120059763D01*
X77422712Y-119971854D01*
X77384369Y-119890092D01*
X77336715Y-119814477D01*
X77183375Y-119855565D01*
X77264567Y-119960769D01*
X77312997Y-120075575D01*
X77321006Y-120145332D01*
X77304766Y-120204330D01*
X77265858Y-120249269D01*
X77205865Y-120276849D01*
X77124350Y-120284081D01*
X77051546Y-120259762D01*
X76987453Y-120203892D01*
X76906820Y-120113556D01*
X76831649Y-120047689D01*
X76761938Y-120006289D01*
X76653999Y-119982208D01*
X76531127Y-119997464D01*
X76424254Y-120040234D01*
X76348984Y-120102806D01*
X76305315Y-120185177D01*
X76293248Y-120287349D01*
X75937705Y-120287349D01*
X75709819Y-119436869D01*
X75685782Y-119347162D01*
X76044613Y-119347162D01*
X76098027Y-119546505D01*
X76869940Y-119421846D01*
X76871173Y-119426447D01*
X76144045Y-119718246D01*
X76188419Y-119883854D01*
X77334514Y-119683587D01*
X77290550Y-119519512D01*
X76425129Y-119693879D01*
X76424307Y-119690812D01*
X77068740Y-119427744D01*
X77032173Y-119291271D01*
X76236026Y-119417492D01*
X76235204Y-119414425D01*
X77178381Y-119100892D01*
X77137294Y-118947552D01*
X76044613Y-119347162D01*
X75685782Y-119347162D01*
X75593131Y-119001382D01*
X75535142Y-118784966D01*
X75891714Y-118784966D01*
X75912590Y-118915783D01*
X75953847Y-119039084D01*
X76007766Y-119148311D01*
X77096486Y-118856589D01*
X77087336Y-118730437D01*
X77062647Y-118607626D01*
X77013996Y-118481604D01*
X76944741Y-118389772D01*
X76854882Y-118332131D01*
X76769792Y-118310710D01*
X76664764Y-118307266D01*
X76539798Y-118321799D01*
X76394893Y-118354310D01*
X76257381Y-118396543D01*
X76143349Y-118443258D01*
X76052796Y-118494458D01*
X75956658Y-118579589D01*
X75904684Y-118674663D01*
X75891714Y-118784966D01*
X75535142Y-118784966D01*
X75300998Y-117911130D01*
X75276961Y-117821422D01*
X75635792Y-117821422D01*
X75775490Y-118342780D01*
X75908897Y-118307034D01*
X75862879Y-118135293D01*
X76715453Y-117906846D01*
X76761471Y-118078587D01*
X76894877Y-118042841D01*
X76755180Y-117521483D01*
X76621774Y-117557229D01*
X76667792Y-117728971D01*
X75815217Y-117957417D01*
X75769199Y-117785676D01*
X75635792Y-117821422D01*
X75276961Y-117821422D01*
X75165410Y-117405105D01*
X75112982Y-117209441D01*
X75469348Y-117209441D01*
X75484869Y-117319506D01*
X75526459Y-117422585D01*
X75587954Y-117495679D01*
X75675874Y-117540120D01*
X75796740Y-117557245D01*
X75897063Y-117552733D01*
X76014914Y-117534577D01*
X76150290Y-117502778D01*
X76283429Y-117462629D01*
X76394569Y-117419426D01*
X76483707Y-117373173D01*
X76579818Y-117297909D01*
X76633737Y-117215462D01*
X76650447Y-117121414D01*
X76634926Y-117011350D01*
X76593336Y-116908270D01*
X76531840Y-116835177D01*
X76443921Y-116790735D01*
X76323054Y-116773610D01*
X76222732Y-116778122D01*
X76104881Y-116796278D01*
X75969505Y-116828078D01*
X75836365Y-116868226D01*
X75725226Y-116911429D01*
X75636088Y-116957682D01*
X75539977Y-117032946D01*
X75486057Y-117115394D01*
X75469348Y-117209441D01*
X75112982Y-117209441D01*
X75075017Y-117067756D01*
X74989418Y-116748295D01*
X76634587Y-115732248D01*
X76778394Y-116268940D01*
G37*
%TO.C,J3*%
X39408000Y-73952000D02*
X38408000Y-73952000D01*
X39408000Y-72952000D02*
X39408000Y-73952000D01*
X39408000Y-62352000D02*
X39408000Y-61352000D01*
X39408000Y-61352000D02*
X38408000Y-61352000D01*
%TO.C,SW21*%
X35700000Y-91876000D02*
X35700000Y-90676000D01*
X40500000Y-91876000D02*
X39500000Y-91876000D01*
X40500000Y-90876000D02*
X40500000Y-91876000D01*
X40500000Y-83876000D02*
X40500000Y-82876000D01*
X35700000Y-82876000D02*
X35700000Y-84076000D01*
X40500000Y-82876000D02*
X39500000Y-82876000D01*
%TD*%
%LPC*%
D13*
%TO.C,J1*%
X46832000Y-44764000D03*
X41052000Y-44764000D03*
D14*
X48262000Y-45294000D03*
D15*
X48262000Y-41114000D03*
D14*
X39622000Y-45294000D03*
D15*
X39622000Y-41114000D03*
%TD*%
D16*
%TO.C,SW6*%
X149231120Y-86407070D03*
D17*
X155498715Y-81329940D03*
D18*
X154677594Y-87172522D03*
D17*
X160157792Y-84105369D03*
D16*
X160124068Y-87937974D03*
D19*
X151958507Y-80832397D03*
X163698000Y-84602913D03*
%TD*%
D16*
%TO.C,SW2*%
X133966065Y-50477037D03*
D17*
X140052653Y-45184265D03*
D18*
X139435935Y-51051944D03*
D17*
X144805753Y-47795403D03*
D16*
X144905805Y-51626851D03*
D20*
X136497237Y-44810576D03*
X148361168Y-48169092D03*
%TD*%
D21*
%TO.C,U1*%
X41458000Y-105596000D03*
X42558000Y-105596000D03*
X43658000Y-105596000D03*
X44758000Y-105596000D03*
X45858000Y-105596000D03*
X46958000Y-105596000D03*
X48058000Y-105596000D03*
X49158000Y-105596000D03*
X50258000Y-105596000D03*
X41458000Y-97096000D03*
X42558000Y-97096000D03*
X43658000Y-97096000D03*
X44758000Y-97096000D03*
X45858000Y-97096000D03*
X46958000Y-97096000D03*
X48058000Y-97096000D03*
X49158000Y-97096000D03*
X50258000Y-97096000D03*
%TD*%
D16*
%TO.C,SW3*%
X115078345Y-37727008D03*
D17*
X120976510Y-32225041D03*
D18*
X120564947Y-38110669D03*
D17*
X125817842Y-34668708D03*
D16*
X126051549Y-38494330D03*
D22*
X117410219Y-31975662D03*
X129384133Y-34918087D03*
%TD*%
D16*
%TO.C,SW16*%
X169835461Y-80593623D03*
D17*
X176276428Y-75738322D03*
D18*
X175251904Y-81548688D03*
D17*
X180835806Y-78674659D03*
D16*
X180668347Y-82503753D03*
D23*
X172755741Y-75117530D03*
X184356494Y-79295452D03*
%TD*%
D16*
%TO.C,SW20*%
X49471720Y-125861519D03*
D17*
X49892517Y-117806525D03*
D18*
X53684964Y-122326187D03*
D17*
X55072593Y-116201280D03*
D16*
X57898208Y-118790855D03*
D24*
X47153908Y-120104490D03*
X57811202Y-113903314D03*
%TD*%
D16*
%TO.C,SW5*%
X74425510Y-51514119D03*
D17*
X79925510Y-45614119D03*
D18*
X79925510Y-51514119D03*
D17*
X84925510Y-47714119D03*
D16*
X85425510Y-51514119D03*
D25*
X76350510Y-45614119D03*
X88500510Y-47714119D03*
%TD*%
D16*
%TO.C,SW19*%
X69192885Y-113350437D03*
D17*
X72978445Y-106227970D03*
D18*
X74505477Y-111926932D03*
D17*
X78351594Y-106962319D03*
D16*
X79818069Y-110503427D03*
D26*
X69525260Y-107153248D03*
X81804779Y-106037041D03*
%TD*%
D16*
%TO.C,SW10*%
X74425510Y-69714119D03*
D17*
X79925510Y-63814119D03*
D18*
X79925510Y-69714119D03*
D17*
X84925510Y-65914119D03*
D16*
X85425510Y-69714119D03*
D25*
X76350510Y-63814119D03*
X88500510Y-65914119D03*
%TD*%
D16*
%TO.C,SW12*%
X130161229Y-86677634D03*
D17*
X136247817Y-81384862D03*
D18*
X135631099Y-87252541D03*
D17*
X141000917Y-83996000D03*
D16*
X141100969Y-87827448D03*
D20*
X132692401Y-81011173D03*
X144556332Y-84369689D03*
%TD*%
D16*
%TO.C,SW9*%
X93924979Y-63818015D03*
D17*
X99627536Y-58113556D03*
D18*
X99421629Y-64009962D03*
D17*
X104551201Y-60386774D03*
D16*
X104918279Y-64201909D03*
D27*
X96054714Y-57988790D03*
X108124023Y-60511540D03*
%TD*%
D16*
%TO.C,SW1*%
X151764071Y-68384191D03*
D17*
X158031666Y-63307061D03*
D18*
X157210545Y-69149643D03*
D17*
X162690743Y-66082490D03*
D16*
X162657019Y-69915095D03*
D19*
X154491458Y-62809518D03*
X166230951Y-66580034D03*
%TD*%
D16*
%TO.C,SW15*%
X74425510Y-87914119D03*
D17*
X79925510Y-82014119D03*
D18*
X79925510Y-87914119D03*
D17*
X84925510Y-84114119D03*
D16*
X85425510Y-87914119D03*
D25*
X76350510Y-82014119D03*
X88500510Y-84114119D03*
%TD*%
D16*
%TO.C,SW8*%
X113808778Y-55882673D03*
D17*
X119706943Y-50380706D03*
D18*
X119295380Y-56266334D03*
D17*
X124548275Y-52824373D03*
D16*
X124781982Y-56649995D03*
D22*
X116140652Y-50131327D03*
X128114566Y-53073752D03*
%TD*%
D16*
%TO.C,SW11*%
X146698170Y-104429949D03*
D17*
X152965765Y-99352819D03*
D18*
X152144644Y-105195401D03*
D17*
X157624842Y-102128248D03*
D16*
X157591118Y-105960853D03*
D19*
X149425557Y-98855276D03*
X161165050Y-102625792D03*
%TD*%
D16*
%TO.C,SW4*%
X94560150Y-45629102D03*
D17*
X100262707Y-39924643D03*
D18*
X100056800Y-45821049D03*
D17*
X105186372Y-42197861D03*
D16*
X105553450Y-46012996D03*
D27*
X96689885Y-39799877D03*
X108759194Y-42322627D03*
%TD*%
D16*
%TO.C,SW13*%
X112539210Y-74038339D03*
D17*
X118437375Y-68536372D03*
D18*
X118025812Y-74422000D03*
D17*
X123278707Y-70980039D03*
D16*
X123512414Y-74805661D03*
D22*
X114871084Y-68286993D03*
X126844998Y-71229418D03*
%TD*%
D16*
%TO.C,SW17*%
X166675064Y-98517124D03*
D17*
X173116031Y-93661823D03*
D18*
X172091507Y-99472189D03*
D17*
X177675409Y-96598160D03*
D16*
X177507950Y-100427254D03*
D23*
X169595344Y-93041031D03*
X181196097Y-97218953D03*
%TD*%
D16*
%TO.C,SW7*%
X132063647Y-68577335D03*
D17*
X138150235Y-63284563D03*
D18*
X137533517Y-69152242D03*
D17*
X142903335Y-65895701D03*
D16*
X143003387Y-69727149D03*
D20*
X134594819Y-62910874D03*
X146458750Y-66269390D03*
%TD*%
D16*
%TO.C,SW14*%
X93289808Y-82006928D03*
D17*
X98992365Y-76302469D03*
D18*
X98786458Y-82198875D03*
D17*
X103916030Y-78575687D03*
D16*
X104283108Y-82390822D03*
D27*
X95419543Y-76177703D03*
X107488852Y-78700453D03*
%TD*%
D16*
%TO.C,SW18*%
X92353742Y-110346071D03*
D17*
X98794709Y-105490770D03*
D18*
X97770185Y-111301136D03*
D17*
X103354087Y-108427107D03*
D16*
X103186628Y-112256201D03*
D23*
X95274022Y-104869978D03*
X106874775Y-109047900D03*
%TD*%
D28*
%TO.C,J2*%
X57476000Y-45934000D03*
D29*
X57476000Y-43434000D03*
X57476000Y-40934000D03*
%TD*%
D30*
%TO.C,H2*%
X149267812Y-58166000D03*
%TD*%
D31*
%TO.C,P1*%
X87283806Y-119798399D03*
X67656193Y-125057602D03*
D32*
X82376903Y-121113200D03*
X79923451Y-121770600D03*
X77470000Y-122428000D03*
X75016548Y-123085401D03*
X72566556Y-123741874D03*
%TD*%
D30*
%TO.C,H5*%
X88900000Y-78740000D03*
%TD*%
D17*
%TO.C,J3*%
X42108000Y-75652000D03*
X42108000Y-59652000D03*
D33*
X38608000Y-73152000D03*
D34*
X38608000Y-70952000D03*
X38608000Y-68752000D03*
X38608000Y-66552000D03*
X38608000Y-64352000D03*
X38608000Y-62152000D03*
%TD*%
D35*
%TO.C,SW21*%
X38100000Y-91676000D03*
X38100000Y-83076000D03*
D36*
X38100000Y-89376000D03*
D37*
X38100000Y-87376000D03*
X38100000Y-85376000D03*
%TD*%
D30*
%TO.C,H3*%
X127677812Y-77216000D03*
%TD*%
%TO.C,H7*%
X63500000Y-115824000D03*
%TD*%
%TO.C,H6*%
X106934048Y-100838061D03*
%TD*%
%TO.C,H4*%
X110236000Y-47498000D03*
%TD*%
%TO.C,H1*%
X165100000Y-79502000D03*
%TD*%
%LPD*%
M02*
