M48
; DRILL file {KiCad 7.0.7} date 2023 December 03, Sunday 19:38:24
; FORMAT={-:-/ absolute / inch / decimal}
; #@! TF.CreationDate,2023-12-03T19:38:24+01:00
; #@! TF.GenerationSoftware,Kicad,Pcbnew,7.0.7
; #@! TF.FileFunction,Plated,1,2,PTH
FMAT,2
INCH
; #@! TA.AperFunction,Plated,PTH,ComponentDrill
T1C0.0118
; #@! TA.AperFunction,Plated,PTH,ViaDrill
T2C0.0157
; #@! TA.AperFunction,Plated,PTH,ComponentDrill
T3C0.0197
; #@! TA.AperFunction,Plated,PTH,ComponentDrill
T4C0.0236
; #@! TA.AperFunction,Plated,PTH,ComponentDrill
T5C0.0315
; #@! TA.AperFunction,Plated,PTH,ComponentDrill
T6C0.0354
; #@! TA.AperFunction,Plated,PTH,ComponentDrill
T7C0.0374
; #@! TA.AperFunction,Plated,PTH,ComponentDrill
T8C0.0512
%
G90
G05
T1
X1.9385Y-2.6283
X1.9385Y-2.6717
X1.9818Y-2.6283
X1.9818Y-2.6717
T2
X1.5Y-1.85
X1.51Y-4.403
X1.53Y-1.96
X1.5961Y-3.2461
X1.6Y-3.93
X1.6232Y-1.8695
X1.6977Y-3.44
X1.7134Y-1.881
X1.72Y-2.44
X1.72Y-2.58
X1.74Y-1.91
X1.76Y-3.69
X1.7725Y-3.44
X1.7781Y-4.06
X1.78Y-3.61
X1.78Y-3.65
X1.8002Y-3.6898
X1.8102Y-2.7598
X1.84Y-2.84
X1.84Y-3.31
X1.85Y-2.5934
X1.8549Y-1.8757
X1.87Y-2.7
X1.87Y-4.32
X1.88Y-2.47
X1.8834Y-2.5692
X1.91Y-4.37
X1.9196Y-2.5504
X1.94Y-2.13
X1.94Y-3.16
X1.94Y-3.44
X1.95Y-4.32
X1.9597Y-2.55
X1.98Y-3.694
X1.99Y-4.32
X2.0Y-2.27
X2.01Y-2.49
X2.02Y-2.37
X2.0209Y-2.7391
X2.04Y-2.27
X2.055Y-2.525
X2.07Y-2.6934
X2.09Y-2.49
X2.1Y-2.13
X2.15Y-3.65
X2.15Y-3.69
X2.15Y-3.77
X2.15Y-3.82
X2.18Y-2.49
X2.2Y-3.91
X2.2035Y-2.04
X2.23Y-2.6834
X2.2433Y-3.8056
X2.31Y-4.21
X2.31Y-4.3
X2.32Y-4.76
X2.32Y-4.82
X2.33Y-3.65
X2.33Y-3.69
X2.3585Y-2.46
X2.3585Y-2.62
X2.3675Y-4.7885
X2.37Y-4.73
X2.41Y-3.89
X2.44Y-1.87
X2.46Y-3.91
X2.51Y-3.93
X2.5602Y-3.9498
X2.61Y-3.97
X2.63Y-2.2
X2.6562Y-3.99
X2.67Y-3.64
X2.67Y-3.71
X2.69Y-3.33
X2.7015Y-3.67
X2.7398Y-4.0302
X2.8174Y-3.5927
X2.818Y-3.64
X2.85Y-3.67
X2.8947Y-3.67
X2.91Y-4.55
X3.1498Y-2.9172
X3.1498Y-3.3372
X3.48Y-2.69
X3.48Y-3.41
X3.49Y-1.96
X4.23Y-3.19
X4.25Y-2.48
X4.29Y-1.57
X4.98Y-2.7
X5.03Y-2.2
X5.09Y-1.48
X5.69Y-3.44
X5.77Y-2.71
X5.83Y-2.01
X5.9398Y-3.5398
X5.9802Y-3.5802
X6.3451Y-3.95
X6.42Y-3.41
X6.5445Y-2.52
X7.14Y-3.72
X7.26Y-3.21
T3
X1.6322Y-3.8227
X1.6322Y-4.1573
X1.6755Y-3.8227
X1.6755Y-4.1573
X1.7188Y-3.8227
X1.7188Y-4.1573
X1.7621Y-3.8227
X1.7621Y-4.1573
X1.8054Y-3.8227
X1.8054Y-4.1573
X1.8487Y-3.8227
X1.8487Y-4.1573
X1.892Y-3.8227
X1.892Y-4.1573
X1.9354Y-3.8227
X1.9354Y-4.1573
X1.9787Y-3.8227
X1.9787Y-4.1573
T5
X1.5Y-3.3613
X1.5Y-3.44
X1.5Y-3.5187
T6
X1.52Y-2.4469
X1.52Y-2.5335
X1.52Y-2.6202
X1.52Y-2.7068
X1.52Y-2.7934
X1.52Y-2.88
T7
X2.2628Y-1.6116
X2.2628Y-1.71
X2.2628Y-1.8084
T8
X1.5Y-3.2707
X1.5Y-3.6093
T4
G00X1.5599Y-1.6305
M15
G01X1.5599Y-1.6069
M16
G05
G00X1.5599Y-1.8049
M15
G01X1.5599Y-1.7616
M16
G05
G00X1.9001Y-1.6305
M15
G01X1.9001Y-1.6069
M16
G05
G00X1.9001Y-1.8049
M15
G01X1.9001Y-1.7616
M16
G05
T0
M30
