%TF.GenerationSoftware,KiCad,Pcbnew,7.0.7*%
%TF.CreationDate,2023-12-03T19:38:24+01:00*%
%TF.ProjectId,nightliner,6e696768-746c-4696-9e65-722e6b696361,rev?*%
%TF.SameCoordinates,Original*%
%TF.FileFunction,Soldermask,Bot*%
%TF.FilePolarity,Negative*%
%FSLAX46Y46*%
G04 Gerber Fmt 4.6, Leading zero omitted, Abs format (unit mm)*
G04 Created by KiCad (PCBNEW 7.0.7) date 2023-12-03 19:38:24*
%MOMM*%
%LPD*%
G01*
G04 APERTURE LIST*
G04 Aperture macros list*
%AMRoundRect*
0 Rectangle with rounded corners*
0 $1 Rounding radius*
0 $2 $3 $4 $5 $6 $7 $8 $9 X,Y pos of 4 corners*
0 Add a 4 corners polygon primitive as box body*
4,1,4,$2,$3,$4,$5,$6,$7,$8,$9,$2,$3,0*
0 Add four circle primitives for the rounded corners*
1,1,$1+$1,$2,$3*
1,1,$1+$1,$4,$5*
1,1,$1+$1,$6,$7*
1,1,$1+$1,$8,$9*
0 Add four rect primitives between the rounded corners*
20,1,$1+$1,$2,$3,$4,$5,0*
20,1,$1+$1,$4,$5,$6,$7,0*
20,1,$1+$1,$6,$7,$8,$9,0*
20,1,$1+$1,$8,$9,$2,$3,0*%
%AMRotRect*
0 Rectangle, with rotation*
0 The origin of the aperture is its center*
0 $1 length*
0 $2 width*
0 $3 Rotation angle, in degrees counterclockwise*
0 Add horizontal line*
21,1,$1,$2,0,0,$3*%
G04 Aperture macros list end*
%ADD10C,0.650000*%
%ADD11O,1.000000X2.100000*%
%ADD12O,1.000000X1.600000*%
%ADD13C,1.700000*%
%ADD14C,3.000000*%
%ADD15C,3.400000*%
%ADD16RotRect,2.600000X2.600000X352.000000*%
%ADD17RotRect,2.600000X2.600000X354.000000*%
%ADD18R,0.700000X1.000000*%
%ADD19RotRect,2.600000X2.600000X356.000000*%
%ADD20RotRect,2.600000X2.600000X350.000000*%
%ADD21RotRect,2.600000X2.600000X40.000000*%
%ADD22R,2.600000X2.600000*%
%ADD23RotRect,2.600000X2.600000X15.000000*%
%ADD24RotRect,2.600000X2.600000X358.000000*%
%ADD25RoundRect,0.250000X0.725000X-0.600000X0.725000X0.600000X-0.725000X0.600000X-0.725000X-0.600000X0*%
%ADD26O,1.950000X1.700000*%
%ADD27C,6.000000*%
%ADD28C,2.400000*%
%ADD29C,1.500000*%
%ADD30R,1.300000X1.300000*%
%ADD31C,1.300000*%
%ADD32C,2.000000*%
%ADD33R,1.100000X1.100000*%
%ADD34C,1.100000*%
G04 APERTURE END LIST*
D10*
%TO.C,J1*%
X46832000Y-44764000D03*
X41052000Y-44764000D03*
D11*
X48262000Y-45294000D03*
D12*
X48262000Y-41114000D03*
D11*
X39622000Y-45294000D03*
D12*
X39622000Y-41114000D03*
%TD*%
D13*
%TO.C,SW6*%
X149231120Y-86407070D03*
D14*
X155498715Y-81329940D03*
D15*
X154677594Y-87172522D03*
D14*
X160157792Y-84105369D03*
D13*
X160124068Y-87937974D03*
D16*
X151958507Y-80832397D03*
X163698000Y-84602913D03*
%TD*%
D13*
%TO.C,SW2*%
X133966065Y-50477037D03*
D14*
X140052653Y-45184265D03*
D15*
X139435935Y-51051944D03*
D14*
X144805753Y-47795403D03*
D13*
X144905805Y-51626851D03*
D17*
X136497237Y-44810576D03*
X148361168Y-48169092D03*
%TD*%
D18*
%TO.C,U1*%
X41458000Y-105596000D03*
X42558000Y-105596000D03*
X43658000Y-105596000D03*
X44758000Y-105596000D03*
X45858000Y-105596000D03*
X46958000Y-105596000D03*
X48058000Y-105596000D03*
X49158000Y-105596000D03*
X50258000Y-105596000D03*
X41458000Y-97096000D03*
X42558000Y-97096000D03*
X43658000Y-97096000D03*
X44758000Y-97096000D03*
X45858000Y-97096000D03*
X46958000Y-97096000D03*
X48058000Y-97096000D03*
X49158000Y-97096000D03*
X50258000Y-97096000D03*
%TD*%
D13*
%TO.C,SW3*%
X115078345Y-37727008D03*
D14*
X120976510Y-32225041D03*
D15*
X120564947Y-38110669D03*
D14*
X125817842Y-34668708D03*
D13*
X126051549Y-38494330D03*
D19*
X117410219Y-31975662D03*
X129384133Y-34918087D03*
%TD*%
D13*
%TO.C,SW16*%
X169835461Y-80593623D03*
D14*
X176276428Y-75738322D03*
D15*
X175251904Y-81548688D03*
D14*
X180835806Y-78674659D03*
D13*
X180668347Y-82503753D03*
D20*
X172755741Y-75117530D03*
X184356494Y-79295452D03*
%TD*%
D13*
%TO.C,SW20*%
X49471720Y-125861519D03*
D14*
X49892517Y-117806525D03*
D15*
X53684964Y-122326187D03*
D14*
X55072593Y-116201280D03*
D13*
X57898208Y-118790855D03*
D21*
X47153908Y-120104490D03*
X57811202Y-113903314D03*
%TD*%
D13*
%TO.C,SW5*%
X74425510Y-51514119D03*
D14*
X79925510Y-45614119D03*
D15*
X79925510Y-51514119D03*
D14*
X84925510Y-47714119D03*
D13*
X85425510Y-51514119D03*
D22*
X76350510Y-45614119D03*
X88500510Y-47714119D03*
%TD*%
D13*
%TO.C,SW19*%
X69192885Y-113350437D03*
D14*
X72978445Y-106227970D03*
D15*
X74505477Y-111926932D03*
D14*
X78351594Y-106962319D03*
D13*
X79818069Y-110503427D03*
D23*
X69525260Y-107153248D03*
X81804779Y-106037041D03*
%TD*%
D13*
%TO.C,SW10*%
X74425510Y-69714119D03*
D14*
X79925510Y-63814119D03*
D15*
X79925510Y-69714119D03*
D14*
X84925510Y-65914119D03*
D13*
X85425510Y-69714119D03*
D22*
X76350510Y-63814119D03*
X88500510Y-65914119D03*
%TD*%
D13*
%TO.C,SW12*%
X130161229Y-86677634D03*
D14*
X136247817Y-81384862D03*
D15*
X135631099Y-87252541D03*
D14*
X141000917Y-83996000D03*
D13*
X141100969Y-87827448D03*
D17*
X132692401Y-81011173D03*
X144556332Y-84369689D03*
%TD*%
D13*
%TO.C,SW9*%
X93924979Y-63818015D03*
D14*
X99627536Y-58113556D03*
D15*
X99421629Y-64009962D03*
D14*
X104551201Y-60386774D03*
D13*
X104918279Y-64201909D03*
D24*
X96054714Y-57988790D03*
X108124023Y-60511540D03*
%TD*%
D13*
%TO.C,SW1*%
X151764071Y-68384191D03*
D14*
X158031666Y-63307061D03*
D15*
X157210545Y-69149643D03*
D14*
X162690743Y-66082490D03*
D13*
X162657019Y-69915095D03*
D16*
X154491458Y-62809518D03*
X166230951Y-66580034D03*
%TD*%
D13*
%TO.C,SW15*%
X74425510Y-87914119D03*
D14*
X79925510Y-82014119D03*
D15*
X79925510Y-87914119D03*
D14*
X84925510Y-84114119D03*
D13*
X85425510Y-87914119D03*
D22*
X76350510Y-82014119D03*
X88500510Y-84114119D03*
%TD*%
D13*
%TO.C,SW8*%
X113808778Y-55882673D03*
D14*
X119706943Y-50380706D03*
D15*
X119295380Y-56266334D03*
D14*
X124548275Y-52824373D03*
D13*
X124781982Y-56649995D03*
D19*
X116140652Y-50131327D03*
X128114566Y-53073752D03*
%TD*%
D13*
%TO.C,SW11*%
X146698170Y-104429949D03*
D14*
X152965765Y-99352819D03*
D15*
X152144644Y-105195401D03*
D14*
X157624842Y-102128248D03*
D13*
X157591118Y-105960853D03*
D16*
X149425557Y-98855276D03*
X161165050Y-102625792D03*
%TD*%
D13*
%TO.C,SW4*%
X94560150Y-45629102D03*
D14*
X100262707Y-39924643D03*
D15*
X100056800Y-45821049D03*
D14*
X105186372Y-42197861D03*
D13*
X105553450Y-46012996D03*
D24*
X96689885Y-39799877D03*
X108759194Y-42322627D03*
%TD*%
D13*
%TO.C,SW13*%
X112539210Y-74038339D03*
D14*
X118437375Y-68536372D03*
D15*
X118025812Y-74422000D03*
D14*
X123278707Y-70980039D03*
D13*
X123512414Y-74805661D03*
D19*
X114871084Y-68286993D03*
X126844998Y-71229418D03*
%TD*%
D13*
%TO.C,SW17*%
X166675064Y-98517124D03*
D14*
X173116031Y-93661823D03*
D15*
X172091507Y-99472189D03*
D14*
X177675409Y-96598160D03*
D13*
X177507950Y-100427254D03*
D20*
X169595344Y-93041031D03*
X181196097Y-97218953D03*
%TD*%
D13*
%TO.C,SW7*%
X132063647Y-68577335D03*
D14*
X138150235Y-63284563D03*
D15*
X137533517Y-69152242D03*
D14*
X142903335Y-65895701D03*
D13*
X143003387Y-69727149D03*
D17*
X134594819Y-62910874D03*
X146458750Y-66269390D03*
%TD*%
D13*
%TO.C,SW14*%
X93289808Y-82006928D03*
D14*
X98992365Y-76302469D03*
D15*
X98786458Y-82198875D03*
D14*
X103916030Y-78575687D03*
D13*
X104283108Y-82390822D03*
D24*
X95419543Y-76177703D03*
X107488852Y-78700453D03*
%TD*%
D13*
%TO.C,SW18*%
X92353742Y-110346071D03*
D14*
X98794709Y-105490770D03*
D15*
X97770185Y-111301136D03*
D14*
X103354087Y-108427107D03*
D13*
X103186628Y-112256201D03*
D20*
X95274022Y-104869978D03*
X106874775Y-109047900D03*
%TD*%
D25*
%TO.C,J2*%
X57476000Y-45934000D03*
D26*
X57476000Y-43434000D03*
X57476000Y-40934000D03*
%TD*%
D27*
%TO.C,H2*%
X149267812Y-58166000D03*
%TD*%
D28*
%TO.C,P1*%
X87283806Y-119798399D03*
X67656193Y-125057602D03*
D29*
X82376903Y-121113200D03*
X79923451Y-121770600D03*
X77470000Y-122428000D03*
X75016548Y-123085401D03*
X72566556Y-123741874D03*
%TD*%
D27*
%TO.C,H5*%
X88900000Y-78740000D03*
%TD*%
D14*
%TO.C,J3*%
X42108000Y-75652000D03*
X42108000Y-59652000D03*
D30*
X38608000Y-73152000D03*
D31*
X38608000Y-70952000D03*
X38608000Y-68752000D03*
X38608000Y-66552000D03*
X38608000Y-64352000D03*
X38608000Y-62152000D03*
%TD*%
D32*
%TO.C,SW21*%
X38100000Y-91676000D03*
X38100000Y-83076000D03*
D33*
X38100000Y-89376000D03*
D34*
X38100000Y-87376000D03*
X38100000Y-85376000D03*
%TD*%
D27*
%TO.C,H3*%
X127677812Y-77216000D03*
%TD*%
%TO.C,H7*%
X63500000Y-115824000D03*
%TD*%
%TO.C,H6*%
X106934048Y-100838061D03*
%TD*%
%TO.C,H4*%
X110236000Y-47498000D03*
%TD*%
%TO.C,H1*%
X165100000Y-79502000D03*
%TD*%
M02*
