%TF.GenerationSoftware,KiCad,Pcbnew,7.0.7*%
%TF.CreationDate,2023-12-03T19:38:24+01:00*%
%TF.ProjectId,nightliner,6e696768-746c-4696-9e65-722e6b696361,rev?*%
%TF.SameCoordinates,Original*%
%TF.FileFunction,Paste,Top*%
%TF.FilePolarity,Positive*%
%FSLAX46Y46*%
G04 Gerber Fmt 4.6, Leading zero omitted, Abs format (unit mm)*
G04 Created by KiCad (PCBNEW 7.0.7) date 2023-12-03 19:38:24*
%MOMM*%
%LPD*%
G01*
G04 APERTURE LIST*
G04 Aperture macros list*
%AMRoundRect*
0 Rectangle with rounded corners*
0 $1 Rounding radius*
0 $2 $3 $4 $5 $6 $7 $8 $9 X,Y pos of 4 corners*
0 Add a 4 corners polygon primitive as box body*
4,1,4,$2,$3,$4,$5,$6,$7,$8,$9,$2,$3,0*
0 Add four circle primitives for the rounded corners*
1,1,$1+$1,$2,$3*
1,1,$1+$1,$4,$5*
1,1,$1+$1,$6,$7*
1,1,$1+$1,$8,$9*
0 Add four rect primitives between the rounded corners*
20,1,$1+$1,$2,$3,$4,$5,0*
20,1,$1+$1,$4,$5,$6,$7,0*
20,1,$1+$1,$6,$7,$8,$9,0*
20,1,$1+$1,$8,$9,$2,$3,0*%
G04 Aperture macros list end*
%ADD10RoundRect,0.112500X0.112500X-0.187500X0.112500X0.187500X-0.112500X0.187500X-0.112500X-0.187500X0*%
%ADD11RoundRect,0.250000X-0.450000X0.262500X-0.450000X-0.262500X0.450000X-0.262500X0.450000X0.262500X0*%
%ADD12RoundRect,0.218750X0.218750X0.256250X-0.218750X0.256250X-0.218750X-0.256250X0.218750X-0.256250X0*%
%ADD13R,0.600000X1.450000*%
%ADD14R,0.300000X1.450000*%
%ADD15RoundRect,0.250000X0.475000X-0.250000X0.475000X0.250000X-0.475000X0.250000X-0.475000X-0.250000X0*%
%ADD16RoundRect,0.250000X0.250000X0.475000X-0.250000X0.475000X-0.250000X-0.475000X0.250000X-0.475000X0*%
%ADD17R,0.700000X0.900000*%
%ADD18RoundRect,0.160000X-0.160000X0.245000X-0.160000X-0.245000X0.160000X-0.245000X0.160000X0.245000X0*%
%ADD19RoundRect,0.093750X-0.106250X0.093750X-0.106250X-0.093750X0.106250X-0.093750X0.106250X0.093750X0*%
%ADD20R,1.000000X2.800000*%
%ADD21RoundRect,0.225000X-0.250000X0.225000X-0.250000X-0.225000X0.250000X-0.225000X0.250000X0.225000X0*%
%ADD22RoundRect,0.250000X0.450000X-0.262500X0.450000X0.262500X-0.450000X0.262500X-0.450000X-0.262500X0*%
%ADD23RoundRect,0.250000X0.262500X0.450000X-0.262500X0.450000X-0.262500X-0.450000X0.262500X-0.450000X0*%
%ADD24RoundRect,0.225000X-0.225000X-0.375000X0.225000X-0.375000X0.225000X0.375000X-0.225000X0.375000X0*%
%ADD25RoundRect,0.150000X-0.150000X0.512500X-0.150000X-0.512500X0.150000X-0.512500X0.150000X0.512500X0*%
%ADD26RoundRect,0.150000X-0.512500X-0.150000X0.512500X-0.150000X0.512500X0.150000X-0.512500X0.150000X0*%
%ADD27RoundRect,0.250000X-0.475000X0.250000X-0.475000X-0.250000X0.475000X-0.250000X0.475000X0.250000X0*%
%ADD28RoundRect,0.218750X-0.256250X0.218750X-0.256250X-0.218750X0.256250X-0.218750X0.256250X0.218750X0*%
%ADD29RoundRect,0.172500X-0.172500X-0.172500X0.172500X-0.172500X0.172500X0.172500X-0.172500X0.172500X0*%
%ADD30RoundRect,0.062500X-0.375000X-0.062500X0.375000X-0.062500X0.375000X0.062500X-0.375000X0.062500X0*%
%ADD31RoundRect,0.062500X-0.062500X-0.375000X0.062500X-0.375000X0.062500X0.375000X-0.062500X0.375000X0*%
G04 APERTURE END LIST*
D10*
%TO.C,D11*%
X65024000Y-85632000D03*
X65024000Y-83532000D03*
%TD*%
D11*
%TO.C,R6*%
X49530000Y-60047500D03*
X49530000Y-61872500D03*
%TD*%
D10*
%TO.C,D17*%
X62230000Y-91474000D03*
X62230000Y-89374000D03*
%TD*%
D11*
%TO.C,R8*%
X54445250Y-49781500D03*
X54445250Y-51606500D03*
%TD*%
D12*
%TO.C,D24*%
X62255500Y-61468000D03*
X60680500Y-61468000D03*
%TD*%
D13*
%TO.C,J1*%
X47192000Y-46209000D03*
X46392000Y-46209000D03*
D14*
X45192000Y-46209000D03*
X44192000Y-46209000D03*
X43692000Y-46209000D03*
X42692000Y-46209000D03*
D13*
X41492000Y-46209000D03*
X40692000Y-46209000D03*
X40692000Y-46209000D03*
X41492000Y-46209000D03*
D14*
X42192000Y-46209000D03*
X43192000Y-46209000D03*
X44692000Y-46209000D03*
X45692000Y-46209000D03*
D13*
X46392000Y-46209000D03*
X47192000Y-46209000D03*
%TD*%
D10*
%TO.C,D15*%
X53848000Y-85632000D03*
X53848000Y-83532000D03*
%TD*%
%TO.C,D20*%
X53848000Y-91474000D03*
X53848000Y-89374000D03*
%TD*%
%TO.C,D16*%
X65024000Y-91474000D03*
X65024000Y-89374000D03*
%TD*%
D15*
%TO.C,C4*%
X54102000Y-68173500D03*
X54102000Y-66273500D03*
%TD*%
D16*
%TO.C,C1*%
X53274000Y-41656000D03*
X51374000Y-41656000D03*
%TD*%
D17*
%TO.C,U1*%
X39258000Y-107796000D03*
X40358000Y-107796000D03*
X41458000Y-107796000D03*
X42558000Y-107796000D03*
X43658000Y-107796000D03*
X44758000Y-107796000D03*
X45858000Y-107796000D03*
X46958000Y-107796000D03*
X48058000Y-107796000D03*
X49158000Y-107796000D03*
X50258000Y-107796000D03*
X51358000Y-107796000D03*
X52458000Y-107796000D03*
X39258000Y-94896000D03*
X40358000Y-94896000D03*
X41458000Y-94896000D03*
X42558000Y-94896000D03*
X43658000Y-94896000D03*
X44758000Y-94896000D03*
X45858000Y-94896000D03*
X46958000Y-94896000D03*
X48058000Y-94896000D03*
X49158000Y-94896000D03*
X50258000Y-94896000D03*
X51358000Y-94896000D03*
X52458000Y-94896000D03*
X53658000Y-95846000D03*
X53658000Y-96946000D03*
X53658000Y-98046000D03*
X53658000Y-99146000D03*
X53658000Y-100246000D03*
X53658000Y-101346000D03*
X53658000Y-102446000D03*
X53658000Y-103546000D03*
X53658000Y-104646000D03*
X53658000Y-105746000D03*
X53658000Y-106846000D03*
%TD*%
D10*
%TO.C,D5*%
X53848000Y-74456000D03*
X53848000Y-72356000D03*
%TD*%
D18*
%TO.C,U2*%
X47756000Y-55880000D03*
X46956000Y-55880000D03*
D19*
X48006000Y-54992500D03*
X47356000Y-54992500D03*
X46706000Y-54992500D03*
X46706000Y-56767500D03*
X47356000Y-56767500D03*
X48006000Y-56767500D03*
%TD*%
D20*
%TO.C,SW22*%
X37116000Y-117708000D03*
X37116000Y-111908000D03*
X41116000Y-117708000D03*
X41116000Y-111908000D03*
%TD*%
D21*
%TO.C,FB1*%
X42164000Y-54999000D03*
X42164000Y-56549000D03*
%TD*%
D11*
%TO.C,R11*%
X48514000Y-49781500D03*
X48514000Y-51606500D03*
%TD*%
D12*
%TO.C,D21*%
X62255500Y-65278000D03*
X60680500Y-65278000D03*
%TD*%
D22*
%TO.C,R4*%
X48006000Y-74572500D03*
X48006000Y-72747500D03*
%TD*%
D11*
%TO.C,R10*%
X51905250Y-49781500D03*
X51905250Y-51606500D03*
%TD*%
D12*
%TO.C,D23*%
X62255500Y-57658000D03*
X60680500Y-57658000D03*
%TD*%
D15*
%TO.C,C5*%
X45466000Y-68173500D03*
X45466000Y-66273500D03*
%TD*%
D10*
%TO.C,D18*%
X59436000Y-91474000D03*
X59436000Y-89374000D03*
%TD*%
%TO.C,D2*%
X62230000Y-74456000D03*
X62230000Y-72356000D03*
%TD*%
%TO.C,D7*%
X62230000Y-80044000D03*
X62230000Y-77944000D03*
%TD*%
D23*
%TO.C,R3*%
X53236500Y-45212000D03*
X51411500Y-45212000D03*
%TD*%
D24*
%TO.C,D25*%
X36958000Y-55880000D03*
X40258000Y-55880000D03*
%TD*%
D10*
%TO.C,D19*%
X56642000Y-91474000D03*
X56642000Y-89374000D03*
%TD*%
%TO.C,D6*%
X65024000Y-80044000D03*
X65024000Y-77944000D03*
%TD*%
D22*
%TO.C,R5*%
X45466000Y-74572500D03*
X45466000Y-72747500D03*
%TD*%
%TO.C,R7*%
X53086000Y-61872500D03*
X53086000Y-60047500D03*
%TD*%
%TO.C,R1*%
X42418000Y-51606500D03*
X42418000Y-49781500D03*
%TD*%
D25*
%TO.C,U5*%
X47686000Y-82936500D03*
X46736000Y-82936500D03*
X45786000Y-82936500D03*
X45786000Y-85211500D03*
X47686000Y-85211500D03*
%TD*%
D10*
%TO.C,D1*%
X65024000Y-74456000D03*
X65024000Y-72356000D03*
%TD*%
D22*
%TO.C,R9*%
X45974000Y-51606500D03*
X45974000Y-49781500D03*
%TD*%
D10*
%TO.C,D3*%
X59436000Y-74456000D03*
X59436000Y-72356000D03*
%TD*%
D26*
%TO.C,U3*%
X50170500Y-54824000D03*
X50170500Y-55774000D03*
X50170500Y-56724000D03*
X52445500Y-56724000D03*
X52445500Y-55774000D03*
X52445500Y-54824000D03*
%TD*%
D10*
%TO.C,D4*%
X56642000Y-74456000D03*
X56642000Y-72356000D03*
%TD*%
D12*
%TO.C,D22*%
X62255500Y-53848000D03*
X60680500Y-53848000D03*
%TD*%
D10*
%TO.C,D14*%
X56642000Y-85632000D03*
X56642000Y-83532000D03*
%TD*%
D27*
%TO.C,C7*%
X55880000Y-106934000D03*
X55880000Y-108834000D03*
%TD*%
%TO.C,C2*%
X44704000Y-54930000D03*
X44704000Y-56830000D03*
%TD*%
%TO.C,C6*%
X46736000Y-89474000D03*
X46736000Y-91374000D03*
%TD*%
D10*
%TO.C,D9*%
X56642000Y-80044000D03*
X56642000Y-77944000D03*
%TD*%
%TO.C,D8*%
X59436000Y-80044000D03*
X59436000Y-77944000D03*
%TD*%
%TO.C,D10*%
X53848000Y-80010000D03*
X53848000Y-77910000D03*
%TD*%
%TO.C,D13*%
X59436000Y-85632000D03*
X59436000Y-83532000D03*
%TD*%
D28*
%TO.C,F1*%
X37592000Y-49906500D03*
X37592000Y-51481500D03*
%TD*%
D15*
%TO.C,C3*%
X45974000Y-61910000D03*
X45974000Y-60010000D03*
%TD*%
D10*
%TO.C,D12*%
X62230000Y-85632000D03*
X62230000Y-83532000D03*
%TD*%
D22*
%TO.C,R2*%
X40132000Y-51606500D03*
X40132000Y-49781500D03*
%TD*%
D29*
%TO.C,U4*%
X49388000Y-66910000D03*
X49388000Y-67710000D03*
X50188000Y-66910000D03*
X50188000Y-67710000D03*
D30*
X48350500Y-66560000D03*
X48350500Y-67060000D03*
X48350500Y-67560000D03*
X48350500Y-68060000D03*
D31*
X49038000Y-68747500D03*
X49538000Y-68747500D03*
X50038000Y-68747500D03*
X50538000Y-68747500D03*
D30*
X51225500Y-68060000D03*
X51225500Y-67560000D03*
X51225500Y-67060000D03*
X51225500Y-66560000D03*
D31*
X50538000Y-65872500D03*
X50038000Y-65872500D03*
X49538000Y-65872500D03*
X49038000Y-65872500D03*
%TD*%
M02*
