%TF.GenerationSoftware,KiCad,Pcbnew,7.0.7*%
%TF.CreationDate,2023-12-03T19:38:24+01:00*%
%TF.ProjectId,nightliner,6e696768-746c-4696-9e65-722e6b696361,rev?*%
%TF.SameCoordinates,Original*%
%TF.FileFunction,Other,Comment*%
%FSLAX46Y46*%
G04 Gerber Fmt 4.6, Leading zero omitted, Abs format (unit mm)*
G04 Created by KiCad (PCBNEW 7.0.7) date 2023-12-03 19:38:24*
%MOMM*%
%LPD*%
G01*
G04 APERTURE LIST*
%ADD10C,0.100000*%
%ADD11C,0.127000*%
%ADD12C,0.150000*%
G04 APERTURE END LIST*
D10*
X43911136Y-93630029D02*
X43411136Y-93630029D01*
X43411136Y-93630029D02*
X43411136Y-93439553D01*
X43411136Y-93439553D02*
X43434946Y-93391934D01*
X43434946Y-93391934D02*
X43458755Y-93368124D01*
X43458755Y-93368124D02*
X43506374Y-93344315D01*
X43506374Y-93344315D02*
X43577803Y-93344315D01*
X43577803Y-93344315D02*
X43625422Y-93368124D01*
X43625422Y-93368124D02*
X43649231Y-93391934D01*
X43649231Y-93391934D02*
X43673041Y-93439553D01*
X43673041Y-93439553D02*
X43673041Y-93630029D01*
X43911136Y-92868124D02*
X43911136Y-93153838D01*
X43911136Y-93010981D02*
X43411136Y-93010981D01*
X43411136Y-93010981D02*
X43482565Y-93058600D01*
X43482565Y-93058600D02*
X43530184Y-93106219D01*
X43530184Y-93106219D02*
X43553993Y-93153838D01*
X43863517Y-92653839D02*
X43887327Y-92630029D01*
X43887327Y-92630029D02*
X43911136Y-92653839D01*
X43911136Y-92653839D02*
X43887327Y-92677648D01*
X43887327Y-92677648D02*
X43863517Y-92653839D01*
X43863517Y-92653839D02*
X43911136Y-92653839D01*
X43411136Y-92320506D02*
X43411136Y-92272887D01*
X43411136Y-92272887D02*
X43434946Y-92225268D01*
X43434946Y-92225268D02*
X43458755Y-92201458D01*
X43458755Y-92201458D02*
X43506374Y-92177649D01*
X43506374Y-92177649D02*
X43601612Y-92153839D01*
X43601612Y-92153839D02*
X43720660Y-92153839D01*
X43720660Y-92153839D02*
X43815898Y-92177649D01*
X43815898Y-92177649D02*
X43863517Y-92201458D01*
X43863517Y-92201458D02*
X43887327Y-92225268D01*
X43887327Y-92225268D02*
X43911136Y-92272887D01*
X43911136Y-92272887D02*
X43911136Y-92320506D01*
X43911136Y-92320506D02*
X43887327Y-92368125D01*
X43887327Y-92368125D02*
X43863517Y-92391934D01*
X43863517Y-92391934D02*
X43815898Y-92415744D01*
X43815898Y-92415744D02*
X43720660Y-92439553D01*
X43720660Y-92439553D02*
X43601612Y-92439553D01*
X43601612Y-92439553D02*
X43506374Y-92415744D01*
X43506374Y-92415744D02*
X43458755Y-92391934D01*
X43458755Y-92391934D02*
X43434946Y-92368125D01*
X43434946Y-92368125D02*
X43411136Y-92320506D01*
X43577803Y-91725268D02*
X43911136Y-91725268D01*
X43387327Y-91844316D02*
X43744469Y-91963363D01*
X43744469Y-91963363D02*
X43744469Y-91653840D01*
X39029286Y-93368124D02*
X39005476Y-93415743D01*
X39005476Y-93415743D02*
X39005476Y-93487172D01*
X39005476Y-93487172D02*
X39029286Y-93558600D01*
X39029286Y-93558600D02*
X39076905Y-93606219D01*
X39076905Y-93606219D02*
X39124524Y-93630029D01*
X39124524Y-93630029D02*
X39219762Y-93653838D01*
X39219762Y-93653838D02*
X39291190Y-93653838D01*
X39291190Y-93653838D02*
X39386428Y-93630029D01*
X39386428Y-93630029D02*
X39434047Y-93606219D01*
X39434047Y-93606219D02*
X39481667Y-93558600D01*
X39481667Y-93558600D02*
X39505476Y-93487172D01*
X39505476Y-93487172D02*
X39505476Y-93439553D01*
X39505476Y-93439553D02*
X39481667Y-93368124D01*
X39481667Y-93368124D02*
X39457857Y-93344315D01*
X39457857Y-93344315D02*
X39291190Y-93344315D01*
X39291190Y-93344315D02*
X39291190Y-93439553D01*
X39505476Y-93130029D02*
X39005476Y-93130029D01*
X39005476Y-93130029D02*
X39505476Y-92844315D01*
X39505476Y-92844315D02*
X39005476Y-92844315D01*
X39505476Y-92606219D02*
X39005476Y-92606219D01*
X39005476Y-92606219D02*
X39005476Y-92487171D01*
X39005476Y-92487171D02*
X39029286Y-92415743D01*
X39029286Y-92415743D02*
X39076905Y-92368124D01*
X39076905Y-92368124D02*
X39124524Y-92344314D01*
X39124524Y-92344314D02*
X39219762Y-92320505D01*
X39219762Y-92320505D02*
X39291190Y-92320505D01*
X39291190Y-92320505D02*
X39386428Y-92344314D01*
X39386428Y-92344314D02*
X39434047Y-92368124D01*
X39434047Y-92368124D02*
X39481667Y-92415743D01*
X39481667Y-92415743D02*
X39505476Y-92487171D01*
X39505476Y-92487171D02*
X39505476Y-92606219D01*
X47215381Y-93630029D02*
X46715381Y-93630029D01*
X46715381Y-93630029D02*
X46715381Y-93439553D01*
X46715381Y-93439553D02*
X46739191Y-93391934D01*
X46739191Y-93391934D02*
X46763000Y-93368124D01*
X46763000Y-93368124D02*
X46810619Y-93344315D01*
X46810619Y-93344315D02*
X46882048Y-93344315D01*
X46882048Y-93344315D02*
X46929667Y-93368124D01*
X46929667Y-93368124D02*
X46953476Y-93391934D01*
X46953476Y-93391934D02*
X46977286Y-93439553D01*
X46977286Y-93439553D02*
X46977286Y-93630029D01*
X47215381Y-92868124D02*
X47215381Y-93153838D01*
X47215381Y-93010981D02*
X46715381Y-93010981D01*
X46715381Y-93010981D02*
X46786810Y-93058600D01*
X46786810Y-93058600D02*
X46834429Y-93106219D01*
X46834429Y-93106219D02*
X46858238Y-93153838D01*
X47167762Y-92653839D02*
X47191572Y-92630029D01*
X47191572Y-92630029D02*
X47215381Y-92653839D01*
X47215381Y-92653839D02*
X47191572Y-92677648D01*
X47191572Y-92677648D02*
X47167762Y-92653839D01*
X47167762Y-92653839D02*
X47215381Y-92653839D01*
X46715381Y-92320506D02*
X46715381Y-92272887D01*
X46715381Y-92272887D02*
X46739191Y-92225268D01*
X46739191Y-92225268D02*
X46763000Y-92201458D01*
X46763000Y-92201458D02*
X46810619Y-92177649D01*
X46810619Y-92177649D02*
X46905857Y-92153839D01*
X46905857Y-92153839D02*
X47024905Y-92153839D01*
X47024905Y-92153839D02*
X47120143Y-92177649D01*
X47120143Y-92177649D02*
X47167762Y-92201458D01*
X47167762Y-92201458D02*
X47191572Y-92225268D01*
X47191572Y-92225268D02*
X47215381Y-92272887D01*
X47215381Y-92272887D02*
X47215381Y-92320506D01*
X47215381Y-92320506D02*
X47191572Y-92368125D01*
X47191572Y-92368125D02*
X47167762Y-92391934D01*
X47167762Y-92391934D02*
X47120143Y-92415744D01*
X47120143Y-92415744D02*
X47024905Y-92439553D01*
X47024905Y-92439553D02*
X46905857Y-92439553D01*
X46905857Y-92439553D02*
X46810619Y-92415744D01*
X46810619Y-92415744D02*
X46763000Y-92391934D01*
X46763000Y-92391934D02*
X46739191Y-92368125D01*
X46739191Y-92368125D02*
X46715381Y-92320506D01*
X46763000Y-91963363D02*
X46739191Y-91939554D01*
X46739191Y-91939554D02*
X46715381Y-91891935D01*
X46715381Y-91891935D02*
X46715381Y-91772887D01*
X46715381Y-91772887D02*
X46739191Y-91725268D01*
X46739191Y-91725268D02*
X46763000Y-91701459D01*
X46763000Y-91701459D02*
X46810619Y-91677649D01*
X46810619Y-91677649D02*
X46858238Y-91677649D01*
X46858238Y-91677649D02*
X46929667Y-91701459D01*
X46929667Y-91701459D02*
X47215381Y-91987173D01*
X47215381Y-91987173D02*
X47215381Y-91677649D01*
X54753224Y-97801999D02*
X54919890Y-98301999D01*
X54919890Y-98301999D02*
X55086557Y-97801999D01*
X55419890Y-98040094D02*
X55491318Y-98063904D01*
X55491318Y-98063904D02*
X55515128Y-98087713D01*
X55515128Y-98087713D02*
X55538937Y-98135332D01*
X55538937Y-98135332D02*
X55538937Y-98206761D01*
X55538937Y-98206761D02*
X55515128Y-98254380D01*
X55515128Y-98254380D02*
X55491318Y-98278190D01*
X55491318Y-98278190D02*
X55443699Y-98301999D01*
X55443699Y-98301999D02*
X55253223Y-98301999D01*
X55253223Y-98301999D02*
X55253223Y-97801999D01*
X55253223Y-97801999D02*
X55419890Y-97801999D01*
X55419890Y-97801999D02*
X55467509Y-97825809D01*
X55467509Y-97825809D02*
X55491318Y-97849618D01*
X55491318Y-97849618D02*
X55515128Y-97897237D01*
X55515128Y-97897237D02*
X55515128Y-97944856D01*
X55515128Y-97944856D02*
X55491318Y-97992475D01*
X55491318Y-97992475D02*
X55467509Y-98016285D01*
X55467509Y-98016285D02*
X55419890Y-98040094D01*
X55419890Y-98040094D02*
X55253223Y-98040094D01*
X55753223Y-97801999D02*
X55753223Y-98206761D01*
X55753223Y-98206761D02*
X55777033Y-98254380D01*
X55777033Y-98254380D02*
X55800842Y-98278190D01*
X55800842Y-98278190D02*
X55848461Y-98301999D01*
X55848461Y-98301999D02*
X55943699Y-98301999D01*
X55943699Y-98301999D02*
X55991318Y-98278190D01*
X55991318Y-98278190D02*
X56015128Y-98254380D01*
X56015128Y-98254380D02*
X56038937Y-98206761D01*
X56038937Y-98206761D02*
X56038937Y-97801999D01*
X56253224Y-98278190D02*
X56324652Y-98301999D01*
X56324652Y-98301999D02*
X56443700Y-98301999D01*
X56443700Y-98301999D02*
X56491319Y-98278190D01*
X56491319Y-98278190D02*
X56515128Y-98254380D01*
X56515128Y-98254380D02*
X56538938Y-98206761D01*
X56538938Y-98206761D02*
X56538938Y-98159142D01*
X56538938Y-98159142D02*
X56515128Y-98111523D01*
X56515128Y-98111523D02*
X56491319Y-98087713D01*
X56491319Y-98087713D02*
X56443700Y-98063904D01*
X56443700Y-98063904D02*
X56348462Y-98040094D01*
X56348462Y-98040094D02*
X56300843Y-98016285D01*
X56300843Y-98016285D02*
X56277033Y-97992475D01*
X56277033Y-97992475D02*
X56253224Y-97944856D01*
X56253224Y-97944856D02*
X56253224Y-97897237D01*
X56253224Y-97897237D02*
X56277033Y-97849618D01*
X56277033Y-97849618D02*
X56300843Y-97825809D01*
X56300843Y-97825809D02*
X56348462Y-97801999D01*
X56348462Y-97801999D02*
X56467509Y-97801999D01*
X56467509Y-97801999D02*
X56538938Y-97825809D01*
X48299460Y-110936904D02*
X47799460Y-110936904D01*
X47799460Y-110936904D02*
X47799460Y-110746428D01*
X47799460Y-110746428D02*
X47823270Y-110698809D01*
X47823270Y-110698809D02*
X47847079Y-110674999D01*
X47847079Y-110674999D02*
X47894698Y-110651190D01*
X47894698Y-110651190D02*
X47966127Y-110651190D01*
X47966127Y-110651190D02*
X48013746Y-110674999D01*
X48013746Y-110674999D02*
X48037555Y-110698809D01*
X48037555Y-110698809D02*
X48061365Y-110746428D01*
X48061365Y-110746428D02*
X48061365Y-110936904D01*
X47799460Y-110341666D02*
X47799460Y-110294047D01*
X47799460Y-110294047D02*
X47823270Y-110246428D01*
X47823270Y-110246428D02*
X47847079Y-110222618D01*
X47847079Y-110222618D02*
X47894698Y-110198809D01*
X47894698Y-110198809D02*
X47989936Y-110174999D01*
X47989936Y-110174999D02*
X48108984Y-110174999D01*
X48108984Y-110174999D02*
X48204222Y-110198809D01*
X48204222Y-110198809D02*
X48251841Y-110222618D01*
X48251841Y-110222618D02*
X48275651Y-110246428D01*
X48275651Y-110246428D02*
X48299460Y-110294047D01*
X48299460Y-110294047D02*
X48299460Y-110341666D01*
X48299460Y-110341666D02*
X48275651Y-110389285D01*
X48275651Y-110389285D02*
X48251841Y-110413094D01*
X48251841Y-110413094D02*
X48204222Y-110436904D01*
X48204222Y-110436904D02*
X48108984Y-110460713D01*
X48108984Y-110460713D02*
X47989936Y-110460713D01*
X47989936Y-110460713D02*
X47894698Y-110436904D01*
X47894698Y-110436904D02*
X47847079Y-110413094D01*
X47847079Y-110413094D02*
X47823270Y-110389285D01*
X47823270Y-110389285D02*
X47799460Y-110341666D01*
X48251841Y-109960714D02*
X48275651Y-109936904D01*
X48275651Y-109936904D02*
X48299460Y-109960714D01*
X48299460Y-109960714D02*
X48275651Y-109984523D01*
X48275651Y-109984523D02*
X48251841Y-109960714D01*
X48251841Y-109960714D02*
X48299460Y-109960714D01*
X47847079Y-109746428D02*
X47823270Y-109722619D01*
X47823270Y-109722619D02*
X47799460Y-109675000D01*
X47799460Y-109675000D02*
X47799460Y-109555952D01*
X47799460Y-109555952D02*
X47823270Y-109508333D01*
X47823270Y-109508333D02*
X47847079Y-109484524D01*
X47847079Y-109484524D02*
X47894698Y-109460714D01*
X47894698Y-109460714D02*
X47942317Y-109460714D01*
X47942317Y-109460714D02*
X48013746Y-109484524D01*
X48013746Y-109484524D02*
X48299460Y-109770238D01*
X48299460Y-109770238D02*
X48299460Y-109460714D01*
X48299460Y-109222619D02*
X48299460Y-109127381D01*
X48299460Y-109127381D02*
X48275651Y-109079762D01*
X48275651Y-109079762D02*
X48251841Y-109055953D01*
X48251841Y-109055953D02*
X48180412Y-109008334D01*
X48180412Y-109008334D02*
X48085174Y-108984524D01*
X48085174Y-108984524D02*
X47894698Y-108984524D01*
X47894698Y-108984524D02*
X47847079Y-109008334D01*
X47847079Y-109008334D02*
X47823270Y-109032143D01*
X47823270Y-109032143D02*
X47799460Y-109079762D01*
X47799460Y-109079762D02*
X47799460Y-109175000D01*
X47799460Y-109175000D02*
X47823270Y-109222619D01*
X47823270Y-109222619D02*
X47847079Y-109246429D01*
X47847079Y-109246429D02*
X47894698Y-109270238D01*
X47894698Y-109270238D02*
X48013746Y-109270238D01*
X48013746Y-109270238D02*
X48061365Y-109246429D01*
X48061365Y-109246429D02*
X48085174Y-109222619D01*
X48085174Y-109222619D02*
X48108984Y-109175000D01*
X48108984Y-109175000D02*
X48108984Y-109079762D01*
X48108984Y-109079762D02*
X48085174Y-109032143D01*
X48085174Y-109032143D02*
X48061365Y-109008334D01*
X48061365Y-109008334D02*
X48013746Y-108984524D01*
X46129539Y-99994599D02*
X45629539Y-99994599D01*
X45629539Y-99994599D02*
X45629539Y-99804123D01*
X45629539Y-99804123D02*
X45653349Y-99756504D01*
X45653349Y-99756504D02*
X45677158Y-99732694D01*
X45677158Y-99732694D02*
X45724777Y-99708885D01*
X45724777Y-99708885D02*
X45796206Y-99708885D01*
X45796206Y-99708885D02*
X45843825Y-99732694D01*
X45843825Y-99732694D02*
X45867634Y-99756504D01*
X45867634Y-99756504D02*
X45891444Y-99804123D01*
X45891444Y-99804123D02*
X45891444Y-99994599D01*
X45629539Y-99399361D02*
X45629539Y-99351742D01*
X45629539Y-99351742D02*
X45653349Y-99304123D01*
X45653349Y-99304123D02*
X45677158Y-99280313D01*
X45677158Y-99280313D02*
X45724777Y-99256504D01*
X45724777Y-99256504D02*
X45820015Y-99232694D01*
X45820015Y-99232694D02*
X45939063Y-99232694D01*
X45939063Y-99232694D02*
X46034301Y-99256504D01*
X46034301Y-99256504D02*
X46081920Y-99280313D01*
X46081920Y-99280313D02*
X46105730Y-99304123D01*
X46105730Y-99304123D02*
X46129539Y-99351742D01*
X46129539Y-99351742D02*
X46129539Y-99399361D01*
X46129539Y-99399361D02*
X46105730Y-99446980D01*
X46105730Y-99446980D02*
X46081920Y-99470789D01*
X46081920Y-99470789D02*
X46034301Y-99494599D01*
X46034301Y-99494599D02*
X45939063Y-99518408D01*
X45939063Y-99518408D02*
X45820015Y-99518408D01*
X45820015Y-99518408D02*
X45724777Y-99494599D01*
X45724777Y-99494599D02*
X45677158Y-99470789D01*
X45677158Y-99470789D02*
X45653349Y-99446980D01*
X45653349Y-99446980D02*
X45629539Y-99399361D01*
X46081920Y-99018409D02*
X46105730Y-98994599D01*
X46105730Y-98994599D02*
X46129539Y-99018409D01*
X46129539Y-99018409D02*
X46105730Y-99042218D01*
X46105730Y-99042218D02*
X46081920Y-99018409D01*
X46081920Y-99018409D02*
X46129539Y-99018409D01*
X46129539Y-98518409D02*
X46129539Y-98804123D01*
X46129539Y-98661266D02*
X45629539Y-98661266D01*
X45629539Y-98661266D02*
X45700968Y-98708885D01*
X45700968Y-98708885D02*
X45748587Y-98756504D01*
X45748587Y-98756504D02*
X45772396Y-98804123D01*
X45629539Y-98351743D02*
X45629539Y-98018410D01*
X45629539Y-98018410D02*
X46129539Y-98232695D01*
X48316796Y-93630029D02*
X47816796Y-93630029D01*
X47816796Y-93630029D02*
X47816796Y-93439553D01*
X47816796Y-93439553D02*
X47840606Y-93391934D01*
X47840606Y-93391934D02*
X47864415Y-93368124D01*
X47864415Y-93368124D02*
X47912034Y-93344315D01*
X47912034Y-93344315D02*
X47983463Y-93344315D01*
X47983463Y-93344315D02*
X48031082Y-93368124D01*
X48031082Y-93368124D02*
X48054891Y-93391934D01*
X48054891Y-93391934D02*
X48078701Y-93439553D01*
X48078701Y-93439553D02*
X48078701Y-93630029D01*
X48316796Y-92868124D02*
X48316796Y-93153838D01*
X48316796Y-93010981D02*
X47816796Y-93010981D01*
X47816796Y-93010981D02*
X47888225Y-93058600D01*
X47888225Y-93058600D02*
X47935844Y-93106219D01*
X47935844Y-93106219D02*
X47959653Y-93153838D01*
X48269177Y-92653839D02*
X48292987Y-92630029D01*
X48292987Y-92630029D02*
X48316796Y-92653839D01*
X48316796Y-92653839D02*
X48292987Y-92677648D01*
X48292987Y-92677648D02*
X48269177Y-92653839D01*
X48269177Y-92653839D02*
X48316796Y-92653839D01*
X47816796Y-92320506D02*
X47816796Y-92272887D01*
X47816796Y-92272887D02*
X47840606Y-92225268D01*
X47840606Y-92225268D02*
X47864415Y-92201458D01*
X47864415Y-92201458D02*
X47912034Y-92177649D01*
X47912034Y-92177649D02*
X48007272Y-92153839D01*
X48007272Y-92153839D02*
X48126320Y-92153839D01*
X48126320Y-92153839D02*
X48221558Y-92177649D01*
X48221558Y-92177649D02*
X48269177Y-92201458D01*
X48269177Y-92201458D02*
X48292987Y-92225268D01*
X48292987Y-92225268D02*
X48316796Y-92272887D01*
X48316796Y-92272887D02*
X48316796Y-92320506D01*
X48316796Y-92320506D02*
X48292987Y-92368125D01*
X48292987Y-92368125D02*
X48269177Y-92391934D01*
X48269177Y-92391934D02*
X48221558Y-92415744D01*
X48221558Y-92415744D02*
X48126320Y-92439553D01*
X48126320Y-92439553D02*
X48007272Y-92439553D01*
X48007272Y-92439553D02*
X47912034Y-92415744D01*
X47912034Y-92415744D02*
X47864415Y-92391934D01*
X47864415Y-92391934D02*
X47840606Y-92368125D01*
X47840606Y-92368125D02*
X47816796Y-92320506D01*
X48316796Y-91677649D02*
X48316796Y-91963363D01*
X48316796Y-91820506D02*
X47816796Y-91820506D01*
X47816796Y-91820506D02*
X47888225Y-91868125D01*
X47888225Y-91868125D02*
X47935844Y-91915744D01*
X47935844Y-91915744D02*
X47959653Y-91963363D01*
X40604724Y-110936904D02*
X40104724Y-110936904D01*
X40104724Y-110936904D02*
X40104724Y-110746428D01*
X40104724Y-110746428D02*
X40128534Y-110698809D01*
X40128534Y-110698809D02*
X40152343Y-110674999D01*
X40152343Y-110674999D02*
X40199962Y-110651190D01*
X40199962Y-110651190D02*
X40271391Y-110651190D01*
X40271391Y-110651190D02*
X40319010Y-110674999D01*
X40319010Y-110674999D02*
X40342819Y-110698809D01*
X40342819Y-110698809D02*
X40366629Y-110746428D01*
X40366629Y-110746428D02*
X40366629Y-110936904D01*
X40604724Y-110174999D02*
X40604724Y-110460713D01*
X40604724Y-110317856D02*
X40104724Y-110317856D01*
X40104724Y-110317856D02*
X40176153Y-110365475D01*
X40176153Y-110365475D02*
X40223772Y-110413094D01*
X40223772Y-110413094D02*
X40247581Y-110460713D01*
X40557105Y-109960714D02*
X40580915Y-109936904D01*
X40580915Y-109936904D02*
X40604724Y-109960714D01*
X40604724Y-109960714D02*
X40580915Y-109984523D01*
X40580915Y-109984523D02*
X40557105Y-109960714D01*
X40557105Y-109960714D02*
X40604724Y-109960714D01*
X40604724Y-109460714D02*
X40604724Y-109746428D01*
X40604724Y-109603571D02*
X40104724Y-109603571D01*
X40104724Y-109603571D02*
X40176153Y-109651190D01*
X40176153Y-109651190D02*
X40223772Y-109698809D01*
X40223772Y-109698809D02*
X40247581Y-109746428D01*
X40604724Y-108984524D02*
X40604724Y-109270238D01*
X40604724Y-109127381D02*
X40104724Y-109127381D01*
X40104724Y-109127381D02*
X40176153Y-109175000D01*
X40176153Y-109175000D02*
X40223772Y-109222619D01*
X40223772Y-109222619D02*
X40247581Y-109270238D01*
X42848289Y-99994599D02*
X42348289Y-99994599D01*
X42348289Y-99994599D02*
X42348289Y-99804123D01*
X42348289Y-99804123D02*
X42372099Y-99756504D01*
X42372099Y-99756504D02*
X42395908Y-99732694D01*
X42395908Y-99732694D02*
X42443527Y-99708885D01*
X42443527Y-99708885D02*
X42514956Y-99708885D01*
X42514956Y-99708885D02*
X42562575Y-99732694D01*
X42562575Y-99732694D02*
X42586384Y-99756504D01*
X42586384Y-99756504D02*
X42610194Y-99804123D01*
X42610194Y-99804123D02*
X42610194Y-99994599D01*
X42848289Y-99232694D02*
X42848289Y-99518408D01*
X42848289Y-99375551D02*
X42348289Y-99375551D01*
X42348289Y-99375551D02*
X42419718Y-99423170D01*
X42419718Y-99423170D02*
X42467337Y-99470789D01*
X42467337Y-99470789D02*
X42491146Y-99518408D01*
X42800670Y-99018409D02*
X42824480Y-98994599D01*
X42824480Y-98994599D02*
X42848289Y-99018409D01*
X42848289Y-99018409D02*
X42824480Y-99042218D01*
X42824480Y-99042218D02*
X42800670Y-99018409D01*
X42800670Y-99018409D02*
X42848289Y-99018409D01*
X42348289Y-98685076D02*
X42348289Y-98637457D01*
X42348289Y-98637457D02*
X42372099Y-98589838D01*
X42372099Y-98589838D02*
X42395908Y-98566028D01*
X42395908Y-98566028D02*
X42443527Y-98542219D01*
X42443527Y-98542219D02*
X42538765Y-98518409D01*
X42538765Y-98518409D02*
X42657813Y-98518409D01*
X42657813Y-98518409D02*
X42753051Y-98542219D01*
X42753051Y-98542219D02*
X42800670Y-98566028D01*
X42800670Y-98566028D02*
X42824480Y-98589838D01*
X42824480Y-98589838D02*
X42848289Y-98637457D01*
X42848289Y-98637457D02*
X42848289Y-98685076D01*
X42848289Y-98685076D02*
X42824480Y-98732695D01*
X42824480Y-98732695D02*
X42800670Y-98756504D01*
X42800670Y-98756504D02*
X42753051Y-98780314D01*
X42753051Y-98780314D02*
X42657813Y-98804123D01*
X42657813Y-98804123D02*
X42538765Y-98804123D01*
X42538765Y-98804123D02*
X42443527Y-98780314D01*
X42443527Y-98780314D02*
X42395908Y-98756504D01*
X42395908Y-98756504D02*
X42372099Y-98732695D01*
X42372099Y-98732695D02*
X42348289Y-98685076D01*
X42348289Y-98066029D02*
X42348289Y-98304124D01*
X42348289Y-98304124D02*
X42586384Y-98327933D01*
X42586384Y-98327933D02*
X42562575Y-98304124D01*
X42562575Y-98304124D02*
X42538765Y-98256505D01*
X42538765Y-98256505D02*
X42538765Y-98137457D01*
X42538765Y-98137457D02*
X42562575Y-98089838D01*
X42562575Y-98089838D02*
X42586384Y-98066029D01*
X42586384Y-98066029D02*
X42634003Y-98042219D01*
X42634003Y-98042219D02*
X42753051Y-98042219D01*
X42753051Y-98042219D02*
X42800670Y-98066029D01*
X42800670Y-98066029D02*
X42824480Y-98089838D01*
X42824480Y-98089838D02*
X42848289Y-98137457D01*
X42848289Y-98137457D02*
X42848289Y-98256505D01*
X42848289Y-98256505D02*
X42824480Y-98304124D01*
X42824480Y-98304124D02*
X42800670Y-98327933D01*
X45035789Y-100077909D02*
X44535789Y-100077909D01*
X44535789Y-100077909D02*
X44535789Y-99887433D01*
X44535789Y-99887433D02*
X44559599Y-99839814D01*
X44559599Y-99839814D02*
X44583408Y-99816004D01*
X44583408Y-99816004D02*
X44631027Y-99792195D01*
X44631027Y-99792195D02*
X44702456Y-99792195D01*
X44702456Y-99792195D02*
X44750075Y-99816004D01*
X44750075Y-99816004D02*
X44773884Y-99839814D01*
X44773884Y-99839814D02*
X44797694Y-99887433D01*
X44797694Y-99887433D02*
X44797694Y-100077909D01*
X44535789Y-99482671D02*
X44535789Y-99435052D01*
X44535789Y-99435052D02*
X44559599Y-99387433D01*
X44559599Y-99387433D02*
X44583408Y-99363623D01*
X44583408Y-99363623D02*
X44631027Y-99339814D01*
X44631027Y-99339814D02*
X44726265Y-99316004D01*
X44726265Y-99316004D02*
X44845313Y-99316004D01*
X44845313Y-99316004D02*
X44940551Y-99339814D01*
X44940551Y-99339814D02*
X44988170Y-99363623D01*
X44988170Y-99363623D02*
X45011980Y-99387433D01*
X45011980Y-99387433D02*
X45035789Y-99435052D01*
X45035789Y-99435052D02*
X45035789Y-99482671D01*
X45035789Y-99482671D02*
X45011980Y-99530290D01*
X45011980Y-99530290D02*
X44988170Y-99554099D01*
X44988170Y-99554099D02*
X44940551Y-99577909D01*
X44940551Y-99577909D02*
X44845313Y-99601718D01*
X44845313Y-99601718D02*
X44726265Y-99601718D01*
X44726265Y-99601718D02*
X44631027Y-99577909D01*
X44631027Y-99577909D02*
X44583408Y-99554099D01*
X44583408Y-99554099D02*
X44559599Y-99530290D01*
X44559599Y-99530290D02*
X44535789Y-99482671D01*
X44988170Y-99101719D02*
X45011980Y-99077909D01*
X45011980Y-99077909D02*
X45035789Y-99101719D01*
X45035789Y-99101719D02*
X45011980Y-99125528D01*
X45011980Y-99125528D02*
X44988170Y-99101719D01*
X44988170Y-99101719D02*
X45035789Y-99101719D01*
X44583408Y-98887433D02*
X44559599Y-98863624D01*
X44559599Y-98863624D02*
X44535789Y-98816005D01*
X44535789Y-98816005D02*
X44535789Y-98696957D01*
X44535789Y-98696957D02*
X44559599Y-98649338D01*
X44559599Y-98649338D02*
X44583408Y-98625529D01*
X44583408Y-98625529D02*
X44631027Y-98601719D01*
X44631027Y-98601719D02*
X44678646Y-98601719D01*
X44678646Y-98601719D02*
X44750075Y-98625529D01*
X44750075Y-98625529D02*
X45035789Y-98911243D01*
X45035789Y-98911243D02*
X45035789Y-98601719D01*
X44535789Y-98292196D02*
X44535789Y-98244577D01*
X44535789Y-98244577D02*
X44559599Y-98196958D01*
X44559599Y-98196958D02*
X44583408Y-98173148D01*
X44583408Y-98173148D02*
X44631027Y-98149339D01*
X44631027Y-98149339D02*
X44726265Y-98125529D01*
X44726265Y-98125529D02*
X44845313Y-98125529D01*
X44845313Y-98125529D02*
X44940551Y-98149339D01*
X44940551Y-98149339D02*
X44988170Y-98173148D01*
X44988170Y-98173148D02*
X45011980Y-98196958D01*
X45011980Y-98196958D02*
X45035789Y-98244577D01*
X45035789Y-98244577D02*
X45035789Y-98292196D01*
X45035789Y-98292196D02*
X45011980Y-98339815D01*
X45011980Y-98339815D02*
X44988170Y-98363624D01*
X44988170Y-98363624D02*
X44940551Y-98387434D01*
X44940551Y-98387434D02*
X44845313Y-98411243D01*
X44845313Y-98411243D02*
X44726265Y-98411243D01*
X44726265Y-98411243D02*
X44631027Y-98387434D01*
X44631027Y-98387434D02*
X44583408Y-98363624D01*
X44583408Y-98363624D02*
X44559599Y-98339815D01*
X44559599Y-98339815D02*
X44535789Y-98292196D01*
X42848289Y-104674356D02*
X42348289Y-104674356D01*
X42348289Y-104674356D02*
X42348289Y-104483880D01*
X42348289Y-104483880D02*
X42372099Y-104436261D01*
X42372099Y-104436261D02*
X42395908Y-104412451D01*
X42395908Y-104412451D02*
X42443527Y-104388642D01*
X42443527Y-104388642D02*
X42514956Y-104388642D01*
X42514956Y-104388642D02*
X42562575Y-104412451D01*
X42562575Y-104412451D02*
X42586384Y-104436261D01*
X42586384Y-104436261D02*
X42610194Y-104483880D01*
X42610194Y-104483880D02*
X42610194Y-104674356D01*
X42848289Y-103912451D02*
X42848289Y-104198165D01*
X42848289Y-104055308D02*
X42348289Y-104055308D01*
X42348289Y-104055308D02*
X42419718Y-104102927D01*
X42419718Y-104102927D02*
X42467337Y-104150546D01*
X42467337Y-104150546D02*
X42491146Y-104198165D01*
X42800670Y-103698166D02*
X42824480Y-103674356D01*
X42824480Y-103674356D02*
X42848289Y-103698166D01*
X42848289Y-103698166D02*
X42824480Y-103721975D01*
X42824480Y-103721975D02*
X42800670Y-103698166D01*
X42800670Y-103698166D02*
X42848289Y-103698166D01*
X42848289Y-103198166D02*
X42848289Y-103483880D01*
X42848289Y-103341023D02*
X42348289Y-103341023D01*
X42348289Y-103341023D02*
X42419718Y-103388642D01*
X42419718Y-103388642D02*
X42467337Y-103436261D01*
X42467337Y-103436261D02*
X42491146Y-103483880D01*
X42395908Y-103007690D02*
X42372099Y-102983881D01*
X42372099Y-102983881D02*
X42348289Y-102936262D01*
X42348289Y-102936262D02*
X42348289Y-102817214D01*
X42348289Y-102817214D02*
X42372099Y-102769595D01*
X42372099Y-102769595D02*
X42395908Y-102745786D01*
X42395908Y-102745786D02*
X42443527Y-102721976D01*
X42443527Y-102721976D02*
X42491146Y-102721976D01*
X42491146Y-102721976D02*
X42562575Y-102745786D01*
X42562575Y-102745786D02*
X42848289Y-103031500D01*
X42848289Y-103031500D02*
X42848289Y-102721976D01*
X54824652Y-106001341D02*
X54824652Y-105501341D01*
X54824652Y-105501341D02*
X55015128Y-105501341D01*
X55015128Y-105501341D02*
X55062747Y-105525151D01*
X55062747Y-105525151D02*
X55086557Y-105548960D01*
X55086557Y-105548960D02*
X55110366Y-105596579D01*
X55110366Y-105596579D02*
X55110366Y-105668008D01*
X55110366Y-105668008D02*
X55086557Y-105715627D01*
X55086557Y-105715627D02*
X55062747Y-105739436D01*
X55062747Y-105739436D02*
X55015128Y-105763246D01*
X55015128Y-105763246D02*
X54824652Y-105763246D01*
X55419890Y-105501341D02*
X55467509Y-105501341D01*
X55467509Y-105501341D02*
X55515128Y-105525151D01*
X55515128Y-105525151D02*
X55538938Y-105548960D01*
X55538938Y-105548960D02*
X55562747Y-105596579D01*
X55562747Y-105596579D02*
X55586557Y-105691817D01*
X55586557Y-105691817D02*
X55586557Y-105810865D01*
X55586557Y-105810865D02*
X55562747Y-105906103D01*
X55562747Y-105906103D02*
X55538938Y-105953722D01*
X55538938Y-105953722D02*
X55515128Y-105977532D01*
X55515128Y-105977532D02*
X55467509Y-106001341D01*
X55467509Y-106001341D02*
X55419890Y-106001341D01*
X55419890Y-106001341D02*
X55372271Y-105977532D01*
X55372271Y-105977532D02*
X55348462Y-105953722D01*
X55348462Y-105953722D02*
X55324652Y-105906103D01*
X55324652Y-105906103D02*
X55300843Y-105810865D01*
X55300843Y-105810865D02*
X55300843Y-105691817D01*
X55300843Y-105691817D02*
X55324652Y-105596579D01*
X55324652Y-105596579D02*
X55348462Y-105548960D01*
X55348462Y-105548960D02*
X55372271Y-105525151D01*
X55372271Y-105525151D02*
X55419890Y-105501341D01*
X55800842Y-105953722D02*
X55824652Y-105977532D01*
X55824652Y-105977532D02*
X55800842Y-106001341D01*
X55800842Y-106001341D02*
X55777033Y-105977532D01*
X55777033Y-105977532D02*
X55800842Y-105953722D01*
X55800842Y-105953722D02*
X55800842Y-106001341D01*
X56134175Y-105501341D02*
X56181794Y-105501341D01*
X56181794Y-105501341D02*
X56229413Y-105525151D01*
X56229413Y-105525151D02*
X56253223Y-105548960D01*
X56253223Y-105548960D02*
X56277032Y-105596579D01*
X56277032Y-105596579D02*
X56300842Y-105691817D01*
X56300842Y-105691817D02*
X56300842Y-105810865D01*
X56300842Y-105810865D02*
X56277032Y-105906103D01*
X56277032Y-105906103D02*
X56253223Y-105953722D01*
X56253223Y-105953722D02*
X56229413Y-105977532D01*
X56229413Y-105977532D02*
X56181794Y-106001341D01*
X56181794Y-106001341D02*
X56134175Y-106001341D01*
X56134175Y-106001341D02*
X56086556Y-105977532D01*
X56086556Y-105977532D02*
X56062747Y-105953722D01*
X56062747Y-105953722D02*
X56038937Y-105906103D01*
X56038937Y-105906103D02*
X56015128Y-105810865D01*
X56015128Y-105810865D02*
X56015128Y-105691817D01*
X56015128Y-105691817D02*
X56038937Y-105596579D01*
X56038937Y-105596579D02*
X56062747Y-105548960D01*
X56062747Y-105548960D02*
X56086556Y-105525151D01*
X56086556Y-105525151D02*
X56134175Y-105501341D01*
X56467508Y-105501341D02*
X56800841Y-105501341D01*
X56800841Y-105501341D02*
X56586556Y-106001341D01*
X54824652Y-102701623D02*
X54824652Y-102201623D01*
X54824652Y-102201623D02*
X55015128Y-102201623D01*
X55015128Y-102201623D02*
X55062747Y-102225433D01*
X55062747Y-102225433D02*
X55086557Y-102249242D01*
X55086557Y-102249242D02*
X55110366Y-102296861D01*
X55110366Y-102296861D02*
X55110366Y-102368290D01*
X55110366Y-102368290D02*
X55086557Y-102415909D01*
X55086557Y-102415909D02*
X55062747Y-102439718D01*
X55062747Y-102439718D02*
X55015128Y-102463528D01*
X55015128Y-102463528D02*
X54824652Y-102463528D01*
X55419890Y-102201623D02*
X55467509Y-102201623D01*
X55467509Y-102201623D02*
X55515128Y-102225433D01*
X55515128Y-102225433D02*
X55538938Y-102249242D01*
X55538938Y-102249242D02*
X55562747Y-102296861D01*
X55562747Y-102296861D02*
X55586557Y-102392099D01*
X55586557Y-102392099D02*
X55586557Y-102511147D01*
X55586557Y-102511147D02*
X55562747Y-102606385D01*
X55562747Y-102606385D02*
X55538938Y-102654004D01*
X55538938Y-102654004D02*
X55515128Y-102677814D01*
X55515128Y-102677814D02*
X55467509Y-102701623D01*
X55467509Y-102701623D02*
X55419890Y-102701623D01*
X55419890Y-102701623D02*
X55372271Y-102677814D01*
X55372271Y-102677814D02*
X55348462Y-102654004D01*
X55348462Y-102654004D02*
X55324652Y-102606385D01*
X55324652Y-102606385D02*
X55300843Y-102511147D01*
X55300843Y-102511147D02*
X55300843Y-102392099D01*
X55300843Y-102392099D02*
X55324652Y-102296861D01*
X55324652Y-102296861D02*
X55348462Y-102249242D01*
X55348462Y-102249242D02*
X55372271Y-102225433D01*
X55372271Y-102225433D02*
X55419890Y-102201623D01*
X55800842Y-102654004D02*
X55824652Y-102677814D01*
X55824652Y-102677814D02*
X55800842Y-102701623D01*
X55800842Y-102701623D02*
X55777033Y-102677814D01*
X55777033Y-102677814D02*
X55800842Y-102654004D01*
X55800842Y-102654004D02*
X55800842Y-102701623D01*
X56015128Y-102249242D02*
X56038937Y-102225433D01*
X56038937Y-102225433D02*
X56086556Y-102201623D01*
X56086556Y-102201623D02*
X56205604Y-102201623D01*
X56205604Y-102201623D02*
X56253223Y-102225433D01*
X56253223Y-102225433D02*
X56277032Y-102249242D01*
X56277032Y-102249242D02*
X56300842Y-102296861D01*
X56300842Y-102296861D02*
X56300842Y-102344480D01*
X56300842Y-102344480D02*
X56277032Y-102415909D01*
X56277032Y-102415909D02*
X55991318Y-102701623D01*
X55991318Y-102701623D02*
X56300842Y-102701623D01*
X56467508Y-102201623D02*
X56777032Y-102201623D01*
X56777032Y-102201623D02*
X56610365Y-102392099D01*
X56610365Y-102392099D02*
X56681794Y-102392099D01*
X56681794Y-102392099D02*
X56729413Y-102415909D01*
X56729413Y-102415909D02*
X56753222Y-102439718D01*
X56753222Y-102439718D02*
X56777032Y-102487337D01*
X56777032Y-102487337D02*
X56777032Y-102606385D01*
X56777032Y-102606385D02*
X56753222Y-102654004D01*
X56753222Y-102654004D02*
X56729413Y-102677814D01*
X56729413Y-102677814D02*
X56681794Y-102701623D01*
X56681794Y-102701623D02*
X56538937Y-102701623D01*
X56538937Y-102701623D02*
X56491318Y-102677814D01*
X56491318Y-102677814D02*
X56467508Y-102654004D01*
D11*
X55336872Y-94900628D02*
X55336872Y-94320056D01*
X56352872Y-94610342D02*
X55336872Y-94610342D01*
X55336872Y-93787866D02*
X55336872Y-93594342D01*
X55336872Y-93594342D02*
X55385253Y-93497580D01*
X55385253Y-93497580D02*
X55482015Y-93400818D01*
X55482015Y-93400818D02*
X55675539Y-93352437D01*
X55675539Y-93352437D02*
X56014206Y-93352437D01*
X56014206Y-93352437D02*
X56207730Y-93400818D01*
X56207730Y-93400818D02*
X56304492Y-93497580D01*
X56304492Y-93497580D02*
X56352872Y-93594342D01*
X56352872Y-93594342D02*
X56352872Y-93787866D01*
X56352872Y-93787866D02*
X56304492Y-93884628D01*
X56304492Y-93884628D02*
X56207730Y-93981390D01*
X56207730Y-93981390D02*
X56014206Y-94029771D01*
X56014206Y-94029771D02*
X55675539Y-94029771D01*
X55675539Y-94029771D02*
X55482015Y-93981390D01*
X55482015Y-93981390D02*
X55385253Y-93884628D01*
X55385253Y-93884628D02*
X55336872Y-93787866D01*
X56352872Y-92917009D02*
X55336872Y-92917009D01*
X55336872Y-92917009D02*
X55336872Y-92529961D01*
X55336872Y-92529961D02*
X55385253Y-92433199D01*
X55385253Y-92433199D02*
X55433634Y-92384818D01*
X55433634Y-92384818D02*
X55530396Y-92336437D01*
X55530396Y-92336437D02*
X55675539Y-92336437D01*
X55675539Y-92336437D02*
X55772301Y-92384818D01*
X55772301Y-92384818D02*
X55820682Y-92433199D01*
X55820682Y-92433199D02*
X55869063Y-92529961D01*
X55869063Y-92529961D02*
X55869063Y-92917009D01*
X55336872Y-91272057D02*
X56352872Y-90933390D01*
X56352872Y-90933390D02*
X55336872Y-90594723D01*
X56352872Y-90256057D02*
X55336872Y-90256057D01*
X55820682Y-89772247D02*
X55820682Y-89433580D01*
X56352872Y-89288437D02*
X56352872Y-89772247D01*
X56352872Y-89772247D02*
X55336872Y-89772247D01*
X55336872Y-89772247D02*
X55336872Y-89288437D01*
X55336872Y-88949771D02*
X56352872Y-88707866D01*
X56352872Y-88707866D02*
X55627158Y-88514342D01*
X55627158Y-88514342D02*
X56352872Y-88320818D01*
X56352872Y-88320818D02*
X55336872Y-88078914D01*
D10*
X49418211Y-93630029D02*
X48918211Y-93630029D01*
X48918211Y-93630029D02*
X48918211Y-93439553D01*
X48918211Y-93439553D02*
X48942021Y-93391934D01*
X48942021Y-93391934D02*
X48965830Y-93368124D01*
X48965830Y-93368124D02*
X49013449Y-93344315D01*
X49013449Y-93344315D02*
X49084878Y-93344315D01*
X49084878Y-93344315D02*
X49132497Y-93368124D01*
X49132497Y-93368124D02*
X49156306Y-93391934D01*
X49156306Y-93391934D02*
X49180116Y-93439553D01*
X49180116Y-93439553D02*
X49180116Y-93630029D01*
X49418211Y-92868124D02*
X49418211Y-93153838D01*
X49418211Y-93010981D02*
X48918211Y-93010981D01*
X48918211Y-93010981D02*
X48989640Y-93058600D01*
X48989640Y-93058600D02*
X49037259Y-93106219D01*
X49037259Y-93106219D02*
X49061068Y-93153838D01*
X49370592Y-92653839D02*
X49394402Y-92630029D01*
X49394402Y-92630029D02*
X49418211Y-92653839D01*
X49418211Y-92653839D02*
X49394402Y-92677648D01*
X49394402Y-92677648D02*
X49370592Y-92653839D01*
X49370592Y-92653839D02*
X49418211Y-92653839D01*
X48918211Y-92320506D02*
X48918211Y-92272887D01*
X48918211Y-92272887D02*
X48942021Y-92225268D01*
X48942021Y-92225268D02*
X48965830Y-92201458D01*
X48965830Y-92201458D02*
X49013449Y-92177649D01*
X49013449Y-92177649D02*
X49108687Y-92153839D01*
X49108687Y-92153839D02*
X49227735Y-92153839D01*
X49227735Y-92153839D02*
X49322973Y-92177649D01*
X49322973Y-92177649D02*
X49370592Y-92201458D01*
X49370592Y-92201458D02*
X49394402Y-92225268D01*
X49394402Y-92225268D02*
X49418211Y-92272887D01*
X49418211Y-92272887D02*
X49418211Y-92320506D01*
X49418211Y-92320506D02*
X49394402Y-92368125D01*
X49394402Y-92368125D02*
X49370592Y-92391934D01*
X49370592Y-92391934D02*
X49322973Y-92415744D01*
X49322973Y-92415744D02*
X49227735Y-92439553D01*
X49227735Y-92439553D02*
X49108687Y-92439553D01*
X49108687Y-92439553D02*
X49013449Y-92415744D01*
X49013449Y-92415744D02*
X48965830Y-92391934D01*
X48965830Y-92391934D02*
X48942021Y-92368125D01*
X48942021Y-92368125D02*
X48918211Y-92320506D01*
X48918211Y-91987173D02*
X48918211Y-91677649D01*
X48918211Y-91677649D02*
X49108687Y-91844316D01*
X49108687Y-91844316D02*
X49108687Y-91772887D01*
X49108687Y-91772887D02*
X49132497Y-91725268D01*
X49132497Y-91725268D02*
X49156306Y-91701459D01*
X49156306Y-91701459D02*
X49203925Y-91677649D01*
X49203925Y-91677649D02*
X49322973Y-91677649D01*
X49322973Y-91677649D02*
X49370592Y-91701459D01*
X49370592Y-91701459D02*
X49394402Y-91725268D01*
X49394402Y-91725268D02*
X49418211Y-91772887D01*
X49418211Y-91772887D02*
X49418211Y-91915744D01*
X49418211Y-91915744D02*
X49394402Y-91963363D01*
X49394402Y-91963363D02*
X49370592Y-91987173D01*
X47200212Y-110936904D02*
X46700212Y-110936904D01*
X46700212Y-110936904D02*
X46700212Y-110746428D01*
X46700212Y-110746428D02*
X46724022Y-110698809D01*
X46724022Y-110698809D02*
X46747831Y-110674999D01*
X46747831Y-110674999D02*
X46795450Y-110651190D01*
X46795450Y-110651190D02*
X46866879Y-110651190D01*
X46866879Y-110651190D02*
X46914498Y-110674999D01*
X46914498Y-110674999D02*
X46938307Y-110698809D01*
X46938307Y-110698809D02*
X46962117Y-110746428D01*
X46962117Y-110746428D02*
X46962117Y-110936904D01*
X46700212Y-110341666D02*
X46700212Y-110294047D01*
X46700212Y-110294047D02*
X46724022Y-110246428D01*
X46724022Y-110246428D02*
X46747831Y-110222618D01*
X46747831Y-110222618D02*
X46795450Y-110198809D01*
X46795450Y-110198809D02*
X46890688Y-110174999D01*
X46890688Y-110174999D02*
X47009736Y-110174999D01*
X47009736Y-110174999D02*
X47104974Y-110198809D01*
X47104974Y-110198809D02*
X47152593Y-110222618D01*
X47152593Y-110222618D02*
X47176403Y-110246428D01*
X47176403Y-110246428D02*
X47200212Y-110294047D01*
X47200212Y-110294047D02*
X47200212Y-110341666D01*
X47200212Y-110341666D02*
X47176403Y-110389285D01*
X47176403Y-110389285D02*
X47152593Y-110413094D01*
X47152593Y-110413094D02*
X47104974Y-110436904D01*
X47104974Y-110436904D02*
X47009736Y-110460713D01*
X47009736Y-110460713D02*
X46890688Y-110460713D01*
X46890688Y-110460713D02*
X46795450Y-110436904D01*
X46795450Y-110436904D02*
X46747831Y-110413094D01*
X46747831Y-110413094D02*
X46724022Y-110389285D01*
X46724022Y-110389285D02*
X46700212Y-110341666D01*
X47152593Y-109960714D02*
X47176403Y-109936904D01*
X47176403Y-109936904D02*
X47200212Y-109960714D01*
X47200212Y-109960714D02*
X47176403Y-109984523D01*
X47176403Y-109984523D02*
X47152593Y-109960714D01*
X47152593Y-109960714D02*
X47200212Y-109960714D01*
X46747831Y-109746428D02*
X46724022Y-109722619D01*
X46724022Y-109722619D02*
X46700212Y-109675000D01*
X46700212Y-109675000D02*
X46700212Y-109555952D01*
X46700212Y-109555952D02*
X46724022Y-109508333D01*
X46724022Y-109508333D02*
X46747831Y-109484524D01*
X46747831Y-109484524D02*
X46795450Y-109460714D01*
X46795450Y-109460714D02*
X46843069Y-109460714D01*
X46843069Y-109460714D02*
X46914498Y-109484524D01*
X46914498Y-109484524D02*
X47200212Y-109770238D01*
X47200212Y-109770238D02*
X47200212Y-109460714D01*
X46914498Y-109175000D02*
X46890688Y-109222619D01*
X46890688Y-109222619D02*
X46866879Y-109246429D01*
X46866879Y-109246429D02*
X46819260Y-109270238D01*
X46819260Y-109270238D02*
X46795450Y-109270238D01*
X46795450Y-109270238D02*
X46747831Y-109246429D01*
X46747831Y-109246429D02*
X46724022Y-109222619D01*
X46724022Y-109222619D02*
X46700212Y-109175000D01*
X46700212Y-109175000D02*
X46700212Y-109079762D01*
X46700212Y-109079762D02*
X46724022Y-109032143D01*
X46724022Y-109032143D02*
X46747831Y-109008334D01*
X46747831Y-109008334D02*
X46795450Y-108984524D01*
X46795450Y-108984524D02*
X46819260Y-108984524D01*
X46819260Y-108984524D02*
X46866879Y-109008334D01*
X46866879Y-109008334D02*
X46890688Y-109032143D01*
X46890688Y-109032143D02*
X46914498Y-109079762D01*
X46914498Y-109079762D02*
X46914498Y-109175000D01*
X46914498Y-109175000D02*
X46938307Y-109222619D01*
X46938307Y-109222619D02*
X46962117Y-109246429D01*
X46962117Y-109246429D02*
X47009736Y-109270238D01*
X47009736Y-109270238D02*
X47104974Y-109270238D01*
X47104974Y-109270238D02*
X47152593Y-109246429D01*
X47152593Y-109246429D02*
X47176403Y-109222619D01*
X47176403Y-109222619D02*
X47200212Y-109175000D01*
X47200212Y-109175000D02*
X47200212Y-109079762D01*
X47200212Y-109079762D02*
X47176403Y-109032143D01*
X47176403Y-109032143D02*
X47152593Y-109008334D01*
X47152593Y-109008334D02*
X47104974Y-108984524D01*
X47104974Y-108984524D02*
X47009736Y-108984524D01*
X47009736Y-108984524D02*
X46962117Y-109008334D01*
X46962117Y-109008334D02*
X46938307Y-109032143D01*
X46938307Y-109032143D02*
X46914498Y-109079762D01*
X48304539Y-99994599D02*
X47804539Y-99994599D01*
X47804539Y-99994599D02*
X47804539Y-99804123D01*
X47804539Y-99804123D02*
X47828349Y-99756504D01*
X47828349Y-99756504D02*
X47852158Y-99732694D01*
X47852158Y-99732694D02*
X47899777Y-99708885D01*
X47899777Y-99708885D02*
X47971206Y-99708885D01*
X47971206Y-99708885D02*
X48018825Y-99732694D01*
X48018825Y-99732694D02*
X48042634Y-99756504D01*
X48042634Y-99756504D02*
X48066444Y-99804123D01*
X48066444Y-99804123D02*
X48066444Y-99994599D01*
X47804539Y-99399361D02*
X47804539Y-99351742D01*
X47804539Y-99351742D02*
X47828349Y-99304123D01*
X47828349Y-99304123D02*
X47852158Y-99280313D01*
X47852158Y-99280313D02*
X47899777Y-99256504D01*
X47899777Y-99256504D02*
X47995015Y-99232694D01*
X47995015Y-99232694D02*
X48114063Y-99232694D01*
X48114063Y-99232694D02*
X48209301Y-99256504D01*
X48209301Y-99256504D02*
X48256920Y-99280313D01*
X48256920Y-99280313D02*
X48280730Y-99304123D01*
X48280730Y-99304123D02*
X48304539Y-99351742D01*
X48304539Y-99351742D02*
X48304539Y-99399361D01*
X48304539Y-99399361D02*
X48280730Y-99446980D01*
X48280730Y-99446980D02*
X48256920Y-99470789D01*
X48256920Y-99470789D02*
X48209301Y-99494599D01*
X48209301Y-99494599D02*
X48114063Y-99518408D01*
X48114063Y-99518408D02*
X47995015Y-99518408D01*
X47995015Y-99518408D02*
X47899777Y-99494599D01*
X47899777Y-99494599D02*
X47852158Y-99470789D01*
X47852158Y-99470789D02*
X47828349Y-99446980D01*
X47828349Y-99446980D02*
X47804539Y-99399361D01*
X48256920Y-99018409D02*
X48280730Y-98994599D01*
X48280730Y-98994599D02*
X48304539Y-99018409D01*
X48304539Y-99018409D02*
X48280730Y-99042218D01*
X48280730Y-99042218D02*
X48256920Y-99018409D01*
X48256920Y-99018409D02*
X48304539Y-99018409D01*
X48304539Y-98518409D02*
X48304539Y-98804123D01*
X48304539Y-98661266D02*
X47804539Y-98661266D01*
X47804539Y-98661266D02*
X47875968Y-98708885D01*
X47875968Y-98708885D02*
X47923587Y-98756504D01*
X47923587Y-98756504D02*
X47947396Y-98804123D01*
X47971206Y-98089838D02*
X48304539Y-98089838D01*
X47780730Y-98208886D02*
X48137872Y-98327933D01*
X48137872Y-98327933D02*
X48137872Y-98018410D01*
X54824652Y-97202093D02*
X54824652Y-96702093D01*
X54824652Y-96702093D02*
X54943700Y-96702093D01*
X54943700Y-96702093D02*
X55015128Y-96725903D01*
X55015128Y-96725903D02*
X55062747Y-96773522D01*
X55062747Y-96773522D02*
X55086557Y-96821141D01*
X55086557Y-96821141D02*
X55110366Y-96916379D01*
X55110366Y-96916379D02*
X55110366Y-96987807D01*
X55110366Y-96987807D02*
X55086557Y-97083045D01*
X55086557Y-97083045D02*
X55062747Y-97130664D01*
X55062747Y-97130664D02*
X55015128Y-97178284D01*
X55015128Y-97178284D02*
X54943700Y-97202093D01*
X54943700Y-97202093D02*
X54824652Y-97202093D01*
X55324652Y-97011617D02*
X55705605Y-97011617D01*
X50497956Y-110936904D02*
X49997956Y-110936904D01*
X49997956Y-110936904D02*
X49997956Y-110746428D01*
X49997956Y-110746428D02*
X50021766Y-110698809D01*
X50021766Y-110698809D02*
X50045575Y-110674999D01*
X50045575Y-110674999D02*
X50093194Y-110651190D01*
X50093194Y-110651190D02*
X50164623Y-110651190D01*
X50164623Y-110651190D02*
X50212242Y-110674999D01*
X50212242Y-110674999D02*
X50236051Y-110698809D01*
X50236051Y-110698809D02*
X50259861Y-110746428D01*
X50259861Y-110746428D02*
X50259861Y-110936904D01*
X49997956Y-110341666D02*
X49997956Y-110294047D01*
X49997956Y-110294047D02*
X50021766Y-110246428D01*
X50021766Y-110246428D02*
X50045575Y-110222618D01*
X50045575Y-110222618D02*
X50093194Y-110198809D01*
X50093194Y-110198809D02*
X50188432Y-110174999D01*
X50188432Y-110174999D02*
X50307480Y-110174999D01*
X50307480Y-110174999D02*
X50402718Y-110198809D01*
X50402718Y-110198809D02*
X50450337Y-110222618D01*
X50450337Y-110222618D02*
X50474147Y-110246428D01*
X50474147Y-110246428D02*
X50497956Y-110294047D01*
X50497956Y-110294047D02*
X50497956Y-110341666D01*
X50497956Y-110341666D02*
X50474147Y-110389285D01*
X50474147Y-110389285D02*
X50450337Y-110413094D01*
X50450337Y-110413094D02*
X50402718Y-110436904D01*
X50402718Y-110436904D02*
X50307480Y-110460713D01*
X50307480Y-110460713D02*
X50188432Y-110460713D01*
X50188432Y-110460713D02*
X50093194Y-110436904D01*
X50093194Y-110436904D02*
X50045575Y-110413094D01*
X50045575Y-110413094D02*
X50021766Y-110389285D01*
X50021766Y-110389285D02*
X49997956Y-110341666D01*
X50450337Y-109960714D02*
X50474147Y-109936904D01*
X50474147Y-109936904D02*
X50497956Y-109960714D01*
X50497956Y-109960714D02*
X50474147Y-109984523D01*
X50474147Y-109984523D02*
X50450337Y-109960714D01*
X50450337Y-109960714D02*
X50497956Y-109960714D01*
X49997956Y-109770238D02*
X49997956Y-109460714D01*
X49997956Y-109460714D02*
X50188432Y-109627381D01*
X50188432Y-109627381D02*
X50188432Y-109555952D01*
X50188432Y-109555952D02*
X50212242Y-109508333D01*
X50212242Y-109508333D02*
X50236051Y-109484524D01*
X50236051Y-109484524D02*
X50283670Y-109460714D01*
X50283670Y-109460714D02*
X50402718Y-109460714D01*
X50402718Y-109460714D02*
X50450337Y-109484524D01*
X50450337Y-109484524D02*
X50474147Y-109508333D01*
X50474147Y-109508333D02*
X50497956Y-109555952D01*
X50497956Y-109555952D02*
X50497956Y-109698809D01*
X50497956Y-109698809D02*
X50474147Y-109746428D01*
X50474147Y-109746428D02*
X50450337Y-109770238D01*
X50497956Y-108984524D02*
X50497956Y-109270238D01*
X50497956Y-109127381D02*
X49997956Y-109127381D01*
X49997956Y-109127381D02*
X50069385Y-109175000D01*
X50069385Y-109175000D02*
X50117004Y-109222619D01*
X50117004Y-109222619D02*
X50140813Y-109270238D01*
X54753224Y-106601247D02*
X54919890Y-107101247D01*
X54919890Y-107101247D02*
X55086557Y-106601247D01*
X55253223Y-107101247D02*
X55253223Y-106601247D01*
X55253223Y-106601247D02*
X55372271Y-106601247D01*
X55372271Y-106601247D02*
X55443699Y-106625057D01*
X55443699Y-106625057D02*
X55491318Y-106672676D01*
X55491318Y-106672676D02*
X55515128Y-106720295D01*
X55515128Y-106720295D02*
X55538937Y-106815533D01*
X55538937Y-106815533D02*
X55538937Y-106886961D01*
X55538937Y-106886961D02*
X55515128Y-106982199D01*
X55515128Y-106982199D02*
X55491318Y-107029818D01*
X55491318Y-107029818D02*
X55443699Y-107077438D01*
X55443699Y-107077438D02*
X55372271Y-107101247D01*
X55372271Y-107101247D02*
X55253223Y-107101247D01*
X55753223Y-107101247D02*
X55753223Y-106601247D01*
X55753223Y-106601247D02*
X55872271Y-106601247D01*
X55872271Y-106601247D02*
X55943699Y-106625057D01*
X55943699Y-106625057D02*
X55991318Y-106672676D01*
X55991318Y-106672676D02*
X56015128Y-106720295D01*
X56015128Y-106720295D02*
X56038937Y-106815533D01*
X56038937Y-106815533D02*
X56038937Y-106886961D01*
X56038937Y-106886961D02*
X56015128Y-106982199D01*
X56015128Y-106982199D02*
X55991318Y-107029818D01*
X55991318Y-107029818D02*
X55943699Y-107077438D01*
X55943699Y-107077438D02*
X55872271Y-107101247D01*
X55872271Y-107101247D02*
X55753223Y-107101247D01*
X56134176Y-107148866D02*
X56515128Y-107148866D01*
X56634175Y-106767914D02*
X56634175Y-107101247D01*
X56634175Y-106815533D02*
X56657985Y-106791723D01*
X56657985Y-106791723D02*
X56705604Y-106767914D01*
X56705604Y-106767914D02*
X56777032Y-106767914D01*
X56777032Y-106767914D02*
X56824651Y-106791723D01*
X56824651Y-106791723D02*
X56848461Y-106839342D01*
X56848461Y-106839342D02*
X56848461Y-107101247D01*
X57372270Y-107101247D02*
X57205604Y-106863152D01*
X57086556Y-107101247D02*
X57086556Y-106601247D01*
X57086556Y-106601247D02*
X57277032Y-106601247D01*
X57277032Y-106601247D02*
X57324651Y-106625057D01*
X57324651Y-106625057D02*
X57348461Y-106648866D01*
X57348461Y-106648866D02*
X57372270Y-106696485D01*
X57372270Y-106696485D02*
X57372270Y-106767914D01*
X57372270Y-106767914D02*
X57348461Y-106815533D01*
X57348461Y-106815533D02*
X57324651Y-106839342D01*
X57324651Y-106839342D02*
X57277032Y-106863152D01*
X57277032Y-106863152D02*
X57086556Y-106863152D01*
X57753223Y-106839342D02*
X57586556Y-106839342D01*
X57586556Y-107101247D02*
X57586556Y-106601247D01*
X57586556Y-106601247D02*
X57824651Y-106601247D01*
X52246267Y-93368124D02*
X52222457Y-93415743D01*
X52222457Y-93415743D02*
X52222457Y-93487172D01*
X52222457Y-93487172D02*
X52246267Y-93558600D01*
X52246267Y-93558600D02*
X52293886Y-93606219D01*
X52293886Y-93606219D02*
X52341505Y-93630029D01*
X52341505Y-93630029D02*
X52436743Y-93653838D01*
X52436743Y-93653838D02*
X52508171Y-93653838D01*
X52508171Y-93653838D02*
X52603409Y-93630029D01*
X52603409Y-93630029D02*
X52651028Y-93606219D01*
X52651028Y-93606219D02*
X52698648Y-93558600D01*
X52698648Y-93558600D02*
X52722457Y-93487172D01*
X52722457Y-93487172D02*
X52722457Y-93439553D01*
X52722457Y-93439553D02*
X52698648Y-93368124D01*
X52698648Y-93368124D02*
X52674838Y-93344315D01*
X52674838Y-93344315D02*
X52508171Y-93344315D01*
X52508171Y-93344315D02*
X52508171Y-93439553D01*
X52722457Y-93130029D02*
X52222457Y-93130029D01*
X52222457Y-93130029D02*
X52722457Y-92844315D01*
X52722457Y-92844315D02*
X52222457Y-92844315D01*
X52722457Y-92606219D02*
X52222457Y-92606219D01*
X52222457Y-92606219D02*
X52222457Y-92487171D01*
X52222457Y-92487171D02*
X52246267Y-92415743D01*
X52246267Y-92415743D02*
X52293886Y-92368124D01*
X52293886Y-92368124D02*
X52341505Y-92344314D01*
X52341505Y-92344314D02*
X52436743Y-92320505D01*
X52436743Y-92320505D02*
X52508171Y-92320505D01*
X52508171Y-92320505D02*
X52603409Y-92344314D01*
X52603409Y-92344314D02*
X52651028Y-92368124D01*
X52651028Y-92368124D02*
X52698648Y-92415743D01*
X52698648Y-92415743D02*
X52722457Y-92487171D01*
X52722457Y-92487171D02*
X52722457Y-92606219D01*
X51597204Y-110936904D02*
X51097204Y-110936904D01*
X51097204Y-110936904D02*
X51097204Y-110746428D01*
X51097204Y-110746428D02*
X51121014Y-110698809D01*
X51121014Y-110698809D02*
X51144823Y-110674999D01*
X51144823Y-110674999D02*
X51192442Y-110651190D01*
X51192442Y-110651190D02*
X51263871Y-110651190D01*
X51263871Y-110651190D02*
X51311490Y-110674999D01*
X51311490Y-110674999D02*
X51335299Y-110698809D01*
X51335299Y-110698809D02*
X51359109Y-110746428D01*
X51359109Y-110746428D02*
X51359109Y-110936904D01*
X51097204Y-110341666D02*
X51097204Y-110294047D01*
X51097204Y-110294047D02*
X51121014Y-110246428D01*
X51121014Y-110246428D02*
X51144823Y-110222618D01*
X51144823Y-110222618D02*
X51192442Y-110198809D01*
X51192442Y-110198809D02*
X51287680Y-110174999D01*
X51287680Y-110174999D02*
X51406728Y-110174999D01*
X51406728Y-110174999D02*
X51501966Y-110198809D01*
X51501966Y-110198809D02*
X51549585Y-110222618D01*
X51549585Y-110222618D02*
X51573395Y-110246428D01*
X51573395Y-110246428D02*
X51597204Y-110294047D01*
X51597204Y-110294047D02*
X51597204Y-110341666D01*
X51597204Y-110341666D02*
X51573395Y-110389285D01*
X51573395Y-110389285D02*
X51549585Y-110413094D01*
X51549585Y-110413094D02*
X51501966Y-110436904D01*
X51501966Y-110436904D02*
X51406728Y-110460713D01*
X51406728Y-110460713D02*
X51287680Y-110460713D01*
X51287680Y-110460713D02*
X51192442Y-110436904D01*
X51192442Y-110436904D02*
X51144823Y-110413094D01*
X51144823Y-110413094D02*
X51121014Y-110389285D01*
X51121014Y-110389285D02*
X51097204Y-110341666D01*
X51549585Y-109960714D02*
X51573395Y-109936904D01*
X51573395Y-109936904D02*
X51597204Y-109960714D01*
X51597204Y-109960714D02*
X51573395Y-109984523D01*
X51573395Y-109984523D02*
X51549585Y-109960714D01*
X51549585Y-109960714D02*
X51597204Y-109960714D01*
X51097204Y-109627381D02*
X51097204Y-109579762D01*
X51097204Y-109579762D02*
X51121014Y-109532143D01*
X51121014Y-109532143D02*
X51144823Y-109508333D01*
X51144823Y-109508333D02*
X51192442Y-109484524D01*
X51192442Y-109484524D02*
X51287680Y-109460714D01*
X51287680Y-109460714D02*
X51406728Y-109460714D01*
X51406728Y-109460714D02*
X51501966Y-109484524D01*
X51501966Y-109484524D02*
X51549585Y-109508333D01*
X51549585Y-109508333D02*
X51573395Y-109532143D01*
X51573395Y-109532143D02*
X51597204Y-109579762D01*
X51597204Y-109579762D02*
X51597204Y-109627381D01*
X51597204Y-109627381D02*
X51573395Y-109675000D01*
X51573395Y-109675000D02*
X51549585Y-109698809D01*
X51549585Y-109698809D02*
X51501966Y-109722619D01*
X51501966Y-109722619D02*
X51406728Y-109746428D01*
X51406728Y-109746428D02*
X51287680Y-109746428D01*
X51287680Y-109746428D02*
X51192442Y-109722619D01*
X51192442Y-109722619D02*
X51144823Y-109698809D01*
X51144823Y-109698809D02*
X51121014Y-109675000D01*
X51121014Y-109675000D02*
X51097204Y-109627381D01*
X51263871Y-109032143D02*
X51597204Y-109032143D01*
X51073395Y-109151191D02*
X51430537Y-109270238D01*
X51430537Y-109270238D02*
X51430537Y-108960715D01*
X43942039Y-100077909D02*
X43442039Y-100077909D01*
X43442039Y-100077909D02*
X43442039Y-99887433D01*
X43442039Y-99887433D02*
X43465849Y-99839814D01*
X43465849Y-99839814D02*
X43489658Y-99816004D01*
X43489658Y-99816004D02*
X43537277Y-99792195D01*
X43537277Y-99792195D02*
X43608706Y-99792195D01*
X43608706Y-99792195D02*
X43656325Y-99816004D01*
X43656325Y-99816004D02*
X43680134Y-99839814D01*
X43680134Y-99839814D02*
X43703944Y-99887433D01*
X43703944Y-99887433D02*
X43703944Y-100077909D01*
X43442039Y-99482671D02*
X43442039Y-99435052D01*
X43442039Y-99435052D02*
X43465849Y-99387433D01*
X43465849Y-99387433D02*
X43489658Y-99363623D01*
X43489658Y-99363623D02*
X43537277Y-99339814D01*
X43537277Y-99339814D02*
X43632515Y-99316004D01*
X43632515Y-99316004D02*
X43751563Y-99316004D01*
X43751563Y-99316004D02*
X43846801Y-99339814D01*
X43846801Y-99339814D02*
X43894420Y-99363623D01*
X43894420Y-99363623D02*
X43918230Y-99387433D01*
X43918230Y-99387433D02*
X43942039Y-99435052D01*
X43942039Y-99435052D02*
X43942039Y-99482671D01*
X43942039Y-99482671D02*
X43918230Y-99530290D01*
X43918230Y-99530290D02*
X43894420Y-99554099D01*
X43894420Y-99554099D02*
X43846801Y-99577909D01*
X43846801Y-99577909D02*
X43751563Y-99601718D01*
X43751563Y-99601718D02*
X43632515Y-99601718D01*
X43632515Y-99601718D02*
X43537277Y-99577909D01*
X43537277Y-99577909D02*
X43489658Y-99554099D01*
X43489658Y-99554099D02*
X43465849Y-99530290D01*
X43465849Y-99530290D02*
X43442039Y-99482671D01*
X43894420Y-99101719D02*
X43918230Y-99077909D01*
X43918230Y-99077909D02*
X43942039Y-99101719D01*
X43942039Y-99101719D02*
X43918230Y-99125528D01*
X43918230Y-99125528D02*
X43894420Y-99101719D01*
X43894420Y-99101719D02*
X43942039Y-99101719D01*
X43489658Y-98887433D02*
X43465849Y-98863624D01*
X43465849Y-98863624D02*
X43442039Y-98816005D01*
X43442039Y-98816005D02*
X43442039Y-98696957D01*
X43442039Y-98696957D02*
X43465849Y-98649338D01*
X43465849Y-98649338D02*
X43489658Y-98625529D01*
X43489658Y-98625529D02*
X43537277Y-98601719D01*
X43537277Y-98601719D02*
X43584896Y-98601719D01*
X43584896Y-98601719D02*
X43656325Y-98625529D01*
X43656325Y-98625529D02*
X43942039Y-98911243D01*
X43942039Y-98911243D02*
X43942039Y-98601719D01*
X43608706Y-98173148D02*
X43942039Y-98173148D01*
X43418230Y-98292196D02*
X43775372Y-98411243D01*
X43775372Y-98411243D02*
X43775372Y-98101720D01*
X39029286Y-110704646D02*
X39005476Y-110752265D01*
X39005476Y-110752265D02*
X39005476Y-110823694D01*
X39005476Y-110823694D02*
X39029286Y-110895122D01*
X39029286Y-110895122D02*
X39076905Y-110942741D01*
X39076905Y-110942741D02*
X39124524Y-110966551D01*
X39124524Y-110966551D02*
X39219762Y-110990360D01*
X39219762Y-110990360D02*
X39291190Y-110990360D01*
X39291190Y-110990360D02*
X39386428Y-110966551D01*
X39386428Y-110966551D02*
X39434047Y-110942741D01*
X39434047Y-110942741D02*
X39481667Y-110895122D01*
X39481667Y-110895122D02*
X39505476Y-110823694D01*
X39505476Y-110823694D02*
X39505476Y-110776075D01*
X39505476Y-110776075D02*
X39481667Y-110704646D01*
X39481667Y-110704646D02*
X39457857Y-110680837D01*
X39457857Y-110680837D02*
X39291190Y-110680837D01*
X39291190Y-110680837D02*
X39291190Y-110776075D01*
X39505476Y-110466551D02*
X39005476Y-110466551D01*
X39005476Y-110466551D02*
X39505476Y-110180837D01*
X39505476Y-110180837D02*
X39005476Y-110180837D01*
X39505476Y-109942741D02*
X39005476Y-109942741D01*
X39005476Y-109942741D02*
X39005476Y-109823693D01*
X39005476Y-109823693D02*
X39029286Y-109752265D01*
X39029286Y-109752265D02*
X39076905Y-109704646D01*
X39076905Y-109704646D02*
X39124524Y-109680836D01*
X39124524Y-109680836D02*
X39219762Y-109657027D01*
X39219762Y-109657027D02*
X39291190Y-109657027D01*
X39291190Y-109657027D02*
X39386428Y-109680836D01*
X39386428Y-109680836D02*
X39434047Y-109704646D01*
X39434047Y-109704646D02*
X39481667Y-109752265D01*
X39481667Y-109752265D02*
X39505476Y-109823693D01*
X39505476Y-109823693D02*
X39505476Y-109942741D01*
X43902468Y-110936904D02*
X43402468Y-110936904D01*
X43402468Y-110936904D02*
X43402468Y-110746428D01*
X43402468Y-110746428D02*
X43426278Y-110698809D01*
X43426278Y-110698809D02*
X43450087Y-110674999D01*
X43450087Y-110674999D02*
X43497706Y-110651190D01*
X43497706Y-110651190D02*
X43569135Y-110651190D01*
X43569135Y-110651190D02*
X43616754Y-110674999D01*
X43616754Y-110674999D02*
X43640563Y-110698809D01*
X43640563Y-110698809D02*
X43664373Y-110746428D01*
X43664373Y-110746428D02*
X43664373Y-110936904D01*
X43902468Y-110174999D02*
X43902468Y-110460713D01*
X43902468Y-110317856D02*
X43402468Y-110317856D01*
X43402468Y-110317856D02*
X43473897Y-110365475D01*
X43473897Y-110365475D02*
X43521516Y-110413094D01*
X43521516Y-110413094D02*
X43545325Y-110460713D01*
X43854849Y-109960714D02*
X43878659Y-109936904D01*
X43878659Y-109936904D02*
X43902468Y-109960714D01*
X43902468Y-109960714D02*
X43878659Y-109984523D01*
X43878659Y-109984523D02*
X43854849Y-109960714D01*
X43854849Y-109960714D02*
X43902468Y-109960714D01*
X43902468Y-109460714D02*
X43902468Y-109746428D01*
X43902468Y-109603571D02*
X43402468Y-109603571D01*
X43402468Y-109603571D02*
X43473897Y-109651190D01*
X43473897Y-109651190D02*
X43521516Y-109698809D01*
X43521516Y-109698809D02*
X43545325Y-109746428D01*
X43402468Y-109008334D02*
X43402468Y-109246429D01*
X43402468Y-109246429D02*
X43640563Y-109270238D01*
X43640563Y-109270238D02*
X43616754Y-109246429D01*
X43616754Y-109246429D02*
X43592944Y-109198810D01*
X43592944Y-109198810D02*
X43592944Y-109079762D01*
X43592944Y-109079762D02*
X43616754Y-109032143D01*
X43616754Y-109032143D02*
X43640563Y-109008334D01*
X43640563Y-109008334D02*
X43688182Y-108984524D01*
X43688182Y-108984524D02*
X43807230Y-108984524D01*
X43807230Y-108984524D02*
X43854849Y-109008334D01*
X43854849Y-109008334D02*
X43878659Y-109032143D01*
X43878659Y-109032143D02*
X43902468Y-109079762D01*
X43902468Y-109079762D02*
X43902468Y-109198810D01*
X43902468Y-109198810D02*
X43878659Y-109246429D01*
X43878659Y-109246429D02*
X43854849Y-109270238D01*
X45035789Y-104674356D02*
X44535789Y-104674356D01*
X44535789Y-104674356D02*
X44535789Y-104483880D01*
X44535789Y-104483880D02*
X44559599Y-104436261D01*
X44559599Y-104436261D02*
X44583408Y-104412451D01*
X44583408Y-104412451D02*
X44631027Y-104388642D01*
X44631027Y-104388642D02*
X44702456Y-104388642D01*
X44702456Y-104388642D02*
X44750075Y-104412451D01*
X44750075Y-104412451D02*
X44773884Y-104436261D01*
X44773884Y-104436261D02*
X44797694Y-104483880D01*
X44797694Y-104483880D02*
X44797694Y-104674356D01*
X44535789Y-104079118D02*
X44535789Y-104031499D01*
X44535789Y-104031499D02*
X44559599Y-103983880D01*
X44559599Y-103983880D02*
X44583408Y-103960070D01*
X44583408Y-103960070D02*
X44631027Y-103936261D01*
X44631027Y-103936261D02*
X44726265Y-103912451D01*
X44726265Y-103912451D02*
X44845313Y-103912451D01*
X44845313Y-103912451D02*
X44940551Y-103936261D01*
X44940551Y-103936261D02*
X44988170Y-103960070D01*
X44988170Y-103960070D02*
X45011980Y-103983880D01*
X45011980Y-103983880D02*
X45035789Y-104031499D01*
X45035789Y-104031499D02*
X45035789Y-104079118D01*
X45035789Y-104079118D02*
X45011980Y-104126737D01*
X45011980Y-104126737D02*
X44988170Y-104150546D01*
X44988170Y-104150546D02*
X44940551Y-104174356D01*
X44940551Y-104174356D02*
X44845313Y-104198165D01*
X44845313Y-104198165D02*
X44726265Y-104198165D01*
X44726265Y-104198165D02*
X44631027Y-104174356D01*
X44631027Y-104174356D02*
X44583408Y-104150546D01*
X44583408Y-104150546D02*
X44559599Y-104126737D01*
X44559599Y-104126737D02*
X44535789Y-104079118D01*
X44988170Y-103698166D02*
X45011980Y-103674356D01*
X45011980Y-103674356D02*
X45035789Y-103698166D01*
X45035789Y-103698166D02*
X45011980Y-103721975D01*
X45011980Y-103721975D02*
X44988170Y-103698166D01*
X44988170Y-103698166D02*
X45035789Y-103698166D01*
X45035789Y-103198166D02*
X45035789Y-103483880D01*
X45035789Y-103341023D02*
X44535789Y-103341023D01*
X44535789Y-103341023D02*
X44607218Y-103388642D01*
X44607218Y-103388642D02*
X44654837Y-103436261D01*
X44654837Y-103436261D02*
X44678646Y-103483880D01*
X45035789Y-102721976D02*
X45035789Y-103007690D01*
X45035789Y-102864833D02*
X44535789Y-102864833D01*
X44535789Y-102864833D02*
X44607218Y-102912452D01*
X44607218Y-102912452D02*
X44654837Y-102960071D01*
X44654837Y-102960071D02*
X44678646Y-103007690D01*
X46129539Y-104674356D02*
X45629539Y-104674356D01*
X45629539Y-104674356D02*
X45629539Y-104483880D01*
X45629539Y-104483880D02*
X45653349Y-104436261D01*
X45653349Y-104436261D02*
X45677158Y-104412451D01*
X45677158Y-104412451D02*
X45724777Y-104388642D01*
X45724777Y-104388642D02*
X45796206Y-104388642D01*
X45796206Y-104388642D02*
X45843825Y-104412451D01*
X45843825Y-104412451D02*
X45867634Y-104436261D01*
X45867634Y-104436261D02*
X45891444Y-104483880D01*
X45891444Y-104483880D02*
X45891444Y-104674356D01*
X46129539Y-103912451D02*
X46129539Y-104198165D01*
X46129539Y-104055308D02*
X45629539Y-104055308D01*
X45629539Y-104055308D02*
X45700968Y-104102927D01*
X45700968Y-104102927D02*
X45748587Y-104150546D01*
X45748587Y-104150546D02*
X45772396Y-104198165D01*
X46081920Y-103698166D02*
X46105730Y-103674356D01*
X46105730Y-103674356D02*
X46129539Y-103698166D01*
X46129539Y-103698166D02*
X46105730Y-103721975D01*
X46105730Y-103721975D02*
X46081920Y-103698166D01*
X46081920Y-103698166D02*
X46129539Y-103698166D01*
X45629539Y-103364833D02*
X45629539Y-103317214D01*
X45629539Y-103317214D02*
X45653349Y-103269595D01*
X45653349Y-103269595D02*
X45677158Y-103245785D01*
X45677158Y-103245785D02*
X45724777Y-103221976D01*
X45724777Y-103221976D02*
X45820015Y-103198166D01*
X45820015Y-103198166D02*
X45939063Y-103198166D01*
X45939063Y-103198166D02*
X46034301Y-103221976D01*
X46034301Y-103221976D02*
X46081920Y-103245785D01*
X46081920Y-103245785D02*
X46105730Y-103269595D01*
X46105730Y-103269595D02*
X46129539Y-103317214D01*
X46129539Y-103317214D02*
X46129539Y-103364833D01*
X46129539Y-103364833D02*
X46105730Y-103412452D01*
X46105730Y-103412452D02*
X46081920Y-103436261D01*
X46081920Y-103436261D02*
X46034301Y-103460071D01*
X46034301Y-103460071D02*
X45939063Y-103483880D01*
X45939063Y-103483880D02*
X45820015Y-103483880D01*
X45820015Y-103483880D02*
X45724777Y-103460071D01*
X45724777Y-103460071D02*
X45677158Y-103436261D01*
X45677158Y-103436261D02*
X45653349Y-103412452D01*
X45653349Y-103412452D02*
X45629539Y-103364833D01*
X45843825Y-102912452D02*
X45820015Y-102960071D01*
X45820015Y-102960071D02*
X45796206Y-102983881D01*
X45796206Y-102983881D02*
X45748587Y-103007690D01*
X45748587Y-103007690D02*
X45724777Y-103007690D01*
X45724777Y-103007690D02*
X45677158Y-102983881D01*
X45677158Y-102983881D02*
X45653349Y-102960071D01*
X45653349Y-102960071D02*
X45629539Y-102912452D01*
X45629539Y-102912452D02*
X45629539Y-102817214D01*
X45629539Y-102817214D02*
X45653349Y-102769595D01*
X45653349Y-102769595D02*
X45677158Y-102745786D01*
X45677158Y-102745786D02*
X45724777Y-102721976D01*
X45724777Y-102721976D02*
X45748587Y-102721976D01*
X45748587Y-102721976D02*
X45796206Y-102745786D01*
X45796206Y-102745786D02*
X45820015Y-102769595D01*
X45820015Y-102769595D02*
X45843825Y-102817214D01*
X45843825Y-102817214D02*
X45843825Y-102912452D01*
X45843825Y-102912452D02*
X45867634Y-102960071D01*
X45867634Y-102960071D02*
X45891444Y-102983881D01*
X45891444Y-102983881D02*
X45939063Y-103007690D01*
X45939063Y-103007690D02*
X46034301Y-103007690D01*
X46034301Y-103007690D02*
X46081920Y-102983881D01*
X46081920Y-102983881D02*
X46105730Y-102960071D01*
X46105730Y-102960071D02*
X46129539Y-102912452D01*
X46129539Y-102912452D02*
X46129539Y-102817214D01*
X46129539Y-102817214D02*
X46105730Y-102769595D01*
X46105730Y-102769595D02*
X46081920Y-102745786D01*
X46081920Y-102745786D02*
X46034301Y-102721976D01*
X46034301Y-102721976D02*
X45939063Y-102721976D01*
X45939063Y-102721976D02*
X45891444Y-102745786D01*
X45891444Y-102745786D02*
X45867634Y-102769595D01*
X45867634Y-102769595D02*
X45843825Y-102817214D01*
X54824652Y-104901435D02*
X54824652Y-104401435D01*
X54824652Y-104401435D02*
X55015128Y-104401435D01*
X55015128Y-104401435D02*
X55062747Y-104425245D01*
X55062747Y-104425245D02*
X55086557Y-104449054D01*
X55086557Y-104449054D02*
X55110366Y-104496673D01*
X55110366Y-104496673D02*
X55110366Y-104568102D01*
X55110366Y-104568102D02*
X55086557Y-104615721D01*
X55086557Y-104615721D02*
X55062747Y-104639530D01*
X55062747Y-104639530D02*
X55015128Y-104663340D01*
X55015128Y-104663340D02*
X54824652Y-104663340D01*
X55586557Y-104901435D02*
X55300843Y-104901435D01*
X55443700Y-104901435D02*
X55443700Y-104401435D01*
X55443700Y-104401435D02*
X55396081Y-104472864D01*
X55396081Y-104472864D02*
X55348462Y-104520483D01*
X55348462Y-104520483D02*
X55300843Y-104544292D01*
X55800842Y-104853816D02*
X55824652Y-104877626D01*
X55824652Y-104877626D02*
X55800842Y-104901435D01*
X55800842Y-104901435D02*
X55777033Y-104877626D01*
X55777033Y-104877626D02*
X55800842Y-104853816D01*
X55800842Y-104853816D02*
X55800842Y-104901435D01*
X56134175Y-104401435D02*
X56181794Y-104401435D01*
X56181794Y-104401435D02*
X56229413Y-104425245D01*
X56229413Y-104425245D02*
X56253223Y-104449054D01*
X56253223Y-104449054D02*
X56277032Y-104496673D01*
X56277032Y-104496673D02*
X56300842Y-104591911D01*
X56300842Y-104591911D02*
X56300842Y-104710959D01*
X56300842Y-104710959D02*
X56277032Y-104806197D01*
X56277032Y-104806197D02*
X56253223Y-104853816D01*
X56253223Y-104853816D02*
X56229413Y-104877626D01*
X56229413Y-104877626D02*
X56181794Y-104901435D01*
X56181794Y-104901435D02*
X56134175Y-104901435D01*
X56134175Y-104901435D02*
X56086556Y-104877626D01*
X56086556Y-104877626D02*
X56062747Y-104853816D01*
X56062747Y-104853816D02*
X56038937Y-104806197D01*
X56038937Y-104806197D02*
X56015128Y-104710959D01*
X56015128Y-104710959D02*
X56015128Y-104591911D01*
X56015128Y-104591911D02*
X56038937Y-104496673D01*
X56038937Y-104496673D02*
X56062747Y-104449054D01*
X56062747Y-104449054D02*
X56086556Y-104425245D01*
X56086556Y-104425245D02*
X56134175Y-104401435D01*
X56538937Y-104901435D02*
X56634175Y-104901435D01*
X56634175Y-104901435D02*
X56681794Y-104877626D01*
X56681794Y-104877626D02*
X56705603Y-104853816D01*
X56705603Y-104853816D02*
X56753222Y-104782387D01*
X56753222Y-104782387D02*
X56777032Y-104687149D01*
X56777032Y-104687149D02*
X56777032Y-104496673D01*
X56777032Y-104496673D02*
X56753222Y-104449054D01*
X56753222Y-104449054D02*
X56729413Y-104425245D01*
X56729413Y-104425245D02*
X56681794Y-104401435D01*
X56681794Y-104401435D02*
X56586556Y-104401435D01*
X56586556Y-104401435D02*
X56538937Y-104425245D01*
X56538937Y-104425245D02*
X56515127Y-104449054D01*
X56515127Y-104449054D02*
X56491318Y-104496673D01*
X56491318Y-104496673D02*
X56491318Y-104615721D01*
X56491318Y-104615721D02*
X56515127Y-104663340D01*
X56515127Y-104663340D02*
X56538937Y-104687149D01*
X56538937Y-104687149D02*
X56586556Y-104710959D01*
X56586556Y-104710959D02*
X56681794Y-104710959D01*
X56681794Y-104710959D02*
X56729413Y-104687149D01*
X56729413Y-104687149D02*
X56753222Y-104663340D01*
X56753222Y-104663340D02*
X56777032Y-104615721D01*
X54824652Y-99401905D02*
X54824652Y-98901905D01*
X54824652Y-98901905D02*
X55015128Y-98901905D01*
X55015128Y-98901905D02*
X55062747Y-98925715D01*
X55062747Y-98925715D02*
X55086557Y-98949524D01*
X55086557Y-98949524D02*
X55110366Y-98997143D01*
X55110366Y-98997143D02*
X55110366Y-99068572D01*
X55110366Y-99068572D02*
X55086557Y-99116191D01*
X55086557Y-99116191D02*
X55062747Y-99140000D01*
X55062747Y-99140000D02*
X55015128Y-99163810D01*
X55015128Y-99163810D02*
X54824652Y-99163810D01*
X55419890Y-98901905D02*
X55467509Y-98901905D01*
X55467509Y-98901905D02*
X55515128Y-98925715D01*
X55515128Y-98925715D02*
X55538938Y-98949524D01*
X55538938Y-98949524D02*
X55562747Y-98997143D01*
X55562747Y-98997143D02*
X55586557Y-99092381D01*
X55586557Y-99092381D02*
X55586557Y-99211429D01*
X55586557Y-99211429D02*
X55562747Y-99306667D01*
X55562747Y-99306667D02*
X55538938Y-99354286D01*
X55538938Y-99354286D02*
X55515128Y-99378096D01*
X55515128Y-99378096D02*
X55467509Y-99401905D01*
X55467509Y-99401905D02*
X55419890Y-99401905D01*
X55419890Y-99401905D02*
X55372271Y-99378096D01*
X55372271Y-99378096D02*
X55348462Y-99354286D01*
X55348462Y-99354286D02*
X55324652Y-99306667D01*
X55324652Y-99306667D02*
X55300843Y-99211429D01*
X55300843Y-99211429D02*
X55300843Y-99092381D01*
X55300843Y-99092381D02*
X55324652Y-98997143D01*
X55324652Y-98997143D02*
X55348462Y-98949524D01*
X55348462Y-98949524D02*
X55372271Y-98925715D01*
X55372271Y-98925715D02*
X55419890Y-98901905D01*
X55800842Y-99354286D02*
X55824652Y-99378096D01*
X55824652Y-99378096D02*
X55800842Y-99401905D01*
X55800842Y-99401905D02*
X55777033Y-99378096D01*
X55777033Y-99378096D02*
X55800842Y-99354286D01*
X55800842Y-99354286D02*
X55800842Y-99401905D01*
X56300842Y-99401905D02*
X56015128Y-99401905D01*
X56157985Y-99401905D02*
X56157985Y-98901905D01*
X56157985Y-98901905D02*
X56110366Y-98973334D01*
X56110366Y-98973334D02*
X56062747Y-99020953D01*
X56062747Y-99020953D02*
X56015128Y-99044762D01*
X56586556Y-99116191D02*
X56538937Y-99092381D01*
X56538937Y-99092381D02*
X56515127Y-99068572D01*
X56515127Y-99068572D02*
X56491318Y-99020953D01*
X56491318Y-99020953D02*
X56491318Y-98997143D01*
X56491318Y-98997143D02*
X56515127Y-98949524D01*
X56515127Y-98949524D02*
X56538937Y-98925715D01*
X56538937Y-98925715D02*
X56586556Y-98901905D01*
X56586556Y-98901905D02*
X56681794Y-98901905D01*
X56681794Y-98901905D02*
X56729413Y-98925715D01*
X56729413Y-98925715D02*
X56753222Y-98949524D01*
X56753222Y-98949524D02*
X56777032Y-98997143D01*
X56777032Y-98997143D02*
X56777032Y-99020953D01*
X56777032Y-99020953D02*
X56753222Y-99068572D01*
X56753222Y-99068572D02*
X56729413Y-99092381D01*
X56729413Y-99092381D02*
X56681794Y-99116191D01*
X56681794Y-99116191D02*
X56586556Y-99116191D01*
X56586556Y-99116191D02*
X56538937Y-99140000D01*
X56538937Y-99140000D02*
X56515127Y-99163810D01*
X56515127Y-99163810D02*
X56491318Y-99211429D01*
X56491318Y-99211429D02*
X56491318Y-99306667D01*
X56491318Y-99306667D02*
X56515127Y-99354286D01*
X56515127Y-99354286D02*
X56538937Y-99378096D01*
X56538937Y-99378096D02*
X56586556Y-99401905D01*
X56586556Y-99401905D02*
X56681794Y-99401905D01*
X56681794Y-99401905D02*
X56729413Y-99378096D01*
X56729413Y-99378096D02*
X56753222Y-99354286D01*
X56753222Y-99354286D02*
X56777032Y-99306667D01*
X56777032Y-99306667D02*
X56777032Y-99211429D01*
X56777032Y-99211429D02*
X56753222Y-99163810D01*
X56753222Y-99163810D02*
X56729413Y-99140000D01*
X56729413Y-99140000D02*
X56681794Y-99116191D01*
X57348460Y-98878096D02*
X56919889Y-99520953D01*
X57515127Y-99068572D02*
X57515127Y-99401905D01*
X57515127Y-99116191D02*
X57538937Y-99092381D01*
X57538937Y-99092381D02*
X57586556Y-99068572D01*
X57586556Y-99068572D02*
X57657984Y-99068572D01*
X57657984Y-99068572D02*
X57705603Y-99092381D01*
X57705603Y-99092381D02*
X57729413Y-99140000D01*
X57729413Y-99140000D02*
X57729413Y-99401905D01*
X58253222Y-99401905D02*
X58086556Y-99163810D01*
X57967508Y-99401905D02*
X57967508Y-98901905D01*
X57967508Y-98901905D02*
X58157984Y-98901905D01*
X58157984Y-98901905D02*
X58205603Y-98925715D01*
X58205603Y-98925715D02*
X58229413Y-98949524D01*
X58229413Y-98949524D02*
X58253222Y-98997143D01*
X58253222Y-98997143D02*
X58253222Y-99068572D01*
X58253222Y-99068572D02*
X58229413Y-99116191D01*
X58229413Y-99116191D02*
X58205603Y-99140000D01*
X58205603Y-99140000D02*
X58157984Y-99163810D01*
X58157984Y-99163810D02*
X57967508Y-99163810D01*
X58467508Y-99140000D02*
X58634175Y-99140000D01*
X58705603Y-99401905D02*
X58467508Y-99401905D01*
X58467508Y-99401905D02*
X58467508Y-98901905D01*
X58467508Y-98901905D02*
X58705603Y-98901905D01*
X58896080Y-99378096D02*
X58967508Y-99401905D01*
X58967508Y-99401905D02*
X59086556Y-99401905D01*
X59086556Y-99401905D02*
X59134175Y-99378096D01*
X59134175Y-99378096D02*
X59157984Y-99354286D01*
X59157984Y-99354286D02*
X59181794Y-99306667D01*
X59181794Y-99306667D02*
X59181794Y-99259048D01*
X59181794Y-99259048D02*
X59157984Y-99211429D01*
X59157984Y-99211429D02*
X59134175Y-99187619D01*
X59134175Y-99187619D02*
X59086556Y-99163810D01*
X59086556Y-99163810D02*
X58991318Y-99140000D01*
X58991318Y-99140000D02*
X58943699Y-99116191D01*
X58943699Y-99116191D02*
X58919889Y-99092381D01*
X58919889Y-99092381D02*
X58896080Y-99044762D01*
X58896080Y-99044762D02*
X58896080Y-98997143D01*
X58896080Y-98997143D02*
X58919889Y-98949524D01*
X58919889Y-98949524D02*
X58943699Y-98925715D01*
X58943699Y-98925715D02*
X58991318Y-98901905D01*
X58991318Y-98901905D02*
X59110365Y-98901905D01*
X59110365Y-98901905D02*
X59181794Y-98925715D01*
X59396079Y-99140000D02*
X59562746Y-99140000D01*
X59634174Y-99401905D02*
X59396079Y-99401905D01*
X59396079Y-99401905D02*
X59396079Y-98901905D01*
X59396079Y-98901905D02*
X59634174Y-98901905D01*
X59777032Y-98901905D02*
X60062746Y-98901905D01*
X59919889Y-99401905D02*
X59919889Y-98901905D01*
X41708306Y-93630029D02*
X41208306Y-93630029D01*
X41208306Y-93630029D02*
X41208306Y-93439553D01*
X41208306Y-93439553D02*
X41232116Y-93391934D01*
X41232116Y-93391934D02*
X41255925Y-93368124D01*
X41255925Y-93368124D02*
X41303544Y-93344315D01*
X41303544Y-93344315D02*
X41374973Y-93344315D01*
X41374973Y-93344315D02*
X41422592Y-93368124D01*
X41422592Y-93368124D02*
X41446401Y-93391934D01*
X41446401Y-93391934D02*
X41470211Y-93439553D01*
X41470211Y-93439553D02*
X41470211Y-93630029D01*
X41208306Y-93034791D02*
X41208306Y-92987172D01*
X41208306Y-92987172D02*
X41232116Y-92939553D01*
X41232116Y-92939553D02*
X41255925Y-92915743D01*
X41255925Y-92915743D02*
X41303544Y-92891934D01*
X41303544Y-92891934D02*
X41398782Y-92868124D01*
X41398782Y-92868124D02*
X41517830Y-92868124D01*
X41517830Y-92868124D02*
X41613068Y-92891934D01*
X41613068Y-92891934D02*
X41660687Y-92915743D01*
X41660687Y-92915743D02*
X41684497Y-92939553D01*
X41684497Y-92939553D02*
X41708306Y-92987172D01*
X41708306Y-92987172D02*
X41708306Y-93034791D01*
X41708306Y-93034791D02*
X41684497Y-93082410D01*
X41684497Y-93082410D02*
X41660687Y-93106219D01*
X41660687Y-93106219D02*
X41613068Y-93130029D01*
X41613068Y-93130029D02*
X41517830Y-93153838D01*
X41517830Y-93153838D02*
X41398782Y-93153838D01*
X41398782Y-93153838D02*
X41303544Y-93130029D01*
X41303544Y-93130029D02*
X41255925Y-93106219D01*
X41255925Y-93106219D02*
X41232116Y-93082410D01*
X41232116Y-93082410D02*
X41208306Y-93034791D01*
X41660687Y-92653839D02*
X41684497Y-92630029D01*
X41684497Y-92630029D02*
X41708306Y-92653839D01*
X41708306Y-92653839D02*
X41684497Y-92677648D01*
X41684497Y-92677648D02*
X41660687Y-92653839D01*
X41660687Y-92653839D02*
X41708306Y-92653839D01*
X41208306Y-92320506D02*
X41208306Y-92272887D01*
X41208306Y-92272887D02*
X41232116Y-92225268D01*
X41232116Y-92225268D02*
X41255925Y-92201458D01*
X41255925Y-92201458D02*
X41303544Y-92177649D01*
X41303544Y-92177649D02*
X41398782Y-92153839D01*
X41398782Y-92153839D02*
X41517830Y-92153839D01*
X41517830Y-92153839D02*
X41613068Y-92177649D01*
X41613068Y-92177649D02*
X41660687Y-92201458D01*
X41660687Y-92201458D02*
X41684497Y-92225268D01*
X41684497Y-92225268D02*
X41708306Y-92272887D01*
X41708306Y-92272887D02*
X41708306Y-92320506D01*
X41708306Y-92320506D02*
X41684497Y-92368125D01*
X41684497Y-92368125D02*
X41660687Y-92391934D01*
X41660687Y-92391934D02*
X41613068Y-92415744D01*
X41613068Y-92415744D02*
X41517830Y-92439553D01*
X41517830Y-92439553D02*
X41398782Y-92439553D01*
X41398782Y-92439553D02*
X41303544Y-92415744D01*
X41303544Y-92415744D02*
X41255925Y-92391934D01*
X41255925Y-92391934D02*
X41232116Y-92368125D01*
X41232116Y-92368125D02*
X41208306Y-92320506D01*
X41708306Y-91915744D02*
X41708306Y-91820506D01*
X41708306Y-91820506D02*
X41684497Y-91772887D01*
X41684497Y-91772887D02*
X41660687Y-91749078D01*
X41660687Y-91749078D02*
X41589258Y-91701459D01*
X41589258Y-91701459D02*
X41494020Y-91677649D01*
X41494020Y-91677649D02*
X41303544Y-91677649D01*
X41303544Y-91677649D02*
X41255925Y-91701459D01*
X41255925Y-91701459D02*
X41232116Y-91725268D01*
X41232116Y-91725268D02*
X41208306Y-91772887D01*
X41208306Y-91772887D02*
X41208306Y-91868125D01*
X41208306Y-91868125D02*
X41232116Y-91915744D01*
X41232116Y-91915744D02*
X41255925Y-91939554D01*
X41255925Y-91939554D02*
X41303544Y-91963363D01*
X41303544Y-91963363D02*
X41422592Y-91963363D01*
X41422592Y-91963363D02*
X41470211Y-91939554D01*
X41470211Y-91939554D02*
X41494020Y-91915744D01*
X41494020Y-91915744D02*
X41517830Y-91868125D01*
X41517830Y-91868125D02*
X41517830Y-91772887D01*
X41517830Y-91772887D02*
X41494020Y-91725268D01*
X41494020Y-91725268D02*
X41470211Y-91701459D01*
X41470211Y-91701459D02*
X41422592Y-91677649D01*
X54824652Y-103801529D02*
X54824652Y-103301529D01*
X54824652Y-103301529D02*
X55015128Y-103301529D01*
X55015128Y-103301529D02*
X55062747Y-103325339D01*
X55062747Y-103325339D02*
X55086557Y-103349148D01*
X55086557Y-103349148D02*
X55110366Y-103396767D01*
X55110366Y-103396767D02*
X55110366Y-103468196D01*
X55110366Y-103468196D02*
X55086557Y-103515815D01*
X55086557Y-103515815D02*
X55062747Y-103539624D01*
X55062747Y-103539624D02*
X55015128Y-103563434D01*
X55015128Y-103563434D02*
X54824652Y-103563434D01*
X55419890Y-103301529D02*
X55467509Y-103301529D01*
X55467509Y-103301529D02*
X55515128Y-103325339D01*
X55515128Y-103325339D02*
X55538938Y-103349148D01*
X55538938Y-103349148D02*
X55562747Y-103396767D01*
X55562747Y-103396767D02*
X55586557Y-103492005D01*
X55586557Y-103492005D02*
X55586557Y-103611053D01*
X55586557Y-103611053D02*
X55562747Y-103706291D01*
X55562747Y-103706291D02*
X55538938Y-103753910D01*
X55538938Y-103753910D02*
X55515128Y-103777720D01*
X55515128Y-103777720D02*
X55467509Y-103801529D01*
X55467509Y-103801529D02*
X55419890Y-103801529D01*
X55419890Y-103801529D02*
X55372271Y-103777720D01*
X55372271Y-103777720D02*
X55348462Y-103753910D01*
X55348462Y-103753910D02*
X55324652Y-103706291D01*
X55324652Y-103706291D02*
X55300843Y-103611053D01*
X55300843Y-103611053D02*
X55300843Y-103492005D01*
X55300843Y-103492005D02*
X55324652Y-103396767D01*
X55324652Y-103396767D02*
X55348462Y-103349148D01*
X55348462Y-103349148D02*
X55372271Y-103325339D01*
X55372271Y-103325339D02*
X55419890Y-103301529D01*
X55800842Y-103753910D02*
X55824652Y-103777720D01*
X55824652Y-103777720D02*
X55800842Y-103801529D01*
X55800842Y-103801529D02*
X55777033Y-103777720D01*
X55777033Y-103777720D02*
X55800842Y-103753910D01*
X55800842Y-103753910D02*
X55800842Y-103801529D01*
X56300842Y-103801529D02*
X56015128Y-103801529D01*
X56157985Y-103801529D02*
X56157985Y-103301529D01*
X56157985Y-103301529D02*
X56110366Y-103372958D01*
X56110366Y-103372958D02*
X56062747Y-103420577D01*
X56062747Y-103420577D02*
X56015128Y-103444386D01*
X56491318Y-103349148D02*
X56515127Y-103325339D01*
X56515127Y-103325339D02*
X56562746Y-103301529D01*
X56562746Y-103301529D02*
X56681794Y-103301529D01*
X56681794Y-103301529D02*
X56729413Y-103325339D01*
X56729413Y-103325339D02*
X56753222Y-103349148D01*
X56753222Y-103349148D02*
X56777032Y-103396767D01*
X56777032Y-103396767D02*
X56777032Y-103444386D01*
X56777032Y-103444386D02*
X56753222Y-103515815D01*
X56753222Y-103515815D02*
X56467508Y-103801529D01*
X56467508Y-103801529D02*
X56777032Y-103801529D01*
X42809721Y-93630029D02*
X42309721Y-93630029D01*
X42309721Y-93630029D02*
X42309721Y-93439553D01*
X42309721Y-93439553D02*
X42333531Y-93391934D01*
X42333531Y-93391934D02*
X42357340Y-93368124D01*
X42357340Y-93368124D02*
X42404959Y-93344315D01*
X42404959Y-93344315D02*
X42476388Y-93344315D01*
X42476388Y-93344315D02*
X42524007Y-93368124D01*
X42524007Y-93368124D02*
X42547816Y-93391934D01*
X42547816Y-93391934D02*
X42571626Y-93439553D01*
X42571626Y-93439553D02*
X42571626Y-93630029D01*
X42809721Y-92868124D02*
X42809721Y-93153838D01*
X42809721Y-93010981D02*
X42309721Y-93010981D01*
X42309721Y-93010981D02*
X42381150Y-93058600D01*
X42381150Y-93058600D02*
X42428769Y-93106219D01*
X42428769Y-93106219D02*
X42452578Y-93153838D01*
X42762102Y-92653839D02*
X42785912Y-92630029D01*
X42785912Y-92630029D02*
X42809721Y-92653839D01*
X42809721Y-92653839D02*
X42785912Y-92677648D01*
X42785912Y-92677648D02*
X42762102Y-92653839D01*
X42762102Y-92653839D02*
X42809721Y-92653839D01*
X42309721Y-92320506D02*
X42309721Y-92272887D01*
X42309721Y-92272887D02*
X42333531Y-92225268D01*
X42333531Y-92225268D02*
X42357340Y-92201458D01*
X42357340Y-92201458D02*
X42404959Y-92177649D01*
X42404959Y-92177649D02*
X42500197Y-92153839D01*
X42500197Y-92153839D02*
X42619245Y-92153839D01*
X42619245Y-92153839D02*
X42714483Y-92177649D01*
X42714483Y-92177649D02*
X42762102Y-92201458D01*
X42762102Y-92201458D02*
X42785912Y-92225268D01*
X42785912Y-92225268D02*
X42809721Y-92272887D01*
X42809721Y-92272887D02*
X42809721Y-92320506D01*
X42809721Y-92320506D02*
X42785912Y-92368125D01*
X42785912Y-92368125D02*
X42762102Y-92391934D01*
X42762102Y-92391934D02*
X42714483Y-92415744D01*
X42714483Y-92415744D02*
X42619245Y-92439553D01*
X42619245Y-92439553D02*
X42500197Y-92439553D01*
X42500197Y-92439553D02*
X42404959Y-92415744D01*
X42404959Y-92415744D02*
X42357340Y-92391934D01*
X42357340Y-92391934D02*
X42333531Y-92368125D01*
X42333531Y-92368125D02*
X42309721Y-92320506D01*
X42309721Y-91725268D02*
X42309721Y-91820506D01*
X42309721Y-91820506D02*
X42333531Y-91868125D01*
X42333531Y-91868125D02*
X42357340Y-91891935D01*
X42357340Y-91891935D02*
X42428769Y-91939554D01*
X42428769Y-91939554D02*
X42524007Y-91963363D01*
X42524007Y-91963363D02*
X42714483Y-91963363D01*
X42714483Y-91963363D02*
X42762102Y-91939554D01*
X42762102Y-91939554D02*
X42785912Y-91915744D01*
X42785912Y-91915744D02*
X42809721Y-91868125D01*
X42809721Y-91868125D02*
X42809721Y-91772887D01*
X42809721Y-91772887D02*
X42785912Y-91725268D01*
X42785912Y-91725268D02*
X42762102Y-91701459D01*
X42762102Y-91701459D02*
X42714483Y-91677649D01*
X42714483Y-91677649D02*
X42595435Y-91677649D01*
X42595435Y-91677649D02*
X42547816Y-91701459D01*
X42547816Y-91701459D02*
X42524007Y-91725268D01*
X42524007Y-91725268D02*
X42500197Y-91772887D01*
X42500197Y-91772887D02*
X42500197Y-91868125D01*
X42500197Y-91868125D02*
X42524007Y-91915744D01*
X42524007Y-91915744D02*
X42547816Y-91939554D01*
X42547816Y-91939554D02*
X42595435Y-91963363D01*
X51621041Y-93630029D02*
X51121041Y-93630029D01*
X51121041Y-93630029D02*
X51121041Y-93439553D01*
X51121041Y-93439553D02*
X51144851Y-93391934D01*
X51144851Y-93391934D02*
X51168660Y-93368124D01*
X51168660Y-93368124D02*
X51216279Y-93344315D01*
X51216279Y-93344315D02*
X51287708Y-93344315D01*
X51287708Y-93344315D02*
X51335327Y-93368124D01*
X51335327Y-93368124D02*
X51359136Y-93391934D01*
X51359136Y-93391934D02*
X51382946Y-93439553D01*
X51382946Y-93439553D02*
X51382946Y-93630029D01*
X51121041Y-93034791D02*
X51121041Y-92987172D01*
X51121041Y-92987172D02*
X51144851Y-92939553D01*
X51144851Y-92939553D02*
X51168660Y-92915743D01*
X51168660Y-92915743D02*
X51216279Y-92891934D01*
X51216279Y-92891934D02*
X51311517Y-92868124D01*
X51311517Y-92868124D02*
X51430565Y-92868124D01*
X51430565Y-92868124D02*
X51525803Y-92891934D01*
X51525803Y-92891934D02*
X51573422Y-92915743D01*
X51573422Y-92915743D02*
X51597232Y-92939553D01*
X51597232Y-92939553D02*
X51621041Y-92987172D01*
X51621041Y-92987172D02*
X51621041Y-93034791D01*
X51621041Y-93034791D02*
X51597232Y-93082410D01*
X51597232Y-93082410D02*
X51573422Y-93106219D01*
X51573422Y-93106219D02*
X51525803Y-93130029D01*
X51525803Y-93130029D02*
X51430565Y-93153838D01*
X51430565Y-93153838D02*
X51311517Y-93153838D01*
X51311517Y-93153838D02*
X51216279Y-93130029D01*
X51216279Y-93130029D02*
X51168660Y-93106219D01*
X51168660Y-93106219D02*
X51144851Y-93082410D01*
X51144851Y-93082410D02*
X51121041Y-93034791D01*
X51573422Y-92653839D02*
X51597232Y-92630029D01*
X51597232Y-92630029D02*
X51621041Y-92653839D01*
X51621041Y-92653839D02*
X51597232Y-92677648D01*
X51597232Y-92677648D02*
X51573422Y-92653839D01*
X51573422Y-92653839D02*
X51621041Y-92653839D01*
X51168660Y-92439553D02*
X51144851Y-92415744D01*
X51144851Y-92415744D02*
X51121041Y-92368125D01*
X51121041Y-92368125D02*
X51121041Y-92249077D01*
X51121041Y-92249077D02*
X51144851Y-92201458D01*
X51144851Y-92201458D02*
X51168660Y-92177649D01*
X51168660Y-92177649D02*
X51216279Y-92153839D01*
X51216279Y-92153839D02*
X51263898Y-92153839D01*
X51263898Y-92153839D02*
X51335327Y-92177649D01*
X51335327Y-92177649D02*
X51621041Y-92463363D01*
X51621041Y-92463363D02*
X51621041Y-92153839D01*
X51168660Y-91963363D02*
X51144851Y-91939554D01*
X51144851Y-91939554D02*
X51121041Y-91891935D01*
X51121041Y-91891935D02*
X51121041Y-91772887D01*
X51121041Y-91772887D02*
X51144851Y-91725268D01*
X51144851Y-91725268D02*
X51168660Y-91701459D01*
X51168660Y-91701459D02*
X51216279Y-91677649D01*
X51216279Y-91677649D02*
X51263898Y-91677649D01*
X51263898Y-91677649D02*
X51335327Y-91701459D01*
X51335327Y-91701459D02*
X51621041Y-91987173D01*
X51621041Y-91987173D02*
X51621041Y-91677649D01*
X40606891Y-93630029D02*
X40106891Y-93630029D01*
X40106891Y-93630029D02*
X40106891Y-93439553D01*
X40106891Y-93439553D02*
X40130701Y-93391934D01*
X40130701Y-93391934D02*
X40154510Y-93368124D01*
X40154510Y-93368124D02*
X40202129Y-93344315D01*
X40202129Y-93344315D02*
X40273558Y-93344315D01*
X40273558Y-93344315D02*
X40321177Y-93368124D01*
X40321177Y-93368124D02*
X40344986Y-93391934D01*
X40344986Y-93391934D02*
X40368796Y-93439553D01*
X40368796Y-93439553D02*
X40368796Y-93630029D01*
X40106891Y-93034791D02*
X40106891Y-92987172D01*
X40106891Y-92987172D02*
X40130701Y-92939553D01*
X40130701Y-92939553D02*
X40154510Y-92915743D01*
X40154510Y-92915743D02*
X40202129Y-92891934D01*
X40202129Y-92891934D02*
X40297367Y-92868124D01*
X40297367Y-92868124D02*
X40416415Y-92868124D01*
X40416415Y-92868124D02*
X40511653Y-92891934D01*
X40511653Y-92891934D02*
X40559272Y-92915743D01*
X40559272Y-92915743D02*
X40583082Y-92939553D01*
X40583082Y-92939553D02*
X40606891Y-92987172D01*
X40606891Y-92987172D02*
X40606891Y-93034791D01*
X40606891Y-93034791D02*
X40583082Y-93082410D01*
X40583082Y-93082410D02*
X40559272Y-93106219D01*
X40559272Y-93106219D02*
X40511653Y-93130029D01*
X40511653Y-93130029D02*
X40416415Y-93153838D01*
X40416415Y-93153838D02*
X40297367Y-93153838D01*
X40297367Y-93153838D02*
X40202129Y-93130029D01*
X40202129Y-93130029D02*
X40154510Y-93106219D01*
X40154510Y-93106219D02*
X40130701Y-93082410D01*
X40130701Y-93082410D02*
X40106891Y-93034791D01*
X40559272Y-92653839D02*
X40583082Y-92630029D01*
X40583082Y-92630029D02*
X40606891Y-92653839D01*
X40606891Y-92653839D02*
X40583082Y-92677648D01*
X40583082Y-92677648D02*
X40559272Y-92653839D01*
X40559272Y-92653839D02*
X40606891Y-92653839D01*
X40606891Y-92153839D02*
X40606891Y-92439553D01*
X40606891Y-92296696D02*
X40106891Y-92296696D01*
X40106891Y-92296696D02*
X40178320Y-92344315D01*
X40178320Y-92344315D02*
X40225939Y-92391934D01*
X40225939Y-92391934D02*
X40249748Y-92439553D01*
X40106891Y-91844316D02*
X40106891Y-91796697D01*
X40106891Y-91796697D02*
X40130701Y-91749078D01*
X40130701Y-91749078D02*
X40154510Y-91725268D01*
X40154510Y-91725268D02*
X40202129Y-91701459D01*
X40202129Y-91701459D02*
X40297367Y-91677649D01*
X40297367Y-91677649D02*
X40416415Y-91677649D01*
X40416415Y-91677649D02*
X40511653Y-91701459D01*
X40511653Y-91701459D02*
X40559272Y-91725268D01*
X40559272Y-91725268D02*
X40583082Y-91749078D01*
X40583082Y-91749078D02*
X40606891Y-91796697D01*
X40606891Y-91796697D02*
X40606891Y-91844316D01*
X40606891Y-91844316D02*
X40583082Y-91891935D01*
X40583082Y-91891935D02*
X40559272Y-91915744D01*
X40559272Y-91915744D02*
X40511653Y-91939554D01*
X40511653Y-91939554D02*
X40416415Y-91963363D01*
X40416415Y-91963363D02*
X40297367Y-91963363D01*
X40297367Y-91963363D02*
X40202129Y-91939554D01*
X40202129Y-91939554D02*
X40154510Y-91915744D01*
X40154510Y-91915744D02*
X40130701Y-91891935D01*
X40130701Y-91891935D02*
X40106891Y-91844316D01*
X47223289Y-99994599D02*
X46723289Y-99994599D01*
X46723289Y-99994599D02*
X46723289Y-99804123D01*
X46723289Y-99804123D02*
X46747099Y-99756504D01*
X46747099Y-99756504D02*
X46770908Y-99732694D01*
X46770908Y-99732694D02*
X46818527Y-99708885D01*
X46818527Y-99708885D02*
X46889956Y-99708885D01*
X46889956Y-99708885D02*
X46937575Y-99732694D01*
X46937575Y-99732694D02*
X46961384Y-99756504D01*
X46961384Y-99756504D02*
X46985194Y-99804123D01*
X46985194Y-99804123D02*
X46985194Y-99994599D01*
X46723289Y-99399361D02*
X46723289Y-99351742D01*
X46723289Y-99351742D02*
X46747099Y-99304123D01*
X46747099Y-99304123D02*
X46770908Y-99280313D01*
X46770908Y-99280313D02*
X46818527Y-99256504D01*
X46818527Y-99256504D02*
X46913765Y-99232694D01*
X46913765Y-99232694D02*
X47032813Y-99232694D01*
X47032813Y-99232694D02*
X47128051Y-99256504D01*
X47128051Y-99256504D02*
X47175670Y-99280313D01*
X47175670Y-99280313D02*
X47199480Y-99304123D01*
X47199480Y-99304123D02*
X47223289Y-99351742D01*
X47223289Y-99351742D02*
X47223289Y-99399361D01*
X47223289Y-99399361D02*
X47199480Y-99446980D01*
X47199480Y-99446980D02*
X47175670Y-99470789D01*
X47175670Y-99470789D02*
X47128051Y-99494599D01*
X47128051Y-99494599D02*
X47032813Y-99518408D01*
X47032813Y-99518408D02*
X46913765Y-99518408D01*
X46913765Y-99518408D02*
X46818527Y-99494599D01*
X46818527Y-99494599D02*
X46770908Y-99470789D01*
X46770908Y-99470789D02*
X46747099Y-99446980D01*
X46747099Y-99446980D02*
X46723289Y-99399361D01*
X47175670Y-99018409D02*
X47199480Y-98994599D01*
X47199480Y-98994599D02*
X47223289Y-99018409D01*
X47223289Y-99018409D02*
X47199480Y-99042218D01*
X47199480Y-99042218D02*
X47175670Y-99018409D01*
X47175670Y-99018409D02*
X47223289Y-99018409D01*
X47223289Y-98518409D02*
X47223289Y-98804123D01*
X47223289Y-98661266D02*
X46723289Y-98661266D01*
X46723289Y-98661266D02*
X46794718Y-98708885D01*
X46794718Y-98708885D02*
X46842337Y-98756504D01*
X46842337Y-98756504D02*
X46866146Y-98804123D01*
X46723289Y-98066029D02*
X46723289Y-98304124D01*
X46723289Y-98304124D02*
X46961384Y-98327933D01*
X46961384Y-98327933D02*
X46937575Y-98304124D01*
X46937575Y-98304124D02*
X46913765Y-98256505D01*
X46913765Y-98256505D02*
X46913765Y-98137457D01*
X46913765Y-98137457D02*
X46937575Y-98089838D01*
X46937575Y-98089838D02*
X46961384Y-98066029D01*
X46961384Y-98066029D02*
X47009003Y-98042219D01*
X47009003Y-98042219D02*
X47128051Y-98042219D01*
X47128051Y-98042219D02*
X47175670Y-98066029D01*
X47175670Y-98066029D02*
X47199480Y-98089838D01*
X47199480Y-98089838D02*
X47223289Y-98137457D01*
X47223289Y-98137457D02*
X47223289Y-98256505D01*
X47223289Y-98256505D02*
X47199480Y-98304124D01*
X47199480Y-98304124D02*
X47175670Y-98327933D01*
X49410789Y-99994599D02*
X48910789Y-99994599D01*
X48910789Y-99994599D02*
X48910789Y-99804123D01*
X48910789Y-99804123D02*
X48934599Y-99756504D01*
X48934599Y-99756504D02*
X48958408Y-99732694D01*
X48958408Y-99732694D02*
X49006027Y-99708885D01*
X49006027Y-99708885D02*
X49077456Y-99708885D01*
X49077456Y-99708885D02*
X49125075Y-99732694D01*
X49125075Y-99732694D02*
X49148884Y-99756504D01*
X49148884Y-99756504D02*
X49172694Y-99804123D01*
X49172694Y-99804123D02*
X49172694Y-99994599D01*
X48910789Y-99399361D02*
X48910789Y-99351742D01*
X48910789Y-99351742D02*
X48934599Y-99304123D01*
X48934599Y-99304123D02*
X48958408Y-99280313D01*
X48958408Y-99280313D02*
X49006027Y-99256504D01*
X49006027Y-99256504D02*
X49101265Y-99232694D01*
X49101265Y-99232694D02*
X49220313Y-99232694D01*
X49220313Y-99232694D02*
X49315551Y-99256504D01*
X49315551Y-99256504D02*
X49363170Y-99280313D01*
X49363170Y-99280313D02*
X49386980Y-99304123D01*
X49386980Y-99304123D02*
X49410789Y-99351742D01*
X49410789Y-99351742D02*
X49410789Y-99399361D01*
X49410789Y-99399361D02*
X49386980Y-99446980D01*
X49386980Y-99446980D02*
X49363170Y-99470789D01*
X49363170Y-99470789D02*
X49315551Y-99494599D01*
X49315551Y-99494599D02*
X49220313Y-99518408D01*
X49220313Y-99518408D02*
X49101265Y-99518408D01*
X49101265Y-99518408D02*
X49006027Y-99494599D01*
X49006027Y-99494599D02*
X48958408Y-99470789D01*
X48958408Y-99470789D02*
X48934599Y-99446980D01*
X48934599Y-99446980D02*
X48910789Y-99399361D01*
X49363170Y-99018409D02*
X49386980Y-98994599D01*
X49386980Y-98994599D02*
X49410789Y-99018409D01*
X49410789Y-99018409D02*
X49386980Y-99042218D01*
X49386980Y-99042218D02*
X49363170Y-99018409D01*
X49363170Y-99018409D02*
X49410789Y-99018409D01*
X49410789Y-98518409D02*
X49410789Y-98804123D01*
X49410789Y-98661266D02*
X48910789Y-98661266D01*
X48910789Y-98661266D02*
X48982218Y-98708885D01*
X48982218Y-98708885D02*
X49029837Y-98756504D01*
X49029837Y-98756504D02*
X49053646Y-98804123D01*
X48910789Y-98351743D02*
X48910789Y-98042219D01*
X48910789Y-98042219D02*
X49101265Y-98208886D01*
X49101265Y-98208886D02*
X49101265Y-98137457D01*
X49101265Y-98137457D02*
X49125075Y-98089838D01*
X49125075Y-98089838D02*
X49148884Y-98066029D01*
X49148884Y-98066029D02*
X49196503Y-98042219D01*
X49196503Y-98042219D02*
X49315551Y-98042219D01*
X49315551Y-98042219D02*
X49363170Y-98066029D01*
X49363170Y-98066029D02*
X49386980Y-98089838D01*
X49386980Y-98089838D02*
X49410789Y-98137457D01*
X49410789Y-98137457D02*
X49410789Y-98280314D01*
X49410789Y-98280314D02*
X49386980Y-98327933D01*
X49386980Y-98327933D02*
X49363170Y-98351743D01*
X46100964Y-110936904D02*
X45600964Y-110936904D01*
X45600964Y-110936904D02*
X45600964Y-110746428D01*
X45600964Y-110746428D02*
X45624774Y-110698809D01*
X45624774Y-110698809D02*
X45648583Y-110674999D01*
X45648583Y-110674999D02*
X45696202Y-110651190D01*
X45696202Y-110651190D02*
X45767631Y-110651190D01*
X45767631Y-110651190D02*
X45815250Y-110674999D01*
X45815250Y-110674999D02*
X45839059Y-110698809D01*
X45839059Y-110698809D02*
X45862869Y-110746428D01*
X45862869Y-110746428D02*
X45862869Y-110936904D01*
X45600964Y-110341666D02*
X45600964Y-110294047D01*
X45600964Y-110294047D02*
X45624774Y-110246428D01*
X45624774Y-110246428D02*
X45648583Y-110222618D01*
X45648583Y-110222618D02*
X45696202Y-110198809D01*
X45696202Y-110198809D02*
X45791440Y-110174999D01*
X45791440Y-110174999D02*
X45910488Y-110174999D01*
X45910488Y-110174999D02*
X46005726Y-110198809D01*
X46005726Y-110198809D02*
X46053345Y-110222618D01*
X46053345Y-110222618D02*
X46077155Y-110246428D01*
X46077155Y-110246428D02*
X46100964Y-110294047D01*
X46100964Y-110294047D02*
X46100964Y-110341666D01*
X46100964Y-110341666D02*
X46077155Y-110389285D01*
X46077155Y-110389285D02*
X46053345Y-110413094D01*
X46053345Y-110413094D02*
X46005726Y-110436904D01*
X46005726Y-110436904D02*
X45910488Y-110460713D01*
X45910488Y-110460713D02*
X45791440Y-110460713D01*
X45791440Y-110460713D02*
X45696202Y-110436904D01*
X45696202Y-110436904D02*
X45648583Y-110413094D01*
X45648583Y-110413094D02*
X45624774Y-110389285D01*
X45624774Y-110389285D02*
X45600964Y-110341666D01*
X46053345Y-109960714D02*
X46077155Y-109936904D01*
X46077155Y-109936904D02*
X46100964Y-109960714D01*
X46100964Y-109960714D02*
X46077155Y-109984523D01*
X46077155Y-109984523D02*
X46053345Y-109960714D01*
X46053345Y-109960714D02*
X46100964Y-109960714D01*
X45600964Y-109627381D02*
X45600964Y-109579762D01*
X45600964Y-109579762D02*
X45624774Y-109532143D01*
X45624774Y-109532143D02*
X45648583Y-109508333D01*
X45648583Y-109508333D02*
X45696202Y-109484524D01*
X45696202Y-109484524D02*
X45791440Y-109460714D01*
X45791440Y-109460714D02*
X45910488Y-109460714D01*
X45910488Y-109460714D02*
X46005726Y-109484524D01*
X46005726Y-109484524D02*
X46053345Y-109508333D01*
X46053345Y-109508333D02*
X46077155Y-109532143D01*
X46077155Y-109532143D02*
X46100964Y-109579762D01*
X46100964Y-109579762D02*
X46100964Y-109627381D01*
X46100964Y-109627381D02*
X46077155Y-109675000D01*
X46077155Y-109675000D02*
X46053345Y-109698809D01*
X46053345Y-109698809D02*
X46005726Y-109722619D01*
X46005726Y-109722619D02*
X45910488Y-109746428D01*
X45910488Y-109746428D02*
X45791440Y-109746428D01*
X45791440Y-109746428D02*
X45696202Y-109722619D01*
X45696202Y-109722619D02*
X45648583Y-109698809D01*
X45648583Y-109698809D02*
X45624774Y-109675000D01*
X45624774Y-109675000D02*
X45600964Y-109627381D01*
X45648583Y-109270238D02*
X45624774Y-109246429D01*
X45624774Y-109246429D02*
X45600964Y-109198810D01*
X45600964Y-109198810D02*
X45600964Y-109079762D01*
X45600964Y-109079762D02*
X45624774Y-109032143D01*
X45624774Y-109032143D02*
X45648583Y-109008334D01*
X45648583Y-109008334D02*
X45696202Y-108984524D01*
X45696202Y-108984524D02*
X45743821Y-108984524D01*
X45743821Y-108984524D02*
X45815250Y-109008334D01*
X45815250Y-109008334D02*
X46100964Y-109294048D01*
X46100964Y-109294048D02*
X46100964Y-108984524D01*
X54824652Y-100501811D02*
X54824652Y-100001811D01*
X54824652Y-100001811D02*
X55015128Y-100001811D01*
X55015128Y-100001811D02*
X55062747Y-100025621D01*
X55062747Y-100025621D02*
X55086557Y-100049430D01*
X55086557Y-100049430D02*
X55110366Y-100097049D01*
X55110366Y-100097049D02*
X55110366Y-100168478D01*
X55110366Y-100168478D02*
X55086557Y-100216097D01*
X55086557Y-100216097D02*
X55062747Y-100239906D01*
X55062747Y-100239906D02*
X55015128Y-100263716D01*
X55015128Y-100263716D02*
X54824652Y-100263716D01*
X55419890Y-100001811D02*
X55467509Y-100001811D01*
X55467509Y-100001811D02*
X55515128Y-100025621D01*
X55515128Y-100025621D02*
X55538938Y-100049430D01*
X55538938Y-100049430D02*
X55562747Y-100097049D01*
X55562747Y-100097049D02*
X55586557Y-100192287D01*
X55586557Y-100192287D02*
X55586557Y-100311335D01*
X55586557Y-100311335D02*
X55562747Y-100406573D01*
X55562747Y-100406573D02*
X55538938Y-100454192D01*
X55538938Y-100454192D02*
X55515128Y-100478002D01*
X55515128Y-100478002D02*
X55467509Y-100501811D01*
X55467509Y-100501811D02*
X55419890Y-100501811D01*
X55419890Y-100501811D02*
X55372271Y-100478002D01*
X55372271Y-100478002D02*
X55348462Y-100454192D01*
X55348462Y-100454192D02*
X55324652Y-100406573D01*
X55324652Y-100406573D02*
X55300843Y-100311335D01*
X55300843Y-100311335D02*
X55300843Y-100192287D01*
X55300843Y-100192287D02*
X55324652Y-100097049D01*
X55324652Y-100097049D02*
X55348462Y-100049430D01*
X55348462Y-100049430D02*
X55372271Y-100025621D01*
X55372271Y-100025621D02*
X55419890Y-100001811D01*
X55800842Y-100454192D02*
X55824652Y-100478002D01*
X55824652Y-100478002D02*
X55800842Y-100501811D01*
X55800842Y-100501811D02*
X55777033Y-100478002D01*
X55777033Y-100478002D02*
X55800842Y-100454192D01*
X55800842Y-100454192D02*
X55800842Y-100501811D01*
X56300842Y-100501811D02*
X56015128Y-100501811D01*
X56157985Y-100501811D02*
X56157985Y-100001811D01*
X56157985Y-100001811D02*
X56110366Y-100073240D01*
X56110366Y-100073240D02*
X56062747Y-100120859D01*
X56062747Y-100120859D02*
X56015128Y-100144668D01*
X56538937Y-100501811D02*
X56634175Y-100501811D01*
X56634175Y-100501811D02*
X56681794Y-100478002D01*
X56681794Y-100478002D02*
X56705603Y-100454192D01*
X56705603Y-100454192D02*
X56753222Y-100382763D01*
X56753222Y-100382763D02*
X56777032Y-100287525D01*
X56777032Y-100287525D02*
X56777032Y-100097049D01*
X56777032Y-100097049D02*
X56753222Y-100049430D01*
X56753222Y-100049430D02*
X56729413Y-100025621D01*
X56729413Y-100025621D02*
X56681794Y-100001811D01*
X56681794Y-100001811D02*
X56586556Y-100001811D01*
X56586556Y-100001811D02*
X56538937Y-100025621D01*
X56538937Y-100025621D02*
X56515127Y-100049430D01*
X56515127Y-100049430D02*
X56491318Y-100097049D01*
X56491318Y-100097049D02*
X56491318Y-100216097D01*
X56491318Y-100216097D02*
X56515127Y-100263716D01*
X56515127Y-100263716D02*
X56538937Y-100287525D01*
X56538937Y-100287525D02*
X56586556Y-100311335D01*
X56586556Y-100311335D02*
X56681794Y-100311335D01*
X56681794Y-100311335D02*
X56729413Y-100287525D01*
X56729413Y-100287525D02*
X56753222Y-100263716D01*
X56753222Y-100263716D02*
X56777032Y-100216097D01*
X50519626Y-93630029D02*
X50019626Y-93630029D01*
X50019626Y-93630029D02*
X50019626Y-93439553D01*
X50019626Y-93439553D02*
X50043436Y-93391934D01*
X50043436Y-93391934D02*
X50067245Y-93368124D01*
X50067245Y-93368124D02*
X50114864Y-93344315D01*
X50114864Y-93344315D02*
X50186293Y-93344315D01*
X50186293Y-93344315D02*
X50233912Y-93368124D01*
X50233912Y-93368124D02*
X50257721Y-93391934D01*
X50257721Y-93391934D02*
X50281531Y-93439553D01*
X50281531Y-93439553D02*
X50281531Y-93630029D01*
X50519626Y-92868124D02*
X50519626Y-93153838D01*
X50519626Y-93010981D02*
X50019626Y-93010981D01*
X50019626Y-93010981D02*
X50091055Y-93058600D01*
X50091055Y-93058600D02*
X50138674Y-93106219D01*
X50138674Y-93106219D02*
X50162483Y-93153838D01*
X50472007Y-92653839D02*
X50495817Y-92630029D01*
X50495817Y-92630029D02*
X50519626Y-92653839D01*
X50519626Y-92653839D02*
X50495817Y-92677648D01*
X50495817Y-92677648D02*
X50472007Y-92653839D01*
X50472007Y-92653839D02*
X50519626Y-92653839D01*
X50019626Y-92320506D02*
X50019626Y-92272887D01*
X50019626Y-92272887D02*
X50043436Y-92225268D01*
X50043436Y-92225268D02*
X50067245Y-92201458D01*
X50067245Y-92201458D02*
X50114864Y-92177649D01*
X50114864Y-92177649D02*
X50210102Y-92153839D01*
X50210102Y-92153839D02*
X50329150Y-92153839D01*
X50329150Y-92153839D02*
X50424388Y-92177649D01*
X50424388Y-92177649D02*
X50472007Y-92201458D01*
X50472007Y-92201458D02*
X50495817Y-92225268D01*
X50495817Y-92225268D02*
X50519626Y-92272887D01*
X50519626Y-92272887D02*
X50519626Y-92320506D01*
X50519626Y-92320506D02*
X50495817Y-92368125D01*
X50495817Y-92368125D02*
X50472007Y-92391934D01*
X50472007Y-92391934D02*
X50424388Y-92415744D01*
X50424388Y-92415744D02*
X50329150Y-92439553D01*
X50329150Y-92439553D02*
X50210102Y-92439553D01*
X50210102Y-92439553D02*
X50114864Y-92415744D01*
X50114864Y-92415744D02*
X50067245Y-92391934D01*
X50067245Y-92391934D02*
X50043436Y-92368125D01*
X50043436Y-92368125D02*
X50019626Y-92320506D01*
X50019626Y-91844316D02*
X50019626Y-91796697D01*
X50019626Y-91796697D02*
X50043436Y-91749078D01*
X50043436Y-91749078D02*
X50067245Y-91725268D01*
X50067245Y-91725268D02*
X50114864Y-91701459D01*
X50114864Y-91701459D02*
X50210102Y-91677649D01*
X50210102Y-91677649D02*
X50329150Y-91677649D01*
X50329150Y-91677649D02*
X50424388Y-91701459D01*
X50424388Y-91701459D02*
X50472007Y-91725268D01*
X50472007Y-91725268D02*
X50495817Y-91749078D01*
X50495817Y-91749078D02*
X50519626Y-91796697D01*
X50519626Y-91796697D02*
X50519626Y-91844316D01*
X50519626Y-91844316D02*
X50495817Y-91891935D01*
X50495817Y-91891935D02*
X50472007Y-91915744D01*
X50472007Y-91915744D02*
X50424388Y-91939554D01*
X50424388Y-91939554D02*
X50329150Y-91963363D01*
X50329150Y-91963363D02*
X50210102Y-91963363D01*
X50210102Y-91963363D02*
X50114864Y-91939554D01*
X50114864Y-91939554D02*
X50067245Y-91915744D01*
X50067245Y-91915744D02*
X50043436Y-91891935D01*
X50043436Y-91891935D02*
X50019626Y-91844316D01*
X41754539Y-99994599D02*
X41254539Y-99994599D01*
X41254539Y-99994599D02*
X41254539Y-99804123D01*
X41254539Y-99804123D02*
X41278349Y-99756504D01*
X41278349Y-99756504D02*
X41302158Y-99732694D01*
X41302158Y-99732694D02*
X41349777Y-99708885D01*
X41349777Y-99708885D02*
X41421206Y-99708885D01*
X41421206Y-99708885D02*
X41468825Y-99732694D01*
X41468825Y-99732694D02*
X41492634Y-99756504D01*
X41492634Y-99756504D02*
X41516444Y-99804123D01*
X41516444Y-99804123D02*
X41516444Y-99994599D01*
X41754539Y-99232694D02*
X41754539Y-99518408D01*
X41754539Y-99375551D02*
X41254539Y-99375551D01*
X41254539Y-99375551D02*
X41325968Y-99423170D01*
X41325968Y-99423170D02*
X41373587Y-99470789D01*
X41373587Y-99470789D02*
X41397396Y-99518408D01*
X41706920Y-99018409D02*
X41730730Y-98994599D01*
X41730730Y-98994599D02*
X41754539Y-99018409D01*
X41754539Y-99018409D02*
X41730730Y-99042218D01*
X41730730Y-99042218D02*
X41706920Y-99018409D01*
X41706920Y-99018409D02*
X41754539Y-99018409D01*
X41254539Y-98685076D02*
X41254539Y-98637457D01*
X41254539Y-98637457D02*
X41278349Y-98589838D01*
X41278349Y-98589838D02*
X41302158Y-98566028D01*
X41302158Y-98566028D02*
X41349777Y-98542219D01*
X41349777Y-98542219D02*
X41445015Y-98518409D01*
X41445015Y-98518409D02*
X41564063Y-98518409D01*
X41564063Y-98518409D02*
X41659301Y-98542219D01*
X41659301Y-98542219D02*
X41706920Y-98566028D01*
X41706920Y-98566028D02*
X41730730Y-98589838D01*
X41730730Y-98589838D02*
X41754539Y-98637457D01*
X41754539Y-98637457D02*
X41754539Y-98685076D01*
X41754539Y-98685076D02*
X41730730Y-98732695D01*
X41730730Y-98732695D02*
X41706920Y-98756504D01*
X41706920Y-98756504D02*
X41659301Y-98780314D01*
X41659301Y-98780314D02*
X41564063Y-98804123D01*
X41564063Y-98804123D02*
X41445015Y-98804123D01*
X41445015Y-98804123D02*
X41349777Y-98780314D01*
X41349777Y-98780314D02*
X41302158Y-98756504D01*
X41302158Y-98756504D02*
X41278349Y-98732695D01*
X41278349Y-98732695D02*
X41254539Y-98685076D01*
X41254539Y-98351743D02*
X41254539Y-98018410D01*
X41254539Y-98018410D02*
X41754539Y-98232695D01*
X41703972Y-110936904D02*
X41203972Y-110936904D01*
X41203972Y-110936904D02*
X41203972Y-110746428D01*
X41203972Y-110746428D02*
X41227782Y-110698809D01*
X41227782Y-110698809D02*
X41251591Y-110674999D01*
X41251591Y-110674999D02*
X41299210Y-110651190D01*
X41299210Y-110651190D02*
X41370639Y-110651190D01*
X41370639Y-110651190D02*
X41418258Y-110674999D01*
X41418258Y-110674999D02*
X41442067Y-110698809D01*
X41442067Y-110698809D02*
X41465877Y-110746428D01*
X41465877Y-110746428D02*
X41465877Y-110936904D01*
X41703972Y-110174999D02*
X41703972Y-110460713D01*
X41703972Y-110317856D02*
X41203972Y-110317856D01*
X41203972Y-110317856D02*
X41275401Y-110365475D01*
X41275401Y-110365475D02*
X41323020Y-110413094D01*
X41323020Y-110413094D02*
X41346829Y-110460713D01*
X41656353Y-109960714D02*
X41680163Y-109936904D01*
X41680163Y-109936904D02*
X41703972Y-109960714D01*
X41703972Y-109960714D02*
X41680163Y-109984523D01*
X41680163Y-109984523D02*
X41656353Y-109960714D01*
X41656353Y-109960714D02*
X41703972Y-109960714D01*
X41703972Y-109460714D02*
X41703972Y-109746428D01*
X41703972Y-109603571D02*
X41203972Y-109603571D01*
X41203972Y-109603571D02*
X41275401Y-109651190D01*
X41275401Y-109651190D02*
X41323020Y-109698809D01*
X41323020Y-109698809D02*
X41346829Y-109746428D01*
X41203972Y-109151191D02*
X41203972Y-109103572D01*
X41203972Y-109103572D02*
X41227782Y-109055953D01*
X41227782Y-109055953D02*
X41251591Y-109032143D01*
X41251591Y-109032143D02*
X41299210Y-109008334D01*
X41299210Y-109008334D02*
X41394448Y-108984524D01*
X41394448Y-108984524D02*
X41513496Y-108984524D01*
X41513496Y-108984524D02*
X41608734Y-109008334D01*
X41608734Y-109008334D02*
X41656353Y-109032143D01*
X41656353Y-109032143D02*
X41680163Y-109055953D01*
X41680163Y-109055953D02*
X41703972Y-109103572D01*
X41703972Y-109103572D02*
X41703972Y-109151191D01*
X41703972Y-109151191D02*
X41680163Y-109198810D01*
X41680163Y-109198810D02*
X41656353Y-109222619D01*
X41656353Y-109222619D02*
X41608734Y-109246429D01*
X41608734Y-109246429D02*
X41513496Y-109270238D01*
X41513496Y-109270238D02*
X41394448Y-109270238D01*
X41394448Y-109270238D02*
X41299210Y-109246429D01*
X41299210Y-109246429D02*
X41251591Y-109222619D01*
X41251591Y-109222619D02*
X41227782Y-109198810D01*
X41227782Y-109198810D02*
X41203972Y-109151191D01*
X41754539Y-104674356D02*
X41254539Y-104674356D01*
X41254539Y-104674356D02*
X41254539Y-104483880D01*
X41254539Y-104483880D02*
X41278349Y-104436261D01*
X41278349Y-104436261D02*
X41302158Y-104412451D01*
X41302158Y-104412451D02*
X41349777Y-104388642D01*
X41349777Y-104388642D02*
X41421206Y-104388642D01*
X41421206Y-104388642D02*
X41468825Y-104412451D01*
X41468825Y-104412451D02*
X41492634Y-104436261D01*
X41492634Y-104436261D02*
X41516444Y-104483880D01*
X41516444Y-104483880D02*
X41516444Y-104674356D01*
X41754539Y-103912451D02*
X41754539Y-104198165D01*
X41754539Y-104055308D02*
X41254539Y-104055308D01*
X41254539Y-104055308D02*
X41325968Y-104102927D01*
X41325968Y-104102927D02*
X41373587Y-104150546D01*
X41373587Y-104150546D02*
X41397396Y-104198165D01*
X41706920Y-103698166D02*
X41730730Y-103674356D01*
X41730730Y-103674356D02*
X41754539Y-103698166D01*
X41754539Y-103698166D02*
X41730730Y-103721975D01*
X41730730Y-103721975D02*
X41706920Y-103698166D01*
X41706920Y-103698166D02*
X41754539Y-103698166D01*
X41754539Y-103198166D02*
X41754539Y-103483880D01*
X41754539Y-103341023D02*
X41254539Y-103341023D01*
X41254539Y-103341023D02*
X41325968Y-103388642D01*
X41325968Y-103388642D02*
X41373587Y-103436261D01*
X41373587Y-103436261D02*
X41397396Y-103483880D01*
X41421206Y-102769595D02*
X41754539Y-102769595D01*
X41230730Y-102888643D02*
X41587872Y-103007690D01*
X41587872Y-103007690D02*
X41587872Y-102698167D01*
X44988742Y-93653838D02*
X45012551Y-93582410D01*
X45012551Y-93582410D02*
X45012551Y-93463362D01*
X45012551Y-93463362D02*
X44988742Y-93415743D01*
X44988742Y-93415743D02*
X44964932Y-93391934D01*
X44964932Y-93391934D02*
X44917313Y-93368124D01*
X44917313Y-93368124D02*
X44869694Y-93368124D01*
X44869694Y-93368124D02*
X44822075Y-93391934D01*
X44822075Y-93391934D02*
X44798265Y-93415743D01*
X44798265Y-93415743D02*
X44774456Y-93463362D01*
X44774456Y-93463362D02*
X44750646Y-93558600D01*
X44750646Y-93558600D02*
X44726837Y-93606219D01*
X44726837Y-93606219D02*
X44703027Y-93630029D01*
X44703027Y-93630029D02*
X44655408Y-93653838D01*
X44655408Y-93653838D02*
X44607789Y-93653838D01*
X44607789Y-93653838D02*
X44560170Y-93630029D01*
X44560170Y-93630029D02*
X44536361Y-93606219D01*
X44536361Y-93606219D02*
X44512551Y-93558600D01*
X44512551Y-93558600D02*
X44512551Y-93439553D01*
X44512551Y-93439553D02*
X44536361Y-93368124D01*
X44512551Y-93201458D02*
X45012551Y-93082410D01*
X45012551Y-93082410D02*
X44655408Y-92987172D01*
X44655408Y-92987172D02*
X45012551Y-92891934D01*
X45012551Y-92891934D02*
X44512551Y-92772887D01*
X45012551Y-92582410D02*
X44512551Y-92582410D01*
X44512551Y-92582410D02*
X44512551Y-92463362D01*
X44512551Y-92463362D02*
X44536361Y-92391934D01*
X44536361Y-92391934D02*
X44583980Y-92344315D01*
X44583980Y-92344315D02*
X44631599Y-92320505D01*
X44631599Y-92320505D02*
X44726837Y-92296696D01*
X44726837Y-92296696D02*
X44798265Y-92296696D01*
X44798265Y-92296696D02*
X44893503Y-92320505D01*
X44893503Y-92320505D02*
X44941122Y-92344315D01*
X44941122Y-92344315D02*
X44988742Y-92391934D01*
X44988742Y-92391934D02*
X45012551Y-92463362D01*
X45012551Y-92463362D02*
X45012551Y-92582410D01*
X45012551Y-92082410D02*
X44512551Y-92082410D01*
X44512551Y-91749077D02*
X44512551Y-91653839D01*
X44512551Y-91653839D02*
X44536361Y-91606220D01*
X44536361Y-91606220D02*
X44583980Y-91558601D01*
X44583980Y-91558601D02*
X44679218Y-91534791D01*
X44679218Y-91534791D02*
X44845884Y-91534791D01*
X44845884Y-91534791D02*
X44941122Y-91558601D01*
X44941122Y-91558601D02*
X44988742Y-91606220D01*
X44988742Y-91606220D02*
X45012551Y-91653839D01*
X45012551Y-91653839D02*
X45012551Y-91749077D01*
X45012551Y-91749077D02*
X44988742Y-91796696D01*
X44988742Y-91796696D02*
X44941122Y-91844315D01*
X44941122Y-91844315D02*
X44845884Y-91868124D01*
X44845884Y-91868124D02*
X44679218Y-91868124D01*
X44679218Y-91868124D02*
X44583980Y-91844315D01*
X44583980Y-91844315D02*
X44536361Y-91796696D01*
X44536361Y-91796696D02*
X44512551Y-91749077D01*
X52696457Y-110936904D02*
X52196457Y-110936904D01*
X52196457Y-110936904D02*
X52196457Y-110746428D01*
X52196457Y-110746428D02*
X52220267Y-110698809D01*
X52220267Y-110698809D02*
X52244076Y-110674999D01*
X52244076Y-110674999D02*
X52291695Y-110651190D01*
X52291695Y-110651190D02*
X52363124Y-110651190D01*
X52363124Y-110651190D02*
X52410743Y-110674999D01*
X52410743Y-110674999D02*
X52434552Y-110698809D01*
X52434552Y-110698809D02*
X52458362Y-110746428D01*
X52458362Y-110746428D02*
X52458362Y-110936904D01*
X52196457Y-110341666D02*
X52196457Y-110294047D01*
X52196457Y-110294047D02*
X52220267Y-110246428D01*
X52220267Y-110246428D02*
X52244076Y-110222618D01*
X52244076Y-110222618D02*
X52291695Y-110198809D01*
X52291695Y-110198809D02*
X52386933Y-110174999D01*
X52386933Y-110174999D02*
X52505981Y-110174999D01*
X52505981Y-110174999D02*
X52601219Y-110198809D01*
X52601219Y-110198809D02*
X52648838Y-110222618D01*
X52648838Y-110222618D02*
X52672648Y-110246428D01*
X52672648Y-110246428D02*
X52696457Y-110294047D01*
X52696457Y-110294047D02*
X52696457Y-110341666D01*
X52696457Y-110341666D02*
X52672648Y-110389285D01*
X52672648Y-110389285D02*
X52648838Y-110413094D01*
X52648838Y-110413094D02*
X52601219Y-110436904D01*
X52601219Y-110436904D02*
X52505981Y-110460713D01*
X52505981Y-110460713D02*
X52386933Y-110460713D01*
X52386933Y-110460713D02*
X52291695Y-110436904D01*
X52291695Y-110436904D02*
X52244076Y-110413094D01*
X52244076Y-110413094D02*
X52220267Y-110389285D01*
X52220267Y-110389285D02*
X52196457Y-110341666D01*
X52648838Y-109960714D02*
X52672648Y-109936904D01*
X52672648Y-109936904D02*
X52696457Y-109960714D01*
X52696457Y-109960714D02*
X52672648Y-109984523D01*
X52672648Y-109984523D02*
X52648838Y-109960714D01*
X52648838Y-109960714D02*
X52696457Y-109960714D01*
X52196457Y-109627381D02*
X52196457Y-109579762D01*
X52196457Y-109579762D02*
X52220267Y-109532143D01*
X52220267Y-109532143D02*
X52244076Y-109508333D01*
X52244076Y-109508333D02*
X52291695Y-109484524D01*
X52291695Y-109484524D02*
X52386933Y-109460714D01*
X52386933Y-109460714D02*
X52505981Y-109460714D01*
X52505981Y-109460714D02*
X52601219Y-109484524D01*
X52601219Y-109484524D02*
X52648838Y-109508333D01*
X52648838Y-109508333D02*
X52672648Y-109532143D01*
X52672648Y-109532143D02*
X52696457Y-109579762D01*
X52696457Y-109579762D02*
X52696457Y-109627381D01*
X52696457Y-109627381D02*
X52672648Y-109675000D01*
X52672648Y-109675000D02*
X52648838Y-109698809D01*
X52648838Y-109698809D02*
X52601219Y-109722619D01*
X52601219Y-109722619D02*
X52505981Y-109746428D01*
X52505981Y-109746428D02*
X52386933Y-109746428D01*
X52386933Y-109746428D02*
X52291695Y-109722619D01*
X52291695Y-109722619D02*
X52244076Y-109698809D01*
X52244076Y-109698809D02*
X52220267Y-109675000D01*
X52220267Y-109675000D02*
X52196457Y-109627381D01*
X52196457Y-109008334D02*
X52196457Y-109246429D01*
X52196457Y-109246429D02*
X52434552Y-109270238D01*
X52434552Y-109270238D02*
X52410743Y-109246429D01*
X52410743Y-109246429D02*
X52386933Y-109198810D01*
X52386933Y-109198810D02*
X52386933Y-109079762D01*
X52386933Y-109079762D02*
X52410743Y-109032143D01*
X52410743Y-109032143D02*
X52434552Y-109008334D01*
X52434552Y-109008334D02*
X52482171Y-108984524D01*
X52482171Y-108984524D02*
X52601219Y-108984524D01*
X52601219Y-108984524D02*
X52648838Y-109008334D01*
X52648838Y-109008334D02*
X52672648Y-109032143D01*
X52672648Y-109032143D02*
X52696457Y-109079762D01*
X52696457Y-109079762D02*
X52696457Y-109198810D01*
X52696457Y-109198810D02*
X52672648Y-109246429D01*
X52672648Y-109246429D02*
X52648838Y-109270238D01*
X43942039Y-104674356D02*
X43442039Y-104674356D01*
X43442039Y-104674356D02*
X43442039Y-104483880D01*
X43442039Y-104483880D02*
X43465849Y-104436261D01*
X43465849Y-104436261D02*
X43489658Y-104412451D01*
X43489658Y-104412451D02*
X43537277Y-104388642D01*
X43537277Y-104388642D02*
X43608706Y-104388642D01*
X43608706Y-104388642D02*
X43656325Y-104412451D01*
X43656325Y-104412451D02*
X43680134Y-104436261D01*
X43680134Y-104436261D02*
X43703944Y-104483880D01*
X43703944Y-104483880D02*
X43703944Y-104674356D01*
X43442039Y-104079118D02*
X43442039Y-104031499D01*
X43442039Y-104031499D02*
X43465849Y-103983880D01*
X43465849Y-103983880D02*
X43489658Y-103960070D01*
X43489658Y-103960070D02*
X43537277Y-103936261D01*
X43537277Y-103936261D02*
X43632515Y-103912451D01*
X43632515Y-103912451D02*
X43751563Y-103912451D01*
X43751563Y-103912451D02*
X43846801Y-103936261D01*
X43846801Y-103936261D02*
X43894420Y-103960070D01*
X43894420Y-103960070D02*
X43918230Y-103983880D01*
X43918230Y-103983880D02*
X43942039Y-104031499D01*
X43942039Y-104031499D02*
X43942039Y-104079118D01*
X43942039Y-104079118D02*
X43918230Y-104126737D01*
X43918230Y-104126737D02*
X43894420Y-104150546D01*
X43894420Y-104150546D02*
X43846801Y-104174356D01*
X43846801Y-104174356D02*
X43751563Y-104198165D01*
X43751563Y-104198165D02*
X43632515Y-104198165D01*
X43632515Y-104198165D02*
X43537277Y-104174356D01*
X43537277Y-104174356D02*
X43489658Y-104150546D01*
X43489658Y-104150546D02*
X43465849Y-104126737D01*
X43465849Y-104126737D02*
X43442039Y-104079118D01*
X43894420Y-103698166D02*
X43918230Y-103674356D01*
X43918230Y-103674356D02*
X43942039Y-103698166D01*
X43942039Y-103698166D02*
X43918230Y-103721975D01*
X43918230Y-103721975D02*
X43894420Y-103698166D01*
X43894420Y-103698166D02*
X43942039Y-103698166D01*
X43489658Y-103483880D02*
X43465849Y-103460071D01*
X43465849Y-103460071D02*
X43442039Y-103412452D01*
X43442039Y-103412452D02*
X43442039Y-103293404D01*
X43442039Y-103293404D02*
X43465849Y-103245785D01*
X43465849Y-103245785D02*
X43489658Y-103221976D01*
X43489658Y-103221976D02*
X43537277Y-103198166D01*
X43537277Y-103198166D02*
X43584896Y-103198166D01*
X43584896Y-103198166D02*
X43656325Y-103221976D01*
X43656325Y-103221976D02*
X43942039Y-103507690D01*
X43942039Y-103507690D02*
X43942039Y-103198166D01*
X43442039Y-102745786D02*
X43442039Y-102983881D01*
X43442039Y-102983881D02*
X43680134Y-103007690D01*
X43680134Y-103007690D02*
X43656325Y-102983881D01*
X43656325Y-102983881D02*
X43632515Y-102936262D01*
X43632515Y-102936262D02*
X43632515Y-102817214D01*
X43632515Y-102817214D02*
X43656325Y-102769595D01*
X43656325Y-102769595D02*
X43680134Y-102745786D01*
X43680134Y-102745786D02*
X43727753Y-102721976D01*
X43727753Y-102721976D02*
X43846801Y-102721976D01*
X43846801Y-102721976D02*
X43894420Y-102745786D01*
X43894420Y-102745786D02*
X43918230Y-102769595D01*
X43918230Y-102769595D02*
X43942039Y-102817214D01*
X43942039Y-102817214D02*
X43942039Y-102936262D01*
X43942039Y-102936262D02*
X43918230Y-102983881D01*
X43918230Y-102983881D02*
X43894420Y-103007690D01*
X49410789Y-104674356D02*
X48910789Y-104674356D01*
X48910789Y-104674356D02*
X48910789Y-104483880D01*
X48910789Y-104483880D02*
X48934599Y-104436261D01*
X48934599Y-104436261D02*
X48958408Y-104412451D01*
X48958408Y-104412451D02*
X49006027Y-104388642D01*
X49006027Y-104388642D02*
X49077456Y-104388642D01*
X49077456Y-104388642D02*
X49125075Y-104412451D01*
X49125075Y-104412451D02*
X49148884Y-104436261D01*
X49148884Y-104436261D02*
X49172694Y-104483880D01*
X49172694Y-104483880D02*
X49172694Y-104674356D01*
X48910789Y-104079118D02*
X48910789Y-104031499D01*
X48910789Y-104031499D02*
X48934599Y-103983880D01*
X48934599Y-103983880D02*
X48958408Y-103960070D01*
X48958408Y-103960070D02*
X49006027Y-103936261D01*
X49006027Y-103936261D02*
X49101265Y-103912451D01*
X49101265Y-103912451D02*
X49220313Y-103912451D01*
X49220313Y-103912451D02*
X49315551Y-103936261D01*
X49315551Y-103936261D02*
X49363170Y-103960070D01*
X49363170Y-103960070D02*
X49386980Y-103983880D01*
X49386980Y-103983880D02*
X49410789Y-104031499D01*
X49410789Y-104031499D02*
X49410789Y-104079118D01*
X49410789Y-104079118D02*
X49386980Y-104126737D01*
X49386980Y-104126737D02*
X49363170Y-104150546D01*
X49363170Y-104150546D02*
X49315551Y-104174356D01*
X49315551Y-104174356D02*
X49220313Y-104198165D01*
X49220313Y-104198165D02*
X49101265Y-104198165D01*
X49101265Y-104198165D02*
X49006027Y-104174356D01*
X49006027Y-104174356D02*
X48958408Y-104150546D01*
X48958408Y-104150546D02*
X48934599Y-104126737D01*
X48934599Y-104126737D02*
X48910789Y-104079118D01*
X49363170Y-103698166D02*
X49386980Y-103674356D01*
X49386980Y-103674356D02*
X49410789Y-103698166D01*
X49410789Y-103698166D02*
X49386980Y-103721975D01*
X49386980Y-103721975D02*
X49363170Y-103698166D01*
X49363170Y-103698166D02*
X49410789Y-103698166D01*
X48910789Y-103364833D02*
X48910789Y-103317214D01*
X48910789Y-103317214D02*
X48934599Y-103269595D01*
X48934599Y-103269595D02*
X48958408Y-103245785D01*
X48958408Y-103245785D02*
X49006027Y-103221976D01*
X49006027Y-103221976D02*
X49101265Y-103198166D01*
X49101265Y-103198166D02*
X49220313Y-103198166D01*
X49220313Y-103198166D02*
X49315551Y-103221976D01*
X49315551Y-103221976D02*
X49363170Y-103245785D01*
X49363170Y-103245785D02*
X49386980Y-103269595D01*
X49386980Y-103269595D02*
X49410789Y-103317214D01*
X49410789Y-103317214D02*
X49410789Y-103364833D01*
X49410789Y-103364833D02*
X49386980Y-103412452D01*
X49386980Y-103412452D02*
X49363170Y-103436261D01*
X49363170Y-103436261D02*
X49315551Y-103460071D01*
X49315551Y-103460071D02*
X49220313Y-103483880D01*
X49220313Y-103483880D02*
X49101265Y-103483880D01*
X49101265Y-103483880D02*
X49006027Y-103460071D01*
X49006027Y-103460071D02*
X48958408Y-103436261D01*
X48958408Y-103436261D02*
X48934599Y-103412452D01*
X48934599Y-103412452D02*
X48910789Y-103364833D01*
X48910789Y-102769595D02*
X48910789Y-102864833D01*
X48910789Y-102864833D02*
X48934599Y-102912452D01*
X48934599Y-102912452D02*
X48958408Y-102936262D01*
X48958408Y-102936262D02*
X49029837Y-102983881D01*
X49029837Y-102983881D02*
X49125075Y-103007690D01*
X49125075Y-103007690D02*
X49315551Y-103007690D01*
X49315551Y-103007690D02*
X49363170Y-102983881D01*
X49363170Y-102983881D02*
X49386980Y-102960071D01*
X49386980Y-102960071D02*
X49410789Y-102912452D01*
X49410789Y-102912452D02*
X49410789Y-102817214D01*
X49410789Y-102817214D02*
X49386980Y-102769595D01*
X49386980Y-102769595D02*
X49363170Y-102745786D01*
X49363170Y-102745786D02*
X49315551Y-102721976D01*
X49315551Y-102721976D02*
X49196503Y-102721976D01*
X49196503Y-102721976D02*
X49148884Y-102745786D01*
X49148884Y-102745786D02*
X49125075Y-102769595D01*
X49125075Y-102769595D02*
X49101265Y-102817214D01*
X49101265Y-102817214D02*
X49101265Y-102912452D01*
X49101265Y-102912452D02*
X49125075Y-102960071D01*
X49125075Y-102960071D02*
X49148884Y-102983881D01*
X49148884Y-102983881D02*
X49196503Y-103007690D01*
X46090157Y-93653838D02*
X46113966Y-93582410D01*
X46113966Y-93582410D02*
X46113966Y-93463362D01*
X46113966Y-93463362D02*
X46090157Y-93415743D01*
X46090157Y-93415743D02*
X46066347Y-93391934D01*
X46066347Y-93391934D02*
X46018728Y-93368124D01*
X46018728Y-93368124D02*
X45971109Y-93368124D01*
X45971109Y-93368124D02*
X45923490Y-93391934D01*
X45923490Y-93391934D02*
X45899680Y-93415743D01*
X45899680Y-93415743D02*
X45875871Y-93463362D01*
X45875871Y-93463362D02*
X45852061Y-93558600D01*
X45852061Y-93558600D02*
X45828252Y-93606219D01*
X45828252Y-93606219D02*
X45804442Y-93630029D01*
X45804442Y-93630029D02*
X45756823Y-93653838D01*
X45756823Y-93653838D02*
X45709204Y-93653838D01*
X45709204Y-93653838D02*
X45661585Y-93630029D01*
X45661585Y-93630029D02*
X45637776Y-93606219D01*
X45637776Y-93606219D02*
X45613966Y-93558600D01*
X45613966Y-93558600D02*
X45613966Y-93439553D01*
X45613966Y-93439553D02*
X45637776Y-93368124D01*
X45613966Y-93201458D02*
X46113966Y-93082410D01*
X46113966Y-93082410D02*
X45756823Y-92987172D01*
X45756823Y-92987172D02*
X46113966Y-92891934D01*
X46113966Y-92891934D02*
X45613966Y-92772887D01*
X46113966Y-92582410D02*
X45613966Y-92582410D01*
X45613966Y-92582410D02*
X45613966Y-92463362D01*
X45613966Y-92463362D02*
X45637776Y-92391934D01*
X45637776Y-92391934D02*
X45685395Y-92344315D01*
X45685395Y-92344315D02*
X45733014Y-92320505D01*
X45733014Y-92320505D02*
X45828252Y-92296696D01*
X45828252Y-92296696D02*
X45899680Y-92296696D01*
X45899680Y-92296696D02*
X45994918Y-92320505D01*
X45994918Y-92320505D02*
X46042537Y-92344315D01*
X46042537Y-92344315D02*
X46090157Y-92391934D01*
X46090157Y-92391934D02*
X46113966Y-92463362D01*
X46113966Y-92463362D02*
X46113966Y-92582410D01*
X46066347Y-91796696D02*
X46090157Y-91820505D01*
X46090157Y-91820505D02*
X46113966Y-91891934D01*
X46113966Y-91891934D02*
X46113966Y-91939553D01*
X46113966Y-91939553D02*
X46090157Y-92010981D01*
X46090157Y-92010981D02*
X46042537Y-92058600D01*
X46042537Y-92058600D02*
X45994918Y-92082410D01*
X45994918Y-92082410D02*
X45899680Y-92106219D01*
X45899680Y-92106219D02*
X45828252Y-92106219D01*
X45828252Y-92106219D02*
X45733014Y-92082410D01*
X45733014Y-92082410D02*
X45685395Y-92058600D01*
X45685395Y-92058600D02*
X45637776Y-92010981D01*
X45637776Y-92010981D02*
X45613966Y-91939553D01*
X45613966Y-91939553D02*
X45613966Y-91891934D01*
X45613966Y-91891934D02*
X45637776Y-91820505D01*
X45637776Y-91820505D02*
X45661585Y-91796696D01*
X46113966Y-91344315D02*
X46113966Y-91582410D01*
X46113966Y-91582410D02*
X45613966Y-91582410D01*
X46113966Y-91177648D02*
X45613966Y-91177648D01*
X46113966Y-90891934D02*
X45828252Y-91106219D01*
X45613966Y-90891934D02*
X45899680Y-91177648D01*
X42803220Y-110936904D02*
X42303220Y-110936904D01*
X42303220Y-110936904D02*
X42303220Y-110746428D01*
X42303220Y-110746428D02*
X42327030Y-110698809D01*
X42327030Y-110698809D02*
X42350839Y-110674999D01*
X42350839Y-110674999D02*
X42398458Y-110651190D01*
X42398458Y-110651190D02*
X42469887Y-110651190D01*
X42469887Y-110651190D02*
X42517506Y-110674999D01*
X42517506Y-110674999D02*
X42541315Y-110698809D01*
X42541315Y-110698809D02*
X42565125Y-110746428D01*
X42565125Y-110746428D02*
X42565125Y-110936904D01*
X42803220Y-110174999D02*
X42803220Y-110460713D01*
X42803220Y-110317856D02*
X42303220Y-110317856D01*
X42303220Y-110317856D02*
X42374649Y-110365475D01*
X42374649Y-110365475D02*
X42422268Y-110413094D01*
X42422268Y-110413094D02*
X42446077Y-110460713D01*
X42755601Y-109960714D02*
X42779411Y-109936904D01*
X42779411Y-109936904D02*
X42803220Y-109960714D01*
X42803220Y-109960714D02*
X42779411Y-109984523D01*
X42779411Y-109984523D02*
X42755601Y-109960714D01*
X42755601Y-109960714D02*
X42803220Y-109960714D01*
X42803220Y-109460714D02*
X42803220Y-109746428D01*
X42803220Y-109603571D02*
X42303220Y-109603571D01*
X42303220Y-109603571D02*
X42374649Y-109651190D01*
X42374649Y-109651190D02*
X42422268Y-109698809D01*
X42422268Y-109698809D02*
X42446077Y-109746428D01*
X42303220Y-109294048D02*
X42303220Y-108984524D01*
X42303220Y-108984524D02*
X42493696Y-109151191D01*
X42493696Y-109151191D02*
X42493696Y-109079762D01*
X42493696Y-109079762D02*
X42517506Y-109032143D01*
X42517506Y-109032143D02*
X42541315Y-109008334D01*
X42541315Y-109008334D02*
X42588934Y-108984524D01*
X42588934Y-108984524D02*
X42707982Y-108984524D01*
X42707982Y-108984524D02*
X42755601Y-109008334D01*
X42755601Y-109008334D02*
X42779411Y-109032143D01*
X42779411Y-109032143D02*
X42803220Y-109079762D01*
X42803220Y-109079762D02*
X42803220Y-109222619D01*
X42803220Y-109222619D02*
X42779411Y-109270238D01*
X42779411Y-109270238D02*
X42755601Y-109294048D01*
X54824652Y-96102184D02*
X54824652Y-95602184D01*
X54824652Y-95602184D02*
X54943700Y-95602184D01*
X54943700Y-95602184D02*
X55015128Y-95625994D01*
X55015128Y-95625994D02*
X55062747Y-95673613D01*
X55062747Y-95673613D02*
X55086557Y-95721232D01*
X55086557Y-95721232D02*
X55110366Y-95816470D01*
X55110366Y-95816470D02*
X55110366Y-95887898D01*
X55110366Y-95887898D02*
X55086557Y-95983136D01*
X55086557Y-95983136D02*
X55062747Y-96030755D01*
X55062747Y-96030755D02*
X55015128Y-96078375D01*
X55015128Y-96078375D02*
X54943700Y-96102184D01*
X54943700Y-96102184D02*
X54824652Y-96102184D01*
X55324652Y-95911708D02*
X55705605Y-95911708D01*
X55515128Y-96102184D02*
X55515128Y-95721232D01*
X54824652Y-101601717D02*
X54824652Y-101101717D01*
X54824652Y-101101717D02*
X55015128Y-101101717D01*
X55015128Y-101101717D02*
X55062747Y-101125527D01*
X55062747Y-101125527D02*
X55086557Y-101149336D01*
X55086557Y-101149336D02*
X55110366Y-101196955D01*
X55110366Y-101196955D02*
X55110366Y-101268384D01*
X55110366Y-101268384D02*
X55086557Y-101316003D01*
X55086557Y-101316003D02*
X55062747Y-101339812D01*
X55062747Y-101339812D02*
X55015128Y-101363622D01*
X55015128Y-101363622D02*
X54824652Y-101363622D01*
X55419890Y-101101717D02*
X55467509Y-101101717D01*
X55467509Y-101101717D02*
X55515128Y-101125527D01*
X55515128Y-101125527D02*
X55538938Y-101149336D01*
X55538938Y-101149336D02*
X55562747Y-101196955D01*
X55562747Y-101196955D02*
X55586557Y-101292193D01*
X55586557Y-101292193D02*
X55586557Y-101411241D01*
X55586557Y-101411241D02*
X55562747Y-101506479D01*
X55562747Y-101506479D02*
X55538938Y-101554098D01*
X55538938Y-101554098D02*
X55515128Y-101577908D01*
X55515128Y-101577908D02*
X55467509Y-101601717D01*
X55467509Y-101601717D02*
X55419890Y-101601717D01*
X55419890Y-101601717D02*
X55372271Y-101577908D01*
X55372271Y-101577908D02*
X55348462Y-101554098D01*
X55348462Y-101554098D02*
X55324652Y-101506479D01*
X55324652Y-101506479D02*
X55300843Y-101411241D01*
X55300843Y-101411241D02*
X55300843Y-101292193D01*
X55300843Y-101292193D02*
X55324652Y-101196955D01*
X55324652Y-101196955D02*
X55348462Y-101149336D01*
X55348462Y-101149336D02*
X55372271Y-101125527D01*
X55372271Y-101125527D02*
X55419890Y-101101717D01*
X55800842Y-101554098D02*
X55824652Y-101577908D01*
X55824652Y-101577908D02*
X55800842Y-101601717D01*
X55800842Y-101601717D02*
X55777033Y-101577908D01*
X55777033Y-101577908D02*
X55800842Y-101554098D01*
X55800842Y-101554098D02*
X55800842Y-101601717D01*
X56015128Y-101149336D02*
X56038937Y-101125527D01*
X56038937Y-101125527D02*
X56086556Y-101101717D01*
X56086556Y-101101717D02*
X56205604Y-101101717D01*
X56205604Y-101101717D02*
X56253223Y-101125527D01*
X56253223Y-101125527D02*
X56277032Y-101149336D01*
X56277032Y-101149336D02*
X56300842Y-101196955D01*
X56300842Y-101196955D02*
X56300842Y-101244574D01*
X56300842Y-101244574D02*
X56277032Y-101316003D01*
X56277032Y-101316003D02*
X55991318Y-101601717D01*
X55991318Y-101601717D02*
X56300842Y-101601717D01*
X56777032Y-101601717D02*
X56491318Y-101601717D01*
X56634175Y-101601717D02*
X56634175Y-101101717D01*
X56634175Y-101101717D02*
X56586556Y-101173146D01*
X56586556Y-101173146D02*
X56538937Y-101220765D01*
X56538937Y-101220765D02*
X56491318Y-101244574D01*
X47223289Y-104674356D02*
X46723289Y-104674356D01*
X46723289Y-104674356D02*
X46723289Y-104483880D01*
X46723289Y-104483880D02*
X46747099Y-104436261D01*
X46747099Y-104436261D02*
X46770908Y-104412451D01*
X46770908Y-104412451D02*
X46818527Y-104388642D01*
X46818527Y-104388642D02*
X46889956Y-104388642D01*
X46889956Y-104388642D02*
X46937575Y-104412451D01*
X46937575Y-104412451D02*
X46961384Y-104436261D01*
X46961384Y-104436261D02*
X46985194Y-104483880D01*
X46985194Y-104483880D02*
X46985194Y-104674356D01*
X46723289Y-104079118D02*
X46723289Y-104031499D01*
X46723289Y-104031499D02*
X46747099Y-103983880D01*
X46747099Y-103983880D02*
X46770908Y-103960070D01*
X46770908Y-103960070D02*
X46818527Y-103936261D01*
X46818527Y-103936261D02*
X46913765Y-103912451D01*
X46913765Y-103912451D02*
X47032813Y-103912451D01*
X47032813Y-103912451D02*
X47128051Y-103936261D01*
X47128051Y-103936261D02*
X47175670Y-103960070D01*
X47175670Y-103960070D02*
X47199480Y-103983880D01*
X47199480Y-103983880D02*
X47223289Y-104031499D01*
X47223289Y-104031499D02*
X47223289Y-104079118D01*
X47223289Y-104079118D02*
X47199480Y-104126737D01*
X47199480Y-104126737D02*
X47175670Y-104150546D01*
X47175670Y-104150546D02*
X47128051Y-104174356D01*
X47128051Y-104174356D02*
X47032813Y-104198165D01*
X47032813Y-104198165D02*
X46913765Y-104198165D01*
X46913765Y-104198165D02*
X46818527Y-104174356D01*
X46818527Y-104174356D02*
X46770908Y-104150546D01*
X46770908Y-104150546D02*
X46747099Y-104126737D01*
X46747099Y-104126737D02*
X46723289Y-104079118D01*
X47175670Y-103698166D02*
X47199480Y-103674356D01*
X47199480Y-103674356D02*
X47223289Y-103698166D01*
X47223289Y-103698166D02*
X47199480Y-103721975D01*
X47199480Y-103721975D02*
X47175670Y-103698166D01*
X47175670Y-103698166D02*
X47223289Y-103698166D01*
X46770908Y-103483880D02*
X46747099Y-103460071D01*
X46747099Y-103460071D02*
X46723289Y-103412452D01*
X46723289Y-103412452D02*
X46723289Y-103293404D01*
X46723289Y-103293404D02*
X46747099Y-103245785D01*
X46747099Y-103245785D02*
X46770908Y-103221976D01*
X46770908Y-103221976D02*
X46818527Y-103198166D01*
X46818527Y-103198166D02*
X46866146Y-103198166D01*
X46866146Y-103198166D02*
X46937575Y-103221976D01*
X46937575Y-103221976D02*
X47223289Y-103507690D01*
X47223289Y-103507690D02*
X47223289Y-103198166D01*
X46723289Y-103031500D02*
X46723289Y-102698167D01*
X46723289Y-102698167D02*
X47223289Y-102912452D01*
X50504539Y-99994599D02*
X50004539Y-99994599D01*
X50004539Y-99994599D02*
X50004539Y-99804123D01*
X50004539Y-99804123D02*
X50028349Y-99756504D01*
X50028349Y-99756504D02*
X50052158Y-99732694D01*
X50052158Y-99732694D02*
X50099777Y-99708885D01*
X50099777Y-99708885D02*
X50171206Y-99708885D01*
X50171206Y-99708885D02*
X50218825Y-99732694D01*
X50218825Y-99732694D02*
X50242634Y-99756504D01*
X50242634Y-99756504D02*
X50266444Y-99804123D01*
X50266444Y-99804123D02*
X50266444Y-99994599D01*
X50004539Y-99399361D02*
X50004539Y-99351742D01*
X50004539Y-99351742D02*
X50028349Y-99304123D01*
X50028349Y-99304123D02*
X50052158Y-99280313D01*
X50052158Y-99280313D02*
X50099777Y-99256504D01*
X50099777Y-99256504D02*
X50195015Y-99232694D01*
X50195015Y-99232694D02*
X50314063Y-99232694D01*
X50314063Y-99232694D02*
X50409301Y-99256504D01*
X50409301Y-99256504D02*
X50456920Y-99280313D01*
X50456920Y-99280313D02*
X50480730Y-99304123D01*
X50480730Y-99304123D02*
X50504539Y-99351742D01*
X50504539Y-99351742D02*
X50504539Y-99399361D01*
X50504539Y-99399361D02*
X50480730Y-99446980D01*
X50480730Y-99446980D02*
X50456920Y-99470789D01*
X50456920Y-99470789D02*
X50409301Y-99494599D01*
X50409301Y-99494599D02*
X50314063Y-99518408D01*
X50314063Y-99518408D02*
X50195015Y-99518408D01*
X50195015Y-99518408D02*
X50099777Y-99494599D01*
X50099777Y-99494599D02*
X50052158Y-99470789D01*
X50052158Y-99470789D02*
X50028349Y-99446980D01*
X50028349Y-99446980D02*
X50004539Y-99399361D01*
X50456920Y-99018409D02*
X50480730Y-98994599D01*
X50480730Y-98994599D02*
X50504539Y-99018409D01*
X50504539Y-99018409D02*
X50480730Y-99042218D01*
X50480730Y-99042218D02*
X50456920Y-99018409D01*
X50456920Y-99018409D02*
X50504539Y-99018409D01*
X50504539Y-98518409D02*
X50504539Y-98804123D01*
X50504539Y-98661266D02*
X50004539Y-98661266D01*
X50004539Y-98661266D02*
X50075968Y-98708885D01*
X50075968Y-98708885D02*
X50123587Y-98756504D01*
X50123587Y-98756504D02*
X50147396Y-98804123D01*
X50004539Y-98089838D02*
X50004539Y-98185076D01*
X50004539Y-98185076D02*
X50028349Y-98232695D01*
X50028349Y-98232695D02*
X50052158Y-98256505D01*
X50052158Y-98256505D02*
X50123587Y-98304124D01*
X50123587Y-98304124D02*
X50218825Y-98327933D01*
X50218825Y-98327933D02*
X50409301Y-98327933D01*
X50409301Y-98327933D02*
X50456920Y-98304124D01*
X50456920Y-98304124D02*
X50480730Y-98280314D01*
X50480730Y-98280314D02*
X50504539Y-98232695D01*
X50504539Y-98232695D02*
X50504539Y-98137457D01*
X50504539Y-98137457D02*
X50480730Y-98089838D01*
X50480730Y-98089838D02*
X50456920Y-98066029D01*
X50456920Y-98066029D02*
X50409301Y-98042219D01*
X50409301Y-98042219D02*
X50290253Y-98042219D01*
X50290253Y-98042219D02*
X50242634Y-98066029D01*
X50242634Y-98066029D02*
X50218825Y-98089838D01*
X50218825Y-98089838D02*
X50195015Y-98137457D01*
X50195015Y-98137457D02*
X50195015Y-98232695D01*
X50195015Y-98232695D02*
X50218825Y-98280314D01*
X50218825Y-98280314D02*
X50242634Y-98304124D01*
X50242634Y-98304124D02*
X50290253Y-98327933D01*
X48317039Y-104674356D02*
X47817039Y-104674356D01*
X47817039Y-104674356D02*
X47817039Y-104483880D01*
X47817039Y-104483880D02*
X47840849Y-104436261D01*
X47840849Y-104436261D02*
X47864658Y-104412451D01*
X47864658Y-104412451D02*
X47912277Y-104388642D01*
X47912277Y-104388642D02*
X47983706Y-104388642D01*
X47983706Y-104388642D02*
X48031325Y-104412451D01*
X48031325Y-104412451D02*
X48055134Y-104436261D01*
X48055134Y-104436261D02*
X48078944Y-104483880D01*
X48078944Y-104483880D02*
X48078944Y-104674356D01*
X47817039Y-104079118D02*
X47817039Y-104031499D01*
X47817039Y-104031499D02*
X47840849Y-103983880D01*
X47840849Y-103983880D02*
X47864658Y-103960070D01*
X47864658Y-103960070D02*
X47912277Y-103936261D01*
X47912277Y-103936261D02*
X48007515Y-103912451D01*
X48007515Y-103912451D02*
X48126563Y-103912451D01*
X48126563Y-103912451D02*
X48221801Y-103936261D01*
X48221801Y-103936261D02*
X48269420Y-103960070D01*
X48269420Y-103960070D02*
X48293230Y-103983880D01*
X48293230Y-103983880D02*
X48317039Y-104031499D01*
X48317039Y-104031499D02*
X48317039Y-104079118D01*
X48317039Y-104079118D02*
X48293230Y-104126737D01*
X48293230Y-104126737D02*
X48269420Y-104150546D01*
X48269420Y-104150546D02*
X48221801Y-104174356D01*
X48221801Y-104174356D02*
X48126563Y-104198165D01*
X48126563Y-104198165D02*
X48007515Y-104198165D01*
X48007515Y-104198165D02*
X47912277Y-104174356D01*
X47912277Y-104174356D02*
X47864658Y-104150546D01*
X47864658Y-104150546D02*
X47840849Y-104126737D01*
X47840849Y-104126737D02*
X47817039Y-104079118D01*
X48269420Y-103698166D02*
X48293230Y-103674356D01*
X48293230Y-103674356D02*
X48317039Y-103698166D01*
X48317039Y-103698166D02*
X48293230Y-103721975D01*
X48293230Y-103721975D02*
X48269420Y-103698166D01*
X48269420Y-103698166D02*
X48317039Y-103698166D01*
X47817039Y-103364833D02*
X47817039Y-103317214D01*
X47817039Y-103317214D02*
X47840849Y-103269595D01*
X47840849Y-103269595D02*
X47864658Y-103245785D01*
X47864658Y-103245785D02*
X47912277Y-103221976D01*
X47912277Y-103221976D02*
X48007515Y-103198166D01*
X48007515Y-103198166D02*
X48126563Y-103198166D01*
X48126563Y-103198166D02*
X48221801Y-103221976D01*
X48221801Y-103221976D02*
X48269420Y-103245785D01*
X48269420Y-103245785D02*
X48293230Y-103269595D01*
X48293230Y-103269595D02*
X48317039Y-103317214D01*
X48317039Y-103317214D02*
X48317039Y-103364833D01*
X48317039Y-103364833D02*
X48293230Y-103412452D01*
X48293230Y-103412452D02*
X48269420Y-103436261D01*
X48269420Y-103436261D02*
X48221801Y-103460071D01*
X48221801Y-103460071D02*
X48126563Y-103483880D01*
X48126563Y-103483880D02*
X48007515Y-103483880D01*
X48007515Y-103483880D02*
X47912277Y-103460071D01*
X47912277Y-103460071D02*
X47864658Y-103436261D01*
X47864658Y-103436261D02*
X47840849Y-103412452D01*
X47840849Y-103412452D02*
X47817039Y-103364833D01*
X48031325Y-102912452D02*
X48007515Y-102960071D01*
X48007515Y-102960071D02*
X47983706Y-102983881D01*
X47983706Y-102983881D02*
X47936087Y-103007690D01*
X47936087Y-103007690D02*
X47912277Y-103007690D01*
X47912277Y-103007690D02*
X47864658Y-102983881D01*
X47864658Y-102983881D02*
X47840849Y-102960071D01*
X47840849Y-102960071D02*
X47817039Y-102912452D01*
X47817039Y-102912452D02*
X47817039Y-102817214D01*
X47817039Y-102817214D02*
X47840849Y-102769595D01*
X47840849Y-102769595D02*
X47864658Y-102745786D01*
X47864658Y-102745786D02*
X47912277Y-102721976D01*
X47912277Y-102721976D02*
X47936087Y-102721976D01*
X47936087Y-102721976D02*
X47983706Y-102745786D01*
X47983706Y-102745786D02*
X48007515Y-102769595D01*
X48007515Y-102769595D02*
X48031325Y-102817214D01*
X48031325Y-102817214D02*
X48031325Y-102912452D01*
X48031325Y-102912452D02*
X48055134Y-102960071D01*
X48055134Y-102960071D02*
X48078944Y-102983881D01*
X48078944Y-102983881D02*
X48126563Y-103007690D01*
X48126563Y-103007690D02*
X48221801Y-103007690D01*
X48221801Y-103007690D02*
X48269420Y-102983881D01*
X48269420Y-102983881D02*
X48293230Y-102960071D01*
X48293230Y-102960071D02*
X48317039Y-102912452D01*
X48317039Y-102912452D02*
X48317039Y-102817214D01*
X48317039Y-102817214D02*
X48293230Y-102769595D01*
X48293230Y-102769595D02*
X48269420Y-102745786D01*
X48269420Y-102745786D02*
X48221801Y-102721976D01*
X48221801Y-102721976D02*
X48126563Y-102721976D01*
X48126563Y-102721976D02*
X48078944Y-102745786D01*
X48078944Y-102745786D02*
X48055134Y-102769595D01*
X48055134Y-102769595D02*
X48031325Y-102817214D01*
X50504539Y-104674356D02*
X50004539Y-104674356D01*
X50004539Y-104674356D02*
X50004539Y-104483880D01*
X50004539Y-104483880D02*
X50028349Y-104436261D01*
X50028349Y-104436261D02*
X50052158Y-104412451D01*
X50052158Y-104412451D02*
X50099777Y-104388642D01*
X50099777Y-104388642D02*
X50171206Y-104388642D01*
X50171206Y-104388642D02*
X50218825Y-104412451D01*
X50218825Y-104412451D02*
X50242634Y-104436261D01*
X50242634Y-104436261D02*
X50266444Y-104483880D01*
X50266444Y-104483880D02*
X50266444Y-104674356D01*
X50004539Y-104079118D02*
X50004539Y-104031499D01*
X50004539Y-104031499D02*
X50028349Y-103983880D01*
X50028349Y-103983880D02*
X50052158Y-103960070D01*
X50052158Y-103960070D02*
X50099777Y-103936261D01*
X50099777Y-103936261D02*
X50195015Y-103912451D01*
X50195015Y-103912451D02*
X50314063Y-103912451D01*
X50314063Y-103912451D02*
X50409301Y-103936261D01*
X50409301Y-103936261D02*
X50456920Y-103960070D01*
X50456920Y-103960070D02*
X50480730Y-103983880D01*
X50480730Y-103983880D02*
X50504539Y-104031499D01*
X50504539Y-104031499D02*
X50504539Y-104079118D01*
X50504539Y-104079118D02*
X50480730Y-104126737D01*
X50480730Y-104126737D02*
X50456920Y-104150546D01*
X50456920Y-104150546D02*
X50409301Y-104174356D01*
X50409301Y-104174356D02*
X50314063Y-104198165D01*
X50314063Y-104198165D02*
X50195015Y-104198165D01*
X50195015Y-104198165D02*
X50099777Y-104174356D01*
X50099777Y-104174356D02*
X50052158Y-104150546D01*
X50052158Y-104150546D02*
X50028349Y-104126737D01*
X50028349Y-104126737D02*
X50004539Y-104079118D01*
X50456920Y-103698166D02*
X50480730Y-103674356D01*
X50480730Y-103674356D02*
X50504539Y-103698166D01*
X50504539Y-103698166D02*
X50480730Y-103721975D01*
X50480730Y-103721975D02*
X50456920Y-103698166D01*
X50456920Y-103698166D02*
X50504539Y-103698166D01*
X50052158Y-103483880D02*
X50028349Y-103460071D01*
X50028349Y-103460071D02*
X50004539Y-103412452D01*
X50004539Y-103412452D02*
X50004539Y-103293404D01*
X50004539Y-103293404D02*
X50028349Y-103245785D01*
X50028349Y-103245785D02*
X50052158Y-103221976D01*
X50052158Y-103221976D02*
X50099777Y-103198166D01*
X50099777Y-103198166D02*
X50147396Y-103198166D01*
X50147396Y-103198166D02*
X50218825Y-103221976D01*
X50218825Y-103221976D02*
X50504539Y-103507690D01*
X50504539Y-103507690D02*
X50504539Y-103198166D01*
X50004539Y-102769595D02*
X50004539Y-102864833D01*
X50004539Y-102864833D02*
X50028349Y-102912452D01*
X50028349Y-102912452D02*
X50052158Y-102936262D01*
X50052158Y-102936262D02*
X50123587Y-102983881D01*
X50123587Y-102983881D02*
X50218825Y-103007690D01*
X50218825Y-103007690D02*
X50409301Y-103007690D01*
X50409301Y-103007690D02*
X50456920Y-102983881D01*
X50456920Y-102983881D02*
X50480730Y-102960071D01*
X50480730Y-102960071D02*
X50504539Y-102912452D01*
X50504539Y-102912452D02*
X50504539Y-102817214D01*
X50504539Y-102817214D02*
X50480730Y-102769595D01*
X50480730Y-102769595D02*
X50456920Y-102745786D01*
X50456920Y-102745786D02*
X50409301Y-102721976D01*
X50409301Y-102721976D02*
X50290253Y-102721976D01*
X50290253Y-102721976D02*
X50242634Y-102745786D01*
X50242634Y-102745786D02*
X50218825Y-102769595D01*
X50218825Y-102769595D02*
X50195015Y-102817214D01*
X50195015Y-102817214D02*
X50195015Y-102912452D01*
X50195015Y-102912452D02*
X50218825Y-102960071D01*
X50218825Y-102960071D02*
X50242634Y-102983881D01*
X50242634Y-102983881D02*
X50290253Y-103007690D01*
X45001716Y-110936904D02*
X44501716Y-110936904D01*
X44501716Y-110936904D02*
X44501716Y-110746428D01*
X44501716Y-110746428D02*
X44525526Y-110698809D01*
X44525526Y-110698809D02*
X44549335Y-110674999D01*
X44549335Y-110674999D02*
X44596954Y-110651190D01*
X44596954Y-110651190D02*
X44668383Y-110651190D01*
X44668383Y-110651190D02*
X44716002Y-110674999D01*
X44716002Y-110674999D02*
X44739811Y-110698809D01*
X44739811Y-110698809D02*
X44763621Y-110746428D01*
X44763621Y-110746428D02*
X44763621Y-110936904D01*
X44501716Y-110341666D02*
X44501716Y-110294047D01*
X44501716Y-110294047D02*
X44525526Y-110246428D01*
X44525526Y-110246428D02*
X44549335Y-110222618D01*
X44549335Y-110222618D02*
X44596954Y-110198809D01*
X44596954Y-110198809D02*
X44692192Y-110174999D01*
X44692192Y-110174999D02*
X44811240Y-110174999D01*
X44811240Y-110174999D02*
X44906478Y-110198809D01*
X44906478Y-110198809D02*
X44954097Y-110222618D01*
X44954097Y-110222618D02*
X44977907Y-110246428D01*
X44977907Y-110246428D02*
X45001716Y-110294047D01*
X45001716Y-110294047D02*
X45001716Y-110341666D01*
X45001716Y-110341666D02*
X44977907Y-110389285D01*
X44977907Y-110389285D02*
X44954097Y-110413094D01*
X44954097Y-110413094D02*
X44906478Y-110436904D01*
X44906478Y-110436904D02*
X44811240Y-110460713D01*
X44811240Y-110460713D02*
X44692192Y-110460713D01*
X44692192Y-110460713D02*
X44596954Y-110436904D01*
X44596954Y-110436904D02*
X44549335Y-110413094D01*
X44549335Y-110413094D02*
X44525526Y-110389285D01*
X44525526Y-110389285D02*
X44501716Y-110341666D01*
X44954097Y-109960714D02*
X44977907Y-109936904D01*
X44977907Y-109936904D02*
X45001716Y-109960714D01*
X45001716Y-109960714D02*
X44977907Y-109984523D01*
X44977907Y-109984523D02*
X44954097Y-109960714D01*
X44954097Y-109960714D02*
X45001716Y-109960714D01*
X44501716Y-109627381D02*
X44501716Y-109579762D01*
X44501716Y-109579762D02*
X44525526Y-109532143D01*
X44525526Y-109532143D02*
X44549335Y-109508333D01*
X44549335Y-109508333D02*
X44596954Y-109484524D01*
X44596954Y-109484524D02*
X44692192Y-109460714D01*
X44692192Y-109460714D02*
X44811240Y-109460714D01*
X44811240Y-109460714D02*
X44906478Y-109484524D01*
X44906478Y-109484524D02*
X44954097Y-109508333D01*
X44954097Y-109508333D02*
X44977907Y-109532143D01*
X44977907Y-109532143D02*
X45001716Y-109579762D01*
X45001716Y-109579762D02*
X45001716Y-109627381D01*
X45001716Y-109627381D02*
X44977907Y-109675000D01*
X44977907Y-109675000D02*
X44954097Y-109698809D01*
X44954097Y-109698809D02*
X44906478Y-109722619D01*
X44906478Y-109722619D02*
X44811240Y-109746428D01*
X44811240Y-109746428D02*
X44692192Y-109746428D01*
X44692192Y-109746428D02*
X44596954Y-109722619D01*
X44596954Y-109722619D02*
X44549335Y-109698809D01*
X44549335Y-109698809D02*
X44525526Y-109675000D01*
X44525526Y-109675000D02*
X44501716Y-109627381D01*
X44501716Y-109294048D02*
X44501716Y-108984524D01*
X44501716Y-108984524D02*
X44692192Y-109151191D01*
X44692192Y-109151191D02*
X44692192Y-109079762D01*
X44692192Y-109079762D02*
X44716002Y-109032143D01*
X44716002Y-109032143D02*
X44739811Y-109008334D01*
X44739811Y-109008334D02*
X44787430Y-108984524D01*
X44787430Y-108984524D02*
X44906478Y-108984524D01*
X44906478Y-108984524D02*
X44954097Y-109008334D01*
X44954097Y-109008334D02*
X44977907Y-109032143D01*
X44977907Y-109032143D02*
X45001716Y-109079762D01*
X45001716Y-109079762D02*
X45001716Y-109222619D01*
X45001716Y-109222619D02*
X44977907Y-109270238D01*
X44977907Y-109270238D02*
X44954097Y-109294048D01*
X49398708Y-110936904D02*
X48898708Y-110936904D01*
X48898708Y-110936904D02*
X48898708Y-110746428D01*
X48898708Y-110746428D02*
X48922518Y-110698809D01*
X48922518Y-110698809D02*
X48946327Y-110674999D01*
X48946327Y-110674999D02*
X48993946Y-110651190D01*
X48993946Y-110651190D02*
X49065375Y-110651190D01*
X49065375Y-110651190D02*
X49112994Y-110674999D01*
X49112994Y-110674999D02*
X49136803Y-110698809D01*
X49136803Y-110698809D02*
X49160613Y-110746428D01*
X49160613Y-110746428D02*
X49160613Y-110936904D01*
X48898708Y-110341666D02*
X48898708Y-110294047D01*
X48898708Y-110294047D02*
X48922518Y-110246428D01*
X48922518Y-110246428D02*
X48946327Y-110222618D01*
X48946327Y-110222618D02*
X48993946Y-110198809D01*
X48993946Y-110198809D02*
X49089184Y-110174999D01*
X49089184Y-110174999D02*
X49208232Y-110174999D01*
X49208232Y-110174999D02*
X49303470Y-110198809D01*
X49303470Y-110198809D02*
X49351089Y-110222618D01*
X49351089Y-110222618D02*
X49374899Y-110246428D01*
X49374899Y-110246428D02*
X49398708Y-110294047D01*
X49398708Y-110294047D02*
X49398708Y-110341666D01*
X49398708Y-110341666D02*
X49374899Y-110389285D01*
X49374899Y-110389285D02*
X49351089Y-110413094D01*
X49351089Y-110413094D02*
X49303470Y-110436904D01*
X49303470Y-110436904D02*
X49208232Y-110460713D01*
X49208232Y-110460713D02*
X49089184Y-110460713D01*
X49089184Y-110460713D02*
X48993946Y-110436904D01*
X48993946Y-110436904D02*
X48946327Y-110413094D01*
X48946327Y-110413094D02*
X48922518Y-110389285D01*
X48922518Y-110389285D02*
X48898708Y-110341666D01*
X49351089Y-109960714D02*
X49374899Y-109936904D01*
X49374899Y-109936904D02*
X49398708Y-109960714D01*
X49398708Y-109960714D02*
X49374899Y-109984523D01*
X49374899Y-109984523D02*
X49351089Y-109960714D01*
X49351089Y-109960714D02*
X49398708Y-109960714D01*
X48898708Y-109770238D02*
X48898708Y-109460714D01*
X48898708Y-109460714D02*
X49089184Y-109627381D01*
X49089184Y-109627381D02*
X49089184Y-109555952D01*
X49089184Y-109555952D02*
X49112994Y-109508333D01*
X49112994Y-109508333D02*
X49136803Y-109484524D01*
X49136803Y-109484524D02*
X49184422Y-109460714D01*
X49184422Y-109460714D02*
X49303470Y-109460714D01*
X49303470Y-109460714D02*
X49351089Y-109484524D01*
X49351089Y-109484524D02*
X49374899Y-109508333D01*
X49374899Y-109508333D02*
X49398708Y-109555952D01*
X49398708Y-109555952D02*
X49398708Y-109698809D01*
X49398708Y-109698809D02*
X49374899Y-109746428D01*
X49374899Y-109746428D02*
X49351089Y-109770238D01*
X48898708Y-109151191D02*
X48898708Y-109103572D01*
X48898708Y-109103572D02*
X48922518Y-109055953D01*
X48922518Y-109055953D02*
X48946327Y-109032143D01*
X48946327Y-109032143D02*
X48993946Y-109008334D01*
X48993946Y-109008334D02*
X49089184Y-108984524D01*
X49089184Y-108984524D02*
X49208232Y-108984524D01*
X49208232Y-108984524D02*
X49303470Y-109008334D01*
X49303470Y-109008334D02*
X49351089Y-109032143D01*
X49351089Y-109032143D02*
X49374899Y-109055953D01*
X49374899Y-109055953D02*
X49398708Y-109103572D01*
X49398708Y-109103572D02*
X49398708Y-109151191D01*
X49398708Y-109151191D02*
X49374899Y-109198810D01*
X49374899Y-109198810D02*
X49351089Y-109222619D01*
X49351089Y-109222619D02*
X49303470Y-109246429D01*
X49303470Y-109246429D02*
X49208232Y-109270238D01*
X49208232Y-109270238D02*
X49089184Y-109270238D01*
X49089184Y-109270238D02*
X48993946Y-109246429D01*
X48993946Y-109246429D02*
X48946327Y-109222619D01*
X48946327Y-109222619D02*
X48922518Y-109198810D01*
X48922518Y-109198810D02*
X48898708Y-109151191D01*
D12*
%TO.C,P1*%
X88983806Y-119798399D02*
G75*
G03*
X88983806Y-119798399I-1700000J0D01*
G01*
X69356193Y-125057602D02*
G75*
G03*
X69356193Y-125057602I-1700000J0D01*
G01*
%TD*%
M02*
